<?xml version="1.0" encoding="utf-8" standalone="no"?>
<!DOCTYPE svg PUBLIC "-//W3C//DTD SVG 1.1//EN"
  "http://www.w3.org/Graphics/SVG/1.1/DTD/svg11.dtd">
<!-- Created with matplotlib (https://matplotlib.org/) -->
<svg height="544.682704pt" version="1.1" viewBox="0 0 852.965937 544.682704" width="852.965937pt" xmlns="http://www.w3.org/2000/svg" xmlns:xlink="http://www.w3.org/1999/xlink">
 <defs>
  <style type="text/css">
*{stroke-linecap:butt;stroke-linejoin:round;}
  </style>
 </defs>
 <g id="figure_1">
  <g id="patch_1">
   <path d="M 0 544.682704 
L 852.965937 544.682704 
L 852.965937 0 
L 0 0 
z
" style="fill:#ffffff;"/>
  </g>
  <g id="axes_1">
   <g id="patch_2">
    <path d="M 64.565938 461.757187 
L 845.765938 461.757187 
L 845.765938 26.877187 
L 64.565938 26.877187 
z
" style="fill:#ffffff;"/>
   </g>
   <g id="PolyCollection_1">
    <defs>
     <path d="M 305.238665 -151.289306 
L 305.238665 -92.920551 
L 321.020483 -100.2703 
L 336.802301 -99.199439 
L 352.584119 -101.230113 
L 368.365937 -98.6625 
L 384.147756 -95.800374 
L 399.929574 -92.370948 
L 415.711392 -92.102027 
L 431.49321 -91.194177 
L 447.275028 -92.141054 
L 463.056847 -92.305477 
L 478.838665 -98.663521 
L 494.620483 -111.491854 
L 510.402301 -123.238876 
L 526.184119 -136.588412 
L 541.965937 -148.994516 
L 557.747756 -149.458833 
L 573.529574 -144.539072 
L 589.311392 -130.489908 
L 605.09321 -127.790316 
L 620.875028 -115.473411 
L 636.656847 -113.081544 
L 652.438665 -111.202613 
L 668.220483 -102.234747 
L 684.002301 -110.297912 
L 699.784119 -116.794959 
L 715.565937 -115.587326 
L 731.347756 -122.659565 
L 747.129574 -133.319726 
L 762.911392 -148.926743 
L 778.69321 -164.62842 
L 794.475028 -197.651442 
L 810.256847 -244.164838 
L 810.256847 -348.680649 
L 810.256847 -348.680649 
L 794.475028 -273.356734 
L 778.69321 -231.561387 
L 762.911392 -213.737145 
L 747.129574 -195.321743 
L 731.347756 -184.050722 
L 715.565937 -177.154847 
L 699.784119 -179.048853 
L 684.002301 -172.798576 
L 668.220483 -164.635414 
L 652.438665 -173.651491 
L 636.656847 -176.042527 
L 620.875028 -178.906231 
L 605.09321 -190.5235 
L 589.311392 -193.857597 
L 573.529574 -206.819522 
L 557.747756 -212.094338 
L 541.965937 -212.272319 
L 526.184119 -198.949399 
L 510.402301 -180.693375 
L 494.620483 -161.32709 
L 478.838665 -142.923646 
L 463.056847 -135.707579 
L 447.275028 -136.465868 
L 431.49321 -136.486167 
L 415.711392 -138.541613 
L 399.929574 -139.996121 
L 384.147756 -144.390719 
L 368.365937 -148.612878 
L 352.584119 -152.785667 
L 336.802301 -152.869518 
L 321.020483 -156.944263 
L 305.238665 -151.289306 
z
" id="m05608c1aa6" style="stroke:#000080;stroke-opacity:0.1;"/>
    </defs>
    <g clip-path="url(#pfbf439249f)">
     <use style="fill:#000080;fill-opacity:0.1;stroke:#000080;stroke-opacity:0.1;" x="0" xlink:href="#m05608c1aa6" y="544.682704"/>
    </g>
   </g>
   <g id="PolyCollection_2">
    <path clip-path="url(#pfbf439249f)" d="M 494.620483 305.541407 
L 494.620483 446.49192 
L 510.402301 444.987305 
L 526.184119 443.117681 
L 541.965937 441.748204 
L 557.747756 442.930715 
L 573.529574 448.122248 
L 589.311392 448.605659 
L 605.09321 449.506551 
L 620.875028 451.234246 
L 636.656847 452.4923 
L 652.438665 453.235121 
L 668.220483 452.45147 
L 684.002301 453.142445 
L 699.784119 451.669377 
L 715.565937 449.477535 
L 731.347756 446.062375 
L 747.129574 446.174896 
L 762.911392 387.030146 
L 778.69321 347.14666 
L 794.475028 302.21429 
L 810.256847 268.036341 
L 810.256847 -230.917481 
L 810.256847 -230.917481 
L 794.475028 -111.692972 
L 778.69321 140.383658 
L 762.911392 216.923984 
L 747.129574 328.790192 
L 731.347756 336.670162 
L 715.565937 357.988547 
L 699.784119 372.352467 
L 684.002301 383.664238 
L 668.220483 386.27039 
L 652.438665 391.010189 
L 636.656847 376.556689 
L 620.875028 371.726457 
L 605.09321 356.88972 
L 589.311392 326.7755 
L 573.529574 328.847704 
L 557.747756 278.593467 
L 541.965937 265.015661 
L 526.184119 281.780821 
L 510.402301 296.412557 
L 494.620483 305.541407 
z
" style="fill:#0000a4;fill-opacity:0.1;stroke:#0000a4;stroke-opacity:0.1;"/>
   </g>
   <g id="PolyCollection_3">
    <defs>
     <path d="M 510.402301 -115.648166 
L 510.402301 -107.9856 
L 526.184119 -166.491297 
L 541.965937 -404.285335 
L 557.747756 -277.362963 
L 573.529574 -177.602165 
L 589.311392 -193.636651 
L 605.09321 -119.096746 
L 620.875028 -117.279454 
L 636.656847 -113.356314 
L 652.438665 -106.101751 
L 668.220483 -103.733943 
L 684.002301 -109.000792 
L 715.565937 -108.820732 
L 731.347756 -118.863494 
L 747.129574 -163.607298 
L 762.911392 -211.83708 
L 778.69321 -226.896249 
L 794.475028 -476.031093 
L 810.256847 -550.633698 
L 810.256847 -564.813371 
L 810.256847 -564.813371 
L 794.475028 -479.442602 
L 778.69321 -233.934094 
L 762.911392 -212.813614 
L 747.129574 -165.174898 
L 731.347756 -120.016749 
L 715.565937 -109.985386 
L 684.002301 -110.509131 
L 668.220483 -104.64286 
L 652.438665 -107.106353 
L 636.656847 -114.936104 
L 620.875028 -118.557316 
L 605.09321 -120.641864 
L 589.311392 -199.084266 
L 573.529574 -182.776568 
L 557.747756 -284.514077 
L 541.965937 -412.413519 
L 526.184119 -168.093595 
L 510.402301 -115.648166 
z
" id="m094b894c37" style="stroke:#0000cd;stroke-opacity:0.1;"/>
    </defs>
    <g clip-path="url(#pfbf439249f)">
     <use style="fill:#0000cd;fill-opacity:0.1;stroke:#0000cd;stroke-opacity:0.1;" x="0" xlink:href="#m094b894c37" y="544.682704"/>
    </g>
   </g>
   <g id="PolyCollection_4">
    <defs>
     <path d="M 510.402301 -171.256333 
L 510.402301 -117.783752 
L 526.184119 -123.831915 
L 541.965937 -159.130776 
L 557.747756 -154.225761 
L 573.529574 -129.999644 
L 589.311392 -123.869067 
L 605.09321 -125.956464 
L 620.875028 -115.40599 
L 636.656847 -124.485995 
L 652.438665 -126.776621 
L 668.220483 -122.211067 
L 684.002301 -141.627225 
L 699.784119 -138.079411 
L 731.347756 -153.142473 
L 762.911392 -177.35603 
L 794.475028 -235.27013 
L 810.256847 -247.361214 
L 810.256847 -268.008626 
L 810.256847 -268.008626 
L 794.475028 -258.691009 
L 762.911392 -196.465012 
L 731.347756 -168.8036 
L 699.784119 -152.809528 
L 684.002301 -156.574975 
L 668.220483 -134.565659 
L 652.438665 -139.448912 
L 636.656847 -135.826544 
L 620.875028 -124.052162 
L 605.09321 -136.796657 
L 589.311392 -136.691703 
L 573.529574 -144.790768 
L 557.747756 -167.731897 
L 541.965937 -176.242055 
L 526.184119 -168.906406 
L 510.402301 -171.256333 
z
" id="mff21568ae8" style="stroke:#0000f6;stroke-opacity:0.1;"/>
    </defs>
    <g clip-path="url(#pfbf439249f)">
     <use style="fill:#0000f6;fill-opacity:0.1;stroke:#0000f6;stroke-opacity:0.1;" x="0" xlink:href="#mff21568ae8" y="544.682704"/>
    </g>
   </g>
   <g id="PolyCollection_5">
    <defs>
     <path d="M 510.402301 -154.93726 
L 510.402301 -140.71958 
L 526.184119 -147.423021 
L 541.965937 -139.556644 
L 557.747756 -123.867084 
L 573.529574 -138.106613 
L 589.311392 -133.736523 
L 605.09321 -121.268788 
L 620.875028 -107.844923 
L 636.656847 -107.573006 
L 652.438665 -96.017197 
L 668.220483 -89.001721 
L 684.002301 -82.925265 
L 699.784119 -82.925265 
L 715.565937 -82.925265 
L 731.347756 -82.925265 
L 747.129574 -82.925265 
L 762.911392 -82.925265 
L 778.69321 -82.925265 
L 794.475028 -105.965393 
L 810.256847 -139.534334 
L 810.256847 -493.771271 
L 810.256847 -493.771271 
L 794.475028 -362.997666 
L 778.69321 -284.250387 
L 762.911392 -226.767738 
L 747.129574 -180.621243 
L 731.347756 -172.650626 
L 715.565937 -155.398395 
L 699.784119 -148.262124 
L 684.002301 -135.034597 
L 668.220483 -128.203258 
L 652.438665 -129.632546 
L 636.656847 -127.532473 
L 620.875028 -137.099706 
L 605.09321 -151.10381 
L 589.311392 -166.491505 
L 573.529574 -191.745416 
L 557.747756 -208.648291 
L 541.965937 -174.483948 
L 526.184119 -150.636241 
L 510.402301 -154.93726 
z
" id="m5e4bbb4247" style="stroke:#000cff;stroke-opacity:0.1;"/>
    </defs>
    <g clip-path="url(#pfbf439249f)">
     <use style="fill:#000cff;fill-opacity:0.1;stroke:#000cff;stroke-opacity:0.1;" x="0" xlink:href="#m5e4bbb4247" y="544.682704"/>
    </g>
   </g>
   <g id="PolyCollection_6">
    <path clip-path="url(#pfbf439249f)" d="M 510.402301 271.831424 
L 510.402301 389.095178 
L 526.184119 407.513119 
L 541.965937 395.947765 
L 557.747756 410.611686 
L 573.529574 425.267846 
L 589.311392 432.819934 
L 605.09321 420.873473 
L 620.875028 436.962193 
L 636.656847 429.632855 
L 652.438665 413.620482 
L 668.220483 429.714865 
L 684.002301 433.037649 
L 699.784119 390.492501 
L 715.565937 376.967287 
L 731.347756 392.763693 
L 747.129574 369.871193 
L 762.911392 332.51828 
L 778.69321 213.171547 
L 794.475028 89.141621 
L 810.256847 -252.342965 
L 810.256847 -516.260607 
L 810.256847 -516.260607 
L 794.475028 -67.477475 
L 778.69321 -300.582698 
L 762.911392 292.295641 
L 747.129574 334.607301 
L 731.347756 368.277961 
L 715.565937 334.936224 
L 699.784119 354.459103 
L 684.002301 378.780954 
L 668.220483 384.94327 
L 652.438665 373.44042 
L 636.656847 401.746383 
L 620.875028 414.073112 
L 605.09321 401.895931 
L 589.311392 403.86481 
L 573.529574 397.023549 
L 557.747756 365.361242 
L 541.965937 356.189711 
L 526.184119 290.046123 
L 510.402301 271.831424 
z
" style="fill:#0030ff;fill-opacity:0.1;stroke:#0030ff;stroke-opacity:0.1;"/>
   </g>
   <g id="PolyCollection_7">
    <defs>
     <path d="M 510.402301 -206.868069 
L 510.402301 -181.716635 
L 526.184119 -195.629982 
L 541.965937 -207.431568 
L 557.747756 -207.631943 
L 573.529574 -166.641204 
L 605.09321 -131.904694 
L 620.875028 -119.107026 
L 636.656847 -107.796304 
L 652.438665 -119.483212 
L 668.220483 -116.814661 
L 684.002301 -104.519242 
L 699.784119 -111.162723 
L 715.565937 -149.217673 
L 731.347756 -153.061806 
L 747.129574 -131.098771 
L 762.911392 -212.876876 
L 778.69321 -241.257991 
L 794.475028 -285.330888 
L 794.475028 -376.752177 
L 794.475028 -376.752177 
L 778.69321 -289.310515 
L 762.911392 -245.700098 
L 747.129574 -139.516724 
L 731.347756 -160.489125 
L 715.565937 -152.322751 
L 699.784119 -118.613242 
L 684.002301 -111.984691 
L 668.220483 -119.610698 
L 652.438665 -123.301247 
L 636.656847 -121.208164 
L 620.875028 -123.698927 
L 605.09321 -137.474415 
L 573.529574 -191.275401 
L 557.747756 -237.242229 
L 541.965937 -267.928137 
L 526.184119 -235.634139 
L 510.402301 -206.868069 
z
" id="m13e1f55dca" style="stroke:#0050ff;stroke-opacity:0.1;"/>
    </defs>
    <g clip-path="url(#pfbf439249f)">
     <use style="fill:#0050ff;fill-opacity:0.1;stroke:#0050ff;stroke-opacity:0.1;" x="0" xlink:href="#m13e1f55dca" y="544.682704"/>
    </g>
   </g>
   <g id="PolyCollection_8">
    <defs>
     <path d="M 510.402301 -201.296053 
L 510.402301 -157.58493 
L 526.184119 -176.632108 
L 541.965937 -173.932476 
L 557.747756 -155.579346 
L 573.529574 -155.433573 
L 605.09321 -131.490103 
L 620.875028 -133.529036 
L 636.656847 -138.206565 
L 652.438665 -136.635993 
L 668.220483 -130.997201 
L 684.002301 -122.670524 
L 699.784119 -130.535971 
L 715.565937 -119.883219 
L 731.347756 -123.795388 
L 747.129574 -132.471291 
L 762.911392 -162.814928 
L 778.69321 -179.025091 
L 794.475028 -189.190186 
L 810.256847 -262.675068 
L 810.256847 -334.166532 
L 810.256847 -334.166532 
L 794.475028 -232.171185 
L 778.69321 -207.682587 
L 762.911392 -185.780986 
L 747.129574 -156.224103 
L 731.347756 -145.509056 
L 715.565937 -142.476769 
L 699.784119 -148.53631 
L 684.002301 -142.027075 
L 668.220483 -144.79802 
L 652.438665 -154.023875 
L 636.656847 -161.053488 
L 620.875028 -159.997211 
L 605.09321 -161.322801 
L 573.529574 -185.373032 
L 557.747756 -204.275904 
L 541.965937 -211.518828 
L 526.184119 -212.741013 
L 510.402301 -201.296053 
z
" id="m60106d83f0" style="stroke:#0074ff;stroke-opacity:0.1;"/>
    </defs>
    <g clip-path="url(#pfbf439249f)">
     <use style="fill:#0074ff;fill-opacity:0.1;stroke:#0074ff;stroke-opacity:0.1;" x="0" xlink:href="#m60106d83f0" y="544.682704"/>
    </g>
   </g>
   <g id="PolyCollection_9">
    <defs>
     <path d="M 510.402301 -189.465676 
L 510.402301 -138.802609 
L 526.184119 -145.946197 
L 541.965937 -153.664781 
L 557.747756 -175.754276 
L 573.529574 -169.878016 
L 589.311392 -157.899837 
L 605.09321 -146.543226 
L 620.875028 -131.711174 
L 636.656847 -124.466017 
L 652.438665 -119.556756 
L 668.220483 -116.041174 
L 684.002301 -113.860861 
L 699.784119 -121.391293 
L 715.565937 -129.729464 
L 731.347756 -127.567368 
L 747.129574 -134.84309 
L 762.911392 -134.914629 
L 778.69321 -140.03825 
L 810.256847 -264.752789 
L 810.256847 -397.56606 
L 810.256847 -397.56606 
L 778.69321 -194.175301 
L 762.911392 -187.488318 
L 747.129574 -187.397577 
L 731.347756 -169.314441 
L 715.565937 -173.066501 
L 699.784119 -152.001139 
L 684.002301 -133.930704 
L 668.220483 -133.767821 
L 652.438665 -140.167526 
L 636.656847 -147.999897 
L 620.875028 -161.539053 
L 605.09321 -183.811001 
L 589.311392 -202.168751 
L 573.529574 -223.888408 
L 557.747756 -237.3656 
L 541.965937 -219.264117 
L 526.184119 -199.55974 
L 510.402301 -189.465676 
z
" id="m7b44033866" style="stroke:#0098ff;stroke-opacity:0.1;"/>
    </defs>
    <g clip-path="url(#pfbf439249f)">
     <use style="fill:#0098ff;fill-opacity:0.1;stroke:#0098ff;stroke-opacity:0.1;" x="0" xlink:href="#m7b44033866" y="544.682704"/>
    </g>
   </g>
   <g id="PolyCollection_10">
    <path clip-path="url(#pfbf439249f)" d="M 510.402301 210.780528 
L 510.402301 434.35979 
L 526.184119 418.067374 
L 541.965937 414.02804 
L 557.747756 419.805243 
L 573.529574 418.947921 
L 589.311392 428.51918 
L 605.09321 430.617179 
L 620.875028 426.20487 
L 636.656847 422.347905 
L 652.438665 440.497357 
L 668.220483 444.072875 
L 684.002301 436.934809 
L 699.784119 437.562312 
L 715.565937 440.47011 
L 731.347756 433.877348 
L 747.129574 431.934632 
L 762.911392 413.842506 
L 778.69321 392.679839 
L 794.475028 353.091381 
L 810.256847 312.374537 
L 810.256847 -107.676424 
L 810.256847 -107.676424 
L 794.475028 53.458144 
L 778.69321 266.924675 
L 762.911392 335.498172 
L 747.129574 390.898648 
L 731.347756 396.079181 
L 715.565937 408.729965 
L 699.784119 404.609413 
L 684.002301 405.746539 
L 668.220483 419.647389 
L 652.438665 409.011353 
L 636.656847 363.476092 
L 620.875028 374.292732 
L 605.09321 371.581406 
L 589.311392 362.978174 
L 573.529574 326.015897 
L 557.747756 289.343584 
L 541.965937 278.333892 
L 526.184119 300.997337 
L 510.402301 210.780528 
z
" style="fill:#00bcff;fill-opacity:0.1;stroke:#00bcff;stroke-opacity:0.1;"/>
   </g>
   <g id="PolyCollection_11">
    <defs>
     <path d="M 526.184119 -331.061168 
L 526.184119 -186.905685 
L 541.965937 -82.925265 
L 557.747756 -180.65079 
L 573.529574 -197.701215 
L 573.529574 -325.41049 
L 573.529574 -325.41049 
L 557.747756 -305.821976 
L 541.965937 -378.289251 
L 526.184119 -331.061168 
z
" id="m9eafd9a47e" style="stroke:#00e0fb;stroke-opacity:0.1;"/>
    </defs>
    <g clip-path="url(#pfbf439249f)">
     <use style="fill:#00e0fb;fill-opacity:0.1;stroke:#00e0fb;stroke-opacity:0.1;" x="0" xlink:href="#m9eafd9a47e" y="544.682704"/>
    </g>
   </g>
   <g id="PolyCollection_12">
    <path clip-path="url(#pfbf439249f)" d="M 526.184119 157.255504 
L 526.184119 433.394018 
L 541.965937 421.614912 
L 557.747756 416.690264 
L 573.529574 416.12305 
L 589.311392 438.305864 
L 605.09321 436.026102 
L 620.875028 441.55839 
L 636.656847 432.037081 
L 652.438665 430.940009 
L 668.220483 442.299405 
L 684.002301 425.341086 
L 699.784119 434.372561 
L 715.565937 436.857677 
L 731.347756 419.959246 
L 747.129574 413.599924 
L 762.911392 400.620529 
L 778.69321 411.863175 
L 794.475028 386.182714 
L 810.256847 323.54203 
L 810.256847 -231.059309 
L 810.256847 -231.059309 
L 794.475028 -68.159859 
L 778.69321 116.026573 
L 762.911392 223.405096 
L 747.129574 294.238265 
L 731.347756 325.599828 
L 715.565937 339.443307 
L 699.784119 335.04199 
L 684.002301 354.502364 
L 668.220483 376.99486 
L 652.438665 368.064907 
L 636.656847 356.419803 
L 620.875028 382.895094 
L 605.09321 356.549104 
L 589.311392 350.288408 
L 573.529574 286.518333 
L 557.747756 233.31492 
L 541.965937 46.331552 
L 526.184119 157.255504 
z
" style="fill:#19ffde;fill-opacity:0.1;stroke:#19ffde;stroke-opacity:0.1;"/>
   </g>
   <g id="PolyCollection_13">
    <defs>
     <path d="M 541.965937 -281.510822 
L 541.965937 -130.036568 
L 557.747756 -134.071018 
L 573.529574 -141.322751 
L 589.311392 -122.021572 
L 605.09321 -124.882707 
L 620.875028 -116.342719 
L 636.656847 -115.066839 
L 652.438665 -113.742507 
L 668.220483 -113.986231 
L 684.002301 -112.121805 
L 699.784119 -116.79493 
L 715.565937 -117.048722 
L 731.347756 -126.145374 
L 747.129574 -133.31971 
L 762.911392 -148.66803 
L 778.69321 -178.032157 
L 794.475028 -215.959764 
L 810.256847 -252.725592 
L 810.256847 -557.959066 
L 810.256847 -557.959066 
L 794.475028 -434.457279 
L 778.69321 -284.250515 
L 762.911392 -232.887046 
L 747.129574 -187.397703 
L 731.347756 -171.307934 
L 715.565937 -162.530724 
L 699.784119 -159.253454 
L 684.002301 -160.513394 
L 668.220483 -147.487374 
L 652.438665 -154.023875 
L 636.656847 -158.293869 
L 620.875028 -158.923105 
L 605.09321 -170.223551 
L 589.311392 -195.811844 
L 573.529574 -199.570479 
L 557.747756 -237.242406 
L 541.965937 -281.510822 
z
" id="mfc4518e153" style="stroke:#33ffc4;stroke-opacity:0.1;"/>
    </defs>
    <g clip-path="url(#pfbf439249f)">
     <use style="fill:#33ffc4;fill-opacity:0.1;stroke:#33ffc4;stroke-opacity:0.1;" x="0" xlink:href="#mfc4518e153" y="544.682704"/>
    </g>
   </g>
   <g id="PolyCollection_14">
    <path clip-path="url(#pfbf439249f)" d="M 557.747756 363.287281 
L 557.747756 451.614997 
L 573.529574 437.538993 
L 589.311392 426.57351 
L 605.09321 426.246937 
L 620.875028 442.708165 
L 636.656847 435.064628 
L 652.438665 432.752186 
L 668.220483 436.424406 
L 684.002301 436.636459 
L 699.784119 428.266364 
L 715.565937 427.633982 
L 731.347756 413.822676 
L 747.129574 413.577274 
L 762.911392 404.705679 
L 778.69321 360.693152 
L 794.475028 298.862765 
L 810.256847 320.10199 
L 810.256847 -2638.313853 
L 810.256847 -2638.313853 
L 794.475028 -507.230235 
L 778.69321 -201.367106 
L 762.911392 -286.935413 
L 747.129574 195.390602 
L 731.347756 231.072256 
L 715.565937 321.87182 
L 699.784119 -194.931072 
L 684.002301 -322.345028 
L 668.220483 397.169951 
L 652.438665 338.707024 
L 636.656847 357.576757 
L 620.875028 331.757534 
L 605.09321 186.287028 
L 589.311392 357.010864 
L 573.529574 269.2331 
L 557.747756 363.287281 
z
" style="fill:#50ffa7;fill-opacity:0.1;stroke:#50ffa7;stroke-opacity:0.1;"/>
   </g>
   <g id="PolyCollection_15">
    <path clip-path="url(#pfbf439249f)" d="M 557.747756 255.350921 
L 557.747756 292.909544 
L 573.529574 326.786844 
L 589.311392 377.74089 
L 605.09321 401.09871 
L 620.875028 411.129358 
L 636.656847 416.435137 
L 652.438665 413.587132 
L 668.220483 417.469915 
L 684.002301 416.234033 
L 699.784119 406.386242 
L 715.565937 407.248462 
L 731.347756 379.715411 
L 747.129574 354.869805 
L 762.911392 300.785605 
L 778.69321 248.208759 
L 794.475028 165.451752 
L 810.256847 -13.276949 
L 810.256847 -133.674087 
L 810.256847 -133.674087 
L 794.475028 71.948341 
L 778.69321 175.075137 
L 762.911392 234.078892 
L 747.129574 311.792952 
L 731.347756 339.001947 
L 715.565937 383.343228 
L 699.784119 379.701253 
L 684.002301 393.00894 
L 668.220483 397.19533 
L 652.438665 391.512261 
L 636.656847 394.119122 
L 620.875028 387.374113 
L 605.09321 377.337089 
L 589.311392 347.453506 
L 573.529574 287.371745 
L 557.747756 255.350921 
z
" style="fill:#6dff8a;fill-opacity:0.1;stroke:#6dff8a;stroke-opacity:0.1;"/>
   </g>
   <g id="PolyCollection_16">
    <defs>
     <path d="M 573.529574 -324.30368 
L 573.529574 -121.140852 
L 589.311392 -127.73755 
L 605.09321 -116.815695 
L 620.875028 -111.272127 
L 636.656847 -123.365829 
L 652.438665 -128.491374 
L 668.220483 -126.5355 
L 684.002301 -151.262579 
L 699.784119 -135.409193 
L 715.565937 -123.580609 
L 731.347756 -135.458693 
L 747.129574 -139.581236 
L 762.911392 -159.738804 
L 778.69321 -174.573248 
L 794.475028 -249.645483 
L 810.256847 -275.766529 
L 810.256847 -606.661706 
L 810.256847 -606.661706 
L 794.475028 -462.958724 
L 778.69321 -393.147739 
L 762.911392 -360.842983 
L 747.129574 -298.348543 
L 731.347756 -285.645111 
L 715.565937 -258.206026 
L 699.784119 -328.022044 
L 684.002301 -319.550643 
L 668.220483 -292.384227 
L 652.438665 -309.695342 
L 636.656847 -293.064011 
L 620.875028 -270.992517 
L 605.09321 -284.813261 
L 589.311392 -340.842304 
L 573.529574 -324.30368 
z
" id="m4b7b2e0367" style="stroke:#8aff6d;stroke-opacity:0.1;"/>
    </defs>
    <g clip-path="url(#pfbf439249f)">
     <use style="fill:#8aff6d;fill-opacity:0.1;stroke:#8aff6d;stroke-opacity:0.1;" x="0" xlink:href="#m4b7b2e0367" y="544.682704"/>
    </g>
   </g>
   <g id="PolyCollection_17">
    <defs>
     <path d="M 573.529574 -334.490169 
L 573.529574 -113.307915 
L 589.311392 -119.885107 
L 605.09321 -109.832646 
L 620.875028 -111.272127 
L 636.656847 -123.365829 
L 652.438665 -128.491374 
L 668.220483 -126.5355 
L 684.002301 -151.262579 
L 699.784119 -135.409193 
L 715.565937 -123.580609 
L 731.347756 -135.458693 
L 747.129574 -139.581236 
L 762.911392 -159.738804 
L 778.69321 -174.573248 
L 794.475028 -257.201346 
L 810.256847 -275.766529 
L 810.256847 -606.661706 
L 810.256847 -606.661706 
L 794.475028 -598.252809 
L 778.69321 -393.147739 
L 762.911392 -360.842983 
L 747.129574 -298.348543 
L 731.347756 -285.645111 
L 715.565937 -258.206026 
L 699.784119 -328.022044 
L 684.002301 -319.550643 
L 668.220483 -292.384227 
L 652.438665 -309.695342 
L 636.656847 -293.064011 
L 620.875028 -270.992517 
L 605.09321 -294.070369 
L 589.311392 -362.119283 
L 573.529574 -334.490169 
z
" id="m83b5b51d74" style="stroke:#a7ff50;stroke-opacity:0.1;"/>
    </defs>
    <g clip-path="url(#pfbf439249f)">
     <use style="fill:#a7ff50;fill-opacity:0.1;stroke:#a7ff50;stroke-opacity:0.1;" x="0" xlink:href="#m83b5b51d74" y="544.682704"/>
    </g>
   </g>
   <g id="PolyCollection_18">
    <defs>
     <path d="M 573.529574 -324.30368 
L 573.529574 -121.140852 
L 589.311392 -127.73755 
L 605.09321 -116.815695 
L 620.875028 -108.06722 
L 636.656847 -121.483156 
L 652.438665 -131.122629 
L 668.220483 -134.366969 
L 684.002301 -149.559657 
L 699.784119 -140.469507 
L 715.565937 -124.376592 
L 731.347756 -134.436184 
L 747.129574 -139.112036 
L 762.911392 -161.239322 
L 778.69321 -171.008208 
L 794.475028 -241.073194 
L 810.256847 -263.657515 
L 810.256847 -590.864952 
L 810.256847 -590.864952 
L 794.475028 -570.152187 
L 778.69321 -539.19924 
L 762.911392 -514.676033 
L 747.129574 -413.039141 
L 731.347756 -408.194025 
L 715.565937 -364.727466 
L 699.784119 -419.854394 
L 684.002301 -351.62363 
L 668.220483 -396.377397 
L 652.438665 -497.27221 
L 636.656847 -387.474759 
L 620.875028 -407.759853 
L 605.09321 -284.813261 
L 589.311392 -340.842304 
L 573.529574 -324.30368 
z
" id="mc56b429e00" style="stroke:#c4ff33;stroke-opacity:0.1;"/>
    </defs>
    <g clip-path="url(#pfbf439249f)">
     <use style="fill:#c4ff33;fill-opacity:0.1;stroke:#c4ff33;stroke-opacity:0.1;" x="0" xlink:href="#mc56b429e00" y="544.682704"/>
    </g>
   </g>
   <g id="PolyCollection_19">
    <defs>
     <path d="M 573.529574 -283.509485 
L 573.529574 -110.188583 
L 589.311392 -115.89701 
L 605.09321 -106.886773 
L 620.875028 -100.494786 
L 636.656847 -111.86277 
L 652.438665 -113.451381 
L 668.220483 -121.143159 
L 684.002301 -140.975622 
L 699.784119 -126.456426 
L 715.565937 -113.68273 
L 731.347756 -120.31047 
L 747.129574 -123.828318 
L 762.911392 -139.99758 
L 778.69321 -147.881485 
L 794.475028 -249.645483 
L 810.256847 -271.104101 
L 810.256847 -494.967529 
L 810.256847 -494.967529 
L 794.475028 -462.958724 
L 778.69321 -385.239923 
L 762.911392 -366.540084 
L 747.129574 -298.150334 
L 731.347756 -293.428548 
L 715.565937 -265.960099 
L 699.784119 -298.393638 
L 684.002301 -282.631701 
L 668.220483 -275.362769 
L 652.438665 -293.302911 
L 636.656847 -267.734544 
L 620.875028 -247.328637 
L 605.09321 -248.608083 
L 589.311392 -305.584545 
L 573.529574 -283.509485 
z
" id="m5f311fda1d" style="stroke:#deff19;stroke-opacity:0.1;"/>
    </defs>
    <g clip-path="url(#pfbf439249f)">
     <use style="fill:#deff19;fill-opacity:0.1;stroke:#deff19;stroke-opacity:0.1;" x="0" xlink:href="#m5f311fda1d" y="544.682704"/>
    </g>
   </g>
   <g id="PolyCollection_20">
    <defs>
     <path d="M 573.529574 -373.905918 
L 573.529574 -117.408015 
L 589.311392 -122.642628 
L 605.09321 -111.915626 
L 620.875028 -106.014652 
L 636.656847 -118.985929 
L 652.438665 -126.454538 
L 668.220483 -130.540586 
L 684.002301 -148.434793 
L 699.784119 -125.649746 
L 715.565937 -120.3025 
L 731.347756 -128.21514 
L 747.129574 -133.568259 
L 762.911392 -153.617808 
L 778.69321 -162.769414 
L 794.475028 -238.707267 
L 810.256847 -255.607072 
L 810.256847 -562.609118 
L 810.256847 -562.609118 
L 794.475028 -561.523686 
L 778.69321 -518.071599 
L 762.911392 -498.168032 
L 747.129574 -395.804163 
L 731.347756 -395.508632 
L 715.565937 -357.067149 
L 699.784119 -338.525038 
L 684.002301 -330.575064 
L 668.220483 -364.983565 
L 652.438665 -439.927855 
L 636.656847 -355.071003 
L 620.875028 -368.035148 
L 605.09321 -327.215364 
L 589.311392 -407.591218 
L 573.529574 -373.905918 
z
" id="m080639a0e9" style="stroke:#fbf100;stroke-opacity:0.1;"/>
    </defs>
    <g clip-path="url(#pfbf439249f)">
     <use style="fill:#fbf100;fill-opacity:0.1;stroke:#fbf100;stroke-opacity:0.1;" x="0" xlink:href="#m080639a0e9" y="544.682704"/>
    </g>
   </g>
   <g id="PolyCollection_21">
    <defs>
     <path d="M 589.311392 -208.368345 
L 589.311392 -120.174418 
L 605.09321 -137.751756 
L 620.875028 -127.431222 
L 636.656847 -121.983706 
L 652.438665 -125.287067 
L 668.220483 -113.986356 
L 684.002301 -112.598798 
L 699.784119 -103.374473 
L 715.565937 -112.989231 
L 731.347756 -134.069338 
L 747.129574 -148.700455 
L 762.911392 -150.105048 
L 778.69321 -179.384317 
L 794.475028 -198.537885 
L 810.256847 -211.234545 
L 810.256847 -378.213201 
L 810.256847 -378.213201 
L 794.475028 -275.758776 
L 778.69321 -219.033654 
L 762.911392 -210.557577 
L 747.129574 -183.891645 
L 731.347756 -166.504342 
L 715.565937 -181.351421 
L 699.784119 -192.098442 
L 684.002301 -173.965293 
L 668.220483 -147.463826 
L 652.438665 -162.255639 
L 636.656847 -168.133335 
L 620.875028 -165.033238 
L 605.09321 -180.367417 
L 589.311392 -208.368345 
z
" id="mb2626669bb" style="stroke:#ffd000;stroke-opacity:0.1;"/>
    </defs>
    <g clip-path="url(#pfbf439249f)">
     <use style="fill:#ffd000;fill-opacity:0.1;stroke:#ffd000;stroke-opacity:0.1;" x="0" xlink:href="#mb2626669bb" y="544.682704"/>
    </g>
   </g>
   <g id="PolyCollection_22">
    <path clip-path="url(#pfbf439249f)" d="M 636.656847 373.770367 
L 636.656847 429.598466 
L 652.438665 437.978741 
L 668.220483 422.072206 
L 684.002301 414.94482 
L 699.784119 417.846124 
L 715.565937 424.739192 
L 731.347756 421.832436 
L 747.129574 400.210322 
L 762.911392 387.488322 
L 778.69321 361.127792 
L 794.475028 323.283906 
L 810.256847 64.036993 
L 810.256847 -419.767218 
L 810.256847 -419.767218 
L 794.475028 176.45075 
L 778.69321 253.715567 
L 762.911392 305.676515 
L 747.129574 334.313413 
L 731.347756 374.717853 
L 715.565937 382.152149 
L 699.784119 385.429344 
L 684.002301 375.188965 
L 668.220483 390.682975 
L 652.438665 330.724334 
L 636.656847 373.770367 
z
" style="fill:#ffae00;fill-opacity:0.1;stroke:#ffae00;stroke-opacity:0.1;"/>
   </g>
   <g id="PolyCollection_23">
    <defs>
     <path d="M 747.129574 -271.102956 
L 747.129574 -127.784784 
L 762.911392 -136.627903 
L 778.69321 -168.982265 
L 794.475028 -220.702005 
L 810.256847 -283.555907 
L 810.256847 -539.087354 
L 810.256847 -539.087354 
L 794.475028 -396.180135 
L 778.69321 -278.588004 
L 762.911392 -307.309821 
L 747.129574 -271.102956 
z
" id="m301c3dc733" style="stroke:#ff8d00;stroke-opacity:0.1;"/>
    </defs>
    <g clip-path="url(#pfbf439249f)">
     <use style="fill:#ff8d00;fill-opacity:0.1;stroke:#ff8d00;stroke-opacity:0.1;" x="0" xlink:href="#m301c3dc733" y="544.682704"/>
    </g>
   </g>
   <g id="PolyCollection_24">
    <path clip-path="url(#pfbf439249f)" d="M 762.911392 233.982363 
L 762.911392 397.230492 
L 794.475028 346.789564 
L 810.256847 202.679753 
L 810.256847 -254.137669 
L 810.256847 -254.137669 
L 794.475028 175.455097 
L 762.911392 233.982363 
z
" style="fill:#ff6c00;fill-opacity:0.1;stroke:#ff6c00;stroke-opacity:0.1;"/>
   </g>
   <g id="PolyCollection_25">
    <defs>
     <path d="M 778.69321 -316.762835 
L 778.69321 -150.730122 
L 794.475028 -184.014539 
L 794.475028 -452.823554 
L 794.475028 -452.823554 
L 778.69321 -316.762835 
z
" id="mfca314ea1c" style="stroke:#ff4e00;stroke-opacity:0.1;"/>
    </defs>
    <g clip-path="url(#pfbf439249f)">
     <use style="fill:#ff4e00;fill-opacity:0.1;stroke:#ff4e00;stroke-opacity:0.1;" x="0" xlink:href="#mfca314ea1c" y="544.682704"/>
    </g>
   </g>
   <g id="PolyCollection_26">
    <defs>
     <path d="M 778.69321 -251.997216 
L 778.69321 -162.49732 
L 794.475028 -164.342927 
L 810.256847 -278.783138 
L 810.256847 -499.277091 
L 810.256847 -499.277091 
L 794.475028 -255.84348 
L 778.69321 -251.997216 
z
" id="m89e5597a91" style="stroke:#ff2d00;stroke-opacity:0.1;"/>
    </defs>
    <g clip-path="url(#pfbf439249f)">
     <use style="fill:#ff2d00;fill-opacity:0.1;stroke:#ff2d00;stroke-opacity:0.1;" x="0" xlink:href="#m89e5597a91" y="544.682704"/>
    </g>
   </g>
   <g id="PolyCollection_27">
    <defs>
     <path d="M 810.256847 -687.439419 
L 810.256847 -673.088967 
L 810.256847 -687.439419 
L 810.256847 -687.439419 
z
" id="m8690465583" style="stroke:#f60b00;stroke-opacity:0.1;"/>
    </defs>
    <g clip-path="url(#pfbf439249f)">
     <use style="fill:#f60b00;fill-opacity:0.1;stroke:#f60b00;stroke-opacity:0.1;" x="0" xlink:href="#m8690465583" y="544.682704"/>
    </g>
   </g>
   <g id="PolyCollection_28">
    <path clip-path="url(#pfbf439249f)" d="M 810.256847 -131.603992 
L 810.256847 432.966634 
L 810.256847 -131.603992 
L 810.256847 -131.603992 
z
" style="fill:#cd0000;fill-opacity:0.1;stroke:#cd0000;stroke-opacity:0.1;"/>
   </g>
   <g id="PolyCollection_29">
    <defs>
     <path d="M 810.256847 -334.200091 
L 810.256847 -248.204533 
L 810.256847 -334.200091 
L 810.256847 -334.200091 
z
" id="m83bde27e5a" style="stroke:#a40000;stroke-opacity:0.1;"/>
    </defs>
    <g clip-path="url(#pfbf439249f)">
     <use style="fill:#a40000;fill-opacity:0.1;stroke:#a40000;stroke-opacity:0.1;" x="0" xlink:href="#m83bde27e5a" y="544.682704"/>
    </g>
   </g>
   <g id="PolyCollection_30">
    <defs>
     <path d="M 810.256847 -551.104689 
L 810.256847 -128.73543 
L 810.256847 -551.104689 
L 810.256847 -551.104689 
z
" id="m7497c4767a" style="stroke:#800000;stroke-opacity:0.1;"/>
    </defs>
    <g clip-path="url(#pfbf439249f)">
     <use style="fill:#800000;fill-opacity:0.1;stroke:#800000;stroke-opacity:0.1;" x="0" xlink:href="#m7497c4767a" y="544.682704"/>
    </g>
   </g>
   <g id="matplotlib.axis_1">
    <g id="xtick_1">
     <g id="line2d_1">
      <defs>
       <path d="M 0 0 
L 0 3.5 
" id="m40ea1e2ad4" style="stroke:#000000;stroke-width:0.8;"/>
      </defs>
      <g>
       <use style="stroke:#000000;stroke-width:0.8;" x="100.075028" xlink:href="#m40ea1e2ad4" y="461.757187"/>
      </g>
     </g>
     <g id="text_1">
      <!-- 2020-02 -->
      <defs>
       <path d="M 19.1875 8.296875 
L 53.609375 8.296875 
L 53.609375 0 
L 7.328125 0 
L 7.328125 8.296875 
Q 12.9375 14.109375 22.625 23.890625 
Q 32.328125 33.6875 34.8125 36.53125 
Q 39.546875 41.84375 41.421875 45.53125 
Q 43.3125 49.21875 43.3125 52.78125 
Q 43.3125 58.59375 39.234375 62.25 
Q 35.15625 65.921875 28.609375 65.921875 
Q 23.96875 65.921875 18.8125 64.3125 
Q 13.671875 62.703125 7.8125 59.421875 
L 7.8125 69.390625 
Q 13.765625 71.78125 18.9375 73 
Q 24.125 74.21875 28.421875 74.21875 
Q 39.75 74.21875 46.484375 68.546875 
Q 53.21875 62.890625 53.21875 53.421875 
Q 53.21875 48.921875 51.53125 44.890625 
Q 49.859375 40.875 45.40625 35.40625 
Q 44.1875 33.984375 37.640625 27.21875 
Q 31.109375 20.453125 19.1875 8.296875 
z
" id="DejaVuSans-50"/>
       <path d="M 31.78125 66.40625 
Q 24.171875 66.40625 20.328125 58.90625 
Q 16.5 51.421875 16.5 36.375 
Q 16.5 21.390625 20.328125 13.890625 
Q 24.171875 6.390625 31.78125 6.390625 
Q 39.453125 6.390625 43.28125 13.890625 
Q 47.125 21.390625 47.125 36.375 
Q 47.125 51.421875 43.28125 58.90625 
Q 39.453125 66.40625 31.78125 66.40625 
z
M 31.78125 74.21875 
Q 44.046875 74.21875 50.515625 64.515625 
Q 56.984375 54.828125 56.984375 36.375 
Q 56.984375 17.96875 50.515625 8.265625 
Q 44.046875 -1.421875 31.78125 -1.421875 
Q 19.53125 -1.421875 13.0625 8.265625 
Q 6.59375 17.96875 6.59375 36.375 
Q 6.59375 54.828125 13.0625 64.515625 
Q 19.53125 74.21875 31.78125 74.21875 
z
" id="DejaVuSans-48"/>
       <path d="M 4.890625 31.390625 
L 31.203125 31.390625 
L 31.203125 23.390625 
L 4.890625 23.390625 
z
" id="DejaVuSans-45"/>
      </defs>
      <g transform="translate(83.407361 514.150349)rotate(-45)scale(0.13 -0.13)">
       <use xlink:href="#DejaVuSans-50"/>
       <use x="63.623047" xlink:href="#DejaVuSans-48"/>
       <use x="127.246094" xlink:href="#DejaVuSans-50"/>
       <use x="190.869141" xlink:href="#DejaVuSans-48"/>
       <use x="254.492188" xlink:href="#DejaVuSans-45"/>
       <use x="290.576172" xlink:href="#DejaVuSans-48"/>
       <use x="354.199219" xlink:href="#DejaVuSans-50"/>
      </g>
     </g>
    </g>
    <g id="xtick_2">
     <g id="line2d_2">
      <g>
       <use style="stroke:#000000;stroke-width:0.8;" x="165.456847" xlink:href="#m40ea1e2ad4" y="461.757187"/>
      </g>
     </g>
     <g id="text_2">
      <!-- 2020-03 -->
      <defs>
       <path d="M 40.578125 39.3125 
Q 47.65625 37.796875 51.625 33 
Q 55.609375 28.21875 55.609375 21.1875 
Q 55.609375 10.40625 48.1875 4.484375 
Q 40.765625 -1.421875 27.09375 -1.421875 
Q 22.515625 -1.421875 17.65625 -0.515625 
Q 12.796875 0.390625 7.625 2.203125 
L 7.625 11.71875 
Q 11.71875 9.328125 16.59375 8.109375 
Q 21.484375 6.890625 26.8125 6.890625 
Q 36.078125 6.890625 40.9375 10.546875 
Q 45.796875 14.203125 45.796875 21.1875 
Q 45.796875 27.640625 41.28125 31.265625 
Q 36.765625 34.90625 28.71875 34.90625 
L 20.21875 34.90625 
L 20.21875 43.015625 
L 29.109375 43.015625 
Q 36.375 43.015625 40.234375 45.921875 
Q 44.09375 48.828125 44.09375 54.296875 
Q 44.09375 59.90625 40.109375 62.90625 
Q 36.140625 65.921875 28.71875 65.921875 
Q 24.65625 65.921875 20.015625 65.03125 
Q 15.375 64.15625 9.8125 62.3125 
L 9.8125 71.09375 
Q 15.4375 72.65625 20.34375 73.4375 
Q 25.25 74.21875 29.59375 74.21875 
Q 40.828125 74.21875 47.359375 69.109375 
Q 53.90625 64.015625 53.90625 55.328125 
Q 53.90625 49.265625 50.4375 45.09375 
Q 46.96875 40.921875 40.578125 39.3125 
z
" id="DejaVuSans-51"/>
      </defs>
      <g transform="translate(148.78918 514.150349)rotate(-45)scale(0.13 -0.13)">
       <use xlink:href="#DejaVuSans-50"/>
       <use x="63.623047" xlink:href="#DejaVuSans-48"/>
       <use x="127.246094" xlink:href="#DejaVuSans-50"/>
       <use x="190.869141" xlink:href="#DejaVuSans-48"/>
       <use x="254.492188" xlink:href="#DejaVuSans-45"/>
       <use x="290.576172" xlink:href="#DejaVuSans-48"/>
       <use x="354.199219" xlink:href="#DejaVuSans-51"/>
      </g>
     </g>
    </g>
    <g id="xtick_3">
     <g id="line2d_3">
      <g>
       <use style="stroke:#000000;stroke-width:0.8;" x="235.347756" xlink:href="#m40ea1e2ad4" y="461.757187"/>
      </g>
     </g>
     <g id="text_3">
      <!-- 2020-04 -->
      <defs>
       <path d="M 37.796875 64.3125 
L 12.890625 25.390625 
L 37.796875 25.390625 
z
M 35.203125 72.90625 
L 47.609375 72.90625 
L 47.609375 25.390625 
L 58.015625 25.390625 
L 58.015625 17.1875 
L 47.609375 17.1875 
L 47.609375 0 
L 37.796875 0 
L 37.796875 17.1875 
L 4.890625 17.1875 
L 4.890625 26.703125 
z
" id="DejaVuSans-52"/>
      </defs>
      <g transform="translate(218.680089 514.150349)rotate(-45)scale(0.13 -0.13)">
       <use xlink:href="#DejaVuSans-50"/>
       <use x="63.623047" xlink:href="#DejaVuSans-48"/>
       <use x="127.246094" xlink:href="#DejaVuSans-50"/>
       <use x="190.869141" xlink:href="#DejaVuSans-48"/>
       <use x="254.492188" xlink:href="#DejaVuSans-45"/>
       <use x="290.576172" xlink:href="#DejaVuSans-48"/>
       <use x="354.199219" xlink:href="#DejaVuSans-52"/>
      </g>
     </g>
    </g>
    <g id="xtick_4">
     <g id="line2d_4">
      <g>
       <use style="stroke:#000000;stroke-width:0.8;" x="302.984119" xlink:href="#m40ea1e2ad4" y="461.757187"/>
      </g>
     </g>
     <g id="text_4">
      <!-- 2020-05 -->
      <defs>
       <path d="M 10.796875 72.90625 
L 49.515625 72.90625 
L 49.515625 64.59375 
L 19.828125 64.59375 
L 19.828125 46.734375 
Q 21.96875 47.46875 24.109375 47.828125 
Q 26.265625 48.1875 28.421875 48.1875 
Q 40.625 48.1875 47.75 41.5 
Q 54.890625 34.8125 54.890625 23.390625 
Q 54.890625 11.625 47.5625 5.09375 
Q 40.234375 -1.421875 26.90625 -1.421875 
Q 22.3125 -1.421875 17.546875 -0.640625 
Q 12.796875 0.140625 7.71875 1.703125 
L 7.71875 11.625 
Q 12.109375 9.234375 16.796875 8.0625 
Q 21.484375 6.890625 26.703125 6.890625 
Q 35.15625 6.890625 40.078125 11.328125 
Q 45.015625 15.765625 45.015625 23.390625 
Q 45.015625 31 40.078125 35.4375 
Q 35.15625 39.890625 26.703125 39.890625 
Q 22.75 39.890625 18.8125 39.015625 
Q 14.890625 38.140625 10.796875 36.28125 
z
" id="DejaVuSans-53"/>
      </defs>
      <g transform="translate(286.316452 514.150349)rotate(-45)scale(0.13 -0.13)">
       <use xlink:href="#DejaVuSans-50"/>
       <use x="63.623047" xlink:href="#DejaVuSans-48"/>
       <use x="127.246094" xlink:href="#DejaVuSans-50"/>
       <use x="190.869141" xlink:href="#DejaVuSans-48"/>
       <use x="254.492188" xlink:href="#DejaVuSans-45"/>
       <use x="290.576172" xlink:href="#DejaVuSans-48"/>
       <use x="354.199219" xlink:href="#DejaVuSans-53"/>
      </g>
     </g>
    </g>
    <g id="xtick_5">
     <g id="line2d_5">
      <g>
       <use style="stroke:#000000;stroke-width:0.8;" x="372.875028" xlink:href="#m40ea1e2ad4" y="461.757187"/>
      </g>
     </g>
     <g id="text_5">
      <!-- 2020-06 -->
      <defs>
       <path d="M 33.015625 40.375 
Q 26.375 40.375 22.484375 35.828125 
Q 18.609375 31.296875 18.609375 23.390625 
Q 18.609375 15.53125 22.484375 10.953125 
Q 26.375 6.390625 33.015625 6.390625 
Q 39.65625 6.390625 43.53125 10.953125 
Q 47.40625 15.53125 47.40625 23.390625 
Q 47.40625 31.296875 43.53125 35.828125 
Q 39.65625 40.375 33.015625 40.375 
z
M 52.59375 71.296875 
L 52.59375 62.3125 
Q 48.875 64.0625 45.09375 64.984375 
Q 41.3125 65.921875 37.59375 65.921875 
Q 27.828125 65.921875 22.671875 59.328125 
Q 17.53125 52.734375 16.796875 39.40625 
Q 19.671875 43.65625 24.015625 45.921875 
Q 28.375 48.1875 33.59375 48.1875 
Q 44.578125 48.1875 50.953125 41.515625 
Q 57.328125 34.859375 57.328125 23.390625 
Q 57.328125 12.15625 50.6875 5.359375 
Q 44.046875 -1.421875 33.015625 -1.421875 
Q 20.359375 -1.421875 13.671875 8.265625 
Q 6.984375 17.96875 6.984375 36.375 
Q 6.984375 53.65625 15.1875 63.9375 
Q 23.390625 74.21875 37.203125 74.21875 
Q 40.921875 74.21875 44.703125 73.484375 
Q 48.484375 72.75 52.59375 71.296875 
z
" id="DejaVuSans-54"/>
      </defs>
      <g transform="translate(356.207361 514.150349)rotate(-45)scale(0.13 -0.13)">
       <use xlink:href="#DejaVuSans-50"/>
       <use x="63.623047" xlink:href="#DejaVuSans-48"/>
       <use x="127.246094" xlink:href="#DejaVuSans-50"/>
       <use x="190.869141" xlink:href="#DejaVuSans-48"/>
       <use x="254.492188" xlink:href="#DejaVuSans-45"/>
       <use x="290.576172" xlink:href="#DejaVuSans-48"/>
       <use x="354.199219" xlink:href="#DejaVuSans-54"/>
      </g>
     </g>
    </g>
    <g id="xtick_6">
     <g id="line2d_6">
      <g>
       <use style="stroke:#000000;stroke-width:0.8;" x="440.511392" xlink:href="#m40ea1e2ad4" y="461.757187"/>
      </g>
     </g>
     <g id="text_6">
      <!-- 2020-07 -->
      <defs>
       <path d="M 8.203125 72.90625 
L 55.078125 72.90625 
L 55.078125 68.703125 
L 28.609375 0 
L 18.3125 0 
L 43.21875 64.59375 
L 8.203125 64.59375 
z
" id="DejaVuSans-55"/>
      </defs>
      <g transform="translate(423.843725 514.150349)rotate(-45)scale(0.13 -0.13)">
       <use xlink:href="#DejaVuSans-50"/>
       <use x="63.623047" xlink:href="#DejaVuSans-48"/>
       <use x="127.246094" xlink:href="#DejaVuSans-50"/>
       <use x="190.869141" xlink:href="#DejaVuSans-48"/>
       <use x="254.492188" xlink:href="#DejaVuSans-45"/>
       <use x="290.576172" xlink:href="#DejaVuSans-48"/>
       <use x="354.199219" xlink:href="#DejaVuSans-55"/>
      </g>
     </g>
    </g>
    <g id="xtick_7">
     <g id="line2d_7">
      <g>
       <use style="stroke:#000000;stroke-width:0.8;" x="510.402301" xlink:href="#m40ea1e2ad4" y="461.757187"/>
      </g>
     </g>
     <g id="text_7">
      <!-- 2020-08 -->
      <defs>
       <path d="M 31.78125 34.625 
Q 24.75 34.625 20.71875 30.859375 
Q 16.703125 27.09375 16.703125 20.515625 
Q 16.703125 13.921875 20.71875 10.15625 
Q 24.75 6.390625 31.78125 6.390625 
Q 38.8125 6.390625 42.859375 10.171875 
Q 46.921875 13.96875 46.921875 20.515625 
Q 46.921875 27.09375 42.890625 30.859375 
Q 38.875 34.625 31.78125 34.625 
z
M 21.921875 38.8125 
Q 15.578125 40.375 12.03125 44.71875 
Q 8.5 49.078125 8.5 55.328125 
Q 8.5 64.0625 14.71875 69.140625 
Q 20.953125 74.21875 31.78125 74.21875 
Q 42.671875 74.21875 48.875 69.140625 
Q 55.078125 64.0625 55.078125 55.328125 
Q 55.078125 49.078125 51.53125 44.71875 
Q 48 40.375 41.703125 38.8125 
Q 48.828125 37.15625 52.796875 32.3125 
Q 56.78125 27.484375 56.78125 20.515625 
Q 56.78125 9.90625 50.3125 4.234375 
Q 43.84375 -1.421875 31.78125 -1.421875 
Q 19.734375 -1.421875 13.25 4.234375 
Q 6.78125 9.90625 6.78125 20.515625 
Q 6.78125 27.484375 10.78125 32.3125 
Q 14.796875 37.15625 21.921875 38.8125 
z
M 18.3125 54.390625 
Q 18.3125 48.734375 21.84375 45.5625 
Q 25.390625 42.390625 31.78125 42.390625 
Q 38.140625 42.390625 41.71875 45.5625 
Q 45.3125 48.734375 45.3125 54.390625 
Q 45.3125 60.0625 41.71875 63.234375 
Q 38.140625 66.40625 31.78125 66.40625 
Q 25.390625 66.40625 21.84375 63.234375 
Q 18.3125 60.0625 18.3125 54.390625 
z
" id="DejaVuSans-56"/>
      </defs>
      <g transform="translate(493.734634 514.150349)rotate(-45)scale(0.13 -0.13)">
       <use xlink:href="#DejaVuSans-50"/>
       <use x="63.623047" xlink:href="#DejaVuSans-48"/>
       <use x="127.246094" xlink:href="#DejaVuSans-50"/>
       <use x="190.869141" xlink:href="#DejaVuSans-48"/>
       <use x="254.492188" xlink:href="#DejaVuSans-45"/>
       <use x="290.576172" xlink:href="#DejaVuSans-48"/>
       <use x="354.199219" xlink:href="#DejaVuSans-56"/>
      </g>
     </g>
    </g>
    <g id="xtick_8">
     <g id="line2d_8">
      <g>
       <use style="stroke:#000000;stroke-width:0.8;" x="580.29321" xlink:href="#m40ea1e2ad4" y="461.757187"/>
      </g>
     </g>
     <g id="text_8">
      <!-- 2020-09 -->
      <defs>
       <path d="M 10.984375 1.515625 
L 10.984375 10.5 
Q 14.703125 8.734375 18.5 7.8125 
Q 22.3125 6.890625 25.984375 6.890625 
Q 35.75 6.890625 40.890625 13.453125 
Q 46.046875 20.015625 46.78125 33.40625 
Q 43.953125 29.203125 39.59375 26.953125 
Q 35.25 24.703125 29.984375 24.703125 
Q 19.046875 24.703125 12.671875 31.3125 
Q 6.296875 37.9375 6.296875 49.421875 
Q 6.296875 60.640625 12.9375 67.421875 
Q 19.578125 74.21875 30.609375 74.21875 
Q 43.265625 74.21875 49.921875 64.515625 
Q 56.59375 54.828125 56.59375 36.375 
Q 56.59375 19.140625 48.40625 8.859375 
Q 40.234375 -1.421875 26.421875 -1.421875 
Q 22.703125 -1.421875 18.890625 -0.6875 
Q 15.09375 0.046875 10.984375 1.515625 
z
M 30.609375 32.421875 
Q 37.25 32.421875 41.125 36.953125 
Q 45.015625 41.5 45.015625 49.421875 
Q 45.015625 57.28125 41.125 61.84375 
Q 37.25 66.40625 30.609375 66.40625 
Q 23.96875 66.40625 20.09375 61.84375 
Q 16.21875 57.28125 16.21875 49.421875 
Q 16.21875 41.5 20.09375 36.953125 
Q 23.96875 32.421875 30.609375 32.421875 
z
" id="DejaVuSans-57"/>
      </defs>
      <g transform="translate(563.625543 514.150349)rotate(-45)scale(0.13 -0.13)">
       <use xlink:href="#DejaVuSans-50"/>
       <use x="63.623047" xlink:href="#DejaVuSans-48"/>
       <use x="127.246094" xlink:href="#DejaVuSans-50"/>
       <use x="190.869141" xlink:href="#DejaVuSans-48"/>
       <use x="254.492188" xlink:href="#DejaVuSans-45"/>
       <use x="290.576172" xlink:href="#DejaVuSans-48"/>
       <use x="354.199219" xlink:href="#DejaVuSans-57"/>
      </g>
     </g>
    </g>
    <g id="xtick_9">
     <g id="line2d_9">
      <g>
       <use style="stroke:#000000;stroke-width:0.8;" x="647.929574" xlink:href="#m40ea1e2ad4" y="461.757187"/>
      </g>
     </g>
     <g id="text_9">
      <!-- 2020-10 -->
      <defs>
       <path d="M 12.40625 8.296875 
L 28.515625 8.296875 
L 28.515625 63.921875 
L 10.984375 60.40625 
L 10.984375 69.390625 
L 28.421875 72.90625 
L 38.28125 72.90625 
L 38.28125 8.296875 
L 54.390625 8.296875 
L 54.390625 0 
L 12.40625 0 
z
" id="DejaVuSans-49"/>
      </defs>
      <g transform="translate(631.261907 514.150349)rotate(-45)scale(0.13 -0.13)">
       <use xlink:href="#DejaVuSans-50"/>
       <use x="63.623047" xlink:href="#DejaVuSans-48"/>
       <use x="127.246094" xlink:href="#DejaVuSans-50"/>
       <use x="190.869141" xlink:href="#DejaVuSans-48"/>
       <use x="254.492188" xlink:href="#DejaVuSans-45"/>
       <use x="290.576172" xlink:href="#DejaVuSans-49"/>
       <use x="354.199219" xlink:href="#DejaVuSans-48"/>
      </g>
     </g>
    </g>
    <g id="xtick_10">
     <g id="line2d_10">
      <g>
       <use style="stroke:#000000;stroke-width:0.8;" x="717.820483" xlink:href="#m40ea1e2ad4" y="461.757187"/>
      </g>
     </g>
     <g id="text_10">
      <!-- 2020-11 -->
      <g transform="translate(701.152816 514.150349)rotate(-45)scale(0.13 -0.13)">
       <use xlink:href="#DejaVuSans-50"/>
       <use x="63.623047" xlink:href="#DejaVuSans-48"/>
       <use x="127.246094" xlink:href="#DejaVuSans-50"/>
       <use x="190.869141" xlink:href="#DejaVuSans-48"/>
       <use x="254.492188" xlink:href="#DejaVuSans-45"/>
       <use x="290.576172" xlink:href="#DejaVuSans-49"/>
       <use x="354.199219" xlink:href="#DejaVuSans-49"/>
      </g>
     </g>
    </g>
    <g id="xtick_11">
     <g id="line2d_11">
      <g>
       <use style="stroke:#000000;stroke-width:0.8;" x="785.456847" xlink:href="#m40ea1e2ad4" y="461.757187"/>
      </g>
     </g>
     <g id="text_11">
      <!-- 2020-12 -->
      <g transform="translate(768.78918 514.150349)rotate(-45)scale(0.13 -0.13)">
       <use xlink:href="#DejaVuSans-50"/>
       <use x="63.623047" xlink:href="#DejaVuSans-48"/>
       <use x="127.246094" xlink:href="#DejaVuSans-50"/>
       <use x="190.869141" xlink:href="#DejaVuSans-48"/>
       <use x="254.492188" xlink:href="#DejaVuSans-45"/>
       <use x="290.576172" xlink:href="#DejaVuSans-49"/>
       <use x="354.199219" xlink:href="#DejaVuSans-50"/>
      </g>
     </g>
    </g>
    <g id="text_12">
     <!-- Date -->
     <defs>
      <path d="M 19.671875 64.796875 
L 19.671875 8.109375 
L 31.59375 8.109375 
Q 46.6875 8.109375 53.6875 14.9375 
Q 60.6875 21.78125 60.6875 36.53125 
Q 60.6875 51.171875 53.6875 57.984375 
Q 46.6875 64.796875 31.59375 64.796875 
z
M 9.8125 72.90625 
L 30.078125 72.90625 
Q 51.265625 72.90625 61.171875 64.09375 
Q 71.09375 55.28125 71.09375 36.53125 
Q 71.09375 17.671875 61.125 8.828125 
Q 51.171875 0 30.078125 0 
L 9.8125 0 
z
" id="DejaVuSans-68"/>
      <path d="M 34.28125 27.484375 
Q 23.390625 27.484375 19.1875 25 
Q 14.984375 22.515625 14.984375 16.5 
Q 14.984375 11.71875 18.140625 8.90625 
Q 21.296875 6.109375 26.703125 6.109375 
Q 34.1875 6.109375 38.703125 11.40625 
Q 43.21875 16.703125 43.21875 25.484375 
L 43.21875 27.484375 
z
M 52.203125 31.203125 
L 52.203125 0 
L 43.21875 0 
L 43.21875 8.296875 
Q 40.140625 3.328125 35.546875 0.953125 
Q 30.953125 -1.421875 24.3125 -1.421875 
Q 15.921875 -1.421875 10.953125 3.296875 
Q 6 8.015625 6 15.921875 
Q 6 25.140625 12.171875 29.828125 
Q 18.359375 34.515625 30.609375 34.515625 
L 43.21875 34.515625 
L 43.21875 35.40625 
Q 43.21875 41.609375 39.140625 45 
Q 35.0625 48.390625 27.6875 48.390625 
Q 23 48.390625 18.546875 47.265625 
Q 14.109375 46.140625 10.015625 43.890625 
L 10.015625 52.203125 
Q 14.9375 54.109375 19.578125 55.046875 
Q 24.21875 56 28.609375 56 
Q 40.484375 56 46.34375 49.84375 
Q 52.203125 43.703125 52.203125 31.203125 
z
" id="DejaVuSans-97"/>
      <path d="M 18.3125 70.21875 
L 18.3125 54.6875 
L 36.8125 54.6875 
L 36.8125 47.703125 
L 18.3125 47.703125 
L 18.3125 18.015625 
Q 18.3125 11.328125 20.140625 9.421875 
Q 21.96875 7.515625 27.59375 7.515625 
L 36.8125 7.515625 
L 36.8125 0 
L 27.59375 0 
Q 17.1875 0 13.234375 3.875 
Q 9.28125 7.765625 9.28125 18.015625 
L 9.28125 47.703125 
L 2.6875 47.703125 
L 2.6875 54.6875 
L 9.28125 54.6875 
L 9.28125 70.21875 
z
" id="DejaVuSans-116"/>
      <path d="M 56.203125 29.59375 
L 56.203125 25.203125 
L 14.890625 25.203125 
Q 15.484375 15.921875 20.484375 11.0625 
Q 25.484375 6.203125 34.421875 6.203125 
Q 39.59375 6.203125 44.453125 7.46875 
Q 49.3125 8.734375 54.109375 11.28125 
L 54.109375 2.78125 
Q 49.265625 0.734375 44.1875 -0.34375 
Q 39.109375 -1.421875 33.890625 -1.421875 
Q 20.796875 -1.421875 13.15625 6.1875 
Q 5.515625 13.8125 5.515625 26.8125 
Q 5.515625 40.234375 12.765625 48.109375 
Q 20.015625 56 32.328125 56 
Q 43.359375 56 49.78125 48.890625 
Q 56.203125 41.796875 56.203125 29.59375 
z
M 47.21875 32.234375 
Q 47.125 39.59375 43.09375 43.984375 
Q 39.0625 48.390625 32.421875 48.390625 
Q 24.90625 48.390625 20.390625 44.140625 
Q 15.875 39.890625 15.1875 32.171875 
z
" id="DejaVuSans-101"/>
     </defs>
     <g transform="translate(433.654531 533.739266)scale(0.18 -0.18)">
      <use xlink:href="#DejaVuSans-68"/>
      <use x="77.001953" xlink:href="#DejaVuSans-97"/>
      <use x="138.28125" xlink:href="#DejaVuSans-116"/>
      <use x="177.490234" xlink:href="#DejaVuSans-101"/>
     </g>
    </g>
   </g>
   <g id="matplotlib.axis_2">
    <g id="ytick_1">
     <g id="line2d_12">
      <defs>
       <path d="M 0 0 
L -3.5 0 
" id="ma94bfac7df" style="stroke:#000000;stroke-width:0.8;"/>
      </defs>
      <g>
       <use style="stroke:#000000;stroke-width:0.8;" x="64.565938" xlink:href="#ma94bfac7df" y="409.321123"/>
      </g>
     </g>
     <g id="text_13">
      <!-- 0.25 -->
      <defs>
       <path d="M 10.6875 12.40625 
L 21 12.40625 
L 21 0 
L 10.6875 0 
z
" id="DejaVuSans-46"/>
      </defs>
      <g transform="translate(28.620625 414.260108)scale(0.13 -0.13)">
       <use xlink:href="#DejaVuSans-48"/>
       <use x="63.623047" xlink:href="#DejaVuSans-46"/>
       <use x="95.410156" xlink:href="#DejaVuSans-50"/>
       <use x="159.033203" xlink:href="#DejaVuSans-53"/>
      </g>
     </g>
    </g>
    <g id="ytick_2">
     <g id="line2d_13">
      <g>
       <use style="stroke:#000000;stroke-width:0.8;" x="64.565938" xlink:href="#ma94bfac7df" y="356.884807"/>
      </g>
     </g>
     <g id="text_14">
      <!-- 0.50 -->
      <g transform="translate(28.620625 361.823791)scale(0.13 -0.13)">
       <use xlink:href="#DejaVuSans-48"/>
       <use x="63.623047" xlink:href="#DejaVuSans-46"/>
       <use x="95.410156" xlink:href="#DejaVuSans-53"/>
       <use x="159.033203" xlink:href="#DejaVuSans-48"/>
      </g>
     </g>
    </g>
    <g id="ytick_3">
     <g id="line2d_14">
      <g>
       <use style="stroke:#000000;stroke-width:0.8;" x="64.565938" xlink:href="#ma94bfac7df" y="304.448491"/>
      </g>
     </g>
     <g id="text_15">
      <!-- 0.75 -->
      <g transform="translate(28.620625 309.387475)scale(0.13 -0.13)">
       <use xlink:href="#DejaVuSans-48"/>
       <use x="63.623047" xlink:href="#DejaVuSans-46"/>
       <use x="95.410156" xlink:href="#DejaVuSans-55"/>
       <use x="159.033203" xlink:href="#DejaVuSans-53"/>
      </g>
     </g>
    </g>
    <g id="ytick_4">
     <g id="line2d_15">
      <g>
       <use style="stroke:#000000;stroke-width:0.8;" x="64.565938" xlink:href="#ma94bfac7df" y="252.012175"/>
      </g>
     </g>
     <g id="text_16">
      <!-- 1.00 -->
      <g transform="translate(28.620625 256.951159)scale(0.13 -0.13)">
       <use xlink:href="#DejaVuSans-49"/>
       <use x="63.623047" xlink:href="#DejaVuSans-46"/>
       <use x="95.410156" xlink:href="#DejaVuSans-48"/>
       <use x="159.033203" xlink:href="#DejaVuSans-48"/>
      </g>
     </g>
    </g>
    <g id="ytick_5">
     <g id="line2d_16">
      <g>
       <use style="stroke:#000000;stroke-width:0.8;" x="64.565938" xlink:href="#ma94bfac7df" y="199.575859"/>
      </g>
     </g>
     <g id="text_17">
      <!-- 1.25 -->
      <g transform="translate(28.620625 204.514843)scale(0.13 -0.13)">
       <use xlink:href="#DejaVuSans-49"/>
       <use x="63.623047" xlink:href="#DejaVuSans-46"/>
       <use x="95.410156" xlink:href="#DejaVuSans-50"/>
       <use x="159.033203" xlink:href="#DejaVuSans-53"/>
      </g>
     </g>
    </g>
    <g id="ytick_6">
     <g id="line2d_17">
      <g>
       <use style="stroke:#000000;stroke-width:0.8;" x="64.565938" xlink:href="#ma94bfac7df" y="147.139543"/>
      </g>
     </g>
     <g id="text_18">
      <!-- 1.50 -->
      <g transform="translate(28.620625 152.078527)scale(0.13 -0.13)">
       <use xlink:href="#DejaVuSans-49"/>
       <use x="63.623047" xlink:href="#DejaVuSans-46"/>
       <use x="95.410156" xlink:href="#DejaVuSans-53"/>
       <use x="159.033203" xlink:href="#DejaVuSans-48"/>
      </g>
     </g>
    </g>
    <g id="ytick_7">
     <g id="line2d_18">
      <g>
       <use style="stroke:#000000;stroke-width:0.8;" x="64.565938" xlink:href="#ma94bfac7df" y="94.703227"/>
      </g>
     </g>
     <g id="text_19">
      <!-- 1.75 -->
      <g transform="translate(28.620625 99.642211)scale(0.13 -0.13)">
       <use xlink:href="#DejaVuSans-49"/>
       <use x="63.623047" xlink:href="#DejaVuSans-46"/>
       <use x="95.410156" xlink:href="#DejaVuSans-55"/>
       <use x="159.033203" xlink:href="#DejaVuSans-53"/>
      </g>
     </g>
    </g>
    <g id="ytick_8">
     <g id="line2d_19">
      <g>
       <use style="stroke:#000000;stroke-width:0.8;" x="64.565938" xlink:href="#ma94bfac7df" y="42.266911"/>
      </g>
     </g>
     <g id="text_20">
      <!-- 2.00 -->
      <g transform="translate(28.620625 47.205895)scale(0.13 -0.13)">
       <use xlink:href="#DejaVuSans-50"/>
       <use x="63.623047" xlink:href="#DejaVuSans-46"/>
       <use x="95.410156" xlink:href="#DejaVuSans-48"/>
       <use x="159.033203" xlink:href="#DejaVuSans-48"/>
      </g>
     </g>
    </g>
    <g id="text_21">
     <!-- US weekly incidental cases -->
     <defs>
      <path d="M 8.6875 72.90625 
L 18.609375 72.90625 
L 18.609375 28.609375 
Q 18.609375 16.890625 22.84375 11.734375 
Q 27.09375 6.59375 36.625 6.59375 
Q 46.09375 6.59375 50.34375 11.734375 
Q 54.59375 16.890625 54.59375 28.609375 
L 54.59375 72.90625 
L 64.5 72.90625 
L 64.5 27.390625 
Q 64.5 13.140625 57.4375 5.859375 
Q 50.390625 -1.421875 36.625 -1.421875 
Q 22.796875 -1.421875 15.734375 5.859375 
Q 8.6875 13.140625 8.6875 27.390625 
z
" id="DejaVuSans-85"/>
      <path d="M 53.515625 70.515625 
L 53.515625 60.890625 
Q 47.90625 63.578125 42.921875 64.890625 
Q 37.9375 66.21875 33.296875 66.21875 
Q 25.25 66.21875 20.875 63.09375 
Q 16.5 59.96875 16.5 54.203125 
Q 16.5 49.359375 19.40625 46.890625 
Q 22.3125 44.4375 30.421875 42.921875 
L 36.375 41.703125 
Q 47.40625 39.59375 52.65625 34.296875 
Q 57.90625 29 57.90625 20.125 
Q 57.90625 9.515625 50.796875 4.046875 
Q 43.703125 -1.421875 29.984375 -1.421875 
Q 24.8125 -1.421875 18.96875 -0.25 
Q 13.140625 0.921875 6.890625 3.21875 
L 6.890625 13.375 
Q 12.890625 10.015625 18.65625 8.296875 
Q 24.421875 6.59375 29.984375 6.59375 
Q 38.421875 6.59375 43.015625 9.90625 
Q 47.609375 13.234375 47.609375 19.390625 
Q 47.609375 24.75 44.3125 27.78125 
Q 41.015625 30.8125 33.5 32.328125 
L 27.484375 33.5 
Q 16.453125 35.6875 11.515625 40.375 
Q 6.59375 45.0625 6.59375 53.421875 
Q 6.59375 63.09375 13.40625 68.65625 
Q 20.21875 74.21875 32.171875 74.21875 
Q 37.3125 74.21875 42.625 73.28125 
Q 47.953125 72.359375 53.515625 70.515625 
z
" id="DejaVuSans-83"/>
      <path id="DejaVuSans-32"/>
      <path d="M 4.203125 54.6875 
L 13.1875 54.6875 
L 24.421875 12.015625 
L 35.59375 54.6875 
L 46.1875 54.6875 
L 57.421875 12.015625 
L 68.609375 54.6875 
L 77.59375 54.6875 
L 63.28125 0 
L 52.6875 0 
L 40.921875 44.828125 
L 29.109375 0 
L 18.5 0 
z
" id="DejaVuSans-119"/>
      <path d="M 9.078125 75.984375 
L 18.109375 75.984375 
L 18.109375 31.109375 
L 44.921875 54.6875 
L 56.390625 54.6875 
L 27.390625 29.109375 
L 57.625 0 
L 45.90625 0 
L 18.109375 26.703125 
L 18.109375 0 
L 9.078125 0 
z
" id="DejaVuSans-107"/>
      <path d="M 9.421875 75.984375 
L 18.40625 75.984375 
L 18.40625 0 
L 9.421875 0 
z
" id="DejaVuSans-108"/>
      <path d="M 32.171875 -5.078125 
Q 28.375 -14.84375 24.75 -17.8125 
Q 21.140625 -20.796875 15.09375 -20.796875 
L 7.90625 -20.796875 
L 7.90625 -13.28125 
L 13.1875 -13.28125 
Q 16.890625 -13.28125 18.9375 -11.515625 
Q 21 -9.765625 23.484375 -3.21875 
L 25.09375 0.875 
L 2.984375 54.6875 
L 12.5 54.6875 
L 29.59375 11.921875 
L 46.6875 54.6875 
L 56.203125 54.6875 
z
" id="DejaVuSans-121"/>
      <path d="M 9.421875 54.6875 
L 18.40625 54.6875 
L 18.40625 0 
L 9.421875 0 
z
M 9.421875 75.984375 
L 18.40625 75.984375 
L 18.40625 64.59375 
L 9.421875 64.59375 
z
" id="DejaVuSans-105"/>
      <path d="M 54.890625 33.015625 
L 54.890625 0 
L 45.90625 0 
L 45.90625 32.71875 
Q 45.90625 40.484375 42.875 44.328125 
Q 39.84375 48.1875 33.796875 48.1875 
Q 26.515625 48.1875 22.3125 43.546875 
Q 18.109375 38.921875 18.109375 30.90625 
L 18.109375 0 
L 9.078125 0 
L 9.078125 54.6875 
L 18.109375 54.6875 
L 18.109375 46.1875 
Q 21.34375 51.125 25.703125 53.5625 
Q 30.078125 56 35.796875 56 
Q 45.21875 56 50.046875 50.171875 
Q 54.890625 44.34375 54.890625 33.015625 
z
" id="DejaVuSans-110"/>
      <path d="M 48.78125 52.59375 
L 48.78125 44.1875 
Q 44.96875 46.296875 41.140625 47.34375 
Q 37.3125 48.390625 33.40625 48.390625 
Q 24.65625 48.390625 19.8125 42.84375 
Q 14.984375 37.3125 14.984375 27.296875 
Q 14.984375 17.28125 19.8125 11.734375 
Q 24.65625 6.203125 33.40625 6.203125 
Q 37.3125 6.203125 41.140625 7.25 
Q 44.96875 8.296875 48.78125 10.40625 
L 48.78125 2.09375 
Q 45.015625 0.34375 40.984375 -0.53125 
Q 36.96875 -1.421875 32.421875 -1.421875 
Q 20.0625 -1.421875 12.78125 6.34375 
Q 5.515625 14.109375 5.515625 27.296875 
Q 5.515625 40.671875 12.859375 48.328125 
Q 20.21875 56 33.015625 56 
Q 37.15625 56 41.109375 55.140625 
Q 45.0625 54.296875 48.78125 52.59375 
z
" id="DejaVuSans-99"/>
      <path d="M 45.40625 46.390625 
L 45.40625 75.984375 
L 54.390625 75.984375 
L 54.390625 0 
L 45.40625 0 
L 45.40625 8.203125 
Q 42.578125 3.328125 38.25 0.953125 
Q 33.9375 -1.421875 27.875 -1.421875 
Q 17.96875 -1.421875 11.734375 6.484375 
Q 5.515625 14.40625 5.515625 27.296875 
Q 5.515625 40.1875 11.734375 48.09375 
Q 17.96875 56 27.875 56 
Q 33.9375 56 38.25 53.625 
Q 42.578125 51.265625 45.40625 46.390625 
z
M 14.796875 27.296875 
Q 14.796875 17.390625 18.875 11.75 
Q 22.953125 6.109375 30.078125 6.109375 
Q 37.203125 6.109375 41.296875 11.75 
Q 45.40625 17.390625 45.40625 27.296875 
Q 45.40625 37.203125 41.296875 42.84375 
Q 37.203125 48.484375 30.078125 48.484375 
Q 22.953125 48.484375 18.875 42.84375 
Q 14.796875 37.203125 14.796875 27.296875 
z
" id="DejaVuSans-100"/>
      <path d="M 44.28125 53.078125 
L 44.28125 44.578125 
Q 40.484375 46.53125 36.375 47.5 
Q 32.28125 48.484375 27.875 48.484375 
Q 21.1875 48.484375 17.84375 46.4375 
Q 14.5 44.390625 14.5 40.28125 
Q 14.5 37.15625 16.890625 35.375 
Q 19.28125 33.59375 26.515625 31.984375 
L 29.59375 31.296875 
Q 39.15625 29.25 43.1875 25.515625 
Q 47.21875 21.78125 47.21875 15.09375 
Q 47.21875 7.46875 41.1875 3.015625 
Q 35.15625 -1.421875 24.609375 -1.421875 
Q 20.21875 -1.421875 15.453125 -0.5625 
Q 10.6875 0.296875 5.421875 2 
L 5.421875 11.28125 
Q 10.40625 8.6875 15.234375 7.390625 
Q 20.0625 6.109375 24.8125 6.109375 
Q 31.15625 6.109375 34.5625 8.28125 
Q 37.984375 10.453125 37.984375 14.40625 
Q 37.984375 18.0625 35.515625 20.015625 
Q 33.0625 21.96875 24.703125 23.78125 
L 21.578125 24.515625 
Q 13.234375 26.265625 9.515625 29.90625 
Q 5.8125 33.546875 5.8125 39.890625 
Q 5.8125 47.609375 11.28125 51.796875 
Q 16.75 56 26.8125 56 
Q 31.78125 56 36.171875 55.265625 
Q 40.578125 54.546875 44.28125 53.078125 
z
" id="DejaVuSans-115"/>
     </defs>
     <g transform="translate(20.877187 366.203906)rotate(-90)scale(0.18 -0.18)">
      <use xlink:href="#DejaVuSans-85"/>
      <use x="73.193359" xlink:href="#DejaVuSans-83"/>
      <use x="136.669922" xlink:href="#DejaVuSans-32"/>
      <use x="168.457031" xlink:href="#DejaVuSans-119"/>
      <use x="250.244141" xlink:href="#DejaVuSans-101"/>
      <use x="311.767578" xlink:href="#DejaVuSans-101"/>
      <use x="373.291016" xlink:href="#DejaVuSans-107"/>
      <use x="431.201172" xlink:href="#DejaVuSans-108"/>
      <use x="458.984375" xlink:href="#DejaVuSans-121"/>
      <use x="518.164062" xlink:href="#DejaVuSans-32"/>
      <use x="549.951172" xlink:href="#DejaVuSans-105"/>
      <use x="577.734375" xlink:href="#DejaVuSans-110"/>
      <use x="641.113281" xlink:href="#DejaVuSans-99"/>
      <use x="696.09375" xlink:href="#DejaVuSans-105"/>
      <use x="723.876953" xlink:href="#DejaVuSans-100"/>
      <use x="787.353516" xlink:href="#DejaVuSans-101"/>
      <use x="848.876953" xlink:href="#DejaVuSans-110"/>
      <use x="912.255859" xlink:href="#DejaVuSans-116"/>
      <use x="951.464844" xlink:href="#DejaVuSans-97"/>
      <use x="1012.744141" xlink:href="#DejaVuSans-108"/>
      <use x="1040.527344" xlink:href="#DejaVuSans-32"/>
      <use x="1072.314453" xlink:href="#DejaVuSans-99"/>
      <use x="1127.294922" xlink:href="#DejaVuSans-97"/>
      <use x="1188.574219" xlink:href="#DejaVuSans-115"/>
      <use x="1240.673828" xlink:href="#DejaVuSans-101"/>
      <use x="1302.197266" xlink:href="#DejaVuSans-115"/>
     </g>
    </g>
    <g id="text_22">
     <!-- 1e6 -->
     <g transform="translate(64.565938 23.877187)scale(0.1 -0.1)">
      <use xlink:href="#DejaVuSans-49"/>
      <use x="63.623047" xlink:href="#DejaVuSans-101"/>
      <use x="125.146484" xlink:href="#DejaVuSans-54"/>
     </g>
    </g>
   </g>
   <g id="line2d_20">
    <path clip-path="url(#pfbf439249f)" d="M 305.238665 422.458098 
L 321.020483 416.128825 
L 336.802301 418.591654 
L 352.584119 417.670033 
L 368.365937 420.986106 
L 384.147756 424.63022 
L 399.929574 428.561056 
L 415.711392 429.29055 
L 431.49321 430.808896 
L 447.275028 430.317463 
L 463.056847 430.717657 
L 478.838665 423.878913 
L 494.620483 408.30302 
L 510.402301 392.714122 
L 526.184119 376.876887 
L 541.965937 364.123536 
L 557.747756 363.888621 
L 573.529574 369.160358 
L 589.311392 382.61279 
L 605.09321 385.570408 
L 620.875028 397.586505 
L 636.656847 400.087298 
L 652.438665 402.215793 
L 668.220483 411.367398 
L 684.002301 403.060856 
L 699.784119 396.7427 
L 715.565937 398.301526 
L 731.347756 391.368816 
L 747.129574 380.281472 
L 762.911392 363.430328 
L 778.69321 346.677764 
L 794.475028 309.240331 
L 810.256847 248.276612 
" style="fill:none;stroke:#000080;stroke-linecap:square;stroke-width:1.5;"/>
   </g>
   <g id="line2d_21">
    <path clip-path="url(#pfbf439249f)" d="M 494.620483 405.035053 
L 510.402301 401.833699 
L 526.184119 395.541265 
L 541.965937 391.197004 
L 557.747756 393.510678 
L 573.529574 412.818692 
L 589.311392 412.285035 
L 605.09321 420.547599 
L 620.875028 424.56282 
L 636.656847 428.055792 
L 652.438665 434.171392 
L 668.220483 431.449604 
L 684.002301 430.356999 
L 699.784119 426.242264 
L 715.565937 420.375428 
L 731.347756 411.064365 
L 747.129574 408.359541 
L 762.911392 308.228835 
L 778.69321 234.18194 
L 794.475028 95.566224 
L 810.256847 40.518684 
" style="fill:none;stroke:#0000a4;stroke-linecap:square;stroke-width:1.5;"/>
   </g>
   <g id="line2d_22">
    <path clip-path="url(#pfbf439249f)" d="M 510.402301 432.865821 
L 526.184119 377.390258 
L 541.965937 136.333277 
L 557.747756 263.744184 
L 573.529574 364.493337 
L 589.311392 348.322244 
L 605.09321 424.813399 
L 620.875028 426.76432 
L 636.656847 430.536494 
L 652.438665 438.078652 
L 668.220483 440.494303 
L 684.002301 434.927742 
L 715.565937 435.279646 
L 731.347756 425.242582 
L 747.129574 380.291607 
L 762.911392 332.357357 
L 778.69321 314.267531 
L 794.475028 66.945857 
L 807.881124 -1 
" style="fill:none;stroke:#0000cd;stroke-linecap:square;stroke-width:1.5;"/>
   </g>
   <g id="line2d_23">
    <path clip-path="url(#pfbf439249f)" d="M 510.402301 403.077106 
L 526.184119 397.568029 
L 541.965937 377.487989 
L 557.747756 384.516313 
L 573.529574 407.941501 
L 589.311392 415.014557 
L 605.09321 413.612495 
L 620.875028 425.050639 
L 636.656847 414.693081 
L 652.438665 411.96728 
L 668.220483 416.686381 
L 684.002301 396.061235 
L 699.784119 399.580254 
L 731.347756 384.399437 
L 762.911392 357.754626 
L 794.475028 298.236089 
L 810.256847 287.437257 
" style="fill:none;stroke:#0000f6;stroke-linecap:square;stroke-width:1.5;"/>
   </g>
   <g id="line2d_24">
    <path clip-path="url(#pfbf439249f)" d="M 510.402301 396.854284 
L 526.184119 395.653073 
L 541.965937 387.662408 
L 557.747756 378.425016 
L 573.529574 379.756689 
L 589.311392 394.56869 
L 605.09321 408.496405 
L 620.875028 422.210389 
L 636.656847 427.129964 
L 652.438665 431.857832 
L 668.220483 436.080214 
L 684.002301 438.057693 
L 699.784119 439.273586 
L 715.565937 436.475584 
L 731.347756 430.815398 
L 747.129574 431.953476 
L 762.911392 404.526556 
L 778.69321 370.059956 
L 794.475028 310.201174 
L 810.256847 228.029901 
" style="fill:none;stroke:#000cff;stroke-linecap:square;stroke-width:1.5;"/>
   </g>
   <g id="line2d_25">
    <path clip-path="url(#pfbf439249f)" d="M 510.402301 344.209481 
L 526.184119 371.117491 
L 541.965937 382.235249 
L 557.747756 390.875915 
L 573.529574 412.203233 
L 589.311392 419.823907 
L 605.09321 411.98363 
L 620.875028 427.211345 
L 636.656847 418.023874 
L 652.438665 395.258962 
L 668.220483 411.336985 
L 684.002301 411.939164 
L 699.784119 374.43671 
L 715.565937 359.875984 
L 731.347756 381.046624 
L 747.129574 351.499975 
L 762.911392 314.240449 
L 778.69321 50.788441 
L 794.475028 18.774392 
L 795.260896 -1 
" style="fill:none;stroke:#0030ff;stroke-linecap:square;stroke-width:1.5;"/>
   </g>
   <g id="line2d_26">
    <path clip-path="url(#pfbf439249f)" d="M 510.402301 353.867096 
L 526.184119 339.872187 
L 541.965937 333.547508 
L 557.747756 333.081521 
L 573.529574 364.769076 
L 605.09321 410.871264 
L 620.875028 423.666429 
L 636.656847 431.274102 
L 652.438665 422.510733 
L 668.220483 425.778964 
L 684.002301 436.501078 
L 699.784119 428.841395 
L 715.565937 393.541155 
L 731.347756 386.540684 
L 747.129574 407.833882 
L 762.911392 307.421641 
L 778.69321 298.762982 
L 794.475028 223.464278 
" style="fill:none;stroke:#0050ff;stroke-linecap:square;stroke-width:1.5;"/>
   </g>
   <g id="line2d_27">
    <path clip-path="url(#pfbf439249f)" d="M 510.402301 367.588108 
L 526.184119 349.289931 
L 541.965937 353.763168 
L 557.747756 368.564892 
L 573.529574 376.478371 
L 605.09321 401.020245 
L 620.875028 400.397301 
L 636.656847 398.131423 
L 652.438665 400.607466 
L 668.220483 407.998469 
L 684.002301 414.244683 
L 699.784119 406.741256 
L 715.565937 415.880277 
L 731.347756 412.507154 
L 747.129574 403.307307 
L 762.911392 372.465944 
L 778.69321 351.123944 
L 794.475028 336.814912 
L 810.256847 248.924095 
" style="fill:none;stroke:#0074ff;stroke-linecap:square;stroke-width:1.5;"/>
   </g>
   <g id="line2d_28">
    <path clip-path="url(#pfbf439249f)" d="M 510.402301 386.201637 
L 526.184119 375.238566 
L 541.965937 366.091995 
L 557.747756 343.377946 
L 573.529574 353.681577 
L 589.311392 369.275613 
L 605.09321 383.69214 
L 620.875028 399.925584 
L 636.656847 410.577812 
L 652.438665 415.907334 
L 668.220483 421.255524 
L 684.002301 423.219893 
L 699.784119 408.491581 
L 715.565937 397.736578 
L 731.347756 400.330707 
L 747.129574 388.759795 
L 762.911392 388.694984 
L 778.69321 383.302643 
L 810.256847 222.237471 
" style="fill:none;stroke:#0098ff;stroke-linecap:square;stroke-width:1.5;"/>
   </g>
   <g id="line2d_29">
    <path clip-path="url(#pfbf439249f)" d="M 510.402301 383.348342 
L 526.184119 356.330936 
L 541.965937 348.63804 
L 557.747756 362.455442 
L 573.529574 385.870413 
L 589.311392 410.006028 
L 605.09321 411.008622 
L 620.875028 410.907272 
L 636.656847 402.622825 
L 652.438665 427.445815 
L 668.220483 436.964125 
L 684.002301 422.68909 
L 699.784119 421.83593 
L 715.565937 425.940506 
L 731.347756 416.741442 
L 747.129574 414.235971 
L 762.911392 382.028988 
L 778.69321 340.681686 
L 794.475028 244.555493 
L 810.256847 160.061092 
" style="fill:none;stroke:#00bcff;stroke-linecap:square;stroke-width:1.5;"/>
   </g>
   <g id="line2d_30">
    <path clip-path="url(#pfbf439249f)" d="M 526.184119 303.380954 
L 541.965937 299.956554 
L 557.747756 316.846353 
L 573.529574 291.651569 
" style="fill:none;stroke:#00e0fb;stroke-linecap:square;stroke-width:1.5;"/>
   </g>
   <g id="line2d_31">
    <path clip-path="url(#pfbf439249f)" d="M 526.184119 357.271094 
L 541.965937 289.906685 
L 557.747756 350.021141 
L 573.529574 385.077057 
L 589.311392 407.951928 
L 605.09321 409.958891 
L 620.875028 421.130943 
L 636.656847 409.397694 
L 652.438665 408.586437 
L 668.220483 417.042313 
L 684.002301 397.094208 
L 699.784119 395.578529 
L 715.565937 399.320609 
L 731.347756 372.291767 
L 747.129574 362.730202 
L 762.911392 324.854239 
L 778.69321 311.724079 
L 794.475028 229.551714 
L 810.256847 123.919437 
" style="fill:none;stroke:#19ffde;stroke-linecap:square;stroke-width:1.5;"/>
   </g>
   <g id="line2d_32">
    <path clip-path="url(#pfbf439249f)" d="M 541.965937 357.780629 
L 557.747756 362.455432 
L 573.529574 378.11753 
L 589.311392 389.446501 
L 605.09321 409.227577 
L 620.875028 418.819228 
L 636.656847 409.987694 
L 652.438665 406.966733 
L 668.220483 416.686328 
L 684.002301 408.720832 
L 699.784119 399.580343 
L 715.565937 399.320679 
L 731.347756 391.640856 
L 747.129574 380.281472 
L 762.911392 350.459261 
L 778.69321 314.267506 
L 794.475028 232.896621 
L 810.256847 153.166992 
" style="fill:none;stroke:#33ffc4;stroke-linecap:square;stroke-width:1.5;"/>
   </g>
   <g id="line2d_33">
    <path clip-path="url(#pfbf439249f)" d="M 557.747756 422.830606 
L 573.529574 401.904111 
L 589.311392 408.660635 
L 605.09321 383.750658 
L 620.875028 416.507625 
L 636.656847 412.961462 
L 652.438665 406.966733 
L 668.220483 422.918699 
L 684.002301 315.676365 
L 699.784119 360.923872 
L 715.565937 399.436668 
L 731.347756 368.020393 
L 747.129574 357.927451 
L 762.911392 328.122858 
L 778.69321 230.373385 
L 794.475028 105.155462 
L 810.256847 62.931643 
" style="fill:none;stroke:#50ffa7;stroke-linecap:square;stroke-width:1.5;"/>
   </g>
   <g id="line2d_34">
    <path clip-path="url(#pfbf439249f)" d="M 557.747756 275.392899 
L 573.529574 311.982289 
L 589.311392 363.863913 
L 605.09321 387.657185 
L 620.875028 400.736375 
L 636.656847 405.693705 
L 652.438665 404.468226 
L 668.220483 408.125554 
L 684.002301 405.502396 
L 699.784119 396.478861 
L 715.565937 396.01308 
L 731.347756 365.642679 
L 747.129574 328.379964 
L 762.911392 266.199198 
L 778.69321 213.341524 
L 794.475028 124.887647 
L 804.949785 -1 
" style="fill:none;stroke:#6dff8a;stroke-linecap:square;stroke-width:1.5;"/>
   </g>
   <g id="line2d_35">
    <path clip-path="url(#pfbf439249f)" d="M 573.529574 375.856686 
L 589.311392 358.075531 
L 605.09321 385.434913 
L 620.875028 395.508139 
L 636.656847 374.183338 
L 652.438665 363.404109 
L 668.220483 365.664744 
L 684.002301 337.779321 
L 699.784119 348.857227 
L 715.565937 380.330762 
L 731.347756 360.753349 
L 747.129574 355.101763 
L 762.911392 317.42585 
L 778.69321 294.581864 
L 794.475028 203.480686 
L 810.256847 143.404189 
" style="fill:none;stroke:#8aff6d;stroke-linecap:square;stroke-width:1.5;"/>
   </g>
   <g id="line2d_36">
    <path clip-path="url(#pfbf439249f)" d="M 573.529574 389.122654 
L 589.311392 368.17959 
L 605.09321 395.423612 
L 620.875028 395.508139 
L 636.656847 374.183338 
L 652.438665 363.404109 
L 668.220483 365.664744 
L 684.002301 337.779321 
L 699.784119 348.857227 
L 715.565937 380.330762 
L 731.347756 360.753349 
L 747.129574 355.101763 
L 762.911392 317.42585 
L 778.69321 294.581864 
L 794.475028 156.114333 
L 810.256847 143.404189 
" style="fill:none;stroke:#a7ff50;stroke-linecap:square;stroke-width:1.5;"/>
   </g>
   <g id="line2d_37">
    <path clip-path="url(#pfbf439249f)" d="M 573.529574 375.856686 
L 589.311392 358.075531 
L 605.09321 385.434913 
L 620.875028 383.943205 
L 636.656847 360.082164 
L 652.438665 325.928294 
L 668.220483 339.38534 
L 684.002301 331.938335 
L 699.784119 322.305574 
L 715.565937 359.977501 
L 731.347756 339.686115 
L 747.129574 333.702712 
L 762.911392 283.787324 
L 778.69321 266.997216 
L 794.475028 177.765078 
L 810.256847 159.658399 
" style="fill:none;stroke:#c4ff33;stroke-linecap:square;stroke-width:1.5;"/>
   </g>
   <g id="line2d_38">
    <path clip-path="url(#pfbf439249f)" d="M 573.529574 400.024794 
L 589.311392 384.263905 
L 605.09321 406.35952 
L 620.875028 416.828745 
L 636.656847 395.307413 
L 652.438665 386.459728 
L 668.220483 380.106335 
L 684.002301 360.121176 
L 699.784119 367.696546 
L 715.565937 393.762849 
L 731.347756 380.128148 
L 747.129574 375.207944 
L 762.911392 343.814531 
L 778.69321 330.807808 
L 794.475028 203.480686 
L 810.256847 183.065131 
" style="fill:none;stroke:#deff19;stroke-linecap:square;stroke-width:1.5;"/>
   </g>
   <g id="line2d_39">
    <path clip-path="url(#pfbf439249f)" d="M 573.529574 379.774937 
L 589.311392 355.217961 
L 605.09321 387.365828 
L 620.875028 392.364057 
L 636.656847 369.362133 
L 652.438665 342.483068 
L 668.220483 349.835688 
L 684.002301 339.199506 
L 699.784119 364.864566 
L 715.565937 368.903001 
L 731.347756 350.688932 
L 747.129574 343.795025 
L 762.911392 298.091532 
L 778.69321 287.175339 
L 794.475028 185.73351 
L 810.256847 175.66406 
" style="fill:none;stroke:#fbf100;stroke-linecap:square;stroke-width:1.5;"/>
   </g>
   <g id="line2d_40">
    <path clip-path="url(#pfbf439249f)" d="M 589.311392 384.324162 
L 605.09321 388.959198 
L 620.875028 397.401812 
L 636.656847 400.240602 
L 652.438665 401.988257 
L 668.220483 413.733432 
L 684.002301 402.281066 
L 699.784119 393.455231 
L 715.565937 395.697768 
L 731.347756 391.912873 
L 747.129574 378.995434 
L 762.911392 362.664896 
L 778.69321 347.112645 
L 794.475028 304.050475 
L 810.256847 249.19926 
" style="fill:none;stroke:#ffd000;stroke-linecap:square;stroke-width:1.5;"/>
   </g>
   <g id="line2d_41">
    <path clip-path="url(#pfbf439249f)" d="M 636.656847 400.762266 
L 652.438665 398.89152 
L 668.220483 406.965841 
L 684.002301 395.54735 
L 699.784119 402.154108 
L 715.565937 406.818976 
L 731.347756 402.504132 
L 747.129574 369.366343 
L 762.911392 349.350974 
L 778.69321 311.472686 
L 794.475028 257.106535 
L 804.562335 -1 
" style="fill:none;stroke:#ffae00;stroke-linecap:square;stroke-width:1.5;"/>
   </g>
   <g id="line2d_42">
    <path clip-path="url(#pfbf439249f)" d="M 747.129574 345.238833 
L 762.911392 322.713842 
L 778.69321 320.897569 
L 794.475028 236.241634 
L 810.256847 133.361073 
" style="fill:none;stroke:#ff8d00;stroke-linecap:square;stroke-width:1.5;"/>
   </g>
   <g id="line2d_43">
    <path clip-path="url(#pfbf439249f)" d="M 762.911392 351.567346 
L 794.475028 276.783619 
L 810.256847 85.89918 
" style="fill:none;stroke:#ff6c00;stroke-linecap:square;stroke-width:1.5;"/>
   </g>
   <g id="line2d_44">
    <path clip-path="url(#pfbf439249f)" d="M 778.69321 317.028288 
L 794.475028 267.100097 
" style="fill:none;stroke:#ff4e00;stroke-linecap:square;stroke-width:1.5;"/>
   </g>
   <g id="line2d_45">
    <path clip-path="url(#pfbf439249f)" d="M 778.69321 337.435436 
L 794.475028 334.5895 
L 810.256847 155.652589 
" style="fill:none;stroke:#ff2d00;stroke-linecap:square;stroke-width:1.5;"/>
   </g>
   <g id="line2d_46">
    <path clip-path="url(#pfbf439249f)" style="fill:none;stroke:#f60b00;stroke-linecap:square;stroke-width:1.5;"/>
   </g>
   <g id="line2d_47">
    <path clip-path="url(#pfbf439249f)" d="M 810.256847 150.681321 
" style="fill:none;stroke:#cd0000;stroke-linecap:square;stroke-width:1.5;"/>
   </g>
   <g id="line2d_48">
    <path clip-path="url(#pfbf439249f)" d="M 810.256847 272.14772 
" style="fill:none;stroke:#a40000;stroke-linecap:square;stroke-width:1.5;"/>
   </g>
   <g id="line2d_49">
    <path clip-path="url(#pfbf439249f)" d="M 810.256847 296.125589 
" style="fill:none;stroke:#800000;stroke-linecap:square;stroke-width:1.5;"/>
   </g>
   <g id="line2d_50">
    <path clip-path="url(#pfbf439249f)" d="M 100.075028 461.756181 
L 115.856847 461.7566 
L 131.638665 461.75702 
L 147.420483 461.75702 
L 163.202301 461.755551 
L 178.984119 461.678155 
L 194.765937 461.215667 
L 210.547756 456.921343 
L 226.329574 441.022652 
L 242.111392 422.213745 
L 257.89321 415.749815 
L 273.675028 419.082248 
L 289.456847 418.132522 
L 305.238665 421.068116 
L 321.020483 424.659585 
L 336.802301 428.530643 
L 352.584119 429.310266 
L 368.365937 430.87958 
L 384.147756 431.243279 
L 399.929574 430.780161 
L 415.711392 424.122427 
L 431.49321 408.40957 
L 447.275028 392.350214 
L 463.056847 376.873321 
L 478.838665 364.397043 
L 494.620483 364.133394 
L 510.402301 369.096806 
L 526.184119 383.144075 
L 541.965937 385.804694 
L 557.747756 397.55756 
L 573.529574 400.112467 
L 589.311392 401.003675 
L 605.09321 411.354813 
L 620.875028 402.57236 
L 636.656847 397.541829 
L 652.438665 398.434295 
L 668.220483 390.881578 
L 684.002301 380.253785 
L 699.784119 361.18878 
L 715.565937 344.171098 
L 731.347756 301.004893 
L 747.129574 248.227531 
L 762.911392 212.895522 
L 778.69321 222.512552 
L 794.475028 181.408353 
L 810.256847 151.128688 
" style="fill:none;stroke:#000000;stroke-linecap:square;stroke-width:3;"/>
   </g>
   <g id="patch_3">
    <path d="M 64.565938 461.757187 
L 64.565938 26.877187 
" style="fill:none;stroke:#000000;stroke-linecap:square;stroke-linejoin:miter;stroke-width:0.8;"/>
   </g>
   <g id="patch_4">
    <path d="M 845.765938 461.757187 
L 845.765938 26.877187 
" style="fill:none;stroke:#000000;stroke-linecap:square;stroke-linejoin:miter;stroke-width:0.8;"/>
   </g>
   <g id="patch_5">
    <path d="M 64.565937 461.757187 
L 845.765937 461.757187 
" style="fill:none;stroke:#000000;stroke-linecap:square;stroke-linejoin:miter;stroke-width:0.8;"/>
   </g>
   <g id="patch_6">
    <path d="M 64.565937 26.877187 
L 845.765937 26.877187 
" style="fill:none;stroke:#000000;stroke-linecap:square;stroke-linejoin:miter;stroke-width:0.8;"/>
   </g>
   <g id="text_23">
    <!-- 4-week-ahead Forecasts -->
    <defs>
     <path d="M 54.890625 33.015625 
L 54.890625 0 
L 45.90625 0 
L 45.90625 32.71875 
Q 45.90625 40.484375 42.875 44.328125 
Q 39.84375 48.1875 33.796875 48.1875 
Q 26.515625 48.1875 22.3125 43.546875 
Q 18.109375 38.921875 18.109375 30.90625 
L 18.109375 0 
L 9.078125 0 
L 9.078125 75.984375 
L 18.109375 75.984375 
L 18.109375 46.1875 
Q 21.34375 51.125 25.703125 53.5625 
Q 30.078125 56 35.796875 56 
Q 45.21875 56 50.046875 50.171875 
Q 54.890625 44.34375 54.890625 33.015625 
z
" id="DejaVuSans-104"/>
     <path d="M 9.8125 72.90625 
L 51.703125 72.90625 
L 51.703125 64.59375 
L 19.671875 64.59375 
L 19.671875 43.109375 
L 48.578125 43.109375 
L 48.578125 34.8125 
L 19.671875 34.8125 
L 19.671875 0 
L 9.8125 0 
z
" id="DejaVuSans-70"/>
     <path d="M 30.609375 48.390625 
Q 23.390625 48.390625 19.1875 42.75 
Q 14.984375 37.109375 14.984375 27.296875 
Q 14.984375 17.484375 19.15625 11.84375 
Q 23.34375 6.203125 30.609375 6.203125 
Q 37.796875 6.203125 41.984375 11.859375 
Q 46.1875 17.53125 46.1875 27.296875 
Q 46.1875 37.015625 41.984375 42.703125 
Q 37.796875 48.390625 30.609375 48.390625 
z
M 30.609375 56 
Q 42.328125 56 49.015625 48.375 
Q 55.71875 40.765625 55.71875 27.296875 
Q 55.71875 13.875 49.015625 6.21875 
Q 42.328125 -1.421875 30.609375 -1.421875 
Q 18.84375 -1.421875 12.171875 6.21875 
Q 5.515625 13.875 5.515625 27.296875 
Q 5.515625 40.765625 12.171875 48.375 
Q 18.84375 56 30.609375 56 
z
" id="DejaVuSans-111"/>
     <path d="M 41.109375 46.296875 
Q 39.59375 47.171875 37.8125 47.578125 
Q 36.03125 48 33.890625 48 
Q 26.265625 48 22.1875 43.046875 
Q 18.109375 38.09375 18.109375 28.8125 
L 18.109375 0 
L 9.078125 0 
L 9.078125 54.6875 
L 18.109375 54.6875 
L 18.109375 46.1875 
Q 20.953125 51.171875 25.484375 53.578125 
Q 30.03125 56 36.53125 56 
Q 37.453125 56 38.578125 55.875 
Q 39.703125 55.765625 41.0625 55.515625 
z
" id="DejaVuSans-114"/>
    </defs>
    <g transform="translate(345.690781 20.877187)scale(0.18 -0.18)">
     <use xlink:href="#DejaVuSans-52"/>
     <use x="63.623047" xlink:href="#DejaVuSans-45"/>
     <use x="99.707031" xlink:href="#DejaVuSans-119"/>
     <use x="181.494141" xlink:href="#DejaVuSans-101"/>
     <use x="243.017578" xlink:href="#DejaVuSans-101"/>
     <use x="304.541016" xlink:href="#DejaVuSans-107"/>
     <use x="362.451172" xlink:href="#DejaVuSans-45"/>
     <use x="398.535156" xlink:href="#DejaVuSans-97"/>
     <use x="459.814453" xlink:href="#DejaVuSans-104"/>
     <use x="523.193359" xlink:href="#DejaVuSans-101"/>
     <use x="584.716797" xlink:href="#DejaVuSans-97"/>
     <use x="645.996094" xlink:href="#DejaVuSans-100"/>
     <use x="709.472656" xlink:href="#DejaVuSans-32"/>
     <use x="741.259766" xlink:href="#DejaVuSans-70"/>
     <use x="795.154297" xlink:href="#DejaVuSans-111"/>
     <use x="856.335938" xlink:href="#DejaVuSans-114"/>
     <use x="895.199219" xlink:href="#DejaVuSans-101"/>
     <use x="956.722656" xlink:href="#DejaVuSans-99"/>
     <use x="1011.703125" xlink:href="#DejaVuSans-97"/>
     <use x="1072.982422" xlink:href="#DejaVuSans-115"/>
     <use x="1125.082031" xlink:href="#DejaVuSans-116"/>
     <use x="1164.291016" xlink:href="#DejaVuSans-115"/>
    </g>
   </g>
  </g>
 </g>
 <defs>
  <clipPath id="pfbf439249f">
   <rect height="434.88" width="781.2" x="64.565938" y="26.877187"/>
  </clipPath>
 </defs>
</svg>
