<?xml version="1.0" encoding="utf-8" standalone="no"?>
<!DOCTYPE svg PUBLIC "-//W3C//DTD SVG 1.1//EN"
  "http://www.w3.org/Graphics/SVG/1.1/DTD/svg11.dtd">
<!-- Created with matplotlib (https://matplotlib.org/) -->
<svg height="544.682704pt" version="1.1" viewBox="0 0 869.781229 544.682704" width="869.781229pt" xmlns="http://www.w3.org/2000/svg" xmlns:xlink="http://www.w3.org/1999/xlink">
 <defs>
  <style type="text/css">
*{stroke-linecap:butt;stroke-linejoin:round;}
  </style>
 </defs>
 <g id="figure_1">
  <g id="patch_1">
   <path d="M 0 544.682704 
L 869.781229 544.682704 
L 869.781229 0 
L 0 0 
z
" style="fill:#ffffff;"/>
  </g>
  <g id="axes_1">
   <g id="patch_2">
    <path d="M 64.565938 461.757187 
L 845.765938 461.757187 
L 845.765938 26.877187 
L 64.565938 26.877187 
z
" style="fill:#ffffff;"/>
   </g>
   <g id="PolyCollection_1">
    <defs>
     <path d="M 300.778586 -149.870337 
L 300.778586 -92.713093 
L 316.217321 -99.910289 
L 331.656056 -98.861655 
L 347.094791 -100.85018 
L 362.533526 -98.335861 
L 377.972262 -95.533141 
L 393.410997 -92.174898 
L 408.849732 -91.911558 
L 424.288467 -91.022551 
L 439.727202 -91.949775 
L 455.165938 -92.110786 
L 470.604673 -98.336861 
L 486.043408 -110.898927 
L 501.482143 -122.402126 
L 516.920878 -135.474577 
L 532.359613 -147.623178 
L 547.798349 -148.077858 
L 563.237084 -143.260212 
L 578.675819 -129.502654 
L 594.114554 -126.859096 
L 609.553289 -114.797842 
L 624.992024 -112.455621 
L 640.43076 -110.615689 
L 655.869495 -101.833962 
L 671.30823 -109.729767 
L 686.746965 -116.091959 
L 702.1857 -114.909393 
L 717.624436 -121.834839 
L 733.063171 -132.273737 
L 748.501906 -147.556811 
L 763.940641 -162.932583 
L 779.379376 -195.270173 
L 794.818111 -240.818131 
L 810.256847 -271.75284 
L 810.256847 -380.592634 
L 810.256847 -380.592634 
L 794.818111 -343.164596 
L 779.379376 -269.404115 
L 763.940641 -228.476279 
L 748.501906 -211.022 
L 733.063171 -192.98883 
L 717.624436 -181.951752 
L 702.1857 -175.199009 
L 686.746965 -177.053702 
L 671.30823 -170.933158 
L 655.869495 -162.939432 
L 640.43076 -171.768369 
L 624.992024 -174.109776 
L 609.553289 -176.914041 
L 594.114554 -188.290181 
L 578.675819 -191.555074 
L 563.237084 -204.24796 
L 547.798349 -209.41329 
L 532.359613 -209.587577 
L 516.920878 -196.54119 
L 501.482143 -178.66409 
L 486.043408 -159.699775 
L 470.604673 -141.678316 
L 455.165938 -134.612026 
L 439.727202 -135.354576 
L 424.288467 -135.374454 
L 408.849732 -137.387237 
L 393.410997 -138.811555 
L 377.972262 -143.114938 
L 362.533526 -147.249461 
L 347.094791 -151.33564 
L 331.656056 -151.41775 
L 316.217321 -155.407919 
L 300.778586 -149.870337 
z
" id="me1bdc1b954" style="stroke:#000080;stroke-opacity:0.1;"/>
    </defs>
    <g clip-path="url(#p21f0da7668)">
     <use style="fill:#000080;fill-opacity:0.1;stroke:#000080;stroke-opacity:0.1;" x="0" xlink:href="#me1bdc1b954" y="544.682704"/>
    </g>
   </g>
   <g id="PolyCollection_2">
    <path clip-path="url(#p21f0da7668)" d="M 486.043408 308.783845 
L 486.043408 446.808768 
L 501.482143 445.335383 
L 516.920878 443.504566 
L 532.359613 442.163514 
L 547.798349 443.321481 
L 563.237084 448.405257 
L 578.675819 448.878634 
L 594.114554 449.760827 
L 609.553289 451.452662 
L 624.992024 452.684603 
L 640.43076 453.412006 
L 655.869495 452.644621 
L 671.30823 453.321254 
L 686.746965 451.878761 
L 702.1857 449.732413 
L 717.624436 446.388139 
L 733.063171 446.498325 
L 748.501906 388.581192 
L 763.940641 349.525533 
L 779.379376 305.525786 
L 794.818111 272.057239 
L 810.256847 289.824161 
L 810.256847 85.048781 
L 810.256847 85.048781 
L 794.818111 -216.540223 
L 779.379376 -99.790355 
L 763.940641 147.054135 
L 748.501906 222.005778 
L 733.063171 331.550075 
L 717.624436 339.266487 
L 702.1857 360.142384 
L 686.746965 374.208164 
L 671.30823 385.285147 
L 655.869495 387.837205 
L 640.43076 392.478624 
L 624.992024 378.325123 
L 609.553289 373.595148 
L 594.114554 359.066365 
L 578.675819 329.5772 
L 563.237084 331.606393 
L 547.798349 282.395241 
L 532.359613 269.099258 
L 516.920878 285.516437 
L 501.482143 299.844475 
L 486.043408 308.783845 
z
" style="fill:#0000a4;fill-opacity:0.1;stroke:#0000a4;stroke-opacity:0.1;"/>
   </g>
   <g id="PolyCollection_3">
    <defs>
     <path d="M 501.482143 -114.96897 
L 501.482143 -107.465449 
L 516.920878 -164.756793 
L 532.359613 -397.615143 
L 547.798349 -273.32719 
L 563.237084 -175.637042 
L 578.675819 -191.338714 
L 594.114554 -118.34597 
L 609.553289 -116.566399 
L 624.992024 -112.724687 
L 640.43076 -105.620702 
L 655.869495 -103.30204 
L 671.30823 -108.459569 
L 702.1857 -108.283247 
L 717.624436 -118.11756 
L 733.063171 -161.932655 
L 748.501906 -209.161373 
L 763.940641 -223.907971 
L 779.379376 -467.871735 
L 794.818111 -540.925877 
L 810.256847 -482.324338 
L 810.256847 -495.053975 
L 810.256847 -495.053975 
L 794.818111 -554.811235 
L 779.379376 -471.212434 
L 763.940641 -230.799738 
L 748.501906 -210.117638 
L 733.063171 -163.467718 
L 717.624436 -119.246878 
L 702.1857 -109.423728 
L 671.30823 -109.936601 
L 655.869495 -104.192091 
L 640.43076 -106.604452 
L 624.992024 -114.271688 
L 609.553289 -117.817738 
L 594.114554 -119.859017 
L 578.675819 -196.673258 
L 563.237084 -180.704045 
L 547.798349 -280.329875 
L 532.359613 -405.574617 
L 516.920878 -166.325834 
L 501.482143 -114.96897 
z
" id="m5063ee4ca1" style="stroke:#0000cd;stroke-opacity:0.1;"/>
    </defs>
    <g clip-path="url(#p21f0da7668)">
     <use style="fill:#0000cd;fill-opacity:0.1;stroke:#0000cd;stroke-opacity:0.1;" x="0" xlink:href="#m5063ee4ca1" y="544.682704"/>
    </g>
   </g>
   <g id="PolyCollection_4">
    <path clip-path="url(#p21f0da7668)" d="M 501.482143 391.240131 
L 501.482143 405.162706 
L 516.920878 398.598403 
L 532.359613 406.301504 
L 547.798349 421.665409 
L 563.237084 407.721437 
L 578.675819 412.000822 
L 594.114554 424.209774 
L 609.553289 437.355011 
L 624.992024 437.621285 
L 640.43076 448.937239 
L 655.869495 455.807101 
L 671.30823 461.757434 
L 686.746965 461.757434 
L 702.1857 461.757434 
L 717.624436 461.757434 
L 733.063171 461.757434 
L 748.501906 461.757434 
L 763.940641 461.757434 
L 779.379376 439.19553 
L 794.818111 406.323351 
L 810.256847 155.48396 
L 810.256847 -192.22199 
L 810.256847 -192.22199 
L 794.818111 59.439009 
L 779.379376 187.498257 
L 763.940641 264.611045 
L 748.501906 320.900577 
L 733.063171 366.089247 
L 717.624436 373.894425 
L 702.1857 390.788567 
L 686.746965 397.776716 
L 671.30823 410.72969 
L 655.869495 417.419238 
L 640.43076 416.019616 
L 624.992024 418.076099 
L 609.553289 408.707445 
L 594.114554 394.994012 
L 578.675819 379.925707 
L 563.237084 355.19597 
L 547.798349 338.643934 
L 532.359613 372.099156 
L 516.920878 395.451877 
L 501.482143 391.240131 
z
" style="fill:#0000f6;fill-opacity:0.1;stroke:#0000f6;stroke-opacity:0.1;"/>
   </g>
   <g id="PolyCollection_5">
    <defs>
     <path d="M 501.482143 -169.422925 
L 501.482143 -117.06023 
L 516.920878 -122.982856 
L 532.359613 -157.549048 
L 547.798349 -152.745842 
L 563.237084 -129.022566 
L 578.675819 -123.019236 
L 594.114554 -125.063307 
L 609.553289 -114.73182 
L 624.992024 -123.62336 
L 640.43076 -125.866441 
L 655.869495 -121.39565 
L 671.30823 -140.408804 
L 686.746965 -136.934629 
L 717.624436 -151.685039 
L 748.501906 -175.396016 
L 779.379376 -232.108042 
L 794.818111 -243.948163 
L 810.256847 -203.192353 
L 810.256847 -218.905185 
L 810.256847 -218.905185 
L 794.818111 -264.167013 
L 779.379376 -255.042794 
L 748.501906 -194.108369 
L 717.624436 -167.021102 
L 686.746965 -151.359005 
L 671.30823 -155.046296 
L 655.869495 -133.493809 
L 640.43076 -138.275704 
L 624.992024 -134.728522 
L 609.553289 -123.198531 
L 594.114554 -135.6785 
L 578.675819 -135.575724 
L 563.237084 -143.506684 
L 547.798349 -165.971643 
L 532.359613 -174.305163 
L 516.920878 -167.121774 
L 501.482143 -169.422925 
z
" id="mdb6af3692c" style="stroke:#000cff;stroke-opacity:0.1;"/>
    </defs>
    <g clip-path="url(#p21f0da7668)">
     <use style="fill:#000cff;fill-opacity:0.1;stroke:#000cff;stroke-opacity:0.1;" x="0" xlink:href="#mdb6af3692c" y="544.682704"/>
    </g>
   </g>
   <g id="PolyCollection_6">
    <defs>
     <path d="M 501.482143 -198.839137 
L 501.482143 -156.035288 
L 516.920878 -174.68712 
L 532.359613 -172.043522 
L 547.798349 -154.071332 
L 563.237084 -153.928585 
L 594.114554 -130.482089 
L 609.553289 -132.478702 
L 624.992024 -137.059144 
L 640.43076 -135.52117 
L 655.869495 -129.999418 
L 671.30823 -121.845571 
L 686.746965 -129.547762 
L 702.1857 -119.11612 
L 717.624436 -122.947087 
L 733.063171 -131.442911 
L 748.501906 -161.156732 
L 763.940641 -177.030434 
L 779.379376 -186.98454 
L 794.818111 -258.94416 
L 810.256847 -316.066689 
L 810.256847 -386.295883 
L 810.256847 -386.295883 
L 794.818111 -328.951736 
L 779.379376 -229.07342 
L 763.940641 -205.09311 
L 748.501906 -183.646103 
L 733.063171 -154.702707 
L 717.624436 -144.210063 
L 702.1857 -141.240715 
L 686.746965 -147.174483 
L 671.30823 -140.800355 
L 655.869495 -143.513785 
L 640.43076 -152.548147 
L 624.992024 -159.431852 
L 609.553289 -158.397499 
L 594.114554 -159.695575 
L 563.237084 -183.246616 
L 547.798349 -201.757137 
L 532.359613 -208.849726 
L 516.920878 -210.046544 
L 501.482143 -198.839137 
z
" id="mde6bdea636" style="stroke:#0030ff;stroke-opacity:0.1;"/>
    </defs>
    <g clip-path="url(#p21f0da7668)">
     <use style="fill:#0030ff;fill-opacity:0.1;stroke:#0030ff;stroke-opacity:0.1;" x="0" xlink:href="#mde6bdea636" y="544.682704"/>
    </g>
   </g>
   <g id="PolyCollection_7">
    <path clip-path="url(#p21f0da7668)" d="M 501.482143 275.773552 
L 501.482143 390.603361 
L 516.920878 408.639017 
L 532.359613 397.313715 
L 547.798349 411.673269 
L 563.237084 426.025224 
L 578.675819 433.42056 
L 594.114554 421.722061 
L 609.553289 437.476842 
L 624.992024 430.299632 
L 640.43076 414.619614 
L 655.869495 430.37994 
L 671.30823 433.633756 
L 686.746965 391.971681 
L 702.1857 378.727199 
L 717.624436 394.195732 
L 733.063171 371.778393 
L 748.501906 335.200782 
L 763.940641 218.331227 
L 779.379376 96.875685 
L 794.818111 -237.520997 
L 810.256847 83.7187 
L 810.256847 -394.768723 
L 810.256847 -394.768723 
L 794.818111 -495.960725 
L 779.379376 -56.492601 
L 763.940641 -284.759458 
L 748.501906 295.81301 
L 733.063171 337.246443 
L 717.624436 370.218229 
L 702.1857 337.568538 
L 686.746965 356.686198 
L 671.30823 380.503221 
L 655.869495 386.537631 
L 640.43076 375.273536 
L 624.992024 402.991976 
L 609.553289 415.06285 
L 594.114554 403.13842 
L 578.675819 405.066433 
L 563.237084 398.36717 
L 547.798349 367.362051 
L 532.359613 358.380885 
L 516.920878 293.610183 
L 501.482143 275.773552 
z
" style="fill:#0050ff;fill-opacity:0.1;stroke:#0050ff;stroke-opacity:0.1;"/>
   </g>
   <g id="PolyCollection_8">
    <defs>
     <path d="M 501.482143 -204.295499 
L 501.482143 -179.666112 
L 516.920878 -193.290671 
L 532.359613 -204.847302 
L 547.798349 -205.043518 
L 563.237084 -164.903589 
L 594.114554 -130.888075 
L 609.553289 -118.356037 
L 624.992024 -107.280082 
L 640.43076 -118.724415 
L 655.869495 -116.111253 
L 671.30823 -104.071039 
L 686.746965 -110.576627 
L 702.1857 -147.841703 
L 717.624436 -151.606047 
L 733.063171 -130.09888 
L 748.501906 -210.179586 
L 763.940641 -237.971618 
L 779.379376 -281.129732 
L 810.256847 -222.293162 
L 810.256847 -446.659635 
L 810.256847 -446.659635 
L 779.379376 -370.653468 
L 763.940641 -285.026757 
L 748.501906 -242.321524 
L 733.063171 -138.342108 
L 717.624436 -158.879203 
L 702.1857 -150.882332 
L 686.746965 -117.872502 
L 671.30823 -111.381534 
L 655.869495 -118.849254 
L 640.43076 -122.463203 
L 624.992024 -120.413564 
L 609.553289 -122.852628 
L 594.114554 -136.34219 
L 563.237084 -189.026474 
L 547.798349 -234.039208 
L 532.359613 -264.088195 
L 516.920878 -232.464496 
L 501.482143 -204.295499 
z
" id="m5fcf8c4801" style="stroke:#0074ff;stroke-opacity:0.1;"/>
    </defs>
    <g clip-path="url(#p21f0da7668)">
     <use style="fill:#0074ff;fill-opacity:0.1;stroke:#0074ff;stroke-opacity:0.1;" x="0" xlink:href="#m5fcf8c4801" y="544.682704"/>
    </g>
   </g>
   <g id="PolyCollection_9">
    <defs>
     <path d="M 501.482143 -187.254312 
L 501.482143 -137.642816 
L 516.920878 -144.63813 
L 532.359613 -152.196506 
L 547.798349 -173.827509 
L 563.237084 -168.073217 
L 578.675819 -156.343659 
L 594.114554 -145.222768 
L 609.553289 -130.698572 
L 624.992024 -123.603796 
L 640.43076 -118.796432 
L 655.869495 -115.35382 
L 671.30823 -113.218762 
L 686.746965 -120.592891 
L 702.1857 -128.757994 
L 717.624436 -126.640775 
L 733.063171 -133.765481 
L 748.501906 -133.835535 
L 763.940641 -138.852809 
L 794.818111 -260.978755 
L 810.256847 -269.46104 
L 810.256847 -400.146975 
L 810.256847 -400.146975 
L 794.818111 -391.035334 
L 763.940641 -191.866184 
L 748.501906 -185.317997 
L 733.063171 -185.229139 
L 717.624436 -167.52134 
L 702.1857 -171.195521 
L 686.746965 -150.567395 
L 671.30823 -132.872032 
L 655.869495 -132.71253 
L 640.43076 -138.979403 
L 624.992024 -146.649203 
L 609.553289 -159.907339 
L 594.114554 -181.717007 
L 578.675819 -199.69372 
L 563.237084 -220.962561 
L 547.798349 -234.160019 
L 532.359613 -216.434253 
L 516.920878 -197.138863 
L 501.482143 -187.254312 
z
" id="m935ddaaa77" style="stroke:#0098ff;stroke-opacity:0.1;"/>
    </defs>
    <g clip-path="url(#p21f0da7668)">
     <use style="fill:#0098ff;fill-opacity:0.1;stroke:#0098ff;stroke-opacity:0.1;" x="0" xlink:href="#m935ddaaa77" y="544.682704"/>
    </g>
   </g>
   <g id="PolyCollection_10">
    <path clip-path="url(#p21f0da7668)" d="M 501.482143 215.989837 
L 501.482143 434.928455 
L 516.920878 418.974206 
L 532.359613 415.018714 
L 547.798349 420.676003 
L 563.237084 419.836476 
L 578.675819 429.209073 
L 594.114554 431.263526 
L 609.553289 426.942799 
L 624.992024 423.16589 
L 640.43076 440.938629 
L 655.869495 444.439933 
L 671.30823 437.450026 
L 686.746965 438.064505 
L 702.1857 440.911948 
L 717.624436 434.456026 
L 733.063171 432.553633 
L 748.501906 414.83703 
L 763.940641 394.113619 
L 779.379376 355.346864 
L 794.818111 315.475146 
L 810.256847 259.429821 
L 810.256847 -203.870744 
L 810.256847 -203.870744 
L 794.818111 -95.857176 
L 779.379376 61.932859 
L 763.940641 270.968648 
L 748.501906 338.118823 
L 733.063171 392.369399 
L 717.624436 397.442403 
L 702.1857 409.830606 
L 686.746965 405.79558 
L 671.30823 406.909104 
L 655.869495 420.521426 
L 640.43076 410.106154 
L 624.992024 365.516029 
L 609.553289 376.108157 
L 594.114554 373.453108 
L 578.675819 365.028446 
L 563.237084 328.833363 
L 547.798349 292.922226 
L 532.359613 282.141053 
L 516.920878 304.334092 
L 501.482143 215.989837 
z
" style="fill:#00bcff;fill-opacity:0.1;stroke:#00bcff;stroke-opacity:0.1;"/>
   </g>
   <g id="PolyCollection_11">
    <defs>
     <path d="M 516.920878 -325.910828 
L 516.920878 -184.747457 
L 532.359613 -82.92527 
L 547.798349 -178.622389 
L 563.237084 -195.318914 
L 563.237084 -320.377436 
L 563.237084 -320.377436 
L 547.798349 -301.195504 
L 532.359613 -372.158638 
L 516.920878 -325.910828 
z
" id="m0c81b13b10" style="stroke:#00e0fb;stroke-opacity:0.1;"/>
    </defs>
    <g clip-path="url(#p21f0da7668)">
     <use style="fill:#00e0fb;fill-opacity:0.1;stroke:#00e0fb;stroke-opacity:0.1;" x="0" xlink:href="#m0c81b13b10" y="544.682704"/>
    </g>
   </g>
   <g id="PolyCollection_12">
    <path clip-path="url(#p21f0da7668)" d="M 516.920878 163.575786 
L 516.920878 433.982728 
L 532.359613 422.448111 
L 547.798349 417.625679 
L 563.237084 417.070239 
L 578.675819 438.792623 
L 594.114554 436.560181 
L 609.553289 441.977639 
L 624.992024 432.653955 
L 640.43076 431.579655 
L 655.869495 442.703273 
L 671.30823 426.096944 
L 686.746965 434.94096 
L 702.1857 437.374495 
L 717.624436 420.82681 
L 733.063171 414.599483 
L 748.501906 401.88949 
L 763.940641 412.898783 
L 779.379376 387.751349 
L 794.818111 326.410845 
L 810.256847 288.431213 
L 810.256847 -136.998415 
L 810.256847 -136.998415 
L 794.818111 -216.679107 
L 779.379376 -57.160822 
L 763.940641 123.202609 
L 748.501906 228.352367 
L 733.063171 297.715313 
L 717.624436 328.425931 
L 702.1857 341.982072 
L 686.746965 337.672109 
L 671.30823 356.728561 
L 655.869495 378.754199 
L 640.43076 370.009598 
L 624.992024 358.606202 
L 609.553289 384.531967 
L 594.114554 358.732818 
L 578.675819 352.60207 
L 563.237084 290.155617 
L 547.798349 238.056501 
L 532.359613 54.954188 
L 516.920878 163.575786 
z
" style="fill:#19ffde;fill-opacity:0.1;stroke:#19ffde;stroke-opacity:0.1;"/>
   </g>
   <g id="PolyCollection_13">
    <defs>
     <path d="M 532.359613 -277.388956 
L 532.359613 -129.058724 
L 547.798349 -133.009434 
L 563.237084 -140.110649 
L 578.675819 -121.210089 
L 594.114554 -124.011838 
L 609.553289 -115.649107 
L 624.992024 -114.399709 
L 640.43076 -113.102865 
L 655.869495 -113.34153 
L 671.30823 -111.515803 
L 686.746965 -116.091931 
L 702.1857 -116.340455 
L 717.624436 -125.248296 
L 733.063171 -132.273721 
L 748.501906 -147.303469 
L 763.940641 -176.05811 
L 779.379376 -213.198485 
L 794.818111 -249.201196 
L 810.256847 -314.190846 
L 810.256847 -595.17232 
L 810.256847 -595.17232 
L 794.818111 -548.099199 
L 779.379376 -427.160833 
L 763.940641 -280.071783 
L 748.501906 -229.774422 
L 733.063171 -185.229262 
L 717.624436 -169.473455 
L 702.1857 -160.878426 
L 686.746965 -157.66918 
L 671.30823 -158.902968 
L 655.869495 -146.147318 
L 640.43076 -152.548147 
L 624.992024 -156.729513 
L 609.553289 -157.345688 
L 594.114554 -168.41158 
L 578.675819 -193.468758 
L 563.237084 -197.149379 
L 547.798349 -234.039382 
L 532.359613 -277.388956 
z
" id="m045d624c61" style="stroke:#33ffc4;stroke-opacity:0.1;"/>
    </defs>
    <g clip-path="url(#p21f0da7668)">
     <use style="fill:#33ffc4;fill-opacity:0.1;stroke:#33ffc4;stroke-opacity:0.1;" x="0" xlink:href="#m045d624c61" y="544.682704"/>
    </g>
   </g>
   <g id="PolyCollection_14">
    <path clip-path="url(#p21f0da7668)" d="M 547.798349 365.331137 
L 547.798349 451.82551 
L 563.237084 438.041669 
L 578.675819 427.303788 
L 594.114554 426.983993 
L 609.553289 443.103549 
L 624.992024 435.618662 
L 640.43076 433.354218 
L 655.869495 436.950217 
L 671.30823 437.157868 
L 686.746965 428.961505 
L 702.1857 428.342248 
L 717.624436 414.817612 
L 733.063171 414.577303 
L 748.501906 405.889848 
L 763.940641 362.790852 
L 779.379376 302.243826 
L 794.818111 323.042206 
L 810.256847 207.617788 
L 810.256847 -1409.778859 
L 810.256847 -1409.778859 
L 794.818111 -2573.968318 
L 779.379376 -487.117788 
L 763.940641 -187.603199 
L 748.501906 -271.395438 
L 733.063171 200.919346 
L 717.624436 235.860387 
L 702.1857 324.775302 
L 686.746965 -181.300753 
L 671.30823 -306.070086 
L 655.869495 398.510533 
L 640.43076 341.261071 
L 624.992024 359.739141 
L 609.553289 334.455826 
L 594.114554 192.004728 
L 578.675819 359.184994 
L 563.237084 273.229159 
L 547.798349 365.331137 
z
" style="fill:#50ffa7;fill-opacity:0.1;stroke:#50ffa7;stroke-opacity:0.1;"/>
   </g>
   <g id="PolyCollection_15">
    <path clip-path="url(#p21f0da7668)" d="M 547.798349 259.63512 
L 547.798349 296.414171 
L 563.237084 329.588309 
L 578.675819 379.484745 
L 594.114554 402.357747 
L 609.553289 412.180197 
L 624.992024 417.375848 
L 640.43076 414.586957 
L 655.869495 418.389149 
L 671.30823 417.178919 
L 686.746965 407.535529 
L 702.1857 408.379854 
L 717.624436 381.418283 
L 733.063171 357.088376 
L 748.501906 304.126755 
L 763.940641 252.641202 
L 779.379376 171.601911 
L 794.818111 -3.41707 
L 810.256847 -97.174178 
L 810.256847 -210.504524 
L 810.256847 -210.504524 
L 794.818111 -121.315227 
L 779.379376 80.039271 
L 763.940641 181.025552 
L 748.501906 238.804616 
L 733.063171 314.905632 
L 717.624436 341.549873 
L 702.1857 384.9708 
L 686.746965 381.404419 
L 671.30823 394.435889 
L 655.869495 398.535385 
L 640.43076 392.970275 
L 624.992024 395.523028 
L 609.553289 388.918019 
L 594.114554 379.089325 
L 578.675819 349.826011 
L 563.237084 290.991315 
L 547.798349 259.63512 
z
" style="fill:#6dff8a;fill-opacity:0.1;stroke:#6dff8a;stroke-opacity:0.1;"/>
   </g>
   <g id="PolyCollection_16">
    <defs>
     <path d="M 563.237084 -329.268656 
L 563.237084 -112.677293 
L 578.675819 -119.117968 
L 594.114554 -109.274157 
L 609.553289 -110.683761 
L 624.992024 -122.526444 
L 640.43076 -127.545603 
L 655.869495 -125.630325 
L 671.30823 -149.844165 
L 686.746965 -134.319834 
L 702.1857 -122.736765 
L 717.624436 -134.368306 
L 733.063171 -138.405281 
L 748.501906 -158.144456 
L 763.940641 -172.670994 
L 779.379376 -253.584051 
L 794.818111 -271.763892 
L 810.256847 -232.511883 
L 810.256847 -641.354452 
L 810.256847 -641.354452 
L 794.818111 -595.79096 
L 779.379376 -587.556599 
L 763.940641 -386.708721 
L 748.501906 -355.074487 
L 733.063171 -293.877191 
L 717.624436 -281.437433 
L 702.1857 -254.567878 
L 686.746965 -322.934784 
L 671.30823 -314.639217 
L 655.869495 -288.03667 
L 640.43076 -304.988474 
L 624.992024 -288.702345 
L 609.553289 -267.08897 
L 594.114554 -289.687815 
L 578.675819 -356.324296 
L 563.237084 -329.268656 
z
" id="mf6206c141a" style="stroke:#8aff6d;stroke-opacity:0.1;"/>
    </defs>
    <g clip-path="url(#p21f0da7668)">
     <use style="fill:#8aff6d;fill-opacity:0.1;stroke:#8aff6d;stroke-opacity:0.1;" x="0" xlink:href="#mf6206c141a" y="544.682704"/>
    </g>
   </g>
   <g id="PolyCollection_17">
    <defs>
     <path d="M 563.237084 -319.293599 
L 563.237084 -120.347649 
L 578.675819 -126.807425 
L 594.114554 -116.112265 
L 609.553289 -110.683761 
L 624.992024 -122.526444 
L 640.43076 -127.545603 
L 655.869495 -125.630325 
L 671.30823 -149.844165 
L 686.746965 -134.319834 
L 702.1857 -122.736765 
L 717.624436 -134.368306 
L 733.063171 -138.405281 
L 748.501906 -158.144456 
L 763.940641 -172.670994 
L 779.379376 -246.185018 
L 794.818111 -271.763892 
L 810.256847 -235.998614 
L 810.256847 -484.371681 
L 810.256847 -484.371681 
L 794.818111 -595.79096 
L 779.379376 -455.070698 
L 763.940641 -386.708721 
L 748.501906 -355.074487 
L 733.063171 -293.877191 
L 717.624436 -281.437433 
L 702.1857 -254.567878 
L 686.746965 -322.934784 
L 671.30823 -314.639217 
L 655.869495 -288.03667 
L 640.43076 -304.988474 
L 624.992024 -288.702345 
L 609.553289 -267.08897 
L 594.114554 -280.622849 
L 578.675819 -335.488945 
L 563.237084 -319.293599 
z
" id="mfe35353937" style="stroke:#a7ff50;stroke-opacity:0.1;"/>
    </defs>
    <g clip-path="url(#p21f0da7668)">
     <use style="fill:#a7ff50;fill-opacity:0.1;stroke:#a7ff50;stroke-opacity:0.1;" x="0" xlink:href="#mfe35353937" y="544.682704"/>
    </g>
   </g>
   <g id="PolyCollection_18">
    <defs>
     <path d="M 563.237084 -279.346134 
L 563.237084 -109.622707 
L 578.675819 -115.212649 
L 594.114554 -106.38943 
L 609.553289 -100.130116 
L 624.992024 -111.262144 
L 640.43076 -112.817781 
L 655.869495 -120.349908 
L 671.30823 -139.770726 
L 686.746965 -125.552892 
L 702.1857 -113.044328 
L 717.624436 -119.534503 
L 733.063171 -122.979333 
L 748.501906 -138.812984 
L 763.940641 -146.533249 
L 779.379376 -246.185018 
L 794.818111 -267.198239 
L 810.256847 -235.998614 
L 810.256847 -484.371681 
L 810.256847 -484.371681 
L 794.818111 -486.415124 
L 779.379376 -455.070698 
L 763.940641 -378.965041 
L 748.501906 -360.653338 
L 733.063171 -293.683095 
L 717.624436 -289.059316 
L 702.1857 -262.161006 
L 686.746965 -293.92135 
L 671.30823 -278.48657 
L 655.869495 -271.368513 
L 640.43076 -288.936286 
L 624.992024 -263.89862 
L 609.553289 -243.916261 
L 594.114554 -245.169151 
L 578.675819 -300.963001 
L 563.237084 -279.346134 
z
" id="m8bc050ce82" style="stroke:#c4ff33;stroke-opacity:0.1;"/>
    </defs>
    <g clip-path="url(#p21f0da7668)">
     <use style="fill:#c4ff33;fill-opacity:0.1;stroke:#c4ff33;stroke-opacity:0.1;" x="0" xlink:href="#m8bc050ce82" y="544.682704"/>
    </g>
   </g>
   <g id="PolyCollection_19">
    <path clip-path="url(#p21f0da7668)" d="M 563.237084 225.389104 
L 563.237084 424.335055 
L 578.675819 417.875279 
L 594.114554 428.570439 
L 609.553289 437.137329 
L 624.992024 423.999856 
L 640.43076 414.560461 
L 655.869495 411.383462 
L 671.30823 396.506115 
L 686.746965 405.407588 
L 702.1857 421.166477 
L 717.624436 411.315682 
L 733.063171 406.736884 
L 748.501906 385.068875 
L 763.940641 375.502753 
L 779.379376 306.892047 
L 794.818111 284.776489 
L 810.256847 326.83189 
L 810.256847 -122.185308 
L 810.256847 -122.185308 
L 794.818111 -35.639381 
L 779.379376 -15.356534 
L 763.940641 14.953949 
L 748.501906 38.968149 
L 733.063171 138.49545 
L 717.624436 143.24 
L 702.1857 185.804361 
L 686.746965 131.821656 
L 671.30823 198.636211 
L 655.869495 154.811361 
L 640.43076 56.010735 
L 624.992024 163.529214 
L 609.553289 143.665161 
L 594.114554 264.059854 
L 578.675819 209.193759 
L 563.237084 225.389104 
z
" style="fill:#deff19;fill-opacity:0.1;stroke:#deff19;stroke-opacity:0.1;"/>
   </g>
   <g id="PolyCollection_20">
    <defs>
     <path d="M 563.237084 -367.866286 
L 563.237084 -116.692291 
L 578.675819 -121.818254 
L 594.114554 -111.313903 
L 609.553289 -105.535411 
L 624.992024 -118.237454 
L 640.43076 -125.551043 
L 655.869495 -129.55228 
L 671.30823 -147.075073 
L 686.746965 -124.762955 
L 702.1857 -119.526698 
L 717.624436 -127.275102 
L 733.063171 -132.51711 
L 748.501906 -152.150509 
L 763.940641 -161.112162 
L 779.379376 -235.473838 
L 794.818111 -252.022868 
L 810.256847 -209.265644 
L 810.256847 -618.910884 
L 810.256847 -618.910884 
L 794.818111 -552.652734 
L 779.379376 -551.589832 
L 763.940641 -509.039642 
L 748.501906 -489.549197 
L 733.063171 -389.310007 
L 717.624436 -389.02061 
L 702.1857 -351.377025 
L 686.746965 -333.219777 
L 671.30823 -325.434813 
L 655.869495 -359.129126 
L 640.43076 -432.517861 
L 624.992024 -349.422311 
L 609.553289 -362.117371 
L 594.114554 -322.144848 
L 578.675819 -400.852408 
L 563.237084 -367.866286 
z
" id="mbd0c3b95ae" style="stroke:#fbf100;stroke-opacity:0.1;"/>
    </defs>
    <g clip-path="url(#p21f0da7668)">
     <use style="fill:#fbf100;fill-opacity:0.1;stroke:#fbf100;stroke-opacity:0.1;" x="0" xlink:href="#mbd0c3b95ae" y="544.682704"/>
    </g>
   </g>
   <g id="PolyCollection_21">
    <defs>
     <path d="M 578.675819 -205.764635 
L 578.675819 -119.401274 
L 594.114554 -136.613774 
L 609.553289 -126.507455 
L 624.992024 -121.173008 
L 640.43076 -124.407804 
L 655.869495 -113.341653 
L 671.30823 -111.982895 
L 686.746965 -102.950031 
L 702.1857 -112.365224 
L 717.624436 -133.007789 
L 733.063171 -147.335221 
L 748.501906 -148.71066 
L 763.940641 -177.382204 
L 779.379376 -196.138217 
L 794.818111 -208.571344 
L 810.256847 -272.083315 
L 810.256847 -388.316904 
L 810.256847 -388.316904 
L 794.818111 -372.084166 
L 779.379376 -271.756301 
L 763.940641 -216.208574 
L 748.501906 -207.908427 
L 733.063171 -181.795977 
L 717.624436 -164.769567 
L 702.1857 -179.308479 
L 686.746965 -189.832433 
L 671.30823 -172.075657 
L 655.869495 -146.124259 
L 640.43076 -160.609051 
L 624.992024 -166.364749 
L 609.553289 -163.328998 
L 594.114554 -178.344898 
L 578.675819 -205.764635 
z
" id="m063108723c" style="stroke:#ffd000;stroke-opacity:0.1;"/>
    </defs>
    <g clip-path="url(#p21f0da7668)">
     <use style="fill:#ffd000;fill-opacity:0.1;stroke:#ffd000;stroke-opacity:0.1;" x="0" xlink:href="#m063108723c" y="544.682704"/>
    </g>
   </g>
   <g id="PolyCollection_22">
    <path clip-path="url(#p21f0da7668)" d="M 624.992024 375.596634 
L 624.992024 430.265958 
L 640.43076 438.47229 
L 655.869495 422.895914 
L 671.30823 415.916464 
L 686.746965 418.757548 
L 702.1857 425.507543 
L 717.624436 422.66112 
L 733.063171 401.487798 
L 748.501906 389.029857 
L 763.940641 363.21647 
L 779.379376 326.158078 
L 794.818111 72.292133 
L 810.256847 183.807378 
L 810.256847 -714.976728 
L 810.256847 -714.976728 
L 794.818111 -401.470166 
L 779.379376 182.372612 
L 763.940641 258.03371 
L 748.501906 308.916149 
L 733.063171 336.958655 
L 717.624436 376.524454 
L 702.1857 383.804443 
L 686.746965 387.013616 
L 671.30823 376.985788 
L 655.869495 392.158202 
L 640.43076 333.444071 
L 624.992024 375.596634 
z
" style="fill:#ffae00;fill-opacity:0.1;stroke:#ffae00;stroke-opacity:0.1;"/>
   </g>
   <g id="PolyCollection_23">
    <defs>
     <path d="M 733.063171 -267.197117 
L 733.063171 -126.853679 
L 748.501906 -135.513248 
L 763.940641 -167.196058 
L 779.379376 -217.842296 
L 794.818111 -279.391593 
L 810.256847 -312.315187 
L 810.256847 -604.475631 
L 810.256847 -604.475631 
L 794.818111 -529.619192 
L 779.379376 -389.678175 
L 763.940641 -274.526804 
L 748.501906 -302.652467 
L 733.063171 -267.197117 
z
" id="mc35639b264" style="stroke:#ff8d00;stroke-opacity:0.1;"/>
    </defs>
    <g clip-path="url(#p21f0da7668)">
     <use style="fill:#ff8d00;fill-opacity:0.1;stroke:#ff8d00;stroke-opacity:0.1;" x="0" xlink:href="#mc35639b264" y="544.682704"/>
    </g>
   </g>
   <g id="PolyCollection_24">
    <path clip-path="url(#p21f0da7668)" d="M 748.501906 238.710092 
L 748.501906 398.569817 
L 779.379376 349.175849 
L 794.818111 208.057202 
L 810.256847 163.841156 
L 810.256847 -516.767607 
L 810.256847 -516.767607 
L 794.818111 -239.278449 
L 779.379376 181.397626 
L 748.501906 238.710092 
z
" style="fill:#ff6c00;fill-opacity:0.1;stroke:#ff6c00;stroke-opacity:0.1;"/>
   </g>
   <g id="PolyCollection_25">
    <defs>
     <path d="M 763.940641 -248.487939 
L 763.940641 -160.845716 
L 779.379376 -162.653015 
L 794.818111 -274.717888 
L 810.256847 -339.922887 
L 810.256847 -629.257006 
L 810.256847 -629.257006 
L 794.818111 -490.635236 
L 779.379376 -252.254369 
L 763.940641 -248.487939 
z
" id="m948f6b62fc" style="stroke:#ff4e00;stroke-opacity:0.1;"/>
    </defs>
    <g clip-path="url(#p21f0da7668)">
     <use style="fill:#ff4e00;fill-opacity:0.1;stroke:#ff4e00;stroke-opacity:0.1;" x="0" xlink:href="#m948f6b62fc" y="544.682704"/>
    </g>
   </g>
   <g id="PolyCollection_26">
    <defs>
     <path d="M 763.940641 -311.909273 
L 763.940641 -149.322759 
L 779.379376 -181.916321 
L 779.379376 -445.145896 
L 779.379376 -445.145896 
L 763.940641 -311.909273 
z
" id="ma2c5810b2a" style="stroke:#ff2d00;stroke-opacity:0.1;"/>
    </defs>
    <g clip-path="url(#p21f0da7668)">
     <use style="fill:#ff2d00;fill-opacity:0.1;stroke:#ff2d00;stroke-opacity:0.1;" x="0" xlink:href="#ma2c5810b2a" y="544.682704"/>
    </g>
   </g>
   <g id="PolyCollection_27">
    <defs>
     <path d="M 794.818111 -674.892039 
L 794.818111 -660.839447 
L 810.256847 -568.043439 
L 810.256847 -575.887629 
L 810.256847 -575.887629 
L 794.818111 -674.892039 
z
" id="m7c6efc4d70" style="stroke:#f60b00;stroke-opacity:0.1;"/>
    </defs>
    <g clip-path="url(#p21f0da7668)">
     <use style="fill:#f60b00;fill-opacity:0.1;stroke:#f60b00;stroke-opacity:0.1;" x="0" xlink:href="#m7c6efc4d70" y="544.682704"/>
    </g>
   </g>
   <g id="PolyCollection_28">
    <path clip-path="url(#p21f0da7668)" d="M 794.818111 -119.2881 
L 794.818111 433.564215 
L 810.256847 391.22399 
L 810.256847 -105.673355 
L 810.256847 -105.673355 
L 794.818111 -119.2881 
z
" style="fill:#cd0000;fill-opacity:0.1;stroke:#cd0000;stroke-opacity:0.1;"/>
   </g>
   <g id="PolyCollection_29">
    <defs>
     <path d="M 794.818111 -328.984599 
L 794.818111 -244.773977 
L 810.256847 -332.736901 
L 810.256847 -397.006653 
L 810.256847 -397.006653 
L 794.818111 -328.984599 
z
" id="m25f30fc24b" style="stroke:#a40000;stroke-opacity:0.1;"/>
    </defs>
    <g clip-path="url(#p21f0da7668)">
     <use style="fill:#a40000;fill-opacity:0.1;stroke:#a40000;stroke-opacity:0.1;" x="0" xlink:href="#m25f30fc24b" y="544.682704"/>
    </g>
   </g>
   <g id="PolyCollection_30">
    <defs>
     <path d="M 794.818111 -541.387093 
L 794.818111 -127.784593 
L 810.256847 -176.797648 
L 810.256847 -585.86866 
L 810.256847 -585.86866 
L 794.818111 -541.387093 
z
" id="m31e3441b1f" style="stroke:#800000;stroke-opacity:0.1;"/>
    </defs>
    <g clip-path="url(#p21f0da7668)">
     <use style="fill:#800000;fill-opacity:0.1;stroke:#800000;stroke-opacity:0.1;" x="0" xlink:href="#m31e3441b1f" y="544.682704"/>
    </g>
   </g>
   <g id="matplotlib.axis_1">
    <g id="xtick_1">
     <g id="line2d_1">
      <defs>
       <path d="M 0 0 
L 0 3.5 
" id="m03ee28edbb" style="stroke:#000000;stroke-width:0.8;"/>
      </defs>
      <g>
       <use style="stroke:#000000;stroke-width:0.8;" x="100.075028" xlink:href="#m03ee28edbb" y="461.757187"/>
      </g>
     </g>
     <g id="text_1">
      <!-- 2020-02 -->
      <defs>
       <path d="M 19.1875 8.296875 
L 53.609375 8.296875 
L 53.609375 0 
L 7.328125 0 
L 7.328125 8.296875 
Q 12.9375 14.109375 22.625 23.890625 
Q 32.328125 33.6875 34.8125 36.53125 
Q 39.546875 41.84375 41.421875 45.53125 
Q 43.3125 49.21875 43.3125 52.78125 
Q 43.3125 58.59375 39.234375 62.25 
Q 35.15625 65.921875 28.609375 65.921875 
Q 23.96875 65.921875 18.8125 64.3125 
Q 13.671875 62.703125 7.8125 59.421875 
L 7.8125 69.390625 
Q 13.765625 71.78125 18.9375 73 
Q 24.125 74.21875 28.421875 74.21875 
Q 39.75 74.21875 46.484375 68.546875 
Q 53.21875 62.890625 53.21875 53.421875 
Q 53.21875 48.921875 51.53125 44.890625 
Q 49.859375 40.875 45.40625 35.40625 
Q 44.1875 33.984375 37.640625 27.21875 
Q 31.109375 20.453125 19.1875 8.296875 
z
" id="DejaVuSans-50"/>
       <path d="M 31.78125 66.40625 
Q 24.171875 66.40625 20.328125 58.90625 
Q 16.5 51.421875 16.5 36.375 
Q 16.5 21.390625 20.328125 13.890625 
Q 24.171875 6.390625 31.78125 6.390625 
Q 39.453125 6.390625 43.28125 13.890625 
Q 47.125 21.390625 47.125 36.375 
Q 47.125 51.421875 43.28125 58.90625 
Q 39.453125 66.40625 31.78125 66.40625 
z
M 31.78125 74.21875 
Q 44.046875 74.21875 50.515625 64.515625 
Q 56.984375 54.828125 56.984375 36.375 
Q 56.984375 17.96875 50.515625 8.265625 
Q 44.046875 -1.421875 31.78125 -1.421875 
Q 19.53125 -1.421875 13.0625 8.265625 
Q 6.59375 17.96875 6.59375 36.375 
Q 6.59375 54.828125 13.0625 64.515625 
Q 19.53125 74.21875 31.78125 74.21875 
z
" id="DejaVuSans-48"/>
       <path d="M 4.890625 31.390625 
L 31.203125 31.390625 
L 31.203125 23.390625 
L 4.890625 23.390625 
z
" id="DejaVuSans-45"/>
      </defs>
      <g transform="translate(83.407361 514.150349)rotate(-45)scale(0.13 -0.13)">
       <use xlink:href="#DejaVuSans-50"/>
       <use x="63.623047" xlink:href="#DejaVuSans-48"/>
       <use x="127.246094" xlink:href="#DejaVuSans-50"/>
       <use x="190.869141" xlink:href="#DejaVuSans-48"/>
       <use x="254.492188" xlink:href="#DejaVuSans-45"/>
       <use x="290.576172" xlink:href="#DejaVuSans-48"/>
       <use x="354.199219" xlink:href="#DejaVuSans-50"/>
      </g>
     </g>
    </g>
    <g id="xtick_2">
     <g id="line2d_2">
      <g>
       <use style="stroke:#000000;stroke-width:0.8;" x="164.035503" xlink:href="#m03ee28edbb" y="461.757187"/>
      </g>
     </g>
     <g id="text_2">
      <!-- 2020-03 -->
      <defs>
       <path d="M 40.578125 39.3125 
Q 47.65625 37.796875 51.625 33 
Q 55.609375 28.21875 55.609375 21.1875 
Q 55.609375 10.40625 48.1875 4.484375 
Q 40.765625 -1.421875 27.09375 -1.421875 
Q 22.515625 -1.421875 17.65625 -0.515625 
Q 12.796875 0.390625 7.625 2.203125 
L 7.625 11.71875 
Q 11.71875 9.328125 16.59375 8.109375 
Q 21.484375 6.890625 26.8125 6.890625 
Q 36.078125 6.890625 40.9375 10.546875 
Q 45.796875 14.203125 45.796875 21.1875 
Q 45.796875 27.640625 41.28125 31.265625 
Q 36.765625 34.90625 28.71875 34.90625 
L 20.21875 34.90625 
L 20.21875 43.015625 
L 29.109375 43.015625 
Q 36.375 43.015625 40.234375 45.921875 
Q 44.09375 48.828125 44.09375 54.296875 
Q 44.09375 59.90625 40.109375 62.90625 
Q 36.140625 65.921875 28.71875 65.921875 
Q 24.65625 65.921875 20.015625 65.03125 
Q 15.375 64.15625 9.8125 62.3125 
L 9.8125 71.09375 
Q 15.4375 72.65625 20.34375 73.4375 
Q 25.25 74.21875 29.59375 74.21875 
Q 40.828125 74.21875 47.359375 69.109375 
Q 53.90625 64.015625 53.90625 55.328125 
Q 53.90625 49.265625 50.4375 45.09375 
Q 46.96875 40.921875 40.578125 39.3125 
z
" id="DejaVuSans-51"/>
      </defs>
      <g transform="translate(147.367836 514.150349)rotate(-45)scale(0.13 -0.13)">
       <use xlink:href="#DejaVuSans-50"/>
       <use x="63.623047" xlink:href="#DejaVuSans-48"/>
       <use x="127.246094" xlink:href="#DejaVuSans-50"/>
       <use x="190.869141" xlink:href="#DejaVuSans-48"/>
       <use x="254.492188" xlink:href="#DejaVuSans-45"/>
       <use x="290.576172" xlink:href="#DejaVuSans-48"/>
       <use x="354.199219" xlink:href="#DejaVuSans-51"/>
      </g>
     </g>
    </g>
    <g id="xtick_3">
     <g id="line2d_3">
      <g>
       <use style="stroke:#000000;stroke-width:0.8;" x="232.407044" xlink:href="#m03ee28edbb" y="461.757187"/>
      </g>
     </g>
     <g id="text_3">
      <!-- 2020-04 -->
      <defs>
       <path d="M 37.796875 64.3125 
L 12.890625 25.390625 
L 37.796875 25.390625 
z
M 35.203125 72.90625 
L 47.609375 72.90625 
L 47.609375 25.390625 
L 58.015625 25.390625 
L 58.015625 17.1875 
L 47.609375 17.1875 
L 47.609375 0 
L 37.796875 0 
L 37.796875 17.1875 
L 4.890625 17.1875 
L 4.890625 26.703125 
z
" id="DejaVuSans-52"/>
      </defs>
      <g transform="translate(215.739377 514.150349)rotate(-45)scale(0.13 -0.13)">
       <use xlink:href="#DejaVuSans-50"/>
       <use x="63.623047" xlink:href="#DejaVuSans-48"/>
       <use x="127.246094" xlink:href="#DejaVuSans-50"/>
       <use x="190.869141" xlink:href="#DejaVuSans-48"/>
       <use x="254.492188" xlink:href="#DejaVuSans-45"/>
       <use x="290.576172" xlink:href="#DejaVuSans-48"/>
       <use x="354.199219" xlink:href="#DejaVuSans-52"/>
      </g>
     </g>
    </g>
    <g id="xtick_4">
     <g id="line2d_4">
      <g>
       <use style="stroke:#000000;stroke-width:0.8;" x="298.573052" xlink:href="#m03ee28edbb" y="461.757187"/>
      </g>
     </g>
     <g id="text_4">
      <!-- 2020-05 -->
      <defs>
       <path d="M 10.796875 72.90625 
L 49.515625 72.90625 
L 49.515625 64.59375 
L 19.828125 64.59375 
L 19.828125 46.734375 
Q 21.96875 47.46875 24.109375 47.828125 
Q 26.265625 48.1875 28.421875 48.1875 
Q 40.625 48.1875 47.75 41.5 
Q 54.890625 34.8125 54.890625 23.390625 
Q 54.890625 11.625 47.5625 5.09375 
Q 40.234375 -1.421875 26.90625 -1.421875 
Q 22.3125 -1.421875 17.546875 -0.640625 
Q 12.796875 0.140625 7.71875 1.703125 
L 7.71875 11.625 
Q 12.109375 9.234375 16.796875 8.0625 
Q 21.484375 6.890625 26.703125 6.890625 
Q 35.15625 6.890625 40.078125 11.328125 
Q 45.015625 15.765625 45.015625 23.390625 
Q 45.015625 31 40.078125 35.4375 
Q 35.15625 39.890625 26.703125 39.890625 
Q 22.75 39.890625 18.8125 39.015625 
Q 14.890625 38.140625 10.796875 36.28125 
z
" id="DejaVuSans-53"/>
      </defs>
      <g transform="translate(281.905385 514.150349)rotate(-45)scale(0.13 -0.13)">
       <use xlink:href="#DejaVuSans-50"/>
       <use x="63.623047" xlink:href="#DejaVuSans-48"/>
       <use x="127.246094" xlink:href="#DejaVuSans-50"/>
       <use x="190.869141" xlink:href="#DejaVuSans-48"/>
       <use x="254.492188" xlink:href="#DejaVuSans-45"/>
       <use x="290.576172" xlink:href="#DejaVuSans-48"/>
       <use x="354.199219" xlink:href="#DejaVuSans-53"/>
      </g>
     </g>
    </g>
    <g id="xtick_5">
     <g id="line2d_5">
      <g>
       <use style="stroke:#000000;stroke-width:0.8;" x="366.944594" xlink:href="#m03ee28edbb" y="461.757187"/>
      </g>
     </g>
     <g id="text_5">
      <!-- 2020-06 -->
      <defs>
       <path d="M 33.015625 40.375 
Q 26.375 40.375 22.484375 35.828125 
Q 18.609375 31.296875 18.609375 23.390625 
Q 18.609375 15.53125 22.484375 10.953125 
Q 26.375 6.390625 33.015625 6.390625 
Q 39.65625 6.390625 43.53125 10.953125 
Q 47.40625 15.53125 47.40625 23.390625 
Q 47.40625 31.296875 43.53125 35.828125 
Q 39.65625 40.375 33.015625 40.375 
z
M 52.59375 71.296875 
L 52.59375 62.3125 
Q 48.875 64.0625 45.09375 64.984375 
Q 41.3125 65.921875 37.59375 65.921875 
Q 27.828125 65.921875 22.671875 59.328125 
Q 17.53125 52.734375 16.796875 39.40625 
Q 19.671875 43.65625 24.015625 45.921875 
Q 28.375 48.1875 33.59375 48.1875 
Q 44.578125 48.1875 50.953125 41.515625 
Q 57.328125 34.859375 57.328125 23.390625 
Q 57.328125 12.15625 50.6875 5.359375 
Q 44.046875 -1.421875 33.015625 -1.421875 
Q 20.359375 -1.421875 13.671875 8.265625 
Q 6.984375 17.96875 6.984375 36.375 
Q 6.984375 53.65625 15.1875 63.9375 
Q 23.390625 74.21875 37.203125 74.21875 
Q 40.921875 74.21875 44.703125 73.484375 
Q 48.484375 72.75 52.59375 71.296875 
z
" id="DejaVuSans-54"/>
      </defs>
      <g transform="translate(350.276927 514.150349)rotate(-45)scale(0.13 -0.13)">
       <use xlink:href="#DejaVuSans-50"/>
       <use x="63.623047" xlink:href="#DejaVuSans-48"/>
       <use x="127.246094" xlink:href="#DejaVuSans-50"/>
       <use x="190.869141" xlink:href="#DejaVuSans-48"/>
       <use x="254.492188" xlink:href="#DejaVuSans-45"/>
       <use x="290.576172" xlink:href="#DejaVuSans-48"/>
       <use x="354.199219" xlink:href="#DejaVuSans-54"/>
      </g>
     </g>
    </g>
    <g id="xtick_6">
     <g id="line2d_6">
      <g>
       <use style="stroke:#000000;stroke-width:0.8;" x="433.110602" xlink:href="#m03ee28edbb" y="461.757187"/>
      </g>
     </g>
     <g id="text_6">
      <!-- 2020-07 -->
      <defs>
       <path d="M 8.203125 72.90625 
L 55.078125 72.90625 
L 55.078125 68.703125 
L 28.609375 0 
L 18.3125 0 
L 43.21875 64.59375 
L 8.203125 64.59375 
z
" id="DejaVuSans-55"/>
      </defs>
      <g transform="translate(416.442935 514.150349)rotate(-45)scale(0.13 -0.13)">
       <use xlink:href="#DejaVuSans-50"/>
       <use x="63.623047" xlink:href="#DejaVuSans-48"/>
       <use x="127.246094" xlink:href="#DejaVuSans-50"/>
       <use x="190.869141" xlink:href="#DejaVuSans-48"/>
       <use x="254.492188" xlink:href="#DejaVuSans-45"/>
       <use x="290.576172" xlink:href="#DejaVuSans-48"/>
       <use x="354.199219" xlink:href="#DejaVuSans-55"/>
      </g>
     </g>
    </g>
    <g id="xtick_7">
     <g id="line2d_7">
      <g>
       <use style="stroke:#000000;stroke-width:0.8;" x="501.482143" xlink:href="#m03ee28edbb" y="461.757187"/>
      </g>
     </g>
     <g id="text_7">
      <!-- 2020-08 -->
      <defs>
       <path d="M 31.78125 34.625 
Q 24.75 34.625 20.71875 30.859375 
Q 16.703125 27.09375 16.703125 20.515625 
Q 16.703125 13.921875 20.71875 10.15625 
Q 24.75 6.390625 31.78125 6.390625 
Q 38.8125 6.390625 42.859375 10.171875 
Q 46.921875 13.96875 46.921875 20.515625 
Q 46.921875 27.09375 42.890625 30.859375 
Q 38.875 34.625 31.78125 34.625 
z
M 21.921875 38.8125 
Q 15.578125 40.375 12.03125 44.71875 
Q 8.5 49.078125 8.5 55.328125 
Q 8.5 64.0625 14.71875 69.140625 
Q 20.953125 74.21875 31.78125 74.21875 
Q 42.671875 74.21875 48.875 69.140625 
Q 55.078125 64.0625 55.078125 55.328125 
Q 55.078125 49.078125 51.53125 44.71875 
Q 48 40.375 41.703125 38.8125 
Q 48.828125 37.15625 52.796875 32.3125 
Q 56.78125 27.484375 56.78125 20.515625 
Q 56.78125 9.90625 50.3125 4.234375 
Q 43.84375 -1.421875 31.78125 -1.421875 
Q 19.734375 -1.421875 13.25 4.234375 
Q 6.78125 9.90625 6.78125 20.515625 
Q 6.78125 27.484375 10.78125 32.3125 
Q 14.796875 37.15625 21.921875 38.8125 
z
M 18.3125 54.390625 
Q 18.3125 48.734375 21.84375 45.5625 
Q 25.390625 42.390625 31.78125 42.390625 
Q 38.140625 42.390625 41.71875 45.5625 
Q 45.3125 48.734375 45.3125 54.390625 
Q 45.3125 60.0625 41.71875 63.234375 
Q 38.140625 66.40625 31.78125 66.40625 
Q 25.390625 66.40625 21.84375 63.234375 
Q 18.3125 60.0625 18.3125 54.390625 
z
" id="DejaVuSans-56"/>
      </defs>
      <g transform="translate(484.814476 514.150349)rotate(-45)scale(0.13 -0.13)">
       <use xlink:href="#DejaVuSans-50"/>
       <use x="63.623047" xlink:href="#DejaVuSans-48"/>
       <use x="127.246094" xlink:href="#DejaVuSans-50"/>
       <use x="190.869141" xlink:href="#DejaVuSans-48"/>
       <use x="254.492188" xlink:href="#DejaVuSans-45"/>
       <use x="290.576172" xlink:href="#DejaVuSans-48"/>
       <use x="354.199219" xlink:href="#DejaVuSans-56"/>
      </g>
     </g>
    </g>
    <g id="xtick_8">
     <g id="line2d_8">
      <g>
       <use style="stroke:#000000;stroke-width:0.8;" x="569.853685" xlink:href="#m03ee28edbb" y="461.757187"/>
      </g>
     </g>
     <g id="text_8">
      <!-- 2020-09 -->
      <defs>
       <path d="M 10.984375 1.515625 
L 10.984375 10.5 
Q 14.703125 8.734375 18.5 7.8125 
Q 22.3125 6.890625 25.984375 6.890625 
Q 35.75 6.890625 40.890625 13.453125 
Q 46.046875 20.015625 46.78125 33.40625 
Q 43.953125 29.203125 39.59375 26.953125 
Q 35.25 24.703125 29.984375 24.703125 
Q 19.046875 24.703125 12.671875 31.3125 
Q 6.296875 37.9375 6.296875 49.421875 
Q 6.296875 60.640625 12.9375 67.421875 
Q 19.578125 74.21875 30.609375 74.21875 
Q 43.265625 74.21875 49.921875 64.515625 
Q 56.59375 54.828125 56.59375 36.375 
Q 56.59375 19.140625 48.40625 8.859375 
Q 40.234375 -1.421875 26.421875 -1.421875 
Q 22.703125 -1.421875 18.890625 -0.6875 
Q 15.09375 0.046875 10.984375 1.515625 
z
M 30.609375 32.421875 
Q 37.25 32.421875 41.125 36.953125 
Q 45.015625 41.5 45.015625 49.421875 
Q 45.015625 57.28125 41.125 61.84375 
Q 37.25 66.40625 30.609375 66.40625 
Q 23.96875 66.40625 20.09375 61.84375 
Q 16.21875 57.28125 16.21875 49.421875 
Q 16.21875 41.5 20.09375 36.953125 
Q 23.96875 32.421875 30.609375 32.421875 
z
" id="DejaVuSans-57"/>
      </defs>
      <g transform="translate(553.186018 514.150349)rotate(-45)scale(0.13 -0.13)">
       <use xlink:href="#DejaVuSans-50"/>
       <use x="63.623047" xlink:href="#DejaVuSans-48"/>
       <use x="127.246094" xlink:href="#DejaVuSans-50"/>
       <use x="190.869141" xlink:href="#DejaVuSans-48"/>
       <use x="254.492188" xlink:href="#DejaVuSans-45"/>
       <use x="290.576172" xlink:href="#DejaVuSans-48"/>
       <use x="354.199219" xlink:href="#DejaVuSans-57"/>
      </g>
     </g>
    </g>
    <g id="xtick_9">
     <g id="line2d_9">
      <g>
       <use style="stroke:#000000;stroke-width:0.8;" x="636.019692" xlink:href="#m03ee28edbb" y="461.757187"/>
      </g>
     </g>
     <g id="text_9">
      <!-- 2020-10 -->
      <defs>
       <path d="M 12.40625 8.296875 
L 28.515625 8.296875 
L 28.515625 63.921875 
L 10.984375 60.40625 
L 10.984375 69.390625 
L 28.421875 72.90625 
L 38.28125 72.90625 
L 38.28125 8.296875 
L 54.390625 8.296875 
L 54.390625 0 
L 12.40625 0 
z
" id="DejaVuSans-49"/>
      </defs>
      <g transform="translate(619.352026 514.150349)rotate(-45)scale(0.13 -0.13)">
       <use xlink:href="#DejaVuSans-50"/>
       <use x="63.623047" xlink:href="#DejaVuSans-48"/>
       <use x="127.246094" xlink:href="#DejaVuSans-50"/>
       <use x="190.869141" xlink:href="#DejaVuSans-48"/>
       <use x="254.492188" xlink:href="#DejaVuSans-45"/>
       <use x="290.576172" xlink:href="#DejaVuSans-49"/>
       <use x="354.199219" xlink:href="#DejaVuSans-48"/>
      </g>
     </g>
    </g>
    <g id="xtick_10">
     <g id="line2d_10">
      <g>
       <use style="stroke:#000000;stroke-width:0.8;" x="704.391234" xlink:href="#m03ee28edbb" y="461.757187"/>
      </g>
     </g>
     <g id="text_10">
      <!-- 2020-11 -->
      <g transform="translate(687.723567 514.150349)rotate(-45)scale(0.13 -0.13)">
       <use xlink:href="#DejaVuSans-50"/>
       <use x="63.623047" xlink:href="#DejaVuSans-48"/>
       <use x="127.246094" xlink:href="#DejaVuSans-50"/>
       <use x="190.869141" xlink:href="#DejaVuSans-48"/>
       <use x="254.492188" xlink:href="#DejaVuSans-45"/>
       <use x="290.576172" xlink:href="#DejaVuSans-49"/>
       <use x="354.199219" xlink:href="#DejaVuSans-49"/>
      </g>
     </g>
    </g>
    <g id="xtick_11">
     <g id="line2d_11">
      <g>
       <use style="stroke:#000000;stroke-width:0.8;" x="770.557242" xlink:href="#m03ee28edbb" y="461.757187"/>
      </g>
     </g>
     <g id="text_11">
      <!-- 2020-12 -->
      <g transform="translate(753.889575 514.150349)rotate(-45)scale(0.13 -0.13)">
       <use xlink:href="#DejaVuSans-50"/>
       <use x="63.623047" xlink:href="#DejaVuSans-48"/>
       <use x="127.246094" xlink:href="#DejaVuSans-50"/>
       <use x="190.869141" xlink:href="#DejaVuSans-48"/>
       <use x="254.492188" xlink:href="#DejaVuSans-45"/>
       <use x="290.576172" xlink:href="#DejaVuSans-49"/>
       <use x="354.199219" xlink:href="#DejaVuSans-50"/>
      </g>
     </g>
    </g>
    <g id="xtick_12">
     <g id="line2d_12">
      <g>
       <use style="stroke:#000000;stroke-width:0.8;" x="838.928783" xlink:href="#m03ee28edbb" y="461.757187"/>
      </g>
     </g>
     <g id="text_12">
      <!-- 2021-01 -->
      <g transform="translate(822.261116 514.150349)rotate(-45)scale(0.13 -0.13)">
       <use xlink:href="#DejaVuSans-50"/>
       <use x="63.623047" xlink:href="#DejaVuSans-48"/>
       <use x="127.246094" xlink:href="#DejaVuSans-50"/>
       <use x="190.869141" xlink:href="#DejaVuSans-49"/>
       <use x="254.492188" xlink:href="#DejaVuSans-45"/>
       <use x="290.576172" xlink:href="#DejaVuSans-48"/>
       <use x="354.199219" xlink:href="#DejaVuSans-49"/>
      </g>
     </g>
    </g>
    <g id="text_13">
     <!-- Date -->
     <defs>
      <path d="M 19.671875 64.796875 
L 19.671875 8.109375 
L 31.59375 8.109375 
Q 46.6875 8.109375 53.6875 14.9375 
Q 60.6875 21.78125 60.6875 36.53125 
Q 60.6875 51.171875 53.6875 57.984375 
Q 46.6875 64.796875 31.59375 64.796875 
z
M 9.8125 72.90625 
L 30.078125 72.90625 
Q 51.265625 72.90625 61.171875 64.09375 
Q 71.09375 55.28125 71.09375 36.53125 
Q 71.09375 17.671875 61.125 8.828125 
Q 51.171875 0 30.078125 0 
L 9.8125 0 
z
" id="DejaVuSans-68"/>
      <path d="M 34.28125 27.484375 
Q 23.390625 27.484375 19.1875 25 
Q 14.984375 22.515625 14.984375 16.5 
Q 14.984375 11.71875 18.140625 8.90625 
Q 21.296875 6.109375 26.703125 6.109375 
Q 34.1875 6.109375 38.703125 11.40625 
Q 43.21875 16.703125 43.21875 25.484375 
L 43.21875 27.484375 
z
M 52.203125 31.203125 
L 52.203125 0 
L 43.21875 0 
L 43.21875 8.296875 
Q 40.140625 3.328125 35.546875 0.953125 
Q 30.953125 -1.421875 24.3125 -1.421875 
Q 15.921875 -1.421875 10.953125 3.296875 
Q 6 8.015625 6 15.921875 
Q 6 25.140625 12.171875 29.828125 
Q 18.359375 34.515625 30.609375 34.515625 
L 43.21875 34.515625 
L 43.21875 35.40625 
Q 43.21875 41.609375 39.140625 45 
Q 35.0625 48.390625 27.6875 48.390625 
Q 23 48.390625 18.546875 47.265625 
Q 14.109375 46.140625 10.015625 43.890625 
L 10.015625 52.203125 
Q 14.9375 54.109375 19.578125 55.046875 
Q 24.21875 56 28.609375 56 
Q 40.484375 56 46.34375 49.84375 
Q 52.203125 43.703125 52.203125 31.203125 
z
" id="DejaVuSans-97"/>
      <path d="M 18.3125 70.21875 
L 18.3125 54.6875 
L 36.8125 54.6875 
L 36.8125 47.703125 
L 18.3125 47.703125 
L 18.3125 18.015625 
Q 18.3125 11.328125 20.140625 9.421875 
Q 21.96875 7.515625 27.59375 7.515625 
L 36.8125 7.515625 
L 36.8125 0 
L 27.59375 0 
Q 17.1875 0 13.234375 3.875 
Q 9.28125 7.765625 9.28125 18.015625 
L 9.28125 47.703125 
L 2.6875 47.703125 
L 2.6875 54.6875 
L 9.28125 54.6875 
L 9.28125 70.21875 
z
" id="DejaVuSans-116"/>
      <path d="M 56.203125 29.59375 
L 56.203125 25.203125 
L 14.890625 25.203125 
Q 15.484375 15.921875 20.484375 11.0625 
Q 25.484375 6.203125 34.421875 6.203125 
Q 39.59375 6.203125 44.453125 7.46875 
Q 49.3125 8.734375 54.109375 11.28125 
L 54.109375 2.78125 
Q 49.265625 0.734375 44.1875 -0.34375 
Q 39.109375 -1.421875 33.890625 -1.421875 
Q 20.796875 -1.421875 13.15625 6.1875 
Q 5.515625 13.8125 5.515625 26.8125 
Q 5.515625 40.234375 12.765625 48.109375 
Q 20.015625 56 32.328125 56 
Q 43.359375 56 49.78125 48.890625 
Q 56.203125 41.796875 56.203125 29.59375 
z
M 47.21875 32.234375 
Q 47.125 39.59375 43.09375 43.984375 
Q 39.0625 48.390625 32.421875 48.390625 
Q 24.90625 48.390625 20.390625 44.140625 
Q 15.875 39.890625 15.1875 32.171875 
z
" id="DejaVuSans-101"/>
     </defs>
     <g transform="translate(433.654531 533.739266)scale(0.18 -0.18)">
      <use xlink:href="#DejaVuSans-68"/>
      <use x="77.001953" xlink:href="#DejaVuSans-97"/>
      <use x="138.28125" xlink:href="#DejaVuSans-116"/>
      <use x="177.490234" xlink:href="#DejaVuSans-101"/>
     </g>
    </g>
   </g>
   <g id="matplotlib.axis_2">
    <g id="ytick_1">
     <g id="line2d_13">
      <defs>
       <path d="M 0 0 
L -3.5 0 
" id="mdce4ad46c5" style="stroke:#000000;stroke-width:0.8;"/>
      </defs>
      <g>
       <use style="stroke:#000000;stroke-width:0.8;" x="64.565938" xlink:href="#mdce4ad46c5" y="410.409494"/>
      </g>
     </g>
     <g id="text_14">
      <!-- 0.25 -->
      <defs>
       <path d="M 10.6875 12.40625 
L 21 12.40625 
L 21 0 
L 10.6875 0 
z
" id="DejaVuSans-46"/>
      </defs>
      <g transform="translate(28.620625 415.348478)scale(0.13 -0.13)">
       <use xlink:href="#DejaVuSans-48"/>
       <use x="63.623047" xlink:href="#DejaVuSans-46"/>
       <use x="95.410156" xlink:href="#DejaVuSans-50"/>
       <use x="159.033203" xlink:href="#DejaVuSans-53"/>
      </g>
     </g>
    </g>
    <g id="ytick_2">
     <g id="line2d_14">
      <g>
       <use style="stroke:#000000;stroke-width:0.8;" x="64.565938" xlink:href="#mdce4ad46c5" y="359.061554"/>
      </g>
     </g>
     <g id="text_15">
      <!-- 0.50 -->
      <g transform="translate(28.620625 364.000538)scale(0.13 -0.13)">
       <use xlink:href="#DejaVuSans-48"/>
       <use x="63.623047" xlink:href="#DejaVuSans-46"/>
       <use x="95.410156" xlink:href="#DejaVuSans-53"/>
       <use x="159.033203" xlink:href="#DejaVuSans-48"/>
      </g>
     </g>
    </g>
    <g id="ytick_3">
     <g id="line2d_15">
      <g>
       <use style="stroke:#000000;stroke-width:0.8;" x="64.565938" xlink:href="#mdce4ad46c5" y="307.713614"/>
      </g>
     </g>
     <g id="text_16">
      <!-- 0.75 -->
      <g transform="translate(28.620625 312.652598)scale(0.13 -0.13)">
       <use xlink:href="#DejaVuSans-48"/>
       <use x="63.623047" xlink:href="#DejaVuSans-46"/>
       <use x="95.410156" xlink:href="#DejaVuSans-55"/>
       <use x="159.033203" xlink:href="#DejaVuSans-53"/>
      </g>
     </g>
    </g>
    <g id="ytick_4">
     <g id="line2d_16">
      <g>
       <use style="stroke:#000000;stroke-width:0.8;" x="64.565938" xlink:href="#mdce4ad46c5" y="256.365674"/>
      </g>
     </g>
     <g id="text_17">
      <!-- 1.00 -->
      <g transform="translate(28.620625 261.304658)scale(0.13 -0.13)">
       <use xlink:href="#DejaVuSans-49"/>
       <use x="63.623047" xlink:href="#DejaVuSans-46"/>
       <use x="95.410156" xlink:href="#DejaVuSans-48"/>
       <use x="159.033203" xlink:href="#DejaVuSans-48"/>
      </g>
     </g>
    </g>
    <g id="ytick_5">
     <g id="line2d_17">
      <g>
       <use style="stroke:#000000;stroke-width:0.8;" x="64.565938" xlink:href="#mdce4ad46c5" y="205.017733"/>
      </g>
     </g>
     <g id="text_18">
      <!-- 1.25 -->
      <g transform="translate(28.620625 209.956718)scale(0.13 -0.13)">
       <use xlink:href="#DejaVuSans-49"/>
       <use x="63.623047" xlink:href="#DejaVuSans-46"/>
       <use x="95.410156" xlink:href="#DejaVuSans-50"/>
       <use x="159.033203" xlink:href="#DejaVuSans-53"/>
      </g>
     </g>
    </g>
    <g id="ytick_6">
     <g id="line2d_18">
      <g>
       <use style="stroke:#000000;stroke-width:0.8;" x="64.565938" xlink:href="#mdce4ad46c5" y="153.669793"/>
      </g>
     </g>
     <g id="text_19">
      <!-- 1.50 -->
      <g transform="translate(28.620625 158.608778)scale(0.13 -0.13)">
       <use xlink:href="#DejaVuSans-49"/>
       <use x="63.623047" xlink:href="#DejaVuSans-46"/>
       <use x="95.410156" xlink:href="#DejaVuSans-53"/>
       <use x="159.033203" xlink:href="#DejaVuSans-48"/>
      </g>
     </g>
    </g>
    <g id="ytick_7">
     <g id="line2d_19">
      <g>
       <use style="stroke:#000000;stroke-width:0.8;" x="64.565938" xlink:href="#mdce4ad46c5" y="102.321853"/>
      </g>
     </g>
     <g id="text_20">
      <!-- 1.75 -->
      <g transform="translate(28.620625 107.260838)scale(0.13 -0.13)">
       <use xlink:href="#DejaVuSans-49"/>
       <use x="63.623047" xlink:href="#DejaVuSans-46"/>
       <use x="95.410156" xlink:href="#DejaVuSans-55"/>
       <use x="159.033203" xlink:href="#DejaVuSans-53"/>
      </g>
     </g>
    </g>
    <g id="ytick_8">
     <g id="line2d_20">
      <g>
       <use style="stroke:#000000;stroke-width:0.8;" x="64.565938" xlink:href="#mdce4ad46c5" y="50.973913"/>
      </g>
     </g>
     <g id="text_21">
      <!-- 2.00 -->
      <g transform="translate(28.620625 55.912898)scale(0.13 -0.13)">
       <use xlink:href="#DejaVuSans-50"/>
       <use x="63.623047" xlink:href="#DejaVuSans-46"/>
       <use x="95.410156" xlink:href="#DejaVuSans-48"/>
       <use x="159.033203" xlink:href="#DejaVuSans-48"/>
      </g>
     </g>
    </g>
    <g id="text_22">
     <!-- US weekly incidental cases -->
     <defs>
      <path d="M 8.6875 72.90625 
L 18.609375 72.90625 
L 18.609375 28.609375 
Q 18.609375 16.890625 22.84375 11.734375 
Q 27.09375 6.59375 36.625 6.59375 
Q 46.09375 6.59375 50.34375 11.734375 
Q 54.59375 16.890625 54.59375 28.609375 
L 54.59375 72.90625 
L 64.5 72.90625 
L 64.5 27.390625 
Q 64.5 13.140625 57.4375 5.859375 
Q 50.390625 -1.421875 36.625 -1.421875 
Q 22.796875 -1.421875 15.734375 5.859375 
Q 8.6875 13.140625 8.6875 27.390625 
z
" id="DejaVuSans-85"/>
      <path d="M 53.515625 70.515625 
L 53.515625 60.890625 
Q 47.90625 63.578125 42.921875 64.890625 
Q 37.9375 66.21875 33.296875 66.21875 
Q 25.25 66.21875 20.875 63.09375 
Q 16.5 59.96875 16.5 54.203125 
Q 16.5 49.359375 19.40625 46.890625 
Q 22.3125 44.4375 30.421875 42.921875 
L 36.375 41.703125 
Q 47.40625 39.59375 52.65625 34.296875 
Q 57.90625 29 57.90625 20.125 
Q 57.90625 9.515625 50.796875 4.046875 
Q 43.703125 -1.421875 29.984375 -1.421875 
Q 24.8125 -1.421875 18.96875 -0.25 
Q 13.140625 0.921875 6.890625 3.21875 
L 6.890625 13.375 
Q 12.890625 10.015625 18.65625 8.296875 
Q 24.421875 6.59375 29.984375 6.59375 
Q 38.421875 6.59375 43.015625 9.90625 
Q 47.609375 13.234375 47.609375 19.390625 
Q 47.609375 24.75 44.3125 27.78125 
Q 41.015625 30.8125 33.5 32.328125 
L 27.484375 33.5 
Q 16.453125 35.6875 11.515625 40.375 
Q 6.59375 45.0625 6.59375 53.421875 
Q 6.59375 63.09375 13.40625 68.65625 
Q 20.21875 74.21875 32.171875 74.21875 
Q 37.3125 74.21875 42.625 73.28125 
Q 47.953125 72.359375 53.515625 70.515625 
z
" id="DejaVuSans-83"/>
      <path id="DejaVuSans-32"/>
      <path d="M 4.203125 54.6875 
L 13.1875 54.6875 
L 24.421875 12.015625 
L 35.59375 54.6875 
L 46.1875 54.6875 
L 57.421875 12.015625 
L 68.609375 54.6875 
L 77.59375 54.6875 
L 63.28125 0 
L 52.6875 0 
L 40.921875 44.828125 
L 29.109375 0 
L 18.5 0 
z
" id="DejaVuSans-119"/>
      <path d="M 9.078125 75.984375 
L 18.109375 75.984375 
L 18.109375 31.109375 
L 44.921875 54.6875 
L 56.390625 54.6875 
L 27.390625 29.109375 
L 57.625 0 
L 45.90625 0 
L 18.109375 26.703125 
L 18.109375 0 
L 9.078125 0 
z
" id="DejaVuSans-107"/>
      <path d="M 9.421875 75.984375 
L 18.40625 75.984375 
L 18.40625 0 
L 9.421875 0 
z
" id="DejaVuSans-108"/>
      <path d="M 32.171875 -5.078125 
Q 28.375 -14.84375 24.75 -17.8125 
Q 21.140625 -20.796875 15.09375 -20.796875 
L 7.90625 -20.796875 
L 7.90625 -13.28125 
L 13.1875 -13.28125 
Q 16.890625 -13.28125 18.9375 -11.515625 
Q 21 -9.765625 23.484375 -3.21875 
L 25.09375 0.875 
L 2.984375 54.6875 
L 12.5 54.6875 
L 29.59375 11.921875 
L 46.6875 54.6875 
L 56.203125 54.6875 
z
" id="DejaVuSans-121"/>
      <path d="M 9.421875 54.6875 
L 18.40625 54.6875 
L 18.40625 0 
L 9.421875 0 
z
M 9.421875 75.984375 
L 18.40625 75.984375 
L 18.40625 64.59375 
L 9.421875 64.59375 
z
" id="DejaVuSans-105"/>
      <path d="M 54.890625 33.015625 
L 54.890625 0 
L 45.90625 0 
L 45.90625 32.71875 
Q 45.90625 40.484375 42.875 44.328125 
Q 39.84375 48.1875 33.796875 48.1875 
Q 26.515625 48.1875 22.3125 43.546875 
Q 18.109375 38.921875 18.109375 30.90625 
L 18.109375 0 
L 9.078125 0 
L 9.078125 54.6875 
L 18.109375 54.6875 
L 18.109375 46.1875 
Q 21.34375 51.125 25.703125 53.5625 
Q 30.078125 56 35.796875 56 
Q 45.21875 56 50.046875 50.171875 
Q 54.890625 44.34375 54.890625 33.015625 
z
" id="DejaVuSans-110"/>
      <path d="M 48.78125 52.59375 
L 48.78125 44.1875 
Q 44.96875 46.296875 41.140625 47.34375 
Q 37.3125 48.390625 33.40625 48.390625 
Q 24.65625 48.390625 19.8125 42.84375 
Q 14.984375 37.3125 14.984375 27.296875 
Q 14.984375 17.28125 19.8125 11.734375 
Q 24.65625 6.203125 33.40625 6.203125 
Q 37.3125 6.203125 41.140625 7.25 
Q 44.96875 8.296875 48.78125 10.40625 
L 48.78125 2.09375 
Q 45.015625 0.34375 40.984375 -0.53125 
Q 36.96875 -1.421875 32.421875 -1.421875 
Q 20.0625 -1.421875 12.78125 6.34375 
Q 5.515625 14.109375 5.515625 27.296875 
Q 5.515625 40.671875 12.859375 48.328125 
Q 20.21875 56 33.015625 56 
Q 37.15625 56 41.109375 55.140625 
Q 45.0625 54.296875 48.78125 52.59375 
z
" id="DejaVuSans-99"/>
      <path d="M 45.40625 46.390625 
L 45.40625 75.984375 
L 54.390625 75.984375 
L 54.390625 0 
L 45.40625 0 
L 45.40625 8.203125 
Q 42.578125 3.328125 38.25 0.953125 
Q 33.9375 -1.421875 27.875 -1.421875 
Q 17.96875 -1.421875 11.734375 6.484375 
Q 5.515625 14.40625 5.515625 27.296875 
Q 5.515625 40.1875 11.734375 48.09375 
Q 17.96875 56 27.875 56 
Q 33.9375 56 38.25 53.625 
Q 42.578125 51.265625 45.40625 46.390625 
z
M 14.796875 27.296875 
Q 14.796875 17.390625 18.875 11.75 
Q 22.953125 6.109375 30.078125 6.109375 
Q 37.203125 6.109375 41.296875 11.75 
Q 45.40625 17.390625 45.40625 27.296875 
Q 45.40625 37.203125 41.296875 42.84375 
Q 37.203125 48.484375 30.078125 48.484375 
Q 22.953125 48.484375 18.875 42.84375 
Q 14.796875 37.203125 14.796875 27.296875 
z
" id="DejaVuSans-100"/>
      <path d="M 44.28125 53.078125 
L 44.28125 44.578125 
Q 40.484375 46.53125 36.375 47.5 
Q 32.28125 48.484375 27.875 48.484375 
Q 21.1875 48.484375 17.84375 46.4375 
Q 14.5 44.390625 14.5 40.28125 
Q 14.5 37.15625 16.890625 35.375 
Q 19.28125 33.59375 26.515625 31.984375 
L 29.59375 31.296875 
Q 39.15625 29.25 43.1875 25.515625 
Q 47.21875 21.78125 47.21875 15.09375 
Q 47.21875 7.46875 41.1875 3.015625 
Q 35.15625 -1.421875 24.609375 -1.421875 
Q 20.21875 -1.421875 15.453125 -0.5625 
Q 10.6875 0.296875 5.421875 2 
L 5.421875 11.28125 
Q 10.40625 8.6875 15.234375 7.390625 
Q 20.0625 6.109375 24.8125 6.109375 
Q 31.15625 6.109375 34.5625 8.28125 
Q 37.984375 10.453125 37.984375 14.40625 
Q 37.984375 18.0625 35.515625 20.015625 
Q 33.0625 21.96875 24.703125 23.78125 
L 21.578125 24.515625 
Q 13.234375 26.265625 9.515625 29.90625 
Q 5.8125 33.546875 5.8125 39.890625 
Q 5.8125 47.609375 11.28125 51.796875 
Q 16.75 56 26.8125 56 
Q 31.78125 56 36.171875 55.265625 
Q 40.578125 54.546875 44.28125 53.078125 
z
" id="DejaVuSans-115"/>
     </defs>
     <g transform="translate(20.877187 366.203906)rotate(-90)scale(0.18 -0.18)">
      <use xlink:href="#DejaVuSans-85"/>
      <use x="73.193359" xlink:href="#DejaVuSans-83"/>
      <use x="136.669922" xlink:href="#DejaVuSans-32"/>
      <use x="168.457031" xlink:href="#DejaVuSans-119"/>
      <use x="250.244141" xlink:href="#DejaVuSans-101"/>
      <use x="311.767578" xlink:href="#DejaVuSans-101"/>
      <use x="373.291016" xlink:href="#DejaVuSans-107"/>
      <use x="431.201172" xlink:href="#DejaVuSans-108"/>
      <use x="458.984375" xlink:href="#DejaVuSans-121"/>
      <use x="518.164062" xlink:href="#DejaVuSans-32"/>
      <use x="549.951172" xlink:href="#DejaVuSans-105"/>
      <use x="577.734375" xlink:href="#DejaVuSans-110"/>
      <use x="641.113281" xlink:href="#DejaVuSans-99"/>
      <use x="696.09375" xlink:href="#DejaVuSans-105"/>
      <use x="723.876953" xlink:href="#DejaVuSans-100"/>
      <use x="787.353516" xlink:href="#DejaVuSans-101"/>
      <use x="848.876953" xlink:href="#DejaVuSans-110"/>
      <use x="912.255859" xlink:href="#DejaVuSans-116"/>
      <use x="951.464844" xlink:href="#DejaVuSans-97"/>
      <use x="1012.744141" xlink:href="#DejaVuSans-108"/>
      <use x="1040.527344" xlink:href="#DejaVuSans-32"/>
      <use x="1072.314453" xlink:href="#DejaVuSans-99"/>
      <use x="1127.294922" xlink:href="#DejaVuSans-97"/>
      <use x="1188.574219" xlink:href="#DejaVuSans-115"/>
      <use x="1240.673828" xlink:href="#DejaVuSans-101"/>
      <use x="1302.197266" xlink:href="#DejaVuSans-115"/>
     </g>
    </g>
    <g id="text_23">
     <!-- 1e6 -->
     <g transform="translate(64.565938 23.877187)scale(0.1 -0.1)">
      <use xlink:href="#DejaVuSans-49"/>
      <use x="63.623047" xlink:href="#DejaVuSans-101"/>
      <use x="125.146484" xlink:href="#DejaVuSans-54"/>
     </g>
    </g>
   </g>
   <g id="line2d_21">
    <path clip-path="url(#p21f0da7668)" d="M 300.778586 423.273796 
L 316.217321 417.075894 
L 331.656056 419.487604 
L 347.094791 418.585113 
L 362.533526 421.832357 
L 377.972262 425.400833 
L 393.410997 429.25008 
L 408.849732 429.964433 
L 424.288467 431.451264 
L 439.727202 430.970031 
L 455.165938 431.361918 
L 470.604673 424.66512 
L 486.043408 409.412522 
L 501.482143 394.14719 
L 516.920878 378.638675 
L 532.359613 366.150034 
L 547.798349 365.919995 
L 563.237084 371.082312 
L 578.675819 384.255523 
L 594.114554 387.151752 
L 609.553289 398.918441 
L 624.992024 401.367327 
L 640.43076 403.451643 
L 655.869495 412.413296 
L 671.30823 404.279166 
L 686.746965 398.09215 
L 702.1857 399.618622 
L 717.624436 392.829808 
L 733.063171 381.972594 
L 748.501906 365.471214 
L 763.940641 349.066369 
L 779.379376 312.405994 
L 794.818111 252.707646 
L 810.256847 218.466786 
" style="fill:none;stroke:#000080;stroke-linecap:square;stroke-width:1.5;"/>
   </g>
   <g id="line2d_22">
    <path clip-path="url(#p21f0da7668)" d="M 486.043408 406.212386 
L 501.482143 403.07748 
L 516.920878 396.915652 
L 532.359613 392.661562 
L 547.798349 394.927212 
L 563.237084 413.834467 
L 578.675819 413.311887 
L 594.114554 421.402951 
L 609.553289 425.334832 
L 624.992024 428.755303 
L 640.43076 434.743967 
L 655.869495 432.078672 
L 671.30823 431.008746 
L 686.746965 426.979417 
L 702.1857 421.234353 
L 717.624436 412.116553 
L 733.063171 409.46787 
L 748.501906 311.415492 
L 763.940641 238.905525 
L 779.379376 103.166938 
L 794.818111 49.261973 
L 810.256847 205.565924 
" style="fill:none;stroke:#0000a4;stroke-linecap:square;stroke-width:1.5;"/>
   </g>
   <g id="line2d_23">
    <path clip-path="url(#p21f0da7668)" d="M 501.482143 433.465494 
L 516.920878 379.14139 
L 532.359613 143.087824 
L 547.798349 267.854171 
L 563.237084 366.51216 
L 578.675819 350.676717 
L 594.114554 425.58021 
L 609.553289 427.490637 
L 624.992024 431.184515 
L 640.43076 438.570128 
L 655.869495 440.935639 
L 671.30823 435.484618 
L 702.1857 435.829218 
L 717.624436 426.000485 
L 733.063171 381.982518 
L 748.501906 335.043199 
L 763.940641 317.328848 
L 779.379376 75.14062 
L 794.387263 -1 
M 795.388357 -1 
L 810.256847 55.993546 
" style="fill:none;stroke:#0000cd;stroke-linecap:square;stroke-width:1.5;"/>
   </g>
   <g id="line2d_24">
    <path clip-path="url(#p21f0da7668)" d="M 501.482143 398.201418 
L 516.920878 397.02514 
L 532.359613 389.20033 
L 547.798349 380.154671 
L 563.237084 381.458704 
L 578.675819 395.963264 
L 594.114554 409.601893 
L 609.553289 423.031228 
L 624.992024 427.848692 
L 640.43076 432.478428 
L 655.869495 436.613169 
L 671.30823 438.549603 
L 686.746965 439.740259 
L 702.1857 437.000333 
L 717.624436 431.457631 
L 733.063171 432.572086 
L 748.501906 405.714444 
L 763.940641 371.963237 
L 779.379376 313.346893 
L 794.818111 232.88118 
L 809.189561 -1 
" style="fill:none;stroke:#0000f6;stroke-linecap:square;stroke-width:1.5;"/>
   </g>
   <g id="line2d_25">
    <path clip-path="url(#p21f0da7668)" d="M 501.482143 404.295079 
L 516.920878 398.900349 
L 532.359613 379.237093 
L 547.798349 386.119536 
L 563.237084 409.058508 
L 578.675819 415.984754 
L 594.114554 414.611793 
L 609.553289 425.812526 
L 624.992024 415.66995 
L 640.43076 413.000727 
L 655.869495 417.621877 
L 671.30823 397.42483 
L 686.746965 400.870808 
L 717.624436 386.005086 
L 748.501906 359.913319 
L 779.379376 301.630157 
L 794.818111 291.055468 
L 810.256847 333.599884 
" style="fill:none;stroke:#000cff;stroke-linecap:square;stroke-width:1.5;"/>
   </g>
   <g id="line2d_26">
    <path clip-path="url(#p21f0da7668)" d="M 501.482143 369.542695 
L 516.920878 351.624318 
L 532.359613 356.004708 
L 547.798349 370.499205 
L 563.237084 378.24843 
L 594.114554 402.28091 
L 609.553289 401.670896 
L 624.992024 399.452049 
L 640.43076 401.876699 
L 655.869495 409.114293 
L 671.30823 415.23086 
L 686.746965 407.883175 
L 702.1857 416.832505 
L 717.624436 413.529395 
L 733.063171 404.520501 
L 748.501906 374.319286 
L 763.940641 353.420264 
L 779.379376 339.408232 
L 794.818111 253.341691 
L 810.256847 199.027277 
" style="fill:none;stroke:#0030ff;stroke-linecap:square;stroke-width:1.5;"/>
   </g>
   <g id="line2d_27">
    <path clip-path="url(#p21f0da7668)" d="M 501.482143 346.649319 
L 516.920878 372.998822 
L 532.359613 383.885818 
L 547.798349 392.347137 
L 563.237084 413.231782 
L 578.675819 420.694281 
L 594.114554 413.016737 
L 609.553289 427.928384 
L 624.992024 418.931609 
L 640.43076 396.639209 
L 655.869495 412.383514 
L 671.30823 412.973194 
L 686.746965 376.249147 
L 702.1857 361.990646 
L 717.624436 382.721864 
L 733.063171 353.78849 
L 748.501906 317.302328 
L 763.940641 59.31857 
L 779.379376 27.969009 
L 780.529497 -1 
" style="fill:none;stroke:#0050ff;stroke-linecap:square;stroke-width:1.5;"/>
   </g>
   <g id="line2d_28">
    <path clip-path="url(#p21f0da7668)" d="M 501.482143 356.106478 
L 516.920878 342.40205 
L 532.359613 336.208647 
L 547.798349 335.752332 
L 563.237084 366.782175 
L 594.114554 411.927459 
L 609.553289 424.457047 
L 624.992024 431.906814 
L 640.43076 423.325339 
L 655.869495 426.525734 
L 671.30823 437.025298 
L 686.746965 429.524601 
L 702.1857 394.957057 
L 717.624436 388.101889 
L 733.063171 408.953122 
L 748.501906 310.625052 
L 763.940641 302.146114 
L 779.379376 228.410321 
L 810.256847 161.138544 
" style="fill:none;stroke:#0074ff;stroke-linecap:square;stroke-width:1.5;"/>
   </g>
   <g id="line2d_29">
    <path clip-path="url(#p21f0da7668)" d="M 501.482143 387.769879 
L 516.920878 377.03436 
L 532.359613 368.077636 
L 547.798349 345.835043 
L 563.237084 355.924811 
L 578.675819 371.195175 
L 594.114554 385.312469 
L 609.553289 401.20897 
L 624.992024 411.640099 
L 640.43076 416.859001 
L 655.869495 422.096182 
L 671.30823 424.019779 
L 686.746965 409.597169 
L 702.1857 399.065399 
L 717.624436 401.605684 
L 733.063171 390.27494 
L 748.501906 390.211474 
L 763.940641 384.931057 
L 794.818111 227.208978 
L 810.256847 224.076959 
" style="fill:none;stroke:#0098ff;stroke-linecap:square;stroke-width:1.5;"/>
   </g>
   <g id="line2d_30">
    <path clip-path="url(#p21f0da7668)" d="M 501.482143 384.975808 
L 516.920878 358.519179 
L 532.359613 350.985958 
L 547.798349 364.516564 
L 563.237084 387.44553 
L 578.675819 411.080183 
L 594.114554 412.061967 
L 609.553289 411.962721 
L 624.992024 403.850226 
L 640.43076 428.157987 
L 655.869495 437.478734 
L 671.30823 423.499993 
L 686.746965 422.664542 
L 702.1857 426.683922 
L 717.624436 417.675795 
L 733.063171 415.222329 
L 748.501906 383.683838 
L 763.940641 343.194747 
L 779.379376 249.063764 
L 794.818111 166.323141 
L 810.256847 68.668281 
" style="fill:none;stroke:#00bcff;stroke-linecap:square;stroke-width:1.5;"/>
   </g>
   <g id="line2d_31">
    <path clip-path="url(#p21f0da7668)" d="M 516.920878 306.668235 
L 532.359613 303.314912 
L 547.798349 319.854144 
L 563.237084 295.182306 
" style="fill:none;stroke:#00e0fb;stroke-linecap:square;stroke-width:1.5;"/>
   </g>
   <g id="line2d_32">
    <path clip-path="url(#p21f0da7668)" d="M 516.920878 359.439823 
L 532.359613 293.473639 
L 547.798349 352.340351 
L 563.237084 386.668642 
L 578.675819 409.068718 
L 594.114554 411.034024 
L 609.553289 421.974187 
L 624.992024 410.484475 
L 640.43076 409.690057 
L 655.869495 417.970422 
L 671.30823 398.436362 
L 686.746965 396.952143 
L 702.1857 400.616552 
L 717.624436 374.148725 
L 733.063171 364.785621 
L 748.501906 327.695817 
L 763.940641 314.838189 
L 779.379376 234.371406 
L 794.818111 130.931648 
L 810.256847 165.705173 
" style="fill:none;stroke:#19ffde;stroke-linecap:square;stroke-width:1.5;"/>
   </g>
   <g id="line2d_33">
    <path clip-path="url(#p21f0da7668)" d="M 532.359613 359.938782 
L 547.798349 364.516554 
L 563.237084 379.853567 
L 578.675819 390.947392 
L 594.114554 410.317889 
L 609.553289 419.710454 
L 624.992024 411.062229 
L 640.43076 408.103971 
L 655.869495 417.621826 
L 671.30823 409.821663 
L 686.746965 400.870895 
L 702.1857 400.61662 
L 717.624436 393.096201 
L 733.063171 381.972594 
L 748.501906 352.769377 
L 763.940641 317.328824 
L 779.379376 237.646885 
L 794.818111 159.572136 
L 810.256847 112.38605 
" style="fill:none;stroke:#33ffc4;stroke-linecap:square;stroke-width:1.5;"/>
   </g>
   <g id="line2d_34">
    <path clip-path="url(#p21f0da7668)" d="M 547.798349 423.638572 
L 563.237084 403.14643 
L 578.675819 409.762715 
L 594.114554 385.369774 
L 609.553289 417.446832 
L 624.992024 413.974273 
L 640.43076 408.103971 
L 655.869495 423.724836 
L 671.30823 318.70844 
L 686.746965 363.016783 
L 702.1857 400.730202 
L 717.624436 369.966008 
L 733.063171 360.082556 
L 748.501906 330.896592 
L 763.940641 235.176022 
L 779.379376 112.557141 
L 794.818111 71.209726 
L 801.193678 -1 
" style="fill:none;stroke:#50ffa7;stroke-linecap:square;stroke-width:1.5;"/>
   </g>
   <g id="line2d_35">
    <path clip-path="url(#p21f0da7668)" d="M 547.798349 279.261104 
L 563.237084 315.091039 
L 578.675819 365.8958 
L 594.114554 389.195216 
L 609.553289 402.002932 
L 624.992024 406.857367 
L 640.43076 405.657324 
L 655.869495 409.23874 
L 671.30823 406.670029 
L 686.746965 397.833788 
L 702.1857 397.377674 
L 717.624436 367.637646 
L 733.063171 331.148362 
L 748.501906 270.258228 
L 763.940641 218.497677 
L 779.379376 131.879761 
L 790.424829 -1 
" style="fill:none;stroke:#6dff8a;stroke-linecap:square;stroke-width:1.5;"/>
   </g>
   <g id="line2d_36">
    <path clip-path="url(#p21f0da7668)" d="M 563.237084 390.630267 
L 578.675819 370.1219 
L 594.114554 396.800441 
L 609.553289 396.883214 
L 624.992024 376.001034 
L 640.43076 365.44554 
L 655.869495 367.659253 
L 671.30823 340.352624 
L 686.746965 351.200595 
L 702.1857 382.020861 
L 717.624436 362.849799 
L 733.063171 357.315518 
L 748.501906 320.421613 
L 763.940641 298.05178 
L 779.379376 162.458301 
L 794.818111 150.011971 
L 810.256847 182.204871 
" style="fill:none;stroke:#8aff6d;stroke-linecap:square;stroke-width:1.5;"/>
   </g>
   <g id="line2d_37">
    <path clip-path="url(#p21f0da7668)" d="M 563.237084 377.639649 
L 578.675819 360.227563 
L 594.114554 387.019069 
L 609.553289 396.883214 
L 624.992024 376.001034 
L 640.43076 365.44554 
L 655.869495 367.659253 
L 671.30823 340.352624 
L 686.746965 351.200595 
L 702.1857 382.020861 
L 717.624436 362.849799 
L 733.063171 357.315518 
L 748.501906 320.421613 
L 763.940641 298.05178 
L 779.379376 208.841512 
L 794.818111 150.011971 
L 810.256847 217.661034 
" style="fill:none;stroke:#a7ff50;stroke-linecap:square;stroke-width:1.5;"/>
   </g>
   <g id="line2d_38">
    <path clip-path="url(#p21f0da7668)" d="M 563.237084 401.30612 
L 578.675819 385.872367 
L 594.114554 407.509362 
L 609.553289 417.761287 
L 624.992024 396.686654 
L 640.43076 388.022614 
L 655.869495 381.801092 
L 671.30823 362.230749 
L 686.746965 369.648883 
L 702.1857 395.174149 
L 717.624436 381.822452 
L 733.063171 377.004373 
L 748.501906 346.262566 
L 763.940641 333.525812 
L 779.379376 208.841512 
L 794.818111 188.849705 
L 810.256847 217.661034 
" style="fill:none;stroke:#c4ff33;stroke-linecap:square;stroke-width:1.5;"/>
   </g>
   <g id="line2d_39">
    <path clip-path="url(#p21f0da7668)" d="M 563.237084 377.639649 
L 578.675819 360.227563 
L 594.114554 387.019069 
L 609.553289 385.558323 
L 624.992024 362.192546 
L 640.43076 328.747578 
L 655.869495 341.925308 
L 671.30823 334.632874 
L 686.746965 325.200052 
L 702.1857 362.090055 
L 717.624436 342.21984 
L 733.063171 336.360629 
L 748.501906 287.481293 
L 763.940641 271.039682 
L 779.379376 183.65966 
L 794.818111 165.928806 
L 810.256847 194.85803 
" style="fill:none;stroke:#deff19;stroke-linecap:square;stroke-width:1.5;"/>
   </g>
   <g id="line2d_40">
    <path clip-path="url(#p21f0da7668)" d="M 563.237084 381.476573 
L 578.675819 357.429305 
L 594.114554 388.909906 
L 609.553289 393.804392 
L 624.992024 371.279899 
L 640.43076 344.958739 
L 655.869495 352.158747 
L 671.30823 341.743331 
L 686.746965 366.875683 
L 702.1857 370.830296 
L 717.624436 352.994281 
L 733.063171 346.243465 
L 748.501906 301.4886 
L 763.940641 290.798986 
L 779.379376 191.462699 
L 794.818111 181.602251 
L 810.256847 214.20121 
" style="fill:none;stroke:#fbf100;stroke-linecap:square;stroke-width:1.5;"/>
   </g>
   <g id="line2d_41">
    <path clip-path="url(#p21f0da7668)" d="M 578.675819 385.931373 
L 594.114554 390.470204 
L 609.553289 398.737581 
L 624.992024 401.517449 
L 640.43076 403.22883 
L 655.869495 414.730221 
L 671.30823 403.515561 
L 686.746965 394.872917 
L 702.1857 397.068907 
L 717.624436 393.362572 
L 733.063171 380.713249 
L 748.501906 364.72167 
L 763.940641 349.492224 
L 779.379376 307.323859 
L 794.818111 253.611144 
L 810.256847 219.797627 
" style="fill:none;stroke:#ffd000;stroke-linecap:square;stroke-width:1.5;"/>
   </g>
   <g id="line2d_42">
    <path clip-path="url(#p21f0da7668)" d="M 624.992024 402.028285 
L 640.43076 400.19637 
L 655.869495 408.103098 
L 671.30823 396.921611 
L 686.746965 403.391238 
L 702.1857 407.959282 
L 717.624436 403.733997 
L 733.063171 371.284021 
L 748.501906 351.684094 
L 763.940641 314.592013 
L 779.379376 261.354294 
L 789.622401 -1 
" style="fill:none;stroke:#ffae00;stroke-linecap:square;stroke-width:1.5;"/>
   </g>
   <g id="line2d_43">
    <path clip-path="url(#p21f0da7668)" d="M 733.063171 347.657306 
L 748.501906 325.599846 
L 763.940641 323.821273 
L 779.379376 240.922468 
L 794.818111 140.177312 
L 810.256847 86.287295 
" style="fill:none;stroke:#ff8d00;stroke-linecap:square;stroke-width:1.5;"/>
   </g>
   <g id="line2d_44">
    <path clip-path="url(#p21f0da7668)" d="M 748.501906 353.854463 
L 779.379376 280.622958 
L 794.818111 93.700545 
L 810.256847 35.097338 
" style="fill:none;stroke:#ff6c00;stroke-linecap:square;stroke-width:1.5;"/>
   </g>
   <g id="line2d_45">
    <path clip-path="url(#p21f0da7668)" d="M 763.940641 340.015876 
L 779.379376 337.229012 
L 794.818111 162.006142 
L 810.256847 60.092757 
" style="fill:none;stroke:#ff4e00;stroke-linecap:square;stroke-width:1.5;"/>
   </g>
   <g id="line2d_46">
    <path clip-path="url(#p21f0da7668)" d="M 763.940641 320.032302 
L 779.379376 271.140429 
" style="fill:none;stroke:#ff2d00;stroke-linecap:square;stroke-width:1.5;"/>
   </g>
   <g id="line2d_47">
    <path clip-path="url(#p21f0da7668)" style="fill:none;stroke:#f60b00;stroke-linecap:square;stroke-width:1.5;"/>
   </g>
   <g id="line2d_48">
    <path clip-path="url(#p21f0da7668)" d="M 794.818111 157.138058 
L 810.256847 142.775318 
" style="fill:none;stroke:#cd0000;stroke-linecap:square;stroke-width:1.5;"/>
   </g>
   <g id="line2d_49">
    <path clip-path="url(#p21f0da7668)" d="M 794.818111 276.083283 
L 810.256847 181.110543 
" style="fill:none;stroke:#a40000;stroke-linecap:square;stroke-width:1.5;"/>
   </g>
   <g id="line2d_50">
    <path clip-path="url(#p21f0da7668)" d="M 794.818111 299.563463 
L 810.256847 138.48477 
" style="fill:none;stroke:#800000;stroke-linecap:square;stroke-width:1.5;"/>
   </g>
   <g id="line2d_51">
    <path clip-path="url(#p21f0da7668)" d="M 100.075028 461.756202 
L 115.513764 461.756612 
L 130.952499 461.757023 
L 146.391234 461.757023 
L 161.829969 461.755585 
L 177.268704 461.679796 
L 192.707439 461.226907 
L 208.146175 457.021716 
L 223.58491 441.453021 
L 239.023645 423.034515 
L 254.46238 416.704751 
L 269.901115 419.968016 
L 285.339851 419.038002 
L 300.778586 421.912665 
L 316.217321 425.429588 
L 331.656056 429.220298 
L 347.094791 429.983739 
L 362.533526 431.520481 
L 377.972262 431.809878 
L 393.410997 431.43093 
L 408.849732 424.869895 
L 424.288467 409.535141 
L 439.727202 393.730656 
L 455.165938 378.471075 
L 470.604673 366.52549 
L 486.043408 366.182281 
L 501.482143 371.04986 
L 516.920878 384.777629 
L 532.359613 387.375013 
L 547.798349 398.853126 
L 563.237084 401.365273 
L 578.675819 402.236545 
L 594.114554 412.376531 
L 609.553289 403.767741 
L 624.992024 398.820058 
L 640.43076 399.711253 
L 655.869495 392.071912 
L 671.30823 381.955136 
L 686.746965 363.197528 
L 702.1857 346.504518 
L 717.624436 297.422665 
L 733.063171 251.026104 
L 748.501906 216.428889 
L 763.940641 226.480145 
L 779.379376 185.115888 
L 794.818111 155.091104 
L 810.256847 151.128686 
" style="fill:none;stroke:#000000;stroke-linecap:square;stroke-width:3;"/>
   </g>
   <g id="patch_3">
    <path d="M 64.565938 461.757187 
L 64.565938 26.877187 
" style="fill:none;stroke:#000000;stroke-linecap:square;stroke-linejoin:miter;stroke-width:0.8;"/>
   </g>
   <g id="patch_4">
    <path d="M 845.765938 461.757187 
L 845.765938 26.877187 
" style="fill:none;stroke:#000000;stroke-linecap:square;stroke-linejoin:miter;stroke-width:0.8;"/>
   </g>
   <g id="patch_5">
    <path d="M 64.565938 461.757187 
L 845.765938 461.757187 
" style="fill:none;stroke:#000000;stroke-linecap:square;stroke-linejoin:miter;stroke-width:0.8;"/>
   </g>
   <g id="patch_6">
    <path d="M 64.565938 26.877187 
L 845.765938 26.877187 
" style="fill:none;stroke:#000000;stroke-linecap:square;stroke-linejoin:miter;stroke-width:0.8;"/>
   </g>
   <g id="text_24">
    <!-- 4-week-ahead Forecasts -->
    <defs>
     <path d="M 54.890625 33.015625 
L 54.890625 0 
L 45.90625 0 
L 45.90625 32.71875 
Q 45.90625 40.484375 42.875 44.328125 
Q 39.84375 48.1875 33.796875 48.1875 
Q 26.515625 48.1875 22.3125 43.546875 
Q 18.109375 38.921875 18.109375 30.90625 
L 18.109375 0 
L 9.078125 0 
L 9.078125 75.984375 
L 18.109375 75.984375 
L 18.109375 46.1875 
Q 21.34375 51.125 25.703125 53.5625 
Q 30.078125 56 35.796875 56 
Q 45.21875 56 50.046875 50.171875 
Q 54.890625 44.34375 54.890625 33.015625 
z
" id="DejaVuSans-104"/>
     <path d="M 9.8125 72.90625 
L 51.703125 72.90625 
L 51.703125 64.59375 
L 19.671875 64.59375 
L 19.671875 43.109375 
L 48.578125 43.109375 
L 48.578125 34.8125 
L 19.671875 34.8125 
L 19.671875 0 
L 9.8125 0 
z
" id="DejaVuSans-70"/>
     <path d="M 30.609375 48.390625 
Q 23.390625 48.390625 19.1875 42.75 
Q 14.984375 37.109375 14.984375 27.296875 
Q 14.984375 17.484375 19.15625 11.84375 
Q 23.34375 6.203125 30.609375 6.203125 
Q 37.796875 6.203125 41.984375 11.859375 
Q 46.1875 17.53125 46.1875 27.296875 
Q 46.1875 37.015625 41.984375 42.703125 
Q 37.796875 48.390625 30.609375 48.390625 
z
M 30.609375 56 
Q 42.328125 56 49.015625 48.375 
Q 55.71875 40.765625 55.71875 27.296875 
Q 55.71875 13.875 49.015625 6.21875 
Q 42.328125 -1.421875 30.609375 -1.421875 
Q 18.84375 -1.421875 12.171875 6.21875 
Q 5.515625 13.875 5.515625 27.296875 
Q 5.515625 40.765625 12.171875 48.375 
Q 18.84375 56 30.609375 56 
z
" id="DejaVuSans-111"/>
     <path d="M 41.109375 46.296875 
Q 39.59375 47.171875 37.8125 47.578125 
Q 36.03125 48 33.890625 48 
Q 26.265625 48 22.1875 43.046875 
Q 18.109375 38.09375 18.109375 28.8125 
L 18.109375 0 
L 9.078125 0 
L 9.078125 54.6875 
L 18.109375 54.6875 
L 18.109375 46.1875 
Q 20.953125 51.171875 25.484375 53.578125 
Q 30.03125 56 36.53125 56 
Q 37.453125 56 38.578125 55.875 
Q 39.703125 55.765625 41.0625 55.515625 
z
" id="DejaVuSans-114"/>
    </defs>
    <g transform="translate(345.690781 20.877187)scale(0.18 -0.18)">
     <use xlink:href="#DejaVuSans-52"/>
     <use x="63.623047" xlink:href="#DejaVuSans-45"/>
     <use x="99.707031" xlink:href="#DejaVuSans-119"/>
     <use x="181.494141" xlink:href="#DejaVuSans-101"/>
     <use x="243.017578" xlink:href="#DejaVuSans-101"/>
     <use x="304.541016" xlink:href="#DejaVuSans-107"/>
     <use x="362.451172" xlink:href="#DejaVuSans-45"/>
     <use x="398.535156" xlink:href="#DejaVuSans-97"/>
     <use x="459.814453" xlink:href="#DejaVuSans-104"/>
     <use x="523.193359" xlink:href="#DejaVuSans-101"/>
     <use x="584.716797" xlink:href="#DejaVuSans-97"/>
     <use x="645.996094" xlink:href="#DejaVuSans-100"/>
     <use x="709.472656" xlink:href="#DejaVuSans-32"/>
     <use x="741.259766" xlink:href="#DejaVuSans-70"/>
     <use x="795.154297" xlink:href="#DejaVuSans-111"/>
     <use x="856.335938" xlink:href="#DejaVuSans-114"/>
     <use x="895.199219" xlink:href="#DejaVuSans-101"/>
     <use x="956.722656" xlink:href="#DejaVuSans-99"/>
     <use x="1011.703125" xlink:href="#DejaVuSans-97"/>
     <use x="1072.982422" xlink:href="#DejaVuSans-115"/>
     <use x="1125.082031" xlink:href="#DejaVuSans-116"/>
     <use x="1164.291016" xlink:href="#DejaVuSans-115"/>
    </g>
   </g>
  </g>
 </g>
 <defs>
  <clipPath id="p21f0da7668">
   <rect height="434.88" width="781.2" x="64.565938" y="26.877187"/>
  </clipPath>
 </defs>
</svg>
