<?xml version="1.0" encoding="utf-8" standalone="no"?>
<!DOCTYPE svg PUBLIC "-//W3C//DTD SVG 1.1//EN"
  "http://www.w3.org/Graphics/SVG/1.1/DTD/svg11.dtd">
<!-- Created with matplotlib (https://matplotlib.org/) -->
<svg height="535.603954pt" version="1.1" viewBox="0 0 637.037671 535.603954" width="637.037671pt" xmlns="http://www.w3.org/2000/svg" xmlns:xlink="http://www.w3.org/1999/xlink">
 <defs>
  <style type="text/css">
*{stroke-linecap:butt;stroke-linejoin:round;}
  </style>
 </defs>
 <g id="figure_1">
  <g id="patch_1">
   <path d="M 0 535.603954 
L 637.037671 535.603954 
L 637.037671 0 
L 0 0 
z
" style="fill:#ffffff;"/>
  </g>
  <g id="axes_1">
   <g id="patch_2">
    <path d="M 56.294688 452.678438 
L 614.294688 452.678438 
L 614.294688 17.798438 
L 56.294688 17.798438 
z
" style="fill:#ffffff;"/>
   </g>
   <g id="PolyCollection_1">
    <defs>
     <path d="M 202.437545 -153.886249 
L 202.437545 -110.070412 
L 214.515467 -118.220412 
L 226.593389 -115.391421 
L 238.671311 -116.810148 
L 250.749233 -112.914175 
L 262.827155 -108.608743 
L 274.905077 -103.945427 
L 286.982999 -103.228075 
L 299.060921 -101.568314 
L 311.138843 -102.417143 
L 323.216765 -102.126031 
L 335.294687 -110.899304 
L 347.37261 -130.256685 
L 359.450532 -150.405632 
L 371.528454 -169.363435 
L 383.606376 -184.801294 
L 395.684298 -186.749577 
L 407.76222 -178.2148 
L 419.840142 -161.288698 
L 431.918064 -155.977874 
L 443.995986 -144.270859 
L 456.073908 -141.643438 
L 468.15183 -141.550841 
L 480.229752 -134.279993 
L 492.307675 -137.134524 
L 504.385597 -141.735168 
L 516.463519 -142.444984 
L 528.541441 -150.65983 
L 540.619363 -160.015884 
L 552.697285 -180.283599 
L 564.775207 -202.553022 
L 576.853129 -247.299896 
L 588.931051 -310.50754 
L 588.931051 -465.288583 
L 588.931051 -465.288583 
L 576.853129 -338.366322 
L 564.775207 -270.657387 
L 552.697285 -233.954822 
L 540.619363 -205.042767 
L 528.541441 -186.530952 
L 516.463519 -178.534791 
L 504.385597 -174.721092 
L 492.307675 -168.814768 
L 480.229752 -159.189165 
L 468.15183 -172.043747 
L 456.073908 -172.265908 
L 443.995986 -174.201201 
L 431.918064 -192.231528 
L 419.840142 -204.371143 
L 407.76222 -217.451727 
L 395.684298 -227.670859 
L 383.606376 -245.141284 
L 371.528454 -211.435606 
L 359.450532 -186.113013 
L 347.37261 -169.036491 
L 335.294687 -149.510457 
L 323.216765 -141.211596 
L 311.138843 -141.919523 
L 299.060921 -141.541546 
L 286.982999 -143.672159 
L 274.905077 -144.775905 
L 262.827155 -149.925466 
L 250.749233 -154.717144 
L 238.671311 -159.099362 
L 226.593389 -158.21737 
L 214.515467 -161.536546 
L 202.437545 -153.886249 
z
" id="m877d8dfb29" style="stroke:#0010ff;stroke-opacity:0.1;"/>
    </defs>
    <g clip-path="url(#pe0a7a95e36)">
     <use style="fill:#0010ff;fill-opacity:0.1;stroke:#0010ff;stroke-opacity:0.1;" x="0" xlink:href="#m877d8dfb29" y="535.603954"/>
    </g>
   </g>
   <g id="PolyCollection_2">
    <defs>
     <path d="M 214.515467 -155.457463 
L 214.515467 -108.478922 
L 226.593389 -116.220031 
L 238.671311 -113.306523 
L 250.749233 -114.536993 
L 262.827155 -110.507179 
L 274.905077 -106.06253 
L 286.982999 -101.410159 
L 299.060921 -100.635813 
L 311.138843 -98.940925 
L 323.216765 -99.87258 
L 335.294687 -99.636997 
L 347.37261 -108.26245 
L 359.450532 -126.365282 
L 371.528454 -150.551582 
L 383.606376 -172.350321 
L 395.684298 -171.889123 
L 407.76222 -183.457751 
L 419.840142 -167.815893 
L 431.918064 -154.084047 
L 443.995986 -146.715685 
L 456.073908 -134.804829 
L 468.15183 -136.094239 
L 480.229752 -135.22037 
L 492.307675 -128.422087 
L 504.385597 -133.325595 
L 516.463519 -136.085181 
L 528.541441 -137.680527 
L 540.619363 -148.375782 
L 552.697285 -156.484943 
L 564.775207 -183.971977 
L 576.853129 -206.44877 
L 588.931051 -269.51423 
L 588.931051 -404.448939 
L 588.931051 -404.448939 
L 576.853129 -311.960256 
L 564.775207 -268.268688 
L 552.697285 -224.252433 
L 540.619363 -202.932963 
L 528.541441 -191.284869 
L 516.463519 -195.368224 
L 504.385597 -181.618231 
L 492.307675 -170.306182 
L 480.229752 -190.491525 
L 468.15183 -181.108027 
L 456.073908 -188.074618 
L 443.995986 -196.21932 
L 431.918064 -215.702052 
L 419.840142 -236.94352 
L 407.76222 -250.078941 
L 395.684298 -278.845136 
L 383.606376 -245.688671 
L 371.528454 -220.915151 
L 359.450532 -199.635996 
L 347.37261 -152.237296 
L 335.294687 -143.711851 
L 323.216765 -144.407082 
L 311.138843 -144.074573 
L 299.060921 -146.219893 
L 286.982999 -147.409874 
L 274.905077 -152.480395 
L 262.827155 -157.069022 
L 250.749233 -161.383717 
L 238.671311 -160.35387 
L 226.593389 -163.535667 
L 214.515467 -155.457463 
z
" id="m978431572a" style="stroke:#00a4ff;stroke-opacity:0.1;"/>
    </defs>
    <g clip-path="url(#pe0a7a95e36)">
     <use style="fill:#00a4ff;fill-opacity:0.1;stroke:#00a4ff;stroke-opacity:0.1;" x="0" xlink:href="#m978431572a" y="535.603954"/>
    </g>
   </g>
   <g id="PolyCollection_3">
    <defs>
     <path d="M 226.593389 -160.933968 
L 226.593389 -102.283466 
L 238.671311 -110.278973 
L 250.749233 -108.661597 
L 262.827155 -110.273766 
L 274.905077 -106.823177 
L 286.982999 -102.782297 
L 299.060921 -98.099232 
L 311.138843 -97.523685 
L 323.216765 -96.224066 
L 335.294687 -97.164143 
L 347.37261 -97.48741 
L 359.450532 -105.552445 
L 371.528454 -116.394345 
L 383.606376 -147.96799 
L 395.684298 -166.33646 
L 407.76222 -170.97311 
L 419.840142 -178.80118 
L 431.918064 -159.072571 
L 443.995986 -146.095899 
L 456.073908 -137.39105 
L 468.15183 -127.402223 
L 480.229752 -130.640034 
L 492.307675 -129.885013 
L 504.385597 -125.0847 
L 516.463519 -131.614432 
L 528.541441 -133.336342 
L 540.619363 -132.560565 
L 552.697285 -143.755226 
L 564.775207 -151.688739 
L 576.853129 -181.395142 
L 588.931051 -206.172721 
L 588.931051 -368.232029 
L 588.931051 -368.232029 
L 576.853129 -312.685433 
L 564.775207 -250.257317 
L 552.697285 -226.280409 
L 540.619363 -211.153429 
L 528.541441 -227.353348 
L 516.463519 -209.072431 
L 504.385597 -189.194803 
L 492.307675 -213.860469 
L 480.229752 -200.846057 
L 468.15183 -204.748648 
L 456.073908 -214.158275 
L 443.995986 -243.074819 
L 431.918064 -259.587244 
L 419.840142 -262.509832 
L 407.76222 -295.411151 
L 395.684298 -260.249693 
L 383.606376 -231.877613 
L 371.528454 -215.269822 
L 359.450532 -154.886664 
L 347.37261 -146.010925 
L 335.294687 -146.944991 
L 323.216765 -147.07111 
L 311.138843 -149.15631 
L 299.060921 -150.687852 
L 286.982999 -155.813364 
L 274.905077 -160.899581 
L 262.827155 -165.599585 
L 250.749233 -164.896475 
L 238.671311 -169.604357 
L 226.593389 -160.933968 
z
" id="mb8cd3ea20e" style="stroke:#40ffb7;stroke-opacity:0.1;"/>
    </defs>
    <g clip-path="url(#pe0a7a95e36)">
     <use style="fill:#40ffb7;fill-opacity:0.1;stroke:#40ffb7;stroke-opacity:0.1;" x="0" xlink:href="#mb8cd3ea20e" y="535.603954"/>
    </g>
   </g>
   <g id="PolyCollection_4">
    <defs>
     <path d="M 238.671311 -168.256661 
L 238.671311 -95.40124 
L 250.749233 -104.575138 
L 262.827155 -103.238498 
L 274.905077 -105.773169 
L 286.982999 -102.568296 
L 299.060921 -98.995812 
L 311.138843 -94.71523 
L 323.216765 -94.379564 
L 335.294687 -93.246393 
L 347.37261 -94.428278 
L 359.450532 -94.63351 
L 371.528454 -102.56957 
L 383.606376 -110.280649 
L 395.684298 -145.857199 
L 407.76222 -162.079729 
L 419.840142 -181.563238 
L 431.918064 -178.474877 
L 443.995986 -154.14795 
L 456.073908 -139.690501 
L 468.15183 -131.241048 
L 480.229752 -121.684038 
L 492.307675 -125.650213 
L 504.385597 -126.407007 
L 516.463519 -123.044002 
L 528.541441 -130.843579 
L 540.619363 -131.113609 
L 552.697285 -128.646733 
L 564.775207 -139.951204 
L 576.853129 -148.595075 
L 588.931051 -178.837579 
L 588.931051 -365.984394 
L 588.931051 -365.984394 
L 576.853129 -276.196241 
L 564.775207 -250.955472 
L 552.697285 -231.726053 
L 540.619363 -275.212407 
L 528.541441 -261.480365 
L 516.463519 -211.614484 
L 504.385597 -237.604916 
L 492.307675 -222.908041 
L 480.229752 -222.746905 
L 468.15183 -234.632721 
L 456.073908 -269.219533 
L 443.995986 -283.05681 
L 431.918064 -277.135789 
L 419.840142 -321.882422 
L 407.76222 -272.143802 
L 395.684298 -238.441939 
L 383.606376 -229.349284 
L 371.528454 -157.81471 
L 359.450532 -148.807671 
L 347.37261 -149.754162 
L 335.294687 -149.779499 
L 323.216765 -152.345091 
L 311.138843 -154.160596 
L 299.060921 -159.645898 
L 286.982999 -164.915965 
L 274.905077 -170.124407 
L 262.827155 -170.229069 
L 250.749233 -175.315134 
L 238.671311 -168.256661 
z
" id="m93139d9e8f" style="stroke:#b7ff40;stroke-opacity:0.1;"/>
    </defs>
    <g clip-path="url(#pe0a7a95e36)">
     <use style="fill:#b7ff40;fill-opacity:0.1;stroke:#b7ff40;stroke-opacity:0.1;" x="0" xlink:href="#m93139d9e8f" y="535.603954"/>
    </g>
   </g>
   <g id="PolyCollection_5">
    <defs>
     <path d="M 250.749233 -172.227536 
L 250.749233 -91.548542 
L 262.827155 -100.186558 
L 274.905077 -98.767357 
L 286.982999 -101.561342 
L 299.060921 -98.609832 
L 311.138843 -95.256156 
L 323.216765 -91.095126 
L 335.294687 -90.970878 
L 347.37261 -90.180167 
L 359.450532 -91.461992 
L 371.528454 -91.84353 
L 383.606376 -99.621124 
L 395.684298 -105.173318 
L 407.76222 -143.760025 
L 419.840142 -160.603328 
L 431.918064 -156.94995 
L 443.995986 -176.614284 
L 456.073908 -150.773553 
L 468.15183 -133.569267 
L 480.229752 -126.554219 
L 492.307675 -118.743744 
L 504.385597 -122.753506 
L 516.463519 -124.87822 
L 528.541441 -123.709085 
L 540.619363 -132.028851 
L 552.697285 -133.294993 
L 564.775207 -128.454127 
L 576.853129 -138.456564 
L 588.931051 -144.566864 
L 588.931051 -303.760376 
L 588.931051 -303.760376 
L 576.853129 -279.965279 
L 564.775207 -255.370772 
L 552.697285 -274.68601 
L 540.619363 -247.42144 
L 528.541441 -243.981883 
L 516.463519 -270.948009 
L 504.385597 -257.317177 
L 492.307675 -248.763248 
L 480.229752 -242.743182 
L 468.15183 -311.416129 
L 456.073908 -307.045419 
L 443.995986 -274.608799 
L 431.918064 -276.971641 
L 419.840142 -267.774873 
L 407.76222 -240.849923 
L 395.684298 -234.819741 
L 383.606376 -160.863756 
L 371.528454 -151.63693 
L 359.450532 -152.606483 
L 347.37261 -152.981492 
L 335.294687 -155.534428 
L 323.216765 -157.644904 
L 311.138843 -163.625326 
L 299.060921 -169.137595 
L 286.982999 -174.350222 
L 274.905077 -174.555735 
L 262.827155 -179.237093 
L 250.749233 -172.227536 
z
" id="mf4b014a498" style="stroke:#ffb900;stroke-opacity:0.1;"/>
    </defs>
    <g clip-path="url(#pe0a7a95e36)">
     <use style="fill:#ffb900;fill-opacity:0.1;stroke:#ffb900;stroke-opacity:0.1;" x="0" xlink:href="#mf4b014a498" y="535.603954"/>
    </g>
   </g>
   <g id="PolyCollection_6">
    <defs>
     <path d="M 262.827155 -174.836367 
L 262.827155 -88.992448 
L 274.905077 -97.191651 
L 286.982999 -95.834607 
L 299.060921 -98.108484 
L 311.138843 -95.164832 
L 323.216765 -91.899563 
L 335.294687 -87.835196 
L 347.37261 -87.574807 
L 359.450532 -86.938993 
L 371.528454 -88.399174 
L 383.606376 -89.039135 
L 395.684298 -96.867023 
L 407.76222 -101.734035 
L 419.840142 -143.523929 
L 431.918064 -155.940674 
L 443.995986 -150.815694 
L 456.073908 -150.945522 
L 468.15183 -134.998568 
L 480.229752 -120.075277 
L 492.307675 -118.23351 
L 504.385597 -112.350742 
L 516.463519 -117.791663 
L 528.541441 -121.463926 
L 540.619363 -121.428734 
L 552.697285 -128.768859 
L 564.775207 -130.164305 
L 576.853129 -125.489711 
L 588.931051 -132.045228 
L 588.931051 -298.134198 
L 588.931051 -298.134198 
L 576.853129 -278.175404 
L 564.775207 -298.502281 
L 552.697285 -263.88698 
L 540.619363 -259.640998 
L 528.541441 -291.311076 
L 516.463519 -293.334362 
L 504.385597 -274.910287 
L 492.307675 -260.433372 
L 480.229752 -340.756793 
L 468.15183 -323.526403 
L 456.073908 -263.66261 
L 443.995986 -274.273652 
L 431.918064 -270.510237 
L 419.840142 -259.968501 
L 407.76222 -240.689886 
L 395.684298 -163.334553 
L 383.606376 -154.429952 
L 371.528454 -155.715837 
L 359.450532 -156.115336 
L 347.37261 -158.834747 
L 335.294687 -161.038373 
L 323.216765 -166.842322 
L 311.138843 -172.54395 
L 299.060921 -177.911579 
L 286.982999 -177.722898 
L 274.905077 -182.385433 
L 262.827155 -174.836367 
z
" id="mcbd13a232a" style="stroke:#ff3000;stroke-opacity:0.1;"/>
    </defs>
    <g clip-path="url(#pe0a7a95e36)">
     <use style="fill:#ff3000;fill-opacity:0.1;stroke:#ff3000;stroke-opacity:0.1;" x="0" xlink:href="#mcbd13a232a" y="535.603954"/>
    </g>
   </g>
   <g id="PolyCollection_7">
    <defs>
     <path d="M 274.905077 -176.927014 
L 274.905077 -86.417394 
L 286.982999 -94.462336 
L 299.060921 -92.66912 
L 311.138843 -94.957464 
L 323.216765 -92.512114 
L 335.294687 -88.936462 
L 347.37261 -85.080333 
L 359.450532 -84.964168 
L 371.528454 -84.260343 
L 383.606376 -85.691222 
L 395.684298 -86.488172 
L 407.76222 -94.350778 
L 419.840142 -98.807696 
L 431.918064 -142.022077 
L 443.995986 -153.545808 
L 456.073908 -147.387876 
L 468.15183 -145.460921 
L 480.229752 -127.335773 
L 492.307675 -108.906767 
L 504.385597 -110.999072 
L 516.463519 -110.332892 
L 528.541441 -108.705379 
L 540.619363 -110.157419 
L 552.697285 -105.653093 
L 564.775207 -113.555537 
L 576.853129 -116.990011 
L 588.931051 -119.94564 
L 588.931051 -239.413603 
L 588.931051 -239.413603 
L 576.853129 -213.618282 
L 564.775207 -213.634905 
L 552.697285 -150.340858 
L 540.619363 -153.587798 
L 528.541441 -227.469382 
L 516.463519 -155.901867 
L 504.385597 -208.933177 
L 492.307675 -253.533813 
L 480.229752 -267.520976 
L 468.15183 -262.767155 
L 456.073908 -268.086112 
L 443.995986 -269.52532 
L 431.918064 -261.340018 
L 419.840142 -245.584042 
L 407.76222 -166.18097 
L 395.684298 -156.989811 
L 383.606376 -158.610523 
L 371.528454 -159.074443 
L 359.450532 -161.508543 
L 347.37261 -163.725249 
L 335.294687 -169.734671 
L 323.216765 -175.349882 
L 311.138843 -180.673955 
L 299.060921 -180.512985 
L 286.982999 -185.289115 
L 274.905077 -176.927014 
z
" id="mc978d96c53" style="stroke:#800000;stroke-opacity:0.1;"/>
    </defs>
    <g clip-path="url(#pe0a7a95e36)">
     <use style="fill:#800000;fill-opacity:0.1;stroke:#800000;stroke-opacity:0.1;" x="0" xlink:href="#mc978d96c53" y="535.603954"/>
    </g>
   </g>
   <g id="matplotlib.axis_1">
    <g id="xtick_1">
     <g id="line2d_1">
      <defs>
       <path d="M 0 0 
L 0 3.5 
" id="mb6cf904d95" style="stroke:#000000;stroke-width:0.8;"/>
      </defs>
      <g>
       <use style="stroke:#000000;stroke-width:0.8;" x="81.658324" xlink:href="#mb6cf904d95" y="452.678438"/>
      </g>
     </g>
     <g id="text_1">
      <!-- 2020-02 -->
      <defs>
       <path d="M 19.1875 8.296875 
L 53.609375 8.296875 
L 53.609375 0 
L 7.328125 0 
L 7.328125 8.296875 
Q 12.9375 14.109375 22.625 23.890625 
Q 32.328125 33.6875 34.8125 36.53125 
Q 39.546875 41.84375 41.421875 45.53125 
Q 43.3125 49.21875 43.3125 52.78125 
Q 43.3125 58.59375 39.234375 62.25 
Q 35.15625 65.921875 28.609375 65.921875 
Q 23.96875 65.921875 18.8125 64.3125 
Q 13.671875 62.703125 7.8125 59.421875 
L 7.8125 69.390625 
Q 13.765625 71.78125 18.9375 73 
Q 24.125 74.21875 28.421875 74.21875 
Q 39.75 74.21875 46.484375 68.546875 
Q 53.21875 62.890625 53.21875 53.421875 
Q 53.21875 48.921875 51.53125 44.890625 
Q 49.859375 40.875 45.40625 35.40625 
Q 44.1875 33.984375 37.640625 27.21875 
Q 31.109375 20.453125 19.1875 8.296875 
z
" id="DejaVuSans-50"/>
       <path d="M 31.78125 66.40625 
Q 24.171875 66.40625 20.328125 58.90625 
Q 16.5 51.421875 16.5 36.375 
Q 16.5 21.390625 20.328125 13.890625 
Q 24.171875 6.390625 31.78125 6.390625 
Q 39.453125 6.390625 43.28125 13.890625 
Q 47.125 21.390625 47.125 36.375 
Q 47.125 51.421875 43.28125 58.90625 
Q 39.453125 66.40625 31.78125 66.40625 
z
M 31.78125 74.21875 
Q 44.046875 74.21875 50.515625 64.515625 
Q 56.984375 54.828125 56.984375 36.375 
Q 56.984375 17.96875 50.515625 8.265625 
Q 44.046875 -1.421875 31.78125 -1.421875 
Q 19.53125 -1.421875 13.0625 8.265625 
Q 6.59375 17.96875 6.59375 36.375 
Q 6.59375 54.828125 13.0625 64.515625 
Q 19.53125 74.21875 31.78125 74.21875 
z
" id="DejaVuSans-48"/>
       <path d="M 4.890625 31.390625 
L 31.203125 31.390625 
L 31.203125 23.390625 
L 4.890625 23.390625 
z
" id="DejaVuSans-45"/>
      </defs>
      <g transform="translate(64.990657 505.071599)rotate(-45)scale(0.13 -0.13)">
       <use xlink:href="#DejaVuSans-50"/>
       <use x="63.623047" xlink:href="#DejaVuSans-48"/>
       <use x="127.246094" xlink:href="#DejaVuSans-50"/>
       <use x="190.869141" xlink:href="#DejaVuSans-48"/>
       <use x="254.492188" xlink:href="#DejaVuSans-45"/>
       <use x="290.576172" xlink:href="#DejaVuSans-48"/>
       <use x="354.199219" xlink:href="#DejaVuSans-50"/>
      </g>
     </g>
    </g>
    <g id="xtick_2">
     <g id="line2d_2">
      <g>
       <use style="stroke:#000000;stroke-width:0.8;" x="131.69543" xlink:href="#mb6cf904d95" y="452.678438"/>
      </g>
     </g>
     <g id="text_2">
      <!-- 2020-03 -->
      <defs>
       <path d="M 40.578125 39.3125 
Q 47.65625 37.796875 51.625 33 
Q 55.609375 28.21875 55.609375 21.1875 
Q 55.609375 10.40625 48.1875 4.484375 
Q 40.765625 -1.421875 27.09375 -1.421875 
Q 22.515625 -1.421875 17.65625 -0.515625 
Q 12.796875 0.390625 7.625 2.203125 
L 7.625 11.71875 
Q 11.71875 9.328125 16.59375 8.109375 
Q 21.484375 6.890625 26.8125 6.890625 
Q 36.078125 6.890625 40.9375 10.546875 
Q 45.796875 14.203125 45.796875 21.1875 
Q 45.796875 27.640625 41.28125 31.265625 
Q 36.765625 34.90625 28.71875 34.90625 
L 20.21875 34.90625 
L 20.21875 43.015625 
L 29.109375 43.015625 
Q 36.375 43.015625 40.234375 45.921875 
Q 44.09375 48.828125 44.09375 54.296875 
Q 44.09375 59.90625 40.109375 62.90625 
Q 36.140625 65.921875 28.71875 65.921875 
Q 24.65625 65.921875 20.015625 65.03125 
Q 15.375 64.15625 9.8125 62.3125 
L 9.8125 71.09375 
Q 15.4375 72.65625 20.34375 73.4375 
Q 25.25 74.21875 29.59375 74.21875 
Q 40.828125 74.21875 47.359375 69.109375 
Q 53.90625 64.015625 53.90625 55.328125 
Q 53.90625 49.265625 50.4375 45.09375 
Q 46.96875 40.921875 40.578125 39.3125 
z
" id="DejaVuSans-51"/>
      </defs>
      <g transform="translate(115.027763 505.071599)rotate(-45)scale(0.13 -0.13)">
       <use xlink:href="#DejaVuSans-50"/>
       <use x="63.623047" xlink:href="#DejaVuSans-48"/>
       <use x="127.246094" xlink:href="#DejaVuSans-50"/>
       <use x="190.869141" xlink:href="#DejaVuSans-48"/>
       <use x="254.492188" xlink:href="#DejaVuSans-45"/>
       <use x="290.576172" xlink:href="#DejaVuSans-48"/>
       <use x="354.199219" xlink:href="#DejaVuSans-51"/>
      </g>
     </g>
    </g>
    <g id="xtick_3">
     <g id="line2d_3">
      <g>
       <use style="stroke:#000000;stroke-width:0.8;" x="185.18337" xlink:href="#mb6cf904d95" y="452.678438"/>
      </g>
     </g>
     <g id="text_3">
      <!-- 2020-04 -->
      <defs>
       <path d="M 37.796875 64.3125 
L 12.890625 25.390625 
L 37.796875 25.390625 
z
M 35.203125 72.90625 
L 47.609375 72.90625 
L 47.609375 25.390625 
L 58.015625 25.390625 
L 58.015625 17.1875 
L 47.609375 17.1875 
L 47.609375 0 
L 37.796875 0 
L 37.796875 17.1875 
L 4.890625 17.1875 
L 4.890625 26.703125 
z
" id="DejaVuSans-52"/>
      </defs>
      <g transform="translate(168.515703 505.071599)rotate(-45)scale(0.13 -0.13)">
       <use xlink:href="#DejaVuSans-50"/>
       <use x="63.623047" xlink:href="#DejaVuSans-48"/>
       <use x="127.246094" xlink:href="#DejaVuSans-50"/>
       <use x="190.869141" xlink:href="#DejaVuSans-48"/>
       <use x="254.492188" xlink:href="#DejaVuSans-45"/>
       <use x="290.576172" xlink:href="#DejaVuSans-48"/>
       <use x="354.199219" xlink:href="#DejaVuSans-52"/>
      </g>
     </g>
    </g>
    <g id="xtick_4">
     <g id="line2d_4">
      <g>
       <use style="stroke:#000000;stroke-width:0.8;" x="236.945893" xlink:href="#mb6cf904d95" y="452.678438"/>
      </g>
     </g>
     <g id="text_4">
      <!-- 2020-05 -->
      <defs>
       <path d="M 10.796875 72.90625 
L 49.515625 72.90625 
L 49.515625 64.59375 
L 19.828125 64.59375 
L 19.828125 46.734375 
Q 21.96875 47.46875 24.109375 47.828125 
Q 26.265625 48.1875 28.421875 48.1875 
Q 40.625 48.1875 47.75 41.5 
Q 54.890625 34.8125 54.890625 23.390625 
Q 54.890625 11.625 47.5625 5.09375 
Q 40.234375 -1.421875 26.90625 -1.421875 
Q 22.3125 -1.421875 17.546875 -0.640625 
Q 12.796875 0.140625 7.71875 1.703125 
L 7.71875 11.625 
Q 12.109375 9.234375 16.796875 8.0625 
Q 21.484375 6.890625 26.703125 6.890625 
Q 35.15625 6.890625 40.078125 11.328125 
Q 45.015625 15.765625 45.015625 23.390625 
Q 45.015625 31 40.078125 35.4375 
Q 35.15625 39.890625 26.703125 39.890625 
Q 22.75 39.890625 18.8125 39.015625 
Q 14.890625 38.140625 10.796875 36.28125 
z
" id="DejaVuSans-53"/>
      </defs>
      <g transform="translate(220.278227 505.071599)rotate(-45)scale(0.13 -0.13)">
       <use xlink:href="#DejaVuSans-50"/>
       <use x="63.623047" xlink:href="#DejaVuSans-48"/>
       <use x="127.246094" xlink:href="#DejaVuSans-50"/>
       <use x="190.869141" xlink:href="#DejaVuSans-48"/>
       <use x="254.492188" xlink:href="#DejaVuSans-45"/>
       <use x="290.576172" xlink:href="#DejaVuSans-48"/>
       <use x="354.199219" xlink:href="#DejaVuSans-53"/>
      </g>
     </g>
    </g>
    <g id="xtick_5">
     <g id="line2d_5">
      <g>
       <use style="stroke:#000000;stroke-width:0.8;" x="290.433834" xlink:href="#mb6cf904d95" y="452.678438"/>
      </g>
     </g>
     <g id="text_5">
      <!-- 2020-06 -->
      <defs>
       <path d="M 33.015625 40.375 
Q 26.375 40.375 22.484375 35.828125 
Q 18.609375 31.296875 18.609375 23.390625 
Q 18.609375 15.53125 22.484375 10.953125 
Q 26.375 6.390625 33.015625 6.390625 
Q 39.65625 6.390625 43.53125 10.953125 
Q 47.40625 15.53125 47.40625 23.390625 
Q 47.40625 31.296875 43.53125 35.828125 
Q 39.65625 40.375 33.015625 40.375 
z
M 52.59375 71.296875 
L 52.59375 62.3125 
Q 48.875 64.0625 45.09375 64.984375 
Q 41.3125 65.921875 37.59375 65.921875 
Q 27.828125 65.921875 22.671875 59.328125 
Q 17.53125 52.734375 16.796875 39.40625 
Q 19.671875 43.65625 24.015625 45.921875 
Q 28.375 48.1875 33.59375 48.1875 
Q 44.578125 48.1875 50.953125 41.515625 
Q 57.328125 34.859375 57.328125 23.390625 
Q 57.328125 12.15625 50.6875 5.359375 
Q 44.046875 -1.421875 33.015625 -1.421875 
Q 20.359375 -1.421875 13.671875 8.265625 
Q 6.984375 17.96875 6.984375 36.375 
Q 6.984375 53.65625 15.1875 63.9375 
Q 23.390625 74.21875 37.203125 74.21875 
Q 40.921875 74.21875 44.703125 73.484375 
Q 48.484375 72.75 52.59375 71.296875 
z
" id="DejaVuSans-54"/>
      </defs>
      <g transform="translate(273.766167 505.071599)rotate(-45)scale(0.13 -0.13)">
       <use xlink:href="#DejaVuSans-50"/>
       <use x="63.623047" xlink:href="#DejaVuSans-48"/>
       <use x="127.246094" xlink:href="#DejaVuSans-50"/>
       <use x="190.869141" xlink:href="#DejaVuSans-48"/>
       <use x="254.492188" xlink:href="#DejaVuSans-45"/>
       <use x="290.576172" xlink:href="#DejaVuSans-48"/>
       <use x="354.199219" xlink:href="#DejaVuSans-54"/>
      </g>
     </g>
    </g>
    <g id="xtick_6">
     <g id="line2d_6">
      <g>
       <use style="stroke:#000000;stroke-width:0.8;" x="342.196357" xlink:href="#mb6cf904d95" y="452.678438"/>
      </g>
     </g>
     <g id="text_6">
      <!-- 2020-07 -->
      <defs>
       <path d="M 8.203125 72.90625 
L 55.078125 72.90625 
L 55.078125 68.703125 
L 28.609375 0 
L 18.3125 0 
L 43.21875 64.59375 
L 8.203125 64.59375 
z
" id="DejaVuSans-55"/>
      </defs>
      <g transform="translate(325.52869 505.071599)rotate(-45)scale(0.13 -0.13)">
       <use xlink:href="#DejaVuSans-50"/>
       <use x="63.623047" xlink:href="#DejaVuSans-48"/>
       <use x="127.246094" xlink:href="#DejaVuSans-50"/>
       <use x="190.869141" xlink:href="#DejaVuSans-48"/>
       <use x="254.492188" xlink:href="#DejaVuSans-45"/>
       <use x="290.576172" xlink:href="#DejaVuSans-48"/>
       <use x="354.199219" xlink:href="#DejaVuSans-55"/>
      </g>
     </g>
    </g>
    <g id="xtick_7">
     <g id="line2d_7">
      <g>
       <use style="stroke:#000000;stroke-width:0.8;" x="395.684298" xlink:href="#mb6cf904d95" y="452.678438"/>
      </g>
     </g>
     <g id="text_7">
      <!-- 2020-08 -->
      <defs>
       <path d="M 31.78125 34.625 
Q 24.75 34.625 20.71875 30.859375 
Q 16.703125 27.09375 16.703125 20.515625 
Q 16.703125 13.921875 20.71875 10.15625 
Q 24.75 6.390625 31.78125 6.390625 
Q 38.8125 6.390625 42.859375 10.171875 
Q 46.921875 13.96875 46.921875 20.515625 
Q 46.921875 27.09375 42.890625 30.859375 
Q 38.875 34.625 31.78125 34.625 
z
M 21.921875 38.8125 
Q 15.578125 40.375 12.03125 44.71875 
Q 8.5 49.078125 8.5 55.328125 
Q 8.5 64.0625 14.71875 69.140625 
Q 20.953125 74.21875 31.78125 74.21875 
Q 42.671875 74.21875 48.875 69.140625 
Q 55.078125 64.0625 55.078125 55.328125 
Q 55.078125 49.078125 51.53125 44.71875 
Q 48 40.375 41.703125 38.8125 
Q 48.828125 37.15625 52.796875 32.3125 
Q 56.78125 27.484375 56.78125 20.515625 
Q 56.78125 9.90625 50.3125 4.234375 
Q 43.84375 -1.421875 31.78125 -1.421875 
Q 19.734375 -1.421875 13.25 4.234375 
Q 6.78125 9.90625 6.78125 20.515625 
Q 6.78125 27.484375 10.78125 32.3125 
Q 14.796875 37.15625 21.921875 38.8125 
z
M 18.3125 54.390625 
Q 18.3125 48.734375 21.84375 45.5625 
Q 25.390625 42.390625 31.78125 42.390625 
Q 38.140625 42.390625 41.71875 45.5625 
Q 45.3125 48.734375 45.3125 54.390625 
Q 45.3125 60.0625 41.71875 63.234375 
Q 38.140625 66.40625 31.78125 66.40625 
Q 25.390625 66.40625 21.84375 63.234375 
Q 18.3125 60.0625 18.3125 54.390625 
z
" id="DejaVuSans-56"/>
      </defs>
      <g transform="translate(379.016631 505.071599)rotate(-45)scale(0.13 -0.13)">
       <use xlink:href="#DejaVuSans-50"/>
       <use x="63.623047" xlink:href="#DejaVuSans-48"/>
       <use x="127.246094" xlink:href="#DejaVuSans-50"/>
       <use x="190.869141" xlink:href="#DejaVuSans-48"/>
       <use x="254.492188" xlink:href="#DejaVuSans-45"/>
       <use x="290.576172" xlink:href="#DejaVuSans-48"/>
       <use x="354.199219" xlink:href="#DejaVuSans-56"/>
      </g>
     </g>
    </g>
    <g id="xtick_8">
     <g id="line2d_8">
      <g>
       <use style="stroke:#000000;stroke-width:0.8;" x="449.172239" xlink:href="#mb6cf904d95" y="452.678438"/>
      </g>
     </g>
     <g id="text_8">
      <!-- 2020-09 -->
      <defs>
       <path d="M 10.984375 1.515625 
L 10.984375 10.5 
Q 14.703125 8.734375 18.5 7.8125 
Q 22.3125 6.890625 25.984375 6.890625 
Q 35.75 6.890625 40.890625 13.453125 
Q 46.046875 20.015625 46.78125 33.40625 
Q 43.953125 29.203125 39.59375 26.953125 
Q 35.25 24.703125 29.984375 24.703125 
Q 19.046875 24.703125 12.671875 31.3125 
Q 6.296875 37.9375 6.296875 49.421875 
Q 6.296875 60.640625 12.9375 67.421875 
Q 19.578125 74.21875 30.609375 74.21875 
Q 43.265625 74.21875 49.921875 64.515625 
Q 56.59375 54.828125 56.59375 36.375 
Q 56.59375 19.140625 48.40625 8.859375 
Q 40.234375 -1.421875 26.421875 -1.421875 
Q 22.703125 -1.421875 18.890625 -0.6875 
Q 15.09375 0.046875 10.984375 1.515625 
z
M 30.609375 32.421875 
Q 37.25 32.421875 41.125 36.953125 
Q 45.015625 41.5 45.015625 49.421875 
Q 45.015625 57.28125 41.125 61.84375 
Q 37.25 66.40625 30.609375 66.40625 
Q 23.96875 66.40625 20.09375 61.84375 
Q 16.21875 57.28125 16.21875 49.421875 
Q 16.21875 41.5 20.09375 36.953125 
Q 23.96875 32.421875 30.609375 32.421875 
z
" id="DejaVuSans-57"/>
      </defs>
      <g transform="translate(432.504572 505.071599)rotate(-45)scale(0.13 -0.13)">
       <use xlink:href="#DejaVuSans-50"/>
       <use x="63.623047" xlink:href="#DejaVuSans-48"/>
       <use x="127.246094" xlink:href="#DejaVuSans-50"/>
       <use x="190.869141" xlink:href="#DejaVuSans-48"/>
       <use x="254.492188" xlink:href="#DejaVuSans-45"/>
       <use x="290.576172" xlink:href="#DejaVuSans-48"/>
       <use x="354.199219" xlink:href="#DejaVuSans-57"/>
      </g>
     </g>
    </g>
    <g id="xtick_9">
     <g id="line2d_9">
      <g>
       <use style="stroke:#000000;stroke-width:0.8;" x="500.934762" xlink:href="#mb6cf904d95" y="452.678438"/>
      </g>
     </g>
     <g id="text_9">
      <!-- 2020-10 -->
      <defs>
       <path d="M 12.40625 8.296875 
L 28.515625 8.296875 
L 28.515625 63.921875 
L 10.984375 60.40625 
L 10.984375 69.390625 
L 28.421875 72.90625 
L 38.28125 72.90625 
L 38.28125 8.296875 
L 54.390625 8.296875 
L 54.390625 0 
L 12.40625 0 
z
" id="DejaVuSans-49"/>
      </defs>
      <g transform="translate(484.267095 505.071599)rotate(-45)scale(0.13 -0.13)">
       <use xlink:href="#DejaVuSans-50"/>
       <use x="63.623047" xlink:href="#DejaVuSans-48"/>
       <use x="127.246094" xlink:href="#DejaVuSans-50"/>
       <use x="190.869141" xlink:href="#DejaVuSans-48"/>
       <use x="254.492188" xlink:href="#DejaVuSans-45"/>
       <use x="290.576172" xlink:href="#DejaVuSans-49"/>
       <use x="354.199219" xlink:href="#DejaVuSans-48"/>
      </g>
     </g>
    </g>
    <g id="xtick_10">
     <g id="line2d_10">
      <g>
       <use style="stroke:#000000;stroke-width:0.8;" x="554.422702" xlink:href="#mb6cf904d95" y="452.678438"/>
      </g>
     </g>
     <g id="text_10">
      <!-- 2020-11 -->
      <g transform="translate(537.755035 505.071599)rotate(-45)scale(0.13 -0.13)">
       <use xlink:href="#DejaVuSans-50"/>
       <use x="63.623047" xlink:href="#DejaVuSans-48"/>
       <use x="127.246094" xlink:href="#DejaVuSans-50"/>
       <use x="190.869141" xlink:href="#DejaVuSans-48"/>
       <use x="254.492188" xlink:href="#DejaVuSans-45"/>
       <use x="290.576172" xlink:href="#DejaVuSans-49"/>
       <use x="354.199219" xlink:href="#DejaVuSans-49"/>
      </g>
     </g>
    </g>
    <g id="xtick_11">
     <g id="line2d_11">
      <g>
       <use style="stroke:#000000;stroke-width:0.8;" x="606.185226" xlink:href="#mb6cf904d95" y="452.678438"/>
      </g>
     </g>
     <g id="text_11">
      <!-- 2020-12 -->
      <g transform="translate(589.517559 505.071599)rotate(-45)scale(0.13 -0.13)">
       <use xlink:href="#DejaVuSans-50"/>
       <use x="63.623047" xlink:href="#DejaVuSans-48"/>
       <use x="127.246094" xlink:href="#DejaVuSans-50"/>
       <use x="190.869141" xlink:href="#DejaVuSans-48"/>
       <use x="254.492188" xlink:href="#DejaVuSans-45"/>
       <use x="290.576172" xlink:href="#DejaVuSans-49"/>
       <use x="354.199219" xlink:href="#DejaVuSans-50"/>
      </g>
     </g>
    </g>
    <g id="text_12">
     <!-- Target End Date -->
     <defs>
      <path d="M -0.296875 72.90625 
L 61.375 72.90625 
L 61.375 64.59375 
L 35.5 64.59375 
L 35.5 0 
L 25.59375 0 
L 25.59375 64.59375 
L -0.296875 64.59375 
z
" id="DejaVuSans-84"/>
      <path d="M 34.28125 27.484375 
Q 23.390625 27.484375 19.1875 25 
Q 14.984375 22.515625 14.984375 16.5 
Q 14.984375 11.71875 18.140625 8.90625 
Q 21.296875 6.109375 26.703125 6.109375 
Q 34.1875 6.109375 38.703125 11.40625 
Q 43.21875 16.703125 43.21875 25.484375 
L 43.21875 27.484375 
z
M 52.203125 31.203125 
L 52.203125 0 
L 43.21875 0 
L 43.21875 8.296875 
Q 40.140625 3.328125 35.546875 0.953125 
Q 30.953125 -1.421875 24.3125 -1.421875 
Q 15.921875 -1.421875 10.953125 3.296875 
Q 6 8.015625 6 15.921875 
Q 6 25.140625 12.171875 29.828125 
Q 18.359375 34.515625 30.609375 34.515625 
L 43.21875 34.515625 
L 43.21875 35.40625 
Q 43.21875 41.609375 39.140625 45 
Q 35.0625 48.390625 27.6875 48.390625 
Q 23 48.390625 18.546875 47.265625 
Q 14.109375 46.140625 10.015625 43.890625 
L 10.015625 52.203125 
Q 14.9375 54.109375 19.578125 55.046875 
Q 24.21875 56 28.609375 56 
Q 40.484375 56 46.34375 49.84375 
Q 52.203125 43.703125 52.203125 31.203125 
z
" id="DejaVuSans-97"/>
      <path d="M 41.109375 46.296875 
Q 39.59375 47.171875 37.8125 47.578125 
Q 36.03125 48 33.890625 48 
Q 26.265625 48 22.1875 43.046875 
Q 18.109375 38.09375 18.109375 28.8125 
L 18.109375 0 
L 9.078125 0 
L 9.078125 54.6875 
L 18.109375 54.6875 
L 18.109375 46.1875 
Q 20.953125 51.171875 25.484375 53.578125 
Q 30.03125 56 36.53125 56 
Q 37.453125 56 38.578125 55.875 
Q 39.703125 55.765625 41.0625 55.515625 
z
" id="DejaVuSans-114"/>
      <path d="M 45.40625 27.984375 
Q 45.40625 37.75 41.375 43.109375 
Q 37.359375 48.484375 30.078125 48.484375 
Q 22.859375 48.484375 18.828125 43.109375 
Q 14.796875 37.75 14.796875 27.984375 
Q 14.796875 18.265625 18.828125 12.890625 
Q 22.859375 7.515625 30.078125 7.515625 
Q 37.359375 7.515625 41.375 12.890625 
Q 45.40625 18.265625 45.40625 27.984375 
z
M 54.390625 6.78125 
Q 54.390625 -7.171875 48.1875 -13.984375 
Q 42 -20.796875 29.203125 -20.796875 
Q 24.46875 -20.796875 20.265625 -20.09375 
Q 16.0625 -19.390625 12.109375 -17.921875 
L 12.109375 -9.1875 
Q 16.0625 -11.328125 19.921875 -12.34375 
Q 23.78125 -13.375 27.78125 -13.375 
Q 36.625 -13.375 41.015625 -8.765625 
Q 45.40625 -4.15625 45.40625 5.171875 
L 45.40625 9.625 
Q 42.625 4.78125 38.28125 2.390625 
Q 33.9375 0 27.875 0 
Q 17.828125 0 11.671875 7.65625 
Q 5.515625 15.328125 5.515625 27.984375 
Q 5.515625 40.671875 11.671875 48.328125 
Q 17.828125 56 27.875 56 
Q 33.9375 56 38.28125 53.609375 
Q 42.625 51.21875 45.40625 46.390625 
L 45.40625 54.6875 
L 54.390625 54.6875 
z
" id="DejaVuSans-103"/>
      <path d="M 56.203125 29.59375 
L 56.203125 25.203125 
L 14.890625 25.203125 
Q 15.484375 15.921875 20.484375 11.0625 
Q 25.484375 6.203125 34.421875 6.203125 
Q 39.59375 6.203125 44.453125 7.46875 
Q 49.3125 8.734375 54.109375 11.28125 
L 54.109375 2.78125 
Q 49.265625 0.734375 44.1875 -0.34375 
Q 39.109375 -1.421875 33.890625 -1.421875 
Q 20.796875 -1.421875 13.15625 6.1875 
Q 5.515625 13.8125 5.515625 26.8125 
Q 5.515625 40.234375 12.765625 48.109375 
Q 20.015625 56 32.328125 56 
Q 43.359375 56 49.78125 48.890625 
Q 56.203125 41.796875 56.203125 29.59375 
z
M 47.21875 32.234375 
Q 47.125 39.59375 43.09375 43.984375 
Q 39.0625 48.390625 32.421875 48.390625 
Q 24.90625 48.390625 20.390625 44.140625 
Q 15.875 39.890625 15.1875 32.171875 
z
" id="DejaVuSans-101"/>
      <path d="M 18.3125 70.21875 
L 18.3125 54.6875 
L 36.8125 54.6875 
L 36.8125 47.703125 
L 18.3125 47.703125 
L 18.3125 18.015625 
Q 18.3125 11.328125 20.140625 9.421875 
Q 21.96875 7.515625 27.59375 7.515625 
L 36.8125 7.515625 
L 36.8125 0 
L 27.59375 0 
Q 17.1875 0 13.234375 3.875 
Q 9.28125 7.765625 9.28125 18.015625 
L 9.28125 47.703125 
L 2.6875 47.703125 
L 2.6875 54.6875 
L 9.28125 54.6875 
L 9.28125 70.21875 
z
" id="DejaVuSans-116"/>
      <path id="DejaVuSans-32"/>
      <path d="M 9.8125 72.90625 
L 55.90625 72.90625 
L 55.90625 64.59375 
L 19.671875 64.59375 
L 19.671875 43.015625 
L 54.390625 43.015625 
L 54.390625 34.71875 
L 19.671875 34.71875 
L 19.671875 8.296875 
L 56.78125 8.296875 
L 56.78125 0 
L 9.8125 0 
z
" id="DejaVuSans-69"/>
      <path d="M 54.890625 33.015625 
L 54.890625 0 
L 45.90625 0 
L 45.90625 32.71875 
Q 45.90625 40.484375 42.875 44.328125 
Q 39.84375 48.1875 33.796875 48.1875 
Q 26.515625 48.1875 22.3125 43.546875 
Q 18.109375 38.921875 18.109375 30.90625 
L 18.109375 0 
L 9.078125 0 
L 9.078125 54.6875 
L 18.109375 54.6875 
L 18.109375 46.1875 
Q 21.34375 51.125 25.703125 53.5625 
Q 30.078125 56 35.796875 56 
Q 45.21875 56 50.046875 50.171875 
Q 54.890625 44.34375 54.890625 33.015625 
z
" id="DejaVuSans-110"/>
      <path d="M 45.40625 46.390625 
L 45.40625 75.984375 
L 54.390625 75.984375 
L 54.390625 0 
L 45.40625 0 
L 45.40625 8.203125 
Q 42.578125 3.328125 38.25 0.953125 
Q 33.9375 -1.421875 27.875 -1.421875 
Q 17.96875 -1.421875 11.734375 6.484375 
Q 5.515625 14.40625 5.515625 27.296875 
Q 5.515625 40.1875 11.734375 48.09375 
Q 17.96875 56 27.875 56 
Q 33.9375 56 38.25 53.625 
Q 42.578125 51.265625 45.40625 46.390625 
z
M 14.796875 27.296875 
Q 14.796875 17.390625 18.875 11.75 
Q 22.953125 6.109375 30.078125 6.109375 
Q 37.203125 6.109375 41.296875 11.75 
Q 45.40625 17.390625 45.40625 27.296875 
Q 45.40625 37.203125 41.296875 42.84375 
Q 37.203125 48.484375 30.078125 48.484375 
Q 22.953125 48.484375 18.875 42.84375 
Q 14.796875 37.203125 14.796875 27.296875 
z
" id="DejaVuSans-100"/>
      <path d="M 19.671875 64.796875 
L 19.671875 8.109375 
L 31.59375 8.109375 
Q 46.6875 8.109375 53.6875 14.9375 
Q 60.6875 21.78125 60.6875 36.53125 
Q 60.6875 51.171875 53.6875 57.984375 
Q 46.6875 64.796875 31.59375 64.796875 
z
M 9.8125 72.90625 
L 30.078125 72.90625 
Q 51.265625 72.90625 61.171875 64.09375 
Q 71.09375 55.28125 71.09375 36.53125 
Q 71.09375 17.671875 61.125 8.828125 
Q 51.171875 0 30.078125 0 
L 9.8125 0 
z
" id="DejaVuSans-68"/>
     </defs>
     <g transform="translate(263.109062 524.660516)scale(0.18 -0.18)">
      <use xlink:href="#DejaVuSans-84"/>
      <use x="44.583984" xlink:href="#DejaVuSans-97"/>
      <use x="105.863281" xlink:href="#DejaVuSans-114"/>
      <use x="145.226562" xlink:href="#DejaVuSans-103"/>
      <use x="208.703125" xlink:href="#DejaVuSans-101"/>
      <use x="270.226562" xlink:href="#DejaVuSans-116"/>
      <use x="309.435547" xlink:href="#DejaVuSans-32"/>
      <use x="341.222656" xlink:href="#DejaVuSans-69"/>
      <use x="404.40625" xlink:href="#DejaVuSans-110"/>
      <use x="467.785156" xlink:href="#DejaVuSans-100"/>
      <use x="531.261719" xlink:href="#DejaVuSans-32"/>
      <use x="563.048828" xlink:href="#DejaVuSans-68"/>
      <use x="640.050781" xlink:href="#DejaVuSans-97"/>
      <use x="701.330078" xlink:href="#DejaVuSans-116"/>
      <use x="740.539062" xlink:href="#DejaVuSans-101"/>
     </g>
    </g>
   </g>
   <g id="matplotlib.axis_2">
    <g id="ytick_1">
     <g id="line2d_12">
      <defs>
       <path d="M 0 0 
L -3.5 0 
" id="m4da0c133fc" style="stroke:#000000;stroke-width:0.8;"/>
      </defs>
      <g>
       <use style="stroke:#000000;stroke-width:0.8;" x="56.294688" xlink:href="#m4da0c133fc" y="400.318274"/>
      </g>
     </g>
     <g id="text_13">
      <!-- 0.2 -->
      <defs>
       <path d="M 10.6875 12.40625 
L 21 12.40625 
L 21 0 
L 10.6875 0 
z
" id="DejaVuSans-46"/>
      </defs>
      <g transform="translate(28.620625 405.257258)scale(0.13 -0.13)">
       <use xlink:href="#DejaVuSans-48"/>
       <use x="63.623047" xlink:href="#DejaVuSans-46"/>
       <use x="95.410156" xlink:href="#DejaVuSans-50"/>
      </g>
     </g>
    </g>
    <g id="ytick_2">
     <g id="line2d_13">
      <g>
       <use style="stroke:#000000;stroke-width:0.8;" x="56.294688" xlink:href="#m4da0c133fc" y="347.957796"/>
      </g>
     </g>
     <g id="text_14">
      <!-- 0.4 -->
      <g transform="translate(28.620625 352.896781)scale(0.13 -0.13)">
       <use xlink:href="#DejaVuSans-48"/>
       <use x="63.623047" xlink:href="#DejaVuSans-46"/>
       <use x="95.410156" xlink:href="#DejaVuSans-52"/>
      </g>
     </g>
    </g>
    <g id="ytick_3">
     <g id="line2d_14">
      <g>
       <use style="stroke:#000000;stroke-width:0.8;" x="56.294688" xlink:href="#m4da0c133fc" y="295.597319"/>
      </g>
     </g>
     <g id="text_15">
      <!-- 0.6 -->
      <g transform="translate(28.620625 300.536303)scale(0.13 -0.13)">
       <use xlink:href="#DejaVuSans-48"/>
       <use x="63.623047" xlink:href="#DejaVuSans-46"/>
       <use x="95.410156" xlink:href="#DejaVuSans-54"/>
      </g>
     </g>
    </g>
    <g id="ytick_4">
     <g id="line2d_15">
      <g>
       <use style="stroke:#000000;stroke-width:0.8;" x="56.294688" xlink:href="#m4da0c133fc" y="243.236841"/>
      </g>
     </g>
     <g id="text_16">
      <!-- 0.8 -->
      <g transform="translate(28.620625 248.175825)scale(0.13 -0.13)">
       <use xlink:href="#DejaVuSans-48"/>
       <use x="63.623047" xlink:href="#DejaVuSans-46"/>
       <use x="95.410156" xlink:href="#DejaVuSans-56"/>
      </g>
     </g>
    </g>
    <g id="ytick_5">
     <g id="line2d_16">
      <g>
       <use style="stroke:#000000;stroke-width:0.8;" x="56.294688" xlink:href="#m4da0c133fc" y="190.876363"/>
      </g>
     </g>
     <g id="text_17">
      <!-- 1.0 -->
      <g transform="translate(28.620625 195.815347)scale(0.13 -0.13)">
       <use xlink:href="#DejaVuSans-49"/>
       <use x="63.623047" xlink:href="#DejaVuSans-46"/>
       <use x="95.410156" xlink:href="#DejaVuSans-48"/>
      </g>
     </g>
    </g>
    <g id="ytick_6">
     <g id="line2d_17">
      <g>
       <use style="stroke:#000000;stroke-width:0.8;" x="56.294688" xlink:href="#m4da0c133fc" y="138.515885"/>
      </g>
     </g>
     <g id="text_18">
      <!-- 1.2 -->
      <g transform="translate(28.620625 143.45487)scale(0.13 -0.13)">
       <use xlink:href="#DejaVuSans-49"/>
       <use x="63.623047" xlink:href="#DejaVuSans-46"/>
       <use x="95.410156" xlink:href="#DejaVuSans-50"/>
      </g>
     </g>
    </g>
    <g id="ytick_7">
     <g id="line2d_18">
      <g>
       <use style="stroke:#000000;stroke-width:0.8;" x="56.294688" xlink:href="#m4da0c133fc" y="86.155408"/>
      </g>
     </g>
     <g id="text_19">
      <!-- 1.4 -->
      <g transform="translate(28.620625 91.094392)scale(0.13 -0.13)">
       <use xlink:href="#DejaVuSans-49"/>
       <use x="63.623047" xlink:href="#DejaVuSans-46"/>
       <use x="95.410156" xlink:href="#DejaVuSans-52"/>
      </g>
     </g>
    </g>
    <g id="ytick_8">
     <g id="line2d_19">
      <g>
       <use style="stroke:#000000;stroke-width:0.8;" x="56.294688" xlink:href="#m4da0c133fc" y="33.79493"/>
      </g>
     </g>
     <g id="text_20">
      <!-- 1.6 -->
      <g transform="translate(28.620625 38.733914)scale(0.13 -0.13)">
       <use xlink:href="#DejaVuSans-49"/>
       <use x="63.623047" xlink:href="#DejaVuSans-46"/>
       <use x="95.410156" xlink:href="#DejaVuSans-54"/>
      </g>
     </g>
    </g>
    <g id="text_21">
     <!-- US weekly incidental cases -->
     <defs>
      <path d="M 8.6875 72.90625 
L 18.609375 72.90625 
L 18.609375 28.609375 
Q 18.609375 16.890625 22.84375 11.734375 
Q 27.09375 6.59375 36.625 6.59375 
Q 46.09375 6.59375 50.34375 11.734375 
Q 54.59375 16.890625 54.59375 28.609375 
L 54.59375 72.90625 
L 64.5 72.90625 
L 64.5 27.390625 
Q 64.5 13.140625 57.4375 5.859375 
Q 50.390625 -1.421875 36.625 -1.421875 
Q 22.796875 -1.421875 15.734375 5.859375 
Q 8.6875 13.140625 8.6875 27.390625 
z
" id="DejaVuSans-85"/>
      <path d="M 53.515625 70.515625 
L 53.515625 60.890625 
Q 47.90625 63.578125 42.921875 64.890625 
Q 37.9375 66.21875 33.296875 66.21875 
Q 25.25 66.21875 20.875 63.09375 
Q 16.5 59.96875 16.5 54.203125 
Q 16.5 49.359375 19.40625 46.890625 
Q 22.3125 44.4375 30.421875 42.921875 
L 36.375 41.703125 
Q 47.40625 39.59375 52.65625 34.296875 
Q 57.90625 29 57.90625 20.125 
Q 57.90625 9.515625 50.796875 4.046875 
Q 43.703125 -1.421875 29.984375 -1.421875 
Q 24.8125 -1.421875 18.96875 -0.25 
Q 13.140625 0.921875 6.890625 3.21875 
L 6.890625 13.375 
Q 12.890625 10.015625 18.65625 8.296875 
Q 24.421875 6.59375 29.984375 6.59375 
Q 38.421875 6.59375 43.015625 9.90625 
Q 47.609375 13.234375 47.609375 19.390625 
Q 47.609375 24.75 44.3125 27.78125 
Q 41.015625 30.8125 33.5 32.328125 
L 27.484375 33.5 
Q 16.453125 35.6875 11.515625 40.375 
Q 6.59375 45.0625 6.59375 53.421875 
Q 6.59375 63.09375 13.40625 68.65625 
Q 20.21875 74.21875 32.171875 74.21875 
Q 37.3125 74.21875 42.625 73.28125 
Q 47.953125 72.359375 53.515625 70.515625 
z
" id="DejaVuSans-83"/>
      <path d="M 4.203125 54.6875 
L 13.1875 54.6875 
L 24.421875 12.015625 
L 35.59375 54.6875 
L 46.1875 54.6875 
L 57.421875 12.015625 
L 68.609375 54.6875 
L 77.59375 54.6875 
L 63.28125 0 
L 52.6875 0 
L 40.921875 44.828125 
L 29.109375 0 
L 18.5 0 
z
" id="DejaVuSans-119"/>
      <path d="M 9.078125 75.984375 
L 18.109375 75.984375 
L 18.109375 31.109375 
L 44.921875 54.6875 
L 56.390625 54.6875 
L 27.390625 29.109375 
L 57.625 0 
L 45.90625 0 
L 18.109375 26.703125 
L 18.109375 0 
L 9.078125 0 
z
" id="DejaVuSans-107"/>
      <path d="M 9.421875 75.984375 
L 18.40625 75.984375 
L 18.40625 0 
L 9.421875 0 
z
" id="DejaVuSans-108"/>
      <path d="M 32.171875 -5.078125 
Q 28.375 -14.84375 24.75 -17.8125 
Q 21.140625 -20.796875 15.09375 -20.796875 
L 7.90625 -20.796875 
L 7.90625 -13.28125 
L 13.1875 -13.28125 
Q 16.890625 -13.28125 18.9375 -11.515625 
Q 21 -9.765625 23.484375 -3.21875 
L 25.09375 0.875 
L 2.984375 54.6875 
L 12.5 54.6875 
L 29.59375 11.921875 
L 46.6875 54.6875 
L 56.203125 54.6875 
z
" id="DejaVuSans-121"/>
      <path d="M 9.421875 54.6875 
L 18.40625 54.6875 
L 18.40625 0 
L 9.421875 0 
z
M 9.421875 75.984375 
L 18.40625 75.984375 
L 18.40625 64.59375 
L 9.421875 64.59375 
z
" id="DejaVuSans-105"/>
      <path d="M 48.78125 52.59375 
L 48.78125 44.1875 
Q 44.96875 46.296875 41.140625 47.34375 
Q 37.3125 48.390625 33.40625 48.390625 
Q 24.65625 48.390625 19.8125 42.84375 
Q 14.984375 37.3125 14.984375 27.296875 
Q 14.984375 17.28125 19.8125 11.734375 
Q 24.65625 6.203125 33.40625 6.203125 
Q 37.3125 6.203125 41.140625 7.25 
Q 44.96875 8.296875 48.78125 10.40625 
L 48.78125 2.09375 
Q 45.015625 0.34375 40.984375 -0.53125 
Q 36.96875 -1.421875 32.421875 -1.421875 
Q 20.0625 -1.421875 12.78125 6.34375 
Q 5.515625 14.109375 5.515625 27.296875 
Q 5.515625 40.671875 12.859375 48.328125 
Q 20.21875 56 33.015625 56 
Q 37.15625 56 41.109375 55.140625 
Q 45.0625 54.296875 48.78125 52.59375 
z
" id="DejaVuSans-99"/>
      <path d="M 44.28125 53.078125 
L 44.28125 44.578125 
Q 40.484375 46.53125 36.375 47.5 
Q 32.28125 48.484375 27.875 48.484375 
Q 21.1875 48.484375 17.84375 46.4375 
Q 14.5 44.390625 14.5 40.28125 
Q 14.5 37.15625 16.890625 35.375 
Q 19.28125 33.59375 26.515625 31.984375 
L 29.59375 31.296875 
Q 39.15625 29.25 43.1875 25.515625 
Q 47.21875 21.78125 47.21875 15.09375 
Q 47.21875 7.46875 41.1875 3.015625 
Q 35.15625 -1.421875 24.609375 -1.421875 
Q 20.21875 -1.421875 15.453125 -0.5625 
Q 10.6875 0.296875 5.421875 2 
L 5.421875 11.28125 
Q 10.40625 8.6875 15.234375 7.390625 
Q 20.0625 6.109375 24.8125 6.109375 
Q 31.15625 6.109375 34.5625 8.28125 
Q 37.984375 10.453125 37.984375 14.40625 
Q 37.984375 18.0625 35.515625 20.015625 
Q 33.0625 21.96875 24.703125 23.78125 
L 21.578125 24.515625 
Q 13.234375 26.265625 9.515625 29.90625 
Q 5.8125 33.546875 5.8125 39.890625 
Q 5.8125 47.609375 11.28125 51.796875 
Q 16.75 56 26.8125 56 
Q 31.78125 56 36.171875 55.265625 
Q 40.578125 54.546875 44.28125 53.078125 
z
" id="DejaVuSans-115"/>
     </defs>
     <g transform="translate(20.877188 357.125156)rotate(-90)scale(0.18 -0.18)">
      <use xlink:href="#DejaVuSans-85"/>
      <use x="73.193359" xlink:href="#DejaVuSans-83"/>
      <use x="136.669922" xlink:href="#DejaVuSans-32"/>
      <use x="168.457031" xlink:href="#DejaVuSans-119"/>
      <use x="250.244141" xlink:href="#DejaVuSans-101"/>
      <use x="311.767578" xlink:href="#DejaVuSans-101"/>
      <use x="373.291016" xlink:href="#DejaVuSans-107"/>
      <use x="431.201172" xlink:href="#DejaVuSans-108"/>
      <use x="458.984375" xlink:href="#DejaVuSans-121"/>
      <use x="518.164062" xlink:href="#DejaVuSans-32"/>
      <use x="549.951172" xlink:href="#DejaVuSans-105"/>
      <use x="577.734375" xlink:href="#DejaVuSans-110"/>
      <use x="641.113281" xlink:href="#DejaVuSans-99"/>
      <use x="696.09375" xlink:href="#DejaVuSans-105"/>
      <use x="723.876953" xlink:href="#DejaVuSans-100"/>
      <use x="787.353516" xlink:href="#DejaVuSans-101"/>
      <use x="848.876953" xlink:href="#DejaVuSans-110"/>
      <use x="912.255859" xlink:href="#DejaVuSans-116"/>
      <use x="951.464844" xlink:href="#DejaVuSans-97"/>
      <use x="1012.744141" xlink:href="#DejaVuSans-108"/>
      <use x="1040.527344" xlink:href="#DejaVuSans-32"/>
      <use x="1072.314453" xlink:href="#DejaVuSans-99"/>
      <use x="1127.294922" xlink:href="#DejaVuSans-97"/>
      <use x="1188.574219" xlink:href="#DejaVuSans-115"/>
      <use x="1240.673828" xlink:href="#DejaVuSans-101"/>
      <use x="1302.197266" xlink:href="#DejaVuSans-115"/>
     </g>
    </g>
    <g id="text_22">
     <!-- 1e6 -->
     <g transform="translate(56.294688 14.798438)scale(0.1 -0.1)">
      <use xlink:href="#DejaVuSans-49"/>
      <use x="63.623047" xlink:href="#DejaVuSans-101"/>
      <use x="125.146484" xlink:href="#DejaVuSans-54"/>
     </g>
    </g>
   </g>
   <g id="line2d_20">
    <path clip-path="url(#pe0a7a95e36)" d="M 202.437545 403.625624 
L 214.515467 395.725475 
L 226.593389 398.799558 
L 238.671311 397.649199 
L 250.749233 401.788294 
L 262.827155 406.336849 
L 274.905077 411.243288 
L 286.982999 412.153836 
L 299.060921 414.049024 
L 311.138843 413.435621 
L 323.216765 413.93514 
L 335.294687 405.399073 
L 347.37261 385.957366 
L 359.450532 370.696012 
L 371.528454 348.050402 
L 383.606376 323.312132 
L 395.684298 328.982687 
L 407.76222 339.562 
L 419.840142 356.815527 
L 431.918064 364.661435 
L 443.995986 379.491517 
L 456.073908 380.999957 
L 468.15183 381.044538 
L 480.229752 390.381869 
L 492.307675 385.242928 
L 504.385597 378.576032 
L 516.463519 377.176794 
L 528.541441 368.56291 
L 540.619363 354.819926 
L 552.697285 330.849005 
L 564.775207 302.737509 
L 576.853129 246.583828 
L 588.931051 157.491206 
" style="fill:none;stroke:#0010ff;stroke-linecap:square;stroke-width:1.5;"/>
   </g>
   <g id="line2d_21">
    <path clip-path="url(#pe0a7a95e36)" d="M 214.515467 403.625624 
L 226.593389 395.725475 
L 238.671311 398.799558 
L 250.749233 397.649199 
L 262.827155 401.788294 
L 274.905077 406.336849 
L 286.982999 411.243288 
L 299.060921 412.153836 
L 311.138843 414.049024 
L 323.216765 413.435621 
L 335.294687 413.93514 
L 347.37261 405.399073 
L 359.450532 372.961739 
L 371.528454 357.240594 
L 383.606376 333.102103 
L 395.684298 310.229993 
L 407.76222 321.462765 
L 419.840142 341.758303 
L 431.918064 357.788076 
L 443.995986 370.34257 
L 456.073908 382.81745 
L 468.15183 381.343128 
L 480.229752 379.009649 
L 492.307675 390.34185 
L 504.385597 381.754251 
L 516.463519 375.240047 
L 528.541441 375.499862 
L 540.619363 363.733439 
L 552.697285 349.828299 
L 564.775207 316.104836 
L 576.853129 282.978691 
L 588.931051 203.568905 
" style="fill:none;stroke:#00a4ff;stroke-linecap:square;stroke-width:1.5;"/>
   </g>
   <g id="line2d_22">
    <path clip-path="url(#pe0a7a95e36)" d="M 226.593389 403.625624 
L 238.671311 395.725475 
L 250.749233 398.799558 
L 262.827155 397.649199 
L 274.905077 401.788294 
L 286.982999 406.336849 
L 299.060921 411.243288 
L 311.138843 412.153836 
L 323.216765 414.049024 
L 335.294687 413.435621 
L 347.37261 413.93514 
L 359.450532 405.399073 
L 371.528454 378.604928 
L 383.606376 357.648254 
L 395.684298 332.839139 
L 407.76222 309.388589 
L 419.840142 320.83213 
L 431.918064 344.175901 
L 443.995986 356.734161 
L 456.073908 373.657687 
L 468.15183 385.637346 
L 480.229752 380.457914 
L 492.307675 376.827826 
L 504.385597 387.36726 
L 516.463519 374.650311 
L 528.541441 369.261641 
L 540.619363 374.370739 
L 552.697285 361.212145 
L 564.775207 346.278049 
L 576.853129 305.170609 
L 588.931051 265.767427 
" style="fill:none;stroke:#40ffb7;stroke-linecap:square;stroke-width:1.5;"/>
   </g>
   <g id="line2d_23">
    <path clip-path="url(#pe0a7a95e36)" d="M 238.671311 403.625624 
L 250.749233 395.725475 
L 262.827155 398.799558 
L 274.905077 397.649199 
L 286.982999 401.788294 
L 299.060921 406.336849 
L 311.138843 411.243288 
L 323.216765 412.153836 
L 335.294687 414.049024 
L 347.37261 413.435621 
L 359.450532 413.93514 
L 371.528454 405.399073 
L 383.606376 383.917841 
L 395.684298 358.438411 
L 407.76222 333.522316 
L 419.840142 297.69912 
L 431.918064 318.175679 
L 443.995986 345.421151 
L 456.073908 356.868537 
L 468.15183 376.291872 
L 480.229752 387.890221 
L 492.307675 379.950058 
L 504.385597 374.973576 
L 516.463519 383.055472 
L 528.541441 366.243948 
L 540.619363 363.295025 
L 552.697285 373.304376 
L 564.775207 359.193534 
L 576.853129 343.042649 
L 588.931051 296.77447 
" style="fill:none;stroke:#b7ff40;stroke-linecap:square;stroke-width:1.5;"/>
   </g>
   <g id="line2d_24">
    <path clip-path="url(#pe0a7a95e36)" d="M 250.749233 403.625624 
L 262.827155 395.725475 
L 274.905077 398.799558 
L 286.982999 397.649199 
L 299.060921 401.788294 
L 311.138843 406.336849 
L 323.216765 411.243288 
L 335.294687 412.153836 
L 347.37261 414.049024 
L 359.450532 413.435621 
L 371.528454 413.93514 
L 383.606376 405.399073 
L 395.684298 389.692668 
L 407.76222 359.467608 
L 419.840142 335.055822 
L 431.918064 331.52474 
L 443.995986 321.827457 
L 456.073908 345.250686 
L 468.15183 356.333697 
L 480.229752 379.240886 
L 492.307675 387.725464 
L 504.385597 377.471123 
L 516.463519 370.075057 
L 528.541441 374.926918 
L 540.619363 366.123406 
L 552.697285 359.658314 
L 564.775207 371.954437 
L 576.853129 357.056928 
L 588.931051 340.928345 
" style="fill:none;stroke:#ffb900;stroke-linecap:square;stroke-width:1.5;"/>
   </g>
   <g id="line2d_25">
    <path clip-path="url(#pe0a7a95e36)" d="M 262.827155 403.625624 
L 274.905077 395.725475 
L 286.982999 398.799558 
L 299.060921 397.649199 
L 311.138843 401.788294 
L 323.216765 406.336849 
L 335.294687 411.243288 
L 347.37261 412.153836 
L 359.450532 414.049024 
L 371.528454 413.435621 
L 383.606376 413.93514 
L 395.684298 405.399073 
L 407.76222 394.738901 
L 419.840142 353.888693 
L 431.918064 338.452797 
L 443.995986 338.413659 
L 456.073908 344.425135 
L 468.15183 358.259667 
L 480.229752 363.776543 
L 492.307675 384.573073 
L 504.385597 389.702983 
L 516.463519 374.604797 
L 528.541441 368.680825 
L 540.619363 372.226432 
L 552.697285 366.36553 
L 564.775207 358.052599 
L 576.853129 371.59413 
L 588.931051 360.403062 
" style="fill:none;stroke:#ff3000;stroke-linecap:square;stroke-width:1.5;"/>
   </g>
   <g id="line2d_26">
    <path clip-path="url(#pe0a7a95e36)" d="M 274.905077 403.625624 
L 286.982999 395.725475 
L 299.060921 398.799558 
L 311.138843 397.649199 
L 323.216765 401.788294 
L 335.294687 406.336849 
L 347.37261 411.243288 
L 359.450532 412.153836 
L 371.528454 414.049024 
L 383.606376 413.435621 
L 395.684298 413.93514 
L 407.76222 405.399073 
L 419.840142 399.027439 
L 431.918064 355.173666 
L 443.995986 341.229026 
L 456.073908 344.55908 
L 468.15183 349.622195 
L 480.229752 375.504621 
L 492.307675 391.599446 
L 504.385597 400.804539 
L 516.463519 408.236958 
L 528.541441 396.52624 
L 540.619363 407.401016 
L 552.697285 412.901207 
L 564.775207 392.709626 
L 576.853129 392.739986 
L 588.931051 385.957032 
" style="fill:none;stroke:#800000;stroke-linecap:square;stroke-width:1.5;"/>
   </g>
   <g id="line2d_27">
    <path clip-path="url(#pe0a7a95e36)" d="M 81.658324 452.677181 
L 93.736246 452.677704 
L 105.814168 452.678228 
L 117.89209 452.678228 
L 129.970012 452.676395 
L 142.047934 452.57979 
L 154.125856 452.002516 
L 166.203778 446.642374 
L 178.2817 426.797753 
L 190.359623 403.320624 
L 202.437545 395.252398 
L 214.515467 399.411914 
L 226.593389 398.226473 
L 238.671311 401.890659 
L 250.749233 406.373501 
L 262.827155 411.205326 
L 274.905077 412.17766 
L 286.982999 414.133324 
L 299.060921 414.584933 
L 311.138843 414.01656 
L 323.216765 405.690459 
L 335.294687 386.088791 
L 347.37261 366.038655 
L 359.450532 346.727063 
L 371.528454 331.156628 
L 383.606376 330.846392 
L 395.684298 336.994036 
L 407.76222 354.564641 
L 419.840142 357.862828 
L 431.918064 372.540779 
L 443.995986 375.750476 
L 456.073908 376.844025 
L 468.15183 389.762402 
L 480.229752 378.812517 
L 492.307675 372.536328 
L 504.385597 373.637207 
L 516.463519 364.202111 
L 528.541441 350.955172 
L 540.619363 327.140841 
L 552.697285 305.90762 
L 564.775207 252.024238 
L 576.853129 186.163397 
L 588.931051 142.049956 
" style="fill:none;stroke:#000000;stroke-linecap:square;stroke-width:3;"/>
   </g>
   <g id="patch_3">
    <path d="M 56.294688 452.678438 
L 56.294688 17.798438 
" style="fill:none;stroke:#000000;stroke-linecap:square;stroke-linejoin:miter;stroke-width:0.8;"/>
   </g>
   <g id="patch_4">
    <path d="M 614.294688 452.678438 
L 614.294688 17.798438 
" style="fill:none;stroke:#000000;stroke-linecap:square;stroke-linejoin:miter;stroke-width:0.8;"/>
   </g>
   <g id="patch_5">
    <path d="M 56.294687 452.678438 
L 614.294687 452.678438 
" style="fill:none;stroke:#000000;stroke-linecap:square;stroke-linejoin:miter;stroke-width:0.8;"/>
   </g>
   <g id="patch_6">
    <path d="M 56.294687 17.798438 
L 614.294687 17.798438 
" style="fill:none;stroke:#000000;stroke-linecap:square;stroke-linejoin:miter;stroke-width:0.8;"/>
   </g>
   <g id="legend_1">
    <g id="patch_7">
     <path d="M 63.294688 152.545313 
L 171.022813 152.545313 
Q 173.022813 152.545313 173.022813 150.545313 
L 173.022813 24.798438 
Q 173.022813 22.798438 171.022813 22.798438 
L 63.294688 22.798438 
Q 61.294688 22.798438 61.294688 24.798438 
L 61.294688 150.545313 
Q 61.294688 152.545313 63.294688 152.545313 
z
" style="fill:#ffffff;opacity:0.8;stroke:#cccccc;stroke-linejoin:miter;"/>
    </g>
    <g id="line2d_28">
     <path d="M 65.294688 30.896875 
L 85.294688 30.896875 
" style="fill:none;stroke:#0010ff;stroke-linecap:square;stroke-width:1.5;"/>
    </g>
    <g id="line2d_29"/>
    <g id="text_23">
     <!-- 1 weeks-ahead -->
     <defs>
      <path d="M 54.890625 33.015625 
L 54.890625 0 
L 45.90625 0 
L 45.90625 32.71875 
Q 45.90625 40.484375 42.875 44.328125 
Q 39.84375 48.1875 33.796875 48.1875 
Q 26.515625 48.1875 22.3125 43.546875 
Q 18.109375 38.921875 18.109375 30.90625 
L 18.109375 0 
L 9.078125 0 
L 9.078125 75.984375 
L 18.109375 75.984375 
L 18.109375 46.1875 
Q 21.34375 51.125 25.703125 53.5625 
Q 30.078125 56 35.796875 56 
Q 45.21875 56 50.046875 50.171875 
Q 54.890625 44.34375 54.890625 33.015625 
z
" id="DejaVuSans-104"/>
     </defs>
     <g transform="translate(93.294688 34.396875)scale(0.1 -0.1)">
      <use xlink:href="#DejaVuSans-49"/>
      <use x="63.623047" xlink:href="#DejaVuSans-32"/>
      <use x="95.410156" xlink:href="#DejaVuSans-119"/>
      <use x="177.197266" xlink:href="#DejaVuSans-101"/>
      <use x="238.720703" xlink:href="#DejaVuSans-101"/>
      <use x="300.244141" xlink:href="#DejaVuSans-107"/>
      <use x="358.154297" xlink:href="#DejaVuSans-115"/>
      <use x="410.253906" xlink:href="#DejaVuSans-45"/>
      <use x="446.337891" xlink:href="#DejaVuSans-97"/>
      <use x="507.617188" xlink:href="#DejaVuSans-104"/>
      <use x="570.996094" xlink:href="#DejaVuSans-101"/>
      <use x="632.519531" xlink:href="#DejaVuSans-97"/>
      <use x="693.798828" xlink:href="#DejaVuSans-100"/>
     </g>
    </g>
    <g id="line2d_30">
     <path d="M 65.294688 49.575 
L 85.294688 49.575 
" style="fill:none;stroke:#00a4ff;stroke-linecap:square;stroke-width:1.5;"/>
    </g>
    <g id="line2d_31"/>
    <g id="text_24">
     <!-- 2 weeks-ahead -->
     <g transform="translate(93.294688 53.075)scale(0.1 -0.1)">
      <use xlink:href="#DejaVuSans-50"/>
      <use x="63.623047" xlink:href="#DejaVuSans-32"/>
      <use x="95.410156" xlink:href="#DejaVuSans-119"/>
      <use x="177.197266" xlink:href="#DejaVuSans-101"/>
      <use x="238.720703" xlink:href="#DejaVuSans-101"/>
      <use x="300.244141" xlink:href="#DejaVuSans-107"/>
      <use x="358.154297" xlink:href="#DejaVuSans-115"/>
      <use x="410.253906" xlink:href="#DejaVuSans-45"/>
      <use x="446.337891" xlink:href="#DejaVuSans-97"/>
      <use x="507.617188" xlink:href="#DejaVuSans-104"/>
      <use x="570.996094" xlink:href="#DejaVuSans-101"/>
      <use x="632.519531" xlink:href="#DejaVuSans-97"/>
      <use x="693.798828" xlink:href="#DejaVuSans-100"/>
     </g>
    </g>
    <g id="line2d_32">
     <path d="M 65.294688 68.253125 
L 85.294688 68.253125 
" style="fill:none;stroke:#40ffb7;stroke-linecap:square;stroke-width:1.5;"/>
    </g>
    <g id="line2d_33"/>
    <g id="text_25">
     <!-- 3 weeks-ahead -->
     <g transform="translate(93.294688 71.753125)scale(0.1 -0.1)">
      <use xlink:href="#DejaVuSans-51"/>
      <use x="63.623047" xlink:href="#DejaVuSans-32"/>
      <use x="95.410156" xlink:href="#DejaVuSans-119"/>
      <use x="177.197266" xlink:href="#DejaVuSans-101"/>
      <use x="238.720703" xlink:href="#DejaVuSans-101"/>
      <use x="300.244141" xlink:href="#DejaVuSans-107"/>
      <use x="358.154297" xlink:href="#DejaVuSans-115"/>
      <use x="410.253906" xlink:href="#DejaVuSans-45"/>
      <use x="446.337891" xlink:href="#DejaVuSans-97"/>
      <use x="507.617188" xlink:href="#DejaVuSans-104"/>
      <use x="570.996094" xlink:href="#DejaVuSans-101"/>
      <use x="632.519531" xlink:href="#DejaVuSans-97"/>
      <use x="693.798828" xlink:href="#DejaVuSans-100"/>
     </g>
    </g>
    <g id="line2d_34">
     <path d="M 65.294688 86.93125 
L 85.294688 86.93125 
" style="fill:none;stroke:#b7ff40;stroke-linecap:square;stroke-width:1.5;"/>
    </g>
    <g id="line2d_35"/>
    <g id="text_26">
     <!-- 4 weeks-ahead -->
     <g transform="translate(93.294688 90.43125)scale(0.1 -0.1)">
      <use xlink:href="#DejaVuSans-52"/>
      <use x="63.623047" xlink:href="#DejaVuSans-32"/>
      <use x="95.410156" xlink:href="#DejaVuSans-119"/>
      <use x="177.197266" xlink:href="#DejaVuSans-101"/>
      <use x="238.720703" xlink:href="#DejaVuSans-101"/>
      <use x="300.244141" xlink:href="#DejaVuSans-107"/>
      <use x="358.154297" xlink:href="#DejaVuSans-115"/>
      <use x="410.253906" xlink:href="#DejaVuSans-45"/>
      <use x="446.337891" xlink:href="#DejaVuSans-97"/>
      <use x="507.617188" xlink:href="#DejaVuSans-104"/>
      <use x="570.996094" xlink:href="#DejaVuSans-101"/>
      <use x="632.519531" xlink:href="#DejaVuSans-97"/>
      <use x="693.798828" xlink:href="#DejaVuSans-100"/>
     </g>
    </g>
    <g id="line2d_36">
     <path d="M 65.294688 105.609375 
L 85.294688 105.609375 
" style="fill:none;stroke:#ffb900;stroke-linecap:square;stroke-width:1.5;"/>
    </g>
    <g id="line2d_37"/>
    <g id="text_27">
     <!-- 5 weeks-ahead -->
     <g transform="translate(93.294688 109.109375)scale(0.1 -0.1)">
      <use xlink:href="#DejaVuSans-53"/>
      <use x="63.623047" xlink:href="#DejaVuSans-32"/>
      <use x="95.410156" xlink:href="#DejaVuSans-119"/>
      <use x="177.197266" xlink:href="#DejaVuSans-101"/>
      <use x="238.720703" xlink:href="#DejaVuSans-101"/>
      <use x="300.244141" xlink:href="#DejaVuSans-107"/>
      <use x="358.154297" xlink:href="#DejaVuSans-115"/>
      <use x="410.253906" xlink:href="#DejaVuSans-45"/>
      <use x="446.337891" xlink:href="#DejaVuSans-97"/>
      <use x="507.617188" xlink:href="#DejaVuSans-104"/>
      <use x="570.996094" xlink:href="#DejaVuSans-101"/>
      <use x="632.519531" xlink:href="#DejaVuSans-97"/>
      <use x="693.798828" xlink:href="#DejaVuSans-100"/>
     </g>
    </g>
    <g id="line2d_38">
     <path d="M 65.294688 124.2875 
L 85.294688 124.2875 
" style="fill:none;stroke:#ff3000;stroke-linecap:square;stroke-width:1.5;"/>
    </g>
    <g id="line2d_39"/>
    <g id="text_28">
     <!-- 6 weeks-ahead -->
     <g transform="translate(93.294688 127.7875)scale(0.1 -0.1)">
      <use xlink:href="#DejaVuSans-54"/>
      <use x="63.623047" xlink:href="#DejaVuSans-32"/>
      <use x="95.410156" xlink:href="#DejaVuSans-119"/>
      <use x="177.197266" xlink:href="#DejaVuSans-101"/>
      <use x="238.720703" xlink:href="#DejaVuSans-101"/>
      <use x="300.244141" xlink:href="#DejaVuSans-107"/>
      <use x="358.154297" xlink:href="#DejaVuSans-115"/>
      <use x="410.253906" xlink:href="#DejaVuSans-45"/>
      <use x="446.337891" xlink:href="#DejaVuSans-97"/>
      <use x="507.617188" xlink:href="#DejaVuSans-104"/>
      <use x="570.996094" xlink:href="#DejaVuSans-101"/>
      <use x="632.519531" xlink:href="#DejaVuSans-97"/>
      <use x="693.798828" xlink:href="#DejaVuSans-100"/>
     </g>
    </g>
    <g id="line2d_40">
     <path d="M 65.294688 142.965625 
L 85.294688 142.965625 
" style="fill:none;stroke:#800000;stroke-linecap:square;stroke-width:1.5;"/>
    </g>
    <g id="line2d_41"/>
    <g id="text_29">
     <!-- 7 weeks-ahead -->
     <g transform="translate(93.294688 146.465625)scale(0.1 -0.1)">
      <use xlink:href="#DejaVuSans-55"/>
      <use x="63.623047" xlink:href="#DejaVuSans-32"/>
      <use x="95.410156" xlink:href="#DejaVuSans-119"/>
      <use x="177.197266" xlink:href="#DejaVuSans-101"/>
      <use x="238.720703" xlink:href="#DejaVuSans-101"/>
      <use x="300.244141" xlink:href="#DejaVuSans-107"/>
      <use x="358.154297" xlink:href="#DejaVuSans-115"/>
      <use x="410.253906" xlink:href="#DejaVuSans-45"/>
      <use x="446.337891" xlink:href="#DejaVuSans-97"/>
      <use x="507.617188" xlink:href="#DejaVuSans-104"/>
      <use x="570.996094" xlink:href="#DejaVuSans-101"/>
      <use x="632.519531" xlink:href="#DejaVuSans-97"/>
      <use x="693.798828" xlink:href="#DejaVuSans-100"/>
     </g>
    </g>
   </g>
  </g>
 </g>
 <defs>
  <clipPath id="pe0a7a95e36">
   <rect height="434.88" width="558" x="56.294688" y="17.798438"/>
  </clipPath>
 </defs>
</svg>
