<?xml version="1.0" encoding="utf-8" standalone="no"?>
<!DOCTYPE svg PUBLIC "-//W3C//DTD SVG 1.1//EN"
  "http://www.w3.org/Graphics/SVG/1.1/DTD/svg11.dtd">
<!-- Created with matplotlib (https://matplotlib.org/) -->
<svg height="544.682704pt" version="1.1" viewBox="0 0 852.965938 544.682704" width="852.965938pt" xmlns="http://www.w3.org/2000/svg" xmlns:xlink="http://www.w3.org/1999/xlink">
 <defs>
  <style type="text/css">
*{stroke-linecap:butt;stroke-linejoin:round;}
  </style>
 </defs>
 <g id="figure_1">
  <g id="patch_1">
   <path d="M 0 544.682704 
L 852.965938 544.682704 
L 852.965938 0 
L 0 0 
z
" style="fill:#ffffff;"/>
  </g>
  <g id="axes_1">
   <g id="patch_2">
    <path d="M 64.565938 461.757187 
L 845.765938 461.757187 
L 845.765938 26.877187 
L 64.565938 26.877187 
z
" style="fill:#ffffff;"/>
   </g>
   <g id="PolyCollection_1">
    <defs>
     <path d="M 292.415938 -149.859538 
L 292.415938 -92.711514 
L 307.211392 -99.907549 
L 322.006847 -98.859084 
L 336.802301 -100.847288 
L 351.597756 -98.333375 
L 366.39321 -95.531108 
L 381.188665 -92.173405 
L 395.984119 -91.910108 
L 410.779574 -91.021245 
L 425.575028 -91.948319 
L 440.370483 -92.109304 
L 455.165938 -98.334375 
L 469.961392 -110.894414 
L 484.756847 -122.395758 
L 499.552301 -135.4661 
L 514.347756 -147.612742 
L 529.14321 -148.067348 
L 543.938665 -143.250479 
L 558.734119 -129.495141 
L 573.529574 -126.852009 
L 588.325028 -114.792701 
L 603.120483 -112.450857 
L 617.915938 -110.611222 
L 632.711392 -101.830912 
L 647.506847 -109.725443 
L 662.302301 -116.086609 
L 677.097756 -114.904234 
L 691.89321 -121.828563 
L 706.688665 -132.265776 
L 721.484119 -147.546386 
L 736.279574 -162.919677 
L 751.075028 -195.252051 
L 765.870483 -240.792661 
L 780.665938 -271.72238 
L 795.461392 -262.739867 
L 810.256847 -299.02482 
L 810.256847 -416.011454 
L 810.256847 -416.011454 
L 795.461392 -371.611083 
L 780.665938 -380.544618 
L 765.870483 -343.122617 
L 751.075028 -269.374035 
L 736.279574 -228.4528 
L 721.484119 -211.001337 
L 706.688665 -192.971075 
L 691.89321 -181.935778 
L 677.097756 -175.184125 
L 662.302301 -177.038519 
L 647.506847 -170.918961 
L 632.711392 -162.926525 
L 617.915938 -171.754038 
L 603.120483 -174.095067 
L 588.325028 -176.898879 
L 573.529574 -188.273184 
L 558.734119 -191.537551 
L 543.938665 -204.228389 
L 529.14321 -209.392887 
L 514.347756 -209.567145 
L 499.552301 -196.522863 
L 484.756847 -178.648647 
L 469.961392 -159.687391 
L 455.165938 -141.668839 
L 440.370483 -134.603689 
L 425.575028 -135.346119 
L 410.779574 -135.365993 
L 395.984119 -137.378452 
L 381.188665 -138.80254 
L 366.39321 -143.105229 
L 351.597756 -147.239085 
L 336.802301 -151.324605 
L 322.006847 -151.406701 
L 307.211392 -155.396227 
L 292.415938 -149.859538 
z
" id="mbf0362a9a8" style="stroke:#000080;stroke-opacity:0.1;"/>
    </defs>
    <g clip-path="url(#p8d6d1d1ffb)">
     <use style="fill:#000080;fill-opacity:0.1;stroke:#000080;stroke-opacity:0.1;" x="0" xlink:href="#mbf0362a9a8" y="544.682704"/>
    </g>
   </g>
   <g id="PolyCollection_2">
    <path clip-path="url(#p8d6d1d1ffb)" d="M 469.961392 308.808521 
L 469.961392 446.811179 
L 484.756847 445.338032 
L 499.552301 443.50751 
L 514.347756 442.166675 
L 529.14321 443.324454 
L 543.938665 448.407411 
L 558.734119 448.880712 
L 573.529574 449.762762 
L 588.325028 451.454324 
L 603.120483 452.686067 
L 617.915938 453.413353 
L 632.711392 452.646091 
L 647.506847 453.322615 
L 662.302301 451.880355 
L 677.097756 449.734353 
L 691.89321 446.390618 
L 706.688665 446.500786 
L 721.484119 388.592996 
L 736.279574 349.543637 
L 751.075028 305.550987 
L 765.870483 272.08784 
L 780.665938 289.851895 
L 795.461392 326.937995 
L 810.256847 246.428972 
L 810.256847 -159.355997 
L 810.256847 -159.355997 
L 795.461392 108.92584 
L 780.665938 85.109548 
L 765.870483 -216.430807 
L 751.075028 -99.699772 
L 736.279574 147.1049 
L 721.484119 222.044453 
L 706.688665 331.571079 
L 691.89321 339.286246 
L 677.097756 360.158776 
L 662.302301 374.222287 
L 647.506847 385.297483 
L 632.711392 387.849129 
L 617.915938 392.489799 
L 603.120483 378.338582 
L 588.325028 373.60937 
L 573.529574 359.08293 
L 558.734119 329.598522 
L 543.938665 331.627387 
L 529.14321 282.424174 
L 514.347756 269.130335 
L 499.552301 285.544866 
L 484.756847 299.870593 
L 469.961392 308.808521 
z
" style="fill:#0000a4;fill-opacity:0.1;stroke:#0000a4;stroke-opacity:0.1;"/>
   </g>
   <g id="PolyCollection_3">
    <defs>
     <path d="M 484.756847 -114.963801 
L 484.756847 -107.461491 
L 499.552301 -164.743593 
L 514.347756 -397.564381 
L 529.14321 -273.296477 
L 543.938665 -175.622087 
L 558.734119 -191.321226 
L 573.529574 -118.340257 
L 588.325028 -116.560972 
L 603.120483 -112.71988 
L 617.915938 -105.617041 
L 632.711392 -103.298754 
L 647.506847 -108.45545 
L 677.097756 -108.279156 
L 691.89321 -118.111883 
L 706.688665 -161.91991 
L 721.484119 -209.14101 
L 736.279574 -223.885229 
L 751.075028 -467.80964 
L 765.870483 -540.851997 
L 780.665938 -482.259911 
L 795.461392 -139.350757 
L 810.256847 -472.765804 
L 810.256847 -473.185204 
L 810.256847 -473.185204 
L 795.461392 -143.737611 
L 780.665938 -494.987495 
L 765.870483 -554.735115 
L 751.075028 -471.1498 
L 736.279574 -230.775884 
L 721.484119 -210.09712 
L 706.688665 -163.454726 
L 691.89321 -119.241019 
L 677.097756 -109.419453 
L 647.506847 -109.932244 
L 632.711392 -104.188661 
L 617.915938 -106.600633 
L 603.120483 -114.266631 
L 588.325028 -117.812109 
L 573.529574 -119.85306 
L 558.734119 -196.654909 
L 543.938665 -180.688272 
L 529.14321 -280.298031 
L 514.347756 -405.52257 
L 499.552301 -166.31238 
L 484.756847 -114.963801 
z
" id="m28c8ac63c5" style="stroke:#0000c8;stroke-opacity:0.1;"/>
    </defs>
    <g clip-path="url(#p8d6d1d1ffb)">
     <use style="fill:#0000c8;fill-opacity:0.1;stroke:#0000c8;stroke-opacity:0.1;" x="0" xlink:href="#m28c8ac63c5" y="544.682704"/>
    </g>
   </g>
   <g id="PolyCollection_4">
    <defs>
     <path d="M 484.756847 -169.408972 
L 484.756847 -117.054723 
L 499.552301 -122.976394 
L 514.347756 -157.53701 
L 529.14321 -152.73458 
L 543.938665 -129.01513 
L 558.734119 -123.012769 
L 573.529574 -125.05651 
L 588.325028 -114.726689 
L 603.120483 -123.616795 
L 617.915938 -125.859514 
L 632.711392 -121.389445 
L 647.506847 -140.399531 
L 662.302301 -136.925916 
L 691.89321 -151.673948 
L 721.484119 -175.381099 
L 751.075028 -232.083978 
L 765.870483 -243.922188 
L 780.665938 -203.172953 
L 795.461392 -173.389517 
L 795.461392 -186.886879 
L 795.461392 -186.886879 
L 780.665938 -218.88325 
L 765.870483 -264.137777 
L 751.075028 -255.01503 
L 721.484119 -194.090434 
L 691.89321 -167.007536 
L 662.302301 -151.347966 
L 647.506847 -155.034662 
L 632.711392 -133.485652 
L 617.915938 -138.266776 
L 603.120483 -134.720166 
L 588.325028 -123.192035 
L 573.529574 -135.66999 
L 558.734119 -135.567231 
L 543.938665 -143.496911 
L 529.14321 -165.958247 
L 514.347756 -174.290423 
L 499.552301 -167.108192 
L 484.756847 -169.408972 
z
" id="mb8fdd9e37f" style="stroke:#0000ed;stroke-opacity:0.1;"/>
    </defs>
    <g clip-path="url(#p8d6d1d1ffb)">
     <use style="fill:#0000ed;fill-opacity:0.1;stroke:#0000ed;stroke-opacity:0.1;" x="0" xlink:href="#mb8fdd9e37f" y="544.682704"/>
    </g>
   </g>
   <g id="PolyCollection_5">
    <path clip-path="url(#p8d6d1d1ffb)" d="M 484.756847 391.251506 
L 484.756847 405.171835 
L 499.552301 398.608591 
L 514.347756 406.310449 
L 529.14321 421.671876 
L 543.938665 407.730154 
L 558.734119 412.008848 
L 573.529574 424.215831 
L 588.325028 437.358948 
L 603.120483 437.625178 
L 617.915938 448.939307 
L 632.711392 455.808061 
L 647.506847 461.757434 
L 662.302301 461.757434 
L 677.097756 461.757434 
L 691.89321 461.757434 
L 706.688665 461.757434 
L 721.484119 461.757434 
L 736.279574 461.757434 
L 751.075028 439.199169 
L 765.870483 406.332293 
L 780.665938 155.533365 
L 795.461392 162.448822 
L 810.256847 224.608841 
L 810.256847 -93.885066 
L 810.256847 -93.885066 
L 795.461392 -111.346284 
L 780.665938 -192.116497 
L 765.870483 59.503906 
L 751.075028 187.542498 
L 736.279574 264.642847 
L 721.484119 320.923298 
L 706.688665 366.104679 
L 691.89321 373.908598 
L 677.097756 390.800015 
L 662.302301 397.787036 
L 647.506847 410.737921 
L 632.711392 417.42639 
L 617.915938 416.026994 
L 603.120483 418.083145 
L 588.325028 408.716003 
L 573.529574 395.004782 
L 558.734119 379.938907 
L 543.938665 355.213159 
L 529.14321 338.663793 
L 514.347756 372.113619 
L 499.552301 395.462572 
L 484.756847 391.251506 
z
" style="fill:#0000ff;fill-opacity:0.1;stroke:#0000ff;stroke-opacity:0.1;"/>
   </g>
   <g id="PolyCollection_6">
    <defs>
     <path d="M 484.756847 -187.237483 
L 484.756847 -137.633989 
L 499.552301 -144.628176 
L 514.347756 -152.185332 
L 529.14321 -173.812845 
L 543.938665 -168.059482 
L 558.734119 -156.331815 
L 573.529574 -145.212719 
L 588.325028 -130.690865 
L 603.120483 -123.597234 
L 617.915938 -118.790646 
L 632.711392 -115.348589 
L 647.506847 -113.213876 
L 662.302301 -120.586815 
L 677.097756 -128.750601 
L 691.89321 -126.633723 
L 706.688665 -133.75728 
L 721.484119 -133.827323 
L 736.279574 -138.843788 
L 765.870483 -260.950034 
L 780.665938 -269.43095 
L 795.461392 -256.008617 
L 810.256847 -269.645128 
L 810.256847 -425.970344 
L 810.256847 -425.970344 
L 795.461392 -393.962014 
L 780.665938 -400.095804 
L 765.870483 -390.985633 
L 736.279574 -191.848611 
L 721.484119 -185.30148 
L 706.688665 -185.212637 
L 691.89321 -167.507694 
L 677.097756 -171.181282 
L 662.302301 -150.556484 
L 647.506847 -132.863976 
L 632.711392 -132.704499 
L 617.915938 -138.970361 
L 603.120483 -146.638924 
L 588.325028 -159.894921 
L 573.529574 -181.701071 
L 558.734119 -199.674885 
L 543.938665 -220.940294 
L 529.14321 -234.135623 
L 514.347756 -216.412717 
L 499.552301 -197.120439 
L 484.756847 -187.237483 
z
" id="m1c241f7856" style="stroke:#0020ff;stroke-opacity:0.1;"/>
    </defs>
    <g clip-path="url(#p8d6d1d1ffb)">
     <use style="fill:#0020ff;fill-opacity:0.1;stroke:#0020ff;stroke-opacity:0.1;" x="0" xlink:href="#m1c241f7856" y="544.682704"/>
    </g>
   </g>
   <g id="PolyCollection_7">
    <path clip-path="url(#p8d6d1d1ffb)" d="M 484.756847 216.029482 
L 484.756847 434.932783 
L 499.552301 418.981107 
L 514.347756 415.026253 
L 529.14321 420.68263 
L 543.938665 419.843238 
L 558.734119 429.214323 
L 573.529574 431.268445 
L 588.325028 426.948415 
L 603.120483 423.172115 
L 617.915938 440.941987 
L 632.711392 444.442726 
L 647.506847 437.453947 
L 662.302301 438.068327 
L 677.097756 440.91531 
L 691.89321 434.46043 
L 706.688665 432.558344 
L 721.484119 414.844599 
L 736.279574 394.12453 
L 751.075028 355.364029 
L 765.870483 315.498743 
L 780.665938 259.462458 
L 795.461392 350.365787 
L 810.256847 283.368884 
L 810.256847 -16.824728 
L 810.256847 -16.824728 
L 795.461392 132.719933 
L 780.665938 -203.763371 
L 765.870483 -95.767227 
L 751.075028 61.997355 
L 736.279574 270.999424 
L 721.484119 338.138767 
L 706.688665 392.380592 
L 691.89321 397.452778 
L 677.097756 409.838982 
L 662.302301 405.804607 
L 647.506847 406.917952 
L 632.711392 420.528078 
L 617.915938 410.114486 
L 603.120483 365.531554 
L 588.325028 376.121973 
L 573.529574 373.467352 
L 558.734119 365.044049 
L 543.938665 328.854805 
L 529.14321 292.949461 
L 514.347756 282.170027 
L 499.552301 304.359486 
L 484.756847 216.029482 
z
" style="fill:#0040ff;fill-opacity:0.1;stroke:#0040ff;stroke-opacity:0.1;"/>
   </g>
   <g id="PolyCollection_8">
    <defs>
     <path d="M 484.756847 -198.820439 
L 484.756847 -156.023495 
L 499.552301 -174.672318 
L 514.347756 -172.029147 
L 529.14321 -154.059856 
L 543.938665 -153.917132 
L 573.529574 -130.474417 
L 588.325028 -132.470709 
L 603.120483 -137.050411 
L 617.915938 -135.512686 
L 632.711392 -129.991825 
L 647.506847 -121.839292 
L 662.302301 -129.540241 
L 677.097756 -119.110282 
L 691.89321 -122.940631 
L 706.688665 -131.435085 
L 721.484119 -161.144113 
L 736.279574 -177.015254 
L 751.075028 -186.967755 
L 765.870483 -258.915766 
L 780.665938 -316.029081 
L 795.461392 -295.918516 
L 810.256847 -313.462304 
L 810.256847 -391.394877 
L 810.256847 -391.394877 
L 795.461392 -357.009012 
L 780.665938 -386.246947 
L 765.870483 -328.91205 
L 751.075028 -229.049845 
L 736.279574 -205.073404 
L 721.484119 -183.629856 
L 706.688665 -154.691128 
L 691.89321 -144.200177 
L 677.097756 -141.231308 
L 662.302301 -147.164119 
L 647.506847 -140.791019 
L 632.711392 -143.504012 
L 617.915938 -152.536916 
L 603.120483 -159.419511 
L 588.325028 -158.385325 
L 573.529574 -159.683191 
L 543.938665 -183.230433 
L 529.14321 -201.737969 
L 514.347756 -208.829413 
L 499.552301 -210.026038 
L 484.756847 -198.820439 
z
" id="m88152f9beb" style="stroke:#0060ff;stroke-opacity:0.1;"/>
    </defs>
    <g clip-path="url(#p8d6d1d1ffb)">
     <use style="fill:#0060ff;fill-opacity:0.1;stroke:#0060ff;stroke-opacity:0.1;" x="0" xlink:href="#m88152f9beb" y="544.682704"/>
    </g>
   </g>
   <g id="PolyCollection_9">
    <path clip-path="url(#p8d6d1d1ffb)" d="M 484.756847 275.803553 
L 484.756847 390.614839 
L 499.552301 408.647585 
L 514.347756 397.324111 
L 529.14321 411.681348 
L 543.938665 426.030988 
L 558.734119 433.425131 
L 573.529574 421.728519 
L 588.325028 437.480758 
L 603.120483 430.304706 
L 617.915938 414.627218 
L 632.711392 430.385002 
L 647.506847 433.638293 
L 662.302301 391.982938 
L 677.097756 378.740592 
L 691.89321 394.206631 
L 706.688665 371.792907 
L 721.484119 335.221197 
L 736.279574 218.370494 
L 751.075028 96.934544 
L 765.870483 -237.408196 
L 780.665938 83.779681 
L 795.461392 413.91565 
L 810.256847 335.289992 
L 810.256847 -1200.12226 
L 810.256847 -1200.12226 
L 795.461392 196.261995 
L 780.665938 -394.630557 
L 765.870483 -495.806235 
L 751.075028 -56.409003 
L 736.279574 -284.639038 
L 721.484119 295.839778 
L 706.688665 337.266528 
L 691.89321 370.232996 
L 677.097756 337.588571 
L 662.302301 356.703147 
L 647.506847 380.516328 
L 632.711392 386.549765 
L 617.915938 375.287487 
L 603.120483 403.001455 
L 588.325028 415.070382 
L 573.529574 403.147876 
L 558.734119 405.075577 
L 543.938665 398.377395 
L 529.14321 367.377278 
L 514.347756 358.397561 
L 499.552301 293.637307 
L 484.756847 275.803553 
z
" style="fill:#0080ff;fill-opacity:0.1;stroke:#0080ff;stroke-opacity:0.1;"/>
   </g>
   <g id="PolyCollection_10">
    <defs>
     <path d="M 484.756847 -204.275921 
L 484.756847 -179.650506 
L 499.552301 -193.272868 
L 514.347756 -204.827635 
L 529.14321 -205.023819 
L 543.938665 -164.890365 
L 573.529574 -130.880338 
L 588.325028 -118.350322 
L 603.120483 -107.276154 
L 617.915938 -118.71864 
L 632.711392 -116.1059 
L 647.506847 -104.067628 
L 662.302301 -110.572167 
L 677.097756 -147.831232 
L 691.89321 -151.594968 
L 706.688665 -130.09127 
L 721.484119 -210.159059 
L 736.279574 -237.946608 
L 751.075028 -281.097759 
L 780.665938 -222.270681 
L 795.461392 -189.271568 
L 810.256847 -412.640401 
L 810.256847 -478.873141 
L 810.256847 -478.873141 
L 795.461392 -347.404909 
L 780.665938 -446.600961 
L 751.075028 -370.607054 
L 736.279574 -284.994156 
L 721.484119 -242.295812 
L 706.688665 -138.333169 
L 691.89321 -158.866951 
L 677.097756 -150.87137 
L 662.302301 -117.866865 
L 647.506847 -111.376944 
L 632.711392 -118.84346 
L 617.915938 -122.456825 
L 603.120483 -120.407516 
L 588.325028 -122.846187 
L 573.529574 -136.333573 
L 543.938665 -189.009359 
L 529.14321 -234.014832 
L 514.347756 -264.058972 
L 499.552301 -232.440374 
L 484.756847 -204.275921 
z
" id="m5fea828954" style="stroke:#00a0ff;stroke-opacity:0.1;"/>
    </defs>
    <g clip-path="url(#p8d6d1d1ffb)">
     <use style="fill:#00a0ff;fill-opacity:0.1;stroke:#00a0ff;stroke-opacity:0.1;" x="0" xlink:href="#m5fea828954" y="544.682704"/>
    </g>
   </g>
   <g id="PolyCollection_11">
    <defs>
     <path d="M 499.552301 -325.871632 
L 499.552301 -184.731032 
L 514.347756 -82.92527 
L 529.14321 -178.606953 
L 543.938665 -195.300784 
L 543.938665 -320.339132 
L 543.938665 -320.339132 
L 529.14321 -301.160295 
L 514.347756 -372.111982 
L 499.552301 -325.871632 
z
" id="m66bd2e4ba4" style="stroke:#00c0ff;stroke-opacity:0.1;"/>
    </defs>
    <g clip-path="url(#p8d6d1d1ffb)">
     <use style="fill:#00c0ff;fill-opacity:0.1;stroke:#00c0ff;stroke-opacity:0.1;" x="0" xlink:href="#m66bd2e4ba4" y="544.682704"/>
    </g>
   </g>
   <g id="PolyCollection_12">
    <path clip-path="url(#p8d6d1d1ffb)" d="M 499.552301 163.623885 
L 499.552301 433.987209 
L 514.347756 422.454452 
L 529.14321 417.632798 
L 543.938665 417.077448 
L 558.734119 438.796327 
L 573.529574 436.564245 
L 588.325028 441.98083 
L 603.120483 432.65865 
L 617.915938 431.584523 
L 632.711392 442.706347 
L 647.506847 426.102696 
L 662.302301 434.945286 
L 677.097756 437.378429 
L 691.89321 420.833413 
L 706.688665 414.60709 
L 721.484119 401.899148 
L 736.279574 412.906664 
L 751.075028 387.763287 
L 765.870483 326.432677 
L 780.665938 288.459172 
L 795.461392 386.453201 
L 810.256847 323.688952 
L 810.256847 -143.015476 
L 810.256847 -143.015476 
L 795.461392 -15.177373 
L 780.665938 -136.90183 
L 765.870483 -216.569668 
L 751.075028 -57.077116 
L 736.279574 123.257222 
L 721.484119 228.390018 
L 706.688665 297.741774 
L 691.89321 328.447438 
L 677.097756 342.001393 
L 662.302301 337.692125 
L 647.506847 356.745503 
L 632.711392 378.767589 
L 617.915938 370.024398 
L 603.120483 358.622841 
L 588.325028 384.544424 
L 573.529574 358.749437 
L 558.734119 352.619678 
L 543.938665 290.183298 
L 529.14321 238.092587 
L 514.347756 55.019809 
L 499.552301 163.623885 
z
" style="fill:#00e0fb;fill-opacity:0.1;stroke:#00e0fb;stroke-opacity:0.1;"/>
   </g>
   <g id="PolyCollection_13">
    <defs>
     <path d="M 514.347756 -277.357587 
L 514.347756 -129.051282 
L 529.14321 -133.001355 
L 543.938665 -140.101425 
L 558.734119 -121.203913 
L 573.529574 -124.00521 
L 588.325028 -115.643828 
L 603.120483 -114.394631 
L 617.915938 -113.097997 
L 632.711392 -113.336624 
L 647.506847 -111.511191 
L 662.302301 -116.086581 
L 677.097756 -116.335065 
L 691.89321 -125.241469 
L 706.688665 -132.265761 
L 721.484119 -147.293084 
L 736.279574 -176.043086 
L 751.075028 -213.177471 
L 765.870483 -249.174374 
L 780.665938 -314.153541 
L 795.461392 -223.888361 
L 810.256847 -289.645426 
L 810.256847 -559.411708 
L 810.256847 -559.411708 
L 795.461392 -433.812317 
L 780.665938 -595.08969 
L 765.870483 -548.024162 
L 751.075028 -427.105305 
L 736.279574 -280.039982 
L 721.484119 -229.750734 
L 706.688665 -185.21276 
L 691.89321 -169.459494 
L 677.097756 -160.865852 
L 662.302301 -157.657123 
L 647.506847 -158.890712 
L 632.711392 -146.13712 
L 617.915938 -152.536916 
L 603.120483 -156.717607 
L 588.325028 -157.333683 
L 573.529574 -168.39779 
L 558.734119 -193.450927 
L 543.938665 -197.130953 
L 529.14321 -234.015006 
L 514.347756 -277.357587 
z
" id="ma83debeb6d" style="stroke:#16ffe1;stroke-opacity:0.1;"/>
    </defs>
    <g clip-path="url(#p8d6d1d1ffb)">
     <use style="fill:#16ffe1;fill-opacity:0.1;stroke:#16ffe1;stroke-opacity:0.1;" x="0" xlink:href="#ma83debeb6d" y="544.682704"/>
    </g>
   </g>
   <g id="PolyCollection_14">
    <path clip-path="url(#p8d6d1d1ffb)" d="M 529.14321 365.346692 
L 529.14321 451.827112 
L 543.938665 438.045495 
L 558.734119 427.309345 
L 573.529574 426.989602 
L 588.325028 443.106558 
L 603.120483 435.622879 
L 617.915938 433.3588 
L 632.711392 436.954219 
L 647.506847 437.161836 
L 662.302301 428.966795 
L 677.097756 428.347639 
L 691.89321 414.825184 
L 706.688665 414.584914 
L 721.484119 405.89886 
L 736.279574 362.806816 
L 751.075028 302.269557 
L 765.870483 323.064582 
L 780.665938 207.658783 
L 795.461392 359.613079 
L 810.256847 288.049909 
L 810.256847 -645.885607 
L 810.256847 -645.885607 
L 795.461392 -332.742243 
L 780.665938 -1409.476962 
L 765.870483 -2573.478625 
L 751.075028 -486.964725 
L 736.279574 -187.498451 
L 721.484119 -271.277173 
L 706.688665 200.961422 
L 691.89321 235.896827 
L 677.097756 324.797398 
L 662.302301 -181.197022 
L 647.506847 -305.946228 
L 632.711392 398.520735 
L 617.915938 341.280509 
L 603.120483 359.755598 
L 588.325028 334.476361 
L 573.529574 192.048241 
L 558.734119 359.20154 
L 543.938665 273.25957 
L 529.14321 365.346692 
z
" style="fill:#30ffc7;fill-opacity:0.1;stroke:#30ffc7;stroke-opacity:0.1;"/>
   </g>
   <g id="PolyCollection_15">
    <path clip-path="url(#p8d6d1d1ffb)" d="M 529.14321 259.667724 
L 529.14321 296.440842 
L 543.938665 329.609629 
L 558.734119 379.498016 
L 573.529574 402.367328 
L 588.325028 412.188194 
L 603.120483 417.383008 
L 617.915938 414.594566 
L 632.711392 418.396144 
L 647.506847 417.18611 
L 662.302301 407.544276 
L 677.097756 408.388464 
L 691.89321 381.431242 
L 706.688665 357.10526 
L 721.484119 304.152182 
L 736.279574 252.674935 
L 751.075028 171.648716 
L 765.870483 -3.342033 
L 780.665938 -97.084017 
L 795.461392 129.251421 
L 810.256847 79.368681 
L 810.256847 -107.645118 
L 810.256847 -107.645118 
L 795.461392 -36.533306 
L 780.665938 -210.396082 
L 765.870483 -121.221172 
L 751.075028 80.100846 
L 736.279574 181.070837 
L 721.484119 238.840581 
L 706.688665 314.929321 
L 691.89321 341.569263 
L 677.097756 384.983186 
L 662.302301 381.41738 
L 647.506847 394.446749 
L 632.711392 398.545584 
L 617.915938 392.981371 
L 603.120483 395.533712 
L 588.325028 388.929769 
L 573.529574 379.10266 
L 558.734119 349.844066 
L 543.938665 291.018861 
L 529.14321 259.667724 
z
" style="fill:#49ffad;fill-opacity:0.1;stroke:#49ffad;stroke-opacity:0.1;"/>
   </g>
   <g id="PolyCollection_16">
    <defs>
     <path d="M 543.938665 -279.31445 
L 543.938665 -109.6184 
L 558.734119 -115.207441 
L 573.529574 -106.385645 
L 588.325028 -100.127341 
L 603.120483 -111.257573 
L 617.915938 -112.812959 
L 632.711392 -120.343871 
L 647.506847 -139.761556 
L 662.302301 -125.546016 
L 677.097756 -113.03947 
L 691.89321 -119.528597 
L 706.688665 -122.972872 
L 721.484119 -138.803969 
L 736.279574 -146.522989 
L 751.075028 -246.158683 
L 765.870483 -267.168514 
L 780.665938 -235.973922 
L 795.461392 -216.633041 
L 810.256847 -321.957169 
L 810.256847 -622.027608 
L 810.256847 -622.027608 
L 795.461392 -453.426531 
L 780.665938 -484.306924 
L 765.870483 -486.350037 
L 751.075028 -455.010667 
L 736.279574 -378.917286 
L 721.484119 -360.608538 
L 706.688665 -293.649098 
L 691.89321 -289.026065 
L 677.097756 -262.132093 
L 662.302301 -293.887314 
L 647.506847 -278.455024 
L 632.711392 -271.338115 
L 617.915938 -288.903055 
L 603.120483 -263.869427 
L 588.325028 -243.890292 
L 573.529574 -245.142979 
L 558.734119 -300.927829 
L 543.938665 -279.31445 
z
" id="m6e4d48117f" style="stroke:#63ff94;stroke-opacity:0.1;"/>
    </defs>
    <g clip-path="url(#p8d6d1d1ffb)">
     <use style="fill:#63ff94;fill-opacity:0.1;stroke:#63ff94;stroke-opacity:0.1;" x="0" xlink:href="#m6e4d48117f" y="544.682704"/>
    </g>
   </g>
   <g id="PolyCollection_17">
    <path clip-path="url(#p8d6d1d1ffb)" d="M 543.938665 215.453786 
L 543.938665 432.01021 
L 558.734119 425.570574 
L 573.529574 435.412797 
L 588.325028 434.003421 
L 603.120483 422.162647 
L 617.915938 417.144299 
L 632.711392 419.059268 
L 647.506847 394.849334 
L 662.302301 410.37116 
L 677.097756 421.95236 
L 691.89321 410.322696 
L 706.688665 406.286372 
L 721.484119 386.550381 
L 736.279574 372.026186 
L 751.075028 291.126182 
L 765.870483 272.949273 
L 780.665938 312.19495 
L 795.461392 335.166982 
L 810.256847 219.544119 
L 810.256847 -231.788763 
L 810.256847 -231.788763 
L 795.461392 -29.686506 
L 780.665938 -96.581668 
L 765.870483 -51.025526 
L 751.075028 -42.792493 
L 736.279574 158.022986 
L 721.484119 189.652117 
L 706.688665 250.839542 
L 691.89321 263.277293 
L 677.097756 290.142514 
L 662.302301 221.786635 
L 647.506847 230.080865 
L 632.711392 256.67912 
L 617.915938 239.730051 
L 603.120483 256.013552 
L 588.325028 277.623441 
L 573.529574 255.028242 
L 558.734119 188.40251 
L 543.938665 215.453786 
z
" style="fill:#7dff7a;fill-opacity:0.1;stroke:#7dff7a;stroke-opacity:0.1;"/>
   </g>
   <g id="PolyCollection_18">
    <path clip-path="url(#p8d6d1d1ffb)" d="M 543.938665 225.427233 
L 543.938665 424.341092 
L 558.734119 417.882358 
L 573.529574 428.575792 
L 588.325028 437.1413 
L 603.120483 424.005947 
L 617.915938 414.568075 
L 632.711392 411.391587 
L 647.506847 396.51664 
L 662.302301 405.416678 
L 677.097756 421.173024 
L 691.89321 411.323819 
L 706.688665 406.745759 
L 721.484119 385.081245 
L 736.279574 375.516667 
L 751.075028 306.917028 
L 765.870483 284.805038 
L 780.665938 326.853654 
L 795.461392 345.649514 
L 810.256847 235.556137 
L 810.256847 -214.325475 
L 810.256847 -214.325475 
L 795.461392 -20.077981 
L 780.665938 -122.091112 
L 765.870483 -35.559146 
L 751.075028 -15.279571 
L 736.279574 15.026023 
L 721.484119 39.036349 
L 706.688665 138.547595 
L 691.89321 143.29138 
L 677.097756 185.848875 
L 662.302301 131.874878 
L 647.506847 198.678656 
L 632.711392 154.860874 
L 617.915938 56.076186 
L 603.120483 163.577321 
L 588.325028 143.716472 
L 573.529574 264.091745 
L 558.734119 209.2345 
L 543.938665 225.427233 
z
" style="fill:#97ff60;fill-opacity:0.1;stroke:#97ff60;stroke-opacity:0.1;"/>
   </g>
   <g id="PolyCollection_19">
    <path clip-path="url(#p8d6d1d1ffb)" d="M 543.938665 176.862382 
L 543.938665 427.995859 
L 558.734119 422.870724 
L 573.529574 433.37338 
L 588.325028 439.15094 
L 603.120483 426.450946 
L 617.915938 419.138536 
L 632.711392 415.137945 
L 647.506847 397.617979 
L 662.302301 419.926497 
L 677.097756 425.16191 
L 691.89321 417.414756 
L 706.688665 412.173593 
L 721.484119 392.543362 
L 736.279574 383.583154 
L 751.075028 309.233473 
L 765.870483 292.687112 
L 780.665938 335.43744 
L 795.461392 350.076635 
L 810.256847 246.276678 
L 810.256847 -179.354749 
L 810.256847 -179.354749 
L 795.461392 11.09053 
L 780.665938 -74.14172 
L 765.870483 -7.894259 
L 751.075028 -6.831528 
L 736.279574 35.711798 
L 721.484119 55.1991 
L 706.688665 155.422119 
L 691.89321 155.71147 
L 677.097756 193.348983 
L 662.302301 211.503302 
L 647.506847 219.28701 
L 632.711392 185.598132 
L 617.915938 112.221235 
L 603.120483 195.303381 
L 588.325028 182.61037 
L 573.529574 222.576444 
L 558.734119 143.88158 
L 543.938665 176.862382 
z
" style="fill:#b1ff46;fill-opacity:0.1;stroke:#b1ff46;stroke-opacity:0.1;"/>
   </g>
   <g id="PolyCollection_20">
    <defs>
     <path d="M 543.938665 -319.255471 
L 543.938665 -120.341612 
L 558.734119 -126.800346 
L 573.529574 -116.106912 
L 588.325028 -110.679283 
L 603.120483 -122.520056 
L 617.915938 -127.538405 
L 632.711392 -125.623436 
L 647.506847 -149.83337 
L 662.302301 -134.311543 
L 677.097756 -122.730344 
L 691.89321 -134.360008 
L 706.688665 -138.396332 
L 721.484119 -158.132323 
L 736.279574 -172.656517 
L 751.075028 -246.158683 
L 765.870483 -271.733431 
L 780.665938 -235.973922 
L 795.461392 -216.633041 
L 810.256847 -321.957169 
L 810.256847 -622.027608 
L 810.256847 -622.027608 
L 795.461392 -453.426531 
L 780.665938 -484.306924 
L 765.870483 -595.70823 
L 751.075028 -455.010667 
L 736.279574 -386.659717 
L 721.484119 -355.030587 
L 706.688665 -293.843162 
L 691.89321 -281.405411 
L 677.097756 -254.54019 
L 662.302301 -322.896069 
L 647.506847 -314.601839 
L 632.711392 -288.003584 
L 617.915938 -304.952653 
L 603.120483 -288.669151 
L 588.325028 -267.059263 
L 573.529574 -280.590959 
L 558.734119 -335.448204 
L 543.938665 -319.255471 
z
" id="m1e77f4a542" style="stroke:#caff2c;stroke-opacity:0.1;"/>
    </defs>
    <g clip-path="url(#p8d6d1d1ffb)">
     <use style="fill:#caff2c;fill-opacity:0.1;stroke:#caff2c;stroke-opacity:0.1;" x="0" xlink:href="#m1e77f4a542" y="544.682704"/>
    </g>
   </g>
   <g id="PolyCollection_21">
    <defs>
     <path d="M 558.734119 -205.744819 
L 558.734119 -119.39539 
L 573.529574 -136.605114 
L 588.325028 -126.500425 
L 603.120483 -121.166839 
L 617.915938 -124.401113 
L 632.711392 -113.336746 
L 647.506847 -111.978208 
L 662.302301 -102.946801 
L 677.097756 -112.360476 
L 691.89321 -132.99971 
L 706.688665 -147.324831 
L 721.484119 -148.700048 
L 736.279574 -177.366967 
L 751.075028 -196.119955 
L 765.870483 -208.551076 
L 780.665938 -272.052802 
L 795.461392 -210.131162 
L 810.256847 -267.083124 
L 810.256847 -466.298693 
L 810.256847 -466.298693 
L 795.461392 -433.812281 
L 780.665938 -388.267641 
L 765.870483 -372.037522 
L 751.075028 -271.72584 
L 736.279574 -216.187074 
L 721.484119 -207.888266 
L 706.688665 -181.780028 
L 691.89321 -164.756365 
L 677.097756 -179.292931 
L 662.302301 -189.815188 
L 647.506847 -172.061277 
L 632.711392 -146.114064 
L 617.915938 -160.59652 
L 603.120483 -166.35129 
L 588.325028 -163.316028 
L 573.529574 -178.329506 
L 558.734119 -205.744819 
z
" id="me946c2d62a" style="stroke:#e4ff13;stroke-opacity:0.1;"/>
    </defs>
    <g clip-path="url(#p8d6d1d1ffb)">
     <use style="fill:#e4ff13;fill-opacity:0.1;stroke:#e4ff13;stroke-opacity:0.1;" x="0" xlink:href="#me946c2d62a" y="544.682704"/>
    </g>
   </g>
   <g id="PolyCollection_22">
    <path clip-path="url(#p8d6d1d1ffb)" d="M 603.120483 375.610533 
L 603.120483 430.271037 
L 617.915938 438.476046 
L 632.711392 422.902182 
L 647.506847 415.923859 
L 662.302301 418.764484 
L 677.097756 425.51339 
L 691.89321 422.667427 
L 706.688665 401.49752 
L 721.484119 389.041589 
L 736.279574 363.232366 
L 751.075028 326.179951 
L 765.870483 72.354957 
L 780.665938 183.852214 
L 795.461392 245.002189 
L 810.256847 258.729866 
L 810.256847 6.089721 
L 810.256847 6.089721 
L 795.461392 -70.992013 
L 780.665938 -714.786909 
L 765.870483 -401.330919 
L 751.075028 182.41768 
L 736.279574 258.066573 
L 721.484119 308.940803 
L 706.688665 336.978786 
L 691.89321 376.538203 
L 677.097756 383.817017 
L 662.302301 387.025673 
L 647.506847 376.999463 
L 632.711392 392.169429 
L 617.915938 333.464769 
L 603.120483 375.610533 
z
" style="fill:#feed00;fill-opacity:0.1;stroke:#feed00;stroke-opacity:0.1;"/>
   </g>
   <g id="PolyCollection_23">
    <defs>
     <path d="M 706.688665 -267.167392 
L 706.688665 -126.846593 
L 721.484119 -135.504765 
L 736.279574 -167.182464 
L 751.075028 -217.820532 
L 765.870483 -279.359901 
L 780.665938 -312.278184 
L 795.461392 -257.628133 
L 810.256847 -314.703914 
L 810.256847 -528.794287 
L 810.256847 -528.794287 
L 795.461392 -480.136894 
L 780.665938 -604.3915 
L 765.870483 -529.547135 
L 751.075028 -389.628693 
L 736.279574 -274.495897 
L 721.484119 -302.617023 
L 706.688665 -267.167392 
z
" id="m63619dc71c" style="stroke:#ffd000;stroke-opacity:0.1;"/>
    </defs>
    <g clip-path="url(#p8d6d1d1ffb)">
     <use style="fill:#ffd000;fill-opacity:0.1;stroke:#ffd000;stroke-opacity:0.1;" x="0" xlink:href="#m63619dc71c" y="544.682704"/>
    </g>
   </g>
   <g id="PolyCollection_24">
    <path clip-path="url(#p8d6d1d1ffb)" d="M 721.484119 238.746071 
L 721.484119 398.58001 
L 751.075028 349.194009 
L 765.870483 208.098127 
L 780.665938 163.889213 
L 795.461392 220.827971 
L 810.256847 265.873603 
L 810.256847 139.347421 
L 810.256847 139.347421 
L 795.461392 -278.801623 
L 780.665938 -516.609761 
L 765.870483 -239.165365 
L 751.075028 181.44285 
L 721.484119 238.746071 
z
" style="fill:#ffb200;fill-opacity:0.1;stroke:#ffb200;stroke-opacity:0.1;"/>
   </g>
   <g id="PolyCollection_25">
    <defs>
     <path d="M 736.279574 -248.461232 
L 736.279574 -160.833147 
L 751.075028 -162.640154 
L 765.870483 -274.68695 
L 780.665938 -339.881431 
L 795.461392 -350.460333 
L 810.256847 -344.260032 
L 810.256847 -638.432853 
L 810.256847 -638.432853 
L 795.461392 -651.638754 
L 780.665938 -629.168877 
L 765.870483 -490.569469 
L 751.075028 -252.227055 
L 736.279574 -248.461232 
z
" id="m97b9927e90" style="stroke:#ff9400;stroke-opacity:0.1;"/>
    </defs>
    <g clip-path="url(#p8d6d1d1ffb)">
     <use style="fill:#ff9400;fill-opacity:0.1;stroke:#ff9400;stroke-opacity:0.1;" x="0" xlink:href="#m97b9927e90" y="544.682704"/>
    </g>
   </g>
   <g id="PolyCollection_26">
    <defs>
     <path d="M 736.279574 -311.872335 
L 736.279574 -149.312049 
L 751.075028 -181.900352 
L 751.075028 -445.087466 
L 751.075028 -445.087466 
L 736.279574 -311.872335 
z
" id="mf0afde3120" style="stroke:#ff7700;stroke-opacity:0.1;"/>
    </defs>
    <g clip-path="url(#p8d6d1d1ffb)">
     <use style="fill:#ff7700;fill-opacity:0.1;stroke:#ff7700;stroke-opacity:0.1;" x="0" xlink:href="#mf0afde3120" y="544.682704"/>
    </g>
   </g>
   <g id="PolyCollection_27">
    <path clip-path="url(#p8d6d1d1ffb)" d="M 765.870483 -119.194371 
L 765.870483 433.568763 
L 780.665938 391.235368 
L 795.461392 461.757434 
L 810.256847 461.757434 
L 810.256847 -259.823732 
L 810.256847 -259.823732 
L 795.461392 -151.561399 
L 780.665938 -105.581823 
L 765.870483 -119.194371 
z
" style="fill:#ff5900;fill-opacity:0.1;stroke:#ff5900;stroke-opacity:0.1;"/>
   </g>
   <g id="PolyCollection_28">
    <defs>
     <path d="M 765.870483 -541.313138 
L 765.870483 -127.777357 
L 780.665938 -176.782505 
L 795.461392 -126.655132 
L 810.256847 -251.45032 
L 810.256847 -583.026813 
L 810.256847 -583.026813 
L 795.461392 -504.863635 
L 780.665938 -585.787531 
L 765.870483 -541.313138 
z
" id="m53e7490c01" style="stroke:#ff3b00;stroke-opacity:0.1;"/>
    </defs>
    <g clip-path="url(#p8d6d1d1ffb)">
     <use style="fill:#ff3b00;fill-opacity:0.1;stroke:#ff3b00;stroke-opacity:0.1;" x="0" xlink:href="#m53e7490c01" y="544.682704"/>
    </g>
   </g>
   <g id="PolyCollection_29">
    <defs>
     <path d="M 765.870483 -674.796549 
L 765.870483 -660.746224 
L 780.665938 -567.965184 
L 795.461392 -272.021214 
L 810.256847 -437.403717 
L 810.256847 -446.512958 
L 810.256847 -446.512958 
L 795.461392 -279.613681 
L 780.665938 -575.808109 
L 765.870483 -674.796549 
z
" id="mcc8a4f6133" style="stroke:#ff1e00;stroke-opacity:0.1;"/>
    </defs>
    <g clip-path="url(#p8d6d1d1ffb)">
     <use style="fill:#ff1e00;fill-opacity:0.1;stroke:#ff1e00;stroke-opacity:0.1;" x="0" xlink:href="#mcc8a4f6133" y="544.682704"/>
    </g>
   </g>
   <g id="PolyCollection_30">
    <defs>
     <path d="M 765.870483 -328.944907 
L 765.870483 -244.747869 
L 780.665938 -332.696604 
L 795.461392 -288.022682 
L 810.256847 -355.968254 
L 810.256847 -420.08779 
L 810.256847 -420.08779 
L 795.461392 -351.446257 
L 780.665938 -396.955988 
L 765.870483 -328.944907 
z
" id="m1e1a1863f4" style="stroke:#e80000;stroke-opacity:0.1;"/>
    </defs>
    <g clip-path="url(#p8d6d1d1ffb)">
     <use style="fill:#e80000;fill-opacity:0.1;stroke:#e80000;stroke-opacity:0.1;" x="0" xlink:href="#m1e1a1863f4" y="544.682704"/>
    </g>
   </g>
   <g id="PolyCollection_31">
    <defs>
     <path d="M 810.256847 -750.792106 
L 810.256847 -289.645543 
L 810.256847 -750.792106 
L 810.256847 -750.792106 
z
" id="mc44ec5d30d" style="stroke:#c40000;stroke-opacity:0.1;"/>
    </defs>
    <g clip-path="url(#p8d6d1d1ffb)">
     <use style="fill:#c40000;fill-opacity:0.1;stroke:#c40000;stroke-opacity:0.1;" x="0" xlink:href="#mc44ec5d30d" y="544.682704"/>
    </g>
   </g>
   <g id="PolyCollection_32">
    <defs>
     <path d="M 810.256847 -425.028307 
L 810.256847 -355.492233 
L 810.256847 -425.028307 
L 810.256847 -425.028307 
z
" id="mef5996b2ef" style="stroke:#9f0000;stroke-opacity:0.1;"/>
    </defs>
    <g clip-path="url(#p8d6d1d1ffb)">
     <use style="fill:#9f0000;fill-opacity:0.1;stroke:#9f0000;stroke-opacity:0.1;" x="0" xlink:href="#mef5996b2ef" y="544.682704"/>
    </g>
   </g>
   <g id="PolyCollection_33">
    <defs>
     <path d="M 810.256847 -879.907322 
L 810.256847 -374.796765 
L 810.256847 -879.907322 
L 810.256847 -879.907322 
z
" id="m296d5621da" style="stroke:#800000;stroke-opacity:0.1;"/>
    </defs>
    <g clip-path="url(#p8d6d1d1ffb)">
     <use style="fill:#800000;fill-opacity:0.1;stroke:#800000;stroke-opacity:0.1;" x="0" xlink:href="#m296d5621da" y="544.682704"/>
    </g>
   </g>
   <g id="matplotlib.axis_1">
    <g id="xtick_1">
     <g id="line2d_1">
      <defs>
       <path d="M 0 0 
L 0 3.5 
" id="mf6e5da79c6" style="stroke:#000000;stroke-width:0.8;"/>
      </defs>
      <g>
       <use style="stroke:#000000;stroke-width:0.8;" x="161.370483" xlink:href="#mf6e5da79c6" y="461.757187"/>
      </g>
     </g>
     <g id="text_1">
      <!-- 2020-03 -->
      <defs>
       <path d="M 19.1875 8.296875 
L 53.609375 8.296875 
L 53.609375 0 
L 7.328125 0 
L 7.328125 8.296875 
Q 12.9375 14.109375 22.625 23.890625 
Q 32.328125 33.6875 34.8125 36.53125 
Q 39.546875 41.84375 41.421875 45.53125 
Q 43.3125 49.21875 43.3125 52.78125 
Q 43.3125 58.59375 39.234375 62.25 
Q 35.15625 65.921875 28.609375 65.921875 
Q 23.96875 65.921875 18.8125 64.3125 
Q 13.671875 62.703125 7.8125 59.421875 
L 7.8125 69.390625 
Q 13.765625 71.78125 18.9375 73 
Q 24.125 74.21875 28.421875 74.21875 
Q 39.75 74.21875 46.484375 68.546875 
Q 53.21875 62.890625 53.21875 53.421875 
Q 53.21875 48.921875 51.53125 44.890625 
Q 49.859375 40.875 45.40625 35.40625 
Q 44.1875 33.984375 37.640625 27.21875 
Q 31.109375 20.453125 19.1875 8.296875 
z
" id="DejaVuSans-50"/>
       <path d="M 31.78125 66.40625 
Q 24.171875 66.40625 20.328125 58.90625 
Q 16.5 51.421875 16.5 36.375 
Q 16.5 21.390625 20.328125 13.890625 
Q 24.171875 6.390625 31.78125 6.390625 
Q 39.453125 6.390625 43.28125 13.890625 
Q 47.125 21.390625 47.125 36.375 
Q 47.125 51.421875 43.28125 58.90625 
Q 39.453125 66.40625 31.78125 66.40625 
z
M 31.78125 74.21875 
Q 44.046875 74.21875 50.515625 64.515625 
Q 56.984375 54.828125 56.984375 36.375 
Q 56.984375 17.96875 50.515625 8.265625 
Q 44.046875 -1.421875 31.78125 -1.421875 
Q 19.53125 -1.421875 13.0625 8.265625 
Q 6.59375 17.96875 6.59375 36.375 
Q 6.59375 54.828125 13.0625 64.515625 
Q 19.53125 74.21875 31.78125 74.21875 
z
" id="DejaVuSans-48"/>
       <path d="M 4.890625 31.390625 
L 31.203125 31.390625 
L 31.203125 23.390625 
L 4.890625 23.390625 
z
" id="DejaVuSans-45"/>
       <path d="M 40.578125 39.3125 
Q 47.65625 37.796875 51.625 33 
Q 55.609375 28.21875 55.609375 21.1875 
Q 55.609375 10.40625 48.1875 4.484375 
Q 40.765625 -1.421875 27.09375 -1.421875 
Q 22.515625 -1.421875 17.65625 -0.515625 
Q 12.796875 0.390625 7.625 2.203125 
L 7.625 11.71875 
Q 11.71875 9.328125 16.59375 8.109375 
Q 21.484375 6.890625 26.8125 6.890625 
Q 36.078125 6.890625 40.9375 10.546875 
Q 45.796875 14.203125 45.796875 21.1875 
Q 45.796875 27.640625 41.28125 31.265625 
Q 36.765625 34.90625 28.71875 34.90625 
L 20.21875 34.90625 
L 20.21875 43.015625 
L 29.109375 43.015625 
Q 36.375 43.015625 40.234375 45.921875 
Q 44.09375 48.828125 44.09375 54.296875 
Q 44.09375 59.90625 40.109375 62.90625 
Q 36.140625 65.921875 28.71875 65.921875 
Q 24.65625 65.921875 20.015625 65.03125 
Q 15.375 64.15625 9.8125 62.3125 
L 9.8125 71.09375 
Q 15.4375 72.65625 20.34375 73.4375 
Q 25.25 74.21875 29.59375 74.21875 
Q 40.828125 74.21875 47.359375 69.109375 
Q 53.90625 64.015625 53.90625 55.328125 
Q 53.90625 49.265625 50.4375 45.09375 
Q 46.96875 40.921875 40.578125 39.3125 
z
" id="DejaVuSans-51"/>
      </defs>
      <g transform="translate(144.702816 514.150349)rotate(-45)scale(0.13 -0.13)">
       <use xlink:href="#DejaVuSans-50"/>
       <use x="63.623047" xlink:href="#DejaVuSans-48"/>
       <use x="127.246094" xlink:href="#DejaVuSans-50"/>
       <use x="190.869141" xlink:href="#DejaVuSans-48"/>
       <use x="254.492188" xlink:href="#DejaVuSans-45"/>
       <use x="290.576172" xlink:href="#DejaVuSans-48"/>
       <use x="354.199219" xlink:href="#DejaVuSans-51"/>
      </g>
     </g>
    </g>
    <g id="xtick_2">
     <g id="line2d_2">
      <g>
       <use style="stroke:#000000;stroke-width:0.8;" x="290.302301" xlink:href="#mf6e5da79c6" y="461.757187"/>
      </g>
     </g>
     <g id="text_2">
      <!-- 2020-05 -->
      <defs>
       <path d="M 10.796875 72.90625 
L 49.515625 72.90625 
L 49.515625 64.59375 
L 19.828125 64.59375 
L 19.828125 46.734375 
Q 21.96875 47.46875 24.109375 47.828125 
Q 26.265625 48.1875 28.421875 48.1875 
Q 40.625 48.1875 47.75 41.5 
Q 54.890625 34.8125 54.890625 23.390625 
Q 54.890625 11.625 47.5625 5.09375 
Q 40.234375 -1.421875 26.90625 -1.421875 
Q 22.3125 -1.421875 17.546875 -0.640625 
Q 12.796875 0.140625 7.71875 1.703125 
L 7.71875 11.625 
Q 12.109375 9.234375 16.796875 8.0625 
Q 21.484375 6.890625 26.703125 6.890625 
Q 35.15625 6.890625 40.078125 11.328125 
Q 45.015625 15.765625 45.015625 23.390625 
Q 45.015625 31 40.078125 35.4375 
Q 35.15625 39.890625 26.703125 39.890625 
Q 22.75 39.890625 18.8125 39.015625 
Q 14.890625 38.140625 10.796875 36.28125 
z
" id="DejaVuSans-53"/>
      </defs>
      <g transform="translate(273.634634 514.150349)rotate(-45)scale(0.13 -0.13)">
       <use xlink:href="#DejaVuSans-50"/>
       <use x="63.623047" xlink:href="#DejaVuSans-48"/>
       <use x="127.246094" xlink:href="#DejaVuSans-50"/>
       <use x="190.869141" xlink:href="#DejaVuSans-48"/>
       <use x="254.492188" xlink:href="#DejaVuSans-45"/>
       <use x="290.576172" xlink:href="#DejaVuSans-48"/>
       <use x="354.199219" xlink:href="#DejaVuSans-53"/>
      </g>
     </g>
    </g>
    <g id="xtick_3">
     <g id="line2d_3">
      <g>
       <use style="stroke:#000000;stroke-width:0.8;" x="419.234119" xlink:href="#mf6e5da79c6" y="461.757187"/>
      </g>
     </g>
     <g id="text_3">
      <!-- 2020-07 -->
      <defs>
       <path d="M 8.203125 72.90625 
L 55.078125 72.90625 
L 55.078125 68.703125 
L 28.609375 0 
L 18.3125 0 
L 43.21875 64.59375 
L 8.203125 64.59375 
z
" id="DejaVuSans-55"/>
      </defs>
      <g transform="translate(402.566452 514.150349)rotate(-45)scale(0.13 -0.13)">
       <use xlink:href="#DejaVuSans-50"/>
       <use x="63.623047" xlink:href="#DejaVuSans-48"/>
       <use x="127.246094" xlink:href="#DejaVuSans-50"/>
       <use x="190.869141" xlink:href="#DejaVuSans-48"/>
       <use x="254.492188" xlink:href="#DejaVuSans-45"/>
       <use x="290.576172" xlink:href="#DejaVuSans-48"/>
       <use x="354.199219" xlink:href="#DejaVuSans-55"/>
      </g>
     </g>
    </g>
    <g id="xtick_4">
     <g id="line2d_4">
      <g>
       <use style="stroke:#000000;stroke-width:0.8;" x="550.279574" xlink:href="#mf6e5da79c6" y="461.757187"/>
      </g>
     </g>
     <g id="text_4">
      <!-- 2020-09 -->
      <defs>
       <path d="M 10.984375 1.515625 
L 10.984375 10.5 
Q 14.703125 8.734375 18.5 7.8125 
Q 22.3125 6.890625 25.984375 6.890625 
Q 35.75 6.890625 40.890625 13.453125 
Q 46.046875 20.015625 46.78125 33.40625 
Q 43.953125 29.203125 39.59375 26.953125 
Q 35.25 24.703125 29.984375 24.703125 
Q 19.046875 24.703125 12.671875 31.3125 
Q 6.296875 37.9375 6.296875 49.421875 
Q 6.296875 60.640625 12.9375 67.421875 
Q 19.578125 74.21875 30.609375 74.21875 
Q 43.265625 74.21875 49.921875 64.515625 
Q 56.59375 54.828125 56.59375 36.375 
Q 56.59375 19.140625 48.40625 8.859375 
Q 40.234375 -1.421875 26.421875 -1.421875 
Q 22.703125 -1.421875 18.890625 -0.6875 
Q 15.09375 0.046875 10.984375 1.515625 
z
M 30.609375 32.421875 
Q 37.25 32.421875 41.125 36.953125 
Q 45.015625 41.5 45.015625 49.421875 
Q 45.015625 57.28125 41.125 61.84375 
Q 37.25 66.40625 30.609375 66.40625 
Q 23.96875 66.40625 20.09375 61.84375 
Q 16.21875 57.28125 16.21875 49.421875 
Q 16.21875 41.5 20.09375 36.953125 
Q 23.96875 32.421875 30.609375 32.421875 
z
" id="DejaVuSans-57"/>
      </defs>
      <g transform="translate(533.611907 514.150349)rotate(-45)scale(0.13 -0.13)">
       <use xlink:href="#DejaVuSans-50"/>
       <use x="63.623047" xlink:href="#DejaVuSans-48"/>
       <use x="127.246094" xlink:href="#DejaVuSans-50"/>
       <use x="190.869141" xlink:href="#DejaVuSans-48"/>
       <use x="254.492188" xlink:href="#DejaVuSans-45"/>
       <use x="290.576172" xlink:href="#DejaVuSans-48"/>
       <use x="354.199219" xlink:href="#DejaVuSans-57"/>
      </g>
     </g>
    </g>
    <g id="xtick_5">
     <g id="line2d_5">
      <g>
       <use style="stroke:#000000;stroke-width:0.8;" x="679.211392" xlink:href="#mf6e5da79c6" y="461.757187"/>
      </g>
     </g>
     <g id="text_5">
      <!-- 2020-11 -->
      <defs>
       <path d="M 12.40625 8.296875 
L 28.515625 8.296875 
L 28.515625 63.921875 
L 10.984375 60.40625 
L 10.984375 69.390625 
L 28.421875 72.90625 
L 38.28125 72.90625 
L 38.28125 8.296875 
L 54.390625 8.296875 
L 54.390625 0 
L 12.40625 0 
z
" id="DejaVuSans-49"/>
      </defs>
      <g transform="translate(662.543725 514.150349)rotate(-45)scale(0.13 -0.13)">
       <use xlink:href="#DejaVuSans-50"/>
       <use x="63.623047" xlink:href="#DejaVuSans-48"/>
       <use x="127.246094" xlink:href="#DejaVuSans-50"/>
       <use x="190.869141" xlink:href="#DejaVuSans-48"/>
       <use x="254.492188" xlink:href="#DejaVuSans-45"/>
       <use x="290.576172" xlink:href="#DejaVuSans-49"/>
       <use x="354.199219" xlink:href="#DejaVuSans-49"/>
      </g>
     </g>
    </g>
    <g id="xtick_6">
     <g id="line2d_6">
      <g>
       <use style="stroke:#000000;stroke-width:0.8;" x="808.14321" xlink:href="#mf6e5da79c6" y="461.757187"/>
      </g>
     </g>
     <g id="text_6">
      <!-- 2021-01 -->
      <g transform="translate(791.475543 514.150349)rotate(-45)scale(0.13 -0.13)">
       <use xlink:href="#DejaVuSans-50"/>
       <use x="63.623047" xlink:href="#DejaVuSans-48"/>
       <use x="127.246094" xlink:href="#DejaVuSans-50"/>
       <use x="190.869141" xlink:href="#DejaVuSans-49"/>
       <use x="254.492188" xlink:href="#DejaVuSans-45"/>
       <use x="290.576172" xlink:href="#DejaVuSans-48"/>
       <use x="354.199219" xlink:href="#DejaVuSans-49"/>
      </g>
     </g>
    </g>
    <g id="text_7">
     <!-- Date -->
     <defs>
      <path d="M 19.671875 64.796875 
L 19.671875 8.109375 
L 31.59375 8.109375 
Q 46.6875 8.109375 53.6875 14.9375 
Q 60.6875 21.78125 60.6875 36.53125 
Q 60.6875 51.171875 53.6875 57.984375 
Q 46.6875 64.796875 31.59375 64.796875 
z
M 9.8125 72.90625 
L 30.078125 72.90625 
Q 51.265625 72.90625 61.171875 64.09375 
Q 71.09375 55.28125 71.09375 36.53125 
Q 71.09375 17.671875 61.125 8.828125 
Q 51.171875 0 30.078125 0 
L 9.8125 0 
z
" id="DejaVuSans-68"/>
      <path d="M 34.28125 27.484375 
Q 23.390625 27.484375 19.1875 25 
Q 14.984375 22.515625 14.984375 16.5 
Q 14.984375 11.71875 18.140625 8.90625 
Q 21.296875 6.109375 26.703125 6.109375 
Q 34.1875 6.109375 38.703125 11.40625 
Q 43.21875 16.703125 43.21875 25.484375 
L 43.21875 27.484375 
z
M 52.203125 31.203125 
L 52.203125 0 
L 43.21875 0 
L 43.21875 8.296875 
Q 40.140625 3.328125 35.546875 0.953125 
Q 30.953125 -1.421875 24.3125 -1.421875 
Q 15.921875 -1.421875 10.953125 3.296875 
Q 6 8.015625 6 15.921875 
Q 6 25.140625 12.171875 29.828125 
Q 18.359375 34.515625 30.609375 34.515625 
L 43.21875 34.515625 
L 43.21875 35.40625 
Q 43.21875 41.609375 39.140625 45 
Q 35.0625 48.390625 27.6875 48.390625 
Q 23 48.390625 18.546875 47.265625 
Q 14.109375 46.140625 10.015625 43.890625 
L 10.015625 52.203125 
Q 14.9375 54.109375 19.578125 55.046875 
Q 24.21875 56 28.609375 56 
Q 40.484375 56 46.34375 49.84375 
Q 52.203125 43.703125 52.203125 31.203125 
z
" id="DejaVuSans-97"/>
      <path d="M 18.3125 70.21875 
L 18.3125 54.6875 
L 36.8125 54.6875 
L 36.8125 47.703125 
L 18.3125 47.703125 
L 18.3125 18.015625 
Q 18.3125 11.328125 20.140625 9.421875 
Q 21.96875 7.515625 27.59375 7.515625 
L 36.8125 7.515625 
L 36.8125 0 
L 27.59375 0 
Q 17.1875 0 13.234375 3.875 
Q 9.28125 7.765625 9.28125 18.015625 
L 9.28125 47.703125 
L 2.6875 47.703125 
L 2.6875 54.6875 
L 9.28125 54.6875 
L 9.28125 70.21875 
z
" id="DejaVuSans-116"/>
      <path d="M 56.203125 29.59375 
L 56.203125 25.203125 
L 14.890625 25.203125 
Q 15.484375 15.921875 20.484375 11.0625 
Q 25.484375 6.203125 34.421875 6.203125 
Q 39.59375 6.203125 44.453125 7.46875 
Q 49.3125 8.734375 54.109375 11.28125 
L 54.109375 2.78125 
Q 49.265625 0.734375 44.1875 -0.34375 
Q 39.109375 -1.421875 33.890625 -1.421875 
Q 20.796875 -1.421875 13.15625 6.1875 
Q 5.515625 13.8125 5.515625 26.8125 
Q 5.515625 40.234375 12.765625 48.109375 
Q 20.015625 56 32.328125 56 
Q 43.359375 56 49.78125 48.890625 
Q 56.203125 41.796875 56.203125 29.59375 
z
M 47.21875 32.234375 
Q 47.125 39.59375 43.09375 43.984375 
Q 39.0625 48.390625 32.421875 48.390625 
Q 24.90625 48.390625 20.390625 44.140625 
Q 15.875 39.890625 15.1875 32.171875 
z
" id="DejaVuSans-101"/>
     </defs>
     <g transform="translate(433.654531 533.739266)scale(0.18 -0.18)">
      <use xlink:href="#DejaVuSans-68"/>
      <use x="77.001953" xlink:href="#DejaVuSans-97"/>
      <use x="138.28125" xlink:href="#DejaVuSans-116"/>
      <use x="177.490234" xlink:href="#DejaVuSans-101"/>
     </g>
    </g>
   </g>
   <g id="matplotlib.axis_2">
    <g id="ytick_1">
     <g id="line2d_7">
      <defs>
       <path d="M 0 0 
L -3.5 0 
" id="m1ddec4933d" style="stroke:#000000;stroke-width:0.8;"/>
      </defs>
      <g>
       <use style="stroke:#000000;stroke-width:0.8;" x="64.565938" xlink:href="#m1ddec4933d" y="410.417777"/>
      </g>
     </g>
     <g id="text_8">
      <!-- 0.25 -->
      <defs>
       <path d="M 10.6875 12.40625 
L 21 12.40625 
L 21 0 
L 10.6875 0 
z
" id="DejaVuSans-46"/>
      </defs>
      <g transform="translate(28.620625 415.356761)scale(0.13 -0.13)">
       <use xlink:href="#DejaVuSans-48"/>
       <use x="63.623047" xlink:href="#DejaVuSans-46"/>
       <use x="95.410156" xlink:href="#DejaVuSans-50"/>
       <use x="159.033203" xlink:href="#DejaVuSans-53"/>
      </g>
     </g>
    </g>
    <g id="ytick_2">
     <g id="line2d_8">
      <g>
       <use style="stroke:#000000;stroke-width:0.8;" x="64.565938" xlink:href="#m1ddec4933d" y="359.07812"/>
      </g>
     </g>
     <g id="text_9">
      <!-- 0.50 -->
      <g transform="translate(28.620625 364.017104)scale(0.13 -0.13)">
       <use xlink:href="#DejaVuSans-48"/>
       <use x="63.623047" xlink:href="#DejaVuSans-46"/>
       <use x="95.410156" xlink:href="#DejaVuSans-53"/>
       <use x="159.033203" xlink:href="#DejaVuSans-48"/>
      </g>
     </g>
    </g>
    <g id="ytick_3">
     <g id="line2d_9">
      <g>
       <use style="stroke:#000000;stroke-width:0.8;" x="64.565938" xlink:href="#m1ddec4933d" y="307.738462"/>
      </g>
     </g>
     <g id="text_10">
      <!-- 0.75 -->
      <g transform="translate(28.620625 312.677447)scale(0.13 -0.13)">
       <use xlink:href="#DejaVuSans-48"/>
       <use x="63.623047" xlink:href="#DejaVuSans-46"/>
       <use x="95.410156" xlink:href="#DejaVuSans-55"/>
       <use x="159.033203" xlink:href="#DejaVuSans-53"/>
      </g>
     </g>
    </g>
    <g id="ytick_4">
     <g id="line2d_10">
      <g>
       <use style="stroke:#000000;stroke-width:0.8;" x="64.565938" xlink:href="#m1ddec4933d" y="256.398805"/>
      </g>
     </g>
     <g id="text_11">
      <!-- 1.00 -->
      <g transform="translate(28.620625 261.33779)scale(0.13 -0.13)">
       <use xlink:href="#DejaVuSans-49"/>
       <use x="63.623047" xlink:href="#DejaVuSans-46"/>
       <use x="95.410156" xlink:href="#DejaVuSans-48"/>
       <use x="159.033203" xlink:href="#DejaVuSans-48"/>
      </g>
     </g>
    </g>
    <g id="ytick_5">
     <g id="line2d_11">
      <g>
       <use style="stroke:#000000;stroke-width:0.8;" x="64.565938" xlink:href="#m1ddec4933d" y="205.059148"/>
      </g>
     </g>
     <g id="text_12">
      <!-- 1.25 -->
      <g transform="translate(28.620625 209.998132)scale(0.13 -0.13)">
       <use xlink:href="#DejaVuSans-49"/>
       <use x="63.623047" xlink:href="#DejaVuSans-46"/>
       <use x="95.410156" xlink:href="#DejaVuSans-50"/>
       <use x="159.033203" xlink:href="#DejaVuSans-53"/>
      </g>
     </g>
    </g>
    <g id="ytick_6">
     <g id="line2d_12">
      <g>
       <use style="stroke:#000000;stroke-width:0.8;" x="64.565938" xlink:href="#m1ddec4933d" y="153.719491"/>
      </g>
     </g>
     <g id="text_13">
      <!-- 1.50 -->
      <g transform="translate(28.620625 158.658475)scale(0.13 -0.13)">
       <use xlink:href="#DejaVuSans-49"/>
       <use x="63.623047" xlink:href="#DejaVuSans-46"/>
       <use x="95.410156" xlink:href="#DejaVuSans-53"/>
       <use x="159.033203" xlink:href="#DejaVuSans-48"/>
      </g>
     </g>
    </g>
    <g id="ytick_7">
     <g id="line2d_13">
      <g>
       <use style="stroke:#000000;stroke-width:0.8;" x="64.565938" xlink:href="#m1ddec4933d" y="102.379834"/>
      </g>
     </g>
     <g id="text_14">
      <!-- 1.75 -->
      <g transform="translate(28.620625 107.318818)scale(0.13 -0.13)">
       <use xlink:href="#DejaVuSans-49"/>
       <use x="63.623047" xlink:href="#DejaVuSans-46"/>
       <use x="95.410156" xlink:href="#DejaVuSans-55"/>
       <use x="159.033203" xlink:href="#DejaVuSans-53"/>
      </g>
     </g>
    </g>
    <g id="ytick_8">
     <g id="line2d_14">
      <g>
       <use style="stroke:#000000;stroke-width:0.8;" x="64.565938" xlink:href="#m1ddec4933d" y="51.040177"/>
      </g>
     </g>
     <g id="text_15">
      <!-- 2.00 -->
      <g transform="translate(28.620625 55.979161)scale(0.13 -0.13)">
       <use xlink:href="#DejaVuSans-50"/>
       <use x="63.623047" xlink:href="#DejaVuSans-46"/>
       <use x="95.410156" xlink:href="#DejaVuSans-48"/>
       <use x="159.033203" xlink:href="#DejaVuSans-48"/>
      </g>
     </g>
    </g>
    <g id="text_16">
     <!-- US weekly incidental cases -->
     <defs>
      <path d="M 8.6875 72.90625 
L 18.609375 72.90625 
L 18.609375 28.609375 
Q 18.609375 16.890625 22.84375 11.734375 
Q 27.09375 6.59375 36.625 6.59375 
Q 46.09375 6.59375 50.34375 11.734375 
Q 54.59375 16.890625 54.59375 28.609375 
L 54.59375 72.90625 
L 64.5 72.90625 
L 64.5 27.390625 
Q 64.5 13.140625 57.4375 5.859375 
Q 50.390625 -1.421875 36.625 -1.421875 
Q 22.796875 -1.421875 15.734375 5.859375 
Q 8.6875 13.140625 8.6875 27.390625 
z
" id="DejaVuSans-85"/>
      <path d="M 53.515625 70.515625 
L 53.515625 60.890625 
Q 47.90625 63.578125 42.921875 64.890625 
Q 37.9375 66.21875 33.296875 66.21875 
Q 25.25 66.21875 20.875 63.09375 
Q 16.5 59.96875 16.5 54.203125 
Q 16.5 49.359375 19.40625 46.890625 
Q 22.3125 44.4375 30.421875 42.921875 
L 36.375 41.703125 
Q 47.40625 39.59375 52.65625 34.296875 
Q 57.90625 29 57.90625 20.125 
Q 57.90625 9.515625 50.796875 4.046875 
Q 43.703125 -1.421875 29.984375 -1.421875 
Q 24.8125 -1.421875 18.96875 -0.25 
Q 13.140625 0.921875 6.890625 3.21875 
L 6.890625 13.375 
Q 12.890625 10.015625 18.65625 8.296875 
Q 24.421875 6.59375 29.984375 6.59375 
Q 38.421875 6.59375 43.015625 9.90625 
Q 47.609375 13.234375 47.609375 19.390625 
Q 47.609375 24.75 44.3125 27.78125 
Q 41.015625 30.8125 33.5 32.328125 
L 27.484375 33.5 
Q 16.453125 35.6875 11.515625 40.375 
Q 6.59375 45.0625 6.59375 53.421875 
Q 6.59375 63.09375 13.40625 68.65625 
Q 20.21875 74.21875 32.171875 74.21875 
Q 37.3125 74.21875 42.625 73.28125 
Q 47.953125 72.359375 53.515625 70.515625 
z
" id="DejaVuSans-83"/>
      <path id="DejaVuSans-32"/>
      <path d="M 4.203125 54.6875 
L 13.1875 54.6875 
L 24.421875 12.015625 
L 35.59375 54.6875 
L 46.1875 54.6875 
L 57.421875 12.015625 
L 68.609375 54.6875 
L 77.59375 54.6875 
L 63.28125 0 
L 52.6875 0 
L 40.921875 44.828125 
L 29.109375 0 
L 18.5 0 
z
" id="DejaVuSans-119"/>
      <path d="M 9.078125 75.984375 
L 18.109375 75.984375 
L 18.109375 31.109375 
L 44.921875 54.6875 
L 56.390625 54.6875 
L 27.390625 29.109375 
L 57.625 0 
L 45.90625 0 
L 18.109375 26.703125 
L 18.109375 0 
L 9.078125 0 
z
" id="DejaVuSans-107"/>
      <path d="M 9.421875 75.984375 
L 18.40625 75.984375 
L 18.40625 0 
L 9.421875 0 
z
" id="DejaVuSans-108"/>
      <path d="M 32.171875 -5.078125 
Q 28.375 -14.84375 24.75 -17.8125 
Q 21.140625 -20.796875 15.09375 -20.796875 
L 7.90625 -20.796875 
L 7.90625 -13.28125 
L 13.1875 -13.28125 
Q 16.890625 -13.28125 18.9375 -11.515625 
Q 21 -9.765625 23.484375 -3.21875 
L 25.09375 0.875 
L 2.984375 54.6875 
L 12.5 54.6875 
L 29.59375 11.921875 
L 46.6875 54.6875 
L 56.203125 54.6875 
z
" id="DejaVuSans-121"/>
      <path d="M 9.421875 54.6875 
L 18.40625 54.6875 
L 18.40625 0 
L 9.421875 0 
z
M 9.421875 75.984375 
L 18.40625 75.984375 
L 18.40625 64.59375 
L 9.421875 64.59375 
z
" id="DejaVuSans-105"/>
      <path d="M 54.890625 33.015625 
L 54.890625 0 
L 45.90625 0 
L 45.90625 32.71875 
Q 45.90625 40.484375 42.875 44.328125 
Q 39.84375 48.1875 33.796875 48.1875 
Q 26.515625 48.1875 22.3125 43.546875 
Q 18.109375 38.921875 18.109375 30.90625 
L 18.109375 0 
L 9.078125 0 
L 9.078125 54.6875 
L 18.109375 54.6875 
L 18.109375 46.1875 
Q 21.34375 51.125 25.703125 53.5625 
Q 30.078125 56 35.796875 56 
Q 45.21875 56 50.046875 50.171875 
Q 54.890625 44.34375 54.890625 33.015625 
z
" id="DejaVuSans-110"/>
      <path d="M 48.78125 52.59375 
L 48.78125 44.1875 
Q 44.96875 46.296875 41.140625 47.34375 
Q 37.3125 48.390625 33.40625 48.390625 
Q 24.65625 48.390625 19.8125 42.84375 
Q 14.984375 37.3125 14.984375 27.296875 
Q 14.984375 17.28125 19.8125 11.734375 
Q 24.65625 6.203125 33.40625 6.203125 
Q 37.3125 6.203125 41.140625 7.25 
Q 44.96875 8.296875 48.78125 10.40625 
L 48.78125 2.09375 
Q 45.015625 0.34375 40.984375 -0.53125 
Q 36.96875 -1.421875 32.421875 -1.421875 
Q 20.0625 -1.421875 12.78125 6.34375 
Q 5.515625 14.109375 5.515625 27.296875 
Q 5.515625 40.671875 12.859375 48.328125 
Q 20.21875 56 33.015625 56 
Q 37.15625 56 41.109375 55.140625 
Q 45.0625 54.296875 48.78125 52.59375 
z
" id="DejaVuSans-99"/>
      <path d="M 45.40625 46.390625 
L 45.40625 75.984375 
L 54.390625 75.984375 
L 54.390625 0 
L 45.40625 0 
L 45.40625 8.203125 
Q 42.578125 3.328125 38.25 0.953125 
Q 33.9375 -1.421875 27.875 -1.421875 
Q 17.96875 -1.421875 11.734375 6.484375 
Q 5.515625 14.40625 5.515625 27.296875 
Q 5.515625 40.1875 11.734375 48.09375 
Q 17.96875 56 27.875 56 
Q 33.9375 56 38.25 53.625 
Q 42.578125 51.265625 45.40625 46.390625 
z
M 14.796875 27.296875 
Q 14.796875 17.390625 18.875 11.75 
Q 22.953125 6.109375 30.078125 6.109375 
Q 37.203125 6.109375 41.296875 11.75 
Q 45.40625 17.390625 45.40625 27.296875 
Q 45.40625 37.203125 41.296875 42.84375 
Q 37.203125 48.484375 30.078125 48.484375 
Q 22.953125 48.484375 18.875 42.84375 
Q 14.796875 37.203125 14.796875 27.296875 
z
" id="DejaVuSans-100"/>
      <path d="M 44.28125 53.078125 
L 44.28125 44.578125 
Q 40.484375 46.53125 36.375 47.5 
Q 32.28125 48.484375 27.875 48.484375 
Q 21.1875 48.484375 17.84375 46.4375 
Q 14.5 44.390625 14.5 40.28125 
Q 14.5 37.15625 16.890625 35.375 
Q 19.28125 33.59375 26.515625 31.984375 
L 29.59375 31.296875 
Q 39.15625 29.25 43.1875 25.515625 
Q 47.21875 21.78125 47.21875 15.09375 
Q 47.21875 7.46875 41.1875 3.015625 
Q 35.15625 -1.421875 24.609375 -1.421875 
Q 20.21875 -1.421875 15.453125 -0.5625 
Q 10.6875 0.296875 5.421875 2 
L 5.421875 11.28125 
Q 10.40625 8.6875 15.234375 7.390625 
Q 20.0625 6.109375 24.8125 6.109375 
Q 31.15625 6.109375 34.5625 8.28125 
Q 37.984375 10.453125 37.984375 14.40625 
Q 37.984375 18.0625 35.515625 20.015625 
Q 33.0625 21.96875 24.703125 23.78125 
L 21.578125 24.515625 
Q 13.234375 26.265625 9.515625 29.90625 
Q 5.8125 33.546875 5.8125 39.890625 
Q 5.8125 47.609375 11.28125 51.796875 
Q 16.75 56 26.8125 56 
Q 31.78125 56 36.171875 55.265625 
Q 40.578125 54.546875 44.28125 53.078125 
z
" id="DejaVuSans-115"/>
     </defs>
     <g transform="translate(20.877187 366.203906)rotate(-90)scale(0.18 -0.18)">
      <use xlink:href="#DejaVuSans-85"/>
      <use x="73.193359" xlink:href="#DejaVuSans-83"/>
      <use x="136.669922" xlink:href="#DejaVuSans-32"/>
      <use x="168.457031" xlink:href="#DejaVuSans-119"/>
      <use x="250.244141" xlink:href="#DejaVuSans-101"/>
      <use x="311.767578" xlink:href="#DejaVuSans-101"/>
      <use x="373.291016" xlink:href="#DejaVuSans-107"/>
      <use x="431.201172" xlink:href="#DejaVuSans-108"/>
      <use x="458.984375" xlink:href="#DejaVuSans-121"/>
      <use x="518.164062" xlink:href="#DejaVuSans-32"/>
      <use x="549.951172" xlink:href="#DejaVuSans-105"/>
      <use x="577.734375" xlink:href="#DejaVuSans-110"/>
      <use x="641.113281" xlink:href="#DejaVuSans-99"/>
      <use x="696.09375" xlink:href="#DejaVuSans-105"/>
      <use x="723.876953" xlink:href="#DejaVuSans-100"/>
      <use x="787.353516" xlink:href="#DejaVuSans-101"/>
      <use x="848.876953" xlink:href="#DejaVuSans-110"/>
      <use x="912.255859" xlink:href="#DejaVuSans-116"/>
      <use x="951.464844" xlink:href="#DejaVuSans-97"/>
      <use x="1012.744141" xlink:href="#DejaVuSans-108"/>
      <use x="1040.527344" xlink:href="#DejaVuSans-32"/>
      <use x="1072.314453" xlink:href="#DejaVuSans-99"/>
      <use x="1127.294922" xlink:href="#DejaVuSans-97"/>
      <use x="1188.574219" xlink:href="#DejaVuSans-115"/>
      <use x="1240.673828" xlink:href="#DejaVuSans-101"/>
      <use x="1302.197266" xlink:href="#DejaVuSans-115"/>
     </g>
    </g>
    <g id="text_17">
     <!-- 1e6 -->
     <defs>
      <path d="M 33.015625 40.375 
Q 26.375 40.375 22.484375 35.828125 
Q 18.609375 31.296875 18.609375 23.390625 
Q 18.609375 15.53125 22.484375 10.953125 
Q 26.375 6.390625 33.015625 6.390625 
Q 39.65625 6.390625 43.53125 10.953125 
Q 47.40625 15.53125 47.40625 23.390625 
Q 47.40625 31.296875 43.53125 35.828125 
Q 39.65625 40.375 33.015625 40.375 
z
M 52.59375 71.296875 
L 52.59375 62.3125 
Q 48.875 64.0625 45.09375 64.984375 
Q 41.3125 65.921875 37.59375 65.921875 
Q 27.828125 65.921875 22.671875 59.328125 
Q 17.53125 52.734375 16.796875 39.40625 
Q 19.671875 43.65625 24.015625 45.921875 
Q 28.375 48.1875 33.59375 48.1875 
Q 44.578125 48.1875 50.953125 41.515625 
Q 57.328125 34.859375 57.328125 23.390625 
Q 57.328125 12.15625 50.6875 5.359375 
Q 44.046875 -1.421875 33.015625 -1.421875 
Q 20.359375 -1.421875 13.671875 8.265625 
Q 6.984375 17.96875 6.984375 36.375 
Q 6.984375 53.65625 15.1875 63.9375 
Q 23.390625 74.21875 37.203125 74.21875 
Q 40.921875 74.21875 44.703125 73.484375 
Q 48.484375 72.75 52.59375 71.296875 
z
" id="DejaVuSans-54"/>
     </defs>
     <g transform="translate(64.565938 23.877187)scale(0.1 -0.1)">
      <use xlink:href="#DejaVuSans-49"/>
      <use x="63.623047" xlink:href="#DejaVuSans-101"/>
      <use x="125.146484" xlink:href="#DejaVuSans-54"/>
     </g>
    </g>
   </g>
   <g id="line2d_15">
    <path clip-path="url(#p8d6d1d1ffb)" d="M 292.415938 423.280004 
L 307.211392 417.083102 
L 322.006847 419.494423 
L 336.802301 418.592077 
L 351.597756 421.838797 
L 366.39321 425.406698 
L 381.188665 429.255324 
L 395.984119 429.969561 
L 410.779574 431.456152 
L 425.575028 430.974997 
L 440.370483 431.366821 
L 455.165938 424.671103 
L 469.961392 409.420966 
L 484.756847 394.158097 
L 499.552301 378.652083 
L 514.347756 366.165457 
L 529.14321 365.935455 
L 543.938665 371.096939 
L 558.734119 384.268025 
L 573.529574 387.163787 
L 588.325028 398.928578 
L 603.120483 401.377068 
L 617.915938 403.461048 
L 632.711392 412.421256 
L 647.506847 404.288438 
L 662.302301 398.10242 
L 677.097756 399.628645 
L 691.89321 392.840926 
L 706.688665 381.985464 
L 721.484119 365.486746 
L 736.279574 349.084547 
L 751.075028 312.430086 
L 765.870483 252.741368 
L 780.665938 218.506031 
L 795.461392 227.569534 
L 810.256847 187.267698 
" style="fill:none;stroke:#000080;stroke-linecap:square;stroke-width:1.5;"/>
   </g>
   <g id="line2d_16">
    <path clip-path="url(#p8d6d1d1ffb)" d="M 469.961392 406.221346 
L 484.756847 403.086946 
L 499.552301 396.926112 
L 514.347756 392.672707 
L 529.14321 394.937993 
L 543.938665 413.842198 
L 558.734119 413.319701 
L 573.529574 421.409461 
L 588.325028 425.340707 
L 603.120483 428.760627 
L 617.915938 434.748324 
L 632.711392 432.08346 
L 647.506847 431.013706 
L 662.302301 426.985027 
L 677.097756 421.24089 
L 691.89321 412.12456 
L 706.688665 409.476305 
L 721.484119 311.439744 
L 736.279574 238.941474 
L 751.075028 103.224782 
L 765.870483 49.328512 
L 780.665938 205.60725 
L 795.461392 236.619484 
L 810.256847 82.076745 
" style="fill:none;stroke:#0000a4;stroke-linecap:square;stroke-width:1.5;"/>
   </g>
   <g id="line2d_17">
    <path clip-path="url(#p8d6d1d1ffb)" d="M 484.756847 433.470058 
L 499.552301 379.154717 
L 514.347756 143.139228 
L 529.14321 267.88545 
L 543.938665 366.527524 
L 558.734119 350.694635 
L 573.529574 425.586046 
L 588.325028 427.496164 
L 603.120483 431.189447 
L 617.915938 438.573868 
L 632.711392 440.938998 
L 647.506847 435.488856 
L 677.097756 435.8334 
L 691.89321 426.006252 
L 706.688665 381.995387 
L 721.484119 335.06364 
L 736.279574 317.352146 
L 751.075028 75.202985 
L 765.47169 -1 
M 766.398303 -1 
L 780.665938 56.059 
L 795.461392 403.13852 
L 810.256847 71.7072 
" style="fill:none;stroke:#0000c8;stroke-linecap:square;stroke-width:1.5;"/>
   </g>
   <g id="line2d_18">
    <path clip-path="url(#p8d6d1d1ffb)" d="M 484.756847 404.304348 
L 499.552301 398.910488 
L 514.347756 379.250404 
L 529.14321 386.131737 
L 543.938665 409.067009 
L 558.734119 415.992138 
L 573.529574 414.619399 
L 588.325028 425.818324 
L 603.120483 415.677385 
L 617.915938 413.008592 
L 632.711392 417.628997 
L 647.506847 397.435207 
L 662.302301 400.88063 
L 691.89321 386.017306 
L 721.484119 359.929747 
L 751.075028 301.655987 
L 765.870483 291.083004 
L 780.665938 333.620558 
L 795.461392 364.996339 
" style="fill:none;stroke:#0000ed;stroke-linecap:square;stroke-width:1.5;"/>
   </g>
   <g id="line2d_19">
    <path clip-path="url(#p8d6d1d1ffb)" d="M 484.756847 398.211671 
L 499.552301 397.035582 
L 514.347756 389.212034 
L 529.14321 380.167835 
L 543.938665 381.471657 
L 558.734119 395.973878 
L 573.529574 409.610307 
L 588.325028 423.037475 
L 603.120483 427.854162 
L 617.915938 432.483151 
L 632.711392 436.617225 
L 647.506847 438.553346 
L 662.302301 439.74381 
L 677.097756 437.004326 
L 691.89321 431.462518 
L 706.688665 432.576794 
L 721.484119 405.723484 
L 736.279574 371.977722 
L 751.075028 313.370834 
L 765.870483 232.9181 
L 779.647519 -1 
M 786.501249 -1 
L 795.461392 25.551269 
L 810.256847 65.361887 
" style="fill:none;stroke:#0000ff;stroke-linecap:square;stroke-width:1.5;"/>
   </g>
   <g id="line2d_20">
    <path clip-path="url(#p8d6d1d1ffb)" d="M 484.756847 387.781814 
L 499.552301 377.048026 
L 514.347756 368.092747 
L 529.14321 345.853743 
L 543.938665 355.941883 
L 558.734119 371.209783 
L 573.529574 385.324801 
L 588.325028 401.218737 
L 603.120483 411.648183 
L 617.915938 416.866243 
L 632.711392 422.10258 
L 647.506847 424.025866 
L 662.302301 409.605583 
L 677.097756 399.075512 
L 691.89321 401.615387 
L 706.688665 390.28647 
L 721.484119 390.223015 
L 736.279574 384.94345 
L 765.870483 227.246813 
L 780.665938 224.115299 
L 795.461392 227.523328 
L 810.256847 216.972926 
" style="fill:none;stroke:#0020ff;stroke-linecap:square;stroke-width:1.5;"/>
   </g>
   <g id="line2d_21">
    <path clip-path="url(#p8d6d1d1ffb)" d="M 484.756847 384.988193 
L 499.552301 358.535832 
L 514.347756 351.003827 
L 529.14321 364.53225 
L 543.938665 387.457517 
L 558.734119 411.088358 
L 573.529574 412.069983 
L 588.325028 411.970753 
L 603.120483 403.859567 
L 617.915938 428.163406 
L 632.711392 437.48265 
L 647.506847 423.506164 
L 662.302301 422.670848 
L 677.097756 426.68958 
L 691.89321 417.682906 
L 706.688665 415.229835 
L 721.484119 383.696432 
L 736.279574 343.213872 
L 751.075028 249.098073 
L 765.870483 166.370798 
L 780.665938 68.73169 
L 795.461392 263.710916 
L 810.256847 151.69998 
" style="fill:none;stroke:#0040ff;stroke-linecap:square;stroke-width:1.5;"/>
   </g>
   <g id="line2d_22">
    <path clip-path="url(#p8d6d1d1ffb)" d="M 484.756847 369.55757 
L 499.552301 351.642084 
L 514.347756 356.021767 
L 529.14321 370.513926 
L 543.938665 378.261901 
L 573.529574 402.290504 
L 588.325028 401.680589 
L 603.120483 399.462099 
L 617.915938 401.886358 
L 632.711392 409.122785 
L 647.506847 415.238365 
L 662.302301 407.891866 
L 677.097756 416.839752 
L 691.89321 413.537174 
L 706.688665 404.529734 
L 721.484119 374.333391 
L 736.279574 353.43774 
L 751.075028 339.427968 
L 765.870483 253.37531 
L 780.665938 199.069658 
L 795.461392 221.728929 
L 810.256847 199.563546 
" style="fill:none;stroke:#0060ff;stroke-linecap:square;stroke-width:1.5;"/>
   </g>
   <g id="line2d_23">
    <path clip-path="url(#p8d6d1d1ffb)" d="M 484.756847 346.667887 
L 499.552301 373.01314 
L 514.347756 383.89838 
L 529.14321 392.358334 
L 543.938665 413.23961 
L 558.734119 420.700905 
L 573.529574 413.024599 
L 588.325028 427.933841 
L 603.120483 418.938517 
L 617.915938 396.649713 
L 632.711392 412.391479 
L 647.506847 412.981063 
L 662.302301 376.26294 
L 677.097756 362.006739 
L 691.89321 382.734613 
L 706.688665 353.805906 
L 721.484119 317.32563 
L 736.279574 59.383487 
L 751.075028 28.038983 
L 752.180068 -1 
M 784.30003 -1 
L 795.461392 341.478885 
L 808.175492 -1 
" style="fill:none;stroke:#0080ff;stroke-linecap:square;stroke-width:1.5;"/>
   </g>
   <g id="line2d_24">
    <path clip-path="url(#p8d6d1d1ffb)" d="M 484.756847 356.123521 
L 499.552301 342.421303 
L 514.347756 336.2289 
L 529.14321 335.772658 
L 543.938665 366.797496 
L 573.529574 411.935497 
L 588.325028 424.463064 
L 603.120483 431.911629 
L 617.915938 423.331538 
L 632.711392 426.531417 
L 647.506847 437.029287 
L 662.302301 429.5298 
L 677.097756 394.967833 
L 691.89321 388.11377 
L 706.688665 408.96164 
L 721.484119 310.649432 
L 736.279574 302.17186 
L 751.075028 228.447963 
L 780.665938 161.187036 
L 795.461392 219.988999 
L 810.256847 94.530894 
" style="fill:none;stroke:#00a0ff;stroke-linecap:square;stroke-width:1.5;"/>
   </g>
   <g id="line2d_25">
    <path clip-path="url(#p8d6d1d1ffb)" d="M 499.552301 306.693252 
L 514.347756 303.34047 
L 529.14321 319.877035 
L 543.938665 295.209177 
" style="fill:none;stroke:#00c0ff;stroke-linecap:square;stroke-width:1.5;"/>
   </g>
   <g id="line2d_26">
    <path clip-path="url(#p8d6d1d1ffb)" d="M 499.552301 359.456327 
L 514.347756 293.500785 
L 529.14321 352.358001 
L 543.938665 386.680754 
L 558.734119 409.077217 
L 573.529574 411.042206 
L 588.325028 421.980605 
L 603.120483 410.492746 
L 617.915938 409.698456 
L 632.711392 417.977485 
L 647.506847 398.446577 
L 662.302301 396.962597 
L 677.097756 400.626414 
L 691.89321 374.162857 
L 706.688665 364.801263 
L 721.484119 327.717443 
L 736.279574 314.861888 
L 751.075028 234.408085 
L 765.870483 130.985013 
L 780.665938 165.75293 
L 795.461392 261.429416 
L 810.256847 175.770716 
" style="fill:none;stroke:#00e0fb;stroke-linecap:square;stroke-width:1.5;"/>
   </g>
   <g id="line2d_27">
    <path clip-path="url(#p8d6d1d1ffb)" d="M 514.347756 359.955206 
L 529.14321 364.532239 
L 543.938665 379.866779 
L 558.734119 390.958815 
L 573.529574 410.326187 
L 588.325028 419.717237 
L 603.120483 411.070406 
L 617.915938 408.112626 
L 632.711392 417.628945 
L 647.506847 409.83004 
L 662.302301 400.880717 
L 677.097756 400.626483 
L 691.89321 393.107277 
L 706.688665 381.985464 
L 721.484119 352.786958 
L 736.279574 317.352121 
L 751.075028 237.683036 
L 765.870483 159.620882 
L 780.665938 112.442407 
L 795.461392 225.444072 
L 810.256847 133.239075 
" style="fill:none;stroke:#16ffe1;stroke-linecap:square;stroke-width:1.5;"/>
   </g>
   <g id="line2d_28">
    <path clip-path="url(#p8d6d1d1ffb)" d="M 529.14321 423.644721 
L 543.938665 403.155885 
L 558.734119 409.771102 
L 573.529574 385.382096 
L 588.325028 417.453979 
L 603.120483 413.981981 
L 617.915938 408.112626 
L 632.711392 423.730971 
L 647.506847 318.731515 
L 662.302301 363.032711 
L 677.097756 400.740046 
L 691.89321 369.980815 
L 706.688665 360.098957 
L 721.484119 330.917702 
L 736.279574 235.212572 
L 751.075028 112.61347 
L 765.870483 71.272725 
L 771.986718 -1 
M 785.820281 -1 
L 795.461392 190.833545 
L 810.256847 58.197952 
" style="fill:none;stroke:#30ffc7;stroke-linecap:square;stroke-width:1.5;"/>
   </g>
   <g id="line2d_29">
    <path clip-path="url(#p8d6d1d1ffb)" d="M 529.14321 279.290542 
L 543.938665 315.114698 
L 558.734119 365.911264 
L 573.529574 389.206921 
L 588.325028 402.012571 
L 603.120483 406.866222 
L 617.915938 405.666374 
L 632.711392 409.247212 
L 647.506847 406.678915 
L 662.302301 397.844099 
L 677.097756 397.388059 
L 691.89321 367.652828 
L 706.688665 331.16943 
L 721.484119 270.289119 
L 736.279574 218.536917 
L 751.075028 131.932973 
L 761.666201 -1 
M 791.139378 -1 
L 795.461392 56.139745 
L 810.102393 -1 
" style="fill:none;stroke:#49ffad;stroke-linecap:square;stroke-width:1.5;"/>
   </g>
   <g id="line2d_30">
    <path clip-path="url(#p8d6d1d1ffb)" d="M 543.938665 401.315872 
L 558.734119 385.884608 
L 573.529574 407.518113 
L 588.325028 417.768384 
L 603.120483 396.697151 
L 617.915938 388.034508 
L 632.711392 381.813989 
L 647.506847 362.246803 
L 662.302301 369.663741 
L 677.097756 395.18489 
L 691.89321 381.835347 
L 706.688665 377.018044 
L 721.484119 346.281197 
L 736.279574 333.546497 
L 751.075028 208.88231 
L 765.870483 188.893728 
L 780.665938 217.700409 
L 795.461392 239.454665 
L 810.256847 100.807608 
" style="fill:none;stroke:#63ff94;stroke-linecap:square;stroke-width:1.5;"/>
   </g>
   <g id="line2d_31">
    <path clip-path="url(#p8d6d1d1ffb)" d="M 543.938665 390.641741 
L 558.734119 370.136682 
L 573.529574 396.810919 
L 588.325028 396.893679 
L 603.120483 376.014867 
L 617.915938 365.461076 
L 632.711392 367.674432 
L 647.506847 340.372207 
L 662.302301 351.218429 
L 677.097756 382.033723 
L 691.89321 362.865754 
L 706.688665 357.332366 
L 721.484119 320.444412 
L 736.279574 298.078187 
L 751.075028 162.506581 
L 765.870483 150.062259 
L 780.665938 182.249965 
L 795.461392 218.158154 
L 810.256847 46.634207 
" style="fill:none;stroke:#7dff7a;stroke-linecap:square;stroke-width:1.5;"/>
   </g>
   <g id="line2d_32">
    <path clip-path="url(#p8d6d1d1ffb)" d="M 543.938665 377.653218 
L 558.734119 360.243941 
L 573.529574 387.031125 
L 588.325028 385.570615 
L 603.120483 362.208607 
L 617.915938 328.769034 
L 632.711392 341.944638 
L 647.506847 334.65338 
L 662.302301 325.22208 
L 677.097756 362.106133 
L 691.89321 342.239123 
L 706.688665 336.380857 
L 721.484119 287.509405 
L 736.279574 271.070447 
L 751.075028 183.70452 
L 765.870483 165.976526 
L 780.665938 194.901084 
L 795.461392 229.901587 
L 810.256847 68.669599 
" style="fill:none;stroke:#97ff60;stroke-linecap:square;stroke-width:1.5;"/>
   </g>
   <g id="line2d_33">
    <path clip-path="url(#p8d6d1d1ffb)" d="M 543.938665 381.489523 
L 558.734119 357.446135 
L 573.529574 388.921657 
L 588.325028 393.815353 
L 603.120483 371.294494 
L 617.915938 344.97758 
L 632.711392 352.176427 
L 647.506847 341.762691 
L 662.302301 366.890989 
L 677.097756 370.844964 
L 691.89321 353.011826 
L 706.688665 346.262098 
L 721.484119 301.514453 
L 736.279574 290.826563 
L 751.075028 191.5063 
L 765.870483 181.647443 
L 780.665938 214.241143 
L 795.461392 243.90951 
L 810.256847 88.323857 
" style="fill:none;stroke:#b1ff46;stroke-linecap:square;stroke-width:1.5;"/>
   </g>
   <g id="line2d_34">
    <path clip-path="url(#p8d6d1d1ffb)" d="M 543.938665 377.653218 
L 558.734119 360.243941 
L 573.529574 387.031125 
L 588.325028 396.893679 
L 603.120483 376.014867 
L 617.915938 365.461076 
L 632.711392 367.674432 
L 647.506847 340.372207 
L 662.302301 351.218429 
L 677.097756 382.033723 
L 691.89321 362.865754 
L 706.688665 357.332366 
L 721.484119 320.444412 
L 736.279574 298.078187 
L 751.075028 208.88231 
L 765.870483 150.062259 
L 780.665938 217.700409 
L 795.461392 239.454665 
L 810.256847 100.807608 
" style="fill:none;stroke:#caff2c;stroke-linecap:square;stroke-width:1.5;"/>
   </g>
   <g id="line2d_35">
    <path clip-path="url(#p8d6d1d1ffb)" d="M 558.734119 385.943605 
L 573.529574 390.481703 
L 588.325028 398.747747 
L 603.120483 401.527166 
L 617.915938 403.238271 
L 632.711392 414.737806 
L 647.506847 403.524956 
L 662.302301 394.883706 
L 677.097756 397.079342 
L 691.89321 393.373605 
L 706.688665 380.726322 
L 721.484119 364.737323 
L 736.279574 349.510334 
L 751.075028 307.34877 
L 765.870483 253.64472 
L 780.665938 219.836657 
L 795.461392 225.443987 
L 810.256847 189.581255 
" style="fill:none;stroke:#e4ff13;stroke-linecap:square;stroke-width:1.5;"/>
   </g>
   <g id="line2d_36">
    <path clip-path="url(#p8d6d1d1ffb)" d="M 603.120483 402.03792 
L 617.915938 400.2063 
L 632.711392 408.111753 
L 647.506847 396.93207 
L 662.302301 403.400653 
L 677.097756 407.96796 
L 691.89321 403.743357 
L 706.688665 371.298616 
L 721.484119 351.70185 
L 736.279574 314.615752 
L 751.075028 261.386621 
L 760.894054 -1 
M 788.103279 -1 
L 795.461392 116.808367 
L 810.256847 144.722475 
" style="fill:none;stroke:#feed00;stroke-linecap:square;stroke-width:1.5;"/>
   </g>
   <g id="line2d_37">
    <path clip-path="url(#p8d6d1d1ffb)" d="M 706.688665 347.675711 
L 721.484119 325.62181 
L 736.279574 323.843523 
L 751.075028 240.958091 
L 765.870483 140.229186 
L 780.665938 86.347862 
L 795.461392 175.80019 
L 810.256847 122.933603 
" style="fill:none;stroke:#ffd000;stroke-linecap:square;stroke-width:1.5;"/>
   </g>
   <g id="line2d_38">
    <path clip-path="url(#p8d6d1d1ffb)" d="M 721.484119 353.871869 
L 751.075028 280.652177 
L 765.870483 93.759916 
L 780.665938 35.166163 
L 795.461392 137.341059 
L 810.256847 199.566993 
" style="fill:none;stroke:#ffb200;stroke-linecap:square;stroke-width:1.5;"/>
   </g>
   <g id="line2d_39">
    <path clip-path="url(#p8d6d1d1ffb)" d="M 736.279574 340.035514 
L 751.075028 337.249099 
L 765.870483 162.054494 
L 780.665938 60.15755 
L 795.461392 43.63316 
L 810.256847 53.336261 
" style="fill:none;stroke:#ff9400;stroke-linecap:square;stroke-width:1.5;"/>
   </g>
   <g id="line2d_40">
    <path clip-path="url(#p8d6d1d1ffb)" d="M 736.279574 320.055164 
L 751.075028 271.171177 
" style="fill:none;stroke:#ff7700;stroke-linecap:square;stroke-width:1.5;"/>
   </g>
   <g id="line2d_41">
    <path clip-path="url(#p8d6d1d1ffb)" d="M 765.870483 157.187196 
L 780.665938 142.826773 
L 795.461392 160.103019 
L 810.256847 133.452627 
" style="fill:none;stroke:#ff5900;stroke-linecap:square;stroke-width:1.5;"/>
   </g>
   <g id="line2d_42">
    <path clip-path="url(#p8d6d1d1ffb)" d="M 765.870483 299.589627 
L 780.665938 138.536917 
L 795.461392 261.909399 
L 810.256847 128.568604 
" style="fill:none;stroke:#ff3b00;stroke-linecap:square;stroke-width:1.5;"/>
   </g>
   <g id="line2d_43">
    <path clip-path="url(#p8d6d1d1ffb)" d="M 781.965061 -1 
L 795.461392 268.971445 
L 810.256847 102.439883 
" style="fill:none;stroke:#ff1e00;stroke-linecap:square;stroke-width:1.5;"/>
   </g>
   <g id="line2d_44">
    <path clip-path="url(#p8d6d1d1ffb)" d="M 765.870483 276.113234 
L 780.665938 181.155814 
L 795.461392 210.87819 
L 810.256847 148.715312 
" style="fill:none;stroke:#e80000;stroke-linecap:square;stroke-width:1.5;"/>
   </g>
   <g id="line2d_45">
    <path clip-path="url(#p8d6d1d1ffb)" d="M 810.256847 61.962843 
" style="fill:none;stroke:#c40000;stroke-linecap:square;stroke-width:1.5;"/>
   </g>
   <g id="line2d_46">
    <path clip-path="url(#p8d6d1d1ffb)" d="M 810.256847 164.15479 
" style="fill:none;stroke:#9f0000;stroke-linecap:square;stroke-width:1.5;"/>
   </g>
   <g id="line2d_47">
    <path clip-path="url(#p8d6d1d1ffb)" style="fill:none;stroke:#800000;stroke-linecap:square;stroke-width:1.5;"/>
   </g>
   <g id="line2d_48">
    <path clip-path="url(#p8d6d1d1ffb)" d="M 100.075028 461.756202 
L 114.870483 461.756612 
L 129.665938 461.757023 
L 144.461392 461.757023 
L 159.256847 461.755586 
L 174.052301 461.679808 
L 188.847756 461.226993 
L 203.64321 457.02248 
L 218.438665 441.456296 
L 233.234119 421.424178 
L 248.029574 416.021192 
L 262.825028 420.851638 
L 277.620483 419.293582 
L 292.415938 422.239041 
L 307.211392 425.541618 
L 322.006847 429.417146 
L 336.802301 429.944507 
L 351.597756 431.556162 
L 366.39321 431.827646 
L 381.188665 431.492501 
L 395.984119 424.905417 
L 410.779574 409.541922 
L 425.575028 393.717397 
L 440.370483 378.404009 
L 455.165938 366.494236 
L 469.961392 366.189073 
L 484.756847 371.061412 
L 499.552301 384.851654 
L 514.347756 387.475521 
L 529.14321 398.867997 
L 543.938665 401.379944 
L 558.734119 402.269557 
L 573.529574 412.354103 
L 588.325028 403.730068 
L 603.120483 398.78996 
L 617.915938 399.693744 
L 632.711392 392.020108 
L 647.506847 381.955276 
L 662.302301 363.093497 
L 677.097756 346.457805 
L 691.89321 297.368673 
L 706.688665 250.904024 
L 721.484119 216.163095 
L 736.279574 226.09547 
L 751.075028 185.197272 
L 765.870483 154.994152 
L 780.665938 151.128686 
L 795.461392 189.27898 
L 810.256847 167.26125 
" style="fill:none;stroke:#000000;stroke-linecap:square;stroke-width:3;"/>
   </g>
   <g id="patch_3">
    <path d="M 64.565938 461.757187 
L 64.565938 26.877187 
" style="fill:none;stroke:#000000;stroke-linecap:square;stroke-linejoin:miter;stroke-width:0.8;"/>
   </g>
   <g id="patch_4">
    <path d="M 845.765938 461.757187 
L 845.765938 26.877187 
" style="fill:none;stroke:#000000;stroke-linecap:square;stroke-linejoin:miter;stroke-width:0.8;"/>
   </g>
   <g id="patch_5">
    <path d="M 64.565938 461.757187 
L 845.765938 461.757187 
" style="fill:none;stroke:#000000;stroke-linecap:square;stroke-linejoin:miter;stroke-width:0.8;"/>
   </g>
   <g id="patch_6">
    <path d="M 64.565938 26.877187 
L 845.765938 26.877187 
" style="fill:none;stroke:#000000;stroke-linecap:square;stroke-linejoin:miter;stroke-width:0.8;"/>
   </g>
   <g id="text_18">
    <!-- 4-week-ahead Forecasts -->
    <defs>
     <path d="M 37.796875 64.3125 
L 12.890625 25.390625 
L 37.796875 25.390625 
z
M 35.203125 72.90625 
L 47.609375 72.90625 
L 47.609375 25.390625 
L 58.015625 25.390625 
L 58.015625 17.1875 
L 47.609375 17.1875 
L 47.609375 0 
L 37.796875 0 
L 37.796875 17.1875 
L 4.890625 17.1875 
L 4.890625 26.703125 
z
" id="DejaVuSans-52"/>
     <path d="M 54.890625 33.015625 
L 54.890625 0 
L 45.90625 0 
L 45.90625 32.71875 
Q 45.90625 40.484375 42.875 44.328125 
Q 39.84375 48.1875 33.796875 48.1875 
Q 26.515625 48.1875 22.3125 43.546875 
Q 18.109375 38.921875 18.109375 30.90625 
L 18.109375 0 
L 9.078125 0 
L 9.078125 75.984375 
L 18.109375 75.984375 
L 18.109375 46.1875 
Q 21.34375 51.125 25.703125 53.5625 
Q 30.078125 56 35.796875 56 
Q 45.21875 56 50.046875 50.171875 
Q 54.890625 44.34375 54.890625 33.015625 
z
" id="DejaVuSans-104"/>
     <path d="M 9.8125 72.90625 
L 51.703125 72.90625 
L 51.703125 64.59375 
L 19.671875 64.59375 
L 19.671875 43.109375 
L 48.578125 43.109375 
L 48.578125 34.8125 
L 19.671875 34.8125 
L 19.671875 0 
L 9.8125 0 
z
" id="DejaVuSans-70"/>
     <path d="M 30.609375 48.390625 
Q 23.390625 48.390625 19.1875 42.75 
Q 14.984375 37.109375 14.984375 27.296875 
Q 14.984375 17.484375 19.15625 11.84375 
Q 23.34375 6.203125 30.609375 6.203125 
Q 37.796875 6.203125 41.984375 11.859375 
Q 46.1875 17.53125 46.1875 27.296875 
Q 46.1875 37.015625 41.984375 42.703125 
Q 37.796875 48.390625 30.609375 48.390625 
z
M 30.609375 56 
Q 42.328125 56 49.015625 48.375 
Q 55.71875 40.765625 55.71875 27.296875 
Q 55.71875 13.875 49.015625 6.21875 
Q 42.328125 -1.421875 30.609375 -1.421875 
Q 18.84375 -1.421875 12.171875 6.21875 
Q 5.515625 13.875 5.515625 27.296875 
Q 5.515625 40.765625 12.171875 48.375 
Q 18.84375 56 30.609375 56 
z
" id="DejaVuSans-111"/>
     <path d="M 41.109375 46.296875 
Q 39.59375 47.171875 37.8125 47.578125 
Q 36.03125 48 33.890625 48 
Q 26.265625 48 22.1875 43.046875 
Q 18.109375 38.09375 18.109375 28.8125 
L 18.109375 0 
L 9.078125 0 
L 9.078125 54.6875 
L 18.109375 54.6875 
L 18.109375 46.1875 
Q 20.953125 51.171875 25.484375 53.578125 
Q 30.03125 56 36.53125 56 
Q 37.453125 56 38.578125 55.875 
Q 39.703125 55.765625 41.0625 55.515625 
z
" id="DejaVuSans-114"/>
    </defs>
    <g transform="translate(345.690781 20.877187)scale(0.18 -0.18)">
     <use xlink:href="#DejaVuSans-52"/>
     <use x="63.623047" xlink:href="#DejaVuSans-45"/>
     <use x="99.707031" xlink:href="#DejaVuSans-119"/>
     <use x="181.494141" xlink:href="#DejaVuSans-101"/>
     <use x="243.017578" xlink:href="#DejaVuSans-101"/>
     <use x="304.541016" xlink:href="#DejaVuSans-107"/>
     <use x="362.451172" xlink:href="#DejaVuSans-45"/>
     <use x="398.535156" xlink:href="#DejaVuSans-97"/>
     <use x="459.814453" xlink:href="#DejaVuSans-104"/>
     <use x="523.193359" xlink:href="#DejaVuSans-101"/>
     <use x="584.716797" xlink:href="#DejaVuSans-97"/>
     <use x="645.996094" xlink:href="#DejaVuSans-100"/>
     <use x="709.472656" xlink:href="#DejaVuSans-32"/>
     <use x="741.259766" xlink:href="#DejaVuSans-70"/>
     <use x="795.154297" xlink:href="#DejaVuSans-111"/>
     <use x="856.335938" xlink:href="#DejaVuSans-114"/>
     <use x="895.199219" xlink:href="#DejaVuSans-101"/>
     <use x="956.722656" xlink:href="#DejaVuSans-99"/>
     <use x="1011.703125" xlink:href="#DejaVuSans-97"/>
     <use x="1072.982422" xlink:href="#DejaVuSans-115"/>
     <use x="1125.082031" xlink:href="#DejaVuSans-116"/>
     <use x="1164.291016" xlink:href="#DejaVuSans-115"/>
    </g>
   </g>
  </g>
 </g>
 <defs>
  <clipPath id="p8d6d1d1ffb">
   <rect height="434.88" width="781.2" x="64.565938" y="26.877187"/>
  </clipPath>
 </defs>
</svg>
