<?xml version="1.0" encoding="utf-8" standalone="no"?>
<!DOCTYPE svg PUBLIC "-//W3C//DTD SVG 1.1//EN"
  "http://www.w3.org/Graphics/SVG/1.1/DTD/svg11.dtd">
<!-- Created with matplotlib (https://matplotlib.org/) -->
<svg height="544.682704pt" version="1.1" viewBox="0 0 844.694688 544.682704" width="844.694688pt" xmlns="http://www.w3.org/2000/svg" xmlns:xlink="http://www.w3.org/1999/xlink">
 <defs>
  <style type="text/css">
*{stroke-linecap:butt;stroke-linejoin:round;}
  </style>
 </defs>
 <g id="figure_1">
  <g id="patch_1">
   <path d="M 0 544.682704 
L 844.694688 544.682704 
L 844.694688 0 
L 0 0 
z
" style="fill:#ffffff;"/>
  </g>
  <g id="axes_1">
   <g id="patch_2">
    <path d="M 56.294688 461.757187 
L 837.494688 461.757187 
L 837.494688 26.877187 
L 56.294688 26.877187 
z
" style="fill:#ffffff;"/>
   </g>
   <g id="PolyCollection_1">
    <defs>
     <path d="M 280.219363 -142.38671 
L 280.219363 -91.618959 
L 294.712869 -98.011595 
L 309.206376 -97.080186 
L 323.699882 -98.846418 
L 338.193389 -96.613169 
L 352.686895 -94.12376 
L 367.180402 -91.140928 
L 381.673908 -90.907026 
L 396.167415 -90.1174 
L 410.660921 -90.940971 
L 425.154428 -91.083983 
L 439.647934 -96.614057 
L 454.141441 -107.771835 
L 468.634947 -117.989115 
L 483.128454 -129.600223 
L 497.62196 -140.390756 
L 512.115467 -140.794608 
L 526.608973 -136.515517 
L 541.10248 -124.295889 
L 555.595986 -121.947849 
L 570.089493 -111.234899 
L 584.582999 -109.15451 
L 599.076506 -107.52026 
L 613.570012 -99.720225 
L 628.063519 -106.733373 
L 642.557025 -112.384349 
L 657.050532 -111.33398 
L 671.544038 -117.485244 
L 686.037545 -126.757198 
L 700.531051 -140.331809 
L 715.024558 -153.988753 
L 729.518064 -182.711389 
L 744.011571 -223.167632 
L 758.505077 -250.644212 
L 772.998584 -242.664549 
L 787.49209 -274.898479 
L 801.985597 -299.888654 
L 801.985597 -406.635482 
L 801.985597 -406.635482 
L 787.49209 -378.824177 
L 772.998584 -339.380871 
L 758.505077 -347.317024 
L 744.011571 -314.072991 
L 729.518064 -248.558047 
L 715.024558 -212.205451 
L 700.531051 -196.702351 
L 686.037545 -180.685073 
L 671.544038 -170.881808 
L 657.050532 -164.88394 
L 642.557025 -166.531301 
L 628.063519 -161.09496 
L 613.570012 -153.994836 
L 599.076506 -161.836805 
L 584.582999 -163.916471 
L 570.089493 -166.407252 
L 555.595986 -176.511676 
L 541.10248 -179.411594 
L 526.608973 -190.685567 
L 512.115467 -195.273476 
L 497.62196 -195.428279 
L 483.128454 -183.840322 
L 468.634947 -167.961667 
L 454.141441 -151.117335 
L 439.647934 -135.110458 
L 425.154428 -128.834095 
L 410.660921 -129.493637 
L 396.167415 -129.511292 
L 381.673908 -131.299071 
L 367.180402 -132.564167 
L 352.686895 -136.386483 
L 338.193389 -140.058817 
L 323.699882 -143.688209 
L 309.206376 -143.76114 
L 294.712869 -147.305257 
L 280.219363 -142.38671 
z
" id="mcb1271ae26" style="stroke:#000080;stroke-opacity:0.1;"/>
    </defs>
    <g clip-path="url(#pe4c1cf3e9f)">
     <use style="fill:#000080;fill-opacity:0.1;stroke:#000080;stroke-opacity:0.1;" x="0" xlink:href="#mcb1271ae26" y="544.682704"/>
    </g>
   </g>
   <g id="PolyCollection_2">
    <path clip-path="url(#pe4c1cf3e9f)" d="M 454.141441 325.884429 
L 454.141441 448.479822 
L 468.634947 447.171143 
L 483.128454 445.54499 
L 497.62196 444.353851 
L 512.115467 445.382371 
L 526.608973 449.897842 
L 541.10248 450.318302 
L 555.595986 451.101876 
L 570.089493 452.604584 
L 584.582999 453.698809 
L 599.076506 454.344898 
L 613.570012 453.663297 
L 628.063519 454.26429 
L 642.557025 452.983051 
L 657.050532 451.076639 
L 671.544038 448.106214 
L 686.037545 448.204082 
L 700.531051 396.76139 
L 715.024558 362.071684 
L 729.518064 322.990581 
L 744.011571 293.263416 
L 758.505077 309.044209 
L 772.998584 341.989843 
L 787.49209 270.469225 
L 801.985597 292.711931 
L 801.985597 51.537137 
L 801.985597 51.537137 
L 787.49209 -90.012005 
L 772.998584 148.317588 
L 758.505077 127.160258 
L 744.011571 -140.714716 
L 729.518064 -37.016081 
L 715.024558 182.234158 
L 700.531051 248.807108 
L 686.037545 346.105667 
L 671.544038 352.959477 
L 657.050532 371.5017 
L 642.557025 383.995094 
L 628.063519 393.833803 
L 613.570012 396.100572 
L 599.076506 400.223136 
L 584.582999 387.651827 
L 570.089493 383.450606 
L 555.595986 370.545966 
L 541.10248 344.353336 
L 526.608973 346.155689 
L 512.115467 302.445753 
L 497.62196 290.636101 
L 483.128454 305.218037 
L 468.634947 317.944372 
L 454.141441 325.884429 
z
" style="fill:#00009f;fill-opacity:0.1;stroke:#00009f;stroke-opacity:0.1;"/>
   </g>
   <g id="PolyCollection_3">
    <defs>
     <path d="M 468.634947 -111.386897 
L 468.634947 -104.72218 
L 483.128454 -155.609039 
L 497.62196 -362.436621 
L 512.115467 -252.042569 
L 526.608973 -165.273007 
L 541.10248 -179.21942 
L 555.595986 -114.386389 
L 570.089493 -112.805752 
L 584.582999 -109.393498 
L 599.076506 -103.083653 
L 613.570012 -101.02419 
L 628.063519 -105.605169 
L 657.050532 -105.448557 
L 671.544038 -114.183512 
L 686.037545 -153.100605 
L 700.531051 -195.04972 
L 715.024558 -208.147825 
L 729.518064 -424.839369 
L 744.011571 -489.726935 
L 758.505077 -437.676345 
L 772.998584 -133.051178 
L 787.49209 -429.242204 
L 801.985597 -462.470277 
L 801.985597 -474.928671 
L 801.985597 -474.928671 
L 787.49209 -429.61478 
L 772.998584 -136.948263 
L 758.505077 -448.982961 
L 744.011571 -502.060077 
L 729.518064 -427.806618 
L 715.024558 -214.269175 
L 700.531051 -195.899086 
L 686.037545 -154.464067 
L 671.544038 -115.186586 
L 657.050532 -106.461546 
L 628.063519 -106.917086 
L 613.570012 -101.814744 
L 599.076506 -103.957432 
L 584.582999 -110.767562 
L 570.089493 -113.917206 
L 555.595986 -115.730295 
L 541.10248 -183.957626 
L 526.608973 -169.773579 
L 512.115467 -258.262437 
L 497.62196 -369.506321 
L 483.128454 -157.002679 
L 468.634947 -111.386897 
z
" id="m5277fd7584" style="stroke:#0000c4;stroke-opacity:0.1;"/>
    </defs>
    <g clip-path="url(#pe4c1cf3e9f)">
     <use style="fill:#0000c4;fill-opacity:0.1;stroke:#0000c4;stroke-opacity:0.1;" x="0" xlink:href="#m5277fd7584" y="544.682704"/>
    </g>
   </g>
   <g id="PolyCollection_4">
    <path clip-path="url(#pe4c1cf3e9f)" d="M 468.634947 399.123091 
L 468.634947 411.48929 
L 483.128454 405.658797 
L 497.62196 412.500783 
L 512.115467 426.147189 
L 526.608973 413.761986 
L 541.10248 417.562986 
L 555.595986 428.407124 
L 570.089493 440.082882 
L 584.582999 440.319389 
L 599.076506 450.370356 
L 613.570012 456.472249 
L 628.063519 461.757406 
L 642.557025 461.757406 
L 657.050532 461.757406 
L 671.544038 461.757406 
L 686.037545 461.757406 
L 700.531051 461.757406 
L 715.024558 461.757406 
L 729.518064 441.717652 
L 744.011571 412.520188 
L 758.505077 189.72163 
L 772.998584 195.865013 
L 787.49209 251.085196 
L 801.985597 226.756115 
L 801.985597 52.916232 
L 801.985597 52.916232 
L 787.49209 -31.850557 
L 772.998584 -47.362322 
L 758.505077 -119.114969 
L 744.011571 104.413351 
L 729.518064 218.157113 
L 715.024558 286.649617 
L 700.531051 336.646655 
L 686.037545 376.783775 
L 671.544038 383.716427 
L 657.050532 398.722007 
L 642.557025 404.928964 
L 628.063519 416.433952 
L 613.570012 422.375688 
L 599.076506 421.132527 
L 584.582999 422.95912 
L 570.089493 414.63777 
L 555.595986 402.457334 
L 541.10248 389.073484 
L 526.608973 367.108235 
L 512.115467 352.406518 
L 497.62196 382.121848 
L 483.128454 402.864014 
L 468.634947 399.123091 
z
" style="fill:#0000e8;fill-opacity:0.1;stroke:#0000e8;stroke-opacity:0.1;"/>
   </g>
   <g id="PolyCollection_5">
    <defs>
     <path d="M 468.634947 -159.753553 
L 468.634947 -113.244378 
L 483.128454 -118.504926 
L 497.62196 -149.207033 
L 512.115467 -144.940768 
L 526.608973 -123.869469 
L 541.10248 -118.53724 
L 555.595986 -120.352808 
L 570.089493 -111.176257 
L 584.582999 -119.073829 
L 599.076506 -121.066161 
L 613.570012 -117.095151 
L 628.063519 -133.982863 
L 642.557025 -130.897058 
L 671.544038 -143.99855 
L 700.531051 -165.058924 
L 729.518064 -215.431227 
L 744.011571 -225.947764 
L 758.505077 -189.747964 
L 772.998584 -163.289691 
L 772.998584 -175.280144 
L 772.998584 -175.280144 
L 758.505077 -203.70429 
L 744.011571 -243.90639 
L 729.518064 -235.802149 
L 700.531051 -181.679461 
L 671.544038 -157.620225 
L 642.557025 -143.708962 
L 628.063519 -146.984059 
L 613.570012 -127.840881 
L 599.076506 -132.088218 
L 584.582999 -128.937568 
L 570.089493 -118.696492 
L 555.595986 -129.781349 
L 541.10248 -129.690063 
L 526.608973 -136.734436 
L 512.115467 -156.688083 
L 497.62196 -164.090015 
L 483.128454 -157.709643 
L 468.634947 -159.753553 
z
" id="mac0f1e45ae" style="stroke:#0000ff;stroke-opacity:0.1;"/>
    </defs>
    <g clip-path="url(#pe4c1cf3e9f)">
     <use style="fill:#0000ff;fill-opacity:0.1;stroke:#0000ff;stroke-opacity:0.1;" x="0" xlink:href="#mac0f1e45ae" y="544.682704"/>
    </g>
   </g>
   <g id="PolyCollection_6">
    <defs>
     <path d="M 468.634947 -175.591605 
L 468.634947 -131.526079 
L 483.128454 -137.739401 
L 497.62196 -144.452841 
L 512.115467 -163.665757 
L 526.608973 -158.554727 
L 541.10248 -148.136392 
L 555.595986 -138.258683 
L 570.089493 -125.358118 
L 584.582999 -119.056453 
L 599.076506 -114.786495 
L 613.570012 -111.728725 
L 628.063519 -109.832341 
L 642.557025 -116.382131 
L 657.050532 -123.634474 
L 671.544038 -121.753934 
L 686.037545 -128.082184 
L 700.531051 -128.144406 
L 715.024558 -132.600809 
L 744.011571 -241.074541 
L 758.505077 -248.608607 
L 772.998584 -236.684807 
L 787.49209 -248.798874 
L 801.985597 -261.398209 
L 801.985597 -430.285033 
L 801.985597 -430.285033 
L 787.49209 -387.671209 
L 772.998584 -359.236439 
L 758.505077 -364.685424 
L 744.011571 -356.592355 
L 715.024558 -179.687925 
L 700.531051 -173.871747 
L 686.037545 -173.792822 
L 671.544038 -158.064542 
L 657.050532 -161.327994 
L 642.557025 -143.005845 
L 628.063519 -127.288612 
L 613.570012 -127.14694 
L 599.076506 -132.713251 
L 584.582999 -139.52566 
L 570.089493 -151.301695 
L 555.595986 -170.673304 
L 541.10248 -186.640437 
L 526.608973 -205.531677 
L 512.115467 -217.253817 
L 497.62196 -201.509579 
L 483.128454 -184.371182 
L 468.634947 -175.591605 
z
" id="m307f431be1" style="stroke:#0018ff;stroke-opacity:0.1;"/>
    </defs>
    <g clip-path="url(#pe4c1cf3e9f)">
     <use style="fill:#0018ff;fill-opacity:0.1;stroke:#0018ff;stroke-opacity:0.1;" x="0" xlink:href="#m307f431be1" y="544.682704"/>
    </g>
   </g>
   <g id="PolyCollection_7">
    <defs>
     <path d="M 468.634947 -185.881385 
L 468.634947 -147.862494 
L 483.128454 -164.429274 
L 497.62196 -162.081199 
L 512.115467 -146.118084 
L 526.608973 -145.991294 
L 555.595986 -125.165835 
L 570.089493 -126.939251 
L 584.582999 -131.007654 
L 599.076506 -129.641608 
L 613.570012 -124.737121 
L 628.063519 -117.494776 
L 642.557025 -124.335954 
L 657.050532 -115.070445 
L 671.544038 -118.473156 
L 686.037545 -126.019249 
L 700.531051 -152.411421 
L 715.024558 -166.510634 
L 729.518064 -175.351991 
L 744.011571 -239.267389 
L 758.505077 -290.004305 
L 772.998584 -272.138978 
L 787.49209 -287.724095 
L 801.985597 -336.903776 
L 801.985597 -392.165175 
L 801.985597 -392.165175 
L 787.49209 -356.955909 
L 772.998584 -326.409044 
L 758.505077 -352.382718 
L 744.011571 -301.448958 
L 729.518064 -212.735839 
L 715.024558 -191.43624 
L 700.531051 -172.38675 
L 686.037545 -146.678879 
L 671.544038 -137.359187 
L 657.050532 -134.721775 
L 642.557025 -139.992219 
L 628.063519 -134.330642 
L 613.570012 -136.740744 
L 599.076506 -144.765173 
L 584.582999 -150.879362 
L 570.089493 -149.960637 
L 555.595986 -151.113604 
L 526.608973 -172.031921 
L 512.115467 -188.473189 
L 497.62196 -194.772911 
L 483.128454 -195.835939 
L 468.634947 -185.881385 
z
" id="m8273cc1b67" style="stroke:#0038ff;stroke-opacity:0.1;"/>
    </defs>
    <g clip-path="url(#pe4c1cf3e9f)">
     <use style="fill:#0038ff;fill-opacity:0.1;stroke:#0038ff;stroke-opacity:0.1;" x="0" xlink:href="#m8273cc1b67" y="544.682704"/>
    </g>
   </g>
   <g id="PolyCollection_8">
    <defs>
     <path d="M 468.634947 -190.727792 
L 468.634947 -168.851674 
L 483.128454 -180.953172 
L 497.62196 -191.21791 
L 512.115467 -191.392192 
L 526.608973 -155.739425 
L 555.595986 -125.526436 
L 570.089493 -114.39533 
L 584.582999 -104.557534 
L 599.076506 -114.722528 
L 613.570012 -112.401486 
L 628.063519 -101.707223 
L 642.557025 -107.485565 
L 657.050532 -140.584853 
L 671.544038 -143.928388 
L 686.037545 -124.825464 
L 700.531051 -195.954109 
L 715.024558 -220.639325 
L 729.518064 -258.97288 
L 758.505077 -206.713533 
L 772.998584 -177.398595 
L 787.49209 -375.829484 
L 801.985597 -402.907587 
L 801.985597 -439.785966 
L 801.985597 -439.785966 
L 787.49209 -434.66769 
L 772.998584 -317.877188 
L 758.505077 -405.998527 
L 729.518064 -338.488937 
L 715.024558 -262.434264 
L 700.531051 -224.502964 
L 686.037545 -132.147199 
L 671.544038 -150.388493 
L 657.050532 -143.285576 
L 642.557025 -113.965848 
L 628.063519 -108.200493 
L 613.570012 -114.833412 
L 599.076506 -118.043364 
L 584.582999 -116.22285 
L 570.089493 -118.389256 
L 555.595986 -130.370847 
L 526.608973 -177.165661 
L 512.115467 -217.146511 
L 497.62196 -243.836383 
L 483.128454 -215.747834 
L 468.634947 -190.727792 
z
" id="mb3c3690a4b" style="stroke:#0058ff;stroke-opacity:0.1;"/>
    </defs>
    <g clip-path="url(#pe4c1cf3e9f)">
     <use style="fill:#0058ff;fill-opacity:0.1;stroke:#0058ff;stroke-opacity:0.1;" x="0" xlink:href="#mb3c3690a4b" y="544.682704"/>
    </g>
   </g>
   <g id="PolyCollection_9">
    <path clip-path="url(#pe4c1cf3e9f)" d="M 468.634947 296.56429 
L 468.634947 398.557505 
L 483.128454 414.576991 
L 497.62196 404.517722 
L 512.115467 417.27205 
L 526.608973 430.019629 
L 541.10248 436.588255 
L 555.595986 426.197508 
L 570.089493 440.191093 
L 584.582999 433.816209 
L 599.076506 419.889029 
L 613.570012 433.88754 
L 628.063519 436.777618 
L 642.557025 399.772863 
L 657.050532 388.008955 
L 671.544038 401.748292 
L 686.037545 381.836942 
L 700.531051 349.348269 
L 715.024558 245.543327 
L 729.518064 137.665057 
L 744.011571 -159.350091 
L 758.505077 125.978864 
L 772.998584 419.256904 
L 787.49209 349.409384 
L 801.985597 133.20698 
L 801.985597 -148.147524 
L 801.985597 -148.147524 
L 787.49209 -1014.582237 
L 772.998584 225.903125 
L 758.505077 -299.019409 
L 744.011571 -388.89936 
L 729.518064 1.441503 
L 715.024558 -201.307859 
L 700.531051 314.363577 
L 686.037545 351.16525 
L 671.544038 380.451186 
L 657.050532 351.451338 
L 642.557025 368.431873 
L 628.063519 389.586439 
L 613.570012 394.946275 
L 599.076506 384.94137 
L 584.582999 409.561221 
L 570.089493 420.282716 
L 555.595986 409.691295 
L 541.10248 411.403778 
L 526.608973 405.453413 
L 512.115467 377.914294 
L 497.62196 369.937115 
L 483.128454 312.407 
L 468.634947 296.56429 
z
" style="fill:#0078ff;fill-opacity:0.1;stroke:#0078ff;stroke-opacity:0.1;"/>
   </g>
   <g id="PolyCollection_10">
    <path clip-path="url(#pe4c1cf3e9f)" d="M 468.634947 243.463676 
L 468.634947 437.927585 
L 483.128454 423.75683 
L 497.62196 420.243514 
L 512.115467 425.268387 
L 526.608973 424.522708 
L 541.10248 432.847561 
L 555.595986 434.672351 
L 570.089493 430.83463 
L 584.582999 427.479934 
L 599.076506 443.265894 
L 613.570012 446.375794 
L 628.063519 440.167275 
L 642.557025 440.713062 
L 657.050532 443.242195 
L 671.544038 437.507968 
L 686.037545 435.81824 
L 700.531051 420.08214 
L 715.024558 401.675358 
L 729.518064 367.242261 
L 744.011571 331.827722 
L 758.505077 282.047591 
L 772.998584 362.802046 
L 787.49209 303.284992 
L 801.985597 316.00762 
L 801.985597 118.593111 
L 801.985597 118.593111 
L 787.49209 36.606403 
L 772.998584 169.455197 
L 758.505077 -129.461532 
L 744.011571 -33.522584 
L 729.518064 106.628419 
L 715.024558 292.296516 
L 700.531051 351.940108 
L 686.037545 400.126121 
L 671.544038 404.632024 
L 657.050532 415.635374 
L 642.557025 412.051416 
L 628.063519 413.040461 
L 613.570012 425.131089 
L 599.076506 415.880119 
L 584.582999 376.274635 
L 570.089493 385.68269 
L 555.595986 383.324444 
L 541.10248 375.841558 
L 526.608973 343.692651 
L 512.115467 311.795948 
L 497.62196 302.219981 
L 483.128454 321.932104 
L 468.634947 243.463676 
z
" style="fill:#0094ff;fill-opacity:0.1;stroke:#0094ff;stroke-opacity:0.1;"/>
   </g>
   <g id="PolyCollection_11">
    <defs>
     <path d="M 483.128454 -298.747987 
L 483.128454 -173.364986 
L 497.62196 -82.925297 
L 512.115467 -167.924628 
L 526.608973 -182.754681 
L 526.608973 -293.833162 
L 526.608973 -293.833162 
L 512.115467 -276.79554 
L 497.62196 -339.825847 
L 483.128454 -298.747987 
z
" id="m9482b5f6b1" style="stroke:#00b4ff;stroke-opacity:0.1;"/>
    </defs>
    <g clip-path="url(#pe4c1cf3e9f)">
     <use style="fill:#00b4ff;fill-opacity:0.1;stroke:#00b4ff;stroke-opacity:0.1;" x="0" xlink:href="#m9482b5f6b1" y="544.682704"/>
    </g>
   </g>
   <g id="PolyCollection_12">
    <path clip-path="url(#pe4c1cf3e9f)" d="M 483.128454 196.908887 
L 483.128454 437.087579 
L 497.62196 426.842394 
L 512.115467 422.559052 
L 526.608973 422.065703 
L 541.10248 441.359786 
L 555.595986 439.376904 
L 570.089493 444.188755 
L 584.582999 435.907347 
L 599.076506 434.953141 
L 613.570012 444.833272 
L 628.063519 430.083331 
L 642.557025 437.938693 
L 657.050532 440.100188 
L 671.544038 425.402335 
L 686.037545 419.871148 
L 700.531051 408.58198 
L 715.024558 418.360566 
L 729.518064 396.024314 
L 744.011571 341.540941 
L 758.505077 307.806976 
L 772.998584 394.860492 
L 787.49209 339.103538 
L 801.985597 328.574253 
L 801.985597 -59.071443 
L 801.985597 -59.071443 
L 787.49209 -75.495817 
L 772.998584 38.06984 
L 758.505077 -70.064727 
L 744.011571 -140.838074 
L 729.518064 0.847981 
L 715.024558 161.048947 
L 700.531051 254.444224 
L 686.037545 316.053225 
L 671.544038 343.330765 
L 657.050532 355.371492 
L 642.557025 351.543331 
L 628.063519 368.4695 
L 613.570012 388.032937 
L 599.076506 380.265877 
L 584.582999 370.137244 
L 570.089493 393.164819 
L 555.595986 370.249706 
L 541.10248 364.804302 
L 526.608973 309.338612 
L 512.115467 263.063553 
L 497.62196 100.429879 
L 483.128454 196.908887 
z
" style="fill:#00d4ff;fill-opacity:0.1;stroke:#00d4ff;stroke-opacity:0.1;"/>
   </g>
   <g id="PolyCollection_13">
    <defs>
     <path d="M 497.62196 -255.650278 
L 497.62196 -123.901585 
L 512.115467 -127.410654 
L 526.608973 -133.718038 
L 541.10248 -116.930333 
L 555.595986 -119.41888 
L 570.089493 -111.991002 
L 584.582999 -110.881272 
L 599.076506 -109.7294 
L 613.570012 -109.941385 
L 628.063519 -108.319752 
L 642.557025 -112.384324 
L 657.050532 -112.605066 
L 671.544038 -120.517117 
L 686.037545 -126.757184 
L 700.531051 -140.106786 
L 715.024558 -165.647004 
L 729.518064 -198.635531 
L 744.011571 -230.613571 
L 758.505077 -288.338159 
L 772.998584 -208.150607 
L 787.49209 -266.566245 
L 801.985597 -308.513615 
L 801.985597 -495.432673 
L 801.985597 -495.432673 
L 787.49209 -506.214553 
L 772.998584 -394.637668 
L 758.505077 -537.909277 
L 744.011571 -496.098366 
L 729.518064 -388.679457 
L 715.024558 -258.033197 
L 700.531051 -213.358477 
L 686.037545 -173.792932 
L 671.544038 -159.798435 
L 657.050532 -152.164227 
L 642.557025 -149.313736 
L 628.063519 -150.409601 
L 613.570012 -139.07988 
L 599.076506 -144.765173 
L 584.582999 -148.479112 
L 570.089493 -149.026406 
L 555.595986 -158.855264 
L 541.10248 -181.111351 
L 526.608973 -184.380522 
L 512.115467 -217.146666 
L 497.62196 -255.650278 
z
" id="m0882c09214" style="stroke:#0cf4eb;stroke-opacity:0.1;"/>
    </defs>
    <g clip-path="url(#pe4c1cf3e9f)">
     <use style="fill:#0cf4eb;fill-opacity:0.1;stroke:#0cf4eb;stroke-opacity:0.1;" x="0" xlink:href="#m0882c09214" y="544.682704"/>
    </g>
   </g>
   <g id="PolyCollection_14">
    <path clip-path="url(#pe4c1cf3e9f)" d="M 512.115467 376.110412 
L 512.115467 452.935752 
L 526.608973 440.692779 
L 541.10248 431.155264 
L 555.595986 430.871218 
L 570.089493 445.188802 
L 584.582999 438.540636 
L 599.076506 436.529329 
L 613.570012 439.723339 
L 628.063519 439.907777 
L 642.557025 432.627668 
L 657.050532 432.077638 
L 671.544038 420.064893 
L 686.037545 419.851448 
L 700.531051 412.135146 
L 715.024558 373.8541 
L 729.518064 320.075505 
L 744.011571 338.548876 
L 758.505077 236.027522 
L 772.998584 371.016927 
L 787.49209 307.443405 
L 801.985597 375.695016 
L 801.985597 -37.195466 
L 801.985597 -37.195466 
L 787.49209 -522.223166 
L 772.998584 -244.040597 
L 758.505077 -1200.563597 
L 744.011571 -2234.61065 
L 729.518064 -381.044957 
L 715.024558 -115.012504 
L 700.531051 -189.437776 
L 686.037545 230.077886 
L 671.544038 261.112938 
L 657.050532 340.088232 
L 642.557025 -109.414595 
L 628.063519 -220.236215 
L 613.570012 405.58075 
L 599.076506 354.731091 
L 584.582999 371.143534 
L 570.089493 348.68659 
L 555.595986 222.159814 
L 541.10248 370.651334 
L 526.608973 294.304329 
L 512.115467 376.110412 
z
" style="fill:#23ffd4;fill-opacity:0.1;stroke:#23ffd4;stroke-opacity:0.1;"/>
   </g>
   <g id="PolyCollection_15">
    <path clip-path="url(#pe4c1cf3e9f)" d="M 512.115467 282.229941 
L 512.115467 314.897535 
L 526.608973 344.363203 
L 541.10248 388.681816 
L 555.595986 408.997891 
L 570.089493 417.722309 
L 584.582999 422.337149 
L 599.076506 419.860022 
L 613.570012 423.237175 
L 628.063519 422.162234 
L 642.557025 413.59686 
L 657.050532 414.346799 
L 671.544038 390.399208 
L 686.037545 368.789092 
L 700.531051 321.747945 
L 715.024558 276.017859 
L 729.518064 204.037788 
L 744.011571 48.583827 
L 758.505077 -34.692361 
L 772.998584 166.373926 
L 787.49209 122.060329 
L 801.985597 86.63251 
L 801.985597 -163.778322 
L 801.985597 -163.778322 
L 787.49209 -44.074372 
L 772.998584 19.098184 
L 758.505077 -135.353736 
L 744.011571 -56.134731 
L 729.518064 122.710751 
L 715.024558 212.407979 
L 700.531051 263.728037 
L 686.037545 331.321873 
L 671.544038 354.987607 
L 657.050532 393.554596 
L 642.557025 390.386894 
L 628.063519 401.961602 
L 613.570012 405.602824 
L 599.076506 400.659826 
L 584.582999 402.927212 
L 570.089493 397.060564 
L 555.595986 388.330599 
L 541.10248 362.338572 
L 526.608973 310.080889 
L 512.115467 282.229941 
z
" style="fill:#3cffba;fill-opacity:0.1;stroke:#3cffba;stroke-opacity:0.1;"/>
   </g>
   <g id="PolyCollection_16">
    <path clip-path="url(#pe4c1cf3e9f)" d="M 526.608973 251.812219 
L 526.608973 428.5184 
L 541.10248 422.78075 
L 555.595986 432.280319 
L 570.089493 439.889534 
L 584.582999 428.220672 
L 599.076506 419.836489 
L 613.570012 417.014639 
L 628.063519 403.800401 
L 642.557025 411.706797 
L 657.050532 425.704031 
L 671.544038 416.954437 
L 686.037545 412.887493 
L 700.531051 393.641707 
L 715.024558 385.144964 
L 729.518064 324.20411 
L 744.011571 304.560806 
L 758.505077 341.914918 
L 772.998584 358.612319 
L 787.49209 260.810284 
L 801.985597 290.288101 
L 801.985597 -34.958492 
L 801.985597 -34.958492 
L 787.49209 -138.844433 
L 772.998584 33.716359 
L 758.505077 -56.907547 
L 744.011571 19.963584 
L 729.518064 37.979052 
L 715.024558 64.901187 
L 700.531051 86.230888 
L 686.037545 174.632232 
L 671.544038 178.846398 
L 657.050532 216.652574 
L 642.557025 168.704487 
L 628.063519 228.049978 
L 613.570012 189.124219 
L 599.076506 101.368318 
L 584.582999 196.867521 
L 570.089493 179.224031 
L 555.595986 286.160043 
L 541.10248 237.427318 
L 526.608973 251.812219 
z
" style="fill:#56ffa0;fill-opacity:0.1;stroke:#56ffa0;stroke-opacity:0.1;"/>
   </g>
   <g id="PolyCollection_17">
    <path clip-path="url(#pe4c1cf3e9f)" d="M 526.608973 242.952254 
L 526.608973 435.331302 
L 541.10248 429.610617 
L 555.595986 438.354008 
L 570.089493 437.101981 
L 584.582999 426.583168 
L 599.076506 422.125091 
L 613.570012 423.826264 
L 628.063519 402.319241 
L 642.557025 416.108138 
L 657.050532 426.396358 
L 671.544038 416.065084 
L 686.037545 412.479394 
L 700.531051 394.946822 
L 715.024558 382.044177 
L 729.518064 310.176228 
L 744.011571 294.028675 
L 758.505077 328.89278 
L 772.998584 349.300107 
L 787.49209 246.585923 
L 801.985597 276.650257 
L 801.985597 -56.480657 
L 801.985597 -56.480657 
L 787.49209 -154.358037 
L 772.998584 25.180575 
L 758.505077 -34.246097 
L 744.011571 6.223943 
L 729.518064 13.537802 
L 715.024558 191.933298 
L 700.531051 220.031204 
L 686.037545 274.387378 
L 671.544038 285.43652 
L 657.050532 309.302381 
L 642.557025 248.578074 
L 628.063519 255.946297 
L 613.570012 279.574998 
L 599.076506 264.518203 
L 584.582999 278.983738 
L 570.089493 298.180997 
L 555.595986 278.108432 
L 541.10248 218.921109 
L 526.608973 242.952254 
z
" style="fill:#70ff87;fill-opacity:0.1;stroke:#70ff87;stroke-opacity:0.1;"/>
   </g>
   <g id="PolyCollection_18">
    <defs>
     <path d="M 526.608973 -292.870485 
L 526.608973 -116.164303 
L 541.10248 -121.901954 
L 555.595986 -112.402385 
L 570.089493 -107.580722 
L 584.582999 -118.099536 
L 599.076506 -122.557613 
L 613.570012 -120.85644 
L 628.063519 -142.363463 
L 642.557025 -128.574566 
L 657.050532 -118.286346 
L 671.544038 -128.61762 
L 686.037545 -132.20331 
L 700.531051 -149.735882 
L 715.024558 -162.638527 
L 729.518064 -227.934566 
L 744.011571 -250.654029 
L 758.505077 -218.886879 
L 772.998584 -201.705305 
L 787.49209 -295.270553 
L 801.985597 -269.722856 
L 801.985597 -494.750015 
L 801.985597 -494.750015 
L 787.49209 -561.83972 
L 772.998584 -412.062058 
L 758.505077 -439.494819 
L 744.011571 -538.458761 
L 729.518064 -413.469334 
L 715.024558 -352.749405 
L 700.531051 -324.651499 
L 686.037545 -270.295326 
L 671.544038 -259.246184 
L 657.050532 -235.380322 
L 642.557025 -296.10463 
L 628.063519 -288.736407 
L 613.570012 -265.107706 
L 599.076506 -280.164501 
L 584.582999 -265.698966 
L 570.089493 -246.501707 
L 555.595986 -258.522661 
L 541.10248 -307.255386 
L 526.608973 -292.870485 
z
" id="m9f0f8d388d" style="stroke:#87ff70;stroke-opacity:0.1;"/>
    </defs>
    <g clip-path="url(#pe4c1cf3e9f)">
     <use style="fill:#87ff70;fill-opacity:0.1;stroke:#87ff70;stroke-opacity:0.1;" x="0" xlink:href="#m9f0f8d388d" y="544.682704"/>
    </g>
   </g>
   <g id="PolyCollection_19">
    <path clip-path="url(#pe4c1cf3e9f)" d="M 526.608973 208.669375 
L 526.608973 431.765132 
L 541.10248 427.212191 
L 555.595986 436.542282 
L 570.089493 441.674808 
L 584.582999 430.392701 
L 599.076506 423.896683 
L 613.570012 420.342736 
L 628.063519 404.778781 
L 642.557025 424.596672 
L 657.050532 429.247579 
L 671.544038 422.365353 
L 686.037545 417.709338 
L 700.531051 400.270718 
L 715.024558 392.31087 
L 729.518064 326.261937 
L 744.011571 311.562889 
L 758.505077 349.540369 
L 772.998584 362.545176 
L 787.49209 270.333934 
L 801.985597 297.479548 
L 801.985597 -11.808674 
L 801.985597 -11.808674 
L 787.49209 -107.778003 
L 772.998584 61.405072 
L 758.505077 -14.31145 
L 744.011571 44.539833 
L 729.518064 45.483916 
L 715.024558 83.277505 
L 700.531051 100.589153 
L 686.037545 189.622804 
L 671.544038 189.87985 
L 657.050532 223.315335 
L 642.557025 239.44282 
L 628.063519 246.357519 
L 613.570012 216.429826 
L 599.076506 151.24507 
L 584.582999 225.051535 
L 570.089493 213.775631 
L 555.595986 249.279705 
L 541.10248 179.370705 
L 526.608973 208.669375 
z
" style="fill:#a0ff56;fill-opacity:0.1;stroke:#a0ff56;stroke-opacity:0.1;"/>
   </g>
   <g id="PolyCollection_20">
    <defs>
     <path d="M 526.608973 -257.388667 
L 526.608973 -106.638282 
L 541.10248 -111.603335 
L 555.595986 -103.766446 
L 570.089493 -98.206848 
L 584.582999 -108.094449 
L 599.076506 -109.476185 
L 613.570012 -116.16631 
L 628.063519 -133.416114 
L 642.557025 -120.787663 
L 657.050532 -109.677407 
L 671.544038 -115.442057 
L 686.037545 -118.501797 
L 700.531051 -132.565436 
L 715.024558 -139.422668 
L 729.518064 -227.934566 
L 744.011571 -246.59876 
L 758.505077 -218.886879 
L 772.998584 -201.705305 
L 787.49209 -295.270553 
L 801.985597 -269.722856 
L 801.985597 -494.750015 
L 801.985597 -494.750015 
L 787.49209 -561.83972 
L 772.998584 -412.062058 
L 758.505077 -439.494819 
L 744.011571 -441.30983 
L 729.518064 -413.469334 
L 715.024558 -345.871376 
L 700.531051 -329.606702 
L 686.037545 -270.122928 
L 671.544038 -266.016032 
L 657.050532 -242.12463 
L 642.557025 -270.334549 
L 628.063519 -256.625192 
L 613.570012 -250.302848 
L 599.076506 -265.906755 
L 584.582999 -243.668 
L 570.089493 -225.919428 
L 555.595986 -227.03226 
L 541.10248 -276.589028 
L 526.608973 -257.388667 
z
" id="m58d67a6813" style="stroke:#baff3c;stroke-opacity:0.1;"/>
    </defs>
    <g clip-path="url(#pe4c1cf3e9f)">
     <use style="fill:#baff3c;fill-opacity:0.1;stroke:#baff3c;stroke-opacity:0.1;" x="0" xlink:href="#m58d67a6813" y="544.682704"/>
    </g>
   </g>
   <g id="PolyCollection_21">
    <defs>
     <path d="M 541.10248 -192.032696 
L 541.10248 -115.323722 
L 555.595986 -130.612071 
L 570.089493 -121.635517 
L 584.582999 -116.897398 
L 599.076506 -119.770582 
L 613.570012 -109.941494 
L 628.063519 -108.734629 
L 642.557025 -100.711531 
L 657.050532 -109.074219 
L 671.544038 -127.409192 
L 686.037545 -140.134989 
L 700.531051 -141.35667 
L 715.024558 -166.82308 
L 729.518064 -183.482396 
L 744.011571 -194.525649 
L 758.505077 -250.937744 
L 772.998584 -195.929327 
L 787.49209 -246.522905 
L 787.49209 -423.497112 
L 787.49209 -423.497112 
L 772.998584 -394.637635 
L 758.505077 -354.177813 
L 744.011571 -339.7597 
L 729.518064 -250.647286 
L 715.024558 -201.309128 
L 700.531051 -193.936838 
L 686.037545 -170.743447 
L 671.544038 -155.620385 
L 657.050532 -168.53402 
L 642.557025 -177.881523 
L 628.063519 -162.109742 
L 613.570012 -139.059398 
L 599.076506 -151.924965 
L 584.582999 -157.037245 
L 570.089493 -154.340854 
L 555.595986 -167.678157 
L 541.10248 -192.032696 
z
" id="m43fb6e3933" style="stroke:#d4ff23;stroke-opacity:0.1;"/>
    </defs>
    <g clip-path="url(#pe4c1cf3e9f)">
     <use style="fill:#d4ff23;fill-opacity:0.1;stroke:#d4ff23;stroke-opacity:0.1;" x="0" xlink:href="#m43fb6e3933" y="544.682704"/>
    </g>
   </g>
   <g id="PolyCollection_22">
    <path clip-path="url(#pe4c1cf3e9f)" d="M 584.582999 385.22835 
L 584.582999 433.786299 
L 599.076506 441.075262 
L 613.570012 427.240137 
L 628.063519 421.040907 
L 642.557025 423.564392 
L 657.050532 429.559818 
L 671.544038 427.031591 
L 686.037545 408.225192 
L 700.531051 397.1599 
L 715.024558 374.23214 
L 729.518064 341.31643 
L 744.011571 115.82965 
L 758.505077 214.87883 
L 772.998584 269.201734 
L 787.49209 281.396789 
L 801.985597 218.229511 
L 801.985597 -147.234256 
L 801.985597 -147.234256 
L 787.49209 56.962576 
L 772.998584 -11.513391 
L 758.505077 -583.432003 
L 744.011571 -304.971711 
L 729.518064 213.604454 
L 715.024558 280.807549 
L 700.531051 326.001942 
L 686.037545 350.909633 
L 671.544038 386.05245 
L 657.050532 392.518624 
L 642.557025 395.36905 
L 628.063519 386.462213 
L 613.570012 399.938533 
L 599.076506 347.787937 
L 584.582999 385.22835 
z
" style="fill:#ebff0c;fill-opacity:0.1;stroke:#ebff0c;stroke-opacity:0.1;"/>
   </g>
   <g id="PolyCollection_23">
    <defs>
     <path d="M 686.037545 -246.597764 
L 686.037545 -121.943037 
L 700.531051 -129.634571 
L 715.024558 -157.775623 
L 729.518064 -202.760219 
L 744.011571 -257.429044 
L 758.505077 -286.672175 
L 772.998584 -238.123513 
L 787.49209 -288.827085 
L 801.985597 -299.172116 
L 801.985597 -498.915982 
L 801.985597 -498.915982 
L 787.49209 -479.015404 
L 772.998584 -435.790351 
L 758.505077 -546.17259 
L 744.011571 -479.684201 
L 729.518064 -355.386911 
L 715.024558 -253.10808 
L 700.531051 -278.089632 
L 686.037545 -246.597764 
z
" id="m4af4947050" style="stroke:#ffe600;stroke-opacity:0.1;"/>
    </defs>
    <g clip-path="url(#pe4c1cf3e9f)">
     <use style="fill:#ffe600;fill-opacity:0.1;stroke:#ffe600;stroke-opacity:0.1;" x="0" xlink:href="#m4af4947050" y="544.682704"/>
    </g>
   </g>
   <g id="PolyCollection_24">
    <path clip-path="url(#pe4c1cf3e9f)" d="M 700.531051 263.644079 
L 700.531051 405.633407 
L 729.518064 361.761091 
L 744.011571 236.417815 
L 758.505077 197.144592 
L 772.998584 247.72644 
L 787.49209 287.742966 
L 787.49209 175.342761 
L 787.49209 175.342761 
L 772.998584 -196.122161 
L 758.505077 -407.380282 
L 744.011571 -160.911081 
L 729.518064 212.738459 
L 700.531051 263.644079 
z
" style="fill:#ffc800;fill-opacity:0.1;stroke:#ffc800;stroke-opacity:0.1;"/>
   </g>
   <g id="PolyCollection_25">
    <defs>
     <path d="M 715.024558 -229.980047 
L 715.024558 -152.135173 
L 729.518064 -153.740438 
L 744.011571 -253.277803 
L 758.505077 -311.193667 
L 772.998584 -320.59149 
L 787.49209 -315.08342 
L 801.985597 -356.661551 
L 801.985597 -664.843116 
L 801.985597 -664.843116 
L 787.49209 -576.413406 
L 772.998584 -588.144939 
L 758.505077 -568.183704 
L 744.011571 -445.058184 
L 729.518064 -233.325436 
L 715.024558 -229.980047 
z
" id="m69b29a0ae9" style="stroke:#ffab00;stroke-opacity:0.1;"/>
    </defs>
    <g clip-path="url(#pe4c1cf3e9f)">
     <use style="fill:#ffab00;fill-opacity:0.1;stroke:#ffab00;stroke-opacity:0.1;" x="0" xlink:href="#m69b29a0ae9" y="544.682704"/>
    </g>
   </g>
   <g id="PolyCollection_26">
    <defs>
     <path d="M 715.024558 -286.311638 
L 715.024558 -141.900345 
L 729.518064 -170.850337 
L 729.518064 -404.654006 
L 729.518064 -404.654006 
L 715.024558 -286.311638 
z
" id="m82a513752c" style="stroke:#ff9100;stroke-opacity:0.1;"/>
    </defs>
    <g clip-path="url(#pe4c1cf3e9f)">
     <use style="fill:#ff9100;fill-opacity:0.1;stroke:#ff9100;stroke-opacity:0.1;" x="0" xlink:href="#m82a513752c" y="544.682704"/>
    </g>
   </g>
   <g id="PolyCollection_27">
    <path clip-path="url(#pe4c1cf3e9f)" d="M 744.011571 -54.334212 
L 744.011571 436.715851 
L 758.505077 399.108755 
L 772.998584 461.757406 
L 787.49209 461.757406 
L 801.985597 461.757406 
L 801.985597 -364.487516 
L 801.985597 -364.487516 
L 787.49209 -179.263051 
L 772.998584 -83.087633 
L 758.505077 -42.241432 
L 744.011571 -54.334212 
z
" style="fill:#ff7300;fill-opacity:0.1;stroke:#ff7300;stroke-opacity:0.1;"/>
   </g>
   <g id="PolyCollection_28">
    <defs>
     <path d="M 744.011571 -608.717288 
L 744.011571 -596.235608 
L 758.505077 -513.813079 
L 772.998584 -250.909683 
L 787.49209 -397.828107 
L 801.985597 -467.202001 
L 801.985597 -475.384922 
L 801.985597 -475.384922 
L 787.49209 -405.92035 
L 772.998584 -257.654491 
L 758.505077 -520.780383 
L 744.011571 -608.717288 
z
" id="md3d016c9be" style="stroke:#ff5500;stroke-opacity:0.1;"/>
    </defs>
    <g clip-path="url(#pe4c1cf3e9f)">
     <use style="fill:#ff5500;fill-opacity:0.1;stroke:#ff5500;stroke-opacity:0.1;" x="0" xlink:href="#md3d016c9be" y="544.682704"/>
    </g>
   </g>
   <g id="PolyCollection_29">
    <defs>
     <path d="M 744.011571 -301.478147 
L 744.011571 -226.681262 
L 758.505077 -304.810987 
L 772.998584 -265.124672 
L 787.49209 -325.484481 
L 801.985597 -361.690552 
L 801.985597 -396.95856 
L 801.985597 -396.95856 
L 787.49209 -382.445411 
L 772.998584 -321.467341 
L 758.505077 -361.896152 
L 744.011571 -301.478147 
z
" id="m346d002cf1" style="stroke:#ff3800;stroke-opacity:0.1;"/>
    </defs>
    <g clip-path="url(#pe4c1cf3e9f)">
     <use style="fill:#ff3800;fill-opacity:0.1;stroke:#ff3800;stroke-opacity:0.1;" x="0" xlink:href="#m346d002cf1" y="544.682704"/>
    </g>
   </g>
   <g id="PolyCollection_30">
    <defs>
     <path d="M 744.011571 -490.136592 
L 744.011571 -122.769887 
L 758.505077 -166.30387 
L 772.998584 -121.772952 
L 787.49209 -232.635419 
L 801.985597 -297.878524 
L 801.985597 -568.839054 
L 801.985597 -568.839054 
L 787.49209 -527.193157 
L 772.998584 -457.756482 
L 758.505077 -529.645655 
L 744.011571 -490.136592 
z
" id="m8bf98f5305" style="stroke:#ff1e00;stroke-opacity:0.1;"/>
    </defs>
    <g clip-path="url(#pe4c1cf3e9f)">
     <use style="fill:#ff1e00;fill-opacity:0.1;stroke:#ff1e00;stroke-opacity:0.1;" x="0" xlink:href="#m8bf98f5305" y="544.682704"/>
    </g>
   </g>
   <g id="PolyCollection_31">
    <defs>
     <path d="M 787.49209 -676.228345 
L 787.49209 -266.566349 
L 801.985597 -313.773398 
L 801.985597 -702.636391 
L 801.985597 -702.636391 
L 787.49209 -676.228345 
z
" id="m9714d66b6b" style="stroke:#e80000;stroke-opacity:0.1;"/>
    </defs>
    <g clip-path="url(#pe4c1cf3e9f)">
     <use style="fill:#e80000;fill-opacity:0.1;stroke:#e80000;stroke-opacity:0.1;" x="0" xlink:href="#m9714d66b6b" y="544.682704"/>
    </g>
   </g>
   <g id="PolyCollection_32">
    <defs>
     <path d="M 787.49209 -386.834346 
L 787.49209 -325.061605 
L 801.985597 -321.886204 
L 801.985597 -421.155353 
L 801.985597 -421.155353 
L 787.49209 -386.834346 
z
" id="m06058f6bde" style="stroke:#c40000;stroke-opacity:0.1;"/>
    </defs>
    <g clip-path="url(#pe4c1cf3e9f)">
     <use style="fill:#c40000;fill-opacity:0.1;stroke:#c40000;stroke-opacity:0.1;" x="0" xlink:href="#m06058f6bde" y="544.682704"/>
    </g>
   </g>
   <g id="PolyCollection_33">
    <defs>
     <path d="M 787.49209 -790.928532 
L 787.49209 -342.210889 
L 801.985597 -308.513615 
L 801.985597 -726.70446 
L 801.985597 -726.70446 
L 787.49209 -790.928532 
z
" id="m8844bba7e0" style="stroke:#9f0000;stroke-opacity:0.1;"/>
    </defs>
    <g clip-path="url(#pe4c1cf3e9f)">
     <use style="fill:#9f0000;fill-opacity:0.1;stroke:#9f0000;stroke-opacity:0.1;" x="0" xlink:href="#m8844bba7e0" y="544.682704"/>
    </g>
   </g>
   <g id="PolyCollection_34">
    <defs>
     <path d="M 801.985597 -360.160682 
L 801.985597 -214.31533 
L 801.985597 -360.160682 
L 801.985597 -360.160682 
z
" id="mbe33380f79" style="stroke:#800000;stroke-opacity:0.1;"/>
    </defs>
    <g clip-path="url(#pe4c1cf3e9f)">
     <use style="fill:#800000;fill-opacity:0.1;stroke:#800000;stroke-opacity:0.1;" x="0" xlink:href="#mbe33380f79" y="544.682704"/>
    </g>
   </g>
   <g id="matplotlib.axis_1">
    <g id="xtick_1">
     <g id="line2d_1">
      <defs>
       <path d="M 0 0 
L 0 3.5 
" id="m1ddd230187" style="stroke:#000000;stroke-width:0.8;"/>
      </defs>
      <g>
       <use style="stroke:#000000;stroke-width:0.8;" x="151.848305" xlink:href="#m1ddd230187" y="461.757187"/>
      </g>
     </g>
     <g id="text_1">
      <!-- 2020-03 -->
      <defs>
       <path d="M 19.1875 8.296875 
L 53.609375 8.296875 
L 53.609375 0 
L 7.328125 0 
L 7.328125 8.296875 
Q 12.9375 14.109375 22.625 23.890625 
Q 32.328125 33.6875 34.8125 36.53125 
Q 39.546875 41.84375 41.421875 45.53125 
Q 43.3125 49.21875 43.3125 52.78125 
Q 43.3125 58.59375 39.234375 62.25 
Q 35.15625 65.921875 28.609375 65.921875 
Q 23.96875 65.921875 18.8125 64.3125 
Q 13.671875 62.703125 7.8125 59.421875 
L 7.8125 69.390625 
Q 13.765625 71.78125 18.9375 73 
Q 24.125 74.21875 28.421875 74.21875 
Q 39.75 74.21875 46.484375 68.546875 
Q 53.21875 62.890625 53.21875 53.421875 
Q 53.21875 48.921875 51.53125 44.890625 
Q 49.859375 40.875 45.40625 35.40625 
Q 44.1875 33.984375 37.640625 27.21875 
Q 31.109375 20.453125 19.1875 8.296875 
z
" id="DejaVuSans-50"/>
       <path d="M 31.78125 66.40625 
Q 24.171875 66.40625 20.328125 58.90625 
Q 16.5 51.421875 16.5 36.375 
Q 16.5 21.390625 20.328125 13.890625 
Q 24.171875 6.390625 31.78125 6.390625 
Q 39.453125 6.390625 43.28125 13.890625 
Q 47.125 21.390625 47.125 36.375 
Q 47.125 51.421875 43.28125 58.90625 
Q 39.453125 66.40625 31.78125 66.40625 
z
M 31.78125 74.21875 
Q 44.046875 74.21875 50.515625 64.515625 
Q 56.984375 54.828125 56.984375 36.375 
Q 56.984375 17.96875 50.515625 8.265625 
Q 44.046875 -1.421875 31.78125 -1.421875 
Q 19.53125 -1.421875 13.0625 8.265625 
Q 6.59375 17.96875 6.59375 36.375 
Q 6.59375 54.828125 13.0625 64.515625 
Q 19.53125 74.21875 31.78125 74.21875 
z
" id="DejaVuSans-48"/>
       <path d="M 4.890625 31.390625 
L 31.203125 31.390625 
L 31.203125 23.390625 
L 4.890625 23.390625 
z
" id="DejaVuSans-45"/>
       <path d="M 40.578125 39.3125 
Q 47.65625 37.796875 51.625 33 
Q 55.609375 28.21875 55.609375 21.1875 
Q 55.609375 10.40625 48.1875 4.484375 
Q 40.765625 -1.421875 27.09375 -1.421875 
Q 22.515625 -1.421875 17.65625 -0.515625 
Q 12.796875 0.390625 7.625 2.203125 
L 7.625 11.71875 
Q 11.71875 9.328125 16.59375 8.109375 
Q 21.484375 6.890625 26.8125 6.890625 
Q 36.078125 6.890625 40.9375 10.546875 
Q 45.796875 14.203125 45.796875 21.1875 
Q 45.796875 27.640625 41.28125 31.265625 
Q 36.765625 34.90625 28.71875 34.90625 
L 20.21875 34.90625 
L 20.21875 43.015625 
L 29.109375 43.015625 
Q 36.375 43.015625 40.234375 45.921875 
Q 44.09375 48.828125 44.09375 54.296875 
Q 44.09375 59.90625 40.109375 62.90625 
Q 36.140625 65.921875 28.71875 65.921875 
Q 24.65625 65.921875 20.015625 65.03125 
Q 15.375 64.15625 9.8125 62.3125 
L 9.8125 71.09375 
Q 15.4375 72.65625 20.34375 73.4375 
Q 25.25 74.21875 29.59375 74.21875 
Q 40.828125 74.21875 47.359375 69.109375 
Q 53.90625 64.015625 53.90625 55.328125 
Q 53.90625 49.265625 50.4375 45.09375 
Q 46.96875 40.921875 40.578125 39.3125 
z
" id="DejaVuSans-51"/>
      </defs>
      <g transform="translate(135.180638 514.150349)rotate(-45)scale(0.13 -0.13)">
       <use xlink:href="#DejaVuSans-50"/>
       <use x="63.623047" xlink:href="#DejaVuSans-48"/>
       <use x="127.246094" xlink:href="#DejaVuSans-50"/>
       <use x="190.869141" xlink:href="#DejaVuSans-48"/>
       <use x="254.492188" xlink:href="#DejaVuSans-45"/>
       <use x="290.576172" xlink:href="#DejaVuSans-48"/>
       <use x="354.199219" xlink:href="#DejaVuSans-51"/>
      </g>
     </g>
    </g>
    <g id="xtick_2">
     <g id="line2d_2">
      <g>
       <use style="stroke:#000000;stroke-width:0.8;" x="278.148862" xlink:href="#m1ddd230187" y="461.757187"/>
      </g>
     </g>
     <g id="text_2">
      <!-- 2020-05 -->
      <defs>
       <path d="M 10.796875 72.90625 
L 49.515625 72.90625 
L 49.515625 64.59375 
L 19.828125 64.59375 
L 19.828125 46.734375 
Q 21.96875 47.46875 24.109375 47.828125 
Q 26.265625 48.1875 28.421875 48.1875 
Q 40.625 48.1875 47.75 41.5 
Q 54.890625 34.8125 54.890625 23.390625 
Q 54.890625 11.625 47.5625 5.09375 
Q 40.234375 -1.421875 26.90625 -1.421875 
Q 22.3125 -1.421875 17.546875 -0.640625 
Q 12.796875 0.140625 7.71875 1.703125 
L 7.71875 11.625 
Q 12.109375 9.234375 16.796875 8.0625 
Q 21.484375 6.890625 26.703125 6.890625 
Q 35.15625 6.890625 40.078125 11.328125 
Q 45.015625 15.765625 45.015625 23.390625 
Q 45.015625 31 40.078125 35.4375 
Q 35.15625 39.890625 26.703125 39.890625 
Q 22.75 39.890625 18.8125 39.015625 
Q 14.890625 38.140625 10.796875 36.28125 
z
" id="DejaVuSans-53"/>
      </defs>
      <g transform="translate(261.481195 514.150349)rotate(-45)scale(0.13 -0.13)">
       <use xlink:href="#DejaVuSans-50"/>
       <use x="63.623047" xlink:href="#DejaVuSans-48"/>
       <use x="127.246094" xlink:href="#DejaVuSans-50"/>
       <use x="190.869141" xlink:href="#DejaVuSans-48"/>
       <use x="254.492188" xlink:href="#DejaVuSans-45"/>
       <use x="290.576172" xlink:href="#DejaVuSans-48"/>
       <use x="354.199219" xlink:href="#DejaVuSans-53"/>
      </g>
     </g>
    </g>
    <g id="xtick_3">
     <g id="line2d_3">
      <g>
       <use style="stroke:#000000;stroke-width:0.8;" x="404.449418" xlink:href="#m1ddd230187" y="461.757187"/>
      </g>
     </g>
     <g id="text_3">
      <!-- 2020-07 -->
      <defs>
       <path d="M 8.203125 72.90625 
L 55.078125 72.90625 
L 55.078125 68.703125 
L 28.609375 0 
L 18.3125 0 
L 43.21875 64.59375 
L 8.203125 64.59375 
z
" id="DejaVuSans-55"/>
      </defs>
      <g transform="translate(387.781752 514.150349)rotate(-45)scale(0.13 -0.13)">
       <use xlink:href="#DejaVuSans-50"/>
       <use x="63.623047" xlink:href="#DejaVuSans-48"/>
       <use x="127.246094" xlink:href="#DejaVuSans-50"/>
       <use x="190.869141" xlink:href="#DejaVuSans-48"/>
       <use x="254.492188" xlink:href="#DejaVuSans-45"/>
       <use x="290.576172" xlink:href="#DejaVuSans-48"/>
       <use x="354.199219" xlink:href="#DejaVuSans-55"/>
      </g>
     </g>
    </g>
    <g id="xtick_4">
     <g id="line2d_4">
      <g>
       <use style="stroke:#000000;stroke-width:0.8;" x="532.820476" xlink:href="#m1ddd230187" y="461.757187"/>
      </g>
     </g>
     <g id="text_4">
      <!-- 2020-09 -->
      <defs>
       <path d="M 10.984375 1.515625 
L 10.984375 10.5 
Q 14.703125 8.734375 18.5 7.8125 
Q 22.3125 6.890625 25.984375 6.890625 
Q 35.75 6.890625 40.890625 13.453125 
Q 46.046875 20.015625 46.78125 33.40625 
Q 43.953125 29.203125 39.59375 26.953125 
Q 35.25 24.703125 29.984375 24.703125 
Q 19.046875 24.703125 12.671875 31.3125 
Q 6.296875 37.9375 6.296875 49.421875 
Q 6.296875 60.640625 12.9375 67.421875 
Q 19.578125 74.21875 30.609375 74.21875 
Q 43.265625 74.21875 49.921875 64.515625 
Q 56.59375 54.828125 56.59375 36.375 
Q 56.59375 19.140625 48.40625 8.859375 
Q 40.234375 -1.421875 26.421875 -1.421875 
Q 22.703125 -1.421875 18.890625 -0.6875 
Q 15.09375 0.046875 10.984375 1.515625 
z
M 30.609375 32.421875 
Q 37.25 32.421875 41.125 36.953125 
Q 45.015625 41.5 45.015625 49.421875 
Q 45.015625 57.28125 41.125 61.84375 
Q 37.25 66.40625 30.609375 66.40625 
Q 23.96875 66.40625 20.09375 61.84375 
Q 16.21875 57.28125 16.21875 49.421875 
Q 16.21875 41.5 20.09375 36.953125 
Q 23.96875 32.421875 30.609375 32.421875 
z
" id="DejaVuSans-57"/>
      </defs>
      <g transform="translate(516.152809 514.150349)rotate(-45)scale(0.13 -0.13)">
       <use xlink:href="#DejaVuSans-50"/>
       <use x="63.623047" xlink:href="#DejaVuSans-48"/>
       <use x="127.246094" xlink:href="#DejaVuSans-50"/>
       <use x="190.869141" xlink:href="#DejaVuSans-48"/>
       <use x="254.492188" xlink:href="#DejaVuSans-45"/>
       <use x="290.576172" xlink:href="#DejaVuSans-48"/>
       <use x="354.199219" xlink:href="#DejaVuSans-57"/>
      </g>
     </g>
    </g>
    <g id="xtick_5">
     <g id="line2d_5">
      <g>
       <use style="stroke:#000000;stroke-width:0.8;" x="659.121033" xlink:href="#m1ddd230187" y="461.757187"/>
      </g>
     </g>
     <g id="text_5">
      <!-- 2020-11 -->
      <defs>
       <path d="M 12.40625 8.296875 
L 28.515625 8.296875 
L 28.515625 63.921875 
L 10.984375 60.40625 
L 10.984375 69.390625 
L 28.421875 72.90625 
L 38.28125 72.90625 
L 38.28125 8.296875 
L 54.390625 8.296875 
L 54.390625 0 
L 12.40625 0 
z
" id="DejaVuSans-49"/>
      </defs>
      <g transform="translate(642.453366 514.150349)rotate(-45)scale(0.13 -0.13)">
       <use xlink:href="#DejaVuSans-50"/>
       <use x="63.623047" xlink:href="#DejaVuSans-48"/>
       <use x="127.246094" xlink:href="#DejaVuSans-50"/>
       <use x="190.869141" xlink:href="#DejaVuSans-48"/>
       <use x="254.492188" xlink:href="#DejaVuSans-45"/>
       <use x="290.576172" xlink:href="#DejaVuSans-49"/>
       <use x="354.199219" xlink:href="#DejaVuSans-49"/>
      </g>
     </g>
    </g>
    <g id="xtick_6">
     <g id="line2d_6">
      <g>
       <use style="stroke:#000000;stroke-width:0.8;" x="785.421589" xlink:href="#m1ddd230187" y="461.757187"/>
      </g>
     </g>
     <g id="text_6">
      <!-- 2021-01 -->
      <g transform="translate(768.753922 514.150349)rotate(-45)scale(0.13 -0.13)">
       <use xlink:href="#DejaVuSans-50"/>
       <use x="63.623047" xlink:href="#DejaVuSans-48"/>
       <use x="127.246094" xlink:href="#DejaVuSans-50"/>
       <use x="190.869141" xlink:href="#DejaVuSans-49"/>
       <use x="254.492188" xlink:href="#DejaVuSans-45"/>
       <use x="290.576172" xlink:href="#DejaVuSans-48"/>
       <use x="354.199219" xlink:href="#DejaVuSans-49"/>
      </g>
     </g>
    </g>
    <g id="text_7">
     <!-- Date -->
     <defs>
      <path d="M 19.671875 64.796875 
L 19.671875 8.109375 
L 31.59375 8.109375 
Q 46.6875 8.109375 53.6875 14.9375 
Q 60.6875 21.78125 60.6875 36.53125 
Q 60.6875 51.171875 53.6875 57.984375 
Q 46.6875 64.796875 31.59375 64.796875 
z
M 9.8125 72.90625 
L 30.078125 72.90625 
Q 51.265625 72.90625 61.171875 64.09375 
Q 71.09375 55.28125 71.09375 36.53125 
Q 71.09375 17.671875 61.125 8.828125 
Q 51.171875 0 30.078125 0 
L 9.8125 0 
z
" id="DejaVuSans-68"/>
      <path d="M 34.28125 27.484375 
Q 23.390625 27.484375 19.1875 25 
Q 14.984375 22.515625 14.984375 16.5 
Q 14.984375 11.71875 18.140625 8.90625 
Q 21.296875 6.109375 26.703125 6.109375 
Q 34.1875 6.109375 38.703125 11.40625 
Q 43.21875 16.703125 43.21875 25.484375 
L 43.21875 27.484375 
z
M 52.203125 31.203125 
L 52.203125 0 
L 43.21875 0 
L 43.21875 8.296875 
Q 40.140625 3.328125 35.546875 0.953125 
Q 30.953125 -1.421875 24.3125 -1.421875 
Q 15.921875 -1.421875 10.953125 3.296875 
Q 6 8.015625 6 15.921875 
Q 6 25.140625 12.171875 29.828125 
Q 18.359375 34.515625 30.609375 34.515625 
L 43.21875 34.515625 
L 43.21875 35.40625 
Q 43.21875 41.609375 39.140625 45 
Q 35.0625 48.390625 27.6875 48.390625 
Q 23 48.390625 18.546875 47.265625 
Q 14.109375 46.140625 10.015625 43.890625 
L 10.015625 52.203125 
Q 14.9375 54.109375 19.578125 55.046875 
Q 24.21875 56 28.609375 56 
Q 40.484375 56 46.34375 49.84375 
Q 52.203125 43.703125 52.203125 31.203125 
z
" id="DejaVuSans-97"/>
      <path d="M 18.3125 70.21875 
L 18.3125 54.6875 
L 36.8125 54.6875 
L 36.8125 47.703125 
L 18.3125 47.703125 
L 18.3125 18.015625 
Q 18.3125 11.328125 20.140625 9.421875 
Q 21.96875 7.515625 27.59375 7.515625 
L 36.8125 7.515625 
L 36.8125 0 
L 27.59375 0 
Q 17.1875 0 13.234375 3.875 
Q 9.28125 7.765625 9.28125 18.015625 
L 9.28125 47.703125 
L 2.6875 47.703125 
L 2.6875 54.6875 
L 9.28125 54.6875 
L 9.28125 70.21875 
z
" id="DejaVuSans-116"/>
      <path d="M 56.203125 29.59375 
L 56.203125 25.203125 
L 14.890625 25.203125 
Q 15.484375 15.921875 20.484375 11.0625 
Q 25.484375 6.203125 34.421875 6.203125 
Q 39.59375 6.203125 44.453125 7.46875 
Q 49.3125 8.734375 54.109375 11.28125 
L 54.109375 2.78125 
Q 49.265625 0.734375 44.1875 -0.34375 
Q 39.109375 -1.421875 33.890625 -1.421875 
Q 20.796875 -1.421875 13.15625 6.1875 
Q 5.515625 13.8125 5.515625 26.8125 
Q 5.515625 40.234375 12.765625 48.109375 
Q 20.015625 56 32.328125 56 
Q 43.359375 56 49.78125 48.890625 
Q 56.203125 41.796875 56.203125 29.59375 
z
M 47.21875 32.234375 
Q 47.125 39.59375 43.09375 43.984375 
Q 39.0625 48.390625 32.421875 48.390625 
Q 24.90625 48.390625 20.390625 44.140625 
Q 15.875 39.890625 15.1875 32.171875 
z
" id="DejaVuSans-101"/>
     </defs>
     <g transform="translate(425.383281 533.739266)scale(0.18 -0.18)">
      <use xlink:href="#DejaVuSans-68"/>
      <use x="77.001953" xlink:href="#DejaVuSans-97"/>
      <use x="138.28125" xlink:href="#DejaVuSans-116"/>
      <use x="177.490234" xlink:href="#DejaVuSans-101"/>
     </g>
    </g>
   </g>
   <g id="matplotlib.axis_2">
    <g id="ytick_1">
     <g id="line2d_7">
      <defs>
       <path d="M 0 0 
L -3.5 0 
" id="mb89ec852e6" style="stroke:#000000;stroke-width:0.8;"/>
      </defs>
      <g>
       <use style="stroke:#000000;stroke-width:0.8;" x="56.294688" xlink:href="#mb89ec852e6" y="370.541693"/>
      </g>
     </g>
     <g id="text_8">
      <!-- 0.5 -->
      <defs>
       <path d="M 10.6875 12.40625 
L 21 12.40625 
L 21 0 
L 10.6875 0 
z
" id="DejaVuSans-46"/>
      </defs>
      <g transform="translate(28.620625 375.480677)scale(0.13 -0.13)">
       <use xlink:href="#DejaVuSans-48"/>
       <use x="63.623047" xlink:href="#DejaVuSans-46"/>
       <use x="95.410156" xlink:href="#DejaVuSans-53"/>
      </g>
     </g>
    </g>
    <g id="ytick_2">
     <g id="line2d_8">
      <g>
       <use style="stroke:#000000;stroke-width:0.8;" x="56.294688" xlink:href="#mb89ec852e6" y="279.325979"/>
      </g>
     </g>
     <g id="text_9">
      <!-- 1.0 -->
      <g transform="translate(28.620625 284.264963)scale(0.13 -0.13)">
       <use xlink:href="#DejaVuSans-49"/>
       <use x="63.623047" xlink:href="#DejaVuSans-46"/>
       <use x="95.410156" xlink:href="#DejaVuSans-48"/>
      </g>
     </g>
    </g>
    <g id="ytick_3">
     <g id="line2d_9">
      <g>
       <use style="stroke:#000000;stroke-width:0.8;" x="56.294688" xlink:href="#mb89ec852e6" y="188.110265"/>
      </g>
     </g>
     <g id="text_10">
      <!-- 1.5 -->
      <g transform="translate(28.620625 193.04925)scale(0.13 -0.13)">
       <use xlink:href="#DejaVuSans-49"/>
       <use x="63.623047" xlink:href="#DejaVuSans-46"/>
       <use x="95.410156" xlink:href="#DejaVuSans-53"/>
      </g>
     </g>
    </g>
    <g id="ytick_4">
     <g id="line2d_10">
      <g>
       <use style="stroke:#000000;stroke-width:0.8;" x="56.294688" xlink:href="#mb89ec852e6" y="96.894552"/>
      </g>
     </g>
     <g id="text_11">
      <!-- 2.0 -->
      <g transform="translate(28.620625 101.833536)scale(0.13 -0.13)">
       <use xlink:href="#DejaVuSans-50"/>
       <use x="63.623047" xlink:href="#DejaVuSans-46"/>
       <use x="95.410156" xlink:href="#DejaVuSans-48"/>
      </g>
     </g>
    </g>
    <g id="text_12">
     <!-- US weekly incidental cases -->
     <defs>
      <path d="M 8.6875 72.90625 
L 18.609375 72.90625 
L 18.609375 28.609375 
Q 18.609375 16.890625 22.84375 11.734375 
Q 27.09375 6.59375 36.625 6.59375 
Q 46.09375 6.59375 50.34375 11.734375 
Q 54.59375 16.890625 54.59375 28.609375 
L 54.59375 72.90625 
L 64.5 72.90625 
L 64.5 27.390625 
Q 64.5 13.140625 57.4375 5.859375 
Q 50.390625 -1.421875 36.625 -1.421875 
Q 22.796875 -1.421875 15.734375 5.859375 
Q 8.6875 13.140625 8.6875 27.390625 
z
" id="DejaVuSans-85"/>
      <path d="M 53.515625 70.515625 
L 53.515625 60.890625 
Q 47.90625 63.578125 42.921875 64.890625 
Q 37.9375 66.21875 33.296875 66.21875 
Q 25.25 66.21875 20.875 63.09375 
Q 16.5 59.96875 16.5 54.203125 
Q 16.5 49.359375 19.40625 46.890625 
Q 22.3125 44.4375 30.421875 42.921875 
L 36.375 41.703125 
Q 47.40625 39.59375 52.65625 34.296875 
Q 57.90625 29 57.90625 20.125 
Q 57.90625 9.515625 50.796875 4.046875 
Q 43.703125 -1.421875 29.984375 -1.421875 
Q 24.8125 -1.421875 18.96875 -0.25 
Q 13.140625 0.921875 6.890625 3.21875 
L 6.890625 13.375 
Q 12.890625 10.015625 18.65625 8.296875 
Q 24.421875 6.59375 29.984375 6.59375 
Q 38.421875 6.59375 43.015625 9.90625 
Q 47.609375 13.234375 47.609375 19.390625 
Q 47.609375 24.75 44.3125 27.78125 
Q 41.015625 30.8125 33.5 32.328125 
L 27.484375 33.5 
Q 16.453125 35.6875 11.515625 40.375 
Q 6.59375 45.0625 6.59375 53.421875 
Q 6.59375 63.09375 13.40625 68.65625 
Q 20.21875 74.21875 32.171875 74.21875 
Q 37.3125 74.21875 42.625 73.28125 
Q 47.953125 72.359375 53.515625 70.515625 
z
" id="DejaVuSans-83"/>
      <path id="DejaVuSans-32"/>
      <path d="M 4.203125 54.6875 
L 13.1875 54.6875 
L 24.421875 12.015625 
L 35.59375 54.6875 
L 46.1875 54.6875 
L 57.421875 12.015625 
L 68.609375 54.6875 
L 77.59375 54.6875 
L 63.28125 0 
L 52.6875 0 
L 40.921875 44.828125 
L 29.109375 0 
L 18.5 0 
z
" id="DejaVuSans-119"/>
      <path d="M 9.078125 75.984375 
L 18.109375 75.984375 
L 18.109375 31.109375 
L 44.921875 54.6875 
L 56.390625 54.6875 
L 27.390625 29.109375 
L 57.625 0 
L 45.90625 0 
L 18.109375 26.703125 
L 18.109375 0 
L 9.078125 0 
z
" id="DejaVuSans-107"/>
      <path d="M 9.421875 75.984375 
L 18.40625 75.984375 
L 18.40625 0 
L 9.421875 0 
z
" id="DejaVuSans-108"/>
      <path d="M 32.171875 -5.078125 
Q 28.375 -14.84375 24.75 -17.8125 
Q 21.140625 -20.796875 15.09375 -20.796875 
L 7.90625 -20.796875 
L 7.90625 -13.28125 
L 13.1875 -13.28125 
Q 16.890625 -13.28125 18.9375 -11.515625 
Q 21 -9.765625 23.484375 -3.21875 
L 25.09375 0.875 
L 2.984375 54.6875 
L 12.5 54.6875 
L 29.59375 11.921875 
L 46.6875 54.6875 
L 56.203125 54.6875 
z
" id="DejaVuSans-121"/>
      <path d="M 9.421875 54.6875 
L 18.40625 54.6875 
L 18.40625 0 
L 9.421875 0 
z
M 9.421875 75.984375 
L 18.40625 75.984375 
L 18.40625 64.59375 
L 9.421875 64.59375 
z
" id="DejaVuSans-105"/>
      <path d="M 54.890625 33.015625 
L 54.890625 0 
L 45.90625 0 
L 45.90625 32.71875 
Q 45.90625 40.484375 42.875 44.328125 
Q 39.84375 48.1875 33.796875 48.1875 
Q 26.515625 48.1875 22.3125 43.546875 
Q 18.109375 38.921875 18.109375 30.90625 
L 18.109375 0 
L 9.078125 0 
L 9.078125 54.6875 
L 18.109375 54.6875 
L 18.109375 46.1875 
Q 21.34375 51.125 25.703125 53.5625 
Q 30.078125 56 35.796875 56 
Q 45.21875 56 50.046875 50.171875 
Q 54.890625 44.34375 54.890625 33.015625 
z
" id="DejaVuSans-110"/>
      <path d="M 48.78125 52.59375 
L 48.78125 44.1875 
Q 44.96875 46.296875 41.140625 47.34375 
Q 37.3125 48.390625 33.40625 48.390625 
Q 24.65625 48.390625 19.8125 42.84375 
Q 14.984375 37.3125 14.984375 27.296875 
Q 14.984375 17.28125 19.8125 11.734375 
Q 24.65625 6.203125 33.40625 6.203125 
Q 37.3125 6.203125 41.140625 7.25 
Q 44.96875 8.296875 48.78125 10.40625 
L 48.78125 2.09375 
Q 45.015625 0.34375 40.984375 -0.53125 
Q 36.96875 -1.421875 32.421875 -1.421875 
Q 20.0625 -1.421875 12.78125 6.34375 
Q 5.515625 14.109375 5.515625 27.296875 
Q 5.515625 40.671875 12.859375 48.328125 
Q 20.21875 56 33.015625 56 
Q 37.15625 56 41.109375 55.140625 
Q 45.0625 54.296875 48.78125 52.59375 
z
" id="DejaVuSans-99"/>
      <path d="M 45.40625 46.390625 
L 45.40625 75.984375 
L 54.390625 75.984375 
L 54.390625 0 
L 45.40625 0 
L 45.40625 8.203125 
Q 42.578125 3.328125 38.25 0.953125 
Q 33.9375 -1.421875 27.875 -1.421875 
Q 17.96875 -1.421875 11.734375 6.484375 
Q 5.515625 14.40625 5.515625 27.296875 
Q 5.515625 40.1875 11.734375 48.09375 
Q 17.96875 56 27.875 56 
Q 33.9375 56 38.25 53.625 
Q 42.578125 51.265625 45.40625 46.390625 
z
M 14.796875 27.296875 
Q 14.796875 17.390625 18.875 11.75 
Q 22.953125 6.109375 30.078125 6.109375 
Q 37.203125 6.109375 41.296875 11.75 
Q 45.40625 17.390625 45.40625 27.296875 
Q 45.40625 37.203125 41.296875 42.84375 
Q 37.203125 48.484375 30.078125 48.484375 
Q 22.953125 48.484375 18.875 42.84375 
Q 14.796875 37.203125 14.796875 27.296875 
z
" id="DejaVuSans-100"/>
      <path d="M 44.28125 53.078125 
L 44.28125 44.578125 
Q 40.484375 46.53125 36.375 47.5 
Q 32.28125 48.484375 27.875 48.484375 
Q 21.1875 48.484375 17.84375 46.4375 
Q 14.5 44.390625 14.5 40.28125 
Q 14.5 37.15625 16.890625 35.375 
Q 19.28125 33.59375 26.515625 31.984375 
L 29.59375 31.296875 
Q 39.15625 29.25 43.1875 25.515625 
Q 47.21875 21.78125 47.21875 15.09375 
Q 47.21875 7.46875 41.1875 3.015625 
Q 35.15625 -1.421875 24.609375 -1.421875 
Q 20.21875 -1.421875 15.453125 -0.5625 
Q 10.6875 0.296875 5.421875 2 
L 5.421875 11.28125 
Q 10.40625 8.6875 15.234375 7.390625 
Q 20.0625 6.109375 24.8125 6.109375 
Q 31.15625 6.109375 34.5625 8.28125 
Q 37.984375 10.453125 37.984375 14.40625 
Q 37.984375 18.0625 35.515625 20.015625 
Q 33.0625 21.96875 24.703125 23.78125 
L 21.578125 24.515625 
Q 13.234375 26.265625 9.515625 29.90625 
Q 5.8125 33.546875 5.8125 39.890625 
Q 5.8125 47.609375 11.28125 51.796875 
Q 16.75 56 26.8125 56 
Q 31.78125 56 36.171875 55.265625 
Q 40.578125 54.546875 44.28125 53.078125 
z
" id="DejaVuSans-115"/>
     </defs>
     <g transform="translate(20.877188 366.203906)rotate(-90)scale(0.18 -0.18)">
      <use xlink:href="#DejaVuSans-85"/>
      <use x="73.193359" xlink:href="#DejaVuSans-83"/>
      <use x="136.669922" xlink:href="#DejaVuSans-32"/>
      <use x="168.457031" xlink:href="#DejaVuSans-119"/>
      <use x="250.244141" xlink:href="#DejaVuSans-101"/>
      <use x="311.767578" xlink:href="#DejaVuSans-101"/>
      <use x="373.291016" xlink:href="#DejaVuSans-107"/>
      <use x="431.201172" xlink:href="#DejaVuSans-108"/>
      <use x="458.984375" xlink:href="#DejaVuSans-121"/>
      <use x="518.164062" xlink:href="#DejaVuSans-32"/>
      <use x="549.951172" xlink:href="#DejaVuSans-105"/>
      <use x="577.734375" xlink:href="#DejaVuSans-110"/>
      <use x="641.113281" xlink:href="#DejaVuSans-99"/>
      <use x="696.09375" xlink:href="#DejaVuSans-105"/>
      <use x="723.876953" xlink:href="#DejaVuSans-100"/>
      <use x="787.353516" xlink:href="#DejaVuSans-101"/>
      <use x="848.876953" xlink:href="#DejaVuSans-110"/>
      <use x="912.255859" xlink:href="#DejaVuSans-116"/>
      <use x="951.464844" xlink:href="#DejaVuSans-97"/>
      <use x="1012.744141" xlink:href="#DejaVuSans-108"/>
      <use x="1040.527344" xlink:href="#DejaVuSans-32"/>
      <use x="1072.314453" xlink:href="#DejaVuSans-99"/>
      <use x="1127.294922" xlink:href="#DejaVuSans-97"/>
      <use x="1188.574219" xlink:href="#DejaVuSans-115"/>
      <use x="1240.673828" xlink:href="#DejaVuSans-101"/>
      <use x="1302.197266" xlink:href="#DejaVuSans-115"/>
     </g>
    </g>
    <g id="text_13">
     <!-- 1e6 -->
     <defs>
      <path d="M 33.015625 40.375 
Q 26.375 40.375 22.484375 35.828125 
Q 18.609375 31.296875 18.609375 23.390625 
Q 18.609375 15.53125 22.484375 10.953125 
Q 26.375 6.390625 33.015625 6.390625 
Q 39.65625 6.390625 43.53125 10.953125 
Q 47.40625 15.53125 47.40625 23.390625 
Q 47.40625 31.296875 43.53125 35.828125 
Q 39.65625 40.375 33.015625 40.375 
z
M 52.59375 71.296875 
L 52.59375 62.3125 
Q 48.875 64.0625 45.09375 64.984375 
Q 41.3125 65.921875 37.59375 65.921875 
Q 27.828125 65.921875 22.671875 59.328125 
Q 17.53125 52.734375 16.796875 39.40625 
Q 19.671875 43.65625 24.015625 45.921875 
Q 28.375 48.1875 33.59375 48.1875 
Q 44.578125 48.1875 50.953125 41.515625 
Q 57.328125 34.859375 57.328125 23.390625 
Q 57.328125 12.15625 50.6875 5.359375 
Q 44.046875 -1.421875 33.015625 -1.421875 
Q 20.359375 -1.421875 13.671875 8.265625 
Q 6.984375 17.96875 6.984375 36.375 
Q 6.984375 53.65625 15.1875 63.9375 
Q 23.390625 74.21875 37.203125 74.21875 
Q 40.921875 74.21875 44.703125 73.484375 
Q 48.484375 72.75 52.59375 71.296875 
z
" id="DejaVuSans-54"/>
     </defs>
     <g transform="translate(56.294688 23.877187)scale(0.1 -0.1)">
      <use xlink:href="#DejaVuSans-49"/>
      <use x="63.623047" xlink:href="#DejaVuSans-101"/>
      <use x="125.146484" xlink:href="#DejaVuSans-54"/>
     </g>
    </g>
   </g>
   <g id="line2d_11">
    <path clip-path="url(#pe4c1cf3e9f)" d="M 280.219363 427.575777 
L 294.712869 422.070726 
L 309.206376 424.212836 
L 323.699882 423.411233 
L 338.193389 426.295473 
L 352.686895 429.465037 
L 367.180402 432.883984 
L 381.673908 433.518481 
L 396.167415 434.839102 
L 410.660921 434.411665 
L 425.154428 434.759744 
L 439.647934 428.811568 
L 454.141441 415.264027 
L 468.634947 401.705176 
L 483.128454 387.930327 
L 497.62196 376.837766 
L 512.115467 376.633443 
L 526.608973 381.218674 
L 541.10248 392.919279 
L 555.595986 395.491744 
L 570.089493 405.943059 
L 584.582999 408.118188 
L 599.076506 409.969503 
L 613.570012 417.929351 
L 628.063519 410.704519 
L 642.557025 405.209137 
L 657.050532 406.564967 
L 671.544038 400.535061 
L 686.037545 390.891554 
L 700.531051 376.23483 
L 715.024558 361.66385 
L 729.518064 329.101664 
L 744.011571 276.076875 
L 758.505077 245.663732 
L 772.998584 253.715343 
L 787.49209 217.912993 
L 801.985597 191.579929 
" style="fill:none;stroke:#000080;stroke-linecap:square;stroke-width:1.5;"/>
   </g>
   <g id="line2d_12">
    <path clip-path="url(#pe4c1cf3e9f)" d="M 454.141441 412.421628 
L 468.634947 409.637167 
L 483.128454 404.164157 
L 497.62196 400.385623 
L 512.115467 402.398001 
L 526.608973 419.191652 
L 541.10248 418.72749 
L 555.595986 425.91407 
L 570.089493 429.406414 
L 584.582999 432.444518 
L 599.076506 437.763721 
L 613.570012 435.396374 
L 628.063519 434.446052 
L 642.557025 430.867155 
L 657.050532 425.76432 
L 671.544038 417.66578 
L 686.037545 415.313188 
L 700.531051 328.221889 
L 715.024558 263.817666 
L 729.518064 143.253023 
L 744.011571 95.373986 
L 758.505077 234.205032 
L 772.998584 261.754914 
L 787.49209 124.466052 
L 801.985597 172.717979 
" style="fill:none;stroke:#00009f;stroke-linecap:square;stroke-width:1.5;"/>
   </g>
   <g id="line2d_13">
    <path clip-path="url(#pe4c1cf3e9f)" d="M 468.634947 436.628166 
L 483.128454 388.376845 
L 497.62196 178.711233 
L 512.115467 289.530201 
L 526.608973 377.159411 
L 541.10248 363.09418 
L 555.595986 429.624362 
L 570.089493 431.321226 
L 584.582999 434.602173 
L 599.076506 441.162163 
L 613.570012 443.263238 
L 628.063519 438.421575 
L 657.050532 438.727653 
L 671.544038 429.997655 
L 686.037545 390.900369 
L 700.531051 349.208302 
L 715.024558 333.474203 
L 729.518064 118.359711 
L 744.011571 48.789198 
L 758.505077 101.35305 
L 772.998584 409.682983 
L 787.49209 115.254212 
L 801.985597 75.983229 
" style="fill:none;stroke:#0000c4;stroke-linecap:square;stroke-width:1.5;"/>
   </g>
   <g id="line2d_14">
    <path clip-path="url(#pe4c1cf3e9f)" d="M 468.634947 405.30619 
L 483.128454 404.261406 
L 497.62196 397.311316 
L 512.115467 389.276853 
L 526.608973 390.43511 
L 541.10248 403.318235 
L 555.595986 415.432229 
L 570.089493 427.360326 
L 584.582999 431.639255 
L 599.076506 435.751442 
L 613.570012 439.423969 
L 628.063519 441.143932 
L 642.557025 442.201487 
L 657.050532 439.767852 
L 671.544038 434.844757 
L 686.037545 435.83463 
L 700.531051 411.97935 
L 715.024558 382.001123 
L 729.518064 329.937383 
L 744.011571 258.46677 
L 758.505077 35.30333 
L 772.998584 74.251345 
L 787.49209 109.617319 
L 801.985597 139.836173 
" style="fill:none;stroke:#0000e8;stroke-linecap:square;stroke-width:1.5;"/>
   </g>
   <g id="line2d_15">
    <path clip-path="url(#pe4c1cf3e9f)" d="M 468.634947 410.718653 
L 483.128454 405.926989 
L 497.62196 388.461849 
L 512.115467 394.574917 
L 526.608973 414.949587 
L 541.10248 421.101563 
L 555.595986 419.882083 
L 570.089493 429.830707 
L 584.582999 420.82195 
L 599.076506 418.451114 
L 613.570012 422.555675 
L 628.063519 404.616415 
L 642.557025 407.677174 
L 671.544038 394.473262 
L 700.531051 371.298241 
L 729.518064 319.530437 
L 744.011571 310.137871 
L 758.505077 347.926332 
L 772.998584 375.799175 
" style="fill:none;stroke:#0000ff;stroke-linecap:square;stroke-width:1.5;"/>
   </g>
   <g id="line2d_16">
    <path clip-path="url(#pe4c1cf3e9f)" d="M 468.634947 396.040772 
L 483.128454 386.505355 
L 497.62196 378.549885 
L 512.115467 358.793747 
L 526.608973 367.7556 
L 541.10248 381.318921 
L 555.595986 393.858071 
L 570.089493 407.977534 
L 584.582999 417.242587 
L 599.076506 421.878079 
L 613.570012 426.529807 
L 628.063519 428.238368 
L 642.557025 415.428033 
L 657.050532 406.073588 
L 671.544038 408.3299 
L 686.037545 398.265797 
L 700.531051 398.209425 
L 715.024558 393.519296 
L 744.011571 253.428652 
L 758.505077 250.646755 
L 772.998584 253.674296 
L 787.49209 244.30179 
L 801.985597 220.31972 
" style="fill:none;stroke:#0018ff;stroke-linecap:square;stroke-width:1.5;"/>
   </g>
   <g id="line2d_17">
    <path clip-path="url(#pe4c1cf3e9f)" d="M 468.634947 379.851168 
L 483.128454 363.935851 
L 497.62196 367.826566 
L 512.115467 380.700752 
L 526.608973 387.583707 
L 555.595986 408.929643 
L 570.089493 408.387822 
L 584.582999 406.417015 
L 599.076506 408.570618 
L 613.570012 414.999137 
L 628.063519 420.431945 
L 642.557025 413.905643 
L 657.050532 421.854545 
L 671.544038 418.920683 
L 686.037545 410.918876 
L 700.531051 384.093794 
L 715.024558 365.531031 
L 729.518064 353.085377 
L 744.011571 276.640041 
L 758.505077 228.397327 
L 772.998584 248.526811 
L 787.49209 228.836075 
L 801.985597 184.428799 
" style="fill:none;stroke:#0038ff;stroke-linecap:square;stroke-width:1.5;"/>
   </g>
   <g id="line2d_18">
    <path clip-path="url(#pe4c1cf3e9f)" d="M 468.634947 367.916959 
L 483.128454 355.744522 
L 497.62196 350.243467 
L 512.115467 349.838162 
L 526.608973 377.399242 
L 555.595986 417.497825 
L 570.089493 428.626755 
L 584.582999 435.243727 
L 599.076506 427.621558 
L 613.570012 430.464187 
L 628.063519 439.790026 
L 642.557025 433.127817 
L 657.050532 402.42451 
L 671.544038 396.335667 
L 686.037545 414.855983 
L 700.531051 327.519811 
L 715.024558 319.988715 
L 729.518064 254.4957 
L 758.505077 194.744099 
L 772.998584 246.981135 
L 787.49209 135.529761 
L 801.985597 121.51002 
" style="fill:none;stroke:#0058ff;stroke-linecap:square;stroke-width:1.5;"/>
   </g>
   <g id="line2d_19">
    <path clip-path="url(#pe4c1cf3e9f)" d="M 468.634947 359.516997 
L 483.128454 382.920942 
L 497.62196 392.590902 
L 512.115467 400.106347 
L 526.608973 418.65634 
L 541.10248 425.284621 
L 555.595986 418.465334 
L 570.089493 431.710038 
L 584.582999 423.718994 
L 599.076506 403.918617 
L 613.570012 417.902898 
L 628.063519 418.426659 
L 642.557025 385.807919 
L 657.050532 373.143347 
L 671.544038 391.557065 
L 686.037545 365.858094 
L 700.531051 333.450647 
L 715.024558 104.306376 
L 729.518064 76.46132 
L 732.768488 -1 
M 760.208342 -1 
L 772.998584 354.907319 
L 787.49209 0.858452 
L 801.985597 26.533304 
" style="fill:none;stroke:#0078ff;stroke-linecap:square;stroke-width:1.5;"/>
   </g>
   <g id="line2d_20">
    <path clip-path="url(#pe4c1cf3e9f)" d="M 468.634947 393.559044 
L 483.128454 370.059949 
L 497.62196 363.368852 
L 512.115467 375.386898 
L 526.608973 395.752681 
L 541.10248 416.745264 
L 555.595986 417.617296 
L 570.089493 417.529144 
L 584.582999 410.323529 
L 599.076506 431.913974 
L 613.570012 440.192773 
L 628.063519 427.776688 
L 642.557025 427.03463 
L 657.050532 430.604692 
L 671.544038 422.603565 
L 686.037545 420.424367 
L 700.531051 392.411501 
L 715.024558 356.448604 
L 729.518064 272.840335 
L 744.011571 199.349121 
L 758.505077 112.610902 
L 772.998584 285.821731 
L 787.49209 186.316223 
L 801.985597 236.373616 
" style="fill:none;stroke:#0094ff;stroke-linecap:square;stroke-width:1.5;"/>
   </g>
   <g id="line2d_21">
    <path clip-path="url(#pe4c1cf3e9f)" d="M 483.128454 324.005318 
L 497.62196 321.026856 
L 512.115467 335.717201 
L 526.608973 313.803378 
" style="fill:none;stroke:#00b4ff;stroke-linecap:square;stroke-width:1.5;"/>
   </g>
   <g id="line2d_22">
    <path clip-path="url(#pe4c1cf3e9f)" d="M 483.128454 370.877676 
L 497.62196 312.28572 
L 512.115467 364.57184 
L 526.608973 395.06264 
L 541.10248 414.958656 
L 555.595986 416.704264 
L 570.089493 426.421449 
L 584.582999 416.216149 
L 599.076506 415.510537 
L 613.570012 422.865257 
L 628.063519 405.51487 
L 642.557025 404.196569 
L 657.050532 407.451341 
L 671.544038 383.942299 
L 686.037545 375.625878 
L 700.531051 342.682269 
L 715.024558 331.261969 
L 729.518064 259.790406 
L 744.011571 167.913971 
L 758.505077 198.800235 
L 772.998584 283.794949 
L 787.49209 207.699588 
L 801.985597 197.862178 
" style="fill:none;stroke:#00d4ff;stroke-linecap:square;stroke-width:1.5;"/>
   </g>
   <g id="line2d_23">
    <path clip-path="url(#pe4c1cf3e9f)" d="M 497.62196 371.320857 
L 512.115467 375.386889 
L 526.608973 389.009409 
L 541.10248 398.863077 
L 555.595986 416.068185 
L 570.089493 424.410774 
L 584.582999 416.729317 
L 599.076506 414.101757 
L 613.570012 422.555629 
L 628.063519 415.627431 
L 642.557025 407.677252 
L 657.050532 407.451402 
L 671.544038 400.771675 
L 686.037545 390.891554 
L 700.531051 364.952906 
L 715.024558 333.474181 
L 729.518064 262.699726 
L 744.011571 193.352797 
L 758.505077 151.441549 
L 772.998584 251.827178 
L 787.49209 169.916379 
L 801.985597 139.836173 
" style="fill:none;stroke:#0cf4eb;stroke-linecap:square;stroke-width:1.5;"/>
   </g>
   <g id="line2d_24">
    <path clip-path="url(#pe4c1cf3e9f)" d="M 512.115467 427.899775 
L 526.608973 409.698409 
L 541.10248 415.575073 
L 555.595986 393.908969 
L 570.089493 422.400198 
L 584.582999 419.315829 
L 599.076506 414.101757 
L 613.570012 427.976397 
L 628.063519 334.699573 
L 642.557025 374.054775 
L 657.050532 407.552286 
L 671.544038 380.22716 
L 686.037545 371.448559 
L 700.531051 345.525236 
L 715.024558 260.505076 
L 729.518064 151.593514 
L 744.011571 114.868243 
L 754.824233 -1 
M 760.691027 -1 
L 772.998584 221.080732 
L 787.49209 103.253199 
L 801.985597 262.009588 
" style="fill:none;stroke:#23ffd4;stroke-linecap:square;stroke-width:1.5;"/>
   </g>
   <g id="line2d_25">
    <path clip-path="url(#pe4c1cf3e9f)" d="M 512.115467 299.661975 
L 526.608973 331.486554 
L 541.10248 376.611953 
L 555.595986 397.306773 
L 570.089493 408.682741 
L 584.582999 412.994508 
L 599.076506 411.928615 
L 613.570012 415.109672 
L 628.063519 412.828112 
L 642.557025 404.979656 
L 657.050532 404.574531 
L 671.544038 378.159081 
L 686.037545 345.74886 
L 700.531051 291.665513 
L 715.024558 245.69117 
L 729.518064 168.756097 
L 744.011571 3.786586 
L 744.922848 -1 
M 764.455565 -1 
L 772.998584 101.42478 
L 787.49209 50.128894 
L 797.825556 -1 
" style="fill:none;stroke:#3cffba;stroke-linecap:square;stroke-width:1.5;"/>
   </g>
   <g id="line2d_26">
    <path clip-path="url(#pe4c1cf3e9f)" d="M 526.608973 387.04298 
L 541.10248 371.577356 
L 555.595986 395.373894 
L 570.089493 394.076441 
L 584.582999 373.322677 
L 599.076506 343.616456 
L 613.570012 355.321074 
L 628.063519 348.843846 
L 642.557025 340.4655 
L 657.050532 373.231644 
L 671.544038 355.582681 
L 686.037545 350.378459 
L 700.531051 306.963246 
L 715.024558 292.35961 
L 729.518064 214.747625 
L 744.011571 198.998868 
L 758.505077 224.694152 
L 772.998584 255.787034 
L 787.49209 112.555742 
L 801.985597 177.881518 
" style="fill:none;stroke:#56ffa0;stroke-linecap:square;stroke-width:1.5;"/>
   </g>
   <g id="line2d_27">
    <path clip-path="url(#pe4c1cf3e9f)" d="M 526.608973 398.581403 
L 541.10248 380.365625 
L 555.595986 404.061826 
L 570.089493 404.135346 
L 584.582999 385.587542 
L 599.076506 376.212026 
L 613.570012 378.178272 
L 628.063519 353.924196 
L 642.557025 363.559495 
L 657.050532 390.934425 
L 671.544038 373.906458 
L 686.037545 368.990843 
L 700.531051 336.221233 
L 715.024558 316.352079 
L 729.518064 195.916324 
L 744.011571 184.861344 
L 758.505077 213.455464 
L 772.998584 245.354693 
L 787.49209 92.980485 
L 801.985597 158.784231 
" style="fill:none;stroke:#70ff87;stroke-linecap:square;stroke-width:1.5;"/>
   </g>
   <g id="line2d_28">
    <path clip-path="url(#pe4c1cf3e9f)" d="M 526.608973 387.04298 
L 541.10248 371.577356 
L 555.595986 395.373894 
L 570.089493 404.135346 
L 584.582999 385.587542 
L 599.076506 376.212026 
L 613.570012 378.178272 
L 628.063519 353.924196 
L 642.557025 363.559495 
L 657.050532 390.934425 
L 671.544038 373.906458 
L 686.037545 368.990843 
L 700.531051 336.221233 
L 715.024558 316.352079 
L 729.518064 237.114448 
L 744.011571 184.861344 
L 758.505077 244.948054 
L 772.998584 264.273562 
L 787.49209 141.105714 
L 801.985597 183.812728 
" style="fill:none;stroke:#87ff70;stroke-linecap:square;stroke-width:1.5;"/>
   </g>
   <g id="line2d_29">
    <path clip-path="url(#pe4c1cf3e9f)" d="M 526.608973 390.450982 
L 541.10248 369.09191 
L 555.595986 397.053357 
L 570.089493 401.400698 
L 584.582999 381.394173 
L 599.076506 358.015404 
L 613.570012 364.410537 
L 628.063519 355.15944 
L 642.557025 377.482296 
L 657.050532 380.994831 
L 671.544038 365.152668 
L 686.037545 359.156512 
L 700.531051 319.404704 
L 715.024558 309.910061 
L 729.518064 221.678378 
L 744.011571 212.92021 
L 758.505077 241.874996 
L 772.998584 268.231047 
L 787.49209 130.015707 
L 801.985597 191.439092 
" style="fill:none;stroke:#a0ff56;stroke-linecap:square;stroke-width:1.5;"/>
   </g>
   <g id="line2d_30">
    <path clip-path="url(#pe4c1cf3e9f)" d="M 526.608973 408.063824 
L 541.10248 394.355379 
L 555.595986 413.573618 
L 570.089493 422.6795 
L 584.582999 403.960759 
L 599.076506 396.265254 
L 613.570012 390.739223 
L 628.063519 373.35661 
L 642.557025 379.945486 
L 657.050532 402.617334 
L 671.544038 390.758196 
L 686.037545 386.47872 
L 700.531051 359.173478 
L 715.024558 347.860541 
L 729.518064 237.114448 
L 744.011571 219.357485 
L 758.505077 244.948054 
L 772.998584 264.273562 
L 787.49209 141.105714 
L 801.985597 183.812728 
" style="fill:none;stroke:#baff3c;stroke-linecap:square;stroke-width:1.5;"/>
   </g>
   <g id="line2d_31">
    <path clip-path="url(#pe4c1cf3e9f)" d="M 541.10248 394.407789 
L 555.595986 398.439233 
L 570.089493 405.782417 
L 584.582999 408.251529 
L 599.076506 409.771597 
L 613.570012 419.987271 
L 628.063519 410.026276 
L 642.557025 402.349775 
L 657.050532 404.30028 
L 671.544038 401.008269 
L 686.037545 389.772989 
L 700.531051 375.569076 
L 715.024558 362.042099 
L 729.518064 324.587651 
L 744.011571 276.879373 
L 758.505077 246.845801 
L 772.998584 251.827102 
L 787.49209 219.968254 
" style="fill:none;stroke:#d4ff23;stroke-linecap:square;stroke-width:1.5;"/>
   </g>
   <g id="line2d_32">
    <path clip-path="url(#pe4c1cf3e9f)" d="M 584.582999 408.705259 
L 599.076506 407.07813 
L 613.570012 414.100981 
L 628.063519 404.16945 
L 642.557025 409.91585 
L 657.050532 413.973242 
L 671.544038 410.220293 
L 686.037545 381.397835 
L 700.531051 363.988944 
L 715.024558 331.043313 
L 729.518064 283.756932 
L 741.268649 -1 
M 762.232357 -1 
L 772.998584 155.320073 
L 787.49209 180.117719 
L 801.985597 60.030578 
" style="fill:none;stroke:#ebff0c;stroke-linecap:square;stroke-width:1.5;"/>
   </g>
   <g id="line2d_33">
    <path clip-path="url(#pe4c1cf3e9f)" d="M 686.037545 360.412303 
L 700.531051 340.820602 
L 715.024558 339.240852 
L 729.518064 265.609139 
L 744.011571 176.126081 
L 758.505077 128.260321 
L 772.998584 207.725772 
L 787.49209 160.761459 
L 801.985597 145.638655 
" style="fill:none;stroke:#ffe600;stroke-linecap:square;stroke-width:1.5;"/>
   </g>
   <g id="line2d_34">
    <path clip-path="url(#pe4c1cf3e9f)" d="M 700.531051 365.916692 
L 729.518064 300.87159 
L 744.011571 134.844859 
L 758.505077 82.792787 
L 772.998584 173.560398 
L 787.49209 228.839138 
" style="fill:none;stroke:#ffc800;stroke-linecap:square;stroke-width:1.5;"/>
   </g>
   <g id="line2d_35">
    <path clip-path="url(#pe4c1cf3e9f)" d="M 715.024558 353.625093 
L 729.518064 351.149767 
L 744.011571 195.51471 
L 758.505077 104.994018 
L 772.998584 90.314489 
L 787.49209 98.93429 
L 801.985597 33.93037 
" style="fill:none;stroke:#ffab00;stroke-linecap:square;stroke-width:1.5;"/>
   </g>
   <g id="line2d_36">
    <path clip-path="url(#pe4c1cf3e9f)" d="M 715.024558 335.875443 
L 729.518064 292.449094 
" style="fill:none;stroke:#ff9100;stroke-linecap:square;stroke-width:1.5;"/>
   </g>
   <g id="line2d_37">
    <path clip-path="url(#pe4c1cf3e9f)" d="M 744.011571 191.190819 
L 758.505077 178.433661 
L 772.998584 193.781106 
L 787.49209 170.106089 
L 801.985597 88.638405 
" style="fill:none;stroke:#ff7300;stroke-linecap:square;stroke-width:1.5;"/>
   </g>
   <g id="line2d_38">
    <path clip-path="url(#pe4c1cf3e9f)" d="M 753.68003 -1 
L 758.505077 27.578878 
L 772.998584 290.49495 
L 787.49209 142.555754 
L 801.985597 73.580469 
" style="fill:none;stroke:#ff5500;stroke-linecap:square;stroke-width:1.5;"/>
   </g>
   <g id="line2d_39">
    <path clip-path="url(#pe4c1cf3e9f)" d="M 744.011571 296.839396 
L 758.505077 212.483469 
L 772.998584 238.887499 
L 787.49209 183.664776 
L 801.985597 154.707071 
" style="fill:none;stroke:#ff3800;stroke-linecap:square;stroke-width:1.5;"/>
   </g>
   <g id="line2d_40">
    <path clip-path="url(#pe4c1cf3e9f)" d="M 744.011571 317.694774 
L 758.505077 174.622745 
L 772.998584 284.221344 
L 787.49209 165.767341 
L 801.985597 114.400489 
" style="fill:none;stroke:#ff1e00;stroke-linecap:square;stroke-width:1.5;"/>
   </g>
   <g id="line2d_41">
    <path clip-path="url(#pe4c1cf3e9f)" d="M 787.49209 106.59776 
L 801.985597 87.191817 
" style="fill:none;stroke:#e80000;stroke-linecap:square;stroke-width:1.5;"/>
   </g>
   <g id="line2d_42">
    <path clip-path="url(#pe4c1cf3e9f)" d="M 787.49209 197.380518 
L 801.985597 190.153133 
" style="fill:none;stroke:#c40000;stroke-linecap:square;stroke-width:1.5;"/>
   </g>
   <g id="line2d_43">
    <path clip-path="url(#pe4c1cf3e9f)" d="M 792.789283 -1 
L 801.985597 12.898015 
" style="fill:none;stroke:#9f0000;stroke-linecap:square;stroke-width:1.5;"/>
   </g>
   <g id="line2d_44">
    <path clip-path="url(#pe4c1cf3e9f)" d="M 801.985597 218.097431 
" style="fill:none;stroke:#800000;stroke-linecap:square;stroke-width:1.5;"/>
   </g>
   <g id="line2d_45">
    <path clip-path="url(#pe4c1cf3e9f)" d="M 91.803778 461.756312 
L 106.297285 461.756677 
L 120.790791 461.757042 
L 135.284298 461.757042 
L 149.777804 461.755765 
L 164.271311 461.688447 
L 178.764817 461.286186 
L 193.258324 457.551085 
L 207.75183 443.722783 
L 222.245337 425.92459 
L 236.738843 421.111502 
L 251.23235 425.43458 
L 265.725856 424.01654 
L 280.219363 426.635526 
L 294.712869 429.51703 
L 309.206376 433.098341 
L 323.699882 433.515015 
L 338.193389 434.91773 
L 352.686895 435.163465 
L 367.180402 434.862453 
L 381.673908 428.944925 
L 396.167415 415.413621 
L 410.660921 401.278652 
L 425.154428 387.665801 
L 439.647934 377.203724 
L 454.141441 376.871334 
L 468.634947 381.134026 
L 483.128454 393.019251 
L 497.62196 395.59573 
L 512.115467 406.159605 
L 526.608973 408.520267 
L 541.10248 408.903191 
L 555.595986 417.859297 
L 570.089493 410.199913 
L 584.582999 405.628182 
L 599.076506 406.77075 
L 613.570012 399.770674 
L 628.063519 390.918189 
L 642.557025 374.083052 
L 657.050532 359.310849 
L 671.544038 315.775231 
L 686.037545 274.250007 
L 700.531051 243.579818 
L 715.024558 252.448174 
L 729.518064 216.03176 
L 744.011571 189.26305 
L 758.505077 185.893176 
L 772.998584 219.47041 
L 787.49209 199.134779 
L 801.985597 151.128679 
" style="fill:none;stroke:#000000;stroke-linecap:square;stroke-width:3;"/>
   </g>
   <g id="patch_3">
    <path d="M 56.294688 461.757187 
L 56.294688 26.877187 
" style="fill:none;stroke:#000000;stroke-linecap:square;stroke-linejoin:miter;stroke-width:0.8;"/>
   </g>
   <g id="patch_4">
    <path d="M 837.494688 461.757187 
L 837.494688 26.877187 
" style="fill:none;stroke:#000000;stroke-linecap:square;stroke-linejoin:miter;stroke-width:0.8;"/>
   </g>
   <g id="patch_5">
    <path d="M 56.294688 461.757187 
L 837.494688 461.757187 
" style="fill:none;stroke:#000000;stroke-linecap:square;stroke-linejoin:miter;stroke-width:0.8;"/>
   </g>
   <g id="patch_6">
    <path d="M 56.294688 26.877187 
L 837.494688 26.877187 
" style="fill:none;stroke:#000000;stroke-linecap:square;stroke-linejoin:miter;stroke-width:0.8;"/>
   </g>
   <g id="text_14">
    <!-- 4-week-ahead Forecasts -->
    <defs>
     <path d="M 37.796875 64.3125 
L 12.890625 25.390625 
L 37.796875 25.390625 
z
M 35.203125 72.90625 
L 47.609375 72.90625 
L 47.609375 25.390625 
L 58.015625 25.390625 
L 58.015625 17.1875 
L 47.609375 17.1875 
L 47.609375 0 
L 37.796875 0 
L 37.796875 17.1875 
L 4.890625 17.1875 
L 4.890625 26.703125 
z
" id="DejaVuSans-52"/>
     <path d="M 54.890625 33.015625 
L 54.890625 0 
L 45.90625 0 
L 45.90625 32.71875 
Q 45.90625 40.484375 42.875 44.328125 
Q 39.84375 48.1875 33.796875 48.1875 
Q 26.515625 48.1875 22.3125 43.546875 
Q 18.109375 38.921875 18.109375 30.90625 
L 18.109375 0 
L 9.078125 0 
L 9.078125 75.984375 
L 18.109375 75.984375 
L 18.109375 46.1875 
Q 21.34375 51.125 25.703125 53.5625 
Q 30.078125 56 35.796875 56 
Q 45.21875 56 50.046875 50.171875 
Q 54.890625 44.34375 54.890625 33.015625 
z
" id="DejaVuSans-104"/>
     <path d="M 9.8125 72.90625 
L 51.703125 72.90625 
L 51.703125 64.59375 
L 19.671875 64.59375 
L 19.671875 43.109375 
L 48.578125 43.109375 
L 48.578125 34.8125 
L 19.671875 34.8125 
L 19.671875 0 
L 9.8125 0 
z
" id="DejaVuSans-70"/>
     <path d="M 30.609375 48.390625 
Q 23.390625 48.390625 19.1875 42.75 
Q 14.984375 37.109375 14.984375 27.296875 
Q 14.984375 17.484375 19.15625 11.84375 
Q 23.34375 6.203125 30.609375 6.203125 
Q 37.796875 6.203125 41.984375 11.859375 
Q 46.1875 17.53125 46.1875 27.296875 
Q 46.1875 37.015625 41.984375 42.703125 
Q 37.796875 48.390625 30.609375 48.390625 
z
M 30.609375 56 
Q 42.328125 56 49.015625 48.375 
Q 55.71875 40.765625 55.71875 27.296875 
Q 55.71875 13.875 49.015625 6.21875 
Q 42.328125 -1.421875 30.609375 -1.421875 
Q 18.84375 -1.421875 12.171875 6.21875 
Q 5.515625 13.875 5.515625 27.296875 
Q 5.515625 40.765625 12.171875 48.375 
Q 18.84375 56 30.609375 56 
z
" id="DejaVuSans-111"/>
     <path d="M 41.109375 46.296875 
Q 39.59375 47.171875 37.8125 47.578125 
Q 36.03125 48 33.890625 48 
Q 26.265625 48 22.1875 43.046875 
Q 18.109375 38.09375 18.109375 28.8125 
L 18.109375 0 
L 9.078125 0 
L 9.078125 54.6875 
L 18.109375 54.6875 
L 18.109375 46.1875 
Q 20.953125 51.171875 25.484375 53.578125 
Q 30.03125 56 36.53125 56 
Q 37.453125 56 38.578125 55.875 
Q 39.703125 55.765625 41.0625 55.515625 
z
" id="DejaVuSans-114"/>
    </defs>
    <g transform="translate(337.419531 20.877187)scale(0.18 -0.18)">
     <use xlink:href="#DejaVuSans-52"/>
     <use x="63.623047" xlink:href="#DejaVuSans-45"/>
     <use x="99.707031" xlink:href="#DejaVuSans-119"/>
     <use x="181.494141" xlink:href="#DejaVuSans-101"/>
     <use x="243.017578" xlink:href="#DejaVuSans-101"/>
     <use x="304.541016" xlink:href="#DejaVuSans-107"/>
     <use x="362.451172" xlink:href="#DejaVuSans-45"/>
     <use x="398.535156" xlink:href="#DejaVuSans-97"/>
     <use x="459.814453" xlink:href="#DejaVuSans-104"/>
     <use x="523.193359" xlink:href="#DejaVuSans-101"/>
     <use x="584.716797" xlink:href="#DejaVuSans-97"/>
     <use x="645.996094" xlink:href="#DejaVuSans-100"/>
     <use x="709.472656" xlink:href="#DejaVuSans-32"/>
     <use x="741.259766" xlink:href="#DejaVuSans-70"/>
     <use x="795.154297" xlink:href="#DejaVuSans-111"/>
     <use x="856.335938" xlink:href="#DejaVuSans-114"/>
     <use x="895.199219" xlink:href="#DejaVuSans-101"/>
     <use x="956.722656" xlink:href="#DejaVuSans-99"/>
     <use x="1011.703125" xlink:href="#DejaVuSans-97"/>
     <use x="1072.982422" xlink:href="#DejaVuSans-115"/>
     <use x="1125.082031" xlink:href="#DejaVuSans-116"/>
     <use x="1164.291016" xlink:href="#DejaVuSans-115"/>
    </g>
   </g>
  </g>
 </g>
 <defs>
  <clipPath id="pe4c1cf3e9f">
   <rect height="434.88" width="781.2" x="56.294688" y="26.877187"/>
  </clipPath>
 </defs>
</svg>
