<?xml version="1.0" encoding="utf-8" standalone="no"?>
<!DOCTYPE svg PUBLIC "-//W3C//DTD SVG 1.1//EN"
  "http://www.w3.org/Graphics/SVG/1.1/DTD/svg11.dtd">
<!-- Created with matplotlib (https://matplotlib.org/) -->
<svg height="521.464628pt" version="1.1" viewBox="0 0 832.18125 521.464628" width="832.18125pt" xmlns="http://www.w3.org/2000/svg" xmlns:xlink="http://www.w3.org/1999/xlink">
 <defs>
  <style type="text/css">
*{stroke-linecap:butt;stroke-linejoin:round;}
  </style>
 </defs>
 <g id="figure_1">
  <g id="patch_1">
   <path d="M 0 521.464628 
L 832.18125 521.464628 
L 832.18125 0 
L 0 0 
z
" style="fill:#ffffff;"/>
  </g>
  <g id="axes_1">
   <g id="patch_2">
    <path d="M 43.78125 457.198125 
L 824.98125 457.198125 
L 824.98125 22.318125 
L 43.78125 22.318125 
z
" style="fill:#ffffff;"/>
   </g>
   <g id="PolyCollection_1">
    <defs>
     <path d="M 253.485881 -123.455514 
L 253.485881 -72.920151 
L 266.885538 -79.283525 
L 280.285195 -78.35638 
L 293.684852 -80.114526 
L 307.084509 -77.891501 
L 320.484166 -75.413487 
L 333.883823 -72.444308 
L 347.28348 -72.211477 
L 360.683137 -71.425466 
L 374.082794 -72.245267 
L 387.482451 -72.387624 
L 400.882108 -77.892385 
L 414.281765 -88.999088 
L 427.681422 -99.169599 
L 441.081078 -110.727556 
L 454.480735 -121.468696 
L 467.880392 -121.8707 
L 481.280049 -117.611196 
L 494.679706 -105.447503 
L 508.079363 -103.110211 
L 521.47902 -92.446299 
L 534.878677 -90.375433 
L 548.278334 -88.748664 
L 561.677991 -80.984334 
L 575.077648 -87.96538 
L 588.477305 -93.590488 
L 601.876962 -92.544927 
L 615.276619 -98.668034 
L 628.676276 -107.897546 
L 642.075933 -121.410018 
L 655.47559 -135.004449 
L 668.875247 -163.595607 
L 682.274904 -203.866662 
L 695.67456 -231.217468 
L 709.074217 -223.274332 
L 722.473874 -255.360711 
L 735.873531 -280.236494 
L 749.273188 -285.517031 
L 762.672845 -248.783226 
L 776.072502 -267.580002 
L 789.472159 -311.234408 
L 789.472159 -435.837688 
L 789.472159 -435.837688 
L 776.072502 -381.58171 
L 762.672845 -361.589906 
L 749.273188 -392.534604 
L 735.873531 -386.494689 
L 722.473874 -358.81069 
L 709.074217 -319.547936 
L 695.67456 -327.447761 
L 682.274904 -294.355903 
L 668.875247 -229.140852 
L 655.47559 -192.95466 
L 642.075933 -177.522525 
L 628.676276 -161.578566 
L 615.276619 -151.820175 
L 601.876962 -145.849763 
L 588.477305 -147.489583 
L 575.077648 -142.078127 
L 561.677991 -135.010504 
L 548.278334 -142.816575 
L 534.878677 -144.886722 
L 521.47902 -147.366102 
L 508.079363 -157.424273 
L 494.679706 -160.310916 
L 481.280049 -171.533283 
L 467.880392 -176.100191 
L 454.480735 -176.254286 
L 441.081078 -164.719372 
L 427.681422 -148.913402 
L 414.281765 -132.146174 
L 400.882108 -116.212569 
L 387.482451 -109.964936 
L 374.082794 -110.621458 
L 360.683137 -110.639033 
L 347.28348 -112.418628 
L 333.883823 -113.677933 
L 320.484166 -117.482753 
L 307.084509 -121.138276 
L 293.684852 -124.751055 
L 280.285195 -124.823652 
L 266.885538 -128.351545 
L 253.485881 -123.455514 
z
" id="m194242f218" style="stroke:#000080;stroke-opacity:0.1;"/>
    </defs>
    <g clip-path="url(#pb619350981)">
     <use style="fill:#000080;fill-opacity:0.1;stroke:#000080;stroke-opacity:0.1;" x="0" xlink:href="#m194242f218" y="521.464628"/>
    </g>
   </g>
   <g id="PolyCollection_2">
    <path clip-path="url(#pb619350981)" d="M 414.281765 321.947322 
L 414.281765 443.981536 
L 427.681422 442.678848 
L 441.081078 441.060138 
L 454.480735 439.874452 
L 467.880392 440.898264 
L 481.280049 445.393066 
L 494.679706 445.811601 
L 508.079363 446.591588 
L 521.47902 448.087418 
L 534.878677 449.176634 
L 548.278334 449.819765 
L 561.677991 449.141284 
L 575.077648 449.739526 
L 588.477305 448.464152 
L 601.876962 446.566466 
L 615.276619 443.609638 
L 628.676276 443.707059 
L 642.075933 392.499845 
L 655.47559 357.968931 
L 668.875247 319.066721 
L 682.274904 289.475632 
L 695.67456 305.184189 
L 709.074217 337.979014 
L 722.473874 266.785782 
L 735.873531 288.926671 
L 749.273188 305.81594 
L 776.072502 330.564517 
L 789.472159 272.429251 
L 789.472159 -50.231333 
L 789.472159 -50.231333 
L 776.072502 59.877689 
L 749.273188 83.926353 
L 735.873531 48.855853 
L 722.473874 -92.045349 
L 709.074217 145.193293 
L 695.67456 124.13281 
L 682.274904 -142.515969 
L 668.875247 -39.292014 
L 655.47559 178.95461 
L 642.075933 245.222822 
L 628.676276 342.075998 
L 615.276619 348.898435 
L 601.876962 367.355781 
L 588.477305 379.791987 
L 575.077648 389.58566 
L 561.677991 391.842052 
L 548.278334 395.945745 
L 534.878677 383.431981 
L 521.47902 379.249991 
L 508.079363 366.404422 
L 494.679706 340.331688 
L 481.280049 342.125791 
L 467.880392 298.615937 
L 454.480735 286.860344 
L 441.081078 301.375531 
L 427.681422 314.043612 
L 414.281765 321.947322 
z
" style="fill:#00009f;fill-opacity:0.1;stroke:#00009f;stroke-opacity:0.1;"/>
   </g>
   <g id="PolyCollection_3">
    <defs>
     <path d="M 427.681422 -92.597601 
L 427.681422 -85.963392 
L 441.081078 -136.617317 
L 454.480735 -342.498148 
L 467.880392 -232.609424 
L 481.280049 -146.237048 
L 494.679706 -160.119622 
L 508.079363 -95.583363 
L 521.47902 -94.009962 
L 534.878677 -90.613327 
L 548.278334 -84.332366 
L 561.677991 -82.28233 
L 575.077648 -86.842339 
L 601.876962 -86.686444 
L 615.276619 -95.381416 
L 628.676276 -134.120366 
L 642.075933 -175.877459 
L 655.47559 -188.915608 
L 668.875247 -404.615249 
L 682.274904 -469.205792 
L 695.67456 -417.393463 
L 709.074217 -114.162715 
L 722.473874 -408.997929 
L 735.873531 -442.073901 
L 749.273188 -366.446674 
L 762.672845 -244.38369 
L 776.072502 -278.429615 
L 789.472159 -310.579667 
L 789.472159 -352.515999 
L 789.472159 -352.515999 
L 776.072502 -304.02957 
L 762.672845 -255.226537 
L 749.273188 -372.182457 
L 735.873531 -454.475266 
L 722.473874 -409.3688 
L 709.074217 -118.041961 
L 695.67456 -428.648323 
L 682.274904 -481.482479 
L 668.875247 -407.568915 
L 655.47559 -195.008937 
L 642.075933 -176.722937 
L 628.676276 -135.477586 
L 615.276619 -96.379898 
L 601.876962 -87.694796 
L 575.077648 -88.148251 
L 561.677991 -83.069265 
L 548.278334 -85.202145 
L 534.878677 -91.981102 
L 521.47902 -95.116329 
L 508.079363 -96.921118 
L 494.679706 -164.836139 
L 481.280049 -150.717019 
L 467.880392 -238.800821 
L 454.480735 -349.535486 
L 441.081078 -138.004579 
L 427.681422 -92.597601 
z
" id="m242e0f9d42" style="stroke:#0000bf;stroke-opacity:0.1;"/>
    </defs>
    <g clip-path="url(#pb619350981)">
     <use style="fill:#0000bf;fill-opacity:0.1;stroke:#0000bf;stroke-opacity:0.1;" x="0" xlink:href="#m242e0f9d42" y="521.464628"/>
    </g>
   </g>
   <g id="PolyCollection_4">
    <path clip-path="url(#pb619350981)" d="M 427.681422 394.850735 
L 427.681422 407.160328 
L 441.081078 401.356524 
L 454.480735 408.167192 
L 467.880392 421.75113 
L 481.280049 409.422621 
L 494.679706 413.206222 
L 508.079363 424.000722 
L 521.47902 435.623033 
L 534.878677 435.858458 
L 548.278334 445.863416 
L 561.677991 451.937378 
L 575.077648 457.198343 
L 588.477305 457.198343 
L 601.876962 457.198343 
L 615.276619 457.198343 
L 628.676276 457.198343 
L 642.075933 457.198343 
L 655.47559 457.198343 
L 668.875247 437.25032 
L 682.274904 408.186508 
L 695.67456 186.407807 
L 709.074217 192.52307 
L 722.473874 247.490482 
L 735.873531 223.272767 
L 749.273188 298.932175 
L 762.672845 364.547546 
L 776.072502 444.253003 
L 789.472159 185.731458 
L 789.472159 21.175294 
L 789.472159 21.175294 
L 776.072502 135.683522 
L 762.672845 87.095516 
L 749.273188 127.283404 
L 735.873531 50.228635 
L 722.473874 -34.150134 
L 709.074217 -49.590895 
L 695.67456 -121.015095 
L 682.274904 101.490027 
L 668.875247 214.713128 
L 655.47559 282.892108 
L 642.075933 332.660285 
L 628.676276 372.613677 
L 615.276619 379.514596 
L 601.876962 394.451487 
L 588.477305 400.630033 
L 575.077648 412.082356 
L 561.677991 417.996894 
L 548.278334 416.759424 
L 534.878677 418.577656 
L 521.47902 410.294396 
L 508.079363 398.169716 
L 494.679706 384.84713 
L 481.280049 362.982427 
L 467.880392 348.348007 
L 454.480735 377.927315 
L 441.081078 398.574535 
L 427.681422 394.850735 
z
" style="fill:#0000df;fill-opacity:0.1;stroke:#0000df;stroke-opacity:0.1;"/>
   </g>
   <g id="PolyCollection_5">
    <defs>
     <path d="M 427.681422 -140.74286 
L 427.681422 -94.446581 
L 441.081078 -99.683048 
L 454.480735 -130.244617 
L 467.880392 -125.997881 
L 481.280049 -105.023035 
L 494.679706 -99.715214 
L 508.079363 -101.522472 
L 521.47902 -92.387926 
L 534.878677 -100.249347 
L 548.278334 -102.232559 
L 561.677991 -98.279727 
L 575.077648 -115.090135 
L 588.477305 -112.018456 
L 615.276619 -125.059975 
L 642.075933 -146.023946 
L 668.875247 -196.16567 
L 682.274904 -206.634067 
L 695.67456 -170.599972 
L 709.074217 -144.262812 
L 709.074217 -156.198378 
L 709.074217 -156.198378 
L 695.67456 -184.492413 
L 682.274904 -224.510488 
L 668.875247 -216.443344 
L 642.075933 -162.568402 
L 615.276619 -138.619297 
L 588.477305 -124.771713 
L 575.077648 -128.031818 
L 561.677991 -108.976268 
L 548.278334 -113.204163 
L 534.878677 -110.067935 
L 521.47902 -99.873737 
L 508.079363 -110.907854 
L 494.679706 -110.816985 
L 481.280049 -117.829113 
L 467.880392 -137.691422 
L 454.480735 -145.059472 
L 441.081078 -138.708306 
L 427.681422 -140.74286 
z
" id="mb387e873f1" style="stroke:#0000ff;stroke-opacity:0.1;"/>
    </defs>
    <g clip-path="url(#pb619350981)">
     <use style="fill:#0000ff;fill-opacity:0.1;stroke:#0000ff;stroke-opacity:0.1;" x="0" xlink:href="#mb387e873f1" y="521.464628"/>
    </g>
   </g>
   <g id="PolyCollection_6">
    <defs>
     <path d="M 427.681422 -166.751093 
L 427.681422 -128.906232 
L 441.081078 -145.397178 
L 454.480735 -143.059851 
L 467.880392 -127.169808 
L 481.280049 -127.043598 
L 508.079363 -106.313467 
L 521.47902 -108.078765 
L 534.878677 -112.128545 
L 548.278334 -110.768752 
L 561.677991 -105.886715 
L 575.077648 -98.677522 
L 588.477305 -105.487385 
L 601.876962 -96.264288 
L 615.276619 -99.651423 
L 628.676276 -107.162975 
L 642.075933 -133.434337 
L 655.47559 -147.469011 
L 668.875247 -156.269896 
L 682.274904 -219.892722 
L 695.67456 -270.39739 
L 709.074217 -252.613842 
L 722.473874 -268.127618 
L 735.873531 -317.08218 
L 749.273188 -310.432848 
L 762.672845 -280.906553 
L 776.072502 -254.907767 
L 789.472159 -297.493745 
L 789.472159 -370.995594 
L 789.472159 -370.995594 
L 776.072502 -311.803537 
L 762.672845 -338.849045 
L 749.273188 -366.903865 
L 735.873531 -372.09062 
L 722.473874 -337.042524 
L 709.074217 -306.635487 
L 695.67456 -332.490267 
L 682.274904 -281.789656 
L 668.875247 -193.48262 
L 655.47559 -172.28052 
L 642.075933 -153.318229 
L 628.676276 -127.728035 
L 615.276619 -118.451004 
L 601.876962 -115.825665 
L 588.477305 -121.071984 
L 575.077648 -115.436323 
L 561.677991 -117.835392 
L 548.278334 -125.823089 
L 534.878677 -131.909291 
L 521.47902 -130.994771 
L 508.079363 -132.14246 
L 481.280049 -152.965024 
L 467.880392 -169.331032 
L 454.480735 -175.601917 
L 441.081078 -176.660079 
L 427.681422 -166.751093 
z
" id="mb0ee949a3f" style="stroke:#000cff;stroke-opacity:0.1;"/>
    </defs>
    <g clip-path="url(#pb619350981)">
     <use style="fill:#000cff;fill-opacity:0.1;stroke:#000cff;stroke-opacity:0.1;" x="0" xlink:href="#mb0ee949a3f" y="521.464628"/>
    </g>
   </g>
   <g id="PolyCollection_7">
    <path clip-path="url(#pb619350981)" d="M 427.681422 292.761396 
L 427.681422 394.287738 
L 441.081078 410.233895 
L 454.480735 400.220672 
L 467.880392 412.916618 
L 481.280049 425.605844 
L 494.679706 432.144403 
L 508.079363 421.801219 
L 521.47902 435.730749 
L 534.878677 429.385046 
L 548.278334 415.521618 
L 561.677991 429.45605 
L 575.077648 432.3329 
L 588.477305 395.497533 
L 601.876962 383.787474 
L 615.276619 397.46392 
L 628.676276 377.643714 
L 642.075933 345.303757 
L 655.47559 241.973982 
L 668.875247 134.589523 
L 682.274904 -161.06604 
L 695.67456 122.956824 
L 709.074217 414.892386 
L 722.473874 345.364592 
L 735.873531 130.151853 
L 749.273188 56.07961 
L 762.672845 271.989679 
L 776.072502 313.619916 
L 789.472159 204.745459 
L 789.472159 92.175698 
L 789.472159 92.175698 
L 776.072502 209.276833 
L 762.672845 103.772078 
L 749.273188 -258.273295 
L 735.873531 -149.914753 
L 722.473874 -1012.383369 
L 709.074217 222.423682 
L 695.67456 -300.096024 
L 682.274904 -389.56455 
L 668.875247 -1.010468 
L 655.47559 -202.831748 
L 642.075933 310.479207 
L 628.676276 347.112421 
L 615.276619 376.264301 
L 601.876962 347.3972 
L 588.477305 364.300007 
L 575.077648 385.357738 
L 561.677991 390.693038 
L 548.278334 380.733931 
L 534.878677 405.241085 
L 521.47902 415.913503 
L 508.079363 405.370563 
L 494.679706 407.075208 
L 481.280049 401.15208 
L 467.880392 373.739022 
L 454.480735 365.798358 
L 441.081078 308.531586 
L 427.681422 292.761396 
z
" style="fill:#0028ff;fill-opacity:0.1;stroke:#0028ff;stroke-opacity:0.1;"/>
   </g>
   <g id="PolyCollection_8">
    <defs>
     <path d="M 427.681422 -156.508414 
L 427.681422 -112.644597 
L 441.081078 -118.829478 
L 454.480735 -125.512187 
L 467.880392 -144.637156 
L 481.280049 -139.549521 
L 494.679706 -129.178876 
L 508.079363 -119.346383 
L 521.47902 -106.504869 
L 534.878677 -100.23205 
L 548.278334 -95.981638 
L 561.677991 -92.937865 
L 575.077648 -91.050162 
L 588.477305 -97.56997 
L 601.876962 -104.789115 
L 615.276619 -102.917184 
L 628.676276 -109.216466 
L 642.075933 -109.278404 
L 655.47559 -113.714408 
L 682.274904 -221.691602 
L 695.67456 -229.191181 
L 709.074217 -217.321962 
L 722.473874 -229.380577 
L 735.873531 -241.922239 
L 749.273188 -240.046544 
L 762.672845 -216.653896 
L 776.072502 -209.446786 
L 789.472159 -232.701934 
L 789.472159 -371.130564 
L 789.472159 -371.130564 
L 776.072502 -325.085765 
L 762.672845 -355.75994 
L 749.273188 -376.395696 
L 735.873531 -410.035985 
L 722.473874 -367.617225 
L 709.074217 -339.312615 
L 695.67456 -344.736657 
L 682.274904 -336.680634 
L 655.47559 -160.585983 
L 642.075933 -154.796428 
L 628.676276 -154.717865 
L 615.276619 -139.061581 
L 601.876962 -142.310094 
L 588.477305 -124.071815 
L 575.077648 -108.426526 
L 561.677991 -108.285503 
L 548.278334 -113.826335 
L 534.878677 -120.60756 
L 521.47902 -132.329691 
L 508.079363 -151.612626 
L 494.679706 -167.50667 
L 481.280049 -186.311435 
L 467.880392 -197.979917 
L 454.480735 -182.307748 
L 441.081078 -165.247802 
L 427.681422 -156.508414 
z
" id="mbf639b12a3" style="stroke:#0044ff;stroke-opacity:0.1;"/>
    </defs>
    <g clip-path="url(#pb619350981)">
     <use style="fill:#0044ff;fill-opacity:0.1;stroke:#0044ff;stroke-opacity:0.1;" x="0" xlink:href="#mbf639b12a3" y="521.464628"/>
    </g>
   </g>
   <g id="PolyCollection_9">
    <path clip-path="url(#pb619350981)" d="M 427.681422 239.90385 
L 427.681422 433.477602 
L 441.081078 419.371713 
L 454.480735 415.87448 
L 467.880392 420.876351 
L 481.280049 420.134086 
L 494.679706 428.420832 
L 508.079363 430.237269 
L 521.47902 426.417115 
L 534.878677 423.077775 
L 548.278334 438.791475 
L 561.677991 441.88714 
L 575.077648 435.70704 
L 588.477305 436.250329 
L 601.876962 438.767885 
L 615.276619 433.059906 
L 628.676276 431.377913 
L 642.075933 415.713845 
L 655.47559 397.391319 
L 668.875247 363.11584 
L 682.274904 327.86341 
L 695.67456 278.311148 
L 709.074217 358.69595 
L 722.473874 299.451335 
L 735.873531 312.115725 
L 749.273188 317.629697 
L 762.672845 347.351292 
L 776.072502 329.998312 
L 789.472159 238.973565 
L 789.472159 0.456421 
L 789.472159 0.456421 
L 776.072502 127.133692 
L 762.672845 155.067902 
L 749.273188 123.255933 
L 735.873531 115.604879 
L 722.473874 33.993465 
L 709.074217 166.234144 
L 695.67456 -131.314296 
L 682.274904 -35.814508 
L 668.875247 103.694955 
L 655.47559 288.513158 
L 642.075933 347.883732 
L 628.676276 395.849174 
L 615.276619 400.334451 
L 601.876962 411.287434 
L 588.477305 407.719881 
L 575.077648 408.704399 
L 561.677991 420.739682 
L 548.278334 411.531059 
L 534.878677 372.106868 
L 521.47902 381.471858 
L 508.079363 379.124407 
L 494.679706 371.675773 
L 481.280049 339.674028 
L 467.880392 307.923332 
L 454.480735 298.391198 
L 441.081078 318.01309 
L 427.681422 239.90385 
z
" style="fill:#0060ff;fill-opacity:0.1;stroke:#0060ff;stroke-opacity:0.1;"/>
   </g>
   <g id="PolyCollection_10">
    <defs>
     <path d="M 427.681422 -171.575315 
L 427.681422 -149.799335 
L 441.081078 -161.845438 
L 454.480735 -172.063189 
L 467.880392 -172.236673 
L 481.280049 -136.747106 
L 508.079363 -106.672418 
L 521.47902 -95.592264 
L 534.878677 -85.799501 
L 548.278334 -95.917964 
L 561.677991 -93.607546 
L 575.077648 -82.962237 
L 588.477305 -88.714128 
L 601.876962 -121.661904 
L 615.276619 -124.990135 
L 628.676276 -105.974654 
L 642.075933 -176.777708 
L 655.47559 -201.349928 
L 668.875247 -239.508011 
L 695.67456 -187.487881 
L 709.074217 -158.307132 
L 722.473874 -355.829705 
L 735.873531 -382.783858 
L 749.273188 -347.747259 
L 762.672845 -264.162819 
L 776.072502 -327.169452 
L 789.472159 -395.523502 
L 789.472159 -423.251598 
L 789.472159 -423.251598 
L 776.072502 -347.632878 
L 762.672845 -284.845387 
L 749.273188 -354.524614 
L 735.873531 -419.493427 
L 722.473874 -414.39858 
L 709.074217 -298.142686 
L 695.67456 -385.86065 
L 668.875247 -318.660084 
L 655.47559 -242.953551 
L 642.075933 -205.195881 
L 628.676276 -113.262874 
L 615.276619 -131.420669 
L 601.876962 -124.350265 
L 588.477305 -95.164748 
L 575.077648 -89.425784 
L 561.677991 -96.02834 
L 548.278334 -99.223599 
L 534.878677 -97.411418 
L 521.47902 -99.567908 
L 508.079363 -111.494653 
L 481.280049 -158.075264 
L 467.880392 -197.873103 
L 454.480735 -224.440801 
L 441.081078 -196.480827 
L 427.681422 -171.575315 
z
" id="m51ce5bf0be" style="stroke:#0080ff;stroke-opacity:0.1;"/>
    </defs>
    <g clip-path="url(#pb619350981)">
     <use style="fill:#0080ff;fill-opacity:0.1;stroke:#0080ff;stroke-opacity:0.1;" x="0" xlink:href="#m51ce5bf0be" y="521.464628"/>
    </g>
   </g>
   <g id="PolyCollection_11">
    <defs>
     <path d="M 441.081078 -279.101048 
L 441.081078 -154.291987 
L 454.480735 -64.266285 
L 467.880392 -148.876532 
L 481.280049 -163.638701 
L 481.280049 -274.208721 
L 481.280049 -274.208721 
L 467.880392 -257.249088 
L 454.480735 -319.990875 
L 441.081078 -279.101048 
z
" id="m06cf3614be" style="stroke:#009cff;stroke-opacity:0.1;"/>
    </defs>
    <g clip-path="url(#pb619350981)">
     <use style="fill:#009cff;fill-opacity:0.1;stroke:#009cff;stroke-opacity:0.1;" x="0" xlink:href="#m06cf3614be" y="521.464628"/>
    </g>
   </g>
   <g id="PolyCollection_12">
    <path clip-path="url(#pb619350981)" d="M 441.081078 193.562165 
L 441.081078 432.641442 
L 454.480735 422.443154 
L 467.880392 418.179419 
L 481.280049 417.688328 
L 494.679706 436.894092 
L 508.079363 434.920287 
L 521.47902 439.710112 
L 534.878677 431.466612 
L 548.278334 430.516774 
L 561.677991 440.351679 
L 575.077648 425.669255 
L 588.477305 433.488659 
L 601.876962 435.64026 
L 615.276619 421.009687 
L 628.676276 415.503819 
L 642.075933 404.266327 
L 655.47559 414.000151 
L 668.875247 391.766143 
L 682.274904 337.532167 
L 695.67456 303.952619 
L 709.074217 390.607648 
L 722.473874 335.105922 
L 735.873531 324.624834 
L 749.273188 322.843574 
L 762.672845 387.056742 
L 776.072502 391.157269 
L 789.472159 349.634848 
L 789.472159 -298.496276 
L 789.472159 -298.496276 
L 776.072502 -126.596194 
L 762.672845 41.2947 
L 749.273188 -54.464392 
L 735.873531 -61.246417 
L 722.473874 -77.595609 
L 709.074217 35.450203 
L 695.67456 -72.189379 
L 682.274904 -142.638762 
L 668.875247 -1.601273 
L 655.47559 157.866374 
L 642.075933 250.834135 
L 628.676276 312.161121 
L 615.276619 339.313798 
L 601.876962 351.299409 
L 588.477305 347.488772 
L 575.077648 364.337461 
L 561.677991 383.811346 
L 548.278334 376.079841 
L 534.878677 365.99757 
L 521.47902 388.919738 
L 508.079363 366.109518 
L 494.679706 360.68904 
L 481.280049 305.477244 
L 467.880392 259.414008 
L 454.480735 97.524789 
L 441.081078 193.562165 
z
" style="fill:#00b8ff;fill-opacity:0.1;stroke:#00b8ff;stroke-opacity:0.1;"/>
   </g>
   <g id="PolyCollection_13">
    <defs>
     <path d="M 454.480735 -236.200619 
L 454.480735 -105.055004 
L 467.880392 -108.54801 
L 481.280049 -114.826522 
L 494.679706 -98.115663 
L 508.079363 -100.592819 
L 521.47902 -93.198942 
L 534.878677 -92.094291 
L 548.278334 -90.947692 
L 561.677991 -91.158707 
L 575.077648 -89.544497 
L 588.477305 -93.590463 
L 601.876962 -93.810195 
L 615.276619 -101.686029 
L 628.676276 -107.897532 
L 642.075933 -121.186026 
L 655.47559 -146.609334 
L 668.875247 -179.446857 
L 682.274904 -211.278517 
L 695.67456 -268.738871 
L 709.074217 -188.918377 
L 722.473874 -247.066618 
L 735.873531 -288.821974 
L 749.273188 -284.812872 
L 762.672845 -212.405504 
L 776.072502 -228.286831 
L 789.472159 -303.835453 
L 789.472159 -498.030593 
L 789.472159 -498.030593 
L 776.072502 -393.066814 
L 762.672845 -422.376828 
L 749.273188 -418.403318 
L 735.873531 -474.885412 
L 722.473874 -485.617938 
L 709.074217 -374.551795 
L 695.67456 -517.16758 
L 682.274904 -475.548057 
L 668.875247 -368.620858 
L 655.47559 -238.57263 
L 642.075933 -194.102408 
L 628.676276 -154.717974 
L 615.276619 -140.787536 
L 601.876962 -133.188274 
L 588.477305 -130.350831 
L 575.077648 -131.44168 
L 561.677991 -120.16382 
L 548.278334 -125.823089 
L 534.878677 -129.520027 
L 521.47902 -130.064817 
L 508.079363 -139.848683 
L 494.679706 -162.002893 
L 481.280049 -165.257099 
L 467.880392 -197.873257 
L 454.480735 -236.200619 
z
" id="m90f16d8a4a" style="stroke:#00d4ff;stroke-opacity:0.1;"/>
    </defs>
    <g clip-path="url(#pb619350981)">
     <use style="fill:#00d4ff;fill-opacity:0.1;stroke:#00d4ff;stroke-opacity:0.1;" x="0" xlink:href="#m90f16d8a4a" y="521.464628"/>
    </g>
   </g>
   <g id="PolyCollection_14">
    <path clip-path="url(#pb619350981)" d="M 467.880392 371.943397 
L 467.880392 448.41707 
L 481.280049 436.230139 
L 494.679706 426.736282 
L 508.079363 426.453536 
L 521.47902 440.705581 
L 534.878677 434.087847 
L 548.278334 432.085747 
L 561.677991 435.265136 
L 575.077648 435.44873 
L 588.477305 428.201946 
L 601.876962 427.654433 
L 615.276619 415.696676 
L 628.676276 415.484209 
L 642.075933 407.803228 
L 655.47559 369.697413 
L 668.875247 316.164989 
L 682.274904 334.553798 
L 695.67456 232.501735 
L 709.074217 366.873227 
L 722.473874 303.590713 
L 735.873531 371.529902 
L 749.273188 373.711601 
L 762.672845 258.889682 
L 776.072502 334.066938 
L 789.472159 219.830486 
L 789.472159 -1540.983647 
L 789.472159 -1540.983647 
L 776.072502 -651.053486 
L 762.672845 -10703.977136 
L 749.273188 -226.631765 
L 735.873531 -39.470578 
L 722.473874 -522.278067 
L 709.074217 -245.368877 
L 695.67456 -1197.513402 
L 682.274904 -2226.827114 
L 668.875247 -381.7461 
L 655.47559 -116.931408 
L 642.075933 -191.016 
L 628.676276 226.579333 
L 615.276619 257.472322 
L 601.876962 336.086108 
L 588.477305 -111.359124 
L 575.077648 -221.673459 
L 561.677991 401.278834 
L 548.278334 350.661939 
L 534.878677 366.999255 
L 521.47902 344.645107 
L 508.079363 218.697507 
L 494.679706 366.509308 
L 481.280049 290.51178 
L 467.880392 371.943397 
z
" style="fill:#09f0ee;fill-opacity:0.1;stroke:#09f0ee;stroke-opacity:0.1;"/>
   </g>
   <g id="PolyCollection_15">
    <path clip-path="url(#pb619350981)" d="M 467.880392 278.492663 
L 467.880392 311.010721 
L 481.280049 340.34151 
L 494.679706 384.457256 
L 508.079363 404.680334 
L 521.47902 413.364816 
L 534.878677 417.958532 
L 548.278334 415.492744 
L 561.677991 418.854437 
L 575.077648 417.784417 
L 588.477305 409.258251 
L 601.876962 410.004757 
L 615.276619 386.166786 
L 628.676276 364.65559 
L 642.075933 317.829773 
L 655.47559 272.309016 
L 668.875247 200.658433 
L 682.274904 45.916062 
L 695.67456 -36.97893 
L 709.074217 163.166977 
L 722.473874 119.056225 
L 735.873531 83.790578 
L 749.273188 123.111889 
L 762.672845 93.113625 
L 776.072502 242.090367 
L 789.472159 209.651466 
L 789.472159 81.549824 
L 789.472159 81.549824 
L 776.072502 74.217962 
L 762.672845 -167.920776 
L 749.273188 -179.837273 
L 735.873531 -165.474001 
L 722.473874 -46.317995 
L 709.074217 16.565389 
L 695.67456 -137.179528 
L 682.274904 -58.323148 
L 668.875247 119.703671 
L 655.47559 208.99031 
L 642.075933 260.075451 
L 628.676276 327.359877 
L 615.276619 350.917282 
L 601.876962 389.307731 
L 588.477305 386.154528 
L 575.077648 397.676253 
L 561.677991 401.300807 
L 548.278334 396.380436 
L 534.878677 398.637443 
L 521.47902 392.797649 
L 508.079363 384.107646 
L 494.679706 358.234598 
L 481.280049 306.216124 
L 467.880392 278.492663 
z
" style="fill:#1fffd7;fill-opacity:0.1;stroke:#1fffd7;stroke-opacity:0.1;"/>
   </g>
   <g id="PolyCollection_16">
    <path clip-path="url(#pb619350981)" d="M 481.280049 248.214177 
L 481.280049 424.111488 
L 494.679706 418.400101 
L 508.079363 427.856186 
L 521.47902 435.43057 
L 534.878677 423.815123 
L 548.278334 415.469318 
L 561.677991 412.660386 
L 575.077648 399.506636 
L 588.477305 407.37684 
L 601.876962 421.310001 
L 615.276619 412.600459 
L 628.676276 408.552131 
L 642.075933 389.394443 
L 655.47559 380.936593 
L 668.875247 320.274696 
L 682.274904 300.721309 
L 695.67456 337.904432 
L 709.074217 354.525401 
L 722.473874 257.171054 
L 735.873531 286.513937 
L 749.273188 328.245141 
L 762.672845 367.603244 
L 776.072502 204.452907 
L 789.472159 134.349634 
L 789.472159 -777.092975 
L 789.472159 -777.092975 
L 776.072502 -967.641661 
L 762.672845 73.289315 
L 749.273188 18.801875 
L 735.873531 -37.243843 
L 722.473874 -140.654247 
L 709.074217 31.11665 
L 695.67456 -59.092426 
L 682.274904 17.426827 
L 668.875247 35.35983 
L 655.47559 62.15873 
L 642.075933 83.390793 
L 628.676276 171.387481 
L 615.276619 175.582357 
L 601.876962 213.215476 
L 588.477305 165.486871 
L 575.077648 224.560708 
L 561.677991 185.813132 
L 548.278334 98.458932 
L 534.878677 193.520989 
L 521.47902 175.958261 
L 508.079363 282.404775 
L 494.679706 233.895123 
L 481.280049 248.214177 
z
" style="fill:#36ffc1;fill-opacity:0.1;stroke:#36ffc1;stroke-opacity:0.1;"/>
   </g>
   <g id="PolyCollection_17">
    <path clip-path="url(#pb619350981)" d="M 481.280049 248.214177 
L 481.280049 424.111488 
L 494.679706 418.400101 
L 508.079363 427.856186 
L 521.47902 432.655778 
L 534.878677 422.185114 
L 548.278334 417.747444 
L 561.677991 419.44083 
L 575.077648 398.032255 
L 588.477305 411.758033 
L 601.876962 421.999159 
L 615.276619 411.715177 
L 628.676276 408.1459 
L 642.075933 390.693583 
L 655.47559 377.85 
L 668.875247 312.852853 
L 682.274904 290.237388 
L 695.67456 321.859124 
L 709.074217 338.96205 
L 722.473874 245.825096 
L 735.873531 271.255848 
L 749.273188 318.154921 
L 762.672845 352.318461 
L 776.072502 197.196136 
L 789.472159 121.163742 
L 789.472159 -664.832654 
L 789.472159 -664.832654 
L 776.072502 -757.129543 
L 762.672845 87.387729 
L 749.273188 3.148633 
L 735.873531 47.258749 
L 722.473874 -19.523853 
L 709.074217 129.568202 
L 695.67456 102.261015 
L 682.274904 3.75008 
L 668.875247 128.167368 
L 655.47559 188.609352 
L 642.075933 216.57864 
L 628.676276 270.685999 
L 615.276619 281.684563 
L 601.876962 305.441179 
L 588.477305 244.994837 
L 575.077648 252.329332 
L 561.677991 275.849873 
L 548.278334 260.862 
L 534.878677 275.261319 
L 521.47902 294.370703 
L 508.079363 282.404775 
L 494.679706 233.895123 
L 481.280049 248.214177 
z
" style="fill:#4dffaa;fill-opacity:0.1;stroke:#4dffaa;stroke-opacity:0.1;"/>
   </g>
   <g id="PolyCollection_18">
    <path clip-path="url(#pb619350981)" d="M 481.280049 283.533577 
L 481.280049 433.593905 
L 494.679706 428.651578 
L 508.079363 436.452594 
L 521.47902 441.986743 
L 534.878677 432.144403 
L 548.278334 430.768992 
L 561.677991 424.109491 
L 575.077648 406.938648 
L 588.477305 419.509292 
L 601.876962 430.568691 
L 615.276619 424.830428 
L 628.676276 421.784694 
L 642.075933 407.785432 
L 655.47559 400.959588 
L 668.875247 312.852853 
L 682.274904 294.274094 
L 695.67456 321.859124 
L 709.074217 338.96205 
L 722.473874 245.825096 
L 735.873531 271.255848 
L 749.273188 305.537789 
L 762.672845 340.679225 
L 776.072502 229.052857 
L 789.472159 162.651425 
L 789.472159 -263.620762 
L 789.472159 -263.620762 
L 776.072502 -231.819428 
L 762.672845 174.301376 
L 749.273188 96.813124 
L 735.873531 47.258749 
L 722.473874 -19.523853 
L 709.074217 129.568202 
L 695.67456 102.261015 
L 682.274904 100.454313 
L 668.875247 128.167368 
L 655.47559 195.455898 
L 642.075933 211.64612 
L 628.676276 270.857608 
L 615.276619 274.945705 
L 601.876962 298.727744 
L 588.477305 270.646956 
L 575.077648 284.293558 
L 561.677991 290.586961 
L 548.278334 275.054481 
L 534.878677 297.191439 
L 521.47902 314.858766 
L 508.079363 313.751028 
L 494.679706 264.421107 
L 481.280049 283.533577 
z
" style="fill:#63ff94;fill-opacity:0.1;stroke:#63ff94;stroke-opacity:0.1;"/>
   </g>
   <g id="PolyCollection_19">
    <path clip-path="url(#pb619350981)" d="M 481.280049 205.26882 
L 481.280049 427.343358 
L 494.679706 422.811258 
L 508.079363 432.09864 
L 521.47902 437.207672 
L 534.878677 425.977209 
L 548.278334 419.510926 
L 561.677991 415.973248 
L 575.077648 400.480537 
L 588.477305 420.207711 
L 601.876962 424.837329 
L 615.276619 417.986606 
L 628.676276 413.351904 
L 642.075933 395.993109 
L 655.47559 388.069697 
L 668.875247 322.323102 
L 682.274904 307.69134 
L 695.67456 345.494978 
L 709.074217 358.440256 
L 722.473874 266.65111 
L 735.873531 293.672465 
L 749.273188 333.638371 
L 762.672845 372.044001 
L 776.072502 220.906445 
L 789.472159 154.909247 
L 789.472159 -681.011254 
L 789.472159 -681.011254 
L 776.072502 -857.869392 
L 762.672845 104.200464 
L 749.273188 44.056661 
L 735.873531 -14.199993 
L 722.473874 -109.730023 
L 709.074217 58.678617 
L 695.67456 -16.691313 
L 682.274904 41.89058 
L 668.875247 42.830341 
L 655.47559 80.45093 
L 642.075933 97.683334 
L 628.676276 186.309434 
L 615.276619 186.565304 
L 601.876962 219.847738 
L 588.477305 235.9014 
L 575.077648 242.784446 
L 561.677991 212.993747 
L 548.278334 148.107374 
L 534.878677 221.57599 
L 521.47902 210.351702 
L 508.079363 245.693257 
L 494.679706 176.104264 
L 481.280049 205.26882 
z
" style="fill:#7dff7a;fill-opacity:0.1;stroke:#7dff7a;stroke-opacity:0.1;"/>
   </g>
   <g id="PolyCollection_20">
    <path clip-path="url(#pb619350981)" d="M 481.280049 239.394769 
L 481.280049 430.893204 
L 494.679706 425.198705 
L 508.079363 433.902074 
L 521.47902 432.655778 
L 534.878677 422.185114 
L 548.278334 417.747444 
L 561.677991 419.44083 
L 575.077648 398.032255 
L 588.477305 411.758033 
L 601.876962 421.999159 
L 615.276619 411.715177 
L 628.676276 408.1459 
L 642.075933 390.693583 
L 655.47559 377.85 
L 668.875247 306.311026 
L 682.274904 290.237388 
L 695.67456 324.941903 
L 709.074217 345.255816 
L 722.473874 243.011805 
L 735.873531 272.93852 
L 749.273188 318.154921 
L 762.672845 352.318461 
L 776.072502 197.196136 
L 789.472159 121.163742 
L 789.472159 -664.832654 
L 789.472159 -664.832654 
L 776.072502 -757.129543 
L 762.672845 87.387729 
L 749.273188 3.148633 
L 735.873531 -58.667491 
L 722.473874 -156.096838 
L 709.074217 22.619938 
L 695.67456 -36.534709 
L 682.274904 3.75008 
L 668.875247 11.030459 
L 655.47559 188.609352 
L 642.075933 216.57864 
L 628.676276 270.685999 
L 615.276619 281.684563 
L 601.876962 305.441179 
L 588.477305 244.994837 
L 575.077648 252.329332 
L 561.677991 275.849873 
L 548.278334 260.862 
L 534.878677 275.261319 
L 521.47902 294.370703 
L 508.079363 274.39002 
L 494.679706 215.473627 
L 481.280049 239.394769 
z
" style="fill:#94ff63;fill-opacity:0.1;stroke:#94ff63;stroke-opacity:0.1;"/>
   </g>
   <g id="PolyCollection_21">
    <defs>
     <path d="M 494.679706 -172.874245 
L 494.679706 -96.516407 
L 508.079363 -111.734773 
L 521.47902 -102.799309 
L 534.878677 -98.082879 
L 548.278334 -100.942911 
L 561.677991 -91.158815 
L 575.077648 -89.957475 
L 588.477305 -81.971102 
L 601.876962 -90.29551 
L 615.276619 -108.546555 
L 628.676276 -121.2141 
L 642.075933 -122.430189 
L 655.47559 -147.780026 
L 668.875247 -164.363085 
L 682.274904 -175.355787 
L 695.67456 -231.509656 
L 709.074217 -176.753039 
L 722.473874 -227.115026 
L 762.672845 -163.273065 
L 776.072502 -201.909351 
L 789.472159 -238.505429 
L 789.472159 -513.677168 
L 789.472159 -513.677168 
L 776.072502 -433.27244 
L 762.672845 -407.16447 
L 722.473874 -403.279135 
L 709.074217 -374.551763 
L 695.67456 -334.277145 
L 682.274904 -319.925031 
L 668.875247 -231.220528 
L 655.47559 -182.108215 
L 642.075933 -174.769672 
L 628.676276 -151.682447 
L 615.276619 -136.628611 
L 601.876962 -149.483135 
L 588.477305 -158.787849 
L 575.077648 -143.088263 
L 561.677991 -120.143433 
L 548.278334 -132.950107 
L 534.878677 -138.038986 
L 521.47902 -135.354938 
L 508.079363 -148.631189 
L 494.679706 -172.874245 
z
" id="m7a35950267" style="stroke:#aaff4d;stroke-opacity:0.1;"/>
    </defs>
    <g clip-path="url(#pb619350981)">
     <use style="fill:#aaff4d;fill-opacity:0.1;stroke:#aaff4d;stroke-opacity:0.1;" x="0" xlink:href="#m7a35950267" y="521.464628"/>
    </g>
   </g>
   <g id="PolyCollection_22">
    <path clip-path="url(#pb619350981)" d="M 534.878677 381.019597 
L 534.878677 429.355273 
L 548.278334 436.610871 
L 561.677991 422.839076 
L 575.077648 416.668223 
L 588.477305 419.180156 
L 601.876962 425.148139 
L 615.276619 422.631485 
L 628.676276 403.911172 
L 642.075933 392.896531 
L 655.47559 370.073722 
L 668.875247 337.308684 
L 682.274904 112.854068 
L 695.67456 211.449851 
L 709.074217 265.524092 
L 722.473874 277.663325 
L 735.873531 214.785194 
L 749.273188 236.651644 
L 762.672845 316.782041 
L 776.072502 255.927886 
L 789.472159 234.972755 
L 789.472159 -2.588935 
L 789.472159 -2.588935 
L 776.072502 109.135027 
L 762.672845 132.312227 
L 749.273188 -47.410843 
L 735.873531 -149.005666 
L 722.473874 54.256457 
L 709.074217 -13.906062 
L 695.67456 -583.206722 
L 682.274904 -306.021079 
L 668.875247 210.181308 
L 655.47559 277.076782 
L 642.075933 322.064298 
L 628.676276 346.857974 
L 615.276619 381.839926 
L 601.876962 388.2765 
L 588.477305 391.113879 
L 575.077648 382.247812 
L 561.677991 395.662445 
L 548.278334 343.750568 
L 534.878677 381.019597 
z
" style="fill:#c1ff36;fill-opacity:0.1;stroke:#c1ff36;stroke-opacity:0.1;"/>
   </g>
   <g id="PolyCollection_23">
    <defs>
     <path d="M 628.676276 -227.189543 
L 628.676276 -103.105422 
L 642.075933 -110.761748 
L 655.47559 -138.773984 
L 668.875247 -183.552664 
L 682.274904 -237.971242 
L 695.67456 -267.080514 
L 709.074217 -218.754082 
L 722.473874 -269.225559 
L 735.873531 -279.523236 
L 749.273188 -285.036932 
L 762.672845 -167.360314 
L 776.072502 -247.127011 
L 789.472159 -158.051444 
L 789.472159 -524.166458 
L 789.472159 -524.166458 
L 776.072502 -391.802669 
L 762.672845 -569.814947 
L 749.273188 -488.959388 
L 735.873531 -478.352776 
L 722.473874 -458.543293 
L 709.074217 -415.516102 
L 695.67456 -525.393067 
L 682.274904 -459.209029 
L 668.875247 -335.480708 
L 655.47559 -233.670058 
L 642.075933 -258.537256 
L 628.676276 -227.189543 
z
" id="m83098c3570" style="stroke:#d7ff1f;stroke-opacity:0.1;"/>
    </defs>
    <g clip-path="url(#pb619350981)">
     <use style="fill:#d7ff1f;fill-opacity:0.1;stroke:#d7ff1f;stroke-opacity:0.1;" x="0" xlink:href="#m83098c3570" y="521.464628"/>
    </g>
   </g>
   <g id="PolyCollection_24">
    <path clip-path="url(#pb619350981)" d="M 642.075933 259.991878 
L 642.075933 401.33125 
L 668.875247 357.65976 
L 682.274904 232.890241 
L 695.67456 193.796791 
L 709.074217 244.147101 
L 722.473874 283.980452 
L 762.672845 305.028368 
L 762.672845 148.73622 
L 762.672845 148.73622 
L 722.473874 172.094758 
L 709.074217 -197.669787 
L 695.67456 -407.960876 
L 682.274904 -162.619885 
L 668.875247 209.319277 
L 642.075933 259.991878 
z
" style="fill:#eeff09;fill-opacity:0.1;stroke:#eeff09;stroke-opacity:0.1;"/>
   </g>
   <g id="PolyCollection_25">
    <path clip-path="url(#pb619350981)" d="M 655.47559 310.816735 
L 655.47559 388.305275 
L 668.875247 386.707358 
L 682.274904 287.625624 
L 695.67456 229.97487 
L 709.074217 220.620065 
L 722.473874 226.102922 
L 735.873531 184.715115 
L 749.273188 167.564231 
L 762.672845 197.774901 
L 762.672845 -94.227119 
L 762.672845 -94.227119 
L 749.273188 -158.492701 
L 735.873531 -122.055753 
L 722.473874 -34.030829 
L 709.074217 -45.70866 
L 695.67456 -25.838798 
L 682.274904 96.723116 
L 668.875247 307.486659 
L 655.47559 310.816735 
z
" style="fill:#ffe600;fill-opacity:0.1;stroke:#ffe600;stroke-opacity:0.1;"/>
   </g>
   <g id="PolyCollection_26">
    <defs>
     <path d="M 655.47559 -266.721626 
L 655.47559 -122.971375 
L 668.875247 -151.788849 
L 668.875247 -384.522283 
L 668.875247 -384.522283 
L 655.47559 -266.721626 
z
" id="mce43e1fb07" style="stroke:#ffcc00;stroke-opacity:0.1;"/>
    </defs>
    <g clip-path="url(#pb619350981)">
     <use style="fill:#ffcc00;fill-opacity:0.1;stroke:#ffcc00;stroke-opacity:0.1;" x="0" xlink:href="#mce43e1fb07" y="521.464628"/>
    </g>
   </g>
   <g id="PolyCollection_27">
    <path clip-path="url(#pb619350981)" d="M 682.274904 -56.530871 
L 682.274904 432.271415 
L 695.67456 394.836465 
L 709.074217 457.198343 
L 722.473874 457.198343 
L 735.873531 457.198343 
L 749.273188 457.198343 
L 762.672845 457.198343 
L 776.072502 457.198343 
L 789.472159 457.198343 
L 789.472159 -384.452495 
L 789.472159 -384.452495 
L 776.072502 -357.052612 
L 762.672845 -177.007999 
L 749.273188 -439.456139 
L 735.873531 -365.264451 
L 722.473874 -180.887849 
L 709.074217 -85.152674 
L 695.67456 -44.493446 
L 682.274904 -56.530871 
z
" style="fill:#ffb200;fill-opacity:0.1;stroke:#ffb200;stroke-opacity:0.1;"/>
   </g>
   <g id="PolyCollection_28">
    <defs>
     <path d="M 682.274904 -587.651468 
L 682.274904 -575.226922 
L 695.67456 -493.181682 
L 709.074217 -231.481723 
L 722.473874 -377.72763 
L 735.873531 -446.783966 
L 749.273188 -410.548268 
L 762.672845 -144.476601 
L 776.072502 -362.978904 
L 789.472159 -439.284676 
L 789.472159 -453.454141 
L 789.472159 -453.454141 
L 776.072502 -375.984806 
L 762.672845 -158.858695 
L 749.273188 -418.403228 
L 735.873531 -454.929429 
L 722.473874 -385.78283 
L 709.074217 -238.195657 
L 695.67456 -500.117093 
L 682.274904 -587.651468 
z
" id="me4d7caa71a" style="stroke:#ff9400;stroke-opacity:0.1;"/>
    </defs>
    <g clip-path="url(#pb619350981)">
     <use style="fill:#ff9400;fill-opacity:0.1;stroke:#ff9400;stroke-opacity:0.1;" x="0" xlink:href="#me4d7caa71a" y="521.464628"/>
    </g>
   </g>
   <g id="PolyCollection_29">
    <defs>
     <path d="M 682.274904 -469.613574 
L 682.274904 -103.928486 
L 695.67456 -147.263193 
L 709.074217 -102.936115 
L 722.473874 -213.29111 
L 735.873531 -278.235565 
L 749.273188 -239.451186 
L 762.672845 -181.341471 
L 776.072502 -171.1894 
L 789.472159 -197.742813 
L 789.472159 -495.771817 
L 789.472159 -495.771817 
L 776.072502 -484.674933 
L 762.672845 -519.87758 
L 749.273188 -433.16531 
L 735.873531 -547.955775 
L 722.473874 -506.500512 
L 709.074217 -437.381684 
L 695.67456 -508.941784 
L 682.274904 -469.613574 
z
" id="mb865803acf" style="stroke:#ff7a00;stroke-opacity:0.1;"/>
    </defs>
    <g clip-path="url(#pb619350981)">
     <use style="fill:#ff7a00;fill-opacity:0.1;stroke:#ff7a00;stroke-opacity:0.1;" x="0" xlink:href="#mb865803acf" y="521.464628"/>
    </g>
   </g>
   <g id="PolyCollection_30">
    <defs>
     <path d="M 682.274904 -281.818711 
L 682.274904 -207.364208 
L 695.67456 -285.136295 
L 709.074217 -245.631644 
L 722.473874 -305.715156 
L 735.873531 -341.755494 
L 749.273188 -351.152924 
L 762.672845 -271.909362 
L 776.072502 -315.728742 
L 789.472159 -367.253074 
L 789.472159 -417.069311 
L 789.472159 -417.069311 
L 776.072502 -369.52085 
L 762.672845 -369.125151 
L 749.273188 -360.870871 
L 735.873531 -376.862064 
L 722.473874 -362.415348 
L 709.074217 -301.716405 
L 695.67456 -341.960153 
L 682.274904 -281.818711 
z
" id="m085a1a93d8" style="stroke:#ff6000;stroke-opacity:0.1;"/>
    </defs>
    <g clip-path="url(#pb619350981)">
     <use style="fill:#ff6000;fill-opacity:0.1;stroke:#ff6000;stroke-opacity:0.1;" x="0" xlink:href="#m085a1a93d8" y="521.464628"/>
    </g>
   </g>
   <g id="PolyCollection_31">
    <path clip-path="url(#pb619350981)" d="M 722.473874 -133.388866 
L 722.473874 274.397907 
L 735.873531 227.406947 
L 749.273188 274.185639 
L 762.672845 313.089876 
L 776.072502 362.442895 
L 789.472159 283.368529 
L 789.472159 -485.725614 
L 789.472159 -485.725614 
L 776.072502 -20.054659 
L 762.672845 -25.980679 
L 749.273188 -55.133626 
L 735.873531 -159.676029 
L 722.473874 -133.388866 
z
" style="fill:#ff4700;fill-opacity:0.1;stroke:#ff4700;stroke-opacity:0.1;"/>
   </g>
   <g id="PolyCollection_32">
    <defs>
     <path d="M 722.473874 -366.784193 
L 722.473874 -305.294216 
L 735.873531 -302.13335 
L 749.273188 -282.909561 
L 762.672845 -296.389821 
L 776.072502 -283.623053 
L 789.472159 -306.036945 
L 789.472159 -427.965637 
L 789.472159 -427.965637 
L 776.072502 -374.887203 
L 762.672845 -427.061106 
L 749.273188 -385.518217 
L 735.873531 -400.948095 
L 722.473874 -366.784193 
z
" id="m8ef2a25ddd" style="stroke:#ff2d00;stroke-opacity:0.1;"/>
    </defs>
    <g clip-path="url(#pb619350981)">
     <use style="fill:#ff2d00;fill-opacity:0.1;stroke:#ff2d00;stroke-opacity:0.1;" x="0" xlink:href="#m8ef2a25ddd" y="521.464628"/>
    </g>
   </g>
   <g id="PolyCollection_33">
    <path clip-path="url(#pb619350981)" d="M 722.473874 -247.564013 
L 722.473874 199.099629 
L 735.873531 232.642653 
L 749.273188 286.799225 
L 762.672845 381.934283 
L 776.072502 387.48296 
L 789.472159 193.143268 
L 789.472159 1.876732 
L 789.472159 1.876732 
L 776.072502 -23.397485 
L 762.672845 -74.417342 
L 749.273188 -152.179441 
L 735.873531 -183.633927 
L 722.473874 -247.564013 
z
" style="fill:#ff1300;fill-opacity:0.1;stroke:#ff1300;stroke-opacity:0.1;"/>
   </g>
   <g id="PolyCollection_34">
    <defs>
     <path d="M 735.873531 -340.232627 
L 735.873531 -195.054881 
L 735.873531 -340.232627 
L 735.873531 -340.232627 
z
" id="m1a5668505f" style="stroke:#df0000;stroke-opacity:0.1;"/>
    </defs>
    <g clip-path="url(#pb619350981)">
     <use style="fill:#df0000;fill-opacity:0.1;stroke:#df0000;stroke-opacity:0.1;" x="0" xlink:href="#m1a5668505f" y="521.464628"/>
    </g>
   </g>
   <g id="PolyCollection_35">
    <defs>
     <path d="M 749.273188 -403.893565 
L 749.273188 -347.40606 
L 762.672845 -282.259003 
L 776.072502 -307.077862 
L 789.472159 -362.127285 
L 789.472159 -400.154309 
L 789.472159 -400.154309 
L 776.072502 -329.860219 
L 762.672845 -326.764349 
L 749.273188 -403.893565 
z
" id="m26a1e38ff9" style="stroke:#bf0000;stroke-opacity:0.1;"/>
    </defs>
    <g clip-path="url(#pb619350981)">
     <use style="fill:#bf0000;fill-opacity:0.1;stroke:#bf0000;stroke-opacity:0.1;" x="0" xlink:href="#m26a1e38ff9" y="521.464628"/>
    </g>
   </g>
   <g id="PolyCollection_36">
    <defs>
     <path d="M 789.472159 -202.786006 
L 789.472159 -157.273635 
L 789.472159 -202.786006 
L 789.472159 -202.786006 
z
" id="m15d9e75c42" style="stroke:#9f0000;stroke-opacity:0.1;"/>
    </defs>
    <g clip-path="url(#pb619350981)">
     <use style="fill:#9f0000;fill-opacity:0.1;stroke:#9f0000;stroke-opacity:0.1;" x="0" xlink:href="#m15d9e75c42" y="521.464628"/>
    </g>
   </g>
   <g id="PolyCollection_37">
    <defs>
     <path d="M 789.472159 -508.097387 
L 789.472159 -353.613917 
L 789.472159 -508.097387 
L 789.472159 -508.097387 
z
" id="m422d773735" style="stroke:#800000;stroke-opacity:0.1;"/>
    </defs>
    <g clip-path="url(#pb619350981)">
     <use style="fill:#800000;fill-opacity:0.1;stroke:#800000;stroke-opacity:0.1;" x="0" xlink:href="#m422d773735" y="521.464628"/>
    </g>
   </g>
   <g id="matplotlib.axis_1">
    <g id="xtick_1">
     <g id="line2d_1">
      <defs>
       <path d="M 0 0 
L 0 3.5 
" id="m26d6a3c6c5" style="stroke:#000000;stroke-width:0.8;"/>
      </defs>
      <g>
       <use style="stroke:#000000;stroke-width:0.8;" x="134.803205" xlink:href="#m26d6a3c6c5" y="457.198125"/>
      </g>
     </g>
     <g id="text_1">
      <!-- 2020-03 -->
      <defs>
       <path d="M 19.1875 8.296875 
L 53.609375 8.296875 
L 53.609375 0 
L 7.328125 0 
L 7.328125 8.296875 
Q 12.9375 14.109375 22.625 23.890625 
Q 32.328125 33.6875 34.8125 36.53125 
Q 39.546875 41.84375 41.421875 45.53125 
Q 43.3125 49.21875 43.3125 52.78125 
Q 43.3125 58.59375 39.234375 62.25 
Q 35.15625 65.921875 28.609375 65.921875 
Q 23.96875 65.921875 18.8125 64.3125 
Q 13.671875 62.703125 7.8125 59.421875 
L 7.8125 69.390625 
Q 13.765625 71.78125 18.9375 73 
Q 24.125 74.21875 28.421875 74.21875 
Q 39.75 74.21875 46.484375 68.546875 
Q 53.21875 62.890625 53.21875 53.421875 
Q 53.21875 48.921875 51.53125 44.890625 
Q 49.859375 40.875 45.40625 35.40625 
Q 44.1875 33.984375 37.640625 27.21875 
Q 31.109375 20.453125 19.1875 8.296875 
z
" id="DejaVuSans-50"/>
       <path d="M 31.78125 66.40625 
Q 24.171875 66.40625 20.328125 58.90625 
Q 16.5 51.421875 16.5 36.375 
Q 16.5 21.390625 20.328125 13.890625 
Q 24.171875 6.390625 31.78125 6.390625 
Q 39.453125 6.390625 43.28125 13.890625 
Q 47.125 21.390625 47.125 36.375 
Q 47.125 51.421875 43.28125 58.90625 
Q 39.453125 66.40625 31.78125 66.40625 
z
M 31.78125 74.21875 
Q 44.046875 74.21875 50.515625 64.515625 
Q 56.984375 54.828125 56.984375 36.375 
Q 56.984375 17.96875 50.515625 8.265625 
Q 44.046875 -1.421875 31.78125 -1.421875 
Q 19.53125 -1.421875 13.0625 8.265625 
Q 6.59375 17.96875 6.59375 36.375 
Q 6.59375 54.828125 13.0625 64.515625 
Q 19.53125 74.21875 31.78125 74.21875 
z
" id="DejaVuSans-48"/>
       <path d="M 4.890625 31.390625 
L 31.203125 31.390625 
L 31.203125 23.390625 
L 4.890625 23.390625 
z
" id="DejaVuSans-45"/>
       <path d="M 40.578125 39.3125 
Q 47.65625 37.796875 51.625 33 
Q 55.609375 28.21875 55.609375 21.1875 
Q 55.609375 10.40625 48.1875 4.484375 
Q 40.765625 -1.421875 27.09375 -1.421875 
Q 22.515625 -1.421875 17.65625 -0.515625 
Q 12.796875 0.390625 7.625 2.203125 
L 7.625 11.71875 
Q 11.71875 9.328125 16.59375 8.109375 
Q 21.484375 6.890625 26.8125 6.890625 
Q 36.078125 6.890625 40.9375 10.546875 
Q 45.796875 14.203125 45.796875 21.1875 
Q 45.796875 27.640625 41.28125 31.265625 
Q 36.765625 34.90625 28.71875 34.90625 
L 20.21875 34.90625 
L 20.21875 43.015625 
L 29.109375 43.015625 
Q 36.375 43.015625 40.234375 45.921875 
Q 44.09375 48.828125 44.09375 54.296875 
Q 44.09375 59.90625 40.109375 62.90625 
Q 36.140625 65.921875 28.71875 65.921875 
Q 24.65625 65.921875 20.015625 65.03125 
Q 15.375 64.15625 9.8125 62.3125 
L 9.8125 71.09375 
Q 15.4375 72.65625 20.34375 73.4375 
Q 25.25 74.21875 29.59375 74.21875 
Q 40.828125 74.21875 47.359375 69.109375 
Q 53.90625 64.015625 53.90625 55.328125 
Q 53.90625 49.265625 50.4375 45.09375 
Q 46.96875 40.921875 40.578125 39.3125 
z
" id="DejaVuSans-51"/>
      </defs>
      <g transform="translate(121.981923 499.115942)rotate(-45)scale(0.1 -0.1)">
       <use xlink:href="#DejaVuSans-50"/>
       <use x="63.623047" xlink:href="#DejaVuSans-48"/>
       <use x="127.246094" xlink:href="#DejaVuSans-50"/>
       <use x="190.869141" xlink:href="#DejaVuSans-48"/>
       <use x="254.492188" xlink:href="#DejaVuSans-45"/>
       <use x="290.576172" xlink:href="#DejaVuSans-48"/>
       <use x="354.199219" xlink:href="#DejaVuSans-51"/>
      </g>
     </g>
    </g>
    <g id="xtick_2">
     <g id="line2d_2">
      <g>
       <use style="stroke:#000000;stroke-width:0.8;" x="251.571645" xlink:href="#m26d6a3c6c5" y="457.198125"/>
      </g>
     </g>
     <g id="text_2">
      <!-- 2020-05 -->
      <defs>
       <path d="M 10.796875 72.90625 
L 49.515625 72.90625 
L 49.515625 64.59375 
L 19.828125 64.59375 
L 19.828125 46.734375 
Q 21.96875 47.46875 24.109375 47.828125 
Q 26.265625 48.1875 28.421875 48.1875 
Q 40.625 48.1875 47.75 41.5 
Q 54.890625 34.8125 54.890625 23.390625 
Q 54.890625 11.625 47.5625 5.09375 
Q 40.234375 -1.421875 26.90625 -1.421875 
Q 22.3125 -1.421875 17.546875 -0.640625 
Q 12.796875 0.140625 7.71875 1.703125 
L 7.71875 11.625 
Q 12.109375 9.234375 16.796875 8.0625 
Q 21.484375 6.890625 26.703125 6.890625 
Q 35.15625 6.890625 40.078125 11.328125 
Q 45.015625 15.765625 45.015625 23.390625 
Q 45.015625 31 40.078125 35.4375 
Q 35.15625 39.890625 26.703125 39.890625 
Q 22.75 39.890625 18.8125 39.015625 
Q 14.890625 38.140625 10.796875 36.28125 
z
" id="DejaVuSans-53"/>
      </defs>
      <g transform="translate(238.750362 499.115942)rotate(-45)scale(0.1 -0.1)">
       <use xlink:href="#DejaVuSans-50"/>
       <use x="63.623047" xlink:href="#DejaVuSans-48"/>
       <use x="127.246094" xlink:href="#DejaVuSans-50"/>
       <use x="190.869141" xlink:href="#DejaVuSans-48"/>
       <use x="254.492188" xlink:href="#DejaVuSans-45"/>
       <use x="290.576172" xlink:href="#DejaVuSans-48"/>
       <use x="354.199219" xlink:href="#DejaVuSans-53"/>
      </g>
     </g>
    </g>
    <g id="xtick_3">
     <g id="line2d_3">
      <g>
       <use style="stroke:#000000;stroke-width:0.8;" x="368.340084" xlink:href="#m26d6a3c6c5" y="457.198125"/>
      </g>
     </g>
     <g id="text_3">
      <!-- 2020-07 -->
      <defs>
       <path d="M 8.203125 72.90625 
L 55.078125 72.90625 
L 55.078125 68.703125 
L 28.609375 0 
L 18.3125 0 
L 43.21875 64.59375 
L 8.203125 64.59375 
z
" id="DejaVuSans-55"/>
      </defs>
      <g transform="translate(355.518801 499.115942)rotate(-45)scale(0.1 -0.1)">
       <use xlink:href="#DejaVuSans-50"/>
       <use x="63.623047" xlink:href="#DejaVuSans-48"/>
       <use x="127.246094" xlink:href="#DejaVuSans-50"/>
       <use x="190.869141" xlink:href="#DejaVuSans-48"/>
       <use x="254.492188" xlink:href="#DejaVuSans-45"/>
       <use x="290.576172" xlink:href="#DejaVuSans-48"/>
       <use x="354.199219" xlink:href="#DejaVuSans-55"/>
      </g>
     </g>
    </g>
    <g id="xtick_4">
     <g id="line2d_4">
      <g>
       <use style="stroke:#000000;stroke-width:0.8;" x="487.022759" xlink:href="#m26d6a3c6c5" y="457.198125"/>
      </g>
     </g>
     <g id="text_4">
      <!-- 2020-09 -->
      <defs>
       <path d="M 10.984375 1.515625 
L 10.984375 10.5 
Q 14.703125 8.734375 18.5 7.8125 
Q 22.3125 6.890625 25.984375 6.890625 
Q 35.75 6.890625 40.890625 13.453125 
Q 46.046875 20.015625 46.78125 33.40625 
Q 43.953125 29.203125 39.59375 26.953125 
Q 35.25 24.703125 29.984375 24.703125 
Q 19.046875 24.703125 12.671875 31.3125 
Q 6.296875 37.9375 6.296875 49.421875 
Q 6.296875 60.640625 12.9375 67.421875 
Q 19.578125 74.21875 30.609375 74.21875 
Q 43.265625 74.21875 49.921875 64.515625 
Q 56.59375 54.828125 56.59375 36.375 
Q 56.59375 19.140625 48.40625 8.859375 
Q 40.234375 -1.421875 26.421875 -1.421875 
Q 22.703125 -1.421875 18.890625 -0.6875 
Q 15.09375 0.046875 10.984375 1.515625 
z
M 30.609375 32.421875 
Q 37.25 32.421875 41.125 36.953125 
Q 45.015625 41.5 45.015625 49.421875 
Q 45.015625 57.28125 41.125 61.84375 
Q 37.25 66.40625 30.609375 66.40625 
Q 23.96875 66.40625 20.09375 61.84375 
Q 16.21875 57.28125 16.21875 49.421875 
Q 16.21875 41.5 20.09375 36.953125 
Q 23.96875 32.421875 30.609375 32.421875 
z
" id="DejaVuSans-57"/>
      </defs>
      <g transform="translate(474.201477 499.115942)rotate(-45)scale(0.1 -0.1)">
       <use xlink:href="#DejaVuSans-50"/>
       <use x="63.623047" xlink:href="#DejaVuSans-48"/>
       <use x="127.246094" xlink:href="#DejaVuSans-50"/>
       <use x="190.869141" xlink:href="#DejaVuSans-48"/>
       <use x="254.492188" xlink:href="#DejaVuSans-45"/>
       <use x="290.576172" xlink:href="#DejaVuSans-48"/>
       <use x="354.199219" xlink:href="#DejaVuSans-57"/>
      </g>
     </g>
    </g>
    <g id="xtick_5">
     <g id="line2d_5">
      <g>
       <use style="stroke:#000000;stroke-width:0.8;" x="603.791199" xlink:href="#m26d6a3c6c5" y="457.198125"/>
      </g>
     </g>
     <g id="text_5">
      <!-- 2020-11 -->
      <defs>
       <path d="M 12.40625 8.296875 
L 28.515625 8.296875 
L 28.515625 63.921875 
L 10.984375 60.40625 
L 10.984375 69.390625 
L 28.421875 72.90625 
L 38.28125 72.90625 
L 38.28125 8.296875 
L 54.390625 8.296875 
L 54.390625 0 
L 12.40625 0 
z
" id="DejaVuSans-49"/>
      </defs>
      <g transform="translate(590.969916 499.115942)rotate(-45)scale(0.1 -0.1)">
       <use xlink:href="#DejaVuSans-50"/>
       <use x="63.623047" xlink:href="#DejaVuSans-48"/>
       <use x="127.246094" xlink:href="#DejaVuSans-50"/>
       <use x="190.869141" xlink:href="#DejaVuSans-48"/>
       <use x="254.492188" xlink:href="#DejaVuSans-45"/>
       <use x="290.576172" xlink:href="#DejaVuSans-49"/>
       <use x="354.199219" xlink:href="#DejaVuSans-49"/>
      </g>
     </g>
    </g>
    <g id="xtick_6">
     <g id="line2d_6">
      <g>
       <use style="stroke:#000000;stroke-width:0.8;" x="720.559638" xlink:href="#m26d6a3c6c5" y="457.198125"/>
      </g>
     </g>
     <g id="text_6">
      <!-- 2021-01 -->
      <g transform="translate(707.738355 499.115942)rotate(-45)scale(0.1 -0.1)">
       <use xlink:href="#DejaVuSans-50"/>
       <use x="63.623047" xlink:href="#DejaVuSans-48"/>
       <use x="127.246094" xlink:href="#DejaVuSans-50"/>
       <use x="190.869141" xlink:href="#DejaVuSans-49"/>
       <use x="254.492188" xlink:href="#DejaVuSans-45"/>
       <use x="290.576172" xlink:href="#DejaVuSans-48"/>
       <use x="354.199219" xlink:href="#DejaVuSans-49"/>
      </g>
     </g>
    </g>
    <g id="text_7">
     <!-- Date -->
     <defs>
      <path d="M 19.671875 64.796875 
L 19.671875 8.109375 
L 31.59375 8.109375 
Q 46.6875 8.109375 53.6875 14.9375 
Q 60.6875 21.78125 60.6875 36.53125 
Q 60.6875 51.171875 53.6875 57.984375 
Q 46.6875 64.796875 31.59375 64.796875 
z
M 9.8125 72.90625 
L 30.078125 72.90625 
Q 51.265625 72.90625 61.171875 64.09375 
Q 71.09375 55.28125 71.09375 36.53125 
Q 71.09375 17.671875 61.125 8.828125 
Q 51.171875 0 30.078125 0 
L 9.8125 0 
z
" id="DejaVuSans-68"/>
      <path d="M 34.28125 27.484375 
Q 23.390625 27.484375 19.1875 25 
Q 14.984375 22.515625 14.984375 16.5 
Q 14.984375 11.71875 18.140625 8.90625 
Q 21.296875 6.109375 26.703125 6.109375 
Q 34.1875 6.109375 38.703125 11.40625 
Q 43.21875 16.703125 43.21875 25.484375 
L 43.21875 27.484375 
z
M 52.203125 31.203125 
L 52.203125 0 
L 43.21875 0 
L 43.21875 8.296875 
Q 40.140625 3.328125 35.546875 0.953125 
Q 30.953125 -1.421875 24.3125 -1.421875 
Q 15.921875 -1.421875 10.953125 3.296875 
Q 6 8.015625 6 15.921875 
Q 6 25.140625 12.171875 29.828125 
Q 18.359375 34.515625 30.609375 34.515625 
L 43.21875 34.515625 
L 43.21875 35.40625 
Q 43.21875 41.609375 39.140625 45 
Q 35.0625 48.390625 27.6875 48.390625 
Q 23 48.390625 18.546875 47.265625 
Q 14.109375 46.140625 10.015625 43.890625 
L 10.015625 52.203125 
Q 14.9375 54.109375 19.578125 55.046875 
Q 24.21875 56 28.609375 56 
Q 40.484375 56 46.34375 49.84375 
Q 52.203125 43.703125 52.203125 31.203125 
z
" id="DejaVuSans-97"/>
      <path d="M 18.3125 70.21875 
L 18.3125 54.6875 
L 36.8125 54.6875 
L 36.8125 47.703125 
L 18.3125 47.703125 
L 18.3125 18.015625 
Q 18.3125 11.328125 20.140625 9.421875 
Q 21.96875 7.515625 27.59375 7.515625 
L 36.8125 7.515625 
L 36.8125 0 
L 27.59375 0 
Q 17.1875 0 13.234375 3.875 
Q 9.28125 7.765625 9.28125 18.015625 
L 9.28125 47.703125 
L 2.6875 47.703125 
L 2.6875 54.6875 
L 9.28125 54.6875 
L 9.28125 70.21875 
z
" id="DejaVuSans-116"/>
      <path d="M 56.203125 29.59375 
L 56.203125 25.203125 
L 14.890625 25.203125 
Q 15.484375 15.921875 20.484375 11.0625 
Q 25.484375 6.203125 34.421875 6.203125 
Q 39.59375 6.203125 44.453125 7.46875 
Q 49.3125 8.734375 54.109375 11.28125 
L 54.109375 2.78125 
Q 49.265625 0.734375 44.1875 -0.34375 
Q 39.109375 -1.421875 33.890625 -1.421875 
Q 20.796875 -1.421875 13.15625 6.1875 
Q 5.515625 13.8125 5.515625 26.8125 
Q 5.515625 40.234375 12.765625 48.109375 
Q 20.015625 56 32.328125 56 
Q 43.359375 56 49.78125 48.890625 
Q 56.203125 41.796875 56.203125 29.59375 
z
M 47.21875 32.234375 
Q 47.125 39.59375 43.09375 43.984375 
Q 39.0625 48.390625 32.421875 48.390625 
Q 24.90625 48.390625 20.390625 44.140625 
Q 15.875 39.890625 15.1875 32.171875 
z
" id="DejaVuSans-101"/>
     </defs>
     <g transform="translate(422.430469 512.18494)scale(0.1 -0.1)">
      <use xlink:href="#DejaVuSans-68"/>
      <use x="77.001953" xlink:href="#DejaVuSans-97"/>
      <use x="138.28125" xlink:href="#DejaVuSans-116"/>
      <use x="177.490234" xlink:href="#DejaVuSans-101"/>
     </g>
    </g>
   </g>
   <g id="matplotlib.axis_2">
    <g id="ytick_1">
     <g id="line2d_7">
      <defs>
       <path d="M 0 0 
L -3.5 0 
" id="m2dc3c4449f" style="stroke:#000000;stroke-width:0.8;"/>
      </defs>
      <g>
       <use style="stroke:#000000;stroke-width:0.8;" x="43.78125" xlink:href="#m2dc3c4449f" y="366.400168"/>
      </g>
     </g>
     <g id="text_8">
      <!-- 0.5 -->
      <defs>
       <path d="M 10.6875 12.40625 
L 21 12.40625 
L 21 0 
L 10.6875 0 
z
" id="DejaVuSans-46"/>
      </defs>
      <g transform="translate(20.878125 370.199387)scale(0.1 -0.1)">
       <use xlink:href="#DejaVuSans-48"/>
       <use x="63.623047" xlink:href="#DejaVuSans-46"/>
       <use x="95.410156" xlink:href="#DejaVuSans-53"/>
      </g>
     </g>
    </g>
    <g id="ytick_2">
     <g id="line2d_8">
      <g>
       <use style="stroke:#000000;stroke-width:0.8;" x="43.78125" xlink:href="#m2dc3c4449f" y="275.601994"/>
      </g>
     </g>
     <g id="text_9">
      <!-- 1.0 -->
      <g transform="translate(20.878125 279.401213)scale(0.1 -0.1)">
       <use xlink:href="#DejaVuSans-49"/>
       <use x="63.623047" xlink:href="#DejaVuSans-46"/>
       <use x="95.410156" xlink:href="#DejaVuSans-48"/>
      </g>
     </g>
    </g>
    <g id="ytick_3">
     <g id="line2d_9">
      <g>
       <use style="stroke:#000000;stroke-width:0.8;" x="43.78125" xlink:href="#m2dc3c4449f" y="184.803819"/>
      </g>
     </g>
     <g id="text_10">
      <!-- 1.5 -->
      <g transform="translate(20.878125 188.603038)scale(0.1 -0.1)">
       <use xlink:href="#DejaVuSans-49"/>
       <use x="63.623047" xlink:href="#DejaVuSans-46"/>
       <use x="95.410156" xlink:href="#DejaVuSans-53"/>
      </g>
     </g>
    </g>
    <g id="ytick_4">
     <g id="line2d_10">
      <g>
       <use style="stroke:#000000;stroke-width:0.8;" x="43.78125" xlink:href="#m2dc3c4449f" y="94.005645"/>
      </g>
     </g>
     <g id="text_11">
      <!-- 2.0 -->
      <g transform="translate(20.878125 97.804863)scale(0.1 -0.1)">
       <use xlink:href="#DejaVuSans-50"/>
       <use x="63.623047" xlink:href="#DejaVuSans-46"/>
       <use x="95.410156" xlink:href="#DejaVuSans-48"/>
      </g>
     </g>
    </g>
    <g id="text_12">
     <!-- US weekly incidental cases -->
     <defs>
      <path d="M 8.6875 72.90625 
L 18.609375 72.90625 
L 18.609375 28.609375 
Q 18.609375 16.890625 22.84375 11.734375 
Q 27.09375 6.59375 36.625 6.59375 
Q 46.09375 6.59375 50.34375 11.734375 
Q 54.59375 16.890625 54.59375 28.609375 
L 54.59375 72.90625 
L 64.5 72.90625 
L 64.5 27.390625 
Q 64.5 13.140625 57.4375 5.859375 
Q 50.390625 -1.421875 36.625 -1.421875 
Q 22.796875 -1.421875 15.734375 5.859375 
Q 8.6875 13.140625 8.6875 27.390625 
z
" id="DejaVuSans-85"/>
      <path d="M 53.515625 70.515625 
L 53.515625 60.890625 
Q 47.90625 63.578125 42.921875 64.890625 
Q 37.9375 66.21875 33.296875 66.21875 
Q 25.25 66.21875 20.875 63.09375 
Q 16.5 59.96875 16.5 54.203125 
Q 16.5 49.359375 19.40625 46.890625 
Q 22.3125 44.4375 30.421875 42.921875 
L 36.375 41.703125 
Q 47.40625 39.59375 52.65625 34.296875 
Q 57.90625 29 57.90625 20.125 
Q 57.90625 9.515625 50.796875 4.046875 
Q 43.703125 -1.421875 29.984375 -1.421875 
Q 24.8125 -1.421875 18.96875 -0.25 
Q 13.140625 0.921875 6.890625 3.21875 
L 6.890625 13.375 
Q 12.890625 10.015625 18.65625 8.296875 
Q 24.421875 6.59375 29.984375 6.59375 
Q 38.421875 6.59375 43.015625 9.90625 
Q 47.609375 13.234375 47.609375 19.390625 
Q 47.609375 24.75 44.3125 27.78125 
Q 41.015625 30.8125 33.5 32.328125 
L 27.484375 33.5 
Q 16.453125 35.6875 11.515625 40.375 
Q 6.59375 45.0625 6.59375 53.421875 
Q 6.59375 63.09375 13.40625 68.65625 
Q 20.21875 74.21875 32.171875 74.21875 
Q 37.3125 74.21875 42.625 73.28125 
Q 47.953125 72.359375 53.515625 70.515625 
z
" id="DejaVuSans-83"/>
      <path id="DejaVuSans-32"/>
      <path d="M 4.203125 54.6875 
L 13.1875 54.6875 
L 24.421875 12.015625 
L 35.59375 54.6875 
L 46.1875 54.6875 
L 57.421875 12.015625 
L 68.609375 54.6875 
L 77.59375 54.6875 
L 63.28125 0 
L 52.6875 0 
L 40.921875 44.828125 
L 29.109375 0 
L 18.5 0 
z
" id="DejaVuSans-119"/>
      <path d="M 9.078125 75.984375 
L 18.109375 75.984375 
L 18.109375 31.109375 
L 44.921875 54.6875 
L 56.390625 54.6875 
L 27.390625 29.109375 
L 57.625 0 
L 45.90625 0 
L 18.109375 26.703125 
L 18.109375 0 
L 9.078125 0 
z
" id="DejaVuSans-107"/>
      <path d="M 9.421875 75.984375 
L 18.40625 75.984375 
L 18.40625 0 
L 9.421875 0 
z
" id="DejaVuSans-108"/>
      <path d="M 32.171875 -5.078125 
Q 28.375 -14.84375 24.75 -17.8125 
Q 21.140625 -20.796875 15.09375 -20.796875 
L 7.90625 -20.796875 
L 7.90625 -13.28125 
L 13.1875 -13.28125 
Q 16.890625 -13.28125 18.9375 -11.515625 
Q 21 -9.765625 23.484375 -3.21875 
L 25.09375 0.875 
L 2.984375 54.6875 
L 12.5 54.6875 
L 29.59375 11.921875 
L 46.6875 54.6875 
L 56.203125 54.6875 
z
" id="DejaVuSans-121"/>
      <path d="M 9.421875 54.6875 
L 18.40625 54.6875 
L 18.40625 0 
L 9.421875 0 
z
M 9.421875 75.984375 
L 18.40625 75.984375 
L 18.40625 64.59375 
L 9.421875 64.59375 
z
" id="DejaVuSans-105"/>
      <path d="M 54.890625 33.015625 
L 54.890625 0 
L 45.90625 0 
L 45.90625 32.71875 
Q 45.90625 40.484375 42.875 44.328125 
Q 39.84375 48.1875 33.796875 48.1875 
Q 26.515625 48.1875 22.3125 43.546875 
Q 18.109375 38.921875 18.109375 30.90625 
L 18.109375 0 
L 9.078125 0 
L 9.078125 54.6875 
L 18.109375 54.6875 
L 18.109375 46.1875 
Q 21.34375 51.125 25.703125 53.5625 
Q 30.078125 56 35.796875 56 
Q 45.21875 56 50.046875 50.171875 
Q 54.890625 44.34375 54.890625 33.015625 
z
" id="DejaVuSans-110"/>
      <path d="M 48.78125 52.59375 
L 48.78125 44.1875 
Q 44.96875 46.296875 41.140625 47.34375 
Q 37.3125 48.390625 33.40625 48.390625 
Q 24.65625 48.390625 19.8125 42.84375 
Q 14.984375 37.3125 14.984375 27.296875 
Q 14.984375 17.28125 19.8125 11.734375 
Q 24.65625 6.203125 33.40625 6.203125 
Q 37.3125 6.203125 41.140625 7.25 
Q 44.96875 8.296875 48.78125 10.40625 
L 48.78125 2.09375 
Q 45.015625 0.34375 40.984375 -0.53125 
Q 36.96875 -1.421875 32.421875 -1.421875 
Q 20.0625 -1.421875 12.78125 6.34375 
Q 5.515625 14.109375 5.515625 27.296875 
Q 5.515625 40.671875 12.859375 48.328125 
Q 20.21875 56 33.015625 56 
Q 37.15625 56 41.109375 55.140625 
Q 45.0625 54.296875 48.78125 52.59375 
z
" id="DejaVuSans-99"/>
      <path d="M 45.40625 46.390625 
L 45.40625 75.984375 
L 54.390625 75.984375 
L 54.390625 0 
L 45.40625 0 
L 45.40625 8.203125 
Q 42.578125 3.328125 38.25 0.953125 
Q 33.9375 -1.421875 27.875 -1.421875 
Q 17.96875 -1.421875 11.734375 6.484375 
Q 5.515625 14.40625 5.515625 27.296875 
Q 5.515625 40.1875 11.734375 48.09375 
Q 17.96875 56 27.875 56 
Q 33.9375 56 38.25 53.625 
Q 42.578125 51.265625 45.40625 46.390625 
z
M 14.796875 27.296875 
Q 14.796875 17.390625 18.875 11.75 
Q 22.953125 6.109375 30.078125 6.109375 
Q 37.203125 6.109375 41.296875 11.75 
Q 45.40625 17.390625 45.40625 27.296875 
Q 45.40625 37.203125 41.296875 42.84375 
Q 37.203125 48.484375 30.078125 48.484375 
Q 22.953125 48.484375 18.875 42.84375 
Q 14.796875 37.203125 14.796875 27.296875 
z
" id="DejaVuSans-100"/>
      <path d="M 44.28125 53.078125 
L 44.28125 44.578125 
Q 40.484375 46.53125 36.375 47.5 
Q 32.28125 48.484375 27.875 48.484375 
Q 21.1875 48.484375 17.84375 46.4375 
Q 14.5 44.390625 14.5 40.28125 
Q 14.5 37.15625 16.890625 35.375 
Q 19.28125 33.59375 26.515625 31.984375 
L 29.59375 31.296875 
Q 39.15625 29.25 43.1875 25.515625 
Q 47.21875 21.78125 47.21875 15.09375 
Q 47.21875 7.46875 41.1875 3.015625 
Q 35.15625 -1.421875 24.609375 -1.421875 
Q 20.21875 -1.421875 15.453125 -0.5625 
Q 10.6875 0.296875 5.421875 2 
L 5.421875 11.28125 
Q 10.40625 8.6875 15.234375 7.390625 
Q 20.0625 6.109375 24.8125 6.109375 
Q 31.15625 6.109375 34.5625 8.28125 
Q 37.984375 10.453125 37.984375 14.40625 
Q 37.984375 18.0625 35.515625 20.015625 
Q 33.0625 21.96875 24.703125 23.78125 
L 21.578125 24.515625 
Q 13.234375 26.265625 9.515625 29.90625 
Q 5.8125 33.546875 5.8125 39.890625 
Q 5.8125 47.609375 11.28125 51.796875 
Q 16.75 56 26.8125 56 
Q 31.78125 56 36.171875 55.265625 
Q 40.578125 54.546875 44.28125 53.078125 
z
" id="DejaVuSans-115"/>
     </defs>
     <g transform="translate(14.798438 307.472969)rotate(-90)scale(0.1 -0.1)">
      <use xlink:href="#DejaVuSans-85"/>
      <use x="73.193359" xlink:href="#DejaVuSans-83"/>
      <use x="136.669922" xlink:href="#DejaVuSans-32"/>
      <use x="168.457031" xlink:href="#DejaVuSans-119"/>
      <use x="250.244141" xlink:href="#DejaVuSans-101"/>
      <use x="311.767578" xlink:href="#DejaVuSans-101"/>
      <use x="373.291016" xlink:href="#DejaVuSans-107"/>
      <use x="431.201172" xlink:href="#DejaVuSans-108"/>
      <use x="458.984375" xlink:href="#DejaVuSans-121"/>
      <use x="518.164062" xlink:href="#DejaVuSans-32"/>
      <use x="549.951172" xlink:href="#DejaVuSans-105"/>
      <use x="577.734375" xlink:href="#DejaVuSans-110"/>
      <use x="641.113281" xlink:href="#DejaVuSans-99"/>
      <use x="696.09375" xlink:href="#DejaVuSans-105"/>
      <use x="723.876953" xlink:href="#DejaVuSans-100"/>
      <use x="787.353516" xlink:href="#DejaVuSans-101"/>
      <use x="848.876953" xlink:href="#DejaVuSans-110"/>
      <use x="912.255859" xlink:href="#DejaVuSans-116"/>
      <use x="951.464844" xlink:href="#DejaVuSans-97"/>
      <use x="1012.744141" xlink:href="#DejaVuSans-108"/>
      <use x="1040.527344" xlink:href="#DejaVuSans-32"/>
      <use x="1072.314453" xlink:href="#DejaVuSans-99"/>
      <use x="1127.294922" xlink:href="#DejaVuSans-97"/>
      <use x="1188.574219" xlink:href="#DejaVuSans-115"/>
      <use x="1240.673828" xlink:href="#DejaVuSans-101"/>
      <use x="1302.197266" xlink:href="#DejaVuSans-115"/>
     </g>
    </g>
    <g id="text_13">
     <!-- 1e6 -->
     <defs>
      <path d="M 33.015625 40.375 
Q 26.375 40.375 22.484375 35.828125 
Q 18.609375 31.296875 18.609375 23.390625 
Q 18.609375 15.53125 22.484375 10.953125 
Q 26.375 6.390625 33.015625 6.390625 
Q 39.65625 6.390625 43.53125 10.953125 
Q 47.40625 15.53125 47.40625 23.390625 
Q 47.40625 31.296875 43.53125 35.828125 
Q 39.65625 40.375 33.015625 40.375 
z
M 52.59375 71.296875 
L 52.59375 62.3125 
Q 48.875 64.0625 45.09375 64.984375 
Q 41.3125 65.921875 37.59375 65.921875 
Q 27.828125 65.921875 22.671875 59.328125 
Q 17.53125 52.734375 16.796875 39.40625 
Q 19.671875 43.65625 24.015625 45.921875 
Q 28.375 48.1875 33.59375 48.1875 
Q 44.578125 48.1875 50.953125 41.515625 
Q 57.328125 34.859375 57.328125 23.390625 
Q 57.328125 12.15625 50.6875 5.359375 
Q 44.046875 -1.421875 33.015625 -1.421875 
Q 20.359375 -1.421875 13.671875 8.265625 
Q 6.984375 17.96875 6.984375 36.375 
Q 6.984375 53.65625 15.1875 63.9375 
Q 23.390625 74.21875 37.203125 74.21875 
Q 40.921875 74.21875 44.703125 73.484375 
Q 48.484375 72.75 52.59375 71.296875 
z
" id="DejaVuSans-54"/>
     </defs>
     <g transform="translate(43.78125 19.318125)scale(0.1 -0.1)">
      <use xlink:href="#DejaVuSans-49"/>
      <use x="63.623047" xlink:href="#DejaVuSans-101"/>
      <use x="125.146484" xlink:href="#DejaVuSans-54"/>
     </g>
    </g>
   </g>
   <g id="line2d_11">
    <path clip-path="url(#pb619350981)" d="M 253.485881 423.17318 
L 266.885538 417.693328 
L 280.285195 419.825633 
L 293.684852 419.027698 
L 307.084509 421.898737 
L 320.484166 425.053792 
L 333.883823 428.457089 
L 347.28348 429.088681 
L 360.683137 430.403257 
L 374.082794 429.977777 
L 387.482451 430.324262 
L 400.882108 424.403313 
L 414.281765 410.917787 
L 427.681422 397.421001 
L 441.081078 383.709206 
L 454.480735 372.667422 
L 467.880392 372.464034 
L 481.280049 377.028276 
L 494.679706 388.675321 
L 508.079363 391.236011 
L 521.47902 401.639485 
L 534.878677 403.804658 
L 548.278334 405.647498 
L 561.677991 413.57091 
L 575.077648 406.379149 
L 588.477305 400.908923 
L 601.876962 402.258547 
L 615.276619 396.256243 
L 628.676276 386.656878 
L 642.075933 372.067246 
L 655.47559 357.562964 
L 668.875247 325.149831 
L 682.274904 272.367763 
L 695.67456 242.093835 
L 709.074217 250.10859 
L 722.473874 214.470125 
L 735.873531 188.2576 
L 749.273188 182.557109 
L 762.672845 216.212179 
L 776.072502 196.778646 
L 789.472159 147.376812 
" style="fill:none;stroke:#000080;stroke-linecap:square;stroke-width:1.5;"/>
   </g>
   <g id="line2d_12">
    <path clip-path="url(#pb619350981)" d="M 414.281765 408.088399 
L 427.681422 405.316683 
L 441.081078 399.868726 
L 454.480735 396.107488 
L 467.880392 398.110655 
L 481.280049 414.827433 
L 494.679706 414.365395 
L 508.079363 421.519079 
L 521.47902 424.995437 
L 534.878677 428.019634 
L 548.278334 433.314488 
L 561.677991 430.957978 
L 575.077648 430.012006 
L 588.477305 426.449491 
L 601.876962 421.370014 
L 615.276619 413.308545 
L 628.676276 410.966722 
L 642.075933 324.274083 
L 655.47559 260.16467 
L 668.875247 140.15191 
L 682.274904 92.492039 
L 695.67456 230.687587 
L 709.074217 258.11136 
L 722.473874 121.450936 
L 735.873531 169.48199 
L 749.273188 219.286424 
L 776.072502 225.767779 
L 789.472159 126.111698 
" style="fill:none;stroke:#00009f;stroke-linecap:square;stroke-width:1.5;"/>
   </g>
   <g id="line2d_13">
    <path clip-path="url(#pb619350981)" d="M 427.681422 432.184131 
L 441.081078 384.15368 
L 454.480735 175.447811 
L 467.880392 285.759506 
L 481.280049 372.987594 
L 494.679706 358.986746 
L 508.079363 425.212387 
L 521.47902 426.901484 
L 534.878677 430.167412 
L 548.278334 436.697374 
L 561.677991 438.788831 
L 575.077648 433.969332 
L 601.876962 434.274008 
L 615.276619 425.583971 
L 628.676276 386.665653 
L 642.075933 345.164431 
L 655.47559 329.502354 
L 668.875247 115.372547 
L 682.274904 46.120492 
L 695.67456 98.443734 
L 709.074217 405.36229 
L 722.473874 112.281263 
L 735.873531 73.190043 
L 749.273188 152.150063 
L 762.672845 271.659513 
L 776.072502 230.235034 
L 789.472159 189.916795 
" style="fill:none;stroke:#0000bf;stroke-linecap:square;stroke-width:1.5;"/>
   </g>
   <g id="line2d_14">
    <path clip-path="url(#pb619350981)" d="M 427.681422 401.005532 
L 441.081078 399.96553 
L 454.480735 393.047253 
L 467.880392 385.049569 
L 481.280049 386.202524 
L 494.679706 399.026676 
L 508.079363 411.085219 
L 521.47902 422.958714 
L 534.878677 427.218057 
L 548.278334 431.31142 
L 561.677991 434.967136 
L 575.077648 436.679227 
L 588.477305 437.731941 
L 601.876962 435.309445 
L 615.276619 430.408886 
L 628.676276 431.394228 
L 642.075933 407.648145 
L 655.47559 377.807143 
L 668.875247 325.981724 
L 682.274904 254.838267 
L 695.67456 32.696356 
L 709.074217 71.466087 
L 722.473874 106.670174 
L 735.873531 136.750701 
L 749.273188 213.107789 
L 762.672845 225.821531 
L 776.072502 289.968263 
L 789.472159 103.453376 
" style="fill:none;stroke:#0000df;stroke-linecap:square;stroke-width:1.5;"/>
   </g>
   <g id="line2d_15">
    <path clip-path="url(#pb619350981)" d="M 427.681422 406.393219 
L 441.081078 401.623488 
L 454.480735 384.238295 
L 467.880392 390.323381 
L 481.280049 410.604786 
L 494.679706 416.728601 
L 508.079363 415.514703 
L 521.47902 425.417788 
L 534.878677 416.450268 
L 548.278334 414.090284 
L 561.677991 418.176057 
L 575.077648 400.318914 
L 588.477305 403.365663 
L 615.276619 390.222191 
L 642.075933 367.153253 
L 668.875247 315.622416 
L 682.274904 306.272844 
L 695.67456 343.88833 
L 709.074217 371.633584 
" style="fill:none;stroke:#0000ff;stroke-linecap:square;stroke-width:1.5;"/>
   </g>
   <g id="line2d_16">
    <path clip-path="url(#pb619350981)" d="M 427.681422 375.66703 
L 441.081078 359.824565 
L 454.480735 363.69747 
L 467.880392 376.512724 
L 481.280049 383.364173 
L 508.079363 404.612399 
L 521.47902 404.073057 
L 534.878677 402.111272 
L 548.278334 404.255017 
L 561.677991 410.654109 
L 575.077648 416.062048 
L 588.477305 409.565621 
L 601.876962 417.478137 
L 615.276619 414.557704 
L 628.676276 406.592525 
L 642.075933 379.890235 
L 655.47559 361.412443 
L 668.875247 349.023758 
L 682.274904 272.928351 
L 695.67456 224.906467 
L 709.074217 244.943809 
L 722.473874 225.343207 
L 735.873531 181.139205 
L 749.273188 186.885458 
L 762.672845 215.380649 
L 776.072502 242.043715 
L 789.472159 191.951088 
" style="fill:none;stroke:#000cff;stroke-linecap:square;stroke-width:1.5;"/>
   </g>
   <g id="line2d_17">
    <path clip-path="url(#pb619350981)" d="M 427.681422 355.425938 
L 441.081078 378.722752 
L 454.480735 388.348448 
L 467.880392 395.829491 
L 481.280049 414.294571 
L 494.679706 420.892511 
L 508.079363 414.10444 
L 521.47902 427.288516 
L 534.878677 419.334051 
L 548.278334 399.62431 
L 561.677991 413.544578 
L 575.077648 414.065941 
L 588.477305 381.596514 
L 601.876962 368.989914 
L 615.276619 387.319342 
L 628.676276 361.738009 
L 642.075933 329.478907 
L 655.47559 101.383541 
L 668.875247 73.665945 
L 671.785229 -1 
M 697.330745 -1 
L 709.074217 350.837361 
L 722.45141 -1 
M 722.783656 -1 
L 735.873531 23.966475 
L 739.012522 -1 
M 753.242863 -1 
L 762.672845 192.8647 
L 776.072502 267.180463 
L 789.472159 148.460579 
" style="fill:none;stroke:#0028ff;stroke-linecap:square;stroke-width:1.5;"/>
   </g>
   <g id="line2d_18">
    <path clip-path="url(#pb619350981)" d="M 427.681422 391.782526 
L 441.081078 382.290757 
L 454.480735 374.371703 
L 467.880392 354.705999 
L 481.280049 363.626829 
L 494.679706 377.128063 
L 508.079363 389.609816 
L 521.47902 403.664647 
L 534.878677 412.88729 
L 548.278334 417.501563 
L 561.677991 422.131997 
L 575.077648 423.832738 
L 588.477305 411.081042 
L 601.876962 401.769417 
L 615.276619 404.015401 
L 628.676276 393.997366 
L 642.075933 393.941252 
L 655.47559 389.272592 
L 682.274904 249.823212 
L 695.67456 247.054049 
L 709.074217 250.067731 
L 722.473874 240.738128 
L 735.873531 216.865835 
L 749.273188 217.109958 
L 762.672845 247.849319 
L 776.072502 263.496492 
L 789.472159 223.854929 
" style="fill:none;stroke:#0044ff;stroke-linecap:square;stroke-width:1.5;"/>
   </g>
   <g id="line2d_19">
    <path clip-path="url(#pb619350981)" d="M 427.681422 389.312158 
L 441.081078 365.92063 
L 454.480735 359.260161 
L 467.880392 371.223195 
L 481.280049 391.495754 
L 494.679706 412.392243 
L 508.079363 413.260283 
L 521.47902 413.172535 
L 534.878677 405.999904 
L 548.278334 427.491518 
L 561.677991 435.732422 
L 575.077648 423.373171 
L 588.477305 422.63451 
L 601.876962 426.18823 
L 615.276619 418.223728 
L 628.676276 416.054505 
L 642.075933 388.169868 
L 655.47559 352.371591 
L 668.875247 269.146038 
L 682.274904 195.991229 
L 695.67456 109.650053 
L 709.074217 282.068012 
L 722.473874 183.017989 
L 735.873531 232.846245 
L 749.273188 240.891793 
L 762.672845 281.688 
L 776.072502 255.477005 
L 789.472159 128.795155 
" style="fill:none;stroke:#0060ff;stroke-linecap:square;stroke-width:1.5;"/>
   </g>
   <g id="line2d_20">
    <path clip-path="url(#pb619350981)" d="M 427.681422 363.78745 
L 441.081078 351.670731 
L 454.480735 346.194858 
L 467.880392 345.791408 
L 481.280049 373.226327 
L 508.079363 413.141359 
L 521.47902 424.219346 
L 534.878677 430.80603 
L 548.278334 423.218751 
L 561.677991 426.048368 
L 575.077648 435.331518 
L 588.477305 428.699805 
L 601.876962 398.137042 
L 615.276619 392.076071 
L 628.676276 410.51161 
L 642.075933 323.575219 
L 655.47559 316.078597 
L 668.875247 250.885375 
L 695.67456 191.407287 
L 709.074217 243.405208 
L 722.473874 132.464002 
L 735.873531 118.508435 
L 749.273188 167.948715 
L 762.672845 254.468584 
L 776.072502 180.681407 
L 789.472159 107.06235 
" style="fill:none;stroke:#0080ff;stroke-linecap:square;stroke-width:1.5;"/>
   </g>
   <g id="line2d_21">
    <path clip-path="url(#pb619350981)" d="M 441.081078 320.076813 
L 454.480735 317.111986 
L 467.880392 331.735085 
L 481.280049 309.921573 
" style="fill:none;stroke:#009cff;stroke-linecap:square;stroke-width:1.5;"/>
   </g>
   <g id="line2d_22">
    <path clip-path="url(#pb619350981)" d="M 441.081078 366.734613 
L 454.480735 308.410862 
L 467.880392 360.457642 
L 481.280049 390.808871 
L 494.679706 410.613814 
L 508.079363 412.351431 
L 521.47902 422.024136 
L 534.878677 411.86555 
L 548.278334 411.163168 
L 561.677991 418.484222 
L 575.077648 401.213257 
L 588.477305 399.90099 
L 601.876962 403.140863 
L 615.276619 379.739434 
L 628.676276 371.461081 
L 642.075933 338.668271 
L 655.47559 327.300247 
L 668.875247 256.155845 
L 682.274904 164.699974 
L 695.67456 195.444855 
L 709.074217 280.050507 
L 722.473874 204.303472 
L 735.873531 194.511093 
L 749.273188 198.120633 
L 762.672845 268.198352 
L 776.072502 207.578569 
L 789.472159 95.401666 
" style="fill:none;stroke:#00b8ff;stroke-linecap:square;stroke-width:1.5;"/>
   </g>
   <g id="line2d_23">
    <path clip-path="url(#pb619350981)" d="M 454.480735 367.175766 
L 467.880392 371.223186 
L 481.280049 384.783348 
L 494.679706 394.591912 
L 508.079363 411.718264 
L 521.47902 420.022665 
L 534.878677 412.376369 
L 548.278334 409.760837 
L 561.677991 418.176011 
L 575.077648 411.279527 
L 588.477305 403.36574 
L 601.876962 403.140923 
L 615.276619 396.491773 
L 628.676276 386.656878 
L 642.075933 360.836964 
L 655.47559 329.502333 
L 668.875247 259.051847 
L 682.274904 190.022353 
L 695.67456 148.302953 
L 709.074217 248.229068 
L 722.473874 166.693215 
L 735.873531 136.750701 
L 749.273188 167.948772 
L 762.672845 221.016855 
L 776.072502 201.254996 
L 789.472159 138.852861 
" style="fill:none;stroke:#00d4ff;stroke-linecap:square;stroke-width:1.5;"/>
   </g>
   <g id="line2d_24">
    <path clip-path="url(#pb619350981)" d="M 467.880392 423.495695 
L 481.280049 405.377646 
L 494.679706 411.227409 
L 508.079363 389.660482 
L 521.47902 418.021291 
L 534.878677 414.951042 
L 548.278334 409.760837 
L 561.677991 423.571965 
L 575.077648 330.722115 
L 588.477305 369.897169 
L 601.876962 403.241346 
L 615.276619 376.0413 
L 628.676276 367.302884 
L 642.075933 341.498224 
L 655.47559 256.867243 
L 668.875247 148.454223 
L 682.274904 111.897062 
L 692.059966 -1 
M 697.821166 -1 
L 709.074217 217.623364 
L 722.473874 100.335185 
L 735.873531 258.364868 
L 749.273188 286.478525 
L 754.236994 -1 
M 772.330915 -1 
L 776.072502 188.271401 
L 783.878802 -1 
" style="fill:none;stroke:#09f0ee;stroke-linecap:square;stroke-width:1.5;"/>
   </g>
   <g id="line2d_25">
    <path clip-path="url(#pb619350981)" d="M 467.880392 295.844902 
L 481.280049 327.523804 
L 494.679706 372.442642 
L 508.079363 393.042732 
L 521.47902 404.366626 
L 534.878677 408.658656 
L 548.278334 407.597643 
L 561.677991 410.764138 
L 575.077648 408.493022 
L 588.477305 400.680493 
L 601.876962 400.277222 
L 615.276619 373.982688 
L 628.676276 341.720825 
L 642.075933 287.885044 
L 655.47559 242.121147 
L 668.875247 165.538244 
L 682.274904 1.32388 
L 682.685818 -1 
M 701.365037 -1 
L 709.074217 98.515136 
L 722.473874 47.454056 
L 731.569289 -1 
M 764.50373 -1 
L 776.072502 173.194365 
L 789.472159 154.157982 
" style="fill:none;stroke:#1fffd7;stroke-linecap:square;stroke-width:1.5;"/>
   </g>
   <g id="line2d_26">
    <path clip-path="url(#pb619350981)" d="M 481.280049 382.825921 
L 494.679706 367.431091 
L 508.079363 391.1187 
L 521.47902 389.827187 
L 534.878677 369.168423 
L 548.278334 339.598182 
L 561.677991 351.249222 
L 575.077648 344.801643 
L 588.477305 336.461649 
L 601.876962 369.077807 
L 615.276619 351.509631 
L 628.676276 346.329232 
L 642.075933 303.112751 
L 655.47559 288.575963 
L 668.875247 211.319247 
L 682.274904 195.642579 
L 695.67456 221.220243 
L 709.074217 252.170798 
L 722.473874 109.595146 
L 735.873531 174.621893 
L 749.273188 231.082014 
L 762.672845 282.634312 
L 770.880797 -1 
" style="fill:none;stroke:#36ffc1;stroke-linecap:square;stroke-width:1.5;"/>
   </g>
   <g id="line2d_27">
    <path clip-path="url(#pb619350981)" d="M 481.280049 382.825921 
L 494.679706 367.431091 
L 508.079363 391.1187 
L 521.47902 399.840046 
L 534.878677 381.377146 
L 548.278334 372.044546 
L 561.677991 374.001792 
L 575.077648 349.858738 
L 588.477305 359.449931 
L 601.876962 386.699553 
L 615.276619 369.749531 
L 628.676276 364.856418 
L 642.075933 332.23681 
L 655.47559 312.458607 
L 668.875247 233.583686 
L 682.274904 181.56977 
L 695.67456 241.381433 
L 709.074217 260.618479 
L 722.473874 138.01443 
L 735.873531 180.525954 
L 749.273188 215.970656 
L 762.672845 269.843937 
L 771.798536 -1 
" style="fill:none;stroke:#4dffaa;stroke-linecap:square;stroke-width:1.5;"/>
   </g>
   <g id="line2d_28">
    <path clip-path="url(#pb619350981)" d="M 481.280049 403.750542 
L 494.679706 390.104848 
L 508.079363 409.235115 
L 521.47902 418.299315 
L 534.878677 399.666259 
L 548.278334 392.00598 
L 561.677991 386.505245 
L 575.077648 369.2022 
L 588.477305 375.760915 
L 601.876962 398.328983 
L 615.276619 386.524131 
L 628.676276 382.264244 
L 642.075933 355.083992 
L 655.47559 343.822839 
L 668.875247 233.583686 
L 682.274904 215.908005 
L 695.67456 241.381433 
L 709.074217 260.618479 
L 722.473874 138.01443 
L 735.873531 180.525954 
L 749.273188 227.368369 
L 762.672845 280.913869 
L 776.072502 55.071932 
L 787.252818 -1 
" style="fill:none;stroke:#63ff94;stroke-linecap:square;stroke-width:1.5;"/>
   </g>
   <g id="line2d_29">
    <path clip-path="url(#pb619350981)" d="M 481.280049 386.218323 
L 494.679706 364.957022 
L 508.079363 392.790476 
L 521.47902 397.117917 
L 534.878677 377.202972 
L 548.278334 353.931218 
L 561.677991 360.297078 
L 575.077648 351.088327 
L 588.477305 373.309001 
L 601.876962 376.805458 
L 615.276619 361.035812 
L 628.676276 355.067103 
L 642.075933 315.497259 
L 655.47559 306.046077 
L 668.875247 218.218274 
L 682.274904 209.500196 
L 695.67456 238.322442 
L 709.074217 264.557849 
L 722.473874 126.975188 
L 735.873531 188.117408 
L 749.273188 242.3241 
L 762.672845 296.204463 
L 772.085874 -1 
" style="fill:none;stroke:#7dff7a;stroke-linecap:square;stroke-width:1.5;"/>
   </g>
   <g id="line2d_30">
    <path clip-path="url(#pb619350981)" d="M 481.280049 394.311527 
L 494.679706 376.179132 
L 508.079363 399.766863 
L 521.47902 399.840046 
L 534.878677 381.377146 
L 548.278334 372.044546 
L 561.677991 374.001792 
L 575.077648 349.858738 
L 588.477305 359.449931 
L 601.876962 386.699553 
L 615.276619 369.749531 
L 628.676276 364.856418 
L 642.075933 332.23681 
L 655.47559 312.458607 
L 668.875247 192.574145 
L 682.274904 181.56977 
L 695.67456 210.033 
L 709.074217 241.786211 
L 722.473874 90.109495 
L 735.873531 155.612024 
L 749.273188 215.970656 
L 762.672845 269.843937 
L 771.798536 -1 
" style="fill:none;stroke:#94ff63;stroke-linecap:square;stroke-width:1.5;"/>
   </g>
   <g id="line2d_31">
    <path clip-path="url(#pb619350981)" d="M 494.679706 390.157018 
L 508.079363 394.170008 
L 521.47902 401.479578 
L 534.878677 403.937388 
L 548.278334 405.450499 
L 561.677991 415.61941 
L 575.077648 405.704011 
L 588.477305 398.062649 
L 601.876962 400.004226 
L 615.276619 396.727284 
L 628.676276 385.543433 
L 642.075933 371.404539 
L 655.47559 357.939482 
L 668.875247 320.656481 
L 682.274904 273.166587 
L 695.67456 243.270493 
L 709.074217 248.228993 
L 722.473874 216.515978 
L 762.672845 213.271758 
L 776.072502 198.625213 
L 789.472159 151.179664 
" style="fill:none;stroke:#aaff4d;stroke-linecap:square;stroke-width:1.5;"/>
   </g>
   <g id="line2d_32">
    <path clip-path="url(#pb619350981)" d="M 534.878677 404.389042 
L 548.278334 402.76936 
L 561.677991 409.760065 
L 575.077648 399.873995 
L 588.477305 405.594091 
L 601.876962 409.63291 
L 615.276619 405.89714 
L 628.676276 377.206617 
L 642.075933 359.877415 
L 655.47559 327.082592 
L 668.875247 280.012664 
L 679.645448 -1 
M 699.276669 -1 
L 709.074217 152.163723 
L 722.473874 176.847858 
L 735.873531 57.310415 
L 749.273188 112.489024 
L 762.672845 231.082909 
L 776.072502 190.195772 
L 789.472159 132.90719 
" style="fill:none;stroke:#c1ff36;stroke-linecap:square;stroke-width:1.5;"/>
   </g>
   <g id="line2d_33">
    <path clip-path="url(#pb619350981)" d="M 628.676276 356.317146 
L 642.075933 336.815126 
L 655.47559 335.242607 
L 668.875247 261.947942 
L 682.274904 172.874492 
L 695.67456 125.227838 
L 709.074217 204.329536 
L 722.473874 157.580202 
L 735.873531 142.526622 
L 749.273188 134.466468 
L 762.672845 152.876997 
L 776.072502 201.999788 
L 789.472159 180.355677 
" style="fill:none;stroke:#d7ff1f;stroke-linecap:square;stroke-width:1.5;"/>
   </g>
   <g id="line2d_34">
    <path clip-path="url(#pb619350981)" d="M 642.075933 361.796338 
L 668.875247 297.04898 
L 682.274904 131.782234 
L 695.67456 79.968431 
L 709.074217 170.320554 
L 722.473874 225.346255 
L 762.672845 235.566551 
" style="fill:none;stroke:#eeff09;stroke-linecap:square;stroke-width:1.5;"/>
   </g>
   <g id="line2d_35">
    <path clip-path="url(#pb619350981)" d="M 655.47559 349.561005 
L 668.875247 347.097009 
L 682.274904 192.17437 
L 695.67456 102.068036 
L 709.074217 87.455702 
L 722.473874 96.036046 
L 735.873531 31.329681 
L 749.273188 4.535765 
L 762.672845 51.773891 
" style="fill:none;stroke:#ffe600;stroke-linecap:square;stroke-width:1.5;"/>
   </g>
   <g id="line2d_36">
    <path clip-path="url(#pb619350981)" d="M 655.47559 331.892603 
L 668.875247 288.665038 
" style="fill:none;stroke:#ffcc00;stroke-linecap:square;stroke-width:1.5;"/>
   </g>
   <g id="line2d_37">
    <path clip-path="url(#pb619350981)" d="M 682.274904 187.870272 
L 695.67456 175.17151 
L 709.074217 190.448702 
L 722.473874 166.882057 
L 735.873531 85.78729 
L 749.273188 70.974657 
L 762.672845 226.113991 
L 776.072502 130.893708 
L 789.472159 119.30583 
" style="fill:none;stroke:#ffb200;stroke-linecap:square;stroke-width:1.5;"/>
   </g>
   <g id="line2d_38">
    <path clip-path="url(#pb619350981)" d="M 691.596405 -1 
L 695.67456 25.007263 
L 709.074217 286.719839 
L 722.473874 139.457833 
L 735.873531 70.798281 
L 749.273188 107.264555 
L 762.672845 368.457521 
L 776.072502 152.203145 
L 789.472159 75.927848 
" style="fill:none;stroke:#ff9400;stroke-linecap:square;stroke-width:1.5;"/>
   </g>
   <g id="line2d_39">
    <path clip-path="url(#pb619350981)" d="M 682.274904 313.795156 
L 695.67456 171.378038 
L 709.074217 280.47495 
L 722.473874 162.563169 
L 735.873531 111.431449 
L 749.273188 176.792333 
L 762.672845 208.173998 
L 776.072502 227.108686 
L 789.472159 183.797412 
" style="fill:none;stroke:#ff7a00;stroke-linecap:square;stroke-width:1.5;"/>
   </g>
   <g id="line2d_40">
    <path clip-path="url(#pb619350981)" d="M 682.274904 293.035243 
L 695.67456 209.065455 
L 709.074217 235.348621 
L 722.473874 180.378679 
L 735.873531 151.553528 
L 749.273188 167.245995 
L 762.672845 231.008105 
L 776.072502 184.364356 
L 789.472159 146.799698 
" style="fill:none;stroke:#ff6000;stroke-linecap:square;stroke-width:1.5;"/>
   </g>
   <g id="line2d_41">
    <path clip-path="url(#pb619350981)" d="M 722.473874 103.664437 
L 735.873531 84.347324 
L 749.273188 151.668705 
L 762.672845 209.00999 
L 776.072502 222.032029 
L 789.472159 12.866944 
" style="fill:none;stroke:#ff4700;stroke-linecap:square;stroke-width:1.5;"/>
   </g>
   <g id="line2d_42">
    <path clip-path="url(#pb619350981)" d="M 722.473874 194.031638 
L 735.873531 186.837335 
L 749.273188 205.675777 
L 762.672845 179.850052 
L 776.072502 205.930375 
L 789.472159 178.082938 
" style="fill:none;stroke:#ff2d00;stroke-linecap:square;stroke-width:1.5;"/>
   </g>
   <g id="line2d_43">
    <path clip-path="url(#pb619350981)" d="M 728.871327 -1 
L 735.873531 10.393601 
L 749.273188 73.40935 
L 762.672845 181.284119 
L 776.072502 183.908731 
L 789.472159 88.081608 
" style="fill:none;stroke:#ff1300;stroke-linecap:square;stroke-width:1.5;"/>
   </g>
   <g id="line2d_44">
    <path clip-path="url(#pb619350981)" d="M 735.873531 214.653719 
" style="fill:none;stroke:#df0000;stroke-linecap:square;stroke-width:1.5;"/>
   </g>
   <g id="line2d_45">
    <path clip-path="url(#pb619350981)" d="M 749.273188 143.983811 
L 762.672845 209.831098 
L 776.072502 200.510316 
L 789.472159 144.798466 
" style="fill:none;stroke:#bf0000;stroke-linecap:square;stroke-width:1.5;"/>
   </g>
   <g id="line2d_46">
    <path clip-path="url(#pb619350981)" d="M 789.472159 334.99073 
" style="fill:none;stroke:#9f0000;stroke-linecap:square;stroke-width:1.5;"/>
   </g>
   <g id="line2d_47">
    <path clip-path="url(#pb619350981)" d="M 789.472159 90.775954 
" style="fill:none;stroke:#800000;stroke-linecap:square;stroke-width:1.5;"/>
   </g>
   <g id="line2d_48">
    <path clip-path="url(#pb619350981)" d="M 79.290341 457.197253 
L 92.689998 457.197617 
L 106.089655 457.19798 
L 119.489312 457.19798 
L 132.888969 457.196709 
L 146.288626 457.129518 
L 159.688283 456.728916 
L 173.08794 453.006554 
L 186.487596 439.231019 
L 199.887253 421.52029 
L 213.28691 416.756291 
L 226.686567 420.987486 
L 240.086224 419.609351 
L 253.485881 422.202002 
L 266.885538 425.081576 
L 280.285195 428.64831 
L 293.684852 429.052543 
L 307.084509 430.437397 
L 320.484166 430.689271 
L 333.883823 430.276684 
L 347.28348 424.175773 
L 360.683137 410.373543 
L 374.082794 396.562959 
L 387.482451 383.627488 
L 400.882108 372.928012 
L 414.281765 372.896051 
L 427.681422 376.908059 
L 441.081078 388.736156 
L 454.480735 391.677109 
L 467.880392 402.042629 
L 481.280049 404.339096 
L 494.679706 404.542666 
L 508.079363 413.469579 
L 521.47902 405.740657 
L 534.878677 401.136826 
L 548.278334 402.31357 
L 561.677991 395.305767 
L 575.077648 386.386481 
L 588.477305 369.549957 
L 601.876962 354.677579 
L 615.276619 310.965522 
L 628.676276 269.379776 
L 642.075933 238.703613 
L 655.47559 247.742571 
L 668.875247 210.459207 
L 682.274904 183.600562 
L 695.67456 181.674188 
L 709.074217 215.876407 
L 722.473874 194.374128 
L 735.873531 146.569616 
L 749.273188 173.944539 
L 762.672845 233.326908 
L 776.072502 265.056875 
L 789.472159 304.130417 
" style="fill:none;stroke:#000000;stroke-linecap:square;stroke-width:3;"/>
   </g>
   <g id="patch_3">
    <path d="M 43.78125 457.198125 
L 43.78125 22.318125 
" style="fill:none;stroke:#000000;stroke-linecap:square;stroke-linejoin:miter;stroke-width:0.8;"/>
   </g>
   <g id="patch_4">
    <path d="M 824.98125 457.198125 
L 824.98125 22.318125 
" style="fill:none;stroke:#000000;stroke-linecap:square;stroke-linejoin:miter;stroke-width:0.8;"/>
   </g>
   <g id="patch_5">
    <path d="M 43.78125 457.198125 
L 824.98125 457.198125 
" style="fill:none;stroke:#000000;stroke-linecap:square;stroke-linejoin:miter;stroke-width:0.8;"/>
   </g>
   <g id="patch_6">
    <path d="M 43.78125 22.318125 
L 824.98125 22.318125 
" style="fill:none;stroke:#000000;stroke-linecap:square;stroke-linejoin:miter;stroke-width:0.8;"/>
   </g>
   <g id="text_14">
    <!-- 4-week-ahead Forecasts -->
    <defs>
     <path d="M 37.796875 64.3125 
L 12.890625 25.390625 
L 37.796875 25.390625 
z
M 35.203125 72.90625 
L 47.609375 72.90625 
L 47.609375 25.390625 
L 58.015625 25.390625 
L 58.015625 17.1875 
L 47.609375 17.1875 
L 47.609375 0 
L 37.796875 0 
L 37.796875 17.1875 
L 4.890625 17.1875 
L 4.890625 26.703125 
z
" id="DejaVuSans-52"/>
     <path d="M 54.890625 33.015625 
L 54.890625 0 
L 45.90625 0 
L 45.90625 32.71875 
Q 45.90625 40.484375 42.875 44.328125 
Q 39.84375 48.1875 33.796875 48.1875 
Q 26.515625 48.1875 22.3125 43.546875 
Q 18.109375 38.921875 18.109375 30.90625 
L 18.109375 0 
L 9.078125 0 
L 9.078125 75.984375 
L 18.109375 75.984375 
L 18.109375 46.1875 
Q 21.34375 51.125 25.703125 53.5625 
Q 30.078125 56 35.796875 56 
Q 45.21875 56 50.046875 50.171875 
Q 54.890625 44.34375 54.890625 33.015625 
z
" id="DejaVuSans-104"/>
     <path d="M 9.8125 72.90625 
L 51.703125 72.90625 
L 51.703125 64.59375 
L 19.671875 64.59375 
L 19.671875 43.109375 
L 48.578125 43.109375 
L 48.578125 34.8125 
L 19.671875 34.8125 
L 19.671875 0 
L 9.8125 0 
z
" id="DejaVuSans-70"/>
     <path d="M 30.609375 48.390625 
Q 23.390625 48.390625 19.1875 42.75 
Q 14.984375 37.109375 14.984375 27.296875 
Q 14.984375 17.484375 19.15625 11.84375 
Q 23.34375 6.203125 30.609375 6.203125 
Q 37.796875 6.203125 41.984375 11.859375 
Q 46.1875 17.53125 46.1875 27.296875 
Q 46.1875 37.015625 41.984375 42.703125 
Q 37.796875 48.390625 30.609375 48.390625 
z
M 30.609375 56 
Q 42.328125 56 49.015625 48.375 
Q 55.71875 40.765625 55.71875 27.296875 
Q 55.71875 13.875 49.015625 6.21875 
Q 42.328125 -1.421875 30.609375 -1.421875 
Q 18.84375 -1.421875 12.171875 6.21875 
Q 5.515625 13.875 5.515625 27.296875 
Q 5.515625 40.765625 12.171875 48.375 
Q 18.84375 56 30.609375 56 
z
" id="DejaVuSans-111"/>
     <path d="M 41.109375 46.296875 
Q 39.59375 47.171875 37.8125 47.578125 
Q 36.03125 48 33.890625 48 
Q 26.265625 48 22.1875 43.046875 
Q 18.109375 38.09375 18.109375 28.8125 
L 18.109375 0 
L 9.078125 0 
L 9.078125 54.6875 
L 18.109375 54.6875 
L 18.109375 46.1875 
Q 20.953125 51.171875 25.484375 53.578125 
Q 30.03125 56 36.53125 56 
Q 37.453125 56 38.578125 55.875 
Q 39.703125 55.765625 41.0625 55.515625 
z
" id="DejaVuSans-114"/>
    </defs>
    <g transform="translate(361.397813 16.318125)scale(0.12 -0.12)">
     <use xlink:href="#DejaVuSans-52"/>
     <use x="63.623047" xlink:href="#DejaVuSans-45"/>
     <use x="99.707031" xlink:href="#DejaVuSans-119"/>
     <use x="181.494141" xlink:href="#DejaVuSans-101"/>
     <use x="243.017578" xlink:href="#DejaVuSans-101"/>
     <use x="304.541016" xlink:href="#DejaVuSans-107"/>
     <use x="362.451172" xlink:href="#DejaVuSans-45"/>
     <use x="398.535156" xlink:href="#DejaVuSans-97"/>
     <use x="459.814453" xlink:href="#DejaVuSans-104"/>
     <use x="523.193359" xlink:href="#DejaVuSans-101"/>
     <use x="584.716797" xlink:href="#DejaVuSans-97"/>
     <use x="645.996094" xlink:href="#DejaVuSans-100"/>
     <use x="709.472656" xlink:href="#DejaVuSans-32"/>
     <use x="741.259766" xlink:href="#DejaVuSans-70"/>
     <use x="795.154297" xlink:href="#DejaVuSans-111"/>
     <use x="856.335938" xlink:href="#DejaVuSans-114"/>
     <use x="895.199219" xlink:href="#DejaVuSans-101"/>
     <use x="956.722656" xlink:href="#DejaVuSans-99"/>
     <use x="1011.703125" xlink:href="#DejaVuSans-97"/>
     <use x="1072.982422" xlink:href="#DejaVuSans-115"/>
     <use x="1125.082031" xlink:href="#DejaVuSans-116"/>
     <use x="1164.291016" xlink:href="#DejaVuSans-115"/>
    </g>
   </g>
  </g>
 </g>
 <defs>
  <clipPath id="pb619350981">
   <rect height="434.88" width="781.2" x="43.78125" y="22.318125"/>
  </clipPath>
 </defs>
</svg>
