<?xml version="1.0" encoding="utf-8" standalone="no"?>
<!DOCTYPE svg PUBLIC "-//W3C//DTD SVG 1.1//EN"
  "http://www.w3.org/Graphics/SVG/1.1/DTD/svg11.dtd">
<!-- Created with matplotlib (https://matplotlib.org/) -->
<svg height="535.603954pt" version="1.1" viewBox="0 0 624.839371 535.603954" width="624.839371pt" xmlns="http://www.w3.org/2000/svg" xmlns:xlink="http://www.w3.org/1999/xlink">
 <defs>
  <style type="text/css">
*{stroke-linecap:butt;stroke-linejoin:round;}
  </style>
 </defs>
 <g id="figure_1">
  <g id="patch_1">
   <path d="M 0 535.603954 
L 624.839371 535.603954 
L 624.839371 0 
L 0 0 
z
" style="fill:#ffffff;"/>
  </g>
  <g id="axes_1">
   <g id="patch_2">
    <path d="M 56.294688 452.678438 
L 614.294688 452.678438 
L 614.294688 17.798438 
L 56.294688 17.798438 
z
" style="fill:#ffffff;"/>
   </g>
   <g id="PolyCollection_1">
    <defs>
     <path d="M 199.628726 -153.885531 
L 199.628726 -110.070137 
L 211.425766 -118.220055 
L 223.222806 -115.391093 
L 235.019846 -116.809805 
L 246.816886 -112.913872 
L 258.613926 -108.608483 
L 270.410967 -103.945215 
L 282.208007 -103.22787 
L 294.005047 -101.568125 
L 305.802087 -102.416945 
L 317.599127 -102.125837 
L 329.396167 -110.899021 
L 341.193208 -130.256206 
L 352.990248 -150.404949 
L 364.787288 -169.362561 
L 376.584328 -184.800264 
L 388.381368 -186.748527 
L 400.178408 -178.213836 
L 411.975449 -161.287905 
L 423.772489 -155.977135 
L 435.569529 -144.270239 
L 447.366569 -141.642844 
L 459.163609 -141.550248 
L 470.960649 -134.279473 
L 482.75769 -137.133976 
L 494.55473 -141.734574 
L 506.35177 -142.444382 
L 518.14881 -150.659145 
L 529.94585 -160.015105 
L 541.74289 -180.282615 
L 553.539931 -202.551812 
L 565.336971 -247.298234 
L 577.134011 -310.505239 
L 588.931051 -343.473864 
L 588.931051 -510.564925 
L 588.931051 -510.564925 
L 577.134011 -465.284715 
L 565.336971 -338.363738 
L 553.539931 -270.655488 
L 541.74289 -233.953294 
L 529.94585 -205.041532 
L 518.14881 -186.529904 
L 506.35177 -178.533824 
L 494.55473 -174.720164 
L 482.75769 -168.813899 
L 470.960649 -159.188393 
L 459.163609 -172.042846 
L 447.366569 -172.265005 
L 435.569529 -174.200278 
L 423.772489 -192.230423 
L 411.975449 -204.369915 
L 400.178408 -217.450367 
L 388.381368 -227.669395 
L 376.584328 -245.139643 
L 364.787288 -211.434306 
L 352.990248 -186.11197 
L 341.193208 -169.03562 
L 329.396167 -149.509784 
L 317.599127 -141.211007 
L 305.802087 -141.918927 
L 294.005047 -141.540953 
L 282.208007 -143.671545 
L 270.410967 -144.77528 
L 258.613926 -149.924789 
L 246.816886 -154.716418 
L 235.019846 -159.098592 
L 223.222806 -158.216608 
L 211.425766 -161.535751 
L 199.628726 -153.885531 
z
" id="mea1d09c398" style="stroke:#0010ff;stroke-opacity:0.1;"/>
    </defs>
    <g clip-path="url(#p389226c819)">
     <use style="fill:#0010ff;fill-opacity:0.1;stroke:#0010ff;stroke-opacity:0.1;" x="0" xlink:href="#mea1d09c398" y="535.603954"/>
    </g>
   </g>
   <g id="PolyCollection_2">
    <defs>
     <path d="M 211.425766 -155.45673 
L 211.425766 -108.478664 
L 223.222806 -116.219695 
L 235.019846 -113.306216 
L 246.816886 -114.536674 
L 258.613926 -110.5069 
L 270.410967 -106.062296 
L 282.208007 -101.409972 
L 294.005047 -100.635634 
L 305.802087 -98.940763 
L 317.599127 -99.872408 
L 329.396167 -99.636828 
L 341.193208 -108.262194 
L 352.990248 -126.364842 
L 364.787288 -150.550898 
L 376.584328 -172.349417 
L 388.381368 -171.888223 
L 400.178408 -183.456735 
L 411.975449 -167.815035 
L 423.772489 -154.083327 
L 435.569529 -146.71504 
L 447.366569 -134.804304 
L 459.163609 -136.093701 
L 470.960649 -135.219841 
L 482.75769 -128.421627 
L 494.55473 -133.325086 
L 506.35177 -136.084644 
L 518.14881 -137.679973 
L 529.94585 -148.37512 
L 541.74289 -156.484199 
L 553.539931 -183.970955 
L 565.336971 -206.447521 
L 577.134011 -269.512343 
L 588.931051 -331.895288 
L 588.931051 -561.19142 
L 588.931051 -561.19142 
L 577.134011 -404.445687 
L 565.336971 -311.95794 
L 553.539931 -268.266814 
L 541.74289 -224.251003 
L 529.94585 -202.931749 
L 518.14881 -191.283773 
L 506.35177 -195.367087 
L 494.55473 -181.617233 
L 482.75769 -170.305299 
L 470.960649 -190.490437 
L 459.163609 -181.107034 
L 447.366569 -188.073554 
L 435.569529 -196.218174 
L 423.772489 -215.700709 
L 411.975449 -236.941962 
L 400.178408 -250.077251 
L 388.381368 -278.843155 
L 376.584328 -245.687025 
L 364.787288 -220.913755 
L 352.990248 -199.634816 
L 341.193208 -152.236595 
L 329.396167 -143.711236 
L 317.599127 -144.40646 
L 305.802087 -144.073954 
L 294.005047 -146.219253 
L 282.208007 -147.409222 
L 270.410967 -152.479692 
L 258.613926 -157.068273 
L 246.816886 -161.382924 
L 235.019846 -160.353086 
L 223.222806 -163.534852 
L 211.425766 -155.45673 
z
" id="m63552a10b1" style="stroke:#00a4ff;stroke-opacity:0.1;"/>
    </defs>
    <g clip-path="url(#p389226c819)">
     <use style="fill:#00a4ff;fill-opacity:0.1;stroke:#00a4ff;stroke-opacity:0.1;" x="0" xlink:href="#m63552a10b1" y="535.603954"/>
    </g>
   </g>
   <g id="PolyCollection_3">
    <defs>
     <path d="M 223.222806 -160.933179 
L 223.222806 -102.28327 
L 235.019846 -110.278696 
L 246.816886 -108.661337 
L 258.613926 -110.273489 
L 270.410967 -106.822936 
L 282.208007 -102.782096 
L 294.005047 -98.099078 
L 305.802087 -97.523537 
L 317.599127 -96.223931 
L 329.396167 -97.163999 
L 341.193208 -97.487263 
L 352.990248 -105.552216 
L 364.787288 -116.394007 
L 376.584328 -147.967332 
L 388.381368 -166.335616 
L 400.178408 -170.97222 
L 411.975449 -178.80021 
L 423.772489 -159.071801 
L 435.569529 -146.09526 
L 447.366569 -137.390499 
L 459.163609 -127.401773 
L 470.960649 -130.639551 
L 482.75769 -129.884538 
L 494.55473 -125.084273 
L 506.35177 -131.613939 
L 518.14881 -133.335832 
L 529.94585 -132.560063 
L 541.74289 -143.754611 
L 553.539931 -151.688043 
L 565.336971 -181.394146 
L 577.134011 -206.171475 
L 588.931051 -276.07815 
L 588.931051 -480.305863 
L 588.931051 -480.305863 
L 577.134011 -368.229143 
L 565.336971 -312.68311 
L 553.539931 -250.255625 
L 541.74289 -226.27896 
L 529.94585 -211.152132 
L 518.14881 -227.351887 
L 506.35177 -209.071155 
L 494.55473 -189.193728 
L 482.75769 -213.859145 
L 470.960649 -200.844864 
L 459.163609 -204.747416 
L 447.366569 -214.156948 
L 435.569529 -243.073199 
L 423.772489 -259.585457 
L 411.975449 -262.508016 
L 400.178408 -295.409002 
L 388.381368 -260.2479 
L 376.584328 -231.876107 
L 364.787288 -215.268484 
L 352.990248 -154.885936 
L 341.193208 -146.010287 
L 329.396167 -146.944344 
L 317.599127 -147.070461 
L 305.802087 -149.15564 
L 294.005047 -150.687167 
L 282.208007 -155.812627 
L 270.410967 -160.898793 
L 258.613926 -165.598749 
L 246.816886 -164.895646 
L 235.019846 -169.60348 
L 223.222806 -160.933179 
z
" id="mb63ff63882" style="stroke:#40ffb7;stroke-opacity:0.1;"/>
    </defs>
    <g clip-path="url(#p389226c819)">
     <use style="fill:#40ffb7;fill-opacity:0.1;stroke:#40ffb7;stroke-opacity:0.1;" x="0" xlink:href="#mb63ff63882" y="535.603954"/>
    </g>
   </g>
   <g id="PolyCollection_4">
    <defs>
     <path d="M 235.019846 -168.255798 
L 235.019846 -95.401114 
L 246.816886 -104.574919 
L 258.613926 -103.238293 
L 270.410967 -105.772938 
L 282.208007 -102.568097 
L 294.005047 -98.99565 
L 305.802087 -94.715111 
L 317.599127 -94.379448 
L 329.396167 -93.246289 
L 341.193208 -94.428162 
L 352.990248 -94.633392 
L 364.787288 -102.569371 
L 376.584328 -110.280372 
L 388.381368 -143.75444 
L 400.178408 -160.340002 
L 411.975449 -179.40614 
L 423.772489 -177.002985 
L 435.569529 -152.487804 
L 447.366569 -139.397129 
L 459.163609 -131.601715 
L 470.960649 -121.854418 
L 482.75769 -125.73834 
L 494.55473 -126.599064 
L 506.35177 -123.022638 
L 518.14881 -130.542924 
L 529.94585 -131.126379 
L 541.74289 -129.189374 
L 553.539931 -140.413402 
L 565.336971 -148.639173 
L 577.134011 -179.606057 
L 588.931051 -207.571694 
L 588.931051 -434.371741 
L 588.931051 -434.371741 
L 577.134011 -364.447806 
L 565.336971 -274.394749 
L 553.539931 -249.909013 
L 541.74289 -230.985402 
L 529.94585 -272.954009 
L 518.14881 -260.320701 
L 506.35177 -212.221294 
L 494.55473 -239.026905 
L 482.75769 -218.812902 
L 470.960649 -217.896919 
L 459.163609 -230.64897 
L 447.366569 -263.566929 
L 435.569529 -279.328472 
L 423.772489 -273.253539 
L 411.975449 -311.54581 
L 400.178408 -265.799354 
L 388.381368 -232.859864 
L 376.584328 -229.347803 
L 364.787288 -157.813952 
L 352.990248 -148.807005 
L 341.193208 -149.753486 
L 329.396167 -149.778823 
L 317.599127 -152.344389 
L 305.802087 -154.159876 
L 294.005047 -159.645122 
L 282.208007 -164.915135 
L 270.410967 -170.123525 
L 258.613926 -170.228186 
L 246.816886 -175.314199 
L 235.019846 -168.255798 
z
" id="meb7cbef374" style="stroke:#b7ff40;stroke-opacity:0.1;"/>
    </defs>
    <g clip-path="url(#p389226c819)">
     <use style="fill:#b7ff40;fill-opacity:0.1;stroke:#b7ff40;stroke-opacity:0.1;" x="0" xlink:href="#meb7cbef374" y="535.603954"/>
    </g>
   </g>
   <g id="PolyCollection_5">
    <defs>
     <path d="M 246.816886 -172.226633 
L 246.816886 -91.548455 
L 258.613926 -100.186384 
L 270.410967 -98.767196 
L 282.208007 -101.561153 
L 294.005047 -98.609673 
L 305.802087 -95.256031 
L 317.599127 -91.095043 
L 329.396167 -90.970797 
L 341.193208 -90.180093 
L 352.990248 -91.461906 
L 364.787288 -91.84344 
L 376.584328 -99.620955 
L 388.381368 -105.173093 
L 400.178408 -143.759409 
L 411.975449 -160.602542 
L 423.772489 -156.949202 
L 435.569529 -176.613337 
L 447.366569 -150.772867 
L 459.163609 -133.568755 
L 470.960649 -126.553778 
L 482.75769 -118.743382 
L 494.55473 -122.753104 
L 506.35177 -124.877796 
L 518.14881 -123.708672 
L 529.94585 -132.028354 
L 541.74289 -133.294484 
L 553.539931 -128.453667 
L 565.336971 -138.456002 
L 577.134011 -144.566241 
L 588.931051 -180.407945 
L 588.931051 -381.901799 
L 588.931051 -381.901799 
L 577.134011 -303.758143 
L 565.336971 -279.963286 
L 553.539931 -255.369028 
L 541.74289 -274.68407 
L 529.94585 -247.419776 
L 518.14881 -243.980254 
L 506.35177 -270.946107 
L 494.55473 -257.315413 
L 482.75769 -248.761571 
L 470.960649 -242.741566 
L 459.163609 -311.413818 
L 447.366569 -307.043153 
L 435.569529 -274.60686 
L 423.772489 -276.969678 
L 411.975449 -267.773003 
L 400.178408 -240.848325 
L 388.381368 -234.818205 
L 376.584328 -160.862968 
L 364.787288 -151.636235 
L 352.990248 -152.605778 
L 341.193208 -152.980783 
L 329.396167 -155.533694 
L 317.599127 -157.644149 
L 305.802087 -163.624509 
L 294.005047 -169.136723 
L 282.208007 -174.349298 
L 270.410967 -174.554808 
L 258.613926 -179.236119 
L 246.816886 -172.226633 
z
" id="m816d9cb5ca" style="stroke:#ffb900;stroke-opacity:0.1;"/>
    </defs>
    <g clip-path="url(#p389226c819)">
     <use style="fill:#ffb900;fill-opacity:0.1;stroke:#ffb900;stroke-opacity:0.1;" x="0" xlink:href="#m816d9cb5ca" y="535.603954"/>
    </g>
   </g>
   <g id="PolyCollection_6">
    <defs>
     <path d="M 258.613926 -174.835437 
L 258.613926 -88.992387 
L 270.410967 -97.191507 
L 282.208007 -95.834476 
L 294.005047 -98.10833 
L 305.802087 -95.164708 
L 317.599127 -91.899472 
L 329.396167 -87.835146 
L 341.193208 -87.57476 
L 352.990248 -86.938953 
L 364.787288 -88.399119 
L 376.584328 -89.039073 
L 388.381368 -96.866882 
L 400.178408 -101.733845 
L 411.975449 -143.523316 
L 423.772489 -155.939935 
L 435.569529 -150.815007 
L 447.366569 -150.944834 
L 459.163609 -134.998041 
L 470.960649 -120.074901 
L 482.75769 -118.233153 
L 494.55473 -112.350445 
L 506.35177 -117.791311 
L 518.14881 -121.463536 
L 529.94585 -121.428344 
L 541.74289 -128.768395 
L 553.539931 -130.163828 
L 565.336971 -125.489281 
L 577.134011 -132.044731 
L 588.931051 -136.224137 
L 588.931051 -317.895542 
L 588.931051 -317.895542 
L 577.134011 -298.132022 
L 565.336971 -278.173429 
L 553.539931 -298.500101 
L 541.74289 -263.88515 
L 529.94585 -259.63921 
L 518.14881 -291.308968 
L 506.35177 -293.332234 
L 494.55473 -274.908346 
L 482.75769 -260.431577 
L 470.960649 -340.754185 
L 459.163609 -323.52397 
L 447.366569 -263.660782 
L 435.569529 -274.271717 
L 423.772489 -270.508339 
L 411.975449 -259.96671 
L 400.178408 -240.688291 
L 388.381368 -163.33374 
L 376.584328 -154.429229 
L 364.787288 -155.715101 
L 352.990248 -156.114596 
L 341.193208 -158.83398 
L 329.396167 -161.037583 
L 317.599127 -166.841474 
L 305.802087 -172.543044 
L 294.005047 -177.910618 
L 282.208007 -177.721939 
L 270.410967 -182.384427 
L 258.613926 -174.835437 
z
" id="m9db82bded5" style="stroke:#ff3000;stroke-opacity:0.1;"/>
    </defs>
    <g clip-path="url(#p389226c819)">
     <use style="fill:#ff3000;fill-opacity:0.1;stroke:#ff3000;stroke-opacity:0.1;" x="0" xlink:href="#m9db82bded5" y="535.603954"/>
    </g>
   </g>
   <g id="PolyCollection_7">
    <defs>
     <path d="M 270.410967 -176.926063 
L 270.410967 -86.417359 
L 282.208007 -94.462219 
L 294.005047 -92.669021 
L 305.802087 -94.957342 
L 317.599127 -92.512017 
L 329.396167 -88.936401 
L 341.193208 -85.080311 
L 352.990248 -84.964147 
L 364.787288 -84.26033 
L 376.584328 -85.691194 
L 388.381368 -86.488136 
L 400.178408 -94.350662 
L 411.975449 -98.807536 
L 423.772489 -142.02148 
L 435.569529 -153.545094 
L 447.366569 -147.387224 
L 459.163609 -145.460288 
L 470.960649 -127.335324 
L 482.75769 -108.906504 
L 494.55473 -110.998788 
L 506.35177 -110.332615 
L 518.14881 -108.705118 
L 529.94585 -110.157144 
L 541.74289 -105.652863 
L 553.539931 -113.555227 
L 565.336971 -116.989667 
L 577.134011 -119.945265 
L 588.931051 -121.289149 
L 588.931051 -244.239955 
L 588.931051 -244.239955 
L 577.134011 -239.412021 
L 565.336971 -213.616961 
L 553.539931 -213.633583 
L 541.74289 -150.340176 
L 529.94585 -153.587083 
L 518.14881 -227.46792 
L 506.35177 -155.901129 
L 494.55473 -208.931903 
L 482.75769 -253.532088 
L 470.960649 -267.519109 
L 459.163609 -262.765336 
L 447.366569 -268.084239 
L 435.569529 -269.523433 
L 423.772489 -261.338214 
L 411.975449 -245.582397 
L 400.178408 -166.180128 
L 388.381368 -156.989062 
L 376.584328 -158.609757 
L 364.787288 -159.073673 
L 352.990248 -161.507748 
L 341.193208 -163.724431 
L 329.396167 -169.733793 
L 317.599127 -175.348947 
L 305.802087 -180.672967 
L 294.005047 -180.511998 
L 282.208007 -185.28808 
L 270.410967 -176.926063 
z
" id="m4b5ff369c9" style="stroke:#800000;stroke-opacity:0.1;"/>
    </defs>
    <g clip-path="url(#p389226c819)">
     <use style="fill:#800000;fill-opacity:0.1;stroke:#800000;stroke-opacity:0.1;" x="0" xlink:href="#m4b5ff369c9" y="535.603954"/>
    </g>
   </g>
   <g id="matplotlib.axis_1">
    <g id="xtick_1">
     <g id="line2d_1">
      <defs>
       <path d="M 0 0 
L 0 3.5 
" id="m37ce3db52d" style="stroke:#000000;stroke-width:0.8;"/>
      </defs>
      <g>
       <use style="stroke:#000000;stroke-width:0.8;" x="81.658324" xlink:href="#m37ce3db52d" y="452.678438"/>
      </g>
     </g>
     <g id="text_1">
      <!-- 2020-02 -->
      <defs>
       <path d="M 19.1875 8.296875 
L 53.609375 8.296875 
L 53.609375 0 
L 7.328125 0 
L 7.328125 8.296875 
Q 12.9375 14.109375 22.625 23.890625 
Q 32.328125 33.6875 34.8125 36.53125 
Q 39.546875 41.84375 41.421875 45.53125 
Q 43.3125 49.21875 43.3125 52.78125 
Q 43.3125 58.59375 39.234375 62.25 
Q 35.15625 65.921875 28.609375 65.921875 
Q 23.96875 65.921875 18.8125 64.3125 
Q 13.671875 62.703125 7.8125 59.421875 
L 7.8125 69.390625 
Q 13.765625 71.78125 18.9375 73 
Q 24.125 74.21875 28.421875 74.21875 
Q 39.75 74.21875 46.484375 68.546875 
Q 53.21875 62.890625 53.21875 53.421875 
Q 53.21875 48.921875 51.53125 44.890625 
Q 49.859375 40.875 45.40625 35.40625 
Q 44.1875 33.984375 37.640625 27.21875 
Q 31.109375 20.453125 19.1875 8.296875 
z
" id="DejaVuSans-50"/>
       <path d="M 31.78125 66.40625 
Q 24.171875 66.40625 20.328125 58.90625 
Q 16.5 51.421875 16.5 36.375 
Q 16.5 21.390625 20.328125 13.890625 
Q 24.171875 6.390625 31.78125 6.390625 
Q 39.453125 6.390625 43.28125 13.890625 
Q 47.125 21.390625 47.125 36.375 
Q 47.125 51.421875 43.28125 58.90625 
Q 39.453125 66.40625 31.78125 66.40625 
z
M 31.78125 74.21875 
Q 44.046875 74.21875 50.515625 64.515625 
Q 56.984375 54.828125 56.984375 36.375 
Q 56.984375 17.96875 50.515625 8.265625 
Q 44.046875 -1.421875 31.78125 -1.421875 
Q 19.53125 -1.421875 13.0625 8.265625 
Q 6.59375 17.96875 6.59375 36.375 
Q 6.59375 54.828125 13.0625 64.515625 
Q 19.53125 74.21875 31.78125 74.21875 
z
" id="DejaVuSans-48"/>
       <path d="M 4.890625 31.390625 
L 31.203125 31.390625 
L 31.203125 23.390625 
L 4.890625 23.390625 
z
" id="DejaVuSans-45"/>
      </defs>
      <g transform="translate(64.990657 505.071599)rotate(-45)scale(0.13 -0.13)">
       <use xlink:href="#DejaVuSans-50"/>
       <use x="63.623047" xlink:href="#DejaVuSans-48"/>
       <use x="127.246094" xlink:href="#DejaVuSans-50"/>
       <use x="190.869141" xlink:href="#DejaVuSans-48"/>
       <use x="254.492188" xlink:href="#DejaVuSans-45"/>
       <use x="290.576172" xlink:href="#DejaVuSans-48"/>
       <use x="354.199219" xlink:href="#DejaVuSans-50"/>
      </g>
     </g>
    </g>
    <g id="xtick_2">
     <g id="line2d_2">
      <g>
       <use style="stroke:#000000;stroke-width:0.8;" x="130.531776" xlink:href="#m37ce3db52d" y="452.678438"/>
      </g>
     </g>
     <g id="text_2">
      <!-- 2020-03 -->
      <defs>
       <path d="M 40.578125 39.3125 
Q 47.65625 37.796875 51.625 33 
Q 55.609375 28.21875 55.609375 21.1875 
Q 55.609375 10.40625 48.1875 4.484375 
Q 40.765625 -1.421875 27.09375 -1.421875 
Q 22.515625 -1.421875 17.65625 -0.515625 
Q 12.796875 0.390625 7.625 2.203125 
L 7.625 11.71875 
Q 11.71875 9.328125 16.59375 8.109375 
Q 21.484375 6.890625 26.8125 6.890625 
Q 36.078125 6.890625 40.9375 10.546875 
Q 45.796875 14.203125 45.796875 21.1875 
Q 45.796875 27.640625 41.28125 31.265625 
Q 36.765625 34.90625 28.71875 34.90625 
L 20.21875 34.90625 
L 20.21875 43.015625 
L 29.109375 43.015625 
Q 36.375 43.015625 40.234375 45.921875 
Q 44.09375 48.828125 44.09375 54.296875 
Q 44.09375 59.90625 40.109375 62.90625 
Q 36.140625 65.921875 28.71875 65.921875 
Q 24.65625 65.921875 20.015625 65.03125 
Q 15.375 64.15625 9.8125 62.3125 
L 9.8125 71.09375 
Q 15.4375 72.65625 20.34375 73.4375 
Q 25.25 74.21875 29.59375 74.21875 
Q 40.828125 74.21875 47.359375 69.109375 
Q 53.90625 64.015625 53.90625 55.328125 
Q 53.90625 49.265625 50.4375 45.09375 
Q 46.96875 40.921875 40.578125 39.3125 
z
" id="DejaVuSans-51"/>
      </defs>
      <g transform="translate(113.864109 505.071599)rotate(-45)scale(0.13 -0.13)">
       <use xlink:href="#DejaVuSans-50"/>
       <use x="63.623047" xlink:href="#DejaVuSans-48"/>
       <use x="127.246094" xlink:href="#DejaVuSans-50"/>
       <use x="190.869141" xlink:href="#DejaVuSans-48"/>
       <use x="254.492188" xlink:href="#DejaVuSans-45"/>
       <use x="290.576172" xlink:href="#DejaVuSans-48"/>
       <use x="354.199219" xlink:href="#DejaVuSans-51"/>
      </g>
     </g>
    </g>
    <g id="xtick_3">
     <g id="line2d_3">
      <g>
       <use style="stroke:#000000;stroke-width:0.8;" x="182.775811" xlink:href="#m37ce3db52d" y="452.678438"/>
      </g>
     </g>
     <g id="text_3">
      <!-- 2020-04 -->
      <defs>
       <path d="M 37.796875 64.3125 
L 12.890625 25.390625 
L 37.796875 25.390625 
z
M 35.203125 72.90625 
L 47.609375 72.90625 
L 47.609375 25.390625 
L 58.015625 25.390625 
L 58.015625 17.1875 
L 47.609375 17.1875 
L 47.609375 0 
L 37.796875 0 
L 37.796875 17.1875 
L 4.890625 17.1875 
L 4.890625 26.703125 
z
" id="DejaVuSans-52"/>
      </defs>
      <g transform="translate(166.108144 505.071599)rotate(-45)scale(0.13 -0.13)">
       <use xlink:href="#DejaVuSans-50"/>
       <use x="63.623047" xlink:href="#DejaVuSans-48"/>
       <use x="127.246094" xlink:href="#DejaVuSans-50"/>
       <use x="190.869141" xlink:href="#DejaVuSans-48"/>
       <use x="254.492188" xlink:href="#DejaVuSans-45"/>
       <use x="290.576172" xlink:href="#DejaVuSans-48"/>
       <use x="354.199219" xlink:href="#DejaVuSans-52"/>
      </g>
     </g>
    </g>
    <g id="xtick_4">
     <g id="line2d_4">
      <g>
       <use style="stroke:#000000;stroke-width:0.8;" x="233.334555" xlink:href="#m37ce3db52d" y="452.678438"/>
      </g>
     </g>
     <g id="text_4">
      <!-- 2020-05 -->
      <defs>
       <path d="M 10.796875 72.90625 
L 49.515625 72.90625 
L 49.515625 64.59375 
L 19.828125 64.59375 
L 19.828125 46.734375 
Q 21.96875 47.46875 24.109375 47.828125 
Q 26.265625 48.1875 28.421875 48.1875 
Q 40.625 48.1875 47.75 41.5 
Q 54.890625 34.8125 54.890625 23.390625 
Q 54.890625 11.625 47.5625 5.09375 
Q 40.234375 -1.421875 26.90625 -1.421875 
Q 22.3125 -1.421875 17.546875 -0.640625 
Q 12.796875 0.140625 7.71875 1.703125 
L 7.71875 11.625 
Q 12.109375 9.234375 16.796875 8.0625 
Q 21.484375 6.890625 26.703125 6.890625 
Q 35.15625 6.890625 40.078125 11.328125 
Q 45.015625 15.765625 45.015625 23.390625 
Q 45.015625 31 40.078125 35.4375 
Q 35.15625 39.890625 26.703125 39.890625 
Q 22.75 39.890625 18.8125 39.015625 
Q 14.890625 38.140625 10.796875 36.28125 
z
" id="DejaVuSans-53"/>
      </defs>
      <g transform="translate(216.666888 505.071599)rotate(-45)scale(0.13 -0.13)">
       <use xlink:href="#DejaVuSans-50"/>
       <use x="63.623047" xlink:href="#DejaVuSans-48"/>
       <use x="127.246094" xlink:href="#DejaVuSans-50"/>
       <use x="190.869141" xlink:href="#DejaVuSans-48"/>
       <use x="254.492188" xlink:href="#DejaVuSans-45"/>
       <use x="290.576172" xlink:href="#DejaVuSans-48"/>
       <use x="354.199219" xlink:href="#DejaVuSans-53"/>
      </g>
     </g>
    </g>
    <g id="xtick_5">
     <g id="line2d_5">
      <g>
       <use style="stroke:#000000;stroke-width:0.8;" x="285.57859" xlink:href="#m37ce3db52d" y="452.678438"/>
      </g>
     </g>
     <g id="text_5">
      <!-- 2020-06 -->
      <defs>
       <path d="M 33.015625 40.375 
Q 26.375 40.375 22.484375 35.828125 
Q 18.609375 31.296875 18.609375 23.390625 
Q 18.609375 15.53125 22.484375 10.953125 
Q 26.375 6.390625 33.015625 6.390625 
Q 39.65625 6.390625 43.53125 10.953125 
Q 47.40625 15.53125 47.40625 23.390625 
Q 47.40625 31.296875 43.53125 35.828125 
Q 39.65625 40.375 33.015625 40.375 
z
M 52.59375 71.296875 
L 52.59375 62.3125 
Q 48.875 64.0625 45.09375 64.984375 
Q 41.3125 65.921875 37.59375 65.921875 
Q 27.828125 65.921875 22.671875 59.328125 
Q 17.53125 52.734375 16.796875 39.40625 
Q 19.671875 43.65625 24.015625 45.921875 
Q 28.375 48.1875 33.59375 48.1875 
Q 44.578125 48.1875 50.953125 41.515625 
Q 57.328125 34.859375 57.328125 23.390625 
Q 57.328125 12.15625 50.6875 5.359375 
Q 44.046875 -1.421875 33.015625 -1.421875 
Q 20.359375 -1.421875 13.671875 8.265625 
Q 6.984375 17.96875 6.984375 36.375 
Q 6.984375 53.65625 15.1875 63.9375 
Q 23.390625 74.21875 37.203125 74.21875 
Q 40.921875 74.21875 44.703125 73.484375 
Q 48.484375 72.75 52.59375 71.296875 
z
" id="DejaVuSans-54"/>
      </defs>
      <g transform="translate(268.910923 505.071599)rotate(-45)scale(0.13 -0.13)">
       <use xlink:href="#DejaVuSans-50"/>
       <use x="63.623047" xlink:href="#DejaVuSans-48"/>
       <use x="127.246094" xlink:href="#DejaVuSans-50"/>
       <use x="190.869141" xlink:href="#DejaVuSans-48"/>
       <use x="254.492188" xlink:href="#DejaVuSans-45"/>
       <use x="290.576172" xlink:href="#DejaVuSans-48"/>
       <use x="354.199219" xlink:href="#DejaVuSans-54"/>
      </g>
     </g>
    </g>
    <g id="xtick_6">
     <g id="line2d_6">
      <g>
       <use style="stroke:#000000;stroke-width:0.8;" x="336.137333" xlink:href="#m37ce3db52d" y="452.678438"/>
      </g>
     </g>
     <g id="text_6">
      <!-- 2020-07 -->
      <defs>
       <path d="M 8.203125 72.90625 
L 55.078125 72.90625 
L 55.078125 68.703125 
L 28.609375 0 
L 18.3125 0 
L 43.21875 64.59375 
L 8.203125 64.59375 
z
" id="DejaVuSans-55"/>
      </defs>
      <g transform="translate(319.469666 505.071599)rotate(-45)scale(0.13 -0.13)">
       <use xlink:href="#DejaVuSans-50"/>
       <use x="63.623047" xlink:href="#DejaVuSans-48"/>
       <use x="127.246094" xlink:href="#DejaVuSans-50"/>
       <use x="190.869141" xlink:href="#DejaVuSans-48"/>
       <use x="254.492188" xlink:href="#DejaVuSans-45"/>
       <use x="290.576172" xlink:href="#DejaVuSans-48"/>
       <use x="354.199219" xlink:href="#DejaVuSans-55"/>
      </g>
     </g>
    </g>
    <g id="xtick_7">
     <g id="line2d_7">
      <g>
       <use style="stroke:#000000;stroke-width:0.8;" x="388.381368" xlink:href="#m37ce3db52d" y="452.678438"/>
      </g>
     </g>
     <g id="text_7">
      <!-- 2020-08 -->
      <defs>
       <path d="M 31.78125 34.625 
Q 24.75 34.625 20.71875 30.859375 
Q 16.703125 27.09375 16.703125 20.515625 
Q 16.703125 13.921875 20.71875 10.15625 
Q 24.75 6.390625 31.78125 6.390625 
Q 38.8125 6.390625 42.859375 10.171875 
Q 46.921875 13.96875 46.921875 20.515625 
Q 46.921875 27.09375 42.890625 30.859375 
Q 38.875 34.625 31.78125 34.625 
z
M 21.921875 38.8125 
Q 15.578125 40.375 12.03125 44.71875 
Q 8.5 49.078125 8.5 55.328125 
Q 8.5 64.0625 14.71875 69.140625 
Q 20.953125 74.21875 31.78125 74.21875 
Q 42.671875 74.21875 48.875 69.140625 
Q 55.078125 64.0625 55.078125 55.328125 
Q 55.078125 49.078125 51.53125 44.71875 
Q 48 40.375 41.703125 38.8125 
Q 48.828125 37.15625 52.796875 32.3125 
Q 56.78125 27.484375 56.78125 20.515625 
Q 56.78125 9.90625 50.3125 4.234375 
Q 43.84375 -1.421875 31.78125 -1.421875 
Q 19.734375 -1.421875 13.25 4.234375 
Q 6.78125 9.90625 6.78125 20.515625 
Q 6.78125 27.484375 10.78125 32.3125 
Q 14.796875 37.15625 21.921875 38.8125 
z
M 18.3125 54.390625 
Q 18.3125 48.734375 21.84375 45.5625 
Q 25.390625 42.390625 31.78125 42.390625 
Q 38.140625 42.390625 41.71875 45.5625 
Q 45.3125 48.734375 45.3125 54.390625 
Q 45.3125 60.0625 41.71875 63.234375 
Q 38.140625 66.40625 31.78125 66.40625 
Q 25.390625 66.40625 21.84375 63.234375 
Q 18.3125 60.0625 18.3125 54.390625 
z
" id="DejaVuSans-56"/>
      </defs>
      <g transform="translate(371.713701 505.071599)rotate(-45)scale(0.13 -0.13)">
       <use xlink:href="#DejaVuSans-50"/>
       <use x="63.623047" xlink:href="#DejaVuSans-48"/>
       <use x="127.246094" xlink:href="#DejaVuSans-50"/>
       <use x="190.869141" xlink:href="#DejaVuSans-48"/>
       <use x="254.492188" xlink:href="#DejaVuSans-45"/>
       <use x="290.576172" xlink:href="#DejaVuSans-48"/>
       <use x="354.199219" xlink:href="#DejaVuSans-56"/>
      </g>
     </g>
    </g>
    <g id="xtick_8">
     <g id="line2d_8">
      <g>
       <use style="stroke:#000000;stroke-width:0.8;" x="440.625403" xlink:href="#m37ce3db52d" y="452.678438"/>
      </g>
     </g>
     <g id="text_8">
      <!-- 2020-09 -->
      <defs>
       <path d="M 10.984375 1.515625 
L 10.984375 10.5 
Q 14.703125 8.734375 18.5 7.8125 
Q 22.3125 6.890625 25.984375 6.890625 
Q 35.75 6.890625 40.890625 13.453125 
Q 46.046875 20.015625 46.78125 33.40625 
Q 43.953125 29.203125 39.59375 26.953125 
Q 35.25 24.703125 29.984375 24.703125 
Q 19.046875 24.703125 12.671875 31.3125 
Q 6.296875 37.9375 6.296875 49.421875 
Q 6.296875 60.640625 12.9375 67.421875 
Q 19.578125 74.21875 30.609375 74.21875 
Q 43.265625 74.21875 49.921875 64.515625 
Q 56.59375 54.828125 56.59375 36.375 
Q 56.59375 19.140625 48.40625 8.859375 
Q 40.234375 -1.421875 26.421875 -1.421875 
Q 22.703125 -1.421875 18.890625 -0.6875 
Q 15.09375 0.046875 10.984375 1.515625 
z
M 30.609375 32.421875 
Q 37.25 32.421875 41.125 36.953125 
Q 45.015625 41.5 45.015625 49.421875 
Q 45.015625 57.28125 41.125 61.84375 
Q 37.25 66.40625 30.609375 66.40625 
Q 23.96875 66.40625 20.09375 61.84375 
Q 16.21875 57.28125 16.21875 49.421875 
Q 16.21875 41.5 20.09375 36.953125 
Q 23.96875 32.421875 30.609375 32.421875 
z
" id="DejaVuSans-57"/>
      </defs>
      <g transform="translate(423.957736 505.071599)rotate(-45)scale(0.13 -0.13)">
       <use xlink:href="#DejaVuSans-50"/>
       <use x="63.623047" xlink:href="#DejaVuSans-48"/>
       <use x="127.246094" xlink:href="#DejaVuSans-50"/>
       <use x="190.869141" xlink:href="#DejaVuSans-48"/>
       <use x="254.492188" xlink:href="#DejaVuSans-45"/>
       <use x="290.576172" xlink:href="#DejaVuSans-48"/>
       <use x="354.199219" xlink:href="#DejaVuSans-57"/>
      </g>
     </g>
    </g>
    <g id="xtick_9">
     <g id="line2d_9">
      <g>
       <use style="stroke:#000000;stroke-width:0.8;" x="491.184147" xlink:href="#m37ce3db52d" y="452.678438"/>
      </g>
     </g>
     <g id="text_9">
      <!-- 2020-10 -->
      <defs>
       <path d="M 12.40625 8.296875 
L 28.515625 8.296875 
L 28.515625 63.921875 
L 10.984375 60.40625 
L 10.984375 69.390625 
L 28.421875 72.90625 
L 38.28125 72.90625 
L 38.28125 8.296875 
L 54.390625 8.296875 
L 54.390625 0 
L 12.40625 0 
z
" id="DejaVuSans-49"/>
      </defs>
      <g transform="translate(474.51648 505.071599)rotate(-45)scale(0.13 -0.13)">
       <use xlink:href="#DejaVuSans-50"/>
       <use x="63.623047" xlink:href="#DejaVuSans-48"/>
       <use x="127.246094" xlink:href="#DejaVuSans-50"/>
       <use x="190.869141" xlink:href="#DejaVuSans-48"/>
       <use x="254.492188" xlink:href="#DejaVuSans-45"/>
       <use x="290.576172" xlink:href="#DejaVuSans-49"/>
       <use x="354.199219" xlink:href="#DejaVuSans-48"/>
      </g>
     </g>
    </g>
    <g id="xtick_10">
     <g id="line2d_10">
      <g>
       <use style="stroke:#000000;stroke-width:0.8;" x="543.428182" xlink:href="#m37ce3db52d" y="452.678438"/>
      </g>
     </g>
     <g id="text_10">
      <!-- 2020-11 -->
      <g transform="translate(526.760515 505.071599)rotate(-45)scale(0.13 -0.13)">
       <use xlink:href="#DejaVuSans-50"/>
       <use x="63.623047" xlink:href="#DejaVuSans-48"/>
       <use x="127.246094" xlink:href="#DejaVuSans-50"/>
       <use x="190.869141" xlink:href="#DejaVuSans-48"/>
       <use x="254.492188" xlink:href="#DejaVuSans-45"/>
       <use x="290.576172" xlink:href="#DejaVuSans-49"/>
       <use x="354.199219" xlink:href="#DejaVuSans-49"/>
      </g>
     </g>
    </g>
    <g id="xtick_11">
     <g id="line2d_11">
      <g>
       <use style="stroke:#000000;stroke-width:0.8;" x="593.986925" xlink:href="#m37ce3db52d" y="452.678438"/>
      </g>
     </g>
     <g id="text_11">
      <!-- 2020-12 -->
      <g transform="translate(577.319259 505.071599)rotate(-45)scale(0.13 -0.13)">
       <use xlink:href="#DejaVuSans-50"/>
       <use x="63.623047" xlink:href="#DejaVuSans-48"/>
       <use x="127.246094" xlink:href="#DejaVuSans-50"/>
       <use x="190.869141" xlink:href="#DejaVuSans-48"/>
       <use x="254.492188" xlink:href="#DejaVuSans-45"/>
       <use x="290.576172" xlink:href="#DejaVuSans-49"/>
       <use x="354.199219" xlink:href="#DejaVuSans-50"/>
      </g>
     </g>
    </g>
    <g id="text_12">
     <!-- Target End Date -->
     <defs>
      <path d="M -0.296875 72.90625 
L 61.375 72.90625 
L 61.375 64.59375 
L 35.5 64.59375 
L 35.5 0 
L 25.59375 0 
L 25.59375 64.59375 
L -0.296875 64.59375 
z
" id="DejaVuSans-84"/>
      <path d="M 34.28125 27.484375 
Q 23.390625 27.484375 19.1875 25 
Q 14.984375 22.515625 14.984375 16.5 
Q 14.984375 11.71875 18.140625 8.90625 
Q 21.296875 6.109375 26.703125 6.109375 
Q 34.1875 6.109375 38.703125 11.40625 
Q 43.21875 16.703125 43.21875 25.484375 
L 43.21875 27.484375 
z
M 52.203125 31.203125 
L 52.203125 0 
L 43.21875 0 
L 43.21875 8.296875 
Q 40.140625 3.328125 35.546875 0.953125 
Q 30.953125 -1.421875 24.3125 -1.421875 
Q 15.921875 -1.421875 10.953125 3.296875 
Q 6 8.015625 6 15.921875 
Q 6 25.140625 12.171875 29.828125 
Q 18.359375 34.515625 30.609375 34.515625 
L 43.21875 34.515625 
L 43.21875 35.40625 
Q 43.21875 41.609375 39.140625 45 
Q 35.0625 48.390625 27.6875 48.390625 
Q 23 48.390625 18.546875 47.265625 
Q 14.109375 46.140625 10.015625 43.890625 
L 10.015625 52.203125 
Q 14.9375 54.109375 19.578125 55.046875 
Q 24.21875 56 28.609375 56 
Q 40.484375 56 46.34375 49.84375 
Q 52.203125 43.703125 52.203125 31.203125 
z
" id="DejaVuSans-97"/>
      <path d="M 41.109375 46.296875 
Q 39.59375 47.171875 37.8125 47.578125 
Q 36.03125 48 33.890625 48 
Q 26.265625 48 22.1875 43.046875 
Q 18.109375 38.09375 18.109375 28.8125 
L 18.109375 0 
L 9.078125 0 
L 9.078125 54.6875 
L 18.109375 54.6875 
L 18.109375 46.1875 
Q 20.953125 51.171875 25.484375 53.578125 
Q 30.03125 56 36.53125 56 
Q 37.453125 56 38.578125 55.875 
Q 39.703125 55.765625 41.0625 55.515625 
z
" id="DejaVuSans-114"/>
      <path d="M 45.40625 27.984375 
Q 45.40625 37.75 41.375 43.109375 
Q 37.359375 48.484375 30.078125 48.484375 
Q 22.859375 48.484375 18.828125 43.109375 
Q 14.796875 37.75 14.796875 27.984375 
Q 14.796875 18.265625 18.828125 12.890625 
Q 22.859375 7.515625 30.078125 7.515625 
Q 37.359375 7.515625 41.375 12.890625 
Q 45.40625 18.265625 45.40625 27.984375 
z
M 54.390625 6.78125 
Q 54.390625 -7.171875 48.1875 -13.984375 
Q 42 -20.796875 29.203125 -20.796875 
Q 24.46875 -20.796875 20.265625 -20.09375 
Q 16.0625 -19.390625 12.109375 -17.921875 
L 12.109375 -9.1875 
Q 16.0625 -11.328125 19.921875 -12.34375 
Q 23.78125 -13.375 27.78125 -13.375 
Q 36.625 -13.375 41.015625 -8.765625 
Q 45.40625 -4.15625 45.40625 5.171875 
L 45.40625 9.625 
Q 42.625 4.78125 38.28125 2.390625 
Q 33.9375 0 27.875 0 
Q 17.828125 0 11.671875 7.65625 
Q 5.515625 15.328125 5.515625 27.984375 
Q 5.515625 40.671875 11.671875 48.328125 
Q 17.828125 56 27.875 56 
Q 33.9375 56 38.28125 53.609375 
Q 42.625 51.21875 45.40625 46.390625 
L 45.40625 54.6875 
L 54.390625 54.6875 
z
" id="DejaVuSans-103"/>
      <path d="M 56.203125 29.59375 
L 56.203125 25.203125 
L 14.890625 25.203125 
Q 15.484375 15.921875 20.484375 11.0625 
Q 25.484375 6.203125 34.421875 6.203125 
Q 39.59375 6.203125 44.453125 7.46875 
Q 49.3125 8.734375 54.109375 11.28125 
L 54.109375 2.78125 
Q 49.265625 0.734375 44.1875 -0.34375 
Q 39.109375 -1.421875 33.890625 -1.421875 
Q 20.796875 -1.421875 13.15625 6.1875 
Q 5.515625 13.8125 5.515625 26.8125 
Q 5.515625 40.234375 12.765625 48.109375 
Q 20.015625 56 32.328125 56 
Q 43.359375 56 49.78125 48.890625 
Q 56.203125 41.796875 56.203125 29.59375 
z
M 47.21875 32.234375 
Q 47.125 39.59375 43.09375 43.984375 
Q 39.0625 48.390625 32.421875 48.390625 
Q 24.90625 48.390625 20.390625 44.140625 
Q 15.875 39.890625 15.1875 32.171875 
z
" id="DejaVuSans-101"/>
      <path d="M 18.3125 70.21875 
L 18.3125 54.6875 
L 36.8125 54.6875 
L 36.8125 47.703125 
L 18.3125 47.703125 
L 18.3125 18.015625 
Q 18.3125 11.328125 20.140625 9.421875 
Q 21.96875 7.515625 27.59375 7.515625 
L 36.8125 7.515625 
L 36.8125 0 
L 27.59375 0 
Q 17.1875 0 13.234375 3.875 
Q 9.28125 7.765625 9.28125 18.015625 
L 9.28125 47.703125 
L 2.6875 47.703125 
L 2.6875 54.6875 
L 9.28125 54.6875 
L 9.28125 70.21875 
z
" id="DejaVuSans-116"/>
      <path id="DejaVuSans-32"/>
      <path d="M 9.8125 72.90625 
L 55.90625 72.90625 
L 55.90625 64.59375 
L 19.671875 64.59375 
L 19.671875 43.015625 
L 54.390625 43.015625 
L 54.390625 34.71875 
L 19.671875 34.71875 
L 19.671875 8.296875 
L 56.78125 8.296875 
L 56.78125 0 
L 9.8125 0 
z
" id="DejaVuSans-69"/>
      <path d="M 54.890625 33.015625 
L 54.890625 0 
L 45.90625 0 
L 45.90625 32.71875 
Q 45.90625 40.484375 42.875 44.328125 
Q 39.84375 48.1875 33.796875 48.1875 
Q 26.515625 48.1875 22.3125 43.546875 
Q 18.109375 38.921875 18.109375 30.90625 
L 18.109375 0 
L 9.078125 0 
L 9.078125 54.6875 
L 18.109375 54.6875 
L 18.109375 46.1875 
Q 21.34375 51.125 25.703125 53.5625 
Q 30.078125 56 35.796875 56 
Q 45.21875 56 50.046875 50.171875 
Q 54.890625 44.34375 54.890625 33.015625 
z
" id="DejaVuSans-110"/>
      <path d="M 45.40625 46.390625 
L 45.40625 75.984375 
L 54.390625 75.984375 
L 54.390625 0 
L 45.40625 0 
L 45.40625 8.203125 
Q 42.578125 3.328125 38.25 0.953125 
Q 33.9375 -1.421875 27.875 -1.421875 
Q 17.96875 -1.421875 11.734375 6.484375 
Q 5.515625 14.40625 5.515625 27.296875 
Q 5.515625 40.1875 11.734375 48.09375 
Q 17.96875 56 27.875 56 
Q 33.9375 56 38.25 53.625 
Q 42.578125 51.265625 45.40625 46.390625 
z
M 14.796875 27.296875 
Q 14.796875 17.390625 18.875 11.75 
Q 22.953125 6.109375 30.078125 6.109375 
Q 37.203125 6.109375 41.296875 11.75 
Q 45.40625 17.390625 45.40625 27.296875 
Q 45.40625 37.203125 41.296875 42.84375 
Q 37.203125 48.484375 30.078125 48.484375 
Q 22.953125 48.484375 18.875 42.84375 
Q 14.796875 37.203125 14.796875 27.296875 
z
" id="DejaVuSans-100"/>
      <path d="M 19.671875 64.796875 
L 19.671875 8.109375 
L 31.59375 8.109375 
Q 46.6875 8.109375 53.6875 14.9375 
Q 60.6875 21.78125 60.6875 36.53125 
Q 60.6875 51.171875 53.6875 57.984375 
Q 46.6875 64.796875 31.59375 64.796875 
z
M 9.8125 72.90625 
L 30.078125 72.90625 
Q 51.265625 72.90625 61.171875 64.09375 
Q 71.09375 55.28125 71.09375 36.53125 
Q 71.09375 17.671875 61.125 8.828125 
Q 51.171875 0 30.078125 0 
L 9.8125 0 
z
" id="DejaVuSans-68"/>
     </defs>
     <g transform="translate(263.109062 524.660516)scale(0.18 -0.18)">
      <use xlink:href="#DejaVuSans-84"/>
      <use x="44.583984" xlink:href="#DejaVuSans-97"/>
      <use x="105.863281" xlink:href="#DejaVuSans-114"/>
      <use x="145.226562" xlink:href="#DejaVuSans-103"/>
      <use x="208.703125" xlink:href="#DejaVuSans-101"/>
      <use x="270.226562" xlink:href="#DejaVuSans-116"/>
      <use x="309.435547" xlink:href="#DejaVuSans-32"/>
      <use x="341.222656" xlink:href="#DejaVuSans-69"/>
      <use x="404.40625" xlink:href="#DejaVuSans-110"/>
      <use x="467.785156" xlink:href="#DejaVuSans-100"/>
      <use x="531.261719" xlink:href="#DejaVuSans-32"/>
      <use x="563.048828" xlink:href="#DejaVuSans-68"/>
      <use x="640.050781" xlink:href="#DejaVuSans-97"/>
      <use x="701.330078" xlink:href="#DejaVuSans-116"/>
      <use x="740.539062" xlink:href="#DejaVuSans-101"/>
     </g>
    </g>
   </g>
   <g id="matplotlib.axis_2">
    <g id="ytick_1">
     <g id="line2d_12">
      <defs>
       <path d="M 0 0 
L -3.5 0 
" id="m5f39544d93" style="stroke:#000000;stroke-width:0.8;"/>
      </defs>
      <g>
       <use style="stroke:#000000;stroke-width:0.8;" x="56.294688" xlink:href="#m5f39544d93" y="400.318804"/>
      </g>
     </g>
     <g id="text_13">
      <!-- 0.2 -->
      <defs>
       <path d="M 10.6875 12.40625 
L 21 12.40625 
L 21 0 
L 10.6875 0 
z
" id="DejaVuSans-46"/>
      </defs>
      <g transform="translate(28.620625 405.257788)scale(0.13 -0.13)">
       <use xlink:href="#DejaVuSans-48"/>
       <use x="63.623047" xlink:href="#DejaVuSans-46"/>
       <use x="95.410156" xlink:href="#DejaVuSans-50"/>
      </g>
     </g>
    </g>
    <g id="ytick_2">
     <g id="line2d_13">
      <g>
       <use style="stroke:#000000;stroke-width:0.8;" x="56.294688" xlink:href="#m5f39544d93" y="347.958855"/>
      </g>
     </g>
     <g id="text_14">
      <!-- 0.4 -->
      <g transform="translate(28.620625 352.89784)scale(0.13 -0.13)">
       <use xlink:href="#DejaVuSans-48"/>
       <use x="63.623047" xlink:href="#DejaVuSans-46"/>
       <use x="95.410156" xlink:href="#DejaVuSans-52"/>
      </g>
     </g>
    </g>
    <g id="ytick_3">
     <g id="line2d_14">
      <g>
       <use style="stroke:#000000;stroke-width:0.8;" x="56.294688" xlink:href="#m5f39544d93" y="295.598907"/>
      </g>
     </g>
     <g id="text_15">
      <!-- 0.6 -->
      <g transform="translate(28.620625 300.537892)scale(0.13 -0.13)">
       <use xlink:href="#DejaVuSans-48"/>
       <use x="63.623047" xlink:href="#DejaVuSans-46"/>
       <use x="95.410156" xlink:href="#DejaVuSans-54"/>
      </g>
     </g>
    </g>
    <g id="ytick_4">
     <g id="line2d_15">
      <g>
       <use style="stroke:#000000;stroke-width:0.8;" x="56.294688" xlink:href="#m5f39544d93" y="243.238959"/>
      </g>
     </g>
     <g id="text_16">
      <!-- 0.8 -->
      <g transform="translate(28.620625 248.177943)scale(0.13 -0.13)">
       <use xlink:href="#DejaVuSans-48"/>
       <use x="63.623047" xlink:href="#DejaVuSans-46"/>
       <use x="95.410156" xlink:href="#DejaVuSans-56"/>
      </g>
     </g>
    </g>
    <g id="ytick_5">
     <g id="line2d_16">
      <g>
       <use style="stroke:#000000;stroke-width:0.8;" x="56.294688" xlink:href="#m5f39544d93" y="190.879011"/>
      </g>
     </g>
     <g id="text_17">
      <!-- 1.0 -->
      <g transform="translate(28.620625 195.817995)scale(0.13 -0.13)">
       <use xlink:href="#DejaVuSans-49"/>
       <use x="63.623047" xlink:href="#DejaVuSans-46"/>
       <use x="95.410156" xlink:href="#DejaVuSans-48"/>
      </g>
     </g>
    </g>
    <g id="ytick_6">
     <g id="line2d_17">
      <g>
       <use style="stroke:#000000;stroke-width:0.8;" x="56.294688" xlink:href="#m5f39544d93" y="138.519063"/>
      </g>
     </g>
     <g id="text_18">
      <!-- 1.2 -->
      <g transform="translate(28.620625 143.458047)scale(0.13 -0.13)">
       <use xlink:href="#DejaVuSans-49"/>
       <use x="63.623047" xlink:href="#DejaVuSans-46"/>
       <use x="95.410156" xlink:href="#DejaVuSans-50"/>
      </g>
     </g>
    </g>
    <g id="ytick_7">
     <g id="line2d_18">
      <g>
       <use style="stroke:#000000;stroke-width:0.8;" x="56.294688" xlink:href="#m5f39544d93" y="86.159115"/>
      </g>
     </g>
     <g id="text_19">
      <!-- 1.4 -->
      <g transform="translate(28.620625 91.098099)scale(0.13 -0.13)">
       <use xlink:href="#DejaVuSans-49"/>
       <use x="63.623047" xlink:href="#DejaVuSans-46"/>
       <use x="95.410156" xlink:href="#DejaVuSans-52"/>
      </g>
     </g>
    </g>
    <g id="ytick_8">
     <g id="line2d_19">
      <g>
       <use style="stroke:#000000;stroke-width:0.8;" x="56.294688" xlink:href="#m5f39544d93" y="33.799166"/>
      </g>
     </g>
     <g id="text_20">
      <!-- 1.6 -->
      <g transform="translate(28.620625 38.738151)scale(0.13 -0.13)">
       <use xlink:href="#DejaVuSans-49"/>
       <use x="63.623047" xlink:href="#DejaVuSans-46"/>
       <use x="95.410156" xlink:href="#DejaVuSans-54"/>
      </g>
     </g>
    </g>
    <g id="text_21">
     <!-- US weekly incidental cases -->
     <defs>
      <path d="M 8.6875 72.90625 
L 18.609375 72.90625 
L 18.609375 28.609375 
Q 18.609375 16.890625 22.84375 11.734375 
Q 27.09375 6.59375 36.625 6.59375 
Q 46.09375 6.59375 50.34375 11.734375 
Q 54.59375 16.890625 54.59375 28.609375 
L 54.59375 72.90625 
L 64.5 72.90625 
L 64.5 27.390625 
Q 64.5 13.140625 57.4375 5.859375 
Q 50.390625 -1.421875 36.625 -1.421875 
Q 22.796875 -1.421875 15.734375 5.859375 
Q 8.6875 13.140625 8.6875 27.390625 
z
" id="DejaVuSans-85"/>
      <path d="M 53.515625 70.515625 
L 53.515625 60.890625 
Q 47.90625 63.578125 42.921875 64.890625 
Q 37.9375 66.21875 33.296875 66.21875 
Q 25.25 66.21875 20.875 63.09375 
Q 16.5 59.96875 16.5 54.203125 
Q 16.5 49.359375 19.40625 46.890625 
Q 22.3125 44.4375 30.421875 42.921875 
L 36.375 41.703125 
Q 47.40625 39.59375 52.65625 34.296875 
Q 57.90625 29 57.90625 20.125 
Q 57.90625 9.515625 50.796875 4.046875 
Q 43.703125 -1.421875 29.984375 -1.421875 
Q 24.8125 -1.421875 18.96875 -0.25 
Q 13.140625 0.921875 6.890625 3.21875 
L 6.890625 13.375 
Q 12.890625 10.015625 18.65625 8.296875 
Q 24.421875 6.59375 29.984375 6.59375 
Q 38.421875 6.59375 43.015625 9.90625 
Q 47.609375 13.234375 47.609375 19.390625 
Q 47.609375 24.75 44.3125 27.78125 
Q 41.015625 30.8125 33.5 32.328125 
L 27.484375 33.5 
Q 16.453125 35.6875 11.515625 40.375 
Q 6.59375 45.0625 6.59375 53.421875 
Q 6.59375 63.09375 13.40625 68.65625 
Q 20.21875 74.21875 32.171875 74.21875 
Q 37.3125 74.21875 42.625 73.28125 
Q 47.953125 72.359375 53.515625 70.515625 
z
" id="DejaVuSans-83"/>
      <path d="M 4.203125 54.6875 
L 13.1875 54.6875 
L 24.421875 12.015625 
L 35.59375 54.6875 
L 46.1875 54.6875 
L 57.421875 12.015625 
L 68.609375 54.6875 
L 77.59375 54.6875 
L 63.28125 0 
L 52.6875 0 
L 40.921875 44.828125 
L 29.109375 0 
L 18.5 0 
z
" id="DejaVuSans-119"/>
      <path d="M 9.078125 75.984375 
L 18.109375 75.984375 
L 18.109375 31.109375 
L 44.921875 54.6875 
L 56.390625 54.6875 
L 27.390625 29.109375 
L 57.625 0 
L 45.90625 0 
L 18.109375 26.703125 
L 18.109375 0 
L 9.078125 0 
z
" id="DejaVuSans-107"/>
      <path d="M 9.421875 75.984375 
L 18.40625 75.984375 
L 18.40625 0 
L 9.421875 0 
z
" id="DejaVuSans-108"/>
      <path d="M 32.171875 -5.078125 
Q 28.375 -14.84375 24.75 -17.8125 
Q 21.140625 -20.796875 15.09375 -20.796875 
L 7.90625 -20.796875 
L 7.90625 -13.28125 
L 13.1875 -13.28125 
Q 16.890625 -13.28125 18.9375 -11.515625 
Q 21 -9.765625 23.484375 -3.21875 
L 25.09375 0.875 
L 2.984375 54.6875 
L 12.5 54.6875 
L 29.59375 11.921875 
L 46.6875 54.6875 
L 56.203125 54.6875 
z
" id="DejaVuSans-121"/>
      <path d="M 9.421875 54.6875 
L 18.40625 54.6875 
L 18.40625 0 
L 9.421875 0 
z
M 9.421875 75.984375 
L 18.40625 75.984375 
L 18.40625 64.59375 
L 9.421875 64.59375 
z
" id="DejaVuSans-105"/>
      <path d="M 48.78125 52.59375 
L 48.78125 44.1875 
Q 44.96875 46.296875 41.140625 47.34375 
Q 37.3125 48.390625 33.40625 48.390625 
Q 24.65625 48.390625 19.8125 42.84375 
Q 14.984375 37.3125 14.984375 27.296875 
Q 14.984375 17.28125 19.8125 11.734375 
Q 24.65625 6.203125 33.40625 6.203125 
Q 37.3125 6.203125 41.140625 7.25 
Q 44.96875 8.296875 48.78125 10.40625 
L 48.78125 2.09375 
Q 45.015625 0.34375 40.984375 -0.53125 
Q 36.96875 -1.421875 32.421875 -1.421875 
Q 20.0625 -1.421875 12.78125 6.34375 
Q 5.515625 14.109375 5.515625 27.296875 
Q 5.515625 40.671875 12.859375 48.328125 
Q 20.21875 56 33.015625 56 
Q 37.15625 56 41.109375 55.140625 
Q 45.0625 54.296875 48.78125 52.59375 
z
" id="DejaVuSans-99"/>
      <path d="M 44.28125 53.078125 
L 44.28125 44.578125 
Q 40.484375 46.53125 36.375 47.5 
Q 32.28125 48.484375 27.875 48.484375 
Q 21.1875 48.484375 17.84375 46.4375 
Q 14.5 44.390625 14.5 40.28125 
Q 14.5 37.15625 16.890625 35.375 
Q 19.28125 33.59375 26.515625 31.984375 
L 29.59375 31.296875 
Q 39.15625 29.25 43.1875 25.515625 
Q 47.21875 21.78125 47.21875 15.09375 
Q 47.21875 7.46875 41.1875 3.015625 
Q 35.15625 -1.421875 24.609375 -1.421875 
Q 20.21875 -1.421875 15.453125 -0.5625 
Q 10.6875 0.296875 5.421875 2 
L 5.421875 11.28125 
Q 10.40625 8.6875 15.234375 7.390625 
Q 20.0625 6.109375 24.8125 6.109375 
Q 31.15625 6.109375 34.5625 8.28125 
Q 37.984375 10.453125 37.984375 14.40625 
Q 37.984375 18.0625 35.515625 20.015625 
Q 33.0625 21.96875 24.703125 23.78125 
L 21.578125 24.515625 
Q 13.234375 26.265625 9.515625 29.90625 
Q 5.8125 33.546875 5.8125 39.890625 
Q 5.8125 47.609375 11.28125 51.796875 
Q 16.75 56 26.8125 56 
Q 31.78125 56 36.171875 55.265625 
Q 40.578125 54.546875 44.28125 53.078125 
z
" id="DejaVuSans-115"/>
     </defs>
     <g transform="translate(20.877188 357.125156)rotate(-90)scale(0.18 -0.18)">
      <use xlink:href="#DejaVuSans-85"/>
      <use x="73.193359" xlink:href="#DejaVuSans-83"/>
      <use x="136.669922" xlink:href="#DejaVuSans-32"/>
      <use x="168.457031" xlink:href="#DejaVuSans-119"/>
      <use x="250.244141" xlink:href="#DejaVuSans-101"/>
      <use x="311.767578" xlink:href="#DejaVuSans-101"/>
      <use x="373.291016" xlink:href="#DejaVuSans-107"/>
      <use x="431.201172" xlink:href="#DejaVuSans-108"/>
      <use x="458.984375" xlink:href="#DejaVuSans-121"/>
      <use x="518.164062" xlink:href="#DejaVuSans-32"/>
      <use x="549.951172" xlink:href="#DejaVuSans-105"/>
      <use x="577.734375" xlink:href="#DejaVuSans-110"/>
      <use x="641.113281" xlink:href="#DejaVuSans-99"/>
      <use x="696.09375" xlink:href="#DejaVuSans-105"/>
      <use x="723.876953" xlink:href="#DejaVuSans-100"/>
      <use x="787.353516" xlink:href="#DejaVuSans-101"/>
      <use x="848.876953" xlink:href="#DejaVuSans-110"/>
      <use x="912.255859" xlink:href="#DejaVuSans-116"/>
      <use x="951.464844" xlink:href="#DejaVuSans-97"/>
      <use x="1012.744141" xlink:href="#DejaVuSans-108"/>
      <use x="1040.527344" xlink:href="#DejaVuSans-32"/>
      <use x="1072.314453" xlink:href="#DejaVuSans-99"/>
      <use x="1127.294922" xlink:href="#DejaVuSans-97"/>
      <use x="1188.574219" xlink:href="#DejaVuSans-115"/>
      <use x="1240.673828" xlink:href="#DejaVuSans-101"/>
      <use x="1302.197266" xlink:href="#DejaVuSans-115"/>
     </g>
    </g>
    <g id="text_22">
     <!-- 1e6 -->
     <g transform="translate(56.294688 14.798438)scale(0.1 -0.1)">
      <use xlink:href="#DejaVuSans-49"/>
      <use x="63.623047" xlink:href="#DejaVuSans-101"/>
      <use x="125.146484" xlink:href="#DejaVuSans-54"/>
     </g>
    </g>
   </g>
   <g id="line2d_20">
    <path clip-path="url(#p389226c819)" d="M 199.628726 403.62612 
L 211.425766 395.726051 
L 223.222806 398.800103 
L 235.019846 397.649755 
L 246.816886 401.788809 
L 258.613926 406.337318 
L 270.410967 411.243707 
L 282.208007 412.154246 
L 294.005047 414.049415 
L 305.802087 413.436018 
L 317.599127 413.935532 
L 329.396167 405.399551 
L 341.193208 385.958041 
L 352.990248 370.696841 
L 364.787288 348.051461 
L 376.584328 323.313441 
L 388.381368 328.983938 
L 400.178408 339.563144 
L 411.975449 356.816497 
L 423.772489 364.662325 
L 435.569529 379.492258 
L 447.366569 381.000682 
L 459.163609 381.045263 
L 470.960649 390.382499 
L 482.75769 385.24361 
L 494.55473 378.576781 
L 506.35177 377.177558 
L 518.14881 368.563761 
L 529.94585 354.820916 
L 541.74289 330.850237 
L 553.539931 302.739026 
L 565.336971 246.585912 
L 577.134011 157.494191 
L 588.931051 114.675087 
" style="fill:none;stroke:#0010ff;stroke-linecap:square;stroke-width:1.5;"/>
   </g>
   <g id="line2d_21">
    <path clip-path="url(#p389226c819)" d="M 211.425766 403.62612 
L 223.222806 395.726051 
L 235.019846 398.800103 
L 246.816886 397.649755 
L 258.613926 401.788809 
L 270.410967 406.337318 
L 282.208007 411.243707 
L 294.005047 412.154246 
L 305.802087 414.049415 
L 317.599127 413.436018 
L 329.396167 413.935532 
L 341.193208 405.399551 
L 352.990248 372.962545 
L 364.787288 357.24156 
L 376.584328 333.103313 
L 388.381368 310.231433 
L 400.178408 321.464092 
L 411.975449 341.759424 
L 423.772489 357.789036 
L 435.569529 370.343402 
L 447.366569 382.818156 
L 459.163609 381.343849 
L 470.960649 379.010394 
L 482.75769 390.34248 
L 494.55473 381.754968 
L 506.35177 375.24083 
L 518.14881 375.500643 
L 529.94585 363.734338 
L 541.74289 349.829339 
L 553.539931 316.106218 
L 565.336971 282.980408 
L 577.134011 203.571424 
L 588.931051 110.706361 
" style="fill:none;stroke:#00a4ff;stroke-linecap:square;stroke-width:1.5;"/>
   </g>
   <g id="line2d_22">
    <path clip-path="url(#p389226c819)" d="M 223.222806 403.62612 
L 235.019846 395.726051 
L 246.816886 398.800103 
L 258.613926 397.649755 
L 270.410967 401.788809 
L 282.208007 406.337318 
L 294.005047 411.243707 
L 305.802087 412.154246 
L 317.599127 414.049415 
L 329.396167 413.436018 
L 341.193208 413.935532 
L 352.990248 405.399551 
L 364.787288 378.605677 
L 376.584328 357.649215 
L 388.381368 332.840351 
L 400.178408 309.390038 
L 411.975449 320.833463 
L 423.772489 344.176998 
L 435.569529 356.735131 
L 447.366569 373.658486 
L 459.163609 385.638024 
L 470.960649 380.458645 
L 482.75769 376.828593 
L 494.55473 387.367921 
L 506.35177 374.6511 
L 518.14881 369.262485 
L 529.94585 374.371531 
L 541.74289 361.213071 
L 553.539931 346.279126 
L 565.336971 305.1721 
L 577.134011 265.769317 
L 588.931051 171.713318 
" style="fill:none;stroke:#40ffb7;stroke-linecap:square;stroke-width:1.5;"/>
   </g>
   <g id="line2d_23">
    <path clip-path="url(#p389226c819)" d="M 235.019846 403.62612 
L 246.816886 395.726051 
L 258.613926 398.800103 
L 270.410967 397.649755 
L 282.208007 401.788809 
L 294.005047 406.337318 
L 305.802087 411.243707 
L 317.599127 412.154246 
L 329.396167 414.049415 
L 341.193208 413.436018 
L 352.990248 413.935532 
L 364.787288 405.399551 
L 376.584328 383.918536 
L 388.381368 359.782853 
L 400.178408 335.41053 
L 411.975449 302.115811 
L 423.772489 319.629258 
L 435.569529 346.645879 
L 447.366569 358.25724 
L 459.163609 376.537307 
L 470.960649 388.363214 
L 482.75769 380.856309 
L 494.55473 374.532852 
L 506.35177 382.873856 
L 518.14881 366.843497 
L 529.94585 363.918223 
L 541.74289 373.154763 
L 553.539931 359.188303 
L 565.336971 343.672869 
L 577.134011 296.640996 
L 588.931051 248.598011 
" style="fill:none;stroke:#b7ff40;stroke-linecap:square;stroke-width:1.5;"/>
   </g>
   <g id="line2d_24">
    <path clip-path="url(#p389226c819)" d="M 246.816886 403.62612 
L 258.613926 395.726051 
L 270.410967 398.800103 
L 282.208007 397.649755 
L 294.005047 401.788809 
L 305.802087 406.337318 
L 317.599127 411.243707 
L 329.396167 412.154246 
L 341.193208 414.049415 
L 352.990248 413.436018 
L 364.787288 413.935532 
L 376.584328 405.399551 
L 388.381368 389.693305 
L 400.178408 359.468551 
L 411.975449 335.057012 
L 423.772489 331.525965 
L 435.569529 321.82878 
L 447.366569 345.251772 
L 459.163609 356.334671 
L 470.960649 379.241629 
L 482.75769 387.726121 
L 494.55473 377.471883 
L 506.35177 370.075893 
L 518.14881 374.927704 
L 529.94585 366.124282 
L 541.74289 359.659255 
L 553.539931 371.955253 
L 565.336971 357.057895 
L 577.134011 340.929475 
L 588.931051 286.950125 
" style="fill:none;stroke:#ffb900;stroke-linecap:square;stroke-width:1.5;"/>
   </g>
   <g id="line2d_25">
    <path clip-path="url(#p389226c819)" d="M 258.613926 403.62612 
L 270.410967 395.726051 
L 282.208007 398.800103 
L 294.005047 397.649755 
L 305.802087 401.788809 
L 317.599127 406.337318 
L 329.396167 411.243707 
L 341.193208 412.154246 
L 352.990248 414.049415 
L 364.787288 413.436018 
L 376.584328 413.935532 
L 388.381368 405.399551 
L 400.178408 394.739487 
L 411.975449 353.889692 
L 423.772489 338.453952 
L 435.569529 338.414814 
L 447.366569 344.42623 
L 459.163609 358.260622 
L 470.960649 363.777442 
L 482.75769 384.573762 
L 494.55473 389.70362 
L 506.35177 374.605587 
L 518.14881 368.681675 
L 529.94585 372.227246 
L 541.74289 366.366403 
L 553.539931 358.053556 
L 565.336971 371.59495 
L 577.134011 360.403995 
L 588.931051 346.01193 
" style="fill:none;stroke:#ff3000;stroke-linecap:square;stroke-width:1.5;"/>
   </g>
   <g id="line2d_26">
    <path clip-path="url(#p389226c819)" d="M 270.410967 403.62612 
L 282.208007 395.726051 
L 294.005047 398.800103 
L 305.802087 397.649755 
L 317.599127 401.788809 
L 329.396167 406.337318 
L 341.193208 411.243707 
L 352.990248 412.154246 
L 364.787288 414.049415 
L 376.584328 413.436018 
L 388.381368 413.935532 
L 400.178408 405.399551 
L 411.975449 399.027981 
L 423.772489 355.174653 
L 435.569529 341.230153 
L 447.366569 344.560174 
L 459.163609 349.623237 
L 470.960649 375.505402 
L 482.75769 391.600064 
L 494.55473 400.805064 
L 506.35177 408.237407 
L 518.14881 396.526808 
L 529.94585 407.401474 
L 541.74289 412.901609 
L 553.539931 392.710233 
L 565.336971 392.740592 
L 577.134011 385.957707 
L 588.931051 382.288561 
" style="fill:none;stroke:#800000;stroke-linecap:square;stroke-width:1.5;"/>
   </g>
   <g id="line2d_27">
    <path clip-path="url(#p389226c819)" d="M 81.658324 452.677181 
L 93.455364 452.677704 
L 105.252404 452.678228 
L 117.049444 452.678228 
L 128.846485 452.676395 
L 140.643525 452.579791 
L 152.440565 452.002523 
L 164.237605 446.642435 
L 176.034645 426.798015 
L 187.831685 403.321123 
L 199.628726 395.252979 
L 211.425766 399.412453 
L 223.222806 398.227024 
L 235.019846 401.891173 
L 246.816886 406.37397 
L 258.613926 411.205746 
L 270.410967 412.178855 
L 282.208007 414.137641 
L 294.005047 414.591602 
L 305.802087 414.013548 
L 317.599127 405.703501 
L 329.396167 386.091035 
L 341.193208 366.046076 
L 352.990248 346.728658 
L 364.787288 331.155239 
L 376.584328 330.826157 
L 388.381368 337.022433 
L 400.178408 354.554638 
L 411.975449 357.879495 
L 423.772489 372.542113 
L 435.569529 375.750469 
L 447.366569 376.845053 
L 459.163609 389.760944 
L 470.960649 378.809075 
L 482.75769 372.532688 
L 494.55473 373.643766 
L 506.35177 364.209027 
L 518.14881 350.950703 
L 529.94585 327.139231 
L 541.74289 305.914864 
L 553.539931 252.026267 
L 565.336971 186.156405 
L 577.134011 142.049956 
L 588.931051 154.126254 
" style="fill:none;stroke:#000000;stroke-linecap:square;stroke-width:3;"/>
   </g>
   <g id="patch_3">
    <path d="M 56.294688 452.678438 
L 56.294688 17.798438 
" style="fill:none;stroke:#000000;stroke-linecap:square;stroke-linejoin:miter;stroke-width:0.8;"/>
   </g>
   <g id="patch_4">
    <path d="M 614.294688 452.678438 
L 614.294688 17.798438 
" style="fill:none;stroke:#000000;stroke-linecap:square;stroke-linejoin:miter;stroke-width:0.8;"/>
   </g>
   <g id="patch_5">
    <path d="M 56.294687 452.678438 
L 614.294687 452.678438 
" style="fill:none;stroke:#000000;stroke-linecap:square;stroke-linejoin:miter;stroke-width:0.8;"/>
   </g>
   <g id="patch_6">
    <path d="M 56.294687 17.798438 
L 614.294687 17.798438 
" style="fill:none;stroke:#000000;stroke-linecap:square;stroke-linejoin:miter;stroke-width:0.8;"/>
   </g>
   <g id="legend_1">
    <g id="patch_7">
     <path d="M 63.294688 152.545313 
L 171.022813 152.545313 
Q 173.022813 152.545313 173.022813 150.545313 
L 173.022813 24.798438 
Q 173.022813 22.798438 171.022813 22.798438 
L 63.294688 22.798438 
Q 61.294688 22.798438 61.294688 24.798438 
L 61.294688 150.545313 
Q 61.294688 152.545313 63.294688 152.545313 
z
" style="fill:#ffffff;opacity:0.8;stroke:#cccccc;stroke-linejoin:miter;"/>
    </g>
    <g id="line2d_28">
     <path d="M 65.294688 30.896875 
L 85.294688 30.896875 
" style="fill:none;stroke:#0010ff;stroke-linecap:square;stroke-width:1.5;"/>
    </g>
    <g id="line2d_29"/>
    <g id="text_23">
     <!-- 1 weeks-ahead -->
     <defs>
      <path d="M 54.890625 33.015625 
L 54.890625 0 
L 45.90625 0 
L 45.90625 32.71875 
Q 45.90625 40.484375 42.875 44.328125 
Q 39.84375 48.1875 33.796875 48.1875 
Q 26.515625 48.1875 22.3125 43.546875 
Q 18.109375 38.921875 18.109375 30.90625 
L 18.109375 0 
L 9.078125 0 
L 9.078125 75.984375 
L 18.109375 75.984375 
L 18.109375 46.1875 
Q 21.34375 51.125 25.703125 53.5625 
Q 30.078125 56 35.796875 56 
Q 45.21875 56 50.046875 50.171875 
Q 54.890625 44.34375 54.890625 33.015625 
z
" id="DejaVuSans-104"/>
     </defs>
     <g transform="translate(93.294688 34.396875)scale(0.1 -0.1)">
      <use xlink:href="#DejaVuSans-49"/>
      <use x="63.623047" xlink:href="#DejaVuSans-32"/>
      <use x="95.410156" xlink:href="#DejaVuSans-119"/>
      <use x="177.197266" xlink:href="#DejaVuSans-101"/>
      <use x="238.720703" xlink:href="#DejaVuSans-101"/>
      <use x="300.244141" xlink:href="#DejaVuSans-107"/>
      <use x="358.154297" xlink:href="#DejaVuSans-115"/>
      <use x="410.253906" xlink:href="#DejaVuSans-45"/>
      <use x="446.337891" xlink:href="#DejaVuSans-97"/>
      <use x="507.617188" xlink:href="#DejaVuSans-104"/>
      <use x="570.996094" xlink:href="#DejaVuSans-101"/>
      <use x="632.519531" xlink:href="#DejaVuSans-97"/>
      <use x="693.798828" xlink:href="#DejaVuSans-100"/>
     </g>
    </g>
    <g id="line2d_30">
     <path d="M 65.294688 49.575 
L 85.294688 49.575 
" style="fill:none;stroke:#00a4ff;stroke-linecap:square;stroke-width:1.5;"/>
    </g>
    <g id="line2d_31"/>
    <g id="text_24">
     <!-- 2 weeks-ahead -->
     <g transform="translate(93.294688 53.075)scale(0.1 -0.1)">
      <use xlink:href="#DejaVuSans-50"/>
      <use x="63.623047" xlink:href="#DejaVuSans-32"/>
      <use x="95.410156" xlink:href="#DejaVuSans-119"/>
      <use x="177.197266" xlink:href="#DejaVuSans-101"/>
      <use x="238.720703" xlink:href="#DejaVuSans-101"/>
      <use x="300.244141" xlink:href="#DejaVuSans-107"/>
      <use x="358.154297" xlink:href="#DejaVuSans-115"/>
      <use x="410.253906" xlink:href="#DejaVuSans-45"/>
      <use x="446.337891" xlink:href="#DejaVuSans-97"/>
      <use x="507.617188" xlink:href="#DejaVuSans-104"/>
      <use x="570.996094" xlink:href="#DejaVuSans-101"/>
      <use x="632.519531" xlink:href="#DejaVuSans-97"/>
      <use x="693.798828" xlink:href="#DejaVuSans-100"/>
     </g>
    </g>
    <g id="line2d_32">
     <path d="M 65.294688 68.253125 
L 85.294688 68.253125 
" style="fill:none;stroke:#40ffb7;stroke-linecap:square;stroke-width:1.5;"/>
    </g>
    <g id="line2d_33"/>
    <g id="text_25">
     <!-- 3 weeks-ahead -->
     <g transform="translate(93.294688 71.753125)scale(0.1 -0.1)">
      <use xlink:href="#DejaVuSans-51"/>
      <use x="63.623047" xlink:href="#DejaVuSans-32"/>
      <use x="95.410156" xlink:href="#DejaVuSans-119"/>
      <use x="177.197266" xlink:href="#DejaVuSans-101"/>
      <use x="238.720703" xlink:href="#DejaVuSans-101"/>
      <use x="300.244141" xlink:href="#DejaVuSans-107"/>
      <use x="358.154297" xlink:href="#DejaVuSans-115"/>
      <use x="410.253906" xlink:href="#DejaVuSans-45"/>
      <use x="446.337891" xlink:href="#DejaVuSans-97"/>
      <use x="507.617188" xlink:href="#DejaVuSans-104"/>
      <use x="570.996094" xlink:href="#DejaVuSans-101"/>
      <use x="632.519531" xlink:href="#DejaVuSans-97"/>
      <use x="693.798828" xlink:href="#DejaVuSans-100"/>
     </g>
    </g>
    <g id="line2d_34">
     <path d="M 65.294688 86.93125 
L 85.294688 86.93125 
" style="fill:none;stroke:#b7ff40;stroke-linecap:square;stroke-width:1.5;"/>
    </g>
    <g id="line2d_35"/>
    <g id="text_26">
     <!-- 4 weeks-ahead -->
     <g transform="translate(93.294688 90.43125)scale(0.1 -0.1)">
      <use xlink:href="#DejaVuSans-52"/>
      <use x="63.623047" xlink:href="#DejaVuSans-32"/>
      <use x="95.410156" xlink:href="#DejaVuSans-119"/>
      <use x="177.197266" xlink:href="#DejaVuSans-101"/>
      <use x="238.720703" xlink:href="#DejaVuSans-101"/>
      <use x="300.244141" xlink:href="#DejaVuSans-107"/>
      <use x="358.154297" xlink:href="#DejaVuSans-115"/>
      <use x="410.253906" xlink:href="#DejaVuSans-45"/>
      <use x="446.337891" xlink:href="#DejaVuSans-97"/>
      <use x="507.617188" xlink:href="#DejaVuSans-104"/>
      <use x="570.996094" xlink:href="#DejaVuSans-101"/>
      <use x="632.519531" xlink:href="#DejaVuSans-97"/>
      <use x="693.798828" xlink:href="#DejaVuSans-100"/>
     </g>
    </g>
    <g id="line2d_36">
     <path d="M 65.294688 105.609375 
L 85.294688 105.609375 
" style="fill:none;stroke:#ffb900;stroke-linecap:square;stroke-width:1.5;"/>
    </g>
    <g id="line2d_37"/>
    <g id="text_27">
     <!-- 5 weeks-ahead -->
     <g transform="translate(93.294688 109.109375)scale(0.1 -0.1)">
      <use xlink:href="#DejaVuSans-53"/>
      <use x="63.623047" xlink:href="#DejaVuSans-32"/>
      <use x="95.410156" xlink:href="#DejaVuSans-119"/>
      <use x="177.197266" xlink:href="#DejaVuSans-101"/>
      <use x="238.720703" xlink:href="#DejaVuSans-101"/>
      <use x="300.244141" xlink:href="#DejaVuSans-107"/>
      <use x="358.154297" xlink:href="#DejaVuSans-115"/>
      <use x="410.253906" xlink:href="#DejaVuSans-45"/>
      <use x="446.337891" xlink:href="#DejaVuSans-97"/>
      <use x="507.617188" xlink:href="#DejaVuSans-104"/>
      <use x="570.996094" xlink:href="#DejaVuSans-101"/>
      <use x="632.519531" xlink:href="#DejaVuSans-97"/>
      <use x="693.798828" xlink:href="#DejaVuSans-100"/>
     </g>
    </g>
    <g id="line2d_38">
     <path d="M 65.294688 124.2875 
L 85.294688 124.2875 
" style="fill:none;stroke:#ff3000;stroke-linecap:square;stroke-width:1.5;"/>
    </g>
    <g id="line2d_39"/>
    <g id="text_28">
     <!-- 6 weeks-ahead -->
     <g transform="translate(93.294688 127.7875)scale(0.1 -0.1)">
      <use xlink:href="#DejaVuSans-54"/>
      <use x="63.623047" xlink:href="#DejaVuSans-32"/>
      <use x="95.410156" xlink:href="#DejaVuSans-119"/>
      <use x="177.197266" xlink:href="#DejaVuSans-101"/>
      <use x="238.720703" xlink:href="#DejaVuSans-101"/>
      <use x="300.244141" xlink:href="#DejaVuSans-107"/>
      <use x="358.154297" xlink:href="#DejaVuSans-115"/>
      <use x="410.253906" xlink:href="#DejaVuSans-45"/>
      <use x="446.337891" xlink:href="#DejaVuSans-97"/>
      <use x="507.617188" xlink:href="#DejaVuSans-104"/>
      <use x="570.996094" xlink:href="#DejaVuSans-101"/>
      <use x="632.519531" xlink:href="#DejaVuSans-97"/>
      <use x="693.798828" xlink:href="#DejaVuSans-100"/>
     </g>
    </g>
    <g id="line2d_40">
     <path d="M 65.294688 142.965625 
L 85.294688 142.965625 
" style="fill:none;stroke:#800000;stroke-linecap:square;stroke-width:1.5;"/>
    </g>
    <g id="line2d_41"/>
    <g id="text_29">
     <!-- 7 weeks-ahead -->
     <g transform="translate(93.294688 146.465625)scale(0.1 -0.1)">
      <use xlink:href="#DejaVuSans-55"/>
      <use x="63.623047" xlink:href="#DejaVuSans-32"/>
      <use x="95.410156" xlink:href="#DejaVuSans-119"/>
      <use x="177.197266" xlink:href="#DejaVuSans-101"/>
      <use x="238.720703" xlink:href="#DejaVuSans-101"/>
      <use x="300.244141" xlink:href="#DejaVuSans-107"/>
      <use x="358.154297" xlink:href="#DejaVuSans-115"/>
      <use x="410.253906" xlink:href="#DejaVuSans-45"/>
      <use x="446.337891" xlink:href="#DejaVuSans-97"/>
      <use x="507.617188" xlink:href="#DejaVuSans-104"/>
      <use x="570.996094" xlink:href="#DejaVuSans-101"/>
      <use x="632.519531" xlink:href="#DejaVuSans-97"/>
      <use x="693.798828" xlink:href="#DejaVuSans-100"/>
     </g>
    </g>
   </g>
  </g>
 </g>
 <defs>
  <clipPath id="p389226c819">
   <rect height="434.88" width="558" x="56.294688" y="17.798438"/>
  </clipPath>
 </defs>
</svg>
