<?xml version="1.0" encoding="utf-8" standalone="no"?>
<!DOCTYPE svg PUBLIC "-//W3C//DTD SVG 1.1//EN"
  "http://www.w3.org/Graphics/SVG/1.1/DTD/svg11.dtd">
<!-- Created with matplotlib (https://matplotlib.org/) -->
<svg height="544.682704pt" version="1.1" viewBox="0 0 852.965938 544.682704" width="852.965938pt" xmlns="http://www.w3.org/2000/svg" xmlns:xlink="http://www.w3.org/1999/xlink">
 <defs>
  <style type="text/css">
*{stroke-linecap:butt;stroke-linejoin:round;}
  </style>
 </defs>
 <g id="figure_1">
  <g id="patch_1">
   <path d="M 0 544.682704 
L 852.965938 544.682704 
L 852.965938 0 
L 0 0 
z
" style="fill:#ffffff;"/>
  </g>
  <g id="axes_1">
   <g id="patch_2">
    <path d="M 64.565938 461.757187 
L 845.765938 461.757187 
L 845.765938 26.877187 
L 64.565938 26.877187 
z
" style="fill:#ffffff;"/>
   </g>
   <g id="PolyCollection_1">
    <defs>
     <path d="M 309.901475 -158.672003 
L 309.901475 -93.999928 
L 326.041971 -102.143386 
L 342.182466 -100.956881 
L 358.322962 -103.20685 
L 374.463458 -100.361958 
L 390.603954 -97.190747 
L 406.74445 -93.390973 
L 422.884946 -93.09301 
L 439.025442 -92.08712 
L 455.165938 -93.136252 
L 471.306433 -93.318432 
L 487.446929 -100.363089 
L 503.587425 -114.57677 
L 519.727921 -127.59237 
L 535.868417 -142.383539 
L 552.008913 -156.129395 
L 568.149409 -156.643854 
L 584.289904 -151.192801 
L 600.4304 -135.626449 
L 616.570896 -132.635325 
L 632.711392 -118.988301 
L 648.851888 -116.338133 
L 664.992384 -114.256294 
L 681.13288 -104.319977 
L 697.273376 -113.253893 
L 713.413871 -120.452564 
L 729.554367 -119.114519 
L 745.694863 -126.950498 
L 761.835359 -138.761864 
L 777.975855 -156.054303 
L 794.116351 -173.451625 
L 810.256847 -210.040846 
L 810.256847 -293.921654 
L 810.256847 -293.921654 
L 794.116351 -247.612772 
L 777.975855 -227.863667 
L 761.835359 -207.45956 
L 745.694863 -194.971367 
L 729.554367 -187.330798 
L 713.413871 -189.429339 
L 697.273376 -182.504087 
L 681.13288 -173.459374 
L 664.992384 -183.449109 
L 648.851888 -186.098356 
L 632.711392 -189.271315 
L 616.570896 -202.143149 
L 600.4304 -205.837299 
L 584.289904 -220.199 
L 568.149409 -226.04345 
L 552.008913 -226.240651 
L 535.868417 -211.478972 
L 519.727921 -191.251455 
L 503.587425 -169.79378 
L 487.446929 -149.402924 
L 471.306433 -141.407583 
L 455.165938 -142.247761 
L 439.025442 -142.270252 
L 422.884946 -144.547669 
L 406.74445 -146.159252 
L 390.603954 -151.028427 
L 374.463458 -155.706543 
L 358.322962 -160.329958 
L 342.182466 -160.422863 
L 326.041971 -164.937646 
L 309.901475 -158.672003 
z
" id="m91030c7eba" style="stroke:#000080;stroke-opacity:0.1;"/>
    </defs>
    <g clip-path="url(#pde96f43f48)">
     <use style="fill:#000080;fill-opacity:0.1;stroke:#000080;stroke-opacity:0.1;" x="0" xlink:href="#m91030c7eba" y="544.682704"/>
    </g>
   </g>
   <g id="PolyCollection_2">
    <path clip-path="url(#pde96f43f48)" d="M 503.587425 288.671458 
L 503.587425 444.843403 
L 519.727921 443.176303 
L 535.868417 441.104776 
L 552.008913 439.587408 
L 568.149409 440.89762 
L 584.289904 446.649793 
L 600.4304 447.185408 
L 616.570896 448.183589 
L 632.711392 450.09786 
L 648.851888 451.491773 
L 664.992384 452.314812 
L 681.13288 451.446534 
L 697.273376 452.212128 
L 713.413871 450.579981 
L 729.554367 448.151439 
L 745.694863 444.367471 
L 761.835359 444.492144 
L 777.975855 378.960274 
L 794.116351 334.769717 
L 810.256847 284.985041 
L 810.256847 -173.620614 
L 810.256847 -173.620614 
L 794.116351 105.678105 
L 777.975855 190.484122 
L 761.835359 314.43091 
L 745.694863 323.161848 
L 729.554367 346.782434 
L 713.413871 362.697533 
L 697.273376 375.230877 
L 681.13288 378.118471 
L 664.992384 383.370127 
L 648.851888 367.355774 
L 632.711392 362.003919 
L 616.570896 345.564943 
L 600.4304 312.198649 
L 584.289904 314.494633 
L 568.149409 258.813375 
L 552.008913 243.769283 
L 535.868417 262.344934 
L 519.727921 278.556771 
L 503.587425 288.671458 
z
" style="fill:#0000ad;fill-opacity:0.1;stroke:#0000ad;stroke-opacity:0.1;"/>
   </g>
   <g id="PolyCollection_3">
    <defs>
     <path d="M 519.727921 -119.181929 
L 519.727921 -110.691872 
L 535.868417 -175.515676 
L 552.008913 -438.989408 
L 568.149409 -298.36052 
L 584.289904 -187.826421 
L 600.4304 -205.592493 
L 616.570896 -123.002925 
L 632.711392 -120.989381 
L 648.851888 -116.642576 
L 664.992384 -108.604584 
L 681.13288 -105.981073 
L 697.273376 -111.816695 
L 729.554367 -111.61719 
L 745.694863 -122.744484 
L 761.835359 -172.32023 
L 777.975855 -225.758411 
L 794.116351 -242.443839 
L 810.256847 -518.483085 
L 810.256847 -522.263007 
L 810.256847 -522.263007 
L 794.116351 -250.241711 
L 777.975855 -226.840402 
L 761.835359 -174.057118 
L 745.694863 -124.022281 
L 729.554367 -112.907617 
L 697.273376 -113.487922 
L 681.13288 -106.988144 
L 664.992384 -109.717674 
L 648.851888 -118.39297 
L 632.711392 -122.405242 
L 616.570896 -124.714902 
L 600.4304 -211.628404 
L 584.289904 -193.559615 
L 568.149409 -306.283892 
L 552.008913 -447.995365 
L 535.868417 -177.291009 
L 519.727921 -119.181929 
z
" id="m43bd3cff0e" style="stroke:#0000da;stroke-opacity:0.1;"/>
    </defs>
    <g clip-path="url(#pde96f43f48)">
     <use style="fill:#0000da;fill-opacity:0.1;stroke:#0000da;stroke-opacity:0.1;" x="0" xlink:href="#m43bd3cff0e" y="544.682704"/>
    </g>
   </g>
   <g id="PolyCollection_4">
    <defs>
     <path d="M 519.727921 -162.713903 
L 519.727921 -146.960837 
L 535.868417 -154.388191 
L 552.008913 -145.672315 
L 568.149409 -128.288418 
L 584.289904 -144.065693 
L 600.4304 -139.22367 
L 616.570896 -125.409529 
L 632.711392 -110.536003 
L 648.851888 -110.234721 
L 664.992384 -97.430985 
L 681.13288 -89.657899 
L 697.273376 -82.925237 
L 713.413871 -82.925237 
L 729.554367 -82.925237 
L 745.694863 -82.925237 
L 761.835359 -82.925237 
L 777.975855 -82.925237 
L 794.116351 -82.925237 
L 810.256847 -108.4535 
L 810.256847 -393.243028 
L 810.256847 -393.243028 
L 794.116351 -305.991727 
L 777.975855 -242.30145 
L 761.835359 -191.171534 
L 745.694863 -182.34016 
L 729.554367 -163.224837 
L 713.413871 -155.317911 
L 697.273376 -140.661926 
L 681.13288 -133.092861 
L 664.992384 -134.6765 
L 648.851888 -132.349638 
L 632.711392 -142.950048 
L 616.570896 -158.466474 
L 600.4304 -175.515907 
L 584.289904 -203.497021 
L 568.149409 -222.225259 
L 552.008913 -184.371464 
L 535.868417 -157.948412 
L 519.727921 -162.713903 
z
" id="mf45f35409d" style="stroke:#0000ff;stroke-opacity:0.1;"/>
    </defs>
    <g clip-path="url(#pde96f43f48)">
     <use style="fill:#0000ff;fill-opacity:0.1;stroke:#0000ff;stroke-opacity:0.1;" x="0" xlink:href="#mf45f35409d" y="544.682704"/>
    </g>
   </g>
   <g id="PolyCollection_5">
    <defs>
     <path d="M 519.727921 -180.795295 
L 519.727921 -121.548139 
L 535.868417 -128.249451 
L 552.008913 -167.360283 
L 568.149409 -161.925569 
L 584.289904 -135.083241 
L 600.4304 -128.290615 
L 616.570896 -130.603433 
L 632.711392 -118.913599 
L 648.851888 -128.974166 
L 664.992384 -131.51216 
L 681.13288 -126.453566 
L 697.273376 -147.966501 
L 713.413871 -144.035553 
L 745.694863 -160.725295 
L 777.975855 -187.553706 
L 810.256847 -251.722026 
L 810.256847 -277.672157 
L 810.256847 -277.672157 
L 777.975855 -208.726292 
L 745.694863 -178.077688 
L 713.413871 -160.356394 
L 697.273376 -164.528478 
L 681.13288 -140.142347 
L 664.992384 -145.552949 
L 648.851888 -141.539396 
L 632.711392 -128.493483 
L 616.570896 -142.614273 
L 600.4304 -142.497985 
L 584.289904 -151.471678 
L 568.149409 -176.89025 
L 552.008913 -186.319432 
L 535.868417 -178.191597 
L 519.727921 -180.795295 
z
" id="m14435d1ffe" style="stroke:#0020ff;stroke-opacity:0.1;"/>
    </defs>
    <g clip-path="url(#pde96f43f48)">
     <use style="fill:#0020ff;fill-opacity:0.1;stroke:#0020ff;stroke-opacity:0.1;" x="0" xlink:href="#m14435d1ffe" y="544.682704"/>
    </g>
   </g>
   <g id="PolyCollection_6">
    <defs>
     <path d="M 519.727921 -200.971089 
L 519.727921 -144.83685 
L 535.868417 -152.751884 
L 552.008913 -161.304008 
L 568.149409 -185.778977 
L 584.289904 -179.268132 
L 600.4304 -165.996413 
L 616.570896 -153.413387 
L 632.711392 -136.979602 
L 648.851888 -128.95203 
L 664.992384 -123.512612 
L 681.13288 -119.617377 
L 697.273376 -117.20161 
L 713.413871 -125.545263 
L 729.554367 -134.783884 
L 745.694863 -132.388301 
L 761.835359 -140.449738 
L 777.975855 -140.529002 
L 794.116351 -146.20593 
L 794.116351 -206.189313 
L 794.116351 -206.189313 
L 777.975855 -198.780193 
L 761.835359 -198.679653 
L 745.694863 -178.643696 
L 729.554367 -182.800945 
L 713.413871 -159.460707 
L 697.273376 -139.438821 
L 681.13288 -139.258349 
L 664.992384 -146.349167 
L 648.851888 -155.027365 
L 632.711392 -170.028633 
L 616.570896 -194.705758 
L 600.4304 -215.045986 
L 584.289904 -239.111177 
L 568.149409 -254.043789 
L 552.008913 -233.987503 
L 535.868417 -212.155224 
L 519.727921 -200.971089 
z
" id="m95a0017ce2" style="stroke:#004cff;stroke-opacity:0.1;"/>
    </defs>
    <g clip-path="url(#pde96f43f48)">
     <use style="fill:#004cff;fill-opacity:0.1;stroke:#004cff;stroke-opacity:0.1;" x="0" xlink:href="#m95a0017ce2" y="544.682704"/>
    </g>
   </g>
   <g id="PolyCollection_7">
    <path clip-path="url(#pde96f43f48)" d="M 519.727921 251.32109 
L 519.727921 381.248311 
L 535.868417 401.65523 
L 552.008913 388.840918 
L 568.149409 405.088415 
L 584.289904 421.327313 
L 600.4304 429.694961 
L 616.570896 416.458386 
L 632.711392 434.284549 
L 648.851888 426.163705 
L 664.992384 408.422135 
L 681.13288 426.254572 
L 697.273376 429.936188 
L 713.413871 382.796533 
L 729.554367 367.810713 
L 745.694863 385.312994 
L 761.835359 359.948303 
L 777.975855 318.561599 
L 794.116351 186.326454 
L 810.256847 48.902373 
L 810.256847 -124.630227 
L 810.256847 -124.630227 
L 794.116351 -382.908793 
L 777.975855 273.995264 
L 761.835359 320.876216 
L 745.694863 358.183015 
L 729.554367 321.24066 
L 713.413871 342.871841 
L 697.273376 369.820241 
L 681.13288 376.648033 
L 664.992384 363.902976 
L 648.851888 395.265736 
L 632.711392 408.923645 
L 616.570896 395.431435 
L 600.4304 397.612935 
L 584.289904 390.032877 
L 568.149409 354.951317 
L 552.008913 344.78934 
L 535.868417 271.502817 
L 519.727921 251.32109 
z
" style="fill:#0074ff;fill-opacity:0.1;stroke:#0074ff;stroke-opacity:0.1;"/>
   </g>
   <g id="PolyCollection_8">
    <defs>
     <path d="M 519.727921 -220.25279 
L 519.727921 -192.385218 
L 535.868417 -207.801087 
L 552.008913 -220.877142 
L 568.149409 -221.099156 
L 584.289904 -175.681773 
L 616.570896 -137.19402 
L 632.711392 -123.014315 
L 648.851888 -110.482133 
L 664.992384 -123.431126 
L 681.13288 -120.474394 
L 697.273376 -106.851177 
L 713.413871 -114.212096 
L 729.554367 -156.376651 
L 745.694863 -160.635917 
L 761.835359 -136.301065 
L 777.975855 -226.910496 
L 794.116351 -258.356524 
L 810.256847 -307.188912 
L 810.256847 -408.482908 
L 810.256847 -408.482908 
L 794.116351 -311.598304 
L 777.975855 -263.27834 
L 761.835359 -145.628083 
L 745.694863 -168.865322 
L 729.554367 -159.81705 
L 713.413871 -122.467206 
L 697.273376 -115.12283 
L 681.13288 -123.572379 
L 664.992384 -127.661476 
L 648.851888 -125.342358 
L 632.711392 -128.102102 
L 616.570896 -143.365223 
L 584.289904 -202.976248 
L 568.149409 -253.907095 
L 552.008913 -287.906815 
L 535.868417 -252.125346 
L 519.727921 -220.25279 
z
" id="m6fb94129a6" style="stroke:#009cff;stroke-opacity:0.1;"/>
    </defs>
    <g clip-path="url(#pde96f43f48)">
     <use style="fill:#009cff;fill-opacity:0.1;stroke:#009cff;stroke-opacity:0.1;" x="0" xlink:href="#m6fb94129a6" y="544.682704"/>
    </g>
   </g>
   <g id="PolyCollection_9">
    <defs>
     <path d="M 519.727921 -214.079044 
L 519.727921 -165.647499 
L 535.868417 -186.751606 
L 552.008913 -183.760438 
L 568.149409 -163.425329 
L 584.289904 -163.263814 
L 616.570896 -136.734657 
L 632.711392 -138.993777 
L 648.851888 -144.176439 
L 664.992384 -142.436258 
L 681.13288 -136.188526 
L 697.273376 -126.96264 
L 713.413871 -135.677487 
L 729.554367 -123.87433 
L 745.694863 -128.208979 
L 761.835359 -137.821805 
L 777.975855 -171.442292 
L 794.116351 -189.403012 
L 810.256847 -200.665848 
L 810.256847 -248.288423 
L 810.256847 -248.288423 
L 794.116351 -221.155268 
L 777.975855 -196.888485 
L 761.835359 -164.139715 
L 745.694863 -152.267536 
L 729.554367 -148.907788 
L 713.413871 -155.621706 
L 697.273376 -148.409531 
L 681.13288 -151.479714 
L 664.992384 -161.701881 
L 648.851888 -169.490631 
L 632.711392 -168.320285 
L 616.570896 -169.789027 
L 584.289904 -196.436475 
L 568.149409 -217.380693 
L 552.008913 -225.40579 
L 535.868417 -226.759961 
L 519.727921 -214.079044 
z
" id="mce9094df9c" style="stroke:#00c4ff;stroke-opacity:0.1;"/>
    </defs>
    <g clip-path="url(#pde96f43f48)">
     <use style="fill:#00c4ff;fill-opacity:0.1;stroke:#00c4ff;stroke-opacity:0.1;" x="0" xlink:href="#mce9094df9c" y="544.682704"/>
    </g>
   </g>
   <g id="PolyCollection_10">
    <defs>
     <path d="M 519.727921 -361.005478 
L 519.727921 -113.281595 
L 535.868417 -131.333451 
L 552.008913 -135.808997 
L 568.149409 -129.407907 
L 584.289904 -130.357813 
L 600.4304 -119.75294 
L 616.570896 -117.428375 
L 632.711392 -122.317175 
L 648.851888 -126.590659 
L 664.992384 -106.481224 
L 681.13288 -102.519581 
L 697.273376 -110.428496 
L 713.413871 -109.733228 
L 729.554367 -106.511413 
L 745.694863 -113.816136 
L 761.835359 -115.968649 
L 777.975855 -136.014568 
L 794.116351 -159.462619 
L 810.256847 -203.326288 
L 810.256847 -535.317315 
L 810.256847 -535.317315 
L 794.116351 -298.79825 
L 777.975855 -222.81941 
L 761.835359 -161.436163 
L 745.694863 -155.696178 
L 729.554367 -141.679219 
L 713.413871 -146.244755 
L 697.273376 -144.984829 
L 681.13288 -129.582808 
L 664.992384 -141.367443 
L 648.851888 -191.820118 
L 632.711392 -179.835374 
L 616.570896 -182.8395 
L 600.4304 -192.371806 
L 584.289904 -233.325689 
L 568.149409 -273.958293 
L 552.008913 -286.156937 
L 535.868417 -261.046036 
L 519.727921 -361.005478 
z
" id="mf10fd62f14" style="stroke:#09f0ee;stroke-opacity:0.1;"/>
    </defs>
    <g clip-path="url(#pde96f43f48)">
     <use style="fill:#09f0ee;fill-opacity:0.1;stroke:#09f0ee;stroke-opacity:0.1;" x="0" xlink:href="#mf10fd62f14" y="544.682704"/>
    </g>
   </g>
   <g id="PolyCollection_11">
    <defs>
     <path d="M 535.868417 -357.857666 
L 535.868417 -198.134641 
L 552.008913 -82.925237 
L 568.149409 -191.204271 
L 584.289904 -210.095995 
L 584.289904 -351.596764 
L 584.289904 -351.596764 
L 568.149409 -329.89286 
L 552.008913 -410.185972 
L 535.868417 -357.857666 
z
" id="mb4b537ebe5" style="stroke:#29ffce;stroke-opacity:0.1;"/>
    </defs>
    <g clip-path="url(#pde96f43f48)">
     <use style="fill:#29ffce;fill-opacity:0.1;stroke:#29ffce;stroke-opacity:0.1;" x="0" xlink:href="#mb4b537ebe5" y="544.682704"/>
    </g>
   </g>
   <g id="PolyCollection_12">
    <path clip-path="url(#pde96f43f48)" d="M 535.868417 124.371963 
L 535.868417 430.331042 
L 552.008913 417.279895 
L 568.149409 411.823427 
L 584.289904 411.194959 
L 600.4304 435.773324 
L 616.570896 433.247368 
L 632.711392 439.377095 
L 648.851888 428.827567 
L 664.992384 427.612021 
L 681.13288 440.198133 
L 697.273376 421.408463 
L 713.413871 431.415259 
L 729.554367 434.168746 
L 745.694863 415.445431 
L 761.835359 408.399357 
L 777.975855 394.0183 
L 794.116351 406.475055 
L 810.256847 378.021327 
L 810.256847 -125.386303 
L 810.256847 -125.386303 
L 794.116351 78.690666 
L 777.975855 197.665138 
L 761.835359 276.147675 
L 745.694863 310.896015 
L 729.554367 326.234469 
L 713.413871 321.357848 
L 697.273376 342.919773 
L 681.13288 367.841264 
L 664.992384 357.946954 
L 648.851888 345.04428 
L 632.711392 374.378672 
L 616.570896 345.187543 
L 600.4304 338.250746 
L 584.289904 267.594057 
L 568.149409 208.645137 
L 552.008913 1.469187 
L 535.868417 124.371963 
z
" style="fill:#49ffad;fill-opacity:0.1;stroke:#49ffad;stroke-opacity:0.1;"/>
   </g>
   <g id="PolyCollection_13">
    <defs>
     <path d="M 552.008913 -302.956313 
L 552.008913 -135.124153 
L 568.149409 -139.594288 
L 584.289904 -147.629145 
L 600.4304 -126.243607 
L 616.570896 -129.41372 
L 632.711392 -119.951487 
L 648.851888 -118.537823 
L 664.992384 -117.070475 
L 681.13288 -117.340519 
L 697.273376 -115.274751 
L 713.413871 -120.452533 
L 729.554367 -120.733732 
L 745.694863 -130.812743 
L 761.835359 -138.761846 
L 777.975855 -155.767651 
L 794.116351 -188.302849 
L 810.256847 -230.326309 
L 810.256847 -472.419659 
L 810.256847 -472.419659 
L 794.116351 -305.991868 
L 777.975855 -249.08159 
L 761.835359 -198.679793 
L 745.694863 -180.852468 
L 729.554367 -171.127395 
L 713.413871 -167.496209 
L 697.273376 -168.892211 
L 681.13288 -154.459494 
L 664.992384 -161.701881 
L 648.851888 -166.432998 
L 632.711392 -167.130185 
L 616.570896 -179.650981 
L 600.4304 -208.002588 
L 584.289904 -212.167123 
L 568.149409 -253.907292 
L 552.008913 -302.956313 
z
" id="mca158971a7" style="stroke:#6aff8d;stroke-opacity:0.1;"/>
    </defs>
    <g clip-path="url(#pde96f43f48)">
     <use style="fill:#6aff8d;fill-opacity:0.1;stroke:#6aff8d;stroke-opacity:0.1;" x="0" xlink:href="#mca158971a7" y="544.682704"/>
    </g>
   </g>
   <g id="PolyCollection_14">
    <path clip-path="url(#pde96f43f48)" d="M 568.149409 352.653386 
L 568.149409 450.519729 
L 584.289904 434.923638 
L 600.4304 422.773978 
L 616.570896 422.412138 
L 632.711392 440.651035 
L 648.851888 432.182063 
L 664.992384 429.619898 
L 681.13288 433.688686 
L 697.273376 433.923638 
L 713.413871 424.649646 
L 729.554367 423.948972 
L 745.694863 408.646165 
L 761.835359 408.374261 
L 777.975855 398.544611 
L 794.116351 349.779113 
L 810.256847 281.27158 
L 810.256847 -611.87247 
L 810.256847 -611.87247 
L 794.116351 -272.978777 
L 777.975855 -367.787719 
L 761.835359 166.625321 
L 745.694863 206.160285 
L 729.554367 306.765414 
L 713.413871 -265.847707 
L 697.273376 -407.021265 
L 681.13288 390.195089 
L 664.992384 325.418674 
L 648.851888 346.326174 
L 632.711392 317.718699 
L 616.570896 156.538641 
L 600.4304 345.69917 
L 584.289904 248.442169 
L 568.149409 352.653386 
z
" style="fill:#8dff6a;fill-opacity:0.1;stroke:#8dff6a;stroke-opacity:0.1;"/>
   </g>
   <g id="PolyCollection_15">
    <defs>
     <path d="M 568.149409 -311.621869 
L 568.149409 -270.00724 
L 584.289904 -232.471486 
L 600.4304 -176.014845 
L 616.570896 -150.134583 
L 632.711392 -139.020712 
L 648.851888 -133.141955 
L 664.992384 -136.29752 
L 681.13288 -131.99543 
L 697.273376 -133.364776 
L 713.413871 -144.276044 
L 729.554367 -143.320711 
L 745.694863 -173.827093 
L 761.835359 -201.355808 
L 777.975855 -261.280634 
L 794.116351 -319.535322 
L 810.256847 -411.229369 
L 810.256847 -514.830337 
L 810.256847 -514.830337 
L 794.116351 -400.566741 
L 777.975855 -335.191093 
L 761.835359 -249.084588 
L 745.694863 -218.937258 
L 729.554367 -169.807503 
L 713.413871 -173.842779 
L 697.273376 -159.097978 
L 681.13288 -154.459494 
L 664.992384 -160.756285 
L 648.851888 -157.867906 
L 632.711392 -165.341318 
L 616.570896 -176.462253 
L 600.4304 -209.573003 
L 584.289904 -276.143074 
L 568.149409 -311.621869 
z
" id="m0dd067bf2d" style="stroke:#adff49;stroke-opacity:0.1;"/>
    </defs>
    <g clip-path="url(#pde96f43f48)">
     <use style="fill:#adff49;fill-opacity:0.1;stroke:#adff49;stroke-opacity:0.1;" x="0" xlink:href="#m0dd067bf2d" y="544.682704"/>
    </g>
   </g>
   <g id="PolyCollection_16">
    <defs>
     <path d="M 584.289904 -405.329278 
L 584.289904 -121.131826 
L 600.4304 -126.931731 
L 616.570896 -115.046306 
L 632.711392 -108.508079 
L 648.851888 -122.880141 
L 664.992384 -131.155295 
L 681.13288 -135.6826 
L 697.273376 -155.509227 
L 713.413871 -130.263592 
L 729.554367 -124.33889 
L 745.694863 -133.106026 
L 761.835359 -139.037235 
L 777.975855 -161.251963 
L 794.116351 -171.391862 
L 810.256847 -255.530345 
L 810.256847 -613.208137 
L 810.256847 -613.208137 
L 794.116351 -565.063601 
L 777.975855 -543.010621 
L 761.835359 -429.592343 
L 745.694863 -429.264897 
L 729.554367 -386.672067 
L 713.413871 -366.12757 
L 697.273376 -357.319066 
L 681.13288 -395.443387 
L 664.992384 -478.48101 
L 648.851888 -384.460355 
L 632.711392 -398.824515 
L 616.570896 -353.596548 
L 600.4304 -442.652297 
L 584.289904 -405.329278 
z
" id="m8a9d6db2cd" style="stroke:#ceff29;stroke-opacity:0.1;"/>
    </defs>
    <g clip-path="url(#pde96f43f48)">
     <use style="fill:#ceff29;fill-opacity:0.1;stroke:#ceff29;stroke-opacity:0.1;" x="0" xlink:href="#m8a9d6db2cd" y="544.682704"/>
    </g>
   </g>
   <g id="PolyCollection_17">
    <defs>
     <path d="M 584.289904 -350.370428 
L 584.289904 -125.267776 
L 600.4304 -132.576861 
L 616.570896 -120.47554 
L 632.711392 -110.782305 
L 648.851888 -125.647047 
L 664.992384 -136.327499 
L 681.13288 -139.922199 
L 697.273376 -156.755566 
L 713.413871 -146.683759 
L 729.554367 -128.852948 
L 745.694863 -139.99889 
L 761.835359 -145.179692 
L 777.975855 -169.696534 
L 794.116351 -180.520374 
L 810.256847 -258.151771 
L 810.256847 -622.768441 
L 810.256847 -622.768441 
L 794.116351 -588.472843 
L 777.975855 -561.301343 
L 761.835359 -448.688549 
L 745.694863 -443.320203 
L 729.554367 -395.159631 
L 713.413871 -456.23979 
L 697.273376 -380.640696 
L 681.13288 -430.227481 
L 664.992384 -542.018058 
L 648.851888 -420.363435 
L 632.711392 -442.839143 
L 616.570896 -306.615387 
L 600.4304 -368.69508 
L 584.289904 -350.370428 
z
" id="m83ce9a1585" style="stroke:#eeff09;stroke-opacity:0.1;"/>
    </defs>
    <g clip-path="url(#pde96f43f48)">
     <use style="fill:#eeff09;fill-opacity:0.1;stroke:#eeff09;stroke-opacity:0.1;" x="0" xlink:href="#m83ce9a1585" y="544.682704"/>
    </g>
   </g>
   <g id="PolyCollection_18">
    <defs>
     <path d="M 584.289904 -305.170813 
L 584.289904 -113.132758 
L 600.4304 -119.457646 
L 616.570896 -109.474381 
L 632.711392 -102.392115 
L 648.851888 -114.987742 
L 664.992384 -116.747909 
L 681.13288 -125.270333 
L 697.273376 -147.24453 
L 713.413871 -131.157387 
L 729.554367 -117.004242 
L 745.694863 -124.347721 
L 761.835359 -128.245465 
L 777.975855 -146.160868 
L 794.116351 -154.896166 
L 810.256847 -267.649793 
L 810.256847 -503.999013 
L 810.256847 -503.999013 
L 794.116351 -417.887257 
L 777.975855 -397.167997 
L 761.835359 -321.392747 
L 745.694863 -316.16105 
L 729.554367 -285.726246 
L 713.413871 -321.662326 
L 697.273376 -304.198236 
L 681.13288 -296.144323 
L 664.992384 -316.021844 
L 648.851888 -287.692315 
L 632.711392 -265.082747 
L 616.570896 -266.500363 
L 600.4304 -329.629788 
L 584.289904 -305.170813 
z
" id="mdeaee05f39" style="stroke:#ffd700;stroke-opacity:0.1;"/>
    </defs>
    <g clip-path="url(#pde96f43f48)">
     <use style="fill:#ffd700;fill-opacity:0.1;stroke:#ffd700;stroke-opacity:0.1;" x="0" xlink:href="#mdeaee05f39" y="544.682704"/>
    </g>
   </g>
   <g id="PolyCollection_19">
    <defs>
     <path d="M 584.289904 -350.370428 
L 584.289904 -125.267776 
L 600.4304 -132.576861 
L 616.570896 -120.47554 
L 632.711392 -114.333315 
L 648.851888 -127.733032 
L 664.992384 -133.412092 
L 681.13288 -131.245 
L 697.273376 -158.642389 
L 713.413871 -141.076975 
L 729.554367 -127.971006 
L 745.694863 -141.13182 
L 761.835359 -145.699562 
L 777.975855 -168.033973 
L 794.116351 -184.470408 
L 810.256847 -267.649793 
L 810.256847 -503.999013 
L 810.256847 -503.999013 
L 794.116351 -426.649048 
L 777.975855 -390.855659 
L 761.835359 -321.612361 
L 745.694863 -307.537069 
L 729.554367 -277.1348 
L 713.413871 -354.490343 
L 697.273376 -345.104104 
L 681.13288 -315.00395 
L 664.992384 -334.184516 
L 648.851888 -315.757145 
L 632.711392 -291.302121 
L 616.570896 -306.615387 
L 600.4304 -368.69508 
L 584.289904 -350.370428 
z
" id="mbca90c9175" style="stroke:#ffb200;stroke-opacity:0.1;"/>
    </defs>
    <g clip-path="url(#pde96f43f48)">
     <use style="fill:#ffb200;fill-opacity:0.1;stroke:#ffb200;stroke-opacity:0.1;" x="0" xlink:href="#mbca90c9175" y="544.682704"/>
    </g>
   </g>
   <g id="PolyCollection_20">
    <defs>
     <path d="M 584.289904 -361.656969 
L 584.289904 -116.58895 
L 600.4304 -123.876422 
L 616.570896 -112.738382 
L 632.711392 -114.333315 
L 648.851888 -127.733032 
L 664.992384 -133.412092 
L 681.13288 -131.245 
L 697.273376 -158.642389 
L 713.413871 -141.076975 
L 729.554367 -127.971006 
L 745.694863 -141.13182 
L 761.835359 -145.699562 
L 777.975855 -168.033973 
L 794.116351 -184.470408 
L 810.256847 -276.021624 
L 810.256847 -653.903686 
L 810.256847 -653.903686 
L 794.116351 -426.649048 
L 777.975855 -390.855659 
L 761.835359 -321.612361 
L 745.694863 -307.537069 
L 729.554367 -277.1348 
L 713.413871 -354.490343 
L 697.273376 -345.104104 
L 681.13288 -315.00395 
L 664.992384 -334.184516 
L 648.851888 -315.757145 
L 632.711392 -291.302121 
L 616.570896 -316.872181 
L 600.4304 -392.269788 
L 584.289904 -361.656969 
z
" id="m5006bc33d1" style="stroke:#ff8d00;stroke-opacity:0.1;"/>
    </defs>
    <g clip-path="url(#pde96f43f48)">
     <use style="fill:#ff8d00;fill-opacity:0.1;stroke:#ff8d00;stroke-opacity:0.1;" x="0" xlink:href="#m5006bc33d1" y="544.682704"/>
    </g>
   </g>
   <g id="PolyCollection_21">
    <defs>
     <path d="M 600.4304 -221.915082 
L 600.4304 -124.196976 
L 616.570896 -143.672514 
L 632.711392 -132.237452 
L 648.851888 -126.201652 
L 664.992384 -129.861747 
L 681.13288 -117.340657 
L 697.273376 -115.803255 
L 713.413871 -105.582783 
L 729.554367 -116.235852 
L 745.694863 -139.592427 
L 761.835359 -155.803578 
L 777.975855 -157.359855 
L 794.116351 -189.80103 
L 810.256847 -211.023018 
L 810.256847 -296.583096 
L 810.256847 -296.583096 
L 794.116351 -233.732152 
L 777.975855 -224.340733 
L 761.835359 -194.795111 
L 745.694863 -175.53013 
L 729.554367 -191.980565 
L 713.413871 -203.888171 
L 697.273376 -183.796799 
L 681.13288 -154.433403 
L 664.992384 -170.822604 
L 648.851888 -177.335041 
L 632.711392 -173.90016 
L 616.570896 -190.890297 
L 600.4304 -221.915082 
z
" id="mbc03abc3db" style="stroke:#ff6800;stroke-opacity:0.1;"/>
    </defs>
    <g clip-path="url(#pde96f43f48)">
     <use style="fill:#ff6800;fill-opacity:0.1;stroke:#ff6800;stroke-opacity:0.1;" x="0" xlink:href="#mbc03abc3db" y="544.682704"/>
    </g>
   </g>
   <g id="PolyCollection_22">
    <defs>
     <path d="M 648.851888 -180.41415 
L 648.851888 -118.5571 
L 664.992384 -109.271829 
L 681.13288 -126.896131 
L 697.273376 -134.793214 
L 713.413871 -131.578594 
L 729.554367 -123.941134 
L 745.694863 -127.161794 
L 761.835359 -151.118909 
L 777.975855 -165.214775 
L 794.116351 -194.422014 
L 810.256847 -236.352711 
L 810.256847 -399.042574 
L 810.256847 -399.042574 
L 794.116351 -313.433827 
L 777.975855 -255.861547 
L 761.835359 -224.132112 
L 745.694863 -179.364344 
L 729.554367 -171.127209 
L 713.413871 -167.496105 
L 697.273376 -178.842356 
L 681.13288 -161.675127 
L 664.992384 -228.108782 
L 648.851888 -180.41415 
z
" id="m63d71d2737" style="stroke:#ff3f00;stroke-opacity:0.1;"/>
    </defs>
    <g clip-path="url(#pde96f43f48)">
     <use style="fill:#ff3f00;fill-opacity:0.1;stroke:#ff3f00;stroke-opacity:0.1;" x="0" xlink:href="#m63d71d2737" y="544.682704"/>
    </g>
   </g>
   <g id="PolyCollection_23">
    <defs>
     <path d="M 761.835359 -291.424487 
L 761.835359 -132.629196 
L 777.975855 -142.427295 
L 794.116351 -178.275647 
L 810.256847 -235.58067 
L 810.256847 -430.008916 
L 810.256847 -430.008916 
L 794.116351 -299.717855 
L 777.975855 -331.541379 
L 761.835359 -291.424487 
z
" id="mc3f9042af0" style="stroke:#ff1a00;stroke-opacity:0.1;"/>
    </defs>
    <g clip-path="url(#pde96f43f48)">
     <use style="fill:#ff1a00;fill-opacity:0.1;stroke:#ff1a00;stroke-opacity:0.1;" x="0" xlink:href="#mc3f9042af0" y="544.682704"/>
    </g>
   </g>
   <g id="PolyCollection_24">
    <defs>
     <path d="M 777.975855 -335.298045 
L 777.975855 -154.420535 
L 810.256847 -210.308646 
L 810.256847 -400.145749 
L 810.256847 -400.145749 
L 777.975855 -335.298045 
z
" id="m042f9b2c89" style="stroke:#da0000;stroke-opacity:0.1;"/>
    </defs>
    <g clip-path="url(#pde96f43f48)">
     <use style="fill:#da0000;fill-opacity:0.1;stroke:#da0000;stroke-opacity:0.1;" x="0" xlink:href="#m042f9b2c89" y="544.682704"/>
    </g>
   </g>
   <g id="PolyCollection_25">
    <defs>
     <path d="M 794.116351 -342.015237 
L 794.116351 -158.052431 
L 810.256847 -194.931277 
L 810.256847 -492.769333 
L 810.256847 -492.769333 
L 794.116351 -342.015237 
z
" id="mc44b3e53a2" style="stroke:#ad0000;stroke-opacity:0.1;"/>
    </defs>
    <g clip-path="url(#pde96f43f48)">
     <use style="fill:#ad0000;fill-opacity:0.1;stroke:#ad0000;stroke-opacity:0.1;" x="0" xlink:href="#mc44b3e53a2" y="544.682704"/>
    </g>
   </g>
   <g id="PolyCollection_26">
    <defs>
     <path d="M 794.116351 -270.255493 
L 794.116351 -171.090385 
L 810.256847 -173.135301 
L 810.256847 -274.51712 
L 810.256847 -274.51712 
L 794.116351 -270.255493 
z
" id="m44ca3fc4c2" style="stroke:#800000;stroke-opacity:0.1;"/>
    </defs>
    <g clip-path="url(#pde96f43f48)">
     <use style="fill:#800000;fill-opacity:0.1;stroke:#800000;stroke-opacity:0.1;" x="0" xlink:href="#m44ca3fc4c2" y="544.682704"/>
    </g>
   </g>
   <g id="matplotlib.axis_1">
    <g id="xtick_1">
     <g id="line2d_1">
      <defs>
       <path d="M 0 0 
L 0 3.5 
" id="m1fdeb135c1" style="stroke:#000000;stroke-width:0.8;"/>
      </defs>
      <g>
       <use style="stroke:#000000;stroke-width:0.8;" x="100.075028" xlink:href="#m1fdeb135c1" y="461.757187"/>
      </g>
     </g>
     <g id="text_1">
      <!-- 2020-02 -->
      <defs>
       <path d="M 19.1875 8.296875 
L 53.609375 8.296875 
L 53.609375 0 
L 7.328125 0 
L 7.328125 8.296875 
Q 12.9375 14.109375 22.625 23.890625 
Q 32.328125 33.6875 34.8125 36.53125 
Q 39.546875 41.84375 41.421875 45.53125 
Q 43.3125 49.21875 43.3125 52.78125 
Q 43.3125 58.59375 39.234375 62.25 
Q 35.15625 65.921875 28.609375 65.921875 
Q 23.96875 65.921875 18.8125 64.3125 
Q 13.671875 62.703125 7.8125 59.421875 
L 7.8125 69.390625 
Q 13.765625 71.78125 18.9375 73 
Q 24.125 74.21875 28.421875 74.21875 
Q 39.75 74.21875 46.484375 68.546875 
Q 53.21875 62.890625 53.21875 53.421875 
Q 53.21875 48.921875 51.53125 44.890625 
Q 49.859375 40.875 45.40625 35.40625 
Q 44.1875 33.984375 37.640625 27.21875 
Q 31.109375 20.453125 19.1875 8.296875 
z
" id="DejaVuSans-50"/>
       <path d="M 31.78125 66.40625 
Q 24.171875 66.40625 20.328125 58.90625 
Q 16.5 51.421875 16.5 36.375 
Q 16.5 21.390625 20.328125 13.890625 
Q 24.171875 6.390625 31.78125 6.390625 
Q 39.453125 6.390625 43.28125 13.890625 
Q 47.125 21.390625 47.125 36.375 
Q 47.125 51.421875 43.28125 58.90625 
Q 39.453125 66.40625 31.78125 66.40625 
z
M 31.78125 74.21875 
Q 44.046875 74.21875 50.515625 64.515625 
Q 56.984375 54.828125 56.984375 36.375 
Q 56.984375 17.96875 50.515625 8.265625 
Q 44.046875 -1.421875 31.78125 -1.421875 
Q 19.53125 -1.421875 13.0625 8.265625 
Q 6.59375 17.96875 6.59375 36.375 
Q 6.59375 54.828125 13.0625 64.515625 
Q 19.53125 74.21875 31.78125 74.21875 
z
" id="DejaVuSans-48"/>
       <path d="M 4.890625 31.390625 
L 31.203125 31.390625 
L 31.203125 23.390625 
L 4.890625 23.390625 
z
" id="DejaVuSans-45"/>
      </defs>
      <g transform="translate(83.407361 514.150349)rotate(-45)scale(0.13 -0.13)">
       <use xlink:href="#DejaVuSans-50"/>
       <use x="63.623047" xlink:href="#DejaVuSans-48"/>
       <use x="127.246094" xlink:href="#DejaVuSans-50"/>
       <use x="190.869141" xlink:href="#DejaVuSans-48"/>
       <use x="254.492188" xlink:href="#DejaVuSans-45"/>
       <use x="290.576172" xlink:href="#DejaVuSans-48"/>
       <use x="354.199219" xlink:href="#DejaVuSans-50"/>
      </g>
     </g>
    </g>
    <g id="xtick_2">
     <g id="line2d_2">
      <g>
       <use style="stroke:#000000;stroke-width:0.8;" x="166.942797" xlink:href="#m1fdeb135c1" y="461.757187"/>
      </g>
     </g>
     <g id="text_2">
      <!-- 2020-03 -->
      <defs>
       <path d="M 40.578125 39.3125 
Q 47.65625 37.796875 51.625 33 
Q 55.609375 28.21875 55.609375 21.1875 
Q 55.609375 10.40625 48.1875 4.484375 
Q 40.765625 -1.421875 27.09375 -1.421875 
Q 22.515625 -1.421875 17.65625 -0.515625 
Q 12.796875 0.390625 7.625 2.203125 
L 7.625 11.71875 
Q 11.71875 9.328125 16.59375 8.109375 
Q 21.484375 6.890625 26.8125 6.890625 
Q 36.078125 6.890625 40.9375 10.546875 
Q 45.796875 14.203125 45.796875 21.1875 
Q 45.796875 27.640625 41.28125 31.265625 
Q 36.765625 34.90625 28.71875 34.90625 
L 20.21875 34.90625 
L 20.21875 43.015625 
L 29.109375 43.015625 
Q 36.375 43.015625 40.234375 45.921875 
Q 44.09375 48.828125 44.09375 54.296875 
Q 44.09375 59.90625 40.109375 62.90625 
Q 36.140625 65.921875 28.71875 65.921875 
Q 24.65625 65.921875 20.015625 65.03125 
Q 15.375 64.15625 9.8125 62.3125 
L 9.8125 71.09375 
Q 15.4375 72.65625 20.34375 73.4375 
Q 25.25 74.21875 29.59375 74.21875 
Q 40.828125 74.21875 47.359375 69.109375 
Q 53.90625 64.015625 53.90625 55.328125 
Q 53.90625 49.265625 50.4375 45.09375 
Q 46.96875 40.921875 40.578125 39.3125 
z
" id="DejaVuSans-51"/>
      </defs>
      <g transform="translate(150.27513 514.150349)rotate(-45)scale(0.13 -0.13)">
       <use xlink:href="#DejaVuSans-50"/>
       <use x="63.623047" xlink:href="#DejaVuSans-48"/>
       <use x="127.246094" xlink:href="#DejaVuSans-50"/>
       <use x="190.869141" xlink:href="#DejaVuSans-48"/>
       <use x="254.492188" xlink:href="#DejaVuSans-45"/>
       <use x="290.576172" xlink:href="#DejaVuSans-48"/>
       <use x="354.199219" xlink:href="#DejaVuSans-51"/>
      </g>
     </g>
    </g>
    <g id="xtick_3">
     <g id="line2d_3">
      <g>
       <use style="stroke:#000000;stroke-width:0.8;" x="238.422136" xlink:href="#m1fdeb135c1" y="461.757187"/>
      </g>
     </g>
     <g id="text_3">
      <!-- 2020-04 -->
      <defs>
       <path d="M 37.796875 64.3125 
L 12.890625 25.390625 
L 37.796875 25.390625 
z
M 35.203125 72.90625 
L 47.609375 72.90625 
L 47.609375 25.390625 
L 58.015625 25.390625 
L 58.015625 17.1875 
L 47.609375 17.1875 
L 47.609375 0 
L 37.796875 0 
L 37.796875 17.1875 
L 4.890625 17.1875 
L 4.890625 26.703125 
z
" id="DejaVuSans-52"/>
      </defs>
      <g transform="translate(221.754469 514.150349)rotate(-45)scale(0.13 -0.13)">
       <use xlink:href="#DejaVuSans-50"/>
       <use x="63.623047" xlink:href="#DejaVuSans-48"/>
       <use x="127.246094" xlink:href="#DejaVuSans-50"/>
       <use x="190.869141" xlink:href="#DejaVuSans-48"/>
       <use x="254.492188" xlink:href="#DejaVuSans-45"/>
       <use x="290.576172" xlink:href="#DejaVuSans-48"/>
       <use x="354.199219" xlink:href="#DejaVuSans-52"/>
      </g>
     </g>
    </g>
    <g id="xtick_4">
     <g id="line2d_4">
      <g>
       <use style="stroke:#000000;stroke-width:0.8;" x="307.59569" xlink:href="#m1fdeb135c1" y="461.757187"/>
      </g>
     </g>
     <g id="text_4">
      <!-- 2020-05 -->
      <defs>
       <path d="M 10.796875 72.90625 
L 49.515625 72.90625 
L 49.515625 64.59375 
L 19.828125 64.59375 
L 19.828125 46.734375 
Q 21.96875 47.46875 24.109375 47.828125 
Q 26.265625 48.1875 28.421875 48.1875 
Q 40.625 48.1875 47.75 41.5 
Q 54.890625 34.8125 54.890625 23.390625 
Q 54.890625 11.625 47.5625 5.09375 
Q 40.234375 -1.421875 26.90625 -1.421875 
Q 22.3125 -1.421875 17.546875 -0.640625 
Q 12.796875 0.140625 7.71875 1.703125 
L 7.71875 11.625 
Q 12.109375 9.234375 16.796875 8.0625 
Q 21.484375 6.890625 26.703125 6.890625 
Q 35.15625 6.890625 40.078125 11.328125 
Q 45.015625 15.765625 45.015625 23.390625 
Q 45.015625 31 40.078125 35.4375 
Q 35.15625 39.890625 26.703125 39.890625 
Q 22.75 39.890625 18.8125 39.015625 
Q 14.890625 38.140625 10.796875 36.28125 
z
" id="DejaVuSans-53"/>
      </defs>
      <g transform="translate(290.928023 514.150349)rotate(-45)scale(0.13 -0.13)">
       <use xlink:href="#DejaVuSans-50"/>
       <use x="63.623047" xlink:href="#DejaVuSans-48"/>
       <use x="127.246094" xlink:href="#DejaVuSans-50"/>
       <use x="190.869141" xlink:href="#DejaVuSans-48"/>
       <use x="254.492188" xlink:href="#DejaVuSans-45"/>
       <use x="290.576172" xlink:href="#DejaVuSans-48"/>
       <use x="354.199219" xlink:href="#DejaVuSans-53"/>
      </g>
     </g>
    </g>
    <g id="xtick_5">
     <g id="line2d_5">
      <g>
       <use style="stroke:#000000;stroke-width:0.8;" x="379.075028" xlink:href="#m1fdeb135c1" y="461.757187"/>
      </g>
     </g>
     <g id="text_5">
      <!-- 2020-06 -->
      <defs>
       <path d="M 33.015625 40.375 
Q 26.375 40.375 22.484375 35.828125 
Q 18.609375 31.296875 18.609375 23.390625 
Q 18.609375 15.53125 22.484375 10.953125 
Q 26.375 6.390625 33.015625 6.390625 
Q 39.65625 6.390625 43.53125 10.953125 
Q 47.40625 15.53125 47.40625 23.390625 
Q 47.40625 31.296875 43.53125 35.828125 
Q 39.65625 40.375 33.015625 40.375 
z
M 52.59375 71.296875 
L 52.59375 62.3125 
Q 48.875 64.0625 45.09375 64.984375 
Q 41.3125 65.921875 37.59375 65.921875 
Q 27.828125 65.921875 22.671875 59.328125 
Q 17.53125 52.734375 16.796875 39.40625 
Q 19.671875 43.65625 24.015625 45.921875 
Q 28.375 48.1875 33.59375 48.1875 
Q 44.578125 48.1875 50.953125 41.515625 
Q 57.328125 34.859375 57.328125 23.390625 
Q 57.328125 12.15625 50.6875 5.359375 
Q 44.046875 -1.421875 33.015625 -1.421875 
Q 20.359375 -1.421875 13.671875 8.265625 
Q 6.984375 17.96875 6.984375 36.375 
Q 6.984375 53.65625 15.1875 63.9375 
Q 23.390625 74.21875 37.203125 74.21875 
Q 40.921875 74.21875 44.703125 73.484375 
Q 48.484375 72.75 52.59375 71.296875 
z
" id="DejaVuSans-54"/>
      </defs>
      <g transform="translate(362.407361 514.150349)rotate(-45)scale(0.13 -0.13)">
       <use xlink:href="#DejaVuSans-50"/>
       <use x="63.623047" xlink:href="#DejaVuSans-48"/>
       <use x="127.246094" xlink:href="#DejaVuSans-50"/>
       <use x="190.869141" xlink:href="#DejaVuSans-48"/>
       <use x="254.492188" xlink:href="#DejaVuSans-45"/>
       <use x="290.576172" xlink:href="#DejaVuSans-48"/>
       <use x="354.199219" xlink:href="#DejaVuSans-54"/>
      </g>
     </g>
    </g>
    <g id="xtick_6">
     <g id="line2d_6">
      <g>
       <use style="stroke:#000000;stroke-width:0.8;" x="448.248582" xlink:href="#m1fdeb135c1" y="461.757187"/>
      </g>
     </g>
     <g id="text_6">
      <!-- 2020-07 -->
      <defs>
       <path d="M 8.203125 72.90625 
L 55.078125 72.90625 
L 55.078125 68.703125 
L 28.609375 0 
L 18.3125 0 
L 43.21875 64.59375 
L 8.203125 64.59375 
z
" id="DejaVuSans-55"/>
      </defs>
      <g transform="translate(431.580915 514.150349)rotate(-45)scale(0.13 -0.13)">
       <use xlink:href="#DejaVuSans-50"/>
       <use x="63.623047" xlink:href="#DejaVuSans-48"/>
       <use x="127.246094" xlink:href="#DejaVuSans-50"/>
       <use x="190.869141" xlink:href="#DejaVuSans-48"/>
       <use x="254.492188" xlink:href="#DejaVuSans-45"/>
       <use x="290.576172" xlink:href="#DejaVuSans-48"/>
       <use x="354.199219" xlink:href="#DejaVuSans-55"/>
      </g>
     </g>
    </g>
    <g id="xtick_7">
     <g id="line2d_7">
      <g>
       <use style="stroke:#000000;stroke-width:0.8;" x="519.727921" xlink:href="#m1fdeb135c1" y="461.757187"/>
      </g>
     </g>
     <g id="text_7">
      <!-- 2020-08 -->
      <defs>
       <path d="M 31.78125 34.625 
Q 24.75 34.625 20.71875 30.859375 
Q 16.703125 27.09375 16.703125 20.515625 
Q 16.703125 13.921875 20.71875 10.15625 
Q 24.75 6.390625 31.78125 6.390625 
Q 38.8125 6.390625 42.859375 10.171875 
Q 46.921875 13.96875 46.921875 20.515625 
Q 46.921875 27.09375 42.890625 30.859375 
Q 38.875 34.625 31.78125 34.625 
z
M 21.921875 38.8125 
Q 15.578125 40.375 12.03125 44.71875 
Q 8.5 49.078125 8.5 55.328125 
Q 8.5 64.0625 14.71875 69.140625 
Q 20.953125 74.21875 31.78125 74.21875 
Q 42.671875 74.21875 48.875 69.140625 
Q 55.078125 64.0625 55.078125 55.328125 
Q 55.078125 49.078125 51.53125 44.71875 
Q 48 40.375 41.703125 38.8125 
Q 48.828125 37.15625 52.796875 32.3125 
Q 56.78125 27.484375 56.78125 20.515625 
Q 56.78125 9.90625 50.3125 4.234375 
Q 43.84375 -1.421875 31.78125 -1.421875 
Q 19.734375 -1.421875 13.25 4.234375 
Q 6.78125 9.90625 6.78125 20.515625 
Q 6.78125 27.484375 10.78125 32.3125 
Q 14.796875 37.15625 21.921875 38.8125 
z
M 18.3125 54.390625 
Q 18.3125 48.734375 21.84375 45.5625 
Q 25.390625 42.390625 31.78125 42.390625 
Q 38.140625 42.390625 41.71875 45.5625 
Q 45.3125 48.734375 45.3125 54.390625 
Q 45.3125 60.0625 41.71875 63.234375 
Q 38.140625 66.40625 31.78125 66.40625 
Q 25.390625 66.40625 21.84375 63.234375 
Q 18.3125 60.0625 18.3125 54.390625 
z
" id="DejaVuSans-56"/>
      </defs>
      <g transform="translate(503.060254 514.150349)rotate(-45)scale(0.13 -0.13)">
       <use xlink:href="#DejaVuSans-50"/>
       <use x="63.623047" xlink:href="#DejaVuSans-48"/>
       <use x="127.246094" xlink:href="#DejaVuSans-50"/>
       <use x="190.869141" xlink:href="#DejaVuSans-48"/>
       <use x="254.492188" xlink:href="#DejaVuSans-45"/>
       <use x="290.576172" xlink:href="#DejaVuSans-48"/>
       <use x="354.199219" xlink:href="#DejaVuSans-56"/>
      </g>
     </g>
    </g>
    <g id="xtick_8">
     <g id="line2d_8">
      <g>
       <use style="stroke:#000000;stroke-width:0.8;" x="591.20726" xlink:href="#m1fdeb135c1" y="461.757187"/>
      </g>
     </g>
     <g id="text_8">
      <!-- 2020-09 -->
      <defs>
       <path d="M 10.984375 1.515625 
L 10.984375 10.5 
Q 14.703125 8.734375 18.5 7.8125 
Q 22.3125 6.890625 25.984375 6.890625 
Q 35.75 6.890625 40.890625 13.453125 
Q 46.046875 20.015625 46.78125 33.40625 
Q 43.953125 29.203125 39.59375 26.953125 
Q 35.25 24.703125 29.984375 24.703125 
Q 19.046875 24.703125 12.671875 31.3125 
Q 6.296875 37.9375 6.296875 49.421875 
Q 6.296875 60.640625 12.9375 67.421875 
Q 19.578125 74.21875 30.609375 74.21875 
Q 43.265625 74.21875 49.921875 64.515625 
Q 56.59375 54.828125 56.59375 36.375 
Q 56.59375 19.140625 48.40625 8.859375 
Q 40.234375 -1.421875 26.421875 -1.421875 
Q 22.703125 -1.421875 18.890625 -0.6875 
Q 15.09375 0.046875 10.984375 1.515625 
z
M 30.609375 32.421875 
Q 37.25 32.421875 41.125 36.953125 
Q 45.015625 41.5 45.015625 49.421875 
Q 45.015625 57.28125 41.125 61.84375 
Q 37.25 66.40625 30.609375 66.40625 
Q 23.96875 66.40625 20.09375 61.84375 
Q 16.21875 57.28125 16.21875 49.421875 
Q 16.21875 41.5 20.09375 36.953125 
Q 23.96875 32.421875 30.609375 32.421875 
z
" id="DejaVuSans-57"/>
      </defs>
      <g transform="translate(574.539593 514.150349)rotate(-45)scale(0.13 -0.13)">
       <use xlink:href="#DejaVuSans-50"/>
       <use x="63.623047" xlink:href="#DejaVuSans-48"/>
       <use x="127.246094" xlink:href="#DejaVuSans-50"/>
       <use x="190.869141" xlink:href="#DejaVuSans-48"/>
       <use x="254.492188" xlink:href="#DejaVuSans-45"/>
       <use x="290.576172" xlink:href="#DejaVuSans-48"/>
       <use x="354.199219" xlink:href="#DejaVuSans-57"/>
      </g>
     </g>
    </g>
    <g id="xtick_9">
     <g id="line2d_9">
      <g>
       <use style="stroke:#000000;stroke-width:0.8;" x="660.380814" xlink:href="#m1fdeb135c1" y="461.757187"/>
      </g>
     </g>
     <g id="text_9">
      <!-- 2020-10 -->
      <defs>
       <path d="M 12.40625 8.296875 
L 28.515625 8.296875 
L 28.515625 63.921875 
L 10.984375 60.40625 
L 10.984375 69.390625 
L 28.421875 72.90625 
L 38.28125 72.90625 
L 38.28125 8.296875 
L 54.390625 8.296875 
L 54.390625 0 
L 12.40625 0 
z
" id="DejaVuSans-49"/>
      </defs>
      <g transform="translate(643.713147 514.150349)rotate(-45)scale(0.13 -0.13)">
       <use xlink:href="#DejaVuSans-50"/>
       <use x="63.623047" xlink:href="#DejaVuSans-48"/>
       <use x="127.246094" xlink:href="#DejaVuSans-50"/>
       <use x="190.869141" xlink:href="#DejaVuSans-48"/>
       <use x="254.492188" xlink:href="#DejaVuSans-45"/>
       <use x="290.576172" xlink:href="#DejaVuSans-49"/>
       <use x="354.199219" xlink:href="#DejaVuSans-48"/>
      </g>
     </g>
    </g>
    <g id="xtick_10">
     <g id="line2d_10">
      <g>
       <use style="stroke:#000000;stroke-width:0.8;" x="731.860152" xlink:href="#m1fdeb135c1" y="461.757187"/>
      </g>
     </g>
     <g id="text_10">
      <!-- 2020-11 -->
      <g transform="translate(715.192485 514.150349)rotate(-45)scale(0.13 -0.13)">
       <use xlink:href="#DejaVuSans-50"/>
       <use x="63.623047" xlink:href="#DejaVuSans-48"/>
       <use x="127.246094" xlink:href="#DejaVuSans-50"/>
       <use x="190.869141" xlink:href="#DejaVuSans-48"/>
       <use x="254.492188" xlink:href="#DejaVuSans-45"/>
       <use x="290.576172" xlink:href="#DejaVuSans-49"/>
       <use x="354.199219" xlink:href="#DejaVuSans-49"/>
      </g>
     </g>
    </g>
    <g id="xtick_11">
     <g id="line2d_11">
      <g>
       <use style="stroke:#000000;stroke-width:0.8;" x="801.033706" xlink:href="#m1fdeb135c1" y="461.757187"/>
      </g>
     </g>
     <g id="text_11">
      <!-- 2020-12 -->
      <g transform="translate(784.366039 514.150349)rotate(-45)scale(0.13 -0.13)">
       <use xlink:href="#DejaVuSans-50"/>
       <use x="63.623047" xlink:href="#DejaVuSans-48"/>
       <use x="127.246094" xlink:href="#DejaVuSans-50"/>
       <use x="190.869141" xlink:href="#DejaVuSans-48"/>
       <use x="254.492188" xlink:href="#DejaVuSans-45"/>
       <use x="290.576172" xlink:href="#DejaVuSans-49"/>
       <use x="354.199219" xlink:href="#DejaVuSans-50"/>
      </g>
     </g>
    </g>
    <g id="text_12">
     <!-- Date -->
     <defs>
      <path d="M 19.671875 64.796875 
L 19.671875 8.109375 
L 31.59375 8.109375 
Q 46.6875 8.109375 53.6875 14.9375 
Q 60.6875 21.78125 60.6875 36.53125 
Q 60.6875 51.171875 53.6875 57.984375 
Q 46.6875 64.796875 31.59375 64.796875 
z
M 9.8125 72.90625 
L 30.078125 72.90625 
Q 51.265625 72.90625 61.171875 64.09375 
Q 71.09375 55.28125 71.09375 36.53125 
Q 71.09375 17.671875 61.125 8.828125 
Q 51.171875 0 30.078125 0 
L 9.8125 0 
z
" id="DejaVuSans-68"/>
      <path d="M 34.28125 27.484375 
Q 23.390625 27.484375 19.1875 25 
Q 14.984375 22.515625 14.984375 16.5 
Q 14.984375 11.71875 18.140625 8.90625 
Q 21.296875 6.109375 26.703125 6.109375 
Q 34.1875 6.109375 38.703125 11.40625 
Q 43.21875 16.703125 43.21875 25.484375 
L 43.21875 27.484375 
z
M 52.203125 31.203125 
L 52.203125 0 
L 43.21875 0 
L 43.21875 8.296875 
Q 40.140625 3.328125 35.546875 0.953125 
Q 30.953125 -1.421875 24.3125 -1.421875 
Q 15.921875 -1.421875 10.953125 3.296875 
Q 6 8.015625 6 15.921875 
Q 6 25.140625 12.171875 29.828125 
Q 18.359375 34.515625 30.609375 34.515625 
L 43.21875 34.515625 
L 43.21875 35.40625 
Q 43.21875 41.609375 39.140625 45 
Q 35.0625 48.390625 27.6875 48.390625 
Q 23 48.390625 18.546875 47.265625 
Q 14.109375 46.140625 10.015625 43.890625 
L 10.015625 52.203125 
Q 14.9375 54.109375 19.578125 55.046875 
Q 24.21875 56 28.609375 56 
Q 40.484375 56 46.34375 49.84375 
Q 52.203125 43.703125 52.203125 31.203125 
z
" id="DejaVuSans-97"/>
      <path d="M 18.3125 70.21875 
L 18.3125 54.6875 
L 36.8125 54.6875 
L 36.8125 47.703125 
L 18.3125 47.703125 
L 18.3125 18.015625 
Q 18.3125 11.328125 20.140625 9.421875 
Q 21.96875 7.515625 27.59375 7.515625 
L 36.8125 7.515625 
L 36.8125 0 
L 27.59375 0 
Q 17.1875 0 13.234375 3.875 
Q 9.28125 7.765625 9.28125 18.015625 
L 9.28125 47.703125 
L 2.6875 47.703125 
L 2.6875 54.6875 
L 9.28125 54.6875 
L 9.28125 70.21875 
z
" id="DejaVuSans-116"/>
      <path d="M 56.203125 29.59375 
L 56.203125 25.203125 
L 14.890625 25.203125 
Q 15.484375 15.921875 20.484375 11.0625 
Q 25.484375 6.203125 34.421875 6.203125 
Q 39.59375 6.203125 44.453125 7.46875 
Q 49.3125 8.734375 54.109375 11.28125 
L 54.109375 2.78125 
Q 49.265625 0.734375 44.1875 -0.34375 
Q 39.109375 -1.421875 33.890625 -1.421875 
Q 20.796875 -1.421875 13.15625 6.1875 
Q 5.515625 13.8125 5.515625 26.8125 
Q 5.515625 40.234375 12.765625 48.109375 
Q 20.015625 56 32.328125 56 
Q 43.359375 56 49.78125 48.890625 
Q 56.203125 41.796875 56.203125 29.59375 
z
M 47.21875 32.234375 
Q 47.125 39.59375 43.09375 43.984375 
Q 39.0625 48.390625 32.421875 48.390625 
Q 24.90625 48.390625 20.390625 44.140625 
Q 15.875 39.890625 15.1875 32.171875 
z
" id="DejaVuSans-101"/>
     </defs>
     <g transform="translate(433.654531 533.739266)scale(0.18 -0.18)">
      <use xlink:href="#DejaVuSans-68"/>
      <use x="77.001953" xlink:href="#DejaVuSans-97"/>
      <use x="138.28125" xlink:href="#DejaVuSans-116"/>
      <use x="177.490234" xlink:href="#DejaVuSans-101"/>
     </g>
    </g>
   </g>
   <g id="matplotlib.axis_2">
    <g id="ytick_1">
     <g id="line2d_12">
      <defs>
       <path d="M 0 0 
L -3.5 0 
" id="m967c701967" style="stroke:#000000;stroke-width:0.8;"/>
      </defs>
      <g>
       <use style="stroke:#000000;stroke-width:0.8;" x="64.565938" xlink:href="#m967c701967" y="403.658483"/>
      </g>
     </g>
     <g id="text_13">
      <!-- 0.25 -->
      <defs>
       <path d="M 10.6875 12.40625 
L 21 12.40625 
L 21 0 
L 10.6875 0 
z
" id="DejaVuSans-46"/>
      </defs>
      <g transform="translate(28.620625 408.597467)scale(0.13 -0.13)">
       <use xlink:href="#DejaVuSans-48"/>
       <use x="63.623047" xlink:href="#DejaVuSans-46"/>
       <use x="95.410156" xlink:href="#DejaVuSans-50"/>
       <use x="159.033203" xlink:href="#DejaVuSans-53"/>
      </g>
     </g>
    </g>
    <g id="ytick_2">
     <g id="line2d_13">
      <g>
       <use style="stroke:#000000;stroke-width:0.8;" x="64.565938" xlink:href="#m967c701967" y="345.5595"/>
      </g>
     </g>
     <g id="text_14">
      <!-- 0.50 -->
      <g transform="translate(28.620625 350.498484)scale(0.13 -0.13)">
       <use xlink:href="#DejaVuSans-48"/>
       <use x="63.623047" xlink:href="#DejaVuSans-46"/>
       <use x="95.410156" xlink:href="#DejaVuSans-53"/>
       <use x="159.033203" xlink:href="#DejaVuSans-48"/>
      </g>
     </g>
    </g>
    <g id="ytick_3">
     <g id="line2d_14">
      <g>
       <use style="stroke:#000000;stroke-width:0.8;" x="64.565938" xlink:href="#m967c701967" y="287.460516"/>
      </g>
     </g>
     <g id="text_15">
      <!-- 0.75 -->
      <g transform="translate(28.620625 292.399501)scale(0.13 -0.13)">
       <use xlink:href="#DejaVuSans-48"/>
       <use x="63.623047" xlink:href="#DejaVuSans-46"/>
       <use x="95.410156" xlink:href="#DejaVuSans-55"/>
       <use x="159.033203" xlink:href="#DejaVuSans-53"/>
      </g>
     </g>
    </g>
    <g id="ytick_4">
     <g id="line2d_15">
      <g>
       <use style="stroke:#000000;stroke-width:0.8;" x="64.565938" xlink:href="#m967c701967" y="229.361533"/>
      </g>
     </g>
     <g id="text_16">
      <!-- 1.00 -->
      <g transform="translate(28.620625 234.300518)scale(0.13 -0.13)">
       <use xlink:href="#DejaVuSans-49"/>
       <use x="63.623047" xlink:href="#DejaVuSans-46"/>
       <use x="95.410156" xlink:href="#DejaVuSans-48"/>
       <use x="159.033203" xlink:href="#DejaVuSans-48"/>
      </g>
     </g>
    </g>
    <g id="ytick_5">
     <g id="line2d_16">
      <g>
       <use style="stroke:#000000;stroke-width:0.8;" x="64.565938" xlink:href="#m967c701967" y="171.26255"/>
      </g>
     </g>
     <g id="text_17">
      <!-- 1.25 -->
      <g transform="translate(28.620625 176.201534)scale(0.13 -0.13)">
       <use xlink:href="#DejaVuSans-49"/>
       <use x="63.623047" xlink:href="#DejaVuSans-46"/>
       <use x="95.410156" xlink:href="#DejaVuSans-50"/>
       <use x="159.033203" xlink:href="#DejaVuSans-53"/>
      </g>
     </g>
    </g>
    <g id="ytick_6">
     <g id="line2d_17">
      <g>
       <use style="stroke:#000000;stroke-width:0.8;" x="64.565938" xlink:href="#m967c701967" y="113.163567"/>
      </g>
     </g>
     <g id="text_18">
      <!-- 1.50 -->
      <g transform="translate(28.620625 118.102551)scale(0.13 -0.13)">
       <use xlink:href="#DejaVuSans-49"/>
       <use x="63.623047" xlink:href="#DejaVuSans-46"/>
       <use x="95.410156" xlink:href="#DejaVuSans-53"/>
       <use x="159.033203" xlink:href="#DejaVuSans-48"/>
      </g>
     </g>
    </g>
    <g id="ytick_7">
     <g id="line2d_18">
      <g>
       <use style="stroke:#000000;stroke-width:0.8;" x="64.565938" xlink:href="#m967c701967" y="55.064583"/>
      </g>
     </g>
     <g id="text_19">
      <!-- 1.75 -->
      <g transform="translate(28.620625 60.003568)scale(0.13 -0.13)">
       <use xlink:href="#DejaVuSans-49"/>
       <use x="63.623047" xlink:href="#DejaVuSans-46"/>
       <use x="95.410156" xlink:href="#DejaVuSans-55"/>
       <use x="159.033203" xlink:href="#DejaVuSans-53"/>
      </g>
     </g>
    </g>
    <g id="text_20">
     <!-- US weekly incidental cases -->
     <defs>
      <path d="M 8.6875 72.90625 
L 18.609375 72.90625 
L 18.609375 28.609375 
Q 18.609375 16.890625 22.84375 11.734375 
Q 27.09375 6.59375 36.625 6.59375 
Q 46.09375 6.59375 50.34375 11.734375 
Q 54.59375 16.890625 54.59375 28.609375 
L 54.59375 72.90625 
L 64.5 72.90625 
L 64.5 27.390625 
Q 64.5 13.140625 57.4375 5.859375 
Q 50.390625 -1.421875 36.625 -1.421875 
Q 22.796875 -1.421875 15.734375 5.859375 
Q 8.6875 13.140625 8.6875 27.390625 
z
" id="DejaVuSans-85"/>
      <path d="M 53.515625 70.515625 
L 53.515625 60.890625 
Q 47.90625 63.578125 42.921875 64.890625 
Q 37.9375 66.21875 33.296875 66.21875 
Q 25.25 66.21875 20.875 63.09375 
Q 16.5 59.96875 16.5 54.203125 
Q 16.5 49.359375 19.40625 46.890625 
Q 22.3125 44.4375 30.421875 42.921875 
L 36.375 41.703125 
Q 47.40625 39.59375 52.65625 34.296875 
Q 57.90625 29 57.90625 20.125 
Q 57.90625 9.515625 50.796875 4.046875 
Q 43.703125 -1.421875 29.984375 -1.421875 
Q 24.8125 -1.421875 18.96875 -0.25 
Q 13.140625 0.921875 6.890625 3.21875 
L 6.890625 13.375 
Q 12.890625 10.015625 18.65625 8.296875 
Q 24.421875 6.59375 29.984375 6.59375 
Q 38.421875 6.59375 43.015625 9.90625 
Q 47.609375 13.234375 47.609375 19.390625 
Q 47.609375 24.75 44.3125 27.78125 
Q 41.015625 30.8125 33.5 32.328125 
L 27.484375 33.5 
Q 16.453125 35.6875 11.515625 40.375 
Q 6.59375 45.0625 6.59375 53.421875 
Q 6.59375 63.09375 13.40625 68.65625 
Q 20.21875 74.21875 32.171875 74.21875 
Q 37.3125 74.21875 42.625 73.28125 
Q 47.953125 72.359375 53.515625 70.515625 
z
" id="DejaVuSans-83"/>
      <path id="DejaVuSans-32"/>
      <path d="M 4.203125 54.6875 
L 13.1875 54.6875 
L 24.421875 12.015625 
L 35.59375 54.6875 
L 46.1875 54.6875 
L 57.421875 12.015625 
L 68.609375 54.6875 
L 77.59375 54.6875 
L 63.28125 0 
L 52.6875 0 
L 40.921875 44.828125 
L 29.109375 0 
L 18.5 0 
z
" id="DejaVuSans-119"/>
      <path d="M 9.078125 75.984375 
L 18.109375 75.984375 
L 18.109375 31.109375 
L 44.921875 54.6875 
L 56.390625 54.6875 
L 27.390625 29.109375 
L 57.625 0 
L 45.90625 0 
L 18.109375 26.703125 
L 18.109375 0 
L 9.078125 0 
z
" id="DejaVuSans-107"/>
      <path d="M 9.421875 75.984375 
L 18.40625 75.984375 
L 18.40625 0 
L 9.421875 0 
z
" id="DejaVuSans-108"/>
      <path d="M 32.171875 -5.078125 
Q 28.375 -14.84375 24.75 -17.8125 
Q 21.140625 -20.796875 15.09375 -20.796875 
L 7.90625 -20.796875 
L 7.90625 -13.28125 
L 13.1875 -13.28125 
Q 16.890625 -13.28125 18.9375 -11.515625 
Q 21 -9.765625 23.484375 -3.21875 
L 25.09375 0.875 
L 2.984375 54.6875 
L 12.5 54.6875 
L 29.59375 11.921875 
L 46.6875 54.6875 
L 56.203125 54.6875 
z
" id="DejaVuSans-121"/>
      <path d="M 9.421875 54.6875 
L 18.40625 54.6875 
L 18.40625 0 
L 9.421875 0 
z
M 9.421875 75.984375 
L 18.40625 75.984375 
L 18.40625 64.59375 
L 9.421875 64.59375 
z
" id="DejaVuSans-105"/>
      <path d="M 54.890625 33.015625 
L 54.890625 0 
L 45.90625 0 
L 45.90625 32.71875 
Q 45.90625 40.484375 42.875 44.328125 
Q 39.84375 48.1875 33.796875 48.1875 
Q 26.515625 48.1875 22.3125 43.546875 
Q 18.109375 38.921875 18.109375 30.90625 
L 18.109375 0 
L 9.078125 0 
L 9.078125 54.6875 
L 18.109375 54.6875 
L 18.109375 46.1875 
Q 21.34375 51.125 25.703125 53.5625 
Q 30.078125 56 35.796875 56 
Q 45.21875 56 50.046875 50.171875 
Q 54.890625 44.34375 54.890625 33.015625 
z
" id="DejaVuSans-110"/>
      <path d="M 48.78125 52.59375 
L 48.78125 44.1875 
Q 44.96875 46.296875 41.140625 47.34375 
Q 37.3125 48.390625 33.40625 48.390625 
Q 24.65625 48.390625 19.8125 42.84375 
Q 14.984375 37.3125 14.984375 27.296875 
Q 14.984375 17.28125 19.8125 11.734375 
Q 24.65625 6.203125 33.40625 6.203125 
Q 37.3125 6.203125 41.140625 7.25 
Q 44.96875 8.296875 48.78125 10.40625 
L 48.78125 2.09375 
Q 45.015625 0.34375 40.984375 -0.53125 
Q 36.96875 -1.421875 32.421875 -1.421875 
Q 20.0625 -1.421875 12.78125 6.34375 
Q 5.515625 14.109375 5.515625 27.296875 
Q 5.515625 40.671875 12.859375 48.328125 
Q 20.21875 56 33.015625 56 
Q 37.15625 56 41.109375 55.140625 
Q 45.0625 54.296875 48.78125 52.59375 
z
" id="DejaVuSans-99"/>
      <path d="M 45.40625 46.390625 
L 45.40625 75.984375 
L 54.390625 75.984375 
L 54.390625 0 
L 45.40625 0 
L 45.40625 8.203125 
Q 42.578125 3.328125 38.25 0.953125 
Q 33.9375 -1.421875 27.875 -1.421875 
Q 17.96875 -1.421875 11.734375 6.484375 
Q 5.515625 14.40625 5.515625 27.296875 
Q 5.515625 40.1875 11.734375 48.09375 
Q 17.96875 56 27.875 56 
Q 33.9375 56 38.25 53.625 
Q 42.578125 51.265625 45.40625 46.390625 
z
M 14.796875 27.296875 
Q 14.796875 17.390625 18.875 11.75 
Q 22.953125 6.109375 30.078125 6.109375 
Q 37.203125 6.109375 41.296875 11.75 
Q 45.40625 17.390625 45.40625 27.296875 
Q 45.40625 37.203125 41.296875 42.84375 
Q 37.203125 48.484375 30.078125 48.484375 
Q 22.953125 48.484375 18.875 42.84375 
Q 14.796875 37.203125 14.796875 27.296875 
z
" id="DejaVuSans-100"/>
      <path d="M 44.28125 53.078125 
L 44.28125 44.578125 
Q 40.484375 46.53125 36.375 47.5 
Q 32.28125 48.484375 27.875 48.484375 
Q 21.1875 48.484375 17.84375 46.4375 
Q 14.5 44.390625 14.5 40.28125 
Q 14.5 37.15625 16.890625 35.375 
Q 19.28125 33.59375 26.515625 31.984375 
L 29.59375 31.296875 
Q 39.15625 29.25 43.1875 25.515625 
Q 47.21875 21.78125 47.21875 15.09375 
Q 47.21875 7.46875 41.1875 3.015625 
Q 35.15625 -1.421875 24.609375 -1.421875 
Q 20.21875 -1.421875 15.453125 -0.5625 
Q 10.6875 0.296875 5.421875 2 
L 5.421875 11.28125 
Q 10.40625 8.6875 15.234375 7.390625 
Q 20.0625 6.109375 24.8125 6.109375 
Q 31.15625 6.109375 34.5625 8.28125 
Q 37.984375 10.453125 37.984375 14.40625 
Q 37.984375 18.0625 35.515625 20.015625 
Q 33.0625 21.96875 24.703125 23.78125 
L 21.578125 24.515625 
Q 13.234375 26.265625 9.515625 29.90625 
Q 5.8125 33.546875 5.8125 39.890625 
Q 5.8125 47.609375 11.28125 51.796875 
Q 16.75 56 26.8125 56 
Q 31.78125 56 36.171875 55.265625 
Q 40.578125 54.546875 44.28125 53.078125 
z
" id="DejaVuSans-115"/>
     </defs>
     <g transform="translate(20.877187 366.203906)rotate(-90)scale(0.18 -0.18)">
      <use xlink:href="#DejaVuSans-85"/>
      <use x="73.193359" xlink:href="#DejaVuSans-83"/>
      <use x="136.669922" xlink:href="#DejaVuSans-32"/>
      <use x="168.457031" xlink:href="#DejaVuSans-119"/>
      <use x="250.244141" xlink:href="#DejaVuSans-101"/>
      <use x="311.767578" xlink:href="#DejaVuSans-101"/>
      <use x="373.291016" xlink:href="#DejaVuSans-107"/>
      <use x="431.201172" xlink:href="#DejaVuSans-108"/>
      <use x="458.984375" xlink:href="#DejaVuSans-121"/>
      <use x="518.164062" xlink:href="#DejaVuSans-32"/>
      <use x="549.951172" xlink:href="#DejaVuSans-105"/>
      <use x="577.734375" xlink:href="#DejaVuSans-110"/>
      <use x="641.113281" xlink:href="#DejaVuSans-99"/>
      <use x="696.09375" xlink:href="#DejaVuSans-105"/>
      <use x="723.876953" xlink:href="#DejaVuSans-100"/>
      <use x="787.353516" xlink:href="#DejaVuSans-101"/>
      <use x="848.876953" xlink:href="#DejaVuSans-110"/>
      <use x="912.255859" xlink:href="#DejaVuSans-116"/>
      <use x="951.464844" xlink:href="#DejaVuSans-97"/>
      <use x="1012.744141" xlink:href="#DejaVuSans-108"/>
      <use x="1040.527344" xlink:href="#DejaVuSans-32"/>
      <use x="1072.314453" xlink:href="#DejaVuSans-99"/>
      <use x="1127.294922" xlink:href="#DejaVuSans-97"/>
      <use x="1188.574219" xlink:href="#DejaVuSans-115"/>
      <use x="1240.673828" xlink:href="#DejaVuSans-101"/>
      <use x="1302.197266" xlink:href="#DejaVuSans-115"/>
     </g>
    </g>
    <g id="text_21">
     <!-- 1e6 -->
     <g transform="translate(64.565938 23.877187)scale(0.1 -0.1)">
      <use xlink:href="#DejaVuSans-49"/>
      <use x="63.623047" xlink:href="#DejaVuSans-101"/>
      <use x="125.146484" xlink:href="#DejaVuSans-54"/>
     </g>
    </g>
   </g>
   <g id="line2d_19">
    <path clip-path="url(#pde96f43f48)" d="M 309.901475 418.214138 
L 326.041971 411.201358 
L 342.182466 413.930151 
L 358.322962 412.909003 
L 374.463458 416.583183 
L 390.603954 420.62083 
L 406.74445 424.976162 
L 422.884946 425.784435 
L 439.025442 427.466749 
L 455.165938 426.922246 
L 471.306433 427.365657 
L 487.446929 419.788388 
L 503.587425 402.530433 
L 519.727921 385.25807 
L 535.868417 367.710551 
L 552.008913 353.579948 
L 568.149409 353.319665 
L 584.289904 359.160704 
L 600.4304 374.065882 
L 616.570896 377.342897 
L 632.711392 390.656628 
L 648.851888 393.427484 
L 664.992384 395.785838 
L 681.13288 405.925738 
L 697.273376 396.722162 
L 713.413871 389.721699 
L 729.554367 391.448866 
L 745.694863 383.767483 
L 761.835359 371.482801 
L 777.975855 352.81188 
L 794.116351 334.250184 
L 810.256847 292.769834 
" style="fill:none;stroke:#000080;stroke-linecap:square;stroke-width:1.5;"/>
   </g>
   <g id="line2d_20">
    <path clip-path="url(#pde96f43f48)" d="M 503.587425 398.909555 
L 519.727921 395.362482 
L 535.868417 388.390519 
L 552.008913 383.577116 
L 568.149409 386.140647 
L 584.289904 407.533759 
L 600.4304 406.942472 
L 616.570896 416.097321 
L 632.711392 420.546151 
L 648.851888 424.416334 
L 664.992384 431.192365 
L 681.13288 428.176647 
L 697.273376 426.966051 
L 713.413871 422.406961 
L 729.554367 415.906556 
L 745.694863 405.58998 
L 761.835359 402.593058 
L 777.975855 291.649105 
L 794.116351 209.605787 
L 810.256847 56.020776 
" style="fill:none;stroke:#0000ad;stroke-linecap:square;stroke-width:1.5;"/>
   </g>
   <g id="line2d_21">
    <path clip-path="url(#pde96f43f48)" d="M 519.727921 429.745804 
L 535.868417 368.279361 
L 552.008913 101.190317 
L 568.149409 242.360497 
L 584.289904 353.989685 
L 600.4304 336.072254 
L 616.570896 420.823791 
L 632.711392 422.985393 
L 648.851888 427.16493 
L 664.992384 435.521576 
L 681.13288 438.198096 
L 697.273376 432.030394 
L 729.554367 432.420301 
L 745.694863 421.299321 
L 761.835359 371.494031 
L 777.975855 318.383298 
L 794.116351 298.339928 
L 810.256847 24.309659 
" style="fill:none;stroke:#0000da;stroke-linecap:square;stroke-width:1.5;"/>
   </g>
   <g id="line2d_22">
    <path clip-path="url(#pde96f43f48)" d="M 519.727921 389.845334 
L 535.868417 388.514402 
L 552.008913 379.660814 
L 568.149409 369.425865 
L 584.289904 370.901347 
L 600.4304 387.312915 
L 616.570896 402.744702 
L 632.711392 417.939678 
L 648.851888 423.390525 
L 664.992384 428.628961 
L 681.13288 433.307324 
L 697.273376 435.498353 
L 713.413871 436.845552 
L 729.554367 433.74539 
L 745.694863 427.473954 
L 761.835359 428.734934 
L 777.975855 398.346144 
L 794.116351 360.15745 
L 810.256847 293.83444 
" style="fill:none;stroke:#0000ff;stroke-linecap:square;stroke-width:1.5;"/>
   </g>
   <g id="line2d_23">
    <path clip-path="url(#pde96f43f48)" d="M 519.727921 396.740167 
L 535.868417 390.636157 
L 552.008913 368.387647 
L 568.149409 376.174969 
L 584.289904 402.129874 
L 600.4304 409.966759 
L 616.570896 408.413286 
L 632.711392 421.08665 
L 648.851888 409.610565 
L 664.992384 406.590402 
L 681.13288 411.819125 
L 697.273376 388.966642 
L 713.413871 392.865685 
L 745.694863 376.045471 
L 777.975855 346.523252 
L 810.256847 280.577228 
" style="fill:none;stroke:#0020ff;stroke-linecap:square;stroke-width:1.5;"/>
   </g>
   <g id="line2d_24">
    <path clip-path="url(#pde96f43f48)" d="M 519.727921 378.042293 
L 535.868417 365.895306 
L 552.008913 355.760984 
L 568.149409 330.594015 
L 584.289904 342.010349 
L 600.4304 359.288406 
L 616.570896 375.261792 
L 632.711392 393.248307 
L 648.851888 405.050883 
L 664.992384 410.955948 
L 681.13288 416.881695 
L 697.273376 419.0582 
L 713.413871 402.739357 
L 729.554367 390.822907 
L 745.694863 393.69718 
L 761.835359 380.87671 
L 777.975855 380.804899 
L 794.116351 374.830232 
" style="fill:none;stroke:#004cff;stroke-linecap:square;stroke-width:1.5;"/>
   </g>
   <g id="line2d_25">
    <path clip-path="url(#pde96f43f48)" d="M 519.727921 331.515349 
L 535.868417 361.329191 
L 552.008913 373.647569 
L 568.149409 383.221352 
L 584.289904 406.851836 
L 600.4304 415.295477 
L 616.570896 406.608517 
L 632.711392 423.480694 
L 648.851888 413.301055 
L 664.992384 388.07773 
L 681.13288 405.89204 
L 697.273376 406.559249 
L 713.413871 365.006856 
L 729.554367 348.873698 
L 745.694863 372.330583 
L 761.835359 339.593152 
L 777.975855 298.309921 
L 794.116351 6.407382 
L 797.486931 -1 
" style="fill:none;stroke:#0074ff;stroke-linecap:square;stroke-width:1.5;"/>
   </g>
   <g id="line2d_26">
    <path clip-path="url(#pde96f43f48)" d="M 519.727921 342.215902 
L 535.868417 326.709664 
L 552.008913 319.701975 
L 568.149409 319.185665 
L 584.289904 354.295201 
L 616.570896 405.376025 
L 632.711392 419.552958 
L 648.851888 427.982193 
L 664.992384 418.272457 
L 681.13288 421.893628 
L 697.273376 433.773637 
L 713.413871 425.286776 
L 729.554367 386.174415 
L 745.694863 378.417954 
L 761.835359 402.010633 
L 777.975855 290.754741 
L 794.116351 281.161021 
L 810.256847 197.730711 
" style="fill:none;stroke:#009cff;stroke-linecap:square;stroke-width:1.5;"/>
   </g>
   <g id="line2d_27">
    <path clip-path="url(#pde96f43f48)" d="M 519.727921 357.418664 
L 535.868417 337.144443 
L 552.008913 342.100751 
L 568.149409 358.500932 
L 584.289904 367.268998 
L 616.570896 394.461182 
L 632.711392 393.770966 
L 648.851888 391.260392 
L 664.992384 394.003826 
L 681.13288 402.192994 
L 697.273376 409.113745 
L 713.413871 400.800013 
L 729.554367 410.925969 
L 745.694863 407.188577 
L 761.835359 396.995227 
L 777.975855 362.823264 
L 794.116351 339.176513 
L 810.256847 323.32223 
" style="fill:none;stroke:#00c4ff;stroke-linecap:square;stroke-width:1.5;"/>
   </g>
   <g id="line2d_28">
    <path clip-path="url(#pde96f43f48)" d="M 519.727921 374.880867 
L 535.868417 344.945815 
L 552.008913 336.422154 
L 568.149409 351.731715 
L 584.289904 377.6753 
L 600.4304 404.417352 
L 616.570896 405.528217 
L 632.711392 405.415923 
L 648.851888 396.236827 
L 664.992384 423.740484 
L 681.13288 434.28669 
L 697.273376 418.470074 
L 713.413871 417.524781 
L 729.554367 422.072615 
L 745.694863 411.880131 
L 761.835359 409.104092 
L 777.975855 373.419034 
L 794.116351 327.606582 
L 810.256847 221.099594 
" style="fill:none;stroke:#09f0ee;stroke-linecap:square;stroke-width:1.5;"/>
   </g>
   <g id="line2d_29">
    <path clip-path="url(#pde96f43f48)" d="M 535.868417 286.277695 
L 552.008913 282.483489 
L 568.149409 301.19724 
L 584.289904 273.281638 
" style="fill:none;stroke:#29ffce;stroke-linecap:square;stroke-width:1.5;"/>
   </g>
   <g id="line2d_30">
    <path clip-path="url(#pde96f43f48)" d="M 535.868417 345.987502 
L 552.008913 271.348321 
L 568.149409 337.954617 
L 584.289904 376.796269 
L 600.4304 402.141427 
L 616.570896 404.365124 
L 632.711392 416.743661 
L 648.851888 403.743323 
L 664.992384 402.844457 
L 681.13288 412.213495 
L 697.273376 390.111167 
L 713.413871 388.431808 
L 729.554367 392.578 
L 745.694863 362.630278 
L 761.835359 352.036147 
L 777.975855 310.069909 
L 794.116351 295.521805 
L 810.256847 204.475538 
" style="fill:none;stroke:#49ffad;stroke-linecap:square;stroke-width:1.5;"/>
   </g>
   <g id="line2d_31">
    <path clip-path="url(#pde96f43f48)" d="M 552.008913 346.552063 
L 568.149409 351.731703 
L 584.289904 369.085172 
L 600.4304 381.637574 
L 616.570896 403.554834 
L 632.711392 414.182301 
L 648.851888 404.397037 
L 664.992384 401.049839 
L 681.13288 411.819066 
L 697.273376 402.993366 
L 713.413871 392.865784 
L 729.554367 392.578077 
L 745.694863 384.0689 
L 761.835359 371.482801 
L 777.975855 338.44005 
L 794.116351 298.3399 
L 810.256847 208.181665 
" style="fill:none;stroke:#6aff8d;stroke-linecap:square;stroke-width:1.5;"/>
   </g>
   <g id="line2d_32">
    <path clip-path="url(#pde96f43f48)" d="M 568.149409 418.626873 
L 584.289904 395.440498 
L 600.4304 402.926668 
L 616.570896 375.32663 
L 632.711392 411.621065 
L 648.851888 407.691947 
L 664.992384 401.049839 
L 681.13288 418.724479 
L 697.273376 299.900903 
L 713.413871 350.034748 
L 729.554367 392.706592 
L 745.694863 357.897632 
L 761.835359 346.71474 
L 777.975855 313.69151 
L 794.116351 205.385942 
L 810.256847 66.64557 
" style="fill:none;stroke:#8dff6a;stroke-linecap:square;stroke-width:1.5;"/>
   </g>
   <g id="line2d_33">
    <path clip-path="url(#pde96f43f48)" d="M 568.149409 255.267173 
L 584.289904 295.807899 
L 600.4304 353.292289 
L 616.570896 379.655028 
L 632.711392 394.146657 
L 648.851888 399.639335 
L 664.992384 398.281515 
L 681.13288 402.333803 
L 697.273376 399.427367 
L 713.413871 389.429368 
L 729.554367 388.913286 
L 745.694863 355.263145 
L 761.835359 313.976381 
L 777.975855 245.080631 
L 794.116351 186.514788 
L 810.256847 88.508659 
" style="fill:none;stroke:#adff49;stroke-linecap:square;stroke-width:1.5;"/>
   </g>
   <g id="line2d_34">
    <path clip-path="url(#pde96f43f48)" d="M 584.289904 370.921565 
L 600.4304 343.712649 
L 616.570896 379.332206 
L 632.711392 384.870201 
L 648.851888 359.384269 
L 664.992384 329.602498 
L 681.13288 337.749137 
L 697.273376 325.964339 
L 713.413871 354.401003 
L 729.554367 358.875554 
L 745.694863 338.694524 
L 761.835359 331.056134 
L 777.975855 280.41706 
L 794.116351 268.322014 
L 810.256847 155.925348 
" style="fill:none;stroke:#ceff29;stroke-linecap:square;stroke-width:1.5;"/>
   </g>
   <g id="line2d_35">
    <path clip-path="url(#pde96f43f48)" d="M 584.289904 366.580177 
L 600.4304 346.878811 
L 616.570896 377.192769 
L 632.711392 375.53997 
L 648.851888 349.102143 
L 664.992384 311.259952 
L 681.13288 326.170242 
L 697.273376 317.919025 
L 713.413871 307.246009 
L 729.554367 348.986178 
L 745.694863 326.503498 
L 761.835359 319.873939 
L 777.975855 264.568123 
L 794.116351 245.964828 
L 810.256847 147.096394 
" style="fill:none;stroke:#eeff09;stroke-linecap:square;stroke-width:1.5;"/>
   </g>
   <g id="line2d_36">
    <path clip-path="url(#pde96f43f48)" d="M 584.289904 393.358231 
L 600.4304 375.895303 
L 616.570896 400.377052 
L 632.711392 411.976863 
L 648.851888 388.131414 
L 664.992384 378.328256 
L 681.13288 371.288751 
L 697.273376 349.145369 
L 713.413871 357.538813 
L 729.554367 386.42005 
L 745.694863 371.31292 
L 761.835359 365.861376 
L 777.975855 331.077747 
L 794.116351 316.666411 
L 810.256847 175.589065 
" style="fill:none;stroke:#ffd700;stroke-linecap:square;stroke-width:1.5;"/>
   </g>
   <g id="line2d_37">
    <path clip-path="url(#pde96f43f48)" d="M 584.289904 366.580177 
L 600.4304 346.878811 
L 616.570896 377.192769 
L 632.711392 388.353816 
L 648.851888 364.726122 
L 664.992384 352.78283 
L 681.13288 355.287594 
L 697.273376 324.390787 
L 713.413871 336.66501 
L 729.554367 371.537414 
L 745.694863 349.84581 
L 761.835359 343.583902 
L 777.975855 301.839318 
L 794.116351 276.528379 
L 810.256847 175.589065 
" style="fill:none;stroke:#ffb200;stroke-linecap:square;stroke-width:1.5;"/>
   </g>
   <g id="line2d_38">
    <path clip-path="url(#pde96f43f48)" d="M 584.289904 381.278755 
L 600.4304 358.074021 
L 616.570896 388.260161 
L 632.711392 388.353816 
L 648.851888 364.726122 
L 664.992384 352.78283 
L 681.13288 355.287594 
L 697.273376 324.390787 
L 713.413871 336.66501 
L 729.554367 371.537414 
L 745.694863 349.84581 
L 761.835359 343.583902 
L 777.975855 301.839318 
L 794.116351 276.528379 
L 810.256847 123.107556 
" style="fill:none;stroke:#ff8d00;stroke-linecap:square;stroke-width:1.5;"/>
   </g>
   <g id="line2d_39">
    <path clip-path="url(#pde96f43f48)" d="M 600.4304 375.962067 
L 616.570896 381.097647 
L 632.711392 390.451989 
L 648.851888 393.597344 
L 664.992384 395.533731 
L 681.13288 408.547283 
L 697.273376 395.858161 
L 713.413871 386.079212 
L 729.554367 388.563924 
L 745.694863 384.370293 
L 761.835359 370.057883 
L 777.975855 351.963788 
L 794.116351 334.732029 
L 810.256847 287.019518 
" style="fill:none;stroke:#ff6800;stroke-linecap:square;stroke-width:1.5;"/>
   </g>
   <g id="line2d_40">
    <path clip-path="url(#pde96f43f48)" d="M 648.851888 394.175343 
L 664.992384 392.102574 
L 681.13288 401.048851 
L 697.273376 388.397262 
L 713.413871 395.717492 
L 729.554367 400.886126 
L 745.694863 396.105316 
L 761.835359 359.388934 
L 777.975855 337.212078 
L 794.116351 295.243263 
L 810.256847 235.00604 
" style="fill:none;stroke:#ff3f00;stroke-linecap:square;stroke-width:1.5;"/>
   </g>
   <g id="line2d_41">
    <path clip-path="url(#pde96f43f48)" d="M 761.835359 332.655862 
L 777.975855 307.698367 
L 794.116351 305.685953 
L 810.256847 211.887911 
" style="fill:none;stroke:#ff1a00;stroke-linecap:square;stroke-width:1.5;"/>
   </g>
   <g id="line2d_42">
    <path clip-path="url(#pde96f43f48)" d="M 777.975855 339.667799 
L 810.256847 256.808078 
" style="fill:none;stroke:#da0000;stroke-linecap:square;stroke-width:1.5;"/>
   </g>
   <g id="line2d_43">
    <path clip-path="url(#pde96f43f48)" d="M 794.116351 301.398822 
L 810.256847 246.07882 
" style="fill:none;stroke:#ad0000;stroke-linecap:square;stroke-width:1.5;"/>
   </g>
   <g id="line2d_44">
    <path clip-path="url(#pde96f43f48)" d="M 794.116351 324.009765 
L 810.256847 320.856493 
" style="fill:none;stroke:#800000;stroke-linecap:square;stroke-width:1.5;"/>
   </g>
   <g id="line2d_45">
    <path clip-path="url(#pde96f43f48)" d="M 100.075028 461.756072 
L 116.215524 461.756537 
L 132.35602 461.757002 
L 148.496516 461.757002 
L 164.637012 461.755375 
L 180.777508 461.669621 
L 196.918004 461.157188 
L 213.058499 456.399113 
L 229.198995 438.783502 
L 245.339491 417.943396 
L 261.479987 410.781418 
L 277.620483 414.473725 
L 293.760979 413.421436 
L 309.901475 416.67405 
L 326.041971 420.653365 
L 342.182466 424.942465 
L 358.322962 425.80628 
L 374.463458 427.545067 
L 390.603954 427.948041 
L 406.74445 427.434911 
L 422.884946 420.058199 
L 439.025442 402.64849 
L 455.165938 384.854863 
L 471.306433 367.7066 
L 487.446929 353.882992 
L 503.587425 353.590871 
L 519.727921 359.090288 
L 535.868417 374.654541 
L 552.008913 377.602483 
L 568.149409 390.624557 
L 584.289904 393.455372 
L 600.4304 394.442822 
L 616.570896 405.911794 
L 632.711392 396.180912 
L 648.851888 390.607127 
L 664.992384 391.595972 
L 681.13288 383.227627 
L 697.273376 371.452125 
L 713.413871 350.328264 
L 729.554367 331.47282 
L 745.694863 283.64504 
L 761.835359 225.168181 
L 777.975855 186.020621 
L 794.116351 196.676207 
L 810.256847 151.128696 
" style="fill:none;stroke:#000000;stroke-linecap:square;stroke-width:3;"/>
   </g>
   <g id="patch_3">
    <path d="M 64.565938 461.757187 
L 64.565938 26.877187 
" style="fill:none;stroke:#000000;stroke-linecap:square;stroke-linejoin:miter;stroke-width:0.8;"/>
   </g>
   <g id="patch_4">
    <path d="M 845.765938 461.757187 
L 845.765938 26.877187 
" style="fill:none;stroke:#000000;stroke-linecap:square;stroke-linejoin:miter;stroke-width:0.8;"/>
   </g>
   <g id="patch_5">
    <path d="M 64.565937 461.757187 
L 845.765938 461.757187 
" style="fill:none;stroke:#000000;stroke-linecap:square;stroke-linejoin:miter;stroke-width:0.8;"/>
   </g>
   <g id="patch_6">
    <path d="M 64.565937 26.877187 
L 845.765938 26.877187 
" style="fill:none;stroke:#000000;stroke-linecap:square;stroke-linejoin:miter;stroke-width:0.8;"/>
   </g>
   <g id="text_22">
    <!-- 4-week-ahead Forecasts -->
    <defs>
     <path d="M 54.890625 33.015625 
L 54.890625 0 
L 45.90625 0 
L 45.90625 32.71875 
Q 45.90625 40.484375 42.875 44.328125 
Q 39.84375 48.1875 33.796875 48.1875 
Q 26.515625 48.1875 22.3125 43.546875 
Q 18.109375 38.921875 18.109375 30.90625 
L 18.109375 0 
L 9.078125 0 
L 9.078125 75.984375 
L 18.109375 75.984375 
L 18.109375 46.1875 
Q 21.34375 51.125 25.703125 53.5625 
Q 30.078125 56 35.796875 56 
Q 45.21875 56 50.046875 50.171875 
Q 54.890625 44.34375 54.890625 33.015625 
z
" id="DejaVuSans-104"/>
     <path d="M 9.8125 72.90625 
L 51.703125 72.90625 
L 51.703125 64.59375 
L 19.671875 64.59375 
L 19.671875 43.109375 
L 48.578125 43.109375 
L 48.578125 34.8125 
L 19.671875 34.8125 
L 19.671875 0 
L 9.8125 0 
z
" id="DejaVuSans-70"/>
     <path d="M 30.609375 48.390625 
Q 23.390625 48.390625 19.1875 42.75 
Q 14.984375 37.109375 14.984375 27.296875 
Q 14.984375 17.484375 19.15625 11.84375 
Q 23.34375 6.203125 30.609375 6.203125 
Q 37.796875 6.203125 41.984375 11.859375 
Q 46.1875 17.53125 46.1875 27.296875 
Q 46.1875 37.015625 41.984375 42.703125 
Q 37.796875 48.390625 30.609375 48.390625 
z
M 30.609375 56 
Q 42.328125 56 49.015625 48.375 
Q 55.71875 40.765625 55.71875 27.296875 
Q 55.71875 13.875 49.015625 6.21875 
Q 42.328125 -1.421875 30.609375 -1.421875 
Q 18.84375 -1.421875 12.171875 6.21875 
Q 5.515625 13.875 5.515625 27.296875 
Q 5.515625 40.765625 12.171875 48.375 
Q 18.84375 56 30.609375 56 
z
" id="DejaVuSans-111"/>
     <path d="M 41.109375 46.296875 
Q 39.59375 47.171875 37.8125 47.578125 
Q 36.03125 48 33.890625 48 
Q 26.265625 48 22.1875 43.046875 
Q 18.109375 38.09375 18.109375 28.8125 
L 18.109375 0 
L 9.078125 0 
L 9.078125 54.6875 
L 18.109375 54.6875 
L 18.109375 46.1875 
Q 20.953125 51.171875 25.484375 53.578125 
Q 30.03125 56 36.53125 56 
Q 37.453125 56 38.578125 55.875 
Q 39.703125 55.765625 41.0625 55.515625 
z
" id="DejaVuSans-114"/>
    </defs>
    <g transform="translate(345.690781 20.877187)scale(0.18 -0.18)">
     <use xlink:href="#DejaVuSans-52"/>
     <use x="63.623047" xlink:href="#DejaVuSans-45"/>
     <use x="99.707031" xlink:href="#DejaVuSans-119"/>
     <use x="181.494141" xlink:href="#DejaVuSans-101"/>
     <use x="243.017578" xlink:href="#DejaVuSans-101"/>
     <use x="304.541016" xlink:href="#DejaVuSans-107"/>
     <use x="362.451172" xlink:href="#DejaVuSans-45"/>
     <use x="398.535156" xlink:href="#DejaVuSans-97"/>
     <use x="459.814453" xlink:href="#DejaVuSans-104"/>
     <use x="523.193359" xlink:href="#DejaVuSans-101"/>
     <use x="584.716797" xlink:href="#DejaVuSans-97"/>
     <use x="645.996094" xlink:href="#DejaVuSans-100"/>
     <use x="709.472656" xlink:href="#DejaVuSans-32"/>
     <use x="741.259766" xlink:href="#DejaVuSans-70"/>
     <use x="795.154297" xlink:href="#DejaVuSans-111"/>
     <use x="856.335938" xlink:href="#DejaVuSans-114"/>
     <use x="895.199219" xlink:href="#DejaVuSans-101"/>
     <use x="956.722656" xlink:href="#DejaVuSans-99"/>
     <use x="1011.703125" xlink:href="#DejaVuSans-97"/>
     <use x="1072.982422" xlink:href="#DejaVuSans-115"/>
     <use x="1125.082031" xlink:href="#DejaVuSans-116"/>
     <use x="1164.291016" xlink:href="#DejaVuSans-115"/>
    </g>
   </g>
  </g>
 </g>
 <defs>
  <clipPath id="pde96f43f48">
   <rect height="434.88" width="781.2" x="64.565938" y="26.877187"/>
  </clipPath>
 </defs>
</svg>
