<?xml version="1.0" encoding="utf-8" standalone="no"?>
<!DOCTYPE svg PUBLIC "-//W3C//DTD SVG 1.1//EN"
  "http://www.w3.org/Graphics/SVG/1.1/DTD/svg11.dtd">
<!-- Created with matplotlib (https://matplotlib.org/) -->
<svg height="287.185628pt" version="1.1" viewBox="0 0 287.877245 287.185628" width="287.877245pt" xmlns="http://www.w3.org/2000/svg" xmlns:xlink="http://www.w3.org/1999/xlink">
 <defs>
  <style type="text/css">
*{stroke-linecap:butt;stroke-linejoin:round;}
  </style>
 </defs>
 <g id="figure_1">
  <g id="patch_1">
   <path d="M 0 287.185628 
L 287.877245 287.185628 
L 287.877245 0 
L 0 0 
z
" style="fill:#ffffff;"/>
  </g>
  <g id="axes_1">
   <g id="patch_2">
    <path d="M 48.982813 222.919125 
L 262.483056 222.919125 
L 262.483056 22.318125 
L 48.982813 22.318125 
z
" style="fill:#ffffff;"/>
   </g>
   <g id="matplotlib.axis_1">
    <g id="xtick_1">
     <g id="line2d_1">
      <defs>
       <path d="M 0 0 
L 0 3.5 
" id="ma89927fd4d" style="stroke:#000000;stroke-width:0.8;"/>
      </defs>
      <g>
       <use style="stroke:#000000;stroke-width:0.8;" x="48.982812" xlink:href="#ma89927fd4d" y="222.919125"/>
      </g>
     </g>
     <g id="text_1">
      <!-- 2020-04 -->
      <defs>
       <path d="M 19.1875 8.296875 
L 53.609375 8.296875 
L 53.609375 0 
L 7.328125 0 
L 7.328125 8.296875 
Q 12.9375 14.109375 22.625 23.890625 
Q 32.328125 33.6875 34.8125 36.53125 
Q 39.546875 41.84375 41.421875 45.53125 
Q 43.3125 49.21875 43.3125 52.78125 
Q 43.3125 58.59375 39.234375 62.25 
Q 35.15625 65.921875 28.609375 65.921875 
Q 23.96875 65.921875 18.8125 64.3125 
Q 13.671875 62.703125 7.8125 59.421875 
L 7.8125 69.390625 
Q 13.765625 71.78125 18.9375 73 
Q 24.125 74.21875 28.421875 74.21875 
Q 39.75 74.21875 46.484375 68.546875 
Q 53.21875 62.890625 53.21875 53.421875 
Q 53.21875 48.921875 51.53125 44.890625 
Q 49.859375 40.875 45.40625 35.40625 
Q 44.1875 33.984375 37.640625 27.21875 
Q 31.109375 20.453125 19.1875 8.296875 
z
" id="DejaVuSans-50"/>
       <path d="M 31.78125 66.40625 
Q 24.171875 66.40625 20.328125 58.90625 
Q 16.5 51.421875 16.5 36.375 
Q 16.5 21.390625 20.328125 13.890625 
Q 24.171875 6.390625 31.78125 6.390625 
Q 39.453125 6.390625 43.28125 13.890625 
Q 47.125 21.390625 47.125 36.375 
Q 47.125 51.421875 43.28125 58.90625 
Q 39.453125 66.40625 31.78125 66.40625 
z
M 31.78125 74.21875 
Q 44.046875 74.21875 50.515625 64.515625 
Q 56.984375 54.828125 56.984375 36.375 
Q 56.984375 17.96875 50.515625 8.265625 
Q 44.046875 -1.421875 31.78125 -1.421875 
Q 19.53125 -1.421875 13.0625 8.265625 
Q 6.59375 17.96875 6.59375 36.375 
Q 6.59375 54.828125 13.0625 64.515625 
Q 19.53125 74.21875 31.78125 74.21875 
z
" id="DejaVuSans-48"/>
       <path d="M 4.890625 31.390625 
L 31.203125 31.390625 
L 31.203125 23.390625 
L 4.890625 23.390625 
z
" id="DejaVuSans-45"/>
       <path d="M 37.796875 64.3125 
L 12.890625 25.390625 
L 37.796875 25.390625 
z
M 35.203125 72.90625 
L 47.609375 72.90625 
L 47.609375 25.390625 
L 58.015625 25.390625 
L 58.015625 17.1875 
L 47.609375 17.1875 
L 47.609375 0 
L 37.796875 0 
L 37.796875 17.1875 
L 4.890625 17.1875 
L 4.890625 26.703125 
z
" id="DejaVuSans-52"/>
      </defs>
      <g transform="translate(36.16153 264.836942)rotate(-45)scale(0.1 -0.1)">
       <use xlink:href="#DejaVuSans-50"/>
       <use x="63.623047" xlink:href="#DejaVuSans-48"/>
       <use x="127.246094" xlink:href="#DejaVuSans-50"/>
       <use x="190.869141" xlink:href="#DejaVuSans-48"/>
       <use x="254.492188" xlink:href="#DejaVuSans-45"/>
       <use x="290.576172" xlink:href="#DejaVuSans-48"/>
       <use x="354.199219" xlink:href="#DejaVuSans-52"/>
      </g>
     </g>
    </g>
    <g id="xtick_2">
     <g id="line2d_2">
      <g>
       <use style="stroke:#000000;stroke-width:0.8;" x="58.798916" xlink:href="#ma89927fd4d" y="222.919125"/>
      </g>
     </g>
     <g id="text_2">
      <!-- 2020-05 -->
      <defs>
       <path d="M 10.796875 72.90625 
L 49.515625 72.90625 
L 49.515625 64.59375 
L 19.828125 64.59375 
L 19.828125 46.734375 
Q 21.96875 47.46875 24.109375 47.828125 
Q 26.265625 48.1875 28.421875 48.1875 
Q 40.625 48.1875 47.75 41.5 
Q 54.890625 34.8125 54.890625 23.390625 
Q 54.890625 11.625 47.5625 5.09375 
Q 40.234375 -1.421875 26.90625 -1.421875 
Q 22.3125 -1.421875 17.546875 -0.640625 
Q 12.796875 0.140625 7.71875 1.703125 
L 7.71875 11.625 
Q 12.109375 9.234375 16.796875 8.0625 
Q 21.484375 6.890625 26.703125 6.890625 
Q 35.15625 6.890625 40.078125 11.328125 
Q 45.015625 15.765625 45.015625 23.390625 
Q 45.015625 31 40.078125 35.4375 
Q 35.15625 39.890625 26.703125 39.890625 
Q 22.75 39.890625 18.8125 39.015625 
Q 14.890625 38.140625 10.796875 36.28125 
z
" id="DejaVuSans-53"/>
      </defs>
      <g transform="translate(45.977633 264.836942)rotate(-45)scale(0.1 -0.1)">
       <use xlink:href="#DejaVuSans-50"/>
       <use x="63.623047" xlink:href="#DejaVuSans-48"/>
       <use x="127.246094" xlink:href="#DejaVuSans-50"/>
       <use x="190.869141" xlink:href="#DejaVuSans-48"/>
       <use x="254.492188" xlink:href="#DejaVuSans-45"/>
       <use x="290.576172" xlink:href="#DejaVuSans-48"/>
       <use x="354.199219" xlink:href="#DejaVuSans-53"/>
      </g>
     </g>
    </g>
    <g id="xtick_3">
     <g id="line2d_3">
      <g>
       <use style="stroke:#000000;stroke-width:0.8;" x="71.069045" xlink:href="#ma89927fd4d" y="222.919125"/>
      </g>
     </g>
     <g id="text_3">
      <!-- 2020-06 -->
      <defs>
       <path d="M 33.015625 40.375 
Q 26.375 40.375 22.484375 35.828125 
Q 18.609375 31.296875 18.609375 23.390625 
Q 18.609375 15.53125 22.484375 10.953125 
Q 26.375 6.390625 33.015625 6.390625 
Q 39.65625 6.390625 43.53125 10.953125 
Q 47.40625 15.53125 47.40625 23.390625 
Q 47.40625 31.296875 43.53125 35.828125 
Q 39.65625 40.375 33.015625 40.375 
z
M 52.59375 71.296875 
L 52.59375 62.3125 
Q 48.875 64.0625 45.09375 64.984375 
Q 41.3125 65.921875 37.59375 65.921875 
Q 27.828125 65.921875 22.671875 59.328125 
Q 17.53125 52.734375 16.796875 39.40625 
Q 19.671875 43.65625 24.015625 45.921875 
Q 28.375 48.1875 33.59375 48.1875 
Q 44.578125 48.1875 50.953125 41.515625 
Q 57.328125 34.859375 57.328125 23.390625 
Q 57.328125 12.15625 50.6875 5.359375 
Q 44.046875 -1.421875 33.015625 -1.421875 
Q 20.359375 -1.421875 13.671875 8.265625 
Q 6.984375 17.96875 6.984375 36.375 
Q 6.984375 53.65625 15.1875 63.9375 
Q 23.390625 74.21875 37.203125 74.21875 
Q 40.921875 74.21875 44.703125 73.484375 
Q 48.484375 72.75 52.59375 71.296875 
z
" id="DejaVuSans-54"/>
      </defs>
      <g transform="translate(58.247762 264.836942)rotate(-45)scale(0.1 -0.1)">
       <use xlink:href="#DejaVuSans-50"/>
       <use x="63.623047" xlink:href="#DejaVuSans-48"/>
       <use x="127.246094" xlink:href="#DejaVuSans-50"/>
       <use x="190.869141" xlink:href="#DejaVuSans-48"/>
       <use x="254.492188" xlink:href="#DejaVuSans-45"/>
       <use x="290.576172" xlink:href="#DejaVuSans-48"/>
       <use x="354.199219" xlink:href="#DejaVuSans-54"/>
      </g>
     </g>
    </g>
    <g id="xtick_4">
     <g id="line2d_4">
      <g>
       <use style="stroke:#000000;stroke-width:0.8;" x="80.885148" xlink:href="#ma89927fd4d" y="222.919125"/>
      </g>
     </g>
     <g id="text_4">
      <!-- 2020-07 -->
      <defs>
       <path d="M 8.203125 72.90625 
L 55.078125 72.90625 
L 55.078125 68.703125 
L 28.609375 0 
L 18.3125 0 
L 43.21875 64.59375 
L 8.203125 64.59375 
z
" id="DejaVuSans-55"/>
      </defs>
      <g transform="translate(68.063865 264.836942)rotate(-45)scale(0.1 -0.1)">
       <use xlink:href="#DejaVuSans-50"/>
       <use x="63.623047" xlink:href="#DejaVuSans-48"/>
       <use x="127.246094" xlink:href="#DejaVuSans-50"/>
       <use x="190.869141" xlink:href="#DejaVuSans-48"/>
       <use x="254.492188" xlink:href="#DejaVuSans-45"/>
       <use x="290.576172" xlink:href="#DejaVuSans-48"/>
       <use x="354.199219" xlink:href="#DejaVuSans-55"/>
      </g>
     </g>
    </g>
    <g id="xtick_5">
     <g id="line2d_5">
      <g>
       <use style="stroke:#000000;stroke-width:0.8;" x="90.701251" xlink:href="#ma89927fd4d" y="222.919125"/>
      </g>
     </g>
     <g id="text_5">
      <!-- 2020-08 -->
      <defs>
       <path d="M 31.78125 34.625 
Q 24.75 34.625 20.71875 30.859375 
Q 16.703125 27.09375 16.703125 20.515625 
Q 16.703125 13.921875 20.71875 10.15625 
Q 24.75 6.390625 31.78125 6.390625 
Q 38.8125 6.390625 42.859375 10.171875 
Q 46.921875 13.96875 46.921875 20.515625 
Q 46.921875 27.09375 42.890625 30.859375 
Q 38.875 34.625 31.78125 34.625 
z
M 21.921875 38.8125 
Q 15.578125 40.375 12.03125 44.71875 
Q 8.5 49.078125 8.5 55.328125 
Q 8.5 64.0625 14.71875 69.140625 
Q 20.953125 74.21875 31.78125 74.21875 
Q 42.671875 74.21875 48.875 69.140625 
Q 55.078125 64.0625 55.078125 55.328125 
Q 55.078125 49.078125 51.53125 44.71875 
Q 48 40.375 41.703125 38.8125 
Q 48.828125 37.15625 52.796875 32.3125 
Q 56.78125 27.484375 56.78125 20.515625 
Q 56.78125 9.90625 50.3125 4.234375 
Q 43.84375 -1.421875 31.78125 -1.421875 
Q 19.734375 -1.421875 13.25 4.234375 
Q 6.78125 9.90625 6.78125 20.515625 
Q 6.78125 27.484375 10.78125 32.3125 
Q 14.796875 37.15625 21.921875 38.8125 
z
M 18.3125 54.390625 
Q 18.3125 48.734375 21.84375 45.5625 
Q 25.390625 42.390625 31.78125 42.390625 
Q 38.140625 42.390625 41.71875 45.5625 
Q 45.3125 48.734375 45.3125 54.390625 
Q 45.3125 60.0625 41.71875 63.234375 
Q 38.140625 66.40625 31.78125 66.40625 
Q 25.390625 66.40625 21.84375 63.234375 
Q 18.3125 60.0625 18.3125 54.390625 
z
" id="DejaVuSans-56"/>
      </defs>
      <g transform="translate(77.879969 264.836942)rotate(-45)scale(0.1 -0.1)">
       <use xlink:href="#DejaVuSans-50"/>
       <use x="63.623047" xlink:href="#DejaVuSans-48"/>
       <use x="127.246094" xlink:href="#DejaVuSans-50"/>
       <use x="190.869141" xlink:href="#DejaVuSans-48"/>
       <use x="254.492188" xlink:href="#DejaVuSans-45"/>
       <use x="290.576172" xlink:href="#DejaVuSans-48"/>
       <use x="354.199219" xlink:href="#DejaVuSans-56"/>
      </g>
     </g>
    </g>
    <g id="xtick_6">
     <g id="line2d_6">
      <g>
       <use style="stroke:#000000;stroke-width:0.8;" x="102.97138" xlink:href="#ma89927fd4d" y="222.919125"/>
      </g>
     </g>
     <g id="text_6">
      <!-- 2020-09 -->
      <defs>
       <path d="M 10.984375 1.515625 
L 10.984375 10.5 
Q 14.703125 8.734375 18.5 7.8125 
Q 22.3125 6.890625 25.984375 6.890625 
Q 35.75 6.890625 40.890625 13.453125 
Q 46.046875 20.015625 46.78125 33.40625 
Q 43.953125 29.203125 39.59375 26.953125 
Q 35.25 24.703125 29.984375 24.703125 
Q 19.046875 24.703125 12.671875 31.3125 
Q 6.296875 37.9375 6.296875 49.421875 
Q 6.296875 60.640625 12.9375 67.421875 
Q 19.578125 74.21875 30.609375 74.21875 
Q 43.265625 74.21875 49.921875 64.515625 
Q 56.59375 54.828125 56.59375 36.375 
Q 56.59375 19.140625 48.40625 8.859375 
Q 40.234375 -1.421875 26.421875 -1.421875 
Q 22.703125 -1.421875 18.890625 -0.6875 
Q 15.09375 0.046875 10.984375 1.515625 
z
M 30.609375 32.421875 
Q 37.25 32.421875 41.125 36.953125 
Q 45.015625 41.5 45.015625 49.421875 
Q 45.015625 57.28125 41.125 61.84375 
Q 37.25 66.40625 30.609375 66.40625 
Q 23.96875 66.40625 20.09375 61.84375 
Q 16.21875 57.28125 16.21875 49.421875 
Q 16.21875 41.5 20.09375 36.953125 
Q 23.96875 32.421875 30.609375 32.421875 
z
" id="DejaVuSans-57"/>
      </defs>
      <g transform="translate(90.150098 264.836942)rotate(-45)scale(0.1 -0.1)">
       <use xlink:href="#DejaVuSans-50"/>
       <use x="63.623047" xlink:href="#DejaVuSans-48"/>
       <use x="127.246094" xlink:href="#DejaVuSans-50"/>
       <use x="190.869141" xlink:href="#DejaVuSans-48"/>
       <use x="254.492188" xlink:href="#DejaVuSans-45"/>
       <use x="290.576172" xlink:href="#DejaVuSans-48"/>
       <use x="354.199219" xlink:href="#DejaVuSans-57"/>
      </g>
     </g>
    </g>
    <g id="xtick_7">
     <g id="line2d_7">
      <g>
       <use style="stroke:#000000;stroke-width:0.8;" x="112.787483" xlink:href="#ma89927fd4d" y="222.919125"/>
      </g>
     </g>
     <g id="text_7">
      <!-- 2020-10 -->
      <defs>
       <path d="M 12.40625 8.296875 
L 28.515625 8.296875 
L 28.515625 63.921875 
L 10.984375 60.40625 
L 10.984375 69.390625 
L 28.421875 72.90625 
L 38.28125 72.90625 
L 38.28125 8.296875 
L 54.390625 8.296875 
L 54.390625 0 
L 12.40625 0 
z
" id="DejaVuSans-49"/>
      </defs>
      <g transform="translate(99.966201 264.836942)rotate(-45)scale(0.1 -0.1)">
       <use xlink:href="#DejaVuSans-50"/>
       <use x="63.623047" xlink:href="#DejaVuSans-48"/>
       <use x="127.246094" xlink:href="#DejaVuSans-50"/>
       <use x="190.869141" xlink:href="#DejaVuSans-48"/>
       <use x="254.492188" xlink:href="#DejaVuSans-45"/>
       <use x="290.576172" xlink:href="#DejaVuSans-49"/>
       <use x="354.199219" xlink:href="#DejaVuSans-48"/>
      </g>
     </g>
    </g>
    <g id="xtick_8">
     <g id="line2d_8">
      <g>
       <use style="stroke:#000000;stroke-width:0.8;" x="125.057612" xlink:href="#ma89927fd4d" y="222.919125"/>
      </g>
     </g>
     <g id="text_8">
      <!-- 2020-11 -->
      <g transform="translate(112.23633 264.836942)rotate(-45)scale(0.1 -0.1)">
       <use xlink:href="#DejaVuSans-50"/>
       <use x="63.623047" xlink:href="#DejaVuSans-48"/>
       <use x="127.246094" xlink:href="#DejaVuSans-50"/>
       <use x="190.869141" xlink:href="#DejaVuSans-48"/>
       <use x="254.492188" xlink:href="#DejaVuSans-45"/>
       <use x="290.576172" xlink:href="#DejaVuSans-49"/>
       <use x="354.199219" xlink:href="#DejaVuSans-49"/>
      </g>
     </g>
    </g>
    <g id="xtick_9">
     <g id="line2d_9">
      <g>
       <use style="stroke:#000000;stroke-width:0.8;" x="134.873715" xlink:href="#ma89927fd4d" y="222.919125"/>
      </g>
     </g>
     <g id="text_9">
      <!-- 2020-12 -->
      <g transform="translate(122.052433 264.836942)rotate(-45)scale(0.1 -0.1)">
       <use xlink:href="#DejaVuSans-50"/>
       <use x="63.623047" xlink:href="#DejaVuSans-48"/>
       <use x="127.246094" xlink:href="#DejaVuSans-50"/>
       <use x="190.869141" xlink:href="#DejaVuSans-48"/>
       <use x="254.492188" xlink:href="#DejaVuSans-45"/>
       <use x="290.576172" xlink:href="#DejaVuSans-49"/>
       <use x="354.199219" xlink:href="#DejaVuSans-50"/>
      </g>
     </g>
    </g>
    <g id="xtick_10">
     <g id="line2d_10">
      <g>
       <use style="stroke:#000000;stroke-width:0.8;" x="144.689818" xlink:href="#ma89927fd4d" y="222.919125"/>
      </g>
     </g>
     <g id="text_10">
      <!-- 2021-01 -->
      <g transform="translate(131.868536 264.836942)rotate(-45)scale(0.1 -0.1)">
       <use xlink:href="#DejaVuSans-50"/>
       <use x="63.623047" xlink:href="#DejaVuSans-48"/>
       <use x="127.246094" xlink:href="#DejaVuSans-50"/>
       <use x="190.869141" xlink:href="#DejaVuSans-49"/>
       <use x="254.492188" xlink:href="#DejaVuSans-45"/>
       <use x="290.576172" xlink:href="#DejaVuSans-48"/>
       <use x="354.199219" xlink:href="#DejaVuSans-49"/>
      </g>
     </g>
    </g>
    <g id="xtick_11">
     <g id="line2d_11">
      <g>
       <use style="stroke:#000000;stroke-width:0.8;" x="156.959947" xlink:href="#ma89927fd4d" y="222.919125"/>
      </g>
     </g>
     <g id="text_11">
      <!-- 2021-02 -->
      <g transform="translate(144.138665 264.836942)rotate(-45)scale(0.1 -0.1)">
       <use xlink:href="#DejaVuSans-50"/>
       <use x="63.623047" xlink:href="#DejaVuSans-48"/>
       <use x="127.246094" xlink:href="#DejaVuSans-50"/>
       <use x="190.869141" xlink:href="#DejaVuSans-49"/>
       <use x="254.492188" xlink:href="#DejaVuSans-45"/>
       <use x="290.576172" xlink:href="#DejaVuSans-48"/>
       <use x="354.199219" xlink:href="#DejaVuSans-50"/>
      </g>
     </g>
    </g>
    <g id="xtick_12">
     <g id="line2d_12">
      <g>
       <use style="stroke:#000000;stroke-width:0.8;" x="166.77605" xlink:href="#ma89927fd4d" y="222.919125"/>
      </g>
     </g>
     <g id="text_12">
      <!-- 2021-03 -->
      <defs>
       <path d="M 40.578125 39.3125 
Q 47.65625 37.796875 51.625 33 
Q 55.609375 28.21875 55.609375 21.1875 
Q 55.609375 10.40625 48.1875 4.484375 
Q 40.765625 -1.421875 27.09375 -1.421875 
Q 22.515625 -1.421875 17.65625 -0.515625 
Q 12.796875 0.390625 7.625 2.203125 
L 7.625 11.71875 
Q 11.71875 9.328125 16.59375 8.109375 
Q 21.484375 6.890625 26.8125 6.890625 
Q 36.078125 6.890625 40.9375 10.546875 
Q 45.796875 14.203125 45.796875 21.1875 
Q 45.796875 27.640625 41.28125 31.265625 
Q 36.765625 34.90625 28.71875 34.90625 
L 20.21875 34.90625 
L 20.21875 43.015625 
L 29.109375 43.015625 
Q 36.375 43.015625 40.234375 45.921875 
Q 44.09375 48.828125 44.09375 54.296875 
Q 44.09375 59.90625 40.109375 62.90625 
Q 36.140625 65.921875 28.71875 65.921875 
Q 24.65625 65.921875 20.015625 65.03125 
Q 15.375 64.15625 9.8125 62.3125 
L 9.8125 71.09375 
Q 15.4375 72.65625 20.34375 73.4375 
Q 25.25 74.21875 29.59375 74.21875 
Q 40.828125 74.21875 47.359375 69.109375 
Q 53.90625 64.015625 53.90625 55.328125 
Q 53.90625 49.265625 50.4375 45.09375 
Q 46.96875 40.921875 40.578125 39.3125 
z
" id="DejaVuSans-51"/>
      </defs>
      <g transform="translate(153.954768 264.836942)rotate(-45)scale(0.1 -0.1)">
       <use xlink:href="#DejaVuSans-50"/>
       <use x="63.623047" xlink:href="#DejaVuSans-48"/>
       <use x="127.246094" xlink:href="#DejaVuSans-50"/>
       <use x="190.869141" xlink:href="#DejaVuSans-49"/>
       <use x="254.492188" xlink:href="#DejaVuSans-45"/>
       <use x="290.576172" xlink:href="#DejaVuSans-48"/>
       <use x="354.199219" xlink:href="#DejaVuSans-51"/>
      </g>
     </g>
    </g>
    <g id="xtick_13">
     <g id="line2d_13">
      <g>
       <use style="stroke:#000000;stroke-width:0.8;" x="176.592153" xlink:href="#ma89927fd4d" y="222.919125"/>
      </g>
     </g>
     <g id="text_13">
      <!-- 2021-04 -->
      <g transform="translate(163.770871 264.836942)rotate(-45)scale(0.1 -0.1)">
       <use xlink:href="#DejaVuSans-50"/>
       <use x="63.623047" xlink:href="#DejaVuSans-48"/>
       <use x="127.246094" xlink:href="#DejaVuSans-50"/>
       <use x="190.869141" xlink:href="#DejaVuSans-49"/>
       <use x="254.492188" xlink:href="#DejaVuSans-45"/>
       <use x="290.576172" xlink:href="#DejaVuSans-48"/>
       <use x="354.199219" xlink:href="#DejaVuSans-52"/>
      </g>
     </g>
    </g>
    <g id="xtick_14">
     <g id="line2d_14">
      <g>
       <use style="stroke:#000000;stroke-width:0.8;" x="186.408257" xlink:href="#ma89927fd4d" y="222.919125"/>
      </g>
     </g>
     <g id="text_14">
      <!-- 2021-05 -->
      <g transform="translate(173.586974 264.836942)rotate(-45)scale(0.1 -0.1)">
       <use xlink:href="#DejaVuSans-50"/>
       <use x="63.623047" xlink:href="#DejaVuSans-48"/>
       <use x="127.246094" xlink:href="#DejaVuSans-50"/>
       <use x="190.869141" xlink:href="#DejaVuSans-49"/>
       <use x="254.492188" xlink:href="#DejaVuSans-45"/>
       <use x="290.576172" xlink:href="#DejaVuSans-48"/>
       <use x="354.199219" xlink:href="#DejaVuSans-53"/>
      </g>
     </g>
    </g>
    <g id="xtick_15">
     <g id="line2d_15">
      <g>
       <use style="stroke:#000000;stroke-width:0.8;" x="198.678386" xlink:href="#ma89927fd4d" y="222.919125"/>
      </g>
     </g>
     <g id="text_15">
      <!-- 2021-06 -->
      <g transform="translate(185.857103 264.836942)rotate(-45)scale(0.1 -0.1)">
       <use xlink:href="#DejaVuSans-50"/>
       <use x="63.623047" xlink:href="#DejaVuSans-48"/>
       <use x="127.246094" xlink:href="#DejaVuSans-50"/>
       <use x="190.869141" xlink:href="#DejaVuSans-49"/>
       <use x="254.492188" xlink:href="#DejaVuSans-45"/>
       <use x="290.576172" xlink:href="#DejaVuSans-48"/>
       <use x="354.199219" xlink:href="#DejaVuSans-54"/>
      </g>
     </g>
    </g>
    <g id="xtick_16">
     <g id="line2d_16">
      <g>
       <use style="stroke:#000000;stroke-width:0.8;" x="208.494489" xlink:href="#ma89927fd4d" y="222.919125"/>
      </g>
     </g>
     <g id="text_16">
      <!-- 2021-07 -->
      <g transform="translate(195.673206 264.836942)rotate(-45)scale(0.1 -0.1)">
       <use xlink:href="#DejaVuSans-50"/>
       <use x="63.623047" xlink:href="#DejaVuSans-48"/>
       <use x="127.246094" xlink:href="#DejaVuSans-50"/>
       <use x="190.869141" xlink:href="#DejaVuSans-49"/>
       <use x="254.492188" xlink:href="#DejaVuSans-45"/>
       <use x="290.576172" xlink:href="#DejaVuSans-48"/>
       <use x="354.199219" xlink:href="#DejaVuSans-55"/>
      </g>
     </g>
    </g>
    <g id="xtick_17">
     <g id="line2d_17">
      <g>
       <use style="stroke:#000000;stroke-width:0.8;" x="220.764618" xlink:href="#ma89927fd4d" y="222.919125"/>
      </g>
     </g>
     <g id="text_17">
      <!-- 2021-08 -->
      <g transform="translate(207.943335 264.836942)rotate(-45)scale(0.1 -0.1)">
       <use xlink:href="#DejaVuSans-50"/>
       <use x="63.623047" xlink:href="#DejaVuSans-48"/>
       <use x="127.246094" xlink:href="#DejaVuSans-50"/>
       <use x="190.869141" xlink:href="#DejaVuSans-49"/>
       <use x="254.492188" xlink:href="#DejaVuSans-45"/>
       <use x="290.576172" xlink:href="#DejaVuSans-48"/>
       <use x="354.199219" xlink:href="#DejaVuSans-56"/>
      </g>
     </g>
    </g>
    <g id="xtick_18">
     <g id="line2d_18">
      <g>
       <use style="stroke:#000000;stroke-width:0.8;" x="230.580721" xlink:href="#ma89927fd4d" y="222.919125"/>
      </g>
     </g>
     <g id="text_18">
      <!-- 2021-09 -->
      <g transform="translate(217.759439 264.836942)rotate(-45)scale(0.1 -0.1)">
       <use xlink:href="#DejaVuSans-50"/>
       <use x="63.623047" xlink:href="#DejaVuSans-48"/>
       <use x="127.246094" xlink:href="#DejaVuSans-50"/>
       <use x="190.869141" xlink:href="#DejaVuSans-49"/>
       <use x="254.492188" xlink:href="#DejaVuSans-45"/>
       <use x="290.576172" xlink:href="#DejaVuSans-48"/>
       <use x="354.199219" xlink:href="#DejaVuSans-57"/>
      </g>
     </g>
    </g>
    <g id="xtick_19">
     <g id="line2d_19">
      <g>
       <use style="stroke:#000000;stroke-width:0.8;" x="240.396824" xlink:href="#ma89927fd4d" y="222.919125"/>
      </g>
     </g>
     <g id="text_19">
      <!-- 2021-10 -->
      <g transform="translate(227.575542 264.836942)rotate(-45)scale(0.1 -0.1)">
       <use xlink:href="#DejaVuSans-50"/>
       <use x="63.623047" xlink:href="#DejaVuSans-48"/>
       <use x="127.246094" xlink:href="#DejaVuSans-50"/>
       <use x="190.869141" xlink:href="#DejaVuSans-49"/>
       <use x="254.492188" xlink:href="#DejaVuSans-45"/>
       <use x="290.576172" xlink:href="#DejaVuSans-49"/>
       <use x="354.199219" xlink:href="#DejaVuSans-48"/>
      </g>
     </g>
    </g>
    <g id="xtick_20">
     <g id="line2d_20">
      <g>
       <use style="stroke:#000000;stroke-width:0.8;" x="252.666953" xlink:href="#ma89927fd4d" y="222.919125"/>
      </g>
     </g>
     <g id="text_20">
      <!-- 2021-11 -->
      <g transform="translate(239.845671 264.836942)rotate(-45)scale(0.1 -0.1)">
       <use xlink:href="#DejaVuSans-50"/>
       <use x="63.623047" xlink:href="#DejaVuSans-48"/>
       <use x="127.246094" xlink:href="#DejaVuSans-50"/>
       <use x="190.869141" xlink:href="#DejaVuSans-49"/>
       <use x="254.492188" xlink:href="#DejaVuSans-45"/>
       <use x="290.576172" xlink:href="#DejaVuSans-49"/>
       <use x="354.199219" xlink:href="#DejaVuSans-49"/>
      </g>
     </g>
    </g>
    <g id="xtick_21">
     <g id="line2d_21">
      <g>
       <use style="stroke:#000000;stroke-width:0.8;" x="262.483056" xlink:href="#ma89927fd4d" y="222.919125"/>
      </g>
     </g>
     <g id="text_21">
      <!-- 2021-12 -->
      <g transform="translate(249.661774 264.836942)rotate(-45)scale(0.1 -0.1)">
       <use xlink:href="#DejaVuSans-50"/>
       <use x="63.623047" xlink:href="#DejaVuSans-48"/>
       <use x="127.246094" xlink:href="#DejaVuSans-50"/>
       <use x="190.869141" xlink:href="#DejaVuSans-49"/>
       <use x="254.492188" xlink:href="#DejaVuSans-45"/>
       <use x="290.576172" xlink:href="#DejaVuSans-49"/>
       <use x="354.199219" xlink:href="#DejaVuSans-50"/>
      </g>
     </g>
    </g>
    <g id="text_22">
     <!-- Target End Date -->
     <defs>
      <path d="M -0.296875 72.90625 
L 61.375 72.90625 
L 61.375 64.59375 
L 35.5 64.59375 
L 35.5 0 
L 25.59375 0 
L 25.59375 64.59375 
L -0.296875 64.59375 
z
" id="DejaVuSans-84"/>
      <path d="M 34.28125 27.484375 
Q 23.390625 27.484375 19.1875 25 
Q 14.984375 22.515625 14.984375 16.5 
Q 14.984375 11.71875 18.140625 8.90625 
Q 21.296875 6.109375 26.703125 6.109375 
Q 34.1875 6.109375 38.703125 11.40625 
Q 43.21875 16.703125 43.21875 25.484375 
L 43.21875 27.484375 
z
M 52.203125 31.203125 
L 52.203125 0 
L 43.21875 0 
L 43.21875 8.296875 
Q 40.140625 3.328125 35.546875 0.953125 
Q 30.953125 -1.421875 24.3125 -1.421875 
Q 15.921875 -1.421875 10.953125 3.296875 
Q 6 8.015625 6 15.921875 
Q 6 25.140625 12.171875 29.828125 
Q 18.359375 34.515625 30.609375 34.515625 
L 43.21875 34.515625 
L 43.21875 35.40625 
Q 43.21875 41.609375 39.140625 45 
Q 35.0625 48.390625 27.6875 48.390625 
Q 23 48.390625 18.546875 47.265625 
Q 14.109375 46.140625 10.015625 43.890625 
L 10.015625 52.203125 
Q 14.9375 54.109375 19.578125 55.046875 
Q 24.21875 56 28.609375 56 
Q 40.484375 56 46.34375 49.84375 
Q 52.203125 43.703125 52.203125 31.203125 
z
" id="DejaVuSans-97"/>
      <path d="M 41.109375 46.296875 
Q 39.59375 47.171875 37.8125 47.578125 
Q 36.03125 48 33.890625 48 
Q 26.265625 48 22.1875 43.046875 
Q 18.109375 38.09375 18.109375 28.8125 
L 18.109375 0 
L 9.078125 0 
L 9.078125 54.6875 
L 18.109375 54.6875 
L 18.109375 46.1875 
Q 20.953125 51.171875 25.484375 53.578125 
Q 30.03125 56 36.53125 56 
Q 37.453125 56 38.578125 55.875 
Q 39.703125 55.765625 41.0625 55.515625 
z
" id="DejaVuSans-114"/>
      <path d="M 45.40625 27.984375 
Q 45.40625 37.75 41.375 43.109375 
Q 37.359375 48.484375 30.078125 48.484375 
Q 22.859375 48.484375 18.828125 43.109375 
Q 14.796875 37.75 14.796875 27.984375 
Q 14.796875 18.265625 18.828125 12.890625 
Q 22.859375 7.515625 30.078125 7.515625 
Q 37.359375 7.515625 41.375 12.890625 
Q 45.40625 18.265625 45.40625 27.984375 
z
M 54.390625 6.78125 
Q 54.390625 -7.171875 48.1875 -13.984375 
Q 42 -20.796875 29.203125 -20.796875 
Q 24.46875 -20.796875 20.265625 -20.09375 
Q 16.0625 -19.390625 12.109375 -17.921875 
L 12.109375 -9.1875 
Q 16.0625 -11.328125 19.921875 -12.34375 
Q 23.78125 -13.375 27.78125 -13.375 
Q 36.625 -13.375 41.015625 -8.765625 
Q 45.40625 -4.15625 45.40625 5.171875 
L 45.40625 9.625 
Q 42.625 4.78125 38.28125 2.390625 
Q 33.9375 0 27.875 0 
Q 17.828125 0 11.671875 7.65625 
Q 5.515625 15.328125 5.515625 27.984375 
Q 5.515625 40.671875 11.671875 48.328125 
Q 17.828125 56 27.875 56 
Q 33.9375 56 38.28125 53.609375 
Q 42.625 51.21875 45.40625 46.390625 
L 45.40625 54.6875 
L 54.390625 54.6875 
z
" id="DejaVuSans-103"/>
      <path d="M 56.203125 29.59375 
L 56.203125 25.203125 
L 14.890625 25.203125 
Q 15.484375 15.921875 20.484375 11.0625 
Q 25.484375 6.203125 34.421875 6.203125 
Q 39.59375 6.203125 44.453125 7.46875 
Q 49.3125 8.734375 54.109375 11.28125 
L 54.109375 2.78125 
Q 49.265625 0.734375 44.1875 -0.34375 
Q 39.109375 -1.421875 33.890625 -1.421875 
Q 20.796875 -1.421875 13.15625 6.1875 
Q 5.515625 13.8125 5.515625 26.8125 
Q 5.515625 40.234375 12.765625 48.109375 
Q 20.015625 56 32.328125 56 
Q 43.359375 56 49.78125 48.890625 
Q 56.203125 41.796875 56.203125 29.59375 
z
M 47.21875 32.234375 
Q 47.125 39.59375 43.09375 43.984375 
Q 39.0625 48.390625 32.421875 48.390625 
Q 24.90625 48.390625 20.390625 44.140625 
Q 15.875 39.890625 15.1875 32.171875 
z
" id="DejaVuSans-101"/>
      <path d="M 18.3125 70.21875 
L 18.3125 54.6875 
L 36.8125 54.6875 
L 36.8125 47.703125 
L 18.3125 47.703125 
L 18.3125 18.015625 
Q 18.3125 11.328125 20.140625 9.421875 
Q 21.96875 7.515625 27.59375 7.515625 
L 36.8125 7.515625 
L 36.8125 0 
L 27.59375 0 
Q 17.1875 0 13.234375 3.875 
Q 9.28125 7.765625 9.28125 18.015625 
L 9.28125 47.703125 
L 2.6875 47.703125 
L 2.6875 54.6875 
L 9.28125 54.6875 
L 9.28125 70.21875 
z
" id="DejaVuSans-116"/>
      <path id="DejaVuSans-32"/>
      <path d="M 9.8125 72.90625 
L 55.90625 72.90625 
L 55.90625 64.59375 
L 19.671875 64.59375 
L 19.671875 43.015625 
L 54.390625 43.015625 
L 54.390625 34.71875 
L 19.671875 34.71875 
L 19.671875 8.296875 
L 56.78125 8.296875 
L 56.78125 0 
L 9.8125 0 
z
" id="DejaVuSans-69"/>
      <path d="M 54.890625 33.015625 
L 54.890625 0 
L 45.90625 0 
L 45.90625 32.71875 
Q 45.90625 40.484375 42.875 44.328125 
Q 39.84375 48.1875 33.796875 48.1875 
Q 26.515625 48.1875 22.3125 43.546875 
Q 18.109375 38.921875 18.109375 30.90625 
L 18.109375 0 
L 9.078125 0 
L 9.078125 54.6875 
L 18.109375 54.6875 
L 18.109375 46.1875 
Q 21.34375 51.125 25.703125 53.5625 
Q 30.078125 56 35.796875 56 
Q 45.21875 56 50.046875 50.171875 
Q 54.890625 44.34375 54.890625 33.015625 
z
" id="DejaVuSans-110"/>
      <path d="M 45.40625 46.390625 
L 45.40625 75.984375 
L 54.390625 75.984375 
L 54.390625 0 
L 45.40625 0 
L 45.40625 8.203125 
Q 42.578125 3.328125 38.25 0.953125 
Q 33.9375 -1.421875 27.875 -1.421875 
Q 17.96875 -1.421875 11.734375 6.484375 
Q 5.515625 14.40625 5.515625 27.296875 
Q 5.515625 40.1875 11.734375 48.09375 
Q 17.96875 56 27.875 56 
Q 33.9375 56 38.25 53.625 
Q 42.578125 51.265625 45.40625 46.390625 
z
M 14.796875 27.296875 
Q 14.796875 17.390625 18.875 11.75 
Q 22.953125 6.109375 30.078125 6.109375 
Q 37.203125 6.109375 41.296875 11.75 
Q 45.40625 17.390625 45.40625 27.296875 
Q 45.40625 37.203125 41.296875 42.84375 
Q 37.203125 48.484375 30.078125 48.484375 
Q 22.953125 48.484375 18.875 42.84375 
Q 14.796875 37.203125 14.796875 27.296875 
z
" id="DejaVuSans-100"/>
      <path d="M 19.671875 64.796875 
L 19.671875 8.109375 
L 31.59375 8.109375 
Q 46.6875 8.109375 53.6875 14.9375 
Q 60.6875 21.78125 60.6875 36.53125 
Q 60.6875 51.171875 53.6875 57.984375 
Q 46.6875 64.796875 31.59375 64.796875 
z
M 9.8125 72.90625 
L 30.078125 72.90625 
Q 51.265625 72.90625 61.171875 64.09375 
Q 71.09375 55.28125 71.09375 36.53125 
Q 71.09375 17.671875 61.125 8.828125 
Q 51.171875 0 30.078125 0 
L 9.8125 0 
z
" id="DejaVuSans-68"/>
     </defs>
     <g transform="translate(115.629809 277.905941)scale(0.1 -0.1)">
      <use xlink:href="#DejaVuSans-84"/>
      <use x="44.583984" xlink:href="#DejaVuSans-97"/>
      <use x="105.863281" xlink:href="#DejaVuSans-114"/>
      <use x="145.226562" xlink:href="#DejaVuSans-103"/>
      <use x="208.703125" xlink:href="#DejaVuSans-101"/>
      <use x="270.226562" xlink:href="#DejaVuSans-116"/>
      <use x="309.435547" xlink:href="#DejaVuSans-32"/>
      <use x="341.222656" xlink:href="#DejaVuSans-69"/>
      <use x="404.40625" xlink:href="#DejaVuSans-110"/>
      <use x="467.785156" xlink:href="#DejaVuSans-100"/>
      <use x="531.261719" xlink:href="#DejaVuSans-32"/>
      <use x="563.048828" xlink:href="#DejaVuSans-68"/>
      <use x="640.050781" xlink:href="#DejaVuSans-97"/>
      <use x="701.330078" xlink:href="#DejaVuSans-116"/>
      <use x="740.539062" xlink:href="#DejaVuSans-101"/>
     </g>
    </g>
   </g>
   <g id="matplotlib.axis_2">
    <g id="ytick_1">
     <g id="line2d_22">
      <defs>
       <path d="M 0 0 
L -3.5 0 
" id="mf65895d03f" style="stroke:#000000;stroke-width:0.8;"/>
      </defs>
      <g>
       <use style="stroke:#000000;stroke-width:0.8;" x="48.982813" xlink:href="#mf65895d03f" y="200.104477"/>
      </g>
     </g>
     <g id="text_23">
      <!-- −12 -->
      <defs>
       <path d="M 10.59375 35.5 
L 73.1875 35.5 
L 73.1875 27.203125 
L 10.59375 27.203125 
z
" id="DejaVuSans-8722"/>
      </defs>
      <g transform="translate(20.878125 203.903696)scale(0.1 -0.1)">
       <use xlink:href="#DejaVuSans-8722"/>
       <use x="83.789062" xlink:href="#DejaVuSans-49"/>
       <use x="147.412109" xlink:href="#DejaVuSans-50"/>
      </g>
     </g>
    </g>
    <g id="ytick_2">
     <g id="line2d_23">
      <g>
       <use style="stroke:#000000;stroke-width:0.8;" x="48.982813" xlink:href="#mf65895d03f" y="171.9406"/>
      </g>
     </g>
     <g id="text_24">
      <!-- −10 -->
      <g transform="translate(20.878125 175.739818)scale(0.1 -0.1)">
       <use xlink:href="#DejaVuSans-8722"/>
       <use x="83.789062" xlink:href="#DejaVuSans-49"/>
       <use x="147.412109" xlink:href="#DejaVuSans-48"/>
      </g>
     </g>
    </g>
    <g id="ytick_3">
     <g id="line2d_24">
      <g>
       <use style="stroke:#000000;stroke-width:0.8;" x="48.982813" xlink:href="#mf65895d03f" y="143.776723"/>
      </g>
     </g>
     <g id="text_25">
      <!-- −8 -->
      <g transform="translate(27.240625 147.575941)scale(0.1 -0.1)">
       <use xlink:href="#DejaVuSans-8722"/>
       <use x="83.789062" xlink:href="#DejaVuSans-56"/>
      </g>
     </g>
    </g>
    <g id="ytick_4">
     <g id="line2d_25">
      <g>
       <use style="stroke:#000000;stroke-width:0.8;" x="48.982813" xlink:href="#mf65895d03f" y="115.612845"/>
      </g>
     </g>
     <g id="text_26">
      <!-- −6 -->
      <g transform="translate(27.240625 119.412064)scale(0.1 -0.1)">
       <use xlink:href="#DejaVuSans-8722"/>
       <use x="83.789062" xlink:href="#DejaVuSans-54"/>
      </g>
     </g>
    </g>
    <g id="ytick_5">
     <g id="line2d_26">
      <g>
       <use style="stroke:#000000;stroke-width:0.8;" x="48.982813" xlink:href="#mf65895d03f" y="87.448968"/>
      </g>
     </g>
     <g id="text_27">
      <!-- −4 -->
      <g transform="translate(27.240625 91.248187)scale(0.1 -0.1)">
       <use xlink:href="#DejaVuSans-8722"/>
       <use x="83.789062" xlink:href="#DejaVuSans-52"/>
      </g>
     </g>
    </g>
    <g id="ytick_6">
     <g id="line2d_27">
      <g>
       <use style="stroke:#000000;stroke-width:0.8;" x="48.982813" xlink:href="#mf65895d03f" y="59.285091"/>
      </g>
     </g>
     <g id="text_28">
      <!-- −2 -->
      <g transform="translate(27.240625 63.08431)scale(0.1 -0.1)">
       <use xlink:href="#DejaVuSans-8722"/>
       <use x="83.789062" xlink:href="#DejaVuSans-50"/>
      </g>
     </g>
    </g>
    <g id="ytick_7">
     <g id="line2d_28">
      <g>
       <use style="stroke:#000000;stroke-width:0.8;" x="48.982813" xlink:href="#mf65895d03f" y="31.121214"/>
      </g>
     </g>
     <g id="text_29">
      <!-- 0 -->
      <g transform="translate(35.620313 34.920433)scale(0.1 -0.1)">
       <use xlink:href="#DejaVuSans-48"/>
      </g>
     </g>
    </g>
    <g id="text_30">
     <!-- Score for cumulative deaths -->
     <defs>
      <path d="M 53.515625 70.515625 
L 53.515625 60.890625 
Q 47.90625 63.578125 42.921875 64.890625 
Q 37.9375 66.21875 33.296875 66.21875 
Q 25.25 66.21875 20.875 63.09375 
Q 16.5 59.96875 16.5 54.203125 
Q 16.5 49.359375 19.40625 46.890625 
Q 22.3125 44.4375 30.421875 42.921875 
L 36.375 41.703125 
Q 47.40625 39.59375 52.65625 34.296875 
Q 57.90625 29 57.90625 20.125 
Q 57.90625 9.515625 50.796875 4.046875 
Q 43.703125 -1.421875 29.984375 -1.421875 
Q 24.8125 -1.421875 18.96875 -0.25 
Q 13.140625 0.921875 6.890625 3.21875 
L 6.890625 13.375 
Q 12.890625 10.015625 18.65625 8.296875 
Q 24.421875 6.59375 29.984375 6.59375 
Q 38.421875 6.59375 43.015625 9.90625 
Q 47.609375 13.234375 47.609375 19.390625 
Q 47.609375 24.75 44.3125 27.78125 
Q 41.015625 30.8125 33.5 32.328125 
L 27.484375 33.5 
Q 16.453125 35.6875 11.515625 40.375 
Q 6.59375 45.0625 6.59375 53.421875 
Q 6.59375 63.09375 13.40625 68.65625 
Q 20.21875 74.21875 32.171875 74.21875 
Q 37.3125 74.21875 42.625 73.28125 
Q 47.953125 72.359375 53.515625 70.515625 
z
" id="DejaVuSans-83"/>
      <path d="M 48.78125 52.59375 
L 48.78125 44.1875 
Q 44.96875 46.296875 41.140625 47.34375 
Q 37.3125 48.390625 33.40625 48.390625 
Q 24.65625 48.390625 19.8125 42.84375 
Q 14.984375 37.3125 14.984375 27.296875 
Q 14.984375 17.28125 19.8125 11.734375 
Q 24.65625 6.203125 33.40625 6.203125 
Q 37.3125 6.203125 41.140625 7.25 
Q 44.96875 8.296875 48.78125 10.40625 
L 48.78125 2.09375 
Q 45.015625 0.34375 40.984375 -0.53125 
Q 36.96875 -1.421875 32.421875 -1.421875 
Q 20.0625 -1.421875 12.78125 6.34375 
Q 5.515625 14.109375 5.515625 27.296875 
Q 5.515625 40.671875 12.859375 48.328125 
Q 20.21875 56 33.015625 56 
Q 37.15625 56 41.109375 55.140625 
Q 45.0625 54.296875 48.78125 52.59375 
z
" id="DejaVuSans-99"/>
      <path d="M 30.609375 48.390625 
Q 23.390625 48.390625 19.1875 42.75 
Q 14.984375 37.109375 14.984375 27.296875 
Q 14.984375 17.484375 19.15625 11.84375 
Q 23.34375 6.203125 30.609375 6.203125 
Q 37.796875 6.203125 41.984375 11.859375 
Q 46.1875 17.53125 46.1875 27.296875 
Q 46.1875 37.015625 41.984375 42.703125 
Q 37.796875 48.390625 30.609375 48.390625 
z
M 30.609375 56 
Q 42.328125 56 49.015625 48.375 
Q 55.71875 40.765625 55.71875 27.296875 
Q 55.71875 13.875 49.015625 6.21875 
Q 42.328125 -1.421875 30.609375 -1.421875 
Q 18.84375 -1.421875 12.171875 6.21875 
Q 5.515625 13.875 5.515625 27.296875 
Q 5.515625 40.765625 12.171875 48.375 
Q 18.84375 56 30.609375 56 
z
" id="DejaVuSans-111"/>
      <path d="M 37.109375 75.984375 
L 37.109375 68.5 
L 28.515625 68.5 
Q 23.6875 68.5 21.796875 66.546875 
Q 19.921875 64.59375 19.921875 59.515625 
L 19.921875 54.6875 
L 34.71875 54.6875 
L 34.71875 47.703125 
L 19.921875 47.703125 
L 19.921875 0 
L 10.890625 0 
L 10.890625 47.703125 
L 2.296875 47.703125 
L 2.296875 54.6875 
L 10.890625 54.6875 
L 10.890625 58.5 
Q 10.890625 67.625 15.140625 71.796875 
Q 19.390625 75.984375 28.609375 75.984375 
z
" id="DejaVuSans-102"/>
      <path d="M 8.5 21.578125 
L 8.5 54.6875 
L 17.484375 54.6875 
L 17.484375 21.921875 
Q 17.484375 14.15625 20.5 10.265625 
Q 23.53125 6.390625 29.59375 6.390625 
Q 36.859375 6.390625 41.078125 11.03125 
Q 45.3125 15.671875 45.3125 23.6875 
L 45.3125 54.6875 
L 54.296875 54.6875 
L 54.296875 0 
L 45.3125 0 
L 45.3125 8.40625 
Q 42.046875 3.421875 37.71875 1 
Q 33.40625 -1.421875 27.6875 -1.421875 
Q 18.265625 -1.421875 13.375 4.4375 
Q 8.5 10.296875 8.5 21.578125 
z
M 31.109375 56 
z
" id="DejaVuSans-117"/>
      <path d="M 52 44.1875 
Q 55.375 50.25 60.0625 53.125 
Q 64.75 56 71.09375 56 
Q 79.640625 56 84.28125 50.015625 
Q 88.921875 44.046875 88.921875 33.015625 
L 88.921875 0 
L 79.890625 0 
L 79.890625 32.71875 
Q 79.890625 40.578125 77.09375 44.375 
Q 74.3125 48.1875 68.609375 48.1875 
Q 61.625 48.1875 57.5625 43.546875 
Q 53.515625 38.921875 53.515625 30.90625 
L 53.515625 0 
L 44.484375 0 
L 44.484375 32.71875 
Q 44.484375 40.625 41.703125 44.40625 
Q 38.921875 48.1875 33.109375 48.1875 
Q 26.21875 48.1875 22.15625 43.53125 
Q 18.109375 38.875 18.109375 30.90625 
L 18.109375 0 
L 9.078125 0 
L 9.078125 54.6875 
L 18.109375 54.6875 
L 18.109375 46.1875 
Q 21.1875 51.21875 25.484375 53.609375 
Q 29.78125 56 35.6875 56 
Q 41.65625 56 45.828125 52.96875 
Q 50 49.953125 52 44.1875 
z
" id="DejaVuSans-109"/>
      <path d="M 9.421875 75.984375 
L 18.40625 75.984375 
L 18.40625 0 
L 9.421875 0 
z
" id="DejaVuSans-108"/>
      <path d="M 9.421875 54.6875 
L 18.40625 54.6875 
L 18.40625 0 
L 9.421875 0 
z
M 9.421875 75.984375 
L 18.40625 75.984375 
L 18.40625 64.59375 
L 9.421875 64.59375 
z
" id="DejaVuSans-105"/>
      <path d="M 2.984375 54.6875 
L 12.5 54.6875 
L 29.59375 8.796875 
L 46.6875 54.6875 
L 56.203125 54.6875 
L 35.6875 0 
L 23.484375 0 
z
" id="DejaVuSans-118"/>
      <path d="M 54.890625 33.015625 
L 54.890625 0 
L 45.90625 0 
L 45.90625 32.71875 
Q 45.90625 40.484375 42.875 44.328125 
Q 39.84375 48.1875 33.796875 48.1875 
Q 26.515625 48.1875 22.3125 43.546875 
Q 18.109375 38.921875 18.109375 30.90625 
L 18.109375 0 
L 9.078125 0 
L 9.078125 75.984375 
L 18.109375 75.984375 
L 18.109375 46.1875 
Q 21.34375 51.125 25.703125 53.5625 
Q 30.078125 56 35.796875 56 
Q 45.21875 56 50.046875 50.171875 
Q 54.890625 44.34375 54.890625 33.015625 
z
" id="DejaVuSans-104"/>
      <path d="M 44.28125 53.078125 
L 44.28125 44.578125 
Q 40.484375 46.53125 36.375 47.5 
Q 32.28125 48.484375 27.875 48.484375 
Q 21.1875 48.484375 17.84375 46.4375 
Q 14.5 44.390625 14.5 40.28125 
Q 14.5 37.15625 16.890625 35.375 
Q 19.28125 33.59375 26.515625 31.984375 
L 29.59375 31.296875 
Q 39.15625 29.25 43.1875 25.515625 
Q 47.21875 21.78125 47.21875 15.09375 
Q 47.21875 7.46875 41.1875 3.015625 
Q 35.15625 -1.421875 24.609375 -1.421875 
Q 20.21875 -1.421875 15.453125 -0.5625 
Q 10.6875 0.296875 5.421875 2 
L 5.421875 11.28125 
Q 10.40625 8.6875 15.234375 7.390625 
Q 20.0625 6.109375 24.8125 6.109375 
Q 31.15625 6.109375 34.5625 8.28125 
Q 37.984375 10.453125 37.984375 14.40625 
Q 37.984375 18.0625 35.515625 20.015625 
Q 33.0625 21.96875 24.703125 23.78125 
L 21.578125 24.515625 
Q 13.234375 26.265625 9.515625 29.90625 
Q 5.8125 33.546875 5.8125 39.890625 
Q 5.8125 47.609375 11.28125 51.796875 
Q 16.75 56 26.8125 56 
Q 31.78125 56 36.171875 55.265625 
Q 40.578125 54.546875 44.28125 53.078125 
z
" id="DejaVuSans-115"/>
     </defs>
     <g transform="translate(14.798438 193.106906)rotate(-90)scale(0.1 -0.1)">
      <use xlink:href="#DejaVuSans-83"/>
      <use x="63.476562" xlink:href="#DejaVuSans-99"/>
      <use x="118.457031" xlink:href="#DejaVuSans-111"/>
      <use x="179.638672" xlink:href="#DejaVuSans-114"/>
      <use x="218.501953" xlink:href="#DejaVuSans-101"/>
      <use x="280.025391" xlink:href="#DejaVuSans-32"/>
      <use x="311.8125" xlink:href="#DejaVuSans-102"/>
      <use x="347.017578" xlink:href="#DejaVuSans-111"/>
      <use x="408.199219" xlink:href="#DejaVuSans-114"/>
      <use x="449.3125" xlink:href="#DejaVuSans-32"/>
      <use x="481.099609" xlink:href="#DejaVuSans-99"/>
      <use x="536.080078" xlink:href="#DejaVuSans-117"/>
      <use x="599.458984" xlink:href="#DejaVuSans-109"/>
      <use x="696.871094" xlink:href="#DejaVuSans-117"/>
      <use x="760.25" xlink:href="#DejaVuSans-108"/>
      <use x="788.033203" xlink:href="#DejaVuSans-97"/>
      <use x="849.3125" xlink:href="#DejaVuSans-116"/>
      <use x="888.521484" xlink:href="#DejaVuSans-105"/>
      <use x="916.304688" xlink:href="#DejaVuSans-118"/>
      <use x="975.484375" xlink:href="#DejaVuSans-101"/>
      <use x="1037.007812" xlink:href="#DejaVuSans-32"/>
      <use x="1068.794922" xlink:href="#DejaVuSans-100"/>
      <use x="1132.271484" xlink:href="#DejaVuSans-101"/>
      <use x="1193.794922" xlink:href="#DejaVuSans-97"/>
      <use x="1255.074219" xlink:href="#DejaVuSans-116"/>
      <use x="1294.283203" xlink:href="#DejaVuSans-104"/>
      <use x="1357.662109" xlink:href="#DejaVuSans-115"/>
     </g>
    </g>
   </g>
   <g id="line2d_29">
    <path clip-path="url(#p9bc08ef488)" d="M 66.160993 96.589694 
L 68.615019 104.016331 
L 71.069045 107.24279 
L 73.52307 105.182236 
L 75.977096 108.474434 
L 78.431122 112.198366 
L 80.885148 113.40246 
L 83.339174 91.384887 
L 85.793199 114.635251 
L 88.247225 107.120501 
L 90.701251 109.501598 
L 93.155277 106.397622 
L 95.609302 92.850364 
L 98.063328 106.067903 
L 100.517354 112.099609 
L 102.97138 125.444955 
L 105.425406 88.132871 
L 107.879431 91.556463 
L 110.333457 81.589594 
L 112.787483 83.299635 
L 115.241509 101.831888 
L 117.695535 93.810144 
L 120.14956 87.55164 
L 122.603586 85.430903 
L 125.057612 83.745188 
L 127.511638 87.621566 
L 129.965664 100.343748 
L 132.419689 133.690858 
L 134.873715 120.46822 
L 137.327741 112.205253 
L 139.781767 113.025104 
L 142.235792 125.191155 
L 144.689818 112.612548 
L 147.143844 114.015694 
L 149.59787 118.178951 
L 152.051896 138.276162 
L 154.505921 139.029753 
L 156.959947 110.341281 
L 159.413973 120.568635 
L 161.867999 129.848735 
L 164.322025 116.160041 
L 166.77605 95.237638 
L 169.230076 106.807992 
L 171.684102 90.734182 
L 174.138128 81.546293 
L 176.592153 72.770292 
L 179.046179 67.022479 
L 181.500205 77.974154 
L 183.954231 71.023771 
L 186.408257 77.092975 
L 188.862282 74.637441 
L 191.316308 88.113218 
L 193.770334 77.14682 
L 196.22436 62.82188 
L 198.678386 63.783317 
L 201.132411 68.61244 
L 203.586437 80.732275 
L 206.040463 58.845742 
L 208.494489 55.75932 
L 210.948515 50.084868 
L 213.40254 54.900448 
L 215.856566 35.468448 
L 218.310592 42.06059 
L 220.764618 51.308181 
L 223.218643 64.338131 
L 225.672669 95.523392 
L 228.126695 75.473993 
L 230.580721 86.525264 
L 233.034747 93.34198 
L 235.488772 92.617212 
L 237.942798 106.424138 
L 240.396824 105.824499 
L 242.85085 110.905757 
L 245.304876 86.122132 
L 247.758901 83.374366 
L 250.212927 79.894039 
L 252.666953 80.503369 
" style="fill:none;stroke:#000080;stroke-linecap:square;stroke-width:1.5;"/>
    <defs>
     <path d="M 0 3 
C 0.795609 3 1.55874 2.683901 2.12132 2.12132 
C 2.683901 1.55874 3 0.795609 3 0 
C 3 -0.795609 2.683901 -1.55874 2.12132 -2.12132 
C 1.55874 -2.683901 0.795609 -3 0 -3 
C -0.795609 -3 -1.55874 -2.683901 -2.12132 -2.12132 
C -2.683901 -1.55874 -3 -0.795609 -3 0 
C -3 0.795609 -2.683901 1.55874 -2.12132 2.12132 
C -1.55874 2.683901 -0.795609 3 0 3 
z
" id="m5e63000ea9" style="stroke:#000080;"/>
    </defs>
    <g clip-path="url(#p9bc08ef488)">
     <use style="fill:#000080;stroke:#000080;" x="66.160993" xlink:href="#m5e63000ea9" y="96.589694"/>
     <use style="fill:#000080;stroke:#000080;" x="68.615019" xlink:href="#m5e63000ea9" y="104.016331"/>
     <use style="fill:#000080;stroke:#000080;" x="71.069045" xlink:href="#m5e63000ea9" y="107.24279"/>
     <use style="fill:#000080;stroke:#000080;" x="73.52307" xlink:href="#m5e63000ea9" y="105.182236"/>
     <use style="fill:#000080;stroke:#000080;" x="75.977096" xlink:href="#m5e63000ea9" y="108.474434"/>
     <use style="fill:#000080;stroke:#000080;" x="78.431122" xlink:href="#m5e63000ea9" y="112.198366"/>
     <use style="fill:#000080;stroke:#000080;" x="80.885148" xlink:href="#m5e63000ea9" y="113.40246"/>
     <use style="fill:#000080;stroke:#000080;" x="83.339174" xlink:href="#m5e63000ea9" y="91.384887"/>
     <use style="fill:#000080;stroke:#000080;" x="85.793199" xlink:href="#m5e63000ea9" y="114.635251"/>
     <use style="fill:#000080;stroke:#000080;" x="88.247225" xlink:href="#m5e63000ea9" y="107.120501"/>
     <use style="fill:#000080;stroke:#000080;" x="90.701251" xlink:href="#m5e63000ea9" y="109.501598"/>
     <use style="fill:#000080;stroke:#000080;" x="93.155277" xlink:href="#m5e63000ea9" y="106.397622"/>
     <use style="fill:#000080;stroke:#000080;" x="95.609302" xlink:href="#m5e63000ea9" y="92.850364"/>
     <use style="fill:#000080;stroke:#000080;" x="98.063328" xlink:href="#m5e63000ea9" y="106.067903"/>
     <use style="fill:#000080;stroke:#000080;" x="100.517354" xlink:href="#m5e63000ea9" y="112.099609"/>
     <use style="fill:#000080;stroke:#000080;" x="102.97138" xlink:href="#m5e63000ea9" y="125.444955"/>
     <use style="fill:#000080;stroke:#000080;" x="105.425406" xlink:href="#m5e63000ea9" y="88.132871"/>
     <use style="fill:#000080;stroke:#000080;" x="107.879431" xlink:href="#m5e63000ea9" y="91.556463"/>
     <use style="fill:#000080;stroke:#000080;" x="110.333457" xlink:href="#m5e63000ea9" y="81.589594"/>
     <use style="fill:#000080;stroke:#000080;" x="112.787483" xlink:href="#m5e63000ea9" y="83.299635"/>
     <use style="fill:#000080;stroke:#000080;" x="115.241509" xlink:href="#m5e63000ea9" y="101.831888"/>
     <use style="fill:#000080;stroke:#000080;" x="117.695535" xlink:href="#m5e63000ea9" y="93.810144"/>
     <use style="fill:#000080;stroke:#000080;" x="120.14956" xlink:href="#m5e63000ea9" y="87.55164"/>
     <use style="fill:#000080;stroke:#000080;" x="122.603586" xlink:href="#m5e63000ea9" y="85.430903"/>
     <use style="fill:#000080;stroke:#000080;" x="125.057612" xlink:href="#m5e63000ea9" y="83.745188"/>
     <use style="fill:#000080;stroke:#000080;" x="127.511638" xlink:href="#m5e63000ea9" y="87.621566"/>
     <use style="fill:#000080;stroke:#000080;" x="129.965664" xlink:href="#m5e63000ea9" y="100.343748"/>
     <use style="fill:#000080;stroke:#000080;" x="132.419689" xlink:href="#m5e63000ea9" y="133.690858"/>
     <use style="fill:#000080;stroke:#000080;" x="134.873715" xlink:href="#m5e63000ea9" y="120.46822"/>
     <use style="fill:#000080;stroke:#000080;" x="137.327741" xlink:href="#m5e63000ea9" y="112.205253"/>
     <use style="fill:#000080;stroke:#000080;" x="139.781767" xlink:href="#m5e63000ea9" y="113.025104"/>
     <use style="fill:#000080;stroke:#000080;" x="142.235792" xlink:href="#m5e63000ea9" y="125.191155"/>
     <use style="fill:#000080;stroke:#000080;" x="144.689818" xlink:href="#m5e63000ea9" y="112.612548"/>
     <use style="fill:#000080;stroke:#000080;" x="147.143844" xlink:href="#m5e63000ea9" y="114.015694"/>
     <use style="fill:#000080;stroke:#000080;" x="149.59787" xlink:href="#m5e63000ea9" y="118.178951"/>
     <use style="fill:#000080;stroke:#000080;" x="152.051896" xlink:href="#m5e63000ea9" y="138.276162"/>
     <use style="fill:#000080;stroke:#000080;" x="154.505921" xlink:href="#m5e63000ea9" y="139.029753"/>
     <use style="fill:#000080;stroke:#000080;" x="156.959947" xlink:href="#m5e63000ea9" y="110.341281"/>
     <use style="fill:#000080;stroke:#000080;" x="159.413973" xlink:href="#m5e63000ea9" y="120.568635"/>
     <use style="fill:#000080;stroke:#000080;" x="161.867999" xlink:href="#m5e63000ea9" y="129.848735"/>
     <use style="fill:#000080;stroke:#000080;" x="164.322025" xlink:href="#m5e63000ea9" y="116.160041"/>
     <use style="fill:#000080;stroke:#000080;" x="166.77605" xlink:href="#m5e63000ea9" y="95.237638"/>
     <use style="fill:#000080;stroke:#000080;" x="169.230076" xlink:href="#m5e63000ea9" y="106.807992"/>
     <use style="fill:#000080;stroke:#000080;" x="171.684102" xlink:href="#m5e63000ea9" y="90.734182"/>
     <use style="fill:#000080;stroke:#000080;" x="174.138128" xlink:href="#m5e63000ea9" y="81.546293"/>
     <use style="fill:#000080;stroke:#000080;" x="176.592153" xlink:href="#m5e63000ea9" y="72.770292"/>
     <use style="fill:#000080;stroke:#000080;" x="179.046179" xlink:href="#m5e63000ea9" y="67.022479"/>
     <use style="fill:#000080;stroke:#000080;" x="181.500205" xlink:href="#m5e63000ea9" y="77.974154"/>
     <use style="fill:#000080;stroke:#000080;" x="183.954231" xlink:href="#m5e63000ea9" y="71.023771"/>
     <use style="fill:#000080;stroke:#000080;" x="186.408257" xlink:href="#m5e63000ea9" y="77.092975"/>
     <use style="fill:#000080;stroke:#000080;" x="188.862282" xlink:href="#m5e63000ea9" y="74.637441"/>
     <use style="fill:#000080;stroke:#000080;" x="191.316308" xlink:href="#m5e63000ea9" y="88.113218"/>
     <use style="fill:#000080;stroke:#000080;" x="193.770334" xlink:href="#m5e63000ea9" y="77.14682"/>
     <use style="fill:#000080;stroke:#000080;" x="196.22436" xlink:href="#m5e63000ea9" y="62.82188"/>
     <use style="fill:#000080;stroke:#000080;" x="198.678386" xlink:href="#m5e63000ea9" y="63.783317"/>
     <use style="fill:#000080;stroke:#000080;" x="201.132411" xlink:href="#m5e63000ea9" y="68.61244"/>
     <use style="fill:#000080;stroke:#000080;" x="203.586437" xlink:href="#m5e63000ea9" y="80.732275"/>
     <use style="fill:#000080;stroke:#000080;" x="206.040463" xlink:href="#m5e63000ea9" y="58.845742"/>
     <use style="fill:#000080;stroke:#000080;" x="208.494489" xlink:href="#m5e63000ea9" y="55.75932"/>
     <use style="fill:#000080;stroke:#000080;" x="210.948515" xlink:href="#m5e63000ea9" y="50.084868"/>
     <use style="fill:#000080;stroke:#000080;" x="213.40254" xlink:href="#m5e63000ea9" y="54.900448"/>
     <use style="fill:#000080;stroke:#000080;" x="215.856566" xlink:href="#m5e63000ea9" y="35.468448"/>
     <use style="fill:#000080;stroke:#000080;" x="218.310592" xlink:href="#m5e63000ea9" y="42.06059"/>
     <use style="fill:#000080;stroke:#000080;" x="220.764618" xlink:href="#m5e63000ea9" y="51.308181"/>
     <use style="fill:#000080;stroke:#000080;" x="223.218643" xlink:href="#m5e63000ea9" y="64.338131"/>
     <use style="fill:#000080;stroke:#000080;" x="225.672669" xlink:href="#m5e63000ea9" y="95.523392"/>
     <use style="fill:#000080;stroke:#000080;" x="228.126695" xlink:href="#m5e63000ea9" y="75.473993"/>
     <use style="fill:#000080;stroke:#000080;" x="230.580721" xlink:href="#m5e63000ea9" y="86.525264"/>
     <use style="fill:#000080;stroke:#000080;" x="233.034747" xlink:href="#m5e63000ea9" y="93.34198"/>
     <use style="fill:#000080;stroke:#000080;" x="235.488772" xlink:href="#m5e63000ea9" y="92.617212"/>
     <use style="fill:#000080;stroke:#000080;" x="237.942798" xlink:href="#m5e63000ea9" y="106.424138"/>
     <use style="fill:#000080;stroke:#000080;" x="240.396824" xlink:href="#m5e63000ea9" y="105.824499"/>
     <use style="fill:#000080;stroke:#000080;" x="242.85085" xlink:href="#m5e63000ea9" y="110.905757"/>
     <use style="fill:#000080;stroke:#000080;" x="245.304876" xlink:href="#m5e63000ea9" y="86.122132"/>
     <use style="fill:#000080;stroke:#000080;" x="247.758901" xlink:href="#m5e63000ea9" y="83.374366"/>
     <use style="fill:#000080;stroke:#000080;" x="250.212927" xlink:href="#m5e63000ea9" y="79.894039"/>
     <use style="fill:#000080;stroke:#000080;" x="252.666953" xlink:href="#m5e63000ea9" y="80.503369"/>
    </g>
   </g>
   <g id="line2d_30">
    <path clip-path="url(#p9bc08ef488)" d="M 61.252941 143.283604 
L 63.706967 127.515881 
L 66.160993 85.332001 
L 68.615019 107.719402 
L 71.069045 104.97201 
L 73.52307 105.137587 
L 75.977096 107.280776 
L 78.431122 97.218126 
L 80.885148 92.247683 
L 83.339174 110.217331 
L 85.793199 130.280197 
L 88.247225 100.524897 
L 90.701251 121.117435 
L 93.155277 118.869821 
L 95.609302 106.303547 
L 98.063328 108.85404 
L 100.517354 99.715904 
L 102.97138 95.512734 
L 105.425406 95.838246 
L 107.879431 98.450838 
L 110.333457 88.883427 
L 112.787483 95.609973 
L 115.241509 88.713414 
L 117.695535 87.105819 
L 120.14956 91.874547 
L 122.603586 85.842441 
L 125.057612 88.360941 
L 127.511638 94.351311 
L 129.965664 96.184604 
L 132.419689 98.415206 
L 134.873715 123.645616 
L 137.327741 120.546606 
L 139.781767 137.552468 
L 142.235792 136.056759 
L 144.689818 122.847779 
L 147.143844 99.739433 
L 149.59787 118.43616 
L 152.051896 129.980438 
L 154.505921 152.596169 
L 156.959947 114.067403 
L 159.413973 131.268291 
L 161.867999 135.957811 
L 164.322025 117.405516 
L 166.77605 112.812504 
L 169.230076 113.548095 
L 171.684102 114.063739 
L 174.138128 81.389834 
L 176.592153 56.928446 
L 179.046179 53.072596 
L 181.500205 76.911614 
L 183.954231 79.324134 
L 186.408257 80.703794 
L 188.862282 83.086453 
L 191.316308 84.533656 
L 193.770334 75.999368 
L 196.22436 70.801733 
L 198.678386 72.992101 
L 201.132411 74.439158 
L 203.586437 84.102901 
L 206.040463 65.229154 
L 208.494489 67.125108 
L 210.948515 51.573023 
L 213.40254 61.383891 
L 215.856566 80.028741 
L 218.310592 65.378921 
L 220.764618 68.077727 
L 223.218643 77.687238 
L 225.672669 97.9361 
L 228.126695 89.648628 
L 230.580721 95.865472 
L 233.034747 125.136623 
L 235.488772 155.428279 
L 237.942798 101.54701 
L 240.396824 100.923682 
L 242.85085 110.647176 
L 245.304876 95.873275 
L 247.758901 96.972178 
L 250.212927 99.754969 
L 252.666953 104.426533 
" style="fill:none;stroke:#00d4ff;stroke-linecap:square;stroke-width:1.5;"/>
    <defs>
     <path d="M 0 3 
C 0.795609 3 1.55874 2.683901 2.12132 2.12132 
C 2.683901 1.55874 3 0.795609 3 0 
C 3 -0.795609 2.683901 -1.55874 2.12132 -2.12132 
C 1.55874 -2.683901 0.795609 -3 0 -3 
C -0.795609 -3 -1.55874 -2.683901 -2.12132 -2.12132 
C -2.683901 -1.55874 -3 -0.795609 -3 0 
C -3 0.795609 -2.683901 1.55874 -2.12132 2.12132 
C -1.55874 2.683901 -0.795609 3 0 3 
z
" id="m9c0c63e11b" style="stroke:#00d4ff;"/>
    </defs>
    <g clip-path="url(#p9bc08ef488)">
     <use style="fill:#00d4ff;stroke:#00d4ff;" x="61.252941" xlink:href="#m9c0c63e11b" y="143.283604"/>
     <use style="fill:#00d4ff;stroke:#00d4ff;" x="63.706967" xlink:href="#m9c0c63e11b" y="127.515881"/>
     <use style="fill:#00d4ff;stroke:#00d4ff;" x="66.160993" xlink:href="#m9c0c63e11b" y="85.332001"/>
     <use style="fill:#00d4ff;stroke:#00d4ff;" x="68.615019" xlink:href="#m9c0c63e11b" y="107.719402"/>
     <use style="fill:#00d4ff;stroke:#00d4ff;" x="71.069045" xlink:href="#m9c0c63e11b" y="104.97201"/>
     <use style="fill:#00d4ff;stroke:#00d4ff;" x="73.52307" xlink:href="#m9c0c63e11b" y="105.137587"/>
     <use style="fill:#00d4ff;stroke:#00d4ff;" x="75.977096" xlink:href="#m9c0c63e11b" y="107.280776"/>
     <use style="fill:#00d4ff;stroke:#00d4ff;" x="78.431122" xlink:href="#m9c0c63e11b" y="97.218126"/>
     <use style="fill:#00d4ff;stroke:#00d4ff;" x="80.885148" xlink:href="#m9c0c63e11b" y="92.247683"/>
     <use style="fill:#00d4ff;stroke:#00d4ff;" x="83.339174" xlink:href="#m9c0c63e11b" y="110.217331"/>
     <use style="fill:#00d4ff;stroke:#00d4ff;" x="85.793199" xlink:href="#m9c0c63e11b" y="130.280197"/>
     <use style="fill:#00d4ff;stroke:#00d4ff;" x="88.247225" xlink:href="#m9c0c63e11b" y="100.524897"/>
     <use style="fill:#00d4ff;stroke:#00d4ff;" x="90.701251" xlink:href="#m9c0c63e11b" y="121.117435"/>
     <use style="fill:#00d4ff;stroke:#00d4ff;" x="93.155277" xlink:href="#m9c0c63e11b" y="118.869821"/>
     <use style="fill:#00d4ff;stroke:#00d4ff;" x="95.609302" xlink:href="#m9c0c63e11b" y="106.303547"/>
     <use style="fill:#00d4ff;stroke:#00d4ff;" x="98.063328" xlink:href="#m9c0c63e11b" y="108.85404"/>
     <use style="fill:#00d4ff;stroke:#00d4ff;" x="100.517354" xlink:href="#m9c0c63e11b" y="99.715904"/>
     <use style="fill:#00d4ff;stroke:#00d4ff;" x="102.97138" xlink:href="#m9c0c63e11b" y="95.512734"/>
     <use style="fill:#00d4ff;stroke:#00d4ff;" x="105.425406" xlink:href="#m9c0c63e11b" y="95.838246"/>
     <use style="fill:#00d4ff;stroke:#00d4ff;" x="107.879431" xlink:href="#m9c0c63e11b" y="98.450838"/>
     <use style="fill:#00d4ff;stroke:#00d4ff;" x="110.333457" xlink:href="#m9c0c63e11b" y="88.883427"/>
     <use style="fill:#00d4ff;stroke:#00d4ff;" x="112.787483" xlink:href="#m9c0c63e11b" y="95.609973"/>
     <use style="fill:#00d4ff;stroke:#00d4ff;" x="115.241509" xlink:href="#m9c0c63e11b" y="88.713414"/>
     <use style="fill:#00d4ff;stroke:#00d4ff;" x="117.695535" xlink:href="#m9c0c63e11b" y="87.105819"/>
     <use style="fill:#00d4ff;stroke:#00d4ff;" x="120.14956" xlink:href="#m9c0c63e11b" y="91.874547"/>
     <use style="fill:#00d4ff;stroke:#00d4ff;" x="122.603586" xlink:href="#m9c0c63e11b" y="85.842441"/>
     <use style="fill:#00d4ff;stroke:#00d4ff;" x="125.057612" xlink:href="#m9c0c63e11b" y="88.360941"/>
     <use style="fill:#00d4ff;stroke:#00d4ff;" x="127.511638" xlink:href="#m9c0c63e11b" y="94.351311"/>
     <use style="fill:#00d4ff;stroke:#00d4ff;" x="129.965664" xlink:href="#m9c0c63e11b" y="96.184604"/>
     <use style="fill:#00d4ff;stroke:#00d4ff;" x="132.419689" xlink:href="#m9c0c63e11b" y="98.415206"/>
     <use style="fill:#00d4ff;stroke:#00d4ff;" x="134.873715" xlink:href="#m9c0c63e11b" y="123.645616"/>
     <use style="fill:#00d4ff;stroke:#00d4ff;" x="137.327741" xlink:href="#m9c0c63e11b" y="120.546606"/>
     <use style="fill:#00d4ff;stroke:#00d4ff;" x="139.781767" xlink:href="#m9c0c63e11b" y="137.552468"/>
     <use style="fill:#00d4ff;stroke:#00d4ff;" x="142.235792" xlink:href="#m9c0c63e11b" y="136.056759"/>
     <use style="fill:#00d4ff;stroke:#00d4ff;" x="144.689818" xlink:href="#m9c0c63e11b" y="122.847779"/>
     <use style="fill:#00d4ff;stroke:#00d4ff;" x="147.143844" xlink:href="#m9c0c63e11b" y="99.739433"/>
     <use style="fill:#00d4ff;stroke:#00d4ff;" x="149.59787" xlink:href="#m9c0c63e11b" y="118.43616"/>
     <use style="fill:#00d4ff;stroke:#00d4ff;" x="152.051896" xlink:href="#m9c0c63e11b" y="129.980438"/>
     <use style="fill:#00d4ff;stroke:#00d4ff;" x="154.505921" xlink:href="#m9c0c63e11b" y="152.596169"/>
     <use style="fill:#00d4ff;stroke:#00d4ff;" x="156.959947" xlink:href="#m9c0c63e11b" y="114.067403"/>
     <use style="fill:#00d4ff;stroke:#00d4ff;" x="159.413973" xlink:href="#m9c0c63e11b" y="131.268291"/>
     <use style="fill:#00d4ff;stroke:#00d4ff;" x="161.867999" xlink:href="#m9c0c63e11b" y="135.957811"/>
     <use style="fill:#00d4ff;stroke:#00d4ff;" x="164.322025" xlink:href="#m9c0c63e11b" y="117.405516"/>
     <use style="fill:#00d4ff;stroke:#00d4ff;" x="166.77605" xlink:href="#m9c0c63e11b" y="112.812504"/>
     <use style="fill:#00d4ff;stroke:#00d4ff;" x="169.230076" xlink:href="#m9c0c63e11b" y="113.548095"/>
     <use style="fill:#00d4ff;stroke:#00d4ff;" x="171.684102" xlink:href="#m9c0c63e11b" y="114.063739"/>
     <use style="fill:#00d4ff;stroke:#00d4ff;" x="174.138128" xlink:href="#m9c0c63e11b" y="81.389834"/>
     <use style="fill:#00d4ff;stroke:#00d4ff;" x="176.592153" xlink:href="#m9c0c63e11b" y="56.928446"/>
     <use style="fill:#00d4ff;stroke:#00d4ff;" x="179.046179" xlink:href="#m9c0c63e11b" y="53.072596"/>
     <use style="fill:#00d4ff;stroke:#00d4ff;" x="181.500205" xlink:href="#m9c0c63e11b" y="76.911614"/>
     <use style="fill:#00d4ff;stroke:#00d4ff;" x="183.954231" xlink:href="#m9c0c63e11b" y="79.324134"/>
     <use style="fill:#00d4ff;stroke:#00d4ff;" x="186.408257" xlink:href="#m9c0c63e11b" y="80.703794"/>
     <use style="fill:#00d4ff;stroke:#00d4ff;" x="188.862282" xlink:href="#m9c0c63e11b" y="83.086453"/>
     <use style="fill:#00d4ff;stroke:#00d4ff;" x="191.316308" xlink:href="#m9c0c63e11b" y="84.533656"/>
     <use style="fill:#00d4ff;stroke:#00d4ff;" x="193.770334" xlink:href="#m9c0c63e11b" y="75.999368"/>
     <use style="fill:#00d4ff;stroke:#00d4ff;" x="196.22436" xlink:href="#m9c0c63e11b" y="70.801733"/>
     <use style="fill:#00d4ff;stroke:#00d4ff;" x="198.678386" xlink:href="#m9c0c63e11b" y="72.992101"/>
     <use style="fill:#00d4ff;stroke:#00d4ff;" x="201.132411" xlink:href="#m9c0c63e11b" y="74.439158"/>
     <use style="fill:#00d4ff;stroke:#00d4ff;" x="203.586437" xlink:href="#m9c0c63e11b" y="84.102901"/>
     <use style="fill:#00d4ff;stroke:#00d4ff;" x="206.040463" xlink:href="#m9c0c63e11b" y="65.229154"/>
     <use style="fill:#00d4ff;stroke:#00d4ff;" x="208.494489" xlink:href="#m9c0c63e11b" y="67.125108"/>
     <use style="fill:#00d4ff;stroke:#00d4ff;" x="210.948515" xlink:href="#m9c0c63e11b" y="51.573023"/>
     <use style="fill:#00d4ff;stroke:#00d4ff;" x="213.40254" xlink:href="#m9c0c63e11b" y="61.383891"/>
     <use style="fill:#00d4ff;stroke:#00d4ff;" x="215.856566" xlink:href="#m9c0c63e11b" y="80.028741"/>
     <use style="fill:#00d4ff;stroke:#00d4ff;" x="218.310592" xlink:href="#m9c0c63e11b" y="65.378921"/>
     <use style="fill:#00d4ff;stroke:#00d4ff;" x="220.764618" xlink:href="#m9c0c63e11b" y="68.077727"/>
     <use style="fill:#00d4ff;stroke:#00d4ff;" x="223.218643" xlink:href="#m9c0c63e11b" y="77.687238"/>
     <use style="fill:#00d4ff;stroke:#00d4ff;" x="225.672669" xlink:href="#m9c0c63e11b" y="97.9361"/>
     <use style="fill:#00d4ff;stroke:#00d4ff;" x="228.126695" xlink:href="#m9c0c63e11b" y="89.648628"/>
     <use style="fill:#00d4ff;stroke:#00d4ff;" x="230.580721" xlink:href="#m9c0c63e11b" y="95.865472"/>
     <use style="fill:#00d4ff;stroke:#00d4ff;" x="233.034747" xlink:href="#m9c0c63e11b" y="125.136623"/>
     <use style="fill:#00d4ff;stroke:#00d4ff;" x="235.488772" xlink:href="#m9c0c63e11b" y="155.428279"/>
     <use style="fill:#00d4ff;stroke:#00d4ff;" x="237.942798" xlink:href="#m9c0c63e11b" y="101.54701"/>
     <use style="fill:#00d4ff;stroke:#00d4ff;" x="240.396824" xlink:href="#m9c0c63e11b" y="100.923682"/>
     <use style="fill:#00d4ff;stroke:#00d4ff;" x="242.85085" xlink:href="#m9c0c63e11b" y="110.647176"/>
     <use style="fill:#00d4ff;stroke:#00d4ff;" x="245.304876" xlink:href="#m9c0c63e11b" y="95.873275"/>
     <use style="fill:#00d4ff;stroke:#00d4ff;" x="247.758901" xlink:href="#m9c0c63e11b" y="96.972178"/>
     <use style="fill:#00d4ff;stroke:#00d4ff;" x="250.212927" xlink:href="#m9c0c63e11b" y="99.754969"/>
     <use style="fill:#00d4ff;stroke:#00d4ff;" x="252.666953" xlink:href="#m9c0c63e11b" y="104.426533"/>
    </g>
   </g>
   <g id="line2d_31">
    <path clip-path="url(#p9bc08ef488)" d="M 61.252941 139.952571 
L 63.706967 131.631392 
L 66.160993 133.955684 
L 68.615019 124.823828 
L 71.069045 111.308325 
L 73.52307 110.113831 
L 75.977096 113.221116 
L 78.431122 102.572785 
L 80.885148 107.07419 
L 83.339174 91.553844 
L 85.793199 102.685477 
L 88.247225 104.726337 
L 90.701251 128.852013 
L 93.155277 112.202515 
L 95.609302 101.002491 
L 98.063328 107.441965 
L 100.517354 88.614867 
L 102.97138 95.414438 
L 105.425406 81.941162 
L 107.879431 90.942916 
L 110.333457 78.199449 
L 112.787483 84.212343 
L 115.241509 85.487853 
L 117.695535 84.777115 
L 120.14956 88.39109 
L 122.603586 98.061599 
L 125.057612 103.81629 
L 127.511638 115.797161 
L 129.965664 124.914849 
L 132.419689 120.637114 
L 134.873715 132.723982 
L 137.327741 130.675402 
L 139.781767 113.284074 
L 142.235792 123.080509 
L 144.689818 117.866943 
L 147.143844 104.339732 
L 149.59787 107.094868 
L 152.051896 130.774111 
L 154.505921 148.355322 
L 156.959947 108.492049 
L 159.413973 108.385414 
L 161.867999 93.577153 
L 164.322025 104.352322 
L 166.77605 102.663872 
L 169.230076 104.293068 
L 171.684102 93.108497 
L 174.138128 96.662843 
L 176.592153 101.561481 
L 179.046179 81.78141 
L 181.500205 87.144846 
L 183.954231 88.296298 
L 186.408257 87.58883 
L 188.862282 99.786701 
L 191.316308 87.313385 
L 193.770334 76.426786 
L 196.22436 75.78235 
L 198.678386 58.681986 
L 201.132411 65.874866 
L 203.586437 56.482575 
L 206.040463 68.088912 
L 208.494489 73.835538 
L 210.948515 71.722396 
L 213.40254 52.205533 
L 215.856566 59.477706 
L 218.310592 60.304599 
L 220.764618 72.427167 
L 223.218643 73.561224 
L 225.672669 101.209284 
L 228.126695 102.616309 
L 230.580721 98.701328 
L 233.034747 100.349456 
L 235.488772 110.273037 
L 237.942798 112.852125 
L 240.396824 82.905692 
L 242.85085 96.564323 
L 245.304876 82.207358 
L 247.758901 76.077249 
L 250.212927 98.036074 
L 252.666953 98.372561 
" style="fill:none;stroke:#ffe600;stroke-linecap:square;stroke-width:1.5;"/>
    <defs>
     <path d="M 0 3 
C 0.795609 3 1.55874 2.683901 2.12132 2.12132 
C 2.683901 1.55874 3 0.795609 3 0 
C 3 -0.795609 2.683901 -1.55874 2.12132 -2.12132 
C 1.55874 -2.683901 0.795609 -3 0 -3 
C -0.795609 -3 -1.55874 -2.683901 -2.12132 -2.12132 
C -2.683901 -1.55874 -3 -0.795609 -3 0 
C -3 0.795609 -2.683901 1.55874 -2.12132 2.12132 
C -1.55874 2.683901 -0.795609 3 0 3 
z
" id="m8a7030493a" style="stroke:#ffe600;"/>
    </defs>
    <g clip-path="url(#p9bc08ef488)">
     <use style="fill:#ffe600;stroke:#ffe600;" x="61.252941" xlink:href="#m8a7030493a" y="139.952571"/>
     <use style="fill:#ffe600;stroke:#ffe600;" x="63.706967" xlink:href="#m8a7030493a" y="131.631392"/>
     <use style="fill:#ffe600;stroke:#ffe600;" x="66.160993" xlink:href="#m8a7030493a" y="133.955684"/>
     <use style="fill:#ffe600;stroke:#ffe600;" x="68.615019" xlink:href="#m8a7030493a" y="124.823828"/>
     <use style="fill:#ffe600;stroke:#ffe600;" x="71.069045" xlink:href="#m8a7030493a" y="111.308325"/>
     <use style="fill:#ffe600;stroke:#ffe600;" x="73.52307" xlink:href="#m8a7030493a" y="110.113831"/>
     <use style="fill:#ffe600;stroke:#ffe600;" x="75.977096" xlink:href="#m8a7030493a" y="113.221116"/>
     <use style="fill:#ffe600;stroke:#ffe600;" x="78.431122" xlink:href="#m8a7030493a" y="102.572785"/>
     <use style="fill:#ffe600;stroke:#ffe600;" x="80.885148" xlink:href="#m8a7030493a" y="107.07419"/>
     <use style="fill:#ffe600;stroke:#ffe600;" x="83.339174" xlink:href="#m8a7030493a" y="91.553844"/>
     <use style="fill:#ffe600;stroke:#ffe600;" x="85.793199" xlink:href="#m8a7030493a" y="102.685477"/>
     <use style="fill:#ffe600;stroke:#ffe600;" x="88.247225" xlink:href="#m8a7030493a" y="104.726337"/>
     <use style="fill:#ffe600;stroke:#ffe600;" x="90.701251" xlink:href="#m8a7030493a" y="128.852013"/>
     <use style="fill:#ffe600;stroke:#ffe600;" x="93.155277" xlink:href="#m8a7030493a" y="112.202515"/>
     <use style="fill:#ffe600;stroke:#ffe600;" x="95.609302" xlink:href="#m8a7030493a" y="101.002491"/>
     <use style="fill:#ffe600;stroke:#ffe600;" x="98.063328" xlink:href="#m8a7030493a" y="107.441965"/>
     <use style="fill:#ffe600;stroke:#ffe600;" x="100.517354" xlink:href="#m8a7030493a" y="88.614867"/>
     <use style="fill:#ffe600;stroke:#ffe600;" x="102.97138" xlink:href="#m8a7030493a" y="95.414438"/>
     <use style="fill:#ffe600;stroke:#ffe600;" x="105.425406" xlink:href="#m8a7030493a" y="81.941162"/>
     <use style="fill:#ffe600;stroke:#ffe600;" x="107.879431" xlink:href="#m8a7030493a" y="90.942916"/>
     <use style="fill:#ffe600;stroke:#ffe600;" x="110.333457" xlink:href="#m8a7030493a" y="78.199449"/>
     <use style="fill:#ffe600;stroke:#ffe600;" x="112.787483" xlink:href="#m8a7030493a" y="84.212343"/>
     <use style="fill:#ffe600;stroke:#ffe600;" x="115.241509" xlink:href="#m8a7030493a" y="85.487853"/>
     <use style="fill:#ffe600;stroke:#ffe600;" x="117.695535" xlink:href="#m8a7030493a" y="84.777115"/>
     <use style="fill:#ffe600;stroke:#ffe600;" x="120.14956" xlink:href="#m8a7030493a" y="88.39109"/>
     <use style="fill:#ffe600;stroke:#ffe600;" x="122.603586" xlink:href="#m8a7030493a" y="98.061599"/>
     <use style="fill:#ffe600;stroke:#ffe600;" x="125.057612" xlink:href="#m8a7030493a" y="103.81629"/>
     <use style="fill:#ffe600;stroke:#ffe600;" x="127.511638" xlink:href="#m8a7030493a" y="115.797161"/>
     <use style="fill:#ffe600;stroke:#ffe600;" x="129.965664" xlink:href="#m8a7030493a" y="124.914849"/>
     <use style="fill:#ffe600;stroke:#ffe600;" x="132.419689" xlink:href="#m8a7030493a" y="120.637114"/>
     <use style="fill:#ffe600;stroke:#ffe600;" x="134.873715" xlink:href="#m8a7030493a" y="132.723982"/>
     <use style="fill:#ffe600;stroke:#ffe600;" x="137.327741" xlink:href="#m8a7030493a" y="130.675402"/>
     <use style="fill:#ffe600;stroke:#ffe600;" x="139.781767" xlink:href="#m8a7030493a" y="113.284074"/>
     <use style="fill:#ffe600;stroke:#ffe600;" x="142.235792" xlink:href="#m8a7030493a" y="123.080509"/>
     <use style="fill:#ffe600;stroke:#ffe600;" x="144.689818" xlink:href="#m8a7030493a" y="117.866943"/>
     <use style="fill:#ffe600;stroke:#ffe600;" x="147.143844" xlink:href="#m8a7030493a" y="104.339732"/>
     <use style="fill:#ffe600;stroke:#ffe600;" x="149.59787" xlink:href="#m8a7030493a" y="107.094868"/>
     <use style="fill:#ffe600;stroke:#ffe600;" x="152.051896" xlink:href="#m8a7030493a" y="130.774111"/>
     <use style="fill:#ffe600;stroke:#ffe600;" x="154.505921" xlink:href="#m8a7030493a" y="148.355322"/>
     <use style="fill:#ffe600;stroke:#ffe600;" x="156.959947" xlink:href="#m8a7030493a" y="108.492049"/>
     <use style="fill:#ffe600;stroke:#ffe600;" x="159.413973" xlink:href="#m8a7030493a" y="108.385414"/>
     <use style="fill:#ffe600;stroke:#ffe600;" x="161.867999" xlink:href="#m8a7030493a" y="93.577153"/>
     <use style="fill:#ffe600;stroke:#ffe600;" x="164.322025" xlink:href="#m8a7030493a" y="104.352322"/>
     <use style="fill:#ffe600;stroke:#ffe600;" x="166.77605" xlink:href="#m8a7030493a" y="102.663872"/>
     <use style="fill:#ffe600;stroke:#ffe600;" x="169.230076" xlink:href="#m8a7030493a" y="104.293068"/>
     <use style="fill:#ffe600;stroke:#ffe600;" x="171.684102" xlink:href="#m8a7030493a" y="93.108497"/>
     <use style="fill:#ffe600;stroke:#ffe600;" x="174.138128" xlink:href="#m8a7030493a" y="96.662843"/>
     <use style="fill:#ffe600;stroke:#ffe600;" x="176.592153" xlink:href="#m8a7030493a" y="101.561481"/>
     <use style="fill:#ffe600;stroke:#ffe600;" x="179.046179" xlink:href="#m8a7030493a" y="81.78141"/>
     <use style="fill:#ffe600;stroke:#ffe600;" x="181.500205" xlink:href="#m8a7030493a" y="87.144846"/>
     <use style="fill:#ffe600;stroke:#ffe600;" x="183.954231" xlink:href="#m8a7030493a" y="88.296298"/>
     <use style="fill:#ffe600;stroke:#ffe600;" x="186.408257" xlink:href="#m8a7030493a" y="87.58883"/>
     <use style="fill:#ffe600;stroke:#ffe600;" x="188.862282" xlink:href="#m8a7030493a" y="99.786701"/>
     <use style="fill:#ffe600;stroke:#ffe600;" x="191.316308" xlink:href="#m8a7030493a" y="87.313385"/>
     <use style="fill:#ffe600;stroke:#ffe600;" x="193.770334" xlink:href="#m8a7030493a" y="76.426786"/>
     <use style="fill:#ffe600;stroke:#ffe600;" x="196.22436" xlink:href="#m8a7030493a" y="75.78235"/>
     <use style="fill:#ffe600;stroke:#ffe600;" x="198.678386" xlink:href="#m8a7030493a" y="58.681986"/>
     <use style="fill:#ffe600;stroke:#ffe600;" x="201.132411" xlink:href="#m8a7030493a" y="65.874866"/>
     <use style="fill:#ffe600;stroke:#ffe600;" x="203.586437" xlink:href="#m8a7030493a" y="56.482575"/>
     <use style="fill:#ffe600;stroke:#ffe600;" x="206.040463" xlink:href="#m8a7030493a" y="68.088912"/>
     <use style="fill:#ffe600;stroke:#ffe600;" x="208.494489" xlink:href="#m8a7030493a" y="73.835538"/>
     <use style="fill:#ffe600;stroke:#ffe600;" x="210.948515" xlink:href="#m8a7030493a" y="71.722396"/>
     <use style="fill:#ffe600;stroke:#ffe600;" x="213.40254" xlink:href="#m8a7030493a" y="52.205533"/>
     <use style="fill:#ffe600;stroke:#ffe600;" x="215.856566" xlink:href="#m8a7030493a" y="59.477706"/>
     <use style="fill:#ffe600;stroke:#ffe600;" x="218.310592" xlink:href="#m8a7030493a" y="60.304599"/>
     <use style="fill:#ffe600;stroke:#ffe600;" x="220.764618" xlink:href="#m8a7030493a" y="72.427167"/>
     <use style="fill:#ffe600;stroke:#ffe600;" x="223.218643" xlink:href="#m8a7030493a" y="73.561224"/>
     <use style="fill:#ffe600;stroke:#ffe600;" x="225.672669" xlink:href="#m8a7030493a" y="101.209284"/>
     <use style="fill:#ffe600;stroke:#ffe600;" x="228.126695" xlink:href="#m8a7030493a" y="102.616309"/>
     <use style="fill:#ffe600;stroke:#ffe600;" x="230.580721" xlink:href="#m8a7030493a" y="98.701328"/>
     <use style="fill:#ffe600;stroke:#ffe600;" x="233.034747" xlink:href="#m8a7030493a" y="100.349456"/>
     <use style="fill:#ffe600;stroke:#ffe600;" x="235.488772" xlink:href="#m8a7030493a" y="110.273037"/>
     <use style="fill:#ffe600;stroke:#ffe600;" x="237.942798" xlink:href="#m8a7030493a" y="112.852125"/>
     <use style="fill:#ffe600;stroke:#ffe600;" x="240.396824" xlink:href="#m8a7030493a" y="82.905692"/>
     <use style="fill:#ffe600;stroke:#ffe600;" x="242.85085" xlink:href="#m8a7030493a" y="96.564323"/>
     <use style="fill:#ffe600;stroke:#ffe600;" x="245.304876" xlink:href="#m8a7030493a" y="82.207358"/>
     <use style="fill:#ffe600;stroke:#ffe600;" x="247.758901" xlink:href="#m8a7030493a" y="76.077249"/>
     <use style="fill:#ffe600;stroke:#ffe600;" x="250.212927" xlink:href="#m8a7030493a" y="98.036074"/>
     <use style="fill:#ffe600;stroke:#ffe600;" x="252.666953" xlink:href="#m8a7030493a" y="98.372561"/>
    </g>
   </g>
   <g id="line2d_32">
    <path clip-path="url(#p9bc08ef488)" d="M 63.706967 213.800898 
L 66.160993 177.249052 
L 68.615019 133.630497 
L 71.069045 107.91917 
L 73.52307 111.228659 
L 75.977096 86.070235 
L 78.431122 110.24404 
L 80.885148 88.038718 
L 83.339174 85.719359 
L 85.793199 113.564554 
L 88.247225 107.328348 
L 90.701251 126.400406 
L 93.155277 102.461334 
L 95.609302 122.273197 
L 98.063328 111.112413 
L 100.517354 97.168298 
L 102.97138 79.296196 
L 105.425406 98.538252 
L 107.879431 86.960799 
L 110.333457 131.665125 
L 112.787483 133.959831 
L 115.241509 76.144971 
L 117.695535 70.092567 
L 120.14956 98.460741 
L 122.603586 90.790895 
L 125.057612 95.06338 
L 127.511638 107.942046 
L 129.965664 144.503871 
L 132.419689 130.432507 
L 134.873715 149.363888 
L 137.327741 144.961069 
L 139.781767 149.242769 
L 144.689818 113.387892 
L 147.143844 113.840988 
L 149.59787 111.213217 
L 154.505921 156.760557 
L 156.959947 105.758416 
L 159.413973 109.078598 
L 161.867999 105.459403 
L 164.322025 89.827322 
L 166.77605 96.933978 
L 169.230076 139.366017 
L 171.684102 101.849549 
L 174.138128 83.963294 
L 176.592153 107.139902 
L 179.046179 73.710104 
L 181.500205 83.110339 
L 183.954231 94.692983 
L 186.408257 87.918887 
L 188.862282 102.157859 
L 191.316308 70.860057 
L 193.770334 67.303499 
L 196.22436 74.750691 
L 198.678386 52.59666 
L 201.132411 66.370749 
L 203.586437 60.680023 
L 206.040463 77.256599 
L 208.494489 66.119445 
L 210.948515 55.394798 
L 213.40254 43.092615 
L 215.856566 31.436352 
L 218.310592 42.499732 
L 220.764618 57.779786 
L 223.218643 85.394468 
L 225.672669 103.303679 
L 228.126695 87.712431 
L 230.580721 114.229666 
L 233.034747 124.680007 
L 235.488772 97.702793 
L 237.942798 102.413394 
L 240.396824 90.270208 
L 242.85085 94.160258 
L 245.304876 77.025542 
L 247.758901 100.326019 
L 250.212927 83.342041 
L 252.666953 94.482794 
" style="fill:none;stroke:#800000;stroke-linecap:square;stroke-width:1.5;"/>
    <defs>
     <path d="M 0 3 
C 0.795609 3 1.55874 2.683901 2.12132 2.12132 
C 2.683901 1.55874 3 0.795609 3 0 
C 3 -0.795609 2.683901 -1.55874 2.12132 -2.12132 
C 1.55874 -2.683901 0.795609 -3 0 -3 
C -0.795609 -3 -1.55874 -2.683901 -2.12132 -2.12132 
C -2.683901 -1.55874 -3 -0.795609 -3 0 
C -3 0.795609 -2.683901 1.55874 -2.12132 2.12132 
C -1.55874 2.683901 -0.795609 3 0 3 
z
" id="mce5c9518df" style="stroke:#800000;"/>
    </defs>
    <g clip-path="url(#p9bc08ef488)">
     <use style="fill:#800000;stroke:#800000;" x="63.706967" xlink:href="#mce5c9518df" y="213.800898"/>
     <use style="fill:#800000;stroke:#800000;" x="66.160993" xlink:href="#mce5c9518df" y="177.249052"/>
     <use style="fill:#800000;stroke:#800000;" x="68.615019" xlink:href="#mce5c9518df" y="133.630497"/>
     <use style="fill:#800000;stroke:#800000;" x="71.069045" xlink:href="#mce5c9518df" y="107.91917"/>
     <use style="fill:#800000;stroke:#800000;" x="73.52307" xlink:href="#mce5c9518df" y="111.228659"/>
     <use style="fill:#800000;stroke:#800000;" x="75.977096" xlink:href="#mce5c9518df" y="86.070235"/>
     <use style="fill:#800000;stroke:#800000;" x="78.431122" xlink:href="#mce5c9518df" y="110.24404"/>
     <use style="fill:#800000;stroke:#800000;" x="80.885148" xlink:href="#mce5c9518df" y="88.038718"/>
     <use style="fill:#800000;stroke:#800000;" x="83.339174" xlink:href="#mce5c9518df" y="85.719359"/>
     <use style="fill:#800000;stroke:#800000;" x="85.793199" xlink:href="#mce5c9518df" y="113.564554"/>
     <use style="fill:#800000;stroke:#800000;" x="88.247225" xlink:href="#mce5c9518df" y="107.328348"/>
     <use style="fill:#800000;stroke:#800000;" x="90.701251" xlink:href="#mce5c9518df" y="126.400406"/>
     <use style="fill:#800000;stroke:#800000;" x="93.155277" xlink:href="#mce5c9518df" y="102.461334"/>
     <use style="fill:#800000;stroke:#800000;" x="95.609302" xlink:href="#mce5c9518df" y="122.273197"/>
     <use style="fill:#800000;stroke:#800000;" x="98.063328" xlink:href="#mce5c9518df" y="111.112413"/>
     <use style="fill:#800000;stroke:#800000;" x="100.517354" xlink:href="#mce5c9518df" y="97.168298"/>
     <use style="fill:#800000;stroke:#800000;" x="102.97138" xlink:href="#mce5c9518df" y="79.296196"/>
     <use style="fill:#800000;stroke:#800000;" x="105.425406" xlink:href="#mce5c9518df" y="98.538252"/>
     <use style="fill:#800000;stroke:#800000;" x="107.879431" xlink:href="#mce5c9518df" y="86.960799"/>
     <use style="fill:#800000;stroke:#800000;" x="110.333457" xlink:href="#mce5c9518df" y="131.665125"/>
     <use style="fill:#800000;stroke:#800000;" x="112.787483" xlink:href="#mce5c9518df" y="133.959831"/>
     <use style="fill:#800000;stroke:#800000;" x="115.241509" xlink:href="#mce5c9518df" y="76.144971"/>
     <use style="fill:#800000;stroke:#800000;" x="117.695535" xlink:href="#mce5c9518df" y="70.092567"/>
     <use style="fill:#800000;stroke:#800000;" x="120.14956" xlink:href="#mce5c9518df" y="98.460741"/>
     <use style="fill:#800000;stroke:#800000;" x="122.603586" xlink:href="#mce5c9518df" y="90.790895"/>
     <use style="fill:#800000;stroke:#800000;" x="125.057612" xlink:href="#mce5c9518df" y="95.06338"/>
     <use style="fill:#800000;stroke:#800000;" x="127.511638" xlink:href="#mce5c9518df" y="107.942046"/>
     <use style="fill:#800000;stroke:#800000;" x="129.965664" xlink:href="#mce5c9518df" y="144.503871"/>
     <use style="fill:#800000;stroke:#800000;" x="132.419689" xlink:href="#mce5c9518df" y="130.432507"/>
     <use style="fill:#800000;stroke:#800000;" x="134.873715" xlink:href="#mce5c9518df" y="149.363888"/>
     <use style="fill:#800000;stroke:#800000;" x="137.327741" xlink:href="#mce5c9518df" y="144.961069"/>
     <use style="fill:#800000;stroke:#800000;" x="139.781767" xlink:href="#mce5c9518df" y="149.242769"/>
     <use style="fill:#800000;stroke:#800000;" x="144.689818" xlink:href="#mce5c9518df" y="113.387892"/>
     <use style="fill:#800000;stroke:#800000;" x="147.143844" xlink:href="#mce5c9518df" y="113.840988"/>
     <use style="fill:#800000;stroke:#800000;" x="149.59787" xlink:href="#mce5c9518df" y="111.213217"/>
     <use style="fill:#800000;stroke:#800000;" x="154.505921" xlink:href="#mce5c9518df" y="156.760557"/>
     <use style="fill:#800000;stroke:#800000;" x="156.959947" xlink:href="#mce5c9518df" y="105.758416"/>
     <use style="fill:#800000;stroke:#800000;" x="159.413973" xlink:href="#mce5c9518df" y="109.078598"/>
     <use style="fill:#800000;stroke:#800000;" x="161.867999" xlink:href="#mce5c9518df" y="105.459403"/>
     <use style="fill:#800000;stroke:#800000;" x="164.322025" xlink:href="#mce5c9518df" y="89.827322"/>
     <use style="fill:#800000;stroke:#800000;" x="166.77605" xlink:href="#mce5c9518df" y="96.933978"/>
     <use style="fill:#800000;stroke:#800000;" x="169.230076" xlink:href="#mce5c9518df" y="139.366017"/>
     <use style="fill:#800000;stroke:#800000;" x="171.684102" xlink:href="#mce5c9518df" y="101.849549"/>
     <use style="fill:#800000;stroke:#800000;" x="174.138128" xlink:href="#mce5c9518df" y="83.963294"/>
     <use style="fill:#800000;stroke:#800000;" x="176.592153" xlink:href="#mce5c9518df" y="107.139902"/>
     <use style="fill:#800000;stroke:#800000;" x="179.046179" xlink:href="#mce5c9518df" y="73.710104"/>
     <use style="fill:#800000;stroke:#800000;" x="181.500205" xlink:href="#mce5c9518df" y="83.110339"/>
     <use style="fill:#800000;stroke:#800000;" x="183.954231" xlink:href="#mce5c9518df" y="94.692983"/>
     <use style="fill:#800000;stroke:#800000;" x="186.408257" xlink:href="#mce5c9518df" y="87.918887"/>
     <use style="fill:#800000;stroke:#800000;" x="188.862282" xlink:href="#mce5c9518df" y="102.157859"/>
     <use style="fill:#800000;stroke:#800000;" x="191.316308" xlink:href="#mce5c9518df" y="70.860057"/>
     <use style="fill:#800000;stroke:#800000;" x="193.770334" xlink:href="#mce5c9518df" y="67.303499"/>
     <use style="fill:#800000;stroke:#800000;" x="196.22436" xlink:href="#mce5c9518df" y="74.750691"/>
     <use style="fill:#800000;stroke:#800000;" x="198.678386" xlink:href="#mce5c9518df" y="52.59666"/>
     <use style="fill:#800000;stroke:#800000;" x="201.132411" xlink:href="#mce5c9518df" y="66.370749"/>
     <use style="fill:#800000;stroke:#800000;" x="203.586437" xlink:href="#mce5c9518df" y="60.680023"/>
     <use style="fill:#800000;stroke:#800000;" x="206.040463" xlink:href="#mce5c9518df" y="77.256599"/>
     <use style="fill:#800000;stroke:#800000;" x="208.494489" xlink:href="#mce5c9518df" y="66.119445"/>
     <use style="fill:#800000;stroke:#800000;" x="210.948515" xlink:href="#mce5c9518df" y="55.394798"/>
     <use style="fill:#800000;stroke:#800000;" x="213.40254" xlink:href="#mce5c9518df" y="43.092615"/>
     <use style="fill:#800000;stroke:#800000;" x="215.856566" xlink:href="#mce5c9518df" y="31.436352"/>
     <use style="fill:#800000;stroke:#800000;" x="218.310592" xlink:href="#mce5c9518df" y="42.499732"/>
     <use style="fill:#800000;stroke:#800000;" x="220.764618" xlink:href="#mce5c9518df" y="57.779786"/>
     <use style="fill:#800000;stroke:#800000;" x="223.218643" xlink:href="#mce5c9518df" y="85.394468"/>
     <use style="fill:#800000;stroke:#800000;" x="225.672669" xlink:href="#mce5c9518df" y="103.303679"/>
     <use style="fill:#800000;stroke:#800000;" x="228.126695" xlink:href="#mce5c9518df" y="87.712431"/>
     <use style="fill:#800000;stroke:#800000;" x="230.580721" xlink:href="#mce5c9518df" y="114.229666"/>
     <use style="fill:#800000;stroke:#800000;" x="233.034747" xlink:href="#mce5c9518df" y="124.680007"/>
     <use style="fill:#800000;stroke:#800000;" x="235.488772" xlink:href="#mce5c9518df" y="97.702793"/>
     <use style="fill:#800000;stroke:#800000;" x="237.942798" xlink:href="#mce5c9518df" y="102.413394"/>
     <use style="fill:#800000;stroke:#800000;" x="240.396824" xlink:href="#mce5c9518df" y="90.270208"/>
     <use style="fill:#800000;stroke:#800000;" x="242.85085" xlink:href="#mce5c9518df" y="94.160258"/>
     <use style="fill:#800000;stroke:#800000;" x="245.304876" xlink:href="#mce5c9518df" y="77.025542"/>
     <use style="fill:#800000;stroke:#800000;" x="247.758901" xlink:href="#mce5c9518df" y="100.326019"/>
     <use style="fill:#800000;stroke:#800000;" x="250.212927" xlink:href="#mce5c9518df" y="83.342041"/>
     <use style="fill:#800000;stroke:#800000;" x="252.666953" xlink:href="#mce5c9518df" y="94.482794"/>
    </g>
   </g>
   <g id="patch_3">
    <path d="M 48.982813 222.919125 
L 48.982813 22.318125 
" style="fill:none;stroke:#000000;stroke-linecap:square;stroke-linejoin:miter;stroke-width:0.8;"/>
   </g>
   <g id="patch_4">
    <path d="M 262.483056 222.919125 
L 262.483056 22.318125 
" style="fill:none;stroke:#000000;stroke-linecap:square;stroke-linejoin:miter;stroke-width:0.8;"/>
   </g>
   <g id="patch_5">
    <path d="M 48.982812 222.919125 
L 262.483056 222.919125 
" style="fill:none;stroke:#000000;stroke-linecap:square;stroke-linejoin:miter;stroke-width:0.8;"/>
   </g>
   <g id="patch_6">
    <path d="M 48.982812 22.318125 
L 262.483056 22.318125 
" style="fill:none;stroke:#000000;stroke-linecap:square;stroke-linejoin:miter;stroke-width:0.8;"/>
   </g>
   <g id="text_31">
    <!-- Model-averaged 4-week-ahead forecasts -->
    <defs>
     <path d="M 9.8125 72.90625 
L 24.515625 72.90625 
L 43.109375 23.296875 
L 61.8125 72.90625 
L 76.515625 72.90625 
L 76.515625 0 
L 66.890625 0 
L 66.890625 64.015625 
L 48.09375 14.015625 
L 38.1875 14.015625 
L 19.390625 64.015625 
L 19.390625 0 
L 9.8125 0 
z
" id="DejaVuSans-77"/>
     <path d="M 4.203125 54.6875 
L 13.1875 54.6875 
L 24.421875 12.015625 
L 35.59375 54.6875 
L 46.1875 54.6875 
L 57.421875 12.015625 
L 68.609375 54.6875 
L 77.59375 54.6875 
L 63.28125 0 
L 52.6875 0 
L 40.921875 44.828125 
L 29.109375 0 
L 18.5 0 
z
" id="DejaVuSans-119"/>
     <path d="M 9.078125 75.984375 
L 18.109375 75.984375 
L 18.109375 31.109375 
L 44.921875 54.6875 
L 56.390625 54.6875 
L 27.390625 29.109375 
L 57.625 0 
L 45.90625 0 
L 18.109375 26.703125 
L 18.109375 0 
L 9.078125 0 
z
" id="DejaVuSans-107"/>
    </defs>
    <g transform="translate(33.409809 16.318125)scale(0.12 -0.12)">
     <use xlink:href="#DejaVuSans-77"/>
     <use x="86.279297" xlink:href="#DejaVuSans-111"/>
     <use x="147.460938" xlink:href="#DejaVuSans-100"/>
     <use x="210.9375" xlink:href="#DejaVuSans-101"/>
     <use x="272.460938" xlink:href="#DejaVuSans-108"/>
     <use x="300.244141" xlink:href="#DejaVuSans-45"/>
     <use x="336.328125" xlink:href="#DejaVuSans-97"/>
     <use x="397.607422" xlink:href="#DejaVuSans-118"/>
     <use x="456.787109" xlink:href="#DejaVuSans-101"/>
     <use x="518.310547" xlink:href="#DejaVuSans-114"/>
     <use x="559.423828" xlink:href="#DejaVuSans-97"/>
     <use x="620.703125" xlink:href="#DejaVuSans-103"/>
     <use x="684.179688" xlink:href="#DejaVuSans-101"/>
     <use x="745.703125" xlink:href="#DejaVuSans-100"/>
     <use x="809.179688" xlink:href="#DejaVuSans-32"/>
     <use x="840.966797" xlink:href="#DejaVuSans-52"/>
     <use x="904.589844" xlink:href="#DejaVuSans-45"/>
     <use x="940.673828" xlink:href="#DejaVuSans-119"/>
     <use x="1022.460938" xlink:href="#DejaVuSans-101"/>
     <use x="1083.984375" xlink:href="#DejaVuSans-101"/>
     <use x="1145.507812" xlink:href="#DejaVuSans-107"/>
     <use x="1203.417969" xlink:href="#DejaVuSans-45"/>
     <use x="1239.501953" xlink:href="#DejaVuSans-97"/>
     <use x="1300.78125" xlink:href="#DejaVuSans-104"/>
     <use x="1364.160156" xlink:href="#DejaVuSans-101"/>
     <use x="1425.683594" xlink:href="#DejaVuSans-97"/>
     <use x="1486.962891" xlink:href="#DejaVuSans-100"/>
     <use x="1550.439453" xlink:href="#DejaVuSans-32"/>
     <use x="1582.226562" xlink:href="#DejaVuSans-102"/>
     <use x="1617.431641" xlink:href="#DejaVuSans-111"/>
     <use x="1678.613281" xlink:href="#DejaVuSans-114"/>
     <use x="1717.476562" xlink:href="#DejaVuSans-101"/>
     <use x="1779" xlink:href="#DejaVuSans-99"/>
     <use x="1833.980469" xlink:href="#DejaVuSans-97"/>
     <use x="1895.259766" xlink:href="#DejaVuSans-115"/>
     <use x="1947.359375" xlink:href="#DejaVuSans-116"/>
     <use x="1986.568359" xlink:href="#DejaVuSans-115"/>
    </g>
   </g>
   <g id="legend_1">
    <g id="patch_7">
     <path d="M 144.326806 217.919125 
L 255.483056 217.919125 
Q 257.483056 217.919125 257.483056 215.919125 
L 257.483056 146.206625 
Q 257.483056 144.206625 255.483056 144.206625 
L 144.326806 144.206625 
Q 142.326806 144.206625 142.326806 146.206625 
L 142.326806 215.919125 
Q 142.326806 217.919125 144.326806 217.919125 
z
" style="fill:#ffffff;opacity:0.8;stroke:#cccccc;stroke-linejoin:miter;"/>
    </g>
    <g id="line2d_33">
     <path d="M 146.326806 152.305063 
L 166.326806 152.305063 
" style="fill:none;stroke:#000080;stroke-linecap:square;stroke-width:1.5;"/>
    </g>
    <g id="line2d_34">
     <g>
      <use style="fill:#000080;stroke:#000080;" x="156.326806" xlink:href="#m5e63000ea9" y="152.305063"/>
     </g>
    </g>
    <g id="text_32">
     <!-- compartmental -->
     <defs>
      <path d="M 18.109375 8.203125 
L 18.109375 -20.796875 
L 9.078125 -20.796875 
L 9.078125 54.6875 
L 18.109375 54.6875 
L 18.109375 46.390625 
Q 20.953125 51.265625 25.265625 53.625 
Q 29.59375 56 35.59375 56 
Q 45.5625 56 51.78125 48.09375 
Q 58.015625 40.1875 58.015625 27.296875 
Q 58.015625 14.40625 51.78125 6.484375 
Q 45.5625 -1.421875 35.59375 -1.421875 
Q 29.59375 -1.421875 25.265625 0.953125 
Q 20.953125 3.328125 18.109375 8.203125 
z
M 48.6875 27.296875 
Q 48.6875 37.203125 44.609375 42.84375 
Q 40.53125 48.484375 33.40625 48.484375 
Q 26.265625 48.484375 22.1875 42.84375 
Q 18.109375 37.203125 18.109375 27.296875 
Q 18.109375 17.390625 22.1875 11.75 
Q 26.265625 6.109375 33.40625 6.109375 
Q 40.53125 6.109375 44.609375 11.75 
Q 48.6875 17.390625 48.6875 27.296875 
z
" id="DejaVuSans-112"/>
     </defs>
     <g transform="translate(174.326806 155.805063)scale(0.1 -0.1)">
      <use xlink:href="#DejaVuSans-99"/>
      <use x="54.980469" xlink:href="#DejaVuSans-111"/>
      <use x="116.162109" xlink:href="#DejaVuSans-109"/>
      <use x="213.574219" xlink:href="#DejaVuSans-112"/>
      <use x="277.050781" xlink:href="#DejaVuSans-97"/>
      <use x="338.330078" xlink:href="#DejaVuSans-114"/>
      <use x="379.443359" xlink:href="#DejaVuSans-116"/>
      <use x="418.652344" xlink:href="#DejaVuSans-109"/>
      <use x="516.064453" xlink:href="#DejaVuSans-101"/>
      <use x="577.587891" xlink:href="#DejaVuSans-110"/>
      <use x="640.966797" xlink:href="#DejaVuSans-116"/>
      <use x="680.175781" xlink:href="#DejaVuSans-97"/>
      <use x="741.455078" xlink:href="#DejaVuSans-108"/>
     </g>
    </g>
    <g id="line2d_35">
     <path d="M 146.326806 170.983188 
L 166.326806 170.983188 
" style="fill:none;stroke:#00d4ff;stroke-linecap:square;stroke-width:1.5;"/>
    </g>
    <g id="line2d_36">
     <g>
      <use style="fill:#00d4ff;stroke:#00d4ff;" x="156.326806" xlink:href="#m9c0c63e11b" y="170.983188"/>
     </g>
    </g>
    <g id="text_33">
     <!-- metapopulation -->
     <g transform="translate(174.326806 174.483188)scale(0.1 -0.1)">
      <use xlink:href="#DejaVuSans-109"/>
      <use x="97.412109" xlink:href="#DejaVuSans-101"/>
      <use x="158.935547" xlink:href="#DejaVuSans-116"/>
      <use x="198.144531" xlink:href="#DejaVuSans-97"/>
      <use x="259.423828" xlink:href="#DejaVuSans-112"/>
      <use x="322.900391" xlink:href="#DejaVuSans-111"/>
      <use x="384.082031" xlink:href="#DejaVuSans-112"/>
      <use x="447.558594" xlink:href="#DejaVuSans-117"/>
      <use x="510.9375" xlink:href="#DejaVuSans-108"/>
      <use x="538.720703" xlink:href="#DejaVuSans-97"/>
      <use x="600" xlink:href="#DejaVuSans-116"/>
      <use x="639.208984" xlink:href="#DejaVuSans-105"/>
      <use x="666.992188" xlink:href="#DejaVuSans-111"/>
      <use x="728.173828" xlink:href="#DejaVuSans-110"/>
     </g>
    </g>
    <g id="line2d_37">
     <path d="M 146.326806 189.661313 
L 166.326806 189.661313 
" style="fill:none;stroke:#ffe600;stroke-linecap:square;stroke-width:1.5;"/>
    </g>
    <g id="line2d_38">
     <g>
      <use style="fill:#ffe600;stroke:#ffe600;" x="156.326806" xlink:href="#m8a7030493a" y="189.661313"/>
     </g>
    </g>
    <g id="text_34">
     <!-- stat&amp;prob -->
     <defs>
      <path d="M 24.3125 39.203125 
Q 19.875 35.25 17.796875 31.3125 
Q 15.71875 27.390625 15.71875 23.09375 
Q 15.71875 15.96875 20.890625 11.234375 
Q 26.078125 6.5 33.890625 6.5 
Q 38.53125 6.5 42.578125 8.03125 
Q 46.625 9.578125 50.203125 12.703125 
z
M 31.203125 44.671875 
L 56 19.28125 
Q 58.890625 23.640625 60.5 28.59375 
Q 62.109375 33.546875 62.40625 39.109375 
L 71.484375 39.109375 
Q 70.90625 32.671875 68.359375 26.359375 
Q 65.828125 20.0625 61.28125 13.921875 
L 74.90625 0 
L 62.59375 0 
L 55.609375 7.171875 
Q 50.53125 2.828125 44.96875 0.703125 
Q 39.40625 -1.421875 33.015625 -1.421875 
Q 21.234375 -1.421875 13.765625 5.296875 
Q 6.296875 12.015625 6.296875 22.515625 
Q 6.296875 28.765625 9.5625 34.25 
Q 12.84375 39.75 19.390625 44.578125 
Q 17.046875 47.65625 15.8125 50.703125 
Q 14.59375 53.765625 14.59375 56.6875 
Q 14.59375 64.59375 20.015625 69.40625 
Q 25.4375 74.21875 34.421875 74.21875 
Q 38.484375 74.21875 42.5 73.34375 
Q 46.53125 72.46875 50.6875 70.703125 
L 50.6875 61.8125 
Q 46.4375 64.109375 42.578125 65.296875 
Q 38.71875 66.5 35.40625 66.5 
Q 30.28125 66.5 27.078125 63.78125 
Q 23.875 61.078125 23.875 56.78125 
Q 23.875 54.296875 25.3125 51.78125 
Q 26.765625 49.265625 31.203125 44.671875 
z
" id="DejaVuSans-38"/>
      <path d="M 48.6875 27.296875 
Q 48.6875 37.203125 44.609375 42.84375 
Q 40.53125 48.484375 33.40625 48.484375 
Q 26.265625 48.484375 22.1875 42.84375 
Q 18.109375 37.203125 18.109375 27.296875 
Q 18.109375 17.390625 22.1875 11.75 
Q 26.265625 6.109375 33.40625 6.109375 
Q 40.53125 6.109375 44.609375 11.75 
Q 48.6875 17.390625 48.6875 27.296875 
z
M 18.109375 46.390625 
Q 20.953125 51.265625 25.265625 53.625 
Q 29.59375 56 35.59375 56 
Q 45.5625 56 51.78125 48.09375 
Q 58.015625 40.1875 58.015625 27.296875 
Q 58.015625 14.40625 51.78125 6.484375 
Q 45.5625 -1.421875 35.59375 -1.421875 
Q 29.59375 -1.421875 25.265625 0.953125 
Q 20.953125 3.328125 18.109375 8.203125 
L 18.109375 0 
L 9.078125 0 
L 9.078125 75.984375 
L 18.109375 75.984375 
z
" id="DejaVuSans-98"/>
     </defs>
     <g transform="translate(174.326806 193.161313)scale(0.1 -0.1)">
      <use xlink:href="#DejaVuSans-115"/>
      <use x="52.099609" xlink:href="#DejaVuSans-116"/>
      <use x="91.308594" xlink:href="#DejaVuSans-97"/>
      <use x="152.587891" xlink:href="#DejaVuSans-116"/>
      <use x="191.796875" xlink:href="#DejaVuSans-38"/>
      <use x="269.775391" xlink:href="#DejaVuSans-112"/>
      <use x="333.251953" xlink:href="#DejaVuSans-114"/>
      <use x="372.115234" xlink:href="#DejaVuSans-111"/>
      <use x="433.296875" xlink:href="#DejaVuSans-98"/>
     </g>
    </g>
    <g id="line2d_39">
     <path d="M 146.326806 208.339438 
L 166.326806 208.339438 
" style="fill:none;stroke:#800000;stroke-linecap:square;stroke-width:1.5;"/>
    </g>
    <g id="line2d_40">
     <g>
      <use style="fill:#800000;stroke:#800000;" x="156.326806" xlink:href="#mce5c9518df" y="208.339438"/>
     </g>
    </g>
    <g id="text_35">
     <!-- ensemble -->
     <g transform="translate(174.326806 211.839438)scale(0.1 -0.1)">
      <use xlink:href="#DejaVuSans-101"/>
      <use x="61.523438" xlink:href="#DejaVuSans-110"/>
      <use x="124.902344" xlink:href="#DejaVuSans-115"/>
      <use x="177.001953" xlink:href="#DejaVuSans-101"/>
      <use x="238.525391" xlink:href="#DejaVuSans-109"/>
      <use x="335.9375" xlink:href="#DejaVuSans-98"/>
      <use x="399.414062" xlink:href="#DejaVuSans-108"/>
      <use x="427.197266" xlink:href="#DejaVuSans-101"/>
     </g>
    </g>
   </g>
  </g>
 </g>
 <defs>
  <clipPath id="p9bc08ef488">
   <rect height="200.601" width="213.500244" x="48.982813" y="22.318125"/>
  </clipPath>
 </defs>
</svg>
