<?xml version="1.0" encoding="utf-8" standalone="no"?>
<!DOCTYPE svg PUBLIC "-//W3C//DTD SVG 1.1//EN"
  "http://www.w3.org/Graphics/SVG/1.1/DTD/svg11.dtd">
<!-- Created with matplotlib (https://matplotlib.org/) -->
<svg height="287.185628pt" version="1.1" viewBox="0 0 287.877245 287.185628" width="287.877245pt" xmlns="http://www.w3.org/2000/svg" xmlns:xlink="http://www.w3.org/1999/xlink">
 <defs>
  <style type="text/css">
*{stroke-linecap:butt;stroke-linejoin:round;}
  </style>
 </defs>
 <g id="figure_1">
  <g id="patch_1">
   <path d="M 0 287.185628 
L 287.877245 287.185628 
L 287.877245 0 
L 0 0 
z
" style="fill:#ffffff;"/>
  </g>
  <g id="axes_1">
   <g id="patch_2">
    <path d="M 48.982813 222.919125 
L 262.483056 222.919125 
L 262.483056 22.318125 
L 48.982813 22.318125 
z
" style="fill:#ffffff;"/>
   </g>
   <g id="matplotlib.axis_1">
    <g id="xtick_1">
     <g id="line2d_1">
      <defs>
       <path d="M 0 0 
L 0 3.5 
" id="m260b90be59" style="stroke:#000000;stroke-width:0.8;"/>
      </defs>
      <g>
       <use style="stroke:#000000;stroke-width:0.8;" x="48.982813" xlink:href="#m260b90be59" y="222.919125"/>
      </g>
     </g>
     <g id="text_1">
      <!-- 2020-04 -->
      <defs>
       <path d="M 19.1875 8.296875 
L 53.609375 8.296875 
L 53.609375 0 
L 7.328125 0 
L 7.328125 8.296875 
Q 12.9375 14.109375 22.625 23.890625 
Q 32.328125 33.6875 34.8125 36.53125 
Q 39.546875 41.84375 41.421875 45.53125 
Q 43.3125 49.21875 43.3125 52.78125 
Q 43.3125 58.59375 39.234375 62.25 
Q 35.15625 65.921875 28.609375 65.921875 
Q 23.96875 65.921875 18.8125 64.3125 
Q 13.671875 62.703125 7.8125 59.421875 
L 7.8125 69.390625 
Q 13.765625 71.78125 18.9375 73 
Q 24.125 74.21875 28.421875 74.21875 
Q 39.75 74.21875 46.484375 68.546875 
Q 53.21875 62.890625 53.21875 53.421875 
Q 53.21875 48.921875 51.53125 44.890625 
Q 49.859375 40.875 45.40625 35.40625 
Q 44.1875 33.984375 37.640625 27.21875 
Q 31.109375 20.453125 19.1875 8.296875 
z
" id="DejaVuSans-50"/>
       <path d="M 31.78125 66.40625 
Q 24.171875 66.40625 20.328125 58.90625 
Q 16.5 51.421875 16.5 36.375 
Q 16.5 21.390625 20.328125 13.890625 
Q 24.171875 6.390625 31.78125 6.390625 
Q 39.453125 6.390625 43.28125 13.890625 
Q 47.125 21.390625 47.125 36.375 
Q 47.125 51.421875 43.28125 58.90625 
Q 39.453125 66.40625 31.78125 66.40625 
z
M 31.78125 74.21875 
Q 44.046875 74.21875 50.515625 64.515625 
Q 56.984375 54.828125 56.984375 36.375 
Q 56.984375 17.96875 50.515625 8.265625 
Q 44.046875 -1.421875 31.78125 -1.421875 
Q 19.53125 -1.421875 13.0625 8.265625 
Q 6.59375 17.96875 6.59375 36.375 
Q 6.59375 54.828125 13.0625 64.515625 
Q 19.53125 74.21875 31.78125 74.21875 
z
" id="DejaVuSans-48"/>
       <path d="M 4.890625 31.390625 
L 31.203125 31.390625 
L 31.203125 23.390625 
L 4.890625 23.390625 
z
" id="DejaVuSans-45"/>
       <path d="M 37.796875 64.3125 
L 12.890625 25.390625 
L 37.796875 25.390625 
z
M 35.203125 72.90625 
L 47.609375 72.90625 
L 47.609375 25.390625 
L 58.015625 25.390625 
L 58.015625 17.1875 
L 47.609375 17.1875 
L 47.609375 0 
L 37.796875 0 
L 37.796875 17.1875 
L 4.890625 17.1875 
L 4.890625 26.703125 
z
" id="DejaVuSans-52"/>
      </defs>
      <g transform="translate(36.16153 264.836942)rotate(-45)scale(0.1 -0.1)">
       <use xlink:href="#DejaVuSans-50"/>
       <use x="63.623047" xlink:href="#DejaVuSans-48"/>
       <use x="127.246094" xlink:href="#DejaVuSans-50"/>
       <use x="190.869141" xlink:href="#DejaVuSans-48"/>
       <use x="254.492188" xlink:href="#DejaVuSans-45"/>
       <use x="290.576172" xlink:href="#DejaVuSans-48"/>
       <use x="354.199219" xlink:href="#DejaVuSans-52"/>
      </g>
     </g>
    </g>
    <g id="xtick_2">
     <g id="line2d_2">
      <g>
       <use style="stroke:#000000;stroke-width:0.8;" x="64.23283" xlink:href="#m260b90be59" y="222.919125"/>
      </g>
     </g>
     <g id="text_2">
      <!-- 2020-05 -->
      <defs>
       <path d="M 10.796875 72.90625 
L 49.515625 72.90625 
L 49.515625 64.59375 
L 19.828125 64.59375 
L 19.828125 46.734375 
Q 21.96875 47.46875 24.109375 47.828125 
Q 26.265625 48.1875 28.421875 48.1875 
Q 40.625 48.1875 47.75 41.5 
Q 54.890625 34.8125 54.890625 23.390625 
Q 54.890625 11.625 47.5625 5.09375 
Q 40.234375 -1.421875 26.90625 -1.421875 
Q 22.3125 -1.421875 17.546875 -0.640625 
Q 12.796875 0.140625 7.71875 1.703125 
L 7.71875 11.625 
Q 12.109375 9.234375 16.796875 8.0625 
Q 21.484375 6.890625 26.703125 6.890625 
Q 35.15625 6.890625 40.078125 11.328125 
Q 45.015625 15.765625 45.015625 23.390625 
Q 45.015625 31 40.078125 35.4375 
Q 35.15625 39.890625 26.703125 39.890625 
Q 22.75 39.890625 18.8125 39.015625 
Q 14.890625 38.140625 10.796875 36.28125 
z
" id="DejaVuSans-53"/>
      </defs>
      <g transform="translate(51.411548 264.836942)rotate(-45)scale(0.1 -0.1)">
       <use xlink:href="#DejaVuSans-50"/>
       <use x="63.623047" xlink:href="#DejaVuSans-48"/>
       <use x="127.246094" xlink:href="#DejaVuSans-50"/>
       <use x="190.869141" xlink:href="#DejaVuSans-48"/>
       <use x="254.492188" xlink:href="#DejaVuSans-45"/>
       <use x="290.576172" xlink:href="#DejaVuSans-48"/>
       <use x="354.199219" xlink:href="#DejaVuSans-53"/>
      </g>
     </g>
    </g>
    <g id="xtick_3">
     <g id="line2d_3">
      <g>
       <use style="stroke:#000000;stroke-width:0.8;" x="83.295352" xlink:href="#m260b90be59" y="222.919125"/>
      </g>
     </g>
     <g id="text_3">
      <!-- 2020-06 -->
      <defs>
       <path d="M 33.015625 40.375 
Q 26.375 40.375 22.484375 35.828125 
Q 18.609375 31.296875 18.609375 23.390625 
Q 18.609375 15.53125 22.484375 10.953125 
Q 26.375 6.390625 33.015625 6.390625 
Q 39.65625 6.390625 43.53125 10.953125 
Q 47.40625 15.53125 47.40625 23.390625 
Q 47.40625 31.296875 43.53125 35.828125 
Q 39.65625 40.375 33.015625 40.375 
z
M 52.59375 71.296875 
L 52.59375 62.3125 
Q 48.875 64.0625 45.09375 64.984375 
Q 41.3125 65.921875 37.59375 65.921875 
Q 27.828125 65.921875 22.671875 59.328125 
Q 17.53125 52.734375 16.796875 39.40625 
Q 19.671875 43.65625 24.015625 45.921875 
Q 28.375 48.1875 33.59375 48.1875 
Q 44.578125 48.1875 50.953125 41.515625 
Q 57.328125 34.859375 57.328125 23.390625 
Q 57.328125 12.15625 50.6875 5.359375 
Q 44.046875 -1.421875 33.015625 -1.421875 
Q 20.359375 -1.421875 13.671875 8.265625 
Q 6.984375 17.96875 6.984375 36.375 
Q 6.984375 53.65625 15.1875 63.9375 
Q 23.390625 74.21875 37.203125 74.21875 
Q 40.921875 74.21875 44.703125 73.484375 
Q 48.484375 72.75 52.59375 71.296875 
z
" id="DejaVuSans-54"/>
      </defs>
      <g transform="translate(70.474069 264.836942)rotate(-45)scale(0.1 -0.1)">
       <use xlink:href="#DejaVuSans-50"/>
       <use x="63.623047" xlink:href="#DejaVuSans-48"/>
       <use x="127.246094" xlink:href="#DejaVuSans-50"/>
       <use x="190.869141" xlink:href="#DejaVuSans-48"/>
       <use x="254.492188" xlink:href="#DejaVuSans-45"/>
       <use x="290.576172" xlink:href="#DejaVuSans-48"/>
       <use x="354.199219" xlink:href="#DejaVuSans-54"/>
      </g>
     </g>
    </g>
    <g id="xtick_4">
     <g id="line2d_4">
      <g>
       <use style="stroke:#000000;stroke-width:0.8;" x="98.545369" xlink:href="#m260b90be59" y="222.919125"/>
      </g>
     </g>
     <g id="text_4">
      <!-- 2020-07 -->
      <defs>
       <path d="M 8.203125 72.90625 
L 55.078125 72.90625 
L 55.078125 68.703125 
L 28.609375 0 
L 18.3125 0 
L 43.21875 64.59375 
L 8.203125 64.59375 
z
" id="DejaVuSans-55"/>
      </defs>
      <g transform="translate(85.724087 264.836942)rotate(-45)scale(0.1 -0.1)">
       <use xlink:href="#DejaVuSans-50"/>
       <use x="63.623047" xlink:href="#DejaVuSans-48"/>
       <use x="127.246094" xlink:href="#DejaVuSans-50"/>
       <use x="190.869141" xlink:href="#DejaVuSans-48"/>
       <use x="254.492188" xlink:href="#DejaVuSans-45"/>
       <use x="290.576172" xlink:href="#DejaVuSans-48"/>
       <use x="354.199219" xlink:href="#DejaVuSans-55"/>
      </g>
     </g>
    </g>
    <g id="xtick_5">
     <g id="line2d_5">
      <g>
       <use style="stroke:#000000;stroke-width:0.8;" x="113.795386" xlink:href="#m260b90be59" y="222.919125"/>
      </g>
     </g>
     <g id="text_5">
      <!-- 2020-08 -->
      <defs>
       <path d="M 31.78125 34.625 
Q 24.75 34.625 20.71875 30.859375 
Q 16.703125 27.09375 16.703125 20.515625 
Q 16.703125 13.921875 20.71875 10.15625 
Q 24.75 6.390625 31.78125 6.390625 
Q 38.8125 6.390625 42.859375 10.171875 
Q 46.921875 13.96875 46.921875 20.515625 
Q 46.921875 27.09375 42.890625 30.859375 
Q 38.875 34.625 31.78125 34.625 
z
M 21.921875 38.8125 
Q 15.578125 40.375 12.03125 44.71875 
Q 8.5 49.078125 8.5 55.328125 
Q 8.5 64.0625 14.71875 69.140625 
Q 20.953125 74.21875 31.78125 74.21875 
Q 42.671875 74.21875 48.875 69.140625 
Q 55.078125 64.0625 55.078125 55.328125 
Q 55.078125 49.078125 51.53125 44.71875 
Q 48 40.375 41.703125 38.8125 
Q 48.828125 37.15625 52.796875 32.3125 
Q 56.78125 27.484375 56.78125 20.515625 
Q 56.78125 9.90625 50.3125 4.234375 
Q 43.84375 -1.421875 31.78125 -1.421875 
Q 19.734375 -1.421875 13.25 4.234375 
Q 6.78125 9.90625 6.78125 20.515625 
Q 6.78125 27.484375 10.78125 32.3125 
Q 14.796875 37.15625 21.921875 38.8125 
z
M 18.3125 54.390625 
Q 18.3125 48.734375 21.84375 45.5625 
Q 25.390625 42.390625 31.78125 42.390625 
Q 38.140625 42.390625 41.71875 45.5625 
Q 45.3125 48.734375 45.3125 54.390625 
Q 45.3125 60.0625 41.71875 63.234375 
Q 38.140625 66.40625 31.78125 66.40625 
Q 25.390625 66.40625 21.84375 63.234375 
Q 18.3125 60.0625 18.3125 54.390625 
z
" id="DejaVuSans-56"/>
      </defs>
      <g transform="translate(100.974104 264.836942)rotate(-45)scale(0.1 -0.1)">
       <use xlink:href="#DejaVuSans-50"/>
       <use x="63.623047" xlink:href="#DejaVuSans-48"/>
       <use x="127.246094" xlink:href="#DejaVuSans-50"/>
       <use x="190.869141" xlink:href="#DejaVuSans-48"/>
       <use x="254.492188" xlink:href="#DejaVuSans-45"/>
       <use x="290.576172" xlink:href="#DejaVuSans-48"/>
       <use x="354.199219" xlink:href="#DejaVuSans-56"/>
      </g>
     </g>
    </g>
    <g id="xtick_6">
     <g id="line2d_6">
      <g>
       <use style="stroke:#000000;stroke-width:0.8;" x="132.857908" xlink:href="#m260b90be59" y="222.919125"/>
      </g>
     </g>
     <g id="text_6">
      <!-- 2020-09 -->
      <defs>
       <path d="M 10.984375 1.515625 
L 10.984375 10.5 
Q 14.703125 8.734375 18.5 7.8125 
Q 22.3125 6.890625 25.984375 6.890625 
Q 35.75 6.890625 40.890625 13.453125 
Q 46.046875 20.015625 46.78125 33.40625 
Q 43.953125 29.203125 39.59375 26.953125 
Q 35.25 24.703125 29.984375 24.703125 
Q 19.046875 24.703125 12.671875 31.3125 
Q 6.296875 37.9375 6.296875 49.421875 
Q 6.296875 60.640625 12.9375 67.421875 
Q 19.578125 74.21875 30.609375 74.21875 
Q 43.265625 74.21875 49.921875 64.515625 
Q 56.59375 54.828125 56.59375 36.375 
Q 56.59375 19.140625 48.40625 8.859375 
Q 40.234375 -1.421875 26.421875 -1.421875 
Q 22.703125 -1.421875 18.890625 -0.6875 
Q 15.09375 0.046875 10.984375 1.515625 
z
M 30.609375 32.421875 
Q 37.25 32.421875 41.125 36.953125 
Q 45.015625 41.5 45.015625 49.421875 
Q 45.015625 57.28125 41.125 61.84375 
Q 37.25 66.40625 30.609375 66.40625 
Q 23.96875 66.40625 20.09375 61.84375 
Q 16.21875 57.28125 16.21875 49.421875 
Q 16.21875 41.5 20.09375 36.953125 
Q 23.96875 32.421875 30.609375 32.421875 
z
" id="DejaVuSans-57"/>
      </defs>
      <g transform="translate(120.036626 264.836942)rotate(-45)scale(0.1 -0.1)">
       <use xlink:href="#DejaVuSans-50"/>
       <use x="63.623047" xlink:href="#DejaVuSans-48"/>
       <use x="127.246094" xlink:href="#DejaVuSans-50"/>
       <use x="190.869141" xlink:href="#DejaVuSans-48"/>
       <use x="254.492188" xlink:href="#DejaVuSans-45"/>
       <use x="290.576172" xlink:href="#DejaVuSans-48"/>
       <use x="354.199219" xlink:href="#DejaVuSans-57"/>
      </g>
     </g>
    </g>
    <g id="xtick_7">
     <g id="line2d_7">
      <g>
       <use style="stroke:#000000;stroke-width:0.8;" x="148.107926" xlink:href="#m260b90be59" y="222.919125"/>
      </g>
     </g>
     <g id="text_7">
      <!-- 2020-10 -->
      <defs>
       <path d="M 12.40625 8.296875 
L 28.515625 8.296875 
L 28.515625 63.921875 
L 10.984375 60.40625 
L 10.984375 69.390625 
L 28.421875 72.90625 
L 38.28125 72.90625 
L 38.28125 8.296875 
L 54.390625 8.296875 
L 54.390625 0 
L 12.40625 0 
z
" id="DejaVuSans-49"/>
      </defs>
      <g transform="translate(135.286643 264.836942)rotate(-45)scale(0.1 -0.1)">
       <use xlink:href="#DejaVuSans-50"/>
       <use x="63.623047" xlink:href="#DejaVuSans-48"/>
       <use x="127.246094" xlink:href="#DejaVuSans-50"/>
       <use x="190.869141" xlink:href="#DejaVuSans-48"/>
       <use x="254.492188" xlink:href="#DejaVuSans-45"/>
       <use x="290.576172" xlink:href="#DejaVuSans-49"/>
       <use x="354.199219" xlink:href="#DejaVuSans-48"/>
      </g>
     </g>
    </g>
    <g id="xtick_8">
     <g id="line2d_8">
      <g>
       <use style="stroke:#000000;stroke-width:0.8;" x="167.170447" xlink:href="#m260b90be59" y="222.919125"/>
      </g>
     </g>
     <g id="text_8">
      <!-- 2020-11 -->
      <g transform="translate(154.349165 264.836942)rotate(-45)scale(0.1 -0.1)">
       <use xlink:href="#DejaVuSans-50"/>
       <use x="63.623047" xlink:href="#DejaVuSans-48"/>
       <use x="127.246094" xlink:href="#DejaVuSans-50"/>
       <use x="190.869141" xlink:href="#DejaVuSans-48"/>
       <use x="254.492188" xlink:href="#DejaVuSans-45"/>
       <use x="290.576172" xlink:href="#DejaVuSans-49"/>
       <use x="354.199219" xlink:href="#DejaVuSans-49"/>
      </g>
     </g>
    </g>
    <g id="xtick_9">
     <g id="line2d_9">
      <g>
       <use style="stroke:#000000;stroke-width:0.8;" x="182.420465" xlink:href="#m260b90be59" y="222.919125"/>
      </g>
     </g>
     <g id="text_9">
      <!-- 2020-12 -->
      <g transform="translate(169.599182 264.836942)rotate(-45)scale(0.1 -0.1)">
       <use xlink:href="#DejaVuSans-50"/>
       <use x="63.623047" xlink:href="#DejaVuSans-48"/>
       <use x="127.246094" xlink:href="#DejaVuSans-50"/>
       <use x="190.869141" xlink:href="#DejaVuSans-48"/>
       <use x="254.492188" xlink:href="#DejaVuSans-45"/>
       <use x="290.576172" xlink:href="#DejaVuSans-49"/>
       <use x="354.199219" xlink:href="#DejaVuSans-50"/>
      </g>
     </g>
    </g>
    <g id="xtick_10">
     <g id="line2d_10">
      <g>
       <use style="stroke:#000000;stroke-width:0.8;" x="197.670482" xlink:href="#m260b90be59" y="222.919125"/>
      </g>
     </g>
     <g id="text_10">
      <!-- 2021-01 -->
      <g transform="translate(184.8492 264.836942)rotate(-45)scale(0.1 -0.1)">
       <use xlink:href="#DejaVuSans-50"/>
       <use x="63.623047" xlink:href="#DejaVuSans-48"/>
       <use x="127.246094" xlink:href="#DejaVuSans-50"/>
       <use x="190.869141" xlink:href="#DejaVuSans-49"/>
       <use x="254.492188" xlink:href="#DejaVuSans-45"/>
       <use x="290.576172" xlink:href="#DejaVuSans-48"/>
       <use x="354.199219" xlink:href="#DejaVuSans-49"/>
      </g>
     </g>
    </g>
    <g id="xtick_11">
     <g id="line2d_11">
      <g>
       <use style="stroke:#000000;stroke-width:0.8;" x="216.733004" xlink:href="#m260b90be59" y="222.919125"/>
      </g>
     </g>
     <g id="text_11">
      <!-- 2021-02 -->
      <g transform="translate(203.911722 264.836942)rotate(-45)scale(0.1 -0.1)">
       <use xlink:href="#DejaVuSans-50"/>
       <use x="63.623047" xlink:href="#DejaVuSans-48"/>
       <use x="127.246094" xlink:href="#DejaVuSans-50"/>
       <use x="190.869141" xlink:href="#DejaVuSans-49"/>
       <use x="254.492188" xlink:href="#DejaVuSans-45"/>
       <use x="290.576172" xlink:href="#DejaVuSans-48"/>
       <use x="354.199219" xlink:href="#DejaVuSans-50"/>
      </g>
     </g>
    </g>
    <g id="xtick_12">
     <g id="line2d_12">
      <g>
       <use style="stroke:#000000;stroke-width:0.8;" x="231.983021" xlink:href="#m260b90be59" y="222.919125"/>
      </g>
     </g>
     <g id="text_12">
      <!-- 2021-03 -->
      <defs>
       <path d="M 40.578125 39.3125 
Q 47.65625 37.796875 51.625 33 
Q 55.609375 28.21875 55.609375 21.1875 
Q 55.609375 10.40625 48.1875 4.484375 
Q 40.765625 -1.421875 27.09375 -1.421875 
Q 22.515625 -1.421875 17.65625 -0.515625 
Q 12.796875 0.390625 7.625 2.203125 
L 7.625 11.71875 
Q 11.71875 9.328125 16.59375 8.109375 
Q 21.484375 6.890625 26.8125 6.890625 
Q 36.078125 6.890625 40.9375 10.546875 
Q 45.796875 14.203125 45.796875 21.1875 
Q 45.796875 27.640625 41.28125 31.265625 
Q 36.765625 34.90625 28.71875 34.90625 
L 20.21875 34.90625 
L 20.21875 43.015625 
L 29.109375 43.015625 
Q 36.375 43.015625 40.234375 45.921875 
Q 44.09375 48.828125 44.09375 54.296875 
Q 44.09375 59.90625 40.109375 62.90625 
Q 36.140625 65.921875 28.71875 65.921875 
Q 24.65625 65.921875 20.015625 65.03125 
Q 15.375 64.15625 9.8125 62.3125 
L 9.8125 71.09375 
Q 15.4375 72.65625 20.34375 73.4375 
Q 25.25 74.21875 29.59375 74.21875 
Q 40.828125 74.21875 47.359375 69.109375 
Q 53.90625 64.015625 53.90625 55.328125 
Q 53.90625 49.265625 50.4375 45.09375 
Q 46.96875 40.921875 40.578125 39.3125 
z
" id="DejaVuSans-51"/>
      </defs>
      <g transform="translate(219.161739 264.836942)rotate(-45)scale(0.1 -0.1)">
       <use xlink:href="#DejaVuSans-50"/>
       <use x="63.623047" xlink:href="#DejaVuSans-48"/>
       <use x="127.246094" xlink:href="#DejaVuSans-50"/>
       <use x="190.869141" xlink:href="#DejaVuSans-49"/>
       <use x="254.492188" xlink:href="#DejaVuSans-45"/>
       <use x="290.576172" xlink:href="#DejaVuSans-48"/>
       <use x="354.199219" xlink:href="#DejaVuSans-51"/>
      </g>
     </g>
    </g>
    <g id="xtick_13">
     <g id="line2d_13">
      <g>
       <use style="stroke:#000000;stroke-width:0.8;" x="247.233039" xlink:href="#m260b90be59" y="222.919125"/>
      </g>
     </g>
     <g id="text_13">
      <!-- 2021-04 -->
      <g transform="translate(234.411756 264.836942)rotate(-45)scale(0.1 -0.1)">
       <use xlink:href="#DejaVuSans-50"/>
       <use x="63.623047" xlink:href="#DejaVuSans-48"/>
       <use x="127.246094" xlink:href="#DejaVuSans-50"/>
       <use x="190.869141" xlink:href="#DejaVuSans-49"/>
       <use x="254.492188" xlink:href="#DejaVuSans-45"/>
       <use x="290.576172" xlink:href="#DejaVuSans-48"/>
       <use x="354.199219" xlink:href="#DejaVuSans-52"/>
      </g>
     </g>
    </g>
    <g id="xtick_14">
     <g id="line2d_14">
      <g>
       <use style="stroke:#000000;stroke-width:0.8;" x="262.483056" xlink:href="#m260b90be59" y="222.919125"/>
      </g>
     </g>
     <g id="text_14">
      <!-- 2021-05 -->
      <g transform="translate(249.661774 264.836942)rotate(-45)scale(0.1 -0.1)">
       <use xlink:href="#DejaVuSans-50"/>
       <use x="63.623047" xlink:href="#DejaVuSans-48"/>
       <use x="127.246094" xlink:href="#DejaVuSans-50"/>
       <use x="190.869141" xlink:href="#DejaVuSans-49"/>
       <use x="254.492188" xlink:href="#DejaVuSans-45"/>
       <use x="290.576172" xlink:href="#DejaVuSans-48"/>
       <use x="354.199219" xlink:href="#DejaVuSans-53"/>
      </g>
     </g>
    </g>
    <g id="text_15">
     <!-- Target End Date -->
     <defs>
      <path d="M -0.296875 72.90625 
L 61.375 72.90625 
L 61.375 64.59375 
L 35.5 64.59375 
L 35.5 0 
L 25.59375 0 
L 25.59375 64.59375 
L -0.296875 64.59375 
z
" id="DejaVuSans-84"/>
      <path d="M 34.28125 27.484375 
Q 23.390625 27.484375 19.1875 25 
Q 14.984375 22.515625 14.984375 16.5 
Q 14.984375 11.71875 18.140625 8.90625 
Q 21.296875 6.109375 26.703125 6.109375 
Q 34.1875 6.109375 38.703125 11.40625 
Q 43.21875 16.703125 43.21875 25.484375 
L 43.21875 27.484375 
z
M 52.203125 31.203125 
L 52.203125 0 
L 43.21875 0 
L 43.21875 8.296875 
Q 40.140625 3.328125 35.546875 0.953125 
Q 30.953125 -1.421875 24.3125 -1.421875 
Q 15.921875 -1.421875 10.953125 3.296875 
Q 6 8.015625 6 15.921875 
Q 6 25.140625 12.171875 29.828125 
Q 18.359375 34.515625 30.609375 34.515625 
L 43.21875 34.515625 
L 43.21875 35.40625 
Q 43.21875 41.609375 39.140625 45 
Q 35.0625 48.390625 27.6875 48.390625 
Q 23 48.390625 18.546875 47.265625 
Q 14.109375 46.140625 10.015625 43.890625 
L 10.015625 52.203125 
Q 14.9375 54.109375 19.578125 55.046875 
Q 24.21875 56 28.609375 56 
Q 40.484375 56 46.34375 49.84375 
Q 52.203125 43.703125 52.203125 31.203125 
z
" id="DejaVuSans-97"/>
      <path d="M 41.109375 46.296875 
Q 39.59375 47.171875 37.8125 47.578125 
Q 36.03125 48 33.890625 48 
Q 26.265625 48 22.1875 43.046875 
Q 18.109375 38.09375 18.109375 28.8125 
L 18.109375 0 
L 9.078125 0 
L 9.078125 54.6875 
L 18.109375 54.6875 
L 18.109375 46.1875 
Q 20.953125 51.171875 25.484375 53.578125 
Q 30.03125 56 36.53125 56 
Q 37.453125 56 38.578125 55.875 
Q 39.703125 55.765625 41.0625 55.515625 
z
" id="DejaVuSans-114"/>
      <path d="M 45.40625 27.984375 
Q 45.40625 37.75 41.375 43.109375 
Q 37.359375 48.484375 30.078125 48.484375 
Q 22.859375 48.484375 18.828125 43.109375 
Q 14.796875 37.75 14.796875 27.984375 
Q 14.796875 18.265625 18.828125 12.890625 
Q 22.859375 7.515625 30.078125 7.515625 
Q 37.359375 7.515625 41.375 12.890625 
Q 45.40625 18.265625 45.40625 27.984375 
z
M 54.390625 6.78125 
Q 54.390625 -7.171875 48.1875 -13.984375 
Q 42 -20.796875 29.203125 -20.796875 
Q 24.46875 -20.796875 20.265625 -20.09375 
Q 16.0625 -19.390625 12.109375 -17.921875 
L 12.109375 -9.1875 
Q 16.0625 -11.328125 19.921875 -12.34375 
Q 23.78125 -13.375 27.78125 -13.375 
Q 36.625 -13.375 41.015625 -8.765625 
Q 45.40625 -4.15625 45.40625 5.171875 
L 45.40625 9.625 
Q 42.625 4.78125 38.28125 2.390625 
Q 33.9375 0 27.875 0 
Q 17.828125 0 11.671875 7.65625 
Q 5.515625 15.328125 5.515625 27.984375 
Q 5.515625 40.671875 11.671875 48.328125 
Q 17.828125 56 27.875 56 
Q 33.9375 56 38.28125 53.609375 
Q 42.625 51.21875 45.40625 46.390625 
L 45.40625 54.6875 
L 54.390625 54.6875 
z
" id="DejaVuSans-103"/>
      <path d="M 56.203125 29.59375 
L 56.203125 25.203125 
L 14.890625 25.203125 
Q 15.484375 15.921875 20.484375 11.0625 
Q 25.484375 6.203125 34.421875 6.203125 
Q 39.59375 6.203125 44.453125 7.46875 
Q 49.3125 8.734375 54.109375 11.28125 
L 54.109375 2.78125 
Q 49.265625 0.734375 44.1875 -0.34375 
Q 39.109375 -1.421875 33.890625 -1.421875 
Q 20.796875 -1.421875 13.15625 6.1875 
Q 5.515625 13.8125 5.515625 26.8125 
Q 5.515625 40.234375 12.765625 48.109375 
Q 20.015625 56 32.328125 56 
Q 43.359375 56 49.78125 48.890625 
Q 56.203125 41.796875 56.203125 29.59375 
z
M 47.21875 32.234375 
Q 47.125 39.59375 43.09375 43.984375 
Q 39.0625 48.390625 32.421875 48.390625 
Q 24.90625 48.390625 20.390625 44.140625 
Q 15.875 39.890625 15.1875 32.171875 
z
" id="DejaVuSans-101"/>
      <path d="M 18.3125 70.21875 
L 18.3125 54.6875 
L 36.8125 54.6875 
L 36.8125 47.703125 
L 18.3125 47.703125 
L 18.3125 18.015625 
Q 18.3125 11.328125 20.140625 9.421875 
Q 21.96875 7.515625 27.59375 7.515625 
L 36.8125 7.515625 
L 36.8125 0 
L 27.59375 0 
Q 17.1875 0 13.234375 3.875 
Q 9.28125 7.765625 9.28125 18.015625 
L 9.28125 47.703125 
L 2.6875 47.703125 
L 2.6875 54.6875 
L 9.28125 54.6875 
L 9.28125 70.21875 
z
" id="DejaVuSans-116"/>
      <path id="DejaVuSans-32"/>
      <path d="M 9.8125 72.90625 
L 55.90625 72.90625 
L 55.90625 64.59375 
L 19.671875 64.59375 
L 19.671875 43.015625 
L 54.390625 43.015625 
L 54.390625 34.71875 
L 19.671875 34.71875 
L 19.671875 8.296875 
L 56.78125 8.296875 
L 56.78125 0 
L 9.8125 0 
z
" id="DejaVuSans-69"/>
      <path d="M 54.890625 33.015625 
L 54.890625 0 
L 45.90625 0 
L 45.90625 32.71875 
Q 45.90625 40.484375 42.875 44.328125 
Q 39.84375 48.1875 33.796875 48.1875 
Q 26.515625 48.1875 22.3125 43.546875 
Q 18.109375 38.921875 18.109375 30.90625 
L 18.109375 0 
L 9.078125 0 
L 9.078125 54.6875 
L 18.109375 54.6875 
L 18.109375 46.1875 
Q 21.34375 51.125 25.703125 53.5625 
Q 30.078125 56 35.796875 56 
Q 45.21875 56 50.046875 50.171875 
Q 54.890625 44.34375 54.890625 33.015625 
z
" id="DejaVuSans-110"/>
      <path d="M 45.40625 46.390625 
L 45.40625 75.984375 
L 54.390625 75.984375 
L 54.390625 0 
L 45.40625 0 
L 45.40625 8.203125 
Q 42.578125 3.328125 38.25 0.953125 
Q 33.9375 -1.421875 27.875 -1.421875 
Q 17.96875 -1.421875 11.734375 6.484375 
Q 5.515625 14.40625 5.515625 27.296875 
Q 5.515625 40.1875 11.734375 48.09375 
Q 17.96875 56 27.875 56 
Q 33.9375 56 38.25 53.625 
Q 42.578125 51.265625 45.40625 46.390625 
z
M 14.796875 27.296875 
Q 14.796875 17.390625 18.875 11.75 
Q 22.953125 6.109375 30.078125 6.109375 
Q 37.203125 6.109375 41.296875 11.75 
Q 45.40625 17.390625 45.40625 27.296875 
Q 45.40625 37.203125 41.296875 42.84375 
Q 37.203125 48.484375 30.078125 48.484375 
Q 22.953125 48.484375 18.875 42.84375 
Q 14.796875 37.203125 14.796875 27.296875 
z
" id="DejaVuSans-100"/>
      <path d="M 19.671875 64.796875 
L 19.671875 8.109375 
L 31.59375 8.109375 
Q 46.6875 8.109375 53.6875 14.9375 
Q 60.6875 21.78125 60.6875 36.53125 
Q 60.6875 51.171875 53.6875 57.984375 
Q 46.6875 64.796875 31.59375 64.796875 
z
M 9.8125 72.90625 
L 30.078125 72.90625 
Q 51.265625 72.90625 61.171875 64.09375 
Q 71.09375 55.28125 71.09375 36.53125 
Q 71.09375 17.671875 61.125 8.828125 
Q 51.171875 0 30.078125 0 
L 9.8125 0 
z
" id="DejaVuSans-68"/>
     </defs>
     <g transform="translate(115.629809 277.905941)scale(0.1 -0.1)">
      <use xlink:href="#DejaVuSans-84"/>
      <use x="44.583984" xlink:href="#DejaVuSans-97"/>
      <use x="105.863281" xlink:href="#DejaVuSans-114"/>
      <use x="145.226562" xlink:href="#DejaVuSans-103"/>
      <use x="208.703125" xlink:href="#DejaVuSans-101"/>
      <use x="270.226562" xlink:href="#DejaVuSans-116"/>
      <use x="309.435547" xlink:href="#DejaVuSans-32"/>
      <use x="341.222656" xlink:href="#DejaVuSans-69"/>
      <use x="404.40625" xlink:href="#DejaVuSans-110"/>
      <use x="467.785156" xlink:href="#DejaVuSans-100"/>
      <use x="531.261719" xlink:href="#DejaVuSans-32"/>
      <use x="563.048828" xlink:href="#DejaVuSans-68"/>
      <use x="640.050781" xlink:href="#DejaVuSans-97"/>
      <use x="701.330078" xlink:href="#DejaVuSans-116"/>
      <use x="740.539062" xlink:href="#DejaVuSans-101"/>
     </g>
    </g>
   </g>
   <g id="matplotlib.axis_2">
    <g id="ytick_1">
     <g id="line2d_15">
      <defs>
       <path d="M 0 0 
L -3.5 0 
" id="m57f17d5f75" style="stroke:#000000;stroke-width:0.8;"/>
      </defs>
      <g>
       <use style="stroke:#000000;stroke-width:0.8;" x="48.982813" xlink:href="#m57f17d5f75" y="197.387945"/>
      </g>
     </g>
     <g id="text_16">
      <!-- −12 -->
      <defs>
       <path d="M 10.59375 35.5 
L 73.1875 35.5 
L 73.1875 27.203125 
L 10.59375 27.203125 
z
" id="DejaVuSans-8722"/>
      </defs>
      <g transform="translate(20.878125 201.187164)scale(0.1 -0.1)">
       <use xlink:href="#DejaVuSans-8722"/>
       <use x="83.789062" xlink:href="#DejaVuSans-49"/>
       <use x="147.412109" xlink:href="#DejaVuSans-50"/>
      </g>
     </g>
    </g>
    <g id="ytick_2">
     <g id="line2d_16">
      <g>
       <use style="stroke:#000000;stroke-width:0.8;" x="48.982813" xlink:href="#m57f17d5f75" y="164.648732"/>
      </g>
     </g>
     <g id="text_17">
      <!-- −10 -->
      <g transform="translate(20.878125 168.447951)scale(0.1 -0.1)">
       <use xlink:href="#DejaVuSans-8722"/>
       <use x="83.789062" xlink:href="#DejaVuSans-49"/>
       <use x="147.412109" xlink:href="#DejaVuSans-48"/>
      </g>
     </g>
    </g>
    <g id="ytick_3">
     <g id="line2d_17">
      <g>
       <use style="stroke:#000000;stroke-width:0.8;" x="48.982813" xlink:href="#m57f17d5f75" y="131.909518"/>
      </g>
     </g>
     <g id="text_18">
      <!-- −8 -->
      <g transform="translate(27.240625 135.708737)scale(0.1 -0.1)">
       <use xlink:href="#DejaVuSans-8722"/>
       <use x="83.789062" xlink:href="#DejaVuSans-56"/>
      </g>
     </g>
    </g>
    <g id="ytick_4">
     <g id="line2d_18">
      <g>
       <use style="stroke:#000000;stroke-width:0.8;" x="48.982813" xlink:href="#m57f17d5f75" y="99.170305"/>
      </g>
     </g>
     <g id="text_19">
      <!-- −6 -->
      <g transform="translate(27.240625 102.969524)scale(0.1 -0.1)">
       <use xlink:href="#DejaVuSans-8722"/>
       <use x="83.789062" xlink:href="#DejaVuSans-54"/>
      </g>
     </g>
    </g>
    <g id="ytick_5">
     <g id="line2d_19">
      <g>
       <use style="stroke:#000000;stroke-width:0.8;" x="48.982813" xlink:href="#m57f17d5f75" y="66.431091"/>
      </g>
     </g>
     <g id="text_20">
      <!-- −4 -->
      <g transform="translate(27.240625 70.23031)scale(0.1 -0.1)">
       <use xlink:href="#DejaVuSans-8722"/>
       <use x="83.789062" xlink:href="#DejaVuSans-52"/>
      </g>
     </g>
    </g>
    <g id="ytick_6">
     <g id="line2d_20">
      <g>
       <use style="stroke:#000000;stroke-width:0.8;" x="48.982813" xlink:href="#m57f17d5f75" y="33.691878"/>
      </g>
     </g>
     <g id="text_21">
      <!-- −2 -->
      <g transform="translate(27.240625 37.491097)scale(0.1 -0.1)">
       <use xlink:href="#DejaVuSans-8722"/>
       <use x="83.789062" xlink:href="#DejaVuSans-50"/>
      </g>
     </g>
    </g>
    <g id="text_22">
     <!-- Score for cumulative deaths -->
     <defs>
      <path d="M 53.515625 70.515625 
L 53.515625 60.890625 
Q 47.90625 63.578125 42.921875 64.890625 
Q 37.9375 66.21875 33.296875 66.21875 
Q 25.25 66.21875 20.875 63.09375 
Q 16.5 59.96875 16.5 54.203125 
Q 16.5 49.359375 19.40625 46.890625 
Q 22.3125 44.4375 30.421875 42.921875 
L 36.375 41.703125 
Q 47.40625 39.59375 52.65625 34.296875 
Q 57.90625 29 57.90625 20.125 
Q 57.90625 9.515625 50.796875 4.046875 
Q 43.703125 -1.421875 29.984375 -1.421875 
Q 24.8125 -1.421875 18.96875 -0.25 
Q 13.140625 0.921875 6.890625 3.21875 
L 6.890625 13.375 
Q 12.890625 10.015625 18.65625 8.296875 
Q 24.421875 6.59375 29.984375 6.59375 
Q 38.421875 6.59375 43.015625 9.90625 
Q 47.609375 13.234375 47.609375 19.390625 
Q 47.609375 24.75 44.3125 27.78125 
Q 41.015625 30.8125 33.5 32.328125 
L 27.484375 33.5 
Q 16.453125 35.6875 11.515625 40.375 
Q 6.59375 45.0625 6.59375 53.421875 
Q 6.59375 63.09375 13.40625 68.65625 
Q 20.21875 74.21875 32.171875 74.21875 
Q 37.3125 74.21875 42.625 73.28125 
Q 47.953125 72.359375 53.515625 70.515625 
z
" id="DejaVuSans-83"/>
      <path d="M 48.78125 52.59375 
L 48.78125 44.1875 
Q 44.96875 46.296875 41.140625 47.34375 
Q 37.3125 48.390625 33.40625 48.390625 
Q 24.65625 48.390625 19.8125 42.84375 
Q 14.984375 37.3125 14.984375 27.296875 
Q 14.984375 17.28125 19.8125 11.734375 
Q 24.65625 6.203125 33.40625 6.203125 
Q 37.3125 6.203125 41.140625 7.25 
Q 44.96875 8.296875 48.78125 10.40625 
L 48.78125 2.09375 
Q 45.015625 0.34375 40.984375 -0.53125 
Q 36.96875 -1.421875 32.421875 -1.421875 
Q 20.0625 -1.421875 12.78125 6.34375 
Q 5.515625 14.109375 5.515625 27.296875 
Q 5.515625 40.671875 12.859375 48.328125 
Q 20.21875 56 33.015625 56 
Q 37.15625 56 41.109375 55.140625 
Q 45.0625 54.296875 48.78125 52.59375 
z
" id="DejaVuSans-99"/>
      <path d="M 30.609375 48.390625 
Q 23.390625 48.390625 19.1875 42.75 
Q 14.984375 37.109375 14.984375 27.296875 
Q 14.984375 17.484375 19.15625 11.84375 
Q 23.34375 6.203125 30.609375 6.203125 
Q 37.796875 6.203125 41.984375 11.859375 
Q 46.1875 17.53125 46.1875 27.296875 
Q 46.1875 37.015625 41.984375 42.703125 
Q 37.796875 48.390625 30.609375 48.390625 
z
M 30.609375 56 
Q 42.328125 56 49.015625 48.375 
Q 55.71875 40.765625 55.71875 27.296875 
Q 55.71875 13.875 49.015625 6.21875 
Q 42.328125 -1.421875 30.609375 -1.421875 
Q 18.84375 -1.421875 12.171875 6.21875 
Q 5.515625 13.875 5.515625 27.296875 
Q 5.515625 40.765625 12.171875 48.375 
Q 18.84375 56 30.609375 56 
z
" id="DejaVuSans-111"/>
      <path d="M 37.109375 75.984375 
L 37.109375 68.5 
L 28.515625 68.5 
Q 23.6875 68.5 21.796875 66.546875 
Q 19.921875 64.59375 19.921875 59.515625 
L 19.921875 54.6875 
L 34.71875 54.6875 
L 34.71875 47.703125 
L 19.921875 47.703125 
L 19.921875 0 
L 10.890625 0 
L 10.890625 47.703125 
L 2.296875 47.703125 
L 2.296875 54.6875 
L 10.890625 54.6875 
L 10.890625 58.5 
Q 10.890625 67.625 15.140625 71.796875 
Q 19.390625 75.984375 28.609375 75.984375 
z
" id="DejaVuSans-102"/>
      <path d="M 8.5 21.578125 
L 8.5 54.6875 
L 17.484375 54.6875 
L 17.484375 21.921875 
Q 17.484375 14.15625 20.5 10.265625 
Q 23.53125 6.390625 29.59375 6.390625 
Q 36.859375 6.390625 41.078125 11.03125 
Q 45.3125 15.671875 45.3125 23.6875 
L 45.3125 54.6875 
L 54.296875 54.6875 
L 54.296875 0 
L 45.3125 0 
L 45.3125 8.40625 
Q 42.046875 3.421875 37.71875 1 
Q 33.40625 -1.421875 27.6875 -1.421875 
Q 18.265625 -1.421875 13.375 4.4375 
Q 8.5 10.296875 8.5 21.578125 
z
M 31.109375 56 
z
" id="DejaVuSans-117"/>
      <path d="M 52 44.1875 
Q 55.375 50.25 60.0625 53.125 
Q 64.75 56 71.09375 56 
Q 79.640625 56 84.28125 50.015625 
Q 88.921875 44.046875 88.921875 33.015625 
L 88.921875 0 
L 79.890625 0 
L 79.890625 32.71875 
Q 79.890625 40.578125 77.09375 44.375 
Q 74.3125 48.1875 68.609375 48.1875 
Q 61.625 48.1875 57.5625 43.546875 
Q 53.515625 38.921875 53.515625 30.90625 
L 53.515625 0 
L 44.484375 0 
L 44.484375 32.71875 
Q 44.484375 40.625 41.703125 44.40625 
Q 38.921875 48.1875 33.109375 48.1875 
Q 26.21875 48.1875 22.15625 43.53125 
Q 18.109375 38.875 18.109375 30.90625 
L 18.109375 0 
L 9.078125 0 
L 9.078125 54.6875 
L 18.109375 54.6875 
L 18.109375 46.1875 
Q 21.1875 51.21875 25.484375 53.609375 
Q 29.78125 56 35.6875 56 
Q 41.65625 56 45.828125 52.96875 
Q 50 49.953125 52 44.1875 
z
" id="DejaVuSans-109"/>
      <path d="M 9.421875 75.984375 
L 18.40625 75.984375 
L 18.40625 0 
L 9.421875 0 
z
" id="DejaVuSans-108"/>
      <path d="M 9.421875 54.6875 
L 18.40625 54.6875 
L 18.40625 0 
L 9.421875 0 
z
M 9.421875 75.984375 
L 18.40625 75.984375 
L 18.40625 64.59375 
L 9.421875 64.59375 
z
" id="DejaVuSans-105"/>
      <path d="M 2.984375 54.6875 
L 12.5 54.6875 
L 29.59375 8.796875 
L 46.6875 54.6875 
L 56.203125 54.6875 
L 35.6875 0 
L 23.484375 0 
z
" id="DejaVuSans-118"/>
      <path d="M 54.890625 33.015625 
L 54.890625 0 
L 45.90625 0 
L 45.90625 32.71875 
Q 45.90625 40.484375 42.875 44.328125 
Q 39.84375 48.1875 33.796875 48.1875 
Q 26.515625 48.1875 22.3125 43.546875 
Q 18.109375 38.921875 18.109375 30.90625 
L 18.109375 0 
L 9.078125 0 
L 9.078125 75.984375 
L 18.109375 75.984375 
L 18.109375 46.1875 
Q 21.34375 51.125 25.703125 53.5625 
Q 30.078125 56 35.796875 56 
Q 45.21875 56 50.046875 50.171875 
Q 54.890625 44.34375 54.890625 33.015625 
z
" id="DejaVuSans-104"/>
      <path d="M 44.28125 53.078125 
L 44.28125 44.578125 
Q 40.484375 46.53125 36.375 47.5 
Q 32.28125 48.484375 27.875 48.484375 
Q 21.1875 48.484375 17.84375 46.4375 
Q 14.5 44.390625 14.5 40.28125 
Q 14.5 37.15625 16.890625 35.375 
Q 19.28125 33.59375 26.515625 31.984375 
L 29.59375 31.296875 
Q 39.15625 29.25 43.1875 25.515625 
Q 47.21875 21.78125 47.21875 15.09375 
Q 47.21875 7.46875 41.1875 3.015625 
Q 35.15625 -1.421875 24.609375 -1.421875 
Q 20.21875 -1.421875 15.453125 -0.5625 
Q 10.6875 0.296875 5.421875 2 
L 5.421875 11.28125 
Q 10.40625 8.6875 15.234375 7.390625 
Q 20.0625 6.109375 24.8125 6.109375 
Q 31.15625 6.109375 34.5625 8.28125 
Q 37.984375 10.453125 37.984375 14.40625 
Q 37.984375 18.0625 35.515625 20.015625 
Q 33.0625 21.96875 24.703125 23.78125 
L 21.578125 24.515625 
Q 13.234375 26.265625 9.515625 29.90625 
Q 5.8125 33.546875 5.8125 39.890625 
Q 5.8125 47.609375 11.28125 51.796875 
Q 16.75 56 26.8125 56 
Q 31.78125 56 36.171875 55.265625 
Q 40.578125 54.546875 44.28125 53.078125 
z
" id="DejaVuSans-115"/>
     </defs>
     <g transform="translate(14.798438 193.106906)rotate(-90)scale(0.1 -0.1)">
      <use xlink:href="#DejaVuSans-83"/>
      <use x="63.476562" xlink:href="#DejaVuSans-99"/>
      <use x="118.457031" xlink:href="#DejaVuSans-111"/>
      <use x="179.638672" xlink:href="#DejaVuSans-114"/>
      <use x="218.501953" xlink:href="#DejaVuSans-101"/>
      <use x="280.025391" xlink:href="#DejaVuSans-32"/>
      <use x="311.8125" xlink:href="#DejaVuSans-102"/>
      <use x="347.017578" xlink:href="#DejaVuSans-111"/>
      <use x="408.199219" xlink:href="#DejaVuSans-114"/>
      <use x="449.3125" xlink:href="#DejaVuSans-32"/>
      <use x="481.099609" xlink:href="#DejaVuSans-99"/>
      <use x="536.080078" xlink:href="#DejaVuSans-117"/>
      <use x="599.458984" xlink:href="#DejaVuSans-109"/>
      <use x="696.871094" xlink:href="#DejaVuSans-117"/>
      <use x="760.25" xlink:href="#DejaVuSans-108"/>
      <use x="788.033203" xlink:href="#DejaVuSans-97"/>
      <use x="849.3125" xlink:href="#DejaVuSans-116"/>
      <use x="888.521484" xlink:href="#DejaVuSans-105"/>
      <use x="916.304688" xlink:href="#DejaVuSans-118"/>
      <use x="975.484375" xlink:href="#DejaVuSans-101"/>
      <use x="1037.007812" xlink:href="#DejaVuSans-32"/>
      <use x="1068.794922" xlink:href="#DejaVuSans-100"/>
      <use x="1132.271484" xlink:href="#DejaVuSans-101"/>
      <use x="1193.794922" xlink:href="#DejaVuSans-97"/>
      <use x="1255.074219" xlink:href="#DejaVuSans-116"/>
      <use x="1294.283203" xlink:href="#DejaVuSans-104"/>
      <use x="1357.662109" xlink:href="#DejaVuSans-115"/>
     </g>
    </g>
   </g>
   <g id="line2d_21">
    <path clip-path="url(#pe6846c9f2c)" d="M 75.670343 76.872057 
L 79.482847 82.758331 
L 83.295352 89.489308 
L 87.107856 87.637388 
L 90.92036 90.429506 
L 94.732865 98.536659 
L 98.545369 97.024858 
L 102.357873 81.23158 
L 106.170378 98.800042 
L 109.982882 86.930977 
L 113.795386 98.515332 
L 117.607891 88.028853 
L 121.420395 73.815309 
L 125.232899 92.79989 
L 129.045404 92.080411 
L 132.857908 99.998403 
L 136.670413 72.352399 
L 140.482917 65.728336 
L 144.295421 61.959186 
L 148.107926 62.09227 
L 151.92043 85.354032 
L 155.732934 77.362637 
L 159.545439 66.307419 
L 163.357943 64.950845 
L 167.170447 64.114665 
L 170.982952 65.745486 
L 174.795456 81.68544 
L 178.60796 120.285666 
L 182.420465 104.527131 
L 186.232969 95.358585 
L 190.045473 97.687473 
L 193.857978 110.761303 
L 197.670482 95.672836 
L 201.482986 92.120844 
L 205.295491 102.940528 
L 209.107995 129.121259 
L 212.9205 128.433783 
L 216.733004 94.044062 
L 220.545508 105.388184 
L 224.358013 116.36675 
L 228.170517 99.776702 
L 231.983021 75.772686 
L 235.795526 80.700337 
L 239.60803 76.416066 
L 243.420534 60.515043 
L 247.233039 49.530003 
" style="fill:none;stroke:#000080;stroke-linecap:square;stroke-width:1.5;"/>
    <defs>
     <path d="M 0 3 
C 0.795609 3 1.55874 2.683901 2.12132 2.12132 
C 2.683901 1.55874 3 0.795609 3 0 
C 3 -0.795609 2.683901 -1.55874 2.12132 -2.12132 
C 1.55874 -2.683901 0.795609 -3 0 -3 
C -0.795609 -3 -1.55874 -2.683901 -2.12132 -2.12132 
C -2.683901 -1.55874 -3 -0.795609 -3 0 
C -3 0.795609 -2.683901 1.55874 -2.12132 2.12132 
C -1.55874 2.683901 -0.795609 3 0 3 
z
" id="m03b4e855f3" style="stroke:#000080;"/>
    </defs>
    <g clip-path="url(#pe6846c9f2c)">
     <use style="fill:#000080;stroke:#000080;" x="75.670343" xlink:href="#m03b4e855f3" y="76.872057"/>
     <use style="fill:#000080;stroke:#000080;" x="79.482847" xlink:href="#m03b4e855f3" y="82.758331"/>
     <use style="fill:#000080;stroke:#000080;" x="83.295352" xlink:href="#m03b4e855f3" y="89.489308"/>
     <use style="fill:#000080;stroke:#000080;" x="87.107856" xlink:href="#m03b4e855f3" y="87.637388"/>
     <use style="fill:#000080;stroke:#000080;" x="90.92036" xlink:href="#m03b4e855f3" y="90.429506"/>
     <use style="fill:#000080;stroke:#000080;" x="94.732865" xlink:href="#m03b4e855f3" y="98.536659"/>
     <use style="fill:#000080;stroke:#000080;" x="98.545369" xlink:href="#m03b4e855f3" y="97.024858"/>
     <use style="fill:#000080;stroke:#000080;" x="102.357873" xlink:href="#m03b4e855f3" y="81.23158"/>
     <use style="fill:#000080;stroke:#000080;" x="106.170378" xlink:href="#m03b4e855f3" y="98.800042"/>
     <use style="fill:#000080;stroke:#000080;" x="109.982882" xlink:href="#m03b4e855f3" y="86.930977"/>
     <use style="fill:#000080;stroke:#000080;" x="113.795386" xlink:href="#m03b4e855f3" y="98.515332"/>
     <use style="fill:#000080;stroke:#000080;" x="117.607891" xlink:href="#m03b4e855f3" y="88.028853"/>
     <use style="fill:#000080;stroke:#000080;" x="121.420395" xlink:href="#m03b4e855f3" y="73.815309"/>
     <use style="fill:#000080;stroke:#000080;" x="125.232899" xlink:href="#m03b4e855f3" y="92.79989"/>
     <use style="fill:#000080;stroke:#000080;" x="129.045404" xlink:href="#m03b4e855f3" y="92.080411"/>
     <use style="fill:#000080;stroke:#000080;" x="132.857908" xlink:href="#m03b4e855f3" y="99.998403"/>
     <use style="fill:#000080;stroke:#000080;" x="136.670413" xlink:href="#m03b4e855f3" y="72.352399"/>
     <use style="fill:#000080;stroke:#000080;" x="140.482917" xlink:href="#m03b4e855f3" y="65.728336"/>
     <use style="fill:#000080;stroke:#000080;" x="144.295421" xlink:href="#m03b4e855f3" y="61.959186"/>
     <use style="fill:#000080;stroke:#000080;" x="148.107926" xlink:href="#m03b4e855f3" y="62.09227"/>
     <use style="fill:#000080;stroke:#000080;" x="151.92043" xlink:href="#m03b4e855f3" y="85.354032"/>
     <use style="fill:#000080;stroke:#000080;" x="155.732934" xlink:href="#m03b4e855f3" y="77.362637"/>
     <use style="fill:#000080;stroke:#000080;" x="159.545439" xlink:href="#m03b4e855f3" y="66.307419"/>
     <use style="fill:#000080;stroke:#000080;" x="163.357943" xlink:href="#m03b4e855f3" y="64.950845"/>
     <use style="fill:#000080;stroke:#000080;" x="167.170447" xlink:href="#m03b4e855f3" y="64.114665"/>
     <use style="fill:#000080;stroke:#000080;" x="170.982952" xlink:href="#m03b4e855f3" y="65.745486"/>
     <use style="fill:#000080;stroke:#000080;" x="174.795456" xlink:href="#m03b4e855f3" y="81.68544"/>
     <use style="fill:#000080;stroke:#000080;" x="178.60796" xlink:href="#m03b4e855f3" y="120.285666"/>
     <use style="fill:#000080;stroke:#000080;" x="182.420465" xlink:href="#m03b4e855f3" y="104.527131"/>
     <use style="fill:#000080;stroke:#000080;" x="186.232969" xlink:href="#m03b4e855f3" y="95.358585"/>
     <use style="fill:#000080;stroke:#000080;" x="190.045473" xlink:href="#m03b4e855f3" y="97.687473"/>
     <use style="fill:#000080;stroke:#000080;" x="193.857978" xlink:href="#m03b4e855f3" y="110.761303"/>
     <use style="fill:#000080;stroke:#000080;" x="197.670482" xlink:href="#m03b4e855f3" y="95.672836"/>
     <use style="fill:#000080;stroke:#000080;" x="201.482986" xlink:href="#m03b4e855f3" y="92.120844"/>
     <use style="fill:#000080;stroke:#000080;" x="205.295491" xlink:href="#m03b4e855f3" y="102.940528"/>
     <use style="fill:#000080;stroke:#000080;" x="209.107995" xlink:href="#m03b4e855f3" y="129.121259"/>
     <use style="fill:#000080;stroke:#000080;" x="212.9205" xlink:href="#m03b4e855f3" y="128.433783"/>
     <use style="fill:#000080;stroke:#000080;" x="216.733004" xlink:href="#m03b4e855f3" y="94.044062"/>
     <use style="fill:#000080;stroke:#000080;" x="220.545508" xlink:href="#m03b4e855f3" y="105.388184"/>
     <use style="fill:#000080;stroke:#000080;" x="224.358013" xlink:href="#m03b4e855f3" y="116.36675"/>
     <use style="fill:#000080;stroke:#000080;" x="228.170517" xlink:href="#m03b4e855f3" y="99.776702"/>
     <use style="fill:#000080;stroke:#000080;" x="231.983021" xlink:href="#m03b4e855f3" y="75.772686"/>
     <use style="fill:#000080;stroke:#000080;" x="235.795526" xlink:href="#m03b4e855f3" y="80.700337"/>
     <use style="fill:#000080;stroke:#000080;" x="239.60803" xlink:href="#m03b4e855f3" y="76.416066"/>
     <use style="fill:#000080;stroke:#000080;" x="243.420534" xlink:href="#m03b4e855f3" y="60.515043"/>
     <use style="fill:#000080;stroke:#000080;" x="247.233039" xlink:href="#m03b4e855f3" y="49.530003"/>
    </g>
   </g>
   <g id="line2d_22">
    <path clip-path="url(#pe6846c9f2c)" d="M 68.045334 130.459375 
L 71.857839 112.998799 
L 75.670343 63.613517 
L 79.482847 88.546287 
L 83.295352 86.842972 
L 87.107856 89.676722 
L 90.92036 90.394743 
L 94.732865 73.64075 
L 98.545369 78.32491 
L 102.357873 89.103024 
L 106.170378 113.478895 
L 109.982882 78.692663 
L 113.795386 104.101669 
L 117.607891 104.968773 
L 121.420395 89.171518 
L 125.232899 92.41041 
L 129.045404 81.795316 
L 132.857908 75.02167 
L 136.670413 78.225483 
L 140.482917 80.252477 
L 144.295421 68.556165 
L 148.107926 75.678476 
L 151.92043 70.322139 
L 155.732934 66.706582 
L 159.545439 70.472828 
L 163.357943 65.119082 
L 167.170447 67.834593 
L 170.982952 75.052269 
L 174.795456 76.827183 
L 178.60796 79.46588 
L 182.420465 108.717599 
L 186.232969 105.353546 
L 190.045473 124.78148 
L 193.857978 123.343719 
L 197.670482 107.634698 
L 201.482986 81.241489 
L 205.295491 100.028697 
L 209.107995 116.820318 
L 212.9205 144.127027 
L 216.733004 98.017127 
L 220.545508 118.280621 
L 224.358013 123.578252 
L 228.170517 101.25519 
L 231.983021 96.393982 
L 235.795526 110.537383 
L 239.60803 102.975169 
L 243.420534 58.941187 
L 247.233039 31.436352 
" style="fill:none;stroke:#00d4ff;stroke-linecap:square;stroke-width:1.5;"/>
    <defs>
     <path d="M 0 3 
C 0.795609 3 1.55874 2.683901 2.12132 2.12132 
C 2.683901 1.55874 3 0.795609 3 0 
C 3 -0.795609 2.683901 -1.55874 2.12132 -2.12132 
C 1.55874 -2.683901 0.795609 -3 0 -3 
C -0.795609 -3 -1.55874 -2.683901 -2.12132 -2.12132 
C -2.683901 -1.55874 -3 -0.795609 -3 0 
C -3 0.795609 -2.683901 1.55874 -2.12132 2.12132 
C -1.55874 2.683901 -0.795609 3 0 3 
z
" id="m97302201b5" style="stroke:#00d4ff;"/>
    </defs>
    <g clip-path="url(#pe6846c9f2c)">
     <use style="fill:#00d4ff;stroke:#00d4ff;" x="68.045334" xlink:href="#m97302201b5" y="130.459375"/>
     <use style="fill:#00d4ff;stroke:#00d4ff;" x="71.857839" xlink:href="#m97302201b5" y="112.998799"/>
     <use style="fill:#00d4ff;stroke:#00d4ff;" x="75.670343" xlink:href="#m97302201b5" y="63.613517"/>
     <use style="fill:#00d4ff;stroke:#00d4ff;" x="79.482847" xlink:href="#m97302201b5" y="88.546287"/>
     <use style="fill:#00d4ff;stroke:#00d4ff;" x="83.295352" xlink:href="#m97302201b5" y="86.842972"/>
     <use style="fill:#00d4ff;stroke:#00d4ff;" x="87.107856" xlink:href="#m97302201b5" y="89.676722"/>
     <use style="fill:#00d4ff;stroke:#00d4ff;" x="90.92036" xlink:href="#m97302201b5" y="90.394743"/>
     <use style="fill:#00d4ff;stroke:#00d4ff;" x="94.732865" xlink:href="#m97302201b5" y="73.64075"/>
     <use style="fill:#00d4ff;stroke:#00d4ff;" x="98.545369" xlink:href="#m97302201b5" y="78.32491"/>
     <use style="fill:#00d4ff;stroke:#00d4ff;" x="102.357873" xlink:href="#m97302201b5" y="89.103024"/>
     <use style="fill:#00d4ff;stroke:#00d4ff;" x="106.170378" xlink:href="#m97302201b5" y="113.478895"/>
     <use style="fill:#00d4ff;stroke:#00d4ff;" x="109.982882" xlink:href="#m97302201b5" y="78.692663"/>
     <use style="fill:#00d4ff;stroke:#00d4ff;" x="113.795386" xlink:href="#m97302201b5" y="104.101669"/>
     <use style="fill:#00d4ff;stroke:#00d4ff;" x="117.607891" xlink:href="#m97302201b5" y="104.968773"/>
     <use style="fill:#00d4ff;stroke:#00d4ff;" x="121.420395" xlink:href="#m97302201b5" y="89.171518"/>
     <use style="fill:#00d4ff;stroke:#00d4ff;" x="125.232899" xlink:href="#m97302201b5" y="92.41041"/>
     <use style="fill:#00d4ff;stroke:#00d4ff;" x="129.045404" xlink:href="#m97302201b5" y="81.795316"/>
     <use style="fill:#00d4ff;stroke:#00d4ff;" x="132.857908" xlink:href="#m97302201b5" y="75.02167"/>
     <use style="fill:#00d4ff;stroke:#00d4ff;" x="136.670413" xlink:href="#m97302201b5" y="78.225483"/>
     <use style="fill:#00d4ff;stroke:#00d4ff;" x="140.482917" xlink:href="#m97302201b5" y="80.252477"/>
     <use style="fill:#00d4ff;stroke:#00d4ff;" x="144.295421" xlink:href="#m97302201b5" y="68.556165"/>
     <use style="fill:#00d4ff;stroke:#00d4ff;" x="148.107926" xlink:href="#m97302201b5" y="75.678476"/>
     <use style="fill:#00d4ff;stroke:#00d4ff;" x="151.92043" xlink:href="#m97302201b5" y="70.322139"/>
     <use style="fill:#00d4ff;stroke:#00d4ff;" x="155.732934" xlink:href="#m97302201b5" y="66.706582"/>
     <use style="fill:#00d4ff;stroke:#00d4ff;" x="159.545439" xlink:href="#m97302201b5" y="70.472828"/>
     <use style="fill:#00d4ff;stroke:#00d4ff;" x="163.357943" xlink:href="#m97302201b5" y="65.119082"/>
     <use style="fill:#00d4ff;stroke:#00d4ff;" x="167.170447" xlink:href="#m97302201b5" y="67.834593"/>
     <use style="fill:#00d4ff;stroke:#00d4ff;" x="170.982952" xlink:href="#m97302201b5" y="75.052269"/>
     <use style="fill:#00d4ff;stroke:#00d4ff;" x="174.795456" xlink:href="#m97302201b5" y="76.827183"/>
     <use style="fill:#00d4ff;stroke:#00d4ff;" x="178.60796" xlink:href="#m97302201b5" y="79.46588"/>
     <use style="fill:#00d4ff;stroke:#00d4ff;" x="182.420465" xlink:href="#m97302201b5" y="108.717599"/>
     <use style="fill:#00d4ff;stroke:#00d4ff;" x="186.232969" xlink:href="#m97302201b5" y="105.353546"/>
     <use style="fill:#00d4ff;stroke:#00d4ff;" x="190.045473" xlink:href="#m97302201b5" y="124.78148"/>
     <use style="fill:#00d4ff;stroke:#00d4ff;" x="193.857978" xlink:href="#m97302201b5" y="123.343719"/>
     <use style="fill:#00d4ff;stroke:#00d4ff;" x="197.670482" xlink:href="#m97302201b5" y="107.634698"/>
     <use style="fill:#00d4ff;stroke:#00d4ff;" x="201.482986" xlink:href="#m97302201b5" y="81.241489"/>
     <use style="fill:#00d4ff;stroke:#00d4ff;" x="205.295491" xlink:href="#m97302201b5" y="100.028697"/>
     <use style="fill:#00d4ff;stroke:#00d4ff;" x="209.107995" xlink:href="#m97302201b5" y="116.820318"/>
     <use style="fill:#00d4ff;stroke:#00d4ff;" x="212.9205" xlink:href="#m97302201b5" y="144.127027"/>
     <use style="fill:#00d4ff;stroke:#00d4ff;" x="216.733004" xlink:href="#m97302201b5" y="98.017127"/>
     <use style="fill:#00d4ff;stroke:#00d4ff;" x="220.545508" xlink:href="#m97302201b5" y="118.280621"/>
     <use style="fill:#00d4ff;stroke:#00d4ff;" x="224.358013" xlink:href="#m97302201b5" y="123.578252"/>
     <use style="fill:#00d4ff;stroke:#00d4ff;" x="228.170517" xlink:href="#m97302201b5" y="101.25519"/>
     <use style="fill:#00d4ff;stroke:#00d4ff;" x="231.983021" xlink:href="#m97302201b5" y="96.393982"/>
     <use style="fill:#00d4ff;stroke:#00d4ff;" x="235.795526" xlink:href="#m97302201b5" y="110.537383"/>
     <use style="fill:#00d4ff;stroke:#00d4ff;" x="239.60803" xlink:href="#m97302201b5" y="102.975169"/>
     <use style="fill:#00d4ff;stroke:#00d4ff;" x="243.420534" xlink:href="#m97302201b5" y="58.941187"/>
     <use style="fill:#00d4ff;stroke:#00d4ff;" x="247.233039" xlink:href="#m97302201b5" y="31.436352"/>
    </g>
   </g>
   <g id="line2d_23">
    <path clip-path="url(#pe6846c9f2c)" d="M 68.045334 127.767255 
L 71.857839 117.520862 
L 75.670343 120.140222 
L 79.482847 110.115686 
L 83.295352 94.507342 
L 87.107856 91.550496 
L 90.92036 99.302631 
L 94.732865 83.610347 
L 98.545369 87.980811 
L 102.357873 70.00069 
L 106.170378 86.749221 
L 109.982882 87.339907 
L 113.795386 115.258892 
L 117.607891 95.804193 
L 121.420395 84.301598 
L 125.232899 90.342791 
L 129.045404 70.317651 
L 132.857908 80.837133 
L 136.670413 58.284672 
L 140.482917 72.615597 
L 144.295421 54.286071 
L 148.107926 74.352772 
L 151.92043 57.382871 
L 155.732934 64.239726 
L 159.545439 68.018628 
L 163.357943 78.701144 
L 167.170447 86.666557 
L 170.982952 99.859388 
L 174.795456 110.310142 
L 178.60796 105.181065 
L 182.420465 119.295392 
L 186.232969 116.755524 
L 190.045473 96.507984 
L 193.857978 108.001175 
L 197.670482 101.810934 
L 201.482986 85.640905 
L 205.295491 90.814104 
L 209.107995 117.49496 
L 212.9205 141.349549 
L 216.733004 92.933571 
L 220.545508 93.594802 
L 224.358013 73.527334 
L 228.170517 86.079502 
L 231.983021 84.394513 
L 235.795526 84.86727 
L 239.60803 75.04687 
L 243.420534 77.844708 
L 247.233039 82.154399 
" style="fill:none;stroke:#ffe600;stroke-linecap:square;stroke-width:1.5;"/>
    <defs>
     <path d="M 0 3 
C 0.795609 3 1.55874 2.683901 2.12132 2.12132 
C 2.683901 1.55874 3 0.795609 3 0 
C 3 -0.795609 2.683901 -1.55874 2.12132 -2.12132 
C 1.55874 -2.683901 0.795609 -3 0 -3 
C -0.795609 -3 -1.55874 -2.683901 -2.12132 -2.12132 
C -2.683901 -1.55874 -3 -0.795609 -3 0 
C -3 0.795609 -2.683901 1.55874 -2.12132 2.12132 
C -1.55874 2.683901 -0.795609 3 0 3 
z
" id="mf614a26465" style="stroke:#ffe600;"/>
    </defs>
    <g clip-path="url(#pe6846c9f2c)">
     <use style="fill:#ffe600;stroke:#ffe600;" x="68.045334" xlink:href="#mf614a26465" y="127.767255"/>
     <use style="fill:#ffe600;stroke:#ffe600;" x="71.857839" xlink:href="#mf614a26465" y="117.520862"/>
     <use style="fill:#ffe600;stroke:#ffe600;" x="75.670343" xlink:href="#mf614a26465" y="120.140222"/>
     <use style="fill:#ffe600;stroke:#ffe600;" x="79.482847" xlink:href="#mf614a26465" y="110.115686"/>
     <use style="fill:#ffe600;stroke:#ffe600;" x="83.295352" xlink:href="#mf614a26465" y="94.507342"/>
     <use style="fill:#ffe600;stroke:#ffe600;" x="87.107856" xlink:href="#mf614a26465" y="91.550496"/>
     <use style="fill:#ffe600;stroke:#ffe600;" x="90.92036" xlink:href="#mf614a26465" y="99.302631"/>
     <use style="fill:#ffe600;stroke:#ffe600;" x="94.732865" xlink:href="#mf614a26465" y="83.610347"/>
     <use style="fill:#ffe600;stroke:#ffe600;" x="98.545369" xlink:href="#mf614a26465" y="87.980811"/>
     <use style="fill:#ffe600;stroke:#ffe600;" x="102.357873" xlink:href="#mf614a26465" y="70.00069"/>
     <use style="fill:#ffe600;stroke:#ffe600;" x="106.170378" xlink:href="#mf614a26465" y="86.749221"/>
     <use style="fill:#ffe600;stroke:#ffe600;" x="109.982882" xlink:href="#mf614a26465" y="87.339907"/>
     <use style="fill:#ffe600;stroke:#ffe600;" x="113.795386" xlink:href="#mf614a26465" y="115.258892"/>
     <use style="fill:#ffe600;stroke:#ffe600;" x="117.607891" xlink:href="#mf614a26465" y="95.804193"/>
     <use style="fill:#ffe600;stroke:#ffe600;" x="121.420395" xlink:href="#mf614a26465" y="84.301598"/>
     <use style="fill:#ffe600;stroke:#ffe600;" x="125.232899" xlink:href="#mf614a26465" y="90.342791"/>
     <use style="fill:#ffe600;stroke:#ffe600;" x="129.045404" xlink:href="#mf614a26465" y="70.317651"/>
     <use style="fill:#ffe600;stroke:#ffe600;" x="132.857908" xlink:href="#mf614a26465" y="80.837133"/>
     <use style="fill:#ffe600;stroke:#ffe600;" x="136.670413" xlink:href="#mf614a26465" y="58.284672"/>
     <use style="fill:#ffe600;stroke:#ffe600;" x="140.482917" xlink:href="#mf614a26465" y="72.615597"/>
     <use style="fill:#ffe600;stroke:#ffe600;" x="144.295421" xlink:href="#mf614a26465" y="54.286071"/>
     <use style="fill:#ffe600;stroke:#ffe600;" x="148.107926" xlink:href="#mf614a26465" y="74.352772"/>
     <use style="fill:#ffe600;stroke:#ffe600;" x="151.92043" xlink:href="#mf614a26465" y="57.382871"/>
     <use style="fill:#ffe600;stroke:#ffe600;" x="155.732934" xlink:href="#mf614a26465" y="64.239726"/>
     <use style="fill:#ffe600;stroke:#ffe600;" x="159.545439" xlink:href="#mf614a26465" y="68.018628"/>
     <use style="fill:#ffe600;stroke:#ffe600;" x="163.357943" xlink:href="#mf614a26465" y="78.701144"/>
     <use style="fill:#ffe600;stroke:#ffe600;" x="167.170447" xlink:href="#mf614a26465" y="86.666557"/>
     <use style="fill:#ffe600;stroke:#ffe600;" x="170.982952" xlink:href="#mf614a26465" y="99.859388"/>
     <use style="fill:#ffe600;stroke:#ffe600;" x="174.795456" xlink:href="#mf614a26465" y="110.310142"/>
     <use style="fill:#ffe600;stroke:#ffe600;" x="178.60796" xlink:href="#mf614a26465" y="105.181065"/>
     <use style="fill:#ffe600;stroke:#ffe600;" x="182.420465" xlink:href="#mf614a26465" y="119.295392"/>
     <use style="fill:#ffe600;stroke:#ffe600;" x="186.232969" xlink:href="#mf614a26465" y="116.755524"/>
     <use style="fill:#ffe600;stroke:#ffe600;" x="190.045473" xlink:href="#mf614a26465" y="96.507984"/>
     <use style="fill:#ffe600;stroke:#ffe600;" x="193.857978" xlink:href="#mf614a26465" y="108.001175"/>
     <use style="fill:#ffe600;stroke:#ffe600;" x="197.670482" xlink:href="#mf614a26465" y="101.810934"/>
     <use style="fill:#ffe600;stroke:#ffe600;" x="201.482986" xlink:href="#mf614a26465" y="85.640905"/>
     <use style="fill:#ffe600;stroke:#ffe600;" x="205.295491" xlink:href="#mf614a26465" y="90.814104"/>
     <use style="fill:#ffe600;stroke:#ffe600;" x="209.107995" xlink:href="#mf614a26465" y="117.49496"/>
     <use style="fill:#ffe600;stroke:#ffe600;" x="212.9205" xlink:href="#mf614a26465" y="141.349549"/>
     <use style="fill:#ffe600;stroke:#ffe600;" x="216.733004" xlink:href="#mf614a26465" y="92.933571"/>
     <use style="fill:#ffe600;stroke:#ffe600;" x="220.545508" xlink:href="#mf614a26465" y="93.594802"/>
     <use style="fill:#ffe600;stroke:#ffe600;" x="224.358013" xlink:href="#mf614a26465" y="73.527334"/>
     <use style="fill:#ffe600;stroke:#ffe600;" x="228.170517" xlink:href="#mf614a26465" y="86.079502"/>
     <use style="fill:#ffe600;stroke:#ffe600;" x="231.983021" xlink:href="#mf614a26465" y="84.394513"/>
     <use style="fill:#ffe600;stroke:#ffe600;" x="235.795526" xlink:href="#mf614a26465" y="84.86727"/>
     <use style="fill:#ffe600;stroke:#ffe600;" x="239.60803" xlink:href="#mf614a26465" y="75.04687"/>
     <use style="fill:#ffe600;stroke:#ffe600;" x="243.420534" xlink:href="#mf614a26465" y="77.844708"/>
     <use style="fill:#ffe600;stroke:#ffe600;" x="247.233039" xlink:href="#mf614a26465" y="82.154399"/>
    </g>
   </g>
   <g id="line2d_24">
    <path clip-path="url(#pe6846c9f2c)" d="M 71.857839 213.800898 
L 75.670343 172.45791 
L 79.482847 121.298078 
L 83.295352 91.013179 
L 87.107856 93.886192 
L 90.92036 59.833602 
L 94.732865 93.908177 
L 98.545369 67.270731 
L 102.357873 64.010923 
L 106.170378 100.827629 
L 109.982882 83.336029 
L 113.795386 117.580805 
L 117.607891 90.120406 
L 121.420395 109.782838 
L 125.232899 91.228118 
L 129.045404 70.949477 
L 132.857908 53.107246 
L 136.670413 71.227761 
L 140.482917 85.242936 
L 144.295421 115.859828 
L 148.107926 114.437076 
L 151.92043 53.441618 
L 155.732934 44.662936 
L 159.545439 76.577984 
L 163.357943 73.703196 
L 167.170447 76.504226 
L 170.982952 76.286396 
L 174.795456 133.062256 
L 178.60796 116.571632 
L 182.420465 138.522788 
L 186.232969 133.400374 
L 190.045473 138.365067 
L 197.670482 96.610705 
L 201.482986 94.91145 
L 205.295491 92.249617 
L 212.9205 148.529656 
L 216.733004 89.79476 
L 220.545508 94.308744 
L 224.358013 85.303097 
L 228.170517 69.232343 
L 231.983021 78.496409 
L 235.795526 120.907694 
L 239.60803 81.070843 
L 243.420534 65.059214 
L 247.233039 80.007069 
" style="fill:none;stroke:#800000;stroke-linecap:square;stroke-width:1.5;"/>
    <defs>
     <path d="M 0 3 
C 0.795609 3 1.55874 2.683901 2.12132 2.12132 
C 2.683901 1.55874 3 0.795609 3 0 
C 3 -0.795609 2.683901 -1.55874 2.12132 -2.12132 
C 1.55874 -2.683901 0.795609 -3 0 -3 
C -0.795609 -3 -1.55874 -2.683901 -2.12132 -2.12132 
C -2.683901 -1.55874 -3 -0.795609 -3 0 
C -3 0.795609 -2.683901 1.55874 -2.12132 2.12132 
C -1.55874 2.683901 -0.795609 3 0 3 
z
" id="m41ef6e996c" style="stroke:#800000;"/>
    </defs>
    <g clip-path="url(#pe6846c9f2c)">
     <use style="fill:#800000;stroke:#800000;" x="71.857839" xlink:href="#m41ef6e996c" y="213.800898"/>
     <use style="fill:#800000;stroke:#800000;" x="75.670343" xlink:href="#m41ef6e996c" y="172.45791"/>
     <use style="fill:#800000;stroke:#800000;" x="79.482847" xlink:href="#m41ef6e996c" y="121.298078"/>
     <use style="fill:#800000;stroke:#800000;" x="83.295352" xlink:href="#m41ef6e996c" y="91.013179"/>
     <use style="fill:#800000;stroke:#800000;" x="87.107856" xlink:href="#m41ef6e996c" y="93.886192"/>
     <use style="fill:#800000;stroke:#800000;" x="90.92036" xlink:href="#m41ef6e996c" y="59.833602"/>
     <use style="fill:#800000;stroke:#800000;" x="94.732865" xlink:href="#m41ef6e996c" y="93.908177"/>
     <use style="fill:#800000;stroke:#800000;" x="98.545369" xlink:href="#m41ef6e996c" y="67.270731"/>
     <use style="fill:#800000;stroke:#800000;" x="102.357873" xlink:href="#m41ef6e996c" y="64.010923"/>
     <use style="fill:#800000;stroke:#800000;" x="106.170378" xlink:href="#m41ef6e996c" y="100.827629"/>
     <use style="fill:#800000;stroke:#800000;" x="109.982882" xlink:href="#m41ef6e996c" y="83.336029"/>
     <use style="fill:#800000;stroke:#800000;" x="113.795386" xlink:href="#m41ef6e996c" y="117.580805"/>
     <use style="fill:#800000;stroke:#800000;" x="117.607891" xlink:href="#m41ef6e996c" y="90.120406"/>
     <use style="fill:#800000;stroke:#800000;" x="121.420395" xlink:href="#m41ef6e996c" y="109.782838"/>
     <use style="fill:#800000;stroke:#800000;" x="125.232899" xlink:href="#m41ef6e996c" y="91.228118"/>
     <use style="fill:#800000;stroke:#800000;" x="129.045404" xlink:href="#m41ef6e996c" y="70.949477"/>
     <use style="fill:#800000;stroke:#800000;" x="132.857908" xlink:href="#m41ef6e996c" y="53.107246"/>
     <use style="fill:#800000;stroke:#800000;" x="136.670413" xlink:href="#m41ef6e996c" y="71.227761"/>
     <use style="fill:#800000;stroke:#800000;" x="140.482917" xlink:href="#m41ef6e996c" y="85.242936"/>
     <use style="fill:#800000;stroke:#800000;" x="144.295421" xlink:href="#m41ef6e996c" y="115.859828"/>
     <use style="fill:#800000;stroke:#800000;" x="148.107926" xlink:href="#m41ef6e996c" y="114.437076"/>
     <use style="fill:#800000;stroke:#800000;" x="151.92043" xlink:href="#m41ef6e996c" y="53.441618"/>
     <use style="fill:#800000;stroke:#800000;" x="155.732934" xlink:href="#m41ef6e996c" y="44.662936"/>
     <use style="fill:#800000;stroke:#800000;" x="159.545439" xlink:href="#m41ef6e996c" y="76.577984"/>
     <use style="fill:#800000;stroke:#800000;" x="163.357943" xlink:href="#m41ef6e996c" y="73.703196"/>
     <use style="fill:#800000;stroke:#800000;" x="167.170447" xlink:href="#m41ef6e996c" y="76.504226"/>
     <use style="fill:#800000;stroke:#800000;" x="170.982952" xlink:href="#m41ef6e996c" y="76.286396"/>
     <use style="fill:#800000;stroke:#800000;" x="174.795456" xlink:href="#m41ef6e996c" y="133.062256"/>
     <use style="fill:#800000;stroke:#800000;" x="178.60796" xlink:href="#m41ef6e996c" y="116.571632"/>
     <use style="fill:#800000;stroke:#800000;" x="182.420465" xlink:href="#m41ef6e996c" y="138.522788"/>
     <use style="fill:#800000;stroke:#800000;" x="186.232969" xlink:href="#m41ef6e996c" y="133.400374"/>
     <use style="fill:#800000;stroke:#800000;" x="190.045473" xlink:href="#m41ef6e996c" y="138.365067"/>
     <use style="fill:#800000;stroke:#800000;" x="197.670482" xlink:href="#m41ef6e996c" y="96.610705"/>
     <use style="fill:#800000;stroke:#800000;" x="201.482986" xlink:href="#m41ef6e996c" y="94.91145"/>
     <use style="fill:#800000;stroke:#800000;" x="205.295491" xlink:href="#m41ef6e996c" y="92.249617"/>
     <use style="fill:#800000;stroke:#800000;" x="212.9205" xlink:href="#m41ef6e996c" y="148.529656"/>
     <use style="fill:#800000;stroke:#800000;" x="216.733004" xlink:href="#m41ef6e996c" y="89.79476"/>
     <use style="fill:#800000;stroke:#800000;" x="220.545508" xlink:href="#m41ef6e996c" y="94.308744"/>
     <use style="fill:#800000;stroke:#800000;" x="224.358013" xlink:href="#m41ef6e996c" y="85.303097"/>
     <use style="fill:#800000;stroke:#800000;" x="228.170517" xlink:href="#m41ef6e996c" y="69.232343"/>
     <use style="fill:#800000;stroke:#800000;" x="231.983021" xlink:href="#m41ef6e996c" y="78.496409"/>
     <use style="fill:#800000;stroke:#800000;" x="235.795526" xlink:href="#m41ef6e996c" y="120.907694"/>
     <use style="fill:#800000;stroke:#800000;" x="239.60803" xlink:href="#m41ef6e996c" y="81.070843"/>
     <use style="fill:#800000;stroke:#800000;" x="243.420534" xlink:href="#m41ef6e996c" y="65.059214"/>
     <use style="fill:#800000;stroke:#800000;" x="247.233039" xlink:href="#m41ef6e996c" y="80.007069"/>
    </g>
   </g>
   <g id="patch_3">
    <path d="M 48.982813 222.919125 
L 48.982813 22.318125 
" style="fill:none;stroke:#000000;stroke-linecap:square;stroke-linejoin:miter;stroke-width:0.8;"/>
   </g>
   <g id="patch_4">
    <path d="M 262.483056 222.919125 
L 262.483056 22.318125 
" style="fill:none;stroke:#000000;stroke-linecap:square;stroke-linejoin:miter;stroke-width:0.8;"/>
   </g>
   <g id="patch_5">
    <path d="M 48.982813 222.919125 
L 262.483056 222.919125 
" style="fill:none;stroke:#000000;stroke-linecap:square;stroke-linejoin:miter;stroke-width:0.8;"/>
   </g>
   <g id="patch_6">
    <path d="M 48.982813 22.318125 
L 262.483056 22.318125 
" style="fill:none;stroke:#000000;stroke-linecap:square;stroke-linejoin:miter;stroke-width:0.8;"/>
   </g>
   <g id="text_23">
    <!-- Model-averaged 4-week-ahead forecasts -->
    <defs>
     <path d="M 9.8125 72.90625 
L 24.515625 72.90625 
L 43.109375 23.296875 
L 61.8125 72.90625 
L 76.515625 72.90625 
L 76.515625 0 
L 66.890625 0 
L 66.890625 64.015625 
L 48.09375 14.015625 
L 38.1875 14.015625 
L 19.390625 64.015625 
L 19.390625 0 
L 9.8125 0 
z
" id="DejaVuSans-77"/>
     <path d="M 4.203125 54.6875 
L 13.1875 54.6875 
L 24.421875 12.015625 
L 35.59375 54.6875 
L 46.1875 54.6875 
L 57.421875 12.015625 
L 68.609375 54.6875 
L 77.59375 54.6875 
L 63.28125 0 
L 52.6875 0 
L 40.921875 44.828125 
L 29.109375 0 
L 18.5 0 
z
" id="DejaVuSans-119"/>
     <path d="M 9.078125 75.984375 
L 18.109375 75.984375 
L 18.109375 31.109375 
L 44.921875 54.6875 
L 56.390625 54.6875 
L 27.390625 29.109375 
L 57.625 0 
L 45.90625 0 
L 18.109375 26.703125 
L 18.109375 0 
L 9.078125 0 
z
" id="DejaVuSans-107"/>
    </defs>
    <g transform="translate(33.409809 16.318125)scale(0.12 -0.12)">
     <use xlink:href="#DejaVuSans-77"/>
     <use x="86.279297" xlink:href="#DejaVuSans-111"/>
     <use x="147.460938" xlink:href="#DejaVuSans-100"/>
     <use x="210.9375" xlink:href="#DejaVuSans-101"/>
     <use x="272.460938" xlink:href="#DejaVuSans-108"/>
     <use x="300.244141" xlink:href="#DejaVuSans-45"/>
     <use x="336.328125" xlink:href="#DejaVuSans-97"/>
     <use x="397.607422" xlink:href="#DejaVuSans-118"/>
     <use x="456.787109" xlink:href="#DejaVuSans-101"/>
     <use x="518.310547" xlink:href="#DejaVuSans-114"/>
     <use x="559.423828" xlink:href="#DejaVuSans-97"/>
     <use x="620.703125" xlink:href="#DejaVuSans-103"/>
     <use x="684.179688" xlink:href="#DejaVuSans-101"/>
     <use x="745.703125" xlink:href="#DejaVuSans-100"/>
     <use x="809.179688" xlink:href="#DejaVuSans-32"/>
     <use x="840.966797" xlink:href="#DejaVuSans-52"/>
     <use x="904.589844" xlink:href="#DejaVuSans-45"/>
     <use x="940.673828" xlink:href="#DejaVuSans-119"/>
     <use x="1022.460938" xlink:href="#DejaVuSans-101"/>
     <use x="1083.984375" xlink:href="#DejaVuSans-101"/>
     <use x="1145.507812" xlink:href="#DejaVuSans-107"/>
     <use x="1203.417969" xlink:href="#DejaVuSans-45"/>
     <use x="1239.501953" xlink:href="#DejaVuSans-97"/>
     <use x="1300.78125" xlink:href="#DejaVuSans-104"/>
     <use x="1364.160156" xlink:href="#DejaVuSans-101"/>
     <use x="1425.683594" xlink:href="#DejaVuSans-97"/>
     <use x="1486.962891" xlink:href="#DejaVuSans-100"/>
     <use x="1550.439453" xlink:href="#DejaVuSans-32"/>
     <use x="1582.226562" xlink:href="#DejaVuSans-102"/>
     <use x="1617.431641" xlink:href="#DejaVuSans-111"/>
     <use x="1678.613281" xlink:href="#DejaVuSans-114"/>
     <use x="1717.476562" xlink:href="#DejaVuSans-101"/>
     <use x="1779" xlink:href="#DejaVuSans-99"/>
     <use x="1833.980469" xlink:href="#DejaVuSans-97"/>
     <use x="1895.259766" xlink:href="#DejaVuSans-115"/>
     <use x="1947.359375" xlink:href="#DejaVuSans-116"/>
     <use x="1986.568359" xlink:href="#DejaVuSans-115"/>
    </g>
   </g>
   <g id="legend_1">
    <g id="patch_7">
     <path d="M 144.326806 217.919125 
L 255.483056 217.919125 
Q 257.483056 217.919125 257.483056 215.919125 
L 257.483056 146.206625 
Q 257.483056 144.206625 255.483056 144.206625 
L 144.326806 144.206625 
Q 142.326806 144.206625 142.326806 146.206625 
L 142.326806 215.919125 
Q 142.326806 217.919125 144.326806 217.919125 
z
" style="fill:#ffffff;opacity:0.8;stroke:#cccccc;stroke-linejoin:miter;"/>
    </g>
    <g id="line2d_25">
     <path d="M 146.326806 152.305063 
L 166.326806 152.305063 
" style="fill:none;stroke:#000080;stroke-linecap:square;stroke-width:1.5;"/>
    </g>
    <g id="line2d_26">
     <g>
      <use style="fill:#000080;stroke:#000080;" x="156.326806" xlink:href="#m03b4e855f3" y="152.305063"/>
     </g>
    </g>
    <g id="text_24">
     <!-- compartmental -->
     <defs>
      <path d="M 18.109375 8.203125 
L 18.109375 -20.796875 
L 9.078125 -20.796875 
L 9.078125 54.6875 
L 18.109375 54.6875 
L 18.109375 46.390625 
Q 20.953125 51.265625 25.265625 53.625 
Q 29.59375 56 35.59375 56 
Q 45.5625 56 51.78125 48.09375 
Q 58.015625 40.1875 58.015625 27.296875 
Q 58.015625 14.40625 51.78125 6.484375 
Q 45.5625 -1.421875 35.59375 -1.421875 
Q 29.59375 -1.421875 25.265625 0.953125 
Q 20.953125 3.328125 18.109375 8.203125 
z
M 48.6875 27.296875 
Q 48.6875 37.203125 44.609375 42.84375 
Q 40.53125 48.484375 33.40625 48.484375 
Q 26.265625 48.484375 22.1875 42.84375 
Q 18.109375 37.203125 18.109375 27.296875 
Q 18.109375 17.390625 22.1875 11.75 
Q 26.265625 6.109375 33.40625 6.109375 
Q 40.53125 6.109375 44.609375 11.75 
Q 48.6875 17.390625 48.6875 27.296875 
z
" id="DejaVuSans-112"/>
     </defs>
     <g transform="translate(174.326806 155.805063)scale(0.1 -0.1)">
      <use xlink:href="#DejaVuSans-99"/>
      <use x="54.980469" xlink:href="#DejaVuSans-111"/>
      <use x="116.162109" xlink:href="#DejaVuSans-109"/>
      <use x="213.574219" xlink:href="#DejaVuSans-112"/>
      <use x="277.050781" xlink:href="#DejaVuSans-97"/>
      <use x="338.330078" xlink:href="#DejaVuSans-114"/>
      <use x="379.443359" xlink:href="#DejaVuSans-116"/>
      <use x="418.652344" xlink:href="#DejaVuSans-109"/>
      <use x="516.064453" xlink:href="#DejaVuSans-101"/>
      <use x="577.587891" xlink:href="#DejaVuSans-110"/>
      <use x="640.966797" xlink:href="#DejaVuSans-116"/>
      <use x="680.175781" xlink:href="#DejaVuSans-97"/>
      <use x="741.455078" xlink:href="#DejaVuSans-108"/>
     </g>
    </g>
    <g id="line2d_27">
     <path d="M 146.326806 170.983188 
L 166.326806 170.983188 
" style="fill:none;stroke:#00d4ff;stroke-linecap:square;stroke-width:1.5;"/>
    </g>
    <g id="line2d_28">
     <g>
      <use style="fill:#00d4ff;stroke:#00d4ff;" x="156.326806" xlink:href="#m97302201b5" y="170.983188"/>
     </g>
    </g>
    <g id="text_25">
     <!-- metapopulation -->
     <g transform="translate(174.326806 174.483188)scale(0.1 -0.1)">
      <use xlink:href="#DejaVuSans-109"/>
      <use x="97.412109" xlink:href="#DejaVuSans-101"/>
      <use x="158.935547" xlink:href="#DejaVuSans-116"/>
      <use x="198.144531" xlink:href="#DejaVuSans-97"/>
      <use x="259.423828" xlink:href="#DejaVuSans-112"/>
      <use x="322.900391" xlink:href="#DejaVuSans-111"/>
      <use x="384.082031" xlink:href="#DejaVuSans-112"/>
      <use x="447.558594" xlink:href="#DejaVuSans-117"/>
      <use x="510.9375" xlink:href="#DejaVuSans-108"/>
      <use x="538.720703" xlink:href="#DejaVuSans-97"/>
      <use x="600" xlink:href="#DejaVuSans-116"/>
      <use x="639.208984" xlink:href="#DejaVuSans-105"/>
      <use x="666.992188" xlink:href="#DejaVuSans-111"/>
      <use x="728.173828" xlink:href="#DejaVuSans-110"/>
     </g>
    </g>
    <g id="line2d_29">
     <path d="M 146.326806 189.661313 
L 166.326806 189.661313 
" style="fill:none;stroke:#ffe600;stroke-linecap:square;stroke-width:1.5;"/>
    </g>
    <g id="line2d_30">
     <g>
      <use style="fill:#ffe600;stroke:#ffe600;" x="156.326806" xlink:href="#mf614a26465" y="189.661313"/>
     </g>
    </g>
    <g id="text_26">
     <!-- stat&amp;prob -->
     <defs>
      <path d="M 24.3125 39.203125 
Q 19.875 35.25 17.796875 31.3125 
Q 15.71875 27.390625 15.71875 23.09375 
Q 15.71875 15.96875 20.890625 11.234375 
Q 26.078125 6.5 33.890625 6.5 
Q 38.53125 6.5 42.578125 8.03125 
Q 46.625 9.578125 50.203125 12.703125 
z
M 31.203125 44.671875 
L 56 19.28125 
Q 58.890625 23.640625 60.5 28.59375 
Q 62.109375 33.546875 62.40625 39.109375 
L 71.484375 39.109375 
Q 70.90625 32.671875 68.359375 26.359375 
Q 65.828125 20.0625 61.28125 13.921875 
L 74.90625 0 
L 62.59375 0 
L 55.609375 7.171875 
Q 50.53125 2.828125 44.96875 0.703125 
Q 39.40625 -1.421875 33.015625 -1.421875 
Q 21.234375 -1.421875 13.765625 5.296875 
Q 6.296875 12.015625 6.296875 22.515625 
Q 6.296875 28.765625 9.5625 34.25 
Q 12.84375 39.75 19.390625 44.578125 
Q 17.046875 47.65625 15.8125 50.703125 
Q 14.59375 53.765625 14.59375 56.6875 
Q 14.59375 64.59375 20.015625 69.40625 
Q 25.4375 74.21875 34.421875 74.21875 
Q 38.484375 74.21875 42.5 73.34375 
Q 46.53125 72.46875 50.6875 70.703125 
L 50.6875 61.8125 
Q 46.4375 64.109375 42.578125 65.296875 
Q 38.71875 66.5 35.40625 66.5 
Q 30.28125 66.5 27.078125 63.78125 
Q 23.875 61.078125 23.875 56.78125 
Q 23.875 54.296875 25.3125 51.78125 
Q 26.765625 49.265625 31.203125 44.671875 
z
" id="DejaVuSans-38"/>
      <path d="M 48.6875 27.296875 
Q 48.6875 37.203125 44.609375 42.84375 
Q 40.53125 48.484375 33.40625 48.484375 
Q 26.265625 48.484375 22.1875 42.84375 
Q 18.109375 37.203125 18.109375 27.296875 
Q 18.109375 17.390625 22.1875 11.75 
Q 26.265625 6.109375 33.40625 6.109375 
Q 40.53125 6.109375 44.609375 11.75 
Q 48.6875 17.390625 48.6875 27.296875 
z
M 18.109375 46.390625 
Q 20.953125 51.265625 25.265625 53.625 
Q 29.59375 56 35.59375 56 
Q 45.5625 56 51.78125 48.09375 
Q 58.015625 40.1875 58.015625 27.296875 
Q 58.015625 14.40625 51.78125 6.484375 
Q 45.5625 -1.421875 35.59375 -1.421875 
Q 29.59375 -1.421875 25.265625 0.953125 
Q 20.953125 3.328125 18.109375 8.203125 
L 18.109375 0 
L 9.078125 0 
L 9.078125 75.984375 
L 18.109375 75.984375 
z
" id="DejaVuSans-98"/>
     </defs>
     <g transform="translate(174.326806 193.161313)scale(0.1 -0.1)">
      <use xlink:href="#DejaVuSans-115"/>
      <use x="52.099609" xlink:href="#DejaVuSans-116"/>
      <use x="91.308594" xlink:href="#DejaVuSans-97"/>
      <use x="152.587891" xlink:href="#DejaVuSans-116"/>
      <use x="191.796875" xlink:href="#DejaVuSans-38"/>
      <use x="269.775391" xlink:href="#DejaVuSans-112"/>
      <use x="333.251953" xlink:href="#DejaVuSans-114"/>
      <use x="372.115234" xlink:href="#DejaVuSans-111"/>
      <use x="433.296875" xlink:href="#DejaVuSans-98"/>
     </g>
    </g>
    <g id="line2d_31">
     <path d="M 146.326806 208.339438 
L 166.326806 208.339438 
" style="fill:none;stroke:#800000;stroke-linecap:square;stroke-width:1.5;"/>
    </g>
    <g id="line2d_32">
     <g>
      <use style="fill:#800000;stroke:#800000;" x="156.326806" xlink:href="#m41ef6e996c" y="208.339438"/>
     </g>
    </g>
    <g id="text_27">
     <!-- ensemble -->
     <g transform="translate(174.326806 211.839438)scale(0.1 -0.1)">
      <use xlink:href="#DejaVuSans-101"/>
      <use x="61.523438" xlink:href="#DejaVuSans-110"/>
      <use x="124.902344" xlink:href="#DejaVuSans-115"/>
      <use x="177.001953" xlink:href="#DejaVuSans-101"/>
      <use x="238.525391" xlink:href="#DejaVuSans-109"/>
      <use x="335.9375" xlink:href="#DejaVuSans-98"/>
      <use x="399.414062" xlink:href="#DejaVuSans-108"/>
      <use x="427.197266" xlink:href="#DejaVuSans-101"/>
     </g>
    </g>
   </g>
  </g>
 </g>
 <defs>
  <clipPath id="pe6846c9f2c">
   <rect height="200.601" width="213.500244" x="48.982813" y="22.318125"/>
  </clipPath>
 </defs>
</svg>
