<?xml version="1.0" encoding="utf-8" standalone="no"?>
<!DOCTYPE svg PUBLIC "-//W3C//DTD SVG 1.1//EN"
  "http://www.w3.org/Graphics/SVG/1.1/DTD/svg11.dtd">
<!-- Created with matplotlib (https://matplotlib.org/) -->
<svg height="376.664358pt" version="1.1" viewBox="0 0 917.635562 376.664358" width="917.635562pt" xmlns="http://www.w3.org/2000/svg" xmlns:xlink="http://www.w3.org/1999/xlink">
 <defs>
  <style type="text/css">
*{stroke-linecap:butt;stroke-linejoin:round;}
  </style>
 </defs>
 <g id="figure_1">
  <g id="patch_1">
   <path d="M 0 376.664358 
L 917.635562 376.664358 
L 917.635562 0 
L 0 0 
z
" style="fill:#ffffff;"/>
  </g>
  <g id="axes_1">
   <g id="patch_2">
    <path d="M 58.523438 316.078125 
L 728.123438 316.078125 
L 728.123438 22.318125 
L 58.523438 22.318125 
z
" style="fill:#ffffff;"/>
   </g>
   <g id="matplotlib.axis_1">
    <g id="xtick_1">
     <g id="line2d_1">
      <defs>
       <path d="M 0 0 
L 0 3.5 
" id="m94450a3472" style="stroke:#000000;stroke-width:0.8;"/>
      </defs>
      <g>
       <use style="stroke:#000000;stroke-width:0.8;" x="58.523438" xlink:href="#m94450a3472" y="316.078125"/>
      </g>
     </g>
     <g id="text_1">
      <!-- Apr 25 -->
      <defs>
       <path d="M 34.1875 63.1875 
L 20.796875 26.90625 
L 47.609375 26.90625 
z
M 28.609375 72.90625 
L 39.796875 72.90625 
L 67.578125 0 
L 57.328125 0 
L 50.6875 18.703125 
L 17.828125 18.703125 
L 11.1875 0 
L 0.78125 0 
z
" id="DejaVuSans-65"/>
       <path d="M 18.109375 8.203125 
L 18.109375 -20.796875 
L 9.078125 -20.796875 
L 9.078125 54.6875 
L 18.109375 54.6875 
L 18.109375 46.390625 
Q 20.953125 51.265625 25.265625 53.625 
Q 29.59375 56 35.59375 56 
Q 45.5625 56 51.78125 48.09375 
Q 58.015625 40.1875 58.015625 27.296875 
Q 58.015625 14.40625 51.78125 6.484375 
Q 45.5625 -1.421875 35.59375 -1.421875 
Q 29.59375 -1.421875 25.265625 0.953125 
Q 20.953125 3.328125 18.109375 8.203125 
z
M 48.6875 27.296875 
Q 48.6875 37.203125 44.609375 42.84375 
Q 40.53125 48.484375 33.40625 48.484375 
Q 26.265625 48.484375 22.1875 42.84375 
Q 18.109375 37.203125 18.109375 27.296875 
Q 18.109375 17.390625 22.1875 11.75 
Q 26.265625 6.109375 33.40625 6.109375 
Q 40.53125 6.109375 44.609375 11.75 
Q 48.6875 17.390625 48.6875 27.296875 
z
" id="DejaVuSans-112"/>
       <path d="M 41.109375 46.296875 
Q 39.59375 47.171875 37.8125 47.578125 
Q 36.03125 48 33.890625 48 
Q 26.265625 48 22.1875 43.046875 
Q 18.109375 38.09375 18.109375 28.8125 
L 18.109375 0 
L 9.078125 0 
L 9.078125 54.6875 
L 18.109375 54.6875 
L 18.109375 46.1875 
Q 20.953125 51.171875 25.484375 53.578125 
Q 30.03125 56 36.53125 56 
Q 37.453125 56 38.578125 55.875 
Q 39.703125 55.765625 41.0625 55.515625 
z
" id="DejaVuSans-114"/>
       <path id="DejaVuSans-32"/>
       <path d="M 19.1875 8.296875 
L 53.609375 8.296875 
L 53.609375 0 
L 7.328125 0 
L 7.328125 8.296875 
Q 12.9375 14.109375 22.625 23.890625 
Q 32.328125 33.6875 34.8125 36.53125 
Q 39.546875 41.84375 41.421875 45.53125 
Q 43.3125 49.21875 43.3125 52.78125 
Q 43.3125 58.59375 39.234375 62.25 
Q 35.15625 65.921875 28.609375 65.921875 
Q 23.96875 65.921875 18.8125 64.3125 
Q 13.671875 62.703125 7.8125 59.421875 
L 7.8125 69.390625 
Q 13.765625 71.78125 18.9375 73 
Q 24.125 74.21875 28.421875 74.21875 
Q 39.75 74.21875 46.484375 68.546875 
Q 53.21875 62.890625 53.21875 53.421875 
Q 53.21875 48.921875 51.53125 44.890625 
Q 49.859375 40.875 45.40625 35.40625 
Q 44.1875 33.984375 37.640625 27.21875 
Q 31.109375 20.453125 19.1875 8.296875 
z
" id="DejaVuSans-50"/>
       <path d="M 10.796875 72.90625 
L 49.515625 72.90625 
L 49.515625 64.59375 
L 19.828125 64.59375 
L 19.828125 46.734375 
Q 21.96875 47.46875 24.109375 47.828125 
Q 26.265625 48.1875 28.421875 48.1875 
Q 40.625 48.1875 47.75 41.5 
Q 54.890625 34.8125 54.890625 23.390625 
Q 54.890625 11.625 47.5625 5.09375 
Q 40.234375 -1.421875 26.90625 -1.421875 
Q 22.3125 -1.421875 17.546875 -0.640625 
Q 12.796875 0.140625 7.71875 1.703125 
L 7.71875 11.625 
Q 12.109375 9.234375 16.796875 8.0625 
Q 21.484375 6.890625 26.703125 6.890625 
Q 35.15625 6.890625 40.078125 11.328125 
Q 45.015625 15.765625 45.015625 23.390625 
Q 45.015625 31 40.078125 35.4375 
Q 35.15625 39.890625 26.703125 39.890625 
Q 22.75 39.890625 18.8125 39.015625 
Q 14.890625 38.140625 10.796875 36.28125 
z
" id="DejaVuSans-53"/>
      </defs>
      <g transform="translate(33.574722 351.929187)rotate(-45)scale(0.1 -0.1)">
       <use xlink:href="#DejaVuSans-65"/>
       <use x="68.408203" xlink:href="#DejaVuSans-112"/>
       <use x="131.884766" xlink:href="#DejaVuSans-114"/>
       <use x="172.998047" xlink:href="#DejaVuSans-32"/>
       <use x="204.785156" xlink:href="#DejaVuSans-50"/>
       <use x="268.408203" xlink:href="#DejaVuSans-53"/>
      </g>
     </g>
    </g>
    <g id="xtick_2">
     <g id="line2d_2">
      <g>
       <use style="stroke:#000000;stroke-width:0.8;" x="106.352009" xlink:href="#m94450a3472" y="316.078125"/>
      </g>
     </g>
     <g id="text_2">
      <!-- May 23 -->
      <defs>
       <path d="M 9.8125 72.90625 
L 24.515625 72.90625 
L 43.109375 23.296875 
L 61.8125 72.90625 
L 76.515625 72.90625 
L 76.515625 0 
L 66.890625 0 
L 66.890625 64.015625 
L 48.09375 14.015625 
L 38.1875 14.015625 
L 19.390625 64.015625 
L 19.390625 0 
L 9.8125 0 
z
" id="DejaVuSans-77"/>
       <path d="M 34.28125 27.484375 
Q 23.390625 27.484375 19.1875 25 
Q 14.984375 22.515625 14.984375 16.5 
Q 14.984375 11.71875 18.140625 8.90625 
Q 21.296875 6.109375 26.703125 6.109375 
Q 34.1875 6.109375 38.703125 11.40625 
Q 43.21875 16.703125 43.21875 25.484375 
L 43.21875 27.484375 
z
M 52.203125 31.203125 
L 52.203125 0 
L 43.21875 0 
L 43.21875 8.296875 
Q 40.140625 3.328125 35.546875 0.953125 
Q 30.953125 -1.421875 24.3125 -1.421875 
Q 15.921875 -1.421875 10.953125 3.296875 
Q 6 8.015625 6 15.921875 
Q 6 25.140625 12.171875 29.828125 
Q 18.359375 34.515625 30.609375 34.515625 
L 43.21875 34.515625 
L 43.21875 35.40625 
Q 43.21875 41.609375 39.140625 45 
Q 35.0625 48.390625 27.6875 48.390625 
Q 23 48.390625 18.546875 47.265625 
Q 14.109375 46.140625 10.015625 43.890625 
L 10.015625 52.203125 
Q 14.9375 54.109375 19.578125 55.046875 
Q 24.21875 56 28.609375 56 
Q 40.484375 56 46.34375 49.84375 
Q 52.203125 43.703125 52.203125 31.203125 
z
" id="DejaVuSans-97"/>
       <path d="M 32.171875 -5.078125 
Q 28.375 -14.84375 24.75 -17.8125 
Q 21.140625 -20.796875 15.09375 -20.796875 
L 7.90625 -20.796875 
L 7.90625 -13.28125 
L 13.1875 -13.28125 
Q 16.890625 -13.28125 18.9375 -11.515625 
Q 21 -9.765625 23.484375 -3.21875 
L 25.09375 0.875 
L 2.984375 54.6875 
L 12.5 54.6875 
L 29.59375 11.921875 
L 46.6875 54.6875 
L 56.203125 54.6875 
z
" id="DejaVuSans-121"/>
       <path d="M 40.578125 39.3125 
Q 47.65625 37.796875 51.625 33 
Q 55.609375 28.21875 55.609375 21.1875 
Q 55.609375 10.40625 48.1875 4.484375 
Q 40.765625 -1.421875 27.09375 -1.421875 
Q 22.515625 -1.421875 17.65625 -0.515625 
Q 12.796875 0.390625 7.625 2.203125 
L 7.625 11.71875 
Q 11.71875 9.328125 16.59375 8.109375 
Q 21.484375 6.890625 26.8125 6.890625 
Q 36.078125 6.890625 40.9375 10.546875 
Q 45.796875 14.203125 45.796875 21.1875 
Q 45.796875 27.640625 41.28125 31.265625 
Q 36.765625 34.90625 28.71875 34.90625 
L 20.21875 34.90625 
L 20.21875 43.015625 
L 29.109375 43.015625 
Q 36.375 43.015625 40.234375 45.921875 
Q 44.09375 48.828125 44.09375 54.296875 
Q 44.09375 59.90625 40.109375 62.90625 
Q 36.140625 65.921875 28.71875 65.921875 
Q 24.65625 65.921875 20.015625 65.03125 
Q 15.375 64.15625 9.8125 62.3125 
L 9.8125 71.09375 
Q 15.4375 72.65625 20.34375 73.4375 
Q 25.25 74.21875 29.59375 74.21875 
Q 40.828125 74.21875 47.359375 69.109375 
Q 53.90625 64.015625 53.90625 55.328125 
Q 53.90625 49.265625 50.4375 45.09375 
Q 46.96875 40.921875 40.578125 39.3125 
z
" id="DejaVuSans-51"/>
      </defs>
      <g transform="translate(79.016808 354.315672)rotate(-45)scale(0.1 -0.1)">
       <use xlink:href="#DejaVuSans-77"/>
       <use x="86.279297" xlink:href="#DejaVuSans-97"/>
       <use x="147.558594" xlink:href="#DejaVuSans-121"/>
       <use x="206.738281" xlink:href="#DejaVuSans-32"/>
       <use x="238.525391" xlink:href="#DejaVuSans-50"/>
       <use x="302.148438" xlink:href="#DejaVuSans-51"/>
      </g>
     </g>
    </g>
    <g id="xtick_3">
     <g id="line2d_3">
      <g>
       <use style="stroke:#000000;stroke-width:0.8;" x="154.18058" xlink:href="#m94450a3472" y="316.078125"/>
      </g>
     </g>
     <g id="text_3">
      <!-- Jun 20 -->
      <defs>
       <path d="M 9.8125 72.90625 
L 19.671875 72.90625 
L 19.671875 5.078125 
Q 19.671875 -8.109375 14.671875 -14.0625 
Q 9.671875 -20.015625 -1.421875 -20.015625 
L -5.171875 -20.015625 
L -5.171875 -11.71875 
L -2.09375 -11.71875 
Q 4.4375 -11.71875 7.125 -8.046875 
Q 9.8125 -4.390625 9.8125 5.078125 
z
" id="DejaVuSans-74"/>
       <path d="M 8.5 21.578125 
L 8.5 54.6875 
L 17.484375 54.6875 
L 17.484375 21.921875 
Q 17.484375 14.15625 20.5 10.265625 
Q 23.53125 6.390625 29.59375 6.390625 
Q 36.859375 6.390625 41.078125 11.03125 
Q 45.3125 15.671875 45.3125 23.6875 
L 45.3125 54.6875 
L 54.296875 54.6875 
L 54.296875 0 
L 45.3125 0 
L 45.3125 8.40625 
Q 42.046875 3.421875 37.71875 1 
Q 33.40625 -1.421875 27.6875 -1.421875 
Q 18.265625 -1.421875 13.375 4.4375 
Q 8.5 10.296875 8.5 21.578125 
z
M 31.109375 56 
z
" id="DejaVuSans-117"/>
       <path d="M 54.890625 33.015625 
L 54.890625 0 
L 45.90625 0 
L 45.90625 32.71875 
Q 45.90625 40.484375 42.875 44.328125 
Q 39.84375 48.1875 33.796875 48.1875 
Q 26.515625 48.1875 22.3125 43.546875 
Q 18.109375 38.921875 18.109375 30.90625 
L 18.109375 0 
L 9.078125 0 
L 9.078125 54.6875 
L 18.109375 54.6875 
L 18.109375 46.1875 
Q 21.34375 51.125 25.703125 53.5625 
Q 30.078125 56 35.796875 56 
Q 45.21875 56 50.046875 50.171875 
Q 54.890625 44.34375 54.890625 33.015625 
z
" id="DejaVuSans-110"/>
       <path d="M 31.78125 66.40625 
Q 24.171875 66.40625 20.328125 58.90625 
Q 16.5 51.421875 16.5 36.375 
Q 16.5 21.390625 20.328125 13.890625 
Q 24.171875 6.390625 31.78125 6.390625 
Q 39.453125 6.390625 43.28125 13.890625 
Q 47.125 21.390625 47.125 36.375 
Q 47.125 51.421875 43.28125 58.90625 
Q 39.453125 66.40625 31.78125 66.40625 
z
M 31.78125 74.21875 
Q 44.046875 74.21875 50.515625 64.515625 
Q 56.984375 54.828125 56.984375 36.375 
Q 56.984375 17.96875 50.515625 8.265625 
Q 44.046875 -1.421875 31.78125 -1.421875 
Q 19.53125 -1.421875 13.0625 8.265625 
Q 6.59375 17.96875 6.59375 36.375 
Q 6.59375 54.828125 13.0625 64.515625 
Q 19.53125 74.21875 31.78125 74.21875 
z
" id="DejaVuSans-48"/>
      </defs>
      <g transform="translate(130.416268 350.744783)rotate(-45)scale(0.1 -0.1)">
       <use xlink:href="#DejaVuSans-74"/>
       <use x="29.492188" xlink:href="#DejaVuSans-117"/>
       <use x="92.871094" xlink:href="#DejaVuSans-110"/>
       <use x="156.25" xlink:href="#DejaVuSans-32"/>
       <use x="188.037109" xlink:href="#DejaVuSans-50"/>
       <use x="251.660156" xlink:href="#DejaVuSans-48"/>
      </g>
     </g>
    </g>
    <g id="xtick_4">
     <g id="line2d_4">
      <g>
       <use style="stroke:#000000;stroke-width:0.8;" x="202.009152" xlink:href="#m94450a3472" y="316.078125"/>
      </g>
     </g>
     <g id="text_4">
      <!-- Jul 18 -->
      <defs>
       <path d="M 9.421875 75.984375 
L 18.40625 75.984375 
L 18.40625 0 
L 9.421875 0 
z
" id="DejaVuSans-108"/>
       <path d="M 12.40625 8.296875 
L 28.515625 8.296875 
L 28.515625 63.921875 
L 10.984375 60.40625 
L 10.984375 69.390625 
L 28.421875 72.90625 
L 38.28125 72.90625 
L 38.28125 8.296875 
L 54.390625 8.296875 
L 54.390625 0 
L 12.40625 0 
z
" id="DejaVuSans-49"/>
       <path d="M 31.78125 34.625 
Q 24.75 34.625 20.71875 30.859375 
Q 16.703125 27.09375 16.703125 20.515625 
Q 16.703125 13.921875 20.71875 10.15625 
Q 24.75 6.390625 31.78125 6.390625 
Q 38.8125 6.390625 42.859375 10.171875 
Q 46.921875 13.96875 46.921875 20.515625 
Q 46.921875 27.09375 42.890625 30.859375 
Q 38.875 34.625 31.78125 34.625 
z
M 21.921875 38.8125 
Q 15.578125 40.375 12.03125 44.71875 
Q 8.5 49.078125 8.5 55.328125 
Q 8.5 64.0625 14.71875 69.140625 
Q 20.953125 74.21875 31.78125 74.21875 
Q 42.671875 74.21875 48.875 69.140625 
Q 55.078125 64.0625 55.078125 55.328125 
Q 55.078125 49.078125 51.53125 44.71875 
Q 48 40.375 41.703125 38.8125 
Q 48.828125 37.15625 52.796875 32.3125 
Q 56.78125 27.484375 56.78125 20.515625 
Q 56.78125 9.90625 50.3125 4.234375 
Q 43.84375 -1.421875 31.78125 -1.421875 
Q 19.734375 -1.421875 13.25 4.234375 
Q 6.78125 9.90625 6.78125 20.515625 
Q 6.78125 27.484375 10.78125 32.3125 
Q 14.796875 37.15625 21.921875 38.8125 
z
M 18.3125 54.390625 
Q 18.3125 48.734375 21.84375 45.5625 
Q 25.390625 42.390625 31.78125 42.390625 
Q 38.140625 42.390625 41.71875 45.5625 
Q 45.3125 48.734375 45.3125 54.390625 
Q 45.3125 60.0625 41.71875 63.234375 
Q 38.140625 66.40625 31.78125 66.40625 
Q 25.390625 66.40625 21.84375 63.234375 
Q 18.3125 60.0625 18.3125 54.390625 
z
" id="DejaVuSans-56"/>
      </defs>
      <g transform="translate(180.761698 348.227924)rotate(-45)scale(0.1 -0.1)">
       <use xlink:href="#DejaVuSans-74"/>
       <use x="29.492188" xlink:href="#DejaVuSans-117"/>
       <use x="92.871094" xlink:href="#DejaVuSans-108"/>
       <use x="120.654297" xlink:href="#DejaVuSans-32"/>
       <use x="152.441406" xlink:href="#DejaVuSans-49"/>
       <use x="216.064453" xlink:href="#DejaVuSans-56"/>
      </g>
     </g>
    </g>
    <g id="xtick_5">
     <g id="line2d_5">
      <g>
       <use style="stroke:#000000;stroke-width:0.8;" x="249.837723" xlink:href="#m94450a3472" y="316.078125"/>
      </g>
     </g>
     <g id="text_5">
      <!-- Aug 15 -->
      <defs>
       <path d="M 45.40625 27.984375 
Q 45.40625 37.75 41.375 43.109375 
Q 37.359375 48.484375 30.078125 48.484375 
Q 22.859375 48.484375 18.828125 43.109375 
Q 14.796875 37.75 14.796875 27.984375 
Q 14.796875 18.265625 18.828125 12.890625 
Q 22.859375 7.515625 30.078125 7.515625 
Q 37.359375 7.515625 41.375 12.890625 
Q 45.40625 18.265625 45.40625 27.984375 
z
M 54.390625 6.78125 
Q 54.390625 -7.171875 48.1875 -13.984375 
Q 42 -20.796875 29.203125 -20.796875 
Q 24.46875 -20.796875 20.265625 -20.09375 
Q 16.0625 -19.390625 12.109375 -17.921875 
L 12.109375 -9.1875 
Q 16.0625 -11.328125 19.921875 -12.34375 
Q 23.78125 -13.375 27.78125 -13.375 
Q 36.625 -13.375 41.015625 -8.765625 
Q 45.40625 -4.15625 45.40625 5.171875 
L 45.40625 9.625 
Q 42.625 4.78125 38.28125 2.390625 
Q 33.9375 0 27.875 0 
Q 17.828125 0 11.671875 7.65625 
Q 5.515625 15.328125 5.515625 27.984375 
Q 5.515625 40.671875 11.671875 48.328125 
Q 17.828125 56 27.875 56 
Q 33.9375 56 38.28125 53.609375 
Q 42.625 51.21875 45.40625 46.390625 
L 45.40625 54.6875 
L 54.390625 54.6875 
z
" id="DejaVuSans-103"/>
      </defs>
      <g transform="translate(223.31459 353.503604)rotate(-45)scale(0.1 -0.1)">
       <use xlink:href="#DejaVuSans-65"/>
       <use x="68.408203" xlink:href="#DejaVuSans-117"/>
       <use x="131.787109" xlink:href="#DejaVuSans-103"/>
       <use x="195.263672" xlink:href="#DejaVuSans-32"/>
       <use x="227.050781" xlink:href="#DejaVuSans-49"/>
       <use x="290.673828" xlink:href="#DejaVuSans-53"/>
      </g>
     </g>
    </g>
    <g id="xtick_6">
     <g id="line2d_6">
      <g>
       <use style="stroke:#000000;stroke-width:0.8;" x="297.666295" xlink:href="#m94450a3472" y="316.078125"/>
      </g>
     </g>
     <g id="text_6">
      <!-- Sep 12 -->
      <defs>
       <path d="M 53.515625 70.515625 
L 53.515625 60.890625 
Q 47.90625 63.578125 42.921875 64.890625 
Q 37.9375 66.21875 33.296875 66.21875 
Q 25.25 66.21875 20.875 63.09375 
Q 16.5 59.96875 16.5 54.203125 
Q 16.5 49.359375 19.40625 46.890625 
Q 22.3125 44.4375 30.421875 42.921875 
L 36.375 41.703125 
Q 47.40625 39.59375 52.65625 34.296875 
Q 57.90625 29 57.90625 20.125 
Q 57.90625 9.515625 50.796875 4.046875 
Q 43.703125 -1.421875 29.984375 -1.421875 
Q 24.8125 -1.421875 18.96875 -0.25 
Q 13.140625 0.921875 6.890625 3.21875 
L 6.890625 13.375 
Q 12.890625 10.015625 18.65625 8.296875 
Q 24.421875 6.59375 29.984375 6.59375 
Q 38.421875 6.59375 43.015625 9.90625 
Q 47.609375 13.234375 47.609375 19.390625 
Q 47.609375 24.75 44.3125 27.78125 
Q 41.015625 30.8125 33.5 32.328125 
L 27.484375 33.5 
Q 16.453125 35.6875 11.515625 40.375 
Q 6.59375 45.0625 6.59375 53.421875 
Q 6.59375 63.09375 13.40625 68.65625 
Q 20.21875 74.21875 32.171875 74.21875 
Q 37.3125 74.21875 42.625 73.28125 
Q 47.953125 72.359375 53.515625 70.515625 
z
" id="DejaVuSans-83"/>
       <path d="M 56.203125 29.59375 
L 56.203125 25.203125 
L 14.890625 25.203125 
Q 15.484375 15.921875 20.484375 11.0625 
Q 25.484375 6.203125 34.421875 6.203125 
Q 39.59375 6.203125 44.453125 7.46875 
Q 49.3125 8.734375 54.109375 11.28125 
L 54.109375 2.78125 
Q 49.265625 0.734375 44.1875 -0.34375 
Q 39.109375 -1.421875 33.890625 -1.421875 
Q 20.796875 -1.421875 13.15625 6.1875 
Q 5.515625 13.8125 5.515625 26.8125 
Q 5.515625 40.234375 12.765625 48.109375 
Q 20.015625 56 32.328125 56 
Q 43.359375 56 49.78125 48.890625 
Q 56.203125 41.796875 56.203125 29.59375 
z
M 47.21875 32.234375 
Q 47.125 39.59375 43.09375 43.984375 
Q 39.0625 48.390625 32.421875 48.390625 
Q 24.90625 48.390625 20.390625 44.140625 
Q 15.875 39.890625 15.1875 32.171875 
z
" id="DejaVuSans-101"/>
      </defs>
      <g transform="translate(271.621563 353.025202)rotate(-45)scale(0.1 -0.1)">
       <use xlink:href="#DejaVuSans-83"/>
       <use x="63.476562" xlink:href="#DejaVuSans-101"/>
       <use x="125" xlink:href="#DejaVuSans-112"/>
       <use x="188.476562" xlink:href="#DejaVuSans-32"/>
       <use x="220.263672" xlink:href="#DejaVuSans-49"/>
       <use x="283.886719" xlink:href="#DejaVuSans-50"/>
      </g>
     </g>
    </g>
    <g id="xtick_7">
     <g id="line2d_7">
      <g>
       <use style="stroke:#000000;stroke-width:0.8;" x="345.494866" xlink:href="#m94450a3472" y="316.078125"/>
      </g>
     </g>
     <g id="text_7">
      <!-- Oct 10 -->
      <defs>
       <path d="M 39.40625 66.21875 
Q 28.65625 66.21875 22.328125 58.203125 
Q 16.015625 50.203125 16.015625 36.375 
Q 16.015625 22.609375 22.328125 14.59375 
Q 28.65625 6.59375 39.40625 6.59375 
Q 50.140625 6.59375 56.421875 14.59375 
Q 62.703125 22.609375 62.703125 36.375 
Q 62.703125 50.203125 56.421875 58.203125 
Q 50.140625 66.21875 39.40625 66.21875 
z
M 39.40625 74.21875 
Q 54.734375 74.21875 63.90625 63.9375 
Q 73.09375 53.65625 73.09375 36.375 
Q 73.09375 19.140625 63.90625 8.859375 
Q 54.734375 -1.421875 39.40625 -1.421875 
Q 24.03125 -1.421875 14.8125 8.828125 
Q 5.609375 19.09375 5.609375 36.375 
Q 5.609375 53.65625 14.8125 63.9375 
Q 24.03125 74.21875 39.40625 74.21875 
z
" id="DejaVuSans-79"/>
       <path d="M 48.78125 52.59375 
L 48.78125 44.1875 
Q 44.96875 46.296875 41.140625 47.34375 
Q 37.3125 48.390625 33.40625 48.390625 
Q 24.65625 48.390625 19.8125 42.84375 
Q 14.984375 37.3125 14.984375 27.296875 
Q 14.984375 17.28125 19.8125 11.734375 
Q 24.65625 6.203125 33.40625 6.203125 
Q 37.3125 6.203125 41.140625 7.25 
Q 44.96875 8.296875 48.78125 10.40625 
L 48.78125 2.09375 
Q 45.015625 0.34375 40.984375 -0.53125 
Q 36.96875 -1.421875 32.421875 -1.421875 
Q 20.0625 -1.421875 12.78125 6.34375 
Q 5.515625 14.109375 5.515625 27.296875 
Q 5.515625 40.671875 12.859375 48.328125 
Q 20.21875 56 33.015625 56 
Q 37.15625 56 41.109375 55.140625 
Q 45.0625 54.296875 48.78125 52.59375 
z
" id="DejaVuSans-99"/>
       <path d="M 18.3125 70.21875 
L 18.3125 54.6875 
L 36.8125 54.6875 
L 36.8125 47.703125 
L 18.3125 47.703125 
L 18.3125 18.015625 
Q 18.3125 11.328125 20.140625 9.421875 
Q 21.96875 7.515625 27.59375 7.515625 
L 36.8125 7.515625 
L 36.8125 0 
L 27.59375 0 
Q 17.1875 0 13.234375 3.875 
Q 9.28125 7.765625 9.28125 18.015625 
L 9.28125 47.703125 
L 2.6875 47.703125 
L 2.6875 54.6875 
L 9.28125 54.6875 
L 9.28125 70.21875 
z
" id="DejaVuSans-116"/>
      </defs>
      <g transform="translate(320.552779 351.922557)rotate(-45)scale(0.1 -0.1)">
       <use xlink:href="#DejaVuSans-79"/>
       <use x="78.710938" xlink:href="#DejaVuSans-99"/>
       <use x="133.691406" xlink:href="#DejaVuSans-116"/>
       <use x="172.900391" xlink:href="#DejaVuSans-32"/>
       <use x="204.6875" xlink:href="#DejaVuSans-49"/>
       <use x="268.310547" xlink:href="#DejaVuSans-48"/>
      </g>
     </g>
    </g>
    <g id="xtick_8">
     <g id="line2d_8">
      <g>
       <use style="stroke:#000000;stroke-width:0.8;" x="393.323438" xlink:href="#m94450a3472" y="316.078125"/>
      </g>
     </g>
     <g id="text_8">
      <!-- Nov 07 -->
      <defs>
       <path d="M 9.8125 72.90625 
L 23.09375 72.90625 
L 55.421875 11.921875 
L 55.421875 72.90625 
L 64.984375 72.90625 
L 64.984375 0 
L 51.703125 0 
L 19.390625 60.984375 
L 19.390625 0 
L 9.8125 0 
z
" id="DejaVuSans-78"/>
       <path d="M 30.609375 48.390625 
Q 23.390625 48.390625 19.1875 42.75 
Q 14.984375 37.109375 14.984375 27.296875 
Q 14.984375 17.484375 19.15625 11.84375 
Q 23.34375 6.203125 30.609375 6.203125 
Q 37.796875 6.203125 41.984375 11.859375 
Q 46.1875 17.53125 46.1875 27.296875 
Q 46.1875 37.015625 41.984375 42.703125 
Q 37.796875 48.390625 30.609375 48.390625 
z
M 30.609375 56 
Q 42.328125 56 49.015625 48.375 
Q 55.71875 40.765625 55.71875 27.296875 
Q 55.71875 13.875 49.015625 6.21875 
Q 42.328125 -1.421875 30.609375 -1.421875 
Q 18.84375 -1.421875 12.171875 6.21875 
Q 5.515625 13.875 5.515625 27.296875 
Q 5.515625 40.765625 12.171875 48.375 
Q 18.84375 56 30.609375 56 
z
" id="DejaVuSans-111"/>
       <path d="M 2.984375 54.6875 
L 12.5 54.6875 
L 29.59375 8.796875 
L 46.6875 54.6875 
L 56.203125 54.6875 
L 35.6875 0 
L 23.484375 0 
z
" id="DejaVuSans-118"/>
       <path d="M 8.203125 72.90625 
L 55.078125 72.90625 
L 55.078125 68.703125 
L 28.609375 0 
L 18.3125 0 
L 43.21875 64.59375 
L 8.203125 64.59375 
z
" id="DejaVuSans-55"/>
      </defs>
      <g transform="translate(366.805828 353.49808)rotate(-45)scale(0.1 -0.1)">
       <use xlink:href="#DejaVuSans-78"/>
       <use x="74.804688" xlink:href="#DejaVuSans-111"/>
       <use x="135.986328" xlink:href="#DejaVuSans-118"/>
       <use x="195.166016" xlink:href="#DejaVuSans-32"/>
       <use x="226.953125" xlink:href="#DejaVuSans-48"/>
       <use x="290.576172" xlink:href="#DejaVuSans-55"/>
      </g>
     </g>
    </g>
    <g id="xtick_9">
     <g id="line2d_9">
      <g>
       <use style="stroke:#000000;stroke-width:0.8;" x="441.152009" xlink:href="#m94450a3472" y="316.078125"/>
      </g>
     </g>
     <g id="text_9">
      <!-- Dec 05 -->
      <defs>
       <path d="M 19.671875 64.796875 
L 19.671875 8.109375 
L 31.59375 8.109375 
Q 46.6875 8.109375 53.6875 14.9375 
Q 60.6875 21.78125 60.6875 36.53125 
Q 60.6875 51.171875 53.6875 57.984375 
Q 46.6875 64.796875 31.59375 64.796875 
z
M 9.8125 72.90625 
L 30.078125 72.90625 
Q 51.265625 72.90625 61.171875 64.09375 
Q 71.09375 55.28125 71.09375 36.53125 
Q 71.09375 17.671875 61.125 8.828125 
Q 51.171875 0 30.078125 0 
L 9.8125 0 
z
" id="DejaVuSans-68"/>
      </defs>
      <g transform="translate(414.752619 353.37986)rotate(-45)scale(0.1 -0.1)">
       <use xlink:href="#DejaVuSans-68"/>
       <use x="77.001953" xlink:href="#DejaVuSans-101"/>
       <use x="138.525391" xlink:href="#DejaVuSans-99"/>
       <use x="193.505859" xlink:href="#DejaVuSans-32"/>
       <use x="225.292969" xlink:href="#DejaVuSans-48"/>
       <use x="288.916016" xlink:href="#DejaVuSans-53"/>
      </g>
     </g>
    </g>
    <g id="xtick_10">
     <g id="line2d_10">
      <g>
       <use style="stroke:#000000;stroke-width:0.8;" x="488.98058" xlink:href="#m94450a3472" y="316.078125"/>
      </g>
     </g>
     <g id="text_10">
      <!-- Jan 02 -->
      <g transform="translate(465.364319 350.596732)rotate(-45)scale(0.1 -0.1)">
       <use xlink:href="#DejaVuSans-74"/>
       <use x="29.492188" xlink:href="#DejaVuSans-97"/>
       <use x="90.771484" xlink:href="#DejaVuSans-110"/>
       <use x="154.150391" xlink:href="#DejaVuSans-32"/>
       <use x="185.9375" xlink:href="#DejaVuSans-48"/>
       <use x="249.560547" xlink:href="#DejaVuSans-50"/>
      </g>
     </g>
    </g>
    <g id="xtick_11">
     <g id="line2d_11">
      <g>
       <use style="stroke:#000000;stroke-width:0.8;" x="536.809152" xlink:href="#m94450a3472" y="316.078125"/>
      </g>
     </g>
     <g id="text_11">
      <!-- Jan 30 -->
      <g transform="translate(513.19289 350.596732)rotate(-45)scale(0.1 -0.1)">
       <use xlink:href="#DejaVuSans-74"/>
       <use x="29.492188" xlink:href="#DejaVuSans-97"/>
       <use x="90.771484" xlink:href="#DejaVuSans-110"/>
       <use x="154.150391" xlink:href="#DejaVuSans-32"/>
       <use x="185.9375" xlink:href="#DejaVuSans-51"/>
       <use x="249.560547" xlink:href="#DejaVuSans-48"/>
      </g>
     </g>
    </g>
    <g id="xtick_12">
     <g id="line2d_12">
      <g>
       <use style="stroke:#000000;stroke-width:0.8;" x="584.637723" xlink:href="#m94450a3472" y="316.078125"/>
      </g>
     </g>
     <g id="text_12">
      <!-- Feb 27 -->
      <defs>
       <path d="M 9.8125 72.90625 
L 51.703125 72.90625 
L 51.703125 64.59375 
L 19.671875 64.59375 
L 19.671875 43.109375 
L 48.578125 43.109375 
L 48.578125 34.8125 
L 19.671875 34.8125 
L 19.671875 0 
L 9.8125 0 
z
" id="DejaVuSans-70"/>
       <path d="M 48.6875 27.296875 
Q 48.6875 37.203125 44.609375 42.84375 
Q 40.53125 48.484375 33.40625 48.484375 
Q 26.265625 48.484375 22.1875 42.84375 
Q 18.109375 37.203125 18.109375 27.296875 
Q 18.109375 17.390625 22.1875 11.75 
Q 26.265625 6.109375 33.40625 6.109375 
Q 40.53125 6.109375 44.609375 11.75 
Q 48.6875 17.390625 48.6875 27.296875 
z
M 18.109375 46.390625 
Q 20.953125 51.265625 25.265625 53.625 
Q 29.59375 56 35.59375 56 
Q 45.5625 56 51.78125 48.09375 
Q 58.015625 40.1875 58.015625 27.296875 
Q 58.015625 14.40625 51.78125 6.484375 
Q 45.5625 -1.421875 35.59375 -1.421875 
Q 29.59375 -1.421875 25.265625 0.953125 
Q 20.953125 3.328125 18.109375 8.203125 
L 18.109375 0 
L 9.078125 0 
L 9.078125 75.984375 
L 18.109375 75.984375 
z
" id="DejaVuSans-98"/>
      </defs>
      <g transform="translate(559.403955 352.214239)rotate(-45)scale(0.1 -0.1)">
       <use xlink:href="#DejaVuSans-70"/>
       <use x="52.019531" xlink:href="#DejaVuSans-101"/>
       <use x="113.542969" xlink:href="#DejaVuSans-98"/>
       <use x="177.019531" xlink:href="#DejaVuSans-32"/>
       <use x="208.806641" xlink:href="#DejaVuSans-50"/>
       <use x="272.429688" xlink:href="#DejaVuSans-55"/>
      </g>
     </g>
    </g>
    <g id="xtick_13">
     <g id="line2d_13">
      <g>
       <use style="stroke:#000000;stroke-width:0.8;" x="632.466295" xlink:href="#m94450a3472" y="316.078125"/>
      </g>
     </g>
     <g id="text_13">
      <!-- Mar 27 -->
      <g transform="translate(606.40941 353.037355)rotate(-45)scale(0.1 -0.1)">
       <use xlink:href="#DejaVuSans-77"/>
       <use x="86.279297" xlink:href="#DejaVuSans-97"/>
       <use x="147.558594" xlink:href="#DejaVuSans-114"/>
       <use x="188.671875" xlink:href="#DejaVuSans-32"/>
       <use x="220.458984" xlink:href="#DejaVuSans-50"/>
       <use x="284.082031" xlink:href="#DejaVuSans-55"/>
      </g>
     </g>
    </g>
    <g id="xtick_14">
     <g id="line2d_14">
      <g>
       <use style="stroke:#000000;stroke-width:0.8;" x="680.294866" xlink:href="#m94450a3472" y="316.078125"/>
      </g>
     </g>
     <g id="text_14">
      <!-- Apr 24 -->
      <defs>
       <path d="M 37.796875 64.3125 
L 12.890625 25.390625 
L 37.796875 25.390625 
z
M 35.203125 72.90625 
L 47.609375 72.90625 
L 47.609375 25.390625 
L 58.015625 25.390625 
L 58.015625 17.1875 
L 47.609375 17.1875 
L 47.609375 0 
L 37.796875 0 
L 37.796875 17.1875 
L 4.890625 17.1875 
L 4.890625 26.703125 
z
" id="DejaVuSans-52"/>
      </defs>
      <g transform="translate(655.34615 351.929187)rotate(-45)scale(0.1 -0.1)">
       <use xlink:href="#DejaVuSans-65"/>
       <use x="68.408203" xlink:href="#DejaVuSans-112"/>
       <use x="131.884766" xlink:href="#DejaVuSans-114"/>
       <use x="172.998047" xlink:href="#DejaVuSans-32"/>
       <use x="204.785156" xlink:href="#DejaVuSans-50"/>
       <use x="268.408203" xlink:href="#DejaVuSans-52"/>
      </g>
     </g>
    </g>
    <g id="xtick_15">
     <g id="line2d_15">
      <g>
       <use style="stroke:#000000;stroke-width:0.8;" x="728.123438" xlink:href="#m94450a3472" y="316.078125"/>
      </g>
     </g>
     <g id="text_15">
      <!-- May 22 -->
      <g transform="translate(700.788236 354.315672)rotate(-45)scale(0.1 -0.1)">
       <use xlink:href="#DejaVuSans-77"/>
       <use x="86.279297" xlink:href="#DejaVuSans-97"/>
       <use x="147.558594" xlink:href="#DejaVuSans-121"/>
       <use x="206.738281" xlink:href="#DejaVuSans-32"/>
       <use x="238.525391" xlink:href="#DejaVuSans-50"/>
       <use x="302.148438" xlink:href="#DejaVuSans-50"/>
      </g>
     </g>
    </g>
    <g id="text_16">
     <!-- Target End Date -->
     <defs>
      <path d="M -0.296875 72.90625 
L 61.375 72.90625 
L 61.375 64.59375 
L 35.5 64.59375 
L 35.5 0 
L 25.59375 0 
L 25.59375 64.59375 
L -0.296875 64.59375 
z
" id="DejaVuSans-84"/>
      <path d="M 9.8125 72.90625 
L 55.90625 72.90625 
L 55.90625 64.59375 
L 19.671875 64.59375 
L 19.671875 43.015625 
L 54.390625 43.015625 
L 54.390625 34.71875 
L 19.671875 34.71875 
L 19.671875 8.296875 
L 56.78125 8.296875 
L 56.78125 0 
L 9.8125 0 
z
" id="DejaVuSans-69"/>
      <path d="M 45.40625 46.390625 
L 45.40625 75.984375 
L 54.390625 75.984375 
L 54.390625 0 
L 45.40625 0 
L 45.40625 8.203125 
Q 42.578125 3.328125 38.25 0.953125 
Q 33.9375 -1.421875 27.875 -1.421875 
Q 17.96875 -1.421875 11.734375 6.484375 
Q 5.515625 14.40625 5.515625 27.296875 
Q 5.515625 40.1875 11.734375 48.09375 
Q 17.96875 56 27.875 56 
Q 33.9375 56 38.25 53.625 
Q 42.578125 51.265625 45.40625 46.390625 
z
M 14.796875 27.296875 
Q 14.796875 17.390625 18.875 11.75 
Q 22.953125 6.109375 30.078125 6.109375 
Q 37.203125 6.109375 41.296875 11.75 
Q 45.40625 17.390625 45.40625 27.296875 
Q 45.40625 37.203125 41.296875 42.84375 
Q 37.203125 48.484375 30.078125 48.484375 
Q 22.953125 48.484375 18.875 42.84375 
Q 14.796875 37.203125 14.796875 27.296875 
z
" id="DejaVuSans-100"/>
     </defs>
     <g transform="translate(353.220312 367.384671)scale(0.1 -0.1)">
      <use xlink:href="#DejaVuSans-84"/>
      <use x="44.583984" xlink:href="#DejaVuSans-97"/>
      <use x="105.863281" xlink:href="#DejaVuSans-114"/>
      <use x="145.226562" xlink:href="#DejaVuSans-103"/>
      <use x="208.703125" xlink:href="#DejaVuSans-101"/>
      <use x="270.226562" xlink:href="#DejaVuSans-116"/>
      <use x="309.435547" xlink:href="#DejaVuSans-32"/>
      <use x="341.222656" xlink:href="#DejaVuSans-69"/>
      <use x="404.40625" xlink:href="#DejaVuSans-110"/>
      <use x="467.785156" xlink:href="#DejaVuSans-100"/>
      <use x="531.261719" xlink:href="#DejaVuSans-32"/>
      <use x="563.048828" xlink:href="#DejaVuSans-68"/>
      <use x="640.050781" xlink:href="#DejaVuSans-97"/>
      <use x="701.330078" xlink:href="#DejaVuSans-116"/>
      <use x="740.539062" xlink:href="#DejaVuSans-101"/>
     </g>
    </g>
   </g>
   <g id="matplotlib.axis_2">
    <g id="ytick_1">
     <g id="line2d_16">
      <defs>
       <path d="M 0 0 
L -3.5 0 
" id="m9028869fee" style="stroke:#000000;stroke-width:0.8;"/>
      </defs>
      <g>
       <use style="stroke:#000000;stroke-width:0.8;" x="58.523438" xlink:href="#m9028869fee" y="310.22599"/>
      </g>
     </g>
     <g id="text_17">
      <!-- −15.0 -->
      <defs>
       <path d="M 10.59375 35.5 
L 73.1875 35.5 
L 73.1875 27.203125 
L 10.59375 27.203125 
z
" id="DejaVuSans-8722"/>
       <path d="M 10.6875 12.40625 
L 21 12.40625 
L 21 0 
L 10.6875 0 
z
" id="DejaVuSans-46"/>
      </defs>
      <g transform="translate(20.878125 314.025209)scale(0.1 -0.1)">
       <use xlink:href="#DejaVuSans-8722"/>
       <use x="83.789062" xlink:href="#DejaVuSans-49"/>
       <use x="147.412109" xlink:href="#DejaVuSans-53"/>
       <use x="211.035156" xlink:href="#DejaVuSans-46"/>
       <use x="242.822266" xlink:href="#DejaVuSans-48"/>
      </g>
     </g>
    </g>
    <g id="ytick_2">
     <g id="line2d_17">
      <g>
       <use style="stroke:#000000;stroke-width:0.8;" x="58.523438" xlink:href="#m9028869fee" y="269.941299"/>
      </g>
     </g>
     <g id="text_18">
      <!-- −12.5 -->
      <g transform="translate(20.878125 273.740517)scale(0.1 -0.1)">
       <use xlink:href="#DejaVuSans-8722"/>
       <use x="83.789062" xlink:href="#DejaVuSans-49"/>
       <use x="147.412109" xlink:href="#DejaVuSans-50"/>
       <use x="211.035156" xlink:href="#DejaVuSans-46"/>
       <use x="242.822266" xlink:href="#DejaVuSans-53"/>
      </g>
     </g>
    </g>
    <g id="ytick_3">
     <g id="line2d_18">
      <g>
       <use style="stroke:#000000;stroke-width:0.8;" x="58.523438" xlink:href="#m9028869fee" y="229.656607"/>
      </g>
     </g>
     <g id="text_19">
      <!-- −10.0 -->
      <g transform="translate(20.878125 233.455825)scale(0.1 -0.1)">
       <use xlink:href="#DejaVuSans-8722"/>
       <use x="83.789062" xlink:href="#DejaVuSans-49"/>
       <use x="147.412109" xlink:href="#DejaVuSans-48"/>
       <use x="211.035156" xlink:href="#DejaVuSans-46"/>
       <use x="242.822266" xlink:href="#DejaVuSans-48"/>
      </g>
     </g>
    </g>
    <g id="ytick_4">
     <g id="line2d_19">
      <g>
       <use style="stroke:#000000;stroke-width:0.8;" x="58.523438" xlink:href="#m9028869fee" y="189.371915"/>
      </g>
     </g>
     <g id="text_20">
      <!-- −7.5 -->
      <g transform="translate(27.240625 193.171134)scale(0.1 -0.1)">
       <use xlink:href="#DejaVuSans-8722"/>
       <use x="83.789062" xlink:href="#DejaVuSans-55"/>
       <use x="147.412109" xlink:href="#DejaVuSans-46"/>
       <use x="179.199219" xlink:href="#DejaVuSans-53"/>
      </g>
     </g>
    </g>
    <g id="ytick_5">
     <g id="line2d_20">
      <g>
       <use style="stroke:#000000;stroke-width:0.8;" x="58.523438" xlink:href="#m9028869fee" y="149.087223"/>
      </g>
     </g>
     <g id="text_21">
      <!-- −5.0 -->
      <g transform="translate(27.240625 152.886442)scale(0.1 -0.1)">
       <use xlink:href="#DejaVuSans-8722"/>
       <use x="83.789062" xlink:href="#DejaVuSans-53"/>
       <use x="147.412109" xlink:href="#DejaVuSans-46"/>
       <use x="179.199219" xlink:href="#DejaVuSans-48"/>
      </g>
     </g>
    </g>
    <g id="ytick_6">
     <g id="line2d_21">
      <g>
       <use style="stroke:#000000;stroke-width:0.8;" x="58.523438" xlink:href="#m9028869fee" y="108.802531"/>
      </g>
     </g>
     <g id="text_22">
      <!-- −2.5 -->
      <g transform="translate(27.240625 112.60175)scale(0.1 -0.1)">
       <use xlink:href="#DejaVuSans-8722"/>
       <use x="83.789062" xlink:href="#DejaVuSans-50"/>
       <use x="147.412109" xlink:href="#DejaVuSans-46"/>
       <use x="179.199219" xlink:href="#DejaVuSans-53"/>
      </g>
     </g>
    </g>
    <g id="ytick_7">
     <g id="line2d_22">
      <g>
       <use style="stroke:#000000;stroke-width:0.8;" x="58.523438" xlink:href="#m9028869fee" y="68.517839"/>
      </g>
     </g>
     <g id="text_23">
      <!-- 0.0 -->
      <g transform="translate(35.620313 72.317058)scale(0.1 -0.1)">
       <use xlink:href="#DejaVuSans-48"/>
       <use x="63.623047" xlink:href="#DejaVuSans-46"/>
       <use x="95.410156" xlink:href="#DejaVuSans-48"/>
      </g>
     </g>
    </g>
    <g id="ytick_8">
     <g id="line2d_23">
      <g>
       <use style="stroke:#000000;stroke-width:0.8;" x="58.523438" xlink:href="#m9028869fee" y="28.233147"/>
      </g>
     </g>
     <g id="text_24">
      <!-- 2.5 -->
      <g transform="translate(35.620313 32.032366)scale(0.1 -0.1)">
       <use xlink:href="#DejaVuSans-50"/>
       <use x="63.623047" xlink:href="#DejaVuSans-46"/>
       <use x="95.410156" xlink:href="#DejaVuSans-53"/>
      </g>
     </g>
    </g>
    <g id="text_25">
     <!-- Score for cumulative deaths -->
     <defs>
      <path d="M 37.109375 75.984375 
L 37.109375 68.5 
L 28.515625 68.5 
Q 23.6875 68.5 21.796875 66.546875 
Q 19.921875 64.59375 19.921875 59.515625 
L 19.921875 54.6875 
L 34.71875 54.6875 
L 34.71875 47.703125 
L 19.921875 47.703125 
L 19.921875 0 
L 10.890625 0 
L 10.890625 47.703125 
L 2.296875 47.703125 
L 2.296875 54.6875 
L 10.890625 54.6875 
L 10.890625 58.5 
Q 10.890625 67.625 15.140625 71.796875 
Q 19.390625 75.984375 28.609375 75.984375 
z
" id="DejaVuSans-102"/>
      <path d="M 52 44.1875 
Q 55.375 50.25 60.0625 53.125 
Q 64.75 56 71.09375 56 
Q 79.640625 56 84.28125 50.015625 
Q 88.921875 44.046875 88.921875 33.015625 
L 88.921875 0 
L 79.890625 0 
L 79.890625 32.71875 
Q 79.890625 40.578125 77.09375 44.375 
Q 74.3125 48.1875 68.609375 48.1875 
Q 61.625 48.1875 57.5625 43.546875 
Q 53.515625 38.921875 53.515625 30.90625 
L 53.515625 0 
L 44.484375 0 
L 44.484375 32.71875 
Q 44.484375 40.625 41.703125 44.40625 
Q 38.921875 48.1875 33.109375 48.1875 
Q 26.21875 48.1875 22.15625 43.53125 
Q 18.109375 38.875 18.109375 30.90625 
L 18.109375 0 
L 9.078125 0 
L 9.078125 54.6875 
L 18.109375 54.6875 
L 18.109375 46.1875 
Q 21.1875 51.21875 25.484375 53.609375 
Q 29.78125 56 35.6875 56 
Q 41.65625 56 45.828125 52.96875 
Q 50 49.953125 52 44.1875 
z
" id="DejaVuSans-109"/>
      <path d="M 9.421875 54.6875 
L 18.40625 54.6875 
L 18.40625 0 
L 9.421875 0 
z
M 9.421875 75.984375 
L 18.40625 75.984375 
L 18.40625 64.59375 
L 9.421875 64.59375 
z
" id="DejaVuSans-105"/>
      <path d="M 54.890625 33.015625 
L 54.890625 0 
L 45.90625 0 
L 45.90625 32.71875 
Q 45.90625 40.484375 42.875 44.328125 
Q 39.84375 48.1875 33.796875 48.1875 
Q 26.515625 48.1875 22.3125 43.546875 
Q 18.109375 38.921875 18.109375 30.90625 
L 18.109375 0 
L 9.078125 0 
L 9.078125 75.984375 
L 18.109375 75.984375 
L 18.109375 46.1875 
Q 21.34375 51.125 25.703125 53.5625 
Q 30.078125 56 35.796875 56 
Q 45.21875 56 50.046875 50.171875 
Q 54.890625 44.34375 54.890625 33.015625 
z
" id="DejaVuSans-104"/>
      <path d="M 44.28125 53.078125 
L 44.28125 44.578125 
Q 40.484375 46.53125 36.375 47.5 
Q 32.28125 48.484375 27.875 48.484375 
Q 21.1875 48.484375 17.84375 46.4375 
Q 14.5 44.390625 14.5 40.28125 
Q 14.5 37.15625 16.890625 35.375 
Q 19.28125 33.59375 26.515625 31.984375 
L 29.59375 31.296875 
Q 39.15625 29.25 43.1875 25.515625 
Q 47.21875 21.78125 47.21875 15.09375 
Q 47.21875 7.46875 41.1875 3.015625 
Q 35.15625 -1.421875 24.609375 -1.421875 
Q 20.21875 -1.421875 15.453125 -0.5625 
Q 10.6875 0.296875 5.421875 2 
L 5.421875 11.28125 
Q 10.40625 8.6875 15.234375 7.390625 
Q 20.0625 6.109375 24.8125 6.109375 
Q 31.15625 6.109375 34.5625 8.28125 
Q 37.984375 10.453125 37.984375 14.40625 
Q 37.984375 18.0625 35.515625 20.015625 
Q 33.0625 21.96875 24.703125 23.78125 
L 21.578125 24.515625 
Q 13.234375 26.265625 9.515625 29.90625 
Q 5.8125 33.546875 5.8125 39.890625 
Q 5.8125 47.609375 11.28125 51.796875 
Q 16.75 56 26.8125 56 
Q 31.78125 56 36.171875 55.265625 
Q 40.578125 54.546875 44.28125 53.078125 
z
" id="DejaVuSans-115"/>
     </defs>
     <g transform="translate(14.798438 239.686406)rotate(-90)scale(0.1 -0.1)">
      <use xlink:href="#DejaVuSans-83"/>
      <use x="63.476562" xlink:href="#DejaVuSans-99"/>
      <use x="118.457031" xlink:href="#DejaVuSans-111"/>
      <use x="179.638672" xlink:href="#DejaVuSans-114"/>
      <use x="218.501953" xlink:href="#DejaVuSans-101"/>
      <use x="280.025391" xlink:href="#DejaVuSans-32"/>
      <use x="311.8125" xlink:href="#DejaVuSans-102"/>
      <use x="347.017578" xlink:href="#DejaVuSans-111"/>
      <use x="408.199219" xlink:href="#DejaVuSans-114"/>
      <use x="449.3125" xlink:href="#DejaVuSans-32"/>
      <use x="481.099609" xlink:href="#DejaVuSans-99"/>
      <use x="536.080078" xlink:href="#DejaVuSans-117"/>
      <use x="599.458984" xlink:href="#DejaVuSans-109"/>
      <use x="696.871094" xlink:href="#DejaVuSans-117"/>
      <use x="760.25" xlink:href="#DejaVuSans-108"/>
      <use x="788.033203" xlink:href="#DejaVuSans-97"/>
      <use x="849.3125" xlink:href="#DejaVuSans-116"/>
      <use x="888.521484" xlink:href="#DejaVuSans-105"/>
      <use x="916.304688" xlink:href="#DejaVuSans-118"/>
      <use x="975.484375" xlink:href="#DejaVuSans-101"/>
      <use x="1037.007812" xlink:href="#DejaVuSans-32"/>
      <use x="1068.794922" xlink:href="#DejaVuSans-100"/>
      <use x="1132.271484" xlink:href="#DejaVuSans-101"/>
      <use x="1193.794922" xlink:href="#DejaVuSans-97"/>
      <use x="1255.074219" xlink:href="#DejaVuSans-116"/>
      <use x="1294.283203" xlink:href="#DejaVuSans-104"/>
      <use x="1357.662109" xlink:href="#DejaVuSans-115"/>
     </g>
    </g>
   </g>
   <g id="line2d_24">
    <path clip-path="url(#p4e7833d613)" d="M 94.394866 278.059635 
L 106.352009 289.997449 
L 118.309152 203.263406 
L 154.18058 111.219762 
L 166.137723 174.516921 
L 190.052009 158.057086 
L 202.009152 223.67676 
L 345.494866 115.52913 
L 357.452009 98.545653 
L 369.409152 141.053971 
L 381.366295 143.2874 
L 393.323438 187.19366 
L 488.98058 131.806456 
L 500.937723 133.406059 
L 512.894866 141.47571 
L 548.766295 134.064865 
L 572.68058 147.737664 
L 668.337723 98.924119 
" style="fill:none;stroke:#000080;stroke-linecap:square;stroke-width:1.5;"/>
    <defs>
     <path d="M 0 3 
C 0.795609 3 1.55874 2.683901 2.12132 2.12132 
C 2.683901 1.55874 3 0.795609 3 0 
C 3 -0.795609 2.683901 -1.55874 2.12132 -2.12132 
C 1.55874 -2.683901 0.795609 -3 0 -3 
C -0.795609 -3 -1.55874 -2.683901 -2.12132 -2.12132 
C -2.683901 -1.55874 -3 -0.795609 -3 0 
C -3 0.795609 -2.683901 1.55874 -2.12132 2.12132 
C -1.55874 2.683901 -0.795609 3 0 3 
z
" id="m42a1943d5c" style="stroke:#000080;"/>
    </defs>
    <g clip-path="url(#p4e7833d613)">
     <use style="fill:#000080;stroke:#000080;" x="94.394866" xlink:href="#m42a1943d5c" y="278.059635"/>
     <use style="fill:#000080;stroke:#000080;" x="106.352009" xlink:href="#m42a1943d5c" y="289.997449"/>
     <use style="fill:#000080;stroke:#000080;" x="118.309152" xlink:href="#m42a1943d5c" y="203.263406"/>
     <use style="fill:#000080;stroke:#000080;" x="154.18058" xlink:href="#m42a1943d5c" y="111.219762"/>
     <use style="fill:#000080;stroke:#000080;" x="166.137723" xlink:href="#m42a1943d5c" y="174.516921"/>
     <use style="fill:#000080;stroke:#000080;" x="190.052009" xlink:href="#m42a1943d5c" y="158.057086"/>
     <use style="fill:#000080;stroke:#000080;" x="202.009152" xlink:href="#m42a1943d5c" y="223.67676"/>
     <use style="fill:#000080;stroke:#000080;" x="345.494866" xlink:href="#m42a1943d5c" y="115.52913"/>
     <use style="fill:#000080;stroke:#000080;" x="357.452009" xlink:href="#m42a1943d5c" y="98.545653"/>
     <use style="fill:#000080;stroke:#000080;" x="369.409152" xlink:href="#m42a1943d5c" y="141.053971"/>
     <use style="fill:#000080;stroke:#000080;" x="381.366295" xlink:href="#m42a1943d5c" y="143.2874"/>
     <use style="fill:#000080;stroke:#000080;" x="393.323438" xlink:href="#m42a1943d5c" y="187.19366"/>
     <use style="fill:#000080;stroke:#000080;" x="488.98058" xlink:href="#m42a1943d5c" y="131.806456"/>
     <use style="fill:#000080;stroke:#000080;" x="500.937723" xlink:href="#m42a1943d5c" y="133.406059"/>
     <use style="fill:#000080;stroke:#000080;" x="512.894866" xlink:href="#m42a1943d5c" y="141.47571"/>
     <use style="fill:#000080;stroke:#000080;" x="548.766295" xlink:href="#m42a1943d5c" y="134.064865"/>
     <use style="fill:#000080;stroke:#000080;" x="572.68058" xlink:href="#m42a1943d5c" y="147.737664"/>
     <use style="fill:#000080;stroke:#000080;" x="668.337723" xlink:href="#m42a1943d5c" y="98.924119"/>
    </g>
   </g>
   <g id="line2d_25">
    <path clip-path="url(#p4e7833d613)" d="M 106.352009 184.814434 
L 118.309152 170.733676 
L 130.266295 157.172968 
L 142.223437 159.981331 
L 154.18058 141.713169 
L 166.137723 145.629483 
L 178.094866 133.950656 
L 190.052009 130.666471 
L 202.009152 136.76129 
L 213.966295 142.059746 
L 225.923438 184.126576 
L 237.88058 156.73942 
L 249.837723 157.860074 
L 261.794866 154.572425 
L 273.752009 129.583496 
L 285.709152 119.0004 
L 297.666295 134.674047 
L 309.623438 154.926136 
L 321.58058 124.92961 
L 333.537723 132.661102 
L 345.494866 126.458347 
L 357.452009 126.60983 
L 369.409152 90.732622 
L 381.366295 134.83934 
L 393.323438 144.44117 
L 441.152009 213.34639 
L 465.066295 208.500951 
L 488.98058 172.751106 
L 500.937723 157.768434 
L 512.894866 154.814 
L 548.766295 155.222748 
L 560.723437 161.55131 
L 572.68058 118.94328 
L 584.637723 149.301883 
L 596.594866 134.405566 
L 608.552009 158.000829 
L 620.509152 123.021988 
L 632.466295 147.773377 
L 644.423438 120.783082 
L 656.38058 116.378335 
L 668.337723 131.220033 
L 680.294866 94.596875 
L 692.252009 105.290873 
L 704.209152 136.149874 
L 716.166295 115.748494 
L 728.123438 166.203963 
" style="fill:none;stroke:#0000e8;stroke-linecap:square;stroke-width:1.5;"/>
    <defs>
     <path d="M 0 3 
C 0.795609 3 1.55874 2.683901 2.12132 2.12132 
C 2.683901 1.55874 3 0.795609 3 0 
C 3 -0.795609 2.683901 -1.55874 2.12132 -2.12132 
C 1.55874 -2.683901 0.795609 -3 0 -3 
C -0.795609 -3 -1.55874 -2.683901 -2.12132 -2.12132 
C -2.683901 -1.55874 -3 -0.795609 -3 0 
C -3 0.795609 -2.683901 1.55874 -2.12132 2.12132 
C -1.55874 2.683901 -0.795609 3 0 3 
z
" id="m0b13767186" style="stroke:#0000e8;"/>
    </defs>
    <g clip-path="url(#p4e7833d613)">
     <use style="fill:#0000e8;stroke:#0000e8;" x="106.352009" xlink:href="#m0b13767186" y="184.814434"/>
     <use style="fill:#0000e8;stroke:#0000e8;" x="118.309152" xlink:href="#m0b13767186" y="170.733676"/>
     <use style="fill:#0000e8;stroke:#0000e8;" x="130.266295" xlink:href="#m0b13767186" y="157.172968"/>
     <use style="fill:#0000e8;stroke:#0000e8;" x="142.223437" xlink:href="#m0b13767186" y="159.981331"/>
     <use style="fill:#0000e8;stroke:#0000e8;" x="154.18058" xlink:href="#m0b13767186" y="141.713169"/>
     <use style="fill:#0000e8;stroke:#0000e8;" x="166.137723" xlink:href="#m0b13767186" y="145.629483"/>
     <use style="fill:#0000e8;stroke:#0000e8;" x="178.094866" xlink:href="#m0b13767186" y="133.950656"/>
     <use style="fill:#0000e8;stroke:#0000e8;" x="190.052009" xlink:href="#m0b13767186" y="130.666471"/>
     <use style="fill:#0000e8;stroke:#0000e8;" x="202.009152" xlink:href="#m0b13767186" y="136.76129"/>
     <use style="fill:#0000e8;stroke:#0000e8;" x="213.966295" xlink:href="#m0b13767186" y="142.059746"/>
     <use style="fill:#0000e8;stroke:#0000e8;" x="225.923438" xlink:href="#m0b13767186" y="184.126576"/>
     <use style="fill:#0000e8;stroke:#0000e8;" x="237.88058" xlink:href="#m0b13767186" y="156.73942"/>
     <use style="fill:#0000e8;stroke:#0000e8;" x="249.837723" xlink:href="#m0b13767186" y="157.860074"/>
     <use style="fill:#0000e8;stroke:#0000e8;" x="261.794866" xlink:href="#m0b13767186" y="154.572425"/>
     <use style="fill:#0000e8;stroke:#0000e8;" x="273.752009" xlink:href="#m0b13767186" y="129.583496"/>
     <use style="fill:#0000e8;stroke:#0000e8;" x="285.709152" xlink:href="#m0b13767186" y="119.0004"/>
     <use style="fill:#0000e8;stroke:#0000e8;" x="297.666295" xlink:href="#m0b13767186" y="134.674047"/>
     <use style="fill:#0000e8;stroke:#0000e8;" x="309.623438" xlink:href="#m0b13767186" y="154.926136"/>
     <use style="fill:#0000e8;stroke:#0000e8;" x="321.58058" xlink:href="#m0b13767186" y="124.92961"/>
     <use style="fill:#0000e8;stroke:#0000e8;" x="333.537723" xlink:href="#m0b13767186" y="132.661102"/>
     <use style="fill:#0000e8;stroke:#0000e8;" x="345.494866" xlink:href="#m0b13767186" y="126.458347"/>
     <use style="fill:#0000e8;stroke:#0000e8;" x="357.452009" xlink:href="#m0b13767186" y="126.60983"/>
     <use style="fill:#0000e8;stroke:#0000e8;" x="369.409152" xlink:href="#m0b13767186" y="90.732622"/>
     <use style="fill:#0000e8;stroke:#0000e8;" x="381.366295" xlink:href="#m0b13767186" y="134.83934"/>
     <use style="fill:#0000e8;stroke:#0000e8;" x="393.323438" xlink:href="#m0b13767186" y="144.44117"/>
     <use style="fill:#0000e8;stroke:#0000e8;" x="441.152009" xlink:href="#m0b13767186" y="213.34639"/>
     <use style="fill:#0000e8;stroke:#0000e8;" x="465.066295" xlink:href="#m0b13767186" y="208.500951"/>
     <use style="fill:#0000e8;stroke:#0000e8;" x="488.98058" xlink:href="#m0b13767186" y="172.751106"/>
     <use style="fill:#0000e8;stroke:#0000e8;" x="500.937723" xlink:href="#m0b13767186" y="157.768434"/>
     <use style="fill:#0000e8;stroke:#0000e8;" x="512.894866" xlink:href="#m0b13767186" y="154.814"/>
     <use style="fill:#0000e8;stroke:#0000e8;" x="548.766295" xlink:href="#m0b13767186" y="155.222748"/>
     <use style="fill:#0000e8;stroke:#0000e8;" x="560.723437" xlink:href="#m0b13767186" y="161.55131"/>
     <use style="fill:#0000e8;stroke:#0000e8;" x="572.68058" xlink:href="#m0b13767186" y="118.94328"/>
     <use style="fill:#0000e8;stroke:#0000e8;" x="584.637723" xlink:href="#m0b13767186" y="149.301883"/>
     <use style="fill:#0000e8;stroke:#0000e8;" x="596.594866" xlink:href="#m0b13767186" y="134.405566"/>
     <use style="fill:#0000e8;stroke:#0000e8;" x="608.552009" xlink:href="#m0b13767186" y="158.000829"/>
     <use style="fill:#0000e8;stroke:#0000e8;" x="620.509152" xlink:href="#m0b13767186" y="123.021988"/>
     <use style="fill:#0000e8;stroke:#0000e8;" x="632.466295" xlink:href="#m0b13767186" y="147.773377"/>
     <use style="fill:#0000e8;stroke:#0000e8;" x="644.423438" xlink:href="#m0b13767186" y="120.783082"/>
     <use style="fill:#0000e8;stroke:#0000e8;" x="656.38058" xlink:href="#m0b13767186" y="116.378335"/>
     <use style="fill:#0000e8;stroke:#0000e8;" x="668.337723" xlink:href="#m0b13767186" y="131.220033"/>
     <use style="fill:#0000e8;stroke:#0000e8;" x="680.294866" xlink:href="#m0b13767186" y="94.596875"/>
     <use style="fill:#0000e8;stroke:#0000e8;" x="692.252009" xlink:href="#m0b13767186" y="105.290873"/>
     <use style="fill:#0000e8;stroke:#0000e8;" x="704.209152" xlink:href="#m0b13767186" y="136.149874"/>
     <use style="fill:#0000e8;stroke:#0000e8;" x="716.166295" xlink:href="#m0b13767186" y="115.748494"/>
     <use style="fill:#0000e8;stroke:#0000e8;" x="728.123438" xlink:href="#m0b13767186" y="166.203963"/>
    </g>
   </g>
   <g id="line2d_26">
    <path clip-path="url(#p4e7833d613)" d="M 190.052009 99.858488 
L 202.009152 167.073666 
L 213.966295 159.821417 
L 249.837723 194.430534 
L 261.794866 160.171272 
L 273.752009 144.090389 
L 285.709152 153.275421 
L 297.666295 128.962744 
L 309.623438 151.915419 
L 321.58058 232.006981 
L 333.537723 242.347375 
L 369.409152 208.818789 
L 393.323438 136.426582 
L 405.28058 181.322265 
L 417.237723 199.248479 
L 429.194866 183.109828 
L 441.152009 195.63695 
L 453.109152 199.352309 
L 465.066295 200.393701 
L 488.98058 163.38004 
L 500.937723 164.823423 
L 512.894866 198.21327 
L 536.809152 214.693704 
L 548.766295 184.055475 
L 560.723437 162.406336 
L 572.68058 153.136729 
L 584.637723 145.896469 
L 596.594866 164.413404 
L 608.552009 214.173534 
L 620.509152 185.735939 
L 632.466295 133.607563 
L 644.423438 140.987499 
L 656.38058 116.254622 
L 668.337723 133.24682 
L 680.294866 145.93902 
L 692.252009 133.831424 
L 716.166295 107.871146 
L 728.123438 107.884625 
" style="fill:none;stroke:#0038ff;stroke-linecap:square;stroke-width:1.5;"/>
    <defs>
     <path d="M 0 3 
C 0.795609 3 1.55874 2.683901 2.12132 2.12132 
C 2.683901 1.55874 3 0.795609 3 0 
C 3 -0.795609 2.683901 -1.55874 2.12132 -2.12132 
C 1.55874 -2.683901 0.795609 -3 0 -3 
C -0.795609 -3 -1.55874 -2.683901 -2.12132 -2.12132 
C -2.683901 -1.55874 -3 -0.795609 -3 0 
C -3 0.795609 -2.683901 1.55874 -2.12132 2.12132 
C -1.55874 2.683901 -0.795609 3 0 3 
z
" id="md96e419be4" style="stroke:#0038ff;"/>
    </defs>
    <g clip-path="url(#p4e7833d613)">
     <use style="fill:#0038ff;stroke:#0038ff;" x="190.052009" xlink:href="#md96e419be4" y="99.858488"/>
     <use style="fill:#0038ff;stroke:#0038ff;" x="202.009152" xlink:href="#md96e419be4" y="167.073666"/>
     <use style="fill:#0038ff;stroke:#0038ff;" x="213.966295" xlink:href="#md96e419be4" y="159.821417"/>
     <use style="fill:#0038ff;stroke:#0038ff;" x="249.837723" xlink:href="#md96e419be4" y="194.430534"/>
     <use style="fill:#0038ff;stroke:#0038ff;" x="261.794866" xlink:href="#md96e419be4" y="160.171272"/>
     <use style="fill:#0038ff;stroke:#0038ff;" x="273.752009" xlink:href="#md96e419be4" y="144.090389"/>
     <use style="fill:#0038ff;stroke:#0038ff;" x="285.709152" xlink:href="#md96e419be4" y="153.275421"/>
     <use style="fill:#0038ff;stroke:#0038ff;" x="297.666295" xlink:href="#md96e419be4" y="128.962744"/>
     <use style="fill:#0038ff;stroke:#0038ff;" x="309.623438" xlink:href="#md96e419be4" y="151.915419"/>
     <use style="fill:#0038ff;stroke:#0038ff;" x="321.58058" xlink:href="#md96e419be4" y="232.006981"/>
     <use style="fill:#0038ff;stroke:#0038ff;" x="333.537723" xlink:href="#md96e419be4" y="242.347375"/>
     <use style="fill:#0038ff;stroke:#0038ff;" x="369.409152" xlink:href="#md96e419be4" y="208.818789"/>
     <use style="fill:#0038ff;stroke:#0038ff;" x="393.323438" xlink:href="#md96e419be4" y="136.426582"/>
     <use style="fill:#0038ff;stroke:#0038ff;" x="405.28058" xlink:href="#md96e419be4" y="181.322265"/>
     <use style="fill:#0038ff;stroke:#0038ff;" x="417.237723" xlink:href="#md96e419be4" y="199.248479"/>
     <use style="fill:#0038ff;stroke:#0038ff;" x="429.194866" xlink:href="#md96e419be4" y="183.109828"/>
     <use style="fill:#0038ff;stroke:#0038ff;" x="441.152009" xlink:href="#md96e419be4" y="195.63695"/>
     <use style="fill:#0038ff;stroke:#0038ff;" x="453.109152" xlink:href="#md96e419be4" y="199.352309"/>
     <use style="fill:#0038ff;stroke:#0038ff;" x="465.066295" xlink:href="#md96e419be4" y="200.393701"/>
     <use style="fill:#0038ff;stroke:#0038ff;" x="488.98058" xlink:href="#md96e419be4" y="163.38004"/>
     <use style="fill:#0038ff;stroke:#0038ff;" x="500.937723" xlink:href="#md96e419be4" y="164.823423"/>
     <use style="fill:#0038ff;stroke:#0038ff;" x="512.894866" xlink:href="#md96e419be4" y="198.21327"/>
     <use style="fill:#0038ff;stroke:#0038ff;" x="536.809152" xlink:href="#md96e419be4" y="214.693704"/>
     <use style="fill:#0038ff;stroke:#0038ff;" x="548.766295" xlink:href="#md96e419be4" y="184.055475"/>
     <use style="fill:#0038ff;stroke:#0038ff;" x="560.723437" xlink:href="#md96e419be4" y="162.406336"/>
     <use style="fill:#0038ff;stroke:#0038ff;" x="572.68058" xlink:href="#md96e419be4" y="153.136729"/>
     <use style="fill:#0038ff;stroke:#0038ff;" x="584.637723" xlink:href="#md96e419be4" y="145.896469"/>
     <use style="fill:#0038ff;stroke:#0038ff;" x="596.594866" xlink:href="#md96e419be4" y="164.413404"/>
     <use style="fill:#0038ff;stroke:#0038ff;" x="608.552009" xlink:href="#md96e419be4" y="214.173534"/>
     <use style="fill:#0038ff;stroke:#0038ff;" x="620.509152" xlink:href="#md96e419be4" y="185.735939"/>
     <use style="fill:#0038ff;stroke:#0038ff;" x="632.466295" xlink:href="#md96e419be4" y="133.607563"/>
     <use style="fill:#0038ff;stroke:#0038ff;" x="644.423438" xlink:href="#md96e419be4" y="140.987499"/>
     <use style="fill:#0038ff;stroke:#0038ff;" x="656.38058" xlink:href="#md96e419be4" y="116.254622"/>
     <use style="fill:#0038ff;stroke:#0038ff;" x="668.337723" xlink:href="#md96e419be4" y="133.24682"/>
     <use style="fill:#0038ff;stroke:#0038ff;" x="680.294866" xlink:href="#md96e419be4" y="145.93902"/>
     <use style="fill:#0038ff;stroke:#0038ff;" x="692.252009" xlink:href="#md96e419be4" y="133.831424"/>
     <use style="fill:#0038ff;stroke:#0038ff;" x="716.166295" xlink:href="#md96e419be4" y="107.871146"/>
     <use style="fill:#0038ff;stroke:#0038ff;" x="728.123438" xlink:href="#md96e419be4" y="107.884625"/>
    </g>
   </g>
   <g id="line2d_27">
    <path clip-path="url(#p4e7833d613)" d="M 596.594866 150.043785 
L 608.552009 185.324233 
L 620.509152 146.379187 
L 632.466295 140.202701 
L 644.423438 139.353078 
L 656.38058 134.329873 
L 668.337723 131.026069 
L 680.294866 140.14776 
L 692.252009 143.849596 
L 704.209152 154.314444 
L 716.166295 121.07215 
L 728.123438 114.61595 
" style="fill:none;stroke:#56ffa0;stroke-linecap:square;stroke-width:1.5;"/>
    <defs>
     <path d="M 0 3 
C 0.795609 3 1.55874 2.683901 2.12132 2.12132 
C 2.683901 1.55874 3 0.795609 3 0 
C 3 -0.795609 2.683901 -1.55874 2.12132 -2.12132 
C 1.55874 -2.683901 0.795609 -3 0 -3 
C -0.795609 -3 -1.55874 -2.683901 -2.12132 -2.12132 
C -2.683901 -1.55874 -3 -0.795609 -3 0 
C -3 0.795609 -2.683901 1.55874 -2.12132 2.12132 
C -1.55874 2.683901 -0.795609 3 0 3 
z
" id="m8f6fe0af48" style="stroke:#56ffa0;"/>
    </defs>
    <g clip-path="url(#p4e7833d613)">
     <use style="fill:#56ffa0;stroke:#56ffa0;" x="596.594866" xlink:href="#m8f6fe0af48" y="150.043785"/>
     <use style="fill:#56ffa0;stroke:#56ffa0;" x="608.552009" xlink:href="#m8f6fe0af48" y="185.324233"/>
     <use style="fill:#56ffa0;stroke:#56ffa0;" x="620.509152" xlink:href="#m8f6fe0af48" y="146.379187"/>
     <use style="fill:#56ffa0;stroke:#56ffa0;" x="632.466295" xlink:href="#m8f6fe0af48" y="140.202701"/>
     <use style="fill:#56ffa0;stroke:#56ffa0;" x="644.423438" xlink:href="#m8f6fe0af48" y="139.353078"/>
     <use style="fill:#56ffa0;stroke:#56ffa0;" x="656.38058" xlink:href="#m8f6fe0af48" y="134.329873"/>
     <use style="fill:#56ffa0;stroke:#56ffa0;" x="668.337723" xlink:href="#m8f6fe0af48" y="131.026069"/>
     <use style="fill:#56ffa0;stroke:#56ffa0;" x="680.294866" xlink:href="#m8f6fe0af48" y="140.14776"/>
     <use style="fill:#56ffa0;stroke:#56ffa0;" x="692.252009" xlink:href="#m8f6fe0af48" y="143.849596"/>
     <use style="fill:#56ffa0;stroke:#56ffa0;" x="704.209152" xlink:href="#m8f6fe0af48" y="154.314444"/>
     <use style="fill:#56ffa0;stroke:#56ffa0;" x="716.166295" xlink:href="#m8f6fe0af48" y="121.07215"/>
     <use style="fill:#56ffa0;stroke:#56ffa0;" x="728.123438" xlink:href="#m8f6fe0af48" y="114.61595"/>
    </g>
   </g>
   <g id="line2d_28">
    <path clip-path="url(#p4e7833d613)" d="M 213.966295 148.911711 
L 285.709152 107.757366 
L 297.666295 188.162698 
L 309.623438 114.868421 
L 333.537723 174.728294 
" style="fill:none;stroke:#a0ff56;stroke-linecap:square;stroke-width:1.5;"/>
    <defs>
     <path d="M 0 3 
C 0.795609 3 1.55874 2.683901 2.12132 2.12132 
C 2.683901 1.55874 3 0.795609 3 0 
C 3 -0.795609 2.683901 -1.55874 2.12132 -2.12132 
C 1.55874 -2.683901 0.795609 -3 0 -3 
C -0.795609 -3 -1.55874 -2.683901 -2.12132 -2.12132 
C -2.683901 -1.55874 -3 -0.795609 -3 0 
C -3 0.795609 -2.683901 1.55874 -2.12132 2.12132 
C -1.55874 2.683901 -0.795609 3 0 3 
z
" id="mf9aef7d1b3" style="stroke:#a0ff56;"/>
    </defs>
    <g clip-path="url(#p4e7833d613)">
     <use style="fill:#a0ff56;stroke:#a0ff56;" x="213.966295" xlink:href="#mf9aef7d1b3" y="148.911711"/>
     <use style="fill:#a0ff56;stroke:#a0ff56;" x="285.709152" xlink:href="#mf9aef7d1b3" y="107.757366"/>
     <use style="fill:#a0ff56;stroke:#a0ff56;" x="297.666295" xlink:href="#mf9aef7d1b3" y="188.162698"/>
     <use style="fill:#a0ff56;stroke:#a0ff56;" x="309.623438" xlink:href="#mf9aef7d1b3" y="114.868421"/>
     <use style="fill:#a0ff56;stroke:#a0ff56;" x="333.537723" xlink:href="#mf9aef7d1b3" y="174.728294"/>
    </g>
   </g>
   <g id="patch_3">
    <path d="M 58.523438 316.078125 
L 58.523438 22.318125 
" style="fill:none;stroke:#000000;stroke-linecap:square;stroke-linejoin:miter;stroke-width:0.8;"/>
   </g>
   <g id="patch_4">
    <path d="M 728.123438 316.078125 
L 728.123438 22.318125 
" style="fill:none;stroke:#000000;stroke-linecap:square;stroke-linejoin:miter;stroke-width:0.8;"/>
   </g>
   <g id="patch_5">
    <path d="M 58.523438 316.078125 
L 728.123438 316.078125 
" style="fill:none;stroke:#000000;stroke-linecap:square;stroke-linejoin:miter;stroke-width:0.8;"/>
   </g>
   <g id="patch_6">
    <path d="M 58.523438 22.318125 
L 728.123438 22.318125 
" style="fill:none;stroke:#000000;stroke-linecap:square;stroke-linejoin:miter;stroke-width:0.8;"/>
   </g>
   <g id="text_26">
    <!-- ensemble models -->
    <g transform="translate(340.283437 16.318125)scale(0.12 -0.12)">
     <use xlink:href="#DejaVuSans-101"/>
     <use x="61.523438" xlink:href="#DejaVuSans-110"/>
     <use x="124.902344" xlink:href="#DejaVuSans-115"/>
     <use x="177.001953" xlink:href="#DejaVuSans-101"/>
     <use x="238.525391" xlink:href="#DejaVuSans-109"/>
     <use x="335.9375" xlink:href="#DejaVuSans-98"/>
     <use x="399.414062" xlink:href="#DejaVuSans-108"/>
     <use x="427.197266" xlink:href="#DejaVuSans-101"/>
     <use x="488.720703" xlink:href="#DejaVuSans-32"/>
     <use x="520.507812" xlink:href="#DejaVuSans-109"/>
     <use x="617.919922" xlink:href="#DejaVuSans-111"/>
     <use x="679.101562" xlink:href="#DejaVuSans-100"/>
     <use x="742.578125" xlink:href="#DejaVuSans-101"/>
     <use x="804.101562" xlink:href="#DejaVuSans-108"/>
     <use x="831.884766" xlink:href="#DejaVuSans-115"/>
    </g>
   </g>
   <g id="legend_1">
    <g id="patch_7">
     <path d="M 756.907438 316.078125 
L 908.435563 316.078125 
Q 910.435563 316.078125 910.435563 314.078125 
L 910.435563 225.6875 
Q 910.435563 223.6875 908.435563 223.6875 
L 756.907438 223.6875 
Q 754.907438 223.6875 754.907438 225.6875 
L 754.907438 314.078125 
Q 754.907438 316.078125 756.907438 316.078125 
z
" style="fill:#ffffff;opacity:0.8;stroke:#cccccc;stroke-linejoin:miter;"/>
    </g>
    <g id="line2d_29">
     <path d="M 758.907438 231.785937 
L 778.907438 231.785937 
" style="fill:none;stroke:#000080;stroke-linecap:square;stroke-width:1.5;"/>
    </g>
    <g id="line2d_30">
     <g>
      <use style="fill:#000080;stroke:#000080;" x="768.907438" xlink:href="#m42a1943d5c" y="231.785937"/>
     </g>
    </g>
    <g id="text_27">
     <!-- UT:Mobility -->
     <defs>
      <path d="M 8.6875 72.90625 
L 18.609375 72.90625 
L 18.609375 28.609375 
Q 18.609375 16.890625 22.84375 11.734375 
Q 27.09375 6.59375 36.625 6.59375 
Q 46.09375 6.59375 50.34375 11.734375 
Q 54.59375 16.890625 54.59375 28.609375 
L 54.59375 72.90625 
L 64.5 72.90625 
L 64.5 27.390625 
Q 64.5 13.140625 57.4375 5.859375 
Q 50.390625 -1.421875 36.625 -1.421875 
Q 22.796875 -1.421875 15.734375 5.859375 
Q 8.6875 13.140625 8.6875 27.390625 
z
" id="DejaVuSans-85"/>
      <path d="M 11.71875 12.40625 
L 22.015625 12.40625 
L 22.015625 0 
L 11.71875 0 
z
M 11.71875 51.703125 
L 22.015625 51.703125 
L 22.015625 39.3125 
L 11.71875 39.3125 
z
" id="DejaVuSans-58"/>
     </defs>
     <g transform="translate(786.907438 235.285937)scale(0.1 -0.1)">
      <use xlink:href="#DejaVuSans-85"/>
      <use x="73.193359" xlink:href="#DejaVuSans-84"/>
      <use x="123.277344" xlink:href="#DejaVuSans-58"/>
      <use x="156.96875" xlink:href="#DejaVuSans-77"/>
      <use x="243.248047" xlink:href="#DejaVuSans-111"/>
      <use x="304.429688" xlink:href="#DejaVuSans-98"/>
      <use x="367.90625" xlink:href="#DejaVuSans-105"/>
      <use x="395.689453" xlink:href="#DejaVuSans-108"/>
      <use x="423.472656" xlink:href="#DejaVuSans-105"/>
      <use x="451.255859" xlink:href="#DejaVuSans-116"/>
      <use x="490.464844" xlink:href="#DejaVuSans-121"/>
     </g>
    </g>
    <g id="line2d_31">
     <path d="M 758.907438 250.464062 
L 778.907438 250.464062 
" style="fill:none;stroke:#0000e8;stroke-linecap:square;stroke-width:1.5;"/>
    </g>
    <g id="line2d_32">
     <g>
      <use style="fill:#0000e8;stroke:#0000e8;" x="768.907438" xlink:href="#m0b13767186" y="250.464062"/>
     </g>
    </g>
    <g id="text_28">
     <!-- COVIDhub:ensemble -->
     <defs>
      <path d="M 64.40625 67.28125 
L 64.40625 56.890625 
Q 59.421875 61.53125 53.78125 63.8125 
Q 48.140625 66.109375 41.796875 66.109375 
Q 29.296875 66.109375 22.65625 58.46875 
Q 16.015625 50.828125 16.015625 36.375 
Q 16.015625 21.96875 22.65625 14.328125 
Q 29.296875 6.6875 41.796875 6.6875 
Q 48.140625 6.6875 53.78125 8.984375 
Q 59.421875 11.28125 64.40625 15.921875 
L 64.40625 5.609375 
Q 59.234375 2.09375 53.4375 0.328125 
Q 47.65625 -1.421875 41.21875 -1.421875 
Q 24.65625 -1.421875 15.125 8.703125 
Q 5.609375 18.84375 5.609375 36.375 
Q 5.609375 53.953125 15.125 64.078125 
Q 24.65625 74.21875 41.21875 74.21875 
Q 47.75 74.21875 53.53125 72.484375 
Q 59.328125 70.75 64.40625 67.28125 
z
" id="DejaVuSans-67"/>
      <path d="M 28.609375 0 
L 0.78125 72.90625 
L 11.078125 72.90625 
L 34.1875 11.53125 
L 57.328125 72.90625 
L 67.578125 72.90625 
L 39.796875 0 
z
" id="DejaVuSans-86"/>
      <path d="M 9.8125 72.90625 
L 19.671875 72.90625 
L 19.671875 0 
L 9.8125 0 
z
" id="DejaVuSans-73"/>
     </defs>
     <g transform="translate(786.907438 253.964062)scale(0.1 -0.1)">
      <use xlink:href="#DejaVuSans-67"/>
      <use x="69.824219" xlink:href="#DejaVuSans-79"/>
      <use x="146.785156" xlink:href="#DejaVuSans-86"/>
      <use x="215.193359" xlink:href="#DejaVuSans-73"/>
      <use x="244.685547" xlink:href="#DejaVuSans-68"/>
      <use x="321.6875" xlink:href="#DejaVuSans-104"/>
      <use x="385.066406" xlink:href="#DejaVuSans-117"/>
      <use x="448.445312" xlink:href="#DejaVuSans-98"/>
      <use x="511.921875" xlink:href="#DejaVuSans-58"/>
      <use x="545.613281" xlink:href="#DejaVuSans-101"/>
      <use x="607.136719" xlink:href="#DejaVuSans-110"/>
      <use x="670.515625" xlink:href="#DejaVuSans-115"/>
      <use x="722.615234" xlink:href="#DejaVuSans-101"/>
      <use x="784.138672" xlink:href="#DejaVuSans-109"/>
      <use x="881.550781" xlink:href="#DejaVuSans-98"/>
      <use x="945.027344" xlink:href="#DejaVuSans-108"/>
      <use x="972.810547" xlink:href="#DejaVuSans-101"/>
     </g>
    </g>
    <g id="line2d_33">
     <path d="M 758.907438 269.142187 
L 778.907438 269.142187 
" style="fill:none;stroke:#0038ff;stroke-linecap:square;stroke-width:1.5;"/>
    </g>
    <g id="line2d_34">
     <g>
      <use style="fill:#0038ff;stroke:#0038ff;" x="768.907438" xlink:href="#md96e419be4" y="269.142187"/>
     </g>
    </g>
    <g id="text_29">
     <!-- epiforecasts:ensemble1 -->
     <g transform="translate(786.907438 272.642187)scale(0.1 -0.1)">
      <use xlink:href="#DejaVuSans-101"/>
      <use x="61.523438" xlink:href="#DejaVuSans-112"/>
      <use x="125" xlink:href="#DejaVuSans-105"/>
      <use x="152.783203" xlink:href="#DejaVuSans-102"/>
      <use x="187.988281" xlink:href="#DejaVuSans-111"/>
      <use x="249.169922" xlink:href="#DejaVuSans-114"/>
      <use x="288.033203" xlink:href="#DejaVuSans-101"/>
      <use x="349.556641" xlink:href="#DejaVuSans-99"/>
      <use x="404.537109" xlink:href="#DejaVuSans-97"/>
      <use x="465.816406" xlink:href="#DejaVuSans-115"/>
      <use x="517.916016" xlink:href="#DejaVuSans-116"/>
      <use x="557.125" xlink:href="#DejaVuSans-115"/>
      <use x="609.224609" xlink:href="#DejaVuSans-58"/>
      <use x="642.916016" xlink:href="#DejaVuSans-101"/>
      <use x="704.439453" xlink:href="#DejaVuSans-110"/>
      <use x="767.818359" xlink:href="#DejaVuSans-115"/>
      <use x="819.917969" xlink:href="#DejaVuSans-101"/>
      <use x="881.441406" xlink:href="#DejaVuSans-109"/>
      <use x="978.853516" xlink:href="#DejaVuSans-98"/>
      <use x="1042.330078" xlink:href="#DejaVuSans-108"/>
      <use x="1070.113281" xlink:href="#DejaVuSans-101"/>
      <use x="1131.636719" xlink:href="#DejaVuSans-49"/>
     </g>
    </g>
    <g id="line2d_35">
     <path d="M 758.907438 287.820312 
L 778.907438 287.820312 
" style="fill:none;stroke:#56ffa0;stroke-linecap:square;stroke-width:1.5;"/>
    </g>
    <g id="line2d_36">
     <g>
      <use style="fill:#56ffa0;stroke:#56ffa0;" x="768.907438" xlink:href="#m8f6fe0af48" y="287.820312"/>
     </g>
    </g>
    <g id="text_30">
     <!-- LNQ:ens1 -->
     <defs>
      <path d="M 9.8125 72.90625 
L 19.671875 72.90625 
L 19.671875 8.296875 
L 55.171875 8.296875 
L 55.171875 0 
L 9.8125 0 
z
" id="DejaVuSans-76"/>
      <path d="M 39.40625 66.21875 
Q 28.65625 66.21875 22.328125 58.203125 
Q 16.015625 50.203125 16.015625 36.375 
Q 16.015625 22.609375 22.328125 14.59375 
Q 28.65625 6.59375 39.40625 6.59375 
Q 50.140625 6.59375 56.421875 14.59375 
Q 62.703125 22.609375 62.703125 36.375 
Q 62.703125 50.203125 56.421875 58.203125 
Q 50.140625 66.21875 39.40625 66.21875 
z
M 53.21875 1.3125 
L 66.21875 -12.890625 
L 54.296875 -12.890625 
L 43.5 -1.21875 
Q 41.890625 -1.3125 41.03125 -1.359375 
Q 40.1875 -1.421875 39.40625 -1.421875 
Q 24.03125 -1.421875 14.8125 8.859375 
Q 5.609375 19.140625 5.609375 36.375 
Q 5.609375 53.65625 14.8125 63.9375 
Q 24.03125 74.21875 39.40625 74.21875 
Q 54.734375 74.21875 63.90625 63.9375 
Q 73.09375 53.65625 73.09375 36.375 
Q 73.09375 23.6875 67.984375 14.640625 
Q 62.890625 5.609375 53.21875 1.3125 
z
" id="DejaVuSans-81"/>
     </defs>
     <g transform="translate(786.907438 291.320312)scale(0.1 -0.1)">
      <use xlink:href="#DejaVuSans-76"/>
      <use x="55.712891" xlink:href="#DejaVuSans-78"/>
      <use x="130.517578" xlink:href="#DejaVuSans-81"/>
      <use x="209.228516" xlink:href="#DejaVuSans-58"/>
      <use x="242.919922" xlink:href="#DejaVuSans-101"/>
      <use x="304.443359" xlink:href="#DejaVuSans-110"/>
      <use x="367.822266" xlink:href="#DejaVuSans-115"/>
      <use x="419.921875" xlink:href="#DejaVuSans-49"/>
     </g>
    </g>
    <g id="line2d_37">
     <path d="M 758.907438 306.498437 
L 778.907438 306.498437 
" style="fill:none;stroke:#a0ff56;stroke-linecap:square;stroke-width:1.5;"/>
    </g>
    <g id="line2d_38">
     <g>
      <use style="fill:#a0ff56;stroke:#a0ff56;" x="768.907438" xlink:href="#mf9aef7d1b3" y="306.498437"/>
     </g>
    </g>
    <g id="text_31">
     <!-- NotreDame:mobility -->
     <g transform="translate(786.907438 309.998437)scale(0.1 -0.1)">
      <use xlink:href="#DejaVuSans-78"/>
      <use x="74.804688" xlink:href="#DejaVuSans-111"/>
      <use x="135.986328" xlink:href="#DejaVuSans-116"/>
      <use x="175.195312" xlink:href="#DejaVuSans-114"/>
      <use x="214.058594" xlink:href="#DejaVuSans-101"/>
      <use x="275.582031" xlink:href="#DejaVuSans-68"/>
      <use x="352.583984" xlink:href="#DejaVuSans-97"/>
      <use x="413.863281" xlink:href="#DejaVuSans-109"/>
      <use x="511.275391" xlink:href="#DejaVuSans-101"/>
      <use x="572.798828" xlink:href="#DejaVuSans-58"/>
      <use x="606.490234" xlink:href="#DejaVuSans-109"/>
      <use x="703.902344" xlink:href="#DejaVuSans-111"/>
      <use x="765.083984" xlink:href="#DejaVuSans-98"/>
      <use x="828.560547" xlink:href="#DejaVuSans-105"/>
      <use x="856.34375" xlink:href="#DejaVuSans-108"/>
      <use x="884.126953" xlink:href="#DejaVuSans-105"/>
      <use x="911.910156" xlink:href="#DejaVuSans-116"/>
      <use x="951.119141" xlink:href="#DejaVuSans-121"/>
     </g>
    </g>
   </g>
  </g>
 </g>
 <defs>
  <clipPath id="p4e7833d613">
   <rect height="293.76" width="669.6" x="58.523438" y="22.318125"/>
  </clipPath>
 </defs>
</svg>
