<?xml version="1.0" encoding="utf-8" standalone="no"?>
<!DOCTYPE svg PUBLIC "-//W3C//DTD SVG 1.1//EN"
  "http://www.w3.org/Graphics/SVG/1.1/DTD/svg11.dtd">
<!-- Created with matplotlib (https://matplotlib.org/) -->
<svg height="287.185628pt" version="1.1" viewBox="0 0 287.877245 287.185628" width="287.877245pt" xmlns="http://www.w3.org/2000/svg" xmlns:xlink="http://www.w3.org/1999/xlink">
 <defs>
  <style type="text/css">
*{stroke-linecap:butt;stroke-linejoin:round;}
  </style>
 </defs>
 <g id="figure_1">
  <g id="patch_1">
   <path d="M 0 287.185628 
L 287.877245 287.185628 
L 287.877245 0 
L 0 0 
z
" style="fill:#ffffff;"/>
  </g>
  <g id="axes_1">
   <g id="patch_2">
    <path d="M 48.982813 222.919125 
L 262.483056 222.919125 
L 262.483056 22.318125 
L 48.982813 22.318125 
z
" style="fill:#ffffff;"/>
   </g>
   <g id="matplotlib.axis_1">
    <g id="xtick_1">
     <g id="line2d_1">
      <defs>
       <path d="M 0 0 
L 0 3.5 
" id="mbaf78469bc" style="stroke:#000000;stroke-width:0.8;"/>
      </defs>
      <g>
       <use style="stroke:#000000;stroke-width:0.8;" x="48.982812" xlink:href="#mbaf78469bc" y="222.919125"/>
      </g>
     </g>
     <g id="text_1">
      <!-- 2020-04 -->
      <defs>
       <path d="M 19.1875 8.296875 
L 53.609375 8.296875 
L 53.609375 0 
L 7.328125 0 
L 7.328125 8.296875 
Q 12.9375 14.109375 22.625 23.890625 
Q 32.328125 33.6875 34.8125 36.53125 
Q 39.546875 41.84375 41.421875 45.53125 
Q 43.3125 49.21875 43.3125 52.78125 
Q 43.3125 58.59375 39.234375 62.25 
Q 35.15625 65.921875 28.609375 65.921875 
Q 23.96875 65.921875 18.8125 64.3125 
Q 13.671875 62.703125 7.8125 59.421875 
L 7.8125 69.390625 
Q 13.765625 71.78125 18.9375 73 
Q 24.125 74.21875 28.421875 74.21875 
Q 39.75 74.21875 46.484375 68.546875 
Q 53.21875 62.890625 53.21875 53.421875 
Q 53.21875 48.921875 51.53125 44.890625 
Q 49.859375 40.875 45.40625 35.40625 
Q 44.1875 33.984375 37.640625 27.21875 
Q 31.109375 20.453125 19.1875 8.296875 
z
" id="DejaVuSans-50"/>
       <path d="M 31.78125 66.40625 
Q 24.171875 66.40625 20.328125 58.90625 
Q 16.5 51.421875 16.5 36.375 
Q 16.5 21.390625 20.328125 13.890625 
Q 24.171875 6.390625 31.78125 6.390625 
Q 39.453125 6.390625 43.28125 13.890625 
Q 47.125 21.390625 47.125 36.375 
Q 47.125 51.421875 43.28125 58.90625 
Q 39.453125 66.40625 31.78125 66.40625 
z
M 31.78125 74.21875 
Q 44.046875 74.21875 50.515625 64.515625 
Q 56.984375 54.828125 56.984375 36.375 
Q 56.984375 17.96875 50.515625 8.265625 
Q 44.046875 -1.421875 31.78125 -1.421875 
Q 19.53125 -1.421875 13.0625 8.265625 
Q 6.59375 17.96875 6.59375 36.375 
Q 6.59375 54.828125 13.0625 64.515625 
Q 19.53125 74.21875 31.78125 74.21875 
z
" id="DejaVuSans-48"/>
       <path d="M 4.890625 31.390625 
L 31.203125 31.390625 
L 31.203125 23.390625 
L 4.890625 23.390625 
z
" id="DejaVuSans-45"/>
       <path d="M 37.796875 64.3125 
L 12.890625 25.390625 
L 37.796875 25.390625 
z
M 35.203125 72.90625 
L 47.609375 72.90625 
L 47.609375 25.390625 
L 58.015625 25.390625 
L 58.015625 17.1875 
L 47.609375 17.1875 
L 47.609375 0 
L 37.796875 0 
L 37.796875 17.1875 
L 4.890625 17.1875 
L 4.890625 26.703125 
z
" id="DejaVuSans-52"/>
      </defs>
      <g transform="translate(36.16153 264.836942)rotate(-45)scale(0.1 -0.1)">
       <use xlink:href="#DejaVuSans-50"/>
       <use x="63.623047" xlink:href="#DejaVuSans-48"/>
       <use x="127.246094" xlink:href="#DejaVuSans-50"/>
       <use x="190.869141" xlink:href="#DejaVuSans-48"/>
       <use x="254.492188" xlink:href="#DejaVuSans-45"/>
       <use x="290.576172" xlink:href="#DejaVuSans-48"/>
       <use x="354.199219" xlink:href="#DejaVuSans-52"/>
      </g>
     </g>
    </g>
    <g id="xtick_2">
     <g id="line2d_2">
      <g>
       <use style="stroke:#000000;stroke-width:0.8;" x="61.182826" xlink:href="#mbaf78469bc" y="222.919125"/>
      </g>
     </g>
     <g id="text_2">
      <!-- 2020-05 -->
      <defs>
       <path d="M 10.796875 72.90625 
L 49.515625 72.90625 
L 49.515625 64.59375 
L 19.828125 64.59375 
L 19.828125 46.734375 
Q 21.96875 47.46875 24.109375 47.828125 
Q 26.265625 48.1875 28.421875 48.1875 
Q 40.625 48.1875 47.75 41.5 
Q 54.890625 34.8125 54.890625 23.390625 
Q 54.890625 11.625 47.5625 5.09375 
Q 40.234375 -1.421875 26.90625 -1.421875 
Q 22.3125 -1.421875 17.546875 -0.640625 
Q 12.796875 0.140625 7.71875 1.703125 
L 7.71875 11.625 
Q 12.109375 9.234375 16.796875 8.0625 
Q 21.484375 6.890625 26.703125 6.890625 
Q 35.15625 6.890625 40.078125 11.328125 
Q 45.015625 15.765625 45.015625 23.390625 
Q 45.015625 31 40.078125 35.4375 
Q 35.15625 39.890625 26.703125 39.890625 
Q 22.75 39.890625 18.8125 39.015625 
Q 14.890625 38.140625 10.796875 36.28125 
z
" id="DejaVuSans-53"/>
      </defs>
      <g transform="translate(48.361544 264.836942)rotate(-45)scale(0.1 -0.1)">
       <use xlink:href="#DejaVuSans-50"/>
       <use x="63.623047" xlink:href="#DejaVuSans-48"/>
       <use x="127.246094" xlink:href="#DejaVuSans-50"/>
       <use x="190.869141" xlink:href="#DejaVuSans-48"/>
       <use x="254.492188" xlink:href="#DejaVuSans-45"/>
       <use x="290.576172" xlink:href="#DejaVuSans-48"/>
       <use x="354.199219" xlink:href="#DejaVuSans-53"/>
      </g>
     </g>
    </g>
    <g id="xtick_3">
     <g id="line2d_3">
      <g>
       <use style="stroke:#000000;stroke-width:0.8;" x="76.432844" xlink:href="#mbaf78469bc" y="222.919125"/>
      </g>
     </g>
     <g id="text_3">
      <!-- 2020-06 -->
      <defs>
       <path d="M 33.015625 40.375 
Q 26.375 40.375 22.484375 35.828125 
Q 18.609375 31.296875 18.609375 23.390625 
Q 18.609375 15.53125 22.484375 10.953125 
Q 26.375 6.390625 33.015625 6.390625 
Q 39.65625 6.390625 43.53125 10.953125 
Q 47.40625 15.53125 47.40625 23.390625 
Q 47.40625 31.296875 43.53125 35.828125 
Q 39.65625 40.375 33.015625 40.375 
z
M 52.59375 71.296875 
L 52.59375 62.3125 
Q 48.875 64.0625 45.09375 64.984375 
Q 41.3125 65.921875 37.59375 65.921875 
Q 27.828125 65.921875 22.671875 59.328125 
Q 17.53125 52.734375 16.796875 39.40625 
Q 19.671875 43.65625 24.015625 45.921875 
Q 28.375 48.1875 33.59375 48.1875 
Q 44.578125 48.1875 50.953125 41.515625 
Q 57.328125 34.859375 57.328125 23.390625 
Q 57.328125 12.15625 50.6875 5.359375 
Q 44.046875 -1.421875 33.015625 -1.421875 
Q 20.359375 -1.421875 13.671875 8.265625 
Q 6.984375 17.96875 6.984375 36.375 
Q 6.984375 53.65625 15.1875 63.9375 
Q 23.390625 74.21875 37.203125 74.21875 
Q 40.921875 74.21875 44.703125 73.484375 
Q 48.484375 72.75 52.59375 71.296875 
z
" id="DejaVuSans-54"/>
      </defs>
      <g transform="translate(63.611562 264.836942)rotate(-45)scale(0.1 -0.1)">
       <use xlink:href="#DejaVuSans-50"/>
       <use x="63.623047" xlink:href="#DejaVuSans-48"/>
       <use x="127.246094" xlink:href="#DejaVuSans-50"/>
       <use x="190.869141" xlink:href="#DejaVuSans-48"/>
       <use x="254.492188" xlink:href="#DejaVuSans-45"/>
       <use x="290.576172" xlink:href="#DejaVuSans-48"/>
       <use x="354.199219" xlink:href="#DejaVuSans-54"/>
      </g>
     </g>
    </g>
    <g id="xtick_4">
     <g id="line2d_4">
      <g>
       <use style="stroke:#000000;stroke-width:0.8;" x="88.632858" xlink:href="#mbaf78469bc" y="222.919125"/>
      </g>
     </g>
     <g id="text_4">
      <!-- 2020-07 -->
      <defs>
       <path d="M 8.203125 72.90625 
L 55.078125 72.90625 
L 55.078125 68.703125 
L 28.609375 0 
L 18.3125 0 
L 43.21875 64.59375 
L 8.203125 64.59375 
z
" id="DejaVuSans-55"/>
      </defs>
      <g transform="translate(75.811575 264.836942)rotate(-45)scale(0.1 -0.1)">
       <use xlink:href="#DejaVuSans-50"/>
       <use x="63.623047" xlink:href="#DejaVuSans-48"/>
       <use x="127.246094" xlink:href="#DejaVuSans-50"/>
       <use x="190.869141" xlink:href="#DejaVuSans-48"/>
       <use x="254.492188" xlink:href="#DejaVuSans-45"/>
       <use x="290.576172" xlink:href="#DejaVuSans-48"/>
       <use x="354.199219" xlink:href="#DejaVuSans-55"/>
      </g>
     </g>
    </g>
    <g id="xtick_5">
     <g id="line2d_5">
      <g>
       <use style="stroke:#000000;stroke-width:0.8;" x="100.832872" xlink:href="#mbaf78469bc" y="222.919125"/>
      </g>
     </g>
     <g id="text_5">
      <!-- 2020-08 -->
      <defs>
       <path d="M 31.78125 34.625 
Q 24.75 34.625 20.71875 30.859375 
Q 16.703125 27.09375 16.703125 20.515625 
Q 16.703125 13.921875 20.71875 10.15625 
Q 24.75 6.390625 31.78125 6.390625 
Q 38.8125 6.390625 42.859375 10.171875 
Q 46.921875 13.96875 46.921875 20.515625 
Q 46.921875 27.09375 42.890625 30.859375 
Q 38.875 34.625 31.78125 34.625 
z
M 21.921875 38.8125 
Q 15.578125 40.375 12.03125 44.71875 
Q 8.5 49.078125 8.5 55.328125 
Q 8.5 64.0625 14.71875 69.140625 
Q 20.953125 74.21875 31.78125 74.21875 
Q 42.671875 74.21875 48.875 69.140625 
Q 55.078125 64.0625 55.078125 55.328125 
Q 55.078125 49.078125 51.53125 44.71875 
Q 48 40.375 41.703125 38.8125 
Q 48.828125 37.15625 52.796875 32.3125 
Q 56.78125 27.484375 56.78125 20.515625 
Q 56.78125 9.90625 50.3125 4.234375 
Q 43.84375 -1.421875 31.78125 -1.421875 
Q 19.734375 -1.421875 13.25 4.234375 
Q 6.78125 9.90625 6.78125 20.515625 
Q 6.78125 27.484375 10.78125 32.3125 
Q 14.796875 37.15625 21.921875 38.8125 
z
M 18.3125 54.390625 
Q 18.3125 48.734375 21.84375 45.5625 
Q 25.390625 42.390625 31.78125 42.390625 
Q 38.140625 42.390625 41.71875 45.5625 
Q 45.3125 48.734375 45.3125 54.390625 
Q 45.3125 60.0625 41.71875 63.234375 
Q 38.140625 66.40625 31.78125 66.40625 
Q 25.390625 66.40625 21.84375 63.234375 
Q 18.3125 60.0625 18.3125 54.390625 
z
" id="DejaVuSans-56"/>
      </defs>
      <g transform="translate(88.011589 264.836942)rotate(-45)scale(0.1 -0.1)">
       <use xlink:href="#DejaVuSans-50"/>
       <use x="63.623047" xlink:href="#DejaVuSans-48"/>
       <use x="127.246094" xlink:href="#DejaVuSans-50"/>
       <use x="190.869141" xlink:href="#DejaVuSans-48"/>
       <use x="254.492188" xlink:href="#DejaVuSans-45"/>
       <use x="290.576172" xlink:href="#DejaVuSans-48"/>
       <use x="354.199219" xlink:href="#DejaVuSans-56"/>
      </g>
     </g>
    </g>
    <g id="xtick_6">
     <g id="line2d_6">
      <g>
       <use style="stroke:#000000;stroke-width:0.8;" x="116.082889" xlink:href="#mbaf78469bc" y="222.919125"/>
      </g>
     </g>
     <g id="text_6">
      <!-- 2020-09 -->
      <defs>
       <path d="M 10.984375 1.515625 
L 10.984375 10.5 
Q 14.703125 8.734375 18.5 7.8125 
Q 22.3125 6.890625 25.984375 6.890625 
Q 35.75 6.890625 40.890625 13.453125 
Q 46.046875 20.015625 46.78125 33.40625 
Q 43.953125 29.203125 39.59375 26.953125 
Q 35.25 24.703125 29.984375 24.703125 
Q 19.046875 24.703125 12.671875 31.3125 
Q 6.296875 37.9375 6.296875 49.421875 
Q 6.296875 60.640625 12.9375 67.421875 
Q 19.578125 74.21875 30.609375 74.21875 
Q 43.265625 74.21875 49.921875 64.515625 
Q 56.59375 54.828125 56.59375 36.375 
Q 56.59375 19.140625 48.40625 8.859375 
Q 40.234375 -1.421875 26.421875 -1.421875 
Q 22.703125 -1.421875 18.890625 -0.6875 
Q 15.09375 0.046875 10.984375 1.515625 
z
M 30.609375 32.421875 
Q 37.25 32.421875 41.125 36.953125 
Q 45.015625 41.5 45.015625 49.421875 
Q 45.015625 57.28125 41.125 61.84375 
Q 37.25 66.40625 30.609375 66.40625 
Q 23.96875 66.40625 20.09375 61.84375 
Q 16.21875 57.28125 16.21875 49.421875 
Q 16.21875 41.5 20.09375 36.953125 
Q 23.96875 32.421875 30.609375 32.421875 
z
" id="DejaVuSans-57"/>
      </defs>
      <g transform="translate(103.261607 264.836942)rotate(-45)scale(0.1 -0.1)">
       <use xlink:href="#DejaVuSans-50"/>
       <use x="63.623047" xlink:href="#DejaVuSans-48"/>
       <use x="127.246094" xlink:href="#DejaVuSans-50"/>
       <use x="190.869141" xlink:href="#DejaVuSans-48"/>
       <use x="254.492188" xlink:href="#DejaVuSans-45"/>
       <use x="290.576172" xlink:href="#DejaVuSans-48"/>
       <use x="354.199219" xlink:href="#DejaVuSans-57"/>
      </g>
     </g>
    </g>
    <g id="xtick_7">
     <g id="line2d_7">
      <g>
       <use style="stroke:#000000;stroke-width:0.8;" x="128.282903" xlink:href="#mbaf78469bc" y="222.919125"/>
      </g>
     </g>
     <g id="text_7">
      <!-- 2020-10 -->
      <defs>
       <path d="M 12.40625 8.296875 
L 28.515625 8.296875 
L 28.515625 63.921875 
L 10.984375 60.40625 
L 10.984375 69.390625 
L 28.421875 72.90625 
L 38.28125 72.90625 
L 38.28125 8.296875 
L 54.390625 8.296875 
L 54.390625 0 
L 12.40625 0 
z
" id="DejaVuSans-49"/>
      </defs>
      <g transform="translate(115.461621 264.836942)rotate(-45)scale(0.1 -0.1)">
       <use xlink:href="#DejaVuSans-50"/>
       <use x="63.623047" xlink:href="#DejaVuSans-48"/>
       <use x="127.246094" xlink:href="#DejaVuSans-50"/>
       <use x="190.869141" xlink:href="#DejaVuSans-48"/>
       <use x="254.492188" xlink:href="#DejaVuSans-45"/>
       <use x="290.576172" xlink:href="#DejaVuSans-49"/>
       <use x="354.199219" xlink:href="#DejaVuSans-48"/>
      </g>
     </g>
    </g>
    <g id="xtick_8">
     <g id="line2d_8">
      <g>
       <use style="stroke:#000000;stroke-width:0.8;" x="143.53292" xlink:href="#mbaf78469bc" y="222.919125"/>
      </g>
     </g>
     <g id="text_8">
      <!-- 2020-11 -->
      <g transform="translate(130.711638 264.836942)rotate(-45)scale(0.1 -0.1)">
       <use xlink:href="#DejaVuSans-50"/>
       <use x="63.623047" xlink:href="#DejaVuSans-48"/>
       <use x="127.246094" xlink:href="#DejaVuSans-50"/>
       <use x="190.869141" xlink:href="#DejaVuSans-48"/>
       <use x="254.492188" xlink:href="#DejaVuSans-45"/>
       <use x="290.576172" xlink:href="#DejaVuSans-49"/>
       <use x="354.199219" xlink:href="#DejaVuSans-49"/>
      </g>
     </g>
    </g>
    <g id="xtick_9">
     <g id="line2d_9">
      <g>
       <use style="stroke:#000000;stroke-width:0.8;" x="155.732934" xlink:href="#mbaf78469bc" y="222.919125"/>
      </g>
     </g>
     <g id="text_9">
      <!-- 2020-12 -->
      <g transform="translate(142.911652 264.836942)rotate(-45)scale(0.1 -0.1)">
       <use xlink:href="#DejaVuSans-50"/>
       <use x="63.623047" xlink:href="#DejaVuSans-48"/>
       <use x="127.246094" xlink:href="#DejaVuSans-50"/>
       <use x="190.869141" xlink:href="#DejaVuSans-48"/>
       <use x="254.492188" xlink:href="#DejaVuSans-45"/>
       <use x="290.576172" xlink:href="#DejaVuSans-49"/>
       <use x="354.199219" xlink:href="#DejaVuSans-50"/>
      </g>
     </g>
    </g>
    <g id="xtick_10">
     <g id="line2d_10">
      <g>
       <use style="stroke:#000000;stroke-width:0.8;" x="167.932948" xlink:href="#mbaf78469bc" y="222.919125"/>
      </g>
     </g>
     <g id="text_10">
      <!-- 2021-01 -->
      <g transform="translate(155.111666 264.836942)rotate(-45)scale(0.1 -0.1)">
       <use xlink:href="#DejaVuSans-50"/>
       <use x="63.623047" xlink:href="#DejaVuSans-48"/>
       <use x="127.246094" xlink:href="#DejaVuSans-50"/>
       <use x="190.869141" xlink:href="#DejaVuSans-49"/>
       <use x="254.492188" xlink:href="#DejaVuSans-45"/>
       <use x="290.576172" xlink:href="#DejaVuSans-48"/>
       <use x="354.199219" xlink:href="#DejaVuSans-49"/>
      </g>
     </g>
    </g>
    <g id="xtick_11">
     <g id="line2d_11">
      <g>
       <use style="stroke:#000000;stroke-width:0.8;" x="183.182966" xlink:href="#mbaf78469bc" y="222.919125"/>
      </g>
     </g>
     <g id="text_11">
      <!-- 2021-02 -->
      <g transform="translate(170.361683 264.836942)rotate(-45)scale(0.1 -0.1)">
       <use xlink:href="#DejaVuSans-50"/>
       <use x="63.623047" xlink:href="#DejaVuSans-48"/>
       <use x="127.246094" xlink:href="#DejaVuSans-50"/>
       <use x="190.869141" xlink:href="#DejaVuSans-49"/>
       <use x="254.492188" xlink:href="#DejaVuSans-45"/>
       <use x="290.576172" xlink:href="#DejaVuSans-48"/>
       <use x="354.199219" xlink:href="#DejaVuSans-50"/>
      </g>
     </g>
    </g>
    <g id="xtick_12">
     <g id="line2d_12">
      <g>
       <use style="stroke:#000000;stroke-width:0.8;" x="195.38298" xlink:href="#mbaf78469bc" y="222.919125"/>
      </g>
     </g>
     <g id="text_12">
      <!-- 2021-03 -->
      <defs>
       <path d="M 40.578125 39.3125 
Q 47.65625 37.796875 51.625 33 
Q 55.609375 28.21875 55.609375 21.1875 
Q 55.609375 10.40625 48.1875 4.484375 
Q 40.765625 -1.421875 27.09375 -1.421875 
Q 22.515625 -1.421875 17.65625 -0.515625 
Q 12.796875 0.390625 7.625 2.203125 
L 7.625 11.71875 
Q 11.71875 9.328125 16.59375 8.109375 
Q 21.484375 6.890625 26.8125 6.890625 
Q 36.078125 6.890625 40.9375 10.546875 
Q 45.796875 14.203125 45.796875 21.1875 
Q 45.796875 27.640625 41.28125 31.265625 
Q 36.765625 34.90625 28.71875 34.90625 
L 20.21875 34.90625 
L 20.21875 43.015625 
L 29.109375 43.015625 
Q 36.375 43.015625 40.234375 45.921875 
Q 44.09375 48.828125 44.09375 54.296875 
Q 44.09375 59.90625 40.109375 62.90625 
Q 36.140625 65.921875 28.71875 65.921875 
Q 24.65625 65.921875 20.015625 65.03125 
Q 15.375 64.15625 9.8125 62.3125 
L 9.8125 71.09375 
Q 15.4375 72.65625 20.34375 73.4375 
Q 25.25 74.21875 29.59375 74.21875 
Q 40.828125 74.21875 47.359375 69.109375 
Q 53.90625 64.015625 53.90625 55.328125 
Q 53.90625 49.265625 50.4375 45.09375 
Q 46.96875 40.921875 40.578125 39.3125 
z
" id="DejaVuSans-51"/>
      </defs>
      <g transform="translate(182.561697 264.836942)rotate(-45)scale(0.1 -0.1)">
       <use xlink:href="#DejaVuSans-50"/>
       <use x="63.623047" xlink:href="#DejaVuSans-48"/>
       <use x="127.246094" xlink:href="#DejaVuSans-50"/>
       <use x="190.869141" xlink:href="#DejaVuSans-49"/>
       <use x="254.492188" xlink:href="#DejaVuSans-45"/>
       <use x="290.576172" xlink:href="#DejaVuSans-48"/>
       <use x="354.199219" xlink:href="#DejaVuSans-51"/>
      </g>
     </g>
    </g>
    <g id="xtick_13">
     <g id="line2d_13">
      <g>
       <use style="stroke:#000000;stroke-width:0.8;" x="207.582993" xlink:href="#mbaf78469bc" y="222.919125"/>
      </g>
     </g>
     <g id="text_13">
      <!-- 2021-04 -->
      <g transform="translate(194.761711 264.836942)rotate(-45)scale(0.1 -0.1)">
       <use xlink:href="#DejaVuSans-50"/>
       <use x="63.623047" xlink:href="#DejaVuSans-48"/>
       <use x="127.246094" xlink:href="#DejaVuSans-50"/>
       <use x="190.869141" xlink:href="#DejaVuSans-49"/>
       <use x="254.492188" xlink:href="#DejaVuSans-45"/>
       <use x="290.576172" xlink:href="#DejaVuSans-48"/>
       <use x="354.199219" xlink:href="#DejaVuSans-52"/>
      </g>
     </g>
    </g>
    <g id="xtick_14">
     <g id="line2d_14">
      <g>
       <use style="stroke:#000000;stroke-width:0.8;" x="219.783007" xlink:href="#mbaf78469bc" y="222.919125"/>
      </g>
     </g>
     <g id="text_14">
      <!-- 2021-05 -->
      <g transform="translate(206.961725 264.836942)rotate(-45)scale(0.1 -0.1)">
       <use xlink:href="#DejaVuSans-50"/>
       <use x="63.623047" xlink:href="#DejaVuSans-48"/>
       <use x="127.246094" xlink:href="#DejaVuSans-50"/>
       <use x="190.869141" xlink:href="#DejaVuSans-49"/>
       <use x="254.492188" xlink:href="#DejaVuSans-45"/>
       <use x="290.576172" xlink:href="#DejaVuSans-48"/>
       <use x="354.199219" xlink:href="#DejaVuSans-53"/>
      </g>
     </g>
    </g>
    <g id="xtick_15">
     <g id="line2d_15">
      <g>
       <use style="stroke:#000000;stroke-width:0.8;" x="235.033025" xlink:href="#mbaf78469bc" y="222.919125"/>
      </g>
     </g>
     <g id="text_15">
      <!-- 2021-06 -->
      <g transform="translate(222.211743 264.836942)rotate(-45)scale(0.1 -0.1)">
       <use xlink:href="#DejaVuSans-50"/>
       <use x="63.623047" xlink:href="#DejaVuSans-48"/>
       <use x="127.246094" xlink:href="#DejaVuSans-50"/>
       <use x="190.869141" xlink:href="#DejaVuSans-49"/>
       <use x="254.492188" xlink:href="#DejaVuSans-45"/>
       <use x="290.576172" xlink:href="#DejaVuSans-48"/>
       <use x="354.199219" xlink:href="#DejaVuSans-54"/>
      </g>
     </g>
    </g>
    <g id="xtick_16">
     <g id="line2d_16">
      <g>
       <use style="stroke:#000000;stroke-width:0.8;" x="247.233039" xlink:href="#mbaf78469bc" y="222.919125"/>
      </g>
     </g>
     <g id="text_16">
      <!-- 2021-07 -->
      <g transform="translate(234.411756 264.836942)rotate(-45)scale(0.1 -0.1)">
       <use xlink:href="#DejaVuSans-50"/>
       <use x="63.623047" xlink:href="#DejaVuSans-48"/>
       <use x="127.246094" xlink:href="#DejaVuSans-50"/>
       <use x="190.869141" xlink:href="#DejaVuSans-49"/>
       <use x="254.492188" xlink:href="#DejaVuSans-45"/>
       <use x="290.576172" xlink:href="#DejaVuSans-48"/>
       <use x="354.199219" xlink:href="#DejaVuSans-55"/>
      </g>
     </g>
    </g>
    <g id="xtick_17">
     <g id="line2d_17">
      <g>
       <use style="stroke:#000000;stroke-width:0.8;" x="262.483056" xlink:href="#mbaf78469bc" y="222.919125"/>
      </g>
     </g>
     <g id="text_17">
      <!-- 2021-08 -->
      <g transform="translate(249.661774 264.836942)rotate(-45)scale(0.1 -0.1)">
       <use xlink:href="#DejaVuSans-50"/>
       <use x="63.623047" xlink:href="#DejaVuSans-48"/>
       <use x="127.246094" xlink:href="#DejaVuSans-50"/>
       <use x="190.869141" xlink:href="#DejaVuSans-49"/>
       <use x="254.492188" xlink:href="#DejaVuSans-45"/>
       <use x="290.576172" xlink:href="#DejaVuSans-48"/>
       <use x="354.199219" xlink:href="#DejaVuSans-56"/>
      </g>
     </g>
    </g>
    <g id="text_18">
     <!-- Target End Date -->
     <defs>
      <path d="M -0.296875 72.90625 
L 61.375 72.90625 
L 61.375 64.59375 
L 35.5 64.59375 
L 35.5 0 
L 25.59375 0 
L 25.59375 64.59375 
L -0.296875 64.59375 
z
" id="DejaVuSans-84"/>
      <path d="M 34.28125 27.484375 
Q 23.390625 27.484375 19.1875 25 
Q 14.984375 22.515625 14.984375 16.5 
Q 14.984375 11.71875 18.140625 8.90625 
Q 21.296875 6.109375 26.703125 6.109375 
Q 34.1875 6.109375 38.703125 11.40625 
Q 43.21875 16.703125 43.21875 25.484375 
L 43.21875 27.484375 
z
M 52.203125 31.203125 
L 52.203125 0 
L 43.21875 0 
L 43.21875 8.296875 
Q 40.140625 3.328125 35.546875 0.953125 
Q 30.953125 -1.421875 24.3125 -1.421875 
Q 15.921875 -1.421875 10.953125 3.296875 
Q 6 8.015625 6 15.921875 
Q 6 25.140625 12.171875 29.828125 
Q 18.359375 34.515625 30.609375 34.515625 
L 43.21875 34.515625 
L 43.21875 35.40625 
Q 43.21875 41.609375 39.140625 45 
Q 35.0625 48.390625 27.6875 48.390625 
Q 23 48.390625 18.546875 47.265625 
Q 14.109375 46.140625 10.015625 43.890625 
L 10.015625 52.203125 
Q 14.9375 54.109375 19.578125 55.046875 
Q 24.21875 56 28.609375 56 
Q 40.484375 56 46.34375 49.84375 
Q 52.203125 43.703125 52.203125 31.203125 
z
" id="DejaVuSans-97"/>
      <path d="M 41.109375 46.296875 
Q 39.59375 47.171875 37.8125 47.578125 
Q 36.03125 48 33.890625 48 
Q 26.265625 48 22.1875 43.046875 
Q 18.109375 38.09375 18.109375 28.8125 
L 18.109375 0 
L 9.078125 0 
L 9.078125 54.6875 
L 18.109375 54.6875 
L 18.109375 46.1875 
Q 20.953125 51.171875 25.484375 53.578125 
Q 30.03125 56 36.53125 56 
Q 37.453125 56 38.578125 55.875 
Q 39.703125 55.765625 41.0625 55.515625 
z
" id="DejaVuSans-114"/>
      <path d="M 45.40625 27.984375 
Q 45.40625 37.75 41.375 43.109375 
Q 37.359375 48.484375 30.078125 48.484375 
Q 22.859375 48.484375 18.828125 43.109375 
Q 14.796875 37.75 14.796875 27.984375 
Q 14.796875 18.265625 18.828125 12.890625 
Q 22.859375 7.515625 30.078125 7.515625 
Q 37.359375 7.515625 41.375 12.890625 
Q 45.40625 18.265625 45.40625 27.984375 
z
M 54.390625 6.78125 
Q 54.390625 -7.171875 48.1875 -13.984375 
Q 42 -20.796875 29.203125 -20.796875 
Q 24.46875 -20.796875 20.265625 -20.09375 
Q 16.0625 -19.390625 12.109375 -17.921875 
L 12.109375 -9.1875 
Q 16.0625 -11.328125 19.921875 -12.34375 
Q 23.78125 -13.375 27.78125 -13.375 
Q 36.625 -13.375 41.015625 -8.765625 
Q 45.40625 -4.15625 45.40625 5.171875 
L 45.40625 9.625 
Q 42.625 4.78125 38.28125 2.390625 
Q 33.9375 0 27.875 0 
Q 17.828125 0 11.671875 7.65625 
Q 5.515625 15.328125 5.515625 27.984375 
Q 5.515625 40.671875 11.671875 48.328125 
Q 17.828125 56 27.875 56 
Q 33.9375 56 38.28125 53.609375 
Q 42.625 51.21875 45.40625 46.390625 
L 45.40625 54.6875 
L 54.390625 54.6875 
z
" id="DejaVuSans-103"/>
      <path d="M 56.203125 29.59375 
L 56.203125 25.203125 
L 14.890625 25.203125 
Q 15.484375 15.921875 20.484375 11.0625 
Q 25.484375 6.203125 34.421875 6.203125 
Q 39.59375 6.203125 44.453125 7.46875 
Q 49.3125 8.734375 54.109375 11.28125 
L 54.109375 2.78125 
Q 49.265625 0.734375 44.1875 -0.34375 
Q 39.109375 -1.421875 33.890625 -1.421875 
Q 20.796875 -1.421875 13.15625 6.1875 
Q 5.515625 13.8125 5.515625 26.8125 
Q 5.515625 40.234375 12.765625 48.109375 
Q 20.015625 56 32.328125 56 
Q 43.359375 56 49.78125 48.890625 
Q 56.203125 41.796875 56.203125 29.59375 
z
M 47.21875 32.234375 
Q 47.125 39.59375 43.09375 43.984375 
Q 39.0625 48.390625 32.421875 48.390625 
Q 24.90625 48.390625 20.390625 44.140625 
Q 15.875 39.890625 15.1875 32.171875 
z
" id="DejaVuSans-101"/>
      <path d="M 18.3125 70.21875 
L 18.3125 54.6875 
L 36.8125 54.6875 
L 36.8125 47.703125 
L 18.3125 47.703125 
L 18.3125 18.015625 
Q 18.3125 11.328125 20.140625 9.421875 
Q 21.96875 7.515625 27.59375 7.515625 
L 36.8125 7.515625 
L 36.8125 0 
L 27.59375 0 
Q 17.1875 0 13.234375 3.875 
Q 9.28125 7.765625 9.28125 18.015625 
L 9.28125 47.703125 
L 2.6875 47.703125 
L 2.6875 54.6875 
L 9.28125 54.6875 
L 9.28125 70.21875 
z
" id="DejaVuSans-116"/>
      <path id="DejaVuSans-32"/>
      <path d="M 9.8125 72.90625 
L 55.90625 72.90625 
L 55.90625 64.59375 
L 19.671875 64.59375 
L 19.671875 43.015625 
L 54.390625 43.015625 
L 54.390625 34.71875 
L 19.671875 34.71875 
L 19.671875 8.296875 
L 56.78125 8.296875 
L 56.78125 0 
L 9.8125 0 
z
" id="DejaVuSans-69"/>
      <path d="M 54.890625 33.015625 
L 54.890625 0 
L 45.90625 0 
L 45.90625 32.71875 
Q 45.90625 40.484375 42.875 44.328125 
Q 39.84375 48.1875 33.796875 48.1875 
Q 26.515625 48.1875 22.3125 43.546875 
Q 18.109375 38.921875 18.109375 30.90625 
L 18.109375 0 
L 9.078125 0 
L 9.078125 54.6875 
L 18.109375 54.6875 
L 18.109375 46.1875 
Q 21.34375 51.125 25.703125 53.5625 
Q 30.078125 56 35.796875 56 
Q 45.21875 56 50.046875 50.171875 
Q 54.890625 44.34375 54.890625 33.015625 
z
" id="DejaVuSans-110"/>
      <path d="M 45.40625 46.390625 
L 45.40625 75.984375 
L 54.390625 75.984375 
L 54.390625 0 
L 45.40625 0 
L 45.40625 8.203125 
Q 42.578125 3.328125 38.25 0.953125 
Q 33.9375 -1.421875 27.875 -1.421875 
Q 17.96875 -1.421875 11.734375 6.484375 
Q 5.515625 14.40625 5.515625 27.296875 
Q 5.515625 40.1875 11.734375 48.09375 
Q 17.96875 56 27.875 56 
Q 33.9375 56 38.25 53.625 
Q 42.578125 51.265625 45.40625 46.390625 
z
M 14.796875 27.296875 
Q 14.796875 17.390625 18.875 11.75 
Q 22.953125 6.109375 30.078125 6.109375 
Q 37.203125 6.109375 41.296875 11.75 
Q 45.40625 17.390625 45.40625 27.296875 
Q 45.40625 37.203125 41.296875 42.84375 
Q 37.203125 48.484375 30.078125 48.484375 
Q 22.953125 48.484375 18.875 42.84375 
Q 14.796875 37.203125 14.796875 27.296875 
z
" id="DejaVuSans-100"/>
      <path d="M 19.671875 64.796875 
L 19.671875 8.109375 
L 31.59375 8.109375 
Q 46.6875 8.109375 53.6875 14.9375 
Q 60.6875 21.78125 60.6875 36.53125 
Q 60.6875 51.171875 53.6875 57.984375 
Q 46.6875 64.796875 31.59375 64.796875 
z
M 9.8125 72.90625 
L 30.078125 72.90625 
Q 51.265625 72.90625 61.171875 64.09375 
Q 71.09375 55.28125 71.09375 36.53125 
Q 71.09375 17.671875 61.125 8.828125 
Q 51.171875 0 30.078125 0 
L 9.8125 0 
z
" id="DejaVuSans-68"/>
     </defs>
     <g transform="translate(115.629809 277.905941)scale(0.1 -0.1)">
      <use xlink:href="#DejaVuSans-84"/>
      <use x="44.583984" xlink:href="#DejaVuSans-97"/>
      <use x="105.863281" xlink:href="#DejaVuSans-114"/>
      <use x="145.226562" xlink:href="#DejaVuSans-103"/>
      <use x="208.703125" xlink:href="#DejaVuSans-101"/>
      <use x="270.226562" xlink:href="#DejaVuSans-116"/>
      <use x="309.435547" xlink:href="#DejaVuSans-32"/>
      <use x="341.222656" xlink:href="#DejaVuSans-69"/>
      <use x="404.40625" xlink:href="#DejaVuSans-110"/>
      <use x="467.785156" xlink:href="#DejaVuSans-100"/>
      <use x="531.261719" xlink:href="#DejaVuSans-32"/>
      <use x="563.048828" xlink:href="#DejaVuSans-68"/>
      <use x="640.050781" xlink:href="#DejaVuSans-97"/>
      <use x="701.330078" xlink:href="#DejaVuSans-116"/>
      <use x="740.539062" xlink:href="#DejaVuSans-101"/>
     </g>
    </g>
   </g>
   <g id="matplotlib.axis_2">
    <g id="ytick_1">
     <g id="line2d_18">
      <defs>
       <path d="M 0 0 
L -3.5 0 
" id="ma5028bb255" style="stroke:#000000;stroke-width:0.8;"/>
      </defs>
      <g>
       <use style="stroke:#000000;stroke-width:0.8;" x="48.982813" xlink:href="#ma5028bb255" y="198.583979"/>
      </g>
     </g>
     <g id="text_19">
      <!-- −12 -->
      <defs>
       <path d="M 10.59375 35.5 
L 73.1875 35.5 
L 73.1875 27.203125 
L 10.59375 27.203125 
z
" id="DejaVuSans-8722"/>
      </defs>
      <g transform="translate(20.878125 202.383198)scale(0.1 -0.1)">
       <use xlink:href="#DejaVuSans-8722"/>
       <use x="83.789062" xlink:href="#DejaVuSans-49"/>
       <use x="147.412109" xlink:href="#DejaVuSans-50"/>
      </g>
     </g>
    </g>
    <g id="ytick_2">
     <g id="line2d_19">
      <g>
       <use style="stroke:#000000;stroke-width:0.8;" x="48.982813" xlink:href="#ma5028bb255" y="168.51928"/>
      </g>
     </g>
     <g id="text_20">
      <!-- −10 -->
      <g transform="translate(20.878125 172.318499)scale(0.1 -0.1)">
       <use xlink:href="#DejaVuSans-8722"/>
       <use x="83.789062" xlink:href="#DejaVuSans-49"/>
       <use x="147.412109" xlink:href="#DejaVuSans-48"/>
      </g>
     </g>
    </g>
    <g id="ytick_3">
     <g id="line2d_20">
      <g>
       <use style="stroke:#000000;stroke-width:0.8;" x="48.982813" xlink:href="#ma5028bb255" y="138.454581"/>
      </g>
     </g>
     <g id="text_21">
      <!-- −8 -->
      <g transform="translate(27.240625 142.2538)scale(0.1 -0.1)">
       <use xlink:href="#DejaVuSans-8722"/>
       <use x="83.789062" xlink:href="#DejaVuSans-56"/>
      </g>
     </g>
    </g>
    <g id="ytick_4">
     <g id="line2d_21">
      <g>
       <use style="stroke:#000000;stroke-width:0.8;" x="48.982813" xlink:href="#ma5028bb255" y="108.389882"/>
      </g>
     </g>
     <g id="text_22">
      <!-- −6 -->
      <g transform="translate(27.240625 112.189101)scale(0.1 -0.1)">
       <use xlink:href="#DejaVuSans-8722"/>
       <use x="83.789062" xlink:href="#DejaVuSans-54"/>
      </g>
     </g>
    </g>
    <g id="ytick_5">
     <g id="line2d_22">
      <g>
       <use style="stroke:#000000;stroke-width:0.8;" x="48.982813" xlink:href="#ma5028bb255" y="78.325183"/>
      </g>
     </g>
     <g id="text_23">
      <!-- −4 -->
      <g transform="translate(27.240625 82.124402)scale(0.1 -0.1)">
       <use xlink:href="#DejaVuSans-8722"/>
       <use x="83.789062" xlink:href="#DejaVuSans-52"/>
      </g>
     </g>
    </g>
    <g id="ytick_6">
     <g id="line2d_23">
      <g>
       <use style="stroke:#000000;stroke-width:0.8;" x="48.982813" xlink:href="#ma5028bb255" y="48.260484"/>
      </g>
     </g>
     <g id="text_24">
      <!-- −2 -->
      <g transform="translate(27.240625 52.059703)scale(0.1 -0.1)">
       <use xlink:href="#DejaVuSans-8722"/>
       <use x="83.789062" xlink:href="#DejaVuSans-50"/>
      </g>
     </g>
    </g>
    <g id="text_25">
     <!-- Score for cumulative deaths -->
     <defs>
      <path d="M 53.515625 70.515625 
L 53.515625 60.890625 
Q 47.90625 63.578125 42.921875 64.890625 
Q 37.9375 66.21875 33.296875 66.21875 
Q 25.25 66.21875 20.875 63.09375 
Q 16.5 59.96875 16.5 54.203125 
Q 16.5 49.359375 19.40625 46.890625 
Q 22.3125 44.4375 30.421875 42.921875 
L 36.375 41.703125 
Q 47.40625 39.59375 52.65625 34.296875 
Q 57.90625 29 57.90625 20.125 
Q 57.90625 9.515625 50.796875 4.046875 
Q 43.703125 -1.421875 29.984375 -1.421875 
Q 24.8125 -1.421875 18.96875 -0.25 
Q 13.140625 0.921875 6.890625 3.21875 
L 6.890625 13.375 
Q 12.890625 10.015625 18.65625 8.296875 
Q 24.421875 6.59375 29.984375 6.59375 
Q 38.421875 6.59375 43.015625 9.90625 
Q 47.609375 13.234375 47.609375 19.390625 
Q 47.609375 24.75 44.3125 27.78125 
Q 41.015625 30.8125 33.5 32.328125 
L 27.484375 33.5 
Q 16.453125 35.6875 11.515625 40.375 
Q 6.59375 45.0625 6.59375 53.421875 
Q 6.59375 63.09375 13.40625 68.65625 
Q 20.21875 74.21875 32.171875 74.21875 
Q 37.3125 74.21875 42.625 73.28125 
Q 47.953125 72.359375 53.515625 70.515625 
z
" id="DejaVuSans-83"/>
      <path d="M 48.78125 52.59375 
L 48.78125 44.1875 
Q 44.96875 46.296875 41.140625 47.34375 
Q 37.3125 48.390625 33.40625 48.390625 
Q 24.65625 48.390625 19.8125 42.84375 
Q 14.984375 37.3125 14.984375 27.296875 
Q 14.984375 17.28125 19.8125 11.734375 
Q 24.65625 6.203125 33.40625 6.203125 
Q 37.3125 6.203125 41.140625 7.25 
Q 44.96875 8.296875 48.78125 10.40625 
L 48.78125 2.09375 
Q 45.015625 0.34375 40.984375 -0.53125 
Q 36.96875 -1.421875 32.421875 -1.421875 
Q 20.0625 -1.421875 12.78125 6.34375 
Q 5.515625 14.109375 5.515625 27.296875 
Q 5.515625 40.671875 12.859375 48.328125 
Q 20.21875 56 33.015625 56 
Q 37.15625 56 41.109375 55.140625 
Q 45.0625 54.296875 48.78125 52.59375 
z
" id="DejaVuSans-99"/>
      <path d="M 30.609375 48.390625 
Q 23.390625 48.390625 19.1875 42.75 
Q 14.984375 37.109375 14.984375 27.296875 
Q 14.984375 17.484375 19.15625 11.84375 
Q 23.34375 6.203125 30.609375 6.203125 
Q 37.796875 6.203125 41.984375 11.859375 
Q 46.1875 17.53125 46.1875 27.296875 
Q 46.1875 37.015625 41.984375 42.703125 
Q 37.796875 48.390625 30.609375 48.390625 
z
M 30.609375 56 
Q 42.328125 56 49.015625 48.375 
Q 55.71875 40.765625 55.71875 27.296875 
Q 55.71875 13.875 49.015625 6.21875 
Q 42.328125 -1.421875 30.609375 -1.421875 
Q 18.84375 -1.421875 12.171875 6.21875 
Q 5.515625 13.875 5.515625 27.296875 
Q 5.515625 40.765625 12.171875 48.375 
Q 18.84375 56 30.609375 56 
z
" id="DejaVuSans-111"/>
      <path d="M 37.109375 75.984375 
L 37.109375 68.5 
L 28.515625 68.5 
Q 23.6875 68.5 21.796875 66.546875 
Q 19.921875 64.59375 19.921875 59.515625 
L 19.921875 54.6875 
L 34.71875 54.6875 
L 34.71875 47.703125 
L 19.921875 47.703125 
L 19.921875 0 
L 10.890625 0 
L 10.890625 47.703125 
L 2.296875 47.703125 
L 2.296875 54.6875 
L 10.890625 54.6875 
L 10.890625 58.5 
Q 10.890625 67.625 15.140625 71.796875 
Q 19.390625 75.984375 28.609375 75.984375 
z
" id="DejaVuSans-102"/>
      <path d="M 8.5 21.578125 
L 8.5 54.6875 
L 17.484375 54.6875 
L 17.484375 21.921875 
Q 17.484375 14.15625 20.5 10.265625 
Q 23.53125 6.390625 29.59375 6.390625 
Q 36.859375 6.390625 41.078125 11.03125 
Q 45.3125 15.671875 45.3125 23.6875 
L 45.3125 54.6875 
L 54.296875 54.6875 
L 54.296875 0 
L 45.3125 0 
L 45.3125 8.40625 
Q 42.046875 3.421875 37.71875 1 
Q 33.40625 -1.421875 27.6875 -1.421875 
Q 18.265625 -1.421875 13.375 4.4375 
Q 8.5 10.296875 8.5 21.578125 
z
M 31.109375 56 
z
" id="DejaVuSans-117"/>
      <path d="M 52 44.1875 
Q 55.375 50.25 60.0625 53.125 
Q 64.75 56 71.09375 56 
Q 79.640625 56 84.28125 50.015625 
Q 88.921875 44.046875 88.921875 33.015625 
L 88.921875 0 
L 79.890625 0 
L 79.890625 32.71875 
Q 79.890625 40.578125 77.09375 44.375 
Q 74.3125 48.1875 68.609375 48.1875 
Q 61.625 48.1875 57.5625 43.546875 
Q 53.515625 38.921875 53.515625 30.90625 
L 53.515625 0 
L 44.484375 0 
L 44.484375 32.71875 
Q 44.484375 40.625 41.703125 44.40625 
Q 38.921875 48.1875 33.109375 48.1875 
Q 26.21875 48.1875 22.15625 43.53125 
Q 18.109375 38.875 18.109375 30.90625 
L 18.109375 0 
L 9.078125 0 
L 9.078125 54.6875 
L 18.109375 54.6875 
L 18.109375 46.1875 
Q 21.1875 51.21875 25.484375 53.609375 
Q 29.78125 56 35.6875 56 
Q 41.65625 56 45.828125 52.96875 
Q 50 49.953125 52 44.1875 
z
" id="DejaVuSans-109"/>
      <path d="M 9.421875 75.984375 
L 18.40625 75.984375 
L 18.40625 0 
L 9.421875 0 
z
" id="DejaVuSans-108"/>
      <path d="M 9.421875 54.6875 
L 18.40625 54.6875 
L 18.40625 0 
L 9.421875 0 
z
M 9.421875 75.984375 
L 18.40625 75.984375 
L 18.40625 64.59375 
L 9.421875 64.59375 
z
" id="DejaVuSans-105"/>
      <path d="M 2.984375 54.6875 
L 12.5 54.6875 
L 29.59375 8.796875 
L 46.6875 54.6875 
L 56.203125 54.6875 
L 35.6875 0 
L 23.484375 0 
z
" id="DejaVuSans-118"/>
      <path d="M 54.890625 33.015625 
L 54.890625 0 
L 45.90625 0 
L 45.90625 32.71875 
Q 45.90625 40.484375 42.875 44.328125 
Q 39.84375 48.1875 33.796875 48.1875 
Q 26.515625 48.1875 22.3125 43.546875 
Q 18.109375 38.921875 18.109375 30.90625 
L 18.109375 0 
L 9.078125 0 
L 9.078125 75.984375 
L 18.109375 75.984375 
L 18.109375 46.1875 
Q 21.34375 51.125 25.703125 53.5625 
Q 30.078125 56 35.796875 56 
Q 45.21875 56 50.046875 50.171875 
Q 54.890625 44.34375 54.890625 33.015625 
z
" id="DejaVuSans-104"/>
      <path d="M 44.28125 53.078125 
L 44.28125 44.578125 
Q 40.484375 46.53125 36.375 47.5 
Q 32.28125 48.484375 27.875 48.484375 
Q 21.1875 48.484375 17.84375 46.4375 
Q 14.5 44.390625 14.5 40.28125 
Q 14.5 37.15625 16.890625 35.375 
Q 19.28125 33.59375 26.515625 31.984375 
L 29.59375 31.296875 
Q 39.15625 29.25 43.1875 25.515625 
Q 47.21875 21.78125 47.21875 15.09375 
Q 47.21875 7.46875 41.1875 3.015625 
Q 35.15625 -1.421875 24.609375 -1.421875 
Q 20.21875 -1.421875 15.453125 -0.5625 
Q 10.6875 0.296875 5.421875 2 
L 5.421875 11.28125 
Q 10.40625 8.6875 15.234375 7.390625 
Q 20.0625 6.109375 24.8125 6.109375 
Q 31.15625 6.109375 34.5625 8.28125 
Q 37.984375 10.453125 37.984375 14.40625 
Q 37.984375 18.0625 35.515625 20.015625 
Q 33.0625 21.96875 24.703125 23.78125 
L 21.578125 24.515625 
Q 13.234375 26.265625 9.515625 29.90625 
Q 5.8125 33.546875 5.8125 39.890625 
Q 5.8125 47.609375 11.28125 51.796875 
Q 16.75 56 26.8125 56 
Q 31.78125 56 36.171875 55.265625 
Q 40.578125 54.546875 44.28125 53.078125 
z
" id="DejaVuSans-115"/>
     </defs>
     <g transform="translate(14.798438 193.106906)rotate(-90)scale(0.1 -0.1)">
      <use xlink:href="#DejaVuSans-83"/>
      <use x="63.476562" xlink:href="#DejaVuSans-99"/>
      <use x="118.457031" xlink:href="#DejaVuSans-111"/>
      <use x="179.638672" xlink:href="#DejaVuSans-114"/>
      <use x="218.501953" xlink:href="#DejaVuSans-101"/>
      <use x="280.025391" xlink:href="#DejaVuSans-32"/>
      <use x="311.8125" xlink:href="#DejaVuSans-102"/>
      <use x="347.017578" xlink:href="#DejaVuSans-111"/>
      <use x="408.199219" xlink:href="#DejaVuSans-114"/>
      <use x="449.3125" xlink:href="#DejaVuSans-32"/>
      <use x="481.099609" xlink:href="#DejaVuSans-99"/>
      <use x="536.080078" xlink:href="#DejaVuSans-117"/>
      <use x="599.458984" xlink:href="#DejaVuSans-109"/>
      <use x="696.871094" xlink:href="#DejaVuSans-117"/>
      <use x="760.25" xlink:href="#DejaVuSans-108"/>
      <use x="788.033203" xlink:href="#DejaVuSans-97"/>
      <use x="849.3125" xlink:href="#DejaVuSans-116"/>
      <use x="888.521484" xlink:href="#DejaVuSans-105"/>
      <use x="916.304688" xlink:href="#DejaVuSans-118"/>
      <use x="975.484375" xlink:href="#DejaVuSans-101"/>
      <use x="1037.007812" xlink:href="#DejaVuSans-32"/>
      <use x="1068.794922" xlink:href="#DejaVuSans-100"/>
      <use x="1132.271484" xlink:href="#DejaVuSans-101"/>
      <use x="1193.794922" xlink:href="#DejaVuSans-97"/>
      <use x="1255.074219" xlink:href="#DejaVuSans-116"/>
      <use x="1294.283203" xlink:href="#DejaVuSans-104"/>
      <use x="1357.662109" xlink:href="#DejaVuSans-115"/>
     </g>
    </g>
   </g>
   <g id="line2d_24">
    <path clip-path="url(#pd5e36258de)" d="M 70.332837 87.862116 
L 73.38284 92.987218 
L 76.432844 99.503416 
L 79.482847 97.88124 
L 82.532851 100.338533 
L 85.582854 108.053247 
L 88.632858 106.490886 
L 91.682861 91.542036 
L 94.732865 108.126157 
L 97.782868 96.380461 
L 100.832872 108.621393 
L 103.882875 98.204333 
L 106.932879 85.28764 
L 109.982882 102.666331 
L 113.032886 101.574288 
L 116.082889 107.807585 
L 119.132893 85.25208 
L 122.182896 78.286445 
L 125.232899 74.178892 
L 128.282903 83.211267 
L 131.332906 97.348499 
L 134.38291 90.239062 
L 137.432913 78.120286 
L 140.482917 77.08072 
L 143.53292 76.81153 
L 146.582924 77.940128 
L 149.632927 92.692855 
L 152.682931 128.110346 
L 155.732934 115.770485 
L 158.782938 105.46345 
L 161.832941 113.614398 
L 164.882945 120.212641 
L 167.932948 104.825057 
L 170.982952 102.043373 
L 174.032955 112.40162 
L 177.082959 138.858285 
L 180.132962 136.485783 
L 183.182966 106.359548 
L 186.232969 114.91268 
L 189.282973 119.941857 
L 192.332976 103.509137 
L 195.38298 90.855988 
L 198.432983 90.594257 
L 201.482986 90.389125 
L 204.53299 70.272843 
L 207.582993 63.285413 
L 210.632997 57.393094 
L 213.683 68.681861 
L 216.733004 59.789374 
L 219.783007 76.142293 
L 222.833011 60.885988 
L 225.883014 68.693809 
L 228.933018 69.912322 
L 231.983021 57.702926 
L 235.033025 72.736217 
L 238.083028 60.535713 
L 241.133032 50.131718 
L 244.183035 50.891215 
L 247.233039 65.682887 
" style="fill:none;stroke:#000080;stroke-linecap:square;stroke-width:1.5;"/>
    <defs>
     <path d="M 0 3 
C 0.795609 3 1.55874 2.683901 2.12132 2.12132 
C 2.683901 1.55874 3 0.795609 3 0 
C 3 -0.795609 2.683901 -1.55874 2.12132 -2.12132 
C 1.55874 -2.683901 0.795609 -3 0 -3 
C -0.795609 -3 -1.55874 -2.683901 -2.12132 -2.12132 
C -2.683901 -1.55874 -3 -0.795609 -3 0 
C -3 0.795609 -2.683901 1.55874 -2.12132 2.12132 
C -1.55874 2.683901 -0.795609 3 0 3 
z
" id="me4cc8dfbf3" style="stroke:#000080;"/>
    </defs>
    <g clip-path="url(#pd5e36258de)">
     <use style="fill:#000080;stroke:#000080;" x="70.332837" xlink:href="#me4cc8dfbf3" y="87.862116"/>
     <use style="fill:#000080;stroke:#000080;" x="73.38284" xlink:href="#me4cc8dfbf3" y="92.987218"/>
     <use style="fill:#000080;stroke:#000080;" x="76.432844" xlink:href="#me4cc8dfbf3" y="99.503416"/>
     <use style="fill:#000080;stroke:#000080;" x="79.482847" xlink:href="#me4cc8dfbf3" y="97.88124"/>
     <use style="fill:#000080;stroke:#000080;" x="82.532851" xlink:href="#me4cc8dfbf3" y="100.338533"/>
     <use style="fill:#000080;stroke:#000080;" x="85.582854" xlink:href="#me4cc8dfbf3" y="108.053247"/>
     <use style="fill:#000080;stroke:#000080;" x="88.632858" xlink:href="#me4cc8dfbf3" y="106.490886"/>
     <use style="fill:#000080;stroke:#000080;" x="91.682861" xlink:href="#me4cc8dfbf3" y="91.542036"/>
     <use style="fill:#000080;stroke:#000080;" x="94.732865" xlink:href="#me4cc8dfbf3" y="108.126157"/>
     <use style="fill:#000080;stroke:#000080;" x="97.782868" xlink:href="#me4cc8dfbf3" y="96.380461"/>
     <use style="fill:#000080;stroke:#000080;" x="100.832872" xlink:href="#me4cc8dfbf3" y="108.621393"/>
     <use style="fill:#000080;stroke:#000080;" x="103.882875" xlink:href="#me4cc8dfbf3" y="98.204333"/>
     <use style="fill:#000080;stroke:#000080;" x="106.932879" xlink:href="#me4cc8dfbf3" y="85.28764"/>
     <use style="fill:#000080;stroke:#000080;" x="109.982882" xlink:href="#me4cc8dfbf3" y="102.666331"/>
     <use style="fill:#000080;stroke:#000080;" x="113.032886" xlink:href="#me4cc8dfbf3" y="101.574288"/>
     <use style="fill:#000080;stroke:#000080;" x="116.082889" xlink:href="#me4cc8dfbf3" y="107.807585"/>
     <use style="fill:#000080;stroke:#000080;" x="119.132893" xlink:href="#me4cc8dfbf3" y="85.25208"/>
     <use style="fill:#000080;stroke:#000080;" x="122.182896" xlink:href="#me4cc8dfbf3" y="78.286445"/>
     <use style="fill:#000080;stroke:#000080;" x="125.232899" xlink:href="#me4cc8dfbf3" y="74.178892"/>
     <use style="fill:#000080;stroke:#000080;" x="128.282903" xlink:href="#me4cc8dfbf3" y="83.211267"/>
     <use style="fill:#000080;stroke:#000080;" x="131.332906" xlink:href="#me4cc8dfbf3" y="97.348499"/>
     <use style="fill:#000080;stroke:#000080;" x="134.38291" xlink:href="#me4cc8dfbf3" y="90.239062"/>
     <use style="fill:#000080;stroke:#000080;" x="137.432913" xlink:href="#me4cc8dfbf3" y="78.120286"/>
     <use style="fill:#000080;stroke:#000080;" x="140.482917" xlink:href="#me4cc8dfbf3" y="77.08072"/>
     <use style="fill:#000080;stroke:#000080;" x="143.53292" xlink:href="#me4cc8dfbf3" y="76.81153"/>
     <use style="fill:#000080;stroke:#000080;" x="146.582924" xlink:href="#me4cc8dfbf3" y="77.940128"/>
     <use style="fill:#000080;stroke:#000080;" x="149.632927" xlink:href="#me4cc8dfbf3" y="92.692855"/>
     <use style="fill:#000080;stroke:#000080;" x="152.682931" xlink:href="#me4cc8dfbf3" y="128.110346"/>
     <use style="fill:#000080;stroke:#000080;" x="155.732934" xlink:href="#me4cc8dfbf3" y="115.770485"/>
     <use style="fill:#000080;stroke:#000080;" x="158.782938" xlink:href="#me4cc8dfbf3" y="105.46345"/>
     <use style="fill:#000080;stroke:#000080;" x="161.832941" xlink:href="#me4cc8dfbf3" y="113.614398"/>
     <use style="fill:#000080;stroke:#000080;" x="164.882945" xlink:href="#me4cc8dfbf3" y="120.212641"/>
     <use style="fill:#000080;stroke:#000080;" x="167.932948" xlink:href="#me4cc8dfbf3" y="104.825057"/>
     <use style="fill:#000080;stroke:#000080;" x="170.982952" xlink:href="#me4cc8dfbf3" y="102.043373"/>
     <use style="fill:#000080;stroke:#000080;" x="174.032955" xlink:href="#me4cc8dfbf3" y="112.40162"/>
     <use style="fill:#000080;stroke:#000080;" x="177.082959" xlink:href="#me4cc8dfbf3" y="138.858285"/>
     <use style="fill:#000080;stroke:#000080;" x="180.132962" xlink:href="#me4cc8dfbf3" y="136.485783"/>
     <use style="fill:#000080;stroke:#000080;" x="183.182966" xlink:href="#me4cc8dfbf3" y="106.359548"/>
     <use style="fill:#000080;stroke:#000080;" x="186.232969" xlink:href="#me4cc8dfbf3" y="114.91268"/>
     <use style="fill:#000080;stroke:#000080;" x="189.282973" xlink:href="#me4cc8dfbf3" y="119.941857"/>
     <use style="fill:#000080;stroke:#000080;" x="192.332976" xlink:href="#me4cc8dfbf3" y="103.509137"/>
     <use style="fill:#000080;stroke:#000080;" x="195.38298" xlink:href="#me4cc8dfbf3" y="90.855988"/>
     <use style="fill:#000080;stroke:#000080;" x="198.432983" xlink:href="#me4cc8dfbf3" y="90.594257"/>
     <use style="fill:#000080;stroke:#000080;" x="201.482986" xlink:href="#me4cc8dfbf3" y="90.389125"/>
     <use style="fill:#000080;stroke:#000080;" x="204.53299" xlink:href="#me4cc8dfbf3" y="70.272843"/>
     <use style="fill:#000080;stroke:#000080;" x="207.582993" xlink:href="#me4cc8dfbf3" y="63.285413"/>
     <use style="fill:#000080;stroke:#000080;" x="210.632997" xlink:href="#me4cc8dfbf3" y="57.393094"/>
     <use style="fill:#000080;stroke:#000080;" x="213.683" xlink:href="#me4cc8dfbf3" y="68.681861"/>
     <use style="fill:#000080;stroke:#000080;" x="216.733004" xlink:href="#me4cc8dfbf3" y="59.789374"/>
     <use style="fill:#000080;stroke:#000080;" x="219.783007" xlink:href="#me4cc8dfbf3" y="76.142293"/>
     <use style="fill:#000080;stroke:#000080;" x="222.833011" xlink:href="#me4cc8dfbf3" y="60.885988"/>
     <use style="fill:#000080;stroke:#000080;" x="225.883014" xlink:href="#me4cc8dfbf3" y="68.693809"/>
     <use style="fill:#000080;stroke:#000080;" x="228.933018" xlink:href="#me4cc8dfbf3" y="69.912322"/>
     <use style="fill:#000080;stroke:#000080;" x="231.983021" xlink:href="#me4cc8dfbf3" y="57.702926"/>
     <use style="fill:#000080;stroke:#000080;" x="235.033025" xlink:href="#me4cc8dfbf3" y="72.736217"/>
     <use style="fill:#000080;stroke:#000080;" x="238.083028" xlink:href="#me4cc8dfbf3" y="60.535713"/>
     <use style="fill:#000080;stroke:#000080;" x="241.133032" xlink:href="#me4cc8dfbf3" y="50.131718"/>
     <use style="fill:#000080;stroke:#000080;" x="244.183035" xlink:href="#me4cc8dfbf3" y="50.891215"/>
     <use style="fill:#000080;stroke:#000080;" x="247.233039" xlink:href="#me4cc8dfbf3" y="65.682887"/>
    </g>
   </g>
   <g id="line2d_25">
    <path clip-path="url(#pd5e36258de)" d="M 64.23283 136.71773 
L 67.282833 121.083572 
L 70.332837 77.01124 
L 73.38284 98.023686 
L 76.432844 97.00564 
L 79.482847 99.68012 
L 82.532851 100.383437 
L 85.582854 84.848676 
L 88.632858 90.140396 
L 91.682861 98.265684 
L 94.732865 121.322775 
L 97.782868 89.082524 
L 100.832872 112.598336 
L 103.882875 114.020785 
L 106.932879 99.278726 
L 109.982882 102.220274 
L 113.032886 92.887097 
L 116.082889 86.342882 
L 119.132893 90.231147 
L 122.182896 91.6645 
L 125.232899 80.322448 
L 128.282903 86.952825 
L 131.332906 82.456102 
L 134.38291 79.514195 
L 137.432913 81.796488 
L 140.482917 77.50013 
L 143.53292 79.923259 
L 146.582924 86.882177 
L 149.632927 88.298722 
L 152.682931 91.240181 
L 155.732934 118.129658 
L 158.782938 115.441734 
L 161.832941 132.594844 
L 164.882945 131.594912 
L 167.932948 118.317134 
L 170.982952 93.897749 
L 174.032955 107.558267 
L 177.082959 125.453258 
L 180.132962 151.467394 
L 183.182966 108.839949 
L 186.232969 127.790723 
L 189.282973 134.980429 
L 192.332976 111.024076 
L 195.38298 110.409685 
L 198.432983 119.764977 
L 201.482986 112.634949 
L 204.53299 75.61175 
L 207.582993 44.327389 
L 210.632997 51.476898 
L 213.683 63.270788 
L 216.733004 68.521055 
L 219.783007 74.180089 
L 222.833011 70.334914 
L 225.883014 70.174474 
L 228.933018 60.913596 
L 231.983021 67.988422 
L 235.033025 64.033257 
L 238.083028 80.73458 
L 241.133032 86.128509 
L 244.183035 53.605 
L 247.233039 70.198699 
" style="fill:none;stroke:#00d4ff;stroke-linecap:square;stroke-width:1.5;"/>
    <defs>
     <path d="M 0 3 
C 0.795609 3 1.55874 2.683901 2.12132 2.12132 
C 2.683901 1.55874 3 0.795609 3 0 
C 3 -0.795609 2.683901 -1.55874 2.12132 -2.12132 
C 1.55874 -2.683901 0.795609 -3 0 -3 
C -0.795609 -3 -1.55874 -2.683901 -2.12132 -2.12132 
C -2.683901 -1.55874 -3 -0.795609 -3 0 
C -3 0.795609 -2.683901 1.55874 -2.12132 2.12132 
C -1.55874 2.683901 -0.795609 3 0 3 
z
" id="ma11bb38822" style="stroke:#00d4ff;"/>
    </defs>
    <g clip-path="url(#pd5e36258de)">
     <use style="fill:#00d4ff;stroke:#00d4ff;" x="64.23283" xlink:href="#ma11bb38822" y="136.71773"/>
     <use style="fill:#00d4ff;stroke:#00d4ff;" x="67.282833" xlink:href="#ma11bb38822" y="121.083572"/>
     <use style="fill:#00d4ff;stroke:#00d4ff;" x="70.332837" xlink:href="#ma11bb38822" y="77.01124"/>
     <use style="fill:#00d4ff;stroke:#00d4ff;" x="73.38284" xlink:href="#ma11bb38822" y="98.023686"/>
     <use style="fill:#00d4ff;stroke:#00d4ff;" x="76.432844" xlink:href="#ma11bb38822" y="97.00564"/>
     <use style="fill:#00d4ff;stroke:#00d4ff;" x="79.482847" xlink:href="#ma11bb38822" y="99.68012"/>
     <use style="fill:#00d4ff;stroke:#00d4ff;" x="82.532851" xlink:href="#ma11bb38822" y="100.383437"/>
     <use style="fill:#00d4ff;stroke:#00d4ff;" x="85.582854" xlink:href="#ma11bb38822" y="84.848676"/>
     <use style="fill:#00d4ff;stroke:#00d4ff;" x="88.632858" xlink:href="#ma11bb38822" y="90.140396"/>
     <use style="fill:#00d4ff;stroke:#00d4ff;" x="91.682861" xlink:href="#ma11bb38822" y="98.265684"/>
     <use style="fill:#00d4ff;stroke:#00d4ff;" x="94.732865" xlink:href="#ma11bb38822" y="121.322775"/>
     <use style="fill:#00d4ff;stroke:#00d4ff;" x="97.782868" xlink:href="#ma11bb38822" y="89.082524"/>
     <use style="fill:#00d4ff;stroke:#00d4ff;" x="100.832872" xlink:href="#ma11bb38822" y="112.598336"/>
     <use style="fill:#00d4ff;stroke:#00d4ff;" x="103.882875" xlink:href="#ma11bb38822" y="114.020785"/>
     <use style="fill:#00d4ff;stroke:#00d4ff;" x="106.932879" xlink:href="#ma11bb38822" y="99.278726"/>
     <use style="fill:#00d4ff;stroke:#00d4ff;" x="109.982882" xlink:href="#ma11bb38822" y="102.220274"/>
     <use style="fill:#00d4ff;stroke:#00d4ff;" x="113.032886" xlink:href="#ma11bb38822" y="92.887097"/>
     <use style="fill:#00d4ff;stroke:#00d4ff;" x="116.082889" xlink:href="#ma11bb38822" y="86.342882"/>
     <use style="fill:#00d4ff;stroke:#00d4ff;" x="119.132893" xlink:href="#ma11bb38822" y="90.231147"/>
     <use style="fill:#00d4ff;stroke:#00d4ff;" x="122.182896" xlink:href="#ma11bb38822" y="91.6645"/>
     <use style="fill:#00d4ff;stroke:#00d4ff;" x="125.232899" xlink:href="#ma11bb38822" y="80.322448"/>
     <use style="fill:#00d4ff;stroke:#00d4ff;" x="128.282903" xlink:href="#ma11bb38822" y="86.952825"/>
     <use style="fill:#00d4ff;stroke:#00d4ff;" x="131.332906" xlink:href="#ma11bb38822" y="82.456102"/>
     <use style="fill:#00d4ff;stroke:#00d4ff;" x="134.38291" xlink:href="#ma11bb38822" y="79.514195"/>
     <use style="fill:#00d4ff;stroke:#00d4ff;" x="137.432913" xlink:href="#ma11bb38822" y="81.796488"/>
     <use style="fill:#00d4ff;stroke:#00d4ff;" x="140.482917" xlink:href="#ma11bb38822" y="77.50013"/>
     <use style="fill:#00d4ff;stroke:#00d4ff;" x="143.53292" xlink:href="#ma11bb38822" y="79.923259"/>
     <use style="fill:#00d4ff;stroke:#00d4ff;" x="146.582924" xlink:href="#ma11bb38822" y="86.882177"/>
     <use style="fill:#00d4ff;stroke:#00d4ff;" x="149.632927" xlink:href="#ma11bb38822" y="88.298722"/>
     <use style="fill:#00d4ff;stroke:#00d4ff;" x="152.682931" xlink:href="#ma11bb38822" y="91.240181"/>
     <use style="fill:#00d4ff;stroke:#00d4ff;" x="155.732934" xlink:href="#ma11bb38822" y="118.129658"/>
     <use style="fill:#00d4ff;stroke:#00d4ff;" x="158.782938" xlink:href="#ma11bb38822" y="115.441734"/>
     <use style="fill:#00d4ff;stroke:#00d4ff;" x="161.832941" xlink:href="#ma11bb38822" y="132.594844"/>
     <use style="fill:#00d4ff;stroke:#00d4ff;" x="164.882945" xlink:href="#ma11bb38822" y="131.594912"/>
     <use style="fill:#00d4ff;stroke:#00d4ff;" x="167.932948" xlink:href="#ma11bb38822" y="118.317134"/>
     <use style="fill:#00d4ff;stroke:#00d4ff;" x="170.982952" xlink:href="#ma11bb38822" y="93.897749"/>
     <use style="fill:#00d4ff;stroke:#00d4ff;" x="174.032955" xlink:href="#ma11bb38822" y="107.558267"/>
     <use style="fill:#00d4ff;stroke:#00d4ff;" x="177.082959" xlink:href="#ma11bb38822" y="125.453258"/>
     <use style="fill:#00d4ff;stroke:#00d4ff;" x="180.132962" xlink:href="#ma11bb38822" y="151.467394"/>
     <use style="fill:#00d4ff;stroke:#00d4ff;" x="183.182966" xlink:href="#ma11bb38822" y="108.839949"/>
     <use style="fill:#00d4ff;stroke:#00d4ff;" x="186.232969" xlink:href="#ma11bb38822" y="127.790723"/>
     <use style="fill:#00d4ff;stroke:#00d4ff;" x="189.282973" xlink:href="#ma11bb38822" y="134.980429"/>
     <use style="fill:#00d4ff;stroke:#00d4ff;" x="192.332976" xlink:href="#ma11bb38822" y="111.024076"/>
     <use style="fill:#00d4ff;stroke:#00d4ff;" x="195.38298" xlink:href="#ma11bb38822" y="110.409685"/>
     <use style="fill:#00d4ff;stroke:#00d4ff;" x="198.432983" xlink:href="#ma11bb38822" y="119.764977"/>
     <use style="fill:#00d4ff;stroke:#00d4ff;" x="201.482986" xlink:href="#ma11bb38822" y="112.634949"/>
     <use style="fill:#00d4ff;stroke:#00d4ff;" x="204.53299" xlink:href="#ma11bb38822" y="75.61175"/>
     <use style="fill:#00d4ff;stroke:#00d4ff;" x="207.582993" xlink:href="#ma11bb38822" y="44.327389"/>
     <use style="fill:#00d4ff;stroke:#00d4ff;" x="210.632997" xlink:href="#ma11bb38822" y="51.476898"/>
     <use style="fill:#00d4ff;stroke:#00d4ff;" x="213.683" xlink:href="#ma11bb38822" y="63.270788"/>
     <use style="fill:#00d4ff;stroke:#00d4ff;" x="216.733004" xlink:href="#ma11bb38822" y="68.521055"/>
     <use style="fill:#00d4ff;stroke:#00d4ff;" x="219.783007" xlink:href="#ma11bb38822" y="74.180089"/>
     <use style="fill:#00d4ff;stroke:#00d4ff;" x="222.833011" xlink:href="#ma11bb38822" y="70.334914"/>
     <use style="fill:#00d4ff;stroke:#00d4ff;" x="225.883014" xlink:href="#ma11bb38822" y="70.174474"/>
     <use style="fill:#00d4ff;stroke:#00d4ff;" x="228.933018" xlink:href="#ma11bb38822" y="60.913596"/>
     <use style="fill:#00d4ff;stroke:#00d4ff;" x="231.983021" xlink:href="#ma11bb38822" y="67.988422"/>
     <use style="fill:#00d4ff;stroke:#00d4ff;" x="235.033025" xlink:href="#ma11bb38822" y="64.033257"/>
     <use style="fill:#00d4ff;stroke:#00d4ff;" x="238.083028" xlink:href="#ma11bb38822" y="80.73458"/>
     <use style="fill:#00d4ff;stroke:#00d4ff;" x="241.133032" xlink:href="#ma11bb38822" y="86.128509"/>
     <use style="fill:#00d4ff;stroke:#00d4ff;" x="244.183035" xlink:href="#ma11bb38822" y="53.605"/>
     <use style="fill:#00d4ff;stroke:#00d4ff;" x="247.233039" xlink:href="#ma11bb38822" y="70.198699"/>
    </g>
   </g>
   <g id="line2d_26">
    <path clip-path="url(#pd5e36258de)" d="M 64.23283 134.782539 
L 67.282833 125.161778 
L 70.332837 127.556053 
L 73.38284 118.468731 
L 76.432844 104.13746 
L 79.482847 101.625183 
L 82.532851 108.819107 
L 85.582854 94.064174 
L 88.632858 97.860154 
L 91.682861 81.362321 
L 94.732865 97.122526 
L 97.782868 97.728254 
L 100.832872 123.286583 
L 103.882875 105.511342 
L 106.932879 95.040849 
L 109.982882 100.307338 
L 113.032886 84.225991 
L 116.082889 92.130942 
L 119.132893 71.132338 
L 122.182896 83.592579 
L 125.232899 67.895316 
L 128.282903 86.426271 
L 131.332906 69.922946 
L 134.38291 76.611141 
L 137.432913 79.556363 
L 140.482917 87.647243 
L 143.53292 97.406604 
L 146.582924 120.617907 
L 149.632927 119.186688 
L 152.682931 114.515151 
L 155.732934 127.83849 
L 158.782938 124.803784 
L 161.832941 104.864196 
L 164.882945 116.782358 
L 167.932948 111.481588 
L 170.982952 93.282916 
L 174.032955 103.930159 
L 177.082959 125.734005 
L 180.132962 148.001216 
L 183.182966 103.842061 
L 186.232969 104.30848 
L 189.282973 86.300247 
L 192.332976 96.098732 
L 195.38298 95.397112 
L 198.432983 95.923407 
L 201.482986 87.51441 
L 204.53299 86.996641 
L 207.582993 89.208874 
L 210.632997 83.946155 
L 213.683 84.337096 
L 216.733004 79.793415 
L 219.783007 73.330319 
L 222.833011 90.747913 
L 225.883014 65.212154 
L 228.933018 62.463492 
L 231.983021 68.251971 
L 235.033025 57.26297 
L 238.083028 61.665742 
L 241.133032 53.92381 
L 244.183035 52.96318 
L 247.233039 52.107938 
" style="fill:none;stroke:#ffe600;stroke-linecap:square;stroke-width:1.5;"/>
    <defs>
     <path d="M 0 3 
C 0.795609 3 1.55874 2.683901 2.12132 2.12132 
C 2.683901 1.55874 3 0.795609 3 0 
C 3 -0.795609 2.683901 -1.55874 2.12132 -2.12132 
C 1.55874 -2.683901 0.795609 -3 0 -3 
C -0.795609 -3 -1.55874 -2.683901 -2.12132 -2.12132 
C -2.683901 -1.55874 -3 -0.795609 -3 0 
C -3 0.795609 -2.683901 1.55874 -2.12132 2.12132 
C -1.55874 2.683901 -0.795609 3 0 3 
z
" id="me43f3426b7" style="stroke:#ffe600;"/>
    </defs>
    <g clip-path="url(#pd5e36258de)">
     <use style="fill:#ffe600;stroke:#ffe600;" x="64.23283" xlink:href="#me43f3426b7" y="134.782539"/>
     <use style="fill:#ffe600;stroke:#ffe600;" x="67.282833" xlink:href="#me43f3426b7" y="125.161778"/>
     <use style="fill:#ffe600;stroke:#ffe600;" x="70.332837" xlink:href="#me43f3426b7" y="127.556053"/>
     <use style="fill:#ffe600;stroke:#ffe600;" x="73.38284" xlink:href="#me43f3426b7" y="118.468731"/>
     <use style="fill:#ffe600;stroke:#ffe600;" x="76.432844" xlink:href="#me43f3426b7" y="104.13746"/>
     <use style="fill:#ffe600;stroke:#ffe600;" x="79.482847" xlink:href="#me43f3426b7" y="101.625183"/>
     <use style="fill:#ffe600;stroke:#ffe600;" x="82.532851" xlink:href="#me43f3426b7" y="108.819107"/>
     <use style="fill:#ffe600;stroke:#ffe600;" x="85.582854" xlink:href="#me43f3426b7" y="94.064174"/>
     <use style="fill:#ffe600;stroke:#ffe600;" x="88.632858" xlink:href="#me43f3426b7" y="97.860154"/>
     <use style="fill:#ffe600;stroke:#ffe600;" x="91.682861" xlink:href="#me43f3426b7" y="81.362321"/>
     <use style="fill:#ffe600;stroke:#ffe600;" x="94.732865" xlink:href="#me43f3426b7" y="97.122526"/>
     <use style="fill:#ffe600;stroke:#ffe600;" x="97.782868" xlink:href="#me43f3426b7" y="97.728254"/>
     <use style="fill:#ffe600;stroke:#ffe600;" x="100.832872" xlink:href="#me43f3426b7" y="123.286583"/>
     <use style="fill:#ffe600;stroke:#ffe600;" x="103.882875" xlink:href="#me43f3426b7" y="105.511342"/>
     <use style="fill:#ffe600;stroke:#ffe600;" x="106.932879" xlink:href="#me43f3426b7" y="95.040849"/>
     <use style="fill:#ffe600;stroke:#ffe600;" x="109.982882" xlink:href="#me43f3426b7" y="100.307338"/>
     <use style="fill:#ffe600;stroke:#ffe600;" x="113.032886" xlink:href="#me43f3426b7" y="84.225991"/>
     <use style="fill:#ffe600;stroke:#ffe600;" x="116.082889" xlink:href="#me43f3426b7" y="92.130942"/>
     <use style="fill:#ffe600;stroke:#ffe600;" x="119.132893" xlink:href="#me43f3426b7" y="71.132338"/>
     <use style="fill:#ffe600;stroke:#ffe600;" x="122.182896" xlink:href="#me43f3426b7" y="83.592579"/>
     <use style="fill:#ffe600;stroke:#ffe600;" x="125.232899" xlink:href="#me43f3426b7" y="67.895316"/>
     <use style="fill:#ffe600;stroke:#ffe600;" x="128.282903" xlink:href="#me43f3426b7" y="86.426271"/>
     <use style="fill:#ffe600;stroke:#ffe600;" x="131.332906" xlink:href="#me43f3426b7" y="69.922946"/>
     <use style="fill:#ffe600;stroke:#ffe600;" x="134.38291" xlink:href="#me43f3426b7" y="76.611141"/>
     <use style="fill:#ffe600;stroke:#ffe600;" x="137.432913" xlink:href="#me43f3426b7" y="79.556363"/>
     <use style="fill:#ffe600;stroke:#ffe600;" x="140.482917" xlink:href="#me43f3426b7" y="87.647243"/>
     <use style="fill:#ffe600;stroke:#ffe600;" x="143.53292" xlink:href="#me43f3426b7" y="97.406604"/>
     <use style="fill:#ffe600;stroke:#ffe600;" x="146.582924" xlink:href="#me43f3426b7" y="120.617907"/>
     <use style="fill:#ffe600;stroke:#ffe600;" x="149.632927" xlink:href="#me43f3426b7" y="119.186688"/>
     <use style="fill:#ffe600;stroke:#ffe600;" x="152.682931" xlink:href="#me43f3426b7" y="114.515151"/>
     <use style="fill:#ffe600;stroke:#ffe600;" x="155.732934" xlink:href="#me43f3426b7" y="127.83849"/>
     <use style="fill:#ffe600;stroke:#ffe600;" x="158.782938" xlink:href="#me43f3426b7" y="124.803784"/>
     <use style="fill:#ffe600;stroke:#ffe600;" x="161.832941" xlink:href="#me43f3426b7" y="104.864196"/>
     <use style="fill:#ffe600;stroke:#ffe600;" x="164.882945" xlink:href="#me43f3426b7" y="116.782358"/>
     <use style="fill:#ffe600;stroke:#ffe600;" x="167.932948" xlink:href="#me43f3426b7" y="111.481588"/>
     <use style="fill:#ffe600;stroke:#ffe600;" x="170.982952" xlink:href="#me43f3426b7" y="93.282916"/>
     <use style="fill:#ffe600;stroke:#ffe600;" x="174.032955" xlink:href="#me43f3426b7" y="103.930159"/>
     <use style="fill:#ffe600;stroke:#ffe600;" x="177.082959" xlink:href="#me43f3426b7" y="125.734005"/>
     <use style="fill:#ffe600;stroke:#ffe600;" x="180.132962" xlink:href="#me43f3426b7" y="148.001216"/>
     <use style="fill:#ffe600;stroke:#ffe600;" x="183.182966" xlink:href="#me43f3426b7" y="103.842061"/>
     <use style="fill:#ffe600;stroke:#ffe600;" x="186.232969" xlink:href="#me43f3426b7" y="104.30848"/>
     <use style="fill:#ffe600;stroke:#ffe600;" x="189.282973" xlink:href="#me43f3426b7" y="86.300247"/>
     <use style="fill:#ffe600;stroke:#ffe600;" x="192.332976" xlink:href="#me43f3426b7" y="96.098732"/>
     <use style="fill:#ffe600;stroke:#ffe600;" x="195.38298" xlink:href="#me43f3426b7" y="95.397112"/>
     <use style="fill:#ffe600;stroke:#ffe600;" x="198.432983" xlink:href="#me43f3426b7" y="95.923407"/>
     <use style="fill:#ffe600;stroke:#ffe600;" x="201.482986" xlink:href="#me43f3426b7" y="87.51441"/>
     <use style="fill:#ffe600;stroke:#ffe600;" x="204.53299" xlink:href="#me43f3426b7" y="86.996641"/>
     <use style="fill:#ffe600;stroke:#ffe600;" x="207.582993" xlink:href="#me43f3426b7" y="89.208874"/>
     <use style="fill:#ffe600;stroke:#ffe600;" x="210.632997" xlink:href="#me43f3426b7" y="83.946155"/>
     <use style="fill:#ffe600;stroke:#ffe600;" x="213.683" xlink:href="#me43f3426b7" y="84.337096"/>
     <use style="fill:#ffe600;stroke:#ffe600;" x="216.733004" xlink:href="#me43f3426b7" y="79.793415"/>
     <use style="fill:#ffe600;stroke:#ffe600;" x="219.783007" xlink:href="#me43f3426b7" y="73.330319"/>
     <use style="fill:#ffe600;stroke:#ffe600;" x="222.833011" xlink:href="#me43f3426b7" y="90.747913"/>
     <use style="fill:#ffe600;stroke:#ffe600;" x="225.883014" xlink:href="#me43f3426b7" y="65.212154"/>
     <use style="fill:#ffe600;stroke:#ffe600;" x="228.933018" xlink:href="#me43f3426b7" y="62.463492"/>
     <use style="fill:#ffe600;stroke:#ffe600;" x="231.983021" xlink:href="#me43f3426b7" y="68.251971"/>
     <use style="fill:#ffe600;stroke:#ffe600;" x="235.033025" xlink:href="#me43f3426b7" y="57.26297"/>
     <use style="fill:#ffe600;stroke:#ffe600;" x="238.083028" xlink:href="#me43f3426b7" y="61.665742"/>
     <use style="fill:#ffe600;stroke:#ffe600;" x="241.133032" xlink:href="#me43f3426b7" y="53.92381"/>
     <use style="fill:#ffe600;stroke:#ffe600;" x="244.183035" xlink:href="#me43f3426b7" y="52.96318"/>
     <use style="fill:#ffe600;stroke:#ffe600;" x="247.233039" xlink:href="#me43f3426b7" y="52.107938"/>
    </g>
   </g>
   <g id="line2d_27">
    <path clip-path="url(#pd5e36258de)" d="M 67.282833 213.800898 
L 70.332837 176.12523 
L 73.38284 128.891778 
L 76.432844 100.919592 
L 79.482847 103.484159 
L 82.532851 72.264255 
L 85.582854 103.683207 
L 88.632858 79.344499 
L 91.682861 76.219373 
L 94.732865 110.45091 
L 97.782868 93.000147 
L 100.832872 126.116212 
L 103.882875 100.575074 
L 106.932879 118.751159 
L 109.982882 100.960237 
L 113.032886 81.811913 
L 116.082889 65.404363 
L 119.132893 79.98226 
L 122.182896 95.925672 
L 125.232899 121.500939 
L 128.282903 118.663849 
L 131.332906 66.85615 
L 134.38291 58.761416 
L 137.432913 86.736137 
L 140.482917 84.689557 
L 143.53292 88.516555 
L 146.582924 123.191146 
L 149.632927 140.016993 
L 152.682931 124.994434 
L 155.732934 144.998154 
L 158.782938 140.225827 
L 161.832941 145.012051 
L 167.932948 106.821694 
L 170.982952 101.072307 
L 174.032955 98.013932 
L 180.132962 154.514929 
L 183.182966 99.103598 
L 186.232969 105.459167 
L 189.282973 92.058422 
L 192.332976 91.902116 
L 195.38298 94.155836 
L 198.432983 127.531926 
L 201.482986 91.122282 
L 204.53299 84.63719 
L 207.582993 85.53838 
L 210.632997 62.441232 
L 213.683 77.223872 
L 216.733004 85.046364 
L 219.783007 79.053824 
L 222.833011 89.448443 
L 225.883014 62.265927 
L 228.933018 61.124544 
L 231.983021 48.99788 
L 235.033025 65.053367 
L 238.083028 46.241419 
L 241.133032 31.436352 
L 244.183035 67.859618 
L 247.233039 43.952919 
" style="fill:none;stroke:#800000;stroke-linecap:square;stroke-width:1.5;"/>
    <defs>
     <path d="M 0 3 
C 0.795609 3 1.55874 2.683901 2.12132 2.12132 
C 2.683901 1.55874 3 0.795609 3 0 
C 3 -0.795609 2.683901 -1.55874 2.12132 -2.12132 
C 1.55874 -2.683901 0.795609 -3 0 -3 
C -0.795609 -3 -1.55874 -2.683901 -2.12132 -2.12132 
C -2.683901 -1.55874 -3 -0.795609 -3 0 
C -3 0.795609 -2.683901 1.55874 -2.12132 2.12132 
C -1.55874 2.683901 -0.795609 3 0 3 
z
" id="mbe8414a304" style="stroke:#800000;"/>
    </defs>
    <g clip-path="url(#pd5e36258de)">
     <use style="fill:#800000;stroke:#800000;" x="67.282833" xlink:href="#mbe8414a304" y="213.800898"/>
     <use style="fill:#800000;stroke:#800000;" x="70.332837" xlink:href="#mbe8414a304" y="176.12523"/>
     <use style="fill:#800000;stroke:#800000;" x="73.38284" xlink:href="#mbe8414a304" y="128.891778"/>
     <use style="fill:#800000;stroke:#800000;" x="76.432844" xlink:href="#mbe8414a304" y="100.919592"/>
     <use style="fill:#800000;stroke:#800000;" x="79.482847" xlink:href="#mbe8414a304" y="103.484159"/>
     <use style="fill:#800000;stroke:#800000;" x="82.532851" xlink:href="#mbe8414a304" y="72.264255"/>
     <use style="fill:#800000;stroke:#800000;" x="85.582854" xlink:href="#mbe8414a304" y="103.683207"/>
     <use style="fill:#800000;stroke:#800000;" x="88.632858" xlink:href="#mbe8414a304" y="79.344499"/>
     <use style="fill:#800000;stroke:#800000;" x="91.682861" xlink:href="#mbe8414a304" y="76.219373"/>
     <use style="fill:#800000;stroke:#800000;" x="94.732865" xlink:href="#mbe8414a304" y="110.45091"/>
     <use style="fill:#800000;stroke:#800000;" x="97.782868" xlink:href="#mbe8414a304" y="93.000147"/>
     <use style="fill:#800000;stroke:#800000;" x="100.832872" xlink:href="#mbe8414a304" y="126.116212"/>
     <use style="fill:#800000;stroke:#800000;" x="103.882875" xlink:href="#mbe8414a304" y="100.575074"/>
     <use style="fill:#800000;stroke:#800000;" x="106.932879" xlink:href="#mbe8414a304" y="118.751159"/>
     <use style="fill:#800000;stroke:#800000;" x="109.982882" xlink:href="#mbe8414a304" y="100.960237"/>
     <use style="fill:#800000;stroke:#800000;" x="113.032886" xlink:href="#mbe8414a304" y="81.811913"/>
     <use style="fill:#800000;stroke:#800000;" x="116.082889" xlink:href="#mbe8414a304" y="65.404363"/>
     <use style="fill:#800000;stroke:#800000;" x="119.132893" xlink:href="#mbe8414a304" y="79.98226"/>
     <use style="fill:#800000;stroke:#800000;" x="122.182896" xlink:href="#mbe8414a304" y="95.925672"/>
     <use style="fill:#800000;stroke:#800000;" x="125.232899" xlink:href="#mbe8414a304" y="121.500939"/>
     <use style="fill:#800000;stroke:#800000;" x="128.282903" xlink:href="#mbe8414a304" y="118.663849"/>
     <use style="fill:#800000;stroke:#800000;" x="131.332906" xlink:href="#mbe8414a304" y="66.85615"/>
     <use style="fill:#800000;stroke:#800000;" x="134.38291" xlink:href="#mbe8414a304" y="58.761416"/>
     <use style="fill:#800000;stroke:#800000;" x="137.432913" xlink:href="#mbe8414a304" y="86.736137"/>
     <use style="fill:#800000;stroke:#800000;" x="140.482917" xlink:href="#mbe8414a304" y="84.689557"/>
     <use style="fill:#800000;stroke:#800000;" x="143.53292" xlink:href="#mbe8414a304" y="88.516555"/>
     <use style="fill:#800000;stroke:#800000;" x="146.582924" xlink:href="#mbe8414a304" y="123.191146"/>
     <use style="fill:#800000;stroke:#800000;" x="149.632927" xlink:href="#mbe8414a304" y="140.016993"/>
     <use style="fill:#800000;stroke:#800000;" x="152.682931" xlink:href="#mbe8414a304" y="124.994434"/>
     <use style="fill:#800000;stroke:#800000;" x="155.732934" xlink:href="#mbe8414a304" y="144.998154"/>
     <use style="fill:#800000;stroke:#800000;" x="158.782938" xlink:href="#mbe8414a304" y="140.225827"/>
     <use style="fill:#800000;stroke:#800000;" x="161.832941" xlink:href="#mbe8414a304" y="145.012051"/>
     <use style="fill:#800000;stroke:#800000;" x="167.932948" xlink:href="#mbe8414a304" y="106.821694"/>
     <use style="fill:#800000;stroke:#800000;" x="170.982952" xlink:href="#mbe8414a304" y="101.072307"/>
     <use style="fill:#800000;stroke:#800000;" x="174.032955" xlink:href="#mbe8414a304" y="98.013932"/>
     <use style="fill:#800000;stroke:#800000;" x="180.132962" xlink:href="#mbe8414a304" y="154.514929"/>
     <use style="fill:#800000;stroke:#800000;" x="183.182966" xlink:href="#mbe8414a304" y="99.103598"/>
     <use style="fill:#800000;stroke:#800000;" x="186.232969" xlink:href="#mbe8414a304" y="105.459167"/>
     <use style="fill:#800000;stroke:#800000;" x="189.282973" xlink:href="#mbe8414a304" y="92.058422"/>
     <use style="fill:#800000;stroke:#800000;" x="192.332976" xlink:href="#mbe8414a304" y="91.902116"/>
     <use style="fill:#800000;stroke:#800000;" x="195.38298" xlink:href="#mbe8414a304" y="94.155836"/>
     <use style="fill:#800000;stroke:#800000;" x="198.432983" xlink:href="#mbe8414a304" y="127.531926"/>
     <use style="fill:#800000;stroke:#800000;" x="201.482986" xlink:href="#mbe8414a304" y="91.122282"/>
     <use style="fill:#800000;stroke:#800000;" x="204.53299" xlink:href="#mbe8414a304" y="84.63719"/>
     <use style="fill:#800000;stroke:#800000;" x="207.582993" xlink:href="#mbe8414a304" y="85.53838"/>
     <use style="fill:#800000;stroke:#800000;" x="210.632997" xlink:href="#mbe8414a304" y="62.441232"/>
     <use style="fill:#800000;stroke:#800000;" x="213.683" xlink:href="#mbe8414a304" y="77.223872"/>
     <use style="fill:#800000;stroke:#800000;" x="216.733004" xlink:href="#mbe8414a304" y="85.046364"/>
     <use style="fill:#800000;stroke:#800000;" x="219.783007" xlink:href="#mbe8414a304" y="79.053824"/>
     <use style="fill:#800000;stroke:#800000;" x="222.833011" xlink:href="#mbe8414a304" y="89.448443"/>
     <use style="fill:#800000;stroke:#800000;" x="225.883014" xlink:href="#mbe8414a304" y="62.265927"/>
     <use style="fill:#800000;stroke:#800000;" x="228.933018" xlink:href="#mbe8414a304" y="61.124544"/>
     <use style="fill:#800000;stroke:#800000;" x="231.983021" xlink:href="#mbe8414a304" y="48.99788"/>
     <use style="fill:#800000;stroke:#800000;" x="235.033025" xlink:href="#mbe8414a304" y="65.053367"/>
     <use style="fill:#800000;stroke:#800000;" x="238.083028" xlink:href="#mbe8414a304" y="46.241419"/>
     <use style="fill:#800000;stroke:#800000;" x="241.133032" xlink:href="#mbe8414a304" y="31.436352"/>
     <use style="fill:#800000;stroke:#800000;" x="244.183035" xlink:href="#mbe8414a304" y="67.859618"/>
     <use style="fill:#800000;stroke:#800000;" x="247.233039" xlink:href="#mbe8414a304" y="43.952919"/>
    </g>
   </g>
   <g id="patch_3">
    <path d="M 48.982813 222.919125 
L 48.982813 22.318125 
" style="fill:none;stroke:#000000;stroke-linecap:square;stroke-linejoin:miter;stroke-width:0.8;"/>
   </g>
   <g id="patch_4">
    <path d="M 262.483056 222.919125 
L 262.483056 22.318125 
" style="fill:none;stroke:#000000;stroke-linecap:square;stroke-linejoin:miter;stroke-width:0.8;"/>
   </g>
   <g id="patch_5">
    <path d="M 48.982812 222.919125 
L 262.483056 222.919125 
" style="fill:none;stroke:#000000;stroke-linecap:square;stroke-linejoin:miter;stroke-width:0.8;"/>
   </g>
   <g id="patch_6">
    <path d="M 48.982812 22.318125 
L 262.483056 22.318125 
" style="fill:none;stroke:#000000;stroke-linecap:square;stroke-linejoin:miter;stroke-width:0.8;"/>
   </g>
   <g id="text_26">
    <!-- Model-averaged 4-week-ahead forecasts -->
    <defs>
     <path d="M 9.8125 72.90625 
L 24.515625 72.90625 
L 43.109375 23.296875 
L 61.8125 72.90625 
L 76.515625 72.90625 
L 76.515625 0 
L 66.890625 0 
L 66.890625 64.015625 
L 48.09375 14.015625 
L 38.1875 14.015625 
L 19.390625 64.015625 
L 19.390625 0 
L 9.8125 0 
z
" id="DejaVuSans-77"/>
     <path d="M 4.203125 54.6875 
L 13.1875 54.6875 
L 24.421875 12.015625 
L 35.59375 54.6875 
L 46.1875 54.6875 
L 57.421875 12.015625 
L 68.609375 54.6875 
L 77.59375 54.6875 
L 63.28125 0 
L 52.6875 0 
L 40.921875 44.828125 
L 29.109375 0 
L 18.5 0 
z
" id="DejaVuSans-119"/>
     <path d="M 9.078125 75.984375 
L 18.109375 75.984375 
L 18.109375 31.109375 
L 44.921875 54.6875 
L 56.390625 54.6875 
L 27.390625 29.109375 
L 57.625 0 
L 45.90625 0 
L 18.109375 26.703125 
L 18.109375 0 
L 9.078125 0 
z
" id="DejaVuSans-107"/>
    </defs>
    <g transform="translate(33.409809 16.318125)scale(0.12 -0.12)">
     <use xlink:href="#DejaVuSans-77"/>
     <use x="86.279297" xlink:href="#DejaVuSans-111"/>
     <use x="147.460938" xlink:href="#DejaVuSans-100"/>
     <use x="210.9375" xlink:href="#DejaVuSans-101"/>
     <use x="272.460938" xlink:href="#DejaVuSans-108"/>
     <use x="300.244141" xlink:href="#DejaVuSans-45"/>
     <use x="336.328125" xlink:href="#DejaVuSans-97"/>
     <use x="397.607422" xlink:href="#DejaVuSans-118"/>
     <use x="456.787109" xlink:href="#DejaVuSans-101"/>
     <use x="518.310547" xlink:href="#DejaVuSans-114"/>
     <use x="559.423828" xlink:href="#DejaVuSans-97"/>
     <use x="620.703125" xlink:href="#DejaVuSans-103"/>
     <use x="684.179688" xlink:href="#DejaVuSans-101"/>
     <use x="745.703125" xlink:href="#DejaVuSans-100"/>
     <use x="809.179688" xlink:href="#DejaVuSans-32"/>
     <use x="840.966797" xlink:href="#DejaVuSans-52"/>
     <use x="904.589844" xlink:href="#DejaVuSans-45"/>
     <use x="940.673828" xlink:href="#DejaVuSans-119"/>
     <use x="1022.460938" xlink:href="#DejaVuSans-101"/>
     <use x="1083.984375" xlink:href="#DejaVuSans-101"/>
     <use x="1145.507812" xlink:href="#DejaVuSans-107"/>
     <use x="1203.417969" xlink:href="#DejaVuSans-45"/>
     <use x="1239.501953" xlink:href="#DejaVuSans-97"/>
     <use x="1300.78125" xlink:href="#DejaVuSans-104"/>
     <use x="1364.160156" xlink:href="#DejaVuSans-101"/>
     <use x="1425.683594" xlink:href="#DejaVuSans-97"/>
     <use x="1486.962891" xlink:href="#DejaVuSans-100"/>
     <use x="1550.439453" xlink:href="#DejaVuSans-32"/>
     <use x="1582.226562" xlink:href="#DejaVuSans-102"/>
     <use x="1617.431641" xlink:href="#DejaVuSans-111"/>
     <use x="1678.613281" xlink:href="#DejaVuSans-114"/>
     <use x="1717.476562" xlink:href="#DejaVuSans-101"/>
     <use x="1779" xlink:href="#DejaVuSans-99"/>
     <use x="1833.980469" xlink:href="#DejaVuSans-97"/>
     <use x="1895.259766" xlink:href="#DejaVuSans-115"/>
     <use x="1947.359375" xlink:href="#DejaVuSans-116"/>
     <use x="1986.568359" xlink:href="#DejaVuSans-115"/>
    </g>
   </g>
   <g id="legend_1">
    <g id="patch_7">
     <path d="M 55.982813 217.919125 
L 167.139063 217.919125 
Q 169.139063 217.919125 169.139063 215.919125 
L 169.139063 146.206625 
Q 169.139063 144.206625 167.139063 144.206625 
L 55.982813 144.206625 
Q 53.982813 144.206625 53.982813 146.206625 
L 53.982813 215.919125 
Q 53.982813 217.919125 55.982813 217.919125 
z
" style="fill:#ffffff;opacity:0.8;stroke:#cccccc;stroke-linejoin:miter;"/>
    </g>
    <g id="line2d_28">
     <path d="M 57.982813 152.305063 
L 77.982813 152.305063 
" style="fill:none;stroke:#000080;stroke-linecap:square;stroke-width:1.5;"/>
    </g>
    <g id="line2d_29">
     <g>
      <use style="fill:#000080;stroke:#000080;" x="67.982813" xlink:href="#me4cc8dfbf3" y="152.305063"/>
     </g>
    </g>
    <g id="text_27">
     <!-- compartmental -->
     <defs>
      <path d="M 18.109375 8.203125 
L 18.109375 -20.796875 
L 9.078125 -20.796875 
L 9.078125 54.6875 
L 18.109375 54.6875 
L 18.109375 46.390625 
Q 20.953125 51.265625 25.265625 53.625 
Q 29.59375 56 35.59375 56 
Q 45.5625 56 51.78125 48.09375 
Q 58.015625 40.1875 58.015625 27.296875 
Q 58.015625 14.40625 51.78125 6.484375 
Q 45.5625 -1.421875 35.59375 -1.421875 
Q 29.59375 -1.421875 25.265625 0.953125 
Q 20.953125 3.328125 18.109375 8.203125 
z
M 48.6875 27.296875 
Q 48.6875 37.203125 44.609375 42.84375 
Q 40.53125 48.484375 33.40625 48.484375 
Q 26.265625 48.484375 22.1875 42.84375 
Q 18.109375 37.203125 18.109375 27.296875 
Q 18.109375 17.390625 22.1875 11.75 
Q 26.265625 6.109375 33.40625 6.109375 
Q 40.53125 6.109375 44.609375 11.75 
Q 48.6875 17.390625 48.6875 27.296875 
z
" id="DejaVuSans-112"/>
     </defs>
     <g transform="translate(85.982813 155.805063)scale(0.1 -0.1)">
      <use xlink:href="#DejaVuSans-99"/>
      <use x="54.980469" xlink:href="#DejaVuSans-111"/>
      <use x="116.162109" xlink:href="#DejaVuSans-109"/>
      <use x="213.574219" xlink:href="#DejaVuSans-112"/>
      <use x="277.050781" xlink:href="#DejaVuSans-97"/>
      <use x="338.330078" xlink:href="#DejaVuSans-114"/>
      <use x="379.443359" xlink:href="#DejaVuSans-116"/>
      <use x="418.652344" xlink:href="#DejaVuSans-109"/>
      <use x="516.064453" xlink:href="#DejaVuSans-101"/>
      <use x="577.587891" xlink:href="#DejaVuSans-110"/>
      <use x="640.966797" xlink:href="#DejaVuSans-116"/>
      <use x="680.175781" xlink:href="#DejaVuSans-97"/>
      <use x="741.455078" xlink:href="#DejaVuSans-108"/>
     </g>
    </g>
    <g id="line2d_30">
     <path d="M 57.982813 170.983188 
L 77.982813 170.983188 
" style="fill:none;stroke:#00d4ff;stroke-linecap:square;stroke-width:1.5;"/>
    </g>
    <g id="line2d_31">
     <g>
      <use style="fill:#00d4ff;stroke:#00d4ff;" x="67.982813" xlink:href="#ma11bb38822" y="170.983188"/>
     </g>
    </g>
    <g id="text_28">
     <!-- metapopulation -->
     <g transform="translate(85.982813 174.483188)scale(0.1 -0.1)">
      <use xlink:href="#DejaVuSans-109"/>
      <use x="97.412109" xlink:href="#DejaVuSans-101"/>
      <use x="158.935547" xlink:href="#DejaVuSans-116"/>
      <use x="198.144531" xlink:href="#DejaVuSans-97"/>
      <use x="259.423828" xlink:href="#DejaVuSans-112"/>
      <use x="322.900391" xlink:href="#DejaVuSans-111"/>
      <use x="384.082031" xlink:href="#DejaVuSans-112"/>
      <use x="447.558594" xlink:href="#DejaVuSans-117"/>
      <use x="510.9375" xlink:href="#DejaVuSans-108"/>
      <use x="538.720703" xlink:href="#DejaVuSans-97"/>
      <use x="600" xlink:href="#DejaVuSans-116"/>
      <use x="639.208984" xlink:href="#DejaVuSans-105"/>
      <use x="666.992188" xlink:href="#DejaVuSans-111"/>
      <use x="728.173828" xlink:href="#DejaVuSans-110"/>
     </g>
    </g>
    <g id="line2d_32">
     <path d="M 57.982813 189.661313 
L 77.982813 189.661313 
" style="fill:none;stroke:#ffe600;stroke-linecap:square;stroke-width:1.5;"/>
    </g>
    <g id="line2d_33">
     <g>
      <use style="fill:#ffe600;stroke:#ffe600;" x="67.982813" xlink:href="#me43f3426b7" y="189.661313"/>
     </g>
    </g>
    <g id="text_29">
     <!-- stat&amp;prob -->
     <defs>
      <path d="M 24.3125 39.203125 
Q 19.875 35.25 17.796875 31.3125 
Q 15.71875 27.390625 15.71875 23.09375 
Q 15.71875 15.96875 20.890625 11.234375 
Q 26.078125 6.5 33.890625 6.5 
Q 38.53125 6.5 42.578125 8.03125 
Q 46.625 9.578125 50.203125 12.703125 
z
M 31.203125 44.671875 
L 56 19.28125 
Q 58.890625 23.640625 60.5 28.59375 
Q 62.109375 33.546875 62.40625 39.109375 
L 71.484375 39.109375 
Q 70.90625 32.671875 68.359375 26.359375 
Q 65.828125 20.0625 61.28125 13.921875 
L 74.90625 0 
L 62.59375 0 
L 55.609375 7.171875 
Q 50.53125 2.828125 44.96875 0.703125 
Q 39.40625 -1.421875 33.015625 -1.421875 
Q 21.234375 -1.421875 13.765625 5.296875 
Q 6.296875 12.015625 6.296875 22.515625 
Q 6.296875 28.765625 9.5625 34.25 
Q 12.84375 39.75 19.390625 44.578125 
Q 17.046875 47.65625 15.8125 50.703125 
Q 14.59375 53.765625 14.59375 56.6875 
Q 14.59375 64.59375 20.015625 69.40625 
Q 25.4375 74.21875 34.421875 74.21875 
Q 38.484375 74.21875 42.5 73.34375 
Q 46.53125 72.46875 50.6875 70.703125 
L 50.6875 61.8125 
Q 46.4375 64.109375 42.578125 65.296875 
Q 38.71875 66.5 35.40625 66.5 
Q 30.28125 66.5 27.078125 63.78125 
Q 23.875 61.078125 23.875 56.78125 
Q 23.875 54.296875 25.3125 51.78125 
Q 26.765625 49.265625 31.203125 44.671875 
z
" id="DejaVuSans-38"/>
      <path d="M 48.6875 27.296875 
Q 48.6875 37.203125 44.609375 42.84375 
Q 40.53125 48.484375 33.40625 48.484375 
Q 26.265625 48.484375 22.1875 42.84375 
Q 18.109375 37.203125 18.109375 27.296875 
Q 18.109375 17.390625 22.1875 11.75 
Q 26.265625 6.109375 33.40625 6.109375 
Q 40.53125 6.109375 44.609375 11.75 
Q 48.6875 17.390625 48.6875 27.296875 
z
M 18.109375 46.390625 
Q 20.953125 51.265625 25.265625 53.625 
Q 29.59375 56 35.59375 56 
Q 45.5625 56 51.78125 48.09375 
Q 58.015625 40.1875 58.015625 27.296875 
Q 58.015625 14.40625 51.78125 6.484375 
Q 45.5625 -1.421875 35.59375 -1.421875 
Q 29.59375 -1.421875 25.265625 0.953125 
Q 20.953125 3.328125 18.109375 8.203125 
L 18.109375 0 
L 9.078125 0 
L 9.078125 75.984375 
L 18.109375 75.984375 
z
" id="DejaVuSans-98"/>
     </defs>
     <g transform="translate(85.982813 193.161313)scale(0.1 -0.1)">
      <use xlink:href="#DejaVuSans-115"/>
      <use x="52.099609" xlink:href="#DejaVuSans-116"/>
      <use x="91.308594" xlink:href="#DejaVuSans-97"/>
      <use x="152.587891" xlink:href="#DejaVuSans-116"/>
      <use x="191.796875" xlink:href="#DejaVuSans-38"/>
      <use x="269.775391" xlink:href="#DejaVuSans-112"/>
      <use x="333.251953" xlink:href="#DejaVuSans-114"/>
      <use x="372.115234" xlink:href="#DejaVuSans-111"/>
      <use x="433.296875" xlink:href="#DejaVuSans-98"/>
     </g>
    </g>
    <g id="line2d_34">
     <path d="M 57.982813 208.339438 
L 77.982813 208.339438 
" style="fill:none;stroke:#800000;stroke-linecap:square;stroke-width:1.5;"/>
    </g>
    <g id="line2d_35">
     <g>
      <use style="fill:#800000;stroke:#800000;" x="67.982813" xlink:href="#mbe8414a304" y="208.339438"/>
     </g>
    </g>
    <g id="text_30">
     <!-- ensemble -->
     <g transform="translate(85.982813 211.839438)scale(0.1 -0.1)">
      <use xlink:href="#DejaVuSans-101"/>
      <use x="61.523438" xlink:href="#DejaVuSans-110"/>
      <use x="124.902344" xlink:href="#DejaVuSans-115"/>
      <use x="177.001953" xlink:href="#DejaVuSans-101"/>
      <use x="238.525391" xlink:href="#DejaVuSans-109"/>
      <use x="335.9375" xlink:href="#DejaVuSans-98"/>
      <use x="399.414062" xlink:href="#DejaVuSans-108"/>
      <use x="427.197266" xlink:href="#DejaVuSans-101"/>
     </g>
    </g>
   </g>
  </g>
 </g>
 <defs>
  <clipPath id="pd5e36258de">
   <rect height="200.601" width="213.500244" x="48.982813" y="22.318125"/>
  </clipPath>
 </defs>
</svg>
