<?xml version="1.0" encoding="utf-8" standalone="no"?>
<!DOCTYPE svg PUBLIC "-//W3C//DTD SVG 1.1//EN"
  "http://www.w3.org/Graphics/SVG/1.1/DTD/svg11.dtd">
<!-- Created with matplotlib (https://matplotlib.org/) -->
<svg height="287.185628pt" version="1.1" viewBox="0 0 287.877245 287.185628" width="287.877245pt" xmlns="http://www.w3.org/2000/svg" xmlns:xlink="http://www.w3.org/1999/xlink">
 <defs>
  <style type="text/css">
*{stroke-linecap:butt;stroke-linejoin:round;}
  </style>
 </defs>
 <g id="figure_1">
  <g id="patch_1">
   <path d="M 0 287.185628 
L 287.877245 287.185628 
L 287.877245 0 
L 0 0 
z
" style="fill:#ffffff;"/>
  </g>
  <g id="axes_1">
   <g id="patch_2">
    <path d="M 48.982813 222.919125 
L 262.483056 222.919125 
L 262.483056 22.318125 
L 48.982813 22.318125 
z
" style="fill:#ffffff;"/>
   </g>
   <g id="matplotlib.axis_1">
    <g id="xtick_1">
     <g id="line2d_1">
      <defs>
       <path d="M 0 0 
L 0 3.5 
" id="m8fc970734c" style="stroke:#000000;stroke-width:0.8;"/>
      </defs>
      <g>
       <use style="stroke:#000000;stroke-width:0.8;" x="48.982813" xlink:href="#m8fc970734c" y="222.919125"/>
      </g>
     </g>
     <g id="text_1">
      <!-- 2020-04 -->
      <defs>
       <path d="M 19.1875 8.296875 
L 53.609375 8.296875 
L 53.609375 0 
L 7.328125 0 
L 7.328125 8.296875 
Q 12.9375 14.109375 22.625 23.890625 
Q 32.328125 33.6875 34.8125 36.53125 
Q 39.546875 41.84375 41.421875 45.53125 
Q 43.3125 49.21875 43.3125 52.78125 
Q 43.3125 58.59375 39.234375 62.25 
Q 35.15625 65.921875 28.609375 65.921875 
Q 23.96875 65.921875 18.8125 64.3125 
Q 13.671875 62.703125 7.8125 59.421875 
L 7.8125 69.390625 
Q 13.765625 71.78125 18.9375 73 
Q 24.125 74.21875 28.421875 74.21875 
Q 39.75 74.21875 46.484375 68.546875 
Q 53.21875 62.890625 53.21875 53.421875 
Q 53.21875 48.921875 51.53125 44.890625 
Q 49.859375 40.875 45.40625 35.40625 
Q 44.1875 33.984375 37.640625 27.21875 
Q 31.109375 20.453125 19.1875 8.296875 
z
" id="DejaVuSans-50"/>
       <path d="M 31.78125 66.40625 
Q 24.171875 66.40625 20.328125 58.90625 
Q 16.5 51.421875 16.5 36.375 
Q 16.5 21.390625 20.328125 13.890625 
Q 24.171875 6.390625 31.78125 6.390625 
Q 39.453125 6.390625 43.28125 13.890625 
Q 47.125 21.390625 47.125 36.375 
Q 47.125 51.421875 43.28125 58.90625 
Q 39.453125 66.40625 31.78125 66.40625 
z
M 31.78125 74.21875 
Q 44.046875 74.21875 50.515625 64.515625 
Q 56.984375 54.828125 56.984375 36.375 
Q 56.984375 17.96875 50.515625 8.265625 
Q 44.046875 -1.421875 31.78125 -1.421875 
Q 19.53125 -1.421875 13.0625 8.265625 
Q 6.59375 17.96875 6.59375 36.375 
Q 6.59375 54.828125 13.0625 64.515625 
Q 19.53125 74.21875 31.78125 74.21875 
z
" id="DejaVuSans-48"/>
       <path d="M 4.890625 31.390625 
L 31.203125 31.390625 
L 31.203125 23.390625 
L 4.890625 23.390625 
z
" id="DejaVuSans-45"/>
       <path d="M 37.796875 64.3125 
L 12.890625 25.390625 
L 37.796875 25.390625 
z
M 35.203125 72.90625 
L 47.609375 72.90625 
L 47.609375 25.390625 
L 58.015625 25.390625 
L 58.015625 17.1875 
L 47.609375 17.1875 
L 47.609375 0 
L 37.796875 0 
L 37.796875 17.1875 
L 4.890625 17.1875 
L 4.890625 26.703125 
z
" id="DejaVuSans-52"/>
      </defs>
      <g transform="translate(36.16153 264.836942)rotate(-45)scale(0.1 -0.1)">
       <use xlink:href="#DejaVuSans-50"/>
       <use x="63.623047" xlink:href="#DejaVuSans-48"/>
       <use x="127.246094" xlink:href="#DejaVuSans-50"/>
       <use x="190.869141" xlink:href="#DejaVuSans-48"/>
       <use x="254.492188" xlink:href="#DejaVuSans-45"/>
       <use x="290.576172" xlink:href="#DejaVuSans-48"/>
       <use x="354.199219" xlink:href="#DejaVuSans-52"/>
      </g>
     </g>
    </g>
    <g id="xtick_2">
     <g id="line2d_2">
      <g>
       <use style="stroke:#000000;stroke-width:0.8;" x="62.982828" xlink:href="#m8fc970734c" y="222.919125"/>
      </g>
     </g>
     <g id="text_2">
      <!-- 2020-05 -->
      <defs>
       <path d="M 10.796875 72.90625 
L 49.515625 72.90625 
L 49.515625 64.59375 
L 19.828125 64.59375 
L 19.828125 46.734375 
Q 21.96875 47.46875 24.109375 47.828125 
Q 26.265625 48.1875 28.421875 48.1875 
Q 40.625 48.1875 47.75 41.5 
Q 54.890625 34.8125 54.890625 23.390625 
Q 54.890625 11.625 47.5625 5.09375 
Q 40.234375 -1.421875 26.90625 -1.421875 
Q 22.3125 -1.421875 17.546875 -0.640625 
Q 12.796875 0.140625 7.71875 1.703125 
L 7.71875 11.625 
Q 12.109375 9.234375 16.796875 8.0625 
Q 21.484375 6.890625 26.703125 6.890625 
Q 35.15625 6.890625 40.078125 11.328125 
Q 45.015625 15.765625 45.015625 23.390625 
Q 45.015625 31 40.078125 35.4375 
Q 35.15625 39.890625 26.703125 39.890625 
Q 22.75 39.890625 18.8125 39.015625 
Q 14.890625 38.140625 10.796875 36.28125 
z
" id="DejaVuSans-53"/>
      </defs>
      <g transform="translate(50.161546 264.836942)rotate(-45)scale(0.1 -0.1)">
       <use xlink:href="#DejaVuSans-50"/>
       <use x="63.623047" xlink:href="#DejaVuSans-48"/>
       <use x="127.246094" xlink:href="#DejaVuSans-50"/>
       <use x="190.869141" xlink:href="#DejaVuSans-48"/>
       <use x="254.492188" xlink:href="#DejaVuSans-45"/>
       <use x="290.576172" xlink:href="#DejaVuSans-48"/>
       <use x="354.199219" xlink:href="#DejaVuSans-53"/>
      </g>
     </g>
    </g>
    <g id="xtick_3">
     <g id="line2d_3">
      <g>
       <use style="stroke:#000000;stroke-width:0.8;" x="80.482848" xlink:href="#m8fc970734c" y="222.919125"/>
      </g>
     </g>
     <g id="text_3">
      <!-- 2020-06 -->
      <defs>
       <path d="M 33.015625 40.375 
Q 26.375 40.375 22.484375 35.828125 
Q 18.609375 31.296875 18.609375 23.390625 
Q 18.609375 15.53125 22.484375 10.953125 
Q 26.375 6.390625 33.015625 6.390625 
Q 39.65625 6.390625 43.53125 10.953125 
Q 47.40625 15.53125 47.40625 23.390625 
Q 47.40625 31.296875 43.53125 35.828125 
Q 39.65625 40.375 33.015625 40.375 
z
M 52.59375 71.296875 
L 52.59375 62.3125 
Q 48.875 64.0625 45.09375 64.984375 
Q 41.3125 65.921875 37.59375 65.921875 
Q 27.828125 65.921875 22.671875 59.328125 
Q 17.53125 52.734375 16.796875 39.40625 
Q 19.671875 43.65625 24.015625 45.921875 
Q 28.375 48.1875 33.59375 48.1875 
Q 44.578125 48.1875 50.953125 41.515625 
Q 57.328125 34.859375 57.328125 23.390625 
Q 57.328125 12.15625 50.6875 5.359375 
Q 44.046875 -1.421875 33.015625 -1.421875 
Q 20.359375 -1.421875 13.671875 8.265625 
Q 6.984375 17.96875 6.984375 36.375 
Q 6.984375 53.65625 15.1875 63.9375 
Q 23.390625 74.21875 37.203125 74.21875 
Q 40.921875 74.21875 44.703125 73.484375 
Q 48.484375 72.75 52.59375 71.296875 
z
" id="DejaVuSans-54"/>
      </defs>
      <g transform="translate(67.661566 264.836942)rotate(-45)scale(0.1 -0.1)">
       <use xlink:href="#DejaVuSans-50"/>
       <use x="63.623047" xlink:href="#DejaVuSans-48"/>
       <use x="127.246094" xlink:href="#DejaVuSans-50"/>
       <use x="190.869141" xlink:href="#DejaVuSans-48"/>
       <use x="254.492188" xlink:href="#DejaVuSans-45"/>
       <use x="290.576172" xlink:href="#DejaVuSans-48"/>
       <use x="354.199219" xlink:href="#DejaVuSans-54"/>
      </g>
     </g>
    </g>
    <g id="xtick_4">
     <g id="line2d_4">
      <g>
       <use style="stroke:#000000;stroke-width:0.8;" x="94.482864" xlink:href="#m8fc970734c" y="222.919125"/>
      </g>
     </g>
     <g id="text_4">
      <!-- 2020-07 -->
      <defs>
       <path d="M 8.203125 72.90625 
L 55.078125 72.90625 
L 55.078125 68.703125 
L 28.609375 0 
L 18.3125 0 
L 43.21875 64.59375 
L 8.203125 64.59375 
z
" id="DejaVuSans-55"/>
      </defs>
      <g transform="translate(81.661582 264.836942)rotate(-45)scale(0.1 -0.1)">
       <use xlink:href="#DejaVuSans-50"/>
       <use x="63.623047" xlink:href="#DejaVuSans-48"/>
       <use x="127.246094" xlink:href="#DejaVuSans-50"/>
       <use x="190.869141" xlink:href="#DejaVuSans-48"/>
       <use x="254.492188" xlink:href="#DejaVuSans-45"/>
       <use x="290.576172" xlink:href="#DejaVuSans-48"/>
       <use x="354.199219" xlink:href="#DejaVuSans-55"/>
      </g>
     </g>
    </g>
    <g id="xtick_5">
     <g id="line2d_5">
      <g>
       <use style="stroke:#000000;stroke-width:0.8;" x="108.48288" xlink:href="#m8fc970734c" y="222.919125"/>
      </g>
     </g>
     <g id="text_5">
      <!-- 2020-08 -->
      <defs>
       <path d="M 31.78125 34.625 
Q 24.75 34.625 20.71875 30.859375 
Q 16.703125 27.09375 16.703125 20.515625 
Q 16.703125 13.921875 20.71875 10.15625 
Q 24.75 6.390625 31.78125 6.390625 
Q 38.8125 6.390625 42.859375 10.171875 
Q 46.921875 13.96875 46.921875 20.515625 
Q 46.921875 27.09375 42.890625 30.859375 
Q 38.875 34.625 31.78125 34.625 
z
M 21.921875 38.8125 
Q 15.578125 40.375 12.03125 44.71875 
Q 8.5 49.078125 8.5 55.328125 
Q 8.5 64.0625 14.71875 69.140625 
Q 20.953125 74.21875 31.78125 74.21875 
Q 42.671875 74.21875 48.875 69.140625 
Q 55.078125 64.0625 55.078125 55.328125 
Q 55.078125 49.078125 51.53125 44.71875 
Q 48 40.375 41.703125 38.8125 
Q 48.828125 37.15625 52.796875 32.3125 
Q 56.78125 27.484375 56.78125 20.515625 
Q 56.78125 9.90625 50.3125 4.234375 
Q 43.84375 -1.421875 31.78125 -1.421875 
Q 19.734375 -1.421875 13.25 4.234375 
Q 6.78125 9.90625 6.78125 20.515625 
Q 6.78125 27.484375 10.78125 32.3125 
Q 14.796875 37.15625 21.921875 38.8125 
z
M 18.3125 54.390625 
Q 18.3125 48.734375 21.84375 45.5625 
Q 25.390625 42.390625 31.78125 42.390625 
Q 38.140625 42.390625 41.71875 45.5625 
Q 45.3125 48.734375 45.3125 54.390625 
Q 45.3125 60.0625 41.71875 63.234375 
Q 38.140625 66.40625 31.78125 66.40625 
Q 25.390625 66.40625 21.84375 63.234375 
Q 18.3125 60.0625 18.3125 54.390625 
z
" id="DejaVuSans-56"/>
      </defs>
      <g transform="translate(95.661598 264.836942)rotate(-45)scale(0.1 -0.1)">
       <use xlink:href="#DejaVuSans-50"/>
       <use x="63.623047" xlink:href="#DejaVuSans-48"/>
       <use x="127.246094" xlink:href="#DejaVuSans-50"/>
       <use x="190.869141" xlink:href="#DejaVuSans-48"/>
       <use x="254.492188" xlink:href="#DejaVuSans-45"/>
       <use x="290.576172" xlink:href="#DejaVuSans-48"/>
       <use x="354.199219" xlink:href="#DejaVuSans-56"/>
      </g>
     </g>
    </g>
    <g id="xtick_6">
     <g id="line2d_6">
      <g>
       <use style="stroke:#000000;stroke-width:0.8;" x="125.9829" xlink:href="#m8fc970734c" y="222.919125"/>
      </g>
     </g>
     <g id="text_6">
      <!-- 2020-09 -->
      <defs>
       <path d="M 10.984375 1.515625 
L 10.984375 10.5 
Q 14.703125 8.734375 18.5 7.8125 
Q 22.3125 6.890625 25.984375 6.890625 
Q 35.75 6.890625 40.890625 13.453125 
Q 46.046875 20.015625 46.78125 33.40625 
Q 43.953125 29.203125 39.59375 26.953125 
Q 35.25 24.703125 29.984375 24.703125 
Q 19.046875 24.703125 12.671875 31.3125 
Q 6.296875 37.9375 6.296875 49.421875 
Q 6.296875 60.640625 12.9375 67.421875 
Q 19.578125 74.21875 30.609375 74.21875 
Q 43.265625 74.21875 49.921875 64.515625 
Q 56.59375 54.828125 56.59375 36.375 
Q 56.59375 19.140625 48.40625 8.859375 
Q 40.234375 -1.421875 26.421875 -1.421875 
Q 22.703125 -1.421875 18.890625 -0.6875 
Q 15.09375 0.046875 10.984375 1.515625 
z
M 30.609375 32.421875 
Q 37.25 32.421875 41.125 36.953125 
Q 45.015625 41.5 45.015625 49.421875 
Q 45.015625 57.28125 41.125 61.84375 
Q 37.25 66.40625 30.609375 66.40625 
Q 23.96875 66.40625 20.09375 61.84375 
Q 16.21875 57.28125 16.21875 49.421875 
Q 16.21875 41.5 20.09375 36.953125 
Q 23.96875 32.421875 30.609375 32.421875 
z
" id="DejaVuSans-57"/>
      </defs>
      <g transform="translate(113.161618 264.836942)rotate(-45)scale(0.1 -0.1)">
       <use xlink:href="#DejaVuSans-50"/>
       <use x="63.623047" xlink:href="#DejaVuSans-48"/>
       <use x="127.246094" xlink:href="#DejaVuSans-50"/>
       <use x="190.869141" xlink:href="#DejaVuSans-48"/>
       <use x="254.492188" xlink:href="#DejaVuSans-45"/>
       <use x="290.576172" xlink:href="#DejaVuSans-48"/>
       <use x="354.199219" xlink:href="#DejaVuSans-57"/>
      </g>
     </g>
    </g>
    <g id="xtick_7">
     <g id="line2d_7">
      <g>
       <use style="stroke:#000000;stroke-width:0.8;" x="139.982916" xlink:href="#m8fc970734c" y="222.919125"/>
      </g>
     </g>
     <g id="text_7">
      <!-- 2020-10 -->
      <defs>
       <path d="M 12.40625 8.296875 
L 28.515625 8.296875 
L 28.515625 63.921875 
L 10.984375 60.40625 
L 10.984375 69.390625 
L 28.421875 72.90625 
L 38.28125 72.90625 
L 38.28125 8.296875 
L 54.390625 8.296875 
L 54.390625 0 
L 12.40625 0 
z
" id="DejaVuSans-49"/>
      </defs>
      <g transform="translate(127.161634 264.836942)rotate(-45)scale(0.1 -0.1)">
       <use xlink:href="#DejaVuSans-50"/>
       <use x="63.623047" xlink:href="#DejaVuSans-48"/>
       <use x="127.246094" xlink:href="#DejaVuSans-50"/>
       <use x="190.869141" xlink:href="#DejaVuSans-48"/>
       <use x="254.492188" xlink:href="#DejaVuSans-45"/>
       <use x="290.576172" xlink:href="#DejaVuSans-49"/>
       <use x="354.199219" xlink:href="#DejaVuSans-48"/>
      </g>
     </g>
    </g>
    <g id="xtick_8">
     <g id="line2d_8">
      <g>
       <use style="stroke:#000000;stroke-width:0.8;" x="157.482936" xlink:href="#m8fc970734c" y="222.919125"/>
      </g>
     </g>
     <g id="text_8">
      <!-- 2020-11 -->
      <g transform="translate(144.661654 264.836942)rotate(-45)scale(0.1 -0.1)">
       <use xlink:href="#DejaVuSans-50"/>
       <use x="63.623047" xlink:href="#DejaVuSans-48"/>
       <use x="127.246094" xlink:href="#DejaVuSans-50"/>
       <use x="190.869141" xlink:href="#DejaVuSans-48"/>
       <use x="254.492188" xlink:href="#DejaVuSans-45"/>
       <use x="290.576172" xlink:href="#DejaVuSans-49"/>
       <use x="354.199219" xlink:href="#DejaVuSans-49"/>
      </g>
     </g>
    </g>
    <g id="xtick_9">
     <g id="line2d_9">
      <g>
       <use style="stroke:#000000;stroke-width:0.8;" x="171.482952" xlink:href="#m8fc970734c" y="222.919125"/>
      </g>
     </g>
     <g id="text_9">
      <!-- 2020-12 -->
      <g transform="translate(158.66167 264.836942)rotate(-45)scale(0.1 -0.1)">
       <use xlink:href="#DejaVuSans-50"/>
       <use x="63.623047" xlink:href="#DejaVuSans-48"/>
       <use x="127.246094" xlink:href="#DejaVuSans-50"/>
       <use x="190.869141" xlink:href="#DejaVuSans-48"/>
       <use x="254.492188" xlink:href="#DejaVuSans-45"/>
       <use x="290.576172" xlink:href="#DejaVuSans-49"/>
       <use x="354.199219" xlink:href="#DejaVuSans-50"/>
      </g>
     </g>
    </g>
    <g id="xtick_10">
     <g id="line2d_10">
      <g>
       <use style="stroke:#000000;stroke-width:0.8;" x="185.482968" xlink:href="#m8fc970734c" y="222.919125"/>
      </g>
     </g>
     <g id="text_10">
      <!-- 2021-01 -->
      <g transform="translate(172.661686 264.836942)rotate(-45)scale(0.1 -0.1)">
       <use xlink:href="#DejaVuSans-50"/>
       <use x="63.623047" xlink:href="#DejaVuSans-48"/>
       <use x="127.246094" xlink:href="#DejaVuSans-50"/>
       <use x="190.869141" xlink:href="#DejaVuSans-49"/>
       <use x="254.492188" xlink:href="#DejaVuSans-45"/>
       <use x="290.576172" xlink:href="#DejaVuSans-48"/>
       <use x="354.199219" xlink:href="#DejaVuSans-49"/>
      </g>
     </g>
    </g>
    <g id="xtick_11">
     <g id="line2d_11">
      <g>
       <use style="stroke:#000000;stroke-width:0.8;" x="202.982988" xlink:href="#m8fc970734c" y="222.919125"/>
      </g>
     </g>
     <g id="text_11">
      <!-- 2021-02 -->
      <g transform="translate(190.161706 264.836942)rotate(-45)scale(0.1 -0.1)">
       <use xlink:href="#DejaVuSans-50"/>
       <use x="63.623047" xlink:href="#DejaVuSans-48"/>
       <use x="127.246094" xlink:href="#DejaVuSans-50"/>
       <use x="190.869141" xlink:href="#DejaVuSans-49"/>
       <use x="254.492188" xlink:href="#DejaVuSans-45"/>
       <use x="290.576172" xlink:href="#DejaVuSans-48"/>
       <use x="354.199219" xlink:href="#DejaVuSans-50"/>
      </g>
     </g>
    </g>
    <g id="xtick_12">
     <g id="line2d_12">
      <g>
       <use style="stroke:#000000;stroke-width:0.8;" x="216.983004" xlink:href="#m8fc970734c" y="222.919125"/>
      </g>
     </g>
     <g id="text_12">
      <!-- 2021-03 -->
      <defs>
       <path d="M 40.578125 39.3125 
Q 47.65625 37.796875 51.625 33 
Q 55.609375 28.21875 55.609375 21.1875 
Q 55.609375 10.40625 48.1875 4.484375 
Q 40.765625 -1.421875 27.09375 -1.421875 
Q 22.515625 -1.421875 17.65625 -0.515625 
Q 12.796875 0.390625 7.625 2.203125 
L 7.625 11.71875 
Q 11.71875 9.328125 16.59375 8.109375 
Q 21.484375 6.890625 26.8125 6.890625 
Q 36.078125 6.890625 40.9375 10.546875 
Q 45.796875 14.203125 45.796875 21.1875 
Q 45.796875 27.640625 41.28125 31.265625 
Q 36.765625 34.90625 28.71875 34.90625 
L 20.21875 34.90625 
L 20.21875 43.015625 
L 29.109375 43.015625 
Q 36.375 43.015625 40.234375 45.921875 
Q 44.09375 48.828125 44.09375 54.296875 
Q 44.09375 59.90625 40.109375 62.90625 
Q 36.140625 65.921875 28.71875 65.921875 
Q 24.65625 65.921875 20.015625 65.03125 
Q 15.375 64.15625 9.8125 62.3125 
L 9.8125 71.09375 
Q 15.4375 72.65625 20.34375 73.4375 
Q 25.25 74.21875 29.59375 74.21875 
Q 40.828125 74.21875 47.359375 69.109375 
Q 53.90625 64.015625 53.90625 55.328125 
Q 53.90625 49.265625 50.4375 45.09375 
Q 46.96875 40.921875 40.578125 39.3125 
z
" id="DejaVuSans-51"/>
      </defs>
      <g transform="translate(204.161722 264.836942)rotate(-45)scale(0.1 -0.1)">
       <use xlink:href="#DejaVuSans-50"/>
       <use x="63.623047" xlink:href="#DejaVuSans-48"/>
       <use x="127.246094" xlink:href="#DejaVuSans-50"/>
       <use x="190.869141" xlink:href="#DejaVuSans-49"/>
       <use x="254.492188" xlink:href="#DejaVuSans-45"/>
       <use x="290.576172" xlink:href="#DejaVuSans-48"/>
       <use x="354.199219" xlink:href="#DejaVuSans-51"/>
      </g>
     </g>
    </g>
    <g id="xtick_13">
     <g id="line2d_13">
      <g>
       <use style="stroke:#000000;stroke-width:0.8;" x="230.98302" xlink:href="#m8fc970734c" y="222.919125"/>
      </g>
     </g>
     <g id="text_13">
      <!-- 2021-04 -->
      <g transform="translate(218.161738 264.836942)rotate(-45)scale(0.1 -0.1)">
       <use xlink:href="#DejaVuSans-50"/>
       <use x="63.623047" xlink:href="#DejaVuSans-48"/>
       <use x="127.246094" xlink:href="#DejaVuSans-50"/>
       <use x="190.869141" xlink:href="#DejaVuSans-49"/>
       <use x="254.492188" xlink:href="#DejaVuSans-45"/>
       <use x="290.576172" xlink:href="#DejaVuSans-48"/>
       <use x="354.199219" xlink:href="#DejaVuSans-52"/>
      </g>
     </g>
    </g>
    <g id="xtick_14">
     <g id="line2d_14">
      <g>
       <use style="stroke:#000000;stroke-width:0.8;" x="244.983036" xlink:href="#m8fc970734c" y="222.919125"/>
      </g>
     </g>
     <g id="text_14">
      <!-- 2021-05 -->
      <g transform="translate(232.161754 264.836942)rotate(-45)scale(0.1 -0.1)">
       <use xlink:href="#DejaVuSans-50"/>
       <use x="63.623047" xlink:href="#DejaVuSans-48"/>
       <use x="127.246094" xlink:href="#DejaVuSans-50"/>
       <use x="190.869141" xlink:href="#DejaVuSans-49"/>
       <use x="254.492188" xlink:href="#DejaVuSans-45"/>
       <use x="290.576172" xlink:href="#DejaVuSans-48"/>
       <use x="354.199219" xlink:href="#DejaVuSans-53"/>
      </g>
     </g>
    </g>
    <g id="xtick_15">
     <g id="line2d_15">
      <g>
       <use style="stroke:#000000;stroke-width:0.8;" x="262.483056" xlink:href="#m8fc970734c" y="222.919125"/>
      </g>
     </g>
     <g id="text_15">
      <!-- 2021-06 -->
      <g transform="translate(249.661774 264.836942)rotate(-45)scale(0.1 -0.1)">
       <use xlink:href="#DejaVuSans-50"/>
       <use x="63.623047" xlink:href="#DejaVuSans-48"/>
       <use x="127.246094" xlink:href="#DejaVuSans-50"/>
       <use x="190.869141" xlink:href="#DejaVuSans-49"/>
       <use x="254.492188" xlink:href="#DejaVuSans-45"/>
       <use x="290.576172" xlink:href="#DejaVuSans-48"/>
       <use x="354.199219" xlink:href="#DejaVuSans-54"/>
      </g>
     </g>
    </g>
    <g id="text_16">
     <!-- Target End Date -->
     <defs>
      <path d="M -0.296875 72.90625 
L 61.375 72.90625 
L 61.375 64.59375 
L 35.5 64.59375 
L 35.5 0 
L 25.59375 0 
L 25.59375 64.59375 
L -0.296875 64.59375 
z
" id="DejaVuSans-84"/>
      <path d="M 34.28125 27.484375 
Q 23.390625 27.484375 19.1875 25 
Q 14.984375 22.515625 14.984375 16.5 
Q 14.984375 11.71875 18.140625 8.90625 
Q 21.296875 6.109375 26.703125 6.109375 
Q 34.1875 6.109375 38.703125 11.40625 
Q 43.21875 16.703125 43.21875 25.484375 
L 43.21875 27.484375 
z
M 52.203125 31.203125 
L 52.203125 0 
L 43.21875 0 
L 43.21875 8.296875 
Q 40.140625 3.328125 35.546875 0.953125 
Q 30.953125 -1.421875 24.3125 -1.421875 
Q 15.921875 -1.421875 10.953125 3.296875 
Q 6 8.015625 6 15.921875 
Q 6 25.140625 12.171875 29.828125 
Q 18.359375 34.515625 30.609375 34.515625 
L 43.21875 34.515625 
L 43.21875 35.40625 
Q 43.21875 41.609375 39.140625 45 
Q 35.0625 48.390625 27.6875 48.390625 
Q 23 48.390625 18.546875 47.265625 
Q 14.109375 46.140625 10.015625 43.890625 
L 10.015625 52.203125 
Q 14.9375 54.109375 19.578125 55.046875 
Q 24.21875 56 28.609375 56 
Q 40.484375 56 46.34375 49.84375 
Q 52.203125 43.703125 52.203125 31.203125 
z
" id="DejaVuSans-97"/>
      <path d="M 41.109375 46.296875 
Q 39.59375 47.171875 37.8125 47.578125 
Q 36.03125 48 33.890625 48 
Q 26.265625 48 22.1875 43.046875 
Q 18.109375 38.09375 18.109375 28.8125 
L 18.109375 0 
L 9.078125 0 
L 9.078125 54.6875 
L 18.109375 54.6875 
L 18.109375 46.1875 
Q 20.953125 51.171875 25.484375 53.578125 
Q 30.03125 56 36.53125 56 
Q 37.453125 56 38.578125 55.875 
Q 39.703125 55.765625 41.0625 55.515625 
z
" id="DejaVuSans-114"/>
      <path d="M 45.40625 27.984375 
Q 45.40625 37.75 41.375 43.109375 
Q 37.359375 48.484375 30.078125 48.484375 
Q 22.859375 48.484375 18.828125 43.109375 
Q 14.796875 37.75 14.796875 27.984375 
Q 14.796875 18.265625 18.828125 12.890625 
Q 22.859375 7.515625 30.078125 7.515625 
Q 37.359375 7.515625 41.375 12.890625 
Q 45.40625 18.265625 45.40625 27.984375 
z
M 54.390625 6.78125 
Q 54.390625 -7.171875 48.1875 -13.984375 
Q 42 -20.796875 29.203125 -20.796875 
Q 24.46875 -20.796875 20.265625 -20.09375 
Q 16.0625 -19.390625 12.109375 -17.921875 
L 12.109375 -9.1875 
Q 16.0625 -11.328125 19.921875 -12.34375 
Q 23.78125 -13.375 27.78125 -13.375 
Q 36.625 -13.375 41.015625 -8.765625 
Q 45.40625 -4.15625 45.40625 5.171875 
L 45.40625 9.625 
Q 42.625 4.78125 38.28125 2.390625 
Q 33.9375 0 27.875 0 
Q 17.828125 0 11.671875 7.65625 
Q 5.515625 15.328125 5.515625 27.984375 
Q 5.515625 40.671875 11.671875 48.328125 
Q 17.828125 56 27.875 56 
Q 33.9375 56 38.28125 53.609375 
Q 42.625 51.21875 45.40625 46.390625 
L 45.40625 54.6875 
L 54.390625 54.6875 
z
" id="DejaVuSans-103"/>
      <path d="M 56.203125 29.59375 
L 56.203125 25.203125 
L 14.890625 25.203125 
Q 15.484375 15.921875 20.484375 11.0625 
Q 25.484375 6.203125 34.421875 6.203125 
Q 39.59375 6.203125 44.453125 7.46875 
Q 49.3125 8.734375 54.109375 11.28125 
L 54.109375 2.78125 
Q 49.265625 0.734375 44.1875 -0.34375 
Q 39.109375 -1.421875 33.890625 -1.421875 
Q 20.796875 -1.421875 13.15625 6.1875 
Q 5.515625 13.8125 5.515625 26.8125 
Q 5.515625 40.234375 12.765625 48.109375 
Q 20.015625 56 32.328125 56 
Q 43.359375 56 49.78125 48.890625 
Q 56.203125 41.796875 56.203125 29.59375 
z
M 47.21875 32.234375 
Q 47.125 39.59375 43.09375 43.984375 
Q 39.0625 48.390625 32.421875 48.390625 
Q 24.90625 48.390625 20.390625 44.140625 
Q 15.875 39.890625 15.1875 32.171875 
z
" id="DejaVuSans-101"/>
      <path d="M 18.3125 70.21875 
L 18.3125 54.6875 
L 36.8125 54.6875 
L 36.8125 47.703125 
L 18.3125 47.703125 
L 18.3125 18.015625 
Q 18.3125 11.328125 20.140625 9.421875 
Q 21.96875 7.515625 27.59375 7.515625 
L 36.8125 7.515625 
L 36.8125 0 
L 27.59375 0 
Q 17.1875 0 13.234375 3.875 
Q 9.28125 7.765625 9.28125 18.015625 
L 9.28125 47.703125 
L 2.6875 47.703125 
L 2.6875 54.6875 
L 9.28125 54.6875 
L 9.28125 70.21875 
z
" id="DejaVuSans-116"/>
      <path id="DejaVuSans-32"/>
      <path d="M 9.8125 72.90625 
L 55.90625 72.90625 
L 55.90625 64.59375 
L 19.671875 64.59375 
L 19.671875 43.015625 
L 54.390625 43.015625 
L 54.390625 34.71875 
L 19.671875 34.71875 
L 19.671875 8.296875 
L 56.78125 8.296875 
L 56.78125 0 
L 9.8125 0 
z
" id="DejaVuSans-69"/>
      <path d="M 54.890625 33.015625 
L 54.890625 0 
L 45.90625 0 
L 45.90625 32.71875 
Q 45.90625 40.484375 42.875 44.328125 
Q 39.84375 48.1875 33.796875 48.1875 
Q 26.515625 48.1875 22.3125 43.546875 
Q 18.109375 38.921875 18.109375 30.90625 
L 18.109375 0 
L 9.078125 0 
L 9.078125 54.6875 
L 18.109375 54.6875 
L 18.109375 46.1875 
Q 21.34375 51.125 25.703125 53.5625 
Q 30.078125 56 35.796875 56 
Q 45.21875 56 50.046875 50.171875 
Q 54.890625 44.34375 54.890625 33.015625 
z
" id="DejaVuSans-110"/>
      <path d="M 45.40625 46.390625 
L 45.40625 75.984375 
L 54.390625 75.984375 
L 54.390625 0 
L 45.40625 0 
L 45.40625 8.203125 
Q 42.578125 3.328125 38.25 0.953125 
Q 33.9375 -1.421875 27.875 -1.421875 
Q 17.96875 -1.421875 11.734375 6.484375 
Q 5.515625 14.40625 5.515625 27.296875 
Q 5.515625 40.1875 11.734375 48.09375 
Q 17.96875 56 27.875 56 
Q 33.9375 56 38.25 53.625 
Q 42.578125 51.265625 45.40625 46.390625 
z
M 14.796875 27.296875 
Q 14.796875 17.390625 18.875 11.75 
Q 22.953125 6.109375 30.078125 6.109375 
Q 37.203125 6.109375 41.296875 11.75 
Q 45.40625 17.390625 45.40625 27.296875 
Q 45.40625 37.203125 41.296875 42.84375 
Q 37.203125 48.484375 30.078125 48.484375 
Q 22.953125 48.484375 18.875 42.84375 
Q 14.796875 37.203125 14.796875 27.296875 
z
" id="DejaVuSans-100"/>
      <path d="M 19.671875 64.796875 
L 19.671875 8.109375 
L 31.59375 8.109375 
Q 46.6875 8.109375 53.6875 14.9375 
Q 60.6875 21.78125 60.6875 36.53125 
Q 60.6875 51.171875 53.6875 57.984375 
Q 46.6875 64.796875 31.59375 64.796875 
z
M 9.8125 72.90625 
L 30.078125 72.90625 
Q 51.265625 72.90625 61.171875 64.09375 
Q 71.09375 55.28125 71.09375 36.53125 
Q 71.09375 17.671875 61.125 8.828125 
Q 51.171875 0 30.078125 0 
L 9.8125 0 
z
" id="DejaVuSans-68"/>
     </defs>
     <g transform="translate(115.629809 277.905941)scale(0.1 -0.1)">
      <use xlink:href="#DejaVuSans-84"/>
      <use x="44.583984" xlink:href="#DejaVuSans-97"/>
      <use x="105.863281" xlink:href="#DejaVuSans-114"/>
      <use x="145.226562" xlink:href="#DejaVuSans-103"/>
      <use x="208.703125" xlink:href="#DejaVuSans-101"/>
      <use x="270.226562" xlink:href="#DejaVuSans-116"/>
      <use x="309.435547" xlink:href="#DejaVuSans-32"/>
      <use x="341.222656" xlink:href="#DejaVuSans-69"/>
      <use x="404.40625" xlink:href="#DejaVuSans-110"/>
      <use x="467.785156" xlink:href="#DejaVuSans-100"/>
      <use x="531.261719" xlink:href="#DejaVuSans-32"/>
      <use x="563.048828" xlink:href="#DejaVuSans-68"/>
      <use x="640.050781" xlink:href="#DejaVuSans-97"/>
      <use x="701.330078" xlink:href="#DejaVuSans-116"/>
      <use x="740.539062" xlink:href="#DejaVuSans-101"/>
     </g>
    </g>
   </g>
   <g id="matplotlib.axis_2">
    <g id="ytick_1">
     <g id="line2d_16">
      <defs>
       <path d="M 0 0 
L -3.5 0 
" id="m3101dafc8d" style="stroke:#000000;stroke-width:0.8;"/>
      </defs>
      <g>
       <use style="stroke:#000000;stroke-width:0.8;" x="48.982813" xlink:href="#m3101dafc8d" y="197.412838"/>
      </g>
     </g>
     <g id="text_17">
      <!-- −12 -->
      <defs>
       <path d="M 10.59375 35.5 
L 73.1875 35.5 
L 73.1875 27.203125 
L 10.59375 27.203125 
z
" id="DejaVuSans-8722"/>
      </defs>
      <g transform="translate(20.878125 201.212057)scale(0.1 -0.1)">
       <use xlink:href="#DejaVuSans-8722"/>
       <use x="83.789062" xlink:href="#DejaVuSans-49"/>
       <use x="147.412109" xlink:href="#DejaVuSans-50"/>
      </g>
     </g>
    </g>
    <g id="ytick_2">
     <g id="line2d_17">
      <g>
       <use style="stroke:#000000;stroke-width:0.8;" x="48.982813" xlink:href="#m3101dafc8d" y="164.713809"/>
      </g>
     </g>
     <g id="text_18">
      <!-- −10 -->
      <g transform="translate(20.878125 168.513028)scale(0.1 -0.1)">
       <use xlink:href="#DejaVuSans-8722"/>
       <use x="83.789062" xlink:href="#DejaVuSans-49"/>
       <use x="147.412109" xlink:href="#DejaVuSans-48"/>
      </g>
     </g>
    </g>
    <g id="ytick_3">
     <g id="line2d_18">
      <g>
       <use style="stroke:#000000;stroke-width:0.8;" x="48.982813" xlink:href="#m3101dafc8d" y="132.01478"/>
      </g>
     </g>
     <g id="text_19">
      <!-- −8 -->
      <g transform="translate(27.240625 135.813999)scale(0.1 -0.1)">
       <use xlink:href="#DejaVuSans-8722"/>
       <use x="83.789062" xlink:href="#DejaVuSans-56"/>
      </g>
     </g>
    </g>
    <g id="ytick_4">
     <g id="line2d_19">
      <g>
       <use style="stroke:#000000;stroke-width:0.8;" x="48.982813" xlink:href="#m3101dafc8d" y="99.315751"/>
      </g>
     </g>
     <g id="text_20">
      <!-- −6 -->
      <g transform="translate(27.240625 103.11497)scale(0.1 -0.1)">
       <use xlink:href="#DejaVuSans-8722"/>
       <use x="83.789062" xlink:href="#DejaVuSans-54"/>
      </g>
     </g>
    </g>
    <g id="ytick_5">
     <g id="line2d_20">
      <g>
       <use style="stroke:#000000;stroke-width:0.8;" x="48.982813" xlink:href="#m3101dafc8d" y="66.616722"/>
      </g>
     </g>
     <g id="text_21">
      <!-- −4 -->
      <g transform="translate(27.240625 70.415941)scale(0.1 -0.1)">
       <use xlink:href="#DejaVuSans-8722"/>
       <use x="83.789062" xlink:href="#DejaVuSans-52"/>
      </g>
     </g>
    </g>
    <g id="ytick_6">
     <g id="line2d_21">
      <g>
       <use style="stroke:#000000;stroke-width:0.8;" x="48.982813" xlink:href="#m3101dafc8d" y="33.917694"/>
      </g>
     </g>
     <g id="text_22">
      <!-- −2 -->
      <g transform="translate(27.240625 37.716912)scale(0.1 -0.1)">
       <use xlink:href="#DejaVuSans-8722"/>
       <use x="83.789062" xlink:href="#DejaVuSans-50"/>
      </g>
     </g>
    </g>
    <g id="text_23">
     <!-- Score for cumulative deaths -->
     <defs>
      <path d="M 53.515625 70.515625 
L 53.515625 60.890625 
Q 47.90625 63.578125 42.921875 64.890625 
Q 37.9375 66.21875 33.296875 66.21875 
Q 25.25 66.21875 20.875 63.09375 
Q 16.5 59.96875 16.5 54.203125 
Q 16.5 49.359375 19.40625 46.890625 
Q 22.3125 44.4375 30.421875 42.921875 
L 36.375 41.703125 
Q 47.40625 39.59375 52.65625 34.296875 
Q 57.90625 29 57.90625 20.125 
Q 57.90625 9.515625 50.796875 4.046875 
Q 43.703125 -1.421875 29.984375 -1.421875 
Q 24.8125 -1.421875 18.96875 -0.25 
Q 13.140625 0.921875 6.890625 3.21875 
L 6.890625 13.375 
Q 12.890625 10.015625 18.65625 8.296875 
Q 24.421875 6.59375 29.984375 6.59375 
Q 38.421875 6.59375 43.015625 9.90625 
Q 47.609375 13.234375 47.609375 19.390625 
Q 47.609375 24.75 44.3125 27.78125 
Q 41.015625 30.8125 33.5 32.328125 
L 27.484375 33.5 
Q 16.453125 35.6875 11.515625 40.375 
Q 6.59375 45.0625 6.59375 53.421875 
Q 6.59375 63.09375 13.40625 68.65625 
Q 20.21875 74.21875 32.171875 74.21875 
Q 37.3125 74.21875 42.625 73.28125 
Q 47.953125 72.359375 53.515625 70.515625 
z
" id="DejaVuSans-83"/>
      <path d="M 48.78125 52.59375 
L 48.78125 44.1875 
Q 44.96875 46.296875 41.140625 47.34375 
Q 37.3125 48.390625 33.40625 48.390625 
Q 24.65625 48.390625 19.8125 42.84375 
Q 14.984375 37.3125 14.984375 27.296875 
Q 14.984375 17.28125 19.8125 11.734375 
Q 24.65625 6.203125 33.40625 6.203125 
Q 37.3125 6.203125 41.140625 7.25 
Q 44.96875 8.296875 48.78125 10.40625 
L 48.78125 2.09375 
Q 45.015625 0.34375 40.984375 -0.53125 
Q 36.96875 -1.421875 32.421875 -1.421875 
Q 20.0625 -1.421875 12.78125 6.34375 
Q 5.515625 14.109375 5.515625 27.296875 
Q 5.515625 40.671875 12.859375 48.328125 
Q 20.21875 56 33.015625 56 
Q 37.15625 56 41.109375 55.140625 
Q 45.0625 54.296875 48.78125 52.59375 
z
" id="DejaVuSans-99"/>
      <path d="M 30.609375 48.390625 
Q 23.390625 48.390625 19.1875 42.75 
Q 14.984375 37.109375 14.984375 27.296875 
Q 14.984375 17.484375 19.15625 11.84375 
Q 23.34375 6.203125 30.609375 6.203125 
Q 37.796875 6.203125 41.984375 11.859375 
Q 46.1875 17.53125 46.1875 27.296875 
Q 46.1875 37.015625 41.984375 42.703125 
Q 37.796875 48.390625 30.609375 48.390625 
z
M 30.609375 56 
Q 42.328125 56 49.015625 48.375 
Q 55.71875 40.765625 55.71875 27.296875 
Q 55.71875 13.875 49.015625 6.21875 
Q 42.328125 -1.421875 30.609375 -1.421875 
Q 18.84375 -1.421875 12.171875 6.21875 
Q 5.515625 13.875 5.515625 27.296875 
Q 5.515625 40.765625 12.171875 48.375 
Q 18.84375 56 30.609375 56 
z
" id="DejaVuSans-111"/>
      <path d="M 37.109375 75.984375 
L 37.109375 68.5 
L 28.515625 68.5 
Q 23.6875 68.5 21.796875 66.546875 
Q 19.921875 64.59375 19.921875 59.515625 
L 19.921875 54.6875 
L 34.71875 54.6875 
L 34.71875 47.703125 
L 19.921875 47.703125 
L 19.921875 0 
L 10.890625 0 
L 10.890625 47.703125 
L 2.296875 47.703125 
L 2.296875 54.6875 
L 10.890625 54.6875 
L 10.890625 58.5 
Q 10.890625 67.625 15.140625 71.796875 
Q 19.390625 75.984375 28.609375 75.984375 
z
" id="DejaVuSans-102"/>
      <path d="M 8.5 21.578125 
L 8.5 54.6875 
L 17.484375 54.6875 
L 17.484375 21.921875 
Q 17.484375 14.15625 20.5 10.265625 
Q 23.53125 6.390625 29.59375 6.390625 
Q 36.859375 6.390625 41.078125 11.03125 
Q 45.3125 15.671875 45.3125 23.6875 
L 45.3125 54.6875 
L 54.296875 54.6875 
L 54.296875 0 
L 45.3125 0 
L 45.3125 8.40625 
Q 42.046875 3.421875 37.71875 1 
Q 33.40625 -1.421875 27.6875 -1.421875 
Q 18.265625 -1.421875 13.375 4.4375 
Q 8.5 10.296875 8.5 21.578125 
z
M 31.109375 56 
z
" id="DejaVuSans-117"/>
      <path d="M 52 44.1875 
Q 55.375 50.25 60.0625 53.125 
Q 64.75 56 71.09375 56 
Q 79.640625 56 84.28125 50.015625 
Q 88.921875 44.046875 88.921875 33.015625 
L 88.921875 0 
L 79.890625 0 
L 79.890625 32.71875 
Q 79.890625 40.578125 77.09375 44.375 
Q 74.3125 48.1875 68.609375 48.1875 
Q 61.625 48.1875 57.5625 43.546875 
Q 53.515625 38.921875 53.515625 30.90625 
L 53.515625 0 
L 44.484375 0 
L 44.484375 32.71875 
Q 44.484375 40.625 41.703125 44.40625 
Q 38.921875 48.1875 33.109375 48.1875 
Q 26.21875 48.1875 22.15625 43.53125 
Q 18.109375 38.875 18.109375 30.90625 
L 18.109375 0 
L 9.078125 0 
L 9.078125 54.6875 
L 18.109375 54.6875 
L 18.109375 46.1875 
Q 21.1875 51.21875 25.484375 53.609375 
Q 29.78125 56 35.6875 56 
Q 41.65625 56 45.828125 52.96875 
Q 50 49.953125 52 44.1875 
z
" id="DejaVuSans-109"/>
      <path d="M 9.421875 75.984375 
L 18.40625 75.984375 
L 18.40625 0 
L 9.421875 0 
z
" id="DejaVuSans-108"/>
      <path d="M 9.421875 54.6875 
L 18.40625 54.6875 
L 18.40625 0 
L 9.421875 0 
z
M 9.421875 75.984375 
L 18.40625 75.984375 
L 18.40625 64.59375 
L 9.421875 64.59375 
z
" id="DejaVuSans-105"/>
      <path d="M 2.984375 54.6875 
L 12.5 54.6875 
L 29.59375 8.796875 
L 46.6875 54.6875 
L 56.203125 54.6875 
L 35.6875 0 
L 23.484375 0 
z
" id="DejaVuSans-118"/>
      <path d="M 54.890625 33.015625 
L 54.890625 0 
L 45.90625 0 
L 45.90625 32.71875 
Q 45.90625 40.484375 42.875 44.328125 
Q 39.84375 48.1875 33.796875 48.1875 
Q 26.515625 48.1875 22.3125 43.546875 
Q 18.109375 38.921875 18.109375 30.90625 
L 18.109375 0 
L 9.078125 0 
L 9.078125 75.984375 
L 18.109375 75.984375 
L 18.109375 46.1875 
Q 21.34375 51.125 25.703125 53.5625 
Q 30.078125 56 35.796875 56 
Q 45.21875 56 50.046875 50.171875 
Q 54.890625 44.34375 54.890625 33.015625 
z
" id="DejaVuSans-104"/>
      <path d="M 44.28125 53.078125 
L 44.28125 44.578125 
Q 40.484375 46.53125 36.375 47.5 
Q 32.28125 48.484375 27.875 48.484375 
Q 21.1875 48.484375 17.84375 46.4375 
Q 14.5 44.390625 14.5 40.28125 
Q 14.5 37.15625 16.890625 35.375 
Q 19.28125 33.59375 26.515625 31.984375 
L 29.59375 31.296875 
Q 39.15625 29.25 43.1875 25.515625 
Q 47.21875 21.78125 47.21875 15.09375 
Q 47.21875 7.46875 41.1875 3.015625 
Q 35.15625 -1.421875 24.609375 -1.421875 
Q 20.21875 -1.421875 15.453125 -0.5625 
Q 10.6875 0.296875 5.421875 2 
L 5.421875 11.28125 
Q 10.40625 8.6875 15.234375 7.390625 
Q 20.0625 6.109375 24.8125 6.109375 
Q 31.15625 6.109375 34.5625 8.28125 
Q 37.984375 10.453125 37.984375 14.40625 
Q 37.984375 18.0625 35.515625 20.015625 
Q 33.0625 21.96875 24.703125 23.78125 
L 21.578125 24.515625 
Q 13.234375 26.265625 9.515625 29.90625 
Q 5.8125 33.546875 5.8125 39.890625 
Q 5.8125 47.609375 11.28125 51.796875 
Q 16.75 56 26.8125 56 
Q 31.78125 56 36.171875 55.265625 
Q 40.578125 54.546875 44.28125 53.078125 
z
" id="DejaVuSans-115"/>
     </defs>
     <g transform="translate(14.798438 193.106906)rotate(-90)scale(0.1 -0.1)">
      <use xlink:href="#DejaVuSans-83"/>
      <use x="63.476562" xlink:href="#DejaVuSans-99"/>
      <use x="118.457031" xlink:href="#DejaVuSans-111"/>
      <use x="179.638672" xlink:href="#DejaVuSans-114"/>
      <use x="218.501953" xlink:href="#DejaVuSans-101"/>
      <use x="280.025391" xlink:href="#DejaVuSans-32"/>
      <use x="311.8125" xlink:href="#DejaVuSans-102"/>
      <use x="347.017578" xlink:href="#DejaVuSans-111"/>
      <use x="408.199219" xlink:href="#DejaVuSans-114"/>
      <use x="449.3125" xlink:href="#DejaVuSans-32"/>
      <use x="481.099609" xlink:href="#DejaVuSans-99"/>
      <use x="536.080078" xlink:href="#DejaVuSans-117"/>
      <use x="599.458984" xlink:href="#DejaVuSans-109"/>
      <use x="696.871094" xlink:href="#DejaVuSans-117"/>
      <use x="760.25" xlink:href="#DejaVuSans-108"/>
      <use x="788.033203" xlink:href="#DejaVuSans-97"/>
      <use x="849.3125" xlink:href="#DejaVuSans-116"/>
      <use x="888.521484" xlink:href="#DejaVuSans-105"/>
      <use x="916.304688" xlink:href="#DejaVuSans-118"/>
      <use x="975.484375" xlink:href="#DejaVuSans-101"/>
      <use x="1037.007812" xlink:href="#DejaVuSans-32"/>
      <use x="1068.794922" xlink:href="#DejaVuSans-100"/>
      <use x="1132.271484" xlink:href="#DejaVuSans-101"/>
      <use x="1193.794922" xlink:href="#DejaVuSans-97"/>
      <use x="1255.074219" xlink:href="#DejaVuSans-116"/>
      <use x="1294.283203" xlink:href="#DejaVuSans-104"/>
      <use x="1357.662109" xlink:href="#DejaVuSans-115"/>
     </g>
    </g>
   </g>
   <g id="line2d_22">
    <path clip-path="url(#pc1b893b18a)" d="M 73.48284 77.044873 
L 76.982844 82.983143 
L 80.482848 89.645387 
L 83.982852 87.80674 
L 87.482856 90.580705 
L 90.98286 98.732384 
L 94.482864 97.199917 
L 97.982868 81.218907 
L 101.482872 98.961999 
L 104.982876 86.615333 
L 108.48288 99.256956 
L 111.982884 88.217537 
L 115.482888 74.114382 
L 118.982892 92.433302 
L 122.482896 91.980077 
L 125.9829 98.709749 
L 129.482904 73.974512 
L 132.982908 66.626979 
L 136.482912 62.093166 
L 139.982916 73.516022 
L 143.48292 87.901697 
L 146.982924 67.678276 
L 150.482928 66.326025 
L 153.982932 65.287302 
L 157.482936 64.944624 
L 160.98294 66.279066 
L 164.482944 82.281411 
L 167.982948 120.767024 
L 171.482952 107.010385 
L 174.982956 96.028727 
L 178.48296 105.560064 
L 181.982964 111.740001 
L 185.482968 95.58875 
L 188.982972 92.302548 
L 192.482976 103.465309 
L 195.98298 131.617613 
L 199.482984 129.659861 
L 202.982988 96.058913 
L 206.482992 106.318346 
L 209.982996 112.555489 
L 213.483 94.341503 
L 216.983004 80.234026 
L 220.483008 80.215682 
L 223.983012 79.367345 
L 227.483016 57.690884 
L 230.98302 50.22078 
L 234.483024 43.673862 
L 237.983028 55.584846 
L 241.483032 41.95057 
L 244.983036 63.039106 
" style="fill:none;stroke:#000080;stroke-linecap:square;stroke-width:1.5;"/>
    <defs>
     <path d="M 0 3 
C 0.795609 3 1.55874 2.683901 2.12132 2.12132 
C 2.683901 1.55874 3 0.795609 3 0 
C 3 -0.795609 2.683901 -1.55874 2.12132 -2.12132 
C 1.55874 -2.683901 0.795609 -3 0 -3 
C -0.795609 -3 -1.55874 -2.683901 -2.12132 -2.12132 
C -2.683901 -1.55874 -3 -0.795609 -3 0 
C -3 0.795609 -2.683901 1.55874 -2.12132 2.12132 
C -1.55874 2.683901 -0.795609 3 0 3 
z
" id="m3be634a794" style="stroke:#000080;"/>
    </defs>
    <g clip-path="url(#pc1b893b18a)">
     <use style="fill:#000080;stroke:#000080;" x="73.48284" xlink:href="#m3be634a794" y="77.044873"/>
     <use style="fill:#000080;stroke:#000080;" x="76.982844" xlink:href="#m3be634a794" y="82.983143"/>
     <use style="fill:#000080;stroke:#000080;" x="80.482848" xlink:href="#m3be634a794" y="89.645387"/>
     <use style="fill:#000080;stroke:#000080;" x="83.982852" xlink:href="#m3be634a794" y="87.80674"/>
     <use style="fill:#000080;stroke:#000080;" x="87.482856" xlink:href="#m3be634a794" y="90.580705"/>
     <use style="fill:#000080;stroke:#000080;" x="90.98286" xlink:href="#m3be634a794" y="98.732384"/>
     <use style="fill:#000080;stroke:#000080;" x="94.482864" xlink:href="#m3be634a794" y="97.199917"/>
     <use style="fill:#000080;stroke:#000080;" x="97.982868" xlink:href="#m3be634a794" y="81.218907"/>
     <use style="fill:#000080;stroke:#000080;" x="101.482872" xlink:href="#m3be634a794" y="98.961999"/>
     <use style="fill:#000080;stroke:#000080;" x="104.982876" xlink:href="#m3be634a794" y="86.615333"/>
     <use style="fill:#000080;stroke:#000080;" x="108.48288" xlink:href="#m3be634a794" y="99.256956"/>
     <use style="fill:#000080;stroke:#000080;" x="111.982884" xlink:href="#m3be634a794" y="88.217537"/>
     <use style="fill:#000080;stroke:#000080;" x="115.482888" xlink:href="#m3be634a794" y="74.114382"/>
     <use style="fill:#000080;stroke:#000080;" x="118.982892" xlink:href="#m3be634a794" y="92.433302"/>
     <use style="fill:#000080;stroke:#000080;" x="122.482896" xlink:href="#m3be634a794" y="91.980077"/>
     <use style="fill:#000080;stroke:#000080;" x="125.9829" xlink:href="#m3be634a794" y="98.709749"/>
     <use style="fill:#000080;stroke:#000080;" x="129.482904" xlink:href="#m3be634a794" y="73.974512"/>
     <use style="fill:#000080;stroke:#000080;" x="132.982908" xlink:href="#m3be634a794" y="66.626979"/>
     <use style="fill:#000080;stroke:#000080;" x="136.482912" xlink:href="#m3be634a794" y="62.093166"/>
     <use style="fill:#000080;stroke:#000080;" x="139.982916" xlink:href="#m3be634a794" y="73.516022"/>
     <use style="fill:#000080;stroke:#000080;" x="143.48292" xlink:href="#m3be634a794" y="87.901697"/>
     <use style="fill:#000080;stroke:#000080;" x="146.982924" xlink:href="#m3be634a794" y="67.678276"/>
     <use style="fill:#000080;stroke:#000080;" x="150.482928" xlink:href="#m3be634a794" y="66.326025"/>
     <use style="fill:#000080;stroke:#000080;" x="153.982932" xlink:href="#m3be634a794" y="65.287302"/>
     <use style="fill:#000080;stroke:#000080;" x="157.482936" xlink:href="#m3be634a794" y="64.944624"/>
     <use style="fill:#000080;stroke:#000080;" x="160.98294" xlink:href="#m3be634a794" y="66.279066"/>
     <use style="fill:#000080;stroke:#000080;" x="164.482944" xlink:href="#m3be634a794" y="82.281411"/>
     <use style="fill:#000080;stroke:#000080;" x="167.982948" xlink:href="#m3be634a794" y="120.767024"/>
     <use style="fill:#000080;stroke:#000080;" x="171.482952" xlink:href="#m3be634a794" y="107.010385"/>
     <use style="fill:#000080;stroke:#000080;" x="174.982956" xlink:href="#m3be634a794" y="96.028727"/>
     <use style="fill:#000080;stroke:#000080;" x="178.48296" xlink:href="#m3be634a794" y="105.560064"/>
     <use style="fill:#000080;stroke:#000080;" x="181.982964" xlink:href="#m3be634a794" y="111.740001"/>
     <use style="fill:#000080;stroke:#000080;" x="185.482968" xlink:href="#m3be634a794" y="95.58875"/>
     <use style="fill:#000080;stroke:#000080;" x="188.982972" xlink:href="#m3be634a794" y="92.302548"/>
     <use style="fill:#000080;stroke:#000080;" x="192.482976" xlink:href="#m3be634a794" y="103.465309"/>
     <use style="fill:#000080;stroke:#000080;" x="195.98298" xlink:href="#m3be634a794" y="131.617613"/>
     <use style="fill:#000080;stroke:#000080;" x="199.482984" xlink:href="#m3be634a794" y="129.659861"/>
     <use style="fill:#000080;stroke:#000080;" x="202.982988" xlink:href="#m3be634a794" y="96.058913"/>
     <use style="fill:#000080;stroke:#000080;" x="206.482992" xlink:href="#m3be634a794" y="106.318346"/>
     <use style="fill:#000080;stroke:#000080;" x="209.982996" xlink:href="#m3be634a794" y="112.555489"/>
     <use style="fill:#000080;stroke:#000080;" x="213.483" xlink:href="#m3be634a794" y="94.341503"/>
     <use style="fill:#000080;stroke:#000080;" x="216.983004" xlink:href="#m3be634a794" y="80.234026"/>
     <use style="fill:#000080;stroke:#000080;" x="220.483008" xlink:href="#m3be634a794" y="80.215682"/>
     <use style="fill:#000080;stroke:#000080;" x="223.983012" xlink:href="#m3be634a794" y="79.367345"/>
     <use style="fill:#000080;stroke:#000080;" x="227.483016" xlink:href="#m3be634a794" y="57.690884"/>
     <use style="fill:#000080;stroke:#000080;" x="230.98302" xlink:href="#m3be634a794" y="50.22078"/>
     <use style="fill:#000080;stroke:#000080;" x="234.483024" xlink:href="#m3be634a794" y="43.673862"/>
     <use style="fill:#000080;stroke:#000080;" x="237.983028" xlink:href="#m3be634a794" y="55.584846"/>
     <use style="fill:#000080;stroke:#000080;" x="241.483032" xlink:href="#m3be634a794" y="41.95057"/>
     <use style="fill:#000080;stroke:#000080;" x="244.983036" xlink:href="#m3be634a794" y="63.039106"/>
    </g>
   </g>
   <g id="line2d_23">
    <path clip-path="url(#pc1b893b18a)" d="M 66.482832 130.526451 
L 69.982836 113.127419 
L 73.48284 63.802606 
L 76.982844 88.808776 
L 80.482848 87.023027 
L 83.982852 89.83777 
L 87.482856 90.561499 
L 90.98286 73.79747 
L 94.482864 78.850788 
L 97.982868 88.801709 
L 101.482872 113.562127 
L 104.982876 78.538529 
L 108.48288 104.020388 
L 111.982884 105.328661 
L 115.482888 89.376638 
L 118.982892 92.538721 
L 122.482896 82.295401 
L 125.9829 75.33373 
L 129.482904 79.429815 
L 132.982908 81.186817 
L 136.482912 68.791912 
L 139.982916 76.024511 
L 143.48292 71.272716 
L 146.982924 67.983957 
L 150.482928 70.235032 
L 153.982932 65.879559 
L 157.482936 68.494509 
L 160.98294 76.141197 
L 164.482944 77.520414 
L 167.982948 80.671565 
L 171.482952 109.818971 
L 174.982956 106.979177 
L 178.48296 125.442635 
L 181.982964 124.177231 
L 185.482968 109.088925 
L 188.982972 83.095606 
L 192.482976 99.037285 
L 195.98298 117.626063 
L 199.482984 145.820992 
L 202.982988 99.469911 
L 206.482992 120.188908 
L 209.982996 127.729286 
L 213.483 102.132632 
L 216.983004 101.150623 
L 220.483008 111.382768 
L 223.983012 103.843334 
L 227.483016 63.413016 
L 230.98302 31.436352 
L 234.483024 36.677681 
L 237.983028 50.156059 
L 241.483032 54.224714 
L 244.983036 59.730016 
" style="fill:none;stroke:#00d4ff;stroke-linecap:square;stroke-width:1.5;"/>
    <defs>
     <path d="M 0 3 
C 0.795609 3 1.55874 2.683901 2.12132 2.12132 
C 2.683901 1.55874 3 0.795609 3 0 
C 3 -0.795609 2.683901 -1.55874 2.12132 -2.12132 
C 1.55874 -2.683901 0.795609 -3 0 -3 
C -0.795609 -3 -1.55874 -2.683901 -2.12132 -2.12132 
C -2.683901 -1.55874 -3 -0.795609 -3 0 
C -3 0.795609 -2.683901 1.55874 -2.12132 2.12132 
C -1.55874 2.683901 -0.795609 3 0 3 
z
" id="mffd53d83b5" style="stroke:#00d4ff;"/>
    </defs>
    <g clip-path="url(#pc1b893b18a)">
     <use style="fill:#00d4ff;stroke:#00d4ff;" x="66.482832" xlink:href="#mffd53d83b5" y="130.526451"/>
     <use style="fill:#00d4ff;stroke:#00d4ff;" x="69.982836" xlink:href="#mffd53d83b5" y="113.127419"/>
     <use style="fill:#00d4ff;stroke:#00d4ff;" x="73.48284" xlink:href="#mffd53d83b5" y="63.802606"/>
     <use style="fill:#00d4ff;stroke:#00d4ff;" x="76.982844" xlink:href="#mffd53d83b5" y="88.808776"/>
     <use style="fill:#00d4ff;stroke:#00d4ff;" x="80.482848" xlink:href="#mffd53d83b5" y="87.023027"/>
     <use style="fill:#00d4ff;stroke:#00d4ff;" x="83.982852" xlink:href="#mffd53d83b5" y="89.83777"/>
     <use style="fill:#00d4ff;stroke:#00d4ff;" x="87.482856" xlink:href="#mffd53d83b5" y="90.561499"/>
     <use style="fill:#00d4ff;stroke:#00d4ff;" x="90.98286" xlink:href="#mffd53d83b5" y="73.79747"/>
     <use style="fill:#00d4ff;stroke:#00d4ff;" x="94.482864" xlink:href="#mffd53d83b5" y="78.850788"/>
     <use style="fill:#00d4ff;stroke:#00d4ff;" x="97.982868" xlink:href="#mffd53d83b5" y="88.801709"/>
     <use style="fill:#00d4ff;stroke:#00d4ff;" x="101.482872" xlink:href="#mffd53d83b5" y="113.562127"/>
     <use style="fill:#00d4ff;stroke:#00d4ff;" x="104.982876" xlink:href="#mffd53d83b5" y="78.538529"/>
     <use style="fill:#00d4ff;stroke:#00d4ff;" x="108.48288" xlink:href="#mffd53d83b5" y="104.020388"/>
     <use style="fill:#00d4ff;stroke:#00d4ff;" x="111.982884" xlink:href="#mffd53d83b5" y="105.328661"/>
     <use style="fill:#00d4ff;stroke:#00d4ff;" x="115.482888" xlink:href="#mffd53d83b5" y="89.376638"/>
     <use style="fill:#00d4ff;stroke:#00d4ff;" x="118.982892" xlink:href="#mffd53d83b5" y="92.538721"/>
     <use style="fill:#00d4ff;stroke:#00d4ff;" x="122.482896" xlink:href="#mffd53d83b5" y="82.295401"/>
     <use style="fill:#00d4ff;stroke:#00d4ff;" x="125.9829" xlink:href="#mffd53d83b5" y="75.33373"/>
     <use style="fill:#00d4ff;stroke:#00d4ff;" x="129.482904" xlink:href="#mffd53d83b5" y="79.429815"/>
     <use style="fill:#00d4ff;stroke:#00d4ff;" x="132.982908" xlink:href="#mffd53d83b5" y="81.186817"/>
     <use style="fill:#00d4ff;stroke:#00d4ff;" x="136.482912" xlink:href="#mffd53d83b5" y="68.791912"/>
     <use style="fill:#00d4ff;stroke:#00d4ff;" x="139.982916" xlink:href="#mffd53d83b5" y="76.024511"/>
     <use style="fill:#00d4ff;stroke:#00d4ff;" x="143.48292" xlink:href="#mffd53d83b5" y="71.272716"/>
     <use style="fill:#00d4ff;stroke:#00d4ff;" x="146.982924" xlink:href="#mffd53d83b5" y="67.983957"/>
     <use style="fill:#00d4ff;stroke:#00d4ff;" x="150.482928" xlink:href="#mffd53d83b5" y="70.235032"/>
     <use style="fill:#00d4ff;stroke:#00d4ff;" x="153.982932" xlink:href="#mffd53d83b5" y="65.879559"/>
     <use style="fill:#00d4ff;stroke:#00d4ff;" x="157.482936" xlink:href="#mffd53d83b5" y="68.494509"/>
     <use style="fill:#00d4ff;stroke:#00d4ff;" x="160.98294" xlink:href="#mffd53d83b5" y="76.141197"/>
     <use style="fill:#00d4ff;stroke:#00d4ff;" x="164.482944" xlink:href="#mffd53d83b5" y="77.520414"/>
     <use style="fill:#00d4ff;stroke:#00d4ff;" x="167.982948" xlink:href="#mffd53d83b5" y="80.671565"/>
     <use style="fill:#00d4ff;stroke:#00d4ff;" x="171.482952" xlink:href="#mffd53d83b5" y="109.818971"/>
     <use style="fill:#00d4ff;stroke:#00d4ff;" x="174.982956" xlink:href="#mffd53d83b5" y="106.979177"/>
     <use style="fill:#00d4ff;stroke:#00d4ff;" x="178.48296" xlink:href="#mffd53d83b5" y="125.442635"/>
     <use style="fill:#00d4ff;stroke:#00d4ff;" x="181.982964" xlink:href="#mffd53d83b5" y="124.177231"/>
     <use style="fill:#00d4ff;stroke:#00d4ff;" x="185.482968" xlink:href="#mffd53d83b5" y="109.088925"/>
     <use style="fill:#00d4ff;stroke:#00d4ff;" x="188.982972" xlink:href="#mffd53d83b5" y="83.095606"/>
     <use style="fill:#00d4ff;stroke:#00d4ff;" x="192.482976" xlink:href="#mffd53d83b5" y="99.037285"/>
     <use style="fill:#00d4ff;stroke:#00d4ff;" x="195.98298" xlink:href="#mffd53d83b5" y="117.626063"/>
     <use style="fill:#00d4ff;stroke:#00d4ff;" x="199.482984" xlink:href="#mffd53d83b5" y="145.820992"/>
     <use style="fill:#00d4ff;stroke:#00d4ff;" x="202.982988" xlink:href="#mffd53d83b5" y="99.469911"/>
     <use style="fill:#00d4ff;stroke:#00d4ff;" x="206.482992" xlink:href="#mffd53d83b5" y="120.188908"/>
     <use style="fill:#00d4ff;stroke:#00d4ff;" x="209.982996" xlink:href="#mffd53d83b5" y="127.729286"/>
     <use style="fill:#00d4ff;stroke:#00d4ff;" x="213.483" xlink:href="#mffd53d83b5" y="102.132632"/>
     <use style="fill:#00d4ff;stroke:#00d4ff;" x="216.983004" xlink:href="#mffd53d83b5" y="101.150623"/>
     <use style="fill:#00d4ff;stroke:#00d4ff;" x="220.483008" xlink:href="#mffd53d83b5" y="111.382768"/>
     <use style="fill:#00d4ff;stroke:#00d4ff;" x="223.983012" xlink:href="#mffd53d83b5" y="103.843334"/>
     <use style="fill:#00d4ff;stroke:#00d4ff;" x="227.483016" xlink:href="#mffd53d83b5" y="63.413016"/>
     <use style="fill:#00d4ff;stroke:#00d4ff;" x="230.98302" xlink:href="#mffd53d83b5" y="31.436352"/>
     <use style="fill:#00d4ff;stroke:#00d4ff;" x="234.483024" xlink:href="#mffd53d83b5" y="36.677681"/>
     <use style="fill:#00d4ff;stroke:#00d4ff;" x="237.983028" xlink:href="#mffd53d83b5" y="50.156059"/>
     <use style="fill:#00d4ff;stroke:#00d4ff;" x="241.483032" xlink:href="#mffd53d83b5" y="54.224714"/>
     <use style="fill:#00d4ff;stroke:#00d4ff;" x="244.983036" xlink:href="#mffd53d83b5" y="59.730016"/>
    </g>
   </g>
   <g id="line2d_24">
    <path clip-path="url(#pc1b893b18a)" d="M 66.482832 127.890809 
L 69.982836 117.646486 
L 73.48284 120.259929 
L 76.982844 110.242775 
L 80.482848 94.648577 
L 83.982852 91.734304 
L 87.482856 99.504068 
L 90.98286 83.766836 
L 94.482864 88.04438 
L 97.982868 70.042606 
L 101.482872 86.938893 
L 104.982876 87.625606 
L 108.48288 115.468088 
L 111.982884 96.103662 
L 115.482888 84.669668 
L 118.982892 90.483127 
L 122.482896 72.121217 
L 125.9829 81.620092 
L 129.482904 58.738193 
L 132.982908 72.219575 
L 136.482912 55.39835 
L 139.982916 75.579106 
L 143.48292 57.477423 
L 146.982924 64.829292 
L 150.482928 67.995174 
L 153.982932 76.235994 
L 157.482936 87.568688 
L 160.98294 112.766223 
L 164.482944 111.132439 
L 167.982948 105.983328 
L 171.482952 120.385364 
L 174.982956 117.122301 
L 178.48296 95.444861 
L 181.982964 108.332044 
L 185.482968 102.410387 
L 188.982972 83.334099 
L 192.482976 96.525555 
L 195.98298 118.039563 
L 199.482984 142.321649 
L 202.982988 94.278215 
L 206.482992 95.066566 
L 209.982996 75.03458 
L 213.483 85.99025 
L 216.983004 85.135636 
L 220.483008 85.308587 
L 223.983012 76.788998 
L 227.483016 75.95182 
L 230.98302 78.618326 
L 234.483024 71.902519 
L 237.983028 73.416354 
L 241.483032 71.356939 
L 244.983036 62.156921 
" style="fill:none;stroke:#ffe600;stroke-linecap:square;stroke-width:1.5;"/>
    <defs>
     <path d="M 0 3 
C 0.795609 3 1.55874 2.683901 2.12132 2.12132 
C 2.683901 1.55874 3 0.795609 3 0 
C 3 -0.795609 2.683901 -1.55874 2.12132 -2.12132 
C 1.55874 -2.683901 0.795609 -3 0 -3 
C -0.795609 -3 -1.55874 -2.683901 -2.12132 -2.12132 
C -2.683901 -1.55874 -3 -0.795609 -3 0 
C -3 0.795609 -2.683901 1.55874 -2.12132 2.12132 
C -1.55874 2.683901 -0.795609 3 0 3 
z
" id="mccc08261e8" style="stroke:#ffe600;"/>
    </defs>
    <g clip-path="url(#pc1b893b18a)">
     <use style="fill:#ffe600;stroke:#ffe600;" x="66.482832" xlink:href="#mccc08261e8" y="127.890809"/>
     <use style="fill:#ffe600;stroke:#ffe600;" x="69.982836" xlink:href="#mccc08261e8" y="117.646486"/>
     <use style="fill:#ffe600;stroke:#ffe600;" x="73.48284" xlink:href="#mccc08261e8" y="120.259929"/>
     <use style="fill:#ffe600;stroke:#ffe600;" x="76.982844" xlink:href="#mccc08261e8" y="110.242775"/>
     <use style="fill:#ffe600;stroke:#ffe600;" x="80.482848" xlink:href="#mccc08261e8" y="94.648577"/>
     <use style="fill:#ffe600;stroke:#ffe600;" x="83.982852" xlink:href="#mccc08261e8" y="91.734304"/>
     <use style="fill:#ffe600;stroke:#ffe600;" x="87.482856" xlink:href="#mccc08261e8" y="99.504068"/>
     <use style="fill:#ffe600;stroke:#ffe600;" x="90.98286" xlink:href="#mccc08261e8" y="83.766836"/>
     <use style="fill:#ffe600;stroke:#ffe600;" x="94.482864" xlink:href="#mccc08261e8" y="88.04438"/>
     <use style="fill:#ffe600;stroke:#ffe600;" x="97.982868" xlink:href="#mccc08261e8" y="70.042606"/>
     <use style="fill:#ffe600;stroke:#ffe600;" x="101.482872" xlink:href="#mccc08261e8" y="86.938893"/>
     <use style="fill:#ffe600;stroke:#ffe600;" x="104.982876" xlink:href="#mccc08261e8" y="87.625606"/>
     <use style="fill:#ffe600;stroke:#ffe600;" x="108.48288" xlink:href="#mccc08261e8" y="115.468088"/>
     <use style="fill:#ffe600;stroke:#ffe600;" x="111.982884" xlink:href="#mccc08261e8" y="96.103662"/>
     <use style="fill:#ffe600;stroke:#ffe600;" x="115.482888" xlink:href="#mccc08261e8" y="84.669668"/>
     <use style="fill:#ffe600;stroke:#ffe600;" x="118.982892" xlink:href="#mccc08261e8" y="90.483127"/>
     <use style="fill:#ffe600;stroke:#ffe600;" x="122.482896" xlink:href="#mccc08261e8" y="72.121217"/>
     <use style="fill:#ffe600;stroke:#ffe600;" x="125.9829" xlink:href="#mccc08261e8" y="81.620092"/>
     <use style="fill:#ffe600;stroke:#ffe600;" x="129.482904" xlink:href="#mccc08261e8" y="58.738193"/>
     <use style="fill:#ffe600;stroke:#ffe600;" x="132.982908" xlink:href="#mccc08261e8" y="72.219575"/>
     <use style="fill:#ffe600;stroke:#ffe600;" x="136.482912" xlink:href="#mccc08261e8" y="55.39835"/>
     <use style="fill:#ffe600;stroke:#ffe600;" x="139.982916" xlink:href="#mccc08261e8" y="75.579106"/>
     <use style="fill:#ffe600;stroke:#ffe600;" x="143.48292" xlink:href="#mccc08261e8" y="57.477423"/>
     <use style="fill:#ffe600;stroke:#ffe600;" x="146.982924" xlink:href="#mccc08261e8" y="64.829292"/>
     <use style="fill:#ffe600;stroke:#ffe600;" x="150.482928" xlink:href="#mccc08261e8" y="67.995174"/>
     <use style="fill:#ffe600;stroke:#ffe600;" x="153.982932" xlink:href="#mccc08261e8" y="76.235994"/>
     <use style="fill:#ffe600;stroke:#ffe600;" x="157.482936" xlink:href="#mccc08261e8" y="87.568688"/>
     <use style="fill:#ffe600;stroke:#ffe600;" x="160.98294" xlink:href="#mccc08261e8" y="112.766223"/>
     <use style="fill:#ffe600;stroke:#ffe600;" x="164.482944" xlink:href="#mccc08261e8" y="111.132439"/>
     <use style="fill:#ffe600;stroke:#ffe600;" x="167.982948" xlink:href="#mccc08261e8" y="105.983328"/>
     <use style="fill:#ffe600;stroke:#ffe600;" x="171.482952" xlink:href="#mccc08261e8" y="120.385364"/>
     <use style="fill:#ffe600;stroke:#ffe600;" x="174.982956" xlink:href="#mccc08261e8" y="117.122301"/>
     <use style="fill:#ffe600;stroke:#ffe600;" x="178.48296" xlink:href="#mccc08261e8" y="95.444861"/>
     <use style="fill:#ffe600;stroke:#ffe600;" x="181.982964" xlink:href="#mccc08261e8" y="108.332044"/>
     <use style="fill:#ffe600;stroke:#ffe600;" x="185.482968" xlink:href="#mccc08261e8" y="102.410387"/>
     <use style="fill:#ffe600;stroke:#ffe600;" x="188.982972" xlink:href="#mccc08261e8" y="83.334099"/>
     <use style="fill:#ffe600;stroke:#ffe600;" x="192.482976" xlink:href="#mccc08261e8" y="96.525555"/>
     <use style="fill:#ffe600;stroke:#ffe600;" x="195.98298" xlink:href="#mccc08261e8" y="118.039563"/>
     <use style="fill:#ffe600;stroke:#ffe600;" x="199.482984" xlink:href="#mccc08261e8" y="142.321649"/>
     <use style="fill:#ffe600;stroke:#ffe600;" x="202.982988" xlink:href="#mccc08261e8" y="94.278215"/>
     <use style="fill:#ffe600;stroke:#ffe600;" x="206.482992" xlink:href="#mccc08261e8" y="95.066566"/>
     <use style="fill:#ffe600;stroke:#ffe600;" x="209.982996" xlink:href="#mccc08261e8" y="75.03458"/>
     <use style="fill:#ffe600;stroke:#ffe600;" x="213.483" xlink:href="#mccc08261e8" y="85.99025"/>
     <use style="fill:#ffe600;stroke:#ffe600;" x="216.983004" xlink:href="#mccc08261e8" y="85.135636"/>
     <use style="fill:#ffe600;stroke:#ffe600;" x="220.483008" xlink:href="#mccc08261e8" y="85.308587"/>
     <use style="fill:#ffe600;stroke:#ffe600;" x="223.983012" xlink:href="#mccc08261e8" y="76.788998"/>
     <use style="fill:#ffe600;stroke:#ffe600;" x="227.483016" xlink:href="#mccc08261e8" y="75.95182"/>
     <use style="fill:#ffe600;stroke:#ffe600;" x="230.98302" xlink:href="#mccc08261e8" y="78.618326"/>
     <use style="fill:#ffe600;stroke:#ffe600;" x="234.483024" xlink:href="#mccc08261e8" y="71.902519"/>
     <use style="fill:#ffe600;stroke:#ffe600;" x="237.983028" xlink:href="#mccc08261e8" y="73.416354"/>
     <use style="fill:#ffe600;stroke:#ffe600;" x="241.483032" xlink:href="#mccc08261e8" y="71.356939"/>
     <use style="fill:#ffe600;stroke:#ffe600;" x="244.983036" xlink:href="#mccc08261e8" y="62.156921"/>
    </g>
   </g>
   <g id="line2d_25">
    <path clip-path="url(#pc1b893b18a)" d="M 69.982836 213.800898 
L 73.48284 172.513403 
L 76.982844 121.385331 
L 80.482848 91.160329 
L 83.982852 94.032061 
L 87.482856 60.020143 
L 90.98286 94.086462 
L 94.482864 67.555682 
L 97.982868 64.251637 
L 101.482872 101.08164 
L 104.982876 82.947378 
L 108.48288 118.448837 
L 111.982884 90.653954 
L 115.482888 110.321948 
L 118.982892 91.473122 
L 122.482896 70.633751 
L 125.9829 52.577698 
L 129.482904 68.760885 
L 132.982908 85.786527 
L 136.482912 113.198069 
L 139.982916 109.77293 
L 143.48292 54.330593 
L 146.982924 45.650914 
L 150.482928 75.047576 
L 153.982932 73.058527 
L 157.482936 78.084066 
L 160.98294 115.581269 
L 164.482944 133.777093 
L 167.982948 117.381041 
L 171.482952 139.092457 
L 174.982956 133.87187 
L 178.48296 138.96722 
L 185.482968 97.320228 
L 188.982972 92.359089 
L 192.482976 89.80183 
L 199.482984 149.35022 
L 202.982988 89.605187 
L 206.482992 96.277555 
L 209.982996 81.485662 
L 213.483 81.087368 
L 216.983004 83.709831 
L 220.483008 120.398661 
L 223.983012 80.622632 
L 227.483016 73.313803 
L 230.98302 74.847707 
L 234.483024 49.073841 
L 237.983028 65.829802 
L 241.483032 73.954256 
L 244.983036 66.5675 
" style="fill:none;stroke:#800000;stroke-linecap:square;stroke-width:1.5;"/>
    <defs>
     <path d="M 0 3 
C 0.795609 3 1.55874 2.683901 2.12132 2.12132 
C 2.683901 1.55874 3 0.795609 3 0 
C 3 -0.795609 2.683901 -1.55874 2.12132 -2.12132 
C 1.55874 -2.683901 0.795609 -3 0 -3 
C -0.795609 -3 -1.55874 -2.683901 -2.12132 -2.12132 
C -2.683901 -1.55874 -3 -0.795609 -3 0 
C -3 0.795609 -2.683901 1.55874 -2.12132 2.12132 
C -1.55874 2.683901 -0.795609 3 0 3 
z
" id="ma43e0e7104" style="stroke:#800000;"/>
    </defs>
    <g clip-path="url(#pc1b893b18a)">
     <use style="fill:#800000;stroke:#800000;" x="69.982836" xlink:href="#ma43e0e7104" y="213.800898"/>
     <use style="fill:#800000;stroke:#800000;" x="73.48284" xlink:href="#ma43e0e7104" y="172.513403"/>
     <use style="fill:#800000;stroke:#800000;" x="76.982844" xlink:href="#ma43e0e7104" y="121.385331"/>
     <use style="fill:#800000;stroke:#800000;" x="80.482848" xlink:href="#ma43e0e7104" y="91.160329"/>
     <use style="fill:#800000;stroke:#800000;" x="83.982852" xlink:href="#ma43e0e7104" y="94.032061"/>
     <use style="fill:#800000;stroke:#800000;" x="87.482856" xlink:href="#ma43e0e7104" y="60.020143"/>
     <use style="fill:#800000;stroke:#800000;" x="90.98286" xlink:href="#ma43e0e7104" y="94.086462"/>
     <use style="fill:#800000;stroke:#800000;" x="94.482864" xlink:href="#ma43e0e7104" y="67.555682"/>
     <use style="fill:#800000;stroke:#800000;" x="97.982868" xlink:href="#ma43e0e7104" y="64.251637"/>
     <use style="fill:#800000;stroke:#800000;" x="101.482872" xlink:href="#ma43e0e7104" y="101.08164"/>
     <use style="fill:#800000;stroke:#800000;" x="104.982876" xlink:href="#ma43e0e7104" y="82.947378"/>
     <use style="fill:#800000;stroke:#800000;" x="108.48288" xlink:href="#ma43e0e7104" y="118.448837"/>
     <use style="fill:#800000;stroke:#800000;" x="111.982884" xlink:href="#ma43e0e7104" y="90.653954"/>
     <use style="fill:#800000;stroke:#800000;" x="115.482888" xlink:href="#ma43e0e7104" y="110.321948"/>
     <use style="fill:#800000;stroke:#800000;" x="118.982892" xlink:href="#ma43e0e7104" y="91.473122"/>
     <use style="fill:#800000;stroke:#800000;" x="122.482896" xlink:href="#ma43e0e7104" y="70.633751"/>
     <use style="fill:#800000;stroke:#800000;" x="125.9829" xlink:href="#ma43e0e7104" y="52.577698"/>
     <use style="fill:#800000;stroke:#800000;" x="129.482904" xlink:href="#ma43e0e7104" y="68.760885"/>
     <use style="fill:#800000;stroke:#800000;" x="132.982908" xlink:href="#ma43e0e7104" y="85.786527"/>
     <use style="fill:#800000;stroke:#800000;" x="136.482912" xlink:href="#ma43e0e7104" y="113.198069"/>
     <use style="fill:#800000;stroke:#800000;" x="139.982916" xlink:href="#ma43e0e7104" y="109.77293"/>
     <use style="fill:#800000;stroke:#800000;" x="143.48292" xlink:href="#ma43e0e7104" y="54.330593"/>
     <use style="fill:#800000;stroke:#800000;" x="146.982924" xlink:href="#ma43e0e7104" y="45.650914"/>
     <use style="fill:#800000;stroke:#800000;" x="150.482928" xlink:href="#ma43e0e7104" y="75.047576"/>
     <use style="fill:#800000;stroke:#800000;" x="153.982932" xlink:href="#ma43e0e7104" y="73.058527"/>
     <use style="fill:#800000;stroke:#800000;" x="157.482936" xlink:href="#ma43e0e7104" y="78.084066"/>
     <use style="fill:#800000;stroke:#800000;" x="160.98294" xlink:href="#ma43e0e7104" y="115.581269"/>
     <use style="fill:#800000;stroke:#800000;" x="164.482944" xlink:href="#ma43e0e7104" y="133.777093"/>
     <use style="fill:#800000;stroke:#800000;" x="167.982948" xlink:href="#ma43e0e7104" y="117.381041"/>
     <use style="fill:#800000;stroke:#800000;" x="171.482952" xlink:href="#ma43e0e7104" y="139.092457"/>
     <use style="fill:#800000;stroke:#800000;" x="174.982956" xlink:href="#ma43e0e7104" y="133.87187"/>
     <use style="fill:#800000;stroke:#800000;" x="178.48296" xlink:href="#ma43e0e7104" y="138.96722"/>
     <use style="fill:#800000;stroke:#800000;" x="185.482968" xlink:href="#ma43e0e7104" y="97.320228"/>
     <use style="fill:#800000;stroke:#800000;" x="188.982972" xlink:href="#ma43e0e7104" y="92.359089"/>
     <use style="fill:#800000;stroke:#800000;" x="192.482976" xlink:href="#ma43e0e7104" y="89.80183"/>
     <use style="fill:#800000;stroke:#800000;" x="199.482984" xlink:href="#ma43e0e7104" y="149.35022"/>
     <use style="fill:#800000;stroke:#800000;" x="202.982988" xlink:href="#ma43e0e7104" y="89.605187"/>
     <use style="fill:#800000;stroke:#800000;" x="206.482992" xlink:href="#ma43e0e7104" y="96.277555"/>
     <use style="fill:#800000;stroke:#800000;" x="209.982996" xlink:href="#ma43e0e7104" y="81.485662"/>
     <use style="fill:#800000;stroke:#800000;" x="213.483" xlink:href="#ma43e0e7104" y="81.087368"/>
     <use style="fill:#800000;stroke:#800000;" x="216.983004" xlink:href="#ma43e0e7104" y="83.709831"/>
     <use style="fill:#800000;stroke:#800000;" x="220.483008" xlink:href="#ma43e0e7104" y="120.398661"/>
     <use style="fill:#800000;stroke:#800000;" x="223.983012" xlink:href="#ma43e0e7104" y="80.622632"/>
     <use style="fill:#800000;stroke:#800000;" x="227.483016" xlink:href="#ma43e0e7104" y="73.313803"/>
     <use style="fill:#800000;stroke:#800000;" x="230.98302" xlink:href="#ma43e0e7104" y="74.847707"/>
     <use style="fill:#800000;stroke:#800000;" x="234.483024" xlink:href="#ma43e0e7104" y="49.073841"/>
     <use style="fill:#800000;stroke:#800000;" x="237.983028" xlink:href="#ma43e0e7104" y="65.829802"/>
     <use style="fill:#800000;stroke:#800000;" x="241.483032" xlink:href="#ma43e0e7104" y="73.954256"/>
     <use style="fill:#800000;stroke:#800000;" x="244.983036" xlink:href="#ma43e0e7104" y="66.5675"/>
    </g>
   </g>
   <g id="patch_3">
    <path d="M 48.982813 222.919125 
L 48.982813 22.318125 
" style="fill:none;stroke:#000000;stroke-linecap:square;stroke-linejoin:miter;stroke-width:0.8;"/>
   </g>
   <g id="patch_4">
    <path d="M 262.483056 222.919125 
L 262.483056 22.318125 
" style="fill:none;stroke:#000000;stroke-linecap:square;stroke-linejoin:miter;stroke-width:0.8;"/>
   </g>
   <g id="patch_5">
    <path d="M 48.982813 222.919125 
L 262.483056 222.919125 
" style="fill:none;stroke:#000000;stroke-linecap:square;stroke-linejoin:miter;stroke-width:0.8;"/>
   </g>
   <g id="patch_6">
    <path d="M 48.982813 22.318125 
L 262.483056 22.318125 
" style="fill:none;stroke:#000000;stroke-linecap:square;stroke-linejoin:miter;stroke-width:0.8;"/>
   </g>
   <g id="text_24">
    <!-- Model-averaged 4-week-ahead forecasts -->
    <defs>
     <path d="M 9.8125 72.90625 
L 24.515625 72.90625 
L 43.109375 23.296875 
L 61.8125 72.90625 
L 76.515625 72.90625 
L 76.515625 0 
L 66.890625 0 
L 66.890625 64.015625 
L 48.09375 14.015625 
L 38.1875 14.015625 
L 19.390625 64.015625 
L 19.390625 0 
L 9.8125 0 
z
" id="DejaVuSans-77"/>
     <path d="M 4.203125 54.6875 
L 13.1875 54.6875 
L 24.421875 12.015625 
L 35.59375 54.6875 
L 46.1875 54.6875 
L 57.421875 12.015625 
L 68.609375 54.6875 
L 77.59375 54.6875 
L 63.28125 0 
L 52.6875 0 
L 40.921875 44.828125 
L 29.109375 0 
L 18.5 0 
z
" id="DejaVuSans-119"/>
     <path d="M 9.078125 75.984375 
L 18.109375 75.984375 
L 18.109375 31.109375 
L 44.921875 54.6875 
L 56.390625 54.6875 
L 27.390625 29.109375 
L 57.625 0 
L 45.90625 0 
L 18.109375 26.703125 
L 18.109375 0 
L 9.078125 0 
z
" id="DejaVuSans-107"/>
    </defs>
    <g transform="translate(33.409809 16.318125)scale(0.12 -0.12)">
     <use xlink:href="#DejaVuSans-77"/>
     <use x="86.279297" xlink:href="#DejaVuSans-111"/>
     <use x="147.460938" xlink:href="#DejaVuSans-100"/>
     <use x="210.9375" xlink:href="#DejaVuSans-101"/>
     <use x="272.460938" xlink:href="#DejaVuSans-108"/>
     <use x="300.244141" xlink:href="#DejaVuSans-45"/>
     <use x="336.328125" xlink:href="#DejaVuSans-97"/>
     <use x="397.607422" xlink:href="#DejaVuSans-118"/>
     <use x="456.787109" xlink:href="#DejaVuSans-101"/>
     <use x="518.310547" xlink:href="#DejaVuSans-114"/>
     <use x="559.423828" xlink:href="#DejaVuSans-97"/>
     <use x="620.703125" xlink:href="#DejaVuSans-103"/>
     <use x="684.179688" xlink:href="#DejaVuSans-101"/>
     <use x="745.703125" xlink:href="#DejaVuSans-100"/>
     <use x="809.179688" xlink:href="#DejaVuSans-32"/>
     <use x="840.966797" xlink:href="#DejaVuSans-52"/>
     <use x="904.589844" xlink:href="#DejaVuSans-45"/>
     <use x="940.673828" xlink:href="#DejaVuSans-119"/>
     <use x="1022.460938" xlink:href="#DejaVuSans-101"/>
     <use x="1083.984375" xlink:href="#DejaVuSans-101"/>
     <use x="1145.507812" xlink:href="#DejaVuSans-107"/>
     <use x="1203.417969" xlink:href="#DejaVuSans-45"/>
     <use x="1239.501953" xlink:href="#DejaVuSans-97"/>
     <use x="1300.78125" xlink:href="#DejaVuSans-104"/>
     <use x="1364.160156" xlink:href="#DejaVuSans-101"/>
     <use x="1425.683594" xlink:href="#DejaVuSans-97"/>
     <use x="1486.962891" xlink:href="#DejaVuSans-100"/>
     <use x="1550.439453" xlink:href="#DejaVuSans-32"/>
     <use x="1582.226562" xlink:href="#DejaVuSans-102"/>
     <use x="1617.431641" xlink:href="#DejaVuSans-111"/>
     <use x="1678.613281" xlink:href="#DejaVuSans-114"/>
     <use x="1717.476562" xlink:href="#DejaVuSans-101"/>
     <use x="1779" xlink:href="#DejaVuSans-99"/>
     <use x="1833.980469" xlink:href="#DejaVuSans-97"/>
     <use x="1895.259766" xlink:href="#DejaVuSans-115"/>
     <use x="1947.359375" xlink:href="#DejaVuSans-116"/>
     <use x="1986.568359" xlink:href="#DejaVuSans-115"/>
    </g>
   </g>
   <g id="legend_1">
    <g id="patch_7">
     <path d="M 55.982813 217.919125 
L 167.139063 217.919125 
Q 169.139063 217.919125 169.139063 215.919125 
L 169.139063 146.206625 
Q 169.139063 144.206625 167.139063 144.206625 
L 55.982813 144.206625 
Q 53.982813 144.206625 53.982813 146.206625 
L 53.982813 215.919125 
Q 53.982813 217.919125 55.982813 217.919125 
z
" style="fill:#ffffff;opacity:0.8;stroke:#cccccc;stroke-linejoin:miter;"/>
    </g>
    <g id="line2d_26">
     <path d="M 57.982813 152.305063 
L 77.982813 152.305063 
" style="fill:none;stroke:#000080;stroke-linecap:square;stroke-width:1.5;"/>
    </g>
    <g id="line2d_27">
     <g>
      <use style="fill:#000080;stroke:#000080;" x="67.982813" xlink:href="#m3be634a794" y="152.305063"/>
     </g>
    </g>
    <g id="text_25">
     <!-- compartmental -->
     <defs>
      <path d="M 18.109375 8.203125 
L 18.109375 -20.796875 
L 9.078125 -20.796875 
L 9.078125 54.6875 
L 18.109375 54.6875 
L 18.109375 46.390625 
Q 20.953125 51.265625 25.265625 53.625 
Q 29.59375 56 35.59375 56 
Q 45.5625 56 51.78125 48.09375 
Q 58.015625 40.1875 58.015625 27.296875 
Q 58.015625 14.40625 51.78125 6.484375 
Q 45.5625 -1.421875 35.59375 -1.421875 
Q 29.59375 -1.421875 25.265625 0.953125 
Q 20.953125 3.328125 18.109375 8.203125 
z
M 48.6875 27.296875 
Q 48.6875 37.203125 44.609375 42.84375 
Q 40.53125 48.484375 33.40625 48.484375 
Q 26.265625 48.484375 22.1875 42.84375 
Q 18.109375 37.203125 18.109375 27.296875 
Q 18.109375 17.390625 22.1875 11.75 
Q 26.265625 6.109375 33.40625 6.109375 
Q 40.53125 6.109375 44.609375 11.75 
Q 48.6875 17.390625 48.6875 27.296875 
z
" id="DejaVuSans-112"/>
     </defs>
     <g transform="translate(85.982813 155.805063)scale(0.1 -0.1)">
      <use xlink:href="#DejaVuSans-99"/>
      <use x="54.980469" xlink:href="#DejaVuSans-111"/>
      <use x="116.162109" xlink:href="#DejaVuSans-109"/>
      <use x="213.574219" xlink:href="#DejaVuSans-112"/>
      <use x="277.050781" xlink:href="#DejaVuSans-97"/>
      <use x="338.330078" xlink:href="#DejaVuSans-114"/>
      <use x="379.443359" xlink:href="#DejaVuSans-116"/>
      <use x="418.652344" xlink:href="#DejaVuSans-109"/>
      <use x="516.064453" xlink:href="#DejaVuSans-101"/>
      <use x="577.587891" xlink:href="#DejaVuSans-110"/>
      <use x="640.966797" xlink:href="#DejaVuSans-116"/>
      <use x="680.175781" xlink:href="#DejaVuSans-97"/>
      <use x="741.455078" xlink:href="#DejaVuSans-108"/>
     </g>
    </g>
    <g id="line2d_28">
     <path d="M 57.982813 170.983188 
L 77.982813 170.983188 
" style="fill:none;stroke:#00d4ff;stroke-linecap:square;stroke-width:1.5;"/>
    </g>
    <g id="line2d_29">
     <g>
      <use style="fill:#00d4ff;stroke:#00d4ff;" x="67.982813" xlink:href="#mffd53d83b5" y="170.983188"/>
     </g>
    </g>
    <g id="text_26">
     <!-- metapopulation -->
     <g transform="translate(85.982813 174.483188)scale(0.1 -0.1)">
      <use xlink:href="#DejaVuSans-109"/>
      <use x="97.412109" xlink:href="#DejaVuSans-101"/>
      <use x="158.935547" xlink:href="#DejaVuSans-116"/>
      <use x="198.144531" xlink:href="#DejaVuSans-97"/>
      <use x="259.423828" xlink:href="#DejaVuSans-112"/>
      <use x="322.900391" xlink:href="#DejaVuSans-111"/>
      <use x="384.082031" xlink:href="#DejaVuSans-112"/>
      <use x="447.558594" xlink:href="#DejaVuSans-117"/>
      <use x="510.9375" xlink:href="#DejaVuSans-108"/>
      <use x="538.720703" xlink:href="#DejaVuSans-97"/>
      <use x="600" xlink:href="#DejaVuSans-116"/>
      <use x="639.208984" xlink:href="#DejaVuSans-105"/>
      <use x="666.992188" xlink:href="#DejaVuSans-111"/>
      <use x="728.173828" xlink:href="#DejaVuSans-110"/>
     </g>
    </g>
    <g id="line2d_30">
     <path d="M 57.982813 189.661313 
L 77.982813 189.661313 
" style="fill:none;stroke:#ffe600;stroke-linecap:square;stroke-width:1.5;"/>
    </g>
    <g id="line2d_31">
     <g>
      <use style="fill:#ffe600;stroke:#ffe600;" x="67.982813" xlink:href="#mccc08261e8" y="189.661313"/>
     </g>
    </g>
    <g id="text_27">
     <!-- stat&amp;prob -->
     <defs>
      <path d="M 24.3125 39.203125 
Q 19.875 35.25 17.796875 31.3125 
Q 15.71875 27.390625 15.71875 23.09375 
Q 15.71875 15.96875 20.890625 11.234375 
Q 26.078125 6.5 33.890625 6.5 
Q 38.53125 6.5 42.578125 8.03125 
Q 46.625 9.578125 50.203125 12.703125 
z
M 31.203125 44.671875 
L 56 19.28125 
Q 58.890625 23.640625 60.5 28.59375 
Q 62.109375 33.546875 62.40625 39.109375 
L 71.484375 39.109375 
Q 70.90625 32.671875 68.359375 26.359375 
Q 65.828125 20.0625 61.28125 13.921875 
L 74.90625 0 
L 62.59375 0 
L 55.609375 7.171875 
Q 50.53125 2.828125 44.96875 0.703125 
Q 39.40625 -1.421875 33.015625 -1.421875 
Q 21.234375 -1.421875 13.765625 5.296875 
Q 6.296875 12.015625 6.296875 22.515625 
Q 6.296875 28.765625 9.5625 34.25 
Q 12.84375 39.75 19.390625 44.578125 
Q 17.046875 47.65625 15.8125 50.703125 
Q 14.59375 53.765625 14.59375 56.6875 
Q 14.59375 64.59375 20.015625 69.40625 
Q 25.4375 74.21875 34.421875 74.21875 
Q 38.484375 74.21875 42.5 73.34375 
Q 46.53125 72.46875 50.6875 70.703125 
L 50.6875 61.8125 
Q 46.4375 64.109375 42.578125 65.296875 
Q 38.71875 66.5 35.40625 66.5 
Q 30.28125 66.5 27.078125 63.78125 
Q 23.875 61.078125 23.875 56.78125 
Q 23.875 54.296875 25.3125 51.78125 
Q 26.765625 49.265625 31.203125 44.671875 
z
" id="DejaVuSans-38"/>
      <path d="M 48.6875 27.296875 
Q 48.6875 37.203125 44.609375 42.84375 
Q 40.53125 48.484375 33.40625 48.484375 
Q 26.265625 48.484375 22.1875 42.84375 
Q 18.109375 37.203125 18.109375 27.296875 
Q 18.109375 17.390625 22.1875 11.75 
Q 26.265625 6.109375 33.40625 6.109375 
Q 40.53125 6.109375 44.609375 11.75 
Q 48.6875 17.390625 48.6875 27.296875 
z
M 18.109375 46.390625 
Q 20.953125 51.265625 25.265625 53.625 
Q 29.59375 56 35.59375 56 
Q 45.5625 56 51.78125 48.09375 
Q 58.015625 40.1875 58.015625 27.296875 
Q 58.015625 14.40625 51.78125 6.484375 
Q 45.5625 -1.421875 35.59375 -1.421875 
Q 29.59375 -1.421875 25.265625 0.953125 
Q 20.953125 3.328125 18.109375 8.203125 
L 18.109375 0 
L 9.078125 0 
L 9.078125 75.984375 
L 18.109375 75.984375 
z
" id="DejaVuSans-98"/>
     </defs>
     <g transform="translate(85.982813 193.161313)scale(0.1 -0.1)">
      <use xlink:href="#DejaVuSans-115"/>
      <use x="52.099609" xlink:href="#DejaVuSans-116"/>
      <use x="91.308594" xlink:href="#DejaVuSans-97"/>
      <use x="152.587891" xlink:href="#DejaVuSans-116"/>
      <use x="191.796875" xlink:href="#DejaVuSans-38"/>
      <use x="269.775391" xlink:href="#DejaVuSans-112"/>
      <use x="333.251953" xlink:href="#DejaVuSans-114"/>
      <use x="372.115234" xlink:href="#DejaVuSans-111"/>
      <use x="433.296875" xlink:href="#DejaVuSans-98"/>
     </g>
    </g>
    <g id="line2d_32">
     <path d="M 57.982813 208.339438 
L 77.982813 208.339438 
" style="fill:none;stroke:#800000;stroke-linecap:square;stroke-width:1.5;"/>
    </g>
    <g id="line2d_33">
     <g>
      <use style="fill:#800000;stroke:#800000;" x="67.982813" xlink:href="#ma43e0e7104" y="208.339438"/>
     </g>
    </g>
    <g id="text_28">
     <!-- ensemble -->
     <g transform="translate(85.982813 211.839438)scale(0.1 -0.1)">
      <use xlink:href="#DejaVuSans-101"/>
      <use x="61.523438" xlink:href="#DejaVuSans-110"/>
      <use x="124.902344" xlink:href="#DejaVuSans-115"/>
      <use x="177.001953" xlink:href="#DejaVuSans-101"/>
      <use x="238.525391" xlink:href="#DejaVuSans-109"/>
      <use x="335.9375" xlink:href="#DejaVuSans-98"/>
      <use x="399.414062" xlink:href="#DejaVuSans-108"/>
      <use x="427.197266" xlink:href="#DejaVuSans-101"/>
     </g>
    </g>
   </g>
  </g>
 </g>
 <defs>
  <clipPath id="pc1b893b18a">
   <rect height="200.601" width="213.500244" x="48.982813" y="22.318125"/>
  </clipPath>
 </defs>
</svg>
