<?xml version="1.0" encoding="utf-8" standalone="no"?>
<!DOCTYPE svg PUBLIC "-//W3C//DTD SVG 1.1//EN"
  "http://www.w3.org/Graphics/SVG/1.1/DTD/svg11.dtd">
<!-- Created with matplotlib (https://matplotlib.org/) -->
<svg height="287.185628pt" version="1.1" viewBox="0 0 287.877245 287.185628" width="287.877245pt" xmlns="http://www.w3.org/2000/svg" xmlns:xlink="http://www.w3.org/1999/xlink">
 <defs>
  <style type="text/css">
*{stroke-linecap:butt;stroke-linejoin:round;}
  </style>
 </defs>
 <g id="figure_1">
  <g id="patch_1">
   <path d="M 0 287.185628 
L 287.877245 287.185628 
L 287.877245 0 
L 0 0 
z
" style="fill:#ffffff;"/>
  </g>
  <g id="axes_1">
   <g id="patch_2">
    <path d="M 48.982813 222.919125 
L 262.483056 222.919125 
L 262.483056 22.318125 
L 48.982813 22.318125 
z
" style="fill:#ffffff;"/>
   </g>
   <g id="matplotlib.axis_1">
    <g id="xtick_1">
     <g id="line2d_1">
      <defs>
       <path d="M 0 0 
L 0 3.5 
" id="mc09b6078b4" style="stroke:#000000;stroke-width:0.8;"/>
      </defs>
      <g>
       <use style="stroke:#000000;stroke-width:0.8;" x="48.982813" xlink:href="#mc09b6078b4" y="222.919125"/>
      </g>
     </g>
     <g id="text_1">
      <!-- 2020-04 -->
      <defs>
       <path d="M 19.1875 8.296875 
L 53.609375 8.296875 
L 53.609375 0 
L 7.328125 0 
L 7.328125 8.296875 
Q 12.9375 14.109375 22.625 23.890625 
Q 32.328125 33.6875 34.8125 36.53125 
Q 39.546875 41.84375 41.421875 45.53125 
Q 43.3125 49.21875 43.3125 52.78125 
Q 43.3125 58.59375 39.234375 62.25 
Q 35.15625 65.921875 28.609375 65.921875 
Q 23.96875 65.921875 18.8125 64.3125 
Q 13.671875 62.703125 7.8125 59.421875 
L 7.8125 69.390625 
Q 13.765625 71.78125 18.9375 73 
Q 24.125 74.21875 28.421875 74.21875 
Q 39.75 74.21875 46.484375 68.546875 
Q 53.21875 62.890625 53.21875 53.421875 
Q 53.21875 48.921875 51.53125 44.890625 
Q 49.859375 40.875 45.40625 35.40625 
Q 44.1875 33.984375 37.640625 27.21875 
Q 31.109375 20.453125 19.1875 8.296875 
z
" id="DejaVuSans-50"/>
       <path d="M 31.78125 66.40625 
Q 24.171875 66.40625 20.328125 58.90625 
Q 16.5 51.421875 16.5 36.375 
Q 16.5 21.390625 20.328125 13.890625 
Q 24.171875 6.390625 31.78125 6.390625 
Q 39.453125 6.390625 43.28125 13.890625 
Q 47.125 21.390625 47.125 36.375 
Q 47.125 51.421875 43.28125 58.90625 
Q 39.453125 66.40625 31.78125 66.40625 
z
M 31.78125 74.21875 
Q 44.046875 74.21875 50.515625 64.515625 
Q 56.984375 54.828125 56.984375 36.375 
Q 56.984375 17.96875 50.515625 8.265625 
Q 44.046875 -1.421875 31.78125 -1.421875 
Q 19.53125 -1.421875 13.0625 8.265625 
Q 6.59375 17.96875 6.59375 36.375 
Q 6.59375 54.828125 13.0625 64.515625 
Q 19.53125 74.21875 31.78125 74.21875 
z
" id="DejaVuSans-48"/>
       <path d="M 4.890625 31.390625 
L 31.203125 31.390625 
L 31.203125 23.390625 
L 4.890625 23.390625 
z
" id="DejaVuSans-45"/>
       <path d="M 37.796875 64.3125 
L 12.890625 25.390625 
L 37.796875 25.390625 
z
M 35.203125 72.90625 
L 47.609375 72.90625 
L 47.609375 25.390625 
L 58.015625 25.390625 
L 58.015625 17.1875 
L 47.609375 17.1875 
L 47.609375 0 
L 37.796875 0 
L 37.796875 17.1875 
L 4.890625 17.1875 
L 4.890625 26.703125 
z
" id="DejaVuSans-52"/>
      </defs>
      <g transform="translate(36.16153 264.836942)rotate(-45)scale(0.1 -0.1)">
       <use xlink:href="#DejaVuSans-50"/>
       <use x="63.623047" xlink:href="#DejaVuSans-48"/>
       <use x="127.246094" xlink:href="#DejaVuSans-50"/>
       <use x="190.869141" xlink:href="#DejaVuSans-48"/>
       <use x="254.492188" xlink:href="#DejaVuSans-45"/>
       <use x="290.576172" xlink:href="#DejaVuSans-48"/>
       <use x="354.199219" xlink:href="#DejaVuSans-52"/>
      </g>
     </g>
    </g>
    <g id="xtick_2">
     <g id="line2d_2">
      <g>
       <use style="stroke:#000000;stroke-width:0.8;" x="59.271981" xlink:href="#mc09b6078b4" y="222.919125"/>
      </g>
     </g>
     <g id="text_2">
      <!-- 2020-05 -->
      <defs>
       <path d="M 10.796875 72.90625 
L 49.515625 72.90625 
L 49.515625 64.59375 
L 19.828125 64.59375 
L 19.828125 46.734375 
Q 21.96875 47.46875 24.109375 47.828125 
Q 26.265625 48.1875 28.421875 48.1875 
Q 40.625 48.1875 47.75 41.5 
Q 54.890625 34.8125 54.890625 23.390625 
Q 54.890625 11.625 47.5625 5.09375 
Q 40.234375 -1.421875 26.90625 -1.421875 
Q 22.3125 -1.421875 17.546875 -0.640625 
Q 12.796875 0.140625 7.71875 1.703125 
L 7.71875 11.625 
Q 12.109375 9.234375 16.796875 8.0625 
Q 21.484375 6.890625 26.703125 6.890625 
Q 35.15625 6.890625 40.078125 11.328125 
Q 45.015625 15.765625 45.015625 23.390625 
Q 45.015625 31 40.078125 35.4375 
Q 35.15625 39.890625 26.703125 39.890625 
Q 22.75 39.890625 18.8125 39.015625 
Q 14.890625 38.140625 10.796875 36.28125 
z
" id="DejaVuSans-53"/>
      </defs>
      <g transform="translate(46.450699 264.836942)rotate(-45)scale(0.1 -0.1)">
       <use xlink:href="#DejaVuSans-50"/>
       <use x="63.623047" xlink:href="#DejaVuSans-48"/>
       <use x="127.246094" xlink:href="#DejaVuSans-50"/>
       <use x="190.869141" xlink:href="#DejaVuSans-48"/>
       <use x="254.492188" xlink:href="#DejaVuSans-45"/>
       <use x="290.576172" xlink:href="#DejaVuSans-48"/>
       <use x="354.199219" xlink:href="#DejaVuSans-53"/>
      </g>
     </g>
    </g>
    <g id="xtick_3">
     <g id="line2d_3">
      <g>
       <use style="stroke:#000000;stroke-width:0.8;" x="72.133441" xlink:href="#mc09b6078b4" y="222.919125"/>
      </g>
     </g>
     <g id="text_3">
      <!-- 2020-06 -->
      <defs>
       <path d="M 33.015625 40.375 
Q 26.375 40.375 22.484375 35.828125 
Q 18.609375 31.296875 18.609375 23.390625 
Q 18.609375 15.53125 22.484375 10.953125 
Q 26.375 6.390625 33.015625 6.390625 
Q 39.65625 6.390625 43.53125 10.953125 
Q 47.40625 15.53125 47.40625 23.390625 
Q 47.40625 31.296875 43.53125 35.828125 
Q 39.65625 40.375 33.015625 40.375 
z
M 52.59375 71.296875 
L 52.59375 62.3125 
Q 48.875 64.0625 45.09375 64.984375 
Q 41.3125 65.921875 37.59375 65.921875 
Q 27.828125 65.921875 22.671875 59.328125 
Q 17.53125 52.734375 16.796875 39.40625 
Q 19.671875 43.65625 24.015625 45.921875 
Q 28.375 48.1875 33.59375 48.1875 
Q 44.578125 48.1875 50.953125 41.515625 
Q 57.328125 34.859375 57.328125 23.390625 
Q 57.328125 12.15625 50.6875 5.359375 
Q 44.046875 -1.421875 33.015625 -1.421875 
Q 20.359375 -1.421875 13.671875 8.265625 
Q 6.984375 17.96875 6.984375 36.375 
Q 6.984375 53.65625 15.1875 63.9375 
Q 23.390625 74.21875 37.203125 74.21875 
Q 40.921875 74.21875 44.703125 73.484375 
Q 48.484375 72.75 52.59375 71.296875 
z
" id="DejaVuSans-54"/>
      </defs>
      <g transform="translate(59.312159 264.836942)rotate(-45)scale(0.1 -0.1)">
       <use xlink:href="#DejaVuSans-50"/>
       <use x="63.623047" xlink:href="#DejaVuSans-48"/>
       <use x="127.246094" xlink:href="#DejaVuSans-50"/>
       <use x="190.869141" xlink:href="#DejaVuSans-48"/>
       <use x="254.492188" xlink:href="#DejaVuSans-45"/>
       <use x="290.576172" xlink:href="#DejaVuSans-48"/>
       <use x="354.199219" xlink:href="#DejaVuSans-54"/>
      </g>
     </g>
    </g>
    <g id="xtick_4">
     <g id="line2d_4">
      <g>
       <use style="stroke:#000000;stroke-width:0.8;" x="82.42261" xlink:href="#mc09b6078b4" y="222.919125"/>
      </g>
     </g>
     <g id="text_4">
      <!-- 2020-07 -->
      <defs>
       <path d="M 8.203125 72.90625 
L 55.078125 72.90625 
L 55.078125 68.703125 
L 28.609375 0 
L 18.3125 0 
L 43.21875 64.59375 
L 8.203125 64.59375 
z
" id="DejaVuSans-55"/>
      </defs>
      <g transform="translate(69.601327 264.836942)rotate(-45)scale(0.1 -0.1)">
       <use xlink:href="#DejaVuSans-50"/>
       <use x="63.623047" xlink:href="#DejaVuSans-48"/>
       <use x="127.246094" xlink:href="#DejaVuSans-50"/>
       <use x="190.869141" xlink:href="#DejaVuSans-48"/>
       <use x="254.492188" xlink:href="#DejaVuSans-45"/>
       <use x="290.576172" xlink:href="#DejaVuSans-48"/>
       <use x="354.199219" xlink:href="#DejaVuSans-55"/>
      </g>
     </g>
    </g>
    <g id="xtick_5">
     <g id="line2d_5">
      <g>
       <use style="stroke:#000000;stroke-width:0.8;" x="92.711778" xlink:href="#mc09b6078b4" y="222.919125"/>
      </g>
     </g>
     <g id="text_5">
      <!-- 2020-08 -->
      <defs>
       <path d="M 31.78125 34.625 
Q 24.75 34.625 20.71875 30.859375 
Q 16.703125 27.09375 16.703125 20.515625 
Q 16.703125 13.921875 20.71875 10.15625 
Q 24.75 6.390625 31.78125 6.390625 
Q 38.8125 6.390625 42.859375 10.171875 
Q 46.921875 13.96875 46.921875 20.515625 
Q 46.921875 27.09375 42.890625 30.859375 
Q 38.875 34.625 31.78125 34.625 
z
M 21.921875 38.8125 
Q 15.578125 40.375 12.03125 44.71875 
Q 8.5 49.078125 8.5 55.328125 
Q 8.5 64.0625 14.71875 69.140625 
Q 20.953125 74.21875 31.78125 74.21875 
Q 42.671875 74.21875 48.875 69.140625 
Q 55.078125 64.0625 55.078125 55.328125 
Q 55.078125 49.078125 51.53125 44.71875 
Q 48 40.375 41.703125 38.8125 
Q 48.828125 37.15625 52.796875 32.3125 
Q 56.78125 27.484375 56.78125 20.515625 
Q 56.78125 9.90625 50.3125 4.234375 
Q 43.84375 -1.421875 31.78125 -1.421875 
Q 19.734375 -1.421875 13.25 4.234375 
Q 6.78125 9.90625 6.78125 20.515625 
Q 6.78125 27.484375 10.78125 32.3125 
Q 14.796875 37.15625 21.921875 38.8125 
z
M 18.3125 54.390625 
Q 18.3125 48.734375 21.84375 45.5625 
Q 25.390625 42.390625 31.78125 42.390625 
Q 38.140625 42.390625 41.71875 45.5625 
Q 45.3125 48.734375 45.3125 54.390625 
Q 45.3125 60.0625 41.71875 63.234375 
Q 38.140625 66.40625 31.78125 66.40625 
Q 25.390625 66.40625 21.84375 63.234375 
Q 18.3125 60.0625 18.3125 54.390625 
z
" id="DejaVuSans-56"/>
      </defs>
      <g transform="translate(79.890496 264.836942)rotate(-45)scale(0.1 -0.1)">
       <use xlink:href="#DejaVuSans-50"/>
       <use x="63.623047" xlink:href="#DejaVuSans-48"/>
       <use x="127.246094" xlink:href="#DejaVuSans-50"/>
       <use x="190.869141" xlink:href="#DejaVuSans-48"/>
       <use x="254.492188" xlink:href="#DejaVuSans-45"/>
       <use x="290.576172" xlink:href="#DejaVuSans-48"/>
       <use x="354.199219" xlink:href="#DejaVuSans-56"/>
      </g>
     </g>
    </g>
    <g id="xtick_6">
     <g id="line2d_6">
      <g>
       <use style="stroke:#000000;stroke-width:0.8;" x="105.573239" xlink:href="#mc09b6078b4" y="222.919125"/>
      </g>
     </g>
     <g id="text_6">
      <!-- 2020-09 -->
      <defs>
       <path d="M 10.984375 1.515625 
L 10.984375 10.5 
Q 14.703125 8.734375 18.5 7.8125 
Q 22.3125 6.890625 25.984375 6.890625 
Q 35.75 6.890625 40.890625 13.453125 
Q 46.046875 20.015625 46.78125 33.40625 
Q 43.953125 29.203125 39.59375 26.953125 
Q 35.25 24.703125 29.984375 24.703125 
Q 19.046875 24.703125 12.671875 31.3125 
Q 6.296875 37.9375 6.296875 49.421875 
Q 6.296875 60.640625 12.9375 67.421875 
Q 19.578125 74.21875 30.609375 74.21875 
Q 43.265625 74.21875 49.921875 64.515625 
Q 56.59375 54.828125 56.59375 36.375 
Q 56.59375 19.140625 48.40625 8.859375 
Q 40.234375 -1.421875 26.421875 -1.421875 
Q 22.703125 -1.421875 18.890625 -0.6875 
Q 15.09375 0.046875 10.984375 1.515625 
z
M 30.609375 32.421875 
Q 37.25 32.421875 41.125 36.953125 
Q 45.015625 41.5 45.015625 49.421875 
Q 45.015625 57.28125 41.125 61.84375 
Q 37.25 66.40625 30.609375 66.40625 
Q 23.96875 66.40625 20.09375 61.84375 
Q 16.21875 57.28125 16.21875 49.421875 
Q 16.21875 41.5 20.09375 36.953125 
Q 23.96875 32.421875 30.609375 32.421875 
z
" id="DejaVuSans-57"/>
      </defs>
      <g transform="translate(92.751956 264.836942)rotate(-45)scale(0.1 -0.1)">
       <use xlink:href="#DejaVuSans-50"/>
       <use x="63.623047" xlink:href="#DejaVuSans-48"/>
       <use x="127.246094" xlink:href="#DejaVuSans-50"/>
       <use x="190.869141" xlink:href="#DejaVuSans-48"/>
       <use x="254.492188" xlink:href="#DejaVuSans-45"/>
       <use x="290.576172" xlink:href="#DejaVuSans-48"/>
       <use x="354.199219" xlink:href="#DejaVuSans-57"/>
      </g>
     </g>
    </g>
    <g id="xtick_7">
     <g id="line2d_7">
      <g>
       <use style="stroke:#000000;stroke-width:0.8;" x="115.862407" xlink:href="#mc09b6078b4" y="222.919125"/>
      </g>
     </g>
     <g id="text_7">
      <!-- 2020-10 -->
      <defs>
       <path d="M 12.40625 8.296875 
L 28.515625 8.296875 
L 28.515625 63.921875 
L 10.984375 60.40625 
L 10.984375 69.390625 
L 28.421875 72.90625 
L 38.28125 72.90625 
L 38.28125 8.296875 
L 54.390625 8.296875 
L 54.390625 0 
L 12.40625 0 
z
" id="DejaVuSans-49"/>
      </defs>
      <g transform="translate(103.041125 264.836942)rotate(-45)scale(0.1 -0.1)">
       <use xlink:href="#DejaVuSans-50"/>
       <use x="63.623047" xlink:href="#DejaVuSans-48"/>
       <use x="127.246094" xlink:href="#DejaVuSans-50"/>
       <use x="190.869141" xlink:href="#DejaVuSans-48"/>
       <use x="254.492188" xlink:href="#DejaVuSans-45"/>
       <use x="290.576172" xlink:href="#DejaVuSans-49"/>
       <use x="354.199219" xlink:href="#DejaVuSans-48"/>
      </g>
     </g>
    </g>
    <g id="xtick_8">
     <g id="line2d_8">
      <g>
       <use style="stroke:#000000;stroke-width:0.8;" x="128.723867" xlink:href="#mc09b6078b4" y="222.919125"/>
      </g>
     </g>
     <g id="text_8">
      <!-- 2020-11 -->
      <g transform="translate(115.902585 264.836942)rotate(-45)scale(0.1 -0.1)">
       <use xlink:href="#DejaVuSans-50"/>
       <use x="63.623047" xlink:href="#DejaVuSans-48"/>
       <use x="127.246094" xlink:href="#DejaVuSans-50"/>
       <use x="190.869141" xlink:href="#DejaVuSans-48"/>
       <use x="254.492188" xlink:href="#DejaVuSans-45"/>
       <use x="290.576172" xlink:href="#DejaVuSans-49"/>
       <use x="354.199219" xlink:href="#DejaVuSans-49"/>
      </g>
     </g>
    </g>
    <g id="xtick_9">
     <g id="line2d_9">
      <g>
       <use style="stroke:#000000;stroke-width:0.8;" x="139.013036" xlink:href="#mc09b6078b4" y="222.919125"/>
      </g>
     </g>
     <g id="text_9">
      <!-- 2020-12 -->
      <g transform="translate(126.191753 264.836942)rotate(-45)scale(0.1 -0.1)">
       <use xlink:href="#DejaVuSans-50"/>
       <use x="63.623047" xlink:href="#DejaVuSans-48"/>
       <use x="127.246094" xlink:href="#DejaVuSans-50"/>
       <use x="190.869141" xlink:href="#DejaVuSans-48"/>
       <use x="254.492188" xlink:href="#DejaVuSans-45"/>
       <use x="290.576172" xlink:href="#DejaVuSans-49"/>
       <use x="354.199219" xlink:href="#DejaVuSans-50"/>
      </g>
     </g>
    </g>
    <g id="xtick_10">
     <g id="line2d_10">
      <g>
       <use style="stroke:#000000;stroke-width:0.8;" x="149.302204" xlink:href="#mc09b6078b4" y="222.919125"/>
      </g>
     </g>
     <g id="text_10">
      <!-- 2021-01 -->
      <g transform="translate(136.480922 264.836942)rotate(-45)scale(0.1 -0.1)">
       <use xlink:href="#DejaVuSans-50"/>
       <use x="63.623047" xlink:href="#DejaVuSans-48"/>
       <use x="127.246094" xlink:href="#DejaVuSans-50"/>
       <use x="190.869141" xlink:href="#DejaVuSans-49"/>
       <use x="254.492188" xlink:href="#DejaVuSans-45"/>
       <use x="290.576172" xlink:href="#DejaVuSans-48"/>
       <use x="354.199219" xlink:href="#DejaVuSans-49"/>
      </g>
     </g>
    </g>
    <g id="xtick_11">
     <g id="line2d_11">
      <g>
       <use style="stroke:#000000;stroke-width:0.8;" x="162.163665" xlink:href="#mc09b6078b4" y="222.919125"/>
      </g>
     </g>
     <g id="text_11">
      <!-- 2021-02 -->
      <g transform="translate(149.342382 264.836942)rotate(-45)scale(0.1 -0.1)">
       <use xlink:href="#DejaVuSans-50"/>
       <use x="63.623047" xlink:href="#DejaVuSans-48"/>
       <use x="127.246094" xlink:href="#DejaVuSans-50"/>
       <use x="190.869141" xlink:href="#DejaVuSans-49"/>
       <use x="254.492188" xlink:href="#DejaVuSans-45"/>
       <use x="290.576172" xlink:href="#DejaVuSans-48"/>
       <use x="354.199219" xlink:href="#DejaVuSans-50"/>
      </g>
     </g>
    </g>
    <g id="xtick_12">
     <g id="line2d_12">
      <g>
       <use style="stroke:#000000;stroke-width:0.8;" x="172.452833" xlink:href="#mc09b6078b4" y="222.919125"/>
      </g>
     </g>
     <g id="text_12">
      <!-- 2021-03 -->
      <defs>
       <path d="M 40.578125 39.3125 
Q 47.65625 37.796875 51.625 33 
Q 55.609375 28.21875 55.609375 21.1875 
Q 55.609375 10.40625 48.1875 4.484375 
Q 40.765625 -1.421875 27.09375 -1.421875 
Q 22.515625 -1.421875 17.65625 -0.515625 
Q 12.796875 0.390625 7.625 2.203125 
L 7.625 11.71875 
Q 11.71875 9.328125 16.59375 8.109375 
Q 21.484375 6.890625 26.8125 6.890625 
Q 36.078125 6.890625 40.9375 10.546875 
Q 45.796875 14.203125 45.796875 21.1875 
Q 45.796875 27.640625 41.28125 31.265625 
Q 36.765625 34.90625 28.71875 34.90625 
L 20.21875 34.90625 
L 20.21875 43.015625 
L 29.109375 43.015625 
Q 36.375 43.015625 40.234375 45.921875 
Q 44.09375 48.828125 44.09375 54.296875 
Q 44.09375 59.90625 40.109375 62.90625 
Q 36.140625 65.921875 28.71875 65.921875 
Q 24.65625 65.921875 20.015625 65.03125 
Q 15.375 64.15625 9.8125 62.3125 
L 9.8125 71.09375 
Q 15.4375 72.65625 20.34375 73.4375 
Q 25.25 74.21875 29.59375 74.21875 
Q 40.828125 74.21875 47.359375 69.109375 
Q 53.90625 64.015625 53.90625 55.328125 
Q 53.90625 49.265625 50.4375 45.09375 
Q 46.96875 40.921875 40.578125 39.3125 
z
" id="DejaVuSans-51"/>
      </defs>
      <g transform="translate(159.631551 264.836942)rotate(-45)scale(0.1 -0.1)">
       <use xlink:href="#DejaVuSans-50"/>
       <use x="63.623047" xlink:href="#DejaVuSans-48"/>
       <use x="127.246094" xlink:href="#DejaVuSans-50"/>
       <use x="190.869141" xlink:href="#DejaVuSans-49"/>
       <use x="254.492188" xlink:href="#DejaVuSans-45"/>
       <use x="290.576172" xlink:href="#DejaVuSans-48"/>
       <use x="354.199219" xlink:href="#DejaVuSans-51"/>
      </g>
     </g>
    </g>
    <g id="xtick_13">
     <g id="line2d_13">
      <g>
       <use style="stroke:#000000;stroke-width:0.8;" x="182.742001" xlink:href="#mc09b6078b4" y="222.919125"/>
      </g>
     </g>
     <g id="text_13">
      <!-- 2021-04 -->
      <g transform="translate(169.920719 264.836942)rotate(-45)scale(0.1 -0.1)">
       <use xlink:href="#DejaVuSans-50"/>
       <use x="63.623047" xlink:href="#DejaVuSans-48"/>
       <use x="127.246094" xlink:href="#DejaVuSans-50"/>
       <use x="190.869141" xlink:href="#DejaVuSans-49"/>
       <use x="254.492188" xlink:href="#DejaVuSans-45"/>
       <use x="290.576172" xlink:href="#DejaVuSans-48"/>
       <use x="354.199219" xlink:href="#DejaVuSans-52"/>
      </g>
     </g>
    </g>
    <g id="xtick_14">
     <g id="line2d_14">
      <g>
       <use style="stroke:#000000;stroke-width:0.8;" x="193.03117" xlink:href="#mc09b6078b4" y="222.919125"/>
      </g>
     </g>
     <g id="text_14">
      <!-- 2021-05 -->
      <g transform="translate(180.209887 264.836942)rotate(-45)scale(0.1 -0.1)">
       <use xlink:href="#DejaVuSans-50"/>
       <use x="63.623047" xlink:href="#DejaVuSans-48"/>
       <use x="127.246094" xlink:href="#DejaVuSans-50"/>
       <use x="190.869141" xlink:href="#DejaVuSans-49"/>
       <use x="254.492188" xlink:href="#DejaVuSans-45"/>
       <use x="290.576172" xlink:href="#DejaVuSans-48"/>
       <use x="354.199219" xlink:href="#DejaVuSans-53"/>
      </g>
     </g>
    </g>
    <g id="xtick_15">
     <g id="line2d_15">
      <g>
       <use style="stroke:#000000;stroke-width:0.8;" x="205.89263" xlink:href="#mc09b6078b4" y="222.919125"/>
      </g>
     </g>
     <g id="text_15">
      <!-- 2021-06 -->
      <g transform="translate(193.071348 264.836942)rotate(-45)scale(0.1 -0.1)">
       <use xlink:href="#DejaVuSans-50"/>
       <use x="63.623047" xlink:href="#DejaVuSans-48"/>
       <use x="127.246094" xlink:href="#DejaVuSans-50"/>
       <use x="190.869141" xlink:href="#DejaVuSans-49"/>
       <use x="254.492188" xlink:href="#DejaVuSans-45"/>
       <use x="290.576172" xlink:href="#DejaVuSans-48"/>
       <use x="354.199219" xlink:href="#DejaVuSans-54"/>
      </g>
     </g>
    </g>
    <g id="xtick_16">
     <g id="line2d_16">
      <g>
       <use style="stroke:#000000;stroke-width:0.8;" x="216.181798" xlink:href="#mc09b6078b4" y="222.919125"/>
      </g>
     </g>
     <g id="text_16">
      <!-- 2021-07 -->
      <g transform="translate(203.360516 264.836942)rotate(-45)scale(0.1 -0.1)">
       <use xlink:href="#DejaVuSans-50"/>
       <use x="63.623047" xlink:href="#DejaVuSans-48"/>
       <use x="127.246094" xlink:href="#DejaVuSans-50"/>
       <use x="190.869141" xlink:href="#DejaVuSans-49"/>
       <use x="254.492188" xlink:href="#DejaVuSans-45"/>
       <use x="290.576172" xlink:href="#DejaVuSans-48"/>
       <use x="354.199219" xlink:href="#DejaVuSans-55"/>
      </g>
     </g>
    </g>
    <g id="xtick_17">
     <g id="line2d_17">
      <g>
       <use style="stroke:#000000;stroke-width:0.8;" x="229.043259" xlink:href="#mc09b6078b4" y="222.919125"/>
      </g>
     </g>
     <g id="text_17">
      <!-- 2021-08 -->
      <g transform="translate(216.221977 264.836942)rotate(-45)scale(0.1 -0.1)">
       <use xlink:href="#DejaVuSans-50"/>
       <use x="63.623047" xlink:href="#DejaVuSans-48"/>
       <use x="127.246094" xlink:href="#DejaVuSans-50"/>
       <use x="190.869141" xlink:href="#DejaVuSans-49"/>
       <use x="254.492188" xlink:href="#DejaVuSans-45"/>
       <use x="290.576172" xlink:href="#DejaVuSans-48"/>
       <use x="354.199219" xlink:href="#DejaVuSans-56"/>
      </g>
     </g>
    </g>
    <g id="xtick_18">
     <g id="line2d_18">
      <g>
       <use style="stroke:#000000;stroke-width:0.8;" x="239.332427" xlink:href="#mc09b6078b4" y="222.919125"/>
      </g>
     </g>
     <g id="text_18">
      <!-- 2021-09 -->
      <g transform="translate(226.511145 264.836942)rotate(-45)scale(0.1 -0.1)">
       <use xlink:href="#DejaVuSans-50"/>
       <use x="63.623047" xlink:href="#DejaVuSans-48"/>
       <use x="127.246094" xlink:href="#DejaVuSans-50"/>
       <use x="190.869141" xlink:href="#DejaVuSans-49"/>
       <use x="254.492188" xlink:href="#DejaVuSans-45"/>
       <use x="290.576172" xlink:href="#DejaVuSans-48"/>
       <use x="354.199219" xlink:href="#DejaVuSans-57"/>
      </g>
     </g>
    </g>
    <g id="xtick_19">
     <g id="line2d_19">
      <g>
       <use style="stroke:#000000;stroke-width:0.8;" x="249.621596" xlink:href="#mc09b6078b4" y="222.919125"/>
      </g>
     </g>
     <g id="text_19">
      <!-- 2021-10 -->
      <g transform="translate(236.800313 264.836942)rotate(-45)scale(0.1 -0.1)">
       <use xlink:href="#DejaVuSans-50"/>
       <use x="63.623047" xlink:href="#DejaVuSans-48"/>
       <use x="127.246094" xlink:href="#DejaVuSans-50"/>
       <use x="190.869141" xlink:href="#DejaVuSans-49"/>
       <use x="254.492188" xlink:href="#DejaVuSans-45"/>
       <use x="290.576172" xlink:href="#DejaVuSans-49"/>
       <use x="354.199219" xlink:href="#DejaVuSans-48"/>
      </g>
     </g>
    </g>
    <g id="xtick_20">
     <g id="line2d_20">
      <g>
       <use style="stroke:#000000;stroke-width:0.8;" x="262.483056" xlink:href="#mc09b6078b4" y="222.919125"/>
      </g>
     </g>
     <g id="text_20">
      <!-- 2021-11 -->
      <g transform="translate(249.661774 264.836942)rotate(-45)scale(0.1 -0.1)">
       <use xlink:href="#DejaVuSans-50"/>
       <use x="63.623047" xlink:href="#DejaVuSans-48"/>
       <use x="127.246094" xlink:href="#DejaVuSans-50"/>
       <use x="190.869141" xlink:href="#DejaVuSans-49"/>
       <use x="254.492188" xlink:href="#DejaVuSans-45"/>
       <use x="290.576172" xlink:href="#DejaVuSans-49"/>
       <use x="354.199219" xlink:href="#DejaVuSans-49"/>
      </g>
     </g>
    </g>
    <g id="text_21">
     <!-- Target End Date -->
     <defs>
      <path d="M -0.296875 72.90625 
L 61.375 72.90625 
L 61.375 64.59375 
L 35.5 64.59375 
L 35.5 0 
L 25.59375 0 
L 25.59375 64.59375 
L -0.296875 64.59375 
z
" id="DejaVuSans-84"/>
      <path d="M 34.28125 27.484375 
Q 23.390625 27.484375 19.1875 25 
Q 14.984375 22.515625 14.984375 16.5 
Q 14.984375 11.71875 18.140625 8.90625 
Q 21.296875 6.109375 26.703125 6.109375 
Q 34.1875 6.109375 38.703125 11.40625 
Q 43.21875 16.703125 43.21875 25.484375 
L 43.21875 27.484375 
z
M 52.203125 31.203125 
L 52.203125 0 
L 43.21875 0 
L 43.21875 8.296875 
Q 40.140625 3.328125 35.546875 0.953125 
Q 30.953125 -1.421875 24.3125 -1.421875 
Q 15.921875 -1.421875 10.953125 3.296875 
Q 6 8.015625 6 15.921875 
Q 6 25.140625 12.171875 29.828125 
Q 18.359375 34.515625 30.609375 34.515625 
L 43.21875 34.515625 
L 43.21875 35.40625 
Q 43.21875 41.609375 39.140625 45 
Q 35.0625 48.390625 27.6875 48.390625 
Q 23 48.390625 18.546875 47.265625 
Q 14.109375 46.140625 10.015625 43.890625 
L 10.015625 52.203125 
Q 14.9375 54.109375 19.578125 55.046875 
Q 24.21875 56 28.609375 56 
Q 40.484375 56 46.34375 49.84375 
Q 52.203125 43.703125 52.203125 31.203125 
z
" id="DejaVuSans-97"/>
      <path d="M 41.109375 46.296875 
Q 39.59375 47.171875 37.8125 47.578125 
Q 36.03125 48 33.890625 48 
Q 26.265625 48 22.1875 43.046875 
Q 18.109375 38.09375 18.109375 28.8125 
L 18.109375 0 
L 9.078125 0 
L 9.078125 54.6875 
L 18.109375 54.6875 
L 18.109375 46.1875 
Q 20.953125 51.171875 25.484375 53.578125 
Q 30.03125 56 36.53125 56 
Q 37.453125 56 38.578125 55.875 
Q 39.703125 55.765625 41.0625 55.515625 
z
" id="DejaVuSans-114"/>
      <path d="M 45.40625 27.984375 
Q 45.40625 37.75 41.375 43.109375 
Q 37.359375 48.484375 30.078125 48.484375 
Q 22.859375 48.484375 18.828125 43.109375 
Q 14.796875 37.75 14.796875 27.984375 
Q 14.796875 18.265625 18.828125 12.890625 
Q 22.859375 7.515625 30.078125 7.515625 
Q 37.359375 7.515625 41.375 12.890625 
Q 45.40625 18.265625 45.40625 27.984375 
z
M 54.390625 6.78125 
Q 54.390625 -7.171875 48.1875 -13.984375 
Q 42 -20.796875 29.203125 -20.796875 
Q 24.46875 -20.796875 20.265625 -20.09375 
Q 16.0625 -19.390625 12.109375 -17.921875 
L 12.109375 -9.1875 
Q 16.0625 -11.328125 19.921875 -12.34375 
Q 23.78125 -13.375 27.78125 -13.375 
Q 36.625 -13.375 41.015625 -8.765625 
Q 45.40625 -4.15625 45.40625 5.171875 
L 45.40625 9.625 
Q 42.625 4.78125 38.28125 2.390625 
Q 33.9375 0 27.875 0 
Q 17.828125 0 11.671875 7.65625 
Q 5.515625 15.328125 5.515625 27.984375 
Q 5.515625 40.671875 11.671875 48.328125 
Q 17.828125 56 27.875 56 
Q 33.9375 56 38.28125 53.609375 
Q 42.625 51.21875 45.40625 46.390625 
L 45.40625 54.6875 
L 54.390625 54.6875 
z
" id="DejaVuSans-103"/>
      <path d="M 56.203125 29.59375 
L 56.203125 25.203125 
L 14.890625 25.203125 
Q 15.484375 15.921875 20.484375 11.0625 
Q 25.484375 6.203125 34.421875 6.203125 
Q 39.59375 6.203125 44.453125 7.46875 
Q 49.3125 8.734375 54.109375 11.28125 
L 54.109375 2.78125 
Q 49.265625 0.734375 44.1875 -0.34375 
Q 39.109375 -1.421875 33.890625 -1.421875 
Q 20.796875 -1.421875 13.15625 6.1875 
Q 5.515625 13.8125 5.515625 26.8125 
Q 5.515625 40.234375 12.765625 48.109375 
Q 20.015625 56 32.328125 56 
Q 43.359375 56 49.78125 48.890625 
Q 56.203125 41.796875 56.203125 29.59375 
z
M 47.21875 32.234375 
Q 47.125 39.59375 43.09375 43.984375 
Q 39.0625 48.390625 32.421875 48.390625 
Q 24.90625 48.390625 20.390625 44.140625 
Q 15.875 39.890625 15.1875 32.171875 
z
" id="DejaVuSans-101"/>
      <path d="M 18.3125 70.21875 
L 18.3125 54.6875 
L 36.8125 54.6875 
L 36.8125 47.703125 
L 18.3125 47.703125 
L 18.3125 18.015625 
Q 18.3125 11.328125 20.140625 9.421875 
Q 21.96875 7.515625 27.59375 7.515625 
L 36.8125 7.515625 
L 36.8125 0 
L 27.59375 0 
Q 17.1875 0 13.234375 3.875 
Q 9.28125 7.765625 9.28125 18.015625 
L 9.28125 47.703125 
L 2.6875 47.703125 
L 2.6875 54.6875 
L 9.28125 54.6875 
L 9.28125 70.21875 
z
" id="DejaVuSans-116"/>
      <path id="DejaVuSans-32"/>
      <path d="M 9.8125 72.90625 
L 55.90625 72.90625 
L 55.90625 64.59375 
L 19.671875 64.59375 
L 19.671875 43.015625 
L 54.390625 43.015625 
L 54.390625 34.71875 
L 19.671875 34.71875 
L 19.671875 8.296875 
L 56.78125 8.296875 
L 56.78125 0 
L 9.8125 0 
z
" id="DejaVuSans-69"/>
      <path d="M 54.890625 33.015625 
L 54.890625 0 
L 45.90625 0 
L 45.90625 32.71875 
Q 45.90625 40.484375 42.875 44.328125 
Q 39.84375 48.1875 33.796875 48.1875 
Q 26.515625 48.1875 22.3125 43.546875 
Q 18.109375 38.921875 18.109375 30.90625 
L 18.109375 0 
L 9.078125 0 
L 9.078125 54.6875 
L 18.109375 54.6875 
L 18.109375 46.1875 
Q 21.34375 51.125 25.703125 53.5625 
Q 30.078125 56 35.796875 56 
Q 45.21875 56 50.046875 50.171875 
Q 54.890625 44.34375 54.890625 33.015625 
z
" id="DejaVuSans-110"/>
      <path d="M 45.40625 46.390625 
L 45.40625 75.984375 
L 54.390625 75.984375 
L 54.390625 0 
L 45.40625 0 
L 45.40625 8.203125 
Q 42.578125 3.328125 38.25 0.953125 
Q 33.9375 -1.421875 27.875 -1.421875 
Q 17.96875 -1.421875 11.734375 6.484375 
Q 5.515625 14.40625 5.515625 27.296875 
Q 5.515625 40.1875 11.734375 48.09375 
Q 17.96875 56 27.875 56 
Q 33.9375 56 38.25 53.625 
Q 42.578125 51.265625 45.40625 46.390625 
z
M 14.796875 27.296875 
Q 14.796875 17.390625 18.875 11.75 
Q 22.953125 6.109375 30.078125 6.109375 
Q 37.203125 6.109375 41.296875 11.75 
Q 45.40625 17.390625 45.40625 27.296875 
Q 45.40625 37.203125 41.296875 42.84375 
Q 37.203125 48.484375 30.078125 48.484375 
Q 22.953125 48.484375 18.875 42.84375 
Q 14.796875 37.203125 14.796875 27.296875 
z
" id="DejaVuSans-100"/>
      <path d="M 19.671875 64.796875 
L 19.671875 8.109375 
L 31.59375 8.109375 
Q 46.6875 8.109375 53.6875 14.9375 
Q 60.6875 21.78125 60.6875 36.53125 
Q 60.6875 51.171875 53.6875 57.984375 
Q 46.6875 64.796875 31.59375 64.796875 
z
M 9.8125 72.90625 
L 30.078125 72.90625 
Q 51.265625 72.90625 61.171875 64.09375 
Q 71.09375 55.28125 71.09375 36.53125 
Q 71.09375 17.671875 61.125 8.828125 
Q 51.171875 0 30.078125 0 
L 9.8125 0 
z
" id="DejaVuSans-68"/>
     </defs>
     <g transform="translate(115.629809 277.905941)scale(0.1 -0.1)">
      <use xlink:href="#DejaVuSans-84"/>
      <use x="44.583984" xlink:href="#DejaVuSans-97"/>
      <use x="105.863281" xlink:href="#DejaVuSans-114"/>
      <use x="145.226562" xlink:href="#DejaVuSans-103"/>
      <use x="208.703125" xlink:href="#DejaVuSans-101"/>
      <use x="270.226562" xlink:href="#DejaVuSans-116"/>
      <use x="309.435547" xlink:href="#DejaVuSans-32"/>
      <use x="341.222656" xlink:href="#DejaVuSans-69"/>
      <use x="404.40625" xlink:href="#DejaVuSans-110"/>
      <use x="467.785156" xlink:href="#DejaVuSans-100"/>
      <use x="531.261719" xlink:href="#DejaVuSans-32"/>
      <use x="563.048828" xlink:href="#DejaVuSans-68"/>
      <use x="640.050781" xlink:href="#DejaVuSans-97"/>
      <use x="701.330078" xlink:href="#DejaVuSans-116"/>
      <use x="740.539062" xlink:href="#DejaVuSans-101"/>
     </g>
    </g>
   </g>
   <g id="matplotlib.axis_2">
    <g id="ytick_1">
     <g id="line2d_21">
      <defs>
       <path d="M 0 0 
L -3.5 0 
" id="m6053da7700" style="stroke:#000000;stroke-width:0.8;"/>
      </defs>
      <g>
       <use style="stroke:#000000;stroke-width:0.8;" x="48.982813" xlink:href="#m6053da7700" y="200.120582"/>
      </g>
     </g>
     <g id="text_22">
      <!-- −12 -->
      <defs>
       <path d="M 10.59375 35.5 
L 73.1875 35.5 
L 73.1875 27.203125 
L 10.59375 27.203125 
z
" id="DejaVuSans-8722"/>
      </defs>
      <g transform="translate(20.878125 203.919801)scale(0.1 -0.1)">
       <use xlink:href="#DejaVuSans-8722"/>
       <use x="83.789062" xlink:href="#DejaVuSans-49"/>
       <use x="147.412109" xlink:href="#DejaVuSans-50"/>
      </g>
     </g>
    </g>
    <g id="ytick_2">
     <g id="line2d_22">
      <g>
       <use style="stroke:#000000;stroke-width:0.8;" x="48.982813" xlink:href="#m6053da7700" y="171.989823"/>
      </g>
     </g>
     <g id="text_23">
      <!-- −10 -->
      <g transform="translate(20.878125 175.789042)scale(0.1 -0.1)">
       <use xlink:href="#DejaVuSans-8722"/>
       <use x="83.789062" xlink:href="#DejaVuSans-49"/>
       <use x="147.412109" xlink:href="#DejaVuSans-48"/>
      </g>
     </g>
    </g>
    <g id="ytick_3">
     <g id="line2d_23">
      <g>
       <use style="stroke:#000000;stroke-width:0.8;" x="48.982813" xlink:href="#m6053da7700" y="143.859063"/>
      </g>
     </g>
     <g id="text_24">
      <!-- −8 -->
      <g transform="translate(27.240625 147.658282)scale(0.1 -0.1)">
       <use xlink:href="#DejaVuSans-8722"/>
       <use x="83.789062" xlink:href="#DejaVuSans-56"/>
      </g>
     </g>
    </g>
    <g id="ytick_4">
     <g id="line2d_24">
      <g>
       <use style="stroke:#000000;stroke-width:0.8;" x="48.982813" xlink:href="#m6053da7700" y="115.728304"/>
      </g>
     </g>
     <g id="text_25">
      <!-- −6 -->
      <g transform="translate(27.240625 119.527523)scale(0.1 -0.1)">
       <use xlink:href="#DejaVuSans-8722"/>
       <use x="83.789062" xlink:href="#DejaVuSans-54"/>
      </g>
     </g>
    </g>
    <g id="ytick_5">
     <g id="line2d_25">
      <g>
       <use style="stroke:#000000;stroke-width:0.8;" x="48.982813" xlink:href="#m6053da7700" y="87.597544"/>
      </g>
     </g>
     <g id="text_26">
      <!-- −4 -->
      <g transform="translate(27.240625 91.396763)scale(0.1 -0.1)">
       <use xlink:href="#DejaVuSans-8722"/>
       <use x="83.789062" xlink:href="#DejaVuSans-52"/>
      </g>
     </g>
    </g>
    <g id="ytick_6">
     <g id="line2d_26">
      <g>
       <use style="stroke:#000000;stroke-width:0.8;" x="48.982813" xlink:href="#m6053da7700" y="59.466785"/>
      </g>
     </g>
     <g id="text_27">
      <!-- −2 -->
      <g transform="translate(27.240625 63.266004)scale(0.1 -0.1)">
       <use xlink:href="#DejaVuSans-8722"/>
       <use x="83.789062" xlink:href="#DejaVuSans-50"/>
      </g>
     </g>
    </g>
    <g id="ytick_7">
     <g id="line2d_27">
      <g>
       <use style="stroke:#000000;stroke-width:0.8;" x="48.982813" xlink:href="#m6053da7700" y="31.336025"/>
      </g>
     </g>
     <g id="text_28">
      <!-- 0 -->
      <g transform="translate(35.620313 35.135244)scale(0.1 -0.1)">
       <use xlink:href="#DejaVuSans-48"/>
      </g>
     </g>
    </g>
    <g id="text_29">
     <!-- Score for cumulative deaths -->
     <defs>
      <path d="M 53.515625 70.515625 
L 53.515625 60.890625 
Q 47.90625 63.578125 42.921875 64.890625 
Q 37.9375 66.21875 33.296875 66.21875 
Q 25.25 66.21875 20.875 63.09375 
Q 16.5 59.96875 16.5 54.203125 
Q 16.5 49.359375 19.40625 46.890625 
Q 22.3125 44.4375 30.421875 42.921875 
L 36.375 41.703125 
Q 47.40625 39.59375 52.65625 34.296875 
Q 57.90625 29 57.90625 20.125 
Q 57.90625 9.515625 50.796875 4.046875 
Q 43.703125 -1.421875 29.984375 -1.421875 
Q 24.8125 -1.421875 18.96875 -0.25 
Q 13.140625 0.921875 6.890625 3.21875 
L 6.890625 13.375 
Q 12.890625 10.015625 18.65625 8.296875 
Q 24.421875 6.59375 29.984375 6.59375 
Q 38.421875 6.59375 43.015625 9.90625 
Q 47.609375 13.234375 47.609375 19.390625 
Q 47.609375 24.75 44.3125 27.78125 
Q 41.015625 30.8125 33.5 32.328125 
L 27.484375 33.5 
Q 16.453125 35.6875 11.515625 40.375 
Q 6.59375 45.0625 6.59375 53.421875 
Q 6.59375 63.09375 13.40625 68.65625 
Q 20.21875 74.21875 32.171875 74.21875 
Q 37.3125 74.21875 42.625 73.28125 
Q 47.953125 72.359375 53.515625 70.515625 
z
" id="DejaVuSans-83"/>
      <path d="M 48.78125 52.59375 
L 48.78125 44.1875 
Q 44.96875 46.296875 41.140625 47.34375 
Q 37.3125 48.390625 33.40625 48.390625 
Q 24.65625 48.390625 19.8125 42.84375 
Q 14.984375 37.3125 14.984375 27.296875 
Q 14.984375 17.28125 19.8125 11.734375 
Q 24.65625 6.203125 33.40625 6.203125 
Q 37.3125 6.203125 41.140625 7.25 
Q 44.96875 8.296875 48.78125 10.40625 
L 48.78125 2.09375 
Q 45.015625 0.34375 40.984375 -0.53125 
Q 36.96875 -1.421875 32.421875 -1.421875 
Q 20.0625 -1.421875 12.78125 6.34375 
Q 5.515625 14.109375 5.515625 27.296875 
Q 5.515625 40.671875 12.859375 48.328125 
Q 20.21875 56 33.015625 56 
Q 37.15625 56 41.109375 55.140625 
Q 45.0625 54.296875 48.78125 52.59375 
z
" id="DejaVuSans-99"/>
      <path d="M 30.609375 48.390625 
Q 23.390625 48.390625 19.1875 42.75 
Q 14.984375 37.109375 14.984375 27.296875 
Q 14.984375 17.484375 19.15625 11.84375 
Q 23.34375 6.203125 30.609375 6.203125 
Q 37.796875 6.203125 41.984375 11.859375 
Q 46.1875 17.53125 46.1875 27.296875 
Q 46.1875 37.015625 41.984375 42.703125 
Q 37.796875 48.390625 30.609375 48.390625 
z
M 30.609375 56 
Q 42.328125 56 49.015625 48.375 
Q 55.71875 40.765625 55.71875 27.296875 
Q 55.71875 13.875 49.015625 6.21875 
Q 42.328125 -1.421875 30.609375 -1.421875 
Q 18.84375 -1.421875 12.171875 6.21875 
Q 5.515625 13.875 5.515625 27.296875 
Q 5.515625 40.765625 12.171875 48.375 
Q 18.84375 56 30.609375 56 
z
" id="DejaVuSans-111"/>
      <path d="M 37.109375 75.984375 
L 37.109375 68.5 
L 28.515625 68.5 
Q 23.6875 68.5 21.796875 66.546875 
Q 19.921875 64.59375 19.921875 59.515625 
L 19.921875 54.6875 
L 34.71875 54.6875 
L 34.71875 47.703125 
L 19.921875 47.703125 
L 19.921875 0 
L 10.890625 0 
L 10.890625 47.703125 
L 2.296875 47.703125 
L 2.296875 54.6875 
L 10.890625 54.6875 
L 10.890625 58.5 
Q 10.890625 67.625 15.140625 71.796875 
Q 19.390625 75.984375 28.609375 75.984375 
z
" id="DejaVuSans-102"/>
      <path d="M 8.5 21.578125 
L 8.5 54.6875 
L 17.484375 54.6875 
L 17.484375 21.921875 
Q 17.484375 14.15625 20.5 10.265625 
Q 23.53125 6.390625 29.59375 6.390625 
Q 36.859375 6.390625 41.078125 11.03125 
Q 45.3125 15.671875 45.3125 23.6875 
L 45.3125 54.6875 
L 54.296875 54.6875 
L 54.296875 0 
L 45.3125 0 
L 45.3125 8.40625 
Q 42.046875 3.421875 37.71875 1 
Q 33.40625 -1.421875 27.6875 -1.421875 
Q 18.265625 -1.421875 13.375 4.4375 
Q 8.5 10.296875 8.5 21.578125 
z
M 31.109375 56 
z
" id="DejaVuSans-117"/>
      <path d="M 52 44.1875 
Q 55.375 50.25 60.0625 53.125 
Q 64.75 56 71.09375 56 
Q 79.640625 56 84.28125 50.015625 
Q 88.921875 44.046875 88.921875 33.015625 
L 88.921875 0 
L 79.890625 0 
L 79.890625 32.71875 
Q 79.890625 40.578125 77.09375 44.375 
Q 74.3125 48.1875 68.609375 48.1875 
Q 61.625 48.1875 57.5625 43.546875 
Q 53.515625 38.921875 53.515625 30.90625 
L 53.515625 0 
L 44.484375 0 
L 44.484375 32.71875 
Q 44.484375 40.625 41.703125 44.40625 
Q 38.921875 48.1875 33.109375 48.1875 
Q 26.21875 48.1875 22.15625 43.53125 
Q 18.109375 38.875 18.109375 30.90625 
L 18.109375 0 
L 9.078125 0 
L 9.078125 54.6875 
L 18.109375 54.6875 
L 18.109375 46.1875 
Q 21.1875 51.21875 25.484375 53.609375 
Q 29.78125 56 35.6875 56 
Q 41.65625 56 45.828125 52.96875 
Q 50 49.953125 52 44.1875 
z
" id="DejaVuSans-109"/>
      <path d="M 9.421875 75.984375 
L 18.40625 75.984375 
L 18.40625 0 
L 9.421875 0 
z
" id="DejaVuSans-108"/>
      <path d="M 9.421875 54.6875 
L 18.40625 54.6875 
L 18.40625 0 
L 9.421875 0 
z
M 9.421875 75.984375 
L 18.40625 75.984375 
L 18.40625 64.59375 
L 9.421875 64.59375 
z
" id="DejaVuSans-105"/>
      <path d="M 2.984375 54.6875 
L 12.5 54.6875 
L 29.59375 8.796875 
L 46.6875 54.6875 
L 56.203125 54.6875 
L 35.6875 0 
L 23.484375 0 
z
" id="DejaVuSans-118"/>
      <path d="M 54.890625 33.015625 
L 54.890625 0 
L 45.90625 0 
L 45.90625 32.71875 
Q 45.90625 40.484375 42.875 44.328125 
Q 39.84375 48.1875 33.796875 48.1875 
Q 26.515625 48.1875 22.3125 43.546875 
Q 18.109375 38.921875 18.109375 30.90625 
L 18.109375 0 
L 9.078125 0 
L 9.078125 75.984375 
L 18.109375 75.984375 
L 18.109375 46.1875 
Q 21.34375 51.125 25.703125 53.5625 
Q 30.078125 56 35.796875 56 
Q 45.21875 56 50.046875 50.171875 
Q 54.890625 44.34375 54.890625 33.015625 
z
" id="DejaVuSans-104"/>
      <path d="M 44.28125 53.078125 
L 44.28125 44.578125 
Q 40.484375 46.53125 36.375 47.5 
Q 32.28125 48.484375 27.875 48.484375 
Q 21.1875 48.484375 17.84375 46.4375 
Q 14.5 44.390625 14.5 40.28125 
Q 14.5 37.15625 16.890625 35.375 
Q 19.28125 33.59375 26.515625 31.984375 
L 29.59375 31.296875 
Q 39.15625 29.25 43.1875 25.515625 
Q 47.21875 21.78125 47.21875 15.09375 
Q 47.21875 7.46875 41.1875 3.015625 
Q 35.15625 -1.421875 24.609375 -1.421875 
Q 20.21875 -1.421875 15.453125 -0.5625 
Q 10.6875 0.296875 5.421875 2 
L 5.421875 11.28125 
Q 10.40625 8.6875 15.234375 7.390625 
Q 20.0625 6.109375 24.8125 6.109375 
Q 31.15625 6.109375 34.5625 8.28125 
Q 37.984375 10.453125 37.984375 14.40625 
Q 37.984375 18.0625 35.515625 20.015625 
Q 33.0625 21.96875 24.703125 23.78125 
L 21.578125 24.515625 
Q 13.234375 26.265625 9.515625 29.90625 
Q 5.8125 33.546875 5.8125 39.890625 
Q 5.8125 47.609375 11.28125 51.796875 
Q 16.75 56 26.8125 56 
Q 31.78125 56 36.171875 55.265625 
Q 40.578125 54.546875 44.28125 53.078125 
z
" id="DejaVuSans-115"/>
     </defs>
     <g transform="translate(14.798438 193.106906)rotate(-90)scale(0.1 -0.1)">
      <use xlink:href="#DejaVuSans-83"/>
      <use x="63.476562" xlink:href="#DejaVuSans-99"/>
      <use x="118.457031" xlink:href="#DejaVuSans-111"/>
      <use x="179.638672" xlink:href="#DejaVuSans-114"/>
      <use x="218.501953" xlink:href="#DejaVuSans-101"/>
      <use x="280.025391" xlink:href="#DejaVuSans-32"/>
      <use x="311.8125" xlink:href="#DejaVuSans-102"/>
      <use x="347.017578" xlink:href="#DejaVuSans-111"/>
      <use x="408.199219" xlink:href="#DejaVuSans-114"/>
      <use x="449.3125" xlink:href="#DejaVuSans-32"/>
      <use x="481.099609" xlink:href="#DejaVuSans-99"/>
      <use x="536.080078" xlink:href="#DejaVuSans-117"/>
      <use x="599.458984" xlink:href="#DejaVuSans-109"/>
      <use x="696.871094" xlink:href="#DejaVuSans-117"/>
      <use x="760.25" xlink:href="#DejaVuSans-108"/>
      <use x="788.033203" xlink:href="#DejaVuSans-97"/>
      <use x="849.3125" xlink:href="#DejaVuSans-116"/>
      <use x="888.521484" xlink:href="#DejaVuSans-105"/>
      <use x="916.304688" xlink:href="#DejaVuSans-118"/>
      <use x="975.484375" xlink:href="#DejaVuSans-101"/>
      <use x="1037.007812" xlink:href="#DejaVuSans-32"/>
      <use x="1068.794922" xlink:href="#DejaVuSans-100"/>
      <use x="1132.271484" xlink:href="#DejaVuSans-101"/>
      <use x="1193.794922" xlink:href="#DejaVuSans-97"/>
      <use x="1255.074219" xlink:href="#DejaVuSans-116"/>
      <use x="1294.283203" xlink:href="#DejaVuSans-104"/>
      <use x="1357.662109" xlink:href="#DejaVuSans-115"/>
     </g>
    </g>
   </g>
   <g id="line2d_28">
    <path clip-path="url(#pcf11dcb814)" d="M 66.988857 96.727522 
L 69.561149 104.145425 
L 72.133441 107.368091 
L 74.705733 105.30996 
L 77.278026 108.598286 
L 79.850318 112.317839 
L 82.42261 113.520518 
L 84.994902 91.528835 
L 87.567194 114.751859 
L 90.139486 107.245945 
L 92.711778 109.624242 
L 95.28407 106.523916 
L 97.856362 92.992589 
L 100.428654 106.194585 
L 103.000946 112.219199 
L 105.573239 125.548852 
L 108.145531 88.280643 
L 110.717823 91.700209 
L 113.290115 81.74506 
L 115.862407 83.45309 
L 118.434699 101.963552 
L 121.006991 93.951241 
L 123.579283 87.700096 
L 126.151575 85.581852 
L 128.723867 83.898119 
L 131.296159 87.769939 
L 133.868452 100.477161 
L 136.440744 133.785059 
L 139.013036 120.577969 
L 141.585328 112.324718 
L 144.15762 113.143605 
L 146.729912 125.295351 
L 149.302204 112.731534 
L 151.874496 114.131888 
L 154.446788 118.292663 
L 157.01908 138.36497 
L 159.591372 139.117676 
L 162.163665 110.462938 
L 164.735957 120.678266 
L 167.308249 129.947454 
L 169.880541 116.274856 
L 172.452833 95.377055 
L 175.025125 106.933804 
L 177.597417 90.878895 
L 180.169709 81.70181 
L 182.742001 72.935287 
L 185.314293 67.19586 
L 187.886585 78.10965 
L 190.458878 71.178495 
L 193.03117 77.268985 
L 195.603462 74.85679 
L 198.175754 88.280119 
L 200.748046 77.263468 
L 203.320338 62.989212 
L 205.89263 63.951419 
L 208.464922 68.741122 
L 211.037214 80.740015 
L 213.609506 58.88314 
L 216.181798 55.39999 
L 218.754091 50.17236 
L 221.326383 54.893058 
L 223.898675 35.605691 
L 226.470967 44.202621 
L 229.043259 51.457924 
L 231.615551 64.390954 
L 234.187843 95.566882 
L 236.760135 75.685087 
L 239.332427 86.556248 
L 241.904719 93.409702 
L 244.477011 92.748235 
L 247.049304 106.526418 
L 249.621596 101.973107 
L 252.193888 108.397722 
L 254.76618 83.259776 
L 257.338472 84.399606 
" style="fill:none;stroke:#000080;stroke-linecap:square;stroke-width:1.5;"/>
    <defs>
     <path d="M 0 3 
C 0.795609 3 1.55874 2.683901 2.12132 2.12132 
C 2.683901 1.55874 3 0.795609 3 0 
C 3 -0.795609 2.683901 -1.55874 2.12132 -2.12132 
C 1.55874 -2.683901 0.795609 -3 0 -3 
C -0.795609 -3 -1.55874 -2.683901 -2.12132 -2.12132 
C -2.683901 -1.55874 -3 -0.795609 -3 0 
C -3 0.795609 -2.683901 1.55874 -2.12132 2.12132 
C -1.55874 2.683901 -0.795609 3 0 3 
z
" id="m537ec0982c" style="stroke:#000080;"/>
    </defs>
    <g clip-path="url(#pcf11dcb814)">
     <use style="fill:#000080;stroke:#000080;" x="66.988857" xlink:href="#m537ec0982c" y="96.727522"/>
     <use style="fill:#000080;stroke:#000080;" x="69.561149" xlink:href="#m537ec0982c" y="104.145425"/>
     <use style="fill:#000080;stroke:#000080;" x="72.133441" xlink:href="#m537ec0982c" y="107.368091"/>
     <use style="fill:#000080;stroke:#000080;" x="74.705733" xlink:href="#m537ec0982c" y="105.30996"/>
     <use style="fill:#000080;stroke:#000080;" x="77.278026" xlink:href="#m537ec0982c" y="108.598286"/>
     <use style="fill:#000080;stroke:#000080;" x="79.850318" xlink:href="#m537ec0982c" y="112.317839"/>
     <use style="fill:#000080;stroke:#000080;" x="82.42261" xlink:href="#m537ec0982c" y="113.520518"/>
     <use style="fill:#000080;stroke:#000080;" x="84.994902" xlink:href="#m537ec0982c" y="91.528835"/>
     <use style="fill:#000080;stroke:#000080;" x="87.567194" xlink:href="#m537ec0982c" y="114.751859"/>
     <use style="fill:#000080;stroke:#000080;" x="90.139486" xlink:href="#m537ec0982c" y="107.245945"/>
     <use style="fill:#000080;stroke:#000080;" x="92.711778" xlink:href="#m537ec0982c" y="109.624242"/>
     <use style="fill:#000080;stroke:#000080;" x="95.28407" xlink:href="#m537ec0982c" y="106.523916"/>
     <use style="fill:#000080;stroke:#000080;" x="97.856362" xlink:href="#m537ec0982c" y="92.992589"/>
     <use style="fill:#000080;stroke:#000080;" x="100.428654" xlink:href="#m537ec0982c" y="106.194585"/>
     <use style="fill:#000080;stroke:#000080;" x="103.000946" xlink:href="#m537ec0982c" y="112.219199"/>
     <use style="fill:#000080;stroke:#000080;" x="105.573239" xlink:href="#m537ec0982c" y="125.548852"/>
     <use style="fill:#000080;stroke:#000080;" x="108.145531" xlink:href="#m537ec0982c" y="88.280643"/>
     <use style="fill:#000080;stroke:#000080;" x="110.717823" xlink:href="#m537ec0982c" y="91.700209"/>
     <use style="fill:#000080;stroke:#000080;" x="113.290115" xlink:href="#m537ec0982c" y="81.74506"/>
     <use style="fill:#000080;stroke:#000080;" x="115.862407" xlink:href="#m537ec0982c" y="83.45309"/>
     <use style="fill:#000080;stroke:#000080;" x="118.434699" xlink:href="#m537ec0982c" y="101.963552"/>
     <use style="fill:#000080;stroke:#000080;" x="121.006991" xlink:href="#m537ec0982c" y="93.951241"/>
     <use style="fill:#000080;stroke:#000080;" x="123.579283" xlink:href="#m537ec0982c" y="87.700096"/>
     <use style="fill:#000080;stroke:#000080;" x="126.151575" xlink:href="#m537ec0982c" y="85.581852"/>
     <use style="fill:#000080;stroke:#000080;" x="128.723867" xlink:href="#m537ec0982c" y="83.898119"/>
     <use style="fill:#000080;stroke:#000080;" x="131.296159" xlink:href="#m537ec0982c" y="87.769939"/>
     <use style="fill:#000080;stroke:#000080;" x="133.868452" xlink:href="#m537ec0982c" y="100.477161"/>
     <use style="fill:#000080;stroke:#000080;" x="136.440744" xlink:href="#m537ec0982c" y="133.785059"/>
     <use style="fill:#000080;stroke:#000080;" x="139.013036" xlink:href="#m537ec0982c" y="120.577969"/>
     <use style="fill:#000080;stroke:#000080;" x="141.585328" xlink:href="#m537ec0982c" y="112.324718"/>
     <use style="fill:#000080;stroke:#000080;" x="144.15762" xlink:href="#m537ec0982c" y="113.143605"/>
     <use style="fill:#000080;stroke:#000080;" x="146.729912" xlink:href="#m537ec0982c" y="125.295351"/>
     <use style="fill:#000080;stroke:#000080;" x="149.302204" xlink:href="#m537ec0982c" y="112.731534"/>
     <use style="fill:#000080;stroke:#000080;" x="151.874496" xlink:href="#m537ec0982c" y="114.131888"/>
     <use style="fill:#000080;stroke:#000080;" x="154.446788" xlink:href="#m537ec0982c" y="118.292663"/>
     <use style="fill:#000080;stroke:#000080;" x="157.01908" xlink:href="#m537ec0982c" y="138.36497"/>
     <use style="fill:#000080;stroke:#000080;" x="159.591372" xlink:href="#m537ec0982c" y="139.117676"/>
     <use style="fill:#000080;stroke:#000080;" x="162.163665" xlink:href="#m537ec0982c" y="110.462938"/>
     <use style="fill:#000080;stroke:#000080;" x="164.735957" xlink:href="#m537ec0982c" y="120.678266"/>
     <use style="fill:#000080;stroke:#000080;" x="167.308249" xlink:href="#m537ec0982c" y="129.947454"/>
     <use style="fill:#000080;stroke:#000080;" x="169.880541" xlink:href="#m537ec0982c" y="116.274856"/>
     <use style="fill:#000080;stroke:#000080;" x="172.452833" xlink:href="#m537ec0982c" y="95.377055"/>
     <use style="fill:#000080;stroke:#000080;" x="175.025125" xlink:href="#m537ec0982c" y="106.933804"/>
     <use style="fill:#000080;stroke:#000080;" x="177.597417" xlink:href="#m537ec0982c" y="90.878895"/>
     <use style="fill:#000080;stroke:#000080;" x="180.169709" xlink:href="#m537ec0982c" y="81.70181"/>
     <use style="fill:#000080;stroke:#000080;" x="182.742001" xlink:href="#m537ec0982c" y="72.935287"/>
     <use style="fill:#000080;stroke:#000080;" x="185.314293" xlink:href="#m537ec0982c" y="67.19586"/>
     <use style="fill:#000080;stroke:#000080;" x="187.886585" xlink:href="#m537ec0982c" y="78.10965"/>
     <use style="fill:#000080;stroke:#000080;" x="190.458878" xlink:href="#m537ec0982c" y="71.178495"/>
     <use style="fill:#000080;stroke:#000080;" x="193.03117" xlink:href="#m537ec0982c" y="77.268985"/>
     <use style="fill:#000080;stroke:#000080;" x="195.603462" xlink:href="#m537ec0982c" y="74.85679"/>
     <use style="fill:#000080;stroke:#000080;" x="198.175754" xlink:href="#m537ec0982c" y="88.280119"/>
     <use style="fill:#000080;stroke:#000080;" x="200.748046" xlink:href="#m537ec0982c" y="77.263468"/>
     <use style="fill:#000080;stroke:#000080;" x="203.320338" xlink:href="#m537ec0982c" y="62.989212"/>
     <use style="fill:#000080;stroke:#000080;" x="205.89263" xlink:href="#m537ec0982c" y="63.951419"/>
     <use style="fill:#000080;stroke:#000080;" x="208.464922" xlink:href="#m537ec0982c" y="68.741122"/>
     <use style="fill:#000080;stroke:#000080;" x="211.037214" xlink:href="#m537ec0982c" y="80.740015"/>
     <use style="fill:#000080;stroke:#000080;" x="213.609506" xlink:href="#m537ec0982c" y="58.88314"/>
     <use style="fill:#000080;stroke:#000080;" x="216.181798" xlink:href="#m537ec0982c" y="55.39999"/>
     <use style="fill:#000080;stroke:#000080;" x="218.754091" xlink:href="#m537ec0982c" y="50.17236"/>
     <use style="fill:#000080;stroke:#000080;" x="221.326383" xlink:href="#m537ec0982c" y="54.893058"/>
     <use style="fill:#000080;stroke:#000080;" x="223.898675" xlink:href="#m537ec0982c" y="35.605691"/>
     <use style="fill:#000080;stroke:#000080;" x="226.470967" xlink:href="#m537ec0982c" y="44.202621"/>
     <use style="fill:#000080;stroke:#000080;" x="229.043259" xlink:href="#m537ec0982c" y="51.457924"/>
     <use style="fill:#000080;stroke:#000080;" x="231.615551" xlink:href="#m537ec0982c" y="64.390954"/>
     <use style="fill:#000080;stroke:#000080;" x="234.187843" xlink:href="#m537ec0982c" y="95.566882"/>
     <use style="fill:#000080;stroke:#000080;" x="236.760135" xlink:href="#m537ec0982c" y="75.685087"/>
     <use style="fill:#000080;stroke:#000080;" x="239.332427" xlink:href="#m537ec0982c" y="86.556248"/>
     <use style="fill:#000080;stroke:#000080;" x="241.904719" xlink:href="#m537ec0982c" y="93.409702"/>
     <use style="fill:#000080;stroke:#000080;" x="244.477011" xlink:href="#m537ec0982c" y="92.748235"/>
     <use style="fill:#000080;stroke:#000080;" x="247.049304" xlink:href="#m537ec0982c" y="106.526418"/>
     <use style="fill:#000080;stroke:#000080;" x="249.621596" xlink:href="#m537ec0982c" y="101.973107"/>
     <use style="fill:#000080;stroke:#000080;" x="252.193888" xlink:href="#m537ec0982c" y="108.397722"/>
     <use style="fill:#000080;stroke:#000080;" x="254.76618" xlink:href="#m537ec0982c" y="83.259776"/>
     <use style="fill:#000080;stroke:#000080;" x="257.338472" xlink:href="#m537ec0982c" y="84.399606"/>
    </g>
   </g>
   <g id="line2d_29">
    <path clip-path="url(#pcf11dcb814)" d="M 61.844273 143.366525 
L 64.416565 127.617342 
L 66.988857 85.483066 
L 69.561149 107.844142 
L 72.133441 105.099981 
L 74.705733 105.265363 
L 77.278026 107.406032 
L 79.850318 97.355215 
L 82.42261 92.390616 
L 84.994902 110.339134 
L 87.567194 130.378408 
L 90.139486 100.658097 
L 92.711778 121.226421 
L 95.28407 118.98145 
L 97.856362 106.429952 
L 100.428654 108.977446 
L 103.000946 99.850055 
L 105.573239 95.651828 
L 108.145531 95.976957 
L 110.717823 98.586477 
L 113.290115 89.030316 
L 115.862407 95.748952 
L 118.434699 88.860503 
L 121.006991 87.254798 
L 123.579283 92.017919 
L 126.151575 85.992906 
L 128.723867 88.508445 
L 131.296159 94.491771 
L 133.868452 96.322908 
L 136.440744 98.550887 
L 139.013036 123.751629 
L 141.585328 120.656263 
L 144.15762 137.642128 
L 146.729912 136.148177 
L 149.302204 122.95473 
L 151.874496 99.877184 
L 154.446788 118.544203 
L 157.01908 130.079001 
L 159.591372 152.668139 
L 162.163665 114.184678 
L 164.735957 131.36534 
L 167.308249 136.049346 
L 169.880541 117.518866 
L 172.452833 112.931255 
L 175.025125 113.665981 
L 177.597417 114.181019 
L 180.169709 81.545535 
L 182.742001 57.057898 
L 185.314293 53.216873 
L 187.886585 77.049882 
L 190.458878 79.501408 
L 193.03117 80.877789 
L 195.603462 83.257398 
L 198.175754 84.671073 
L 200.748046 76.108773 
L 203.320338 70.906567 
L 205.89263 73.139678 
L 208.464922 74.556999 
L 211.037214 84.207682 
L 213.609506 65.316932 
L 216.181798 67.22192 
L 218.754091 51.588854 
L 221.326383 61.490657 
L 223.898675 80.107497 
L 226.470967 65.528819 
L 229.043259 68.090746 
L 231.615551 77.822755 
L 234.187843 98.131595 
L 236.760135 89.801415 
L 239.332427 95.971434 
L 241.904719 125.530839 
L 244.477011 154.654403 
L 247.049304 101.165416 
L 249.621596 103.037558 
L 252.193888 96.778024 
L 254.76618 94.312905 
L 257.338472 93.553743 
" style="fill:none;stroke:#00d4ff;stroke-linecap:square;stroke-width:1.5;"/>
    <defs>
     <path d="M 0 3 
C 0.795609 3 1.55874 2.683901 2.12132 2.12132 
C 2.683901 1.55874 3 0.795609 3 0 
C 3 -0.795609 2.683901 -1.55874 2.12132 -2.12132 
C 1.55874 -2.683901 0.795609 -3 0 -3 
C -0.795609 -3 -1.55874 -2.683901 -2.12132 -2.12132 
C -2.683901 -1.55874 -3 -0.795609 -3 0 
C -3 0.795609 -2.683901 1.55874 -2.12132 2.12132 
C -1.55874 2.683901 -0.795609 3 0 3 
z
" id="mce017eecb4" style="stroke:#00d4ff;"/>
    </defs>
    <g clip-path="url(#pcf11dcb814)">
     <use style="fill:#00d4ff;stroke:#00d4ff;" x="61.844273" xlink:href="#mce017eecb4" y="143.366525"/>
     <use style="fill:#00d4ff;stroke:#00d4ff;" x="64.416565" xlink:href="#mce017eecb4" y="127.617342"/>
     <use style="fill:#00d4ff;stroke:#00d4ff;" x="66.988857" xlink:href="#mce017eecb4" y="85.483066"/>
     <use style="fill:#00d4ff;stroke:#00d4ff;" x="69.561149" xlink:href="#mce017eecb4" y="107.844142"/>
     <use style="fill:#00d4ff;stroke:#00d4ff;" x="72.133441" xlink:href="#mce017eecb4" y="105.099981"/>
     <use style="fill:#00d4ff;stroke:#00d4ff;" x="74.705733" xlink:href="#mce017eecb4" y="105.265363"/>
     <use style="fill:#00d4ff;stroke:#00d4ff;" x="77.278026" xlink:href="#mce017eecb4" y="107.406032"/>
     <use style="fill:#00d4ff;stroke:#00d4ff;" x="79.850318" xlink:href="#mce017eecb4" y="97.355215"/>
     <use style="fill:#00d4ff;stroke:#00d4ff;" x="82.42261" xlink:href="#mce017eecb4" y="92.390616"/>
     <use style="fill:#00d4ff;stroke:#00d4ff;" x="84.994902" xlink:href="#mce017eecb4" y="110.339134"/>
     <use style="fill:#00d4ff;stroke:#00d4ff;" x="87.567194" xlink:href="#mce017eecb4" y="130.378408"/>
     <use style="fill:#00d4ff;stroke:#00d4ff;" x="90.139486" xlink:href="#mce017eecb4" y="100.658097"/>
     <use style="fill:#00d4ff;stroke:#00d4ff;" x="92.711778" xlink:href="#mce017eecb4" y="121.226421"/>
     <use style="fill:#00d4ff;stroke:#00d4ff;" x="95.28407" xlink:href="#mce017eecb4" y="118.98145"/>
     <use style="fill:#00d4ff;stroke:#00d4ff;" x="97.856362" xlink:href="#mce017eecb4" y="106.429952"/>
     <use style="fill:#00d4ff;stroke:#00d4ff;" x="100.428654" xlink:href="#mce017eecb4" y="108.977446"/>
     <use style="fill:#00d4ff;stroke:#00d4ff;" x="103.000946" xlink:href="#mce017eecb4" y="99.850055"/>
     <use style="fill:#00d4ff;stroke:#00d4ff;" x="105.573239" xlink:href="#mce017eecb4" y="95.651828"/>
     <use style="fill:#00d4ff;stroke:#00d4ff;" x="108.145531" xlink:href="#mce017eecb4" y="95.976957"/>
     <use style="fill:#00d4ff;stroke:#00d4ff;" x="110.717823" xlink:href="#mce017eecb4" y="98.586477"/>
     <use style="fill:#00d4ff;stroke:#00d4ff;" x="113.290115" xlink:href="#mce017eecb4" y="89.030316"/>
     <use style="fill:#00d4ff;stroke:#00d4ff;" x="115.862407" xlink:href="#mce017eecb4" y="95.748952"/>
     <use style="fill:#00d4ff;stroke:#00d4ff;" x="118.434699" xlink:href="#mce017eecb4" y="88.860503"/>
     <use style="fill:#00d4ff;stroke:#00d4ff;" x="121.006991" xlink:href="#mce017eecb4" y="87.254798"/>
     <use style="fill:#00d4ff;stroke:#00d4ff;" x="123.579283" xlink:href="#mce017eecb4" y="92.017919"/>
     <use style="fill:#00d4ff;stroke:#00d4ff;" x="126.151575" xlink:href="#mce017eecb4" y="85.992906"/>
     <use style="fill:#00d4ff;stroke:#00d4ff;" x="128.723867" xlink:href="#mce017eecb4" y="88.508445"/>
     <use style="fill:#00d4ff;stroke:#00d4ff;" x="131.296159" xlink:href="#mce017eecb4" y="94.491771"/>
     <use style="fill:#00d4ff;stroke:#00d4ff;" x="133.868452" xlink:href="#mce017eecb4" y="96.322908"/>
     <use style="fill:#00d4ff;stroke:#00d4ff;" x="136.440744" xlink:href="#mce017eecb4" y="98.550887"/>
     <use style="fill:#00d4ff;stroke:#00d4ff;" x="139.013036" xlink:href="#mce017eecb4" y="123.751629"/>
     <use style="fill:#00d4ff;stroke:#00d4ff;" x="141.585328" xlink:href="#mce017eecb4" y="120.656263"/>
     <use style="fill:#00d4ff;stroke:#00d4ff;" x="144.15762" xlink:href="#mce017eecb4" y="137.642128"/>
     <use style="fill:#00d4ff;stroke:#00d4ff;" x="146.729912" xlink:href="#mce017eecb4" y="136.148177"/>
     <use style="fill:#00d4ff;stroke:#00d4ff;" x="149.302204" xlink:href="#mce017eecb4" y="122.95473"/>
     <use style="fill:#00d4ff;stroke:#00d4ff;" x="151.874496" xlink:href="#mce017eecb4" y="99.877184"/>
     <use style="fill:#00d4ff;stroke:#00d4ff;" x="154.446788" xlink:href="#mce017eecb4" y="118.544203"/>
     <use style="fill:#00d4ff;stroke:#00d4ff;" x="157.01908" xlink:href="#mce017eecb4" y="130.079001"/>
     <use style="fill:#00d4ff;stroke:#00d4ff;" x="159.591372" xlink:href="#mce017eecb4" y="152.668139"/>
     <use style="fill:#00d4ff;stroke:#00d4ff;" x="162.163665" xlink:href="#mce017eecb4" y="114.184678"/>
     <use style="fill:#00d4ff;stroke:#00d4ff;" x="164.735957" xlink:href="#mce017eecb4" y="131.36534"/>
     <use style="fill:#00d4ff;stroke:#00d4ff;" x="167.308249" xlink:href="#mce017eecb4" y="136.049346"/>
     <use style="fill:#00d4ff;stroke:#00d4ff;" x="169.880541" xlink:href="#mce017eecb4" y="117.518866"/>
     <use style="fill:#00d4ff;stroke:#00d4ff;" x="172.452833" xlink:href="#mce017eecb4" y="112.931255"/>
     <use style="fill:#00d4ff;stroke:#00d4ff;" x="175.025125" xlink:href="#mce017eecb4" y="113.665981"/>
     <use style="fill:#00d4ff;stroke:#00d4ff;" x="177.597417" xlink:href="#mce017eecb4" y="114.181019"/>
     <use style="fill:#00d4ff;stroke:#00d4ff;" x="180.169709" xlink:href="#mce017eecb4" y="81.545535"/>
     <use style="fill:#00d4ff;stroke:#00d4ff;" x="182.742001" xlink:href="#mce017eecb4" y="57.057898"/>
     <use style="fill:#00d4ff;stroke:#00d4ff;" x="185.314293" xlink:href="#mce017eecb4" y="53.216873"/>
     <use style="fill:#00d4ff;stroke:#00d4ff;" x="187.886585" xlink:href="#mce017eecb4" y="77.049882"/>
     <use style="fill:#00d4ff;stroke:#00d4ff;" x="190.458878" xlink:href="#mce017eecb4" y="79.501408"/>
     <use style="fill:#00d4ff;stroke:#00d4ff;" x="193.03117" xlink:href="#mce017eecb4" y="80.877789"/>
     <use style="fill:#00d4ff;stroke:#00d4ff;" x="195.603462" xlink:href="#mce017eecb4" y="83.257398"/>
     <use style="fill:#00d4ff;stroke:#00d4ff;" x="198.175754" xlink:href="#mce017eecb4" y="84.671073"/>
     <use style="fill:#00d4ff;stroke:#00d4ff;" x="200.748046" xlink:href="#mce017eecb4" y="76.108773"/>
     <use style="fill:#00d4ff;stroke:#00d4ff;" x="203.320338" xlink:href="#mce017eecb4" y="70.906567"/>
     <use style="fill:#00d4ff;stroke:#00d4ff;" x="205.89263" xlink:href="#mce017eecb4" y="73.139678"/>
     <use style="fill:#00d4ff;stroke:#00d4ff;" x="208.464922" xlink:href="#mce017eecb4" y="74.556999"/>
     <use style="fill:#00d4ff;stroke:#00d4ff;" x="211.037214" xlink:href="#mce017eecb4" y="84.207682"/>
     <use style="fill:#00d4ff;stroke:#00d4ff;" x="213.609506" xlink:href="#mce017eecb4" y="65.316932"/>
     <use style="fill:#00d4ff;stroke:#00d4ff;" x="216.181798" xlink:href="#mce017eecb4" y="67.22192"/>
     <use style="fill:#00d4ff;stroke:#00d4ff;" x="218.754091" xlink:href="#mce017eecb4" y="51.588854"/>
     <use style="fill:#00d4ff;stroke:#00d4ff;" x="221.326383" xlink:href="#mce017eecb4" y="61.490657"/>
     <use style="fill:#00d4ff;stroke:#00d4ff;" x="223.898675" xlink:href="#mce017eecb4" y="80.107497"/>
     <use style="fill:#00d4ff;stroke:#00d4ff;" x="226.470967" xlink:href="#mce017eecb4" y="65.528819"/>
     <use style="fill:#00d4ff;stroke:#00d4ff;" x="229.043259" xlink:href="#mce017eecb4" y="68.090746"/>
     <use style="fill:#00d4ff;stroke:#00d4ff;" x="231.615551" xlink:href="#mce017eecb4" y="77.822755"/>
     <use style="fill:#00d4ff;stroke:#00d4ff;" x="234.187843" xlink:href="#mce017eecb4" y="98.131595"/>
     <use style="fill:#00d4ff;stroke:#00d4ff;" x="236.760135" xlink:href="#mce017eecb4" y="89.801415"/>
     <use style="fill:#00d4ff;stroke:#00d4ff;" x="239.332427" xlink:href="#mce017eecb4" y="95.971434"/>
     <use style="fill:#00d4ff;stroke:#00d4ff;" x="241.904719" xlink:href="#mce017eecb4" y="125.530839"/>
     <use style="fill:#00d4ff;stroke:#00d4ff;" x="244.477011" xlink:href="#mce017eecb4" y="154.654403"/>
     <use style="fill:#00d4ff;stroke:#00d4ff;" x="247.049304" xlink:href="#mce017eecb4" y="101.165416"/>
     <use style="fill:#00d4ff;stroke:#00d4ff;" x="249.621596" xlink:href="#mce017eecb4" y="103.037558"/>
     <use style="fill:#00d4ff;stroke:#00d4ff;" x="252.193888" xlink:href="#mce017eecb4" y="96.778024"/>
     <use style="fill:#00d4ff;stroke:#00d4ff;" x="254.76618" xlink:href="#mce017eecb4" y="94.312905"/>
     <use style="fill:#00d4ff;stroke:#00d4ff;" x="257.338472" xlink:href="#mce017eecb4" y="93.553743"/>
    </g>
   </g>
   <g id="line2d_30">
    <path clip-path="url(#pcf11dcb814)" d="M 61.844273 140.039408 
L 64.416565 131.728015 
L 66.988857 134.049573 
L 69.561149 124.928455 
L 72.133441 111.428845 
L 74.705733 110.235756 
L 77.278026 113.339387 
L 79.850318 102.703577 
L 82.42261 107.199689 
L 84.994902 91.697593 
L 87.567194 102.816137 
L 90.139486 104.854596 
L 92.711778 128.951904 
L 95.28407 112.321984 
L 97.856362 101.135129 
L 100.428654 107.567032 
L 103.000946 88.762072 
L 105.573239 95.553647 
L 108.145531 82.096215 
L 110.717823 91.087384 
L 113.290115 78.358902 
L 115.862407 84.364725 
L 118.434699 85.638736 
L 121.006991 84.928833 
L 123.579283 88.538558 
L 126.151575 98.197696 
L 128.723867 103.94562 
L 131.296159 115.912403 
L 133.868452 125.019369 
L 136.440744 120.746664 
L 139.013036 132.819319 
L 141.585328 130.773148 
L 144.15762 113.402271 
L 146.729912 123.187186 
L 149.302204 117.979751 
L 151.874496 104.468325 
L 154.446788 107.223853 
L 157.01908 130.871741 
L 159.591372 148.432279 
L 162.163665 108.615881 
L 164.735957 108.509371 
L 167.308249 93.718523 
L 169.880541 104.481021 
L 172.452833 102.794557 
L 175.025125 104.421837 
L 177.597417 93.250418 
L 180.169709 96.800584 
L 182.742001 101.692523 
L 185.314293 81.935123 
L 187.886585 87.303494 
L 190.458878 88.419618 
L 193.03117 87.743221 
L 195.603462 99.819005 
L 198.175754 87.464932 
L 200.748046 76.579241 
L 203.320338 75.903855 
L 205.89263 58.821907 
L 208.464922 66.010625 
L 211.037214 56.578448 
L 213.609506 68.258358 
L 216.181798 74.078254 
L 218.754091 71.958595 
L 221.326383 52.39355 
L 223.898675 59.704882 
L 226.470967 60.47792 
L 229.043259 72.566031 
L 231.615551 73.711115 
L 234.187843 101.234729 
L 236.760135 102.713722 
L 239.332427 98.849776 
L 241.904719 100.270128 
L 244.477011 109.997111 
L 247.049304 111.911745 
L 249.621596 86.065872 
L 252.193888 83.596651 
L 254.76618 93.417532 
L 257.338472 76.095808 
" style="fill:none;stroke:#ffe600;stroke-linecap:square;stroke-width:1.5;"/>
    <defs>
     <path d="M 0 3 
C 0.795609 3 1.55874 2.683901 2.12132 2.12132 
C 2.683901 1.55874 3 0.795609 3 0 
C 3 -0.795609 2.683901 -1.55874 2.12132 -2.12132 
C 1.55874 -2.683901 0.795609 -3 0 -3 
C -0.795609 -3 -1.55874 -2.683901 -2.12132 -2.12132 
C -2.683901 -1.55874 -3 -0.795609 -3 0 
C -3 0.795609 -2.683901 1.55874 -2.12132 2.12132 
C -1.55874 2.683901 -0.795609 3 0 3 
z
" id="m7d84fa5e0c" style="stroke:#ffe600;"/>
    </defs>
    <g clip-path="url(#pcf11dcb814)">
     <use style="fill:#ffe600;stroke:#ffe600;" x="61.844273" xlink:href="#m7d84fa5e0c" y="140.039408"/>
     <use style="fill:#ffe600;stroke:#ffe600;" x="64.416565" xlink:href="#m7d84fa5e0c" y="131.728015"/>
     <use style="fill:#ffe600;stroke:#ffe600;" x="66.988857" xlink:href="#m7d84fa5e0c" y="134.049573"/>
     <use style="fill:#ffe600;stroke:#ffe600;" x="69.561149" xlink:href="#m7d84fa5e0c" y="124.928455"/>
     <use style="fill:#ffe600;stroke:#ffe600;" x="72.133441" xlink:href="#m7d84fa5e0c" y="111.428845"/>
     <use style="fill:#ffe600;stroke:#ffe600;" x="74.705733" xlink:href="#m7d84fa5e0c" y="110.235756"/>
     <use style="fill:#ffe600;stroke:#ffe600;" x="77.278026" xlink:href="#m7d84fa5e0c" y="113.339387"/>
     <use style="fill:#ffe600;stroke:#ffe600;" x="79.850318" xlink:href="#m7d84fa5e0c" y="102.703577"/>
     <use style="fill:#ffe600;stroke:#ffe600;" x="82.42261" xlink:href="#m7d84fa5e0c" y="107.199689"/>
     <use style="fill:#ffe600;stroke:#ffe600;" x="84.994902" xlink:href="#m7d84fa5e0c" y="91.697593"/>
     <use style="fill:#ffe600;stroke:#ffe600;" x="87.567194" xlink:href="#m7d84fa5e0c" y="102.816137"/>
     <use style="fill:#ffe600;stroke:#ffe600;" x="90.139486" xlink:href="#m7d84fa5e0c" y="104.854596"/>
     <use style="fill:#ffe600;stroke:#ffe600;" x="92.711778" xlink:href="#m7d84fa5e0c" y="128.951904"/>
     <use style="fill:#ffe600;stroke:#ffe600;" x="95.28407" xlink:href="#m7d84fa5e0c" y="112.321984"/>
     <use style="fill:#ffe600;stroke:#ffe600;" x="97.856362" xlink:href="#m7d84fa5e0c" y="101.135129"/>
     <use style="fill:#ffe600;stroke:#ffe600;" x="100.428654" xlink:href="#m7d84fa5e0c" y="107.567032"/>
     <use style="fill:#ffe600;stroke:#ffe600;" x="103.000946" xlink:href="#m7d84fa5e0c" y="88.762072"/>
     <use style="fill:#ffe600;stroke:#ffe600;" x="105.573239" xlink:href="#m7d84fa5e0c" y="95.553647"/>
     <use style="fill:#ffe600;stroke:#ffe600;" x="108.145531" xlink:href="#m7d84fa5e0c" y="82.096215"/>
     <use style="fill:#ffe600;stroke:#ffe600;" x="110.717823" xlink:href="#m7d84fa5e0c" y="91.087384"/>
     <use style="fill:#ffe600;stroke:#ffe600;" x="113.290115" xlink:href="#m7d84fa5e0c" y="78.358902"/>
     <use style="fill:#ffe600;stroke:#ffe600;" x="115.862407" xlink:href="#m7d84fa5e0c" y="84.364725"/>
     <use style="fill:#ffe600;stroke:#ffe600;" x="118.434699" xlink:href="#m7d84fa5e0c" y="85.638736"/>
     <use style="fill:#ffe600;stroke:#ffe600;" x="121.006991" xlink:href="#m7d84fa5e0c" y="84.928833"/>
     <use style="fill:#ffe600;stroke:#ffe600;" x="123.579283" xlink:href="#m7d84fa5e0c" y="88.538558"/>
     <use style="fill:#ffe600;stroke:#ffe600;" x="126.151575" xlink:href="#m7d84fa5e0c" y="98.197696"/>
     <use style="fill:#ffe600;stroke:#ffe600;" x="128.723867" xlink:href="#m7d84fa5e0c" y="103.94562"/>
     <use style="fill:#ffe600;stroke:#ffe600;" x="131.296159" xlink:href="#m7d84fa5e0c" y="115.912403"/>
     <use style="fill:#ffe600;stroke:#ffe600;" x="133.868452" xlink:href="#m7d84fa5e0c" y="125.019369"/>
     <use style="fill:#ffe600;stroke:#ffe600;" x="136.440744" xlink:href="#m7d84fa5e0c" y="120.746664"/>
     <use style="fill:#ffe600;stroke:#ffe600;" x="139.013036" xlink:href="#m7d84fa5e0c" y="132.819319"/>
     <use style="fill:#ffe600;stroke:#ffe600;" x="141.585328" xlink:href="#m7d84fa5e0c" y="130.773148"/>
     <use style="fill:#ffe600;stroke:#ffe600;" x="144.15762" xlink:href="#m7d84fa5e0c" y="113.402271"/>
     <use style="fill:#ffe600;stroke:#ffe600;" x="146.729912" xlink:href="#m7d84fa5e0c" y="123.187186"/>
     <use style="fill:#ffe600;stroke:#ffe600;" x="149.302204" xlink:href="#m7d84fa5e0c" y="117.979751"/>
     <use style="fill:#ffe600;stroke:#ffe600;" x="151.874496" xlink:href="#m7d84fa5e0c" y="104.468325"/>
     <use style="fill:#ffe600;stroke:#ffe600;" x="154.446788" xlink:href="#m7d84fa5e0c" y="107.223853"/>
     <use style="fill:#ffe600;stroke:#ffe600;" x="157.01908" xlink:href="#m7d84fa5e0c" y="130.871741"/>
     <use style="fill:#ffe600;stroke:#ffe600;" x="159.591372" xlink:href="#m7d84fa5e0c" y="148.432279"/>
     <use style="fill:#ffe600;stroke:#ffe600;" x="162.163665" xlink:href="#m7d84fa5e0c" y="108.615881"/>
     <use style="fill:#ffe600;stroke:#ffe600;" x="164.735957" xlink:href="#m7d84fa5e0c" y="108.509371"/>
     <use style="fill:#ffe600;stroke:#ffe600;" x="167.308249" xlink:href="#m7d84fa5e0c" y="93.718523"/>
     <use style="fill:#ffe600;stroke:#ffe600;" x="169.880541" xlink:href="#m7d84fa5e0c" y="104.481021"/>
     <use style="fill:#ffe600;stroke:#ffe600;" x="172.452833" xlink:href="#m7d84fa5e0c" y="102.794557"/>
     <use style="fill:#ffe600;stroke:#ffe600;" x="175.025125" xlink:href="#m7d84fa5e0c" y="104.421837"/>
     <use style="fill:#ffe600;stroke:#ffe600;" x="177.597417" xlink:href="#m7d84fa5e0c" y="93.250418"/>
     <use style="fill:#ffe600;stroke:#ffe600;" x="180.169709" xlink:href="#m7d84fa5e0c" y="96.800584"/>
     <use style="fill:#ffe600;stroke:#ffe600;" x="182.742001" xlink:href="#m7d84fa5e0c" y="101.692523"/>
     <use style="fill:#ffe600;stroke:#ffe600;" x="185.314293" xlink:href="#m7d84fa5e0c" y="81.935123"/>
     <use style="fill:#ffe600;stroke:#ffe600;" x="187.886585" xlink:href="#m7d84fa5e0c" y="87.303494"/>
     <use style="fill:#ffe600;stroke:#ffe600;" x="190.458878" xlink:href="#m7d84fa5e0c" y="88.419618"/>
     <use style="fill:#ffe600;stroke:#ffe600;" x="193.03117" xlink:href="#m7d84fa5e0c" y="87.743221"/>
     <use style="fill:#ffe600;stroke:#ffe600;" x="195.603462" xlink:href="#m7d84fa5e0c" y="99.819005"/>
     <use style="fill:#ffe600;stroke:#ffe600;" x="198.175754" xlink:href="#m7d84fa5e0c" y="87.464932"/>
     <use style="fill:#ffe600;stroke:#ffe600;" x="200.748046" xlink:href="#m7d84fa5e0c" y="76.579241"/>
     <use style="fill:#ffe600;stroke:#ffe600;" x="203.320338" xlink:href="#m7d84fa5e0c" y="75.903855"/>
     <use style="fill:#ffe600;stroke:#ffe600;" x="205.89263" xlink:href="#m7d84fa5e0c" y="58.821907"/>
     <use style="fill:#ffe600;stroke:#ffe600;" x="208.464922" xlink:href="#m7d84fa5e0c" y="66.010625"/>
     <use style="fill:#ffe600;stroke:#ffe600;" x="211.037214" xlink:href="#m7d84fa5e0c" y="56.578448"/>
     <use style="fill:#ffe600;stroke:#ffe600;" x="213.609506" xlink:href="#m7d84fa5e0c" y="68.258358"/>
     <use style="fill:#ffe600;stroke:#ffe600;" x="216.181798" xlink:href="#m7d84fa5e0c" y="74.078254"/>
     <use style="fill:#ffe600;stroke:#ffe600;" x="218.754091" xlink:href="#m7d84fa5e0c" y="71.958595"/>
     <use style="fill:#ffe600;stroke:#ffe600;" x="221.326383" xlink:href="#m7d84fa5e0c" y="52.39355"/>
     <use style="fill:#ffe600;stroke:#ffe600;" x="223.898675" xlink:href="#m7d84fa5e0c" y="59.704882"/>
     <use style="fill:#ffe600;stroke:#ffe600;" x="226.470967" xlink:href="#m7d84fa5e0c" y="60.47792"/>
     <use style="fill:#ffe600;stroke:#ffe600;" x="229.043259" xlink:href="#m7d84fa5e0c" y="72.566031"/>
     <use style="fill:#ffe600;stroke:#ffe600;" x="231.615551" xlink:href="#m7d84fa5e0c" y="73.711115"/>
     <use style="fill:#ffe600;stroke:#ffe600;" x="234.187843" xlink:href="#m7d84fa5e0c" y="101.234729"/>
     <use style="fill:#ffe600;stroke:#ffe600;" x="236.760135" xlink:href="#m7d84fa5e0c" y="102.713722"/>
     <use style="fill:#ffe600;stroke:#ffe600;" x="239.332427" xlink:href="#m7d84fa5e0c" y="98.849776"/>
     <use style="fill:#ffe600;stroke:#ffe600;" x="241.904719" xlink:href="#m7d84fa5e0c" y="100.270128"/>
     <use style="fill:#ffe600;stroke:#ffe600;" x="244.477011" xlink:href="#m7d84fa5e0c" y="109.997111"/>
     <use style="fill:#ffe600;stroke:#ffe600;" x="247.049304" xlink:href="#m7d84fa5e0c" y="111.911745"/>
     <use style="fill:#ffe600;stroke:#ffe600;" x="249.621596" xlink:href="#m7d84fa5e0c" y="86.065872"/>
     <use style="fill:#ffe600;stroke:#ffe600;" x="252.193888" xlink:href="#m7d84fa5e0c" y="83.596651"/>
     <use style="fill:#ffe600;stroke:#ffe600;" x="254.76618" xlink:href="#m7d84fa5e0c" y="93.417532"/>
     <use style="fill:#ffe600;stroke:#ffe600;" x="257.338472" xlink:href="#m7d84fa5e0c" y="76.095808"/>
    </g>
   </g>
   <g id="line2d_31">
    <path clip-path="url(#pcf11dcb814)" d="M 64.416565 213.800898 
L 66.988857 177.292033 
L 69.561149 133.724768 
L 72.133441 108.043675 
L 74.705733 111.349273 
L 77.278026 86.220432 
L 79.850318 110.365811 
L 82.42261 88.1866 
L 84.994902 85.869969 
L 87.567194 113.682421 
L 90.139486 107.453548 
L 92.711778 126.50318 
L 95.28407 102.592257 
L 97.856362 122.380824 
L 100.428654 111.233163 
L 103.000946 97.305446 
L 105.573239 79.454359 
L 108.145531 98.673789 
L 110.717823 87.109949 
L 113.290115 131.761708 
L 115.862407 134.053715 
L 118.434699 76.306839 
L 121.006991 70.261552 
L 123.579283 98.596369 
L 126.151575 90.935542 
L 128.723867 95.203003 
L 131.296159 108.066524 
L 133.868452 144.585356 
L 136.440744 130.530539 
L 139.013036 149.439659 
L 141.585328 145.042017 
L 144.15762 149.318682 
L 149.302204 113.505967 
L 151.874496 113.94566 
L 154.446788 111.335712 
L 159.591372 156.82763 
L 162.163665 105.885462 
L 164.735957 109.20174 
L 167.308249 105.586801 
L 169.880541 89.973102 
L 172.452833 97.071401 
L 175.025125 139.453544 
L 177.597417 101.981192 
L 180.169709 84.115969 
L 182.742001 107.279347 
L 185.314293 73.87753 
L 187.886585 83.260633 
L 190.458878 94.833362 
L 193.03117 88.074335 
L 195.603462 102.297983 
L 198.175754 71.163239 
L 200.748046 67.464241 
L 203.320338 74.970012 
L 205.89263 52.911322 
L 208.464922 66.5743 
L 211.037214 60.99382 
L 213.609506 77.484343 
L 216.181798 66.341956 
L 218.754091 55.379216 
L 221.326383 43.231674 
L 223.898675 31.436352 
L 226.470967 42.604012 
L 229.043259 57.994028 
L 231.615551 84.601479 
L 234.187843 103.384303 
L 236.760135 87.807706 
L 239.332427 114.265751 
L 241.904719 124.683853 
L 244.477011 97.503195 
L 247.049304 102.020951 
L 249.621596 86.59707 
L 252.193888 94.068181 
L 254.76618 84.540732 
L 257.338472 100.323761 
" style="fill:none;stroke:#800000;stroke-linecap:square;stroke-width:1.5;"/>
    <defs>
     <path d="M 0 3 
C 0.795609 3 1.55874 2.683901 2.12132 2.12132 
C 2.683901 1.55874 3 0.795609 3 0 
C 3 -0.795609 2.683901 -1.55874 2.12132 -2.12132 
C 1.55874 -2.683901 0.795609 -3 0 -3 
C -0.795609 -3 -1.55874 -2.683901 -2.12132 -2.12132 
C -2.683901 -1.55874 -3 -0.795609 -3 0 
C -3 0.795609 -2.683901 1.55874 -2.12132 2.12132 
C -1.55874 2.683901 -0.795609 3 0 3 
z
" id="madc1ac3d40" style="stroke:#800000;"/>
    </defs>
    <g clip-path="url(#pcf11dcb814)">
     <use style="fill:#800000;stroke:#800000;" x="64.416565" xlink:href="#madc1ac3d40" y="213.800898"/>
     <use style="fill:#800000;stroke:#800000;" x="66.988857" xlink:href="#madc1ac3d40" y="177.292033"/>
     <use style="fill:#800000;stroke:#800000;" x="69.561149" xlink:href="#madc1ac3d40" y="133.724768"/>
     <use style="fill:#800000;stroke:#800000;" x="72.133441" xlink:href="#madc1ac3d40" y="108.043675"/>
     <use style="fill:#800000;stroke:#800000;" x="74.705733" xlink:href="#madc1ac3d40" y="111.349273"/>
     <use style="fill:#800000;stroke:#800000;" x="77.278026" xlink:href="#madc1ac3d40" y="86.220432"/>
     <use style="fill:#800000;stroke:#800000;" x="79.850318" xlink:href="#madc1ac3d40" y="110.365811"/>
     <use style="fill:#800000;stroke:#800000;" x="82.42261" xlink:href="#madc1ac3d40" y="88.1866"/>
     <use style="fill:#800000;stroke:#800000;" x="84.994902" xlink:href="#madc1ac3d40" y="85.869969"/>
     <use style="fill:#800000;stroke:#800000;" x="87.567194" xlink:href="#madc1ac3d40" y="113.682421"/>
     <use style="fill:#800000;stroke:#800000;" x="90.139486" xlink:href="#madc1ac3d40" y="107.453548"/>
     <use style="fill:#800000;stroke:#800000;" x="92.711778" xlink:href="#madc1ac3d40" y="126.50318"/>
     <use style="fill:#800000;stroke:#800000;" x="95.28407" xlink:href="#madc1ac3d40" y="102.592257"/>
     <use style="fill:#800000;stroke:#800000;" x="97.856362" xlink:href="#madc1ac3d40" y="122.380824"/>
     <use style="fill:#800000;stroke:#800000;" x="100.428654" xlink:href="#madc1ac3d40" y="111.233163"/>
     <use style="fill:#800000;stroke:#800000;" x="103.000946" xlink:href="#madc1ac3d40" y="97.305446"/>
     <use style="fill:#800000;stroke:#800000;" x="105.573239" xlink:href="#madc1ac3d40" y="79.454359"/>
     <use style="fill:#800000;stroke:#800000;" x="108.145531" xlink:href="#madc1ac3d40" y="98.673789"/>
     <use style="fill:#800000;stroke:#800000;" x="110.717823" xlink:href="#madc1ac3d40" y="87.109949"/>
     <use style="fill:#800000;stroke:#800000;" x="113.290115" xlink:href="#madc1ac3d40" y="131.761708"/>
     <use style="fill:#800000;stroke:#800000;" x="115.862407" xlink:href="#madc1ac3d40" y="134.053715"/>
     <use style="fill:#800000;stroke:#800000;" x="118.434699" xlink:href="#madc1ac3d40" y="76.306839"/>
     <use style="fill:#800000;stroke:#800000;" x="121.006991" xlink:href="#madc1ac3d40" y="70.261552"/>
     <use style="fill:#800000;stroke:#800000;" x="123.579283" xlink:href="#madc1ac3d40" y="98.596369"/>
     <use style="fill:#800000;stroke:#800000;" x="126.151575" xlink:href="#madc1ac3d40" y="90.935542"/>
     <use style="fill:#800000;stroke:#800000;" x="128.723867" xlink:href="#madc1ac3d40" y="95.203003"/>
     <use style="fill:#800000;stroke:#800000;" x="131.296159" xlink:href="#madc1ac3d40" y="108.066524"/>
     <use style="fill:#800000;stroke:#800000;" x="133.868452" xlink:href="#madc1ac3d40" y="144.585356"/>
     <use style="fill:#800000;stroke:#800000;" x="136.440744" xlink:href="#madc1ac3d40" y="130.530539"/>
     <use style="fill:#800000;stroke:#800000;" x="139.013036" xlink:href="#madc1ac3d40" y="149.439659"/>
     <use style="fill:#800000;stroke:#800000;" x="141.585328" xlink:href="#madc1ac3d40" y="145.042017"/>
     <use style="fill:#800000;stroke:#800000;" x="144.15762" xlink:href="#madc1ac3d40" y="149.318682"/>
     <use style="fill:#800000;stroke:#800000;" x="149.302204" xlink:href="#madc1ac3d40" y="113.505967"/>
     <use style="fill:#800000;stroke:#800000;" x="151.874496" xlink:href="#madc1ac3d40" y="113.94566"/>
     <use style="fill:#800000;stroke:#800000;" x="154.446788" xlink:href="#madc1ac3d40" y="111.335712"/>
     <use style="fill:#800000;stroke:#800000;" x="159.591372" xlink:href="#madc1ac3d40" y="156.82763"/>
     <use style="fill:#800000;stroke:#800000;" x="162.163665" xlink:href="#madc1ac3d40" y="105.885462"/>
     <use style="fill:#800000;stroke:#800000;" x="164.735957" xlink:href="#madc1ac3d40" y="109.20174"/>
     <use style="fill:#800000;stroke:#800000;" x="167.308249" xlink:href="#madc1ac3d40" y="105.586801"/>
     <use style="fill:#800000;stroke:#800000;" x="169.880541" xlink:href="#madc1ac3d40" y="89.973102"/>
     <use style="fill:#800000;stroke:#800000;" x="172.452833" xlink:href="#madc1ac3d40" y="97.071401"/>
     <use style="fill:#800000;stroke:#800000;" x="175.025125" xlink:href="#madc1ac3d40" y="139.453544"/>
     <use style="fill:#800000;stroke:#800000;" x="177.597417" xlink:href="#madc1ac3d40" y="101.981192"/>
     <use style="fill:#800000;stroke:#800000;" x="180.169709" xlink:href="#madc1ac3d40" y="84.115969"/>
     <use style="fill:#800000;stroke:#800000;" x="182.742001" xlink:href="#madc1ac3d40" y="107.279347"/>
     <use style="fill:#800000;stroke:#800000;" x="185.314293" xlink:href="#madc1ac3d40" y="73.87753"/>
     <use style="fill:#800000;stroke:#800000;" x="187.886585" xlink:href="#madc1ac3d40" y="83.260633"/>
     <use style="fill:#800000;stroke:#800000;" x="190.458878" xlink:href="#madc1ac3d40" y="94.833362"/>
     <use style="fill:#800000;stroke:#800000;" x="193.03117" xlink:href="#madc1ac3d40" y="88.074335"/>
     <use style="fill:#800000;stroke:#800000;" x="195.603462" xlink:href="#madc1ac3d40" y="102.297983"/>
     <use style="fill:#800000;stroke:#800000;" x="198.175754" xlink:href="#madc1ac3d40" y="71.163239"/>
     <use style="fill:#800000;stroke:#800000;" x="200.748046" xlink:href="#madc1ac3d40" y="67.464241"/>
     <use style="fill:#800000;stroke:#800000;" x="203.320338" xlink:href="#madc1ac3d40" y="74.970012"/>
     <use style="fill:#800000;stroke:#800000;" x="205.89263" xlink:href="#madc1ac3d40" y="52.911322"/>
     <use style="fill:#800000;stroke:#800000;" x="208.464922" xlink:href="#madc1ac3d40" y="66.5743"/>
     <use style="fill:#800000;stroke:#800000;" x="211.037214" xlink:href="#madc1ac3d40" y="60.99382"/>
     <use style="fill:#800000;stroke:#800000;" x="213.609506" xlink:href="#madc1ac3d40" y="77.484343"/>
     <use style="fill:#800000;stroke:#800000;" x="216.181798" xlink:href="#madc1ac3d40" y="66.341956"/>
     <use style="fill:#800000;stroke:#800000;" x="218.754091" xlink:href="#madc1ac3d40" y="55.379216"/>
     <use style="fill:#800000;stroke:#800000;" x="221.326383" xlink:href="#madc1ac3d40" y="43.231674"/>
     <use style="fill:#800000;stroke:#800000;" x="223.898675" xlink:href="#madc1ac3d40" y="31.436352"/>
     <use style="fill:#800000;stroke:#800000;" x="226.470967" xlink:href="#madc1ac3d40" y="42.604012"/>
     <use style="fill:#800000;stroke:#800000;" x="229.043259" xlink:href="#madc1ac3d40" y="57.994028"/>
     <use style="fill:#800000;stroke:#800000;" x="231.615551" xlink:href="#madc1ac3d40" y="84.601479"/>
     <use style="fill:#800000;stroke:#800000;" x="234.187843" xlink:href="#madc1ac3d40" y="103.384303"/>
     <use style="fill:#800000;stroke:#800000;" x="236.760135" xlink:href="#madc1ac3d40" y="87.807706"/>
     <use style="fill:#800000;stroke:#800000;" x="239.332427" xlink:href="#madc1ac3d40" y="114.265751"/>
     <use style="fill:#800000;stroke:#800000;" x="241.904719" xlink:href="#madc1ac3d40" y="124.683853"/>
     <use style="fill:#800000;stroke:#800000;" x="244.477011" xlink:href="#madc1ac3d40" y="97.503195"/>
     <use style="fill:#800000;stroke:#800000;" x="247.049304" xlink:href="#madc1ac3d40" y="102.020951"/>
     <use style="fill:#800000;stroke:#800000;" x="249.621596" xlink:href="#madc1ac3d40" y="86.59707"/>
     <use style="fill:#800000;stroke:#800000;" x="252.193888" xlink:href="#madc1ac3d40" y="94.068181"/>
     <use style="fill:#800000;stroke:#800000;" x="254.76618" xlink:href="#madc1ac3d40" y="84.540732"/>
     <use style="fill:#800000;stroke:#800000;" x="257.338472" xlink:href="#madc1ac3d40" y="100.323761"/>
    </g>
   </g>
   <g id="patch_3">
    <path d="M 48.982813 222.919125 
L 48.982813 22.318125 
" style="fill:none;stroke:#000000;stroke-linecap:square;stroke-linejoin:miter;stroke-width:0.8;"/>
   </g>
   <g id="patch_4">
    <path d="M 262.483056 222.919125 
L 262.483056 22.318125 
" style="fill:none;stroke:#000000;stroke-linecap:square;stroke-linejoin:miter;stroke-width:0.8;"/>
   </g>
   <g id="patch_5">
    <path d="M 48.982813 222.919125 
L 262.483056 222.919125 
" style="fill:none;stroke:#000000;stroke-linecap:square;stroke-linejoin:miter;stroke-width:0.8;"/>
   </g>
   <g id="patch_6">
    <path d="M 48.982813 22.318125 
L 262.483056 22.318125 
" style="fill:none;stroke:#000000;stroke-linecap:square;stroke-linejoin:miter;stroke-width:0.8;"/>
   </g>
   <g id="text_30">
    <!-- Model-averaged 4-week-ahead forecasts -->
    <defs>
     <path d="M 9.8125 72.90625 
L 24.515625 72.90625 
L 43.109375 23.296875 
L 61.8125 72.90625 
L 76.515625 72.90625 
L 76.515625 0 
L 66.890625 0 
L 66.890625 64.015625 
L 48.09375 14.015625 
L 38.1875 14.015625 
L 19.390625 64.015625 
L 19.390625 0 
L 9.8125 0 
z
" id="DejaVuSans-77"/>
     <path d="M 4.203125 54.6875 
L 13.1875 54.6875 
L 24.421875 12.015625 
L 35.59375 54.6875 
L 46.1875 54.6875 
L 57.421875 12.015625 
L 68.609375 54.6875 
L 77.59375 54.6875 
L 63.28125 0 
L 52.6875 0 
L 40.921875 44.828125 
L 29.109375 0 
L 18.5 0 
z
" id="DejaVuSans-119"/>
     <path d="M 9.078125 75.984375 
L 18.109375 75.984375 
L 18.109375 31.109375 
L 44.921875 54.6875 
L 56.390625 54.6875 
L 27.390625 29.109375 
L 57.625 0 
L 45.90625 0 
L 18.109375 26.703125 
L 18.109375 0 
L 9.078125 0 
z
" id="DejaVuSans-107"/>
    </defs>
    <g transform="translate(33.409809 16.318125)scale(0.12 -0.12)">
     <use xlink:href="#DejaVuSans-77"/>
     <use x="86.279297" xlink:href="#DejaVuSans-111"/>
     <use x="147.460938" xlink:href="#DejaVuSans-100"/>
     <use x="210.9375" xlink:href="#DejaVuSans-101"/>
     <use x="272.460938" xlink:href="#DejaVuSans-108"/>
     <use x="300.244141" xlink:href="#DejaVuSans-45"/>
     <use x="336.328125" xlink:href="#DejaVuSans-97"/>
     <use x="397.607422" xlink:href="#DejaVuSans-118"/>
     <use x="456.787109" xlink:href="#DejaVuSans-101"/>
     <use x="518.310547" xlink:href="#DejaVuSans-114"/>
     <use x="559.423828" xlink:href="#DejaVuSans-97"/>
     <use x="620.703125" xlink:href="#DejaVuSans-103"/>
     <use x="684.179688" xlink:href="#DejaVuSans-101"/>
     <use x="745.703125" xlink:href="#DejaVuSans-100"/>
     <use x="809.179688" xlink:href="#DejaVuSans-32"/>
     <use x="840.966797" xlink:href="#DejaVuSans-52"/>
     <use x="904.589844" xlink:href="#DejaVuSans-45"/>
     <use x="940.673828" xlink:href="#DejaVuSans-119"/>
     <use x="1022.460938" xlink:href="#DejaVuSans-101"/>
     <use x="1083.984375" xlink:href="#DejaVuSans-101"/>
     <use x="1145.507812" xlink:href="#DejaVuSans-107"/>
     <use x="1203.417969" xlink:href="#DejaVuSans-45"/>
     <use x="1239.501953" xlink:href="#DejaVuSans-97"/>
     <use x="1300.78125" xlink:href="#DejaVuSans-104"/>
     <use x="1364.160156" xlink:href="#DejaVuSans-101"/>
     <use x="1425.683594" xlink:href="#DejaVuSans-97"/>
     <use x="1486.962891" xlink:href="#DejaVuSans-100"/>
     <use x="1550.439453" xlink:href="#DejaVuSans-32"/>
     <use x="1582.226562" xlink:href="#DejaVuSans-102"/>
     <use x="1617.431641" xlink:href="#DejaVuSans-111"/>
     <use x="1678.613281" xlink:href="#DejaVuSans-114"/>
     <use x="1717.476562" xlink:href="#DejaVuSans-101"/>
     <use x="1779" xlink:href="#DejaVuSans-99"/>
     <use x="1833.980469" xlink:href="#DejaVuSans-97"/>
     <use x="1895.259766" xlink:href="#DejaVuSans-115"/>
     <use x="1947.359375" xlink:href="#DejaVuSans-116"/>
     <use x="1986.568359" xlink:href="#DejaVuSans-115"/>
    </g>
   </g>
   <g id="legend_1">
    <g id="patch_7">
     <path d="M 144.326806 217.919125 
L 255.483056 217.919125 
Q 257.483056 217.919125 257.483056 215.919125 
L 257.483056 146.206625 
Q 257.483056 144.206625 255.483056 144.206625 
L 144.326806 144.206625 
Q 142.326806 144.206625 142.326806 146.206625 
L 142.326806 215.919125 
Q 142.326806 217.919125 144.326806 217.919125 
z
" style="fill:#ffffff;opacity:0.8;stroke:#cccccc;stroke-linejoin:miter;"/>
    </g>
    <g id="line2d_32">
     <path d="M 146.326806 152.305063 
L 166.326806 152.305063 
" style="fill:none;stroke:#000080;stroke-linecap:square;stroke-width:1.5;"/>
    </g>
    <g id="line2d_33">
     <g>
      <use style="fill:#000080;stroke:#000080;" x="156.326806" xlink:href="#m537ec0982c" y="152.305063"/>
     </g>
    </g>
    <g id="text_31">
     <!-- compartmental -->
     <defs>
      <path d="M 18.109375 8.203125 
L 18.109375 -20.796875 
L 9.078125 -20.796875 
L 9.078125 54.6875 
L 18.109375 54.6875 
L 18.109375 46.390625 
Q 20.953125 51.265625 25.265625 53.625 
Q 29.59375 56 35.59375 56 
Q 45.5625 56 51.78125 48.09375 
Q 58.015625 40.1875 58.015625 27.296875 
Q 58.015625 14.40625 51.78125 6.484375 
Q 45.5625 -1.421875 35.59375 -1.421875 
Q 29.59375 -1.421875 25.265625 0.953125 
Q 20.953125 3.328125 18.109375 8.203125 
z
M 48.6875 27.296875 
Q 48.6875 37.203125 44.609375 42.84375 
Q 40.53125 48.484375 33.40625 48.484375 
Q 26.265625 48.484375 22.1875 42.84375 
Q 18.109375 37.203125 18.109375 27.296875 
Q 18.109375 17.390625 22.1875 11.75 
Q 26.265625 6.109375 33.40625 6.109375 
Q 40.53125 6.109375 44.609375 11.75 
Q 48.6875 17.390625 48.6875 27.296875 
z
" id="DejaVuSans-112"/>
     </defs>
     <g transform="translate(174.326806 155.805063)scale(0.1 -0.1)">
      <use xlink:href="#DejaVuSans-99"/>
      <use x="54.980469" xlink:href="#DejaVuSans-111"/>
      <use x="116.162109" xlink:href="#DejaVuSans-109"/>
      <use x="213.574219" xlink:href="#DejaVuSans-112"/>
      <use x="277.050781" xlink:href="#DejaVuSans-97"/>
      <use x="338.330078" xlink:href="#DejaVuSans-114"/>
      <use x="379.443359" xlink:href="#DejaVuSans-116"/>
      <use x="418.652344" xlink:href="#DejaVuSans-109"/>
      <use x="516.064453" xlink:href="#DejaVuSans-101"/>
      <use x="577.587891" xlink:href="#DejaVuSans-110"/>
      <use x="640.966797" xlink:href="#DejaVuSans-116"/>
      <use x="680.175781" xlink:href="#DejaVuSans-97"/>
      <use x="741.455078" xlink:href="#DejaVuSans-108"/>
     </g>
    </g>
    <g id="line2d_34">
     <path d="M 146.326806 170.983188 
L 166.326806 170.983188 
" style="fill:none;stroke:#00d4ff;stroke-linecap:square;stroke-width:1.5;"/>
    </g>
    <g id="line2d_35">
     <g>
      <use style="fill:#00d4ff;stroke:#00d4ff;" x="156.326806" xlink:href="#mce017eecb4" y="170.983188"/>
     </g>
    </g>
    <g id="text_32">
     <!-- metapopulation -->
     <g transform="translate(174.326806 174.483188)scale(0.1 -0.1)">
      <use xlink:href="#DejaVuSans-109"/>
      <use x="97.412109" xlink:href="#DejaVuSans-101"/>
      <use x="158.935547" xlink:href="#DejaVuSans-116"/>
      <use x="198.144531" xlink:href="#DejaVuSans-97"/>
      <use x="259.423828" xlink:href="#DejaVuSans-112"/>
      <use x="322.900391" xlink:href="#DejaVuSans-111"/>
      <use x="384.082031" xlink:href="#DejaVuSans-112"/>
      <use x="447.558594" xlink:href="#DejaVuSans-117"/>
      <use x="510.9375" xlink:href="#DejaVuSans-108"/>
      <use x="538.720703" xlink:href="#DejaVuSans-97"/>
      <use x="600" xlink:href="#DejaVuSans-116"/>
      <use x="639.208984" xlink:href="#DejaVuSans-105"/>
      <use x="666.992188" xlink:href="#DejaVuSans-111"/>
      <use x="728.173828" xlink:href="#DejaVuSans-110"/>
     </g>
    </g>
    <g id="line2d_36">
     <path d="M 146.326806 189.661313 
L 166.326806 189.661313 
" style="fill:none;stroke:#ffe600;stroke-linecap:square;stroke-width:1.5;"/>
    </g>
    <g id="line2d_37">
     <g>
      <use style="fill:#ffe600;stroke:#ffe600;" x="156.326806" xlink:href="#m7d84fa5e0c" y="189.661313"/>
     </g>
    </g>
    <g id="text_33">
     <!-- stat&amp;prob -->
     <defs>
      <path d="M 24.3125 39.203125 
Q 19.875 35.25 17.796875 31.3125 
Q 15.71875 27.390625 15.71875 23.09375 
Q 15.71875 15.96875 20.890625 11.234375 
Q 26.078125 6.5 33.890625 6.5 
Q 38.53125 6.5 42.578125 8.03125 
Q 46.625 9.578125 50.203125 12.703125 
z
M 31.203125 44.671875 
L 56 19.28125 
Q 58.890625 23.640625 60.5 28.59375 
Q 62.109375 33.546875 62.40625 39.109375 
L 71.484375 39.109375 
Q 70.90625 32.671875 68.359375 26.359375 
Q 65.828125 20.0625 61.28125 13.921875 
L 74.90625 0 
L 62.59375 0 
L 55.609375 7.171875 
Q 50.53125 2.828125 44.96875 0.703125 
Q 39.40625 -1.421875 33.015625 -1.421875 
Q 21.234375 -1.421875 13.765625 5.296875 
Q 6.296875 12.015625 6.296875 22.515625 
Q 6.296875 28.765625 9.5625 34.25 
Q 12.84375 39.75 19.390625 44.578125 
Q 17.046875 47.65625 15.8125 50.703125 
Q 14.59375 53.765625 14.59375 56.6875 
Q 14.59375 64.59375 20.015625 69.40625 
Q 25.4375 74.21875 34.421875 74.21875 
Q 38.484375 74.21875 42.5 73.34375 
Q 46.53125 72.46875 50.6875 70.703125 
L 50.6875 61.8125 
Q 46.4375 64.109375 42.578125 65.296875 
Q 38.71875 66.5 35.40625 66.5 
Q 30.28125 66.5 27.078125 63.78125 
Q 23.875 61.078125 23.875 56.78125 
Q 23.875 54.296875 25.3125 51.78125 
Q 26.765625 49.265625 31.203125 44.671875 
z
" id="DejaVuSans-38"/>
      <path d="M 48.6875 27.296875 
Q 48.6875 37.203125 44.609375 42.84375 
Q 40.53125 48.484375 33.40625 48.484375 
Q 26.265625 48.484375 22.1875 42.84375 
Q 18.109375 37.203125 18.109375 27.296875 
Q 18.109375 17.390625 22.1875 11.75 
Q 26.265625 6.109375 33.40625 6.109375 
Q 40.53125 6.109375 44.609375 11.75 
Q 48.6875 17.390625 48.6875 27.296875 
z
M 18.109375 46.390625 
Q 20.953125 51.265625 25.265625 53.625 
Q 29.59375 56 35.59375 56 
Q 45.5625 56 51.78125 48.09375 
Q 58.015625 40.1875 58.015625 27.296875 
Q 58.015625 14.40625 51.78125 6.484375 
Q 45.5625 -1.421875 35.59375 -1.421875 
Q 29.59375 -1.421875 25.265625 0.953125 
Q 20.953125 3.328125 18.109375 8.203125 
L 18.109375 0 
L 9.078125 0 
L 9.078125 75.984375 
L 18.109375 75.984375 
z
" id="DejaVuSans-98"/>
     </defs>
     <g transform="translate(174.326806 193.161313)scale(0.1 -0.1)">
      <use xlink:href="#DejaVuSans-115"/>
      <use x="52.099609" xlink:href="#DejaVuSans-116"/>
      <use x="91.308594" xlink:href="#DejaVuSans-97"/>
      <use x="152.587891" xlink:href="#DejaVuSans-116"/>
      <use x="191.796875" xlink:href="#DejaVuSans-38"/>
      <use x="269.775391" xlink:href="#DejaVuSans-112"/>
      <use x="333.251953" xlink:href="#DejaVuSans-114"/>
      <use x="372.115234" xlink:href="#DejaVuSans-111"/>
      <use x="433.296875" xlink:href="#DejaVuSans-98"/>
     </g>
    </g>
    <g id="line2d_38">
     <path d="M 146.326806 208.339438 
L 166.326806 208.339438 
" style="fill:none;stroke:#800000;stroke-linecap:square;stroke-width:1.5;"/>
    </g>
    <g id="line2d_39">
     <g>
      <use style="fill:#800000;stroke:#800000;" x="156.326806" xlink:href="#madc1ac3d40" y="208.339438"/>
     </g>
    </g>
    <g id="text_34">
     <!-- ensemble -->
     <g transform="translate(174.326806 211.839438)scale(0.1 -0.1)">
      <use xlink:href="#DejaVuSans-101"/>
      <use x="61.523438" xlink:href="#DejaVuSans-110"/>
      <use x="124.902344" xlink:href="#DejaVuSans-115"/>
      <use x="177.001953" xlink:href="#DejaVuSans-101"/>
      <use x="238.525391" xlink:href="#DejaVuSans-109"/>
      <use x="335.9375" xlink:href="#DejaVuSans-98"/>
      <use x="399.414062" xlink:href="#DejaVuSans-108"/>
      <use x="427.197266" xlink:href="#DejaVuSans-101"/>
     </g>
    </g>
   </g>
  </g>
 </g>
 <defs>
  <clipPath id="pcf11dcb814">
   <rect height="200.601" width="213.500244" x="48.982813" y="22.318125"/>
  </clipPath>
 </defs>
</svg>
