<?xml version="1.0" encoding="utf-8" standalone="no"?>
<!DOCTYPE svg PUBLIC "-//W3C//DTD SVG 1.1//EN"
  "http://www.w3.org/Graphics/SVG/1.1/DTD/svg11.dtd">
<!-- Created with matplotlib (https://matplotlib.org/) -->
<svg height="287.185628pt" version="1.1" viewBox="0 0 287.877245 287.185628" width="287.877245pt" xmlns="http://www.w3.org/2000/svg" xmlns:xlink="http://www.w3.org/1999/xlink">
 <defs>
  <style type="text/css">
*{stroke-linecap:butt;stroke-linejoin:round;}
  </style>
 </defs>
 <g id="figure_1">
  <g id="patch_1">
   <path d="M 0 287.185628 
L 287.877245 287.185628 
L 287.877245 0 
L 0 0 
z
" style="fill:#ffffff;"/>
  </g>
  <g id="axes_1">
   <g id="patch_2">
    <path d="M 48.982813 222.919125 
L 262.483056 222.919125 
L 262.483056 22.318125 
L 48.982813 22.318125 
z
" style="fill:#ffffff;"/>
   </g>
   <g id="matplotlib.axis_1">
    <g id="xtick_1">
     <g id="line2d_1">
      <defs>
       <path d="M 0 0 
L 0 3.5 
" id="m4da999455b" style="stroke:#000000;stroke-width:0.8;"/>
      </defs>
      <g>
       <use style="stroke:#000000;stroke-width:0.8;" x="48.982813" xlink:href="#m4da999455b" y="222.919125"/>
      </g>
     </g>
     <g id="text_1">
      <!-- 2020-04 -->
      <defs>
       <path d="M 19.1875 8.296875 
L 53.609375 8.296875 
L 53.609375 0 
L 7.328125 0 
L 7.328125 8.296875 
Q 12.9375 14.109375 22.625 23.890625 
Q 32.328125 33.6875 34.8125 36.53125 
Q 39.546875 41.84375 41.421875 45.53125 
Q 43.3125 49.21875 43.3125 52.78125 
Q 43.3125 58.59375 39.234375 62.25 
Q 35.15625 65.921875 28.609375 65.921875 
Q 23.96875 65.921875 18.8125 64.3125 
Q 13.671875 62.703125 7.8125 59.421875 
L 7.8125 69.390625 
Q 13.765625 71.78125 18.9375 73 
Q 24.125 74.21875 28.421875 74.21875 
Q 39.75 74.21875 46.484375 68.546875 
Q 53.21875 62.890625 53.21875 53.421875 
Q 53.21875 48.921875 51.53125 44.890625 
Q 49.859375 40.875 45.40625 35.40625 
Q 44.1875 33.984375 37.640625 27.21875 
Q 31.109375 20.453125 19.1875 8.296875 
z
" id="DejaVuSans-50"/>
       <path d="M 31.78125 66.40625 
Q 24.171875 66.40625 20.328125 58.90625 
Q 16.5 51.421875 16.5 36.375 
Q 16.5 21.390625 20.328125 13.890625 
Q 24.171875 6.390625 31.78125 6.390625 
Q 39.453125 6.390625 43.28125 13.890625 
Q 47.125 21.390625 47.125 36.375 
Q 47.125 51.421875 43.28125 58.90625 
Q 39.453125 66.40625 31.78125 66.40625 
z
M 31.78125 74.21875 
Q 44.046875 74.21875 50.515625 64.515625 
Q 56.984375 54.828125 56.984375 36.375 
Q 56.984375 17.96875 50.515625 8.265625 
Q 44.046875 -1.421875 31.78125 -1.421875 
Q 19.53125 -1.421875 13.0625 8.265625 
Q 6.59375 17.96875 6.59375 36.375 
Q 6.59375 54.828125 13.0625 64.515625 
Q 19.53125 74.21875 31.78125 74.21875 
z
" id="DejaVuSans-48"/>
       <path d="M 4.890625 31.390625 
L 31.203125 31.390625 
L 31.203125 23.390625 
L 4.890625 23.390625 
z
" id="DejaVuSans-45"/>
       <path d="M 37.796875 64.3125 
L 12.890625 25.390625 
L 37.796875 25.390625 
z
M 35.203125 72.90625 
L 47.609375 72.90625 
L 47.609375 25.390625 
L 58.015625 25.390625 
L 58.015625 17.1875 
L 47.609375 17.1875 
L 47.609375 0 
L 37.796875 0 
L 37.796875 17.1875 
L 4.890625 17.1875 
L 4.890625 26.703125 
z
" id="DejaVuSans-52"/>
      </defs>
      <g transform="translate(36.16153 264.836942)rotate(-45)scale(0.1 -0.1)">
       <use xlink:href="#DejaVuSans-50"/>
       <use x="63.623047" xlink:href="#DejaVuSans-48"/>
       <use x="127.246094" xlink:href="#DejaVuSans-50"/>
       <use x="190.869141" xlink:href="#DejaVuSans-48"/>
       <use x="254.492188" xlink:href="#DejaVuSans-45"/>
       <use x="290.576172" xlink:href="#DejaVuSans-48"/>
       <use x="354.199219" xlink:href="#DejaVuSans-52"/>
      </g>
     </g>
    </g>
    <g id="xtick_2">
     <g id="line2d_2">
      <g>
       <use style="stroke:#000000;stroke-width:0.8;" x="59.931543" xlink:href="#m4da999455b" y="222.919125"/>
      </g>
     </g>
     <g id="text_2">
      <!-- 2020-05 -->
      <defs>
       <path d="M 10.796875 72.90625 
L 49.515625 72.90625 
L 49.515625 64.59375 
L 19.828125 64.59375 
L 19.828125 46.734375 
Q 21.96875 47.46875 24.109375 47.828125 
Q 26.265625 48.1875 28.421875 48.1875 
Q 40.625 48.1875 47.75 41.5 
Q 54.890625 34.8125 54.890625 23.390625 
Q 54.890625 11.625 47.5625 5.09375 
Q 40.234375 -1.421875 26.90625 -1.421875 
Q 22.3125 -1.421875 17.546875 -0.640625 
Q 12.796875 0.140625 7.71875 1.703125 
L 7.71875 11.625 
Q 12.109375 9.234375 16.796875 8.0625 
Q 21.484375 6.890625 26.703125 6.890625 
Q 35.15625 6.890625 40.078125 11.328125 
Q 45.015625 15.765625 45.015625 23.390625 
Q 45.015625 31 40.078125 35.4375 
Q 35.15625 39.890625 26.703125 39.890625 
Q 22.75 39.890625 18.8125 39.015625 
Q 14.890625 38.140625 10.796875 36.28125 
z
" id="DejaVuSans-53"/>
      </defs>
      <g transform="translate(47.110261 264.836942)rotate(-45)scale(0.1 -0.1)">
       <use xlink:href="#DejaVuSans-50"/>
       <use x="63.623047" xlink:href="#DejaVuSans-48"/>
       <use x="127.246094" xlink:href="#DejaVuSans-50"/>
       <use x="190.869141" xlink:href="#DejaVuSans-48"/>
       <use x="254.492188" xlink:href="#DejaVuSans-45"/>
       <use x="290.576172" xlink:href="#DejaVuSans-48"/>
       <use x="354.199219" xlink:href="#DejaVuSans-53"/>
      </g>
     </g>
    </g>
    <g id="xtick_3">
     <g id="line2d_3">
      <g>
       <use style="stroke:#000000;stroke-width:0.8;" x="73.617456" xlink:href="#m4da999455b" y="222.919125"/>
      </g>
     </g>
     <g id="text_3">
      <!-- 2020-06 -->
      <defs>
       <path d="M 33.015625 40.375 
Q 26.375 40.375 22.484375 35.828125 
Q 18.609375 31.296875 18.609375 23.390625 
Q 18.609375 15.53125 22.484375 10.953125 
Q 26.375 6.390625 33.015625 6.390625 
Q 39.65625 6.390625 43.53125 10.953125 
Q 47.40625 15.53125 47.40625 23.390625 
Q 47.40625 31.296875 43.53125 35.828125 
Q 39.65625 40.375 33.015625 40.375 
z
M 52.59375 71.296875 
L 52.59375 62.3125 
Q 48.875 64.0625 45.09375 64.984375 
Q 41.3125 65.921875 37.59375 65.921875 
Q 27.828125 65.921875 22.671875 59.328125 
Q 17.53125 52.734375 16.796875 39.40625 
Q 19.671875 43.65625 24.015625 45.921875 
Q 28.375 48.1875 33.59375 48.1875 
Q 44.578125 48.1875 50.953125 41.515625 
Q 57.328125 34.859375 57.328125 23.390625 
Q 57.328125 12.15625 50.6875 5.359375 
Q 44.046875 -1.421875 33.015625 -1.421875 
Q 20.359375 -1.421875 13.671875 8.265625 
Q 6.984375 17.96875 6.984375 36.375 
Q 6.984375 53.65625 15.1875 63.9375 
Q 23.390625 74.21875 37.203125 74.21875 
Q 40.921875 74.21875 44.703125 73.484375 
Q 48.484375 72.75 52.59375 71.296875 
z
" id="DejaVuSans-54"/>
      </defs>
      <g transform="translate(60.796174 264.836942)rotate(-45)scale(0.1 -0.1)">
       <use xlink:href="#DejaVuSans-50"/>
       <use x="63.623047" xlink:href="#DejaVuSans-48"/>
       <use x="127.246094" xlink:href="#DejaVuSans-50"/>
       <use x="190.869141" xlink:href="#DejaVuSans-48"/>
       <use x="254.492188" xlink:href="#DejaVuSans-45"/>
       <use x="290.576172" xlink:href="#DejaVuSans-48"/>
       <use x="354.199219" xlink:href="#DejaVuSans-54"/>
      </g>
     </g>
    </g>
    <g id="xtick_4">
     <g id="line2d_4">
      <g>
       <use style="stroke:#000000;stroke-width:0.8;" x="84.566186" xlink:href="#m4da999455b" y="222.919125"/>
      </g>
     </g>
     <g id="text_4">
      <!-- 2020-07 -->
      <defs>
       <path d="M 8.203125 72.90625 
L 55.078125 72.90625 
L 55.078125 68.703125 
L 28.609375 0 
L 18.3125 0 
L 43.21875 64.59375 
L 8.203125 64.59375 
z
" id="DejaVuSans-55"/>
      </defs>
      <g transform="translate(71.744904 264.836942)rotate(-45)scale(0.1 -0.1)">
       <use xlink:href="#DejaVuSans-50"/>
       <use x="63.623047" xlink:href="#DejaVuSans-48"/>
       <use x="127.246094" xlink:href="#DejaVuSans-50"/>
       <use x="190.869141" xlink:href="#DejaVuSans-48"/>
       <use x="254.492188" xlink:href="#DejaVuSans-45"/>
       <use x="290.576172" xlink:href="#DejaVuSans-48"/>
       <use x="354.199219" xlink:href="#DejaVuSans-55"/>
      </g>
     </g>
    </g>
    <g id="xtick_5">
     <g id="line2d_5">
      <g>
       <use style="stroke:#000000;stroke-width:0.8;" x="95.514917" xlink:href="#m4da999455b" y="222.919125"/>
      </g>
     </g>
     <g id="text_5">
      <!-- 2020-08 -->
      <defs>
       <path d="M 31.78125 34.625 
Q 24.75 34.625 20.71875 30.859375 
Q 16.703125 27.09375 16.703125 20.515625 
Q 16.703125 13.921875 20.71875 10.15625 
Q 24.75 6.390625 31.78125 6.390625 
Q 38.8125 6.390625 42.859375 10.171875 
Q 46.921875 13.96875 46.921875 20.515625 
Q 46.921875 27.09375 42.890625 30.859375 
Q 38.875 34.625 31.78125 34.625 
z
M 21.921875 38.8125 
Q 15.578125 40.375 12.03125 44.71875 
Q 8.5 49.078125 8.5 55.328125 
Q 8.5 64.0625 14.71875 69.140625 
Q 20.953125 74.21875 31.78125 74.21875 
Q 42.671875 74.21875 48.875 69.140625 
Q 55.078125 64.0625 55.078125 55.328125 
Q 55.078125 49.078125 51.53125 44.71875 
Q 48 40.375 41.703125 38.8125 
Q 48.828125 37.15625 52.796875 32.3125 
Q 56.78125 27.484375 56.78125 20.515625 
Q 56.78125 9.90625 50.3125 4.234375 
Q 43.84375 -1.421875 31.78125 -1.421875 
Q 19.734375 -1.421875 13.25 4.234375 
Q 6.78125 9.90625 6.78125 20.515625 
Q 6.78125 27.484375 10.78125 32.3125 
Q 14.796875 37.15625 21.921875 38.8125 
z
M 18.3125 54.390625 
Q 18.3125 48.734375 21.84375 45.5625 
Q 25.390625 42.390625 31.78125 42.390625 
Q 38.140625 42.390625 41.71875 45.5625 
Q 45.3125 48.734375 45.3125 54.390625 
Q 45.3125 60.0625 41.71875 63.234375 
Q 38.140625 66.40625 31.78125 66.40625 
Q 25.390625 66.40625 21.84375 63.234375 
Q 18.3125 60.0625 18.3125 54.390625 
z
" id="DejaVuSans-56"/>
      </defs>
      <g transform="translate(82.693635 264.836942)rotate(-45)scale(0.1 -0.1)">
       <use xlink:href="#DejaVuSans-50"/>
       <use x="63.623047" xlink:href="#DejaVuSans-48"/>
       <use x="127.246094" xlink:href="#DejaVuSans-50"/>
       <use x="190.869141" xlink:href="#DejaVuSans-48"/>
       <use x="254.492188" xlink:href="#DejaVuSans-45"/>
       <use x="290.576172" xlink:href="#DejaVuSans-48"/>
       <use x="354.199219" xlink:href="#DejaVuSans-56"/>
      </g>
     </g>
    </g>
    <g id="xtick_6">
     <g id="line2d_6">
      <g>
       <use style="stroke:#000000;stroke-width:0.8;" x="109.20083" xlink:href="#m4da999455b" y="222.919125"/>
      </g>
     </g>
     <g id="text_6">
      <!-- 2020-09 -->
      <defs>
       <path d="M 10.984375 1.515625 
L 10.984375 10.5 
Q 14.703125 8.734375 18.5 7.8125 
Q 22.3125 6.890625 25.984375 6.890625 
Q 35.75 6.890625 40.890625 13.453125 
Q 46.046875 20.015625 46.78125 33.40625 
Q 43.953125 29.203125 39.59375 26.953125 
Q 35.25 24.703125 29.984375 24.703125 
Q 19.046875 24.703125 12.671875 31.3125 
Q 6.296875 37.9375 6.296875 49.421875 
Q 6.296875 60.640625 12.9375 67.421875 
Q 19.578125 74.21875 30.609375 74.21875 
Q 43.265625 74.21875 49.921875 64.515625 
Q 56.59375 54.828125 56.59375 36.375 
Q 56.59375 19.140625 48.40625 8.859375 
Q 40.234375 -1.421875 26.421875 -1.421875 
Q 22.703125 -1.421875 18.890625 -0.6875 
Q 15.09375 0.046875 10.984375 1.515625 
z
M 30.609375 32.421875 
Q 37.25 32.421875 41.125 36.953125 
Q 45.015625 41.5 45.015625 49.421875 
Q 45.015625 57.28125 41.125 61.84375 
Q 37.25 66.40625 30.609375 66.40625 
Q 23.96875 66.40625 20.09375 61.84375 
Q 16.21875 57.28125 16.21875 49.421875 
Q 16.21875 41.5 20.09375 36.953125 
Q 23.96875 32.421875 30.609375 32.421875 
z
" id="DejaVuSans-57"/>
      </defs>
      <g transform="translate(96.379548 264.836942)rotate(-45)scale(0.1 -0.1)">
       <use xlink:href="#DejaVuSans-50"/>
       <use x="63.623047" xlink:href="#DejaVuSans-48"/>
       <use x="127.246094" xlink:href="#DejaVuSans-50"/>
       <use x="190.869141" xlink:href="#DejaVuSans-48"/>
       <use x="254.492188" xlink:href="#DejaVuSans-45"/>
       <use x="290.576172" xlink:href="#DejaVuSans-48"/>
       <use x="354.199219" xlink:href="#DejaVuSans-57"/>
      </g>
     </g>
    </g>
    <g id="xtick_7">
     <g id="line2d_7">
      <g>
       <use style="stroke:#000000;stroke-width:0.8;" x="120.14956" xlink:href="#m4da999455b" y="222.919125"/>
      </g>
     </g>
     <g id="text_7">
      <!-- 2020-10 -->
      <defs>
       <path d="M 12.40625 8.296875 
L 28.515625 8.296875 
L 28.515625 63.921875 
L 10.984375 60.40625 
L 10.984375 69.390625 
L 28.421875 72.90625 
L 38.28125 72.90625 
L 38.28125 8.296875 
L 54.390625 8.296875 
L 54.390625 0 
L 12.40625 0 
z
" id="DejaVuSans-49"/>
      </defs>
      <g transform="translate(107.328278 264.836942)rotate(-45)scale(0.1 -0.1)">
       <use xlink:href="#DejaVuSans-50"/>
       <use x="63.623047" xlink:href="#DejaVuSans-48"/>
       <use x="127.246094" xlink:href="#DejaVuSans-50"/>
       <use x="190.869141" xlink:href="#DejaVuSans-48"/>
       <use x="254.492188" xlink:href="#DejaVuSans-45"/>
       <use x="290.576172" xlink:href="#DejaVuSans-49"/>
       <use x="354.199219" xlink:href="#DejaVuSans-48"/>
      </g>
     </g>
    </g>
    <g id="xtick_8">
     <g id="line2d_8">
      <g>
       <use style="stroke:#000000;stroke-width:0.8;" x="133.835473" xlink:href="#m4da999455b" y="222.919125"/>
      </g>
     </g>
     <g id="text_8">
      <!-- 2020-11 -->
      <g transform="translate(121.014191 264.836942)rotate(-45)scale(0.1 -0.1)">
       <use xlink:href="#DejaVuSans-50"/>
       <use x="63.623047" xlink:href="#DejaVuSans-48"/>
       <use x="127.246094" xlink:href="#DejaVuSans-50"/>
       <use x="190.869141" xlink:href="#DejaVuSans-48"/>
       <use x="254.492188" xlink:href="#DejaVuSans-45"/>
       <use x="290.576172" xlink:href="#DejaVuSans-49"/>
       <use x="354.199219" xlink:href="#DejaVuSans-49"/>
      </g>
     </g>
    </g>
    <g id="xtick_9">
     <g id="line2d_9">
      <g>
       <use style="stroke:#000000;stroke-width:0.8;" x="144.784204" xlink:href="#m4da999455b" y="222.919125"/>
      </g>
     </g>
     <g id="text_9">
      <!-- 2020-12 -->
      <g transform="translate(131.962922 264.836942)rotate(-45)scale(0.1 -0.1)">
       <use xlink:href="#DejaVuSans-50"/>
       <use x="63.623047" xlink:href="#DejaVuSans-48"/>
       <use x="127.246094" xlink:href="#DejaVuSans-50"/>
       <use x="190.869141" xlink:href="#DejaVuSans-48"/>
       <use x="254.492188" xlink:href="#DejaVuSans-45"/>
       <use x="290.576172" xlink:href="#DejaVuSans-49"/>
       <use x="354.199219" xlink:href="#DejaVuSans-50"/>
      </g>
     </g>
    </g>
    <g id="xtick_10">
     <g id="line2d_10">
      <g>
       <use style="stroke:#000000;stroke-width:0.8;" x="155.732934" xlink:href="#m4da999455b" y="222.919125"/>
      </g>
     </g>
     <g id="text_10">
      <!-- 2021-01 -->
      <g transform="translate(142.911652 264.836942)rotate(-45)scale(0.1 -0.1)">
       <use xlink:href="#DejaVuSans-50"/>
       <use x="63.623047" xlink:href="#DejaVuSans-48"/>
       <use x="127.246094" xlink:href="#DejaVuSans-50"/>
       <use x="190.869141" xlink:href="#DejaVuSans-49"/>
       <use x="254.492188" xlink:href="#DejaVuSans-45"/>
       <use x="290.576172" xlink:href="#DejaVuSans-48"/>
       <use x="354.199219" xlink:href="#DejaVuSans-49"/>
      </g>
     </g>
    </g>
    <g id="xtick_11">
     <g id="line2d_11">
      <g>
       <use style="stroke:#000000;stroke-width:0.8;" x="169.418847" xlink:href="#m4da999455b" y="222.919125"/>
      </g>
     </g>
     <g id="text_11">
      <!-- 2021-02 -->
      <g transform="translate(156.597565 264.836942)rotate(-45)scale(0.1 -0.1)">
       <use xlink:href="#DejaVuSans-50"/>
       <use x="63.623047" xlink:href="#DejaVuSans-48"/>
       <use x="127.246094" xlink:href="#DejaVuSans-50"/>
       <use x="190.869141" xlink:href="#DejaVuSans-49"/>
       <use x="254.492188" xlink:href="#DejaVuSans-45"/>
       <use x="290.576172" xlink:href="#DejaVuSans-48"/>
       <use x="354.199219" xlink:href="#DejaVuSans-50"/>
      </g>
     </g>
    </g>
    <g id="xtick_12">
     <g id="line2d_12">
      <g>
       <use style="stroke:#000000;stroke-width:0.8;" x="180.367578" xlink:href="#m4da999455b" y="222.919125"/>
      </g>
     </g>
     <g id="text_12">
      <!-- 2021-03 -->
      <defs>
       <path d="M 40.578125 39.3125 
Q 47.65625 37.796875 51.625 33 
Q 55.609375 28.21875 55.609375 21.1875 
Q 55.609375 10.40625 48.1875 4.484375 
Q 40.765625 -1.421875 27.09375 -1.421875 
Q 22.515625 -1.421875 17.65625 -0.515625 
Q 12.796875 0.390625 7.625 2.203125 
L 7.625 11.71875 
Q 11.71875 9.328125 16.59375 8.109375 
Q 21.484375 6.890625 26.8125 6.890625 
Q 36.078125 6.890625 40.9375 10.546875 
Q 45.796875 14.203125 45.796875 21.1875 
Q 45.796875 27.640625 41.28125 31.265625 
Q 36.765625 34.90625 28.71875 34.90625 
L 20.21875 34.90625 
L 20.21875 43.015625 
L 29.109375 43.015625 
Q 36.375 43.015625 40.234375 45.921875 
Q 44.09375 48.828125 44.09375 54.296875 
Q 44.09375 59.90625 40.109375 62.90625 
Q 36.140625 65.921875 28.71875 65.921875 
Q 24.65625 65.921875 20.015625 65.03125 
Q 15.375 64.15625 9.8125 62.3125 
L 9.8125 71.09375 
Q 15.4375 72.65625 20.34375 73.4375 
Q 25.25 74.21875 29.59375 74.21875 
Q 40.828125 74.21875 47.359375 69.109375 
Q 53.90625 64.015625 53.90625 55.328125 
Q 53.90625 49.265625 50.4375 45.09375 
Q 46.96875 40.921875 40.578125 39.3125 
z
" id="DejaVuSans-51"/>
      </defs>
      <g transform="translate(167.546296 264.836942)rotate(-45)scale(0.1 -0.1)">
       <use xlink:href="#DejaVuSans-50"/>
       <use x="63.623047" xlink:href="#DejaVuSans-48"/>
       <use x="127.246094" xlink:href="#DejaVuSans-50"/>
       <use x="190.869141" xlink:href="#DejaVuSans-49"/>
       <use x="254.492188" xlink:href="#DejaVuSans-45"/>
       <use x="290.576172" xlink:href="#DejaVuSans-48"/>
       <use x="354.199219" xlink:href="#DejaVuSans-51"/>
      </g>
     </g>
    </g>
    <g id="xtick_13">
     <g id="line2d_13">
      <g>
       <use style="stroke:#000000;stroke-width:0.8;" x="191.316308" xlink:href="#m4da999455b" y="222.919125"/>
      </g>
     </g>
     <g id="text_13">
      <!-- 2021-04 -->
      <g transform="translate(178.495026 264.836942)rotate(-45)scale(0.1 -0.1)">
       <use xlink:href="#DejaVuSans-50"/>
       <use x="63.623047" xlink:href="#DejaVuSans-48"/>
       <use x="127.246094" xlink:href="#DejaVuSans-50"/>
       <use x="190.869141" xlink:href="#DejaVuSans-49"/>
       <use x="254.492188" xlink:href="#DejaVuSans-45"/>
       <use x="290.576172" xlink:href="#DejaVuSans-48"/>
       <use x="354.199219" xlink:href="#DejaVuSans-52"/>
      </g>
     </g>
    </g>
    <g id="xtick_14">
     <g id="line2d_14">
      <g>
       <use style="stroke:#000000;stroke-width:0.8;" x="202.265039" xlink:href="#m4da999455b" y="222.919125"/>
      </g>
     </g>
     <g id="text_14">
      <!-- 2021-05 -->
      <g transform="translate(189.443756 264.836942)rotate(-45)scale(0.1 -0.1)">
       <use xlink:href="#DejaVuSans-50"/>
       <use x="63.623047" xlink:href="#DejaVuSans-48"/>
       <use x="127.246094" xlink:href="#DejaVuSans-50"/>
       <use x="190.869141" xlink:href="#DejaVuSans-49"/>
       <use x="254.492188" xlink:href="#DejaVuSans-45"/>
       <use x="290.576172" xlink:href="#DejaVuSans-48"/>
       <use x="354.199219" xlink:href="#DejaVuSans-53"/>
      </g>
     </g>
    </g>
    <g id="xtick_15">
     <g id="line2d_15">
      <g>
       <use style="stroke:#000000;stroke-width:0.8;" x="215.950952" xlink:href="#m4da999455b" y="222.919125"/>
      </g>
     </g>
     <g id="text_15">
      <!-- 2021-06 -->
      <g transform="translate(203.129669 264.836942)rotate(-45)scale(0.1 -0.1)">
       <use xlink:href="#DejaVuSans-50"/>
       <use x="63.623047" xlink:href="#DejaVuSans-48"/>
       <use x="127.246094" xlink:href="#DejaVuSans-50"/>
       <use x="190.869141" xlink:href="#DejaVuSans-49"/>
       <use x="254.492188" xlink:href="#DejaVuSans-45"/>
       <use x="290.576172" xlink:href="#DejaVuSans-48"/>
       <use x="354.199219" xlink:href="#DejaVuSans-54"/>
      </g>
     </g>
    </g>
    <g id="xtick_16">
     <g id="line2d_16">
      <g>
       <use style="stroke:#000000;stroke-width:0.8;" x="226.899682" xlink:href="#m4da999455b" y="222.919125"/>
      </g>
     </g>
     <g id="text_16">
      <!-- 2021-07 -->
      <g transform="translate(214.0784 264.836942)rotate(-45)scale(0.1 -0.1)">
       <use xlink:href="#DejaVuSans-50"/>
       <use x="63.623047" xlink:href="#DejaVuSans-48"/>
       <use x="127.246094" xlink:href="#DejaVuSans-50"/>
       <use x="190.869141" xlink:href="#DejaVuSans-49"/>
       <use x="254.492188" xlink:href="#DejaVuSans-45"/>
       <use x="290.576172" xlink:href="#DejaVuSans-48"/>
       <use x="354.199219" xlink:href="#DejaVuSans-55"/>
      </g>
     </g>
    </g>
    <g id="xtick_17">
     <g id="line2d_17">
      <g>
       <use style="stroke:#000000;stroke-width:0.8;" x="240.585595" xlink:href="#m4da999455b" y="222.919125"/>
      </g>
     </g>
     <g id="text_17">
      <!-- 2021-08 -->
      <g transform="translate(227.764313 264.836942)rotate(-45)scale(0.1 -0.1)">
       <use xlink:href="#DejaVuSans-50"/>
       <use x="63.623047" xlink:href="#DejaVuSans-48"/>
       <use x="127.246094" xlink:href="#DejaVuSans-50"/>
       <use x="190.869141" xlink:href="#DejaVuSans-49"/>
       <use x="254.492188" xlink:href="#DejaVuSans-45"/>
       <use x="290.576172" xlink:href="#DejaVuSans-48"/>
       <use x="354.199219" xlink:href="#DejaVuSans-56"/>
      </g>
     </g>
    </g>
    <g id="xtick_18">
     <g id="line2d_18">
      <g>
       <use style="stroke:#000000;stroke-width:0.8;" x="251.534326" xlink:href="#m4da999455b" y="222.919125"/>
      </g>
     </g>
     <g id="text_18">
      <!-- 2021-09 -->
      <g transform="translate(238.713043 264.836942)rotate(-45)scale(0.1 -0.1)">
       <use xlink:href="#DejaVuSans-50"/>
       <use x="63.623047" xlink:href="#DejaVuSans-48"/>
       <use x="127.246094" xlink:href="#DejaVuSans-50"/>
       <use x="190.869141" xlink:href="#DejaVuSans-49"/>
       <use x="254.492188" xlink:href="#DejaVuSans-45"/>
       <use x="290.576172" xlink:href="#DejaVuSans-48"/>
       <use x="354.199219" xlink:href="#DejaVuSans-57"/>
      </g>
     </g>
    </g>
    <g id="xtick_19">
     <g id="line2d_19">
      <g>
       <use style="stroke:#000000;stroke-width:0.8;" x="262.483056" xlink:href="#m4da999455b" y="222.919125"/>
      </g>
     </g>
     <g id="text_19">
      <!-- 2021-10 -->
      <g transform="translate(249.661774 264.836942)rotate(-45)scale(0.1 -0.1)">
       <use xlink:href="#DejaVuSans-50"/>
       <use x="63.623047" xlink:href="#DejaVuSans-48"/>
       <use x="127.246094" xlink:href="#DejaVuSans-50"/>
       <use x="190.869141" xlink:href="#DejaVuSans-49"/>
       <use x="254.492188" xlink:href="#DejaVuSans-45"/>
       <use x="290.576172" xlink:href="#DejaVuSans-49"/>
       <use x="354.199219" xlink:href="#DejaVuSans-48"/>
      </g>
     </g>
    </g>
    <g id="text_20">
     <!-- Target End Date -->
     <defs>
      <path d="M -0.296875 72.90625 
L 61.375 72.90625 
L 61.375 64.59375 
L 35.5 64.59375 
L 35.5 0 
L 25.59375 0 
L 25.59375 64.59375 
L -0.296875 64.59375 
z
" id="DejaVuSans-84"/>
      <path d="M 34.28125 27.484375 
Q 23.390625 27.484375 19.1875 25 
Q 14.984375 22.515625 14.984375 16.5 
Q 14.984375 11.71875 18.140625 8.90625 
Q 21.296875 6.109375 26.703125 6.109375 
Q 34.1875 6.109375 38.703125 11.40625 
Q 43.21875 16.703125 43.21875 25.484375 
L 43.21875 27.484375 
z
M 52.203125 31.203125 
L 52.203125 0 
L 43.21875 0 
L 43.21875 8.296875 
Q 40.140625 3.328125 35.546875 0.953125 
Q 30.953125 -1.421875 24.3125 -1.421875 
Q 15.921875 -1.421875 10.953125 3.296875 
Q 6 8.015625 6 15.921875 
Q 6 25.140625 12.171875 29.828125 
Q 18.359375 34.515625 30.609375 34.515625 
L 43.21875 34.515625 
L 43.21875 35.40625 
Q 43.21875 41.609375 39.140625 45 
Q 35.0625 48.390625 27.6875 48.390625 
Q 23 48.390625 18.546875 47.265625 
Q 14.109375 46.140625 10.015625 43.890625 
L 10.015625 52.203125 
Q 14.9375 54.109375 19.578125 55.046875 
Q 24.21875 56 28.609375 56 
Q 40.484375 56 46.34375 49.84375 
Q 52.203125 43.703125 52.203125 31.203125 
z
" id="DejaVuSans-97"/>
      <path d="M 41.109375 46.296875 
Q 39.59375 47.171875 37.8125 47.578125 
Q 36.03125 48 33.890625 48 
Q 26.265625 48 22.1875 43.046875 
Q 18.109375 38.09375 18.109375 28.8125 
L 18.109375 0 
L 9.078125 0 
L 9.078125 54.6875 
L 18.109375 54.6875 
L 18.109375 46.1875 
Q 20.953125 51.171875 25.484375 53.578125 
Q 30.03125 56 36.53125 56 
Q 37.453125 56 38.578125 55.875 
Q 39.703125 55.765625 41.0625 55.515625 
z
" id="DejaVuSans-114"/>
      <path d="M 45.40625 27.984375 
Q 45.40625 37.75 41.375 43.109375 
Q 37.359375 48.484375 30.078125 48.484375 
Q 22.859375 48.484375 18.828125 43.109375 
Q 14.796875 37.75 14.796875 27.984375 
Q 14.796875 18.265625 18.828125 12.890625 
Q 22.859375 7.515625 30.078125 7.515625 
Q 37.359375 7.515625 41.375 12.890625 
Q 45.40625 18.265625 45.40625 27.984375 
z
M 54.390625 6.78125 
Q 54.390625 -7.171875 48.1875 -13.984375 
Q 42 -20.796875 29.203125 -20.796875 
Q 24.46875 -20.796875 20.265625 -20.09375 
Q 16.0625 -19.390625 12.109375 -17.921875 
L 12.109375 -9.1875 
Q 16.0625 -11.328125 19.921875 -12.34375 
Q 23.78125 -13.375 27.78125 -13.375 
Q 36.625 -13.375 41.015625 -8.765625 
Q 45.40625 -4.15625 45.40625 5.171875 
L 45.40625 9.625 
Q 42.625 4.78125 38.28125 2.390625 
Q 33.9375 0 27.875 0 
Q 17.828125 0 11.671875 7.65625 
Q 5.515625 15.328125 5.515625 27.984375 
Q 5.515625 40.671875 11.671875 48.328125 
Q 17.828125 56 27.875 56 
Q 33.9375 56 38.28125 53.609375 
Q 42.625 51.21875 45.40625 46.390625 
L 45.40625 54.6875 
L 54.390625 54.6875 
z
" id="DejaVuSans-103"/>
      <path d="M 56.203125 29.59375 
L 56.203125 25.203125 
L 14.890625 25.203125 
Q 15.484375 15.921875 20.484375 11.0625 
Q 25.484375 6.203125 34.421875 6.203125 
Q 39.59375 6.203125 44.453125 7.46875 
Q 49.3125 8.734375 54.109375 11.28125 
L 54.109375 2.78125 
Q 49.265625 0.734375 44.1875 -0.34375 
Q 39.109375 -1.421875 33.890625 -1.421875 
Q 20.796875 -1.421875 13.15625 6.1875 
Q 5.515625 13.8125 5.515625 26.8125 
Q 5.515625 40.234375 12.765625 48.109375 
Q 20.015625 56 32.328125 56 
Q 43.359375 56 49.78125 48.890625 
Q 56.203125 41.796875 56.203125 29.59375 
z
M 47.21875 32.234375 
Q 47.125 39.59375 43.09375 43.984375 
Q 39.0625 48.390625 32.421875 48.390625 
Q 24.90625 48.390625 20.390625 44.140625 
Q 15.875 39.890625 15.1875 32.171875 
z
" id="DejaVuSans-101"/>
      <path d="M 18.3125 70.21875 
L 18.3125 54.6875 
L 36.8125 54.6875 
L 36.8125 47.703125 
L 18.3125 47.703125 
L 18.3125 18.015625 
Q 18.3125 11.328125 20.140625 9.421875 
Q 21.96875 7.515625 27.59375 7.515625 
L 36.8125 7.515625 
L 36.8125 0 
L 27.59375 0 
Q 17.1875 0 13.234375 3.875 
Q 9.28125 7.765625 9.28125 18.015625 
L 9.28125 47.703125 
L 2.6875 47.703125 
L 2.6875 54.6875 
L 9.28125 54.6875 
L 9.28125 70.21875 
z
" id="DejaVuSans-116"/>
      <path id="DejaVuSans-32"/>
      <path d="M 9.8125 72.90625 
L 55.90625 72.90625 
L 55.90625 64.59375 
L 19.671875 64.59375 
L 19.671875 43.015625 
L 54.390625 43.015625 
L 54.390625 34.71875 
L 19.671875 34.71875 
L 19.671875 8.296875 
L 56.78125 8.296875 
L 56.78125 0 
L 9.8125 0 
z
" id="DejaVuSans-69"/>
      <path d="M 54.890625 33.015625 
L 54.890625 0 
L 45.90625 0 
L 45.90625 32.71875 
Q 45.90625 40.484375 42.875 44.328125 
Q 39.84375 48.1875 33.796875 48.1875 
Q 26.515625 48.1875 22.3125 43.546875 
Q 18.109375 38.921875 18.109375 30.90625 
L 18.109375 0 
L 9.078125 0 
L 9.078125 54.6875 
L 18.109375 54.6875 
L 18.109375 46.1875 
Q 21.34375 51.125 25.703125 53.5625 
Q 30.078125 56 35.796875 56 
Q 45.21875 56 50.046875 50.171875 
Q 54.890625 44.34375 54.890625 33.015625 
z
" id="DejaVuSans-110"/>
      <path d="M 45.40625 46.390625 
L 45.40625 75.984375 
L 54.390625 75.984375 
L 54.390625 0 
L 45.40625 0 
L 45.40625 8.203125 
Q 42.578125 3.328125 38.25 0.953125 
Q 33.9375 -1.421875 27.875 -1.421875 
Q 17.96875 -1.421875 11.734375 6.484375 
Q 5.515625 14.40625 5.515625 27.296875 
Q 5.515625 40.1875 11.734375 48.09375 
Q 17.96875 56 27.875 56 
Q 33.9375 56 38.25 53.625 
Q 42.578125 51.265625 45.40625 46.390625 
z
M 14.796875 27.296875 
Q 14.796875 17.390625 18.875 11.75 
Q 22.953125 6.109375 30.078125 6.109375 
Q 37.203125 6.109375 41.296875 11.75 
Q 45.40625 17.390625 45.40625 27.296875 
Q 45.40625 37.203125 41.296875 42.84375 
Q 37.203125 48.484375 30.078125 48.484375 
Q 22.953125 48.484375 18.875 42.84375 
Q 14.796875 37.203125 14.796875 27.296875 
z
" id="DejaVuSans-100"/>
      <path d="M 19.671875 64.796875 
L 19.671875 8.109375 
L 31.59375 8.109375 
Q 46.6875 8.109375 53.6875 14.9375 
Q 60.6875 21.78125 60.6875 36.53125 
Q 60.6875 51.171875 53.6875 57.984375 
Q 46.6875 64.796875 31.59375 64.796875 
z
M 9.8125 72.90625 
L 30.078125 72.90625 
Q 51.265625 72.90625 61.171875 64.09375 
Q 71.09375 55.28125 71.09375 36.53125 
Q 71.09375 17.671875 61.125 8.828125 
Q 51.171875 0 30.078125 0 
L 9.8125 0 
z
" id="DejaVuSans-68"/>
     </defs>
     <g transform="translate(115.629809 277.905941)scale(0.1 -0.1)">
      <use xlink:href="#DejaVuSans-84"/>
      <use x="44.583984" xlink:href="#DejaVuSans-97"/>
      <use x="105.863281" xlink:href="#DejaVuSans-114"/>
      <use x="145.226562" xlink:href="#DejaVuSans-103"/>
      <use x="208.703125" xlink:href="#DejaVuSans-101"/>
      <use x="270.226562" xlink:href="#DejaVuSans-116"/>
      <use x="309.435547" xlink:href="#DejaVuSans-32"/>
      <use x="341.222656" xlink:href="#DejaVuSans-69"/>
      <use x="404.40625" xlink:href="#DejaVuSans-110"/>
      <use x="467.785156" xlink:href="#DejaVuSans-100"/>
      <use x="531.261719" xlink:href="#DejaVuSans-32"/>
      <use x="563.048828" xlink:href="#DejaVuSans-68"/>
      <use x="640.050781" xlink:href="#DejaVuSans-97"/>
      <use x="701.330078" xlink:href="#DejaVuSans-116"/>
      <use x="740.539062" xlink:href="#DejaVuSans-101"/>
     </g>
    </g>
   </g>
   <g id="matplotlib.axis_2">
    <g id="ytick_1">
     <g id="line2d_20">
      <defs>
       <path d="M 0 0 
L -3.5 0 
" id="m53712a93b2" style="stroke:#000000;stroke-width:0.8;"/>
      </defs>
      <g>
       <use style="stroke:#000000;stroke-width:0.8;" x="48.982813" xlink:href="#m53712a93b2" y="199.920856"/>
      </g>
     </g>
     <g id="text_21">
      <!-- −12 -->
      <defs>
       <path d="M 10.59375 35.5 
L 73.1875 35.5 
L 73.1875 27.203125 
L 10.59375 27.203125 
z
" id="DejaVuSans-8722"/>
      </defs>
      <g transform="translate(20.878125 203.720074)scale(0.1 -0.1)">
       <use xlink:href="#DejaVuSans-8722"/>
       <use x="83.789062" xlink:href="#DejaVuSans-49"/>
       <use x="147.412109" xlink:href="#DejaVuSans-50"/>
      </g>
     </g>
    </g>
    <g id="ytick_2">
     <g id="line2d_21">
      <g>
       <use style="stroke:#000000;stroke-width:0.8;" x="48.982813" xlink:href="#m53712a93b2" y="171.486608"/>
      </g>
     </g>
     <g id="text_22">
      <!-- −10 -->
      <g transform="translate(20.878125 175.285827)scale(0.1 -0.1)">
       <use xlink:href="#DejaVuSans-8722"/>
       <use x="83.789062" xlink:href="#DejaVuSans-49"/>
       <use x="147.412109" xlink:href="#DejaVuSans-48"/>
      </g>
     </g>
    </g>
    <g id="ytick_3">
     <g id="line2d_22">
      <g>
       <use style="stroke:#000000;stroke-width:0.8;" x="48.982813" xlink:href="#m53712a93b2" y="143.052361"/>
      </g>
     </g>
     <g id="text_23">
      <!-- −8 -->
      <g transform="translate(27.240625 146.851579)scale(0.1 -0.1)">
       <use xlink:href="#DejaVuSans-8722"/>
       <use x="83.789062" xlink:href="#DejaVuSans-56"/>
      </g>
     </g>
    </g>
    <g id="ytick_4">
     <g id="line2d_23">
      <g>
       <use style="stroke:#000000;stroke-width:0.8;" x="48.982813" xlink:href="#m53712a93b2" y="114.618113"/>
      </g>
     </g>
     <g id="text_24">
      <!-- −6 -->
      <g transform="translate(27.240625 118.417332)scale(0.1 -0.1)">
       <use xlink:href="#DejaVuSans-8722"/>
       <use x="83.789062" xlink:href="#DejaVuSans-54"/>
      </g>
     </g>
    </g>
    <g id="ytick_5">
     <g id="line2d_24">
      <g>
       <use style="stroke:#000000;stroke-width:0.8;" x="48.982813" xlink:href="#m53712a93b2" y="86.183866"/>
      </g>
     </g>
     <g id="text_25">
      <!-- −4 -->
      <g transform="translate(27.240625 89.983084)scale(0.1 -0.1)">
       <use xlink:href="#DejaVuSans-8722"/>
       <use x="83.789062" xlink:href="#DejaVuSans-52"/>
      </g>
     </g>
    </g>
    <g id="ytick_6">
     <g id="line2d_25">
      <g>
       <use style="stroke:#000000;stroke-width:0.8;" x="48.982813" xlink:href="#m53712a93b2" y="57.749618"/>
      </g>
     </g>
     <g id="text_26">
      <!-- −2 -->
      <g transform="translate(27.240625 61.548837)scale(0.1 -0.1)">
       <use xlink:href="#DejaVuSans-8722"/>
       <use x="83.789062" xlink:href="#DejaVuSans-50"/>
      </g>
     </g>
    </g>
    <g id="ytick_7">
     <g id="line2d_26">
      <g>
       <use style="stroke:#000000;stroke-width:0.8;" x="48.982813" xlink:href="#m53712a93b2" y="29.315371"/>
      </g>
     </g>
     <g id="text_27">
      <!-- 0 -->
      <g transform="translate(35.620313 33.114589)scale(0.1 -0.1)">
       <use xlink:href="#DejaVuSans-48"/>
      </g>
     </g>
    </g>
    <g id="text_28">
     <!-- Score for cumulative deaths -->
     <defs>
      <path d="M 53.515625 70.515625 
L 53.515625 60.890625 
Q 47.90625 63.578125 42.921875 64.890625 
Q 37.9375 66.21875 33.296875 66.21875 
Q 25.25 66.21875 20.875 63.09375 
Q 16.5 59.96875 16.5 54.203125 
Q 16.5 49.359375 19.40625 46.890625 
Q 22.3125 44.4375 30.421875 42.921875 
L 36.375 41.703125 
Q 47.40625 39.59375 52.65625 34.296875 
Q 57.90625 29 57.90625 20.125 
Q 57.90625 9.515625 50.796875 4.046875 
Q 43.703125 -1.421875 29.984375 -1.421875 
Q 24.8125 -1.421875 18.96875 -0.25 
Q 13.140625 0.921875 6.890625 3.21875 
L 6.890625 13.375 
Q 12.890625 10.015625 18.65625 8.296875 
Q 24.421875 6.59375 29.984375 6.59375 
Q 38.421875 6.59375 43.015625 9.90625 
Q 47.609375 13.234375 47.609375 19.390625 
Q 47.609375 24.75 44.3125 27.78125 
Q 41.015625 30.8125 33.5 32.328125 
L 27.484375 33.5 
Q 16.453125 35.6875 11.515625 40.375 
Q 6.59375 45.0625 6.59375 53.421875 
Q 6.59375 63.09375 13.40625 68.65625 
Q 20.21875 74.21875 32.171875 74.21875 
Q 37.3125 74.21875 42.625 73.28125 
Q 47.953125 72.359375 53.515625 70.515625 
z
" id="DejaVuSans-83"/>
      <path d="M 48.78125 52.59375 
L 48.78125 44.1875 
Q 44.96875 46.296875 41.140625 47.34375 
Q 37.3125 48.390625 33.40625 48.390625 
Q 24.65625 48.390625 19.8125 42.84375 
Q 14.984375 37.3125 14.984375 27.296875 
Q 14.984375 17.28125 19.8125 11.734375 
Q 24.65625 6.203125 33.40625 6.203125 
Q 37.3125 6.203125 41.140625 7.25 
Q 44.96875 8.296875 48.78125 10.40625 
L 48.78125 2.09375 
Q 45.015625 0.34375 40.984375 -0.53125 
Q 36.96875 -1.421875 32.421875 -1.421875 
Q 20.0625 -1.421875 12.78125 6.34375 
Q 5.515625 14.109375 5.515625 27.296875 
Q 5.515625 40.671875 12.859375 48.328125 
Q 20.21875 56 33.015625 56 
Q 37.15625 56 41.109375 55.140625 
Q 45.0625 54.296875 48.78125 52.59375 
z
" id="DejaVuSans-99"/>
      <path d="M 30.609375 48.390625 
Q 23.390625 48.390625 19.1875 42.75 
Q 14.984375 37.109375 14.984375 27.296875 
Q 14.984375 17.484375 19.15625 11.84375 
Q 23.34375 6.203125 30.609375 6.203125 
Q 37.796875 6.203125 41.984375 11.859375 
Q 46.1875 17.53125 46.1875 27.296875 
Q 46.1875 37.015625 41.984375 42.703125 
Q 37.796875 48.390625 30.609375 48.390625 
z
M 30.609375 56 
Q 42.328125 56 49.015625 48.375 
Q 55.71875 40.765625 55.71875 27.296875 
Q 55.71875 13.875 49.015625 6.21875 
Q 42.328125 -1.421875 30.609375 -1.421875 
Q 18.84375 -1.421875 12.171875 6.21875 
Q 5.515625 13.875 5.515625 27.296875 
Q 5.515625 40.765625 12.171875 48.375 
Q 18.84375 56 30.609375 56 
z
" id="DejaVuSans-111"/>
      <path d="M 37.109375 75.984375 
L 37.109375 68.5 
L 28.515625 68.5 
Q 23.6875 68.5 21.796875 66.546875 
Q 19.921875 64.59375 19.921875 59.515625 
L 19.921875 54.6875 
L 34.71875 54.6875 
L 34.71875 47.703125 
L 19.921875 47.703125 
L 19.921875 0 
L 10.890625 0 
L 10.890625 47.703125 
L 2.296875 47.703125 
L 2.296875 54.6875 
L 10.890625 54.6875 
L 10.890625 58.5 
Q 10.890625 67.625 15.140625 71.796875 
Q 19.390625 75.984375 28.609375 75.984375 
z
" id="DejaVuSans-102"/>
      <path d="M 8.5 21.578125 
L 8.5 54.6875 
L 17.484375 54.6875 
L 17.484375 21.921875 
Q 17.484375 14.15625 20.5 10.265625 
Q 23.53125 6.390625 29.59375 6.390625 
Q 36.859375 6.390625 41.078125 11.03125 
Q 45.3125 15.671875 45.3125 23.6875 
L 45.3125 54.6875 
L 54.296875 54.6875 
L 54.296875 0 
L 45.3125 0 
L 45.3125 8.40625 
Q 42.046875 3.421875 37.71875 1 
Q 33.40625 -1.421875 27.6875 -1.421875 
Q 18.265625 -1.421875 13.375 4.4375 
Q 8.5 10.296875 8.5 21.578125 
z
M 31.109375 56 
z
" id="DejaVuSans-117"/>
      <path d="M 52 44.1875 
Q 55.375 50.25 60.0625 53.125 
Q 64.75 56 71.09375 56 
Q 79.640625 56 84.28125 50.015625 
Q 88.921875 44.046875 88.921875 33.015625 
L 88.921875 0 
L 79.890625 0 
L 79.890625 32.71875 
Q 79.890625 40.578125 77.09375 44.375 
Q 74.3125 48.1875 68.609375 48.1875 
Q 61.625 48.1875 57.5625 43.546875 
Q 53.515625 38.921875 53.515625 30.90625 
L 53.515625 0 
L 44.484375 0 
L 44.484375 32.71875 
Q 44.484375 40.625 41.703125 44.40625 
Q 38.921875 48.1875 33.109375 48.1875 
Q 26.21875 48.1875 22.15625 43.53125 
Q 18.109375 38.875 18.109375 30.90625 
L 18.109375 0 
L 9.078125 0 
L 9.078125 54.6875 
L 18.109375 54.6875 
L 18.109375 46.1875 
Q 21.1875 51.21875 25.484375 53.609375 
Q 29.78125 56 35.6875 56 
Q 41.65625 56 45.828125 52.96875 
Q 50 49.953125 52 44.1875 
z
" id="DejaVuSans-109"/>
      <path d="M 9.421875 75.984375 
L 18.40625 75.984375 
L 18.40625 0 
L 9.421875 0 
z
" id="DejaVuSans-108"/>
      <path d="M 9.421875 54.6875 
L 18.40625 54.6875 
L 18.40625 0 
L 9.421875 0 
z
M 9.421875 75.984375 
L 18.40625 75.984375 
L 18.40625 64.59375 
L 9.421875 64.59375 
z
" id="DejaVuSans-105"/>
      <path d="M 2.984375 54.6875 
L 12.5 54.6875 
L 29.59375 8.796875 
L 46.6875 54.6875 
L 56.203125 54.6875 
L 35.6875 0 
L 23.484375 0 
z
" id="DejaVuSans-118"/>
      <path d="M 54.890625 33.015625 
L 54.890625 0 
L 45.90625 0 
L 45.90625 32.71875 
Q 45.90625 40.484375 42.875 44.328125 
Q 39.84375 48.1875 33.796875 48.1875 
Q 26.515625 48.1875 22.3125 43.546875 
Q 18.109375 38.921875 18.109375 30.90625 
L 18.109375 0 
L 9.078125 0 
L 9.078125 75.984375 
L 18.109375 75.984375 
L 18.109375 46.1875 
Q 21.34375 51.125 25.703125 53.5625 
Q 30.078125 56 35.796875 56 
Q 45.21875 56 50.046875 50.171875 
Q 54.890625 44.34375 54.890625 33.015625 
z
" id="DejaVuSans-104"/>
      <path d="M 44.28125 53.078125 
L 44.28125 44.578125 
Q 40.484375 46.53125 36.375 47.5 
Q 32.28125 48.484375 27.875 48.484375 
Q 21.1875 48.484375 17.84375 46.4375 
Q 14.5 44.390625 14.5 40.28125 
Q 14.5 37.15625 16.890625 35.375 
Q 19.28125 33.59375 26.515625 31.984375 
L 29.59375 31.296875 
Q 39.15625 29.25 43.1875 25.515625 
Q 47.21875 21.78125 47.21875 15.09375 
Q 47.21875 7.46875 41.1875 3.015625 
Q 35.15625 -1.421875 24.609375 -1.421875 
Q 20.21875 -1.421875 15.453125 -0.5625 
Q 10.6875 0.296875 5.421875 2 
L 5.421875 11.28125 
Q 10.40625 8.6875 15.234375 7.390625 
Q 20.0625 6.109375 24.8125 6.109375 
Q 31.15625 6.109375 34.5625 8.28125 
Q 37.984375 10.453125 37.984375 14.40625 
Q 37.984375 18.0625 35.515625 20.015625 
Q 33.0625 21.96875 24.703125 23.78125 
L 21.578125 24.515625 
Q 13.234375 26.265625 9.515625 29.90625 
Q 5.8125 33.546875 5.8125 39.890625 
Q 5.8125 47.609375 11.28125 51.796875 
Q 16.75 56 26.8125 56 
Q 31.78125 56 36.171875 55.265625 
Q 40.578125 54.546875 44.28125 53.078125 
z
" id="DejaVuSans-115"/>
     </defs>
     <g transform="translate(14.798438 193.106906)rotate(-90)scale(0.1 -0.1)">
      <use xlink:href="#DejaVuSans-83"/>
      <use x="63.476562" xlink:href="#DejaVuSans-99"/>
      <use x="118.457031" xlink:href="#DejaVuSans-111"/>
      <use x="179.638672" xlink:href="#DejaVuSans-114"/>
      <use x="218.501953" xlink:href="#DejaVuSans-101"/>
      <use x="280.025391" xlink:href="#DejaVuSans-32"/>
      <use x="311.8125" xlink:href="#DejaVuSans-102"/>
      <use x="347.017578" xlink:href="#DejaVuSans-111"/>
      <use x="408.199219" xlink:href="#DejaVuSans-114"/>
      <use x="449.3125" xlink:href="#DejaVuSans-32"/>
      <use x="481.099609" xlink:href="#DejaVuSans-99"/>
      <use x="536.080078" xlink:href="#DejaVuSans-117"/>
      <use x="599.458984" xlink:href="#DejaVuSans-109"/>
      <use x="696.871094" xlink:href="#DejaVuSans-117"/>
      <use x="760.25" xlink:href="#DejaVuSans-108"/>
      <use x="788.033203" xlink:href="#DejaVuSans-97"/>
      <use x="849.3125" xlink:href="#DejaVuSans-116"/>
      <use x="888.521484" xlink:href="#DejaVuSans-105"/>
      <use x="916.304688" xlink:href="#DejaVuSans-118"/>
      <use x="975.484375" xlink:href="#DejaVuSans-101"/>
      <use x="1037.007812" xlink:href="#DejaVuSans-32"/>
      <use x="1068.794922" xlink:href="#DejaVuSans-100"/>
      <use x="1132.271484" xlink:href="#DejaVuSans-101"/>
      <use x="1193.794922" xlink:href="#DejaVuSans-97"/>
      <use x="1255.074219" xlink:href="#DejaVuSans-116"/>
      <use x="1294.283203" xlink:href="#DejaVuSans-104"/>
      <use x="1357.662109" xlink:href="#DejaVuSans-115"/>
     </g>
    </g>
   </g>
   <g id="line2d_27">
    <path clip-path="url(#pfcebdb332c)" d="M 68.143091 95.382062 
L 70.880273 101.89276 
L 73.617456 106.180861 
L 76.354639 104.269905 
L 79.091821 107.238352 
L 81.829004 112.58711 
L 84.566186 112.51919 
L 87.303369 90.468852 
L 90.040552 113.862322 
L 92.777734 105.809742 
L 95.514917 111.329379 
L 98.252099 104.961723 
L 100.989282 92.210571 
L 103.726465 105.772019 
L 106.463647 109.101136 
L 109.20083 120.276682 
L 111.938013 85.23579 
L 114.675195 84.691052 
L 117.412378 82.269521 
L 120.14956 82.142541 
L 122.886743 101.376092 
L 125.623926 93.370429 
L 128.361108 86.241683 
L 131.098291 84.683077 
L 133.835473 82.16157 
L 136.572656 86.688737 
L 139.309839 99.07246 
L 142.047021 132.791982 
L 144.784204 119.506702 
L 147.521386 111.235896 
L 150.258569 114.167998 
L 152.995752 124.9463 
L 155.732934 111.445319 
L 158.470117 108.478566 
L 161.2073 118.035493 
L 163.944482 141.836686 
L 166.681665 140.535636 
L 169.418847 110.881694 
L 172.15603 120.518073 
L 174.893213 127.35644 
L 177.630395 110.96529 
L 180.367578 97.827788 
L 183.10476 99.02947 
L 185.841943 94.945926 
L 188.579126 78.743536 
L 191.316308 71.813022 
L 194.053491 65.97504 
L 196.790673 76.579216 
L 199.527856 64.74856 
L 202.265039 85.925841 
L 205.002221 71.235276 
L 207.739404 81.571617 
L 210.476586 79.089679 
L 213.213769 66.764745 
L 215.950952 69.668904 
L 218.688134 73.797595 
L 221.425317 65.935914 
L 224.1625 59.700945 
L 226.899682 72.456952 
L 229.636865 52.695931 
L 232.374047 45.441588 
L 235.11123 44.642965 
L 237.848413 48.632318 
L 240.585595 53.487789 
L 243.322778 73.079956 
L 246.05996 94.84354 
L 248.797143 74.225498 
L 251.534326 85.824571 
L 254.271508 91.594016 
L 257.008691 91.482317 
L 259.745873 105.125314 
" style="fill:none;stroke:#000080;stroke-linecap:square;stroke-width:1.5;"/>
    <defs>
     <path d="M 0 3 
C 0.795609 3 1.55874 2.683901 2.12132 2.12132 
C 2.683901 1.55874 3 0.795609 3 0 
C 3 -0.795609 2.683901 -1.55874 2.12132 -2.12132 
C 1.55874 -2.683901 0.795609 -3 0 -3 
C -0.795609 -3 -1.55874 -2.683901 -2.12132 -2.12132 
C -2.683901 -1.55874 -3 -0.795609 -3 0 
C -3 0.795609 -2.683901 1.55874 -2.12132 2.12132 
C -1.55874 2.683901 -0.795609 3 0 3 
z
" id="m6a97ee2bf5" style="stroke:#000080;"/>
    </defs>
    <g clip-path="url(#pfcebdb332c)">
     <use style="fill:#000080;stroke:#000080;" x="68.143091" xlink:href="#m6a97ee2bf5" y="95.382062"/>
     <use style="fill:#000080;stroke:#000080;" x="70.880273" xlink:href="#m6a97ee2bf5" y="101.89276"/>
     <use style="fill:#000080;stroke:#000080;" x="73.617456" xlink:href="#m6a97ee2bf5" y="106.180861"/>
     <use style="fill:#000080;stroke:#000080;" x="76.354639" xlink:href="#m6a97ee2bf5" y="104.269905"/>
     <use style="fill:#000080;stroke:#000080;" x="79.091821" xlink:href="#m6a97ee2bf5" y="107.238352"/>
     <use style="fill:#000080;stroke:#000080;" x="81.829004" xlink:href="#m6a97ee2bf5" y="112.58711"/>
     <use style="fill:#000080;stroke:#000080;" x="84.566186" xlink:href="#m6a97ee2bf5" y="112.51919"/>
     <use style="fill:#000080;stroke:#000080;" x="87.303369" xlink:href="#m6a97ee2bf5" y="90.468852"/>
     <use style="fill:#000080;stroke:#000080;" x="90.040552" xlink:href="#m6a97ee2bf5" y="113.862322"/>
     <use style="fill:#000080;stroke:#000080;" x="92.777734" xlink:href="#m6a97ee2bf5" y="105.809742"/>
     <use style="fill:#000080;stroke:#000080;" x="95.514917" xlink:href="#m6a97ee2bf5" y="111.329379"/>
     <use style="fill:#000080;stroke:#000080;" x="98.252099" xlink:href="#m6a97ee2bf5" y="104.961723"/>
     <use style="fill:#000080;stroke:#000080;" x="100.989282" xlink:href="#m6a97ee2bf5" y="92.210571"/>
     <use style="fill:#000080;stroke:#000080;" x="103.726465" xlink:href="#m6a97ee2bf5" y="105.772019"/>
     <use style="fill:#000080;stroke:#000080;" x="106.463647" xlink:href="#m6a97ee2bf5" y="109.101136"/>
     <use style="fill:#000080;stroke:#000080;" x="109.20083" xlink:href="#m6a97ee2bf5" y="120.276682"/>
     <use style="fill:#000080;stroke:#000080;" x="111.938013" xlink:href="#m6a97ee2bf5" y="85.23579"/>
     <use style="fill:#000080;stroke:#000080;" x="114.675195" xlink:href="#m6a97ee2bf5" y="84.691052"/>
     <use style="fill:#000080;stroke:#000080;" x="117.412378" xlink:href="#m6a97ee2bf5" y="82.269521"/>
     <use style="fill:#000080;stroke:#000080;" x="120.14956" xlink:href="#m6a97ee2bf5" y="82.142541"/>
     <use style="fill:#000080;stroke:#000080;" x="122.886743" xlink:href="#m6a97ee2bf5" y="101.376092"/>
     <use style="fill:#000080;stroke:#000080;" x="125.623926" xlink:href="#m6a97ee2bf5" y="93.370429"/>
     <use style="fill:#000080;stroke:#000080;" x="128.361108" xlink:href="#m6a97ee2bf5" y="86.241683"/>
     <use style="fill:#000080;stroke:#000080;" x="131.098291" xlink:href="#m6a97ee2bf5" y="84.683077"/>
     <use style="fill:#000080;stroke:#000080;" x="133.835473" xlink:href="#m6a97ee2bf5" y="82.16157"/>
     <use style="fill:#000080;stroke:#000080;" x="136.572656" xlink:href="#m6a97ee2bf5" y="86.688737"/>
     <use style="fill:#000080;stroke:#000080;" x="139.309839" xlink:href="#m6a97ee2bf5" y="99.07246"/>
     <use style="fill:#000080;stroke:#000080;" x="142.047021" xlink:href="#m6a97ee2bf5" y="132.791982"/>
     <use style="fill:#000080;stroke:#000080;" x="144.784204" xlink:href="#m6a97ee2bf5" y="119.506702"/>
     <use style="fill:#000080;stroke:#000080;" x="147.521386" xlink:href="#m6a97ee2bf5" y="111.235896"/>
     <use style="fill:#000080;stroke:#000080;" x="150.258569" xlink:href="#m6a97ee2bf5" y="114.167998"/>
     <use style="fill:#000080;stroke:#000080;" x="152.995752" xlink:href="#m6a97ee2bf5" y="124.9463"/>
     <use style="fill:#000080;stroke:#000080;" x="155.732934" xlink:href="#m6a97ee2bf5" y="111.445319"/>
     <use style="fill:#000080;stroke:#000080;" x="158.470117" xlink:href="#m6a97ee2bf5" y="108.478566"/>
     <use style="fill:#000080;stroke:#000080;" x="161.2073" xlink:href="#m6a97ee2bf5" y="118.035493"/>
     <use style="fill:#000080;stroke:#000080;" x="163.944482" xlink:href="#m6a97ee2bf5" y="141.836686"/>
     <use style="fill:#000080;stroke:#000080;" x="166.681665" xlink:href="#m6a97ee2bf5" y="140.535636"/>
     <use style="fill:#000080;stroke:#000080;" x="169.418847" xlink:href="#m6a97ee2bf5" y="110.881694"/>
     <use style="fill:#000080;stroke:#000080;" x="172.15603" xlink:href="#m6a97ee2bf5" y="120.518073"/>
     <use style="fill:#000080;stroke:#000080;" x="174.893213" xlink:href="#m6a97ee2bf5" y="127.35644"/>
     <use style="fill:#000080;stroke:#000080;" x="177.630395" xlink:href="#m6a97ee2bf5" y="110.96529"/>
     <use style="fill:#000080;stroke:#000080;" x="180.367578" xlink:href="#m6a97ee2bf5" y="97.827788"/>
     <use style="fill:#000080;stroke:#000080;" x="183.10476" xlink:href="#m6a97ee2bf5" y="99.02947"/>
     <use style="fill:#000080;stroke:#000080;" x="185.841943" xlink:href="#m6a97ee2bf5" y="94.945926"/>
     <use style="fill:#000080;stroke:#000080;" x="188.579126" xlink:href="#m6a97ee2bf5" y="78.743536"/>
     <use style="fill:#000080;stroke:#000080;" x="191.316308" xlink:href="#m6a97ee2bf5" y="71.813022"/>
     <use style="fill:#000080;stroke:#000080;" x="194.053491" xlink:href="#m6a97ee2bf5" y="65.97504"/>
     <use style="fill:#000080;stroke:#000080;" x="196.790673" xlink:href="#m6a97ee2bf5" y="76.579216"/>
     <use style="fill:#000080;stroke:#000080;" x="199.527856" xlink:href="#m6a97ee2bf5" y="64.74856"/>
     <use style="fill:#000080;stroke:#000080;" x="202.265039" xlink:href="#m6a97ee2bf5" y="85.925841"/>
     <use style="fill:#000080;stroke:#000080;" x="205.002221" xlink:href="#m6a97ee2bf5" y="71.235276"/>
     <use style="fill:#000080;stroke:#000080;" x="207.739404" xlink:href="#m6a97ee2bf5" y="81.571617"/>
     <use style="fill:#000080;stroke:#000080;" x="210.476586" xlink:href="#m6a97ee2bf5" y="79.089679"/>
     <use style="fill:#000080;stroke:#000080;" x="213.213769" xlink:href="#m6a97ee2bf5" y="66.764745"/>
     <use style="fill:#000080;stroke:#000080;" x="215.950952" xlink:href="#m6a97ee2bf5" y="69.668904"/>
     <use style="fill:#000080;stroke:#000080;" x="218.688134" xlink:href="#m6a97ee2bf5" y="73.797595"/>
     <use style="fill:#000080;stroke:#000080;" x="221.425317" xlink:href="#m6a97ee2bf5" y="65.935914"/>
     <use style="fill:#000080;stroke:#000080;" x="224.1625" xlink:href="#m6a97ee2bf5" y="59.700945"/>
     <use style="fill:#000080;stroke:#000080;" x="226.899682" xlink:href="#m6a97ee2bf5" y="72.456952"/>
     <use style="fill:#000080;stroke:#000080;" x="229.636865" xlink:href="#m6a97ee2bf5" y="52.695931"/>
     <use style="fill:#000080;stroke:#000080;" x="232.374047" xlink:href="#m6a97ee2bf5" y="45.441588"/>
     <use style="fill:#000080;stroke:#000080;" x="235.11123" xlink:href="#m6a97ee2bf5" y="44.642965"/>
     <use style="fill:#000080;stroke:#000080;" x="237.848413" xlink:href="#m6a97ee2bf5" y="48.632318"/>
     <use style="fill:#000080;stroke:#000080;" x="240.585595" xlink:href="#m6a97ee2bf5" y="53.487789"/>
     <use style="fill:#000080;stroke:#000080;" x="243.322778" xlink:href="#m6a97ee2bf5" y="73.079956"/>
     <use style="fill:#000080;stroke:#000080;" x="246.05996" xlink:href="#m6a97ee2bf5" y="94.84354"/>
     <use style="fill:#000080;stroke:#000080;" x="248.797143" xlink:href="#m6a97ee2bf5" y="74.225498"/>
     <use style="fill:#000080;stroke:#000080;" x="251.534326" xlink:href="#m6a97ee2bf5" y="85.824571"/>
     <use style="fill:#000080;stroke:#000080;" x="254.271508" xlink:href="#m6a97ee2bf5" y="91.594016"/>
     <use style="fill:#000080;stroke:#000080;" x="257.008691" xlink:href="#m6a97ee2bf5" y="91.482317"/>
     <use style="fill:#000080;stroke:#000080;" x="259.745873" xlink:href="#m6a97ee2bf5" y="105.125314"/>
    </g>
   </g>
   <g id="line2d_28">
    <path clip-path="url(#pfcebdb332c)" d="M 62.668726 142.354653 
L 65.405908 126.635214 
L 68.143091 83.09691 
L 70.880273 107.019213 
L 73.617456 104.038715 
L 76.354639 105.415804 
L 79.091821 106.556357 
L 81.829004 93.703764 
L 84.566186 93.313708 
L 87.303369 108.46226 
L 90.040552 128.481722 
L 92.777734 98.665063 
L 95.514917 119.858331 
L 98.252099 118.908155 
L 100.989282 105.792471 
L 103.726465 108.245385 
L 106.463647 99.070726 
L 109.20083 93.796465 
L 111.938013 95.335114 
L 114.675195 97.378013 
L 117.412378 87.819866 
L 120.14956 94.03891 
L 122.886743 88.415106 
L 125.623926 85.486968 
L 128.361108 90.380338 
L 131.098291 84.638195 
L 133.835473 87.00899 
L 136.572656 92.991306 
L 139.309839 94.899206 
L 142.047021 97.033805 
L 144.784204 122.737524 
L 147.521386 119.774561 
L 150.258569 136.897316 
L 152.995752 135.839188 
L 155.732934 122.727735 
L 158.470117 99.836104 
L 161.2073 114.939042 
L 163.944482 130.287441 
L 166.681665 154.34558 
L 169.418847 114.33584 
L 172.15603 132.315643 
L 174.893213 138.483238 
L 177.630395 116.970595 
L 180.367578 115.187564 
L 183.10476 124.045386 
L 185.841943 117.948028 
L 188.579126 82.162015 
L 191.316308 60.205299 
L 194.053491 56.816695 
L 196.790673 71.624194 
L 199.527856 75.473531 
L 202.265039 79.941749 
L 205.002221 77.536514 
L 207.739404 79.421597 
L 210.476586 72.073811 
L 213.213769 76.925503 
L 215.950952 72.443588 
L 218.688134 86.384073 
L 221.425317 90.693184 
L 224.1625 63.29074 
L 226.899682 77.755085 
L 229.636865 60.267724 
L 232.374047 68.833391 
L 235.11123 88.315498 
L 237.848413 70.668337 
L 240.585595 73.053136 
L 243.322778 76.919009 
L 246.05996 95.222624 
L 248.797143 87.337846 
L 251.534326 94.886874 
L 254.271508 126.474896 
L 257.008691 149.148796 
L 259.745873 105.246005 
" style="fill:none;stroke:#00d4ff;stroke-linecap:square;stroke-width:1.5;"/>
    <defs>
     <path d="M 0 3 
C 0.795609 3 1.55874 2.683901 2.12132 2.12132 
C 2.683901 1.55874 3 0.795609 3 0 
C 3 -0.795609 2.683901 -1.55874 2.12132 -2.12132 
C 1.55874 -2.683901 0.795609 -3 0 -3 
C -0.795609 -3 -1.55874 -2.683901 -2.12132 -2.12132 
C -2.683901 -1.55874 -3 -0.795609 -3 0 
C -3 0.795609 -2.683901 1.55874 -2.12132 2.12132 
C -1.55874 2.683901 -0.795609 3 0 3 
z
" id="m859700a994" style="stroke:#00d4ff;"/>
    </defs>
    <g clip-path="url(#pfcebdb332c)">
     <use style="fill:#00d4ff;stroke:#00d4ff;" x="62.668726" xlink:href="#m859700a994" y="142.354653"/>
     <use style="fill:#00d4ff;stroke:#00d4ff;" x="65.405908" xlink:href="#m859700a994" y="126.635214"/>
     <use style="fill:#00d4ff;stroke:#00d4ff;" x="68.143091" xlink:href="#m859700a994" y="83.09691"/>
     <use style="fill:#00d4ff;stroke:#00d4ff;" x="70.880273" xlink:href="#m859700a994" y="107.019213"/>
     <use style="fill:#00d4ff;stroke:#00d4ff;" x="73.617456" xlink:href="#m859700a994" y="104.038715"/>
     <use style="fill:#00d4ff;stroke:#00d4ff;" x="76.354639" xlink:href="#m859700a994" y="105.415804"/>
     <use style="fill:#00d4ff;stroke:#00d4ff;" x="79.091821" xlink:href="#m859700a994" y="106.556357"/>
     <use style="fill:#00d4ff;stroke:#00d4ff;" x="81.829004" xlink:href="#m859700a994" y="93.703764"/>
     <use style="fill:#00d4ff;stroke:#00d4ff;" x="84.566186" xlink:href="#m859700a994" y="93.313708"/>
     <use style="fill:#00d4ff;stroke:#00d4ff;" x="87.303369" xlink:href="#m859700a994" y="108.46226"/>
     <use style="fill:#00d4ff;stroke:#00d4ff;" x="90.040552" xlink:href="#m859700a994" y="128.481722"/>
     <use style="fill:#00d4ff;stroke:#00d4ff;" x="92.777734" xlink:href="#m859700a994" y="98.665063"/>
     <use style="fill:#00d4ff;stroke:#00d4ff;" x="95.514917" xlink:href="#m859700a994" y="119.858331"/>
     <use style="fill:#00d4ff;stroke:#00d4ff;" x="98.252099" xlink:href="#m859700a994" y="118.908155"/>
     <use style="fill:#00d4ff;stroke:#00d4ff;" x="100.989282" xlink:href="#m859700a994" y="105.792471"/>
     <use style="fill:#00d4ff;stroke:#00d4ff;" x="103.726465" xlink:href="#m859700a994" y="108.245385"/>
     <use style="fill:#00d4ff;stroke:#00d4ff;" x="106.463647" xlink:href="#m859700a994" y="99.070726"/>
     <use style="fill:#00d4ff;stroke:#00d4ff;" x="109.20083" xlink:href="#m859700a994" y="93.796465"/>
     <use style="fill:#00d4ff;stroke:#00d4ff;" x="111.938013" xlink:href="#m859700a994" y="95.335114"/>
     <use style="fill:#00d4ff;stroke:#00d4ff;" x="114.675195" xlink:href="#m859700a994" y="97.378013"/>
     <use style="fill:#00d4ff;stroke:#00d4ff;" x="117.412378" xlink:href="#m859700a994" y="87.819866"/>
     <use style="fill:#00d4ff;stroke:#00d4ff;" x="120.14956" xlink:href="#m859700a994" y="94.03891"/>
     <use style="fill:#00d4ff;stroke:#00d4ff;" x="122.886743" xlink:href="#m859700a994" y="88.415106"/>
     <use style="fill:#00d4ff;stroke:#00d4ff;" x="125.623926" xlink:href="#m859700a994" y="85.486968"/>
     <use style="fill:#00d4ff;stroke:#00d4ff;" x="128.361108" xlink:href="#m859700a994" y="90.380338"/>
     <use style="fill:#00d4ff;stroke:#00d4ff;" x="131.098291" xlink:href="#m859700a994" y="84.638195"/>
     <use style="fill:#00d4ff;stroke:#00d4ff;" x="133.835473" xlink:href="#m859700a994" y="87.00899"/>
     <use style="fill:#00d4ff;stroke:#00d4ff;" x="136.572656" xlink:href="#m859700a994" y="92.991306"/>
     <use style="fill:#00d4ff;stroke:#00d4ff;" x="139.309839" xlink:href="#m859700a994" y="94.899206"/>
     <use style="fill:#00d4ff;stroke:#00d4ff;" x="142.047021" xlink:href="#m859700a994" y="97.033805"/>
     <use style="fill:#00d4ff;stroke:#00d4ff;" x="144.784204" xlink:href="#m859700a994" y="122.737524"/>
     <use style="fill:#00d4ff;stroke:#00d4ff;" x="147.521386" xlink:href="#m859700a994" y="119.774561"/>
     <use style="fill:#00d4ff;stroke:#00d4ff;" x="150.258569" xlink:href="#m859700a994" y="136.897316"/>
     <use style="fill:#00d4ff;stroke:#00d4ff;" x="152.995752" xlink:href="#m859700a994" y="135.839188"/>
     <use style="fill:#00d4ff;stroke:#00d4ff;" x="155.732934" xlink:href="#m859700a994" y="122.727735"/>
     <use style="fill:#00d4ff;stroke:#00d4ff;" x="158.470117" xlink:href="#m859700a994" y="99.836104"/>
     <use style="fill:#00d4ff;stroke:#00d4ff;" x="161.2073" xlink:href="#m859700a994" y="114.939042"/>
     <use style="fill:#00d4ff;stroke:#00d4ff;" x="163.944482" xlink:href="#m859700a994" y="130.287441"/>
     <use style="fill:#00d4ff;stroke:#00d4ff;" x="166.681665" xlink:href="#m859700a994" y="154.34558"/>
     <use style="fill:#00d4ff;stroke:#00d4ff;" x="169.418847" xlink:href="#m859700a994" y="114.33584"/>
     <use style="fill:#00d4ff;stroke:#00d4ff;" x="172.15603" xlink:href="#m859700a994" y="132.315643"/>
     <use style="fill:#00d4ff;stroke:#00d4ff;" x="174.893213" xlink:href="#m859700a994" y="138.483238"/>
     <use style="fill:#00d4ff;stroke:#00d4ff;" x="177.630395" xlink:href="#m859700a994" y="116.970595"/>
     <use style="fill:#00d4ff;stroke:#00d4ff;" x="180.367578" xlink:href="#m859700a994" y="115.187564"/>
     <use style="fill:#00d4ff;stroke:#00d4ff;" x="183.10476" xlink:href="#m859700a994" y="124.045386"/>
     <use style="fill:#00d4ff;stroke:#00d4ff;" x="185.841943" xlink:href="#m859700a994" y="117.948028"/>
     <use style="fill:#00d4ff;stroke:#00d4ff;" x="188.579126" xlink:href="#m859700a994" y="82.162015"/>
     <use style="fill:#00d4ff;stroke:#00d4ff;" x="191.316308" xlink:href="#m859700a994" y="60.205299"/>
     <use style="fill:#00d4ff;stroke:#00d4ff;" x="194.053491" xlink:href="#m859700a994" y="56.816695"/>
     <use style="fill:#00d4ff;stroke:#00d4ff;" x="196.790673" xlink:href="#m859700a994" y="71.624194"/>
     <use style="fill:#00d4ff;stroke:#00d4ff;" x="199.527856" xlink:href="#m859700a994" y="75.473531"/>
     <use style="fill:#00d4ff;stroke:#00d4ff;" x="202.265039" xlink:href="#m859700a994" y="79.941749"/>
     <use style="fill:#00d4ff;stroke:#00d4ff;" x="205.002221" xlink:href="#m859700a994" y="77.536514"/>
     <use style="fill:#00d4ff;stroke:#00d4ff;" x="207.739404" xlink:href="#m859700a994" y="79.421597"/>
     <use style="fill:#00d4ff;stroke:#00d4ff;" x="210.476586" xlink:href="#m859700a994" y="72.073811"/>
     <use style="fill:#00d4ff;stroke:#00d4ff;" x="213.213769" xlink:href="#m859700a994" y="76.925503"/>
     <use style="fill:#00d4ff;stroke:#00d4ff;" x="215.950952" xlink:href="#m859700a994" y="72.443588"/>
     <use style="fill:#00d4ff;stroke:#00d4ff;" x="218.688134" xlink:href="#m859700a994" y="86.384073"/>
     <use style="fill:#00d4ff;stroke:#00d4ff;" x="221.425317" xlink:href="#m859700a994" y="90.693184"/>
     <use style="fill:#00d4ff;stroke:#00d4ff;" x="224.1625" xlink:href="#m859700a994" y="63.29074"/>
     <use style="fill:#00d4ff;stroke:#00d4ff;" x="226.899682" xlink:href="#m859700a994" y="77.755085"/>
     <use style="fill:#00d4ff;stroke:#00d4ff;" x="229.636865" xlink:href="#m859700a994" y="60.267724"/>
     <use style="fill:#00d4ff;stroke:#00d4ff;" x="232.374047" xlink:href="#m859700a994" y="68.833391"/>
     <use style="fill:#00d4ff;stroke:#00d4ff;" x="235.11123" xlink:href="#m859700a994" y="88.315498"/>
     <use style="fill:#00d4ff;stroke:#00d4ff;" x="237.848413" xlink:href="#m859700a994" y="70.668337"/>
     <use style="fill:#00d4ff;stroke:#00d4ff;" x="240.585595" xlink:href="#m859700a994" y="73.053136"/>
     <use style="fill:#00d4ff;stroke:#00d4ff;" x="243.322778" xlink:href="#m859700a994" y="76.919009"/>
     <use style="fill:#00d4ff;stroke:#00d4ff;" x="246.05996" xlink:href="#m859700a994" y="95.222624"/>
     <use style="fill:#00d4ff;stroke:#00d4ff;" x="248.797143" xlink:href="#m859700a994" y="87.337846"/>
     <use style="fill:#00d4ff;stroke:#00d4ff;" x="251.534326" xlink:href="#m859700a994" y="94.886874"/>
     <use style="fill:#00d4ff;stroke:#00d4ff;" x="254.271508" xlink:href="#m859700a994" y="126.474896"/>
     <use style="fill:#00d4ff;stroke:#00d4ff;" x="257.008691" xlink:href="#m859700a994" y="149.148796"/>
     <use style="fill:#00d4ff;stroke:#00d4ff;" x="259.745873" xlink:href="#m859700a994" y="105.246005"/>
    </g>
   </g>
   <g id="line2d_29">
    <path clip-path="url(#pfcebdb332c)" d="M 62.668726 139.263059 
L 65.405908 130.765415 
L 68.143091 133.029491 
L 70.880273 123.998771 
L 73.617456 110.355296 
L 76.354639 108.243902 
L 79.091821 113.508201 
L 81.829004 101.278308 
L 84.566186 105.672211 
L 87.303369 90.827024 
L 90.040552 102.463614 
L 92.777734 103.827104 
L 95.514917 128.265496 
L 98.252099 111.32252 
L 100.989282 101.090533 
L 103.726465 106.633932 
L 106.463647 87.711215 
L 109.20083 96.857279 
L 111.938013 79.488515 
L 114.675195 91.875348 
L 117.412378 77.384694 
L 120.14956 91.974529 
L 122.886743 79.186635 
L 125.623926 83.348506 
L 128.361108 87.220122 
L 131.098291 96.900745 
L 133.835473 102.457728 
L 136.572656 114.673296 
L 139.309839 123.866836 
L 142.047021 119.563016 
L 144.784204 131.904408 
L 147.521386 129.855023 
L 150.258569 112.320571 
L 152.995752 122.347496 
L 155.732934 117.181117 
L 158.470117 101.943084 
L 161.2073 107.509033 
L 163.944482 130.749632 
L 166.681665 151.846404 
L 169.418847 110.025117 
L 172.15603 110.673167 
L 174.893213 93.154129 
L 177.630395 104.214954 
L 180.367578 102.150909 
L 183.10476 102.30464 
L 185.841943 93.672091 
L 188.579126 96.395182 
L 191.316308 97.662703 
L 194.053491 87.998051 
L 196.790673 92.939663 
L 199.527856 90.293956 
L 202.265039 80.897488 
L 205.002221 99.782005 
L 207.739404 74.983839 
L 210.476586 72.236767 
L 213.213769 75.199349 
L 215.950952 66.090963 
L 218.688134 69.364162 
L 221.425317 61.19295 
L 224.1625 62.041009 
L 226.899682 61.551257 
L 229.636865 65.47965 
L 232.374047 56.999234 
L 235.11123 59.858151 
L 237.848413 67.247412 
L 240.585595 74.684158 
L 243.322778 79.492869 
L 246.05996 103.548515 
L 248.797143 102.775923 
L 251.534326 97.503822 
L 254.271508 98.323979 
L 257.008691 106.472801 
L 259.745873 111.720904 
" style="fill:none;stroke:#ffe600;stroke-linecap:square;stroke-width:1.5;"/>
    <defs>
     <path d="M 0 3 
C 0.795609 3 1.55874 2.683901 2.12132 2.12132 
C 2.683901 1.55874 3 0.795609 3 0 
C 3 -0.795609 2.683901 -1.55874 2.12132 -2.12132 
C 1.55874 -2.683901 0.795609 -3 0 -3 
C -0.795609 -3 -1.55874 -2.683901 -2.12132 -2.12132 
C -2.683901 -1.55874 -3 -0.795609 -3 0 
C -3 0.795609 -2.683901 1.55874 -2.12132 2.12132 
C -1.55874 2.683901 -0.795609 3 0 3 
z
" id="mc721e81e4a" style="stroke:#ffe600;"/>
    </defs>
    <g clip-path="url(#pfcebdb332c)">
     <use style="fill:#ffe600;stroke:#ffe600;" x="62.668726" xlink:href="#mc721e81e4a" y="139.263059"/>
     <use style="fill:#ffe600;stroke:#ffe600;" x="65.405908" xlink:href="#mc721e81e4a" y="130.765415"/>
     <use style="fill:#ffe600;stroke:#ffe600;" x="68.143091" xlink:href="#mc721e81e4a" y="133.029491"/>
     <use style="fill:#ffe600;stroke:#ffe600;" x="70.880273" xlink:href="#mc721e81e4a" y="123.998771"/>
     <use style="fill:#ffe600;stroke:#ffe600;" x="73.617456" xlink:href="#mc721e81e4a" y="110.355296"/>
     <use style="fill:#ffe600;stroke:#ffe600;" x="76.354639" xlink:href="#mc721e81e4a" y="108.243902"/>
     <use style="fill:#ffe600;stroke:#ffe600;" x="79.091821" xlink:href="#mc721e81e4a" y="113.508201"/>
     <use style="fill:#ffe600;stroke:#ffe600;" x="81.829004" xlink:href="#mc721e81e4a" y="101.278308"/>
     <use style="fill:#ffe600;stroke:#ffe600;" x="84.566186" xlink:href="#mc721e81e4a" y="105.672211"/>
     <use style="fill:#ffe600;stroke:#ffe600;" x="87.303369" xlink:href="#mc721e81e4a" y="90.827024"/>
     <use style="fill:#ffe600;stroke:#ffe600;" x="90.040552" xlink:href="#mc721e81e4a" y="102.463614"/>
     <use style="fill:#ffe600;stroke:#ffe600;" x="92.777734" xlink:href="#mc721e81e4a" y="103.827104"/>
     <use style="fill:#ffe600;stroke:#ffe600;" x="95.514917" xlink:href="#mc721e81e4a" y="128.265496"/>
     <use style="fill:#ffe600;stroke:#ffe600;" x="98.252099" xlink:href="#mc721e81e4a" y="111.32252"/>
     <use style="fill:#ffe600;stroke:#ffe600;" x="100.989282" xlink:href="#mc721e81e4a" y="101.090533"/>
     <use style="fill:#ffe600;stroke:#ffe600;" x="103.726465" xlink:href="#mc721e81e4a" y="106.633932"/>
     <use style="fill:#ffe600;stroke:#ffe600;" x="106.463647" xlink:href="#mc721e81e4a" y="87.711215"/>
     <use style="fill:#ffe600;stroke:#ffe600;" x="109.20083" xlink:href="#mc721e81e4a" y="96.857279"/>
     <use style="fill:#ffe600;stroke:#ffe600;" x="111.938013" xlink:href="#mc721e81e4a" y="79.488515"/>
     <use style="fill:#ffe600;stroke:#ffe600;" x="114.675195" xlink:href="#mc721e81e4a" y="91.875348"/>
     <use style="fill:#ffe600;stroke:#ffe600;" x="117.412378" xlink:href="#mc721e81e4a" y="77.384694"/>
     <use style="fill:#ffe600;stroke:#ffe600;" x="120.14956" xlink:href="#mc721e81e4a" y="91.974529"/>
     <use style="fill:#ffe600;stroke:#ffe600;" x="122.886743" xlink:href="#mc721e81e4a" y="79.186635"/>
     <use style="fill:#ffe600;stroke:#ffe600;" x="125.623926" xlink:href="#mc721e81e4a" y="83.348506"/>
     <use style="fill:#ffe600;stroke:#ffe600;" x="128.361108" xlink:href="#mc721e81e4a" y="87.220122"/>
     <use style="fill:#ffe600;stroke:#ffe600;" x="131.098291" xlink:href="#mc721e81e4a" y="96.900745"/>
     <use style="fill:#ffe600;stroke:#ffe600;" x="133.835473" xlink:href="#mc721e81e4a" y="102.457728"/>
     <use style="fill:#ffe600;stroke:#ffe600;" x="136.572656" xlink:href="#mc721e81e4a" y="114.673296"/>
     <use style="fill:#ffe600;stroke:#ffe600;" x="139.309839" xlink:href="#mc721e81e4a" y="123.866836"/>
     <use style="fill:#ffe600;stroke:#ffe600;" x="142.047021" xlink:href="#mc721e81e4a" y="119.563016"/>
     <use style="fill:#ffe600;stroke:#ffe600;" x="144.784204" xlink:href="#mc721e81e4a" y="131.904408"/>
     <use style="fill:#ffe600;stroke:#ffe600;" x="147.521386" xlink:href="#mc721e81e4a" y="129.855023"/>
     <use style="fill:#ffe600;stroke:#ffe600;" x="150.258569" xlink:href="#mc721e81e4a" y="112.320571"/>
     <use style="fill:#ffe600;stroke:#ffe600;" x="152.995752" xlink:href="#mc721e81e4a" y="122.347496"/>
     <use style="fill:#ffe600;stroke:#ffe600;" x="155.732934" xlink:href="#mc721e81e4a" y="117.181117"/>
     <use style="fill:#ffe600;stroke:#ffe600;" x="158.470117" xlink:href="#mc721e81e4a" y="101.943084"/>
     <use style="fill:#ffe600;stroke:#ffe600;" x="161.2073" xlink:href="#mc721e81e4a" y="107.509033"/>
     <use style="fill:#ffe600;stroke:#ffe600;" x="163.944482" xlink:href="#mc721e81e4a" y="130.749632"/>
     <use style="fill:#ffe600;stroke:#ffe600;" x="166.681665" xlink:href="#mc721e81e4a" y="151.846404"/>
     <use style="fill:#ffe600;stroke:#ffe600;" x="169.418847" xlink:href="#mc721e81e4a" y="110.025117"/>
     <use style="fill:#ffe600;stroke:#ffe600;" x="172.15603" xlink:href="#mc721e81e4a" y="110.673167"/>
     <use style="fill:#ffe600;stroke:#ffe600;" x="174.893213" xlink:href="#mc721e81e4a" y="93.154129"/>
     <use style="fill:#ffe600;stroke:#ffe600;" x="177.630395" xlink:href="#mc721e81e4a" y="104.214954"/>
     <use style="fill:#ffe600;stroke:#ffe600;" x="180.367578" xlink:href="#mc721e81e4a" y="102.150909"/>
     <use style="fill:#ffe600;stroke:#ffe600;" x="183.10476" xlink:href="#mc721e81e4a" y="102.30464"/>
     <use style="fill:#ffe600;stroke:#ffe600;" x="185.841943" xlink:href="#mc721e81e4a" y="93.672091"/>
     <use style="fill:#ffe600;stroke:#ffe600;" x="188.579126" xlink:href="#mc721e81e4a" y="96.395182"/>
     <use style="fill:#ffe600;stroke:#ffe600;" x="191.316308" xlink:href="#mc721e81e4a" y="97.662703"/>
     <use style="fill:#ffe600;stroke:#ffe600;" x="194.053491" xlink:href="#mc721e81e4a" y="87.998051"/>
     <use style="fill:#ffe600;stroke:#ffe600;" x="196.790673" xlink:href="#mc721e81e4a" y="92.939663"/>
     <use style="fill:#ffe600;stroke:#ffe600;" x="199.527856" xlink:href="#mc721e81e4a" y="90.293956"/>
     <use style="fill:#ffe600;stroke:#ffe600;" x="202.265039" xlink:href="#mc721e81e4a" y="80.897488"/>
     <use style="fill:#ffe600;stroke:#ffe600;" x="205.002221" xlink:href="#mc721e81e4a" y="99.782005"/>
     <use style="fill:#ffe600;stroke:#ffe600;" x="207.739404" xlink:href="#mc721e81e4a" y="74.983839"/>
     <use style="fill:#ffe600;stroke:#ffe600;" x="210.476586" xlink:href="#mc721e81e4a" y="72.236767"/>
     <use style="fill:#ffe600;stroke:#ffe600;" x="213.213769" xlink:href="#mc721e81e4a" y="75.199349"/>
     <use style="fill:#ffe600;stroke:#ffe600;" x="215.950952" xlink:href="#mc721e81e4a" y="66.090963"/>
     <use style="fill:#ffe600;stroke:#ffe600;" x="218.688134" xlink:href="#mc721e81e4a" y="69.364162"/>
     <use style="fill:#ffe600;stroke:#ffe600;" x="221.425317" xlink:href="#mc721e81e4a" y="61.19295"/>
     <use style="fill:#ffe600;stroke:#ffe600;" x="224.1625" xlink:href="#mc721e81e4a" y="62.041009"/>
     <use style="fill:#ffe600;stroke:#ffe600;" x="226.899682" xlink:href="#mc721e81e4a" y="61.551257"/>
     <use style="fill:#ffe600;stroke:#ffe600;" x="229.636865" xlink:href="#mc721e81e4a" y="65.47965"/>
     <use style="fill:#ffe600;stroke:#ffe600;" x="232.374047" xlink:href="#mc721e81e4a" y="56.999234"/>
     <use style="fill:#ffe600;stroke:#ffe600;" x="235.11123" xlink:href="#mc721e81e4a" y="59.858151"/>
     <use style="fill:#ffe600;stroke:#ffe600;" x="237.848413" xlink:href="#mc721e81e4a" y="67.247412"/>
     <use style="fill:#ffe600;stroke:#ffe600;" x="240.585595" xlink:href="#mc721e81e4a" y="74.684158"/>
     <use style="fill:#ffe600;stroke:#ffe600;" x="243.322778" xlink:href="#mc721e81e4a" y="79.492869"/>
     <use style="fill:#ffe600;stroke:#ffe600;" x="246.05996" xlink:href="#mc721e81e4a" y="103.548515"/>
     <use style="fill:#ffe600;stroke:#ffe600;" x="248.797143" xlink:href="#mc721e81e4a" y="102.775923"/>
     <use style="fill:#ffe600;stroke:#ffe600;" x="251.534326" xlink:href="#mc721e81e4a" y="97.503822"/>
     <use style="fill:#ffe600;stroke:#ffe600;" x="254.271508" xlink:href="#mc721e81e4a" y="98.323979"/>
     <use style="fill:#ffe600;stroke:#ffe600;" x="257.008691" xlink:href="#mc721e81e4a" y="106.472801"/>
     <use style="fill:#ffe600;stroke:#ffe600;" x="259.745873" xlink:href="#mc721e81e4a" y="111.720904"/>
    </g>
   </g>
   <g id="line2d_30">
    <path clip-path="url(#pfcebdb332c)" d="M 65.405908 213.800898 
L 68.143091 177.338199 
L 70.880273 133.15599 
L 73.617456 107.148781 
L 76.354639 110.178325 
L 79.091821 82.195853 
L 81.829004 109.572406 
L 84.566186 86.862014 
L 87.303369 84.157624 
L 90.040552 113.563389 
L 92.777734 104.233419 
L 95.514917 127.778401 
L 98.252099 104.034731 
L 100.989282 122.724169 
L 103.726465 109.250338 
L 106.463647 90.711748 
L 109.20083 76.647105 
L 111.938013 93.005246 
L 114.675195 96.008719 
L 117.412378 131.609656 
L 120.14956 131.780447 
L 122.886743 74.627309 
L 125.623926 68.506358 
L 128.361108 96.795525 
L 131.098291 89.751891 
L 133.835473 93.55335 
L 136.572656 111.533559 
L 139.309839 143.64803 
L 142.047021 129.450055 
L 144.784204 148.69871 
L 147.521386 144.292904 
L 150.258569 148.692599 
L 155.732934 112.733529 
L 158.470117 109.449168 
L 161.2073 107.73133 
L 166.681665 157.825936 
L 169.418847 106.528245 
L 172.15603 111.993376 
L 174.893213 99.254108 
L 177.630395 97.554884 
L 180.367578 100.504163 
L 183.10476 133.896431 
L 185.841943 98.880363 
L 188.579126 89.868297 
L 191.316308 95.266575 
L 194.053491 70.48839 
L 196.790673 85.655764 
L 199.527856 92.564581 
L 202.265039 86.294308 
L 205.002221 98.221937 
L 207.739404 69.122929 
L 210.476586 68.336696 
L 213.213769 60.432049 
L 215.950952 73.755741 
L 218.688134 56.857439 
L 221.425317 39.960636 
L 224.1625 76.195068 
L 226.899682 55.336725 
L 229.636865 45.15036 
L 232.374047 47.190651 
L 235.11123 31.436352 
L 237.848413 51.858185 
L 240.585595 53.465112 
L 243.322778 97.939641 
L 246.05996 103.795395 
L 248.797143 88.248507 
L 251.534326 113.679275 
L 254.271508 121.051421 
L 257.008691 92.944514 
L 259.745873 97.312914 
" style="fill:none;stroke:#800000;stroke-linecap:square;stroke-width:1.5;"/>
    <defs>
     <path d="M 0 3 
C 0.795609 3 1.55874 2.683901 2.12132 2.12132 
C 2.683901 1.55874 3 0.795609 3 0 
C 3 -0.795609 2.683901 -1.55874 2.12132 -2.12132 
C 1.55874 -2.683901 0.795609 -3 0 -3 
C -0.795609 -3 -1.55874 -2.683901 -2.12132 -2.12132 
C -2.683901 -1.55874 -3 -0.795609 -3 0 
C -3 0.795609 -2.683901 1.55874 -2.12132 2.12132 
C -1.55874 2.683901 -0.795609 3 0 3 
z
" id="m240c1b87ea" style="stroke:#800000;"/>
    </defs>
    <g clip-path="url(#pfcebdb332c)">
     <use style="fill:#800000;stroke:#800000;" x="65.405908" xlink:href="#m240c1b87ea" y="213.800898"/>
     <use style="fill:#800000;stroke:#800000;" x="68.143091" xlink:href="#m240c1b87ea" y="177.338199"/>
     <use style="fill:#800000;stroke:#800000;" x="70.880273" xlink:href="#m240c1b87ea" y="133.15599"/>
     <use style="fill:#800000;stroke:#800000;" x="73.617456" xlink:href="#m240c1b87ea" y="107.148781"/>
     <use style="fill:#800000;stroke:#800000;" x="76.354639" xlink:href="#m240c1b87ea" y="110.178325"/>
     <use style="fill:#800000;stroke:#800000;" x="79.091821" xlink:href="#m240c1b87ea" y="82.195853"/>
     <use style="fill:#800000;stroke:#800000;" x="81.829004" xlink:href="#m240c1b87ea" y="109.572406"/>
     <use style="fill:#800000;stroke:#800000;" x="84.566186" xlink:href="#m240c1b87ea" y="86.862014"/>
     <use style="fill:#800000;stroke:#800000;" x="87.303369" xlink:href="#m240c1b87ea" y="84.157624"/>
     <use style="fill:#800000;stroke:#800000;" x="90.040552" xlink:href="#m240c1b87ea" y="113.563389"/>
     <use style="fill:#800000;stroke:#800000;" x="92.777734" xlink:href="#m240c1b87ea" y="104.233419"/>
     <use style="fill:#800000;stroke:#800000;" x="95.514917" xlink:href="#m240c1b87ea" y="127.778401"/>
     <use style="fill:#800000;stroke:#800000;" x="98.252099" xlink:href="#m240c1b87ea" y="104.034731"/>
     <use style="fill:#800000;stroke:#800000;" x="100.989282" xlink:href="#m240c1b87ea" y="122.724169"/>
     <use style="fill:#800000;stroke:#800000;" x="103.726465" xlink:href="#m240c1b87ea" y="109.250338"/>
     <use style="fill:#800000;stroke:#800000;" x="106.463647" xlink:href="#m240c1b87ea" y="90.711748"/>
     <use style="fill:#800000;stroke:#800000;" x="109.20083" xlink:href="#m240c1b87ea" y="76.647105"/>
     <use style="fill:#800000;stroke:#800000;" x="111.938013" xlink:href="#m240c1b87ea" y="93.005246"/>
     <use style="fill:#800000;stroke:#800000;" x="114.675195" xlink:href="#m240c1b87ea" y="96.008719"/>
     <use style="fill:#800000;stroke:#800000;" x="117.412378" xlink:href="#m240c1b87ea" y="131.609656"/>
     <use style="fill:#800000;stroke:#800000;" x="120.14956" xlink:href="#m240c1b87ea" y="131.780447"/>
     <use style="fill:#800000;stroke:#800000;" x="122.886743" xlink:href="#m240c1b87ea" y="74.627309"/>
     <use style="fill:#800000;stroke:#800000;" x="125.623926" xlink:href="#m240c1b87ea" y="68.506358"/>
     <use style="fill:#800000;stroke:#800000;" x="128.361108" xlink:href="#m240c1b87ea" y="96.795525"/>
     <use style="fill:#800000;stroke:#800000;" x="131.098291" xlink:href="#m240c1b87ea" y="89.751891"/>
     <use style="fill:#800000;stroke:#800000;" x="133.835473" xlink:href="#m240c1b87ea" y="93.55335"/>
     <use style="fill:#800000;stroke:#800000;" x="136.572656" xlink:href="#m240c1b87ea" y="111.533559"/>
     <use style="fill:#800000;stroke:#800000;" x="139.309839" xlink:href="#m240c1b87ea" y="143.64803"/>
     <use style="fill:#800000;stroke:#800000;" x="142.047021" xlink:href="#m240c1b87ea" y="129.450055"/>
     <use style="fill:#800000;stroke:#800000;" x="144.784204" xlink:href="#m240c1b87ea" y="148.69871"/>
     <use style="fill:#800000;stroke:#800000;" x="147.521386" xlink:href="#m240c1b87ea" y="144.292904"/>
     <use style="fill:#800000;stroke:#800000;" x="150.258569" xlink:href="#m240c1b87ea" y="148.692599"/>
     <use style="fill:#800000;stroke:#800000;" x="155.732934" xlink:href="#m240c1b87ea" y="112.733529"/>
     <use style="fill:#800000;stroke:#800000;" x="158.470117" xlink:href="#m240c1b87ea" y="109.449168"/>
     <use style="fill:#800000;stroke:#800000;" x="161.2073" xlink:href="#m240c1b87ea" y="107.73133"/>
     <use style="fill:#800000;stroke:#800000;" x="166.681665" xlink:href="#m240c1b87ea" y="157.825936"/>
     <use style="fill:#800000;stroke:#800000;" x="169.418847" xlink:href="#m240c1b87ea" y="106.528245"/>
     <use style="fill:#800000;stroke:#800000;" x="172.15603" xlink:href="#m240c1b87ea" y="111.993376"/>
     <use style="fill:#800000;stroke:#800000;" x="174.893213" xlink:href="#m240c1b87ea" y="99.254108"/>
     <use style="fill:#800000;stroke:#800000;" x="177.630395" xlink:href="#m240c1b87ea" y="97.554884"/>
     <use style="fill:#800000;stroke:#800000;" x="180.367578" xlink:href="#m240c1b87ea" y="100.504163"/>
     <use style="fill:#800000;stroke:#800000;" x="183.10476" xlink:href="#m240c1b87ea" y="133.896431"/>
     <use style="fill:#800000;stroke:#800000;" x="185.841943" xlink:href="#m240c1b87ea" y="98.880363"/>
     <use style="fill:#800000;stroke:#800000;" x="188.579126" xlink:href="#m240c1b87ea" y="89.868297"/>
     <use style="fill:#800000;stroke:#800000;" x="191.316308" xlink:href="#m240c1b87ea" y="95.266575"/>
     <use style="fill:#800000;stroke:#800000;" x="194.053491" xlink:href="#m240c1b87ea" y="70.48839"/>
     <use style="fill:#800000;stroke:#800000;" x="196.790673" xlink:href="#m240c1b87ea" y="85.655764"/>
     <use style="fill:#800000;stroke:#800000;" x="199.527856" xlink:href="#m240c1b87ea" y="92.564581"/>
     <use style="fill:#800000;stroke:#800000;" x="202.265039" xlink:href="#m240c1b87ea" y="86.294308"/>
     <use style="fill:#800000;stroke:#800000;" x="205.002221" xlink:href="#m240c1b87ea" y="98.221937"/>
     <use style="fill:#800000;stroke:#800000;" x="207.739404" xlink:href="#m240c1b87ea" y="69.122929"/>
     <use style="fill:#800000;stroke:#800000;" x="210.476586" xlink:href="#m240c1b87ea" y="68.336696"/>
     <use style="fill:#800000;stroke:#800000;" x="213.213769" xlink:href="#m240c1b87ea" y="60.432049"/>
     <use style="fill:#800000;stroke:#800000;" x="215.950952" xlink:href="#m240c1b87ea" y="73.755741"/>
     <use style="fill:#800000;stroke:#800000;" x="218.688134" xlink:href="#m240c1b87ea" y="56.857439"/>
     <use style="fill:#800000;stroke:#800000;" x="221.425317" xlink:href="#m240c1b87ea" y="39.960636"/>
     <use style="fill:#800000;stroke:#800000;" x="224.1625" xlink:href="#m240c1b87ea" y="76.195068"/>
     <use style="fill:#800000;stroke:#800000;" x="226.899682" xlink:href="#m240c1b87ea" y="55.336725"/>
     <use style="fill:#800000;stroke:#800000;" x="229.636865" xlink:href="#m240c1b87ea" y="45.15036"/>
     <use style="fill:#800000;stroke:#800000;" x="232.374047" xlink:href="#m240c1b87ea" y="47.190651"/>
     <use style="fill:#800000;stroke:#800000;" x="235.11123" xlink:href="#m240c1b87ea" y="31.436352"/>
     <use style="fill:#800000;stroke:#800000;" x="237.848413" xlink:href="#m240c1b87ea" y="51.858185"/>
     <use style="fill:#800000;stroke:#800000;" x="240.585595" xlink:href="#m240c1b87ea" y="53.465112"/>
     <use style="fill:#800000;stroke:#800000;" x="243.322778" xlink:href="#m240c1b87ea" y="97.939641"/>
     <use style="fill:#800000;stroke:#800000;" x="246.05996" xlink:href="#m240c1b87ea" y="103.795395"/>
     <use style="fill:#800000;stroke:#800000;" x="248.797143" xlink:href="#m240c1b87ea" y="88.248507"/>
     <use style="fill:#800000;stroke:#800000;" x="251.534326" xlink:href="#m240c1b87ea" y="113.679275"/>
     <use style="fill:#800000;stroke:#800000;" x="254.271508" xlink:href="#m240c1b87ea" y="121.051421"/>
     <use style="fill:#800000;stroke:#800000;" x="257.008691" xlink:href="#m240c1b87ea" y="92.944514"/>
     <use style="fill:#800000;stroke:#800000;" x="259.745873" xlink:href="#m240c1b87ea" y="97.312914"/>
    </g>
   </g>
   <g id="patch_3">
    <path d="M 48.982813 222.919125 
L 48.982813 22.318125 
" style="fill:none;stroke:#000000;stroke-linecap:square;stroke-linejoin:miter;stroke-width:0.8;"/>
   </g>
   <g id="patch_4">
    <path d="M 262.483056 222.919125 
L 262.483056 22.318125 
" style="fill:none;stroke:#000000;stroke-linecap:square;stroke-linejoin:miter;stroke-width:0.8;"/>
   </g>
   <g id="patch_5">
    <path d="M 48.982813 222.919125 
L 262.483056 222.919125 
" style="fill:none;stroke:#000000;stroke-linecap:square;stroke-linejoin:miter;stroke-width:0.8;"/>
   </g>
   <g id="patch_6">
    <path d="M 48.982813 22.318125 
L 262.483056 22.318125 
" style="fill:none;stroke:#000000;stroke-linecap:square;stroke-linejoin:miter;stroke-width:0.8;"/>
   </g>
   <g id="text_29">
    <!-- Model-averaged 4-week-ahead forecasts -->
    <defs>
     <path d="M 9.8125 72.90625 
L 24.515625 72.90625 
L 43.109375 23.296875 
L 61.8125 72.90625 
L 76.515625 72.90625 
L 76.515625 0 
L 66.890625 0 
L 66.890625 64.015625 
L 48.09375 14.015625 
L 38.1875 14.015625 
L 19.390625 64.015625 
L 19.390625 0 
L 9.8125 0 
z
" id="DejaVuSans-77"/>
     <path d="M 4.203125 54.6875 
L 13.1875 54.6875 
L 24.421875 12.015625 
L 35.59375 54.6875 
L 46.1875 54.6875 
L 57.421875 12.015625 
L 68.609375 54.6875 
L 77.59375 54.6875 
L 63.28125 0 
L 52.6875 0 
L 40.921875 44.828125 
L 29.109375 0 
L 18.5 0 
z
" id="DejaVuSans-119"/>
     <path d="M 9.078125 75.984375 
L 18.109375 75.984375 
L 18.109375 31.109375 
L 44.921875 54.6875 
L 56.390625 54.6875 
L 27.390625 29.109375 
L 57.625 0 
L 45.90625 0 
L 18.109375 26.703125 
L 18.109375 0 
L 9.078125 0 
z
" id="DejaVuSans-107"/>
    </defs>
    <g transform="translate(33.409809 16.318125)scale(0.12 -0.12)">
     <use xlink:href="#DejaVuSans-77"/>
     <use x="86.279297" xlink:href="#DejaVuSans-111"/>
     <use x="147.460938" xlink:href="#DejaVuSans-100"/>
     <use x="210.9375" xlink:href="#DejaVuSans-101"/>
     <use x="272.460938" xlink:href="#DejaVuSans-108"/>
     <use x="300.244141" xlink:href="#DejaVuSans-45"/>
     <use x="336.328125" xlink:href="#DejaVuSans-97"/>
     <use x="397.607422" xlink:href="#DejaVuSans-118"/>
     <use x="456.787109" xlink:href="#DejaVuSans-101"/>
     <use x="518.310547" xlink:href="#DejaVuSans-114"/>
     <use x="559.423828" xlink:href="#DejaVuSans-97"/>
     <use x="620.703125" xlink:href="#DejaVuSans-103"/>
     <use x="684.179688" xlink:href="#DejaVuSans-101"/>
     <use x="745.703125" xlink:href="#DejaVuSans-100"/>
     <use x="809.179688" xlink:href="#DejaVuSans-32"/>
     <use x="840.966797" xlink:href="#DejaVuSans-52"/>
     <use x="904.589844" xlink:href="#DejaVuSans-45"/>
     <use x="940.673828" xlink:href="#DejaVuSans-119"/>
     <use x="1022.460938" xlink:href="#DejaVuSans-101"/>
     <use x="1083.984375" xlink:href="#DejaVuSans-101"/>
     <use x="1145.507812" xlink:href="#DejaVuSans-107"/>
     <use x="1203.417969" xlink:href="#DejaVuSans-45"/>
     <use x="1239.501953" xlink:href="#DejaVuSans-97"/>
     <use x="1300.78125" xlink:href="#DejaVuSans-104"/>
     <use x="1364.160156" xlink:href="#DejaVuSans-101"/>
     <use x="1425.683594" xlink:href="#DejaVuSans-97"/>
     <use x="1486.962891" xlink:href="#DejaVuSans-100"/>
     <use x="1550.439453" xlink:href="#DejaVuSans-32"/>
     <use x="1582.226562" xlink:href="#DejaVuSans-102"/>
     <use x="1617.431641" xlink:href="#DejaVuSans-111"/>
     <use x="1678.613281" xlink:href="#DejaVuSans-114"/>
     <use x="1717.476562" xlink:href="#DejaVuSans-101"/>
     <use x="1779" xlink:href="#DejaVuSans-99"/>
     <use x="1833.980469" xlink:href="#DejaVuSans-97"/>
     <use x="1895.259766" xlink:href="#DejaVuSans-115"/>
     <use x="1947.359375" xlink:href="#DejaVuSans-116"/>
     <use x="1986.568359" xlink:href="#DejaVuSans-115"/>
    </g>
   </g>
   <g id="legend_1">
    <g id="patch_7">
     <path d="M 100.154809 217.919125 
L 211.311059 217.919125 
Q 213.311059 217.919125 213.311059 215.919125 
L 213.311059 146.206625 
Q 213.311059 144.206625 211.311059 144.206625 
L 100.154809 144.206625 
Q 98.154809 144.206625 98.154809 146.206625 
L 98.154809 215.919125 
Q 98.154809 217.919125 100.154809 217.919125 
z
" style="fill:#ffffff;opacity:0.8;stroke:#cccccc;stroke-linejoin:miter;"/>
    </g>
    <g id="line2d_31">
     <path d="M 102.154809 152.305063 
L 122.154809 152.305063 
" style="fill:none;stroke:#000080;stroke-linecap:square;stroke-width:1.5;"/>
    </g>
    <g id="line2d_32">
     <g>
      <use style="fill:#000080;stroke:#000080;" x="112.154809" xlink:href="#m6a97ee2bf5" y="152.305063"/>
     </g>
    </g>
    <g id="text_30">
     <!-- compartmental -->
     <defs>
      <path d="M 18.109375 8.203125 
L 18.109375 -20.796875 
L 9.078125 -20.796875 
L 9.078125 54.6875 
L 18.109375 54.6875 
L 18.109375 46.390625 
Q 20.953125 51.265625 25.265625 53.625 
Q 29.59375 56 35.59375 56 
Q 45.5625 56 51.78125 48.09375 
Q 58.015625 40.1875 58.015625 27.296875 
Q 58.015625 14.40625 51.78125 6.484375 
Q 45.5625 -1.421875 35.59375 -1.421875 
Q 29.59375 -1.421875 25.265625 0.953125 
Q 20.953125 3.328125 18.109375 8.203125 
z
M 48.6875 27.296875 
Q 48.6875 37.203125 44.609375 42.84375 
Q 40.53125 48.484375 33.40625 48.484375 
Q 26.265625 48.484375 22.1875 42.84375 
Q 18.109375 37.203125 18.109375 27.296875 
Q 18.109375 17.390625 22.1875 11.75 
Q 26.265625 6.109375 33.40625 6.109375 
Q 40.53125 6.109375 44.609375 11.75 
Q 48.6875 17.390625 48.6875 27.296875 
z
" id="DejaVuSans-112"/>
     </defs>
     <g transform="translate(130.154809 155.805063)scale(0.1 -0.1)">
      <use xlink:href="#DejaVuSans-99"/>
      <use x="54.980469" xlink:href="#DejaVuSans-111"/>
      <use x="116.162109" xlink:href="#DejaVuSans-109"/>
      <use x="213.574219" xlink:href="#DejaVuSans-112"/>
      <use x="277.050781" xlink:href="#DejaVuSans-97"/>
      <use x="338.330078" xlink:href="#DejaVuSans-114"/>
      <use x="379.443359" xlink:href="#DejaVuSans-116"/>
      <use x="418.652344" xlink:href="#DejaVuSans-109"/>
      <use x="516.064453" xlink:href="#DejaVuSans-101"/>
      <use x="577.587891" xlink:href="#DejaVuSans-110"/>
      <use x="640.966797" xlink:href="#DejaVuSans-116"/>
      <use x="680.175781" xlink:href="#DejaVuSans-97"/>
      <use x="741.455078" xlink:href="#DejaVuSans-108"/>
     </g>
    </g>
    <g id="line2d_33">
     <path d="M 102.154809 170.983188 
L 122.154809 170.983188 
" style="fill:none;stroke:#00d4ff;stroke-linecap:square;stroke-width:1.5;"/>
    </g>
    <g id="line2d_34">
     <g>
      <use style="fill:#00d4ff;stroke:#00d4ff;" x="112.154809" xlink:href="#m859700a994" y="170.983188"/>
     </g>
    </g>
    <g id="text_31">
     <!-- metapopulation -->
     <g transform="translate(130.154809 174.483188)scale(0.1 -0.1)">
      <use xlink:href="#DejaVuSans-109"/>
      <use x="97.412109" xlink:href="#DejaVuSans-101"/>
      <use x="158.935547" xlink:href="#DejaVuSans-116"/>
      <use x="198.144531" xlink:href="#DejaVuSans-97"/>
      <use x="259.423828" xlink:href="#DejaVuSans-112"/>
      <use x="322.900391" xlink:href="#DejaVuSans-111"/>
      <use x="384.082031" xlink:href="#DejaVuSans-112"/>
      <use x="447.558594" xlink:href="#DejaVuSans-117"/>
      <use x="510.9375" xlink:href="#DejaVuSans-108"/>
      <use x="538.720703" xlink:href="#DejaVuSans-97"/>
      <use x="600" xlink:href="#DejaVuSans-116"/>
      <use x="639.208984" xlink:href="#DejaVuSans-105"/>
      <use x="666.992188" xlink:href="#DejaVuSans-111"/>
      <use x="728.173828" xlink:href="#DejaVuSans-110"/>
     </g>
    </g>
    <g id="line2d_35">
     <path d="M 102.154809 189.661313 
L 122.154809 189.661313 
" style="fill:none;stroke:#ffe600;stroke-linecap:square;stroke-width:1.5;"/>
    </g>
    <g id="line2d_36">
     <g>
      <use style="fill:#ffe600;stroke:#ffe600;" x="112.154809" xlink:href="#mc721e81e4a" y="189.661313"/>
     </g>
    </g>
    <g id="text_32">
     <!-- stat&amp;prob -->
     <defs>
      <path d="M 24.3125 39.203125 
Q 19.875 35.25 17.796875 31.3125 
Q 15.71875 27.390625 15.71875 23.09375 
Q 15.71875 15.96875 20.890625 11.234375 
Q 26.078125 6.5 33.890625 6.5 
Q 38.53125 6.5 42.578125 8.03125 
Q 46.625 9.578125 50.203125 12.703125 
z
M 31.203125 44.671875 
L 56 19.28125 
Q 58.890625 23.640625 60.5 28.59375 
Q 62.109375 33.546875 62.40625 39.109375 
L 71.484375 39.109375 
Q 70.90625 32.671875 68.359375 26.359375 
Q 65.828125 20.0625 61.28125 13.921875 
L 74.90625 0 
L 62.59375 0 
L 55.609375 7.171875 
Q 50.53125 2.828125 44.96875 0.703125 
Q 39.40625 -1.421875 33.015625 -1.421875 
Q 21.234375 -1.421875 13.765625 5.296875 
Q 6.296875 12.015625 6.296875 22.515625 
Q 6.296875 28.765625 9.5625 34.25 
Q 12.84375 39.75 19.390625 44.578125 
Q 17.046875 47.65625 15.8125 50.703125 
Q 14.59375 53.765625 14.59375 56.6875 
Q 14.59375 64.59375 20.015625 69.40625 
Q 25.4375 74.21875 34.421875 74.21875 
Q 38.484375 74.21875 42.5 73.34375 
Q 46.53125 72.46875 50.6875 70.703125 
L 50.6875 61.8125 
Q 46.4375 64.109375 42.578125 65.296875 
Q 38.71875 66.5 35.40625 66.5 
Q 30.28125 66.5 27.078125 63.78125 
Q 23.875 61.078125 23.875 56.78125 
Q 23.875 54.296875 25.3125 51.78125 
Q 26.765625 49.265625 31.203125 44.671875 
z
" id="DejaVuSans-38"/>
      <path d="M 48.6875 27.296875 
Q 48.6875 37.203125 44.609375 42.84375 
Q 40.53125 48.484375 33.40625 48.484375 
Q 26.265625 48.484375 22.1875 42.84375 
Q 18.109375 37.203125 18.109375 27.296875 
Q 18.109375 17.390625 22.1875 11.75 
Q 26.265625 6.109375 33.40625 6.109375 
Q 40.53125 6.109375 44.609375 11.75 
Q 48.6875 17.390625 48.6875 27.296875 
z
M 18.109375 46.390625 
Q 20.953125 51.265625 25.265625 53.625 
Q 29.59375 56 35.59375 56 
Q 45.5625 56 51.78125 48.09375 
Q 58.015625 40.1875 58.015625 27.296875 
Q 58.015625 14.40625 51.78125 6.484375 
Q 45.5625 -1.421875 35.59375 -1.421875 
Q 29.59375 -1.421875 25.265625 0.953125 
Q 20.953125 3.328125 18.109375 8.203125 
L 18.109375 0 
L 9.078125 0 
L 9.078125 75.984375 
L 18.109375 75.984375 
z
" id="DejaVuSans-98"/>
     </defs>
     <g transform="translate(130.154809 193.161313)scale(0.1 -0.1)">
      <use xlink:href="#DejaVuSans-115"/>
      <use x="52.099609" xlink:href="#DejaVuSans-116"/>
      <use x="91.308594" xlink:href="#DejaVuSans-97"/>
      <use x="152.587891" xlink:href="#DejaVuSans-116"/>
      <use x="191.796875" xlink:href="#DejaVuSans-38"/>
      <use x="269.775391" xlink:href="#DejaVuSans-112"/>
      <use x="333.251953" xlink:href="#DejaVuSans-114"/>
      <use x="372.115234" xlink:href="#DejaVuSans-111"/>
      <use x="433.296875" xlink:href="#DejaVuSans-98"/>
     </g>
    </g>
    <g id="line2d_37">
     <path d="M 102.154809 208.339438 
L 122.154809 208.339438 
" style="fill:none;stroke:#800000;stroke-linecap:square;stroke-width:1.5;"/>
    </g>
    <g id="line2d_38">
     <g>
      <use style="fill:#800000;stroke:#800000;" x="112.154809" xlink:href="#m240c1b87ea" y="208.339438"/>
     </g>
    </g>
    <g id="text_33">
     <!-- ensemble -->
     <g transform="translate(130.154809 211.839438)scale(0.1 -0.1)">
      <use xlink:href="#DejaVuSans-101"/>
      <use x="61.523438" xlink:href="#DejaVuSans-110"/>
      <use x="124.902344" xlink:href="#DejaVuSans-115"/>
      <use x="177.001953" xlink:href="#DejaVuSans-101"/>
      <use x="238.525391" xlink:href="#DejaVuSans-109"/>
      <use x="335.9375" xlink:href="#DejaVuSans-98"/>
      <use x="399.414062" xlink:href="#DejaVuSans-108"/>
      <use x="427.197266" xlink:href="#DejaVuSans-101"/>
     </g>
    </g>
   </g>
  </g>
 </g>
 <defs>
  <clipPath id="pfcebdb332c">
   <rect height="200.601" width="213.500244" x="48.982813" y="22.318125"/>
  </clipPath>
 </defs>
</svg>
