<?xml version="1.0" encoding="utf-8" standalone="no"?>
<!DOCTYPE svg PUBLIC "-//W3C//DTD SVG 1.1//EN"
  "http://www.w3.org/Graphics/SVG/1.1/DTD/svg11.dtd">
<!-- Created with matplotlib (https://matplotlib.org/) -->
<svg height="287.185628pt" version="1.1" viewBox="0 0 287.877245 287.185628" width="287.877245pt" xmlns="http://www.w3.org/2000/svg" xmlns:xlink="http://www.w3.org/1999/xlink">
 <defs>
  <style type="text/css">
*{stroke-linecap:butt;stroke-linejoin:round;}
  </style>
 </defs>
 <g id="figure_1">
  <g id="patch_1">
   <path d="M 0 287.185628 
L 287.877245 287.185628 
L 287.877245 0 
L 0 0 
z
" style="fill:#ffffff;"/>
  </g>
  <g id="axes_1">
   <g id="patch_2">
    <path d="M 48.982813 222.919125 
L 262.483056 222.919125 
L 262.483056 22.318125 
L 48.982813 22.318125 
z
" style="fill:#ffffff;"/>
   </g>
   <g id="matplotlib.axis_1">
    <g id="xtick_1">
     <g id="line2d_1">
      <defs>
       <path d="M 0 0 
L 0 3.5 
" id="m4a3625f4e3" style="stroke:#000000;stroke-width:0.8;"/>
      </defs>
      <g>
       <use style="stroke:#000000;stroke-width:0.8;" x="48.982813" xlink:href="#m4a3625f4e3" y="222.919125"/>
      </g>
     </g>
     <g id="text_1">
      <!-- 2020-04 -->
      <defs>
       <path d="M 19.1875 8.296875 
L 53.609375 8.296875 
L 53.609375 0 
L 7.328125 0 
L 7.328125 8.296875 
Q 12.9375 14.109375 22.625 23.890625 
Q 32.328125 33.6875 34.8125 36.53125 
Q 39.546875 41.84375 41.421875 45.53125 
Q 43.3125 49.21875 43.3125 52.78125 
Q 43.3125 58.59375 39.234375 62.25 
Q 35.15625 65.921875 28.609375 65.921875 
Q 23.96875 65.921875 18.8125 64.3125 
Q 13.671875 62.703125 7.8125 59.421875 
L 7.8125 69.390625 
Q 13.765625 71.78125 18.9375 73 
Q 24.125 74.21875 28.421875 74.21875 
Q 39.75 74.21875 46.484375 68.546875 
Q 53.21875 62.890625 53.21875 53.421875 
Q 53.21875 48.921875 51.53125 44.890625 
Q 49.859375 40.875 45.40625 35.40625 
Q 44.1875 33.984375 37.640625 27.21875 
Q 31.109375 20.453125 19.1875 8.296875 
z
" id="DejaVuSans-50"/>
       <path d="M 31.78125 66.40625 
Q 24.171875 66.40625 20.328125 58.90625 
Q 16.5 51.421875 16.5 36.375 
Q 16.5 21.390625 20.328125 13.890625 
Q 24.171875 6.390625 31.78125 6.390625 
Q 39.453125 6.390625 43.28125 13.890625 
Q 47.125 21.390625 47.125 36.375 
Q 47.125 51.421875 43.28125 58.90625 
Q 39.453125 66.40625 31.78125 66.40625 
z
M 31.78125 74.21875 
Q 44.046875 74.21875 50.515625 64.515625 
Q 56.984375 54.828125 56.984375 36.375 
Q 56.984375 17.96875 50.515625 8.265625 
Q 44.046875 -1.421875 31.78125 -1.421875 
Q 19.53125 -1.421875 13.0625 8.265625 
Q 6.59375 17.96875 6.59375 36.375 
Q 6.59375 54.828125 13.0625 64.515625 
Q 19.53125 74.21875 31.78125 74.21875 
z
" id="DejaVuSans-48"/>
       <path d="M 4.890625 31.390625 
L 31.203125 31.390625 
L 31.203125 23.390625 
L 4.890625 23.390625 
z
" id="DejaVuSans-45"/>
       <path d="M 37.796875 64.3125 
L 12.890625 25.390625 
L 37.796875 25.390625 
z
M 35.203125 72.90625 
L 47.609375 72.90625 
L 47.609375 25.390625 
L 58.015625 25.390625 
L 58.015625 17.1875 
L 47.609375 17.1875 
L 47.609375 0 
L 37.796875 0 
L 37.796875 17.1875 
L 4.890625 17.1875 
L 4.890625 26.703125 
z
" id="DejaVuSans-52"/>
      </defs>
      <g transform="translate(36.16153 264.836942)rotate(-45)scale(0.1 -0.1)">
       <use xlink:href="#DejaVuSans-50"/>
       <use x="63.623047" xlink:href="#DejaVuSans-48"/>
       <use x="127.246094" xlink:href="#DejaVuSans-50"/>
       <use x="190.869141" xlink:href="#DejaVuSans-48"/>
       <use x="254.492188" xlink:href="#DejaVuSans-45"/>
       <use x="290.576172" xlink:href="#DejaVuSans-48"/>
       <use x="354.199219" xlink:href="#DejaVuSans-52"/>
      </g>
     </g>
    </g>
    <g id="xtick_2">
     <g id="line2d_2">
      <g>
       <use style="stroke:#000000;stroke-width:0.8;" x="58.367439" xlink:href="#m4a3625f4e3" y="222.919125"/>
      </g>
     </g>
     <g id="text_2">
      <!-- 2020-05 -->
      <defs>
       <path d="M 10.796875 72.90625 
L 49.515625 72.90625 
L 49.515625 64.59375 
L 19.828125 64.59375 
L 19.828125 46.734375 
Q 21.96875 47.46875 24.109375 47.828125 
Q 26.265625 48.1875 28.421875 48.1875 
Q 40.625 48.1875 47.75 41.5 
Q 54.890625 34.8125 54.890625 23.390625 
Q 54.890625 11.625 47.5625 5.09375 
Q 40.234375 -1.421875 26.90625 -1.421875 
Q 22.3125 -1.421875 17.546875 -0.640625 
Q 12.796875 0.140625 7.71875 1.703125 
L 7.71875 11.625 
Q 12.109375 9.234375 16.796875 8.0625 
Q 21.484375 6.890625 26.703125 6.890625 
Q 35.15625 6.890625 40.078125 11.328125 
Q 45.015625 15.765625 45.015625 23.390625 
Q 45.015625 31 40.078125 35.4375 
Q 35.15625 39.890625 26.703125 39.890625 
Q 22.75 39.890625 18.8125 39.015625 
Q 14.890625 38.140625 10.796875 36.28125 
z
" id="DejaVuSans-53"/>
      </defs>
      <g transform="translate(45.546156 264.836942)rotate(-45)scale(0.1 -0.1)">
       <use xlink:href="#DejaVuSans-50"/>
       <use x="63.623047" xlink:href="#DejaVuSans-48"/>
       <use x="127.246094" xlink:href="#DejaVuSans-50"/>
       <use x="190.869141" xlink:href="#DejaVuSans-48"/>
       <use x="254.492188" xlink:href="#DejaVuSans-45"/>
       <use x="290.576172" xlink:href="#DejaVuSans-48"/>
       <use x="354.199219" xlink:href="#DejaVuSans-53"/>
      </g>
     </g>
    </g>
    <g id="xtick_3">
     <g id="line2d_3">
      <g>
       <use style="stroke:#000000;stroke-width:0.8;" x="70.098221" xlink:href="#m4a3625f4e3" y="222.919125"/>
      </g>
     </g>
     <g id="text_3">
      <!-- 2020-06 -->
      <defs>
       <path d="M 33.015625 40.375 
Q 26.375 40.375 22.484375 35.828125 
Q 18.609375 31.296875 18.609375 23.390625 
Q 18.609375 15.53125 22.484375 10.953125 
Q 26.375 6.390625 33.015625 6.390625 
Q 39.65625 6.390625 43.53125 10.953125 
Q 47.40625 15.53125 47.40625 23.390625 
Q 47.40625 31.296875 43.53125 35.828125 
Q 39.65625 40.375 33.015625 40.375 
z
M 52.59375 71.296875 
L 52.59375 62.3125 
Q 48.875 64.0625 45.09375 64.984375 
Q 41.3125 65.921875 37.59375 65.921875 
Q 27.828125 65.921875 22.671875 59.328125 
Q 17.53125 52.734375 16.796875 39.40625 
Q 19.671875 43.65625 24.015625 45.921875 
Q 28.375 48.1875 33.59375 48.1875 
Q 44.578125 48.1875 50.953125 41.515625 
Q 57.328125 34.859375 57.328125 23.390625 
Q 57.328125 12.15625 50.6875 5.359375 
Q 44.046875 -1.421875 33.015625 -1.421875 
Q 20.359375 -1.421875 13.671875 8.265625 
Q 6.984375 17.96875 6.984375 36.375 
Q 6.984375 53.65625 15.1875 63.9375 
Q 23.390625 74.21875 37.203125 74.21875 
Q 40.921875 74.21875 44.703125 73.484375 
Q 48.484375 72.75 52.59375 71.296875 
z
" id="DejaVuSans-54"/>
      </defs>
      <g transform="translate(57.276939 264.836942)rotate(-45)scale(0.1 -0.1)">
       <use xlink:href="#DejaVuSans-50"/>
       <use x="63.623047" xlink:href="#DejaVuSans-48"/>
       <use x="127.246094" xlink:href="#DejaVuSans-50"/>
       <use x="190.869141" xlink:href="#DejaVuSans-48"/>
       <use x="254.492188" xlink:href="#DejaVuSans-45"/>
       <use x="290.576172" xlink:href="#DejaVuSans-48"/>
       <use x="354.199219" xlink:href="#DejaVuSans-54"/>
      </g>
     </g>
    </g>
    <g id="xtick_4">
     <g id="line2d_4">
      <g>
       <use style="stroke:#000000;stroke-width:0.8;" x="79.482847" xlink:href="#m4a3625f4e3" y="222.919125"/>
      </g>
     </g>
     <g id="text_4">
      <!-- 2020-07 -->
      <defs>
       <path d="M 8.203125 72.90625 
L 55.078125 72.90625 
L 55.078125 68.703125 
L 28.609375 0 
L 18.3125 0 
L 43.21875 64.59375 
L 8.203125 64.59375 
z
" id="DejaVuSans-55"/>
      </defs>
      <g transform="translate(66.661565 264.836942)rotate(-45)scale(0.1 -0.1)">
       <use xlink:href="#DejaVuSans-50"/>
       <use x="63.623047" xlink:href="#DejaVuSans-48"/>
       <use x="127.246094" xlink:href="#DejaVuSans-50"/>
       <use x="190.869141" xlink:href="#DejaVuSans-48"/>
       <use x="254.492188" xlink:href="#DejaVuSans-45"/>
       <use x="290.576172" xlink:href="#DejaVuSans-48"/>
       <use x="354.199219" xlink:href="#DejaVuSans-55"/>
      </g>
     </g>
    </g>
    <g id="xtick_5">
     <g id="line2d_5">
      <g>
       <use style="stroke:#000000;stroke-width:0.8;" x="88.867473" xlink:href="#m4a3625f4e3" y="222.919125"/>
      </g>
     </g>
     <g id="text_5">
      <!-- 2020-08 -->
      <defs>
       <path d="M 31.78125 34.625 
Q 24.75 34.625 20.71875 30.859375 
Q 16.703125 27.09375 16.703125 20.515625 
Q 16.703125 13.921875 20.71875 10.15625 
Q 24.75 6.390625 31.78125 6.390625 
Q 38.8125 6.390625 42.859375 10.171875 
Q 46.921875 13.96875 46.921875 20.515625 
Q 46.921875 27.09375 42.890625 30.859375 
Q 38.875 34.625 31.78125 34.625 
z
M 21.921875 38.8125 
Q 15.578125 40.375 12.03125 44.71875 
Q 8.5 49.078125 8.5 55.328125 
Q 8.5 64.0625 14.71875 69.140625 
Q 20.953125 74.21875 31.78125 74.21875 
Q 42.671875 74.21875 48.875 69.140625 
Q 55.078125 64.0625 55.078125 55.328125 
Q 55.078125 49.078125 51.53125 44.71875 
Q 48 40.375 41.703125 38.8125 
Q 48.828125 37.15625 52.796875 32.3125 
Q 56.78125 27.484375 56.78125 20.515625 
Q 56.78125 9.90625 50.3125 4.234375 
Q 43.84375 -1.421875 31.78125 -1.421875 
Q 19.734375 -1.421875 13.25 4.234375 
Q 6.78125 9.90625 6.78125 20.515625 
Q 6.78125 27.484375 10.78125 32.3125 
Q 14.796875 37.15625 21.921875 38.8125 
z
M 18.3125 54.390625 
Q 18.3125 48.734375 21.84375 45.5625 
Q 25.390625 42.390625 31.78125 42.390625 
Q 38.140625 42.390625 41.71875 45.5625 
Q 45.3125 48.734375 45.3125 54.390625 
Q 45.3125 60.0625 41.71875 63.234375 
Q 38.140625 66.40625 31.78125 66.40625 
Q 25.390625 66.40625 21.84375 63.234375 
Q 18.3125 60.0625 18.3125 54.390625 
z
" id="DejaVuSans-56"/>
      </defs>
      <g transform="translate(76.046191 264.836942)rotate(-45)scale(0.1 -0.1)">
       <use xlink:href="#DejaVuSans-50"/>
       <use x="63.623047" xlink:href="#DejaVuSans-48"/>
       <use x="127.246094" xlink:href="#DejaVuSans-50"/>
       <use x="190.869141" xlink:href="#DejaVuSans-48"/>
       <use x="254.492188" xlink:href="#DejaVuSans-45"/>
       <use x="290.576172" xlink:href="#DejaVuSans-48"/>
       <use x="354.199219" xlink:href="#DejaVuSans-56"/>
      </g>
     </g>
    </g>
    <g id="xtick_6">
     <g id="line2d_6">
      <g>
       <use style="stroke:#000000;stroke-width:0.8;" x="100.598256" xlink:href="#m4a3625f4e3" y="222.919125"/>
      </g>
     </g>
     <g id="text_6">
      <!-- 2020-09 -->
      <defs>
       <path d="M 10.984375 1.515625 
L 10.984375 10.5 
Q 14.703125 8.734375 18.5 7.8125 
Q 22.3125 6.890625 25.984375 6.890625 
Q 35.75 6.890625 40.890625 13.453125 
Q 46.046875 20.015625 46.78125 33.40625 
Q 43.953125 29.203125 39.59375 26.953125 
Q 35.25 24.703125 29.984375 24.703125 
Q 19.046875 24.703125 12.671875 31.3125 
Q 6.296875 37.9375 6.296875 49.421875 
Q 6.296875 60.640625 12.9375 67.421875 
Q 19.578125 74.21875 30.609375 74.21875 
Q 43.265625 74.21875 49.921875 64.515625 
Q 56.59375 54.828125 56.59375 36.375 
Q 56.59375 19.140625 48.40625 8.859375 
Q 40.234375 -1.421875 26.421875 -1.421875 
Q 22.703125 -1.421875 18.890625 -0.6875 
Q 15.09375 0.046875 10.984375 1.515625 
z
M 30.609375 32.421875 
Q 37.25 32.421875 41.125 36.953125 
Q 45.015625 41.5 45.015625 49.421875 
Q 45.015625 57.28125 41.125 61.84375 
Q 37.25 66.40625 30.609375 66.40625 
Q 23.96875 66.40625 20.09375 61.84375 
Q 16.21875 57.28125 16.21875 49.421875 
Q 16.21875 41.5 20.09375 36.953125 
Q 23.96875 32.421875 30.609375 32.421875 
z
" id="DejaVuSans-57"/>
      </defs>
      <g transform="translate(87.776974 264.836942)rotate(-45)scale(0.1 -0.1)">
       <use xlink:href="#DejaVuSans-50"/>
       <use x="63.623047" xlink:href="#DejaVuSans-48"/>
       <use x="127.246094" xlink:href="#DejaVuSans-50"/>
       <use x="190.869141" xlink:href="#DejaVuSans-48"/>
       <use x="254.492188" xlink:href="#DejaVuSans-45"/>
       <use x="290.576172" xlink:href="#DejaVuSans-48"/>
       <use x="354.199219" xlink:href="#DejaVuSans-57"/>
      </g>
     </g>
    </g>
    <g id="xtick_7">
     <g id="line2d_7">
      <g>
       <use style="stroke:#000000;stroke-width:0.8;" x="109.982882" xlink:href="#m4a3625f4e3" y="222.919125"/>
      </g>
     </g>
     <g id="text_7">
      <!-- 2020-10 -->
      <defs>
       <path d="M 12.40625 8.296875 
L 28.515625 8.296875 
L 28.515625 63.921875 
L 10.984375 60.40625 
L 10.984375 69.390625 
L 28.421875 72.90625 
L 38.28125 72.90625 
L 38.28125 8.296875 
L 54.390625 8.296875 
L 54.390625 0 
L 12.40625 0 
z
" id="DejaVuSans-49"/>
      </defs>
      <g transform="translate(97.1616 264.836942)rotate(-45)scale(0.1 -0.1)">
       <use xlink:href="#DejaVuSans-50"/>
       <use x="63.623047" xlink:href="#DejaVuSans-48"/>
       <use x="127.246094" xlink:href="#DejaVuSans-50"/>
       <use x="190.869141" xlink:href="#DejaVuSans-48"/>
       <use x="254.492188" xlink:href="#DejaVuSans-45"/>
       <use x="290.576172" xlink:href="#DejaVuSans-49"/>
       <use x="354.199219" xlink:href="#DejaVuSans-48"/>
      </g>
     </g>
    </g>
    <g id="xtick_8">
     <g id="line2d_8">
      <g>
       <use style="stroke:#000000;stroke-width:0.8;" x="121.713665" xlink:href="#m4a3625f4e3" y="222.919125"/>
      </g>
     </g>
     <g id="text_8">
      <!-- 2020-11 -->
      <g transform="translate(108.892382 264.836942)rotate(-45)scale(0.1 -0.1)">
       <use xlink:href="#DejaVuSans-50"/>
       <use x="63.623047" xlink:href="#DejaVuSans-48"/>
       <use x="127.246094" xlink:href="#DejaVuSans-50"/>
       <use x="190.869141" xlink:href="#DejaVuSans-48"/>
       <use x="254.492188" xlink:href="#DejaVuSans-45"/>
       <use x="290.576172" xlink:href="#DejaVuSans-49"/>
       <use x="354.199219" xlink:href="#DejaVuSans-49"/>
      </g>
     </g>
    </g>
    <g id="xtick_9">
     <g id="line2d_9">
      <g>
       <use style="stroke:#000000;stroke-width:0.8;" x="131.098291" xlink:href="#m4a3625f4e3" y="222.919125"/>
      </g>
     </g>
     <g id="text_9">
      <!-- 2020-12 -->
      <g transform="translate(118.277009 264.836942)rotate(-45)scale(0.1 -0.1)">
       <use xlink:href="#DejaVuSans-50"/>
       <use x="63.623047" xlink:href="#DejaVuSans-48"/>
       <use x="127.246094" xlink:href="#DejaVuSans-50"/>
       <use x="190.869141" xlink:href="#DejaVuSans-48"/>
       <use x="254.492188" xlink:href="#DejaVuSans-45"/>
       <use x="290.576172" xlink:href="#DejaVuSans-49"/>
       <use x="354.199219" xlink:href="#DejaVuSans-50"/>
      </g>
     </g>
    </g>
    <g id="xtick_10">
     <g id="line2d_10">
      <g>
       <use style="stroke:#000000;stroke-width:0.8;" x="140.482917" xlink:href="#m4a3625f4e3" y="222.919125"/>
      </g>
     </g>
     <g id="text_10">
      <!-- 2021-01 -->
      <g transform="translate(127.661635 264.836942)rotate(-45)scale(0.1 -0.1)">
       <use xlink:href="#DejaVuSans-50"/>
       <use x="63.623047" xlink:href="#DejaVuSans-48"/>
       <use x="127.246094" xlink:href="#DejaVuSans-50"/>
       <use x="190.869141" xlink:href="#DejaVuSans-49"/>
       <use x="254.492188" xlink:href="#DejaVuSans-45"/>
       <use x="290.576172" xlink:href="#DejaVuSans-48"/>
       <use x="354.199219" xlink:href="#DejaVuSans-49"/>
      </g>
     </g>
    </g>
    <g id="xtick_11">
     <g id="line2d_11">
      <g>
       <use style="stroke:#000000;stroke-width:0.8;" x="152.2137" xlink:href="#m4a3625f4e3" y="222.919125"/>
      </g>
     </g>
     <g id="text_11">
      <!-- 2021-02 -->
      <g transform="translate(139.392417 264.836942)rotate(-45)scale(0.1 -0.1)">
       <use xlink:href="#DejaVuSans-50"/>
       <use x="63.623047" xlink:href="#DejaVuSans-48"/>
       <use x="127.246094" xlink:href="#DejaVuSans-50"/>
       <use x="190.869141" xlink:href="#DejaVuSans-49"/>
       <use x="254.492188" xlink:href="#DejaVuSans-45"/>
       <use x="290.576172" xlink:href="#DejaVuSans-48"/>
       <use x="354.199219" xlink:href="#DejaVuSans-50"/>
      </g>
     </g>
    </g>
    <g id="xtick_12">
     <g id="line2d_12">
      <g>
       <use style="stroke:#000000;stroke-width:0.8;" x="161.598326" xlink:href="#m4a3625f4e3" y="222.919125"/>
      </g>
     </g>
     <g id="text_12">
      <!-- 2021-03 -->
      <defs>
       <path d="M 40.578125 39.3125 
Q 47.65625 37.796875 51.625 33 
Q 55.609375 28.21875 55.609375 21.1875 
Q 55.609375 10.40625 48.1875 4.484375 
Q 40.765625 -1.421875 27.09375 -1.421875 
Q 22.515625 -1.421875 17.65625 -0.515625 
Q 12.796875 0.390625 7.625 2.203125 
L 7.625 11.71875 
Q 11.71875 9.328125 16.59375 8.109375 
Q 21.484375 6.890625 26.8125 6.890625 
Q 36.078125 6.890625 40.9375 10.546875 
Q 45.796875 14.203125 45.796875 21.1875 
Q 45.796875 27.640625 41.28125 31.265625 
Q 36.765625 34.90625 28.71875 34.90625 
L 20.21875 34.90625 
L 20.21875 43.015625 
L 29.109375 43.015625 
Q 36.375 43.015625 40.234375 45.921875 
Q 44.09375 48.828125 44.09375 54.296875 
Q 44.09375 59.90625 40.109375 62.90625 
Q 36.140625 65.921875 28.71875 65.921875 
Q 24.65625 65.921875 20.015625 65.03125 
Q 15.375 64.15625 9.8125 62.3125 
L 9.8125 71.09375 
Q 15.4375 72.65625 20.34375 73.4375 
Q 25.25 74.21875 29.59375 74.21875 
Q 40.828125 74.21875 47.359375 69.109375 
Q 53.90625 64.015625 53.90625 55.328125 
Q 53.90625 49.265625 50.4375 45.09375 
Q 46.96875 40.921875 40.578125 39.3125 
z
" id="DejaVuSans-51"/>
      </defs>
      <g transform="translate(148.777043 264.836942)rotate(-45)scale(0.1 -0.1)">
       <use xlink:href="#DejaVuSans-50"/>
       <use x="63.623047" xlink:href="#DejaVuSans-48"/>
       <use x="127.246094" xlink:href="#DejaVuSans-50"/>
       <use x="190.869141" xlink:href="#DejaVuSans-49"/>
       <use x="254.492188" xlink:href="#DejaVuSans-45"/>
       <use x="290.576172" xlink:href="#DejaVuSans-48"/>
       <use x="354.199219" xlink:href="#DejaVuSans-51"/>
      </g>
     </g>
    </g>
    <g id="xtick_13">
     <g id="line2d_13">
      <g>
       <use style="stroke:#000000;stroke-width:0.8;" x="170.982952" xlink:href="#m4a3625f4e3" y="222.919125"/>
      </g>
     </g>
     <g id="text_13">
      <!-- 2021-04 -->
      <g transform="translate(158.161669 264.836942)rotate(-45)scale(0.1 -0.1)">
       <use xlink:href="#DejaVuSans-50"/>
       <use x="63.623047" xlink:href="#DejaVuSans-48"/>
       <use x="127.246094" xlink:href="#DejaVuSans-50"/>
       <use x="190.869141" xlink:href="#DejaVuSans-49"/>
       <use x="254.492188" xlink:href="#DejaVuSans-45"/>
       <use x="290.576172" xlink:href="#DejaVuSans-48"/>
       <use x="354.199219" xlink:href="#DejaVuSans-52"/>
      </g>
     </g>
    </g>
    <g id="xtick_14">
     <g id="line2d_14">
      <g>
       <use style="stroke:#000000;stroke-width:0.8;" x="180.367578" xlink:href="#m4a3625f4e3" y="222.919125"/>
      </g>
     </g>
     <g id="text_14">
      <!-- 2021-05 -->
      <g transform="translate(167.546296 264.836942)rotate(-45)scale(0.1 -0.1)">
       <use xlink:href="#DejaVuSans-50"/>
       <use x="63.623047" xlink:href="#DejaVuSans-48"/>
       <use x="127.246094" xlink:href="#DejaVuSans-50"/>
       <use x="190.869141" xlink:href="#DejaVuSans-49"/>
       <use x="254.492188" xlink:href="#DejaVuSans-45"/>
       <use x="290.576172" xlink:href="#DejaVuSans-48"/>
       <use x="354.199219" xlink:href="#DejaVuSans-53"/>
      </g>
     </g>
    </g>
    <g id="xtick_15">
     <g id="line2d_15">
      <g>
       <use style="stroke:#000000;stroke-width:0.8;" x="192.09836" xlink:href="#m4a3625f4e3" y="222.919125"/>
      </g>
     </g>
     <g id="text_15">
      <!-- 2021-06 -->
      <g transform="translate(179.277078 264.836942)rotate(-45)scale(0.1 -0.1)">
       <use xlink:href="#DejaVuSans-50"/>
       <use x="63.623047" xlink:href="#DejaVuSans-48"/>
       <use x="127.246094" xlink:href="#DejaVuSans-50"/>
       <use x="190.869141" xlink:href="#DejaVuSans-49"/>
       <use x="254.492188" xlink:href="#DejaVuSans-45"/>
       <use x="290.576172" xlink:href="#DejaVuSans-48"/>
       <use x="354.199219" xlink:href="#DejaVuSans-54"/>
      </g>
     </g>
    </g>
    <g id="xtick_16">
     <g id="line2d_16">
      <g>
       <use style="stroke:#000000;stroke-width:0.8;" x="201.482986" xlink:href="#m4a3625f4e3" y="222.919125"/>
      </g>
     </g>
     <g id="text_16">
      <!-- 2021-07 -->
      <g transform="translate(188.661704 264.836942)rotate(-45)scale(0.1 -0.1)">
       <use xlink:href="#DejaVuSans-50"/>
       <use x="63.623047" xlink:href="#DejaVuSans-48"/>
       <use x="127.246094" xlink:href="#DejaVuSans-50"/>
       <use x="190.869141" xlink:href="#DejaVuSans-49"/>
       <use x="254.492188" xlink:href="#DejaVuSans-45"/>
       <use x="290.576172" xlink:href="#DejaVuSans-48"/>
       <use x="354.199219" xlink:href="#DejaVuSans-55"/>
      </g>
     </g>
    </g>
    <g id="xtick_17">
     <g id="line2d_17">
      <g>
       <use style="stroke:#000000;stroke-width:0.8;" x="213.213769" xlink:href="#m4a3625f4e3" y="222.919125"/>
      </g>
     </g>
     <g id="text_17">
      <!-- 2021-08 -->
      <g transform="translate(200.392487 264.836942)rotate(-45)scale(0.1 -0.1)">
       <use xlink:href="#DejaVuSans-50"/>
       <use x="63.623047" xlink:href="#DejaVuSans-48"/>
       <use x="127.246094" xlink:href="#DejaVuSans-50"/>
       <use x="190.869141" xlink:href="#DejaVuSans-49"/>
       <use x="254.492188" xlink:href="#DejaVuSans-45"/>
       <use x="290.576172" xlink:href="#DejaVuSans-48"/>
       <use x="354.199219" xlink:href="#DejaVuSans-56"/>
      </g>
     </g>
    </g>
    <g id="xtick_18">
     <g id="line2d_18">
      <g>
       <use style="stroke:#000000;stroke-width:0.8;" x="222.598395" xlink:href="#m4a3625f4e3" y="222.919125"/>
      </g>
     </g>
     <g id="text_18">
      <!-- 2021-09 -->
      <g transform="translate(209.777113 264.836942)rotate(-45)scale(0.1 -0.1)">
       <use xlink:href="#DejaVuSans-50"/>
       <use x="63.623047" xlink:href="#DejaVuSans-48"/>
       <use x="127.246094" xlink:href="#DejaVuSans-50"/>
       <use x="190.869141" xlink:href="#DejaVuSans-49"/>
       <use x="254.492188" xlink:href="#DejaVuSans-45"/>
       <use x="290.576172" xlink:href="#DejaVuSans-48"/>
       <use x="354.199219" xlink:href="#DejaVuSans-57"/>
      </g>
     </g>
    </g>
    <g id="xtick_19">
     <g id="line2d_19">
      <g>
       <use style="stroke:#000000;stroke-width:0.8;" x="231.983021" xlink:href="#m4a3625f4e3" y="222.919125"/>
      </g>
     </g>
     <g id="text_19">
      <!-- 2021-10 -->
      <g transform="translate(219.161739 264.836942)rotate(-45)scale(0.1 -0.1)">
       <use xlink:href="#DejaVuSans-50"/>
       <use x="63.623047" xlink:href="#DejaVuSans-48"/>
       <use x="127.246094" xlink:href="#DejaVuSans-50"/>
       <use x="190.869141" xlink:href="#DejaVuSans-49"/>
       <use x="254.492188" xlink:href="#DejaVuSans-45"/>
       <use x="290.576172" xlink:href="#DejaVuSans-49"/>
       <use x="354.199219" xlink:href="#DejaVuSans-48"/>
      </g>
     </g>
    </g>
    <g id="xtick_20">
     <g id="line2d_20">
      <g>
       <use style="stroke:#000000;stroke-width:0.8;" x="243.713804" xlink:href="#m4a3625f4e3" y="222.919125"/>
      </g>
     </g>
     <g id="text_20">
      <!-- 2021-11 -->
      <g transform="translate(230.892522 264.836942)rotate(-45)scale(0.1 -0.1)">
       <use xlink:href="#DejaVuSans-50"/>
       <use x="63.623047" xlink:href="#DejaVuSans-48"/>
       <use x="127.246094" xlink:href="#DejaVuSans-50"/>
       <use x="190.869141" xlink:href="#DejaVuSans-49"/>
       <use x="254.492188" xlink:href="#DejaVuSans-45"/>
       <use x="290.576172" xlink:href="#DejaVuSans-49"/>
       <use x="354.199219" xlink:href="#DejaVuSans-49"/>
      </g>
     </g>
    </g>
    <g id="xtick_21">
     <g id="line2d_21">
      <g>
       <use style="stroke:#000000;stroke-width:0.8;" x="253.09843" xlink:href="#m4a3625f4e3" y="222.919125"/>
      </g>
     </g>
     <g id="text_21">
      <!-- 2021-12 -->
      <g transform="translate(240.277148 264.836942)rotate(-45)scale(0.1 -0.1)">
       <use xlink:href="#DejaVuSans-50"/>
       <use x="63.623047" xlink:href="#DejaVuSans-48"/>
       <use x="127.246094" xlink:href="#DejaVuSans-50"/>
       <use x="190.869141" xlink:href="#DejaVuSans-49"/>
       <use x="254.492188" xlink:href="#DejaVuSans-45"/>
       <use x="290.576172" xlink:href="#DejaVuSans-49"/>
       <use x="354.199219" xlink:href="#DejaVuSans-50"/>
      </g>
     </g>
    </g>
    <g id="xtick_22">
     <g id="line2d_22">
      <g>
       <use style="stroke:#000000;stroke-width:0.8;" x="262.483056" xlink:href="#m4a3625f4e3" y="222.919125"/>
      </g>
     </g>
     <g id="text_22">
      <!-- 2022-01 -->
      <g transform="translate(249.661774 264.836942)rotate(-45)scale(0.1 -0.1)">
       <use xlink:href="#DejaVuSans-50"/>
       <use x="63.623047" xlink:href="#DejaVuSans-48"/>
       <use x="127.246094" xlink:href="#DejaVuSans-50"/>
       <use x="190.869141" xlink:href="#DejaVuSans-50"/>
       <use x="254.492188" xlink:href="#DejaVuSans-45"/>
       <use x="290.576172" xlink:href="#DejaVuSans-48"/>
       <use x="354.199219" xlink:href="#DejaVuSans-49"/>
      </g>
     </g>
    </g>
    <g id="text_23">
     <!-- Target End Date -->
     <defs>
      <path d="M -0.296875 72.90625 
L 61.375 72.90625 
L 61.375 64.59375 
L 35.5 64.59375 
L 35.5 0 
L 25.59375 0 
L 25.59375 64.59375 
L -0.296875 64.59375 
z
" id="DejaVuSans-84"/>
      <path d="M 34.28125 27.484375 
Q 23.390625 27.484375 19.1875 25 
Q 14.984375 22.515625 14.984375 16.5 
Q 14.984375 11.71875 18.140625 8.90625 
Q 21.296875 6.109375 26.703125 6.109375 
Q 34.1875 6.109375 38.703125 11.40625 
Q 43.21875 16.703125 43.21875 25.484375 
L 43.21875 27.484375 
z
M 52.203125 31.203125 
L 52.203125 0 
L 43.21875 0 
L 43.21875 8.296875 
Q 40.140625 3.328125 35.546875 0.953125 
Q 30.953125 -1.421875 24.3125 -1.421875 
Q 15.921875 -1.421875 10.953125 3.296875 
Q 6 8.015625 6 15.921875 
Q 6 25.140625 12.171875 29.828125 
Q 18.359375 34.515625 30.609375 34.515625 
L 43.21875 34.515625 
L 43.21875 35.40625 
Q 43.21875 41.609375 39.140625 45 
Q 35.0625 48.390625 27.6875 48.390625 
Q 23 48.390625 18.546875 47.265625 
Q 14.109375 46.140625 10.015625 43.890625 
L 10.015625 52.203125 
Q 14.9375 54.109375 19.578125 55.046875 
Q 24.21875 56 28.609375 56 
Q 40.484375 56 46.34375 49.84375 
Q 52.203125 43.703125 52.203125 31.203125 
z
" id="DejaVuSans-97"/>
      <path d="M 41.109375 46.296875 
Q 39.59375 47.171875 37.8125 47.578125 
Q 36.03125 48 33.890625 48 
Q 26.265625 48 22.1875 43.046875 
Q 18.109375 38.09375 18.109375 28.8125 
L 18.109375 0 
L 9.078125 0 
L 9.078125 54.6875 
L 18.109375 54.6875 
L 18.109375 46.1875 
Q 20.953125 51.171875 25.484375 53.578125 
Q 30.03125 56 36.53125 56 
Q 37.453125 56 38.578125 55.875 
Q 39.703125 55.765625 41.0625 55.515625 
z
" id="DejaVuSans-114"/>
      <path d="M 45.40625 27.984375 
Q 45.40625 37.75 41.375 43.109375 
Q 37.359375 48.484375 30.078125 48.484375 
Q 22.859375 48.484375 18.828125 43.109375 
Q 14.796875 37.75 14.796875 27.984375 
Q 14.796875 18.265625 18.828125 12.890625 
Q 22.859375 7.515625 30.078125 7.515625 
Q 37.359375 7.515625 41.375 12.890625 
Q 45.40625 18.265625 45.40625 27.984375 
z
M 54.390625 6.78125 
Q 54.390625 -7.171875 48.1875 -13.984375 
Q 42 -20.796875 29.203125 -20.796875 
Q 24.46875 -20.796875 20.265625 -20.09375 
Q 16.0625 -19.390625 12.109375 -17.921875 
L 12.109375 -9.1875 
Q 16.0625 -11.328125 19.921875 -12.34375 
Q 23.78125 -13.375 27.78125 -13.375 
Q 36.625 -13.375 41.015625 -8.765625 
Q 45.40625 -4.15625 45.40625 5.171875 
L 45.40625 9.625 
Q 42.625 4.78125 38.28125 2.390625 
Q 33.9375 0 27.875 0 
Q 17.828125 0 11.671875 7.65625 
Q 5.515625 15.328125 5.515625 27.984375 
Q 5.515625 40.671875 11.671875 48.328125 
Q 17.828125 56 27.875 56 
Q 33.9375 56 38.28125 53.609375 
Q 42.625 51.21875 45.40625 46.390625 
L 45.40625 54.6875 
L 54.390625 54.6875 
z
" id="DejaVuSans-103"/>
      <path d="M 56.203125 29.59375 
L 56.203125 25.203125 
L 14.890625 25.203125 
Q 15.484375 15.921875 20.484375 11.0625 
Q 25.484375 6.203125 34.421875 6.203125 
Q 39.59375 6.203125 44.453125 7.46875 
Q 49.3125 8.734375 54.109375 11.28125 
L 54.109375 2.78125 
Q 49.265625 0.734375 44.1875 -0.34375 
Q 39.109375 -1.421875 33.890625 -1.421875 
Q 20.796875 -1.421875 13.15625 6.1875 
Q 5.515625 13.8125 5.515625 26.8125 
Q 5.515625 40.234375 12.765625 48.109375 
Q 20.015625 56 32.328125 56 
Q 43.359375 56 49.78125 48.890625 
Q 56.203125 41.796875 56.203125 29.59375 
z
M 47.21875 32.234375 
Q 47.125 39.59375 43.09375 43.984375 
Q 39.0625 48.390625 32.421875 48.390625 
Q 24.90625 48.390625 20.390625 44.140625 
Q 15.875 39.890625 15.1875 32.171875 
z
" id="DejaVuSans-101"/>
      <path d="M 18.3125 70.21875 
L 18.3125 54.6875 
L 36.8125 54.6875 
L 36.8125 47.703125 
L 18.3125 47.703125 
L 18.3125 18.015625 
Q 18.3125 11.328125 20.140625 9.421875 
Q 21.96875 7.515625 27.59375 7.515625 
L 36.8125 7.515625 
L 36.8125 0 
L 27.59375 0 
Q 17.1875 0 13.234375 3.875 
Q 9.28125 7.765625 9.28125 18.015625 
L 9.28125 47.703125 
L 2.6875 47.703125 
L 2.6875 54.6875 
L 9.28125 54.6875 
L 9.28125 70.21875 
z
" id="DejaVuSans-116"/>
      <path id="DejaVuSans-32"/>
      <path d="M 9.8125 72.90625 
L 55.90625 72.90625 
L 55.90625 64.59375 
L 19.671875 64.59375 
L 19.671875 43.015625 
L 54.390625 43.015625 
L 54.390625 34.71875 
L 19.671875 34.71875 
L 19.671875 8.296875 
L 56.78125 8.296875 
L 56.78125 0 
L 9.8125 0 
z
" id="DejaVuSans-69"/>
      <path d="M 54.890625 33.015625 
L 54.890625 0 
L 45.90625 0 
L 45.90625 32.71875 
Q 45.90625 40.484375 42.875 44.328125 
Q 39.84375 48.1875 33.796875 48.1875 
Q 26.515625 48.1875 22.3125 43.546875 
Q 18.109375 38.921875 18.109375 30.90625 
L 18.109375 0 
L 9.078125 0 
L 9.078125 54.6875 
L 18.109375 54.6875 
L 18.109375 46.1875 
Q 21.34375 51.125 25.703125 53.5625 
Q 30.078125 56 35.796875 56 
Q 45.21875 56 50.046875 50.171875 
Q 54.890625 44.34375 54.890625 33.015625 
z
" id="DejaVuSans-110"/>
      <path d="M 45.40625 46.390625 
L 45.40625 75.984375 
L 54.390625 75.984375 
L 54.390625 0 
L 45.40625 0 
L 45.40625 8.203125 
Q 42.578125 3.328125 38.25 0.953125 
Q 33.9375 -1.421875 27.875 -1.421875 
Q 17.96875 -1.421875 11.734375 6.484375 
Q 5.515625 14.40625 5.515625 27.296875 
Q 5.515625 40.1875 11.734375 48.09375 
Q 17.96875 56 27.875 56 
Q 33.9375 56 38.25 53.625 
Q 42.578125 51.265625 45.40625 46.390625 
z
M 14.796875 27.296875 
Q 14.796875 17.390625 18.875 11.75 
Q 22.953125 6.109375 30.078125 6.109375 
Q 37.203125 6.109375 41.296875 11.75 
Q 45.40625 17.390625 45.40625 27.296875 
Q 45.40625 37.203125 41.296875 42.84375 
Q 37.203125 48.484375 30.078125 48.484375 
Q 22.953125 48.484375 18.875 42.84375 
Q 14.796875 37.203125 14.796875 27.296875 
z
" id="DejaVuSans-100"/>
      <path d="M 19.671875 64.796875 
L 19.671875 8.109375 
L 31.59375 8.109375 
Q 46.6875 8.109375 53.6875 14.9375 
Q 60.6875 21.78125 60.6875 36.53125 
Q 60.6875 51.171875 53.6875 57.984375 
Q 46.6875 64.796875 31.59375 64.796875 
z
M 9.8125 72.90625 
L 30.078125 72.90625 
Q 51.265625 72.90625 61.171875 64.09375 
Q 71.09375 55.28125 71.09375 36.53125 
Q 71.09375 17.671875 61.125 8.828125 
Q 51.171875 0 30.078125 0 
L 9.8125 0 
z
" id="DejaVuSans-68"/>
     </defs>
     <g transform="translate(115.629809 277.905941)scale(0.1 -0.1)">
      <use xlink:href="#DejaVuSans-84"/>
      <use x="44.583984" xlink:href="#DejaVuSans-97"/>
      <use x="105.863281" xlink:href="#DejaVuSans-114"/>
      <use x="145.226562" xlink:href="#DejaVuSans-103"/>
      <use x="208.703125" xlink:href="#DejaVuSans-101"/>
      <use x="270.226562" xlink:href="#DejaVuSans-116"/>
      <use x="309.435547" xlink:href="#DejaVuSans-32"/>
      <use x="341.222656" xlink:href="#DejaVuSans-69"/>
      <use x="404.40625" xlink:href="#DejaVuSans-110"/>
      <use x="467.785156" xlink:href="#DejaVuSans-100"/>
      <use x="531.261719" xlink:href="#DejaVuSans-32"/>
      <use x="563.048828" xlink:href="#DejaVuSans-68"/>
      <use x="640.050781" xlink:href="#DejaVuSans-97"/>
      <use x="701.330078" xlink:href="#DejaVuSans-116"/>
      <use x="740.539062" xlink:href="#DejaVuSans-101"/>
     </g>
    </g>
   </g>
   <g id="matplotlib.axis_2">
    <g id="ytick_1">
     <g id="line2d_23">
      <defs>
       <path d="M 0 0 
L -3.5 0 
" id="m3eb1d0ff01" style="stroke:#000000;stroke-width:0.8;"/>
      </defs>
      <g>
       <use style="stroke:#000000;stroke-width:0.8;" x="48.982813" xlink:href="#m3eb1d0ff01" y="200.100305"/>
      </g>
     </g>
     <g id="text_24">
      <!-- −12 -->
      <defs>
       <path d="M 10.59375 35.5 
L 73.1875 35.5 
L 73.1875 27.203125 
L 10.59375 27.203125 
z
" id="DejaVuSans-8722"/>
      </defs>
      <g transform="translate(20.878125 203.899524)scale(0.1 -0.1)">
       <use xlink:href="#DejaVuSans-8722"/>
       <use x="83.789062" xlink:href="#DejaVuSans-49"/>
       <use x="147.412109" xlink:href="#DejaVuSans-50"/>
      </g>
     </g>
    </g>
    <g id="ytick_2">
     <g id="line2d_24">
      <g>
       <use style="stroke:#000000;stroke-width:0.8;" x="48.982813" xlink:href="#m3eb1d0ff01" y="171.927849"/>
      </g>
     </g>
     <g id="text_25">
      <!-- −10 -->
      <g transform="translate(20.878125 175.727068)scale(0.1 -0.1)">
       <use xlink:href="#DejaVuSans-8722"/>
       <use x="83.789062" xlink:href="#DejaVuSans-49"/>
       <use x="147.412109" xlink:href="#DejaVuSans-48"/>
      </g>
     </g>
    </g>
    <g id="ytick_3">
     <g id="line2d_25">
      <g>
       <use style="stroke:#000000;stroke-width:0.8;" x="48.982813" xlink:href="#m3eb1d0ff01" y="143.755394"/>
      </g>
     </g>
     <g id="text_26">
      <!-- −8 -->
      <g transform="translate(27.240625 147.554612)scale(0.1 -0.1)">
       <use xlink:href="#DejaVuSans-8722"/>
       <use x="83.789062" xlink:href="#DejaVuSans-56"/>
      </g>
     </g>
    </g>
    <g id="ytick_4">
     <g id="line2d_26">
      <g>
       <use style="stroke:#000000;stroke-width:0.8;" x="48.982813" xlink:href="#m3eb1d0ff01" y="115.582938"/>
      </g>
     </g>
     <g id="text_27">
      <!-- −6 -->
      <g transform="translate(27.240625 119.382157)scale(0.1 -0.1)">
       <use xlink:href="#DejaVuSans-8722"/>
       <use x="83.789062" xlink:href="#DejaVuSans-54"/>
      </g>
     </g>
    </g>
    <g id="ytick_5">
     <g id="line2d_27">
      <g>
       <use style="stroke:#000000;stroke-width:0.8;" x="48.982813" xlink:href="#m3eb1d0ff01" y="87.410482"/>
      </g>
     </g>
     <g id="text_28">
      <!-- −4 -->
      <g transform="translate(27.240625 91.209701)scale(0.1 -0.1)">
       <use xlink:href="#DejaVuSans-8722"/>
       <use x="83.789062" xlink:href="#DejaVuSans-52"/>
      </g>
     </g>
    </g>
    <g id="ytick_6">
     <g id="line2d_28">
      <g>
       <use style="stroke:#000000;stroke-width:0.8;" x="48.982813" xlink:href="#m3eb1d0ff01" y="59.238026"/>
      </g>
     </g>
     <g id="text_29">
      <!-- −2 -->
      <g transform="translate(27.240625 63.037245)scale(0.1 -0.1)">
       <use xlink:href="#DejaVuSans-8722"/>
       <use x="83.789062" xlink:href="#DejaVuSans-50"/>
      </g>
     </g>
    </g>
    <g id="ytick_7">
     <g id="line2d_29">
      <g>
       <use style="stroke:#000000;stroke-width:0.8;" x="48.982813" xlink:href="#m3eb1d0ff01" y="31.065571"/>
      </g>
     </g>
     <g id="text_30">
      <!-- 0 -->
      <g transform="translate(35.620313 34.86479)scale(0.1 -0.1)">
       <use xlink:href="#DejaVuSans-48"/>
      </g>
     </g>
    </g>
    <g id="text_31">
     <!-- Score for cumulative deaths -->
     <defs>
      <path d="M 53.515625 70.515625 
L 53.515625 60.890625 
Q 47.90625 63.578125 42.921875 64.890625 
Q 37.9375 66.21875 33.296875 66.21875 
Q 25.25 66.21875 20.875 63.09375 
Q 16.5 59.96875 16.5 54.203125 
Q 16.5 49.359375 19.40625 46.890625 
Q 22.3125 44.4375 30.421875 42.921875 
L 36.375 41.703125 
Q 47.40625 39.59375 52.65625 34.296875 
Q 57.90625 29 57.90625 20.125 
Q 57.90625 9.515625 50.796875 4.046875 
Q 43.703125 -1.421875 29.984375 -1.421875 
Q 24.8125 -1.421875 18.96875 -0.25 
Q 13.140625 0.921875 6.890625 3.21875 
L 6.890625 13.375 
Q 12.890625 10.015625 18.65625 8.296875 
Q 24.421875 6.59375 29.984375 6.59375 
Q 38.421875 6.59375 43.015625 9.90625 
Q 47.609375 13.234375 47.609375 19.390625 
Q 47.609375 24.75 44.3125 27.78125 
Q 41.015625 30.8125 33.5 32.328125 
L 27.484375 33.5 
Q 16.453125 35.6875 11.515625 40.375 
Q 6.59375 45.0625 6.59375 53.421875 
Q 6.59375 63.09375 13.40625 68.65625 
Q 20.21875 74.21875 32.171875 74.21875 
Q 37.3125 74.21875 42.625 73.28125 
Q 47.953125 72.359375 53.515625 70.515625 
z
" id="DejaVuSans-83"/>
      <path d="M 48.78125 52.59375 
L 48.78125 44.1875 
Q 44.96875 46.296875 41.140625 47.34375 
Q 37.3125 48.390625 33.40625 48.390625 
Q 24.65625 48.390625 19.8125 42.84375 
Q 14.984375 37.3125 14.984375 27.296875 
Q 14.984375 17.28125 19.8125 11.734375 
Q 24.65625 6.203125 33.40625 6.203125 
Q 37.3125 6.203125 41.140625 7.25 
Q 44.96875 8.296875 48.78125 10.40625 
L 48.78125 2.09375 
Q 45.015625 0.34375 40.984375 -0.53125 
Q 36.96875 -1.421875 32.421875 -1.421875 
Q 20.0625 -1.421875 12.78125 6.34375 
Q 5.515625 14.109375 5.515625 27.296875 
Q 5.515625 40.671875 12.859375 48.328125 
Q 20.21875 56 33.015625 56 
Q 37.15625 56 41.109375 55.140625 
Q 45.0625 54.296875 48.78125 52.59375 
z
" id="DejaVuSans-99"/>
      <path d="M 30.609375 48.390625 
Q 23.390625 48.390625 19.1875 42.75 
Q 14.984375 37.109375 14.984375 27.296875 
Q 14.984375 17.484375 19.15625 11.84375 
Q 23.34375 6.203125 30.609375 6.203125 
Q 37.796875 6.203125 41.984375 11.859375 
Q 46.1875 17.53125 46.1875 27.296875 
Q 46.1875 37.015625 41.984375 42.703125 
Q 37.796875 48.390625 30.609375 48.390625 
z
M 30.609375 56 
Q 42.328125 56 49.015625 48.375 
Q 55.71875 40.765625 55.71875 27.296875 
Q 55.71875 13.875 49.015625 6.21875 
Q 42.328125 -1.421875 30.609375 -1.421875 
Q 18.84375 -1.421875 12.171875 6.21875 
Q 5.515625 13.875 5.515625 27.296875 
Q 5.515625 40.765625 12.171875 48.375 
Q 18.84375 56 30.609375 56 
z
" id="DejaVuSans-111"/>
      <path d="M 37.109375 75.984375 
L 37.109375 68.5 
L 28.515625 68.5 
Q 23.6875 68.5 21.796875 66.546875 
Q 19.921875 64.59375 19.921875 59.515625 
L 19.921875 54.6875 
L 34.71875 54.6875 
L 34.71875 47.703125 
L 19.921875 47.703125 
L 19.921875 0 
L 10.890625 0 
L 10.890625 47.703125 
L 2.296875 47.703125 
L 2.296875 54.6875 
L 10.890625 54.6875 
L 10.890625 58.5 
Q 10.890625 67.625 15.140625 71.796875 
Q 19.390625 75.984375 28.609375 75.984375 
z
" id="DejaVuSans-102"/>
      <path d="M 8.5 21.578125 
L 8.5 54.6875 
L 17.484375 54.6875 
L 17.484375 21.921875 
Q 17.484375 14.15625 20.5 10.265625 
Q 23.53125 6.390625 29.59375 6.390625 
Q 36.859375 6.390625 41.078125 11.03125 
Q 45.3125 15.671875 45.3125 23.6875 
L 45.3125 54.6875 
L 54.296875 54.6875 
L 54.296875 0 
L 45.3125 0 
L 45.3125 8.40625 
Q 42.046875 3.421875 37.71875 1 
Q 33.40625 -1.421875 27.6875 -1.421875 
Q 18.265625 -1.421875 13.375 4.4375 
Q 8.5 10.296875 8.5 21.578125 
z
M 31.109375 56 
z
" id="DejaVuSans-117"/>
      <path d="M 52 44.1875 
Q 55.375 50.25 60.0625 53.125 
Q 64.75 56 71.09375 56 
Q 79.640625 56 84.28125 50.015625 
Q 88.921875 44.046875 88.921875 33.015625 
L 88.921875 0 
L 79.890625 0 
L 79.890625 32.71875 
Q 79.890625 40.578125 77.09375 44.375 
Q 74.3125 48.1875 68.609375 48.1875 
Q 61.625 48.1875 57.5625 43.546875 
Q 53.515625 38.921875 53.515625 30.90625 
L 53.515625 0 
L 44.484375 0 
L 44.484375 32.71875 
Q 44.484375 40.625 41.703125 44.40625 
Q 38.921875 48.1875 33.109375 48.1875 
Q 26.21875 48.1875 22.15625 43.53125 
Q 18.109375 38.875 18.109375 30.90625 
L 18.109375 0 
L 9.078125 0 
L 9.078125 54.6875 
L 18.109375 54.6875 
L 18.109375 46.1875 
Q 21.1875 51.21875 25.484375 53.609375 
Q 29.78125 56 35.6875 56 
Q 41.65625 56 45.828125 52.96875 
Q 50 49.953125 52 44.1875 
z
" id="DejaVuSans-109"/>
      <path d="M 9.421875 75.984375 
L 18.40625 75.984375 
L 18.40625 0 
L 9.421875 0 
z
" id="DejaVuSans-108"/>
      <path d="M 9.421875 54.6875 
L 18.40625 54.6875 
L 18.40625 0 
L 9.421875 0 
z
M 9.421875 75.984375 
L 18.40625 75.984375 
L 18.40625 64.59375 
L 9.421875 64.59375 
z
" id="DejaVuSans-105"/>
      <path d="M 2.984375 54.6875 
L 12.5 54.6875 
L 29.59375 8.796875 
L 46.6875 54.6875 
L 56.203125 54.6875 
L 35.6875 0 
L 23.484375 0 
z
" id="DejaVuSans-118"/>
      <path d="M 54.890625 33.015625 
L 54.890625 0 
L 45.90625 0 
L 45.90625 32.71875 
Q 45.90625 40.484375 42.875 44.328125 
Q 39.84375 48.1875 33.796875 48.1875 
Q 26.515625 48.1875 22.3125 43.546875 
Q 18.109375 38.921875 18.109375 30.90625 
L 18.109375 0 
L 9.078125 0 
L 9.078125 75.984375 
L 18.109375 75.984375 
L 18.109375 46.1875 
Q 21.34375 51.125 25.703125 53.5625 
Q 30.078125 56 35.796875 56 
Q 45.21875 56 50.046875 50.171875 
Q 54.890625 44.34375 54.890625 33.015625 
z
" id="DejaVuSans-104"/>
      <path d="M 44.28125 53.078125 
L 44.28125 44.578125 
Q 40.484375 46.53125 36.375 47.5 
Q 32.28125 48.484375 27.875 48.484375 
Q 21.1875 48.484375 17.84375 46.4375 
Q 14.5 44.390625 14.5 40.28125 
Q 14.5 37.15625 16.890625 35.375 
Q 19.28125 33.59375 26.515625 31.984375 
L 29.59375 31.296875 
Q 39.15625 29.25 43.1875 25.515625 
Q 47.21875 21.78125 47.21875 15.09375 
Q 47.21875 7.46875 41.1875 3.015625 
Q 35.15625 -1.421875 24.609375 -1.421875 
Q 20.21875 -1.421875 15.453125 -0.5625 
Q 10.6875 0.296875 5.421875 2 
L 5.421875 11.28125 
Q 10.40625 8.6875 15.234375 7.390625 
Q 20.0625 6.109375 24.8125 6.109375 
Q 31.15625 6.109375 34.5625 8.28125 
Q 37.984375 10.453125 37.984375 14.40625 
Q 37.984375 18.0625 35.515625 20.015625 
Q 33.0625 21.96875 24.703125 23.78125 
L 21.578125 24.515625 
Q 13.234375 26.265625 9.515625 29.90625 
Q 5.8125 33.546875 5.8125 39.890625 
Q 5.8125 47.609375 11.28125 51.796875 
Q 16.75 56 26.8125 56 
Q 31.78125 56 36.171875 55.265625 
Q 40.578125 54.546875 44.28125 53.078125 
z
" id="DejaVuSans-115"/>
     </defs>
     <g transform="translate(14.798438 193.106906)rotate(-90)scale(0.1 -0.1)">
      <use xlink:href="#DejaVuSans-83"/>
      <use x="63.476562" xlink:href="#DejaVuSans-99"/>
      <use x="118.457031" xlink:href="#DejaVuSans-111"/>
      <use x="179.638672" xlink:href="#DejaVuSans-114"/>
      <use x="218.501953" xlink:href="#DejaVuSans-101"/>
      <use x="280.025391" xlink:href="#DejaVuSans-32"/>
      <use x="311.8125" xlink:href="#DejaVuSans-102"/>
      <use x="347.017578" xlink:href="#DejaVuSans-111"/>
      <use x="408.199219" xlink:href="#DejaVuSans-114"/>
      <use x="449.3125" xlink:href="#DejaVuSans-32"/>
      <use x="481.099609" xlink:href="#DejaVuSans-99"/>
      <use x="536.080078" xlink:href="#DejaVuSans-117"/>
      <use x="599.458984" xlink:href="#DejaVuSans-109"/>
      <use x="696.871094" xlink:href="#DejaVuSans-117"/>
      <use x="760.25" xlink:href="#DejaVuSans-108"/>
      <use x="788.033203" xlink:href="#DejaVuSans-97"/>
      <use x="849.3125" xlink:href="#DejaVuSans-116"/>
      <use x="888.521484" xlink:href="#DejaVuSans-105"/>
      <use x="916.304688" xlink:href="#DejaVuSans-118"/>
      <use x="975.484375" xlink:href="#DejaVuSans-101"/>
      <use x="1037.007812" xlink:href="#DejaVuSans-32"/>
      <use x="1068.794922" xlink:href="#DejaVuSans-100"/>
      <use x="1132.271484" xlink:href="#DejaVuSans-101"/>
      <use x="1193.794922" xlink:href="#DejaVuSans-97"/>
      <use x="1255.074219" xlink:href="#DejaVuSans-116"/>
      <use x="1294.283203" xlink:href="#DejaVuSans-104"/>
      <use x="1357.662109" xlink:href="#DejaVuSans-115"/>
     </g>
    </g>
   </g>
   <g id="line2d_30">
    <path clip-path="url(#p37592fb415)" d="M 65.405908 96.553993 
L 67.752065 103.982891 
L 70.098221 107.210333 
L 72.444378 105.149151 
L 74.790534 108.442352 
L 77.136691 112.167418 
L 79.482847 113.37188 
L 81.829004 91.3476 
L 84.17516 114.605046 
L 86.521317 107.088007 
L 88.867473 109.469829 
L 91.21363 106.364907 
L 93.559786 92.813524 
L 95.905943 106.035088 
L 98.252099 112.068632 
L 100.598256 125.418042 
L 102.944413 88.094594 
L 105.290569 91.519228 
L 107.636726 81.549323 
L 109.982882 83.259885 
L 112.329039 101.797783 
L 114.675195 93.773596 
L 117.021352 87.513186 
L 119.367508 85.391803 
L 121.713665 83.705574 
L 124.059821 87.583132 
L 126.405978 100.309189 
L 128.752134 133.666457 
L 131.098291 120.439792 
L 133.444447 112.174307 
L 135.790604 112.994408 
L 138.13676 125.164165 
L 140.482917 112.581727 
L 142.829073 113.984156 
L 145.17523 118.151098 
L 147.521386 138.258965 
L 149.867543 139.009431 
L 152.2137 110.312502 
L 154.559856 120.541525 
L 156.906013 129.833037 
L 159.252169 116.121774 
L 161.598326 95.20384 
L 163.944482 106.766367 
L 166.290639 90.69906 
L 168.636795 81.507594 
L 170.982952 72.728183 
L 173.329108 66.976989 
L 175.675265 77.95709 
L 178.021421 70.984768 
L 180.367578 77.046259 
L 182.713734 74.576381 
L 185.059891 88.068567 
L 187.406047 77.119964 
L 189.752204 62.779317 
L 192.09836 63.740566 
L 194.444517 68.582438 
L 196.790673 80.741501 
L 199.13683 58.847138 
L 201.482986 55.892503 
L 203.829143 50.071156 
L 206.1753 54.901287 
L 208.521456 35.432606 
L 210.867613 42.048594 
L 213.213769 51.272695 
L 215.559926 64.327866 
L 217.906082 95.540582 
L 220.252239 75.395238 
L 222.598395 86.544162 
L 224.944552 93.336917 
L 227.290708 92.58365 
L 229.636865 106.400899 
L 231.983021 106.124007 
L 234.329178 109.069225 
L 236.675334 87.094242 
L 239.021491 83.677536 
L 241.367647 89.496191 
L 243.713804 88.556538 
L 246.05996 75.948711 
L 248.406117 68.225541 
L 250.752273 79.391473 
L 253.09843 114.922513 
L 255.444587 115.756835 
" style="fill:none;stroke:#000080;stroke-linecap:square;stroke-width:1.5;"/>
    <defs>
     <path d="M 0 3 
C 0.795609 3 1.55874 2.683901 2.12132 2.12132 
C 2.683901 1.55874 3 0.795609 3 0 
C 3 -0.795609 2.683901 -1.55874 2.12132 -2.12132 
C 1.55874 -2.683901 0.795609 -3 0 -3 
C -0.795609 -3 -1.55874 -2.683901 -2.12132 -2.12132 
C -2.683901 -1.55874 -3 -0.795609 -3 0 
C -3 0.795609 -2.683901 1.55874 -2.12132 2.12132 
C -1.55874 2.683901 -0.795609 3 0 3 
z
" id="md4923e4960" style="stroke:#000080;"/>
    </defs>
    <g clip-path="url(#p37592fb415)">
     <use style="fill:#000080;stroke:#000080;" x="65.405908" xlink:href="#md4923e4960" y="96.553993"/>
     <use style="fill:#000080;stroke:#000080;" x="67.752065" xlink:href="#md4923e4960" y="103.982891"/>
     <use style="fill:#000080;stroke:#000080;" x="70.098221" xlink:href="#md4923e4960" y="107.210333"/>
     <use style="fill:#000080;stroke:#000080;" x="72.444378" xlink:href="#md4923e4960" y="105.149151"/>
     <use style="fill:#000080;stroke:#000080;" x="74.790534" xlink:href="#md4923e4960" y="108.442352"/>
     <use style="fill:#000080;stroke:#000080;" x="77.136691" xlink:href="#md4923e4960" y="112.167418"/>
     <use style="fill:#000080;stroke:#000080;" x="79.482847" xlink:href="#md4923e4960" y="113.37188"/>
     <use style="fill:#000080;stroke:#000080;" x="81.829004" xlink:href="#md4923e4960" y="91.3476"/>
     <use style="fill:#000080;stroke:#000080;" x="84.17516" xlink:href="#md4923e4960" y="114.605046"/>
     <use style="fill:#000080;stroke:#000080;" x="86.521317" xlink:href="#md4923e4960" y="107.088007"/>
     <use style="fill:#000080;stroke:#000080;" x="88.867473" xlink:href="#md4923e4960" y="109.469829"/>
     <use style="fill:#000080;stroke:#000080;" x="91.21363" xlink:href="#md4923e4960" y="106.364907"/>
     <use style="fill:#000080;stroke:#000080;" x="93.559786" xlink:href="#md4923e4960" y="92.813524"/>
     <use style="fill:#000080;stroke:#000080;" x="95.905943" xlink:href="#md4923e4960" y="106.035088"/>
     <use style="fill:#000080;stroke:#000080;" x="98.252099" xlink:href="#md4923e4960" y="112.068632"/>
     <use style="fill:#000080;stroke:#000080;" x="100.598256" xlink:href="#md4923e4960" y="125.418042"/>
     <use style="fill:#000080;stroke:#000080;" x="102.944413" xlink:href="#md4923e4960" y="88.094594"/>
     <use style="fill:#000080;stroke:#000080;" x="105.290569" xlink:href="#md4923e4960" y="91.519228"/>
     <use style="fill:#000080;stroke:#000080;" x="107.636726" xlink:href="#md4923e4960" y="81.549323"/>
     <use style="fill:#000080;stroke:#000080;" x="109.982882" xlink:href="#md4923e4960" y="83.259885"/>
     <use style="fill:#000080;stroke:#000080;" x="112.329039" xlink:href="#md4923e4960" y="101.797783"/>
     <use style="fill:#000080;stroke:#000080;" x="114.675195" xlink:href="#md4923e4960" y="93.773596"/>
     <use style="fill:#000080;stroke:#000080;" x="117.021352" xlink:href="#md4923e4960" y="87.513186"/>
     <use style="fill:#000080;stroke:#000080;" x="119.367508" xlink:href="#md4923e4960" y="85.391803"/>
     <use style="fill:#000080;stroke:#000080;" x="121.713665" xlink:href="#md4923e4960" y="83.705574"/>
     <use style="fill:#000080;stroke:#000080;" x="124.059821" xlink:href="#md4923e4960" y="87.583132"/>
     <use style="fill:#000080;stroke:#000080;" x="126.405978" xlink:href="#md4923e4960" y="100.309189"/>
     <use style="fill:#000080;stroke:#000080;" x="128.752134" xlink:href="#md4923e4960" y="133.666457"/>
     <use style="fill:#000080;stroke:#000080;" x="131.098291" xlink:href="#md4923e4960" y="120.439792"/>
     <use style="fill:#000080;stroke:#000080;" x="133.444447" xlink:href="#md4923e4960" y="112.174307"/>
     <use style="fill:#000080;stroke:#000080;" x="135.790604" xlink:href="#md4923e4960" y="112.994408"/>
     <use style="fill:#000080;stroke:#000080;" x="138.13676" xlink:href="#md4923e4960" y="125.164165"/>
     <use style="fill:#000080;stroke:#000080;" x="140.482917" xlink:href="#md4923e4960" y="112.581727"/>
     <use style="fill:#000080;stroke:#000080;" x="142.829073" xlink:href="#md4923e4960" y="113.984156"/>
     <use style="fill:#000080;stroke:#000080;" x="145.17523" xlink:href="#md4923e4960" y="118.151098"/>
     <use style="fill:#000080;stroke:#000080;" x="147.521386" xlink:href="#md4923e4960" y="138.258965"/>
     <use style="fill:#000080;stroke:#000080;" x="149.867543" xlink:href="#md4923e4960" y="139.009431"/>
     <use style="fill:#000080;stroke:#000080;" x="152.2137" xlink:href="#md4923e4960" y="110.312502"/>
     <use style="fill:#000080;stroke:#000080;" x="154.559856" xlink:href="#md4923e4960" y="120.541525"/>
     <use style="fill:#000080;stroke:#000080;" x="156.906013" xlink:href="#md4923e4960" y="129.833037"/>
     <use style="fill:#000080;stroke:#000080;" x="159.252169" xlink:href="#md4923e4960" y="116.121774"/>
     <use style="fill:#000080;stroke:#000080;" x="161.598326" xlink:href="#md4923e4960" y="95.20384"/>
     <use style="fill:#000080;stroke:#000080;" x="163.944482" xlink:href="#md4923e4960" y="106.766367"/>
     <use style="fill:#000080;stroke:#000080;" x="166.290639" xlink:href="#md4923e4960" y="90.69906"/>
     <use style="fill:#000080;stroke:#000080;" x="168.636795" xlink:href="#md4923e4960" y="81.507594"/>
     <use style="fill:#000080;stroke:#000080;" x="170.982952" xlink:href="#md4923e4960" y="72.728183"/>
     <use style="fill:#000080;stroke:#000080;" x="173.329108" xlink:href="#md4923e4960" y="66.976989"/>
     <use style="fill:#000080;stroke:#000080;" x="175.675265" xlink:href="#md4923e4960" y="77.95709"/>
     <use style="fill:#000080;stroke:#000080;" x="178.021421" xlink:href="#md4923e4960" y="70.984768"/>
     <use style="fill:#000080;stroke:#000080;" x="180.367578" xlink:href="#md4923e4960" y="77.046259"/>
     <use style="fill:#000080;stroke:#000080;" x="182.713734" xlink:href="#md4923e4960" y="74.576381"/>
     <use style="fill:#000080;stroke:#000080;" x="185.059891" xlink:href="#md4923e4960" y="88.068567"/>
     <use style="fill:#000080;stroke:#000080;" x="187.406047" xlink:href="#md4923e4960" y="77.119964"/>
     <use style="fill:#000080;stroke:#000080;" x="189.752204" xlink:href="#md4923e4960" y="62.779317"/>
     <use style="fill:#000080;stroke:#000080;" x="192.09836" xlink:href="#md4923e4960" y="63.740566"/>
     <use style="fill:#000080;stroke:#000080;" x="194.444517" xlink:href="#md4923e4960" y="68.582438"/>
     <use style="fill:#000080;stroke:#000080;" x="196.790673" xlink:href="#md4923e4960" y="80.741501"/>
     <use style="fill:#000080;stroke:#000080;" x="199.13683" xlink:href="#md4923e4960" y="58.847138"/>
     <use style="fill:#000080;stroke:#000080;" x="201.482986" xlink:href="#md4923e4960" y="55.892503"/>
     <use style="fill:#000080;stroke:#000080;" x="203.829143" xlink:href="#md4923e4960" y="50.071156"/>
     <use style="fill:#000080;stroke:#000080;" x="206.1753" xlink:href="#md4923e4960" y="54.901287"/>
     <use style="fill:#000080;stroke:#000080;" x="208.521456" xlink:href="#md4923e4960" y="35.432606"/>
     <use style="fill:#000080;stroke:#000080;" x="210.867613" xlink:href="#md4923e4960" y="42.048594"/>
     <use style="fill:#000080;stroke:#000080;" x="213.213769" xlink:href="#md4923e4960" y="51.272695"/>
     <use style="fill:#000080;stroke:#000080;" x="215.559926" xlink:href="#md4923e4960" y="64.327866"/>
     <use style="fill:#000080;stroke:#000080;" x="217.906082" xlink:href="#md4923e4960" y="95.540582"/>
     <use style="fill:#000080;stroke:#000080;" x="220.252239" xlink:href="#md4923e4960" y="75.395238"/>
     <use style="fill:#000080;stroke:#000080;" x="222.598395" xlink:href="#md4923e4960" y="86.544162"/>
     <use style="fill:#000080;stroke:#000080;" x="224.944552" xlink:href="#md4923e4960" y="93.336917"/>
     <use style="fill:#000080;stroke:#000080;" x="227.290708" xlink:href="#md4923e4960" y="92.58365"/>
     <use style="fill:#000080;stroke:#000080;" x="229.636865" xlink:href="#md4923e4960" y="106.400899"/>
     <use style="fill:#000080;stroke:#000080;" x="231.983021" xlink:href="#md4923e4960" y="106.124007"/>
     <use style="fill:#000080;stroke:#000080;" x="234.329178" xlink:href="#md4923e4960" y="109.069225"/>
     <use style="fill:#000080;stroke:#000080;" x="236.675334" xlink:href="#md4923e4960" y="87.094242"/>
     <use style="fill:#000080;stroke:#000080;" x="239.021491" xlink:href="#md4923e4960" y="83.677536"/>
     <use style="fill:#000080;stroke:#000080;" x="241.367647" xlink:href="#md4923e4960" y="89.496191"/>
     <use style="fill:#000080;stroke:#000080;" x="243.713804" xlink:href="#md4923e4960" y="88.556538"/>
     <use style="fill:#000080;stroke:#000080;" x="246.05996" xlink:href="#md4923e4960" y="75.948711"/>
     <use style="fill:#000080;stroke:#000080;" x="248.406117" xlink:href="#md4923e4960" y="68.225541"/>
     <use style="fill:#000080;stroke:#000080;" x="250.752273" xlink:href="#md4923e4960" y="79.391473"/>
     <use style="fill:#000080;stroke:#000080;" x="253.09843" xlink:href="#md4923e4960" y="114.922513"/>
     <use style="fill:#000080;stroke:#000080;" x="255.444587" xlink:href="#md4923e4960" y="115.756835"/>
    </g>
   </g>
   <g id="line2d_31">
    <path clip-path="url(#p37592fb415)" d="M 60.713595 143.262125 
L 63.059752 127.489599 
L 65.405908 85.29287 
L 67.752065 107.68709 
L 70.098221 104.938861 
L 72.444378 105.104489 
L 74.790534 107.248331 
L 77.136691 97.182616 
L 79.482847 92.210659 
L 81.829004 110.18578 
L 84.17516 130.254757 
L 86.521317 100.490394 
L 88.867473 121.089204 
L 91.21363 118.840906 
L 93.559786 106.270804 
L 95.905943 108.822074 
L 98.252099 99.681154 
L 100.598256 95.476704 
L 102.944413 95.802315 
L 105.290569 98.415703 
L 107.636726 88.845378 
L 109.982882 95.573972 
L 112.329039 88.675313 
L 114.675195 87.067228 
L 117.021352 91.837409 
L 119.367508 85.803465 
L 121.713665 88.322733 
L 124.059821 94.314928 
L 126.405978 96.148779 
L 128.752134 98.38006 
L 131.098291 123.618156 
L 133.444447 120.518202 
L 135.790604 137.529244 
L 138.13676 136.033078 
L 140.482917 122.820075 
L 142.829073 99.708323 
L 145.17523 118.403011 
L 147.521386 129.956349 
L 149.867543 152.579101 
L 152.2137 114.037811 
L 154.559856 131.24562 
L 156.906013 135.938612 
L 159.252169 117.376435 
L 161.598326 112.785343 
L 163.944482 113.528047 
L 166.290639 114.039993 
L 168.636795 81.347808 
L 170.982952 56.935353 
L 173.329108 53.068231 
L 175.675265 76.891377 
L 178.021421 79.276797 
L 180.367578 80.662078 
L 182.713734 83.040875 
L 185.059891 84.49913 
L 187.406047 75.974832 
L 189.752204 70.779487 
L 192.09836 72.955129 
L 194.444517 74.413147 
L 196.790673 84.079342 
L 199.13683 65.212678 
L 201.482986 67.105716 
L 203.829143 51.565468 
L 206.1753 61.355918 
L 208.521456 80.007742 
L 210.867613 65.346129 
L 213.213769 68.08753 
L 215.559926 77.652998 
L 217.906082 97.857408 
L 220.252239 88.847931 
L 222.598395 95.846423 
L 224.944552 124.987892 
L 227.290708 155.607997 
L 229.636865 101.613719 
L 231.983021 101.070225 
L 234.329178 111.703394 
L 236.675334 96.725267 
L 239.021491 101.622362 
L 241.367647 106.371604 
L 243.713804 107.281814 
L 246.05996 117.874136 
L 248.406117 98.504124 
L 250.752273 83.590821 
L 253.09843 89.50123 
L 255.444587 84.674821 
" style="fill:none;stroke:#00d4ff;stroke-linecap:square;stroke-width:1.5;"/>
    <defs>
     <path d="M 0 3 
C 0.795609 3 1.55874 2.683901 2.12132 2.12132 
C 2.683901 1.55874 3 0.795609 3 0 
C 3 -0.795609 2.683901 -1.55874 2.12132 -2.12132 
C 1.55874 -2.683901 0.795609 -3 0 -3 
C -0.795609 -3 -1.55874 -2.683901 -2.12132 -2.12132 
C -2.683901 -1.55874 -3 -0.795609 -3 0 
C -3 0.795609 -2.683901 1.55874 -2.12132 2.12132 
C -1.55874 2.683901 -0.795609 3 0 3 
z
" id="m90976faac6" style="stroke:#00d4ff;"/>
    </defs>
    <g clip-path="url(#p37592fb415)">
     <use style="fill:#00d4ff;stroke:#00d4ff;" x="60.713595" xlink:href="#m90976faac6" y="143.262125"/>
     <use style="fill:#00d4ff;stroke:#00d4ff;" x="63.059752" xlink:href="#m90976faac6" y="127.489599"/>
     <use style="fill:#00d4ff;stroke:#00d4ff;" x="65.405908" xlink:href="#m90976faac6" y="85.29287"/>
     <use style="fill:#00d4ff;stroke:#00d4ff;" x="67.752065" xlink:href="#m90976faac6" y="107.68709"/>
     <use style="fill:#00d4ff;stroke:#00d4ff;" x="70.098221" xlink:href="#m90976faac6" y="104.938861"/>
     <use style="fill:#00d4ff;stroke:#00d4ff;" x="72.444378" xlink:href="#m90976faac6" y="105.104489"/>
     <use style="fill:#00d4ff;stroke:#00d4ff;" x="74.790534" xlink:href="#m90976faac6" y="107.248331"/>
     <use style="fill:#00d4ff;stroke:#00d4ff;" x="77.136691" xlink:href="#m90976faac6" y="97.182616"/>
     <use style="fill:#00d4ff;stroke:#00d4ff;" x="79.482847" xlink:href="#m90976faac6" y="92.210659"/>
     <use style="fill:#00d4ff;stroke:#00d4ff;" x="81.829004" xlink:href="#m90976faac6" y="110.18578"/>
     <use style="fill:#00d4ff;stroke:#00d4ff;" x="84.17516" xlink:href="#m90976faac6" y="130.254757"/>
     <use style="fill:#00d4ff;stroke:#00d4ff;" x="86.521317" xlink:href="#m90976faac6" y="100.490394"/>
     <use style="fill:#00d4ff;stroke:#00d4ff;" x="88.867473" xlink:href="#m90976faac6" y="121.089204"/>
     <use style="fill:#00d4ff;stroke:#00d4ff;" x="91.21363" xlink:href="#m90976faac6" y="118.840906"/>
     <use style="fill:#00d4ff;stroke:#00d4ff;" x="93.559786" xlink:href="#m90976faac6" y="106.270804"/>
     <use style="fill:#00d4ff;stroke:#00d4ff;" x="95.905943" xlink:href="#m90976faac6" y="108.822074"/>
     <use style="fill:#00d4ff;stroke:#00d4ff;" x="98.252099" xlink:href="#m90976faac6" y="99.681154"/>
     <use style="fill:#00d4ff;stroke:#00d4ff;" x="100.598256" xlink:href="#m90976faac6" y="95.476704"/>
     <use style="fill:#00d4ff;stroke:#00d4ff;" x="102.944413" xlink:href="#m90976faac6" y="95.802315"/>
     <use style="fill:#00d4ff;stroke:#00d4ff;" x="105.290569" xlink:href="#m90976faac6" y="98.415703"/>
     <use style="fill:#00d4ff;stroke:#00d4ff;" x="107.636726" xlink:href="#m90976faac6" y="88.845378"/>
     <use style="fill:#00d4ff;stroke:#00d4ff;" x="109.982882" xlink:href="#m90976faac6" y="95.573972"/>
     <use style="fill:#00d4ff;stroke:#00d4ff;" x="112.329039" xlink:href="#m90976faac6" y="88.675313"/>
     <use style="fill:#00d4ff;stroke:#00d4ff;" x="114.675195" xlink:href="#m90976faac6" y="87.067228"/>
     <use style="fill:#00d4ff;stroke:#00d4ff;" x="117.021352" xlink:href="#m90976faac6" y="91.837409"/>
     <use style="fill:#00d4ff;stroke:#00d4ff;" x="119.367508" xlink:href="#m90976faac6" y="85.803465"/>
     <use style="fill:#00d4ff;stroke:#00d4ff;" x="121.713665" xlink:href="#m90976faac6" y="88.322733"/>
     <use style="fill:#00d4ff;stroke:#00d4ff;" x="124.059821" xlink:href="#m90976faac6" y="94.314928"/>
     <use style="fill:#00d4ff;stroke:#00d4ff;" x="126.405978" xlink:href="#m90976faac6" y="96.148779"/>
     <use style="fill:#00d4ff;stroke:#00d4ff;" x="128.752134" xlink:href="#m90976faac6" y="98.38006"/>
     <use style="fill:#00d4ff;stroke:#00d4ff;" x="131.098291" xlink:href="#m90976faac6" y="123.618156"/>
     <use style="fill:#00d4ff;stroke:#00d4ff;" x="133.444447" xlink:href="#m90976faac6" y="120.518202"/>
     <use style="fill:#00d4ff;stroke:#00d4ff;" x="135.790604" xlink:href="#m90976faac6" y="137.529244"/>
     <use style="fill:#00d4ff;stroke:#00d4ff;" x="138.13676" xlink:href="#m90976faac6" y="136.033078"/>
     <use style="fill:#00d4ff;stroke:#00d4ff;" x="140.482917" xlink:href="#m90976faac6" y="122.820075"/>
     <use style="fill:#00d4ff;stroke:#00d4ff;" x="142.829073" xlink:href="#m90976faac6" y="99.708323"/>
     <use style="fill:#00d4ff;stroke:#00d4ff;" x="145.17523" xlink:href="#m90976faac6" y="118.403011"/>
     <use style="fill:#00d4ff;stroke:#00d4ff;" x="147.521386" xlink:href="#m90976faac6" y="129.956349"/>
     <use style="fill:#00d4ff;stroke:#00d4ff;" x="149.867543" xlink:href="#m90976faac6" y="152.579101"/>
     <use style="fill:#00d4ff;stroke:#00d4ff;" x="152.2137" xlink:href="#m90976faac6" y="114.037811"/>
     <use style="fill:#00d4ff;stroke:#00d4ff;" x="154.559856" xlink:href="#m90976faac6" y="131.24562"/>
     <use style="fill:#00d4ff;stroke:#00d4ff;" x="156.906013" xlink:href="#m90976faac6" y="135.938612"/>
     <use style="fill:#00d4ff;stroke:#00d4ff;" x="159.252169" xlink:href="#m90976faac6" y="117.376435"/>
     <use style="fill:#00d4ff;stroke:#00d4ff;" x="161.598326" xlink:href="#m90976faac6" y="112.785343"/>
     <use style="fill:#00d4ff;stroke:#00d4ff;" x="163.944482" xlink:href="#m90976faac6" y="113.528047"/>
     <use style="fill:#00d4ff;stroke:#00d4ff;" x="166.290639" xlink:href="#m90976faac6" y="114.039993"/>
     <use style="fill:#00d4ff;stroke:#00d4ff;" x="168.636795" xlink:href="#m90976faac6" y="81.347808"/>
     <use style="fill:#00d4ff;stroke:#00d4ff;" x="170.982952" xlink:href="#m90976faac6" y="56.935353"/>
     <use style="fill:#00d4ff;stroke:#00d4ff;" x="173.329108" xlink:href="#m90976faac6" y="53.068231"/>
     <use style="fill:#00d4ff;stroke:#00d4ff;" x="175.675265" xlink:href="#m90976faac6" y="76.891377"/>
     <use style="fill:#00d4ff;stroke:#00d4ff;" x="178.021421" xlink:href="#m90976faac6" y="79.276797"/>
     <use style="fill:#00d4ff;stroke:#00d4ff;" x="180.367578" xlink:href="#m90976faac6" y="80.662078"/>
     <use style="fill:#00d4ff;stroke:#00d4ff;" x="182.713734" xlink:href="#m90976faac6" y="83.040875"/>
     <use style="fill:#00d4ff;stroke:#00d4ff;" x="185.059891" xlink:href="#m90976faac6" y="84.49913"/>
     <use style="fill:#00d4ff;stroke:#00d4ff;" x="187.406047" xlink:href="#m90976faac6" y="75.974832"/>
     <use style="fill:#00d4ff;stroke:#00d4ff;" x="189.752204" xlink:href="#m90976faac6" y="70.779487"/>
     <use style="fill:#00d4ff;stroke:#00d4ff;" x="192.09836" xlink:href="#m90976faac6" y="72.955129"/>
     <use style="fill:#00d4ff;stroke:#00d4ff;" x="194.444517" xlink:href="#m90976faac6" y="74.413147"/>
     <use style="fill:#00d4ff;stroke:#00d4ff;" x="196.790673" xlink:href="#m90976faac6" y="84.079342"/>
     <use style="fill:#00d4ff;stroke:#00d4ff;" x="199.13683" xlink:href="#m90976faac6" y="65.212678"/>
     <use style="fill:#00d4ff;stroke:#00d4ff;" x="201.482986" xlink:href="#m90976faac6" y="67.105716"/>
     <use style="fill:#00d4ff;stroke:#00d4ff;" x="203.829143" xlink:href="#m90976faac6" y="51.565468"/>
     <use style="fill:#00d4ff;stroke:#00d4ff;" x="206.1753" xlink:href="#m90976faac6" y="61.355918"/>
     <use style="fill:#00d4ff;stroke:#00d4ff;" x="208.521456" xlink:href="#m90976faac6" y="80.007742"/>
     <use style="fill:#00d4ff;stroke:#00d4ff;" x="210.867613" xlink:href="#m90976faac6" y="65.346129"/>
     <use style="fill:#00d4ff;stroke:#00d4ff;" x="213.213769" xlink:href="#m90976faac6" y="68.08753"/>
     <use style="fill:#00d4ff;stroke:#00d4ff;" x="215.559926" xlink:href="#m90976faac6" y="77.652998"/>
     <use style="fill:#00d4ff;stroke:#00d4ff;" x="217.906082" xlink:href="#m90976faac6" y="97.857408"/>
     <use style="fill:#00d4ff;stroke:#00d4ff;" x="220.252239" xlink:href="#m90976faac6" y="88.847931"/>
     <use style="fill:#00d4ff;stroke:#00d4ff;" x="222.598395" xlink:href="#m90976faac6" y="95.846423"/>
     <use style="fill:#00d4ff;stroke:#00d4ff;" x="224.944552" xlink:href="#m90976faac6" y="124.987892"/>
     <use style="fill:#00d4ff;stroke:#00d4ff;" x="227.290708" xlink:href="#m90976faac6" y="155.607997"/>
     <use style="fill:#00d4ff;stroke:#00d4ff;" x="229.636865" xlink:href="#m90976faac6" y="101.613719"/>
     <use style="fill:#00d4ff;stroke:#00d4ff;" x="231.983021" xlink:href="#m90976faac6" y="101.070225"/>
     <use style="fill:#00d4ff;stroke:#00d4ff;" x="234.329178" xlink:href="#m90976faac6" y="111.703394"/>
     <use style="fill:#00d4ff;stroke:#00d4ff;" x="236.675334" xlink:href="#m90976faac6" y="96.725267"/>
     <use style="fill:#00d4ff;stroke:#00d4ff;" x="239.021491" xlink:href="#m90976faac6" y="101.622362"/>
     <use style="fill:#00d4ff;stroke:#00d4ff;" x="241.367647" xlink:href="#m90976faac6" y="106.371604"/>
     <use style="fill:#00d4ff;stroke:#00d4ff;" x="243.713804" xlink:href="#m90976faac6" y="107.281814"/>
     <use style="fill:#00d4ff;stroke:#00d4ff;" x="246.05996" xlink:href="#m90976faac6" y="117.874136"/>
     <use style="fill:#00d4ff;stroke:#00d4ff;" x="248.406117" xlink:href="#m90976faac6" y="98.504124"/>
     <use style="fill:#00d4ff;stroke:#00d4ff;" x="250.752273" xlink:href="#m90976faac6" y="83.590821"/>
     <use style="fill:#00d4ff;stroke:#00d4ff;" x="253.09843" xlink:href="#m90976faac6" y="89.50123"/>
     <use style="fill:#00d4ff;stroke:#00d4ff;" x="255.444587" xlink:href="#m90976faac6" y="84.674821"/>
    </g>
   </g>
   <g id="line2d_32">
    <path clip-path="url(#p37592fb415)" d="M 60.713595 139.930077 
L 63.059752 131.606364 
L 65.405908 133.931364 
L 67.752065 124.796726 
L 70.098221 111.277106 
L 72.444378 110.082249 
L 74.790534 113.19048 
L 77.136691 102.538906 
L 79.482847 107.041681 
L 81.829004 91.516608 
L 84.17516 102.651632 
L 86.521317 104.693113 
L 88.867473 128.826138 
L 91.21363 112.171569 
L 93.559786 100.968133 
L 95.905943 107.409569 
L 98.252099 88.576736 
L 100.598256 95.378378 
L 102.944413 81.900999 
L 105.290569 90.905494 
L 107.636726 78.158146 
L 109.982882 84.172871 
L 112.329039 85.44877 
L 114.675195 84.737815 
L 117.021352 88.352891 
L 119.367508 98.026346 
L 121.713665 103.782789 
L 124.059821 115.76731 
L 126.405978 124.887775 
L 128.752134 120.608737 
L 131.098291 132.699286 
L 133.444447 130.650082 
L 135.790604 113.253458 
L 138.13676 123.052876 
L 140.482917 117.837722 
L 142.829073 104.306269 
L 145.17523 107.065882 
L 147.521386 130.750013 
L 149.867543 148.339233 
L 152.2137 108.464868 
L 154.559856 108.365281 
L 156.906013 93.540164 
L 159.252169 104.318708 
L 161.598326 102.637436 
L 163.944482 104.255293 
L 166.290639 93.081234 
L 168.636795 96.604574 
L 170.982952 101.528234 
L 173.329108 81.742728 
L 175.675265 87.09657 
L 178.021421 88.266189 
L 180.367578 87.548394 
L 182.713734 99.786109 
L 185.059891 87.273918 
L 187.406047 76.387774 
L 189.752204 75.753828 
L 192.09836 58.649311 
L 194.444517 65.842639 
L 196.790673 56.475883 
L 199.13683 68.045351 
L 201.482986 73.766993 
L 203.829143 71.656299 
L 206.1753 52.173531 
L 208.521456 59.419451 
L 210.867613 60.260225 
L 213.213769 72.393895 
L 215.559926 73.522909 
L 217.906082 101.234794 
L 220.252239 102.60874 
L 222.598395 98.660384 
L 224.944552 100.497618 
L 227.290708 110.265912 
L 229.636865 112.97073 
L 231.983021 83.021098 
L 234.329178 98.470479 
L 236.675334 81.22126 
L 239.021491 78.50373 
L 241.367647 92.679258 
L 243.713804 100.215186 
L 246.05996 111.476051 
L 248.406117 107.163194 
L 250.752273 76.379375 
L 253.09843 91.68508 
L 255.444587 107.140921 
" style="fill:none;stroke:#ffe600;stroke-linecap:square;stroke-width:1.5;"/>
    <defs>
     <path d="M 0 3 
C 0.795609 3 1.55874 2.683901 2.12132 2.12132 
C 2.683901 1.55874 3 0.795609 3 0 
C 3 -0.795609 2.683901 -1.55874 2.12132 -2.12132 
C 1.55874 -2.683901 0.795609 -3 0 -3 
C -0.795609 -3 -1.55874 -2.683901 -2.12132 -2.12132 
C -2.683901 -1.55874 -3 -0.795609 -3 0 
C -3 0.795609 -2.683901 1.55874 -2.12132 2.12132 
C -1.55874 2.683901 -0.795609 3 0 3 
z
" id="m3e47c7dfb6" style="stroke:#ffe600;"/>
    </defs>
    <g clip-path="url(#p37592fb415)">
     <use style="fill:#ffe600;stroke:#ffe600;" x="60.713595" xlink:href="#m3e47c7dfb6" y="139.930077"/>
     <use style="fill:#ffe600;stroke:#ffe600;" x="63.059752" xlink:href="#m3e47c7dfb6" y="131.606364"/>
     <use style="fill:#ffe600;stroke:#ffe600;" x="65.405908" xlink:href="#m3e47c7dfb6" y="133.931364"/>
     <use style="fill:#ffe600;stroke:#ffe600;" x="67.752065" xlink:href="#m3e47c7dfb6" y="124.796726"/>
     <use style="fill:#ffe600;stroke:#ffe600;" x="70.098221" xlink:href="#m3e47c7dfb6" y="111.277106"/>
     <use style="fill:#ffe600;stroke:#ffe600;" x="72.444378" xlink:href="#m3e47c7dfb6" y="110.082249"/>
     <use style="fill:#ffe600;stroke:#ffe600;" x="74.790534" xlink:href="#m3e47c7dfb6" y="113.19048"/>
     <use style="fill:#ffe600;stroke:#ffe600;" x="77.136691" xlink:href="#m3e47c7dfb6" y="102.538906"/>
     <use style="fill:#ffe600;stroke:#ffe600;" x="79.482847" xlink:href="#m3e47c7dfb6" y="107.041681"/>
     <use style="fill:#ffe600;stroke:#ffe600;" x="81.829004" xlink:href="#m3e47c7dfb6" y="91.516608"/>
     <use style="fill:#ffe600;stroke:#ffe600;" x="84.17516" xlink:href="#m3e47c7dfb6" y="102.651632"/>
     <use style="fill:#ffe600;stroke:#ffe600;" x="86.521317" xlink:href="#m3e47c7dfb6" y="104.693113"/>
     <use style="fill:#ffe600;stroke:#ffe600;" x="88.867473" xlink:href="#m3e47c7dfb6" y="128.826138"/>
     <use style="fill:#ffe600;stroke:#ffe600;" x="91.21363" xlink:href="#m3e47c7dfb6" y="112.171569"/>
     <use style="fill:#ffe600;stroke:#ffe600;" x="93.559786" xlink:href="#m3e47c7dfb6" y="100.968133"/>
     <use style="fill:#ffe600;stroke:#ffe600;" x="95.905943" xlink:href="#m3e47c7dfb6" y="107.409569"/>
     <use style="fill:#ffe600;stroke:#ffe600;" x="98.252099" xlink:href="#m3e47c7dfb6" y="88.576736"/>
     <use style="fill:#ffe600;stroke:#ffe600;" x="100.598256" xlink:href="#m3e47c7dfb6" y="95.378378"/>
     <use style="fill:#ffe600;stroke:#ffe600;" x="102.944413" xlink:href="#m3e47c7dfb6" y="81.900999"/>
     <use style="fill:#ffe600;stroke:#ffe600;" x="105.290569" xlink:href="#m3e47c7dfb6" y="90.905494"/>
     <use style="fill:#ffe600;stroke:#ffe600;" x="107.636726" xlink:href="#m3e47c7dfb6" y="78.158146"/>
     <use style="fill:#ffe600;stroke:#ffe600;" x="109.982882" xlink:href="#m3e47c7dfb6" y="84.172871"/>
     <use style="fill:#ffe600;stroke:#ffe600;" x="112.329039" xlink:href="#m3e47c7dfb6" y="85.44877"/>
     <use style="fill:#ffe600;stroke:#ffe600;" x="114.675195" xlink:href="#m3e47c7dfb6" y="84.737815"/>
     <use style="fill:#ffe600;stroke:#ffe600;" x="117.021352" xlink:href="#m3e47c7dfb6" y="88.352891"/>
     <use style="fill:#ffe600;stroke:#ffe600;" x="119.367508" xlink:href="#m3e47c7dfb6" y="98.026346"/>
     <use style="fill:#ffe600;stroke:#ffe600;" x="121.713665" xlink:href="#m3e47c7dfb6" y="103.782789"/>
     <use style="fill:#ffe600;stroke:#ffe600;" x="124.059821" xlink:href="#m3e47c7dfb6" y="115.76731"/>
     <use style="fill:#ffe600;stroke:#ffe600;" x="126.405978" xlink:href="#m3e47c7dfb6" y="124.887775"/>
     <use style="fill:#ffe600;stroke:#ffe600;" x="128.752134" xlink:href="#m3e47c7dfb6" y="120.608737"/>
     <use style="fill:#ffe600;stroke:#ffe600;" x="131.098291" xlink:href="#m3e47c7dfb6" y="132.699286"/>
     <use style="fill:#ffe600;stroke:#ffe600;" x="133.444447" xlink:href="#m3e47c7dfb6" y="130.650082"/>
     <use style="fill:#ffe600;stroke:#ffe600;" x="135.790604" xlink:href="#m3e47c7dfb6" y="113.253458"/>
     <use style="fill:#ffe600;stroke:#ffe600;" x="138.13676" xlink:href="#m3e47c7dfb6" y="123.052876"/>
     <use style="fill:#ffe600;stroke:#ffe600;" x="140.482917" xlink:href="#m3e47c7dfb6" y="117.837722"/>
     <use style="fill:#ffe600;stroke:#ffe600;" x="142.829073" xlink:href="#m3e47c7dfb6" y="104.306269"/>
     <use style="fill:#ffe600;stroke:#ffe600;" x="145.17523" xlink:href="#m3e47c7dfb6" y="107.065882"/>
     <use style="fill:#ffe600;stroke:#ffe600;" x="147.521386" xlink:href="#m3e47c7dfb6" y="130.750013"/>
     <use style="fill:#ffe600;stroke:#ffe600;" x="149.867543" xlink:href="#m3e47c7dfb6" y="148.339233"/>
     <use style="fill:#ffe600;stroke:#ffe600;" x="152.2137" xlink:href="#m3e47c7dfb6" y="108.464868"/>
     <use style="fill:#ffe600;stroke:#ffe600;" x="154.559856" xlink:href="#m3e47c7dfb6" y="108.365281"/>
     <use style="fill:#ffe600;stroke:#ffe600;" x="156.906013" xlink:href="#m3e47c7dfb6" y="93.540164"/>
     <use style="fill:#ffe600;stroke:#ffe600;" x="159.252169" xlink:href="#m3e47c7dfb6" y="104.318708"/>
     <use style="fill:#ffe600;stroke:#ffe600;" x="161.598326" xlink:href="#m3e47c7dfb6" y="102.637436"/>
     <use style="fill:#ffe600;stroke:#ffe600;" x="163.944482" xlink:href="#m3e47c7dfb6" y="104.255293"/>
     <use style="fill:#ffe600;stroke:#ffe600;" x="166.290639" xlink:href="#m3e47c7dfb6" y="93.081234"/>
     <use style="fill:#ffe600;stroke:#ffe600;" x="168.636795" xlink:href="#m3e47c7dfb6" y="96.604574"/>
     <use style="fill:#ffe600;stroke:#ffe600;" x="170.982952" xlink:href="#m3e47c7dfb6" y="101.528234"/>
     <use style="fill:#ffe600;stroke:#ffe600;" x="173.329108" xlink:href="#m3e47c7dfb6" y="81.742728"/>
     <use style="fill:#ffe600;stroke:#ffe600;" x="175.675265" xlink:href="#m3e47c7dfb6" y="87.09657"/>
     <use style="fill:#ffe600;stroke:#ffe600;" x="178.021421" xlink:href="#m3e47c7dfb6" y="88.266189"/>
     <use style="fill:#ffe600;stroke:#ffe600;" x="180.367578" xlink:href="#m3e47c7dfb6" y="87.548394"/>
     <use style="fill:#ffe600;stroke:#ffe600;" x="182.713734" xlink:href="#m3e47c7dfb6" y="99.786109"/>
     <use style="fill:#ffe600;stroke:#ffe600;" x="185.059891" xlink:href="#m3e47c7dfb6" y="87.273918"/>
     <use style="fill:#ffe600;stroke:#ffe600;" x="187.406047" xlink:href="#m3e47c7dfb6" y="76.387774"/>
     <use style="fill:#ffe600;stroke:#ffe600;" x="189.752204" xlink:href="#m3e47c7dfb6" y="75.753828"/>
     <use style="fill:#ffe600;stroke:#ffe600;" x="192.09836" xlink:href="#m3e47c7dfb6" y="58.649311"/>
     <use style="fill:#ffe600;stroke:#ffe600;" x="194.444517" xlink:href="#m3e47c7dfb6" y="65.842639"/>
     <use style="fill:#ffe600;stroke:#ffe600;" x="196.790673" xlink:href="#m3e47c7dfb6" y="56.475883"/>
     <use style="fill:#ffe600;stroke:#ffe600;" x="199.13683" xlink:href="#m3e47c7dfb6" y="68.045351"/>
     <use style="fill:#ffe600;stroke:#ffe600;" x="201.482986" xlink:href="#m3e47c7dfb6" y="73.766993"/>
     <use style="fill:#ffe600;stroke:#ffe600;" x="203.829143" xlink:href="#m3e47c7dfb6" y="71.656299"/>
     <use style="fill:#ffe600;stroke:#ffe600;" x="206.1753" xlink:href="#m3e47c7dfb6" y="52.173531"/>
     <use style="fill:#ffe600;stroke:#ffe600;" x="208.521456" xlink:href="#m3e47c7dfb6" y="59.419451"/>
     <use style="fill:#ffe600;stroke:#ffe600;" x="210.867613" xlink:href="#m3e47c7dfb6" y="60.260225"/>
     <use style="fill:#ffe600;stroke:#ffe600;" x="213.213769" xlink:href="#m3e47c7dfb6" y="72.393895"/>
     <use style="fill:#ffe600;stroke:#ffe600;" x="215.559926" xlink:href="#m3e47c7dfb6" y="73.522909"/>
     <use style="fill:#ffe600;stroke:#ffe600;" x="217.906082" xlink:href="#m3e47c7dfb6" y="101.234794"/>
     <use style="fill:#ffe600;stroke:#ffe600;" x="220.252239" xlink:href="#m3e47c7dfb6" y="102.60874"/>
     <use style="fill:#ffe600;stroke:#ffe600;" x="222.598395" xlink:href="#m3e47c7dfb6" y="98.660384"/>
     <use style="fill:#ffe600;stroke:#ffe600;" x="224.944552" xlink:href="#m3e47c7dfb6" y="100.497618"/>
     <use style="fill:#ffe600;stroke:#ffe600;" x="227.290708" xlink:href="#m3e47c7dfb6" y="110.265912"/>
     <use style="fill:#ffe600;stroke:#ffe600;" x="229.636865" xlink:href="#m3e47c7dfb6" y="112.97073"/>
     <use style="fill:#ffe600;stroke:#ffe600;" x="231.983021" xlink:href="#m3e47c7dfb6" y="83.021098"/>
     <use style="fill:#ffe600;stroke:#ffe600;" x="234.329178" xlink:href="#m3e47c7dfb6" y="98.470479"/>
     <use style="fill:#ffe600;stroke:#ffe600;" x="236.675334" xlink:href="#m3e47c7dfb6" y="81.22126"/>
     <use style="fill:#ffe600;stroke:#ffe600;" x="239.021491" xlink:href="#m3e47c7dfb6" y="78.50373"/>
     <use style="fill:#ffe600;stroke:#ffe600;" x="241.367647" xlink:href="#m3e47c7dfb6" y="92.679258"/>
     <use style="fill:#ffe600;stroke:#ffe600;" x="243.713804" xlink:href="#m3e47c7dfb6" y="100.215186"/>
     <use style="fill:#ffe600;stroke:#ffe600;" x="246.05996" xlink:href="#m3e47c7dfb6" y="111.476051"/>
     <use style="fill:#ffe600;stroke:#ffe600;" x="248.406117" xlink:href="#m3e47c7dfb6" y="107.163194"/>
     <use style="fill:#ffe600;stroke:#ffe600;" x="250.752273" xlink:href="#m3e47c7dfb6" y="76.379375"/>
     <use style="fill:#ffe600;stroke:#ffe600;" x="253.09843" xlink:href="#m3e47c7dfb6" y="91.68508"/>
     <use style="fill:#ffe600;stroke:#ffe600;" x="255.444587" xlink:href="#m3e47c7dfb6" y="107.140921"/>
    </g>
   </g>
   <g id="line2d_33">
    <path clip-path="url(#p37592fb415)" d="M 63.059752 213.800898 
L 65.405908 177.237918 
L 67.752065 133.606077 
L 70.098221 107.886919 
L 72.444378 111.197416 
L 74.790534 86.031329 
L 77.136691 110.212497 
L 79.482847 88.000411 
L 81.829004 85.680346 
L 84.17516 113.534023 
L 86.521317 107.295917 
L 88.867473 126.373785 
L 91.21363 102.427421 
L 93.559786 122.245318 
L 95.905943 111.081135 
L 98.252099 97.132773 
L 100.598256 79.255227 
L 102.944413 98.503144 
L 105.290569 86.922165 
L 107.636726 131.640107 
L 109.982882 133.935512 
L 112.329039 76.103042 
L 114.675195 70.048794 
L 117.021352 98.425609 
L 119.367508 90.753427 
L 121.713665 95.027214 
L 124.059821 107.909802 
L 126.405978 144.482763 
L 128.752134 130.407113 
L 131.098291 149.344261 
L 133.444447 144.940101 
L 135.790604 149.223105 
L 140.482917 113.357307 
L 142.829073 113.797652 
L 145.17523 111.183835 
L 149.867543 156.745143 
L 152.2137 105.731795 
L 154.559856 109.055326 
L 156.906013 105.41226 
L 159.252169 89.800008 
L 161.598326 96.90669 
L 163.944482 139.338512 
L 166.290639 101.813385 
L 168.636795 83.930651 
L 170.982952 107.093373 
L 173.329108 73.664686 
L 175.675265 83.073923 
L 178.021421 94.656591 
L 180.367578 87.878052 
L 182.713734 102.120912 
L 185.059891 70.771887 
L 187.406047 67.262764 
L 189.752204 74.689544 
L 192.09836 52.505997 
L 194.444517 66.315671 
L 196.790673 60.574151 
L 199.13683 77.193057 
L 201.482986 66.05818 
L 203.829143 55.41335 
L 206.1753 43.056151 
L 208.521456 31.436352 
L 210.867613 42.496985 
L 213.213769 57.720958 
L 215.559926 85.641995 
L 217.906082 103.29738 
L 220.252239 87.71546 
L 222.598395 114.240047 
L 224.944552 124.695842 
L 227.290708 97.742375 
L 229.636865 102.428626 
L 231.983021 90.432784 
L 234.329178 94.231395 
L 236.675334 82.944069 
L 239.021491 98.269642 
L 241.367647 90.564806 
L 243.713804 95.564821 
L 246.05996 87.821679 
L 248.406117 72.119131 
L 250.752273 80.59731 
L 253.09843 90.071065 
L 255.444587 84.7635 
" style="fill:none;stroke:#800000;stroke-linecap:square;stroke-width:1.5;"/>
    <defs>
     <path d="M 0 3 
C 0.795609 3 1.55874 2.683901 2.12132 2.12132 
C 2.683901 1.55874 3 0.795609 3 0 
C 3 -0.795609 2.683901 -1.55874 2.12132 -2.12132 
C 1.55874 -2.683901 0.795609 -3 0 -3 
C -0.795609 -3 -1.55874 -2.683901 -2.12132 -2.12132 
C -2.683901 -1.55874 -3 -0.795609 -3 0 
C -3 0.795609 -2.683901 1.55874 -2.12132 2.12132 
C -1.55874 2.683901 -0.795609 3 0 3 
z
" id="mbe2fc1e2a4" style="stroke:#800000;"/>
    </defs>
    <g clip-path="url(#p37592fb415)">
     <use style="fill:#800000;stroke:#800000;" x="63.059752" xlink:href="#mbe2fc1e2a4" y="213.800898"/>
     <use style="fill:#800000;stroke:#800000;" x="65.405908" xlink:href="#mbe2fc1e2a4" y="177.237918"/>
     <use style="fill:#800000;stroke:#800000;" x="67.752065" xlink:href="#mbe2fc1e2a4" y="133.606077"/>
     <use style="fill:#800000;stroke:#800000;" x="70.098221" xlink:href="#mbe2fc1e2a4" y="107.886919"/>
     <use style="fill:#800000;stroke:#800000;" x="72.444378" xlink:href="#mbe2fc1e2a4" y="111.197416"/>
     <use style="fill:#800000;stroke:#800000;" x="74.790534" xlink:href="#mbe2fc1e2a4" y="86.031329"/>
     <use style="fill:#800000;stroke:#800000;" x="77.136691" xlink:href="#mbe2fc1e2a4" y="110.212497"/>
     <use style="fill:#800000;stroke:#800000;" x="79.482847" xlink:href="#mbe2fc1e2a4" y="88.000411"/>
     <use style="fill:#800000;stroke:#800000;" x="81.829004" xlink:href="#mbe2fc1e2a4" y="85.680346"/>
     <use style="fill:#800000;stroke:#800000;" x="84.17516" xlink:href="#mbe2fc1e2a4" y="113.534023"/>
     <use style="fill:#800000;stroke:#800000;" x="86.521317" xlink:href="#mbe2fc1e2a4" y="107.295917"/>
     <use style="fill:#800000;stroke:#800000;" x="88.867473" xlink:href="#mbe2fc1e2a4" y="126.373785"/>
     <use style="fill:#800000;stroke:#800000;" x="91.21363" xlink:href="#mbe2fc1e2a4" y="102.427421"/>
     <use style="fill:#800000;stroke:#800000;" x="93.559786" xlink:href="#mbe2fc1e2a4" y="122.245318"/>
     <use style="fill:#800000;stroke:#800000;" x="95.905943" xlink:href="#mbe2fc1e2a4" y="111.081135"/>
     <use style="fill:#800000;stroke:#800000;" x="98.252099" xlink:href="#mbe2fc1e2a4" y="97.132773"/>
     <use style="fill:#800000;stroke:#800000;" x="100.598256" xlink:href="#mbe2fc1e2a4" y="79.255227"/>
     <use style="fill:#800000;stroke:#800000;" x="102.944413" xlink:href="#mbe2fc1e2a4" y="98.503144"/>
     <use style="fill:#800000;stroke:#800000;" x="105.290569" xlink:href="#mbe2fc1e2a4" y="86.922165"/>
     <use style="fill:#800000;stroke:#800000;" x="107.636726" xlink:href="#mbe2fc1e2a4" y="131.640107"/>
     <use style="fill:#800000;stroke:#800000;" x="109.982882" xlink:href="#mbe2fc1e2a4" y="133.935512"/>
     <use style="fill:#800000;stroke:#800000;" x="112.329039" xlink:href="#mbe2fc1e2a4" y="76.103042"/>
     <use style="fill:#800000;stroke:#800000;" x="114.675195" xlink:href="#mbe2fc1e2a4" y="70.048794"/>
     <use style="fill:#800000;stroke:#800000;" x="117.021352" xlink:href="#mbe2fc1e2a4" y="98.425609"/>
     <use style="fill:#800000;stroke:#800000;" x="119.367508" xlink:href="#mbe2fc1e2a4" y="90.753427"/>
     <use style="fill:#800000;stroke:#800000;" x="121.713665" xlink:href="#mbe2fc1e2a4" y="95.027214"/>
     <use style="fill:#800000;stroke:#800000;" x="124.059821" xlink:href="#mbe2fc1e2a4" y="107.909802"/>
     <use style="fill:#800000;stroke:#800000;" x="126.405978" xlink:href="#mbe2fc1e2a4" y="144.482763"/>
     <use style="fill:#800000;stroke:#800000;" x="128.752134" xlink:href="#mbe2fc1e2a4" y="130.407113"/>
     <use style="fill:#800000;stroke:#800000;" x="131.098291" xlink:href="#mbe2fc1e2a4" y="149.344261"/>
     <use style="fill:#800000;stroke:#800000;" x="133.444447" xlink:href="#mbe2fc1e2a4" y="144.940101"/>
     <use style="fill:#800000;stroke:#800000;" x="135.790604" xlink:href="#mbe2fc1e2a4" y="149.223105"/>
     <use style="fill:#800000;stroke:#800000;" x="140.482917" xlink:href="#mbe2fc1e2a4" y="113.357307"/>
     <use style="fill:#800000;stroke:#800000;" x="142.829073" xlink:href="#mbe2fc1e2a4" y="113.797652"/>
     <use style="fill:#800000;stroke:#800000;" x="145.17523" xlink:href="#mbe2fc1e2a4" y="111.183835"/>
     <use style="fill:#800000;stroke:#800000;" x="149.867543" xlink:href="#mbe2fc1e2a4" y="156.745143"/>
     <use style="fill:#800000;stroke:#800000;" x="152.2137" xlink:href="#mbe2fc1e2a4" y="105.731795"/>
     <use style="fill:#800000;stroke:#800000;" x="154.559856" xlink:href="#mbe2fc1e2a4" y="109.055326"/>
     <use style="fill:#800000;stroke:#800000;" x="156.906013" xlink:href="#mbe2fc1e2a4" y="105.41226"/>
     <use style="fill:#800000;stroke:#800000;" x="159.252169" xlink:href="#mbe2fc1e2a4" y="89.800008"/>
     <use style="fill:#800000;stroke:#800000;" x="161.598326" xlink:href="#mbe2fc1e2a4" y="96.90669"/>
     <use style="fill:#800000;stroke:#800000;" x="163.944482" xlink:href="#mbe2fc1e2a4" y="139.338512"/>
     <use style="fill:#800000;stroke:#800000;" x="166.290639" xlink:href="#mbe2fc1e2a4" y="101.813385"/>
     <use style="fill:#800000;stroke:#800000;" x="168.636795" xlink:href="#mbe2fc1e2a4" y="83.930651"/>
     <use style="fill:#800000;stroke:#800000;" x="170.982952" xlink:href="#mbe2fc1e2a4" y="107.093373"/>
     <use style="fill:#800000;stroke:#800000;" x="173.329108" xlink:href="#mbe2fc1e2a4" y="73.664686"/>
     <use style="fill:#800000;stroke:#800000;" x="175.675265" xlink:href="#mbe2fc1e2a4" y="83.073923"/>
     <use style="fill:#800000;stroke:#800000;" x="178.021421" xlink:href="#mbe2fc1e2a4" y="94.656591"/>
     <use style="fill:#800000;stroke:#800000;" x="180.367578" xlink:href="#mbe2fc1e2a4" y="87.878052"/>
     <use style="fill:#800000;stroke:#800000;" x="182.713734" xlink:href="#mbe2fc1e2a4" y="102.120912"/>
     <use style="fill:#800000;stroke:#800000;" x="185.059891" xlink:href="#mbe2fc1e2a4" y="70.771887"/>
     <use style="fill:#800000;stroke:#800000;" x="187.406047" xlink:href="#mbe2fc1e2a4" y="67.262764"/>
     <use style="fill:#800000;stroke:#800000;" x="189.752204" xlink:href="#mbe2fc1e2a4" y="74.689544"/>
     <use style="fill:#800000;stroke:#800000;" x="192.09836" xlink:href="#mbe2fc1e2a4" y="52.505997"/>
     <use style="fill:#800000;stroke:#800000;" x="194.444517" xlink:href="#mbe2fc1e2a4" y="66.315671"/>
     <use style="fill:#800000;stroke:#800000;" x="196.790673" xlink:href="#mbe2fc1e2a4" y="60.574151"/>
     <use style="fill:#800000;stroke:#800000;" x="199.13683" xlink:href="#mbe2fc1e2a4" y="77.193057"/>
     <use style="fill:#800000;stroke:#800000;" x="201.482986" xlink:href="#mbe2fc1e2a4" y="66.05818"/>
     <use style="fill:#800000;stroke:#800000;" x="203.829143" xlink:href="#mbe2fc1e2a4" y="55.41335"/>
     <use style="fill:#800000;stroke:#800000;" x="206.1753" xlink:href="#mbe2fc1e2a4" y="43.056151"/>
     <use style="fill:#800000;stroke:#800000;" x="208.521456" xlink:href="#mbe2fc1e2a4" y="31.436352"/>
     <use style="fill:#800000;stroke:#800000;" x="210.867613" xlink:href="#mbe2fc1e2a4" y="42.496985"/>
     <use style="fill:#800000;stroke:#800000;" x="213.213769" xlink:href="#mbe2fc1e2a4" y="57.720958"/>
     <use style="fill:#800000;stroke:#800000;" x="215.559926" xlink:href="#mbe2fc1e2a4" y="85.641995"/>
     <use style="fill:#800000;stroke:#800000;" x="217.906082" xlink:href="#mbe2fc1e2a4" y="103.29738"/>
     <use style="fill:#800000;stroke:#800000;" x="220.252239" xlink:href="#mbe2fc1e2a4" y="87.71546"/>
     <use style="fill:#800000;stroke:#800000;" x="222.598395" xlink:href="#mbe2fc1e2a4" y="114.240047"/>
     <use style="fill:#800000;stroke:#800000;" x="224.944552" xlink:href="#mbe2fc1e2a4" y="124.695842"/>
     <use style="fill:#800000;stroke:#800000;" x="227.290708" xlink:href="#mbe2fc1e2a4" y="97.742375"/>
     <use style="fill:#800000;stroke:#800000;" x="229.636865" xlink:href="#mbe2fc1e2a4" y="102.428626"/>
     <use style="fill:#800000;stroke:#800000;" x="231.983021" xlink:href="#mbe2fc1e2a4" y="90.432784"/>
     <use style="fill:#800000;stroke:#800000;" x="234.329178" xlink:href="#mbe2fc1e2a4" y="94.231395"/>
     <use style="fill:#800000;stroke:#800000;" x="236.675334" xlink:href="#mbe2fc1e2a4" y="82.944069"/>
     <use style="fill:#800000;stroke:#800000;" x="239.021491" xlink:href="#mbe2fc1e2a4" y="98.269642"/>
     <use style="fill:#800000;stroke:#800000;" x="241.367647" xlink:href="#mbe2fc1e2a4" y="90.564806"/>
     <use style="fill:#800000;stroke:#800000;" x="243.713804" xlink:href="#mbe2fc1e2a4" y="95.564821"/>
     <use style="fill:#800000;stroke:#800000;" x="246.05996" xlink:href="#mbe2fc1e2a4" y="87.821679"/>
     <use style="fill:#800000;stroke:#800000;" x="248.406117" xlink:href="#mbe2fc1e2a4" y="72.119131"/>
     <use style="fill:#800000;stroke:#800000;" x="250.752273" xlink:href="#mbe2fc1e2a4" y="80.59731"/>
     <use style="fill:#800000;stroke:#800000;" x="253.09843" xlink:href="#mbe2fc1e2a4" y="90.071065"/>
     <use style="fill:#800000;stroke:#800000;" x="255.444587" xlink:href="#mbe2fc1e2a4" y="84.7635"/>
    </g>
   </g>
   <g id="patch_3">
    <path d="M 48.982813 222.919125 
L 48.982813 22.318125 
" style="fill:none;stroke:#000000;stroke-linecap:square;stroke-linejoin:miter;stroke-width:0.8;"/>
   </g>
   <g id="patch_4">
    <path d="M 262.483056 222.919125 
L 262.483056 22.318125 
" style="fill:none;stroke:#000000;stroke-linecap:square;stroke-linejoin:miter;stroke-width:0.8;"/>
   </g>
   <g id="patch_5">
    <path d="M 48.982813 222.919125 
L 262.483056 222.919125 
" style="fill:none;stroke:#000000;stroke-linecap:square;stroke-linejoin:miter;stroke-width:0.8;"/>
   </g>
   <g id="patch_6">
    <path d="M 48.982813 22.318125 
L 262.483056 22.318125 
" style="fill:none;stroke:#000000;stroke-linecap:square;stroke-linejoin:miter;stroke-width:0.8;"/>
   </g>
   <g id="text_32">
    <!-- Model-averaged 4-week-ahead forecasts -->
    <defs>
     <path d="M 9.8125 72.90625 
L 24.515625 72.90625 
L 43.109375 23.296875 
L 61.8125 72.90625 
L 76.515625 72.90625 
L 76.515625 0 
L 66.890625 0 
L 66.890625 64.015625 
L 48.09375 14.015625 
L 38.1875 14.015625 
L 19.390625 64.015625 
L 19.390625 0 
L 9.8125 0 
z
" id="DejaVuSans-77"/>
     <path d="M 4.203125 54.6875 
L 13.1875 54.6875 
L 24.421875 12.015625 
L 35.59375 54.6875 
L 46.1875 54.6875 
L 57.421875 12.015625 
L 68.609375 54.6875 
L 77.59375 54.6875 
L 63.28125 0 
L 52.6875 0 
L 40.921875 44.828125 
L 29.109375 0 
L 18.5 0 
z
" id="DejaVuSans-119"/>
     <path d="M 9.078125 75.984375 
L 18.109375 75.984375 
L 18.109375 31.109375 
L 44.921875 54.6875 
L 56.390625 54.6875 
L 27.390625 29.109375 
L 57.625 0 
L 45.90625 0 
L 18.109375 26.703125 
L 18.109375 0 
L 9.078125 0 
z
" id="DejaVuSans-107"/>
    </defs>
    <g transform="translate(33.409809 16.318125)scale(0.12 -0.12)">
     <use xlink:href="#DejaVuSans-77"/>
     <use x="86.279297" xlink:href="#DejaVuSans-111"/>
     <use x="147.460938" xlink:href="#DejaVuSans-100"/>
     <use x="210.9375" xlink:href="#DejaVuSans-101"/>
     <use x="272.460938" xlink:href="#DejaVuSans-108"/>
     <use x="300.244141" xlink:href="#DejaVuSans-45"/>
     <use x="336.328125" xlink:href="#DejaVuSans-97"/>
     <use x="397.607422" xlink:href="#DejaVuSans-118"/>
     <use x="456.787109" xlink:href="#DejaVuSans-101"/>
     <use x="518.310547" xlink:href="#DejaVuSans-114"/>
     <use x="559.423828" xlink:href="#DejaVuSans-97"/>
     <use x="620.703125" xlink:href="#DejaVuSans-103"/>
     <use x="684.179688" xlink:href="#DejaVuSans-101"/>
     <use x="745.703125" xlink:href="#DejaVuSans-100"/>
     <use x="809.179688" xlink:href="#DejaVuSans-32"/>
     <use x="840.966797" xlink:href="#DejaVuSans-52"/>
     <use x="904.589844" xlink:href="#DejaVuSans-45"/>
     <use x="940.673828" xlink:href="#DejaVuSans-119"/>
     <use x="1022.460938" xlink:href="#DejaVuSans-101"/>
     <use x="1083.984375" xlink:href="#DejaVuSans-101"/>
     <use x="1145.507812" xlink:href="#DejaVuSans-107"/>
     <use x="1203.417969" xlink:href="#DejaVuSans-45"/>
     <use x="1239.501953" xlink:href="#DejaVuSans-97"/>
     <use x="1300.78125" xlink:href="#DejaVuSans-104"/>
     <use x="1364.160156" xlink:href="#DejaVuSans-101"/>
     <use x="1425.683594" xlink:href="#DejaVuSans-97"/>
     <use x="1486.962891" xlink:href="#DejaVuSans-100"/>
     <use x="1550.439453" xlink:href="#DejaVuSans-32"/>
     <use x="1582.226562" xlink:href="#DejaVuSans-102"/>
     <use x="1617.431641" xlink:href="#DejaVuSans-111"/>
     <use x="1678.613281" xlink:href="#DejaVuSans-114"/>
     <use x="1717.476562" xlink:href="#DejaVuSans-101"/>
     <use x="1779" xlink:href="#DejaVuSans-99"/>
     <use x="1833.980469" xlink:href="#DejaVuSans-97"/>
     <use x="1895.259766" xlink:href="#DejaVuSans-115"/>
     <use x="1947.359375" xlink:href="#DejaVuSans-116"/>
     <use x="1986.568359" xlink:href="#DejaVuSans-115"/>
    </g>
   </g>
   <g id="legend_1">
    <g id="patch_7">
     <path d="M 144.326806 217.919125 
L 255.483056 217.919125 
Q 257.483056 217.919125 257.483056 215.919125 
L 257.483056 146.206625 
Q 257.483056 144.206625 255.483056 144.206625 
L 144.326806 144.206625 
Q 142.326806 144.206625 142.326806 146.206625 
L 142.326806 215.919125 
Q 142.326806 217.919125 144.326806 217.919125 
z
" style="fill:#ffffff;opacity:0.8;stroke:#cccccc;stroke-linejoin:miter;"/>
    </g>
    <g id="line2d_34">
     <path d="M 146.326806 152.305063 
L 166.326806 152.305063 
" style="fill:none;stroke:#000080;stroke-linecap:square;stroke-width:1.5;"/>
    </g>
    <g id="line2d_35">
     <g>
      <use style="fill:#000080;stroke:#000080;" x="156.326806" xlink:href="#md4923e4960" y="152.305063"/>
     </g>
    </g>
    <g id="text_33">
     <!-- compartmental -->
     <defs>
      <path d="M 18.109375 8.203125 
L 18.109375 -20.796875 
L 9.078125 -20.796875 
L 9.078125 54.6875 
L 18.109375 54.6875 
L 18.109375 46.390625 
Q 20.953125 51.265625 25.265625 53.625 
Q 29.59375 56 35.59375 56 
Q 45.5625 56 51.78125 48.09375 
Q 58.015625 40.1875 58.015625 27.296875 
Q 58.015625 14.40625 51.78125 6.484375 
Q 45.5625 -1.421875 35.59375 -1.421875 
Q 29.59375 -1.421875 25.265625 0.953125 
Q 20.953125 3.328125 18.109375 8.203125 
z
M 48.6875 27.296875 
Q 48.6875 37.203125 44.609375 42.84375 
Q 40.53125 48.484375 33.40625 48.484375 
Q 26.265625 48.484375 22.1875 42.84375 
Q 18.109375 37.203125 18.109375 27.296875 
Q 18.109375 17.390625 22.1875 11.75 
Q 26.265625 6.109375 33.40625 6.109375 
Q 40.53125 6.109375 44.609375 11.75 
Q 48.6875 17.390625 48.6875 27.296875 
z
" id="DejaVuSans-112"/>
     </defs>
     <g transform="translate(174.326806 155.805063)scale(0.1 -0.1)">
      <use xlink:href="#DejaVuSans-99"/>
      <use x="54.980469" xlink:href="#DejaVuSans-111"/>
      <use x="116.162109" xlink:href="#DejaVuSans-109"/>
      <use x="213.574219" xlink:href="#DejaVuSans-112"/>
      <use x="277.050781" xlink:href="#DejaVuSans-97"/>
      <use x="338.330078" xlink:href="#DejaVuSans-114"/>
      <use x="379.443359" xlink:href="#DejaVuSans-116"/>
      <use x="418.652344" xlink:href="#DejaVuSans-109"/>
      <use x="516.064453" xlink:href="#DejaVuSans-101"/>
      <use x="577.587891" xlink:href="#DejaVuSans-110"/>
      <use x="640.966797" xlink:href="#DejaVuSans-116"/>
      <use x="680.175781" xlink:href="#DejaVuSans-97"/>
      <use x="741.455078" xlink:href="#DejaVuSans-108"/>
     </g>
    </g>
    <g id="line2d_36">
     <path d="M 146.326806 170.983188 
L 166.326806 170.983188 
" style="fill:none;stroke:#00d4ff;stroke-linecap:square;stroke-width:1.5;"/>
    </g>
    <g id="line2d_37">
     <g>
      <use style="fill:#00d4ff;stroke:#00d4ff;" x="156.326806" xlink:href="#m90976faac6" y="170.983188"/>
     </g>
    </g>
    <g id="text_34">
     <!-- metapopulation -->
     <g transform="translate(174.326806 174.483188)scale(0.1 -0.1)">
      <use xlink:href="#DejaVuSans-109"/>
      <use x="97.412109" xlink:href="#DejaVuSans-101"/>
      <use x="158.935547" xlink:href="#DejaVuSans-116"/>
      <use x="198.144531" xlink:href="#DejaVuSans-97"/>
      <use x="259.423828" xlink:href="#DejaVuSans-112"/>
      <use x="322.900391" xlink:href="#DejaVuSans-111"/>
      <use x="384.082031" xlink:href="#DejaVuSans-112"/>
      <use x="447.558594" xlink:href="#DejaVuSans-117"/>
      <use x="510.9375" xlink:href="#DejaVuSans-108"/>
      <use x="538.720703" xlink:href="#DejaVuSans-97"/>
      <use x="600" xlink:href="#DejaVuSans-116"/>
      <use x="639.208984" xlink:href="#DejaVuSans-105"/>
      <use x="666.992188" xlink:href="#DejaVuSans-111"/>
      <use x="728.173828" xlink:href="#DejaVuSans-110"/>
     </g>
    </g>
    <g id="line2d_38">
     <path d="M 146.326806 189.661313 
L 166.326806 189.661313 
" style="fill:none;stroke:#ffe600;stroke-linecap:square;stroke-width:1.5;"/>
    </g>
    <g id="line2d_39">
     <g>
      <use style="fill:#ffe600;stroke:#ffe600;" x="156.326806" xlink:href="#m3e47c7dfb6" y="189.661313"/>
     </g>
    </g>
    <g id="text_35">
     <!-- stat&amp;prob -->
     <defs>
      <path d="M 24.3125 39.203125 
Q 19.875 35.25 17.796875 31.3125 
Q 15.71875 27.390625 15.71875 23.09375 
Q 15.71875 15.96875 20.890625 11.234375 
Q 26.078125 6.5 33.890625 6.5 
Q 38.53125 6.5 42.578125 8.03125 
Q 46.625 9.578125 50.203125 12.703125 
z
M 31.203125 44.671875 
L 56 19.28125 
Q 58.890625 23.640625 60.5 28.59375 
Q 62.109375 33.546875 62.40625 39.109375 
L 71.484375 39.109375 
Q 70.90625 32.671875 68.359375 26.359375 
Q 65.828125 20.0625 61.28125 13.921875 
L 74.90625 0 
L 62.59375 0 
L 55.609375 7.171875 
Q 50.53125 2.828125 44.96875 0.703125 
Q 39.40625 -1.421875 33.015625 -1.421875 
Q 21.234375 -1.421875 13.765625 5.296875 
Q 6.296875 12.015625 6.296875 22.515625 
Q 6.296875 28.765625 9.5625 34.25 
Q 12.84375 39.75 19.390625 44.578125 
Q 17.046875 47.65625 15.8125 50.703125 
Q 14.59375 53.765625 14.59375 56.6875 
Q 14.59375 64.59375 20.015625 69.40625 
Q 25.4375 74.21875 34.421875 74.21875 
Q 38.484375 74.21875 42.5 73.34375 
Q 46.53125 72.46875 50.6875 70.703125 
L 50.6875 61.8125 
Q 46.4375 64.109375 42.578125 65.296875 
Q 38.71875 66.5 35.40625 66.5 
Q 30.28125 66.5 27.078125 63.78125 
Q 23.875 61.078125 23.875 56.78125 
Q 23.875 54.296875 25.3125 51.78125 
Q 26.765625 49.265625 31.203125 44.671875 
z
" id="DejaVuSans-38"/>
      <path d="M 48.6875 27.296875 
Q 48.6875 37.203125 44.609375 42.84375 
Q 40.53125 48.484375 33.40625 48.484375 
Q 26.265625 48.484375 22.1875 42.84375 
Q 18.109375 37.203125 18.109375 27.296875 
Q 18.109375 17.390625 22.1875 11.75 
Q 26.265625 6.109375 33.40625 6.109375 
Q 40.53125 6.109375 44.609375 11.75 
Q 48.6875 17.390625 48.6875 27.296875 
z
M 18.109375 46.390625 
Q 20.953125 51.265625 25.265625 53.625 
Q 29.59375 56 35.59375 56 
Q 45.5625 56 51.78125 48.09375 
Q 58.015625 40.1875 58.015625 27.296875 
Q 58.015625 14.40625 51.78125 6.484375 
Q 45.5625 -1.421875 35.59375 -1.421875 
Q 29.59375 -1.421875 25.265625 0.953125 
Q 20.953125 3.328125 18.109375 8.203125 
L 18.109375 0 
L 9.078125 0 
L 9.078125 75.984375 
L 18.109375 75.984375 
z
" id="DejaVuSans-98"/>
     </defs>
     <g transform="translate(174.326806 193.161313)scale(0.1 -0.1)">
      <use xlink:href="#DejaVuSans-115"/>
      <use x="52.099609" xlink:href="#DejaVuSans-116"/>
      <use x="91.308594" xlink:href="#DejaVuSans-97"/>
      <use x="152.587891" xlink:href="#DejaVuSans-116"/>
      <use x="191.796875" xlink:href="#DejaVuSans-38"/>
      <use x="269.775391" xlink:href="#DejaVuSans-112"/>
      <use x="333.251953" xlink:href="#DejaVuSans-114"/>
      <use x="372.115234" xlink:href="#DejaVuSans-111"/>
      <use x="433.296875" xlink:href="#DejaVuSans-98"/>
     </g>
    </g>
    <g id="line2d_40">
     <path d="M 146.326806 208.339438 
L 166.326806 208.339438 
" style="fill:none;stroke:#800000;stroke-linecap:square;stroke-width:1.5;"/>
    </g>
    <g id="line2d_41">
     <g>
      <use style="fill:#800000;stroke:#800000;" x="156.326806" xlink:href="#mbe2fc1e2a4" y="208.339438"/>
     </g>
    </g>
    <g id="text_36">
     <!-- ensemble -->
     <g transform="translate(174.326806 211.839438)scale(0.1 -0.1)">
      <use xlink:href="#DejaVuSans-101"/>
      <use x="61.523438" xlink:href="#DejaVuSans-110"/>
      <use x="124.902344" xlink:href="#DejaVuSans-115"/>
      <use x="177.001953" xlink:href="#DejaVuSans-101"/>
      <use x="238.525391" xlink:href="#DejaVuSans-109"/>
      <use x="335.9375" xlink:href="#DejaVuSans-98"/>
      <use x="399.414062" xlink:href="#DejaVuSans-108"/>
      <use x="427.197266" xlink:href="#DejaVuSans-101"/>
     </g>
    </g>
   </g>
  </g>
 </g>
 <defs>
  <clipPath id="p37592fb415">
   <rect height="200.601" width="213.500244" x="48.982813" y="22.318125"/>
  </clipPath>
 </defs>
</svg>
