<?xml version="1.0" encoding="utf-8" standalone="no"?>
<!DOCTYPE svg PUBLIC "-//W3C//DTD SVG 1.1//EN"
  "http://www.w3.org/Graphics/SVG/1.1/DTD/svg11.dtd">
<!-- Created with matplotlib (https://matplotlib.org/) -->
<svg height="376.664358pt" version="1.1" viewBox="0 0 917.635562 376.664358" width="917.635562pt" xmlns="http://www.w3.org/2000/svg" xmlns:xlink="http://www.w3.org/1999/xlink">
 <defs>
  <style type="text/css">
*{stroke-linecap:butt;stroke-linejoin:round;}
  </style>
 </defs>
 <g id="figure_1">
  <g id="patch_1">
   <path d="M 0 376.664358 
L 917.635562 376.664358 
L 917.635562 0 
L 0 0 
z
" style="fill:#ffffff;"/>
  </g>
  <g id="axes_1">
   <g id="patch_2">
    <path d="M 58.523438 316.078125 
L 728.123438 316.078125 
L 728.123438 22.318125 
L 58.523438 22.318125 
z
" style="fill:#ffffff;"/>
   </g>
   <g id="matplotlib.axis_1">
    <g id="xtick_1">
     <g id="line2d_1">
      <defs>
       <path d="M 0 0 
L 0 3.5 
" id="m64e7b3a2bf" style="stroke:#000000;stroke-width:0.8;"/>
      </defs>
      <g>
       <use style="stroke:#000000;stroke-width:0.8;" x="58.523438" xlink:href="#m64e7b3a2bf" y="316.078125"/>
      </g>
     </g>
     <g id="text_1">
      <!-- Apr 25 -->
      <defs>
       <path d="M 34.1875 63.1875 
L 20.796875 26.90625 
L 47.609375 26.90625 
z
M 28.609375 72.90625 
L 39.796875 72.90625 
L 67.578125 0 
L 57.328125 0 
L 50.6875 18.703125 
L 17.828125 18.703125 
L 11.1875 0 
L 0.78125 0 
z
" id="DejaVuSans-65"/>
       <path d="M 18.109375 8.203125 
L 18.109375 -20.796875 
L 9.078125 -20.796875 
L 9.078125 54.6875 
L 18.109375 54.6875 
L 18.109375 46.390625 
Q 20.953125 51.265625 25.265625 53.625 
Q 29.59375 56 35.59375 56 
Q 45.5625 56 51.78125 48.09375 
Q 58.015625 40.1875 58.015625 27.296875 
Q 58.015625 14.40625 51.78125 6.484375 
Q 45.5625 -1.421875 35.59375 -1.421875 
Q 29.59375 -1.421875 25.265625 0.953125 
Q 20.953125 3.328125 18.109375 8.203125 
z
M 48.6875 27.296875 
Q 48.6875 37.203125 44.609375 42.84375 
Q 40.53125 48.484375 33.40625 48.484375 
Q 26.265625 48.484375 22.1875 42.84375 
Q 18.109375 37.203125 18.109375 27.296875 
Q 18.109375 17.390625 22.1875 11.75 
Q 26.265625 6.109375 33.40625 6.109375 
Q 40.53125 6.109375 44.609375 11.75 
Q 48.6875 17.390625 48.6875 27.296875 
z
" id="DejaVuSans-112"/>
       <path d="M 41.109375 46.296875 
Q 39.59375 47.171875 37.8125 47.578125 
Q 36.03125 48 33.890625 48 
Q 26.265625 48 22.1875 43.046875 
Q 18.109375 38.09375 18.109375 28.8125 
L 18.109375 0 
L 9.078125 0 
L 9.078125 54.6875 
L 18.109375 54.6875 
L 18.109375 46.1875 
Q 20.953125 51.171875 25.484375 53.578125 
Q 30.03125 56 36.53125 56 
Q 37.453125 56 38.578125 55.875 
Q 39.703125 55.765625 41.0625 55.515625 
z
" id="DejaVuSans-114"/>
       <path id="DejaVuSans-32"/>
       <path d="M 19.1875 8.296875 
L 53.609375 8.296875 
L 53.609375 0 
L 7.328125 0 
L 7.328125 8.296875 
Q 12.9375 14.109375 22.625 23.890625 
Q 32.328125 33.6875 34.8125 36.53125 
Q 39.546875 41.84375 41.421875 45.53125 
Q 43.3125 49.21875 43.3125 52.78125 
Q 43.3125 58.59375 39.234375 62.25 
Q 35.15625 65.921875 28.609375 65.921875 
Q 23.96875 65.921875 18.8125 64.3125 
Q 13.671875 62.703125 7.8125 59.421875 
L 7.8125 69.390625 
Q 13.765625 71.78125 18.9375 73 
Q 24.125 74.21875 28.421875 74.21875 
Q 39.75 74.21875 46.484375 68.546875 
Q 53.21875 62.890625 53.21875 53.421875 
Q 53.21875 48.921875 51.53125 44.890625 
Q 49.859375 40.875 45.40625 35.40625 
Q 44.1875 33.984375 37.640625 27.21875 
Q 31.109375 20.453125 19.1875 8.296875 
z
" id="DejaVuSans-50"/>
       <path d="M 10.796875 72.90625 
L 49.515625 72.90625 
L 49.515625 64.59375 
L 19.828125 64.59375 
L 19.828125 46.734375 
Q 21.96875 47.46875 24.109375 47.828125 
Q 26.265625 48.1875 28.421875 48.1875 
Q 40.625 48.1875 47.75 41.5 
Q 54.890625 34.8125 54.890625 23.390625 
Q 54.890625 11.625 47.5625 5.09375 
Q 40.234375 -1.421875 26.90625 -1.421875 
Q 22.3125 -1.421875 17.546875 -0.640625 
Q 12.796875 0.140625 7.71875 1.703125 
L 7.71875 11.625 
Q 12.109375 9.234375 16.796875 8.0625 
Q 21.484375 6.890625 26.703125 6.890625 
Q 35.15625 6.890625 40.078125 11.328125 
Q 45.015625 15.765625 45.015625 23.390625 
Q 45.015625 31 40.078125 35.4375 
Q 35.15625 39.890625 26.703125 39.890625 
Q 22.75 39.890625 18.8125 39.015625 
Q 14.890625 38.140625 10.796875 36.28125 
z
" id="DejaVuSans-53"/>
      </defs>
      <g transform="translate(33.574722 351.929187)rotate(-45)scale(0.1 -0.1)">
       <use xlink:href="#DejaVuSans-65"/>
       <use x="68.408203" xlink:href="#DejaVuSans-112"/>
       <use x="131.884766" xlink:href="#DejaVuSans-114"/>
       <use x="172.998047" xlink:href="#DejaVuSans-32"/>
       <use x="204.785156" xlink:href="#DejaVuSans-50"/>
       <use x="268.408203" xlink:href="#DejaVuSans-53"/>
      </g>
     </g>
    </g>
    <g id="xtick_2">
     <g id="line2d_2">
      <g>
       <use style="stroke:#000000;stroke-width:0.8;" x="93.765543" xlink:href="#m64e7b3a2bf" y="316.078125"/>
      </g>
     </g>
     <g id="text_2">
      <!-- May 23 -->
      <defs>
       <path d="M 9.8125 72.90625 
L 24.515625 72.90625 
L 43.109375 23.296875 
L 61.8125 72.90625 
L 76.515625 72.90625 
L 76.515625 0 
L 66.890625 0 
L 66.890625 64.015625 
L 48.09375 14.015625 
L 38.1875 14.015625 
L 19.390625 64.015625 
L 19.390625 0 
L 9.8125 0 
z
" id="DejaVuSans-77"/>
       <path d="M 34.28125 27.484375 
Q 23.390625 27.484375 19.1875 25 
Q 14.984375 22.515625 14.984375 16.5 
Q 14.984375 11.71875 18.140625 8.90625 
Q 21.296875 6.109375 26.703125 6.109375 
Q 34.1875 6.109375 38.703125 11.40625 
Q 43.21875 16.703125 43.21875 25.484375 
L 43.21875 27.484375 
z
M 52.203125 31.203125 
L 52.203125 0 
L 43.21875 0 
L 43.21875 8.296875 
Q 40.140625 3.328125 35.546875 0.953125 
Q 30.953125 -1.421875 24.3125 -1.421875 
Q 15.921875 -1.421875 10.953125 3.296875 
Q 6 8.015625 6 15.921875 
Q 6 25.140625 12.171875 29.828125 
Q 18.359375 34.515625 30.609375 34.515625 
L 43.21875 34.515625 
L 43.21875 35.40625 
Q 43.21875 41.609375 39.140625 45 
Q 35.0625 48.390625 27.6875 48.390625 
Q 23 48.390625 18.546875 47.265625 
Q 14.109375 46.140625 10.015625 43.890625 
L 10.015625 52.203125 
Q 14.9375 54.109375 19.578125 55.046875 
Q 24.21875 56 28.609375 56 
Q 40.484375 56 46.34375 49.84375 
Q 52.203125 43.703125 52.203125 31.203125 
z
" id="DejaVuSans-97"/>
       <path d="M 32.171875 -5.078125 
Q 28.375 -14.84375 24.75 -17.8125 
Q 21.140625 -20.796875 15.09375 -20.796875 
L 7.90625 -20.796875 
L 7.90625 -13.28125 
L 13.1875 -13.28125 
Q 16.890625 -13.28125 18.9375 -11.515625 
Q 21 -9.765625 23.484375 -3.21875 
L 25.09375 0.875 
L 2.984375 54.6875 
L 12.5 54.6875 
L 29.59375 11.921875 
L 46.6875 54.6875 
L 56.203125 54.6875 
z
" id="DejaVuSans-121"/>
       <path d="M 40.578125 39.3125 
Q 47.65625 37.796875 51.625 33 
Q 55.609375 28.21875 55.609375 21.1875 
Q 55.609375 10.40625 48.1875 4.484375 
Q 40.765625 -1.421875 27.09375 -1.421875 
Q 22.515625 -1.421875 17.65625 -0.515625 
Q 12.796875 0.390625 7.625 2.203125 
L 7.625 11.71875 
Q 11.71875 9.328125 16.59375 8.109375 
Q 21.484375 6.890625 26.8125 6.890625 
Q 36.078125 6.890625 40.9375 10.546875 
Q 45.796875 14.203125 45.796875 21.1875 
Q 45.796875 27.640625 41.28125 31.265625 
Q 36.765625 34.90625 28.71875 34.90625 
L 20.21875 34.90625 
L 20.21875 43.015625 
L 29.109375 43.015625 
Q 36.375 43.015625 40.234375 45.921875 
Q 44.09375 48.828125 44.09375 54.296875 
Q 44.09375 59.90625 40.109375 62.90625 
Q 36.140625 65.921875 28.71875 65.921875 
Q 24.65625 65.921875 20.015625 65.03125 
Q 15.375 64.15625 9.8125 62.3125 
L 9.8125 71.09375 
Q 15.4375 72.65625 20.34375 73.4375 
Q 25.25 74.21875 29.59375 74.21875 
Q 40.828125 74.21875 47.359375 69.109375 
Q 53.90625 64.015625 53.90625 55.328125 
Q 53.90625 49.265625 50.4375 45.09375 
Q 46.96875 40.921875 40.578125 39.3125 
z
" id="DejaVuSans-51"/>
      </defs>
      <g transform="translate(66.430341 354.315672)rotate(-45)scale(0.1 -0.1)">
       <use xlink:href="#DejaVuSans-77"/>
       <use x="86.279297" xlink:href="#DejaVuSans-97"/>
       <use x="147.558594" xlink:href="#DejaVuSans-121"/>
       <use x="206.738281" xlink:href="#DejaVuSans-32"/>
       <use x="238.525391" xlink:href="#DejaVuSans-50"/>
       <use x="302.148438" xlink:href="#DejaVuSans-51"/>
      </g>
     </g>
    </g>
    <g id="xtick_3">
     <g id="line2d_3">
      <g>
       <use style="stroke:#000000;stroke-width:0.8;" x="129.007648" xlink:href="#m64e7b3a2bf" y="316.078125"/>
      </g>
     </g>
     <g id="text_3">
      <!-- Jun 20 -->
      <defs>
       <path d="M 9.8125 72.90625 
L 19.671875 72.90625 
L 19.671875 5.078125 
Q 19.671875 -8.109375 14.671875 -14.0625 
Q 9.671875 -20.015625 -1.421875 -20.015625 
L -5.171875 -20.015625 
L -5.171875 -11.71875 
L -2.09375 -11.71875 
Q 4.4375 -11.71875 7.125 -8.046875 
Q 9.8125 -4.390625 9.8125 5.078125 
z
" id="DejaVuSans-74"/>
       <path d="M 8.5 21.578125 
L 8.5 54.6875 
L 17.484375 54.6875 
L 17.484375 21.921875 
Q 17.484375 14.15625 20.5 10.265625 
Q 23.53125 6.390625 29.59375 6.390625 
Q 36.859375 6.390625 41.078125 11.03125 
Q 45.3125 15.671875 45.3125 23.6875 
L 45.3125 54.6875 
L 54.296875 54.6875 
L 54.296875 0 
L 45.3125 0 
L 45.3125 8.40625 
Q 42.046875 3.421875 37.71875 1 
Q 33.40625 -1.421875 27.6875 -1.421875 
Q 18.265625 -1.421875 13.375 4.4375 
Q 8.5 10.296875 8.5 21.578125 
z
M 31.109375 56 
z
" id="DejaVuSans-117"/>
       <path d="M 54.890625 33.015625 
L 54.890625 0 
L 45.90625 0 
L 45.90625 32.71875 
Q 45.90625 40.484375 42.875 44.328125 
Q 39.84375 48.1875 33.796875 48.1875 
Q 26.515625 48.1875 22.3125 43.546875 
Q 18.109375 38.921875 18.109375 30.90625 
L 18.109375 0 
L 9.078125 0 
L 9.078125 54.6875 
L 18.109375 54.6875 
L 18.109375 46.1875 
Q 21.34375 51.125 25.703125 53.5625 
Q 30.078125 56 35.796875 56 
Q 45.21875 56 50.046875 50.171875 
Q 54.890625 44.34375 54.890625 33.015625 
z
" id="DejaVuSans-110"/>
       <path d="M 31.78125 66.40625 
Q 24.171875 66.40625 20.328125 58.90625 
Q 16.5 51.421875 16.5 36.375 
Q 16.5 21.390625 20.328125 13.890625 
Q 24.171875 6.390625 31.78125 6.390625 
Q 39.453125 6.390625 43.28125 13.890625 
Q 47.125 21.390625 47.125 36.375 
Q 47.125 51.421875 43.28125 58.90625 
Q 39.453125 66.40625 31.78125 66.40625 
z
M 31.78125 74.21875 
Q 44.046875 74.21875 50.515625 64.515625 
Q 56.984375 54.828125 56.984375 36.375 
Q 56.984375 17.96875 50.515625 8.265625 
Q 44.046875 -1.421875 31.78125 -1.421875 
Q 19.53125 -1.421875 13.0625 8.265625 
Q 6.59375 17.96875 6.59375 36.375 
Q 6.59375 54.828125 13.0625 64.515625 
Q 19.53125 74.21875 31.78125 74.21875 
z
" id="DejaVuSans-48"/>
      </defs>
      <g transform="translate(105.243336 350.744783)rotate(-45)scale(0.1 -0.1)">
       <use xlink:href="#DejaVuSans-74"/>
       <use x="29.492188" xlink:href="#DejaVuSans-117"/>
       <use x="92.871094" xlink:href="#DejaVuSans-110"/>
       <use x="156.25" xlink:href="#DejaVuSans-32"/>
       <use x="188.037109" xlink:href="#DejaVuSans-50"/>
       <use x="251.660156" xlink:href="#DejaVuSans-48"/>
      </g>
     </g>
    </g>
    <g id="xtick_4">
     <g id="line2d_4">
      <g>
       <use style="stroke:#000000;stroke-width:0.8;" x="164.249753" xlink:href="#m64e7b3a2bf" y="316.078125"/>
      </g>
     </g>
     <g id="text_4">
      <!-- Jul 18 -->
      <defs>
       <path d="M 9.421875 75.984375 
L 18.40625 75.984375 
L 18.40625 0 
L 9.421875 0 
z
" id="DejaVuSans-108"/>
       <path d="M 12.40625 8.296875 
L 28.515625 8.296875 
L 28.515625 63.921875 
L 10.984375 60.40625 
L 10.984375 69.390625 
L 28.421875 72.90625 
L 38.28125 72.90625 
L 38.28125 8.296875 
L 54.390625 8.296875 
L 54.390625 0 
L 12.40625 0 
z
" id="DejaVuSans-49"/>
       <path d="M 31.78125 34.625 
Q 24.75 34.625 20.71875 30.859375 
Q 16.703125 27.09375 16.703125 20.515625 
Q 16.703125 13.921875 20.71875 10.15625 
Q 24.75 6.390625 31.78125 6.390625 
Q 38.8125 6.390625 42.859375 10.171875 
Q 46.921875 13.96875 46.921875 20.515625 
Q 46.921875 27.09375 42.890625 30.859375 
Q 38.875 34.625 31.78125 34.625 
z
M 21.921875 38.8125 
Q 15.578125 40.375 12.03125 44.71875 
Q 8.5 49.078125 8.5 55.328125 
Q 8.5 64.0625 14.71875 69.140625 
Q 20.953125 74.21875 31.78125 74.21875 
Q 42.671875 74.21875 48.875 69.140625 
Q 55.078125 64.0625 55.078125 55.328125 
Q 55.078125 49.078125 51.53125 44.71875 
Q 48 40.375 41.703125 38.8125 
Q 48.828125 37.15625 52.796875 32.3125 
Q 56.78125 27.484375 56.78125 20.515625 
Q 56.78125 9.90625 50.3125 4.234375 
Q 43.84375 -1.421875 31.78125 -1.421875 
Q 19.734375 -1.421875 13.25 4.234375 
Q 6.78125 9.90625 6.78125 20.515625 
Q 6.78125 27.484375 10.78125 32.3125 
Q 14.796875 37.15625 21.921875 38.8125 
z
M 18.3125 54.390625 
Q 18.3125 48.734375 21.84375 45.5625 
Q 25.390625 42.390625 31.78125 42.390625 
Q 38.140625 42.390625 41.71875 45.5625 
Q 45.3125 48.734375 45.3125 54.390625 
Q 45.3125 60.0625 41.71875 63.234375 
Q 38.140625 66.40625 31.78125 66.40625 
Q 25.390625 66.40625 21.84375 63.234375 
Q 18.3125 60.0625 18.3125 54.390625 
z
" id="DejaVuSans-56"/>
      </defs>
      <g transform="translate(143.002299 348.227924)rotate(-45)scale(0.1 -0.1)">
       <use xlink:href="#DejaVuSans-74"/>
       <use x="29.492188" xlink:href="#DejaVuSans-117"/>
       <use x="92.871094" xlink:href="#DejaVuSans-108"/>
       <use x="120.654297" xlink:href="#DejaVuSans-32"/>
       <use x="152.441406" xlink:href="#DejaVuSans-49"/>
       <use x="216.064453" xlink:href="#DejaVuSans-56"/>
      </g>
     </g>
    </g>
    <g id="xtick_5">
     <g id="line2d_5">
      <g>
       <use style="stroke:#000000;stroke-width:0.8;" x="199.491859" xlink:href="#m64e7b3a2bf" y="316.078125"/>
      </g>
     </g>
     <g id="text_5">
      <!-- Aug 15 -->
      <defs>
       <path d="M 45.40625 27.984375 
Q 45.40625 37.75 41.375 43.109375 
Q 37.359375 48.484375 30.078125 48.484375 
Q 22.859375 48.484375 18.828125 43.109375 
Q 14.796875 37.75 14.796875 27.984375 
Q 14.796875 18.265625 18.828125 12.890625 
Q 22.859375 7.515625 30.078125 7.515625 
Q 37.359375 7.515625 41.375 12.890625 
Q 45.40625 18.265625 45.40625 27.984375 
z
M 54.390625 6.78125 
Q 54.390625 -7.171875 48.1875 -13.984375 
Q 42 -20.796875 29.203125 -20.796875 
Q 24.46875 -20.796875 20.265625 -20.09375 
Q 16.0625 -19.390625 12.109375 -17.921875 
L 12.109375 -9.1875 
Q 16.0625 -11.328125 19.921875 -12.34375 
Q 23.78125 -13.375 27.78125 -13.375 
Q 36.625 -13.375 41.015625 -8.765625 
Q 45.40625 -4.15625 45.40625 5.171875 
L 45.40625 9.625 
Q 42.625 4.78125 38.28125 2.390625 
Q 33.9375 0 27.875 0 
Q 17.828125 0 11.671875 7.65625 
Q 5.515625 15.328125 5.515625 27.984375 
Q 5.515625 40.671875 11.671875 48.328125 
Q 17.828125 56 27.875 56 
Q 33.9375 56 38.28125 53.609375 
Q 42.625 51.21875 45.40625 46.390625 
L 45.40625 54.6875 
L 54.390625 54.6875 
z
" id="DejaVuSans-103"/>
      </defs>
      <g transform="translate(172.968725 353.503604)rotate(-45)scale(0.1 -0.1)">
       <use xlink:href="#DejaVuSans-65"/>
       <use x="68.408203" xlink:href="#DejaVuSans-117"/>
       <use x="131.787109" xlink:href="#DejaVuSans-103"/>
       <use x="195.263672" xlink:href="#DejaVuSans-32"/>
       <use x="227.050781" xlink:href="#DejaVuSans-49"/>
       <use x="290.673828" xlink:href="#DejaVuSans-53"/>
      </g>
     </g>
    </g>
    <g id="xtick_6">
     <g id="line2d_6">
      <g>
       <use style="stroke:#000000;stroke-width:0.8;" x="234.733964" xlink:href="#m64e7b3a2bf" y="316.078125"/>
      </g>
     </g>
     <g id="text_6">
      <!-- Sep 12 -->
      <defs>
       <path d="M 53.515625 70.515625 
L 53.515625 60.890625 
Q 47.90625 63.578125 42.921875 64.890625 
Q 37.9375 66.21875 33.296875 66.21875 
Q 25.25 66.21875 20.875 63.09375 
Q 16.5 59.96875 16.5 54.203125 
Q 16.5 49.359375 19.40625 46.890625 
Q 22.3125 44.4375 30.421875 42.921875 
L 36.375 41.703125 
Q 47.40625 39.59375 52.65625 34.296875 
Q 57.90625 29 57.90625 20.125 
Q 57.90625 9.515625 50.796875 4.046875 
Q 43.703125 -1.421875 29.984375 -1.421875 
Q 24.8125 -1.421875 18.96875 -0.25 
Q 13.140625 0.921875 6.890625 3.21875 
L 6.890625 13.375 
Q 12.890625 10.015625 18.65625 8.296875 
Q 24.421875 6.59375 29.984375 6.59375 
Q 38.421875 6.59375 43.015625 9.90625 
Q 47.609375 13.234375 47.609375 19.390625 
Q 47.609375 24.75 44.3125 27.78125 
Q 41.015625 30.8125 33.5 32.328125 
L 27.484375 33.5 
Q 16.453125 35.6875 11.515625 40.375 
Q 6.59375 45.0625 6.59375 53.421875 
Q 6.59375 63.09375 13.40625 68.65625 
Q 20.21875 74.21875 32.171875 74.21875 
Q 37.3125 74.21875 42.625 73.28125 
Q 47.953125 72.359375 53.515625 70.515625 
z
" id="DejaVuSans-83"/>
       <path d="M 56.203125 29.59375 
L 56.203125 25.203125 
L 14.890625 25.203125 
Q 15.484375 15.921875 20.484375 11.0625 
Q 25.484375 6.203125 34.421875 6.203125 
Q 39.59375 6.203125 44.453125 7.46875 
Q 49.3125 8.734375 54.109375 11.28125 
L 54.109375 2.78125 
Q 49.265625 0.734375 44.1875 -0.34375 
Q 39.109375 -1.421875 33.890625 -1.421875 
Q 20.796875 -1.421875 13.15625 6.1875 
Q 5.515625 13.8125 5.515625 26.8125 
Q 5.515625 40.234375 12.765625 48.109375 
Q 20.015625 56 32.328125 56 
Q 43.359375 56 49.78125 48.890625 
Q 56.203125 41.796875 56.203125 29.59375 
z
M 47.21875 32.234375 
Q 47.125 39.59375 43.09375 43.984375 
Q 39.0625 48.390625 32.421875 48.390625 
Q 24.90625 48.390625 20.390625 44.140625 
Q 15.875 39.890625 15.1875 32.171875 
z
" id="DejaVuSans-101"/>
      </defs>
      <g transform="translate(208.689232 353.025202)rotate(-45)scale(0.1 -0.1)">
       <use xlink:href="#DejaVuSans-83"/>
       <use x="63.476562" xlink:href="#DejaVuSans-101"/>
       <use x="125" xlink:href="#DejaVuSans-112"/>
       <use x="188.476562" xlink:href="#DejaVuSans-32"/>
       <use x="220.263672" xlink:href="#DejaVuSans-49"/>
       <use x="283.886719" xlink:href="#DejaVuSans-50"/>
      </g>
     </g>
    </g>
    <g id="xtick_7">
     <g id="line2d_7">
      <g>
       <use style="stroke:#000000;stroke-width:0.8;" x="269.976069" xlink:href="#m64e7b3a2bf" y="316.078125"/>
      </g>
     </g>
     <g id="text_7">
      <!-- Oct 10 -->
      <defs>
       <path d="M 39.40625 66.21875 
Q 28.65625 66.21875 22.328125 58.203125 
Q 16.015625 50.203125 16.015625 36.375 
Q 16.015625 22.609375 22.328125 14.59375 
Q 28.65625 6.59375 39.40625 6.59375 
Q 50.140625 6.59375 56.421875 14.59375 
Q 62.703125 22.609375 62.703125 36.375 
Q 62.703125 50.203125 56.421875 58.203125 
Q 50.140625 66.21875 39.40625 66.21875 
z
M 39.40625 74.21875 
Q 54.734375 74.21875 63.90625 63.9375 
Q 73.09375 53.65625 73.09375 36.375 
Q 73.09375 19.140625 63.90625 8.859375 
Q 54.734375 -1.421875 39.40625 -1.421875 
Q 24.03125 -1.421875 14.8125 8.828125 
Q 5.609375 19.09375 5.609375 36.375 
Q 5.609375 53.65625 14.8125 63.9375 
Q 24.03125 74.21875 39.40625 74.21875 
z
" id="DejaVuSans-79"/>
       <path d="M 48.78125 52.59375 
L 48.78125 44.1875 
Q 44.96875 46.296875 41.140625 47.34375 
Q 37.3125 48.390625 33.40625 48.390625 
Q 24.65625 48.390625 19.8125 42.84375 
Q 14.984375 37.3125 14.984375 27.296875 
Q 14.984375 17.28125 19.8125 11.734375 
Q 24.65625 6.203125 33.40625 6.203125 
Q 37.3125 6.203125 41.140625 7.25 
Q 44.96875 8.296875 48.78125 10.40625 
L 48.78125 2.09375 
Q 45.015625 0.34375 40.984375 -0.53125 
Q 36.96875 -1.421875 32.421875 -1.421875 
Q 20.0625 -1.421875 12.78125 6.34375 
Q 5.515625 14.109375 5.515625 27.296875 
Q 5.515625 40.671875 12.859375 48.328125 
Q 20.21875 56 33.015625 56 
Q 37.15625 56 41.109375 55.140625 
Q 45.0625 54.296875 48.78125 52.59375 
z
" id="DejaVuSans-99"/>
       <path d="M 18.3125 70.21875 
L 18.3125 54.6875 
L 36.8125 54.6875 
L 36.8125 47.703125 
L 18.3125 47.703125 
L 18.3125 18.015625 
Q 18.3125 11.328125 20.140625 9.421875 
Q 21.96875 7.515625 27.59375 7.515625 
L 36.8125 7.515625 
L 36.8125 0 
L 27.59375 0 
Q 17.1875 0 13.234375 3.875 
Q 9.28125 7.765625 9.28125 18.015625 
L 9.28125 47.703125 
L 2.6875 47.703125 
L 2.6875 54.6875 
L 9.28125 54.6875 
L 9.28125 70.21875 
z
" id="DejaVuSans-116"/>
      </defs>
      <g transform="translate(245.033982 351.922557)rotate(-45)scale(0.1 -0.1)">
       <use xlink:href="#DejaVuSans-79"/>
       <use x="78.710938" xlink:href="#DejaVuSans-99"/>
       <use x="133.691406" xlink:href="#DejaVuSans-116"/>
       <use x="172.900391" xlink:href="#DejaVuSans-32"/>
       <use x="204.6875" xlink:href="#DejaVuSans-49"/>
       <use x="268.310547" xlink:href="#DejaVuSans-48"/>
      </g>
     </g>
    </g>
    <g id="xtick_8">
     <g id="line2d_8">
      <g>
       <use style="stroke:#000000;stroke-width:0.8;" x="305.218174" xlink:href="#m64e7b3a2bf" y="316.078125"/>
      </g>
     </g>
     <g id="text_8">
      <!-- Nov 07 -->
      <defs>
       <path d="M 9.8125 72.90625 
L 23.09375 72.90625 
L 55.421875 11.921875 
L 55.421875 72.90625 
L 64.984375 72.90625 
L 64.984375 0 
L 51.703125 0 
L 19.390625 60.984375 
L 19.390625 0 
L 9.8125 0 
z
" id="DejaVuSans-78"/>
       <path d="M 30.609375 48.390625 
Q 23.390625 48.390625 19.1875 42.75 
Q 14.984375 37.109375 14.984375 27.296875 
Q 14.984375 17.484375 19.15625 11.84375 
Q 23.34375 6.203125 30.609375 6.203125 
Q 37.796875 6.203125 41.984375 11.859375 
Q 46.1875 17.53125 46.1875 27.296875 
Q 46.1875 37.015625 41.984375 42.703125 
Q 37.796875 48.390625 30.609375 48.390625 
z
M 30.609375 56 
Q 42.328125 56 49.015625 48.375 
Q 55.71875 40.765625 55.71875 27.296875 
Q 55.71875 13.875 49.015625 6.21875 
Q 42.328125 -1.421875 30.609375 -1.421875 
Q 18.84375 -1.421875 12.171875 6.21875 
Q 5.515625 13.875 5.515625 27.296875 
Q 5.515625 40.765625 12.171875 48.375 
Q 18.84375 56 30.609375 56 
z
" id="DejaVuSans-111"/>
       <path d="M 2.984375 54.6875 
L 12.5 54.6875 
L 29.59375 8.796875 
L 46.6875 54.6875 
L 56.203125 54.6875 
L 35.6875 0 
L 23.484375 0 
z
" id="DejaVuSans-118"/>
       <path d="M 8.203125 72.90625 
L 55.078125 72.90625 
L 55.078125 68.703125 
L 28.609375 0 
L 18.3125 0 
L 43.21875 64.59375 
L 8.203125 64.59375 
z
" id="DejaVuSans-55"/>
      </defs>
      <g transform="translate(278.700565 353.49808)rotate(-45)scale(0.1 -0.1)">
       <use xlink:href="#DejaVuSans-78"/>
       <use x="74.804688" xlink:href="#DejaVuSans-111"/>
       <use x="135.986328" xlink:href="#DejaVuSans-118"/>
       <use x="195.166016" xlink:href="#DejaVuSans-32"/>
       <use x="226.953125" xlink:href="#DejaVuSans-48"/>
       <use x="290.576172" xlink:href="#DejaVuSans-55"/>
      </g>
     </g>
    </g>
    <g id="xtick_9">
     <g id="line2d_9">
      <g>
       <use style="stroke:#000000;stroke-width:0.8;" x="340.46028" xlink:href="#m64e7b3a2bf" y="316.078125"/>
      </g>
     </g>
     <g id="text_9">
      <!-- Dec 05 -->
      <defs>
       <path d="M 19.671875 64.796875 
L 19.671875 8.109375 
L 31.59375 8.109375 
Q 46.6875 8.109375 53.6875 14.9375 
Q 60.6875 21.78125 60.6875 36.53125 
Q 60.6875 51.171875 53.6875 57.984375 
Q 46.6875 64.796875 31.59375 64.796875 
z
M 9.8125 72.90625 
L 30.078125 72.90625 
Q 51.265625 72.90625 61.171875 64.09375 
Q 71.09375 55.28125 71.09375 36.53125 
Q 71.09375 17.671875 61.125 8.828125 
Q 51.171875 0 30.078125 0 
L 9.8125 0 
z
" id="DejaVuSans-68"/>
      </defs>
      <g transform="translate(314.06089 353.37986)rotate(-45)scale(0.1 -0.1)">
       <use xlink:href="#DejaVuSans-68"/>
       <use x="77.001953" xlink:href="#DejaVuSans-101"/>
       <use x="138.525391" xlink:href="#DejaVuSans-99"/>
       <use x="193.505859" xlink:href="#DejaVuSans-32"/>
       <use x="225.292969" xlink:href="#DejaVuSans-48"/>
       <use x="288.916016" xlink:href="#DejaVuSans-53"/>
      </g>
     </g>
    </g>
    <g id="xtick_10">
     <g id="line2d_10">
      <g>
       <use style="stroke:#000000;stroke-width:0.8;" x="375.702385" xlink:href="#m64e7b3a2bf" y="316.078125"/>
      </g>
     </g>
     <g id="text_10">
      <!-- Jan 02 -->
      <g transform="translate(352.086123 350.596732)rotate(-45)scale(0.1 -0.1)">
       <use xlink:href="#DejaVuSans-74"/>
       <use x="29.492188" xlink:href="#DejaVuSans-97"/>
       <use x="90.771484" xlink:href="#DejaVuSans-110"/>
       <use x="154.150391" xlink:href="#DejaVuSans-32"/>
       <use x="185.9375" xlink:href="#DejaVuSans-48"/>
       <use x="249.560547" xlink:href="#DejaVuSans-50"/>
      </g>
     </g>
    </g>
    <g id="xtick_11">
     <g id="line2d_11">
      <g>
       <use style="stroke:#000000;stroke-width:0.8;" x="410.94449" xlink:href="#m64e7b3a2bf" y="316.078125"/>
      </g>
     </g>
     <g id="text_11">
      <!-- Jan 30 -->
      <g transform="translate(387.328228 350.596732)rotate(-45)scale(0.1 -0.1)">
       <use xlink:href="#DejaVuSans-74"/>
       <use x="29.492188" xlink:href="#DejaVuSans-97"/>
       <use x="90.771484" xlink:href="#DejaVuSans-110"/>
       <use x="154.150391" xlink:href="#DejaVuSans-32"/>
       <use x="185.9375" xlink:href="#DejaVuSans-51"/>
       <use x="249.560547" xlink:href="#DejaVuSans-48"/>
      </g>
     </g>
    </g>
    <g id="xtick_12">
     <g id="line2d_12">
      <g>
       <use style="stroke:#000000;stroke-width:0.8;" x="446.186595" xlink:href="#m64e7b3a2bf" y="316.078125"/>
      </g>
     </g>
     <g id="text_12">
      <!-- Feb 27 -->
      <defs>
       <path d="M 9.8125 72.90625 
L 51.703125 72.90625 
L 51.703125 64.59375 
L 19.671875 64.59375 
L 19.671875 43.109375 
L 48.578125 43.109375 
L 48.578125 34.8125 
L 19.671875 34.8125 
L 19.671875 0 
L 9.8125 0 
z
" id="DejaVuSans-70"/>
       <path d="M 48.6875 27.296875 
Q 48.6875 37.203125 44.609375 42.84375 
Q 40.53125 48.484375 33.40625 48.484375 
Q 26.265625 48.484375 22.1875 42.84375 
Q 18.109375 37.203125 18.109375 27.296875 
Q 18.109375 17.390625 22.1875 11.75 
Q 26.265625 6.109375 33.40625 6.109375 
Q 40.53125 6.109375 44.609375 11.75 
Q 48.6875 17.390625 48.6875 27.296875 
z
M 18.109375 46.390625 
Q 20.953125 51.265625 25.265625 53.625 
Q 29.59375 56 35.59375 56 
Q 45.5625 56 51.78125 48.09375 
Q 58.015625 40.1875 58.015625 27.296875 
Q 58.015625 14.40625 51.78125 6.484375 
Q 45.5625 -1.421875 35.59375 -1.421875 
Q 29.59375 -1.421875 25.265625 0.953125 
Q 20.953125 3.328125 18.109375 8.203125 
L 18.109375 0 
L 9.078125 0 
L 9.078125 75.984375 
L 18.109375 75.984375 
z
" id="DejaVuSans-98"/>
      </defs>
      <g transform="translate(420.952827 352.214239)rotate(-45)scale(0.1 -0.1)">
       <use xlink:href="#DejaVuSans-70"/>
       <use x="52.019531" xlink:href="#DejaVuSans-101"/>
       <use x="113.542969" xlink:href="#DejaVuSans-98"/>
       <use x="177.019531" xlink:href="#DejaVuSans-32"/>
       <use x="208.806641" xlink:href="#DejaVuSans-50"/>
       <use x="272.429688" xlink:href="#DejaVuSans-55"/>
      </g>
     </g>
    </g>
    <g id="xtick_13">
     <g id="line2d_13">
      <g>
       <use style="stroke:#000000;stroke-width:0.8;" x="481.428701" xlink:href="#m64e7b3a2bf" y="316.078125"/>
      </g>
     </g>
     <g id="text_13">
      <!-- Mar 27 -->
      <g transform="translate(455.371816 353.037355)rotate(-45)scale(0.1 -0.1)">
       <use xlink:href="#DejaVuSans-77"/>
       <use x="86.279297" xlink:href="#DejaVuSans-97"/>
       <use x="147.558594" xlink:href="#DejaVuSans-114"/>
       <use x="188.671875" xlink:href="#DejaVuSans-32"/>
       <use x="220.458984" xlink:href="#DejaVuSans-50"/>
       <use x="284.082031" xlink:href="#DejaVuSans-55"/>
      </g>
     </g>
    </g>
    <g id="xtick_14">
     <g id="line2d_14">
      <g>
       <use style="stroke:#000000;stroke-width:0.8;" x="516.670806" xlink:href="#m64e7b3a2bf" y="316.078125"/>
      </g>
     </g>
     <g id="text_14">
      <!-- Apr 24 -->
      <defs>
       <path d="M 37.796875 64.3125 
L 12.890625 25.390625 
L 37.796875 25.390625 
z
M 35.203125 72.90625 
L 47.609375 72.90625 
L 47.609375 25.390625 
L 58.015625 25.390625 
L 58.015625 17.1875 
L 47.609375 17.1875 
L 47.609375 0 
L 37.796875 0 
L 37.796875 17.1875 
L 4.890625 17.1875 
L 4.890625 26.703125 
z
" id="DejaVuSans-52"/>
      </defs>
      <g transform="translate(491.72209 351.929187)rotate(-45)scale(0.1 -0.1)">
       <use xlink:href="#DejaVuSans-65"/>
       <use x="68.408203" xlink:href="#DejaVuSans-112"/>
       <use x="131.884766" xlink:href="#DejaVuSans-114"/>
       <use x="172.998047" xlink:href="#DejaVuSans-32"/>
       <use x="204.785156" xlink:href="#DejaVuSans-50"/>
       <use x="268.408203" xlink:href="#DejaVuSans-52"/>
      </g>
     </g>
    </g>
    <g id="xtick_15">
     <g id="line2d_15">
      <g>
       <use style="stroke:#000000;stroke-width:0.8;" x="551.912911" xlink:href="#m64e7b3a2bf" y="316.078125"/>
      </g>
     </g>
     <g id="text_15">
      <!-- May 22 -->
      <g transform="translate(524.57771 354.315672)rotate(-45)scale(0.1 -0.1)">
       <use xlink:href="#DejaVuSans-77"/>
       <use x="86.279297" xlink:href="#DejaVuSans-97"/>
       <use x="147.558594" xlink:href="#DejaVuSans-121"/>
       <use x="206.738281" xlink:href="#DejaVuSans-32"/>
       <use x="238.525391" xlink:href="#DejaVuSans-50"/>
       <use x="302.148438" xlink:href="#DejaVuSans-50"/>
      </g>
     </g>
    </g>
    <g id="xtick_16">
     <g id="line2d_16">
      <g>
       <use style="stroke:#000000;stroke-width:0.8;" x="587.155016" xlink:href="#m64e7b3a2bf" y="316.078125"/>
      </g>
     </g>
     <g id="text_16">
      <!-- Jun 19 -->
      <defs>
       <path d="M 10.984375 1.515625 
L 10.984375 10.5 
Q 14.703125 8.734375 18.5 7.8125 
Q 22.3125 6.890625 25.984375 6.890625 
Q 35.75 6.890625 40.890625 13.453125 
Q 46.046875 20.015625 46.78125 33.40625 
Q 43.953125 29.203125 39.59375 26.953125 
Q 35.25 24.703125 29.984375 24.703125 
Q 19.046875 24.703125 12.671875 31.3125 
Q 6.296875 37.9375 6.296875 49.421875 
Q 6.296875 60.640625 12.9375 67.421875 
Q 19.578125 74.21875 30.609375 74.21875 
Q 43.265625 74.21875 49.921875 64.515625 
Q 56.59375 54.828125 56.59375 36.375 
Q 56.59375 19.140625 48.40625 8.859375 
Q 40.234375 -1.421875 26.421875 -1.421875 
Q 22.703125 -1.421875 18.890625 -0.6875 
Q 15.09375 0.046875 10.984375 1.515625 
z
M 30.609375 32.421875 
Q 37.25 32.421875 41.125 36.953125 
Q 45.015625 41.5 45.015625 49.421875 
Q 45.015625 57.28125 41.125 61.84375 
Q 37.25 66.40625 30.609375 66.40625 
Q 23.96875 66.40625 20.09375 61.84375 
Q 16.21875 57.28125 16.21875 49.421875 
Q 16.21875 41.5 20.09375 36.953125 
Q 23.96875 32.421875 30.609375 32.421875 
z
" id="DejaVuSans-57"/>
      </defs>
      <g transform="translate(563.390704 350.744783)rotate(-45)scale(0.1 -0.1)">
       <use xlink:href="#DejaVuSans-74"/>
       <use x="29.492188" xlink:href="#DejaVuSans-117"/>
       <use x="92.871094" xlink:href="#DejaVuSans-110"/>
       <use x="156.25" xlink:href="#DejaVuSans-32"/>
       <use x="188.037109" xlink:href="#DejaVuSans-49"/>
       <use x="251.660156" xlink:href="#DejaVuSans-57"/>
      </g>
     </g>
    </g>
    <g id="xtick_17">
     <g id="line2d_17">
      <g>
       <use style="stroke:#000000;stroke-width:0.8;" x="622.397122" xlink:href="#m64e7b3a2bf" y="316.078125"/>
      </g>
     </g>
     <g id="text_17">
      <!-- Jul 17 -->
      <g transform="translate(601.149668 348.227924)rotate(-45)scale(0.1 -0.1)">
       <use xlink:href="#DejaVuSans-74"/>
       <use x="29.492188" xlink:href="#DejaVuSans-117"/>
       <use x="92.871094" xlink:href="#DejaVuSans-108"/>
       <use x="120.654297" xlink:href="#DejaVuSans-32"/>
       <use x="152.441406" xlink:href="#DejaVuSans-49"/>
       <use x="216.064453" xlink:href="#DejaVuSans-55"/>
      </g>
     </g>
    </g>
    <g id="xtick_18">
     <g id="line2d_18">
      <g>
       <use style="stroke:#000000;stroke-width:0.8;" x="657.639227" xlink:href="#m64e7b3a2bf" y="316.078125"/>
      </g>
     </g>
     <g id="text_18">
      <!-- Aug 14 -->
      <g transform="translate(631.116094 353.503604)rotate(-45)scale(0.1 -0.1)">
       <use xlink:href="#DejaVuSans-65"/>
       <use x="68.408203" xlink:href="#DejaVuSans-117"/>
       <use x="131.787109" xlink:href="#DejaVuSans-103"/>
       <use x="195.263672" xlink:href="#DejaVuSans-32"/>
       <use x="227.050781" xlink:href="#DejaVuSans-49"/>
       <use x="290.673828" xlink:href="#DejaVuSans-52"/>
      </g>
     </g>
    </g>
    <g id="xtick_19">
     <g id="line2d_19">
      <g>
       <use style="stroke:#000000;stroke-width:0.8;" x="692.881332" xlink:href="#m64e7b3a2bf" y="316.078125"/>
      </g>
     </g>
     <g id="text_19">
      <!-- Sep 11 -->
      <g transform="translate(666.836601 353.025202)rotate(-45)scale(0.1 -0.1)">
       <use xlink:href="#DejaVuSans-83"/>
       <use x="63.476562" xlink:href="#DejaVuSans-101"/>
       <use x="125" xlink:href="#DejaVuSans-112"/>
       <use x="188.476562" xlink:href="#DejaVuSans-32"/>
       <use x="220.263672" xlink:href="#DejaVuSans-49"/>
       <use x="283.886719" xlink:href="#DejaVuSans-49"/>
      </g>
     </g>
    </g>
    <g id="xtick_20">
     <g id="line2d_20">
      <g>
       <use style="stroke:#000000;stroke-width:0.8;" x="728.123438" xlink:href="#m64e7b3a2bf" y="316.078125"/>
      </g>
     </g>
     <g id="text_20">
      <!-- Oct 09 -->
      <g transform="translate(703.181351 351.922557)rotate(-45)scale(0.1 -0.1)">
       <use xlink:href="#DejaVuSans-79"/>
       <use x="78.710938" xlink:href="#DejaVuSans-99"/>
       <use x="133.691406" xlink:href="#DejaVuSans-116"/>
       <use x="172.900391" xlink:href="#DejaVuSans-32"/>
       <use x="204.6875" xlink:href="#DejaVuSans-48"/>
       <use x="268.310547" xlink:href="#DejaVuSans-57"/>
      </g>
     </g>
    </g>
    <g id="text_21">
     <!-- Target End Date -->
     <defs>
      <path d="M -0.296875 72.90625 
L 61.375 72.90625 
L 61.375 64.59375 
L 35.5 64.59375 
L 35.5 0 
L 25.59375 0 
L 25.59375 64.59375 
L -0.296875 64.59375 
z
" id="DejaVuSans-84"/>
      <path d="M 9.8125 72.90625 
L 55.90625 72.90625 
L 55.90625 64.59375 
L 19.671875 64.59375 
L 19.671875 43.015625 
L 54.390625 43.015625 
L 54.390625 34.71875 
L 19.671875 34.71875 
L 19.671875 8.296875 
L 56.78125 8.296875 
L 56.78125 0 
L 9.8125 0 
z
" id="DejaVuSans-69"/>
      <path d="M 45.40625 46.390625 
L 45.40625 75.984375 
L 54.390625 75.984375 
L 54.390625 0 
L 45.40625 0 
L 45.40625 8.203125 
Q 42.578125 3.328125 38.25 0.953125 
Q 33.9375 -1.421875 27.875 -1.421875 
Q 17.96875 -1.421875 11.734375 6.484375 
Q 5.515625 14.40625 5.515625 27.296875 
Q 5.515625 40.1875 11.734375 48.09375 
Q 17.96875 56 27.875 56 
Q 33.9375 56 38.25 53.625 
Q 42.578125 51.265625 45.40625 46.390625 
z
M 14.796875 27.296875 
Q 14.796875 17.390625 18.875 11.75 
Q 22.953125 6.109375 30.078125 6.109375 
Q 37.203125 6.109375 41.296875 11.75 
Q 45.40625 17.390625 45.40625 27.296875 
Q 45.40625 37.203125 41.296875 42.84375 
Q 37.203125 48.484375 30.078125 48.484375 
Q 22.953125 48.484375 18.875 42.84375 
Q 14.796875 37.203125 14.796875 27.296875 
z
" id="DejaVuSans-100"/>
     </defs>
     <g transform="translate(353.220312 367.384671)scale(0.1 -0.1)">
      <use xlink:href="#DejaVuSans-84"/>
      <use x="44.583984" xlink:href="#DejaVuSans-97"/>
      <use x="105.863281" xlink:href="#DejaVuSans-114"/>
      <use x="145.226562" xlink:href="#DejaVuSans-103"/>
      <use x="208.703125" xlink:href="#DejaVuSans-101"/>
      <use x="270.226562" xlink:href="#DejaVuSans-116"/>
      <use x="309.435547" xlink:href="#DejaVuSans-32"/>
      <use x="341.222656" xlink:href="#DejaVuSans-69"/>
      <use x="404.40625" xlink:href="#DejaVuSans-110"/>
      <use x="467.785156" xlink:href="#DejaVuSans-100"/>
      <use x="531.261719" xlink:href="#DejaVuSans-32"/>
      <use x="563.048828" xlink:href="#DejaVuSans-68"/>
      <use x="640.050781" xlink:href="#DejaVuSans-97"/>
      <use x="701.330078" xlink:href="#DejaVuSans-116"/>
      <use x="740.539062" xlink:href="#DejaVuSans-101"/>
     </g>
    </g>
   </g>
   <g id="matplotlib.axis_2">
    <g id="ytick_1">
     <g id="line2d_21">
      <defs>
       <path d="M 0 0 
L -3.5 0 
" id="md53558161f" style="stroke:#000000;stroke-width:0.8;"/>
      </defs>
      <g>
       <use style="stroke:#000000;stroke-width:0.8;" x="58.523438" xlink:href="#md53558161f" y="314.412505"/>
      </g>
     </g>
     <g id="text_22">
      <!-- −15.0 -->
      <defs>
       <path d="M 10.59375 35.5 
L 73.1875 35.5 
L 73.1875 27.203125 
L 10.59375 27.203125 
z
" id="DejaVuSans-8722"/>
       <path d="M 10.6875 12.40625 
L 21 12.40625 
L 21 0 
L 10.6875 0 
z
" id="DejaVuSans-46"/>
      </defs>
      <g transform="translate(20.878125 318.211723)scale(0.1 -0.1)">
       <use xlink:href="#DejaVuSans-8722"/>
       <use x="83.789062" xlink:href="#DejaVuSans-49"/>
       <use x="147.412109" xlink:href="#DejaVuSans-53"/>
       <use x="211.035156" xlink:href="#DejaVuSans-46"/>
       <use x="242.822266" xlink:href="#DejaVuSans-48"/>
      </g>
     </g>
    </g>
    <g id="ytick_2">
     <g id="line2d_22">
      <g>
       <use style="stroke:#000000;stroke-width:0.8;" x="58.523438" xlink:href="#md53558161f" y="275.166615"/>
      </g>
     </g>
     <g id="text_23">
      <!-- −12.5 -->
      <g transform="translate(20.878125 278.965833)scale(0.1 -0.1)">
       <use xlink:href="#DejaVuSans-8722"/>
       <use x="83.789062" xlink:href="#DejaVuSans-49"/>
       <use x="147.412109" xlink:href="#DejaVuSans-50"/>
       <use x="211.035156" xlink:href="#DejaVuSans-46"/>
       <use x="242.822266" xlink:href="#DejaVuSans-53"/>
      </g>
     </g>
    </g>
    <g id="ytick_3">
     <g id="line2d_23">
      <g>
       <use style="stroke:#000000;stroke-width:0.8;" x="58.523438" xlink:href="#md53558161f" y="235.920725"/>
      </g>
     </g>
     <g id="text_24">
      <!-- −10.0 -->
      <g transform="translate(20.878125 239.719943)scale(0.1 -0.1)">
       <use xlink:href="#DejaVuSans-8722"/>
       <use x="83.789062" xlink:href="#DejaVuSans-49"/>
       <use x="147.412109" xlink:href="#DejaVuSans-48"/>
       <use x="211.035156" xlink:href="#DejaVuSans-46"/>
       <use x="242.822266" xlink:href="#DejaVuSans-48"/>
      </g>
     </g>
    </g>
    <g id="ytick_4">
     <g id="line2d_24">
      <g>
       <use style="stroke:#000000;stroke-width:0.8;" x="58.523438" xlink:href="#md53558161f" y="196.674834"/>
      </g>
     </g>
     <g id="text_25">
      <!-- −7.5 -->
      <g transform="translate(27.240625 200.474053)scale(0.1 -0.1)">
       <use xlink:href="#DejaVuSans-8722"/>
       <use x="83.789062" xlink:href="#DejaVuSans-55"/>
       <use x="147.412109" xlink:href="#DejaVuSans-46"/>
       <use x="179.199219" xlink:href="#DejaVuSans-53"/>
      </g>
     </g>
    </g>
    <g id="ytick_5">
     <g id="line2d_25">
      <g>
       <use style="stroke:#000000;stroke-width:0.8;" x="58.523438" xlink:href="#md53558161f" y="157.428944"/>
      </g>
     </g>
     <g id="text_26">
      <!-- −5.0 -->
      <g transform="translate(27.240625 161.228163)scale(0.1 -0.1)">
       <use xlink:href="#DejaVuSans-8722"/>
       <use x="83.789062" xlink:href="#DejaVuSans-53"/>
       <use x="147.412109" xlink:href="#DejaVuSans-46"/>
       <use x="179.199219" xlink:href="#DejaVuSans-48"/>
      </g>
     </g>
    </g>
    <g id="ytick_6">
     <g id="line2d_26">
      <g>
       <use style="stroke:#000000;stroke-width:0.8;" x="58.523438" xlink:href="#md53558161f" y="118.183054"/>
      </g>
     </g>
     <g id="text_27">
      <!-- −2.5 -->
      <g transform="translate(27.240625 121.982273)scale(0.1 -0.1)">
       <use xlink:href="#DejaVuSans-8722"/>
       <use x="83.789062" xlink:href="#DejaVuSans-50"/>
       <use x="147.412109" xlink:href="#DejaVuSans-46"/>
       <use x="179.199219" xlink:href="#DejaVuSans-53"/>
      </g>
     </g>
    </g>
    <g id="ytick_7">
     <g id="line2d_27">
      <g>
       <use style="stroke:#000000;stroke-width:0.8;" x="58.523438" xlink:href="#md53558161f" y="78.937164"/>
      </g>
     </g>
     <g id="text_28">
      <!-- 0.0 -->
      <g transform="translate(35.620313 82.736383)scale(0.1 -0.1)">
       <use xlink:href="#DejaVuSans-48"/>
       <use x="63.623047" xlink:href="#DejaVuSans-46"/>
       <use x="95.410156" xlink:href="#DejaVuSans-48"/>
      </g>
     </g>
    </g>
    <g id="ytick_8">
     <g id="line2d_28">
      <g>
       <use style="stroke:#000000;stroke-width:0.8;" x="58.523438" xlink:href="#md53558161f" y="39.691274"/>
      </g>
     </g>
     <g id="text_29">
      <!-- 2.5 -->
      <g transform="translate(35.620313 43.490493)scale(0.1 -0.1)">
       <use xlink:href="#DejaVuSans-50"/>
       <use x="63.623047" xlink:href="#DejaVuSans-46"/>
       <use x="95.410156" xlink:href="#DejaVuSans-53"/>
      </g>
     </g>
    </g>
    <g id="text_30">
     <!-- Score for cumulative deaths -->
     <defs>
      <path d="M 37.109375 75.984375 
L 37.109375 68.5 
L 28.515625 68.5 
Q 23.6875 68.5 21.796875 66.546875 
Q 19.921875 64.59375 19.921875 59.515625 
L 19.921875 54.6875 
L 34.71875 54.6875 
L 34.71875 47.703125 
L 19.921875 47.703125 
L 19.921875 0 
L 10.890625 0 
L 10.890625 47.703125 
L 2.296875 47.703125 
L 2.296875 54.6875 
L 10.890625 54.6875 
L 10.890625 58.5 
Q 10.890625 67.625 15.140625 71.796875 
Q 19.390625 75.984375 28.609375 75.984375 
z
" id="DejaVuSans-102"/>
      <path d="M 52 44.1875 
Q 55.375 50.25 60.0625 53.125 
Q 64.75 56 71.09375 56 
Q 79.640625 56 84.28125 50.015625 
Q 88.921875 44.046875 88.921875 33.015625 
L 88.921875 0 
L 79.890625 0 
L 79.890625 32.71875 
Q 79.890625 40.578125 77.09375 44.375 
Q 74.3125 48.1875 68.609375 48.1875 
Q 61.625 48.1875 57.5625 43.546875 
Q 53.515625 38.921875 53.515625 30.90625 
L 53.515625 0 
L 44.484375 0 
L 44.484375 32.71875 
Q 44.484375 40.625 41.703125 44.40625 
Q 38.921875 48.1875 33.109375 48.1875 
Q 26.21875 48.1875 22.15625 43.53125 
Q 18.109375 38.875 18.109375 30.90625 
L 18.109375 0 
L 9.078125 0 
L 9.078125 54.6875 
L 18.109375 54.6875 
L 18.109375 46.1875 
Q 21.1875 51.21875 25.484375 53.609375 
Q 29.78125 56 35.6875 56 
Q 41.65625 56 45.828125 52.96875 
Q 50 49.953125 52 44.1875 
z
" id="DejaVuSans-109"/>
      <path d="M 9.421875 54.6875 
L 18.40625 54.6875 
L 18.40625 0 
L 9.421875 0 
z
M 9.421875 75.984375 
L 18.40625 75.984375 
L 18.40625 64.59375 
L 9.421875 64.59375 
z
" id="DejaVuSans-105"/>
      <path d="M 54.890625 33.015625 
L 54.890625 0 
L 45.90625 0 
L 45.90625 32.71875 
Q 45.90625 40.484375 42.875 44.328125 
Q 39.84375 48.1875 33.796875 48.1875 
Q 26.515625 48.1875 22.3125 43.546875 
Q 18.109375 38.921875 18.109375 30.90625 
L 18.109375 0 
L 9.078125 0 
L 9.078125 75.984375 
L 18.109375 75.984375 
L 18.109375 46.1875 
Q 21.34375 51.125 25.703125 53.5625 
Q 30.078125 56 35.796875 56 
Q 45.21875 56 50.046875 50.171875 
Q 54.890625 44.34375 54.890625 33.015625 
z
" id="DejaVuSans-104"/>
      <path d="M 44.28125 53.078125 
L 44.28125 44.578125 
Q 40.484375 46.53125 36.375 47.5 
Q 32.28125 48.484375 27.875 48.484375 
Q 21.1875 48.484375 17.84375 46.4375 
Q 14.5 44.390625 14.5 40.28125 
Q 14.5 37.15625 16.890625 35.375 
Q 19.28125 33.59375 26.515625 31.984375 
L 29.59375 31.296875 
Q 39.15625 29.25 43.1875 25.515625 
Q 47.21875 21.78125 47.21875 15.09375 
Q 47.21875 7.46875 41.1875 3.015625 
Q 35.15625 -1.421875 24.609375 -1.421875 
Q 20.21875 -1.421875 15.453125 -0.5625 
Q 10.6875 0.296875 5.421875 2 
L 5.421875 11.28125 
Q 10.40625 8.6875 15.234375 7.390625 
Q 20.0625 6.109375 24.8125 6.109375 
Q 31.15625 6.109375 34.5625 8.28125 
Q 37.984375 10.453125 37.984375 14.40625 
Q 37.984375 18.0625 35.515625 20.015625 
Q 33.0625 21.96875 24.703125 23.78125 
L 21.578125 24.515625 
Q 13.234375 26.265625 9.515625 29.90625 
Q 5.8125 33.546875 5.8125 39.890625 
Q 5.8125 47.609375 11.28125 51.796875 
Q 16.75 56 26.8125 56 
Q 31.78125 56 36.171875 55.265625 
Q 40.578125 54.546875 44.28125 53.078125 
z
" id="DejaVuSans-115"/>
     </defs>
     <g transform="translate(14.798438 239.686406)rotate(-90)scale(0.1 -0.1)">
      <use xlink:href="#DejaVuSans-83"/>
      <use x="63.476562" xlink:href="#DejaVuSans-99"/>
      <use x="118.457031" xlink:href="#DejaVuSans-111"/>
      <use x="179.638672" xlink:href="#DejaVuSans-114"/>
      <use x="218.501953" xlink:href="#DejaVuSans-101"/>
      <use x="280.025391" xlink:href="#DejaVuSans-32"/>
      <use x="311.8125" xlink:href="#DejaVuSans-102"/>
      <use x="347.017578" xlink:href="#DejaVuSans-111"/>
      <use x="408.199219" xlink:href="#DejaVuSans-114"/>
      <use x="449.3125" xlink:href="#DejaVuSans-32"/>
      <use x="481.099609" xlink:href="#DejaVuSans-99"/>
      <use x="536.080078" xlink:href="#DejaVuSans-117"/>
      <use x="599.458984" xlink:href="#DejaVuSans-109"/>
      <use x="696.871094" xlink:href="#DejaVuSans-117"/>
      <use x="760.25" xlink:href="#DejaVuSans-108"/>
      <use x="788.033203" xlink:href="#DejaVuSans-97"/>
      <use x="849.3125" xlink:href="#DejaVuSans-116"/>
      <use x="888.521484" xlink:href="#DejaVuSans-105"/>
      <use x="916.304688" xlink:href="#DejaVuSans-118"/>
      <use x="975.484375" xlink:href="#DejaVuSans-101"/>
      <use x="1037.007812" xlink:href="#DejaVuSans-32"/>
      <use x="1068.794922" xlink:href="#DejaVuSans-100"/>
      <use x="1132.271484" xlink:href="#DejaVuSans-101"/>
      <use x="1193.794922" xlink:href="#DejaVuSans-97"/>
      <use x="1255.074219" xlink:href="#DejaVuSans-116"/>
      <use x="1294.283203" xlink:href="#DejaVuSans-104"/>
      <use x="1357.662109" xlink:href="#DejaVuSans-115"/>
     </g>
    </g>
   </g>
   <g id="line2d_29">
    <path clip-path="url(#pfd26f72c7c)" d="M 84.955016 282.643592 
L 93.765543 292.612048 
L 102.576069 209.829262 
L 129.007648 125.049748 
L 137.818174 180.681578 
L 155.439227 157.975177 
L 164.249753 229.263392 
L 269.976069 120.742598 
L 278.786595 103.446124 
L 287.597122 153.447839 
L 296.407648 145.699104 
L 305.218174 191.221816 
L 375.702385 140.241959 
L 384.512911 139.455594 
L 393.323438 152.096533 
L 419.755016 142.781658 
L 437.376069 156.160317 
L 507.86028 115.627508 
" style="fill:none;stroke:#000080;stroke-linecap:square;stroke-width:1.5;"/>
    <defs>
     <path d="M 0 3 
C 0.795609 3 1.55874 2.683901 2.12132 2.12132 
C 2.683901 1.55874 3 0.795609 3 0 
C 3 -0.795609 2.683901 -1.55874 2.12132 -2.12132 
C 1.55874 -2.683901 0.795609 -3 0 -3 
C -0.795609 -3 -1.55874 -2.683901 -2.12132 -2.12132 
C -2.683901 -1.55874 -3 -0.795609 -3 0 
C -3 0.795609 -2.683901 1.55874 -2.12132 2.12132 
C -1.55874 2.683901 -0.795609 3 0 3 
z
" id="m28b91f3abd" style="stroke:#000080;"/>
    </defs>
    <g clip-path="url(#pfd26f72c7c)">
     <use style="fill:#000080;stroke:#000080;" x="84.955016" xlink:href="#m28b91f3abd" y="282.643592"/>
     <use style="fill:#000080;stroke:#000080;" x="93.765543" xlink:href="#m28b91f3abd" y="292.612048"/>
     <use style="fill:#000080;stroke:#000080;" x="102.576069" xlink:href="#m28b91f3abd" y="209.829262"/>
     <use style="fill:#000080;stroke:#000080;" x="129.007648" xlink:href="#m28b91f3abd" y="125.049748"/>
     <use style="fill:#000080;stroke:#000080;" x="137.818174" xlink:href="#m28b91f3abd" y="180.681578"/>
     <use style="fill:#000080;stroke:#000080;" x="155.439227" xlink:href="#m28b91f3abd" y="157.975177"/>
     <use style="fill:#000080;stroke:#000080;" x="164.249753" xlink:href="#m28b91f3abd" y="229.263392"/>
     <use style="fill:#000080;stroke:#000080;" x="269.976069" xlink:href="#m28b91f3abd" y="120.742598"/>
     <use style="fill:#000080;stroke:#000080;" x="278.786595" xlink:href="#m28b91f3abd" y="103.446124"/>
     <use style="fill:#000080;stroke:#000080;" x="287.597122" xlink:href="#m28b91f3abd" y="153.447839"/>
     <use style="fill:#000080;stroke:#000080;" x="296.407648" xlink:href="#m28b91f3abd" y="145.699104"/>
     <use style="fill:#000080;stroke:#000080;" x="305.218174" xlink:href="#m28b91f3abd" y="191.221816"/>
     <use style="fill:#000080;stroke:#000080;" x="375.702385" xlink:href="#m28b91f3abd" y="140.241959"/>
     <use style="fill:#000080;stroke:#000080;" x="384.512911" xlink:href="#m28b91f3abd" y="139.455594"/>
     <use style="fill:#000080;stroke:#000080;" x="393.323438" xlink:href="#m28b91f3abd" y="152.096533"/>
     <use style="fill:#000080;stroke:#000080;" x="419.755016" xlink:href="#m28b91f3abd" y="142.781658"/>
     <use style="fill:#000080;stroke:#000080;" x="437.376069" xlink:href="#m28b91f3abd" y="156.160317"/>
     <use style="fill:#000080;stroke:#000080;" x="507.86028" xlink:href="#m28b91f3abd" y="115.627508"/>
    </g>
   </g>
   <g id="line2d_30">
    <path clip-path="url(#pfd26f72c7c)" d="M 93.765543 192.151897 
L 102.576069 177.363885 
L 111.386595 164.879764 
L 120.197122 168.224946 
L 129.007648 149.60441 
L 137.818174 154.43022 
L 146.628701 142.479391 
L 155.439227 139.49324 
L 164.249753 145.309433 
L 173.06028 152.285131 
L 181.870806 187.658713 
L 190.681332 161.441273 
L 199.491859 164.154747 
L 208.302385 165.896899 
L 217.112911 140.444624 
L 225.923438 131.200226 
L 234.733964 149.262665 
L 243.54449 152.579058 
L 252.355016 147.041908 
L 261.165543 116.846706 
L 269.976069 137.197392 
L 278.786595 140.976523 
L 287.597122 104.359751 
L 296.407648 145.641603 
L 305.218174 149.867874 
L 314.028701 152.04733 
L 340.46028 219.009097 
L 358.081332 213.495517 
L 375.702385 179.089276 
L 384.512911 167.419821 
L 393.323438 165.523007 
L 419.755016 164.192761 
L 428.565543 169.697112 
L 437.376069 129.446097 
L 446.186595 154.318947 
L 454.997122 141.127205 
L 463.807648 167.212618 
L 472.618174 130.356111 
L 481.428701 145.921498 
L 490.239227 113.675857 
L 499.049753 124.411033 
L 507.86028 141.827243 
L 516.670806 124.528833 
L 525.481332 113.862781 
L 534.291859 145.696227 
L 543.102385 122.962914 
L 551.912911 170.95301 
L 560.723438 112.929299 
L 569.533964 128.367191 
L 578.34449 102.758157 
L 587.155016 78.568456 
L 595.965543 111.827402 
L 604.776069 106.991292 
L 613.586595 101.881526 
L 622.397122 93.486998 
L 631.207648 71.577357 
L 640.018174 105.823595 
L 648.828701 113.378835 
L 657.639227 145.689971 
L 666.449753 159.981407 
L 675.26028 159.946008 
L 684.070806 150.548544 
L 692.881332 171.201792 
L 701.691859 156.137867 
L 710.502385 154.089149 
L 719.312911 138.062858 
" style="fill:none;stroke:#0000e8;stroke-linecap:square;stroke-width:1.5;"/>
    <defs>
     <path d="M 0 3 
C 0.795609 3 1.55874 2.683901 2.12132 2.12132 
C 2.683901 1.55874 3 0.795609 3 0 
C 3 -0.795609 2.683901 -1.55874 2.12132 -2.12132 
C 1.55874 -2.683901 0.795609 -3 0 -3 
C -0.795609 -3 -1.55874 -2.683901 -2.12132 -2.12132 
C -2.683901 -1.55874 -3 -0.795609 -3 0 
C -3 0.795609 -2.683901 1.55874 -2.12132 2.12132 
C -1.55874 2.683901 -0.795609 3 0 3 
z
" id="m79ae0f4c7a" style="stroke:#0000e8;"/>
    </defs>
    <g clip-path="url(#pfd26f72c7c)">
     <use style="fill:#0000e8;stroke:#0000e8;" x="93.765543" xlink:href="#m79ae0f4c7a" y="192.151897"/>
     <use style="fill:#0000e8;stroke:#0000e8;" x="102.576069" xlink:href="#m79ae0f4c7a" y="177.363885"/>
     <use style="fill:#0000e8;stroke:#0000e8;" x="111.386595" xlink:href="#m79ae0f4c7a" y="164.879764"/>
     <use style="fill:#0000e8;stroke:#0000e8;" x="120.197122" xlink:href="#m79ae0f4c7a" y="168.224946"/>
     <use style="fill:#0000e8;stroke:#0000e8;" x="129.007648" xlink:href="#m79ae0f4c7a" y="149.60441"/>
     <use style="fill:#0000e8;stroke:#0000e8;" x="137.818174" xlink:href="#m79ae0f4c7a" y="154.43022"/>
     <use style="fill:#0000e8;stroke:#0000e8;" x="146.628701" xlink:href="#m79ae0f4c7a" y="142.479391"/>
     <use style="fill:#0000e8;stroke:#0000e8;" x="155.439227" xlink:href="#m79ae0f4c7a" y="139.49324"/>
     <use style="fill:#0000e8;stroke:#0000e8;" x="164.249753" xlink:href="#m79ae0f4c7a" y="145.309433"/>
     <use style="fill:#0000e8;stroke:#0000e8;" x="173.06028" xlink:href="#m79ae0f4c7a" y="152.285131"/>
     <use style="fill:#0000e8;stroke:#0000e8;" x="181.870806" xlink:href="#m79ae0f4c7a" y="187.658713"/>
     <use style="fill:#0000e8;stroke:#0000e8;" x="190.681332" xlink:href="#m79ae0f4c7a" y="161.441273"/>
     <use style="fill:#0000e8;stroke:#0000e8;" x="199.491859" xlink:href="#m79ae0f4c7a" y="164.154747"/>
     <use style="fill:#0000e8;stroke:#0000e8;" x="208.302385" xlink:href="#m79ae0f4c7a" y="165.896899"/>
     <use style="fill:#0000e8;stroke:#0000e8;" x="217.112911" xlink:href="#m79ae0f4c7a" y="140.444624"/>
     <use style="fill:#0000e8;stroke:#0000e8;" x="225.923438" xlink:href="#m79ae0f4c7a" y="131.200226"/>
     <use style="fill:#0000e8;stroke:#0000e8;" x="234.733964" xlink:href="#m79ae0f4c7a" y="149.262665"/>
     <use style="fill:#0000e8;stroke:#0000e8;" x="243.54449" xlink:href="#m79ae0f4c7a" y="152.579058"/>
     <use style="fill:#0000e8;stroke:#0000e8;" x="252.355016" xlink:href="#m79ae0f4c7a" y="147.041908"/>
     <use style="fill:#0000e8;stroke:#0000e8;" x="261.165543" xlink:href="#m79ae0f4c7a" y="116.846706"/>
     <use style="fill:#0000e8;stroke:#0000e8;" x="269.976069" xlink:href="#m79ae0f4c7a" y="137.197392"/>
     <use style="fill:#0000e8;stroke:#0000e8;" x="278.786595" xlink:href="#m79ae0f4c7a" y="140.976523"/>
     <use style="fill:#0000e8;stroke:#0000e8;" x="287.597122" xlink:href="#m79ae0f4c7a" y="104.359751"/>
     <use style="fill:#0000e8;stroke:#0000e8;" x="296.407648" xlink:href="#m79ae0f4c7a" y="145.641603"/>
     <use style="fill:#0000e8;stroke:#0000e8;" x="305.218174" xlink:href="#m79ae0f4c7a" y="149.867874"/>
     <use style="fill:#0000e8;stroke:#0000e8;" x="314.028701" xlink:href="#m79ae0f4c7a" y="152.04733"/>
     <use style="fill:#0000e8;stroke:#0000e8;" x="340.46028" xlink:href="#m79ae0f4c7a" y="219.009097"/>
     <use style="fill:#0000e8;stroke:#0000e8;" x="358.081332" xlink:href="#m79ae0f4c7a" y="213.495517"/>
     <use style="fill:#0000e8;stroke:#0000e8;" x="375.702385" xlink:href="#m79ae0f4c7a" y="179.089276"/>
     <use style="fill:#0000e8;stroke:#0000e8;" x="384.512911" xlink:href="#m79ae0f4c7a" y="167.419821"/>
     <use style="fill:#0000e8;stroke:#0000e8;" x="393.323438" xlink:href="#m79ae0f4c7a" y="165.523007"/>
     <use style="fill:#0000e8;stroke:#0000e8;" x="419.755016" xlink:href="#m79ae0f4c7a" y="164.192761"/>
     <use style="fill:#0000e8;stroke:#0000e8;" x="428.565543" xlink:href="#m79ae0f4c7a" y="169.697112"/>
     <use style="fill:#0000e8;stroke:#0000e8;" x="437.376069" xlink:href="#m79ae0f4c7a" y="129.446097"/>
     <use style="fill:#0000e8;stroke:#0000e8;" x="446.186595" xlink:href="#m79ae0f4c7a" y="154.318947"/>
     <use style="fill:#0000e8;stroke:#0000e8;" x="454.997122" xlink:href="#m79ae0f4c7a" y="141.127205"/>
     <use style="fill:#0000e8;stroke:#0000e8;" x="463.807648" xlink:href="#m79ae0f4c7a" y="167.212618"/>
     <use style="fill:#0000e8;stroke:#0000e8;" x="472.618174" xlink:href="#m79ae0f4c7a" y="130.356111"/>
     <use style="fill:#0000e8;stroke:#0000e8;" x="481.428701" xlink:href="#m79ae0f4c7a" y="145.921498"/>
     <use style="fill:#0000e8;stroke:#0000e8;" x="490.239227" xlink:href="#m79ae0f4c7a" y="113.675857"/>
     <use style="fill:#0000e8;stroke:#0000e8;" x="499.049753" xlink:href="#m79ae0f4c7a" y="124.411033"/>
     <use style="fill:#0000e8;stroke:#0000e8;" x="507.86028" xlink:href="#m79ae0f4c7a" y="141.827243"/>
     <use style="fill:#0000e8;stroke:#0000e8;" x="516.670806" xlink:href="#m79ae0f4c7a" y="124.528833"/>
     <use style="fill:#0000e8;stroke:#0000e8;" x="525.481332" xlink:href="#m79ae0f4c7a" y="113.862781"/>
     <use style="fill:#0000e8;stroke:#0000e8;" x="534.291859" xlink:href="#m79ae0f4c7a" y="145.696227"/>
     <use style="fill:#0000e8;stroke:#0000e8;" x="543.102385" xlink:href="#m79ae0f4c7a" y="122.962914"/>
     <use style="fill:#0000e8;stroke:#0000e8;" x="551.912911" xlink:href="#m79ae0f4c7a" y="170.95301"/>
     <use style="fill:#0000e8;stroke:#0000e8;" x="560.723438" xlink:href="#m79ae0f4c7a" y="112.929299"/>
     <use style="fill:#0000e8;stroke:#0000e8;" x="569.533964" xlink:href="#m79ae0f4c7a" y="128.367191"/>
     <use style="fill:#0000e8;stroke:#0000e8;" x="578.34449" xlink:href="#m79ae0f4c7a" y="102.758157"/>
     <use style="fill:#0000e8;stroke:#0000e8;" x="587.155016" xlink:href="#m79ae0f4c7a" y="78.568456"/>
     <use style="fill:#0000e8;stroke:#0000e8;" x="595.965543" xlink:href="#m79ae0f4c7a" y="111.827402"/>
     <use style="fill:#0000e8;stroke:#0000e8;" x="604.776069" xlink:href="#m79ae0f4c7a" y="106.991292"/>
     <use style="fill:#0000e8;stroke:#0000e8;" x="613.586595" xlink:href="#m79ae0f4c7a" y="101.881526"/>
     <use style="fill:#0000e8;stroke:#0000e8;" x="622.397122" xlink:href="#m79ae0f4c7a" y="93.486998"/>
     <use style="fill:#0000e8;stroke:#0000e8;" x="631.207648" xlink:href="#m79ae0f4c7a" y="71.577357"/>
     <use style="fill:#0000e8;stroke:#0000e8;" x="640.018174" xlink:href="#m79ae0f4c7a" y="105.823595"/>
     <use style="fill:#0000e8;stroke:#0000e8;" x="648.828701" xlink:href="#m79ae0f4c7a" y="113.378835"/>
     <use style="fill:#0000e8;stroke:#0000e8;" x="657.639227" xlink:href="#m79ae0f4c7a" y="145.689971"/>
     <use style="fill:#0000e8;stroke:#0000e8;" x="666.449753" xlink:href="#m79ae0f4c7a" y="159.981407"/>
     <use style="fill:#0000e8;stroke:#0000e8;" x="675.26028" xlink:href="#m79ae0f4c7a" y="159.946008"/>
     <use style="fill:#0000e8;stroke:#0000e8;" x="684.070806" xlink:href="#m79ae0f4c7a" y="150.548544"/>
     <use style="fill:#0000e8;stroke:#0000e8;" x="692.881332" xlink:href="#m79ae0f4c7a" y="171.201792"/>
     <use style="fill:#0000e8;stroke:#0000e8;" x="701.691859" xlink:href="#m79ae0f4c7a" y="156.137867"/>
     <use style="fill:#0000e8;stroke:#0000e8;" x="710.502385" xlink:href="#m79ae0f4c7a" y="154.089149"/>
     <use style="fill:#0000e8;stroke:#0000e8;" x="719.312911" xlink:href="#m79ae0f4c7a" y="138.062858"/>
    </g>
   </g>
   <g id="line2d_31">
    <path clip-path="url(#pfd26f72c7c)" d="M 155.439227 114.762805 
L 164.249753 171.962688 
L 173.06028 166.366222 
L 199.491859 200.001048 
L 208.302385 168.503653 
L 217.112911 153.015805 
L 225.923438 161.668981 
L 234.733964 138.244921 
L 243.54449 159.116133 
L 252.355016 236.736358 
L 261.165543 247.877742 
L 287.597122 215.449088 
L 305.218174 142.117078 
L 314.028701 187.395424 
L 322.839227 205.181743 
L 331.649753 189.50453 
L 340.46028 202.508174 
L 349.270806 205.893804 
L 358.081332 208.008258 
L 375.702385 171.046368 
L 384.512911 172.833578 
L 393.323438 204.693503 
L 410.94449 220.838772 
L 419.755016 190.540548 
L 428.565543 170.763497 
L 437.376069 162.255749 
L 446.186595 154.275638 
L 454.997122 172.64266 
L 463.807648 222.040604 
L 472.618174 191.584383 
L 481.428701 141.280221 
L 490.239227 151.723566 
L 499.049753 118.37305 
L 507.86028 148.227544 
L 516.670806 157.539503 
L 525.481332 141.86068 
L 543.102385 117.782074 
L 551.912911 116.397168 
L 560.723438 112.867385 
L 569.533964 128.430039 
L 604.776069 96.268861 
L 613.586595 90.972837 
L 622.397122 104.118131 
L 631.207648 91.88049 
L 640.018174 101.852307 
L 648.828701 98.251605 
L 657.639227 164.57418 
L 666.449753 162.652749 
L 675.26028 129.069275 
L 684.070806 195.110124 
L 692.881332 194.981914 
L 701.691859 146.447814 
L 719.312911 139.373363 
" style="fill:none;stroke:#0038ff;stroke-linecap:square;stroke-width:1.5;"/>
    <defs>
     <path d="M 0 3 
C 0.795609 3 1.55874 2.683901 2.12132 2.12132 
C 2.683901 1.55874 3 0.795609 3 0 
C 3 -0.795609 2.683901 -1.55874 2.12132 -2.12132 
C 1.55874 -2.683901 0.795609 -3 0 -3 
C -0.795609 -3 -1.55874 -2.683901 -2.12132 -2.12132 
C -2.683901 -1.55874 -3 -0.795609 -3 0 
C -3 0.795609 -2.683901 1.55874 -2.12132 2.12132 
C -1.55874 2.683901 -0.795609 3 0 3 
z
" id="m4a2b823316" style="stroke:#0038ff;"/>
    </defs>
    <g clip-path="url(#pfd26f72c7c)">
     <use style="fill:#0038ff;stroke:#0038ff;" x="155.439227" xlink:href="#m4a2b823316" y="114.762805"/>
     <use style="fill:#0038ff;stroke:#0038ff;" x="164.249753" xlink:href="#m4a2b823316" y="171.962688"/>
     <use style="fill:#0038ff;stroke:#0038ff;" x="173.06028" xlink:href="#m4a2b823316" y="166.366222"/>
     <use style="fill:#0038ff;stroke:#0038ff;" x="199.491859" xlink:href="#m4a2b823316" y="200.001048"/>
     <use style="fill:#0038ff;stroke:#0038ff;" x="208.302385" xlink:href="#m4a2b823316" y="168.503653"/>
     <use style="fill:#0038ff;stroke:#0038ff;" x="217.112911" xlink:href="#m4a2b823316" y="153.015805"/>
     <use style="fill:#0038ff;stroke:#0038ff;" x="225.923438" xlink:href="#m4a2b823316" y="161.668981"/>
     <use style="fill:#0038ff;stroke:#0038ff;" x="234.733964" xlink:href="#m4a2b823316" y="138.244921"/>
     <use style="fill:#0038ff;stroke:#0038ff;" x="243.54449" xlink:href="#m4a2b823316" y="159.116133"/>
     <use style="fill:#0038ff;stroke:#0038ff;" x="252.355016" xlink:href="#m4a2b823316" y="236.736358"/>
     <use style="fill:#0038ff;stroke:#0038ff;" x="261.165543" xlink:href="#m4a2b823316" y="247.877742"/>
     <use style="fill:#0038ff;stroke:#0038ff;" x="287.597122" xlink:href="#m4a2b823316" y="215.449088"/>
     <use style="fill:#0038ff;stroke:#0038ff;" x="305.218174" xlink:href="#m4a2b823316" y="142.117078"/>
     <use style="fill:#0038ff;stroke:#0038ff;" x="314.028701" xlink:href="#m4a2b823316" y="187.395424"/>
     <use style="fill:#0038ff;stroke:#0038ff;" x="322.839227" xlink:href="#m4a2b823316" y="205.181743"/>
     <use style="fill:#0038ff;stroke:#0038ff;" x="331.649753" xlink:href="#m4a2b823316" y="189.50453"/>
     <use style="fill:#0038ff;stroke:#0038ff;" x="340.46028" xlink:href="#m4a2b823316" y="202.508174"/>
     <use style="fill:#0038ff;stroke:#0038ff;" x="349.270806" xlink:href="#m4a2b823316" y="205.893804"/>
     <use style="fill:#0038ff;stroke:#0038ff;" x="358.081332" xlink:href="#m4a2b823316" y="208.008258"/>
     <use style="fill:#0038ff;stroke:#0038ff;" x="375.702385" xlink:href="#m4a2b823316" y="171.046368"/>
     <use style="fill:#0038ff;stroke:#0038ff;" x="384.512911" xlink:href="#m4a2b823316" y="172.833578"/>
     <use style="fill:#0038ff;stroke:#0038ff;" x="393.323438" xlink:href="#m4a2b823316" y="204.693503"/>
     <use style="fill:#0038ff;stroke:#0038ff;" x="410.94449" xlink:href="#m4a2b823316" y="220.838772"/>
     <use style="fill:#0038ff;stroke:#0038ff;" x="419.755016" xlink:href="#m4a2b823316" y="190.540548"/>
     <use style="fill:#0038ff;stroke:#0038ff;" x="428.565543" xlink:href="#m4a2b823316" y="170.763497"/>
     <use style="fill:#0038ff;stroke:#0038ff;" x="437.376069" xlink:href="#m4a2b823316" y="162.255749"/>
     <use style="fill:#0038ff;stroke:#0038ff;" x="446.186595" xlink:href="#m4a2b823316" y="154.275638"/>
     <use style="fill:#0038ff;stroke:#0038ff;" x="454.997122" xlink:href="#m4a2b823316" y="172.64266"/>
     <use style="fill:#0038ff;stroke:#0038ff;" x="463.807648" xlink:href="#m4a2b823316" y="222.040604"/>
     <use style="fill:#0038ff;stroke:#0038ff;" x="472.618174" xlink:href="#m4a2b823316" y="191.584383"/>
     <use style="fill:#0038ff;stroke:#0038ff;" x="481.428701" xlink:href="#m4a2b823316" y="141.280221"/>
     <use style="fill:#0038ff;stroke:#0038ff;" x="490.239227" xlink:href="#m4a2b823316" y="151.723566"/>
     <use style="fill:#0038ff;stroke:#0038ff;" x="499.049753" xlink:href="#m4a2b823316" y="118.37305"/>
     <use style="fill:#0038ff;stroke:#0038ff;" x="507.86028" xlink:href="#m4a2b823316" y="148.227544"/>
     <use style="fill:#0038ff;stroke:#0038ff;" x="516.670806" xlink:href="#m4a2b823316" y="157.539503"/>
     <use style="fill:#0038ff;stroke:#0038ff;" x="525.481332" xlink:href="#m4a2b823316" y="141.86068"/>
     <use style="fill:#0038ff;stroke:#0038ff;" x="543.102385" xlink:href="#m4a2b823316" y="117.782074"/>
     <use style="fill:#0038ff;stroke:#0038ff;" x="551.912911" xlink:href="#m4a2b823316" y="116.397168"/>
     <use style="fill:#0038ff;stroke:#0038ff;" x="560.723438" xlink:href="#m4a2b823316" y="112.867385"/>
     <use style="fill:#0038ff;stroke:#0038ff;" x="569.533964" xlink:href="#m4a2b823316" y="128.430039"/>
     <use style="fill:#0038ff;stroke:#0038ff;" x="604.776069" xlink:href="#m4a2b823316" y="96.268861"/>
     <use style="fill:#0038ff;stroke:#0038ff;" x="613.586595" xlink:href="#m4a2b823316" y="90.972837"/>
     <use style="fill:#0038ff;stroke:#0038ff;" x="622.397122" xlink:href="#m4a2b823316" y="104.118131"/>
     <use style="fill:#0038ff;stroke:#0038ff;" x="631.207648" xlink:href="#m4a2b823316" y="91.88049"/>
     <use style="fill:#0038ff;stroke:#0038ff;" x="640.018174" xlink:href="#m4a2b823316" y="101.852307"/>
     <use style="fill:#0038ff;stroke:#0038ff;" x="648.828701" xlink:href="#m4a2b823316" y="98.251605"/>
     <use style="fill:#0038ff;stroke:#0038ff;" x="657.639227" xlink:href="#m4a2b823316" y="164.57418"/>
     <use style="fill:#0038ff;stroke:#0038ff;" x="666.449753" xlink:href="#m4a2b823316" y="162.652749"/>
     <use style="fill:#0038ff;stroke:#0038ff;" x="675.26028" xlink:href="#m4a2b823316" y="129.069275"/>
     <use style="fill:#0038ff;stroke:#0038ff;" x="684.070806" xlink:href="#m4a2b823316" y="195.110124"/>
     <use style="fill:#0038ff;stroke:#0038ff;" x="692.881332" xlink:href="#m4a2b823316" y="194.981914"/>
     <use style="fill:#0038ff;stroke:#0038ff;" x="701.691859" xlink:href="#m4a2b823316" y="146.447814"/>
     <use style="fill:#0038ff;stroke:#0038ff;" x="719.312911" xlink:href="#m4a2b823316" y="139.373363"/>
    </g>
   </g>
   <g id="line2d_32">
    <path clip-path="url(#pfd26f72c7c)" d="M 454.997122 157.55108 
L 463.807648 194.397004 
L 472.618174 155.74377 
L 481.428701 147.517629 
L 490.239227 151.773555 
L 499.049753 141.399312 
L 507.86028 140.466225 
L 516.670806 148.776863 
L 525.481332 152.025176 
L 534.291859 164.29386 
L 543.102385 129.063323 
L 551.912911 122.049677 
L 560.723438 137.978154 
L 569.533964 87.126871 
L 578.34449 115.808505 
L 587.155016 103.449752 
L 595.965543 149.553693 
L 604.776069 108.748994 
" style="fill:none;stroke:#56ffa0;stroke-linecap:square;stroke-width:1.5;"/>
    <defs>
     <path d="M 0 3 
C 0.795609 3 1.55874 2.683901 2.12132 2.12132 
C 2.683901 1.55874 3 0.795609 3 0 
C 3 -0.795609 2.683901 -1.55874 2.12132 -2.12132 
C 1.55874 -2.683901 0.795609 -3 0 -3 
C -0.795609 -3 -1.55874 -2.683901 -2.12132 -2.12132 
C -2.683901 -1.55874 -3 -0.795609 -3 0 
C -3 0.795609 -2.683901 1.55874 -2.12132 2.12132 
C -1.55874 2.683901 -0.795609 3 0 3 
z
" id="m4e87eac35d" style="stroke:#56ffa0;"/>
    </defs>
    <g clip-path="url(#pfd26f72c7c)">
     <use style="fill:#56ffa0;stroke:#56ffa0;" x="454.997122" xlink:href="#m4e87eac35d" y="157.55108"/>
     <use style="fill:#56ffa0;stroke:#56ffa0;" x="463.807648" xlink:href="#m4e87eac35d" y="194.397004"/>
     <use style="fill:#56ffa0;stroke:#56ffa0;" x="472.618174" xlink:href="#m4e87eac35d" y="155.74377"/>
     <use style="fill:#56ffa0;stroke:#56ffa0;" x="481.428701" xlink:href="#m4e87eac35d" y="147.517629"/>
     <use style="fill:#56ffa0;stroke:#56ffa0;" x="490.239227" xlink:href="#m4e87eac35d" y="151.773555"/>
     <use style="fill:#56ffa0;stroke:#56ffa0;" x="499.049753" xlink:href="#m4e87eac35d" y="141.399312"/>
     <use style="fill:#56ffa0;stroke:#56ffa0;" x="507.86028" xlink:href="#m4e87eac35d" y="140.466225"/>
     <use style="fill:#56ffa0;stroke:#56ffa0;" x="516.670806" xlink:href="#m4e87eac35d" y="148.776863"/>
     <use style="fill:#56ffa0;stroke:#56ffa0;" x="525.481332" xlink:href="#m4e87eac35d" y="152.025176"/>
     <use style="fill:#56ffa0;stroke:#56ffa0;" x="534.291859" xlink:href="#m4e87eac35d" y="164.29386"/>
     <use style="fill:#56ffa0;stroke:#56ffa0;" x="543.102385" xlink:href="#m4e87eac35d" y="129.063323"/>
     <use style="fill:#56ffa0;stroke:#56ffa0;" x="551.912911" xlink:href="#m4e87eac35d" y="122.049677"/>
     <use style="fill:#56ffa0;stroke:#56ffa0;" x="560.723438" xlink:href="#m4e87eac35d" y="137.978154"/>
     <use style="fill:#56ffa0;stroke:#56ffa0;" x="569.533964" xlink:href="#m4e87eac35d" y="87.126871"/>
     <use style="fill:#56ffa0;stroke:#56ffa0;" x="578.34449" xlink:href="#m4e87eac35d" y="115.808505"/>
     <use style="fill:#56ffa0;stroke:#56ffa0;" x="587.155016" xlink:href="#m4e87eac35d" y="103.449752"/>
     <use style="fill:#56ffa0;stroke:#56ffa0;" x="595.965543" xlink:href="#m4e87eac35d" y="149.553693"/>
     <use style="fill:#56ffa0;stroke:#56ffa0;" x="604.776069" xlink:href="#m4e87eac35d" y="108.748994"/>
    </g>
   </g>
   <g id="line2d_33">
    <path clip-path="url(#pfd26f72c7c)" d="M 173.06028 161.660661 
L 225.923438 119.826356 
L 234.733964 202.53854 
L 243.54449 127.754296 
L 261.165543 192.077718 
" style="fill:none;stroke:#a0ff56;stroke-linecap:square;stroke-width:1.5;"/>
    <defs>
     <path d="M 0 3 
C 0.795609 3 1.55874 2.683901 2.12132 2.12132 
C 2.683901 1.55874 3 0.795609 3 0 
C 3 -0.795609 2.683901 -1.55874 2.12132 -2.12132 
C 1.55874 -2.683901 0.795609 -3 0 -3 
C -0.795609 -3 -1.55874 -2.683901 -2.12132 -2.12132 
C -2.683901 -1.55874 -3 -0.795609 -3 0 
C -3 0.795609 -2.683901 1.55874 -2.12132 2.12132 
C -1.55874 2.683901 -0.795609 3 0 3 
z
" id="md51b15a3d2" style="stroke:#a0ff56;"/>
    </defs>
    <g clip-path="url(#pfd26f72c7c)">
     <use style="fill:#a0ff56;stroke:#a0ff56;" x="173.06028" xlink:href="#md51b15a3d2" y="161.660661"/>
     <use style="fill:#a0ff56;stroke:#a0ff56;" x="225.923438" xlink:href="#md51b15a3d2" y="119.826356"/>
     <use style="fill:#a0ff56;stroke:#a0ff56;" x="234.733964" xlink:href="#md51b15a3d2" y="202.53854"/>
     <use style="fill:#a0ff56;stroke:#a0ff56;" x="243.54449" xlink:href="#md51b15a3d2" y="127.754296"/>
     <use style="fill:#a0ff56;stroke:#a0ff56;" x="261.165543" xlink:href="#md51b15a3d2" y="192.077718"/>
    </g>
   </g>
   <g id="patch_3">
    <path d="M 58.523438 316.078125 
L 58.523438 22.318125 
" style="fill:none;stroke:#000000;stroke-linecap:square;stroke-linejoin:miter;stroke-width:0.8;"/>
   </g>
   <g id="patch_4">
    <path d="M 728.123438 316.078125 
L 728.123438 22.318125 
" style="fill:none;stroke:#000000;stroke-linecap:square;stroke-linejoin:miter;stroke-width:0.8;"/>
   </g>
   <g id="patch_5">
    <path d="M 58.523438 316.078125 
L 728.123438 316.078125 
" style="fill:none;stroke:#000000;stroke-linecap:square;stroke-linejoin:miter;stroke-width:0.8;"/>
   </g>
   <g id="patch_6">
    <path d="M 58.523438 22.318125 
L 728.123438 22.318125 
" style="fill:none;stroke:#000000;stroke-linecap:square;stroke-linejoin:miter;stroke-width:0.8;"/>
   </g>
   <g id="text_31">
    <!-- ensemble models -->
    <g transform="translate(340.283437 16.318125)scale(0.12 -0.12)">
     <use xlink:href="#DejaVuSans-101"/>
     <use x="61.523438" xlink:href="#DejaVuSans-110"/>
     <use x="124.902344" xlink:href="#DejaVuSans-115"/>
     <use x="177.001953" xlink:href="#DejaVuSans-101"/>
     <use x="238.525391" xlink:href="#DejaVuSans-109"/>
     <use x="335.9375" xlink:href="#DejaVuSans-98"/>
     <use x="399.414062" xlink:href="#DejaVuSans-108"/>
     <use x="427.197266" xlink:href="#DejaVuSans-101"/>
     <use x="488.720703" xlink:href="#DejaVuSans-32"/>
     <use x="520.507812" xlink:href="#DejaVuSans-109"/>
     <use x="617.919922" xlink:href="#DejaVuSans-111"/>
     <use x="679.101562" xlink:href="#DejaVuSans-100"/>
     <use x="742.578125" xlink:href="#DejaVuSans-101"/>
     <use x="804.101562" xlink:href="#DejaVuSans-108"/>
     <use x="831.884766" xlink:href="#DejaVuSans-115"/>
    </g>
   </g>
   <g id="legend_1">
    <g id="patch_7">
     <path d="M 756.907438 316.078125 
L 908.435563 316.078125 
Q 910.435563 316.078125 910.435563 314.078125 
L 910.435563 225.6875 
Q 910.435563 223.6875 908.435563 223.6875 
L 756.907438 223.6875 
Q 754.907438 223.6875 754.907438 225.6875 
L 754.907438 314.078125 
Q 754.907438 316.078125 756.907438 316.078125 
z
" style="fill:#ffffff;opacity:0.8;stroke:#cccccc;stroke-linejoin:miter;"/>
    </g>
    <g id="line2d_34">
     <path d="M 758.907438 231.785937 
L 778.907438 231.785937 
" style="fill:none;stroke:#000080;stroke-linecap:square;stroke-width:1.5;"/>
    </g>
    <g id="line2d_35">
     <g>
      <use style="fill:#000080;stroke:#000080;" x="768.907438" xlink:href="#m28b91f3abd" y="231.785937"/>
     </g>
    </g>
    <g id="text_32">
     <!-- UT:Mobility -->
     <defs>
      <path d="M 8.6875 72.90625 
L 18.609375 72.90625 
L 18.609375 28.609375 
Q 18.609375 16.890625 22.84375 11.734375 
Q 27.09375 6.59375 36.625 6.59375 
Q 46.09375 6.59375 50.34375 11.734375 
Q 54.59375 16.890625 54.59375 28.609375 
L 54.59375 72.90625 
L 64.5 72.90625 
L 64.5 27.390625 
Q 64.5 13.140625 57.4375 5.859375 
Q 50.390625 -1.421875 36.625 -1.421875 
Q 22.796875 -1.421875 15.734375 5.859375 
Q 8.6875 13.140625 8.6875 27.390625 
z
" id="DejaVuSans-85"/>
      <path d="M 11.71875 12.40625 
L 22.015625 12.40625 
L 22.015625 0 
L 11.71875 0 
z
M 11.71875 51.703125 
L 22.015625 51.703125 
L 22.015625 39.3125 
L 11.71875 39.3125 
z
" id="DejaVuSans-58"/>
     </defs>
     <g transform="translate(786.907438 235.285937)scale(0.1 -0.1)">
      <use xlink:href="#DejaVuSans-85"/>
      <use x="73.193359" xlink:href="#DejaVuSans-84"/>
      <use x="123.277344" xlink:href="#DejaVuSans-58"/>
      <use x="156.96875" xlink:href="#DejaVuSans-77"/>
      <use x="243.248047" xlink:href="#DejaVuSans-111"/>
      <use x="304.429688" xlink:href="#DejaVuSans-98"/>
      <use x="367.90625" xlink:href="#DejaVuSans-105"/>
      <use x="395.689453" xlink:href="#DejaVuSans-108"/>
      <use x="423.472656" xlink:href="#DejaVuSans-105"/>
      <use x="451.255859" xlink:href="#DejaVuSans-116"/>
      <use x="490.464844" xlink:href="#DejaVuSans-121"/>
     </g>
    </g>
    <g id="line2d_36">
     <path d="M 758.907438 250.464062 
L 778.907438 250.464062 
" style="fill:none;stroke:#0000e8;stroke-linecap:square;stroke-width:1.5;"/>
    </g>
    <g id="line2d_37">
     <g>
      <use style="fill:#0000e8;stroke:#0000e8;" x="768.907438" xlink:href="#m79ae0f4c7a" y="250.464062"/>
     </g>
    </g>
    <g id="text_33">
     <!-- COVIDhub:ensemble -->
     <defs>
      <path d="M 64.40625 67.28125 
L 64.40625 56.890625 
Q 59.421875 61.53125 53.78125 63.8125 
Q 48.140625 66.109375 41.796875 66.109375 
Q 29.296875 66.109375 22.65625 58.46875 
Q 16.015625 50.828125 16.015625 36.375 
Q 16.015625 21.96875 22.65625 14.328125 
Q 29.296875 6.6875 41.796875 6.6875 
Q 48.140625 6.6875 53.78125 8.984375 
Q 59.421875 11.28125 64.40625 15.921875 
L 64.40625 5.609375 
Q 59.234375 2.09375 53.4375 0.328125 
Q 47.65625 -1.421875 41.21875 -1.421875 
Q 24.65625 -1.421875 15.125 8.703125 
Q 5.609375 18.84375 5.609375 36.375 
Q 5.609375 53.953125 15.125 64.078125 
Q 24.65625 74.21875 41.21875 74.21875 
Q 47.75 74.21875 53.53125 72.484375 
Q 59.328125 70.75 64.40625 67.28125 
z
" id="DejaVuSans-67"/>
      <path d="M 28.609375 0 
L 0.78125 72.90625 
L 11.078125 72.90625 
L 34.1875 11.53125 
L 57.328125 72.90625 
L 67.578125 72.90625 
L 39.796875 0 
z
" id="DejaVuSans-86"/>
      <path d="M 9.8125 72.90625 
L 19.671875 72.90625 
L 19.671875 0 
L 9.8125 0 
z
" id="DejaVuSans-73"/>
     </defs>
     <g transform="translate(786.907438 253.964062)scale(0.1 -0.1)">
      <use xlink:href="#DejaVuSans-67"/>
      <use x="69.824219" xlink:href="#DejaVuSans-79"/>
      <use x="146.785156" xlink:href="#DejaVuSans-86"/>
      <use x="215.193359" xlink:href="#DejaVuSans-73"/>
      <use x="244.685547" xlink:href="#DejaVuSans-68"/>
      <use x="321.6875" xlink:href="#DejaVuSans-104"/>
      <use x="385.066406" xlink:href="#DejaVuSans-117"/>
      <use x="448.445312" xlink:href="#DejaVuSans-98"/>
      <use x="511.921875" xlink:href="#DejaVuSans-58"/>
      <use x="545.613281" xlink:href="#DejaVuSans-101"/>
      <use x="607.136719" xlink:href="#DejaVuSans-110"/>
      <use x="670.515625" xlink:href="#DejaVuSans-115"/>
      <use x="722.615234" xlink:href="#DejaVuSans-101"/>
      <use x="784.138672" xlink:href="#DejaVuSans-109"/>
      <use x="881.550781" xlink:href="#DejaVuSans-98"/>
      <use x="945.027344" xlink:href="#DejaVuSans-108"/>
      <use x="972.810547" xlink:href="#DejaVuSans-101"/>
     </g>
    </g>
    <g id="line2d_38">
     <path d="M 758.907438 269.142187 
L 778.907438 269.142187 
" style="fill:none;stroke:#0038ff;stroke-linecap:square;stroke-width:1.5;"/>
    </g>
    <g id="line2d_39">
     <g>
      <use style="fill:#0038ff;stroke:#0038ff;" x="768.907438" xlink:href="#m4a2b823316" y="269.142187"/>
     </g>
    </g>
    <g id="text_34">
     <!-- epiforecasts:ensemble1 -->
     <g transform="translate(786.907438 272.642187)scale(0.1 -0.1)">
      <use xlink:href="#DejaVuSans-101"/>
      <use x="61.523438" xlink:href="#DejaVuSans-112"/>
      <use x="125" xlink:href="#DejaVuSans-105"/>
      <use x="152.783203" xlink:href="#DejaVuSans-102"/>
      <use x="187.988281" xlink:href="#DejaVuSans-111"/>
      <use x="249.169922" xlink:href="#DejaVuSans-114"/>
      <use x="288.033203" xlink:href="#DejaVuSans-101"/>
      <use x="349.556641" xlink:href="#DejaVuSans-99"/>
      <use x="404.537109" xlink:href="#DejaVuSans-97"/>
      <use x="465.816406" xlink:href="#DejaVuSans-115"/>
      <use x="517.916016" xlink:href="#DejaVuSans-116"/>
      <use x="557.125" xlink:href="#DejaVuSans-115"/>
      <use x="609.224609" xlink:href="#DejaVuSans-58"/>
      <use x="642.916016" xlink:href="#DejaVuSans-101"/>
      <use x="704.439453" xlink:href="#DejaVuSans-110"/>
      <use x="767.818359" xlink:href="#DejaVuSans-115"/>
      <use x="819.917969" xlink:href="#DejaVuSans-101"/>
      <use x="881.441406" xlink:href="#DejaVuSans-109"/>
      <use x="978.853516" xlink:href="#DejaVuSans-98"/>
      <use x="1042.330078" xlink:href="#DejaVuSans-108"/>
      <use x="1070.113281" xlink:href="#DejaVuSans-101"/>
      <use x="1131.636719" xlink:href="#DejaVuSans-49"/>
     </g>
    </g>
    <g id="line2d_40">
     <path d="M 758.907438 287.820312 
L 778.907438 287.820312 
" style="fill:none;stroke:#56ffa0;stroke-linecap:square;stroke-width:1.5;"/>
    </g>
    <g id="line2d_41">
     <g>
      <use style="fill:#56ffa0;stroke:#56ffa0;" x="768.907438" xlink:href="#m4e87eac35d" y="287.820312"/>
     </g>
    </g>
    <g id="text_35">
     <!-- LNQ:ens1 -->
     <defs>
      <path d="M 9.8125 72.90625 
L 19.671875 72.90625 
L 19.671875 8.296875 
L 55.171875 8.296875 
L 55.171875 0 
L 9.8125 0 
z
" id="DejaVuSans-76"/>
      <path d="M 39.40625 66.21875 
Q 28.65625 66.21875 22.328125 58.203125 
Q 16.015625 50.203125 16.015625 36.375 
Q 16.015625 22.609375 22.328125 14.59375 
Q 28.65625 6.59375 39.40625 6.59375 
Q 50.140625 6.59375 56.421875 14.59375 
Q 62.703125 22.609375 62.703125 36.375 
Q 62.703125 50.203125 56.421875 58.203125 
Q 50.140625 66.21875 39.40625 66.21875 
z
M 53.21875 1.3125 
L 66.21875 -12.890625 
L 54.296875 -12.890625 
L 43.5 -1.21875 
Q 41.890625 -1.3125 41.03125 -1.359375 
Q 40.1875 -1.421875 39.40625 -1.421875 
Q 24.03125 -1.421875 14.8125 8.859375 
Q 5.609375 19.140625 5.609375 36.375 
Q 5.609375 53.65625 14.8125 63.9375 
Q 24.03125 74.21875 39.40625 74.21875 
Q 54.734375 74.21875 63.90625 63.9375 
Q 73.09375 53.65625 73.09375 36.375 
Q 73.09375 23.6875 67.984375 14.640625 
Q 62.890625 5.609375 53.21875 1.3125 
z
" id="DejaVuSans-81"/>
     </defs>
     <g transform="translate(786.907438 291.320312)scale(0.1 -0.1)">
      <use xlink:href="#DejaVuSans-76"/>
      <use x="55.712891" xlink:href="#DejaVuSans-78"/>
      <use x="130.517578" xlink:href="#DejaVuSans-81"/>
      <use x="209.228516" xlink:href="#DejaVuSans-58"/>
      <use x="242.919922" xlink:href="#DejaVuSans-101"/>
      <use x="304.443359" xlink:href="#DejaVuSans-110"/>
      <use x="367.822266" xlink:href="#DejaVuSans-115"/>
      <use x="419.921875" xlink:href="#DejaVuSans-49"/>
     </g>
    </g>
    <g id="line2d_42">
     <path d="M 758.907438 306.498437 
L 778.907438 306.498437 
" style="fill:none;stroke:#a0ff56;stroke-linecap:square;stroke-width:1.5;"/>
    </g>
    <g id="line2d_43">
     <g>
      <use style="fill:#a0ff56;stroke:#a0ff56;" x="768.907438" xlink:href="#md51b15a3d2" y="306.498437"/>
     </g>
    </g>
    <g id="text_36">
     <!-- NotreDame:mobility -->
     <g transform="translate(786.907438 309.998437)scale(0.1 -0.1)">
      <use xlink:href="#DejaVuSans-78"/>
      <use x="74.804688" xlink:href="#DejaVuSans-111"/>
      <use x="135.986328" xlink:href="#DejaVuSans-116"/>
      <use x="175.195312" xlink:href="#DejaVuSans-114"/>
      <use x="214.058594" xlink:href="#DejaVuSans-101"/>
      <use x="275.582031" xlink:href="#DejaVuSans-68"/>
      <use x="352.583984" xlink:href="#DejaVuSans-97"/>
      <use x="413.863281" xlink:href="#DejaVuSans-109"/>
      <use x="511.275391" xlink:href="#DejaVuSans-101"/>
      <use x="572.798828" xlink:href="#DejaVuSans-58"/>
      <use x="606.490234" xlink:href="#DejaVuSans-109"/>
      <use x="703.902344" xlink:href="#DejaVuSans-111"/>
      <use x="765.083984" xlink:href="#DejaVuSans-98"/>
      <use x="828.560547" xlink:href="#DejaVuSans-105"/>
      <use x="856.34375" xlink:href="#DejaVuSans-108"/>
      <use x="884.126953" xlink:href="#DejaVuSans-105"/>
      <use x="911.910156" xlink:href="#DejaVuSans-116"/>
      <use x="951.119141" xlink:href="#DejaVuSans-121"/>
     </g>
    </g>
   </g>
  </g>
 </g>
 <defs>
  <clipPath id="pfd26f72c7c">
   <rect height="293.76" width="669.6" x="58.523438" y="22.318125"/>
  </clipPath>
 </defs>
</svg>
