<?xml version="1.0" encoding="utf-8" standalone="no"?>
<!DOCTYPE svg PUBLIC "-//W3C//DTD SVG 1.1//EN"
  "http://www.w3.org/Graphics/SVG/1.1/DTD/svg11.dtd">
<!-- Created with matplotlib (https://matplotlib.org/) -->
<svg height="435.962704pt" version="1.1" viewBox="0 0 549.392284 435.962704" width="549.392284pt" xmlns="http://www.w3.org/2000/svg" xmlns:xlink="http://www.w3.org/1999/xlink">
 <defs>
  <style type="text/css">
*{stroke-linecap:butt;stroke-linejoin:round;}
  </style>
 </defs>
 <g id="figure_1">
  <g id="patch_1">
   <path d="M 0 435.962704 
L 549.392284 435.962704 
L 549.392284 0 
L 0 0 
z
" style="fill:#ffffff;"/>
  </g>
  <g id="axes_1">
   <g id="patch_2">
    <path d="M 85.248125 353.037188 
L 531.648125 353.037188 
L 531.648125 26.877187 
L 85.248125 26.877187 
z
" style="fill:#ffffff;"/>
   </g>
   <g id="matplotlib.axis_1">
    <g id="xtick_1">
     <g id="line2d_1">
      <defs>
       <path d="M 0 0 
L 0 3.5 
" id="m0b792403d5" style="stroke:#000000;stroke-width:0.8;"/>
      </defs>
      <g>
       <use style="stroke:#000000;stroke-width:0.8;" x="152.226082" xlink:href="#m0b792403d5" y="353.037188"/>
      </g>
     </g>
     <g id="text_1">
      <!-- 2020-03 -->
      <defs>
       <path d="M 19.1875 8.296875 
L 53.609375 8.296875 
L 53.609375 0 
L 7.328125 0 
L 7.328125 8.296875 
Q 12.9375 14.109375 22.625 23.890625 
Q 32.328125 33.6875 34.8125 36.53125 
Q 39.546875 41.84375 41.421875 45.53125 
Q 43.3125 49.21875 43.3125 52.78125 
Q 43.3125 58.59375 39.234375 62.25 
Q 35.15625 65.921875 28.609375 65.921875 
Q 23.96875 65.921875 18.8125 64.3125 
Q 13.671875 62.703125 7.8125 59.421875 
L 7.8125 69.390625 
Q 13.765625 71.78125 18.9375 73 
Q 24.125 74.21875 28.421875 74.21875 
Q 39.75 74.21875 46.484375 68.546875 
Q 53.21875 62.890625 53.21875 53.421875 
Q 53.21875 48.921875 51.53125 44.890625 
Q 49.859375 40.875 45.40625 35.40625 
Q 44.1875 33.984375 37.640625 27.21875 
Q 31.109375 20.453125 19.1875 8.296875 
z
" id="DejaVuSans-50"/>
       <path d="M 31.78125 66.40625 
Q 24.171875 66.40625 20.328125 58.90625 
Q 16.5 51.421875 16.5 36.375 
Q 16.5 21.390625 20.328125 13.890625 
Q 24.171875 6.390625 31.78125 6.390625 
Q 39.453125 6.390625 43.28125 13.890625 
Q 47.125 21.390625 47.125 36.375 
Q 47.125 51.421875 43.28125 58.90625 
Q 39.453125 66.40625 31.78125 66.40625 
z
M 31.78125 74.21875 
Q 44.046875 74.21875 50.515625 64.515625 
Q 56.984375 54.828125 56.984375 36.375 
Q 56.984375 17.96875 50.515625 8.265625 
Q 44.046875 -1.421875 31.78125 -1.421875 
Q 19.53125 -1.421875 13.0625 8.265625 
Q 6.59375 17.96875 6.59375 36.375 
Q 6.59375 54.828125 13.0625 64.515625 
Q 19.53125 74.21875 31.78125 74.21875 
z
" id="DejaVuSans-48"/>
       <path d="M 4.890625 31.390625 
L 31.203125 31.390625 
L 31.203125 23.390625 
L 4.890625 23.390625 
z
" id="DejaVuSans-45"/>
       <path d="M 40.578125 39.3125 
Q 47.65625 37.796875 51.625 33 
Q 55.609375 28.21875 55.609375 21.1875 
Q 55.609375 10.40625 48.1875 4.484375 
Q 40.765625 -1.421875 27.09375 -1.421875 
Q 22.515625 -1.421875 17.65625 -0.515625 
Q 12.796875 0.390625 7.625 2.203125 
L 7.625 11.71875 
Q 11.71875 9.328125 16.59375 8.109375 
Q 21.484375 6.890625 26.8125 6.890625 
Q 36.078125 6.890625 40.9375 10.546875 
Q 45.796875 14.203125 45.796875 21.1875 
Q 45.796875 27.640625 41.28125 31.265625 
Q 36.765625 34.90625 28.71875 34.90625 
L 20.21875 34.90625 
L 20.21875 43.015625 
L 29.109375 43.015625 
Q 36.375 43.015625 40.234375 45.921875 
Q 44.09375 48.828125 44.09375 54.296875 
Q 44.09375 59.90625 40.109375 62.90625 
Q 36.140625 65.921875 28.71875 65.921875 
Q 24.65625 65.921875 20.015625 65.03125 
Q 15.375 64.15625 9.8125 62.3125 
L 9.8125 71.09375 
Q 15.4375 72.65625 20.34375 73.4375 
Q 25.25 74.21875 29.59375 74.21875 
Q 40.828125 74.21875 47.359375 69.109375 
Q 53.90625 64.015625 53.90625 55.328125 
Q 53.90625 49.265625 50.4375 45.09375 
Q 46.96875 40.921875 40.578125 39.3125 
z
" id="DejaVuSans-51"/>
      </defs>
      <g transform="translate(135.558415 405.430349)rotate(-45)scale(0.13 -0.13)">
       <use xlink:href="#DejaVuSans-50"/>
       <use x="63.623047" xlink:href="#DejaVuSans-48"/>
       <use x="127.246094" xlink:href="#DejaVuSans-50"/>
       <use x="190.869141" xlink:href="#DejaVuSans-48"/>
       <use x="254.492188" xlink:href="#DejaVuSans-45"/>
       <use x="290.576172" xlink:href="#DejaVuSans-48"/>
       <use x="354.199219" xlink:href="#DejaVuSans-51"/>
      </g>
     </g>
    </g>
    <g id="xtick_2">
     <g id="line2d_2">
      <g>
       <use style="stroke:#000000;stroke-width:0.8;" x="225.249412" xlink:href="#m0b792403d5" y="353.037188"/>
      </g>
     </g>
     <g id="text_2">
      <!-- 2020-05 -->
      <defs>
       <path d="M 10.796875 72.90625 
L 49.515625 72.90625 
L 49.515625 64.59375 
L 19.828125 64.59375 
L 19.828125 46.734375 
Q 21.96875 47.46875 24.109375 47.828125 
Q 26.265625 48.1875 28.421875 48.1875 
Q 40.625 48.1875 47.75 41.5 
Q 54.890625 34.8125 54.890625 23.390625 
Q 54.890625 11.625 47.5625 5.09375 
Q 40.234375 -1.421875 26.90625 -1.421875 
Q 22.3125 -1.421875 17.546875 -0.640625 
Q 12.796875 0.140625 7.71875 1.703125 
L 7.71875 11.625 
Q 12.109375 9.234375 16.796875 8.0625 
Q 21.484375 6.890625 26.703125 6.890625 
Q 35.15625 6.890625 40.078125 11.328125 
Q 45.015625 15.765625 45.015625 23.390625 
Q 45.015625 31 40.078125 35.4375 
Q 35.15625 39.890625 26.703125 39.890625 
Q 22.75 39.890625 18.8125 39.015625 
Q 14.890625 38.140625 10.796875 36.28125 
z
" id="DejaVuSans-53"/>
      </defs>
      <g transform="translate(208.581745 405.430349)rotate(-45)scale(0.13 -0.13)">
       <use xlink:href="#DejaVuSans-50"/>
       <use x="63.623047" xlink:href="#DejaVuSans-48"/>
       <use x="127.246094" xlink:href="#DejaVuSans-50"/>
       <use x="190.869141" xlink:href="#DejaVuSans-48"/>
       <use x="254.492188" xlink:href="#DejaVuSans-45"/>
       <use x="290.576172" xlink:href="#DejaVuSans-48"/>
       <use x="354.199219" xlink:href="#DejaVuSans-53"/>
      </g>
     </g>
    </g>
    <g id="xtick_3">
     <g id="line2d_3">
      <g>
       <use style="stroke:#000000;stroke-width:0.8;" x="298.272743" xlink:href="#m0b792403d5" y="353.037188"/>
      </g>
     </g>
     <g id="text_3">
      <!-- 2020-07 -->
      <defs>
       <path d="M 8.203125 72.90625 
L 55.078125 72.90625 
L 55.078125 68.703125 
L 28.609375 0 
L 18.3125 0 
L 43.21875 64.59375 
L 8.203125 64.59375 
z
" id="DejaVuSans-55"/>
      </defs>
      <g transform="translate(281.605076 405.430349)rotate(-45)scale(0.13 -0.13)">
       <use xlink:href="#DejaVuSans-50"/>
       <use x="63.623047" xlink:href="#DejaVuSans-48"/>
       <use x="127.246094" xlink:href="#DejaVuSans-50"/>
       <use x="190.869141" xlink:href="#DejaVuSans-48"/>
       <use x="254.492188" xlink:href="#DejaVuSans-45"/>
       <use x="290.576172" xlink:href="#DejaVuSans-48"/>
       <use x="354.199219" xlink:href="#DejaVuSans-55"/>
      </g>
     </g>
    </g>
    <g id="xtick_4">
     <g id="line2d_4">
      <g>
       <use style="stroke:#000000;stroke-width:0.8;" x="372.493177" xlink:href="#m0b792403d5" y="353.037188"/>
      </g>
     </g>
     <g id="text_4">
      <!-- 2020-09 -->
      <defs>
       <path d="M 10.984375 1.515625 
L 10.984375 10.5 
Q 14.703125 8.734375 18.5 7.8125 
Q 22.3125 6.890625 25.984375 6.890625 
Q 35.75 6.890625 40.890625 13.453125 
Q 46.046875 20.015625 46.78125 33.40625 
Q 43.953125 29.203125 39.59375 26.953125 
Q 35.25 24.703125 29.984375 24.703125 
Q 19.046875 24.703125 12.671875 31.3125 
Q 6.296875 37.9375 6.296875 49.421875 
Q 6.296875 60.640625 12.9375 67.421875 
Q 19.578125 74.21875 30.609375 74.21875 
Q 43.265625 74.21875 49.921875 64.515625 
Q 56.59375 54.828125 56.59375 36.375 
Q 56.59375 19.140625 48.40625 8.859375 
Q 40.234375 -1.421875 26.421875 -1.421875 
Q 22.703125 -1.421875 18.890625 -0.6875 
Q 15.09375 0.046875 10.984375 1.515625 
z
M 30.609375 32.421875 
Q 37.25 32.421875 41.125 36.953125 
Q 45.015625 41.5 45.015625 49.421875 
Q 45.015625 57.28125 41.125 61.84375 
Q 37.25 66.40625 30.609375 66.40625 
Q 23.96875 66.40625 20.09375 61.84375 
Q 16.21875 57.28125 16.21875 49.421875 
Q 16.21875 41.5 20.09375 36.953125 
Q 23.96875 32.421875 30.609375 32.421875 
z
" id="DejaVuSans-57"/>
      </defs>
      <g transform="translate(355.82551 405.430349)rotate(-45)scale(0.13 -0.13)">
       <use xlink:href="#DejaVuSans-50"/>
       <use x="63.623047" xlink:href="#DejaVuSans-48"/>
       <use x="127.246094" xlink:href="#DejaVuSans-50"/>
       <use x="190.869141" xlink:href="#DejaVuSans-48"/>
       <use x="254.492188" xlink:href="#DejaVuSans-45"/>
       <use x="290.576172" xlink:href="#DejaVuSans-48"/>
       <use x="354.199219" xlink:href="#DejaVuSans-57"/>
      </g>
     </g>
    </g>
    <g id="xtick_5">
     <g id="line2d_5">
      <g>
       <use style="stroke:#000000;stroke-width:0.8;" x="445.516508" xlink:href="#m0b792403d5" y="353.037188"/>
      </g>
     </g>
     <g id="text_5">
      <!-- 2020-11 -->
      <defs>
       <path d="M 12.40625 8.296875 
L 28.515625 8.296875 
L 28.515625 63.921875 
L 10.984375 60.40625 
L 10.984375 69.390625 
L 28.421875 72.90625 
L 38.28125 72.90625 
L 38.28125 8.296875 
L 54.390625 8.296875 
L 54.390625 0 
L 12.40625 0 
z
" id="DejaVuSans-49"/>
      </defs>
      <g transform="translate(428.848841 405.430349)rotate(-45)scale(0.13 -0.13)">
       <use xlink:href="#DejaVuSans-50"/>
       <use x="63.623047" xlink:href="#DejaVuSans-48"/>
       <use x="127.246094" xlink:href="#DejaVuSans-50"/>
       <use x="190.869141" xlink:href="#DejaVuSans-48"/>
       <use x="254.492188" xlink:href="#DejaVuSans-45"/>
       <use x="290.576172" xlink:href="#DejaVuSans-49"/>
       <use x="354.199219" xlink:href="#DejaVuSans-49"/>
      </g>
     </g>
    </g>
    <g id="xtick_6">
     <g id="line2d_6">
      <g>
       <use style="stroke:#000000;stroke-width:0.8;" x="518.539839" xlink:href="#m0b792403d5" y="353.037188"/>
      </g>
     </g>
     <g id="text_6">
      <!-- 2021-01 -->
      <g transform="translate(501.872172 405.430349)rotate(-45)scale(0.13 -0.13)">
       <use xlink:href="#DejaVuSans-50"/>
       <use x="63.623047" xlink:href="#DejaVuSans-48"/>
       <use x="127.246094" xlink:href="#DejaVuSans-50"/>
       <use x="190.869141" xlink:href="#DejaVuSans-49"/>
       <use x="254.492188" xlink:href="#DejaVuSans-45"/>
       <use x="290.576172" xlink:href="#DejaVuSans-48"/>
       <use x="354.199219" xlink:href="#DejaVuSans-49"/>
      </g>
     </g>
    </g>
    <g id="text_7">
     <!-- Target End Date -->
     <defs>
      <path d="M -0.296875 72.90625 
L 61.375 72.90625 
L 61.375 64.59375 
L 35.5 64.59375 
L 35.5 0 
L 25.59375 0 
L 25.59375 64.59375 
L -0.296875 64.59375 
z
" id="DejaVuSans-84"/>
      <path d="M 34.28125 27.484375 
Q 23.390625 27.484375 19.1875 25 
Q 14.984375 22.515625 14.984375 16.5 
Q 14.984375 11.71875 18.140625 8.90625 
Q 21.296875 6.109375 26.703125 6.109375 
Q 34.1875 6.109375 38.703125 11.40625 
Q 43.21875 16.703125 43.21875 25.484375 
L 43.21875 27.484375 
z
M 52.203125 31.203125 
L 52.203125 0 
L 43.21875 0 
L 43.21875 8.296875 
Q 40.140625 3.328125 35.546875 0.953125 
Q 30.953125 -1.421875 24.3125 -1.421875 
Q 15.921875 -1.421875 10.953125 3.296875 
Q 6 8.015625 6 15.921875 
Q 6 25.140625 12.171875 29.828125 
Q 18.359375 34.515625 30.609375 34.515625 
L 43.21875 34.515625 
L 43.21875 35.40625 
Q 43.21875 41.609375 39.140625 45 
Q 35.0625 48.390625 27.6875 48.390625 
Q 23 48.390625 18.546875 47.265625 
Q 14.109375 46.140625 10.015625 43.890625 
L 10.015625 52.203125 
Q 14.9375 54.109375 19.578125 55.046875 
Q 24.21875 56 28.609375 56 
Q 40.484375 56 46.34375 49.84375 
Q 52.203125 43.703125 52.203125 31.203125 
z
" id="DejaVuSans-97"/>
      <path d="M 41.109375 46.296875 
Q 39.59375 47.171875 37.8125 47.578125 
Q 36.03125 48 33.890625 48 
Q 26.265625 48 22.1875 43.046875 
Q 18.109375 38.09375 18.109375 28.8125 
L 18.109375 0 
L 9.078125 0 
L 9.078125 54.6875 
L 18.109375 54.6875 
L 18.109375 46.1875 
Q 20.953125 51.171875 25.484375 53.578125 
Q 30.03125 56 36.53125 56 
Q 37.453125 56 38.578125 55.875 
Q 39.703125 55.765625 41.0625 55.515625 
z
" id="DejaVuSans-114"/>
      <path d="M 45.40625 27.984375 
Q 45.40625 37.75 41.375 43.109375 
Q 37.359375 48.484375 30.078125 48.484375 
Q 22.859375 48.484375 18.828125 43.109375 
Q 14.796875 37.75 14.796875 27.984375 
Q 14.796875 18.265625 18.828125 12.890625 
Q 22.859375 7.515625 30.078125 7.515625 
Q 37.359375 7.515625 41.375 12.890625 
Q 45.40625 18.265625 45.40625 27.984375 
z
M 54.390625 6.78125 
Q 54.390625 -7.171875 48.1875 -13.984375 
Q 42 -20.796875 29.203125 -20.796875 
Q 24.46875 -20.796875 20.265625 -20.09375 
Q 16.0625 -19.390625 12.109375 -17.921875 
L 12.109375 -9.1875 
Q 16.0625 -11.328125 19.921875 -12.34375 
Q 23.78125 -13.375 27.78125 -13.375 
Q 36.625 -13.375 41.015625 -8.765625 
Q 45.40625 -4.15625 45.40625 5.171875 
L 45.40625 9.625 
Q 42.625 4.78125 38.28125 2.390625 
Q 33.9375 0 27.875 0 
Q 17.828125 0 11.671875 7.65625 
Q 5.515625 15.328125 5.515625 27.984375 
Q 5.515625 40.671875 11.671875 48.328125 
Q 17.828125 56 27.875 56 
Q 33.9375 56 38.28125 53.609375 
Q 42.625 51.21875 45.40625 46.390625 
L 45.40625 54.6875 
L 54.390625 54.6875 
z
" id="DejaVuSans-103"/>
      <path d="M 56.203125 29.59375 
L 56.203125 25.203125 
L 14.890625 25.203125 
Q 15.484375 15.921875 20.484375 11.0625 
Q 25.484375 6.203125 34.421875 6.203125 
Q 39.59375 6.203125 44.453125 7.46875 
Q 49.3125 8.734375 54.109375 11.28125 
L 54.109375 2.78125 
Q 49.265625 0.734375 44.1875 -0.34375 
Q 39.109375 -1.421875 33.890625 -1.421875 
Q 20.796875 -1.421875 13.15625 6.1875 
Q 5.515625 13.8125 5.515625 26.8125 
Q 5.515625 40.234375 12.765625 48.109375 
Q 20.015625 56 32.328125 56 
Q 43.359375 56 49.78125 48.890625 
Q 56.203125 41.796875 56.203125 29.59375 
z
M 47.21875 32.234375 
Q 47.125 39.59375 43.09375 43.984375 
Q 39.0625 48.390625 32.421875 48.390625 
Q 24.90625 48.390625 20.390625 44.140625 
Q 15.875 39.890625 15.1875 32.171875 
z
" id="DejaVuSans-101"/>
      <path d="M 18.3125 70.21875 
L 18.3125 54.6875 
L 36.8125 54.6875 
L 36.8125 47.703125 
L 18.3125 47.703125 
L 18.3125 18.015625 
Q 18.3125 11.328125 20.140625 9.421875 
Q 21.96875 7.515625 27.59375 7.515625 
L 36.8125 7.515625 
L 36.8125 0 
L 27.59375 0 
Q 17.1875 0 13.234375 3.875 
Q 9.28125 7.765625 9.28125 18.015625 
L 9.28125 47.703125 
L 2.6875 47.703125 
L 2.6875 54.6875 
L 9.28125 54.6875 
L 9.28125 70.21875 
z
" id="DejaVuSans-116"/>
      <path id="DejaVuSans-32"/>
      <path d="M 9.8125 72.90625 
L 55.90625 72.90625 
L 55.90625 64.59375 
L 19.671875 64.59375 
L 19.671875 43.015625 
L 54.390625 43.015625 
L 54.390625 34.71875 
L 19.671875 34.71875 
L 19.671875 8.296875 
L 56.78125 8.296875 
L 56.78125 0 
L 9.8125 0 
z
" id="DejaVuSans-69"/>
      <path d="M 54.890625 33.015625 
L 54.890625 0 
L 45.90625 0 
L 45.90625 32.71875 
Q 45.90625 40.484375 42.875 44.328125 
Q 39.84375 48.1875 33.796875 48.1875 
Q 26.515625 48.1875 22.3125 43.546875 
Q 18.109375 38.921875 18.109375 30.90625 
L 18.109375 0 
L 9.078125 0 
L 9.078125 54.6875 
L 18.109375 54.6875 
L 18.109375 46.1875 
Q 21.34375 51.125 25.703125 53.5625 
Q 30.078125 56 35.796875 56 
Q 45.21875 56 50.046875 50.171875 
Q 54.890625 44.34375 54.890625 33.015625 
z
" id="DejaVuSans-110"/>
      <path d="M 45.40625 46.390625 
L 45.40625 75.984375 
L 54.390625 75.984375 
L 54.390625 0 
L 45.40625 0 
L 45.40625 8.203125 
Q 42.578125 3.328125 38.25 0.953125 
Q 33.9375 -1.421875 27.875 -1.421875 
Q 17.96875 -1.421875 11.734375 6.484375 
Q 5.515625 14.40625 5.515625 27.296875 
Q 5.515625 40.1875 11.734375 48.09375 
Q 17.96875 56 27.875 56 
Q 33.9375 56 38.25 53.625 
Q 42.578125 51.265625 45.40625 46.390625 
z
M 14.796875 27.296875 
Q 14.796875 17.390625 18.875 11.75 
Q 22.953125 6.109375 30.078125 6.109375 
Q 37.203125 6.109375 41.296875 11.75 
Q 45.40625 17.390625 45.40625 27.296875 
Q 45.40625 37.203125 41.296875 42.84375 
Q 37.203125 48.484375 30.078125 48.484375 
Q 22.953125 48.484375 18.875 42.84375 
Q 14.796875 37.203125 14.796875 27.296875 
z
" id="DejaVuSans-100"/>
      <path d="M 19.671875 64.796875 
L 19.671875 8.109375 
L 31.59375 8.109375 
Q 46.6875 8.109375 53.6875 14.9375 
Q 60.6875 21.78125 60.6875 36.53125 
Q 60.6875 51.171875 53.6875 57.984375 
Q 46.6875 64.796875 31.59375 64.796875 
z
M 9.8125 72.90625 
L 30.078125 72.90625 
Q 51.265625 72.90625 61.171875 64.09375 
Q 71.09375 55.28125 71.09375 36.53125 
Q 71.09375 17.671875 61.125 8.828125 
Q 51.171875 0 30.078125 0 
L 9.8125 0 
z
" id="DejaVuSans-68"/>
     </defs>
     <g transform="translate(236.2625 425.019266)scale(0.18 -0.18)">
      <use xlink:href="#DejaVuSans-84"/>
      <use x="44.583984" xlink:href="#DejaVuSans-97"/>
      <use x="105.863281" xlink:href="#DejaVuSans-114"/>
      <use x="145.226562" xlink:href="#DejaVuSans-103"/>
      <use x="208.703125" xlink:href="#DejaVuSans-101"/>
      <use x="270.226562" xlink:href="#DejaVuSans-116"/>
      <use x="309.435547" xlink:href="#DejaVuSans-32"/>
      <use x="341.222656" xlink:href="#DejaVuSans-69"/>
      <use x="404.40625" xlink:href="#DejaVuSans-110"/>
      <use x="467.785156" xlink:href="#DejaVuSans-100"/>
      <use x="531.261719" xlink:href="#DejaVuSans-32"/>
      <use x="563.048828" xlink:href="#DejaVuSans-68"/>
      <use x="640.050781" xlink:href="#DejaVuSans-97"/>
      <use x="701.330078" xlink:href="#DejaVuSans-116"/>
      <use x="740.539062" xlink:href="#DejaVuSans-101"/>
     </g>
    </g>
   </g>
   <g id="matplotlib.axis_2">
    <g id="ytick_1">
     <g id="line2d_7">
      <defs>
       <path d="M 0 0 
L -3.5 0 
" id="md641aabdfd" style="stroke:#000000;stroke-width:0.8;"/>
      </defs>
      <g>
       <use style="stroke:#000000;stroke-width:0.8;" x="85.248125" xlink:href="#md641aabdfd" y="353.037188"/>
      </g>
     </g>
     <g id="text_8">
      <!-- 0 -->
      <g transform="translate(69.976875 357.976172)scale(0.13 -0.13)">
       <use xlink:href="#DejaVuSans-48"/>
      </g>
     </g>
    </g>
    <g id="ytick_2">
     <g id="line2d_8">
      <g>
       <use style="stroke:#000000;stroke-width:0.8;" x="85.248125" xlink:href="#md641aabdfd" y="308.369961"/>
      </g>
     </g>
     <g id="text_9">
      <!-- 50000 -->
      <g transform="translate(36.891875 313.308945)scale(0.13 -0.13)">
       <use xlink:href="#DejaVuSans-53"/>
       <use x="63.623047" xlink:href="#DejaVuSans-48"/>
       <use x="127.246094" xlink:href="#DejaVuSans-48"/>
       <use x="190.869141" xlink:href="#DejaVuSans-48"/>
       <use x="254.492188" xlink:href="#DejaVuSans-48"/>
      </g>
     </g>
    </g>
    <g id="ytick_3">
     <g id="line2d_9">
      <g>
       <use style="stroke:#000000;stroke-width:0.8;" x="85.248125" xlink:href="#md641aabdfd" y="263.702734"/>
      </g>
     </g>
     <g id="text_10">
      <!-- 100000 -->
      <g transform="translate(28.620625 268.641718)scale(0.13 -0.13)">
       <use xlink:href="#DejaVuSans-49"/>
       <use x="63.623047" xlink:href="#DejaVuSans-48"/>
       <use x="127.246094" xlink:href="#DejaVuSans-48"/>
       <use x="190.869141" xlink:href="#DejaVuSans-48"/>
       <use x="254.492188" xlink:href="#DejaVuSans-48"/>
       <use x="318.115234" xlink:href="#DejaVuSans-48"/>
      </g>
     </g>
    </g>
    <g id="ytick_4">
     <g id="line2d_10">
      <g>
       <use style="stroke:#000000;stroke-width:0.8;" x="85.248125" xlink:href="#md641aabdfd" y="219.035507"/>
      </g>
     </g>
     <g id="text_11">
      <!-- 150000 -->
      <g transform="translate(28.620625 223.974492)scale(0.13 -0.13)">
       <use xlink:href="#DejaVuSans-49"/>
       <use x="63.623047" xlink:href="#DejaVuSans-53"/>
       <use x="127.246094" xlink:href="#DejaVuSans-48"/>
       <use x="190.869141" xlink:href="#DejaVuSans-48"/>
       <use x="254.492188" xlink:href="#DejaVuSans-48"/>
       <use x="318.115234" xlink:href="#DejaVuSans-48"/>
      </g>
     </g>
    </g>
    <g id="ytick_5">
     <g id="line2d_11">
      <g>
       <use style="stroke:#000000;stroke-width:0.8;" x="85.248125" xlink:href="#md641aabdfd" y="174.368281"/>
      </g>
     </g>
     <g id="text_12">
      <!-- 200000 -->
      <g transform="translate(28.620625 179.307265)scale(0.13 -0.13)">
       <use xlink:href="#DejaVuSans-50"/>
       <use x="63.623047" xlink:href="#DejaVuSans-48"/>
       <use x="127.246094" xlink:href="#DejaVuSans-48"/>
       <use x="190.869141" xlink:href="#DejaVuSans-48"/>
       <use x="254.492188" xlink:href="#DejaVuSans-48"/>
       <use x="318.115234" xlink:href="#DejaVuSans-48"/>
      </g>
     </g>
    </g>
    <g id="ytick_6">
     <g id="line2d_12">
      <g>
       <use style="stroke:#000000;stroke-width:0.8;" x="85.248125" xlink:href="#md641aabdfd" y="129.701054"/>
      </g>
     </g>
     <g id="text_13">
      <!-- 250000 -->
      <g transform="translate(28.620625 134.640038)scale(0.13 -0.13)">
       <use xlink:href="#DejaVuSans-50"/>
       <use x="63.623047" xlink:href="#DejaVuSans-53"/>
       <use x="127.246094" xlink:href="#DejaVuSans-48"/>
       <use x="190.869141" xlink:href="#DejaVuSans-48"/>
       <use x="254.492188" xlink:href="#DejaVuSans-48"/>
       <use x="318.115234" xlink:href="#DejaVuSans-48"/>
      </g>
     </g>
    </g>
    <g id="ytick_7">
     <g id="line2d_13">
      <g>
       <use style="stroke:#000000;stroke-width:0.8;" x="85.248125" xlink:href="#md641aabdfd" y="85.033827"/>
      </g>
     </g>
     <g id="text_14">
      <!-- 300000 -->
      <g transform="translate(28.620625 89.972812)scale(0.13 -0.13)">
       <use xlink:href="#DejaVuSans-51"/>
       <use x="63.623047" xlink:href="#DejaVuSans-48"/>
       <use x="127.246094" xlink:href="#DejaVuSans-48"/>
       <use x="190.869141" xlink:href="#DejaVuSans-48"/>
       <use x="254.492188" xlink:href="#DejaVuSans-48"/>
       <use x="318.115234" xlink:href="#DejaVuSans-48"/>
      </g>
     </g>
    </g>
    <g id="ytick_8">
     <g id="line2d_14">
      <g>
       <use style="stroke:#000000;stroke-width:0.8;" x="85.248125" xlink:href="#md641aabdfd" y="40.366601"/>
      </g>
     </g>
     <g id="text_15">
      <!-- 350000 -->
      <g transform="translate(28.620625 45.305585)scale(0.13 -0.13)">
       <use xlink:href="#DejaVuSans-51"/>
       <use x="63.623047" xlink:href="#DejaVuSans-53"/>
       <use x="127.246094" xlink:href="#DejaVuSans-48"/>
       <use x="190.869141" xlink:href="#DejaVuSans-48"/>
       <use x="254.492188" xlink:href="#DejaVuSans-48"/>
       <use x="318.115234" xlink:href="#DejaVuSans-48"/>
      </g>
     </g>
    </g>
    <g id="text_16">
     <!-- US cumulative deaths -->
     <defs>
      <path d="M 8.6875 72.90625 
L 18.609375 72.90625 
L 18.609375 28.609375 
Q 18.609375 16.890625 22.84375 11.734375 
Q 27.09375 6.59375 36.625 6.59375 
Q 46.09375 6.59375 50.34375 11.734375 
Q 54.59375 16.890625 54.59375 28.609375 
L 54.59375 72.90625 
L 64.5 72.90625 
L 64.5 27.390625 
Q 64.5 13.140625 57.4375 5.859375 
Q 50.390625 -1.421875 36.625 -1.421875 
Q 22.796875 -1.421875 15.734375 5.859375 
Q 8.6875 13.140625 8.6875 27.390625 
z
" id="DejaVuSans-85"/>
      <path d="M 53.515625 70.515625 
L 53.515625 60.890625 
Q 47.90625 63.578125 42.921875 64.890625 
Q 37.9375 66.21875 33.296875 66.21875 
Q 25.25 66.21875 20.875 63.09375 
Q 16.5 59.96875 16.5 54.203125 
Q 16.5 49.359375 19.40625 46.890625 
Q 22.3125 44.4375 30.421875 42.921875 
L 36.375 41.703125 
Q 47.40625 39.59375 52.65625 34.296875 
Q 57.90625 29 57.90625 20.125 
Q 57.90625 9.515625 50.796875 4.046875 
Q 43.703125 -1.421875 29.984375 -1.421875 
Q 24.8125 -1.421875 18.96875 -0.25 
Q 13.140625 0.921875 6.890625 3.21875 
L 6.890625 13.375 
Q 12.890625 10.015625 18.65625 8.296875 
Q 24.421875 6.59375 29.984375 6.59375 
Q 38.421875 6.59375 43.015625 9.90625 
Q 47.609375 13.234375 47.609375 19.390625 
Q 47.609375 24.75 44.3125 27.78125 
Q 41.015625 30.8125 33.5 32.328125 
L 27.484375 33.5 
Q 16.453125 35.6875 11.515625 40.375 
Q 6.59375 45.0625 6.59375 53.421875 
Q 6.59375 63.09375 13.40625 68.65625 
Q 20.21875 74.21875 32.171875 74.21875 
Q 37.3125 74.21875 42.625 73.28125 
Q 47.953125 72.359375 53.515625 70.515625 
z
" id="DejaVuSans-83"/>
      <path d="M 48.78125 52.59375 
L 48.78125 44.1875 
Q 44.96875 46.296875 41.140625 47.34375 
Q 37.3125 48.390625 33.40625 48.390625 
Q 24.65625 48.390625 19.8125 42.84375 
Q 14.984375 37.3125 14.984375 27.296875 
Q 14.984375 17.28125 19.8125 11.734375 
Q 24.65625 6.203125 33.40625 6.203125 
Q 37.3125 6.203125 41.140625 7.25 
Q 44.96875 8.296875 48.78125 10.40625 
L 48.78125 2.09375 
Q 45.015625 0.34375 40.984375 -0.53125 
Q 36.96875 -1.421875 32.421875 -1.421875 
Q 20.0625 -1.421875 12.78125 6.34375 
Q 5.515625 14.109375 5.515625 27.296875 
Q 5.515625 40.671875 12.859375 48.328125 
Q 20.21875 56 33.015625 56 
Q 37.15625 56 41.109375 55.140625 
Q 45.0625 54.296875 48.78125 52.59375 
z
" id="DejaVuSans-99"/>
      <path d="M 8.5 21.578125 
L 8.5 54.6875 
L 17.484375 54.6875 
L 17.484375 21.921875 
Q 17.484375 14.15625 20.5 10.265625 
Q 23.53125 6.390625 29.59375 6.390625 
Q 36.859375 6.390625 41.078125 11.03125 
Q 45.3125 15.671875 45.3125 23.6875 
L 45.3125 54.6875 
L 54.296875 54.6875 
L 54.296875 0 
L 45.3125 0 
L 45.3125 8.40625 
Q 42.046875 3.421875 37.71875 1 
Q 33.40625 -1.421875 27.6875 -1.421875 
Q 18.265625 -1.421875 13.375 4.4375 
Q 8.5 10.296875 8.5 21.578125 
z
M 31.109375 56 
z
" id="DejaVuSans-117"/>
      <path d="M 52 44.1875 
Q 55.375 50.25 60.0625 53.125 
Q 64.75 56 71.09375 56 
Q 79.640625 56 84.28125 50.015625 
Q 88.921875 44.046875 88.921875 33.015625 
L 88.921875 0 
L 79.890625 0 
L 79.890625 32.71875 
Q 79.890625 40.578125 77.09375 44.375 
Q 74.3125 48.1875 68.609375 48.1875 
Q 61.625 48.1875 57.5625 43.546875 
Q 53.515625 38.921875 53.515625 30.90625 
L 53.515625 0 
L 44.484375 0 
L 44.484375 32.71875 
Q 44.484375 40.625 41.703125 44.40625 
Q 38.921875 48.1875 33.109375 48.1875 
Q 26.21875 48.1875 22.15625 43.53125 
Q 18.109375 38.875 18.109375 30.90625 
L 18.109375 0 
L 9.078125 0 
L 9.078125 54.6875 
L 18.109375 54.6875 
L 18.109375 46.1875 
Q 21.1875 51.21875 25.484375 53.609375 
Q 29.78125 56 35.6875 56 
Q 41.65625 56 45.828125 52.96875 
Q 50 49.953125 52 44.1875 
z
" id="DejaVuSans-109"/>
      <path d="M 9.421875 75.984375 
L 18.40625 75.984375 
L 18.40625 0 
L 9.421875 0 
z
" id="DejaVuSans-108"/>
      <path d="M 9.421875 54.6875 
L 18.40625 54.6875 
L 18.40625 0 
L 9.421875 0 
z
M 9.421875 75.984375 
L 18.40625 75.984375 
L 18.40625 64.59375 
L 9.421875 64.59375 
z
" id="DejaVuSans-105"/>
      <path d="M 2.984375 54.6875 
L 12.5 54.6875 
L 29.59375 8.796875 
L 46.6875 54.6875 
L 56.203125 54.6875 
L 35.6875 0 
L 23.484375 0 
z
" id="DejaVuSans-118"/>
      <path d="M 54.890625 33.015625 
L 54.890625 0 
L 45.90625 0 
L 45.90625 32.71875 
Q 45.90625 40.484375 42.875 44.328125 
Q 39.84375 48.1875 33.796875 48.1875 
Q 26.515625 48.1875 22.3125 43.546875 
Q 18.109375 38.921875 18.109375 30.90625 
L 18.109375 0 
L 9.078125 0 
L 9.078125 75.984375 
L 18.109375 75.984375 
L 18.109375 46.1875 
Q 21.34375 51.125 25.703125 53.5625 
Q 30.078125 56 35.796875 56 
Q 45.21875 56 50.046875 50.171875 
Q 54.890625 44.34375 54.890625 33.015625 
z
" id="DejaVuSans-104"/>
      <path d="M 44.28125 53.078125 
L 44.28125 44.578125 
Q 40.484375 46.53125 36.375 47.5 
Q 32.28125 48.484375 27.875 48.484375 
Q 21.1875 48.484375 17.84375 46.4375 
Q 14.5 44.390625 14.5 40.28125 
Q 14.5 37.15625 16.890625 35.375 
Q 19.28125 33.59375 26.515625 31.984375 
L 29.59375 31.296875 
Q 39.15625 29.25 43.1875 25.515625 
Q 47.21875 21.78125 47.21875 15.09375 
Q 47.21875 7.46875 41.1875 3.015625 
Q 35.15625 -1.421875 24.609375 -1.421875 
Q 20.21875 -1.421875 15.453125 -0.5625 
Q 10.6875 0.296875 5.421875 2 
L 5.421875 11.28125 
Q 10.40625 8.6875 15.234375 7.390625 
Q 20.0625 6.109375 24.8125 6.109375 
Q 31.15625 6.109375 34.5625 8.28125 
Q 37.984375 10.453125 37.984375 14.40625 
Q 37.984375 18.0625 35.515625 20.015625 
Q 33.0625 21.96875 24.703125 23.78125 
L 21.578125 24.515625 
Q 13.234375 26.265625 9.515625 29.90625 
Q 5.8125 33.546875 5.8125 39.890625 
Q 5.8125 47.609375 11.28125 51.796875 
Q 16.75 56 26.8125 56 
Q 31.78125 56 36.171875 55.265625 
Q 40.578125 54.546875 44.28125 53.078125 
z
" id="DejaVuSans-115"/>
     </defs>
     <g transform="translate(20.877188 288.697031)rotate(-90)scale(0.18 -0.18)">
      <use xlink:href="#DejaVuSans-85"/>
      <use x="73.193359" xlink:href="#DejaVuSans-83"/>
      <use x="136.669922" xlink:href="#DejaVuSans-32"/>
      <use x="168.457031" xlink:href="#DejaVuSans-99"/>
      <use x="223.4375" xlink:href="#DejaVuSans-117"/>
      <use x="286.816406" xlink:href="#DejaVuSans-109"/>
      <use x="384.228516" xlink:href="#DejaVuSans-117"/>
      <use x="447.607422" xlink:href="#DejaVuSans-108"/>
      <use x="475.390625" xlink:href="#DejaVuSans-97"/>
      <use x="536.669922" xlink:href="#DejaVuSans-116"/>
      <use x="575.878906" xlink:href="#DejaVuSans-105"/>
      <use x="603.662109" xlink:href="#DejaVuSans-118"/>
      <use x="662.841797" xlink:href="#DejaVuSans-101"/>
      <use x="724.365234" xlink:href="#DejaVuSans-32"/>
      <use x="756.152344" xlink:href="#DejaVuSans-100"/>
      <use x="819.628906" xlink:href="#DejaVuSans-101"/>
      <use x="881.152344" xlink:href="#DejaVuSans-97"/>
      <use x="942.431641" xlink:href="#DejaVuSans-116"/>
      <use x="981.640625" xlink:href="#DejaVuSans-104"/>
      <use x="1045.019531" xlink:href="#DejaVuSans-115"/>
     </g>
    </g>
   </g>
   <g id="line2d_15">
    <path clip-path="url(#pc344bed63b)" d="M 176.168157 352.855839 
L 184.547884 350.752012 
L 192.92761 343.611509 
L 201.307337 331.320875 
L 209.687063 323.946053 
L 218.06679 303.713849 
L 226.446516 296.147221 
L 234.826242 283.831645 
L 243.205969 274.046442 
L 251.585695 265.889946 
L 259.965422 259.529922 
L 268.345148 254.843783 
L 276.724875 249.670733 
L 285.104601 245.273036 
L 293.484328 242.27707 
L 301.864054 236.884103 
L 310.243781 233.721528 
L 318.623507 228.155011 
L 327.003234 222.905923 
L 335.38296 216.33443 
L 343.762687 208.822346 
L 352.142413 202.122709 
L 360.522139 196.095313 
L 368.901866 190.28768 
L 377.281592 184.820356 
L 385.661319 179.850435 
L 394.041045 175.886119 
L 402.420772 170.877984 
L 410.800498 166.293116 
L 419.180225 162.036358 
L 427.559951 157.290213 
L 435.939678 152.725184 
L 444.319404 147.130751 
L 452.699131 141.707826 
L 461.078857 135.175469 
L 469.458584 126.135462 
L 477.83831 114.841608 
L 486.218037 105.471764 
L 494.597763 88.939411 
L 502.977489 71.718495 
L 511.357216 53.699768 
" style="fill:none;stroke:#0010ff;stroke-linecap:square;stroke-width:1.5;"/>
   </g>
   <g id="line2d_16">
    <path clip-path="url(#pc344bed63b)" d="M 209.687063 334.125977 
L 218.06679 305.823929 
L 226.446516 291.032823 
L 234.826242 283.466195 
L 243.205969 274.82666 
L 251.585695 266.085662 
L 259.965422 259.093026 
L 268.345148 253.69774 
L 276.724875 249.660698 
L 285.104601 245.443665 
L 293.484328 240.897882 
L 301.864054 238.249306 
L 310.243781 232.270363 
L 318.623507 229.641942 
L 327.003234 223.219932 
L 335.38296 218.009265 
L 343.762687 210.042208 
L 352.142413 202.902598 
L 360.522139 196.451202 
L 368.901866 190.093329 
L 377.281592 184.606398 
L 385.661319 179.588093 
L 394.041045 175.221265 
L 402.420772 171.714667 
L 410.800498 166.595124 
L 419.180225 161.878431 
L 427.559951 157.915566 
L 435.939678 152.817213 
L 444.319404 148.005754 
L 452.699131 141.638817 
L 461.078857 135.816042 
L 469.458584 128.463195 
L 477.83831 117.967234 
L 486.218037 104.422977 
L 494.597763 94.49853 
L 502.977489 74.791883 
L 511.357216 54.870734 
" style="fill:none;stroke:#00a4ff;stroke-linecap:square;stroke-width:1.5;"/>
   </g>
   <g id="line2d_17">
    <path clip-path="url(#pc344bed63b)" d="M 218.06679 328.425941 
L 226.446516 292.141017 
L 234.826242 275.922794 
L 243.205969 273.073918 
L 251.585695 266.657024 
L 259.965422 259.442645 
L 268.345148 254.015976 
L 276.724875 248.891583 
L 285.104601 244.665224 
L 293.484328 240.719659 
L 301.864054 236.752415 
L 310.243781 234.362246 
L 318.623507 227.301697 
L 327.003234 225.422599 
L 335.38296 218.729984 
L 343.762687 212.623974 
L 352.142413 203.587785 
L 360.522139 196.984191 
L 368.901866 190.326987 
L 377.281592 185.376719 
L 385.661319 179.766762 
L 394.041045 174.85921 
L 402.420772 170.618914 
L 410.800498 167.766911 
L 419.180225 161.871284 
L 427.559951 156.837824 
L 435.939678 153.474739 
L 444.319404 148.12743 
L 452.699131 143.102238 
L 461.078857 135.929985 
L 469.458584 129.430371 
L 477.83831 120.630671 
L 486.218037 108.447402 
L 494.597763 91.532015 
L 502.977489 82.742583 
L 511.357216 60.088075 
" style="fill:none;stroke:#40ffb7;stroke-linecap:square;stroke-width:1.5;"/>
   </g>
   <g id="line2d_18">
    <path clip-path="url(#pc344bed63b)" d="M 226.446516 322.72663 
L 234.826242 281.724173 
L 243.205969 264.349516 
L 251.585695 264.706853 
L 259.965422 258.600843 
L 268.345148 252.622582 
L 276.724875 249.926638 
L 285.104601 244.204554 
L 293.484328 240.548384 
L 301.864054 236.023683 
L 310.243781 232.552034 
L 318.623507 230.856711 
L 327.003234 222.186344 
L 335.38296 220.821212 
L 343.762687 213.956551 
L 352.142413 207.873167 
L 360.522139 197.505888 
L 368.901866 191.534042 
L 377.281592 184.211151 
L 385.661319 179.729912 
L 394.041045 174.586257 
L 402.420772 169.818477 
L 410.800498 165.915991 
L 419.180225 163.618666 
L 427.559951 157.361331 
L 435.939678 152.132489 
L 444.319404 148.775725 
L 452.699131 143.460967 
L 461.078857 137.771529 
L 469.458584 130.04704 
L 477.83831 123.230147 
L 486.218037 112.987146 
L 494.597763 97.431955 
L 502.977489 78.054599 
L 511.357216 70.650087 
" style="fill:none;stroke:#b7ff40;stroke-linecap:square;stroke-width:1.5;"/>
   </g>
   <g id="line2d_19">
    <path clip-path="url(#pc344bed63b)" d="M 243.205969 274.026224 
L 251.585695 255.631366 
L 259.965422 255.842906 
L 268.345148 248.79192 
L 276.724875 243.221917 
L 285.104601 241.597575 
L 293.484328 243.771662 
L 301.864054 240.558084 
L 310.243781 237.492014 
L 318.623507 231.499451 
L 327.003234 228.65427 
L 335.38296 222.057618 
L 343.762687 217.000803 
L 352.142413 210.690738 
L 360.522139 199.862547 
L 368.901866 192.90339 
L 377.281592 186.068861 
L 385.661319 178.300783 
L 394.041045 176.589582 
L 402.420772 170.879145 
L 410.800498 164.780014 
L 419.180225 163.703305 
L 427.559951 161.461025 
L 435.939678 155.430178 
L 444.319404 151.254794 
L 452.699131 144.434092 
L 461.078857 139.009277 
L 469.458584 133.458756 
L 477.83831 121.508879 
L 486.218037 114.514644 
L 494.597763 98.863544 
L 502.977489 80.469283 
L 511.357216 63.841015 
" style="fill:none;stroke:#ffb900;stroke-linecap:square;stroke-width:1.5;"/>
   </g>
   <g id="line2d_20">
    <path clip-path="url(#pc344bed63b)" d="M 251.585695 268.834998 
L 259.965422 250.398154 
L 268.345148 249.203547 
L 276.724875 237.439298 
L 285.104601 234.613355 
L 293.484328 238.360766 
L 301.864054 241.386988 
L 310.243781 238.078039 
L 318.623507 236.1649 
L 327.003234 229.016451 
L 335.38296 225.702781 
L 343.762687 220.189712 
L 352.142413 211.574962 
L 360.522139 205.993443 
L 368.901866 195.340437 
L 377.281592 188.495778 
L 385.661319 182.77145 
L 394.041045 177.197672 
L 402.420772 173.845004 
L 410.800498 168.148542 
L 419.180225 163.162915 
L 427.559951 160.622006 
L 435.939678 158.755369 
L 444.319404 152.914165 
L 452.699131 148.146832 
L 461.078857 143.950814 
L 469.458584 136.80761 
L 477.83831 133.474562 
L 486.218037 122.093794 
L 494.597763 114.426649 
L 502.977489 101.284658 
L 511.357216 69.845854 
" style="fill:none;stroke:#ff3000;stroke-linecap:square;stroke-width:1.5;"/>
   </g>
   <g id="line2d_21">
    <path clip-path="url(#pc344bed63b)" d="M 259.965422 278.375212 
L 268.345148 252.775816 
L 276.724875 255.65282 
L 285.104601 242.315267 
L 293.484328 239.553238 
L 301.864054 236.14862 
L 310.243781 239.712795 
L 318.623507 236.443219 
L 327.003234 236.195484 
L 335.38296 227.148472 
L 343.762687 222.756294 
L 352.142413 217.33822 
L 360.522139 204.361202 
L 368.901866 198.420037 
L 377.281592 191.349867 
L 385.661319 183.527364 
L 394.041045 176.625465 
L 402.420772 177.183375 
L 410.800498 170.404064 
L 419.180225 166.433564 
L 427.559951 159.856913 
L 435.939678 157.963581 
L 444.319404 156.357403 
L 452.699131 152.169213 
L 461.078857 146.936672 
L 469.458584 139.797783 
L 477.83831 130.905718 
L 486.218037 129.837125 
L 494.597763 106.949676 
L 502.977489 100.409392 
L 511.357216 83.734808 
" style="fill:none;stroke:#800000;stroke-linecap:square;stroke-width:1.5;"/>
   </g>
   <g id="line2d_22">
    <path clip-path="url(#pc344bed63b)" d="M 105.539034 353.037188 
L 170.182638 352.950533 
L 173.77395 352.801345 
L 178.562365 352.355566 
L 180.956572 351.849039 
L 183.35078 351.015549 
L 186.942091 349.296754 
L 188.139195 348.322115 
L 189.336299 347.199181 
L 194.124714 341.814993 
L 195.321818 340.24628 
L 196.518921 337.944132 
L 202.50444 328.546147 
L 203.701544 326.797872 
L 207.292855 320.362218 
L 209.687063 316.735239 
L 210.884167 315.005724 
L 212.081271 313.043046 
L 215.672582 306.41443 
L 216.869686 304.483019 
L 218.06679 302.959866 
L 220.460997 300.453142 
L 221.658101 298.466343 
L 224.052308 294.062155 
L 226.446516 290.868448 
L 227.64362 289.870582 
L 228.840724 288.688687 
L 231.234931 284.548929 
L 233.629139 281.273034 
L 234.826242 279.901751 
L 237.22045 278.196356 
L 239.614658 275.197398 
L 242.008865 272.114466 
L 243.205969 270.979025 
L 244.403073 270.298297 
L 245.600176 269.24683 
L 247.994384 266.555183 
L 251.585695 263.34629 
L 255.177007 261.707896 
L 256.374111 260.369666 
L 258.768318 258.279239 
L 259.965422 257.429669 
L 262.359629 256.109306 
L 265.950941 253.388178 
L 267.148045 252.591315 
L 268.345148 251.965974 
L 270.739356 251.11283 
L 274.330667 248.729386 
L 276.724875 247.311649 
L 279.119082 246.685414 
L 281.51329 245.29269 
L 285.104601 243.546201 
L 287.498809 242.935154 
L 289.893016 241.508483 
L 293.484328 240.007664 
L 295.878535 239.405549 
L 298.272743 238.223655 
L 300.66695 236.984586 
L 304.258262 236.138589 
L 305.455366 235.063002 
L 310.243781 232.047071 
L 312.637988 231.258247 
L 318.623507 227.130102 
L 321.017715 226.229611 
L 327.003234 221.364457 
L 328.200337 220.911531 
L 329.397441 219.910092 
L 334.185856 215.214673 
L 335.38296 214.232887 
L 336.580064 213.860363 
L 337.777168 213.36277 
L 341.368479 209.808152 
L 343.762687 207.739166 
L 346.156894 206.779714 
L 347.353998 205.852422 
L 348.551102 204.498112 
L 349.748205 203.552953 
L 350.945309 202.359445 
L 352.142413 201.4393 
L 354.536621 200.521835 
L 356.930828 198.167872 
L 360.522139 195.35205 
L 362.916347 194.541787 
L 366.507658 191.373987 
L 368.901866 189.757927 
L 370.09897 189.363962 
L 371.296074 188.832422 
L 376.084489 185.158989 
L 377.281592 184.464861 
L 380.872904 183.442874 
L 382.070008 182.409275 
L 383.267111 181.594545 
L 384.464215 180.518958 
L 385.661319 179.880216 
L 388.055526 179.158394 
L 389.25263 178.007766 
L 391.646838 176.353292 
L 392.843942 175.529629 
L 394.041045 174.890887 
L 395.238149 174.668444 
L 396.435253 174.29324 
L 401.223668 170.771676 
L 402.420772 170.098094 
L 404.814979 169.543327 
L 410.800498 165.707305 
L 413.194706 164.982803 
L 414.39181 164.352102 
L 417.983121 161.807857 
L 419.180225 161.240583 
L 421.574432 160.546454 
L 422.771536 159.847859 
L 423.96864 158.959874 
L 427.559951 156.754207 
L 429.954159 155.947516 
L 431.151263 155.129213 
L 432.348366 154.08668 
L 434.742574 152.465259 
L 435.939678 151.616582 
L 438.333885 150.838479 
L 444.319404 146.495038 
L 446.713612 145.642787 
L 447.910716 144.244703 
L 452.699131 140.273787 
L 453.896234 139.836048 
L 455.093338 139.225893 
L 458.68465 135.655195 
L 461.078857 133.474541 
L 463.473065 132.245299 
L 465.867272 129.061419 
L 468.26148 125.600603 
L 469.458584 124.305253 
L 471.852791 122.666859 
L 474.246999 118.72453 
L 475.444102 117.612316 
L 476.641206 116.338406 
L 477.83831 115.255673 
L 479.035414 114.503477 
L 480.232518 113.473451 
L 482.626725 108.682444 
L 485.020933 103.82533 
L 486.218037 101.809051 
L 487.41514 100.806718 
L 488.612244 99.539063 
L 489.809348 97.287834 
L 493.400659 89.00921 
L 494.597763 86.906277 
L 496.991971 84.339699 
L 498.189074 81.673959 
L 500.583282 75.395533 
L 502.977489 70.598273 
L 505.371697 67.735104 
L 507.765905 61.696095 
L 508.963008 59.106289 
L 510.160112 58.013729 
L 511.357216 56.528097 
L 511.357216 56.528097 
" style="fill:none;stroke:#000000;stroke-linecap:square;stroke-width:3;"/>
   </g>
   <g id="patch_3">
    <path d="M 85.248125 353.037188 
L 85.248125 26.877187 
" style="fill:none;stroke:#000000;stroke-linecap:square;stroke-linejoin:miter;stroke-width:0.8;"/>
   </g>
   <g id="patch_4">
    <path d="M 531.648125 353.037188 
L 531.648125 26.877187 
" style="fill:none;stroke:#000000;stroke-linecap:square;stroke-linejoin:miter;stroke-width:0.8;"/>
   </g>
   <g id="patch_5">
    <path d="M 85.248125 353.037188 
L 531.648125 353.037188 
" style="fill:none;stroke:#000000;stroke-linecap:square;stroke-linejoin:miter;stroke-width:0.8;"/>
   </g>
   <g id="patch_6">
    <path d="M 85.248125 26.877187 
L 531.648125 26.877187 
" style="fill:none;stroke:#000000;stroke-linecap:square;stroke-linejoin:miter;stroke-width:0.8;"/>
   </g>
   <g id="text_17">
    <!-- Medians of all forecast point estimates -->
    <defs>
     <path d="M 9.8125 72.90625 
L 24.515625 72.90625 
L 43.109375 23.296875 
L 61.8125 72.90625 
L 76.515625 72.90625 
L 76.515625 0 
L 66.890625 0 
L 66.890625 64.015625 
L 48.09375 14.015625 
L 38.1875 14.015625 
L 19.390625 64.015625 
L 19.390625 0 
L 9.8125 0 
z
" id="DejaVuSans-77"/>
     <path d="M 30.609375 48.390625 
Q 23.390625 48.390625 19.1875 42.75 
Q 14.984375 37.109375 14.984375 27.296875 
Q 14.984375 17.484375 19.15625 11.84375 
Q 23.34375 6.203125 30.609375 6.203125 
Q 37.796875 6.203125 41.984375 11.859375 
Q 46.1875 17.53125 46.1875 27.296875 
Q 46.1875 37.015625 41.984375 42.703125 
Q 37.796875 48.390625 30.609375 48.390625 
z
M 30.609375 56 
Q 42.328125 56 49.015625 48.375 
Q 55.71875 40.765625 55.71875 27.296875 
Q 55.71875 13.875 49.015625 6.21875 
Q 42.328125 -1.421875 30.609375 -1.421875 
Q 18.84375 -1.421875 12.171875 6.21875 
Q 5.515625 13.875 5.515625 27.296875 
Q 5.515625 40.765625 12.171875 48.375 
Q 18.84375 56 30.609375 56 
z
" id="DejaVuSans-111"/>
     <path d="M 37.109375 75.984375 
L 37.109375 68.5 
L 28.515625 68.5 
Q 23.6875 68.5 21.796875 66.546875 
Q 19.921875 64.59375 19.921875 59.515625 
L 19.921875 54.6875 
L 34.71875 54.6875 
L 34.71875 47.703125 
L 19.921875 47.703125 
L 19.921875 0 
L 10.890625 0 
L 10.890625 47.703125 
L 2.296875 47.703125 
L 2.296875 54.6875 
L 10.890625 54.6875 
L 10.890625 58.5 
Q 10.890625 67.625 15.140625 71.796875 
Q 19.390625 75.984375 28.609375 75.984375 
z
" id="DejaVuSans-102"/>
     <path d="M 18.109375 8.203125 
L 18.109375 -20.796875 
L 9.078125 -20.796875 
L 9.078125 54.6875 
L 18.109375 54.6875 
L 18.109375 46.390625 
Q 20.953125 51.265625 25.265625 53.625 
Q 29.59375 56 35.59375 56 
Q 45.5625 56 51.78125 48.09375 
Q 58.015625 40.1875 58.015625 27.296875 
Q 58.015625 14.40625 51.78125 6.484375 
Q 45.5625 -1.421875 35.59375 -1.421875 
Q 29.59375 -1.421875 25.265625 0.953125 
Q 20.953125 3.328125 18.109375 8.203125 
z
M 48.6875 27.296875 
Q 48.6875 37.203125 44.609375 42.84375 
Q 40.53125 48.484375 33.40625 48.484375 
Q 26.265625 48.484375 22.1875 42.84375 
Q 18.109375 37.203125 18.109375 27.296875 
Q 18.109375 17.390625 22.1875 11.75 
Q 26.265625 6.109375 33.40625 6.109375 
Q 40.53125 6.109375 44.609375 11.75 
Q 48.6875 17.390625 48.6875 27.296875 
z
" id="DejaVuSans-112"/>
    </defs>
    <g transform="translate(133.895938 20.877187)scale(0.18 -0.18)">
     <use xlink:href="#DejaVuSans-77"/>
     <use x="86.279297" xlink:href="#DejaVuSans-101"/>
     <use x="147.802734" xlink:href="#DejaVuSans-100"/>
     <use x="211.279297" xlink:href="#DejaVuSans-105"/>
     <use x="239.0625" xlink:href="#DejaVuSans-97"/>
     <use x="300.341797" xlink:href="#DejaVuSans-110"/>
     <use x="363.720703" xlink:href="#DejaVuSans-115"/>
     <use x="415.820312" xlink:href="#DejaVuSans-32"/>
     <use x="447.607422" xlink:href="#DejaVuSans-111"/>
     <use x="508.789062" xlink:href="#DejaVuSans-102"/>
     <use x="543.994141" xlink:href="#DejaVuSans-32"/>
     <use x="575.78125" xlink:href="#DejaVuSans-97"/>
     <use x="637.060547" xlink:href="#DejaVuSans-108"/>
     <use x="664.84375" xlink:href="#DejaVuSans-108"/>
     <use x="692.626953" xlink:href="#DejaVuSans-32"/>
     <use x="724.414062" xlink:href="#DejaVuSans-102"/>
     <use x="759.619141" xlink:href="#DejaVuSans-111"/>
     <use x="820.800781" xlink:href="#DejaVuSans-114"/>
     <use x="859.664062" xlink:href="#DejaVuSans-101"/>
     <use x="921.1875" xlink:href="#DejaVuSans-99"/>
     <use x="976.167969" xlink:href="#DejaVuSans-97"/>
     <use x="1037.447266" xlink:href="#DejaVuSans-115"/>
     <use x="1089.546875" xlink:href="#DejaVuSans-116"/>
     <use x="1128.755859" xlink:href="#DejaVuSans-32"/>
     <use x="1160.542969" xlink:href="#DejaVuSans-112"/>
     <use x="1224.019531" xlink:href="#DejaVuSans-111"/>
     <use x="1285.201172" xlink:href="#DejaVuSans-105"/>
     <use x="1312.984375" xlink:href="#DejaVuSans-110"/>
     <use x="1376.363281" xlink:href="#DejaVuSans-116"/>
     <use x="1415.572266" xlink:href="#DejaVuSans-32"/>
     <use x="1447.359375" xlink:href="#DejaVuSans-101"/>
     <use x="1508.882812" xlink:href="#DejaVuSans-115"/>
     <use x="1560.982422" xlink:href="#DejaVuSans-116"/>
     <use x="1600.191406" xlink:href="#DejaVuSans-105"/>
     <use x="1627.974609" xlink:href="#DejaVuSans-109"/>
     <use x="1725.386719" xlink:href="#DejaVuSans-97"/>
     <use x="1786.666016" xlink:href="#DejaVuSans-116"/>
     <use x="1825.875" xlink:href="#DejaVuSans-101"/>
     <use x="1887.398438" xlink:href="#DejaVuSans-115"/>
    </g>
   </g>
   <g id="legend_1">
    <g id="patch_7">
     <path d="M 96.448125 242.472187 
L 268.125625 242.472187 
Q 271.325625 242.472187 271.325625 239.272188 
L 271.325625 38.077187 
Q 271.325625 34.877187 268.125625 34.877187 
L 96.448125 34.877187 
Q 93.248125 34.877187 93.248125 38.077187 
L 93.248125 239.272188 
Q 93.248125 242.472187 96.448125 242.472187 
z
" style="fill:#ffffff;opacity:0.8;stroke:#cccccc;stroke-linejoin:miter;"/>
    </g>
    <g id="line2d_23">
     <path d="M 99.648125 47.834687 
L 131.648125 47.834687 
" style="fill:none;stroke:#0010ff;stroke-linecap:square;stroke-width:1.5;"/>
    </g>
    <g id="line2d_24"/>
    <g id="text_18">
     <!-- 1 week ahead -->
     <defs>
      <path d="M 4.203125 54.6875 
L 13.1875 54.6875 
L 24.421875 12.015625 
L 35.59375 54.6875 
L 46.1875 54.6875 
L 57.421875 12.015625 
L 68.609375 54.6875 
L 77.59375 54.6875 
L 63.28125 0 
L 52.6875 0 
L 40.921875 44.828125 
L 29.109375 0 
L 18.5 0 
z
" id="DejaVuSans-119"/>
      <path d="M 9.078125 75.984375 
L 18.109375 75.984375 
L 18.109375 31.109375 
L 44.921875 54.6875 
L 56.390625 54.6875 
L 27.390625 29.109375 
L 57.625 0 
L 45.90625 0 
L 18.109375 26.703125 
L 18.109375 0 
L 9.078125 0 
z
" id="DejaVuSans-107"/>
     </defs>
     <g transform="translate(144.448125 53.434687)scale(0.16 -0.16)">
      <use xlink:href="#DejaVuSans-49"/>
      <use x="63.623047" xlink:href="#DejaVuSans-32"/>
      <use x="95.410156" xlink:href="#DejaVuSans-119"/>
      <use x="177.197266" xlink:href="#DejaVuSans-101"/>
      <use x="238.720703" xlink:href="#DejaVuSans-101"/>
      <use x="300.244141" xlink:href="#DejaVuSans-107"/>
      <use x="358.154297" xlink:href="#DejaVuSans-32"/>
      <use x="389.941406" xlink:href="#DejaVuSans-97"/>
      <use x="451.220703" xlink:href="#DejaVuSans-104"/>
      <use x="514.599609" xlink:href="#DejaVuSans-101"/>
      <use x="576.123047" xlink:href="#DejaVuSans-97"/>
      <use x="637.402344" xlink:href="#DejaVuSans-100"/>
     </g>
    </g>
    <g id="line2d_25">
     <path d="M 99.648125 77.719687 
L 131.648125 77.719687 
" style="fill:none;stroke:#00a4ff;stroke-linecap:square;stroke-width:1.5;"/>
    </g>
    <g id="line2d_26"/>
    <g id="text_19">
     <!-- 2 weeks ahead -->
     <g transform="translate(144.448125 83.319687)scale(0.16 -0.16)">
      <use xlink:href="#DejaVuSans-50"/>
      <use x="63.623047" xlink:href="#DejaVuSans-32"/>
      <use x="95.410156" xlink:href="#DejaVuSans-119"/>
      <use x="177.197266" xlink:href="#DejaVuSans-101"/>
      <use x="238.720703" xlink:href="#DejaVuSans-101"/>
      <use x="300.244141" xlink:href="#DejaVuSans-107"/>
      <use x="358.154297" xlink:href="#DejaVuSans-115"/>
      <use x="410.253906" xlink:href="#DejaVuSans-32"/>
      <use x="442.041016" xlink:href="#DejaVuSans-97"/>
      <use x="503.320312" xlink:href="#DejaVuSans-104"/>
      <use x="566.699219" xlink:href="#DejaVuSans-101"/>
      <use x="628.222656" xlink:href="#DejaVuSans-97"/>
      <use x="689.501953" xlink:href="#DejaVuSans-100"/>
     </g>
    </g>
    <g id="line2d_27">
     <path d="M 99.648125 107.604687 
L 131.648125 107.604687 
" style="fill:none;stroke:#40ffb7;stroke-linecap:square;stroke-width:1.5;"/>
    </g>
    <g id="line2d_28"/>
    <g id="text_20">
     <!-- 3 weeks ahead -->
     <g transform="translate(144.448125 113.204687)scale(0.16 -0.16)">
      <use xlink:href="#DejaVuSans-51"/>
      <use x="63.623047" xlink:href="#DejaVuSans-32"/>
      <use x="95.410156" xlink:href="#DejaVuSans-119"/>
      <use x="177.197266" xlink:href="#DejaVuSans-101"/>
      <use x="238.720703" xlink:href="#DejaVuSans-101"/>
      <use x="300.244141" xlink:href="#DejaVuSans-107"/>
      <use x="358.154297" xlink:href="#DejaVuSans-115"/>
      <use x="410.253906" xlink:href="#DejaVuSans-32"/>
      <use x="442.041016" xlink:href="#DejaVuSans-97"/>
      <use x="503.320312" xlink:href="#DejaVuSans-104"/>
      <use x="566.699219" xlink:href="#DejaVuSans-101"/>
      <use x="628.222656" xlink:href="#DejaVuSans-97"/>
      <use x="689.501953" xlink:href="#DejaVuSans-100"/>
     </g>
    </g>
    <g id="line2d_29">
     <path d="M 99.648125 137.489687 
L 131.648125 137.489687 
" style="fill:none;stroke:#b7ff40;stroke-linecap:square;stroke-width:1.5;"/>
    </g>
    <g id="line2d_30"/>
    <g id="text_21">
     <!-- 4 weeks ahead -->
     <defs>
      <path d="M 37.796875 64.3125 
L 12.890625 25.390625 
L 37.796875 25.390625 
z
M 35.203125 72.90625 
L 47.609375 72.90625 
L 47.609375 25.390625 
L 58.015625 25.390625 
L 58.015625 17.1875 
L 47.609375 17.1875 
L 47.609375 0 
L 37.796875 0 
L 37.796875 17.1875 
L 4.890625 17.1875 
L 4.890625 26.703125 
z
" id="DejaVuSans-52"/>
     </defs>
     <g transform="translate(144.448125 143.089687)scale(0.16 -0.16)">
      <use xlink:href="#DejaVuSans-52"/>
      <use x="63.623047" xlink:href="#DejaVuSans-32"/>
      <use x="95.410156" xlink:href="#DejaVuSans-119"/>
      <use x="177.197266" xlink:href="#DejaVuSans-101"/>
      <use x="238.720703" xlink:href="#DejaVuSans-101"/>
      <use x="300.244141" xlink:href="#DejaVuSans-107"/>
      <use x="358.154297" xlink:href="#DejaVuSans-115"/>
      <use x="410.253906" xlink:href="#DejaVuSans-32"/>
      <use x="442.041016" xlink:href="#DejaVuSans-97"/>
      <use x="503.320312" xlink:href="#DejaVuSans-104"/>
      <use x="566.699219" xlink:href="#DejaVuSans-101"/>
      <use x="628.222656" xlink:href="#DejaVuSans-97"/>
      <use x="689.501953" xlink:href="#DejaVuSans-100"/>
     </g>
    </g>
    <g id="line2d_31">
     <path d="M 99.648125 167.374688 
L 131.648125 167.374688 
" style="fill:none;stroke:#ffb900;stroke-linecap:square;stroke-width:1.5;"/>
    </g>
    <g id="line2d_32"/>
    <g id="text_22">
     <!-- 5 weeks ahead -->
     <g transform="translate(144.448125 172.974688)scale(0.16 -0.16)">
      <use xlink:href="#DejaVuSans-53"/>
      <use x="63.623047" xlink:href="#DejaVuSans-32"/>
      <use x="95.410156" xlink:href="#DejaVuSans-119"/>
      <use x="177.197266" xlink:href="#DejaVuSans-101"/>
      <use x="238.720703" xlink:href="#DejaVuSans-101"/>
      <use x="300.244141" xlink:href="#DejaVuSans-107"/>
      <use x="358.154297" xlink:href="#DejaVuSans-115"/>
      <use x="410.253906" xlink:href="#DejaVuSans-32"/>
      <use x="442.041016" xlink:href="#DejaVuSans-97"/>
      <use x="503.320312" xlink:href="#DejaVuSans-104"/>
      <use x="566.699219" xlink:href="#DejaVuSans-101"/>
      <use x="628.222656" xlink:href="#DejaVuSans-97"/>
      <use x="689.501953" xlink:href="#DejaVuSans-100"/>
     </g>
    </g>
    <g id="line2d_33">
     <path d="M 99.648125 197.259688 
L 131.648125 197.259688 
" style="fill:none;stroke:#ff3000;stroke-linecap:square;stroke-width:1.5;"/>
    </g>
    <g id="line2d_34"/>
    <g id="text_23">
     <!-- 6 weeks ahead -->
     <defs>
      <path d="M 33.015625 40.375 
Q 26.375 40.375 22.484375 35.828125 
Q 18.609375 31.296875 18.609375 23.390625 
Q 18.609375 15.53125 22.484375 10.953125 
Q 26.375 6.390625 33.015625 6.390625 
Q 39.65625 6.390625 43.53125 10.953125 
Q 47.40625 15.53125 47.40625 23.390625 
Q 47.40625 31.296875 43.53125 35.828125 
Q 39.65625 40.375 33.015625 40.375 
z
M 52.59375 71.296875 
L 52.59375 62.3125 
Q 48.875 64.0625 45.09375 64.984375 
Q 41.3125 65.921875 37.59375 65.921875 
Q 27.828125 65.921875 22.671875 59.328125 
Q 17.53125 52.734375 16.796875 39.40625 
Q 19.671875 43.65625 24.015625 45.921875 
Q 28.375 48.1875 33.59375 48.1875 
Q 44.578125 48.1875 50.953125 41.515625 
Q 57.328125 34.859375 57.328125 23.390625 
Q 57.328125 12.15625 50.6875 5.359375 
Q 44.046875 -1.421875 33.015625 -1.421875 
Q 20.359375 -1.421875 13.671875 8.265625 
Q 6.984375 17.96875 6.984375 36.375 
Q 6.984375 53.65625 15.1875 63.9375 
Q 23.390625 74.21875 37.203125 74.21875 
Q 40.921875 74.21875 44.703125 73.484375 
Q 48.484375 72.75 52.59375 71.296875 
z
" id="DejaVuSans-54"/>
     </defs>
     <g transform="translate(144.448125 202.859688)scale(0.16 -0.16)">
      <use xlink:href="#DejaVuSans-54"/>
      <use x="63.623047" xlink:href="#DejaVuSans-32"/>
      <use x="95.410156" xlink:href="#DejaVuSans-119"/>
      <use x="177.197266" xlink:href="#DejaVuSans-101"/>
      <use x="238.720703" xlink:href="#DejaVuSans-101"/>
      <use x="300.244141" xlink:href="#DejaVuSans-107"/>
      <use x="358.154297" xlink:href="#DejaVuSans-115"/>
      <use x="410.253906" xlink:href="#DejaVuSans-32"/>
      <use x="442.041016" xlink:href="#DejaVuSans-97"/>
      <use x="503.320312" xlink:href="#DejaVuSans-104"/>
      <use x="566.699219" xlink:href="#DejaVuSans-101"/>
      <use x="628.222656" xlink:href="#DejaVuSans-97"/>
      <use x="689.501953" xlink:href="#DejaVuSans-100"/>
     </g>
    </g>
    <g id="line2d_35">
     <path d="M 99.648125 227.144688 
L 131.648125 227.144688 
" style="fill:none;stroke:#800000;stroke-linecap:square;stroke-width:1.5;"/>
    </g>
    <g id="line2d_36"/>
    <g id="text_24">
     <!-- 7 weeks ahead -->
     <g transform="translate(144.448125 232.744687)scale(0.16 -0.16)">
      <use xlink:href="#DejaVuSans-55"/>
      <use x="63.623047" xlink:href="#DejaVuSans-32"/>
      <use x="95.410156" xlink:href="#DejaVuSans-119"/>
      <use x="177.197266" xlink:href="#DejaVuSans-101"/>
      <use x="238.720703" xlink:href="#DejaVuSans-101"/>
      <use x="300.244141" xlink:href="#DejaVuSans-107"/>
      <use x="358.154297" xlink:href="#DejaVuSans-115"/>
      <use x="410.253906" xlink:href="#DejaVuSans-32"/>
      <use x="442.041016" xlink:href="#DejaVuSans-97"/>
      <use x="503.320312" xlink:href="#DejaVuSans-104"/>
      <use x="566.699219" xlink:href="#DejaVuSans-101"/>
      <use x="628.222656" xlink:href="#DejaVuSans-97"/>
      <use x="689.501953" xlink:href="#DejaVuSans-100"/>
     </g>
    </g>
   </g>
  </g>
 </g>
 <defs>
  <clipPath id="pc344bed63b">
   <rect height="326.16" width="446.4" x="85.248125" y="26.877187"/>
  </clipPath>
 </defs>
</svg>
