<?xml version="1.0" encoding="utf-8" standalone="no"?>
<!DOCTYPE svg PUBLIC "-//W3C//DTD SVG 1.1//EN"
  "http://www.w3.org/Graphics/SVG/1.1/DTD/svg11.dtd">
<!-- Created with matplotlib (https://matplotlib.org/) -->
<svg height="525.005516pt" version="1.1" viewBox="0 0 650.448125 525.005516" width="650.448125pt" xmlns="http://www.w3.org/2000/svg" xmlns:xlink="http://www.w3.org/1999/xlink">
 <defs>
  <style type="text/css">
*{stroke-linecap:butt;stroke-linejoin:round;}
  </style>
 </defs>
 <g id="figure_1">
  <g id="patch_1">
   <path d="M 0 525.005516 
L 650.448125 525.005516 
L 650.448125 0 
L 0 0 
z
" style="fill:#ffffff;"/>
  </g>
  <g id="axes_1">
   <g id="patch_2">
    <path d="M 85.248125 442.08 
L 643.248125 442.08 
L 643.248125 7.2 
L 85.248125 7.2 
z
" style="fill:#ffffff;"/>
   </g>
   <g id="PolyCollection_1">
    <defs>
     <path d="M 206.23186 -83.553622 
L 206.23186 -83.026917 
L 217.576618 -84.934992 
L 228.921375 -93.110221 
L 240.266133 -103.56843 
L 251.61089 -115.26544 
L 262.955648 -140.421264 
L 274.300405 -154.228758 
L 285.645162 -167.711088 
L 296.98992 -182.656344 
L 308.334677 -190.848583 
L 319.679435 -199.94303 
L 331.024192 -206.338317 
L 342.36895 -215.170939 
L 353.713707 -219.865615 
L 365.058465 -223.69681 
L 376.403222 -230.275979 
L 387.74798 -235.267343 
L 399.092737 -241.273687 
L 410.437495 -248.999029 
L 421.782252 -256.841166 
L 433.12701 -266.353711 
L 444.471767 -276.025479 
L 455.816525 -283.473098 
L 467.161282 -291.677571 
L 478.50604 -298.515909 
L 489.850797 -305.077003 
L 501.195555 -310.552039 
L 512.540312 -317.017768 
L 523.88507 -322.887825 
L 535.229827 -328.543042 
L 546.574584 -334.49045 
L 557.919342 -340.312373 
L 569.264099 -347.312435 
L 580.608857 -353.688016 
L 591.953614 -362.066171 
L 603.298372 -373.258527 
L 614.643129 -379.742641 
L 614.643129 -396.999671 
L 614.643129 -396.999671 
L 603.298372 -381.544966 
L 591.953614 -369.565293 
L 580.608857 -360.62527 
L 569.264099 -352.504832 
L 557.919342 -345.053432 
L 546.574584 -339.012562 
L 535.229827 -333.512611 
L 523.88507 -327.898679 
L 512.540312 -322.185244 
L 501.195555 -315.309869 
L 489.850797 -310.108427 
L 478.50604 -304.357063 
L 467.161282 -296.508625 
L 455.816525 -288.623425 
L 444.471767 -281.828731 
L 433.12701 -272.105916 
L 421.782252 -262.52133 
L 410.437495 -253.591316 
L 399.092737 -247.903925 
L 387.74798 -259.728161 
L 376.403222 -237.345266 
L 365.058465 -230.62584 
L 353.713707 -226.743121 
L 342.36895 -232.969341 
L 331.024192 -218.286527 
L 319.679435 -208.899622 
L 308.334677 -205.503717 
L 296.98992 -190.562697 
L 285.645162 -178.537772 
L 274.300405 -163.088904 
L 262.955648 -153.917118 
L 251.61089 -147.185818 
L 240.266133 -112.042044 
L 228.921375 -96.119799 
L 217.576618 -88.301501 
L 206.23186 -83.553622 
z
" id="m7e8ec5ab57" style="stroke:#0010ff;stroke-opacity:0.1;"/>
    </defs>
    <g clip-path="url(#pd13982e632)">
     <use style="fill:#0010ff;fill-opacity:0.1;stroke:#0010ff;stroke-opacity:0.1;" x="0" xlink:href="#m7e8ec5ab57" y="525.005516"/>
    </g>
   </g>
   <g id="PolyCollection_2">
    <defs>
     <path d="M 251.61089 -117.566728 
L 251.61089 -97.361789 
L 262.955648 -130.369853 
L 274.300405 -145.504537 
L 285.645162 -164.752556 
L 296.98992 -178.614001 
L 308.334677 -190.123479 
L 319.679435 -197.50809 
L 331.024192 -204.955568 
L 342.36895 -210.64345 
L 353.713707 -219.70327 
L 365.058465 -223.578831 
L 376.403222 -227.490566 
L 387.74798 -234.703596 
L 399.092737 -239.047936 
L 410.437495 -245.509855 
L 421.782252 -254.213695 
L 433.12701 -263.26554 
L 444.471767 -273.083687 
L 455.816525 -282.12465 
L 467.161282 -289.195426 
L 478.50604 -297.002031 
L 489.850797 -303.460477 
L 501.195555 -309.32743 
L 512.540312 -314.659436 
L 523.88507 -321.332879 
L 535.229827 -326.969546 
L 546.574584 -332.608811 
L 557.919342 -339.037618 
L 569.264099 -344.911736 
L 580.608857 -352.841702 
L 591.953614 -359.099199 
L 603.298372 -368.581018 
L 614.643129 -381.838616 
L 614.643129 -396.455631 
L 614.643129 -396.455631 
L 603.298372 -381.474986 
L 591.953614 -373.119044 
L 580.608857 -361.788357 
L 569.264099 -353.071832 
L 557.919342 -346.720926 
L 546.574584 -340.710921 
L 535.229827 -335.961888 
L 523.88507 -329.739861 
L 512.540312 -323.183171 
L 501.195555 -318.844577 
L 489.850797 -312.76282 
L 478.50604 -306.606686 
L 467.161282 -299.229557 
L 455.816525 -293.875557 
L 444.471767 -284.256326 
L 433.12701 -275.771202 
L 421.782252 -263.438358 
L 410.437495 -257.330783 
L 399.092737 -260.991056 
L 387.74798 -245.25471 
L 376.403222 -239.389634 
L 365.058465 -234.95748 
L 353.713707 -244.568037 
L 342.36895 -225.673781 
L 331.024192 -221.856856 
L 319.679435 -219.280035 
L 308.334677 -205.724283 
L 296.98992 -195.228062 
L 285.645162 -184.536903 
L 274.300405 -193.326945 
L 262.955648 -167.02265 
L 251.61089 -117.566728 
z
" id="m35f72a2543" style="stroke:#00a4ff;stroke-opacity:0.1;"/>
    </defs>
    <g clip-path="url(#pd13982e632)">
     <use style="fill:#00a4ff;fill-opacity:0.1;stroke:#00a4ff;stroke-opacity:0.1;" x="0" xlink:href="#m35f72a2543" y="525.005516"/>
    </g>
   </g>
   <g id="PolyCollection_3">
    <defs>
     <path d="M 262.955648 -130.533624 
L 262.955648 -99.352775 
L 274.300405 -134.759275 
L 285.645162 -154.609613 
L 296.98992 -174.337981 
L 308.334677 -183.691969 
L 319.679435 -195.936359 
L 331.024192 -202.596584 
L 342.36895 -209.791654 
L 353.713707 -214.348458 
L 365.058465 -223.710435 
L 376.403222 -227.311122 
L 387.74798 -231.186113 
L 399.092737 -237.912519 
L 410.437495 -242.641495 
L 421.782252 -249.42078 
L 433.12701 -259.189284 
L 444.471767 -269.318694 
L 455.816525 -279.320701 
L 467.161282 -287.512144 
L 478.50604 -294.172362 
L 489.850797 -301.570865 
L 501.195555 -307.660959 
L 512.540312 -313.251484 
L 523.88507 -318.286082 
L 535.229827 -325.266709 
L 546.574584 -330.893634 
L 557.919342 -336.358963 
L 569.264099 -343.249776 
L 580.608857 -349.238412 
L 591.953614 -358.288269 
L 603.298372 -364.601319 
L 614.643129 -375.581445 
L 614.643129 -396.868196 
L 614.643129 -396.868196 
L 603.298372 -420.726626 
L 591.953614 -373.494968 
L 580.608857 -362.943245 
L 569.264099 -355.809819 
L 557.919342 -348.84155 
L 546.574584 -345.426071 
L 535.229827 -338.759749 
L 523.88507 -331.838868 
L 512.540312 -329.386613 
L 501.195555 -323.195516 
L 489.850797 -318.234169 
L 478.50604 -311.448998 
L 467.161282 -309.948828 
L 455.816525 -299.305854 
L 444.471767 -292.813709 
L 433.12701 -274.396478 
L 421.782252 -268.320483 
L 410.437495 -271.401972 
L 399.092737 -255.948112 
L 387.74798 -250.063369 
L 376.403222 -244.725558 
L 365.058465 -255.722465 
L 353.713707 -235.968457 
L 342.36895 -234.989861 
L 331.024192 -232.979572 
L 319.679435 -222.045642 
L 308.334677 -212.081315 
L 296.98992 -208.361262 
L 285.645162 -246.664383 
L 274.300405 -215.64825 
L 262.955648 -130.533624 
z
" id="m2192dd3c0a" style="stroke:#40ffb7;stroke-opacity:0.1;"/>
    </defs>
    <g clip-path="url(#pd13982e632)">
     <use style="fill:#40ffb7;fill-opacity:0.1;stroke:#40ffb7;stroke-opacity:0.1;" x="0" xlink:href="#m2192dd3c0a" y="525.005516"/>
    </g>
   </g>
   <g id="PolyCollection_4">
    <path clip-path="url(#pd13982e632)" d="M 274.300405 380.801755 
L 274.300405 424.015193 
L 285.645162 381.219064 
L 296.98992 357.105367 
L 308.334677 341.819378 
L 319.679435 336.402063 
L 331.024192 323.793666 
L 342.36895 318.289332 
L 353.713707 311.113697 
L 365.058465 307.408654 
L 376.403222 297.48561 
L 387.74798 294.063141 
L 399.092737 290.104453 
L 410.437495 283.963846 
L 421.782252 278.240733 
L 433.12701 271.572662 
L 444.471767 260.774572 
L 455.816525 249.527505 
L 467.161282 239.654663 
L 478.50604 232.504647 
L 489.850797 226.302554 
L 501.195555 219.353155 
L 512.540312 213.31888 
L 523.88507 208.114048 
L 535.229827 203.270408 
L 546.574584 195.918845 
L 557.919342 190.330733 
L 569.264099 185.286771 
L 580.608857 177.565003 
L 591.953614 171.569447 
L 603.298372 161.216805 
L 614.643129 154.694871 
L 614.643129 -446.156534 
L 614.643129 -446.156534 
L 603.298372 132.877886 
L 591.953614 145.206535 
L 580.608857 158.673747 
L 569.264099 167.369106 
L 557.919342 167.794891 
L 546.574584 175.556019 
L 535.229827 183.181195 
L 523.88507 181.330235 
L 512.540312 189.101357 
L 501.195555 193.519178 
L 489.850797 199.658472 
L 478.50604 189.442383 
L 467.161282 204.964192 
L 455.816525 209.913926 
L 444.471767 237.691285 
L 433.12701 243.690081 
L 421.782252 239.978476 
L 410.437495 255.52902 
L 399.092737 261.465715 
L 387.74798 268.929052 
L 376.403222 256.664778 
L 365.058465 278.201131 
L 353.713707 275.740898 
L 342.36895 277.052763 
L 331.024192 285.567698 
L 319.679435 280.249873 
L 308.334677 290.588362 
L 296.98992 225.404649 
L 285.645162 268.251023 
L 274.300405 380.801755 
z
" style="fill:#b7ff40;fill-opacity:0.1;stroke:#b7ff40;stroke-opacity:0.1;"/>
   </g>
   <g id="PolyCollection_5">
    <path clip-path="url(#pd13982e632)" d="M 296.98992 213.968914 
L 296.98992 372.528096 
L 308.334677 342.975702 
L 319.679435 327.675436 
L 331.024192 330.141785 
L 342.36895 318.265837 
L 353.713707 312.485492 
L 365.058465 310.802759 
L 376.403222 308.607594 
L 387.74798 313.893304 
L 399.092737 294.871316 
L 410.437495 292.814143 
L 421.782252 280.953647 
L 433.12701 275.090323 
L 444.471767 266.740989 
L 455.816525 252.489828 
L 467.161282 241.99368 
L 478.50604 234.439702 
L 489.850797 226.067941 
L 501.195555 221.960181 
L 512.540312 212.724153 
L 523.88507 209.005055 
L 535.229827 202.348342 
L 546.574584 198.063763 
L 557.919342 191.456244 
L 569.264099 185.403467 
L 580.608857 181.176339 
L 591.953614 173.590925 
L 603.298372 168.129053 
L 614.643129 154.958973 
L 614.643129 125.401646 
L 614.643129 125.401646 
L 603.298372 140.07021 
L 591.953614 146.842929 
L 580.608857 157.06482 
L 569.264099 167.384842 
L 557.919342 164.860331 
L 546.574584 184.721183 
L 535.229827 185.387576 
L 523.88507 177.701259 
L 512.540312 197.022721 
L 501.195555 186.227097 
L 489.850797 184.758479 
L 478.50604 189.779213 
L 467.161282 207.673847 
L 455.816525 224.25589 
L 444.471767 231.997561 
L 433.12701 231.012956 
L 421.782252 238.200161 
L 410.437495 269.053807 
L 399.092737 270.027171 
L 387.74798 250.728134 
L 376.403222 279.155892 
L 365.058465 275.283142 
L 353.713707 268.791441 
L 342.36895 267.199475 
L 331.024192 -181.325885 
L 319.679435 232.954189 
L 308.334677 275.549683 
L 296.98992 213.968914 
z
" style="fill:#ffb900;fill-opacity:0.1;stroke:#ffb900;stroke-opacity:0.1;"/>
   </g>
   <g id="PolyCollection_6">
    <path clip-path="url(#pd13982e632)" d="M 308.334677 174.754365 
L 308.334677 367.312535 
L 319.679435 335.473738 
L 331.024192 315.581806 
L 342.36895 325.408793 
L 353.713707 316.836213 
L 365.058465 310.855706 
L 376.403222 306.374353 
L 387.74798 306.372208 
L 399.092737 314.511137 
L 410.437495 295.287241 
L 421.782252 291.536806 
L 433.12701 281.758621 
L 444.471767 269.694643 
L 455.816525 263.287809 
L 467.161282 247.661252 
L 478.50604 237.015404 
L 489.850797 226.983709 
L 501.195555 221.645766 
L 512.540312 220.052863 
L 523.88507 210.350574 
L 535.229827 205.762021 
L 546.574584 199.138355 
L 557.919342 195.409755 
L 569.264099 189.056183 
L 580.608857 181.924338 
L 591.953614 179.916858 
L 603.298372 171.673483 
L 614.643129 168.409013 
L 614.643129 140.948615 
L 614.643129 140.948615 
L 603.298372 146.909462 
L 591.953614 156.828472 
L 580.608857 163.039295 
L 569.264099 170.49215 
L 557.919342 177.921771 
L 546.574584 174.814794 
L 535.229827 183.705387 
L 523.88507 190.28403 
L 512.540312 188.707756 
L 501.195555 191.885372 
L 489.850797 185.450699 
L 478.50604 198.033804 
L 467.161282 212.384574 
L 455.816525 220.376418 
L 444.471767 211.813582 
L 433.12701 246.127923 
L 421.782252 260.789563 
L 410.437495 261.387448 
L 399.092737 238.085854 
L 387.74798 272.067494 
L 376.403222 252.391446 
L 365.058465 251.695684 
L 353.713707 235.507736 
L 342.36895 -18053.683052 
L 331.024192 -501.847675 
L 319.679435 209.529947 
L 308.334677 174.754365 
z
" style="fill:#ff3000;fill-opacity:0.1;stroke:#ff3000;stroke-opacity:0.1;"/>
   </g>
   <g id="PolyCollection_7">
    <defs>
     <path d="M 319.679435 -320.744067 
L 319.679435 -140.965606 
L 331.024192 -173.493188 
L 342.36895 -181.173658 
L 353.713707 -190.28969 
L 365.058465 -204.27423 
L 376.403222 -214.607708 
L 387.74798 -225.015455 
L 399.092737 -220.480076 
L 410.437495 -225.318374 
L 421.782252 -232.869187 
L 433.12701 -237.031668 
L 444.471767 -247.399491 
L 455.816525 -261.097512 
L 467.161282 -266.08473 
L 478.50604 -281.634027 
L 489.850797 -289.102407 
L 501.195555 -295.013794 
L 512.540312 -303.149895 
L 523.88507 -306.917531 
L 535.229827 -316.246128 
L 546.574584 -321.962819 
L 557.919342 -326.565073 
L 569.264099 -331.09929 
L 580.608857 -338.175638 
L 591.953614 -345.437116 
L 603.298372 -346.150734 
L 614.643129 -357.144099 
L 614.643129 -391.253533 
L 614.643129 -391.253533 
L 603.298372 -381.215612 
L 591.953614 -371.811275 
L 580.608857 -360.878754 
L 569.264099 -353.32308 
L 557.919342 -347.723736 
L 546.574584 -348.087135 
L 535.229827 -339.433 
L 523.88507 -343.490797 
L 512.540312 -337.53679 
L 501.195555 -348.315398 
L 489.850797 -337.462819 
L 478.50604 -326.733694 
L 467.161282 -323.186883 
L 455.816525 -339.262549 
L 444.471767 -278.147089 
L 433.12701 -270.003995 
L 421.782252 -264.092867 
L 410.437495 -265.688989 
L 399.092737 -260.660687 
L 387.74798 -308.504267 
L 376.403222 -288.038193 
L 365.058465 -298.431469 
L 353.713707 -324.808921 
L 342.36895 -310.10128 
L 331.024192 -263.931485 
L 319.679435 -320.744067 
z
" id="m2b46d8ebfd" style="stroke:#800000;stroke-opacity:0.1;"/>
    </defs>
    <g clip-path="url(#pd13982e632)">
     <use style="fill:#800000;fill-opacity:0.1;stroke:#800000;stroke-opacity:0.1;" x="0" xlink:href="#m2b46d8ebfd" y="525.005516"/>
    </g>
   </g>
   <g id="matplotlib.axis_1">
    <g id="xtick_1">
     <g id="line2d_1">
      <defs>
       <path d="M 0 0 
L 0 3.5 
" id="m55551ee644" style="stroke:#000000;stroke-width:0.8;"/>
      </defs>
      <g>
       <use style="stroke:#000000;stroke-width:0.8;" x="126.818558" xlink:href="#m55551ee644" y="442.08"/>
      </g>
     </g>
     <g id="text_1">
      <!-- 2020-02 -->
      <defs>
       <path d="M 19.1875 8.296875 
L 53.609375 8.296875 
L 53.609375 0 
L 7.328125 0 
L 7.328125 8.296875 
Q 12.9375 14.109375 22.625 23.890625 
Q 32.328125 33.6875 34.8125 36.53125 
Q 39.546875 41.84375 41.421875 45.53125 
Q 43.3125 49.21875 43.3125 52.78125 
Q 43.3125 58.59375 39.234375 62.25 
Q 35.15625 65.921875 28.609375 65.921875 
Q 23.96875 65.921875 18.8125 64.3125 
Q 13.671875 62.703125 7.8125 59.421875 
L 7.8125 69.390625 
Q 13.765625 71.78125 18.9375 73 
Q 24.125 74.21875 28.421875 74.21875 
Q 39.75 74.21875 46.484375 68.546875 
Q 53.21875 62.890625 53.21875 53.421875 
Q 53.21875 48.921875 51.53125 44.890625 
Q 49.859375 40.875 45.40625 35.40625 
Q 44.1875 33.984375 37.640625 27.21875 
Q 31.109375 20.453125 19.1875 8.296875 
z
" id="DejaVuSans-50"/>
       <path d="M 31.78125 66.40625 
Q 24.171875 66.40625 20.328125 58.90625 
Q 16.5 51.421875 16.5 36.375 
Q 16.5 21.390625 20.328125 13.890625 
Q 24.171875 6.390625 31.78125 6.390625 
Q 39.453125 6.390625 43.28125 13.890625 
Q 47.125 21.390625 47.125 36.375 
Q 47.125 51.421875 43.28125 58.90625 
Q 39.453125 66.40625 31.78125 66.40625 
z
M 31.78125 74.21875 
Q 44.046875 74.21875 50.515625 64.515625 
Q 56.984375 54.828125 56.984375 36.375 
Q 56.984375 17.96875 50.515625 8.265625 
Q 44.046875 -1.421875 31.78125 -1.421875 
Q 19.53125 -1.421875 13.0625 8.265625 
Q 6.59375 17.96875 6.59375 36.375 
Q 6.59375 54.828125 13.0625 64.515625 
Q 19.53125 74.21875 31.78125 74.21875 
z
" id="DejaVuSans-48"/>
       <path d="M 4.890625 31.390625 
L 31.203125 31.390625 
L 31.203125 23.390625 
L 4.890625 23.390625 
z
" id="DejaVuSans-45"/>
      </defs>
      <g transform="translate(110.150891 494.473162)rotate(-45)scale(0.13 -0.13)">
       <use xlink:href="#DejaVuSans-50"/>
       <use x="63.623047" xlink:href="#DejaVuSans-48"/>
       <use x="127.246094" xlink:href="#DejaVuSans-50"/>
       <use x="190.869141" xlink:href="#DejaVuSans-48"/>
       <use x="254.492188" xlink:href="#DejaVuSans-45"/>
       <use x="290.576172" xlink:href="#DejaVuSans-48"/>
       <use x="354.199219" xlink:href="#DejaVuSans-50"/>
      </g>
     </g>
    </g>
    <g id="xtick_2">
     <g id="line2d_2">
      <g>
       <use style="stroke:#000000;stroke-width:0.8;" x="173.818267" xlink:href="#m55551ee644" y="442.08"/>
      </g>
     </g>
     <g id="text_2">
      <!-- 2020-03 -->
      <defs>
       <path d="M 40.578125 39.3125 
Q 47.65625 37.796875 51.625 33 
Q 55.609375 28.21875 55.609375 21.1875 
Q 55.609375 10.40625 48.1875 4.484375 
Q 40.765625 -1.421875 27.09375 -1.421875 
Q 22.515625 -1.421875 17.65625 -0.515625 
Q 12.796875 0.390625 7.625 2.203125 
L 7.625 11.71875 
Q 11.71875 9.328125 16.59375 8.109375 
Q 21.484375 6.890625 26.8125 6.890625 
Q 36.078125 6.890625 40.9375 10.546875 
Q 45.796875 14.203125 45.796875 21.1875 
Q 45.796875 27.640625 41.28125 31.265625 
Q 36.765625 34.90625 28.71875 34.90625 
L 20.21875 34.90625 
L 20.21875 43.015625 
L 29.109375 43.015625 
Q 36.375 43.015625 40.234375 45.921875 
Q 44.09375 48.828125 44.09375 54.296875 
Q 44.09375 59.90625 40.109375 62.90625 
Q 36.140625 65.921875 28.71875 65.921875 
Q 24.65625 65.921875 20.015625 65.03125 
Q 15.375 64.15625 9.8125 62.3125 
L 9.8125 71.09375 
Q 15.4375 72.65625 20.34375 73.4375 
Q 25.25 74.21875 29.59375 74.21875 
Q 40.828125 74.21875 47.359375 69.109375 
Q 53.90625 64.015625 53.90625 55.328125 
Q 53.90625 49.265625 50.4375 45.09375 
Q 46.96875 40.921875 40.578125 39.3125 
z
" id="DejaVuSans-51"/>
      </defs>
      <g transform="translate(157.1506 494.473162)rotate(-45)scale(0.13 -0.13)">
       <use xlink:href="#DejaVuSans-50"/>
       <use x="63.623047" xlink:href="#DejaVuSans-48"/>
       <use x="127.246094" xlink:href="#DejaVuSans-50"/>
       <use x="190.869141" xlink:href="#DejaVuSans-48"/>
       <use x="254.492188" xlink:href="#DejaVuSans-45"/>
       <use x="290.576172" xlink:href="#DejaVuSans-48"/>
       <use x="354.199219" xlink:href="#DejaVuSans-51"/>
      </g>
     </g>
    </g>
    <g id="xtick_3">
     <g id="line2d_3">
      <g>
       <use style="stroke:#000000;stroke-width:0.8;" x="224.059336" xlink:href="#m55551ee644" y="442.08"/>
      </g>
     </g>
     <g id="text_3">
      <!-- 2020-04 -->
      <defs>
       <path d="M 37.796875 64.3125 
L 12.890625 25.390625 
L 37.796875 25.390625 
z
M 35.203125 72.90625 
L 47.609375 72.90625 
L 47.609375 25.390625 
L 58.015625 25.390625 
L 58.015625 17.1875 
L 47.609375 17.1875 
L 47.609375 0 
L 37.796875 0 
L 37.796875 17.1875 
L 4.890625 17.1875 
L 4.890625 26.703125 
z
" id="DejaVuSans-52"/>
      </defs>
      <g transform="translate(207.391669 494.473162)rotate(-45)scale(0.13 -0.13)">
       <use xlink:href="#DejaVuSans-50"/>
       <use x="63.623047" xlink:href="#DejaVuSans-48"/>
       <use x="127.246094" xlink:href="#DejaVuSans-50"/>
       <use x="190.869141" xlink:href="#DejaVuSans-48"/>
       <use x="254.492188" xlink:href="#DejaVuSans-45"/>
       <use x="290.576172" xlink:href="#DejaVuSans-48"/>
       <use x="354.199219" xlink:href="#DejaVuSans-52"/>
      </g>
     </g>
    </g>
    <g id="xtick_4">
     <g id="line2d_4">
      <g>
       <use style="stroke:#000000;stroke-width:0.8;" x="272.679725" xlink:href="#m55551ee644" y="442.08"/>
      </g>
     </g>
     <g id="text_4">
      <!-- 2020-05 -->
      <defs>
       <path d="M 10.796875 72.90625 
L 49.515625 72.90625 
L 49.515625 64.59375 
L 19.828125 64.59375 
L 19.828125 46.734375 
Q 21.96875 47.46875 24.109375 47.828125 
Q 26.265625 48.1875 28.421875 48.1875 
Q 40.625 48.1875 47.75 41.5 
Q 54.890625 34.8125 54.890625 23.390625 
Q 54.890625 11.625 47.5625 5.09375 
Q 40.234375 -1.421875 26.90625 -1.421875 
Q 22.3125 -1.421875 17.546875 -0.640625 
Q 12.796875 0.140625 7.71875 1.703125 
L 7.71875 11.625 
Q 12.109375 9.234375 16.796875 8.0625 
Q 21.484375 6.890625 26.703125 6.890625 
Q 35.15625 6.890625 40.078125 11.328125 
Q 45.015625 15.765625 45.015625 23.390625 
Q 45.015625 31 40.078125 35.4375 
Q 35.15625 39.890625 26.703125 39.890625 
Q 22.75 39.890625 18.8125 39.015625 
Q 14.890625 38.140625 10.796875 36.28125 
z
" id="DejaVuSans-53"/>
      </defs>
      <g transform="translate(256.012058 494.473162)rotate(-45)scale(0.13 -0.13)">
       <use xlink:href="#DejaVuSans-50"/>
       <use x="63.623047" xlink:href="#DejaVuSans-48"/>
       <use x="127.246094" xlink:href="#DejaVuSans-50"/>
       <use x="190.869141" xlink:href="#DejaVuSans-48"/>
       <use x="254.492188" xlink:href="#DejaVuSans-45"/>
       <use x="290.576172" xlink:href="#DejaVuSans-48"/>
       <use x="354.199219" xlink:href="#DejaVuSans-53"/>
      </g>
     </g>
    </g>
    <g id="xtick_5">
     <g id="line2d_5">
      <g>
       <use style="stroke:#000000;stroke-width:0.8;" x="322.920794" xlink:href="#m55551ee644" y="442.08"/>
      </g>
     </g>
     <g id="text_5">
      <!-- 2020-06 -->
      <defs>
       <path d="M 33.015625 40.375 
Q 26.375 40.375 22.484375 35.828125 
Q 18.609375 31.296875 18.609375 23.390625 
Q 18.609375 15.53125 22.484375 10.953125 
Q 26.375 6.390625 33.015625 6.390625 
Q 39.65625 6.390625 43.53125 10.953125 
Q 47.40625 15.53125 47.40625 23.390625 
Q 47.40625 31.296875 43.53125 35.828125 
Q 39.65625 40.375 33.015625 40.375 
z
M 52.59375 71.296875 
L 52.59375 62.3125 
Q 48.875 64.0625 45.09375 64.984375 
Q 41.3125 65.921875 37.59375 65.921875 
Q 27.828125 65.921875 22.671875 59.328125 
Q 17.53125 52.734375 16.796875 39.40625 
Q 19.671875 43.65625 24.015625 45.921875 
Q 28.375 48.1875 33.59375 48.1875 
Q 44.578125 48.1875 50.953125 41.515625 
Q 57.328125 34.859375 57.328125 23.390625 
Q 57.328125 12.15625 50.6875 5.359375 
Q 44.046875 -1.421875 33.015625 -1.421875 
Q 20.359375 -1.421875 13.671875 8.265625 
Q 6.984375 17.96875 6.984375 36.375 
Q 6.984375 53.65625 15.1875 63.9375 
Q 23.390625 74.21875 37.203125 74.21875 
Q 40.921875 74.21875 44.703125 73.484375 
Q 48.484375 72.75 52.59375 71.296875 
z
" id="DejaVuSans-54"/>
      </defs>
      <g transform="translate(306.253127 494.473162)rotate(-45)scale(0.13 -0.13)">
       <use xlink:href="#DejaVuSans-50"/>
       <use x="63.623047" xlink:href="#DejaVuSans-48"/>
       <use x="127.246094" xlink:href="#DejaVuSans-50"/>
       <use x="190.869141" xlink:href="#DejaVuSans-48"/>
       <use x="254.492188" xlink:href="#DejaVuSans-45"/>
       <use x="290.576172" xlink:href="#DejaVuSans-48"/>
       <use x="354.199219" xlink:href="#DejaVuSans-54"/>
      </g>
     </g>
    </g>
    <g id="xtick_6">
     <g id="line2d_6">
      <g>
       <use style="stroke:#000000;stroke-width:0.8;" x="371.541183" xlink:href="#m55551ee644" y="442.08"/>
      </g>
     </g>
     <g id="text_6">
      <!-- 2020-07 -->
      <defs>
       <path d="M 8.203125 72.90625 
L 55.078125 72.90625 
L 55.078125 68.703125 
L 28.609375 0 
L 18.3125 0 
L 43.21875 64.59375 
L 8.203125 64.59375 
z
" id="DejaVuSans-55"/>
      </defs>
      <g transform="translate(354.873516 494.473162)rotate(-45)scale(0.13 -0.13)">
       <use xlink:href="#DejaVuSans-50"/>
       <use x="63.623047" xlink:href="#DejaVuSans-48"/>
       <use x="127.246094" xlink:href="#DejaVuSans-50"/>
       <use x="190.869141" xlink:href="#DejaVuSans-48"/>
       <use x="254.492188" xlink:href="#DejaVuSans-45"/>
       <use x="290.576172" xlink:href="#DejaVuSans-48"/>
       <use x="354.199219" xlink:href="#DejaVuSans-55"/>
      </g>
     </g>
    </g>
    <g id="xtick_7">
     <g id="line2d_7">
      <g>
       <use style="stroke:#000000;stroke-width:0.8;" x="421.782252" xlink:href="#m55551ee644" y="442.08"/>
      </g>
     </g>
     <g id="text_7">
      <!-- 2020-08 -->
      <defs>
       <path d="M 31.78125 34.625 
Q 24.75 34.625 20.71875 30.859375 
Q 16.703125 27.09375 16.703125 20.515625 
Q 16.703125 13.921875 20.71875 10.15625 
Q 24.75 6.390625 31.78125 6.390625 
Q 38.8125 6.390625 42.859375 10.171875 
Q 46.921875 13.96875 46.921875 20.515625 
Q 46.921875 27.09375 42.890625 30.859375 
Q 38.875 34.625 31.78125 34.625 
z
M 21.921875 38.8125 
Q 15.578125 40.375 12.03125 44.71875 
Q 8.5 49.078125 8.5 55.328125 
Q 8.5 64.0625 14.71875 69.140625 
Q 20.953125 74.21875 31.78125 74.21875 
Q 42.671875 74.21875 48.875 69.140625 
Q 55.078125 64.0625 55.078125 55.328125 
Q 55.078125 49.078125 51.53125 44.71875 
Q 48 40.375 41.703125 38.8125 
Q 48.828125 37.15625 52.796875 32.3125 
Q 56.78125 27.484375 56.78125 20.515625 
Q 56.78125 9.90625 50.3125 4.234375 
Q 43.84375 -1.421875 31.78125 -1.421875 
Q 19.734375 -1.421875 13.25 4.234375 
Q 6.78125 9.90625 6.78125 20.515625 
Q 6.78125 27.484375 10.78125 32.3125 
Q 14.796875 37.15625 21.921875 38.8125 
z
M 18.3125 54.390625 
Q 18.3125 48.734375 21.84375 45.5625 
Q 25.390625 42.390625 31.78125 42.390625 
Q 38.140625 42.390625 41.71875 45.5625 
Q 45.3125 48.734375 45.3125 54.390625 
Q 45.3125 60.0625 41.71875 63.234375 
Q 38.140625 66.40625 31.78125 66.40625 
Q 25.390625 66.40625 21.84375 63.234375 
Q 18.3125 60.0625 18.3125 54.390625 
z
" id="DejaVuSans-56"/>
      </defs>
      <g transform="translate(405.114585 494.473162)rotate(-45)scale(0.13 -0.13)">
       <use xlink:href="#DejaVuSans-50"/>
       <use x="63.623047" xlink:href="#DejaVuSans-48"/>
       <use x="127.246094" xlink:href="#DejaVuSans-50"/>
       <use x="190.869141" xlink:href="#DejaVuSans-48"/>
       <use x="254.492188" xlink:href="#DejaVuSans-45"/>
       <use x="290.576172" xlink:href="#DejaVuSans-48"/>
       <use x="354.199219" xlink:href="#DejaVuSans-56"/>
      </g>
     </g>
    </g>
    <g id="xtick_8">
     <g id="line2d_8">
      <g>
       <use style="stroke:#000000;stroke-width:0.8;" x="472.023321" xlink:href="#m55551ee644" y="442.08"/>
      </g>
     </g>
     <g id="text_8">
      <!-- 2020-09 -->
      <defs>
       <path d="M 10.984375 1.515625 
L 10.984375 10.5 
Q 14.703125 8.734375 18.5 7.8125 
Q 22.3125 6.890625 25.984375 6.890625 
Q 35.75 6.890625 40.890625 13.453125 
Q 46.046875 20.015625 46.78125 33.40625 
Q 43.953125 29.203125 39.59375 26.953125 
Q 35.25 24.703125 29.984375 24.703125 
Q 19.046875 24.703125 12.671875 31.3125 
Q 6.296875 37.9375 6.296875 49.421875 
Q 6.296875 60.640625 12.9375 67.421875 
Q 19.578125 74.21875 30.609375 74.21875 
Q 43.265625 74.21875 49.921875 64.515625 
Q 56.59375 54.828125 56.59375 36.375 
Q 56.59375 19.140625 48.40625 8.859375 
Q 40.234375 -1.421875 26.421875 -1.421875 
Q 22.703125 -1.421875 18.890625 -0.6875 
Q 15.09375 0.046875 10.984375 1.515625 
z
M 30.609375 32.421875 
Q 37.25 32.421875 41.125 36.953125 
Q 45.015625 41.5 45.015625 49.421875 
Q 45.015625 57.28125 41.125 61.84375 
Q 37.25 66.40625 30.609375 66.40625 
Q 23.96875 66.40625 20.09375 61.84375 
Q 16.21875 57.28125 16.21875 49.421875 
Q 16.21875 41.5 20.09375 36.953125 
Q 23.96875 32.421875 30.609375 32.421875 
z
" id="DejaVuSans-57"/>
      </defs>
      <g transform="translate(455.355654 494.473162)rotate(-45)scale(0.13 -0.13)">
       <use xlink:href="#DejaVuSans-50"/>
       <use x="63.623047" xlink:href="#DejaVuSans-48"/>
       <use x="127.246094" xlink:href="#DejaVuSans-50"/>
       <use x="190.869141" xlink:href="#DejaVuSans-48"/>
       <use x="254.492188" xlink:href="#DejaVuSans-45"/>
       <use x="290.576172" xlink:href="#DejaVuSans-48"/>
       <use x="354.199219" xlink:href="#DejaVuSans-57"/>
      </g>
     </g>
    </g>
    <g id="xtick_9">
     <g id="line2d_9">
      <g>
       <use style="stroke:#000000;stroke-width:0.8;" x="520.64371" xlink:href="#m55551ee644" y="442.08"/>
      </g>
     </g>
     <g id="text_9">
      <!-- 2020-10 -->
      <defs>
       <path d="M 12.40625 8.296875 
L 28.515625 8.296875 
L 28.515625 63.921875 
L 10.984375 60.40625 
L 10.984375 69.390625 
L 28.421875 72.90625 
L 38.28125 72.90625 
L 38.28125 8.296875 
L 54.390625 8.296875 
L 54.390625 0 
L 12.40625 0 
z
" id="DejaVuSans-49"/>
      </defs>
      <g transform="translate(503.976043 494.473162)rotate(-45)scale(0.13 -0.13)">
       <use xlink:href="#DejaVuSans-50"/>
       <use x="63.623047" xlink:href="#DejaVuSans-48"/>
       <use x="127.246094" xlink:href="#DejaVuSans-50"/>
       <use x="190.869141" xlink:href="#DejaVuSans-48"/>
       <use x="254.492188" xlink:href="#DejaVuSans-45"/>
       <use x="290.576172" xlink:href="#DejaVuSans-49"/>
       <use x="354.199219" xlink:href="#DejaVuSans-48"/>
      </g>
     </g>
    </g>
    <g id="xtick_10">
     <g id="line2d_10">
      <g>
       <use style="stroke:#000000;stroke-width:0.8;" x="570.884779" xlink:href="#m55551ee644" y="442.08"/>
      </g>
     </g>
     <g id="text_10">
      <!-- 2020-11 -->
      <g transform="translate(554.217112 494.473162)rotate(-45)scale(0.13 -0.13)">
       <use xlink:href="#DejaVuSans-50"/>
       <use x="63.623047" xlink:href="#DejaVuSans-48"/>
       <use x="127.246094" xlink:href="#DejaVuSans-50"/>
       <use x="190.869141" xlink:href="#DejaVuSans-48"/>
       <use x="254.492188" xlink:href="#DejaVuSans-45"/>
       <use x="290.576172" xlink:href="#DejaVuSans-49"/>
       <use x="354.199219" xlink:href="#DejaVuSans-49"/>
      </g>
     </g>
    </g>
    <g id="xtick_11">
     <g id="line2d_11">
      <g>
       <use style="stroke:#000000;stroke-width:0.8;" x="619.505168" xlink:href="#m55551ee644" y="442.08"/>
      </g>
     </g>
     <g id="text_11">
      <!-- 2020-12 -->
      <g transform="translate(602.837501 494.473162)rotate(-45)scale(0.13 -0.13)">
       <use xlink:href="#DejaVuSans-50"/>
       <use x="63.623047" xlink:href="#DejaVuSans-48"/>
       <use x="127.246094" xlink:href="#DejaVuSans-50"/>
       <use x="190.869141" xlink:href="#DejaVuSans-48"/>
       <use x="254.492188" xlink:href="#DejaVuSans-45"/>
       <use x="290.576172" xlink:href="#DejaVuSans-49"/>
       <use x="354.199219" xlink:href="#DejaVuSans-50"/>
      </g>
     </g>
    </g>
    <g id="text_12">
     <!-- Target End Date -->
     <defs>
      <path d="M -0.296875 72.90625 
L 61.375 72.90625 
L 61.375 64.59375 
L 35.5 64.59375 
L 35.5 0 
L 25.59375 0 
L 25.59375 64.59375 
L -0.296875 64.59375 
z
" id="DejaVuSans-84"/>
      <path d="M 34.28125 27.484375 
Q 23.390625 27.484375 19.1875 25 
Q 14.984375 22.515625 14.984375 16.5 
Q 14.984375 11.71875 18.140625 8.90625 
Q 21.296875 6.109375 26.703125 6.109375 
Q 34.1875 6.109375 38.703125 11.40625 
Q 43.21875 16.703125 43.21875 25.484375 
L 43.21875 27.484375 
z
M 52.203125 31.203125 
L 52.203125 0 
L 43.21875 0 
L 43.21875 8.296875 
Q 40.140625 3.328125 35.546875 0.953125 
Q 30.953125 -1.421875 24.3125 -1.421875 
Q 15.921875 -1.421875 10.953125 3.296875 
Q 6 8.015625 6 15.921875 
Q 6 25.140625 12.171875 29.828125 
Q 18.359375 34.515625 30.609375 34.515625 
L 43.21875 34.515625 
L 43.21875 35.40625 
Q 43.21875 41.609375 39.140625 45 
Q 35.0625 48.390625 27.6875 48.390625 
Q 23 48.390625 18.546875 47.265625 
Q 14.109375 46.140625 10.015625 43.890625 
L 10.015625 52.203125 
Q 14.9375 54.109375 19.578125 55.046875 
Q 24.21875 56 28.609375 56 
Q 40.484375 56 46.34375 49.84375 
Q 52.203125 43.703125 52.203125 31.203125 
z
" id="DejaVuSans-97"/>
      <path d="M 41.109375 46.296875 
Q 39.59375 47.171875 37.8125 47.578125 
Q 36.03125 48 33.890625 48 
Q 26.265625 48 22.1875 43.046875 
Q 18.109375 38.09375 18.109375 28.8125 
L 18.109375 0 
L 9.078125 0 
L 9.078125 54.6875 
L 18.109375 54.6875 
L 18.109375 46.1875 
Q 20.953125 51.171875 25.484375 53.578125 
Q 30.03125 56 36.53125 56 
Q 37.453125 56 38.578125 55.875 
Q 39.703125 55.765625 41.0625 55.515625 
z
" id="DejaVuSans-114"/>
      <path d="M 45.40625 27.984375 
Q 45.40625 37.75 41.375 43.109375 
Q 37.359375 48.484375 30.078125 48.484375 
Q 22.859375 48.484375 18.828125 43.109375 
Q 14.796875 37.75 14.796875 27.984375 
Q 14.796875 18.265625 18.828125 12.890625 
Q 22.859375 7.515625 30.078125 7.515625 
Q 37.359375 7.515625 41.375 12.890625 
Q 45.40625 18.265625 45.40625 27.984375 
z
M 54.390625 6.78125 
Q 54.390625 -7.171875 48.1875 -13.984375 
Q 42 -20.796875 29.203125 -20.796875 
Q 24.46875 -20.796875 20.265625 -20.09375 
Q 16.0625 -19.390625 12.109375 -17.921875 
L 12.109375 -9.1875 
Q 16.0625 -11.328125 19.921875 -12.34375 
Q 23.78125 -13.375 27.78125 -13.375 
Q 36.625 -13.375 41.015625 -8.765625 
Q 45.40625 -4.15625 45.40625 5.171875 
L 45.40625 9.625 
Q 42.625 4.78125 38.28125 2.390625 
Q 33.9375 0 27.875 0 
Q 17.828125 0 11.671875 7.65625 
Q 5.515625 15.328125 5.515625 27.984375 
Q 5.515625 40.671875 11.671875 48.328125 
Q 17.828125 56 27.875 56 
Q 33.9375 56 38.28125 53.609375 
Q 42.625 51.21875 45.40625 46.390625 
L 45.40625 54.6875 
L 54.390625 54.6875 
z
" id="DejaVuSans-103"/>
      <path d="M 56.203125 29.59375 
L 56.203125 25.203125 
L 14.890625 25.203125 
Q 15.484375 15.921875 20.484375 11.0625 
Q 25.484375 6.203125 34.421875 6.203125 
Q 39.59375 6.203125 44.453125 7.46875 
Q 49.3125 8.734375 54.109375 11.28125 
L 54.109375 2.78125 
Q 49.265625 0.734375 44.1875 -0.34375 
Q 39.109375 -1.421875 33.890625 -1.421875 
Q 20.796875 -1.421875 13.15625 6.1875 
Q 5.515625 13.8125 5.515625 26.8125 
Q 5.515625 40.234375 12.765625 48.109375 
Q 20.015625 56 32.328125 56 
Q 43.359375 56 49.78125 48.890625 
Q 56.203125 41.796875 56.203125 29.59375 
z
M 47.21875 32.234375 
Q 47.125 39.59375 43.09375 43.984375 
Q 39.0625 48.390625 32.421875 48.390625 
Q 24.90625 48.390625 20.390625 44.140625 
Q 15.875 39.890625 15.1875 32.171875 
z
" id="DejaVuSans-101"/>
      <path d="M 18.3125 70.21875 
L 18.3125 54.6875 
L 36.8125 54.6875 
L 36.8125 47.703125 
L 18.3125 47.703125 
L 18.3125 18.015625 
Q 18.3125 11.328125 20.140625 9.421875 
Q 21.96875 7.515625 27.59375 7.515625 
L 36.8125 7.515625 
L 36.8125 0 
L 27.59375 0 
Q 17.1875 0 13.234375 3.875 
Q 9.28125 7.765625 9.28125 18.015625 
L 9.28125 47.703125 
L 2.6875 47.703125 
L 2.6875 54.6875 
L 9.28125 54.6875 
L 9.28125 70.21875 
z
" id="DejaVuSans-116"/>
      <path id="DejaVuSans-32"/>
      <path d="M 9.8125 72.90625 
L 55.90625 72.90625 
L 55.90625 64.59375 
L 19.671875 64.59375 
L 19.671875 43.015625 
L 54.390625 43.015625 
L 54.390625 34.71875 
L 19.671875 34.71875 
L 19.671875 8.296875 
L 56.78125 8.296875 
L 56.78125 0 
L 9.8125 0 
z
" id="DejaVuSans-69"/>
      <path d="M 54.890625 33.015625 
L 54.890625 0 
L 45.90625 0 
L 45.90625 32.71875 
Q 45.90625 40.484375 42.875 44.328125 
Q 39.84375 48.1875 33.796875 48.1875 
Q 26.515625 48.1875 22.3125 43.546875 
Q 18.109375 38.921875 18.109375 30.90625 
L 18.109375 0 
L 9.078125 0 
L 9.078125 54.6875 
L 18.109375 54.6875 
L 18.109375 46.1875 
Q 21.34375 51.125 25.703125 53.5625 
Q 30.078125 56 35.796875 56 
Q 45.21875 56 50.046875 50.171875 
Q 54.890625 44.34375 54.890625 33.015625 
z
" id="DejaVuSans-110"/>
      <path d="M 45.40625 46.390625 
L 45.40625 75.984375 
L 54.390625 75.984375 
L 54.390625 0 
L 45.40625 0 
L 45.40625 8.203125 
Q 42.578125 3.328125 38.25 0.953125 
Q 33.9375 -1.421875 27.875 -1.421875 
Q 17.96875 -1.421875 11.734375 6.484375 
Q 5.515625 14.40625 5.515625 27.296875 
Q 5.515625 40.1875 11.734375 48.09375 
Q 17.96875 56 27.875 56 
Q 33.9375 56 38.25 53.625 
Q 42.578125 51.265625 45.40625 46.390625 
z
M 14.796875 27.296875 
Q 14.796875 17.390625 18.875 11.75 
Q 22.953125 6.109375 30.078125 6.109375 
Q 37.203125 6.109375 41.296875 11.75 
Q 45.40625 17.390625 45.40625 27.296875 
Q 45.40625 37.203125 41.296875 42.84375 
Q 37.203125 48.484375 30.078125 48.484375 
Q 22.953125 48.484375 18.875 42.84375 
Q 14.796875 37.203125 14.796875 27.296875 
z
" id="DejaVuSans-100"/>
      <path d="M 19.671875 64.796875 
L 19.671875 8.109375 
L 31.59375 8.109375 
Q 46.6875 8.109375 53.6875 14.9375 
Q 60.6875 21.78125 60.6875 36.53125 
Q 60.6875 51.171875 53.6875 57.984375 
Q 46.6875 64.796875 31.59375 64.796875 
z
M 9.8125 72.90625 
L 30.078125 72.90625 
Q 51.265625 72.90625 61.171875 64.09375 
Q 71.09375 55.28125 71.09375 36.53125 
Q 71.09375 17.671875 61.125 8.828125 
Q 51.171875 0 30.078125 0 
L 9.8125 0 
z
" id="DejaVuSans-68"/>
     </defs>
     <g transform="translate(292.0625 514.062079)scale(0.18 -0.18)">
      <use xlink:href="#DejaVuSans-84"/>
      <use x="44.583984" xlink:href="#DejaVuSans-97"/>
      <use x="105.863281" xlink:href="#DejaVuSans-114"/>
      <use x="145.226562" xlink:href="#DejaVuSans-103"/>
      <use x="208.703125" xlink:href="#DejaVuSans-101"/>
      <use x="270.226562" xlink:href="#DejaVuSans-116"/>
      <use x="309.435547" xlink:href="#DejaVuSans-32"/>
      <use x="341.222656" xlink:href="#DejaVuSans-69"/>
      <use x="404.40625" xlink:href="#DejaVuSans-110"/>
      <use x="467.785156" xlink:href="#DejaVuSans-100"/>
      <use x="531.261719" xlink:href="#DejaVuSans-32"/>
      <use x="563.048828" xlink:href="#DejaVuSans-68"/>
      <use x="640.050781" xlink:href="#DejaVuSans-97"/>
      <use x="701.330078" xlink:href="#DejaVuSans-116"/>
      <use x="740.539062" xlink:href="#DejaVuSans-101"/>
     </g>
    </g>
   </g>
   <g id="matplotlib.axis_2">
    <g id="ytick_1">
     <g id="line2d_12">
      <defs>
       <path d="M 0 0 
L -3.5 0 
" id="ma14579eb8c" style="stroke:#000000;stroke-width:0.8;"/>
      </defs>
      <g>
       <use style="stroke:#000000;stroke-width:0.8;" x="85.248125" xlink:href="#ma14579eb8c" y="442.08"/>
      </g>
     </g>
     <g id="text_13">
      <!-- 0 -->
      <g transform="translate(69.976875 447.018984)scale(0.13 -0.13)">
       <use xlink:href="#DejaVuSans-48"/>
      </g>
     </g>
    </g>
    <g id="ytick_2">
     <g id="line2d_13">
      <g>
       <use style="stroke:#000000;stroke-width:0.8;" x="85.248125" xlink:href="#ma14579eb8c" y="384.136638"/>
      </g>
     </g>
     <g id="text_14">
      <!-- 50000 -->
      <g transform="translate(36.891875 389.075622)scale(0.13 -0.13)">
       <use xlink:href="#DejaVuSans-53"/>
       <use x="63.623047" xlink:href="#DejaVuSans-48"/>
       <use x="127.246094" xlink:href="#DejaVuSans-48"/>
       <use x="190.869141" xlink:href="#DejaVuSans-48"/>
       <use x="254.492188" xlink:href="#DejaVuSans-48"/>
      </g>
     </g>
    </g>
    <g id="ytick_3">
     <g id="line2d_14">
      <g>
       <use style="stroke:#000000;stroke-width:0.8;" x="85.248125" xlink:href="#ma14579eb8c" y="326.193275"/>
      </g>
     </g>
     <g id="text_15">
      <!-- 100000 -->
      <g transform="translate(28.620625 331.13226)scale(0.13 -0.13)">
       <use xlink:href="#DejaVuSans-49"/>
       <use x="63.623047" xlink:href="#DejaVuSans-48"/>
       <use x="127.246094" xlink:href="#DejaVuSans-48"/>
       <use x="190.869141" xlink:href="#DejaVuSans-48"/>
       <use x="254.492188" xlink:href="#DejaVuSans-48"/>
       <use x="318.115234" xlink:href="#DejaVuSans-48"/>
      </g>
     </g>
    </g>
    <g id="ytick_4">
     <g id="line2d_15">
      <g>
       <use style="stroke:#000000;stroke-width:0.8;" x="85.248125" xlink:href="#ma14579eb8c" y="268.249913"/>
      </g>
     </g>
     <g id="text_16">
      <!-- 150000 -->
      <g transform="translate(28.620625 273.188897)scale(0.13 -0.13)">
       <use xlink:href="#DejaVuSans-49"/>
       <use x="63.623047" xlink:href="#DejaVuSans-53"/>
       <use x="127.246094" xlink:href="#DejaVuSans-48"/>
       <use x="190.869141" xlink:href="#DejaVuSans-48"/>
       <use x="254.492188" xlink:href="#DejaVuSans-48"/>
       <use x="318.115234" xlink:href="#DejaVuSans-48"/>
      </g>
     </g>
    </g>
    <g id="ytick_5">
     <g id="line2d_16">
      <g>
       <use style="stroke:#000000;stroke-width:0.8;" x="85.248125" xlink:href="#ma14579eb8c" y="210.30655"/>
      </g>
     </g>
     <g id="text_17">
      <!-- 200000 -->
      <g transform="translate(28.620625 215.245535)scale(0.13 -0.13)">
       <use xlink:href="#DejaVuSans-50"/>
       <use x="63.623047" xlink:href="#DejaVuSans-48"/>
       <use x="127.246094" xlink:href="#DejaVuSans-48"/>
       <use x="190.869141" xlink:href="#DejaVuSans-48"/>
       <use x="254.492188" xlink:href="#DejaVuSans-48"/>
       <use x="318.115234" xlink:href="#DejaVuSans-48"/>
      </g>
     </g>
    </g>
    <g id="ytick_6">
     <g id="line2d_17">
      <g>
       <use style="stroke:#000000;stroke-width:0.8;" x="85.248125" xlink:href="#ma14579eb8c" y="152.363188"/>
      </g>
     </g>
     <g id="text_18">
      <!-- 250000 -->
      <g transform="translate(28.620625 157.302172)scale(0.13 -0.13)">
       <use xlink:href="#DejaVuSans-50"/>
       <use x="63.623047" xlink:href="#DejaVuSans-53"/>
       <use x="127.246094" xlink:href="#DejaVuSans-48"/>
       <use x="190.869141" xlink:href="#DejaVuSans-48"/>
       <use x="254.492188" xlink:href="#DejaVuSans-48"/>
       <use x="318.115234" xlink:href="#DejaVuSans-48"/>
      </g>
     </g>
    </g>
    <g id="ytick_7">
     <g id="line2d_18">
      <g>
       <use style="stroke:#000000;stroke-width:0.8;" x="85.248125" xlink:href="#ma14579eb8c" y="94.419826"/>
      </g>
     </g>
     <g id="text_19">
      <!-- 300000 -->
      <g transform="translate(28.620625 99.35881)scale(0.13 -0.13)">
       <use xlink:href="#DejaVuSans-51"/>
       <use x="63.623047" xlink:href="#DejaVuSans-48"/>
       <use x="127.246094" xlink:href="#DejaVuSans-48"/>
       <use x="190.869141" xlink:href="#DejaVuSans-48"/>
       <use x="254.492188" xlink:href="#DejaVuSans-48"/>
       <use x="318.115234" xlink:href="#DejaVuSans-48"/>
      </g>
     </g>
    </g>
    <g id="ytick_8">
     <g id="line2d_19">
      <g>
       <use style="stroke:#000000;stroke-width:0.8;" x="85.248125" xlink:href="#ma14579eb8c" y="36.476463"/>
      </g>
     </g>
     <g id="text_20">
      <!-- 350000 -->
      <g transform="translate(28.620625 41.415448)scale(0.13 -0.13)">
       <use xlink:href="#DejaVuSans-51"/>
       <use x="63.623047" xlink:href="#DejaVuSans-53"/>
       <use x="127.246094" xlink:href="#DejaVuSans-48"/>
       <use x="190.869141" xlink:href="#DejaVuSans-48"/>
       <use x="254.492188" xlink:href="#DejaVuSans-48"/>
       <use x="318.115234" xlink:href="#DejaVuSans-48"/>
      </g>
     </g>
    </g>
    <g id="text_21">
     <!-- US cumulative deaths -->
     <defs>
      <path d="M 8.6875 72.90625 
L 18.609375 72.90625 
L 18.609375 28.609375 
Q 18.609375 16.890625 22.84375 11.734375 
Q 27.09375 6.59375 36.625 6.59375 
Q 46.09375 6.59375 50.34375 11.734375 
Q 54.59375 16.890625 54.59375 28.609375 
L 54.59375 72.90625 
L 64.5 72.90625 
L 64.5 27.390625 
Q 64.5 13.140625 57.4375 5.859375 
Q 50.390625 -1.421875 36.625 -1.421875 
Q 22.796875 -1.421875 15.734375 5.859375 
Q 8.6875 13.140625 8.6875 27.390625 
z
" id="DejaVuSans-85"/>
      <path d="M 53.515625 70.515625 
L 53.515625 60.890625 
Q 47.90625 63.578125 42.921875 64.890625 
Q 37.9375 66.21875 33.296875 66.21875 
Q 25.25 66.21875 20.875 63.09375 
Q 16.5 59.96875 16.5 54.203125 
Q 16.5 49.359375 19.40625 46.890625 
Q 22.3125 44.4375 30.421875 42.921875 
L 36.375 41.703125 
Q 47.40625 39.59375 52.65625 34.296875 
Q 57.90625 29 57.90625 20.125 
Q 57.90625 9.515625 50.796875 4.046875 
Q 43.703125 -1.421875 29.984375 -1.421875 
Q 24.8125 -1.421875 18.96875 -0.25 
Q 13.140625 0.921875 6.890625 3.21875 
L 6.890625 13.375 
Q 12.890625 10.015625 18.65625 8.296875 
Q 24.421875 6.59375 29.984375 6.59375 
Q 38.421875 6.59375 43.015625 9.90625 
Q 47.609375 13.234375 47.609375 19.390625 
Q 47.609375 24.75 44.3125 27.78125 
Q 41.015625 30.8125 33.5 32.328125 
L 27.484375 33.5 
Q 16.453125 35.6875 11.515625 40.375 
Q 6.59375 45.0625 6.59375 53.421875 
Q 6.59375 63.09375 13.40625 68.65625 
Q 20.21875 74.21875 32.171875 74.21875 
Q 37.3125 74.21875 42.625 73.28125 
Q 47.953125 72.359375 53.515625 70.515625 
z
" id="DejaVuSans-83"/>
      <path d="M 48.78125 52.59375 
L 48.78125 44.1875 
Q 44.96875 46.296875 41.140625 47.34375 
Q 37.3125 48.390625 33.40625 48.390625 
Q 24.65625 48.390625 19.8125 42.84375 
Q 14.984375 37.3125 14.984375 27.296875 
Q 14.984375 17.28125 19.8125 11.734375 
Q 24.65625 6.203125 33.40625 6.203125 
Q 37.3125 6.203125 41.140625 7.25 
Q 44.96875 8.296875 48.78125 10.40625 
L 48.78125 2.09375 
Q 45.015625 0.34375 40.984375 -0.53125 
Q 36.96875 -1.421875 32.421875 -1.421875 
Q 20.0625 -1.421875 12.78125 6.34375 
Q 5.515625 14.109375 5.515625 27.296875 
Q 5.515625 40.671875 12.859375 48.328125 
Q 20.21875 56 33.015625 56 
Q 37.15625 56 41.109375 55.140625 
Q 45.0625 54.296875 48.78125 52.59375 
z
" id="DejaVuSans-99"/>
      <path d="M 8.5 21.578125 
L 8.5 54.6875 
L 17.484375 54.6875 
L 17.484375 21.921875 
Q 17.484375 14.15625 20.5 10.265625 
Q 23.53125 6.390625 29.59375 6.390625 
Q 36.859375 6.390625 41.078125 11.03125 
Q 45.3125 15.671875 45.3125 23.6875 
L 45.3125 54.6875 
L 54.296875 54.6875 
L 54.296875 0 
L 45.3125 0 
L 45.3125 8.40625 
Q 42.046875 3.421875 37.71875 1 
Q 33.40625 -1.421875 27.6875 -1.421875 
Q 18.265625 -1.421875 13.375 4.4375 
Q 8.5 10.296875 8.5 21.578125 
z
M 31.109375 56 
z
" id="DejaVuSans-117"/>
      <path d="M 52 44.1875 
Q 55.375 50.25 60.0625 53.125 
Q 64.75 56 71.09375 56 
Q 79.640625 56 84.28125 50.015625 
Q 88.921875 44.046875 88.921875 33.015625 
L 88.921875 0 
L 79.890625 0 
L 79.890625 32.71875 
Q 79.890625 40.578125 77.09375 44.375 
Q 74.3125 48.1875 68.609375 48.1875 
Q 61.625 48.1875 57.5625 43.546875 
Q 53.515625 38.921875 53.515625 30.90625 
L 53.515625 0 
L 44.484375 0 
L 44.484375 32.71875 
Q 44.484375 40.625 41.703125 44.40625 
Q 38.921875 48.1875 33.109375 48.1875 
Q 26.21875 48.1875 22.15625 43.53125 
Q 18.109375 38.875 18.109375 30.90625 
L 18.109375 0 
L 9.078125 0 
L 9.078125 54.6875 
L 18.109375 54.6875 
L 18.109375 46.1875 
Q 21.1875 51.21875 25.484375 53.609375 
Q 29.78125 56 35.6875 56 
Q 41.65625 56 45.828125 52.96875 
Q 50 49.953125 52 44.1875 
z
" id="DejaVuSans-109"/>
      <path d="M 9.421875 75.984375 
L 18.40625 75.984375 
L 18.40625 0 
L 9.421875 0 
z
" id="DejaVuSans-108"/>
      <path d="M 9.421875 54.6875 
L 18.40625 54.6875 
L 18.40625 0 
L 9.421875 0 
z
M 9.421875 75.984375 
L 18.40625 75.984375 
L 18.40625 64.59375 
L 9.421875 64.59375 
z
" id="DejaVuSans-105"/>
      <path d="M 2.984375 54.6875 
L 12.5 54.6875 
L 29.59375 8.796875 
L 46.6875 54.6875 
L 56.203125 54.6875 
L 35.6875 0 
L 23.484375 0 
z
" id="DejaVuSans-118"/>
      <path d="M 54.890625 33.015625 
L 54.890625 0 
L 45.90625 0 
L 45.90625 32.71875 
Q 45.90625 40.484375 42.875 44.328125 
Q 39.84375 48.1875 33.796875 48.1875 
Q 26.515625 48.1875 22.3125 43.546875 
Q 18.109375 38.921875 18.109375 30.90625 
L 18.109375 0 
L 9.078125 0 
L 9.078125 75.984375 
L 18.109375 75.984375 
L 18.109375 46.1875 
Q 21.34375 51.125 25.703125 53.5625 
Q 30.078125 56 35.796875 56 
Q 45.21875 56 50.046875 50.171875 
Q 54.890625 44.34375 54.890625 33.015625 
z
" id="DejaVuSans-104"/>
      <path d="M 44.28125 53.078125 
L 44.28125 44.578125 
Q 40.484375 46.53125 36.375 47.5 
Q 32.28125 48.484375 27.875 48.484375 
Q 21.1875 48.484375 17.84375 46.4375 
Q 14.5 44.390625 14.5 40.28125 
Q 14.5 37.15625 16.890625 35.375 
Q 19.28125 33.59375 26.515625 31.984375 
L 29.59375 31.296875 
Q 39.15625 29.25 43.1875 25.515625 
Q 47.21875 21.78125 47.21875 15.09375 
Q 47.21875 7.46875 41.1875 3.015625 
Q 35.15625 -1.421875 24.609375 -1.421875 
Q 20.21875 -1.421875 15.453125 -0.5625 
Q 10.6875 0.296875 5.421875 2 
L 5.421875 11.28125 
Q 10.40625 8.6875 15.234375 7.390625 
Q 20.0625 6.109375 24.8125 6.109375 
Q 31.15625 6.109375 34.5625 8.28125 
Q 37.984375 10.453125 37.984375 14.40625 
Q 37.984375 18.0625 35.515625 20.015625 
Q 33.0625 21.96875 24.703125 23.78125 
L 21.578125 24.515625 
Q 13.234375 26.265625 9.515625 29.90625 
Q 5.8125 33.546875 5.8125 39.890625 
Q 5.8125 47.609375 11.28125 51.796875 
Q 16.75 56 26.8125 56 
Q 31.78125 56 36.171875 55.265625 
Q 40.578125 54.546875 44.28125 53.078125 
z
" id="DejaVuSans-115"/>
     </defs>
     <g transform="translate(20.877188 323.379844)rotate(-90)scale(0.18 -0.18)">
      <use xlink:href="#DejaVuSans-85"/>
      <use x="73.193359" xlink:href="#DejaVuSans-83"/>
      <use x="136.669922" xlink:href="#DejaVuSans-32"/>
      <use x="168.457031" xlink:href="#DejaVuSans-99"/>
      <use x="223.4375" xlink:href="#DejaVuSans-117"/>
      <use x="286.816406" xlink:href="#DejaVuSans-109"/>
      <use x="384.228516" xlink:href="#DejaVuSans-117"/>
      <use x="447.607422" xlink:href="#DejaVuSans-108"/>
      <use x="475.390625" xlink:href="#DejaVuSans-97"/>
      <use x="536.669922" xlink:href="#DejaVuSans-116"/>
      <use x="575.878906" xlink:href="#DejaVuSans-105"/>
      <use x="603.662109" xlink:href="#DejaVuSans-118"/>
      <use x="662.841797" xlink:href="#DejaVuSans-101"/>
      <use x="724.365234" xlink:href="#DejaVuSans-32"/>
      <use x="756.152344" xlink:href="#DejaVuSans-100"/>
      <use x="819.628906" xlink:href="#DejaVuSans-101"/>
      <use x="881.152344" xlink:href="#DejaVuSans-97"/>
      <use x="942.431641" xlink:href="#DejaVuSans-116"/>
      <use x="981.640625" xlink:href="#DejaVuSans-104"/>
      <use x="1045.019531" xlink:href="#DejaVuSans-115"/>
     </g>
    </g>
   </g>
   <g id="line2d_20">
    <path clip-path="url(#pd13982e632)" d="M 206.23186 441.84475 
L 217.576618 439.115618 
L 228.921375 429.852792 
L 240.266133 417.409648 
L 251.61089 401.149415 
L 262.955648 376.779426 
L 274.300405 367.237544 
L 285.645162 352.61322 
L 296.98992 338.815035 
L 308.334677 329.015433 
L 319.679435 321.049012 
L 331.024192 314.332669 
L 342.36895 302.881262 
L 353.713707 301.904103 
L 365.058465 298.020827 
L 376.403222 291.6498 
L 387.74798 287.564622 
L 399.092737 281.104785 
L 410.437495 273.919498 
L 421.782252 265.977733 
L 433.12701 256.355314 
L 444.471767 246.403167 
L 455.816525 239.421437 
L 467.161282 231.359094 
L 478.50604 223.9249 
L 489.850797 217.596042 
L 501.195555 212.362777 
L 512.540312 205.892228 
L 523.88507 199.796374 
L 535.229827 194.163689 
L 546.574584 188.358428 
L 557.919342 182.387259 
L 569.264099 175.222152 
L 580.608857 168.070045 
L 591.953614 159.418946 
L 603.298372 147.799226 
L 614.643129 133.155023 
" style="fill:none;stroke:#0010ff;stroke-linecap:square;stroke-width:1.5;"/>
   </g>
   <g id="line2d_21">
    <path clip-path="url(#pd13982e632)" d="M 251.61089 417.547939 
L 262.955648 382.474396 
L 274.300405 364.936237 
L 285.645162 353.243581 
L 296.98992 339.238247 
L 308.334677 328.371904 
L 319.679435 319.772048 
L 331.024192 313.654019 
L 342.36895 308.03128 
L 353.713707 295.377005 
L 365.058465 296.169828 
L 376.403222 292.149419 
L 387.74798 285.980877 
L 399.092737 281.673414 
L 410.437495 274.808507 
L 421.782252 266.626574 
L 433.12701 257.342612 
L 444.471767 247.696509 
L 455.816525 237.869266 
L 467.161282 231.908011 
L 478.50604 224.337371 
L 489.850797 217.561043 
L 501.195555 211.653885 
L 512.540312 206.844075 
L 523.88507 200.299452 
L 535.229827 194.052687 
L 546.574584 188.71888 
L 557.919342 182.471407 
L 569.264099 176.356335 
L 580.608857 168.157655 
L 591.953614 160.627744 
L 603.298372 150.577634 
L 614.643129 136.411517 
" style="fill:none;stroke:#00a4ff;stroke-linecap:square;stroke-width:1.5;"/>
   </g>
   <g id="line2d_22">
    <path clip-path="url(#pd13982e632)" d="M 262.955648 410.15372 
L 274.300405 368.186497 
L 285.645162 346.730354 
L 296.98992 339.308551 
L 308.334677 330.257007 
L 319.679435 318.844342 
L 331.024192 311.741933 
L 342.36895 306.402165 
L 353.713707 301.95593 
L 365.058465 288.677815 
L 376.403222 290.036649 
L 387.74798 285.870323 
L 399.092737 280.066098 
L 410.437495 275.290096 
L 421.782252 268.400975 
L 433.12701 259.201147 
L 444.471767 248.317147 
L 455.816525 238.780754 
L 467.161282 229.09369 
L 478.50604 224.659802 
L 489.850797 217.513079 
L 501.195555 211.292721 
L 512.540312 205.687814 
L 523.88507 201.407834 
L 535.229827 194.631068 
L 546.574584 188.188953 
L 557.919342 183.256176 
L 569.264099 176.453618 
L 580.608857 170.118632 
L 591.953614 160.57234 
L 603.298372 152.529 
L 614.643129 140.450005 
" style="fill:none;stroke:#40ffb7;stroke-linecap:square;stroke-width:1.5;"/>
   </g>
   <g id="line2d_23">
    <path clip-path="url(#pd13982e632)" d="M 274.300405 402.760441 
L 285.645162 351.120163 
L 296.98992 321.774734 
L 308.334677 325.030208 
L 319.679435 320.187693 
L 331.024192 309.577438 
L 342.36895 304.224455 
L 353.713707 299.39596 
L 365.058465 296.164506 
L 376.403222 281.920706 
L 387.74798 283.576122 
L 399.092737 278.966398 
L 410.437495 273.766229 
L 421.782252 267.908559 
L 433.12701 261.673138 
L 444.471767 251.583498 
L 455.816525 238.48853 
L 467.161282 229.602729 
L 478.50604 220.33398 
L 489.850797 217.523701 
L 501.195555 210.942236 
L 512.540312 205.007362 
L 523.88507 199.696136 
L 535.229827 195.903484 
L 546.574584 188.6777 
L 557.919342 182.106927 
L 569.264099 177.934241 
L 580.608857 170.091405 
L 591.953614 163.706427 
L 603.298372 152.460808 
L 614.643129 143.935436 
" style="fill:none;stroke:#b7ff40;stroke-linecap:square;stroke-width:1.5;"/>
   </g>
   <g id="line2d_24">
    <path clip-path="url(#pd13982e632)" d="M 296.98992 334.374663 
L 308.334677 320.746032 
L 319.679435 305.140938 
L 331.024192 308.234906 
L 342.36895 301.288557 
L 353.713707 297.232774 
L 365.058465 297.413505 
L 376.403222 297.522531 
L 387.74798 290.907325 
L 399.092737 284.304267 
L 410.437495 282.634953 
L 421.782252 268.014428 
L 433.12701 265.266735 
L 444.471767 255.533824 
L 455.816525 240.907863 
L 467.161282 232.235311 
L 478.50604 222.908527 
L 489.850797 214.350501 
L 501.195555 213.238798 
L 512.540312 206.551755 
L 523.88507 199.155762 
L 535.229827 196.054171 
L 546.574584 192.489109 
L 557.919342 183.199418 
L 569.264099 178.322518 
L 580.608857 172.181899 
L 591.953614 163.499905 
L 603.298372 157.340552 
L 614.643129 142.843814 
" style="fill:none;stroke:#ffb900;stroke-linecap:square;stroke-width:1.5;"/>
   </g>
   <g id="line2d_25">
    <path clip-path="url(#pd13982e632)" d="M 308.334677 319.62549 
L 319.679435 307.956836 
L 331.024192 285.116406 
L 342.36895 279.984538 
L 353.713707 291.097102 
L 365.058465 291.847533 
L 376.403222 286.532638 
L 387.74798 294.14832 
L 399.092737 287.567951 
L 410.437495 281.385861 
L 421.782252 279.046363 
L 433.12701 269.587767 
L 444.471767 258.261452 
L 455.816525 250.731443 
L 467.161282 233.803258 
L 478.50604 226.067683 
L 489.850797 214.465932 
L 501.195555 210.508476 
L 512.540312 210.773617 
L 523.88507 202.063312 
L 535.229827 195.85615 
L 546.574584 191.045559 
L 557.919342 188.351606 
L 569.264099 181.797414 
L 580.608857 173.288484 
L 591.953614 169.761119 
L 603.298372 160.240446 
L 614.643129 155.909917 
" style="fill:none;stroke:#ff3000;stroke-linecap:square;stroke-width:1.5;"/>
   </g>
   <g id="line2d_26">
    <path clip-path="url(#pd13982e632)" d="M 319.679435 345.226754 
L 331.024192 312.018623 
L 342.36895 312.142561 
L 353.713707 298.448957 
L 365.058465 293.944223 
L 376.403222 290.014147 
L 387.74798 271.034636 
L 399.092737 291.944083 
L 410.437495 287.023476 
L 421.782252 279.178262 
L 433.12701 274.390672 
L 444.471767 267.115072 
L 455.816525 250.334886 
L 467.161282 243.453674 
L 478.50604 226.761767 
L 489.850797 223.731545 
L 501.195555 215.493357 
L 512.540312 209.605774 
L 523.88507 208.390015 
L 535.229827 199.606372 
L 546.574584 191.934957 
L 557.919342 189.260236 
L 569.264099 185.436102 
L 580.608857 177.993823 
L 591.953614 167.792304 
L 603.298372 163.949228 
L 614.643129 152.393249 
" style="fill:none;stroke:#800000;stroke-linecap:square;stroke-width:1.5;"/>
   </g>
   <g id="line2d_27">
    <path clip-path="url(#pd13982e632)" d="M 110.611761 442.08 
L 196.507782 441.998879 
L 202.990501 441.774059 
L 209.473219 441.196943 
L 212.714579 440.539865 
L 214.335258 440.062412 
L 215.955938 439.462119 
L 220.817977 437.235935 
L 224.059336 434.602989 
L 230.542055 427.643991 
L 232.162734 425.585842 
L 233.783414 422.607554 
L 240.266133 412.497596 
L 243.507492 408.148367 
L 248.369531 399.774392 
L 251.61089 395.067073 
L 253.23157 392.829301 
L 254.852249 390.30297 
L 259.714288 381.674045 
L 261.334968 379.170891 
L 262.955648 377.197341 
L 266.197007 373.953671 
L 267.817686 371.35665 
L 271.059046 365.628369 
L 272.679725 363.453175 
L 274.300405 361.498166 
L 275.921085 360.219935 
L 277.541764 358.692548 
L 280.783124 353.311928 
L 282.403803 351.082267 
L 284.024483 349.051932 
L 285.645162 347.264958 
L 288.886522 345.060793 
L 292.127881 341.163522 
L 295.36924 337.179337 
L 296.98992 335.705258 
L 298.6106 334.830313 
L 300.231279 333.477915 
L 303.472639 329.950323 
L 308.334677 325.789989 
L 313.196716 323.66115 
L 314.817396 321.913578 
L 318.058755 319.204147 
L 319.679435 318.098587 
L 322.920794 316.399688 
L 327.782833 312.867461 
L 329.403513 311.817527 
L 331.024192 311.009797 
L 334.265552 309.922779 
L 339.127591 306.813538 
L 342.36895 304.967463 
L 345.610309 304.160891 
L 348.851668 302.362329 
L 352.093028 300.774681 
L 353.713707 300.072407 
L 356.955067 299.287854 
L 360.196426 297.435984 
L 365.058465 295.502994 
L 366.679144 295.180829 
L 368.299824 294.742777 
L 371.541183 293.189895 
L 374.782543 291.591817 
L 378.023902 290.945169 
L 379.644582 290.526818 
L 381.265261 289.128065 
L 382.885941 288.127963 
L 384.50662 286.971413 
L 386.1273 286.019983 
L 387.74798 285.216888 
L 390.989339 284.256187 
L 399.092737 278.88252 
L 402.334097 277.750307 
L 407.196135 273.795093 
L 408.816815 272.485573 
L 410.437495 271.456499 
L 412.058174 270.896766 
L 413.678854 269.599993 
L 418.540893 264.945982 
L 420.161573 263.506669 
L 421.782252 262.221485 
L 423.402932 261.745191 
L 425.023611 261.120562 
L 429.88565 256.48741 
L 431.50633 255.052733 
L 433.12701 253.798838 
L 436.368369 252.59014 
L 437.989049 251.352469 
L 439.609728 249.607215 
L 441.230408 248.374181 
L 442.851088 246.817822 
L 444.471767 245.624189 
L 446.092447 244.95784 
L 447.713126 244.440985 
L 450.954486 241.356081 
L 455.816525 237.678995 
L 459.057884 236.637173 
L 462.299243 233.788677 
L 463.919923 232.509288 
L 467.161282 230.265721 
L 468.781962 229.904154 
L 470.402641 229.214628 
L 476.88536 224.400694 
L 478.50604 223.507207 
L 480.126719 223.032072 
L 481.747399 222.712224 
L 483.368079 222.19537 
L 484.988758 220.825588 
L 486.609438 219.774496 
L 488.230117 218.36879 
L 489.850797 217.545994 
L 493.092156 216.607312 
L 494.712836 215.114691 
L 496.333516 213.970889 
L 501.195555 211.060973 
L 502.816234 210.781686 
L 504.436914 210.289167 
L 510.919632 205.675717 
L 512.540312 204.811202 
L 515.781671 204.112405 
L 522.26439 199.90224 
L 523.88507 199.115369 
L 525.505749 198.710925 
L 527.126429 198.175528 
L 528.747108 197.362003 
L 533.609147 194.048802 
L 535.229827 193.322192 
L 538.471186 192.442612 
L 540.091866 191.518995 
L 541.712546 190.358969 
L 546.574584 187.498884 
L 549.815944 186.461698 
L 551.436623 185.379316 
L 553.057303 184.040824 
L 556.298662 181.953704 
L 557.919342 180.869005 
L 559.540022 180.430953 
L 561.160701 179.86079 
L 569.264099 174.23449 
L 570.884779 173.761672 
L 572.505459 173.145154 
L 574.126138 171.324574 
L 577.367498 168.728711 
L 578.988177 167.343865 
L 580.608857 166.175727 
L 582.229537 165.627583 
L 583.850216 164.830282 
L 587.091575 161.592407 
L 591.953614 157.389195 
L 593.574294 156.662586 
L 595.194974 155.811977 
L 596.815653 153.851174 
L 601.677692 147.128585 
L 603.298372 145.472563 
L 606.539731 143.34836 
L 609.78109 138.199513 
L 611.40177 136.771788 
L 613.02245 135.144738 
L 614.643129 133.766845 
L 616.263809 132.809621 
L 617.884489 131.451429 
L 617.884489 131.451429 
" style="fill:none;stroke:#000000;stroke-linecap:square;stroke-width:3;"/>
   </g>
   <g id="patch_3">
    <path d="M 85.248125 442.08 
L 85.248125 7.2 
" style="fill:none;stroke:#000000;stroke-linecap:square;stroke-linejoin:miter;stroke-width:0.8;"/>
   </g>
   <g id="patch_4">
    <path d="M 643.248125 442.08 
L 643.248125 7.2 
" style="fill:none;stroke:#000000;stroke-linecap:square;stroke-linejoin:miter;stroke-width:0.8;"/>
   </g>
   <g id="patch_5">
    <path d="M 85.248125 442.08 
L 643.248125 442.08 
" style="fill:none;stroke:#000000;stroke-linecap:square;stroke-linejoin:miter;stroke-width:0.8;"/>
   </g>
   <g id="patch_6">
    <path d="M 85.248125 7.2 
L 643.248125 7.2 
" style="fill:none;stroke:#000000;stroke-linecap:square;stroke-linejoin:miter;stroke-width:0.8;"/>
   </g>
   <g id="legend_1">
    <g id="patch_7">
     <path d="M 92.248125 141.946875 
L 199.97625 141.946875 
Q 201.97625 141.946875 201.97625 139.946875 
L 201.97625 14.2 
Q 201.97625 12.2 199.97625 12.2 
L 92.248125 12.2 
Q 90.248125 12.2 90.248125 14.2 
L 90.248125 139.946875 
Q 90.248125 141.946875 92.248125 141.946875 
z
" style="fill:#ffffff;opacity:0.8;stroke:#cccccc;stroke-linejoin:miter;"/>
    </g>
    <g id="line2d_28">
     <path d="M 94.248125 20.298437 
L 114.248125 20.298437 
" style="fill:none;stroke:#0010ff;stroke-linecap:square;stroke-width:1.5;"/>
    </g>
    <g id="line2d_29"/>
    <g id="text_22">
     <!-- 1 weeks-ahead -->
     <defs>
      <path d="M 4.203125 54.6875 
L 13.1875 54.6875 
L 24.421875 12.015625 
L 35.59375 54.6875 
L 46.1875 54.6875 
L 57.421875 12.015625 
L 68.609375 54.6875 
L 77.59375 54.6875 
L 63.28125 0 
L 52.6875 0 
L 40.921875 44.828125 
L 29.109375 0 
L 18.5 0 
z
" id="DejaVuSans-119"/>
      <path d="M 9.078125 75.984375 
L 18.109375 75.984375 
L 18.109375 31.109375 
L 44.921875 54.6875 
L 56.390625 54.6875 
L 27.390625 29.109375 
L 57.625 0 
L 45.90625 0 
L 18.109375 26.703125 
L 18.109375 0 
L 9.078125 0 
z
" id="DejaVuSans-107"/>
     </defs>
     <g transform="translate(122.248125 23.798437)scale(0.1 -0.1)">
      <use xlink:href="#DejaVuSans-49"/>
      <use x="63.623047" xlink:href="#DejaVuSans-32"/>
      <use x="95.410156" xlink:href="#DejaVuSans-119"/>
      <use x="177.197266" xlink:href="#DejaVuSans-101"/>
      <use x="238.720703" xlink:href="#DejaVuSans-101"/>
      <use x="300.244141" xlink:href="#DejaVuSans-107"/>
      <use x="358.154297" xlink:href="#DejaVuSans-115"/>
      <use x="410.253906" xlink:href="#DejaVuSans-45"/>
      <use x="446.337891" xlink:href="#DejaVuSans-97"/>
      <use x="507.617188" xlink:href="#DejaVuSans-104"/>
      <use x="570.996094" xlink:href="#DejaVuSans-101"/>
      <use x="632.519531" xlink:href="#DejaVuSans-97"/>
      <use x="693.798828" xlink:href="#DejaVuSans-100"/>
     </g>
    </g>
    <g id="line2d_30">
     <path d="M 94.248125 38.976562 
L 114.248125 38.976562 
" style="fill:none;stroke:#00a4ff;stroke-linecap:square;stroke-width:1.5;"/>
    </g>
    <g id="line2d_31"/>
    <g id="text_23">
     <!-- 2 weeks-ahead -->
     <g transform="translate(122.248125 42.476562)scale(0.1 -0.1)">
      <use xlink:href="#DejaVuSans-50"/>
      <use x="63.623047" xlink:href="#DejaVuSans-32"/>
      <use x="95.410156" xlink:href="#DejaVuSans-119"/>
      <use x="177.197266" xlink:href="#DejaVuSans-101"/>
      <use x="238.720703" xlink:href="#DejaVuSans-101"/>
      <use x="300.244141" xlink:href="#DejaVuSans-107"/>
      <use x="358.154297" xlink:href="#DejaVuSans-115"/>
      <use x="410.253906" xlink:href="#DejaVuSans-45"/>
      <use x="446.337891" xlink:href="#DejaVuSans-97"/>
      <use x="507.617188" xlink:href="#DejaVuSans-104"/>
      <use x="570.996094" xlink:href="#DejaVuSans-101"/>
      <use x="632.519531" xlink:href="#DejaVuSans-97"/>
      <use x="693.798828" xlink:href="#DejaVuSans-100"/>
     </g>
    </g>
    <g id="line2d_32">
     <path d="M 94.248125 57.654687 
L 114.248125 57.654687 
" style="fill:none;stroke:#40ffb7;stroke-linecap:square;stroke-width:1.5;"/>
    </g>
    <g id="line2d_33"/>
    <g id="text_24">
     <!-- 3 weeks-ahead -->
     <g transform="translate(122.248125 61.154687)scale(0.1 -0.1)">
      <use xlink:href="#DejaVuSans-51"/>
      <use x="63.623047" xlink:href="#DejaVuSans-32"/>
      <use x="95.410156" xlink:href="#DejaVuSans-119"/>
      <use x="177.197266" xlink:href="#DejaVuSans-101"/>
      <use x="238.720703" xlink:href="#DejaVuSans-101"/>
      <use x="300.244141" xlink:href="#DejaVuSans-107"/>
      <use x="358.154297" xlink:href="#DejaVuSans-115"/>
      <use x="410.253906" xlink:href="#DejaVuSans-45"/>
      <use x="446.337891" xlink:href="#DejaVuSans-97"/>
      <use x="507.617188" xlink:href="#DejaVuSans-104"/>
      <use x="570.996094" xlink:href="#DejaVuSans-101"/>
      <use x="632.519531" xlink:href="#DejaVuSans-97"/>
      <use x="693.798828" xlink:href="#DejaVuSans-100"/>
     </g>
    </g>
    <g id="line2d_34">
     <path d="M 94.248125 76.332812 
L 114.248125 76.332812 
" style="fill:none;stroke:#b7ff40;stroke-linecap:square;stroke-width:1.5;"/>
    </g>
    <g id="line2d_35"/>
    <g id="text_25">
     <!-- 4 weeks-ahead -->
     <g transform="translate(122.248125 79.832812)scale(0.1 -0.1)">
      <use xlink:href="#DejaVuSans-52"/>
      <use x="63.623047" xlink:href="#DejaVuSans-32"/>
      <use x="95.410156" xlink:href="#DejaVuSans-119"/>
      <use x="177.197266" xlink:href="#DejaVuSans-101"/>
      <use x="238.720703" xlink:href="#DejaVuSans-101"/>
      <use x="300.244141" xlink:href="#DejaVuSans-107"/>
      <use x="358.154297" xlink:href="#DejaVuSans-115"/>
      <use x="410.253906" xlink:href="#DejaVuSans-45"/>
      <use x="446.337891" xlink:href="#DejaVuSans-97"/>
      <use x="507.617188" xlink:href="#DejaVuSans-104"/>
      <use x="570.996094" xlink:href="#DejaVuSans-101"/>
      <use x="632.519531" xlink:href="#DejaVuSans-97"/>
      <use x="693.798828" xlink:href="#DejaVuSans-100"/>
     </g>
    </g>
    <g id="line2d_36">
     <path d="M 94.248125 95.010937 
L 114.248125 95.010937 
" style="fill:none;stroke:#ffb900;stroke-linecap:square;stroke-width:1.5;"/>
    </g>
    <g id="line2d_37"/>
    <g id="text_26">
     <!-- 5 weeks-ahead -->
     <g transform="translate(122.248125 98.510937)scale(0.1 -0.1)">
      <use xlink:href="#DejaVuSans-53"/>
      <use x="63.623047" xlink:href="#DejaVuSans-32"/>
      <use x="95.410156" xlink:href="#DejaVuSans-119"/>
      <use x="177.197266" xlink:href="#DejaVuSans-101"/>
      <use x="238.720703" xlink:href="#DejaVuSans-101"/>
      <use x="300.244141" xlink:href="#DejaVuSans-107"/>
      <use x="358.154297" xlink:href="#DejaVuSans-115"/>
      <use x="410.253906" xlink:href="#DejaVuSans-45"/>
      <use x="446.337891" xlink:href="#DejaVuSans-97"/>
      <use x="507.617188" xlink:href="#DejaVuSans-104"/>
      <use x="570.996094" xlink:href="#DejaVuSans-101"/>
      <use x="632.519531" xlink:href="#DejaVuSans-97"/>
      <use x="693.798828" xlink:href="#DejaVuSans-100"/>
     </g>
    </g>
    <g id="line2d_38">
     <path d="M 94.248125 113.689062 
L 114.248125 113.689062 
" style="fill:none;stroke:#ff3000;stroke-linecap:square;stroke-width:1.5;"/>
    </g>
    <g id="line2d_39"/>
    <g id="text_27">
     <!-- 6 weeks-ahead -->
     <g transform="translate(122.248125 117.189062)scale(0.1 -0.1)">
      <use xlink:href="#DejaVuSans-54"/>
      <use x="63.623047" xlink:href="#DejaVuSans-32"/>
      <use x="95.410156" xlink:href="#DejaVuSans-119"/>
      <use x="177.197266" xlink:href="#DejaVuSans-101"/>
      <use x="238.720703" xlink:href="#DejaVuSans-101"/>
      <use x="300.244141" xlink:href="#DejaVuSans-107"/>
      <use x="358.154297" xlink:href="#DejaVuSans-115"/>
      <use x="410.253906" xlink:href="#DejaVuSans-45"/>
      <use x="446.337891" xlink:href="#DejaVuSans-97"/>
      <use x="507.617188" xlink:href="#DejaVuSans-104"/>
      <use x="570.996094" xlink:href="#DejaVuSans-101"/>
      <use x="632.519531" xlink:href="#DejaVuSans-97"/>
      <use x="693.798828" xlink:href="#DejaVuSans-100"/>
     </g>
    </g>
    <g id="line2d_40">
     <path d="M 94.248125 132.367187 
L 114.248125 132.367187 
" style="fill:none;stroke:#800000;stroke-linecap:square;stroke-width:1.5;"/>
    </g>
    <g id="line2d_41"/>
    <g id="text_28">
     <!-- 7 weeks-ahead -->
     <g transform="translate(122.248125 135.867187)scale(0.1 -0.1)">
      <use xlink:href="#DejaVuSans-55"/>
      <use x="63.623047" xlink:href="#DejaVuSans-32"/>
      <use x="95.410156" xlink:href="#DejaVuSans-119"/>
      <use x="177.197266" xlink:href="#DejaVuSans-101"/>
      <use x="238.720703" xlink:href="#DejaVuSans-101"/>
      <use x="300.244141" xlink:href="#DejaVuSans-107"/>
      <use x="358.154297" xlink:href="#DejaVuSans-115"/>
      <use x="410.253906" xlink:href="#DejaVuSans-45"/>
      <use x="446.337891" xlink:href="#DejaVuSans-97"/>
      <use x="507.617188" xlink:href="#DejaVuSans-104"/>
      <use x="570.996094" xlink:href="#DejaVuSans-101"/>
      <use x="632.519531" xlink:href="#DejaVuSans-97"/>
      <use x="693.798828" xlink:href="#DejaVuSans-100"/>
     </g>
    </g>
   </g>
  </g>
 </g>
 <defs>
  <clipPath id="pd13982e632">
   <rect height="434.88" width="558" x="85.248125" y="7.2"/>
  </clipPath>
 </defs>
</svg>
