<?xml version="1.0" encoding="utf-8" standalone="no"?>
<!DOCTYPE svg PUBLIC "-//W3C//DTD SVG 1.1//EN"
  "http://www.w3.org/Graphics/SVG/1.1/DTD/svg11.dtd">
<!-- Created with matplotlib (https://matplotlib.org/) -->
<svg height="412.744628pt" version="1.1" viewBox="0 0 394.879514 412.744628" width="394.879514pt" xmlns="http://www.w3.org/2000/svg" xmlns:xlink="http://www.w3.org/1999/xlink">
 <defs>
  <style type="text/css">
*{stroke-linecap:butt;stroke-linejoin:round;}
  </style>
 </defs>
 <g id="figure_1">
  <g id="patch_1">
   <path d="M 0 412.744628 
L 394.879514 412.744628 
L 394.879514 0 
L 0 0 
z
" style="fill:#ffffff;"/>
  </g>
  <g id="axes_1">
   <g id="patch_2">
    <path d="M 43.78125 348.478125 
L 378.58125 348.478125 
L 378.58125 22.318125 
L 43.78125 22.318125 
z
" style="fill:#ffffff;"/>
   </g>
   <g id="PolyCollection_1">
    <defs>
     <path d="M 93.983758 -69.768193 
L 93.983758 -67.310413 
L 97.044886 -72.010473 
L 100.106015 -78.940114 
L 103.167143 -82.240544 
L 106.228272 -85.484542 
L 109.2894 -89.020957 
L 112.350529 -91.18602 
L 115.411658 -93.123641 
L 118.472786 -94.582041 
L 121.533915 -96.131748 
L 124.595043 -97.621414 
L 127.656172 -98.858981 
L 130.7173 -100.612764 
L 133.778429 -101.736044 
L 136.839557 -103.209971 
L 139.900686 -104.753535 
L 142.961814 -106.789613 
L 146.022943 -109.510683 
L 149.084071 -111.607489 
L 152.1452 -113.588631 
L 155.206328 -115.521808 
L 158.267457 -117.241451 
L 161.328585 -118.744144 
L 164.389714 -120.233674 
L 167.450842 -121.841963 
L 170.511971 -123.353454 
L 173.5731 -124.767569 
L 176.634228 -126.208267 
L 179.695357 -127.628739 
L 182.756485 -129.247718 
L 185.817614 -130.882879 
L 188.878742 -132.979708 
L 191.939871 -135.740766 
L 195.000999 -139.489439 
L 198.062128 -142.390933 
L 201.123256 -148.227246 
L 204.184385 -153.470637 
L 207.245513 -159.228671 
L 210.306642 -163.060876 
L 213.36777 -169.077245 
L 216.428899 -176.669347 
L 219.490027 -183.742003 
L 225.612284 -196.00279 
L 228.673413 -202.717941 
L 231.734542 -208.916313 
L 234.79567 -210.141239 
L 237.856799 -214.661793 
L 240.917927 -217.640958 
L 243.979056 -219.792389 
L 247.040184 -221.425447 
L 250.101313 -223.221803 
L 253.162441 -224.64504 
L 256.22357 -226.963773 
L 259.284698 -228.072515 
L 262.345827 -229.522171 
L 265.406955 -230.909414 
L 268.468084 -232.294634 
L 271.529212 -233.505907 
L 274.590341 -234.660257 
L 277.651469 -235.990288 
L 280.712598 -236.87765 
L 283.773726 -237.538476 
L 286.834855 -238.138622 
L 289.895984 -238.759862 
L 292.957112 -239.222758 
L 296.018241 -239.696345 
L 299.079369 -240.202583 
L 305.201626 -241.437261 
L 308.262755 -242.466207 
L 311.323883 -243.776589 
L 314.385012 -246.3427 
L 317.44614 -249.473448 
L 320.507269 -253.173361 
L 323.568397 -256.678907 
L 326.629526 -261.358062 
L 329.690654 -265.531845 
L 332.751783 -269.127153 
L 335.812911 -272.219401 
L 338.87404 -275.376004 
L 341.935168 -278.897445 
L 344.996297 -281.131169 
L 348.057426 -283.187328 
L 351.118554 -285.626564 
L 354.179683 -287.886074 
L 357.240811 -288.807751 
L 360.30194 -293.712684 
L 363.363068 -295.525003 
L 363.363068 -298.790684 
L 363.363068 -298.790684 
L 360.30194 -297.001545 
L 357.240811 -291.674804 
L 354.179683 -290.761657 
L 351.118554 -288.510677 
L 348.057426 -286.079971 
L 344.996297 -284.023812 
L 341.935168 -281.807148 
L 338.87404 -278.308869 
L 335.812911 -275.170435 
L 332.751783 -272.087271 
L 329.690654 -268.501047 
L 326.629526 -264.336349 
L 323.568397 -259.666278 
L 320.507269 -256.169441 
L 317.44614 -252.478624 
L 314.385012 -249.357677 
L 311.323883 -246.598997 
L 308.262755 -245.01188 
L 305.201626 -243.690136 
L 299.079369 -242.238065 
L 296.018241 -241.703544 
L 292.957112 -241.2248 
L 289.895984 -240.933002 
L 286.834855 -240.294919 
L 283.773726 -239.850273 
L 280.712598 -239.330079 
L 277.651469 -238.893229 
L 274.590341 -237.363315 
L 271.529212 -236.30886 
L 268.468084 -235.264857 
L 265.406955 -233.878145 
L 262.345827 -232.565116 
L 259.284698 -231.135727 
L 256.22357 -230.192001 
L 253.162441 -227.88293 
L 250.101313 -226.469269 
L 247.040184 -224.682661 
L 243.979056 -223.059267 
L 240.917927 -220.917498 
L 237.856799 -217.978415 
L 234.79567 -213.466432 
L 231.734542 -212.20062 
L 228.673413 -205.984021 
L 225.612284 -199.278082 
L 219.490027 -187.037174 
L 216.428899 -179.974458 
L 213.36777 -172.389239 
L 210.306642 -166.38303 
L 207.245513 -162.560984 
L 204.184385 -156.781873 
L 201.123256 -151.550873 
L 198.062128 -145.72695 
L 195.000999 -142.839644 
L 191.939871 -139.102812 
L 188.878742 -136.344949 
L 185.817614 -134.206168 
L 182.756485 -132.562645 
L 179.695357 -130.751821 
L 176.634228 -129.357366 
L 173.5731 -127.896782 
L 170.511971 -126.580095 
L 167.450842 -125.178745 
L 164.389714 -123.458397 
L 161.328585 -122.168871 
L 158.267457 -120.613223 
L 155.206328 -118.89611 
L 152.1452 -116.965465 
L 149.084071 -114.986854 
L 146.022943 -112.88928 
L 142.961814 -110.046354 
L 139.900686 -107.925643 
L 136.839557 -106.30886 
L 133.778429 -104.392436 
L 130.7173 -103.831347 
L 127.656172 -101.706239 
L 124.595043 -100.766687 
L 121.533915 -99.337616 
L 118.472786 -97.788637 
L 115.411658 -96.330966 
L 112.350529 -94.392629 
L 109.2894 -92.228085 
L 106.228272 -88.692191 
L 103.167143 -85.448712 
L 100.106015 -82.455261 
L 97.044886 -74.888922 
L 93.983758 -69.768193 
z
" id="m085c99135c" style="stroke:#000080;stroke-opacity:0.1;"/>
    </defs>
    <g clip-path="url(#p68dc2f28ed)">
     <use style="fill:#000080;fill-opacity:0.1;stroke:#000080;stroke-opacity:0.1;" x="0" xlink:href="#m085c99135c" y="412.744628"/>
    </g>
   </g>
   <g id="matplotlib.axis_1">
    <g id="xtick_1">
     <g id="line2d_1">
      <defs>
       <path d="M 0 0 
L 0 3.5 
" id="me62cae6030" style="stroke:#000000;stroke-width:0.8;"/>
      </defs>
      <g>
       <use style="stroke:#000000;stroke-width:0.8;" x="49.816046" xlink:href="#me62cae6030" y="348.478125"/>
      </g>
     </g>
     <g id="text_1">
      <!-- 2020-01 -->
      <defs>
       <path d="M 19.1875 8.296875 
L 53.609375 8.296875 
L 53.609375 0 
L 7.328125 0 
L 7.328125 8.296875 
Q 12.9375 14.109375 22.625 23.890625 
Q 32.328125 33.6875 34.8125 36.53125 
Q 39.546875 41.84375 41.421875 45.53125 
Q 43.3125 49.21875 43.3125 52.78125 
Q 43.3125 58.59375 39.234375 62.25 
Q 35.15625 65.921875 28.609375 65.921875 
Q 23.96875 65.921875 18.8125 64.3125 
Q 13.671875 62.703125 7.8125 59.421875 
L 7.8125 69.390625 
Q 13.765625 71.78125 18.9375 73 
Q 24.125 74.21875 28.421875 74.21875 
Q 39.75 74.21875 46.484375 68.546875 
Q 53.21875 62.890625 53.21875 53.421875 
Q 53.21875 48.921875 51.53125 44.890625 
Q 49.859375 40.875 45.40625 35.40625 
Q 44.1875 33.984375 37.640625 27.21875 
Q 31.109375 20.453125 19.1875 8.296875 
z
" id="DejaVuSans-50"/>
       <path d="M 31.78125 66.40625 
Q 24.171875 66.40625 20.328125 58.90625 
Q 16.5 51.421875 16.5 36.375 
Q 16.5 21.390625 20.328125 13.890625 
Q 24.171875 6.390625 31.78125 6.390625 
Q 39.453125 6.390625 43.28125 13.890625 
Q 47.125 21.390625 47.125 36.375 
Q 47.125 51.421875 43.28125 58.90625 
Q 39.453125 66.40625 31.78125 66.40625 
z
M 31.78125 74.21875 
Q 44.046875 74.21875 50.515625 64.515625 
Q 56.984375 54.828125 56.984375 36.375 
Q 56.984375 17.96875 50.515625 8.265625 
Q 44.046875 -1.421875 31.78125 -1.421875 
Q 19.53125 -1.421875 13.0625 8.265625 
Q 6.59375 17.96875 6.59375 36.375 
Q 6.59375 54.828125 13.0625 64.515625 
Q 19.53125 74.21875 31.78125 74.21875 
z
" id="DejaVuSans-48"/>
       <path d="M 4.890625 31.390625 
L 31.203125 31.390625 
L 31.203125 23.390625 
L 4.890625 23.390625 
z
" id="DejaVuSans-45"/>
       <path d="M 12.40625 8.296875 
L 28.515625 8.296875 
L 28.515625 63.921875 
L 10.984375 60.40625 
L 10.984375 69.390625 
L 28.421875 72.90625 
L 38.28125 72.90625 
L 38.28125 8.296875 
L 54.390625 8.296875 
L 54.390625 0 
L 12.40625 0 
z
" id="DejaVuSans-49"/>
      </defs>
      <g transform="translate(36.994764 390.395942)rotate(-45)scale(0.1 -0.1)">
       <use xlink:href="#DejaVuSans-50"/>
       <use x="63.623047" xlink:href="#DejaVuSans-48"/>
       <use x="127.246094" xlink:href="#DejaVuSans-50"/>
       <use x="190.869141" xlink:href="#DejaVuSans-48"/>
       <use x="254.492188" xlink:href="#DejaVuSans-45"/>
       <use x="290.576172" xlink:href="#DejaVuSans-48"/>
       <use x="354.199219" xlink:href="#DejaVuSans-49"/>
      </g>
     </g>
    </g>
    <g id="xtick_2">
     <g id="line2d_2">
      <g>
       <use style="stroke:#000000;stroke-width:0.8;" x="89.610717" xlink:href="#me62cae6030" y="348.478125"/>
      </g>
     </g>
     <g id="text_2">
      <!-- 2020-04 -->
      <defs>
       <path d="M 37.796875 64.3125 
L 12.890625 25.390625 
L 37.796875 25.390625 
z
M 35.203125 72.90625 
L 47.609375 72.90625 
L 47.609375 25.390625 
L 58.015625 25.390625 
L 58.015625 17.1875 
L 47.609375 17.1875 
L 47.609375 0 
L 37.796875 0 
L 37.796875 17.1875 
L 4.890625 17.1875 
L 4.890625 26.703125 
z
" id="DejaVuSans-52"/>
      </defs>
      <g transform="translate(76.789435 390.395942)rotate(-45)scale(0.1 -0.1)">
       <use xlink:href="#DejaVuSans-50"/>
       <use x="63.623047" xlink:href="#DejaVuSans-48"/>
       <use x="127.246094" xlink:href="#DejaVuSans-50"/>
       <use x="190.869141" xlink:href="#DejaVuSans-48"/>
       <use x="254.492188" xlink:href="#DejaVuSans-45"/>
       <use x="290.576172" xlink:href="#DejaVuSans-48"/>
       <use x="354.199219" xlink:href="#DejaVuSans-52"/>
      </g>
     </g>
    </g>
    <g id="xtick_3">
     <g id="line2d_3">
      <g>
       <use style="stroke:#000000;stroke-width:0.8;" x="129.405388" xlink:href="#me62cae6030" y="348.478125"/>
      </g>
     </g>
     <g id="text_3">
      <!-- 2020-07 -->
      <defs>
       <path d="M 8.203125 72.90625 
L 55.078125 72.90625 
L 55.078125 68.703125 
L 28.609375 0 
L 18.3125 0 
L 43.21875 64.59375 
L 8.203125 64.59375 
z
" id="DejaVuSans-55"/>
      </defs>
      <g transform="translate(116.584106 390.395942)rotate(-45)scale(0.1 -0.1)">
       <use xlink:href="#DejaVuSans-50"/>
       <use x="63.623047" xlink:href="#DejaVuSans-48"/>
       <use x="127.246094" xlink:href="#DejaVuSans-50"/>
       <use x="190.869141" xlink:href="#DejaVuSans-48"/>
       <use x="254.492188" xlink:href="#DejaVuSans-45"/>
       <use x="290.576172" xlink:href="#DejaVuSans-48"/>
       <use x="354.199219" xlink:href="#DejaVuSans-55"/>
      </g>
     </g>
    </g>
    <g id="xtick_4">
     <g id="line2d_4">
      <g>
       <use style="stroke:#000000;stroke-width:0.8;" x="169.637363" xlink:href="#me62cae6030" y="348.478125"/>
      </g>
     </g>
     <g id="text_4">
      <!-- 2020-10 -->
      <g transform="translate(156.816081 390.395942)rotate(-45)scale(0.1 -0.1)">
       <use xlink:href="#DejaVuSans-50"/>
       <use x="63.623047" xlink:href="#DejaVuSans-48"/>
       <use x="127.246094" xlink:href="#DejaVuSans-50"/>
       <use x="190.869141" xlink:href="#DejaVuSans-48"/>
       <use x="254.492188" xlink:href="#DejaVuSans-45"/>
       <use x="290.576172" xlink:href="#DejaVuSans-49"/>
       <use x="354.199219" xlink:href="#DejaVuSans-48"/>
      </g>
     </g>
    </g>
    <g id="xtick_5">
     <g id="line2d_5">
      <g>
       <use style="stroke:#000000;stroke-width:0.8;" x="209.869338" xlink:href="#me62cae6030" y="348.478125"/>
      </g>
     </g>
     <g id="text_5">
      <!-- 2021-01 -->
      <g transform="translate(197.048056 390.395942)rotate(-45)scale(0.1 -0.1)">
       <use xlink:href="#DejaVuSans-50"/>
       <use x="63.623047" xlink:href="#DejaVuSans-48"/>
       <use x="127.246094" xlink:href="#DejaVuSans-50"/>
       <use x="190.869141" xlink:href="#DejaVuSans-49"/>
       <use x="254.492188" xlink:href="#DejaVuSans-45"/>
       <use x="290.576172" xlink:href="#DejaVuSans-48"/>
       <use x="354.199219" xlink:href="#DejaVuSans-49"/>
      </g>
     </g>
    </g>
    <g id="xtick_6">
     <g id="line2d_6">
      <g>
       <use style="stroke:#000000;stroke-width:0.8;" x="249.226705" xlink:href="#me62cae6030" y="348.478125"/>
      </g>
     </g>
     <g id="text_6">
      <!-- 2021-04 -->
      <g transform="translate(236.405422 390.395942)rotate(-45)scale(0.1 -0.1)">
       <use xlink:href="#DejaVuSans-50"/>
       <use x="63.623047" xlink:href="#DejaVuSans-48"/>
       <use x="127.246094" xlink:href="#DejaVuSans-50"/>
       <use x="190.869141" xlink:href="#DejaVuSans-49"/>
       <use x="254.492188" xlink:href="#DejaVuSans-45"/>
       <use x="290.576172" xlink:href="#DejaVuSans-48"/>
       <use x="354.199219" xlink:href="#DejaVuSans-52"/>
      </g>
     </g>
    </g>
    <g id="xtick_7">
     <g id="line2d_7">
      <g>
       <use style="stroke:#000000;stroke-width:0.8;" x="289.021375" xlink:href="#me62cae6030" y="348.478125"/>
      </g>
     </g>
     <g id="text_7">
      <!-- 2021-07 -->
      <g transform="translate(276.200093 390.395942)rotate(-45)scale(0.1 -0.1)">
       <use xlink:href="#DejaVuSans-50"/>
       <use x="63.623047" xlink:href="#DejaVuSans-48"/>
       <use x="127.246094" xlink:href="#DejaVuSans-50"/>
       <use x="190.869141" xlink:href="#DejaVuSans-49"/>
       <use x="254.492188" xlink:href="#DejaVuSans-45"/>
       <use x="290.576172" xlink:href="#DejaVuSans-48"/>
       <use x="354.199219" xlink:href="#DejaVuSans-55"/>
      </g>
     </g>
    </g>
    <g id="xtick_8">
     <g id="line2d_8">
      <g>
       <use style="stroke:#000000;stroke-width:0.8;" x="329.25335" xlink:href="#me62cae6030" y="348.478125"/>
      </g>
     </g>
     <g id="text_8">
      <!-- 2021-10 -->
      <g transform="translate(316.432068 390.395942)rotate(-45)scale(0.1 -0.1)">
       <use xlink:href="#DejaVuSans-50"/>
       <use x="63.623047" xlink:href="#DejaVuSans-48"/>
       <use x="127.246094" xlink:href="#DejaVuSans-50"/>
       <use x="190.869141" xlink:href="#DejaVuSans-49"/>
       <use x="254.492188" xlink:href="#DejaVuSans-45"/>
       <use x="290.576172" xlink:href="#DejaVuSans-49"/>
       <use x="354.199219" xlink:href="#DejaVuSans-48"/>
      </g>
     </g>
    </g>
    <g id="xtick_9">
     <g id="line2d_9">
      <g>
       <use style="stroke:#000000;stroke-width:0.8;" x="369.485325" xlink:href="#me62cae6030" y="348.478125"/>
      </g>
     </g>
     <g id="text_9">
      <!-- 2022-01 -->
      <g transform="translate(356.664043 390.395942)rotate(-45)scale(0.1 -0.1)">
       <use xlink:href="#DejaVuSans-50"/>
       <use x="63.623047" xlink:href="#DejaVuSans-48"/>
       <use x="127.246094" xlink:href="#DejaVuSans-50"/>
       <use x="190.869141" xlink:href="#DejaVuSans-50"/>
       <use x="254.492188" xlink:href="#DejaVuSans-45"/>
       <use x="290.576172" xlink:href="#DejaVuSans-48"/>
       <use x="354.199219" xlink:href="#DejaVuSans-49"/>
      </g>
     </g>
    </g>
    <g id="text_10">
     <!-- Date -->
     <defs>
      <path d="M 19.671875 64.796875 
L 19.671875 8.109375 
L 31.59375 8.109375 
Q 46.6875 8.109375 53.6875 14.9375 
Q 60.6875 21.78125 60.6875 36.53125 
Q 60.6875 51.171875 53.6875 57.984375 
Q 46.6875 64.796875 31.59375 64.796875 
z
M 9.8125 72.90625 
L 30.078125 72.90625 
Q 51.265625 72.90625 61.171875 64.09375 
Q 71.09375 55.28125 71.09375 36.53125 
Q 71.09375 17.671875 61.125 8.828125 
Q 51.171875 0 30.078125 0 
L 9.8125 0 
z
" id="DejaVuSans-68"/>
      <path d="M 34.28125 27.484375 
Q 23.390625 27.484375 19.1875 25 
Q 14.984375 22.515625 14.984375 16.5 
Q 14.984375 11.71875 18.140625 8.90625 
Q 21.296875 6.109375 26.703125 6.109375 
Q 34.1875 6.109375 38.703125 11.40625 
Q 43.21875 16.703125 43.21875 25.484375 
L 43.21875 27.484375 
z
M 52.203125 31.203125 
L 52.203125 0 
L 43.21875 0 
L 43.21875 8.296875 
Q 40.140625 3.328125 35.546875 0.953125 
Q 30.953125 -1.421875 24.3125 -1.421875 
Q 15.921875 -1.421875 10.953125 3.296875 
Q 6 8.015625 6 15.921875 
Q 6 25.140625 12.171875 29.828125 
Q 18.359375 34.515625 30.609375 34.515625 
L 43.21875 34.515625 
L 43.21875 35.40625 
Q 43.21875 41.609375 39.140625 45 
Q 35.0625 48.390625 27.6875 48.390625 
Q 23 48.390625 18.546875 47.265625 
Q 14.109375 46.140625 10.015625 43.890625 
L 10.015625 52.203125 
Q 14.9375 54.109375 19.578125 55.046875 
Q 24.21875 56 28.609375 56 
Q 40.484375 56 46.34375 49.84375 
Q 52.203125 43.703125 52.203125 31.203125 
z
" id="DejaVuSans-97"/>
      <path d="M 18.3125 70.21875 
L 18.3125 54.6875 
L 36.8125 54.6875 
L 36.8125 47.703125 
L 18.3125 47.703125 
L 18.3125 18.015625 
Q 18.3125 11.328125 20.140625 9.421875 
Q 21.96875 7.515625 27.59375 7.515625 
L 36.8125 7.515625 
L 36.8125 0 
L 27.59375 0 
Q 17.1875 0 13.234375 3.875 
Q 9.28125 7.765625 9.28125 18.015625 
L 9.28125 47.703125 
L 2.6875 47.703125 
L 2.6875 54.6875 
L 9.28125 54.6875 
L 9.28125 70.21875 
z
" id="DejaVuSans-116"/>
      <path d="M 56.203125 29.59375 
L 56.203125 25.203125 
L 14.890625 25.203125 
Q 15.484375 15.921875 20.484375 11.0625 
Q 25.484375 6.203125 34.421875 6.203125 
Q 39.59375 6.203125 44.453125 7.46875 
Q 49.3125 8.734375 54.109375 11.28125 
L 54.109375 2.78125 
Q 49.265625 0.734375 44.1875 -0.34375 
Q 39.109375 -1.421875 33.890625 -1.421875 
Q 20.796875 -1.421875 13.15625 6.1875 
Q 5.515625 13.8125 5.515625 26.8125 
Q 5.515625 40.234375 12.765625 48.109375 
Q 20.015625 56 32.328125 56 
Q 43.359375 56 49.78125 48.890625 
Q 56.203125 41.796875 56.203125 29.59375 
z
M 47.21875 32.234375 
Q 47.125 39.59375 43.09375 43.984375 
Q 39.0625 48.390625 32.421875 48.390625 
Q 24.90625 48.390625 20.390625 44.140625 
Q 15.875 39.890625 15.1875 32.171875 
z
" id="DejaVuSans-101"/>
     </defs>
     <g transform="translate(199.230469 403.46494)scale(0.1 -0.1)">
      <use xlink:href="#DejaVuSans-68"/>
      <use x="77.001953" xlink:href="#DejaVuSans-97"/>
      <use x="138.28125" xlink:href="#DejaVuSans-116"/>
      <use x="177.490234" xlink:href="#DejaVuSans-101"/>
     </g>
    </g>
   </g>
   <g id="matplotlib.axis_2">
    <g id="ytick_1">
     <g id="line2d_10">
      <defs>
       <path d="M 0 0 
L -3.5 0 
" id="m6e33311cb2" style="stroke:#000000;stroke-width:0.8;"/>
      </defs>
      <g>
       <use style="stroke:#000000;stroke-width:0.8;" x="43.78125" xlink:href="#m6e33311cb2" y="290.688554"/>
      </g>
     </g>
     <g id="text_11">
      <!-- 0.2 -->
      <defs>
       <path d="M 10.6875 12.40625 
L 21 12.40625 
L 21 0 
L 10.6875 0 
z
" id="DejaVuSans-46"/>
      </defs>
      <g transform="translate(20.878125 294.487773)scale(0.1 -0.1)">
       <use xlink:href="#DejaVuSans-48"/>
       <use x="63.623047" xlink:href="#DejaVuSans-46"/>
       <use x="95.410156" xlink:href="#DejaVuSans-50"/>
      </g>
     </g>
    </g>
    <g id="ytick_2">
     <g id="line2d_11">
      <g>
       <use style="stroke:#000000;stroke-width:0.8;" x="43.78125" xlink:href="#m6e33311cb2" y="232.89881"/>
      </g>
     </g>
     <g id="text_12">
      <!-- 0.4 -->
      <g transform="translate(20.878125 236.698029)scale(0.1 -0.1)">
       <use xlink:href="#DejaVuSans-48"/>
       <use x="63.623047" xlink:href="#DejaVuSans-46"/>
       <use x="95.410156" xlink:href="#DejaVuSans-52"/>
      </g>
     </g>
    </g>
    <g id="ytick_3">
     <g id="line2d_12">
      <g>
       <use style="stroke:#000000;stroke-width:0.8;" x="43.78125" xlink:href="#m6e33311cb2" y="175.109066"/>
      </g>
     </g>
     <g id="text_13">
      <!-- 0.6 -->
      <defs>
       <path d="M 33.015625 40.375 
Q 26.375 40.375 22.484375 35.828125 
Q 18.609375 31.296875 18.609375 23.390625 
Q 18.609375 15.53125 22.484375 10.953125 
Q 26.375 6.390625 33.015625 6.390625 
Q 39.65625 6.390625 43.53125 10.953125 
Q 47.40625 15.53125 47.40625 23.390625 
Q 47.40625 31.296875 43.53125 35.828125 
Q 39.65625 40.375 33.015625 40.375 
z
M 52.59375 71.296875 
L 52.59375 62.3125 
Q 48.875 64.0625 45.09375 64.984375 
Q 41.3125 65.921875 37.59375 65.921875 
Q 27.828125 65.921875 22.671875 59.328125 
Q 17.53125 52.734375 16.796875 39.40625 
Q 19.671875 43.65625 24.015625 45.921875 
Q 28.375 48.1875 33.59375 48.1875 
Q 44.578125 48.1875 50.953125 41.515625 
Q 57.328125 34.859375 57.328125 23.390625 
Q 57.328125 12.15625 50.6875 5.359375 
Q 44.046875 -1.421875 33.015625 -1.421875 
Q 20.359375 -1.421875 13.671875 8.265625 
Q 6.984375 17.96875 6.984375 36.375 
Q 6.984375 53.65625 15.1875 63.9375 
Q 23.390625 74.21875 37.203125 74.21875 
Q 40.921875 74.21875 44.703125 73.484375 
Q 48.484375 72.75 52.59375 71.296875 
z
" id="DejaVuSans-54"/>
      </defs>
      <g transform="translate(20.878125 178.908284)scale(0.1 -0.1)">
       <use xlink:href="#DejaVuSans-48"/>
       <use x="63.623047" xlink:href="#DejaVuSans-46"/>
       <use x="95.410156" xlink:href="#DejaVuSans-54"/>
      </g>
     </g>
    </g>
    <g id="ytick_4">
     <g id="line2d_13">
      <g>
       <use style="stroke:#000000;stroke-width:0.8;" x="43.78125" xlink:href="#m6e33311cb2" y="117.319321"/>
      </g>
     </g>
     <g id="text_14">
      <!-- 0.8 -->
      <defs>
       <path d="M 31.78125 34.625 
Q 24.75 34.625 20.71875 30.859375 
Q 16.703125 27.09375 16.703125 20.515625 
Q 16.703125 13.921875 20.71875 10.15625 
Q 24.75 6.390625 31.78125 6.390625 
Q 38.8125 6.390625 42.859375 10.171875 
Q 46.921875 13.96875 46.921875 20.515625 
Q 46.921875 27.09375 42.890625 30.859375 
Q 38.875 34.625 31.78125 34.625 
z
M 21.921875 38.8125 
Q 15.578125 40.375 12.03125 44.71875 
Q 8.5 49.078125 8.5 55.328125 
Q 8.5 64.0625 14.71875 69.140625 
Q 20.953125 74.21875 31.78125 74.21875 
Q 42.671875 74.21875 48.875 69.140625 
Q 55.078125 64.0625 55.078125 55.328125 
Q 55.078125 49.078125 51.53125 44.71875 
Q 48 40.375 41.703125 38.8125 
Q 48.828125 37.15625 52.796875 32.3125 
Q 56.78125 27.484375 56.78125 20.515625 
Q 56.78125 9.90625 50.3125 4.234375 
Q 43.84375 -1.421875 31.78125 -1.421875 
Q 19.734375 -1.421875 13.25 4.234375 
Q 6.78125 9.90625 6.78125 20.515625 
Q 6.78125 27.484375 10.78125 32.3125 
Q 14.796875 37.15625 21.921875 38.8125 
z
M 18.3125 54.390625 
Q 18.3125 48.734375 21.84375 45.5625 
Q 25.390625 42.390625 31.78125 42.390625 
Q 38.140625 42.390625 41.71875 45.5625 
Q 45.3125 48.734375 45.3125 54.390625 
Q 45.3125 60.0625 41.71875 63.234375 
Q 38.140625 66.40625 31.78125 66.40625 
Q 25.390625 66.40625 21.84375 63.234375 
Q 18.3125 60.0625 18.3125 54.390625 
z
" id="DejaVuSans-56"/>
      </defs>
      <g transform="translate(20.878125 121.11854)scale(0.1 -0.1)">
       <use xlink:href="#DejaVuSans-48"/>
       <use x="63.623047" xlink:href="#DejaVuSans-46"/>
       <use x="95.410156" xlink:href="#DejaVuSans-56"/>
      </g>
     </g>
    </g>
    <g id="ytick_5">
     <g id="line2d_14">
      <g>
       <use style="stroke:#000000;stroke-width:0.8;" x="43.78125" xlink:href="#m6e33311cb2" y="59.529577"/>
      </g>
     </g>
     <g id="text_15">
      <!-- 1.0 -->
      <g transform="translate(20.878125 63.328796)scale(0.1 -0.1)">
       <use xlink:href="#DejaVuSans-49"/>
       <use x="63.623047" xlink:href="#DejaVuSans-46"/>
       <use x="95.410156" xlink:href="#DejaVuSans-48"/>
      </g>
     </g>
    </g>
    <g id="text_16">
     <!-- US Cumulative Deaths -->
     <defs>
      <path d="M 8.6875 72.90625 
L 18.609375 72.90625 
L 18.609375 28.609375 
Q 18.609375 16.890625 22.84375 11.734375 
Q 27.09375 6.59375 36.625 6.59375 
Q 46.09375 6.59375 50.34375 11.734375 
Q 54.59375 16.890625 54.59375 28.609375 
L 54.59375 72.90625 
L 64.5 72.90625 
L 64.5 27.390625 
Q 64.5 13.140625 57.4375 5.859375 
Q 50.390625 -1.421875 36.625 -1.421875 
Q 22.796875 -1.421875 15.734375 5.859375 
Q 8.6875 13.140625 8.6875 27.390625 
z
" id="DejaVuSans-85"/>
      <path d="M 53.515625 70.515625 
L 53.515625 60.890625 
Q 47.90625 63.578125 42.921875 64.890625 
Q 37.9375 66.21875 33.296875 66.21875 
Q 25.25 66.21875 20.875 63.09375 
Q 16.5 59.96875 16.5 54.203125 
Q 16.5 49.359375 19.40625 46.890625 
Q 22.3125 44.4375 30.421875 42.921875 
L 36.375 41.703125 
Q 47.40625 39.59375 52.65625 34.296875 
Q 57.90625 29 57.90625 20.125 
Q 57.90625 9.515625 50.796875 4.046875 
Q 43.703125 -1.421875 29.984375 -1.421875 
Q 24.8125 -1.421875 18.96875 -0.25 
Q 13.140625 0.921875 6.890625 3.21875 
L 6.890625 13.375 
Q 12.890625 10.015625 18.65625 8.296875 
Q 24.421875 6.59375 29.984375 6.59375 
Q 38.421875 6.59375 43.015625 9.90625 
Q 47.609375 13.234375 47.609375 19.390625 
Q 47.609375 24.75 44.3125 27.78125 
Q 41.015625 30.8125 33.5 32.328125 
L 27.484375 33.5 
Q 16.453125 35.6875 11.515625 40.375 
Q 6.59375 45.0625 6.59375 53.421875 
Q 6.59375 63.09375 13.40625 68.65625 
Q 20.21875 74.21875 32.171875 74.21875 
Q 37.3125 74.21875 42.625 73.28125 
Q 47.953125 72.359375 53.515625 70.515625 
z
" id="DejaVuSans-83"/>
      <path id="DejaVuSans-32"/>
      <path d="M 64.40625 67.28125 
L 64.40625 56.890625 
Q 59.421875 61.53125 53.78125 63.8125 
Q 48.140625 66.109375 41.796875 66.109375 
Q 29.296875 66.109375 22.65625 58.46875 
Q 16.015625 50.828125 16.015625 36.375 
Q 16.015625 21.96875 22.65625 14.328125 
Q 29.296875 6.6875 41.796875 6.6875 
Q 48.140625 6.6875 53.78125 8.984375 
Q 59.421875 11.28125 64.40625 15.921875 
L 64.40625 5.609375 
Q 59.234375 2.09375 53.4375 0.328125 
Q 47.65625 -1.421875 41.21875 -1.421875 
Q 24.65625 -1.421875 15.125 8.703125 
Q 5.609375 18.84375 5.609375 36.375 
Q 5.609375 53.953125 15.125 64.078125 
Q 24.65625 74.21875 41.21875 74.21875 
Q 47.75 74.21875 53.53125 72.484375 
Q 59.328125 70.75 64.40625 67.28125 
z
" id="DejaVuSans-67"/>
      <path d="M 8.5 21.578125 
L 8.5 54.6875 
L 17.484375 54.6875 
L 17.484375 21.921875 
Q 17.484375 14.15625 20.5 10.265625 
Q 23.53125 6.390625 29.59375 6.390625 
Q 36.859375 6.390625 41.078125 11.03125 
Q 45.3125 15.671875 45.3125 23.6875 
L 45.3125 54.6875 
L 54.296875 54.6875 
L 54.296875 0 
L 45.3125 0 
L 45.3125 8.40625 
Q 42.046875 3.421875 37.71875 1 
Q 33.40625 -1.421875 27.6875 -1.421875 
Q 18.265625 -1.421875 13.375 4.4375 
Q 8.5 10.296875 8.5 21.578125 
z
M 31.109375 56 
z
" id="DejaVuSans-117"/>
      <path d="M 52 44.1875 
Q 55.375 50.25 60.0625 53.125 
Q 64.75 56 71.09375 56 
Q 79.640625 56 84.28125 50.015625 
Q 88.921875 44.046875 88.921875 33.015625 
L 88.921875 0 
L 79.890625 0 
L 79.890625 32.71875 
Q 79.890625 40.578125 77.09375 44.375 
Q 74.3125 48.1875 68.609375 48.1875 
Q 61.625 48.1875 57.5625 43.546875 
Q 53.515625 38.921875 53.515625 30.90625 
L 53.515625 0 
L 44.484375 0 
L 44.484375 32.71875 
Q 44.484375 40.625 41.703125 44.40625 
Q 38.921875 48.1875 33.109375 48.1875 
Q 26.21875 48.1875 22.15625 43.53125 
Q 18.109375 38.875 18.109375 30.90625 
L 18.109375 0 
L 9.078125 0 
L 9.078125 54.6875 
L 18.109375 54.6875 
L 18.109375 46.1875 
Q 21.1875 51.21875 25.484375 53.609375 
Q 29.78125 56 35.6875 56 
Q 41.65625 56 45.828125 52.96875 
Q 50 49.953125 52 44.1875 
z
" id="DejaVuSans-109"/>
      <path d="M 9.421875 75.984375 
L 18.40625 75.984375 
L 18.40625 0 
L 9.421875 0 
z
" id="DejaVuSans-108"/>
      <path d="M 9.421875 54.6875 
L 18.40625 54.6875 
L 18.40625 0 
L 9.421875 0 
z
M 9.421875 75.984375 
L 18.40625 75.984375 
L 18.40625 64.59375 
L 9.421875 64.59375 
z
" id="DejaVuSans-105"/>
      <path d="M 2.984375 54.6875 
L 12.5 54.6875 
L 29.59375 8.796875 
L 46.6875 54.6875 
L 56.203125 54.6875 
L 35.6875 0 
L 23.484375 0 
z
" id="DejaVuSans-118"/>
      <path d="M 54.890625 33.015625 
L 54.890625 0 
L 45.90625 0 
L 45.90625 32.71875 
Q 45.90625 40.484375 42.875 44.328125 
Q 39.84375 48.1875 33.796875 48.1875 
Q 26.515625 48.1875 22.3125 43.546875 
Q 18.109375 38.921875 18.109375 30.90625 
L 18.109375 0 
L 9.078125 0 
L 9.078125 75.984375 
L 18.109375 75.984375 
L 18.109375 46.1875 
Q 21.34375 51.125 25.703125 53.5625 
Q 30.078125 56 35.796875 56 
Q 45.21875 56 50.046875 50.171875 
Q 54.890625 44.34375 54.890625 33.015625 
z
" id="DejaVuSans-104"/>
      <path d="M 44.28125 53.078125 
L 44.28125 44.578125 
Q 40.484375 46.53125 36.375 47.5 
Q 32.28125 48.484375 27.875 48.484375 
Q 21.1875 48.484375 17.84375 46.4375 
Q 14.5 44.390625 14.5 40.28125 
Q 14.5 37.15625 16.890625 35.375 
Q 19.28125 33.59375 26.515625 31.984375 
L 29.59375 31.296875 
Q 39.15625 29.25 43.1875 25.515625 
Q 47.21875 21.78125 47.21875 15.09375 
Q 47.21875 7.46875 41.1875 3.015625 
Q 35.15625 -1.421875 24.609375 -1.421875 
Q 20.21875 -1.421875 15.453125 -0.5625 
Q 10.6875 0.296875 5.421875 2 
L 5.421875 11.28125 
Q 10.40625 8.6875 15.234375 7.390625 
Q 20.0625 6.109375 24.8125 6.109375 
Q 31.15625 6.109375 34.5625 8.28125 
Q 37.984375 10.453125 37.984375 14.40625 
Q 37.984375 18.0625 35.515625 20.015625 
Q 33.0625 21.96875 24.703125 23.78125 
L 21.578125 24.515625 
Q 13.234375 26.265625 9.515625 29.90625 
Q 5.8125 33.546875 5.8125 39.890625 
Q 5.8125 47.609375 11.28125 51.796875 
Q 16.75 56 26.8125 56 
Q 31.78125 56 36.171875 55.265625 
Q 40.578125 54.546875 44.28125 53.078125 
z
" id="DejaVuSans-115"/>
     </defs>
     <g transform="translate(14.798438 241.671562)rotate(-90)scale(0.1 -0.1)">
      <use xlink:href="#DejaVuSans-85"/>
      <use x="73.193359" xlink:href="#DejaVuSans-83"/>
      <use x="136.669922" xlink:href="#DejaVuSans-32"/>
      <use x="168.457031" xlink:href="#DejaVuSans-67"/>
      <use x="238.28125" xlink:href="#DejaVuSans-117"/>
      <use x="301.660156" xlink:href="#DejaVuSans-109"/>
      <use x="399.072266" xlink:href="#DejaVuSans-117"/>
      <use x="462.451172" xlink:href="#DejaVuSans-108"/>
      <use x="490.234375" xlink:href="#DejaVuSans-97"/>
      <use x="551.513672" xlink:href="#DejaVuSans-116"/>
      <use x="590.722656" xlink:href="#DejaVuSans-105"/>
      <use x="618.505859" xlink:href="#DejaVuSans-118"/>
      <use x="677.685547" xlink:href="#DejaVuSans-101"/>
      <use x="739.208984" xlink:href="#DejaVuSans-32"/>
      <use x="770.996094" xlink:href="#DejaVuSans-68"/>
      <use x="847.998047" xlink:href="#DejaVuSans-101"/>
      <use x="909.521484" xlink:href="#DejaVuSans-97"/>
      <use x="970.800781" xlink:href="#DejaVuSans-116"/>
      <use x="1010.009766" xlink:href="#DejaVuSans-104"/>
      <use x="1073.388672" xlink:href="#DejaVuSans-115"/>
     </g>
    </g>
    <g id="text_17">
     <!-- 1e6 -->
     <g transform="translate(43.78125 19.318125)scale(0.1 -0.1)">
      <use xlink:href="#DejaVuSans-49"/>
      <use x="63.623047" xlink:href="#DejaVuSans-101"/>
      <use x="125.146484" xlink:href="#DejaVuSans-54"/>
     </g>
    </g>
   </g>
   <g id="line2d_15">
    <path clip-path="url(#p68dc2f28ed)" d="M 93.983758 344.205325 
L 97.044886 339.29493 
L 100.106015 332.04694 
L 103.167143 328.9 
L 106.228272 325.656262 
L 109.2894 322.120107 
L 112.350529 319.955303 
L 115.411658 318.017324 
L 118.472786 316.559289 
L 121.533915 315.009946 
L 124.595043 313.588029 
L 127.656172 312.648079 
L 130.7173 310.522572 
L 133.778429 309.981082 
L 136.839557 308.064485 
L 139.900686 306.447528 
L 142.961814 304.326645 
L 146.022943 301.544647 
L 149.084071 299.447457 
L 152.1452 297.46758 
L 155.206328 295.535669 
L 158.267457 293.817291 
L 161.328585 292.317647 
L 164.389714 291.021423 
L 167.450842 289.294377 
L 170.511971 287.886329 
L 173.5731 286.562944 
L 176.634228 285.095663 
L 179.695357 283.695417 
L 182.756485 281.87793 
L 185.817614 280.227744 
L 188.878742 278.082299 
L 191.939871 275.322839 
L 195.000999 271.580086 
L 198.062128 268.685687 
L 201.123256 262.855569 
L 204.184385 257.618373 
L 207.245513 251.849801 
L 210.306642 248.022675 
L 213.36777 242.011386 
L 216.428899 234.422725 
L 219.490027 227.35504 
L 225.612284 215.104192 
L 228.673413 208.393647 
L 231.734542 202.186161 
L 234.79567 200.940792 
L 237.856799 196.424524 
L 240.917927 193.4654 
L 243.979056 191.3188 
L 247.040184 189.690574 
L 250.101313 187.899092 
L 253.162441 186.480642 
L 256.22357 184.166741 
L 259.284698 183.218411 
L 262.345827 181.784937 
L 265.406955 180.467042 
L 268.468084 179.075754 
L 271.529212 178.027448 
L 274.590341 176.958915 
L 277.651469 175.424309 
L 280.712598 174.983373 
L 283.773726 174.455464 
L 286.834855 174.006148 
L 289.895984 173.363526 
L 292.957112 173.067065 
L 296.018241 172.574696 
L 299.079369 172.035807 
L 305.201626 170.575749 
L 308.262755 169.249474 
L 311.323883 167.657656 
L 314.385012 164.894439 
L 317.44614 161.768592 
L 320.507269 158.073227 
L 323.568397 154.572035 
L 326.629526 149.897423 
L 329.690654 145.728182 
L 332.751783 142.137416 
L 335.812911 139.04971 
L 338.87404 135.902191 
L 341.935168 132.392331 
L 344.996297 130.167137 
L 348.057426 128.110978 
L 351.118554 125.676007 
L 354.179683 123.420762 
L 357.240811 122.50335 
L 360.30194 117.387513 
L 363.363068 115.586785 
" style="fill:none;stroke:#000080;stroke-linecap:square;stroke-width:1.5;"/>
   </g>
   <g id="line2d_16">
    <path clip-path="url(#p68dc2f28ed)" d="M 58.999432 348.478009 
L 84.363068 348.369076 
L 86.112284 348.179814 
L 87.424197 347.812272 
L 89.173413 346.929822 
L 90.485325 345.714215 
L 91.797237 344.281896 
L 92.671846 342.916035 
L 100.106015 332.168877 
L 100.980623 331.334971 
L 102.729839 328.811582 
L 103.604447 327.960917 
L 104.041752 327.568524 
L 105.790968 325.190765 
L 106.665576 324.478507 
L 107.10288 324.179734 
L 109.2894 321.877679 
L 110.164009 321.285334 
L 111.913225 319.742348 
L 112.787833 319.246801 
L 113.662441 318.884748 
L 114.537049 318.143017 
L 115.411658 317.545471 
L 116.286266 317.143254 
L 118.472786 315.839229 
L 119.347394 315.559526 
L 121.533915 314.3601 
L 122.408523 314.143967 
L 124.157739 313.317862 
L 125.032347 313.060698 
L 125.906955 312.737942 
L 127.218868 312.18056 
L 131.591908 310.778003 
L 132.903821 309.907111 
L 134.215733 309.316789 
L 134.653037 309.191097 
L 137.276861 307.718903 
L 137.714165 307.566049 
L 139.900686 305.985499 
L 140.33799 305.831201 
L 141.649902 304.744176 
L 142.961814 303.706561 
L 143.836422 303.412989 
L 146.022943 301.61515 
L 146.897551 301.300485 
L 148.209463 300.245822 
L 149.084071 299.565637 
L 149.958679 299.254439 
L 152.1452 297.608298 
L 153.019808 297.337553 
L 154.769024 296.04653 
L 155.206328 295.762494 
L 156.080937 295.490015 
L 158.267457 294.061741 
L 159.579369 293.706912 
L 160.891281 292.786611 
L 161.765889 292.454609 
L 162.203194 292.332383 
L 163.077802 291.709121 
L 164.389714 290.976058 
L 165.264322 290.778706 
L 167.013538 289.645449 
L 167.450842 289.419202 
L 168.325451 289.230519 
L 170.511971 287.994685 
L 171.386579 287.74879 
L 172.261187 287.280693 
L 173.5731 286.525092 
L 174.885012 286.050638 
L 176.634228 285.0084 
L 177.508836 284.733032 
L 180.132661 283.190335 
L 180.569965 283.039504 
L 182.756485 281.582335 
L 183.631093 281.27605 
L 184.505701 280.490976 
L 185.817614 279.480811 
L 186.692222 279.098821 
L 188.878742 277.181357 
L 189.75335 276.718461 
L 191.065263 275.073476 
L 191.939871 274.037017 
L 192.814479 273.420401 
L 194.126391 271.74681 
L 195.000999 270.905969 
L 195.875607 270.223183 
L 197.18752 267.810172 
L 198.062128 266.364851 
L 198.936736 265.508985 
L 199.811344 263.843484 
L 201.123256 261.271841 
L 201.997864 260.315998 
L 202.872473 258.374263 
L 203.747081 256.527303 
L 204.184385 255.731538 
L 205.058993 254.701147 
L 206.370905 251.927528 
L 207.682817 250.524393 
L 208.120121 249.982036 
L 209.432034 246.83943 
L 211.18125 244.467161 
L 212.493162 241.128069 
L 213.36777 238.976846 
L 214.242379 237.838388 
L 215.554291 234.313503 
L 216.428899 232.178461 
L 217.740811 230.457193 
L 219.052723 226.886943 
L 219.490027 225.859441 
L 220.364636 224.811135 
L 222.113852 220.315382 
L 222.551156 219.477142 
L 223.425764 218.398207 
L 225.612284 213.270812 
L 226.486893 212.42477 
L 228.673413 208.135904 
L 229.985325 207.0405 
L 231.734542 204.289419 
L 232.60915 203.587852 
L 233.046454 202.930204 
L 233.921062 201.28493 
L 234.79567 200.222755 
L 235.670278 199.521765 
L 236.107582 198.963227 
L 236.98219 197.653423 
L 237.856799 196.713184 
L 238.731407 196.304032 
L 240.043319 194.879515 
L 240.917927 194.177947 
L 241.792535 193.821963 
L 243.979056 192.104163 
L 245.290968 191.448827 
L 246.60288 190.275406 
L 247.477488 189.910175 
L 248.352096 189.453925 
L 249.664009 188.55096 
L 250.101313 188.328181 
L 250.975921 188.10858 
L 251.413225 187.858928 
L 251.850529 187.109395 
L 253.162441 186.335879 
L 254.037049 186.122924 
L 256.22357 184.884201 
L 257.098178 184.643507 
L 259.284698 183.427899 
L 260.159306 183.206276 
L 261.033915 182.723731 
L 262.345827 182.016963 
L 263.220435 181.787537 
L 264.969651 180.812046 
L 265.844259 180.559505 
L 266.718868 180.241951 
L 268.03078 179.600484 
L 273.278429 177.662794 
L 273.715733 177.271269 
L 274.590341 177.014104 
L 275.464949 176.931176 
L 277.651469 176.071843 
L 278.963382 175.840395 
L 280.712598 175.345426 
L 282.02451 175.166855 
L 284.211031 174.716384 
L 285.960247 174.324859 
L 286.834855 174.128374 
L 288.146767 173.966851 
L 290.333288 173.638606 
L 291.207896 173.512913 
L 293.394416 173.159529 
L 295.143632 172.796609 
L 296.018241 172.673806 
L 297.767457 172.379945 
L 301.265889 171.663063 
L 301.703194 171.410811 
L 303.015106 171.200745 
L 304.327018 170.732359 
L 304.764322 170.398912 
L 306.076234 170.148105 
L 308.262755 169.002134 
L 308.700059 168.951279 
L 310.011971 168.010462 
L 310.886579 167.068489 
L 311.761187 166.864203 
L 313.0731 165.62259 
L 313.947708 164.483265 
L 314.822316 164.225812 
L 316.134228 162.711432 
L 316.571532 161.858166 
L 317.008836 161.289515 
L 318.320748 160.834421 
L 319.195357 159.559579 
L 320.069965 157.908526 
L 320.507269 157.68488 
L 320.944573 157.594439 
L 322.256485 155.604449 
L 322.693789 154.604397 
L 323.131093 153.897629 
L 323.568397 153.633241 
L 324.005701 153.539621 
L 325.317614 151.356325 
L 326.192222 149.694581 
L 327.06683 149.327327 
L 328.378742 147.147498 
L 329.25335 145.722692 
L 330.127958 145.371619 
L 331.439871 143.473515 
L 332.314479 142.227857 
L 333.189087 141.992653 
L 333.626391 141.65256 
L 334.063695 140.973242 
L 334.500999 140.041671 
L 335.375607 138.896278 
L 336.250216 138.636802 
L 337.124824 137.496322 
L 337.562128 136.571686 
L 338.436736 135.451431 
L 339.311344 135.243966 
L 340.185952 134.353715 
L 341.497864 132.723178 
L 342.372473 132.558766 
L 343.247081 131.822524 
L 343.684385 131.255318 
L 344.121689 130.910313 
L 344.558993 130.298898 
L 345.433601 130.129863 
L 346.308209 129.338143 
L 346.745513 128.854154 
L 347.182817 128.620684 
L 347.620121 127.8934 
L 348.49473 127.700093 
L 350.243946 126.088626 
L 350.68125 125.575742 
L 351.555858 125.435024 
L 352.430466 124.695604 
L 352.86777 124.209593 
L 354.179683 123.957918 
L 354.616987 123.922666 
L 355.928899 122.369567 
L 356.366203 121.271273 
L 356.803507 120.828604 
L 357.678115 120.635008 
L 358.552723 119.770762 
L 359.864636 118.254359 
L 360.739244 118.085902 
L 361.613852 117.220212 
L 362.051156 116.59406 
L 362.48846 116.264081 
L 362.925764 115.636773 
L 363.363068 115.506746 
L 363.363068 115.506746 
" style="fill:none;stroke:#000000;stroke-linecap:square;stroke-width:3;"/>
   </g>
   <g id="patch_3">
    <path d="M 43.78125 348.478125 
L 43.78125 22.318125 
" style="fill:none;stroke:#000000;stroke-linecap:square;stroke-linejoin:miter;stroke-width:0.8;"/>
   </g>
   <g id="patch_4">
    <path d="M 378.58125 348.478125 
L 378.58125 22.318125 
" style="fill:none;stroke:#000000;stroke-linecap:square;stroke-linejoin:miter;stroke-width:0.8;"/>
   </g>
   <g id="patch_5">
    <path d="M 43.78125 348.478125 
L 378.58125 348.478125 
" style="fill:none;stroke:#000000;stroke-linecap:square;stroke-linejoin:miter;stroke-width:0.8;"/>
   </g>
   <g id="patch_6">
    <path d="M 43.78125 22.318125 
L 378.58125 22.318125 
" style="fill:none;stroke:#000000;stroke-linecap:square;stroke-linejoin:miter;stroke-width:0.8;"/>
   </g>
   <g id="text_18">
    <!-- 1-week-ahead Forecasts -->
    <defs>
     <path d="M 4.203125 54.6875 
L 13.1875 54.6875 
L 24.421875 12.015625 
L 35.59375 54.6875 
L 46.1875 54.6875 
L 57.421875 12.015625 
L 68.609375 54.6875 
L 77.59375 54.6875 
L 63.28125 0 
L 52.6875 0 
L 40.921875 44.828125 
L 29.109375 0 
L 18.5 0 
z
" id="DejaVuSans-119"/>
     <path d="M 9.078125 75.984375 
L 18.109375 75.984375 
L 18.109375 31.109375 
L 44.921875 54.6875 
L 56.390625 54.6875 
L 27.390625 29.109375 
L 57.625 0 
L 45.90625 0 
L 18.109375 26.703125 
L 18.109375 0 
L 9.078125 0 
z
" id="DejaVuSans-107"/>
     <path d="M 45.40625 46.390625 
L 45.40625 75.984375 
L 54.390625 75.984375 
L 54.390625 0 
L 45.40625 0 
L 45.40625 8.203125 
Q 42.578125 3.328125 38.25 0.953125 
Q 33.9375 -1.421875 27.875 -1.421875 
Q 17.96875 -1.421875 11.734375 6.484375 
Q 5.515625 14.40625 5.515625 27.296875 
Q 5.515625 40.1875 11.734375 48.09375 
Q 17.96875 56 27.875 56 
Q 33.9375 56 38.25 53.625 
Q 42.578125 51.265625 45.40625 46.390625 
z
M 14.796875 27.296875 
Q 14.796875 17.390625 18.875 11.75 
Q 22.953125 6.109375 30.078125 6.109375 
Q 37.203125 6.109375 41.296875 11.75 
Q 45.40625 17.390625 45.40625 27.296875 
Q 45.40625 37.203125 41.296875 42.84375 
Q 37.203125 48.484375 30.078125 48.484375 
Q 22.953125 48.484375 18.875 42.84375 
Q 14.796875 37.203125 14.796875 27.296875 
z
" id="DejaVuSans-100"/>
     <path d="M 9.8125 72.90625 
L 51.703125 72.90625 
L 51.703125 64.59375 
L 19.671875 64.59375 
L 19.671875 43.109375 
L 48.578125 43.109375 
L 48.578125 34.8125 
L 19.671875 34.8125 
L 19.671875 0 
L 9.8125 0 
z
" id="DejaVuSans-70"/>
     <path d="M 30.609375 48.390625 
Q 23.390625 48.390625 19.1875 42.75 
Q 14.984375 37.109375 14.984375 27.296875 
Q 14.984375 17.484375 19.15625 11.84375 
Q 23.34375 6.203125 30.609375 6.203125 
Q 37.796875 6.203125 41.984375 11.859375 
Q 46.1875 17.53125 46.1875 27.296875 
Q 46.1875 37.015625 41.984375 42.703125 
Q 37.796875 48.390625 30.609375 48.390625 
z
M 30.609375 56 
Q 42.328125 56 49.015625 48.375 
Q 55.71875 40.765625 55.71875 27.296875 
Q 55.71875 13.875 49.015625 6.21875 
Q 42.328125 -1.421875 30.609375 -1.421875 
Q 18.84375 -1.421875 12.171875 6.21875 
Q 5.515625 13.875 5.515625 27.296875 
Q 5.515625 40.765625 12.171875 48.375 
Q 18.84375 56 30.609375 56 
z
" id="DejaVuSans-111"/>
     <path d="M 41.109375 46.296875 
Q 39.59375 47.171875 37.8125 47.578125 
Q 36.03125 48 33.890625 48 
Q 26.265625 48 22.1875 43.046875 
Q 18.109375 38.09375 18.109375 28.8125 
L 18.109375 0 
L 9.078125 0 
L 9.078125 54.6875 
L 18.109375 54.6875 
L 18.109375 46.1875 
Q 20.953125 51.171875 25.484375 53.578125 
Q 30.03125 56 36.53125 56 
Q 37.453125 56 38.578125 55.875 
Q 39.703125 55.765625 41.0625 55.515625 
z
" id="DejaVuSans-114"/>
     <path d="M 48.78125 52.59375 
L 48.78125 44.1875 
Q 44.96875 46.296875 41.140625 47.34375 
Q 37.3125 48.390625 33.40625 48.390625 
Q 24.65625 48.390625 19.8125 42.84375 
Q 14.984375 37.3125 14.984375 27.296875 
Q 14.984375 17.28125 19.8125 11.734375 
Q 24.65625 6.203125 33.40625 6.203125 
Q 37.3125 6.203125 41.140625 7.25 
Q 44.96875 8.296875 48.78125 10.40625 
L 48.78125 2.09375 
Q 45.015625 0.34375 40.984375 -0.53125 
Q 36.96875 -1.421875 32.421875 -1.421875 
Q 20.0625 -1.421875 12.78125 6.34375 
Q 5.515625 14.109375 5.515625 27.296875 
Q 5.515625 40.671875 12.859375 48.328125 
Q 20.21875 56 33.015625 56 
Q 37.15625 56 41.109375 55.140625 
Q 45.0625 54.296875 48.78125 52.59375 
z
" id="DejaVuSans-99"/>
    </defs>
    <g transform="translate(138.197812 16.318125)scale(0.12 -0.12)">
     <use xlink:href="#DejaVuSans-49"/>
     <use x="63.623047" xlink:href="#DejaVuSans-45"/>
     <use x="99.707031" xlink:href="#DejaVuSans-119"/>
     <use x="181.494141" xlink:href="#DejaVuSans-101"/>
     <use x="243.017578" xlink:href="#DejaVuSans-101"/>
     <use x="304.541016" xlink:href="#DejaVuSans-107"/>
     <use x="362.451172" xlink:href="#DejaVuSans-45"/>
     <use x="398.535156" xlink:href="#DejaVuSans-97"/>
     <use x="459.814453" xlink:href="#DejaVuSans-104"/>
     <use x="523.193359" xlink:href="#DejaVuSans-101"/>
     <use x="584.716797" xlink:href="#DejaVuSans-97"/>
     <use x="645.996094" xlink:href="#DejaVuSans-100"/>
     <use x="709.472656" xlink:href="#DejaVuSans-32"/>
     <use x="741.259766" xlink:href="#DejaVuSans-70"/>
     <use x="795.154297" xlink:href="#DejaVuSans-111"/>
     <use x="856.335938" xlink:href="#DejaVuSans-114"/>
     <use x="895.199219" xlink:href="#DejaVuSans-101"/>
     <use x="956.722656" xlink:href="#DejaVuSans-99"/>
     <use x="1011.703125" xlink:href="#DejaVuSans-97"/>
     <use x="1072.982422" xlink:href="#DejaVuSans-115"/>
     <use x="1125.082031" xlink:href="#DejaVuSans-116"/>
     <use x="1164.291016" xlink:href="#DejaVuSans-115"/>
    </g>
   </g>
   <g id="legend_1">
    <g id="patch_7">
     <path d="M 50.78125 44.99625 
L 179.229688 44.99625 
Q 181.229688 44.99625 181.229688 42.99625 
L 181.229688 29.318125 
Q 181.229688 27.318125 179.229688 27.318125 
L 50.78125 27.318125 
Q 48.78125 27.318125 48.78125 29.318125 
L 48.78125 42.99625 
Q 48.78125 44.99625 50.78125 44.99625 
z
" style="fill:#ffffff;opacity:0.8;stroke:#cccccc;stroke-linejoin:miter;"/>
    </g>
    <g id="line2d_17">
     <path d="M 52.78125 35.416562 
L 72.78125 35.416562 
" style="fill:none;stroke:#000080;stroke-linecap:square;stroke-width:1.5;"/>
    </g>
    <g id="line2d_18"/>
    <g id="text_19">
     <!-- COVIDhub:baseline -->
     <defs>
      <path d="M 39.40625 66.21875 
Q 28.65625 66.21875 22.328125 58.203125 
Q 16.015625 50.203125 16.015625 36.375 
Q 16.015625 22.609375 22.328125 14.59375 
Q 28.65625 6.59375 39.40625 6.59375 
Q 50.140625 6.59375 56.421875 14.59375 
Q 62.703125 22.609375 62.703125 36.375 
Q 62.703125 50.203125 56.421875 58.203125 
Q 50.140625 66.21875 39.40625 66.21875 
z
M 39.40625 74.21875 
Q 54.734375 74.21875 63.90625 63.9375 
Q 73.09375 53.65625 73.09375 36.375 
Q 73.09375 19.140625 63.90625 8.859375 
Q 54.734375 -1.421875 39.40625 -1.421875 
Q 24.03125 -1.421875 14.8125 8.828125 
Q 5.609375 19.09375 5.609375 36.375 
Q 5.609375 53.65625 14.8125 63.9375 
Q 24.03125 74.21875 39.40625 74.21875 
z
" id="DejaVuSans-79"/>
      <path d="M 28.609375 0 
L 0.78125 72.90625 
L 11.078125 72.90625 
L 34.1875 11.53125 
L 57.328125 72.90625 
L 67.578125 72.90625 
L 39.796875 0 
z
" id="DejaVuSans-86"/>
      <path d="M 9.8125 72.90625 
L 19.671875 72.90625 
L 19.671875 0 
L 9.8125 0 
z
" id="DejaVuSans-73"/>
      <path d="M 48.6875 27.296875 
Q 48.6875 37.203125 44.609375 42.84375 
Q 40.53125 48.484375 33.40625 48.484375 
Q 26.265625 48.484375 22.1875 42.84375 
Q 18.109375 37.203125 18.109375 27.296875 
Q 18.109375 17.390625 22.1875 11.75 
Q 26.265625 6.109375 33.40625 6.109375 
Q 40.53125 6.109375 44.609375 11.75 
Q 48.6875 17.390625 48.6875 27.296875 
z
M 18.109375 46.390625 
Q 20.953125 51.265625 25.265625 53.625 
Q 29.59375 56 35.59375 56 
Q 45.5625 56 51.78125 48.09375 
Q 58.015625 40.1875 58.015625 27.296875 
Q 58.015625 14.40625 51.78125 6.484375 
Q 45.5625 -1.421875 35.59375 -1.421875 
Q 29.59375 -1.421875 25.265625 0.953125 
Q 20.953125 3.328125 18.109375 8.203125 
L 18.109375 0 
L 9.078125 0 
L 9.078125 75.984375 
L 18.109375 75.984375 
z
" id="DejaVuSans-98"/>
      <path d="M 11.71875 12.40625 
L 22.015625 12.40625 
L 22.015625 0 
L 11.71875 0 
z
M 11.71875 51.703125 
L 22.015625 51.703125 
L 22.015625 39.3125 
L 11.71875 39.3125 
z
" id="DejaVuSans-58"/>
      <path d="M 54.890625 33.015625 
L 54.890625 0 
L 45.90625 0 
L 45.90625 32.71875 
Q 45.90625 40.484375 42.875 44.328125 
Q 39.84375 48.1875 33.796875 48.1875 
Q 26.515625 48.1875 22.3125 43.546875 
Q 18.109375 38.921875 18.109375 30.90625 
L 18.109375 0 
L 9.078125 0 
L 9.078125 54.6875 
L 18.109375 54.6875 
L 18.109375 46.1875 
Q 21.34375 51.125 25.703125 53.5625 
Q 30.078125 56 35.796875 56 
Q 45.21875 56 50.046875 50.171875 
Q 54.890625 44.34375 54.890625 33.015625 
z
" id="DejaVuSans-110"/>
     </defs>
     <g transform="translate(80.78125 38.916562)scale(0.1 -0.1)">
      <use xlink:href="#DejaVuSans-67"/>
      <use x="69.824219" xlink:href="#DejaVuSans-79"/>
      <use x="146.785156" xlink:href="#DejaVuSans-86"/>
      <use x="215.193359" xlink:href="#DejaVuSans-73"/>
      <use x="244.685547" xlink:href="#DejaVuSans-68"/>
      <use x="321.6875" xlink:href="#DejaVuSans-104"/>
      <use x="385.066406" xlink:href="#DejaVuSans-117"/>
      <use x="448.445312" xlink:href="#DejaVuSans-98"/>
      <use x="511.921875" xlink:href="#DejaVuSans-58"/>
      <use x="545.613281" xlink:href="#DejaVuSans-98"/>
      <use x="609.089844" xlink:href="#DejaVuSans-97"/>
      <use x="670.369141" xlink:href="#DejaVuSans-115"/>
      <use x="722.46875" xlink:href="#DejaVuSans-101"/>
      <use x="783.992188" xlink:href="#DejaVuSans-108"/>
      <use x="811.775391" xlink:href="#DejaVuSans-105"/>
      <use x="839.558594" xlink:href="#DejaVuSans-110"/>
      <use x="902.9375" xlink:href="#DejaVuSans-101"/>
     </g>
    </g>
   </g>
  </g>
 </g>
 <defs>
  <clipPath id="p68dc2f28ed">
   <rect height="326.16" width="334.8" x="43.78125" y="22.318125"/>
  </clipPath>
 </defs>
</svg>
