<?xml version="1.0" encoding="utf-8" standalone="no"?>
<!DOCTYPE svg PUBLIC "-//W3C//DTD SVG 1.1//EN"
  "http://www.w3.org/Graphics/SVG/1.1/DTD/svg11.dtd">
<!-- Created with matplotlib (https://matplotlib.org/) -->
<svg height="525.005516pt" version="1.1" viewBox="0 0 661.998966 525.005516" width="661.998966pt" xmlns="http://www.w3.org/2000/svg" xmlns:xlink="http://www.w3.org/1999/xlink">
 <defs>
  <style type="text/css">
*{stroke-linecap:butt;stroke-linejoin:round;}
  </style>
 </defs>
 <g id="figure_1">
  <g id="patch_1">
   <path d="M 0 525.005516 
L 661.998966 525.005516 
L 661.998966 0 
L 0 0 
z
" style="fill:#ffffff;"/>
  </g>
  <g id="axes_1">
   <g id="patch_2">
    <path d="M 85.248125 442.08 
L 643.248125 442.08 
L 643.248125 7.2 
L 85.248125 7.2 
z
" style="fill:#ffffff;"/>
   </g>
   <g id="PolyCollection_1">
    <defs>
     <path d="M 208.419248 -83.57891 
L 208.419248 -83.031 
L 220.023526 -85.015895 
L 231.627804 -93.520264 
L 243.232082 -104.399527 
L 254.83636 -116.567466 
L 266.440638 -142.73608 
L 278.044916 -157.099472 
L 289.649195 -171.124609 
L 301.253473 -186.671571 
L 312.857751 -195.193635 
L 324.462029 -204.654231 
L 336.066307 -211.306996 
L 347.670585 -220.495225 
L 359.274863 -225.378911 
L 370.879141 -229.364353 
L 382.483419 -236.208403 
L 394.087697 -241.400723 
L 405.691975 -247.648887 
L 417.296253 -255.685256 
L 428.900531 -263.843121 
L 440.504809 -273.738648 
L 452.109088 -283.799808 
L 463.713366 -291.547273 
L 475.317644 -300.082063 
L 486.921922 -307.195716 
L 498.5262 -314.020965 
L 510.130478 -319.716429 
L 521.734756 -326.442473 
L 533.339034 -332.548862 
L 544.943312 -338.431761 
L 556.54759 -344.618616 
L 568.151868 -350.674933 
L 579.756146 -357.956822 
L 591.360424 -364.589088 
L 602.964703 -373.304553 
L 614.568981 -384.94752 
L 614.568981 -393.567577 
L 614.568981 -393.567577 
L 602.964703 -381.105595 
L 591.360424 -371.805641 
L 579.756146 -363.358269 
L 568.151868 -355.60687 
L 556.54759 -349.322791 
L 544.943312 -343.601408 
L 533.339034 -337.761456 
L 521.734756 -331.817994 
L 510.130478 -324.665812 
L 498.5262 -319.254957 
L 486.921922 -313.272039 
L 475.317644 -305.107618 
L 463.713366 -296.904955 
L 452.109088 -289.836703 
L 440.504809 -279.72244 
L 428.900531 -269.751973 
L 417.296253 -260.46243 
L 405.691975 -254.546061 
L 394.087697 -266.846349 
L 382.483419 -243.562304 
L 370.879141 -236.572349 
L 359.274863 -232.53331 
L 347.670585 -239.010202 
L 336.066307 -223.736249 
L 324.462029 -213.971421 
L 312.857751 -210.438794 
L 301.253473 -194.896239 
L 289.649195 -182.387183 
L 278.044916 -166.316334 
L 266.440638 -156.775286 
L 254.83636 -149.772979 
L 243.232082 -113.214294 
L 231.627804 -96.65101 
L 220.023526 -88.517942 
L 208.419248 -83.57891 
z
" id="mc5377d1bbe" style="stroke:#0010ff;stroke-opacity:0.1;"/>
    </defs>
    <g clip-path="url(#pd277f36f0c)">
     <use style="fill:#0010ff;fill-opacity:0.1;stroke:#0010ff;stroke-opacity:0.1;" x="0" xlink:href="#mc5377d1bbe" y="525.005516"/>
    </g>
   </g>
   <g id="PolyCollection_2">
    <defs>
     <path d="M 254.83636 -118.961406 
L 254.83636 -97.943003 
L 266.440638 -132.279992 
L 278.044916 -148.024008 
L 289.649195 -168.046965 
L 301.253473 -182.466481 
L 312.857751 -194.439338 
L 324.462029 -202.121258 
L 336.066307 -209.868576 
L 347.670585 -215.785456 
L 359.274863 -225.21003 
L 370.879141 -229.241624 
L 382.483419 -233.310848 
L 394.087697 -240.814279 
L 405.691975 -245.333525 
L 417.296253 -252.055605 
L 428.900531 -261.109867 
L 440.504809 -270.526146 
L 452.109088 -280.739577 
L 463.713366 -290.144535 
L 475.317644 -297.499985 
L 486.921922 -305.620889 
L 498.5262 -312.339356 
L 510.130478 -318.442516 
L 521.734756 -323.989193 
L 533.339034 -330.931312 
L 544.943312 -336.794915 
L 556.54759 -342.661221 
L 568.151868 -349.348856 
L 579.756146 -355.459469 
L 591.360424 -363.708702 
L 602.964703 -370.218129 
L 614.568981 -380.081692 
L 614.568981 -393.494779 
L 614.568981 -393.494779 
L 602.964703 -384.802422 
L 591.360424 -373.015554 
L 579.756146 -363.948096 
L 568.151868 -357.341498 
L 556.54759 -351.089527 
L 544.943312 -346.149295 
L 533.339034 -339.676765 
L 521.734756 -332.856098 
L 510.130478 -328.34283 
L 498.5262 -322.016217 
L 486.921922 -315.612234 
L 475.317644 -307.938096 
L 463.713366 -302.368541 
L 452.109088 -292.362033 
L 440.504809 -283.535293 
L 428.900531 -270.705921 
L 417.296253 -264.352451 
L 405.691975 -268.160089 
L 394.087697 -251.790187 
L 382.483419 -245.688979 
L 370.879141 -241.078385 
L 359.274863 -251.075869 
L 347.670585 -231.420917 
L 336.066307 -227.450321 
L 324.462029 -224.769755 
L 312.857751 -210.66824 
L 301.253473 -199.749434 
L 289.649195 -188.627843 
L 278.044916 -197.771777 
L 266.440638 -170.408454 
L 254.83636 -118.961406 
z
" id="m15d7855458" style="stroke:#00a4ff;stroke-opacity:0.1;"/>
    </defs>
    <g clip-path="url(#pd277f36f0c)">
     <use style="fill:#00a4ff;fill-opacity:0.1;stroke:#00a4ff;stroke-opacity:0.1;" x="0" xlink:href="#m15d7855458" y="525.005516"/>
    </g>
   </g>
   <g id="PolyCollection_3">
    <defs>
     <path d="M 266.440638 -132.450357 
L 266.440638 -100.014147 
L 278.044916 -136.846136 
L 289.649195 -157.495661 
L 301.253473 -178.018306 
L 312.857751 -187.748891 
L 324.462029 -200.486249 
L 336.066307 -207.414618 
L 347.670585 -214.899366 
L 359.274863 -219.63963 
L 370.879141 -229.378526 
L 382.483419 -233.12418 
L 394.087697 -237.155179 
L 405.691975 -244.152395 
L 417.296253 -249.071763 
L 428.900531 -256.123986 
L 440.504809 -266.285776 
L 452.109088 -276.823003 
L 463.713366 -287.227697 
L 475.317644 -295.748933 
L 486.921922 -302.677296 
L 498.5262 -310.373667 
L 510.130478 -316.708952 
L 521.734756 -322.524556 
L 533.339034 -327.761849 
L 544.943312 -335.023522 
L 556.54759 -340.87699 
L 568.151868 -346.562356 
L 579.756146 -353.730598 
L 591.360424 -359.960341 
L 602.964703 -369.37455 
L 614.568981 -375.941768 
L 614.568981 -434.326716 
L 614.568981 -434.326716 
L 602.964703 -385.19348 
L 591.360424 -374.216939 
L 579.756146 -366.796316 
L 568.151868 -359.547501 
L 556.54759 -355.994512 
L 544.943312 -349.059799 
L 533.339034 -341.86028 
L 521.734756 -339.309295 
L 510.130478 -332.86894 
L 498.5262 -327.707847 
L 486.921922 -320.649501 
L 475.317644 -319.088932 
L 463.713366 -308.017466 
L 452.109088 -301.263942 
L 440.504809 -282.105221 
L 428.900531 -275.784604 
L 417.296253 -278.990155 
L 405.691975 -262.914113 
L 394.087697 -256.792446 
L 382.483419 -251.239731 
L 370.879141 -262.679381 
L 359.274863 -242.130064 
L 347.670585 -241.112069 
L 336.066307 -239.020844 
L 324.462029 -227.646708 
L 312.857751 -217.281211 
L 301.253473 -213.411386 
L 289.649195 -253.256615 
L 278.044916 -220.991752 
L 266.440638 -132.450357 
z
" id="m82727fc159" style="stroke:#40ffb7;stroke-opacity:0.1;"/>
    </defs>
    <g clip-path="url(#pd277f36f0c)">
     <use style="fill:#40ffb7;fill-opacity:0.1;stroke:#40ffb7;stroke-opacity:0.1;" x="0" xlink:href="#m82727fc159" y="525.005516"/>
    </g>
   </g>
   <g id="PolyCollection_4">
    <defs>
     <path d="M 278.044916 -146.670862 
L 278.044916 -101.717624 
L 289.649195 -146.236752 
L 301.253473 -171.321282 
L 312.857751 -187.222695 
L 324.462029 -192.858115 
L 336.066307 -205.974134 
L 347.670585 -211.700076 
L 359.274863 -219.164606 
L 370.879141 -223.018818 
L 382.483419 -233.341369 
L 394.087697 -236.901629 
L 405.691975 -241.019696 
L 417.296253 -247.407528 
L 428.900531 -253.198634 
L 440.504809 -260.235317 
L 452.109088 -271.576336 
L 463.713366 -283.1581 
L 475.317644 -293.558266 
L 486.921922 -301.074632 
L 498.5262 -307.408557 
L 510.130478 -314.660459 
L 521.734756 -320.920098 
L 533.339034 -326.314074 
L 544.943312 -331.324327 
L 556.54759 -338.97058 
L 568.151868 -344.797002 
L 579.756146 -349.99873 
L 591.360424 -358.03163 
L 602.964703 -364.291128 
L 614.568981 -375.063778 
L 614.568981 -404.635289 
L 614.568981 -404.635289 
L 602.964703 -391.80278 
L 591.360424 -377.72972 
L 579.756146 -368.706343 
L 568.151868 -368.318479 
L 556.54759 -360.214208 
L 544.943312 -352.212538 
L 533.339034 -353.989551 
L 521.734756 -345.966045 
L 510.130478 -341.467284 
L 498.5262 -335.152277 
L 486.921922 -346.33138 
L 475.317644 -329.366896 
L 463.713366 -324.461907 
L 452.109088 -295.486217 
L 440.504809 -289.241353 
L 428.900531 -293.41507 
L 417.296253 -276.987158 
L 405.691975 -270.811448 
L 394.087697 -263.047632 
L 382.483419 -275.805674 
L 370.879141 -253.402254 
L 359.274863 -255.961537 
L 347.670585 -254.596856 
L 336.066307 -245.739104 
L 324.462029 -251.271028 
L 312.857751 -240.516305 
L 301.253473 -308.324356 
L 289.649195 -263.75296 
L 278.044916 -146.670862 
z
" id="mff7528b886" style="stroke:#b7ff40;stroke-opacity:0.1;"/>
    </defs>
    <g clip-path="url(#pd277f36f0c)">
     <use style="fill:#b7ff40;fill-opacity:0.1;stroke:#b7ff40;stroke-opacity:0.1;" x="0" xlink:href="#mff7528b886" y="525.005516"/>
    </g>
   </g>
   <g id="PolyCollection_5">
    <path clip-path="url(#pd277f36f0c)" d="M 301.253473 204.785015 
L 301.253473 369.727891 
L 312.857751 338.9857 
L 324.462029 323.069435 
L 336.066307 325.635081 
L 347.670585 313.281 
L 359.274863 307.267934 
L 370.879141 305.517453 
L 382.483419 303.233909 
L 394.087697 308.732426 
L 405.691975 288.944599 
L 417.296253 286.804604 
L 428.900531 274.466597 
L 440.504809 268.367211 
L 452.109088 259.681728 
L 463.713366 244.856806 
L 475.317644 233.938076 
L 486.921922 226.07997 
L 498.5262 217.371157 
L 510.130478 213.098016 
L 521.734756 203.490139 
L 533.339034 199.621308 
L 544.943312 192.696591 
L 556.54759 188.239512 
L 568.151868 181.365971 
L 579.756146 175.069504 
L 591.360424 170.67219 
L 602.964703 162.781382 
L 614.568981 157.099612 
L 614.568981 127.911102 
L 614.568981 127.911102 
L 602.964703 134.956495 
L 591.360424 145.589926 
L 579.756146 156.325439 
L 568.151868 153.699289 
L 556.54759 174.359751 
L 544.943312 175.052974 
L 533.339034 167.057201 
L 521.734756 187.156558 
L 510.130478 175.926295 
L 498.5262 174.398549 
L 486.921922 179.621421 
L 475.317644 198.236505 
L 463.713366 215.486152 
L 452.109088 223.539507 
L 440.504809 222.515261 
L 428.900531 229.991828 
L 417.296253 262.087662 
L 405.691975 263.100213 
L 394.087697 243.024185 
L 382.483419 272.596463 
L 370.879141 268.567794 
L 359.274863 261.814733 
L 347.670585 260.158672 
L 336.066307 -206.424607 
L 324.462029 224.53465 
L 312.857751 268.845065 
L 301.253473 204.785015 
z
" style="fill:#ffb900;fill-opacity:0.1;stroke:#ffb900;stroke-opacity:0.1;"/>
   </g>
   <g id="PolyCollection_6">
    <path clip-path="url(#pd277f36f0c)" d="M 312.857751 163.991663 
L 312.857751 364.302349 
L 324.462029 331.181701 
L 336.066307 310.488907 
L 347.670585 320.711535 
L 359.274863 311.793817 
L 370.879141 305.572532 
L 382.483419 300.910757 
L 394.087697 300.908525 
L 405.691975 309.375132 
L 417.296253 289.37727 
L 428.900531 285.47584 
L 440.504809 275.303979 
L 452.109088 262.754298 
L 463.713366 256.089521 
L 475.317644 239.833828 
L 486.921922 228.759372 
L 498.5262 218.323794 
L 510.130478 212.770943 
L 521.734756 211.113908 
L 533.339034 201.020999 
L 544.943312 196.247708 
L 556.54759 189.357368 
L 568.151868 185.478652 
L 579.756146 178.869282 
L 591.360424 171.450304 
L 602.964703 169.362002 
L 614.568981 160.786742 
L 614.568981 135.025706 
L 614.568981 135.025706 
L 602.964703 145.344062 
L 591.360424 151.804937 
L 579.756146 159.557849 
L 568.151868 167.286591 
L 556.54759 164.054525 
L 544.943312 173.303059 
L 533.339034 180.146562 
L 521.734756 178.506827 
L 510.130478 181.812376 
L 498.5262 175.118638 
L 486.921922 188.208348 
L 475.317644 203.136888 
L 463.713366 211.450489 
L 452.109088 202.542908 
L 440.504809 238.238767 
L 428.900531 253.490694 
L 417.296253 254.11265 
L 405.691975 229.872918 
L 394.087697 265.222682 
L 382.483419 244.754463 
L 370.879141 244.030689 
L 359.274863 227.191004 
L 347.670585 -18798.334355 
L 336.066307 -539.850809 
L 324.462029 200.167333 
L 312.857751 163.991663 
z
" style="fill:#ff3000;fill-opacity:0.1;stroke:#ff3000;stroke-opacity:0.1;"/>
   </g>
   <g id="PolyCollection_7">
    <defs>
     <path d="M 324.462029 -330.318794 
L 324.462029 -143.302337 
L 336.066307 -177.139501 
L 347.670585 -185.129192 
L 359.274863 -194.612241 
L 370.879141 -209.159807 
L 382.483419 -219.909318 
L 394.087697 -230.736087 
L 405.691975 -226.018111 
L 417.296253 -231.051202 
L 428.900531 -238.906015 
L 440.504809 -243.236081 
L 452.109088 -254.021319 
L 463.713366 -268.270831 
L 475.317644 -273.458838 
L 486.921922 -289.634159 
L 498.5262 -297.403221 
L 510.130478 -303.552604 
L 521.734756 -312.01627 
L 533.339034 -315.935594 
L 544.943312 -325.639766 
L 556.54759 -331.586615 
L 568.151868 -336.374158 
L 579.756146 -341.090926 
L 591.360424 -348.452172 
L 602.964703 -356.006001 
L 614.568981 -356.74835 
L 614.568981 -393.224963 
L 614.568981 -393.224963 
L 602.964703 -383.442001 
L 591.360424 -372.06933 
L 579.756146 -364.20946 
L 568.151868 -358.384683 
L 556.54759 -358.762712 
L 544.943312 -349.760156 
L 533.339034 -353.981322 
L 521.734756 -347.787603 
L 510.130478 -359.000165 
L 498.5262 -347.710654 
L 486.921922 -336.549568 
L 475.317644 -332.85996 
L 463.713366 -349.582843 
L 452.109088 -286.006835 
L 440.504809 -277.535895 
L 428.900531 -271.386781 
L 417.296253 -273.047164 
L 405.691975 -267.816419 
L 394.087697 -317.586212 
L 382.483419 -296.296161 
L 370.879141 -307.107877 
L 359.274863 -334.547302 
L 347.670585 -319.247522 
L 336.066307 -271.218901 
L 324.462029 -330.318794 
z
" id="mb22f7cb580" style="stroke:#800000;stroke-opacity:0.1;"/>
    </defs>
    <g clip-path="url(#pd277f36f0c)">
     <use style="fill:#800000;fill-opacity:0.1;stroke:#800000;stroke-opacity:0.1;" x="0" xlink:href="#mb22f7cb580" y="525.005516"/>
    </g>
   </g>
   <g id="matplotlib.axis_1">
    <g id="xtick_1">
     <g id="line2d_1">
      <defs>
       <path d="M 0 0 
L 0 3.5 
" id="mdd9c3e6f94" style="stroke:#000000;stroke-width:0.8;"/>
      </defs>
      <g>
       <use style="stroke:#000000;stroke-width:0.8;" x="127.189301" xlink:href="#mdd9c3e6f94" y="442.08"/>
      </g>
     </g>
     <g id="text_1">
      <!-- 2020-02 -->
      <defs>
       <path d="M 19.1875 8.296875 
L 53.609375 8.296875 
L 53.609375 0 
L 7.328125 0 
L 7.328125 8.296875 
Q 12.9375 14.109375 22.625 23.890625 
Q 32.328125 33.6875 34.8125 36.53125 
Q 39.546875 41.84375 41.421875 45.53125 
Q 43.3125 49.21875 43.3125 52.78125 
Q 43.3125 58.59375 39.234375 62.25 
Q 35.15625 65.921875 28.609375 65.921875 
Q 23.96875 65.921875 18.8125 64.3125 
Q 13.671875 62.703125 7.8125 59.421875 
L 7.8125 69.390625 
Q 13.765625 71.78125 18.9375 73 
Q 24.125 74.21875 28.421875 74.21875 
Q 39.75 74.21875 46.484375 68.546875 
Q 53.21875 62.890625 53.21875 53.421875 
Q 53.21875 48.921875 51.53125 44.890625 
Q 49.859375 40.875 45.40625 35.40625 
Q 44.1875 33.984375 37.640625 27.21875 
Q 31.109375 20.453125 19.1875 8.296875 
z
" id="DejaVuSans-50"/>
       <path d="M 31.78125 66.40625 
Q 24.171875 66.40625 20.328125 58.90625 
Q 16.5 51.421875 16.5 36.375 
Q 16.5 21.390625 20.328125 13.890625 
Q 24.171875 6.390625 31.78125 6.390625 
Q 39.453125 6.390625 43.28125 13.890625 
Q 47.125 21.390625 47.125 36.375 
Q 47.125 51.421875 43.28125 58.90625 
Q 39.453125 66.40625 31.78125 66.40625 
z
M 31.78125 74.21875 
Q 44.046875 74.21875 50.515625 64.515625 
Q 56.984375 54.828125 56.984375 36.375 
Q 56.984375 17.96875 50.515625 8.265625 
Q 44.046875 -1.421875 31.78125 -1.421875 
Q 19.53125 -1.421875 13.0625 8.265625 
Q 6.59375 17.96875 6.59375 36.375 
Q 6.59375 54.828125 13.0625 64.515625 
Q 19.53125 74.21875 31.78125 74.21875 
z
" id="DejaVuSans-48"/>
       <path d="M 4.890625 31.390625 
L 31.203125 31.390625 
L 31.203125 23.390625 
L 4.890625 23.390625 
z
" id="DejaVuSans-45"/>
      </defs>
      <g transform="translate(110.521635 494.473162)rotate(-45)scale(0.13 -0.13)">
       <use xlink:href="#DejaVuSans-50"/>
       <use x="63.623047" xlink:href="#DejaVuSans-48"/>
       <use x="127.246094" xlink:href="#DejaVuSans-50"/>
       <use x="190.869141" xlink:href="#DejaVuSans-48"/>
       <use x="254.492188" xlink:href="#DejaVuSans-45"/>
       <use x="290.576172" xlink:href="#DejaVuSans-48"/>
       <use x="354.199219" xlink:href="#DejaVuSans-50"/>
      </g>
     </g>
    </g>
    <g id="xtick_2">
     <g id="line2d_2">
      <g>
       <use style="stroke:#000000;stroke-width:0.8;" x="175.264168" xlink:href="#mdd9c3e6f94" y="442.08"/>
      </g>
     </g>
     <g id="text_2">
      <!-- 2020-03 -->
      <defs>
       <path d="M 40.578125 39.3125 
Q 47.65625 37.796875 51.625 33 
Q 55.609375 28.21875 55.609375 21.1875 
Q 55.609375 10.40625 48.1875 4.484375 
Q 40.765625 -1.421875 27.09375 -1.421875 
Q 22.515625 -1.421875 17.65625 -0.515625 
Q 12.796875 0.390625 7.625 2.203125 
L 7.625 11.71875 
Q 11.71875 9.328125 16.59375 8.109375 
Q 21.484375 6.890625 26.8125 6.890625 
Q 36.078125 6.890625 40.9375 10.546875 
Q 45.796875 14.203125 45.796875 21.1875 
Q 45.796875 27.640625 41.28125 31.265625 
Q 36.765625 34.90625 28.71875 34.90625 
L 20.21875 34.90625 
L 20.21875 43.015625 
L 29.109375 43.015625 
Q 36.375 43.015625 40.234375 45.921875 
Q 44.09375 48.828125 44.09375 54.296875 
Q 44.09375 59.90625 40.109375 62.90625 
Q 36.140625 65.921875 28.71875 65.921875 
Q 24.65625 65.921875 20.015625 65.03125 
Q 15.375 64.15625 9.8125 62.3125 
L 9.8125 71.09375 
Q 15.4375 72.65625 20.34375 73.4375 
Q 25.25 74.21875 29.59375 74.21875 
Q 40.828125 74.21875 47.359375 69.109375 
Q 53.90625 64.015625 53.90625 55.328125 
Q 53.90625 49.265625 50.4375 45.09375 
Q 46.96875 40.921875 40.578125 39.3125 
z
" id="DejaVuSans-51"/>
      </defs>
      <g transform="translate(158.596501 494.473162)rotate(-45)scale(0.13 -0.13)">
       <use xlink:href="#DejaVuSans-50"/>
       <use x="63.623047" xlink:href="#DejaVuSans-48"/>
       <use x="127.246094" xlink:href="#DejaVuSans-50"/>
       <use x="190.869141" xlink:href="#DejaVuSans-48"/>
       <use x="254.492188" xlink:href="#DejaVuSans-45"/>
       <use x="290.576172" xlink:href="#DejaVuSans-48"/>
       <use x="354.199219" xlink:href="#DejaVuSans-51"/>
      </g>
     </g>
    </g>
    <g id="xtick_3">
     <g id="line2d_3">
      <g>
       <use style="stroke:#000000;stroke-width:0.8;" x="226.654542" xlink:href="#mdd9c3e6f94" y="442.08"/>
      </g>
     </g>
     <g id="text_3">
      <!-- 2020-04 -->
      <defs>
       <path d="M 37.796875 64.3125 
L 12.890625 25.390625 
L 37.796875 25.390625 
z
M 35.203125 72.90625 
L 47.609375 72.90625 
L 47.609375 25.390625 
L 58.015625 25.390625 
L 58.015625 17.1875 
L 47.609375 17.1875 
L 47.609375 0 
L 37.796875 0 
L 37.796875 17.1875 
L 4.890625 17.1875 
L 4.890625 26.703125 
z
" id="DejaVuSans-52"/>
      </defs>
      <g transform="translate(209.986875 494.473162)rotate(-45)scale(0.13 -0.13)">
       <use xlink:href="#DejaVuSans-50"/>
       <use x="63.623047" xlink:href="#DejaVuSans-48"/>
       <use x="127.246094" xlink:href="#DejaVuSans-50"/>
       <use x="190.869141" xlink:href="#DejaVuSans-48"/>
       <use x="254.492188" xlink:href="#DejaVuSans-45"/>
       <use x="290.576172" xlink:href="#DejaVuSans-48"/>
       <use x="354.199219" xlink:href="#DejaVuSans-52"/>
      </g>
     </g>
    </g>
    <g id="xtick_4">
     <g id="line2d_4">
      <g>
       <use style="stroke:#000000;stroke-width:0.8;" x="276.387162" xlink:href="#mdd9c3e6f94" y="442.08"/>
      </g>
     </g>
     <g id="text_4">
      <!-- 2020-05 -->
      <defs>
       <path d="M 10.796875 72.90625 
L 49.515625 72.90625 
L 49.515625 64.59375 
L 19.828125 64.59375 
L 19.828125 46.734375 
Q 21.96875 47.46875 24.109375 47.828125 
Q 26.265625 48.1875 28.421875 48.1875 
Q 40.625 48.1875 47.75 41.5 
Q 54.890625 34.8125 54.890625 23.390625 
Q 54.890625 11.625 47.5625 5.09375 
Q 40.234375 -1.421875 26.90625 -1.421875 
Q 22.3125 -1.421875 17.546875 -0.640625 
Q 12.796875 0.140625 7.71875 1.703125 
L 7.71875 11.625 
Q 12.109375 9.234375 16.796875 8.0625 
Q 21.484375 6.890625 26.703125 6.890625 
Q 35.15625 6.890625 40.078125 11.328125 
Q 45.015625 15.765625 45.015625 23.390625 
Q 45.015625 31 40.078125 35.4375 
Q 35.15625 39.890625 26.703125 39.890625 
Q 22.75 39.890625 18.8125 39.015625 
Q 14.890625 38.140625 10.796875 36.28125 
z
" id="DejaVuSans-53"/>
      </defs>
      <g transform="translate(259.719496 494.473162)rotate(-45)scale(0.13 -0.13)">
       <use xlink:href="#DejaVuSans-50"/>
       <use x="63.623047" xlink:href="#DejaVuSans-48"/>
       <use x="127.246094" xlink:href="#DejaVuSans-50"/>
       <use x="190.869141" xlink:href="#DejaVuSans-48"/>
       <use x="254.492188" xlink:href="#DejaVuSans-45"/>
       <use x="290.576172" xlink:href="#DejaVuSans-48"/>
       <use x="354.199219" xlink:href="#DejaVuSans-53"/>
      </g>
     </g>
    </g>
    <g id="xtick_5">
     <g id="line2d_5">
      <g>
       <use style="stroke:#000000;stroke-width:0.8;" x="327.777537" xlink:href="#mdd9c3e6f94" y="442.08"/>
      </g>
     </g>
     <g id="text_5">
      <!-- 2020-06 -->
      <defs>
       <path d="M 33.015625 40.375 
Q 26.375 40.375 22.484375 35.828125 
Q 18.609375 31.296875 18.609375 23.390625 
Q 18.609375 15.53125 22.484375 10.953125 
Q 26.375 6.390625 33.015625 6.390625 
Q 39.65625 6.390625 43.53125 10.953125 
Q 47.40625 15.53125 47.40625 23.390625 
Q 47.40625 31.296875 43.53125 35.828125 
Q 39.65625 40.375 33.015625 40.375 
z
M 52.59375 71.296875 
L 52.59375 62.3125 
Q 48.875 64.0625 45.09375 64.984375 
Q 41.3125 65.921875 37.59375 65.921875 
Q 27.828125 65.921875 22.671875 59.328125 
Q 17.53125 52.734375 16.796875 39.40625 
Q 19.671875 43.65625 24.015625 45.921875 
Q 28.375 48.1875 33.59375 48.1875 
Q 44.578125 48.1875 50.953125 41.515625 
Q 57.328125 34.859375 57.328125 23.390625 
Q 57.328125 12.15625 50.6875 5.359375 
Q 44.046875 -1.421875 33.015625 -1.421875 
Q 20.359375 -1.421875 13.671875 8.265625 
Q 6.984375 17.96875 6.984375 36.375 
Q 6.984375 53.65625 15.1875 63.9375 
Q 23.390625 74.21875 37.203125 74.21875 
Q 40.921875 74.21875 44.703125 73.484375 
Q 48.484375 72.75 52.59375 71.296875 
z
" id="DejaVuSans-54"/>
      </defs>
      <g transform="translate(311.10987 494.473162)rotate(-45)scale(0.13 -0.13)">
       <use xlink:href="#DejaVuSans-50"/>
       <use x="63.623047" xlink:href="#DejaVuSans-48"/>
       <use x="127.246094" xlink:href="#DejaVuSans-50"/>
       <use x="190.869141" xlink:href="#DejaVuSans-48"/>
       <use x="254.492188" xlink:href="#DejaVuSans-45"/>
       <use x="290.576172" xlink:href="#DejaVuSans-48"/>
       <use x="354.199219" xlink:href="#DejaVuSans-54"/>
      </g>
     </g>
    </g>
    <g id="xtick_6">
     <g id="line2d_6">
      <g>
       <use style="stroke:#000000;stroke-width:0.8;" x="377.510157" xlink:href="#mdd9c3e6f94" y="442.08"/>
      </g>
     </g>
     <g id="text_6">
      <!-- 2020-07 -->
      <defs>
       <path d="M 8.203125 72.90625 
L 55.078125 72.90625 
L 55.078125 68.703125 
L 28.609375 0 
L 18.3125 0 
L 43.21875 64.59375 
L 8.203125 64.59375 
z
" id="DejaVuSans-55"/>
      </defs>
      <g transform="translate(360.84249 494.473162)rotate(-45)scale(0.13 -0.13)">
       <use xlink:href="#DejaVuSans-50"/>
       <use x="63.623047" xlink:href="#DejaVuSans-48"/>
       <use x="127.246094" xlink:href="#DejaVuSans-50"/>
       <use x="190.869141" xlink:href="#DejaVuSans-48"/>
       <use x="254.492188" xlink:href="#DejaVuSans-45"/>
       <use x="290.576172" xlink:href="#DejaVuSans-48"/>
       <use x="354.199219" xlink:href="#DejaVuSans-55"/>
      </g>
     </g>
    </g>
    <g id="xtick_7">
     <g id="line2d_7">
      <g>
       <use style="stroke:#000000;stroke-width:0.8;" x="428.900531" xlink:href="#mdd9c3e6f94" y="442.08"/>
      </g>
     </g>
     <g id="text_7">
      <!-- 2020-08 -->
      <defs>
       <path d="M 31.78125 34.625 
Q 24.75 34.625 20.71875 30.859375 
Q 16.703125 27.09375 16.703125 20.515625 
Q 16.703125 13.921875 20.71875 10.15625 
Q 24.75 6.390625 31.78125 6.390625 
Q 38.8125 6.390625 42.859375 10.171875 
Q 46.921875 13.96875 46.921875 20.515625 
Q 46.921875 27.09375 42.890625 30.859375 
Q 38.875 34.625 31.78125 34.625 
z
M 21.921875 38.8125 
Q 15.578125 40.375 12.03125 44.71875 
Q 8.5 49.078125 8.5 55.328125 
Q 8.5 64.0625 14.71875 69.140625 
Q 20.953125 74.21875 31.78125 74.21875 
Q 42.671875 74.21875 48.875 69.140625 
Q 55.078125 64.0625 55.078125 55.328125 
Q 55.078125 49.078125 51.53125 44.71875 
Q 48 40.375 41.703125 38.8125 
Q 48.828125 37.15625 52.796875 32.3125 
Q 56.78125 27.484375 56.78125 20.515625 
Q 56.78125 9.90625 50.3125 4.234375 
Q 43.84375 -1.421875 31.78125 -1.421875 
Q 19.734375 -1.421875 13.25 4.234375 
Q 6.78125 9.90625 6.78125 20.515625 
Q 6.78125 27.484375 10.78125 32.3125 
Q 14.796875 37.15625 21.921875 38.8125 
z
M 18.3125 54.390625 
Q 18.3125 48.734375 21.84375 45.5625 
Q 25.390625 42.390625 31.78125 42.390625 
Q 38.140625 42.390625 41.71875 45.5625 
Q 45.3125 48.734375 45.3125 54.390625 
Q 45.3125 60.0625 41.71875 63.234375 
Q 38.140625 66.40625 31.78125 66.40625 
Q 25.390625 66.40625 21.84375 63.234375 
Q 18.3125 60.0625 18.3125 54.390625 
z
" id="DejaVuSans-56"/>
      </defs>
      <g transform="translate(412.232864 494.473162)rotate(-45)scale(0.13 -0.13)">
       <use xlink:href="#DejaVuSans-50"/>
       <use x="63.623047" xlink:href="#DejaVuSans-48"/>
       <use x="127.246094" xlink:href="#DejaVuSans-50"/>
       <use x="190.869141" xlink:href="#DejaVuSans-48"/>
       <use x="254.492188" xlink:href="#DejaVuSans-45"/>
       <use x="290.576172" xlink:href="#DejaVuSans-48"/>
       <use x="354.199219" xlink:href="#DejaVuSans-56"/>
      </g>
     </g>
    </g>
    <g id="xtick_8">
     <g id="line2d_8">
      <g>
       <use style="stroke:#000000;stroke-width:0.8;" x="480.290906" xlink:href="#mdd9c3e6f94" y="442.08"/>
      </g>
     </g>
     <g id="text_8">
      <!-- 2020-09 -->
      <defs>
       <path d="M 10.984375 1.515625 
L 10.984375 10.5 
Q 14.703125 8.734375 18.5 7.8125 
Q 22.3125 6.890625 25.984375 6.890625 
Q 35.75 6.890625 40.890625 13.453125 
Q 46.046875 20.015625 46.78125 33.40625 
Q 43.953125 29.203125 39.59375 26.953125 
Q 35.25 24.703125 29.984375 24.703125 
Q 19.046875 24.703125 12.671875 31.3125 
Q 6.296875 37.9375 6.296875 49.421875 
Q 6.296875 60.640625 12.9375 67.421875 
Q 19.578125 74.21875 30.609375 74.21875 
Q 43.265625 74.21875 49.921875 64.515625 
Q 56.59375 54.828125 56.59375 36.375 
Q 56.59375 19.140625 48.40625 8.859375 
Q 40.234375 -1.421875 26.421875 -1.421875 
Q 22.703125 -1.421875 18.890625 -0.6875 
Q 15.09375 0.046875 10.984375 1.515625 
z
M 30.609375 32.421875 
Q 37.25 32.421875 41.125 36.953125 
Q 45.015625 41.5 45.015625 49.421875 
Q 45.015625 57.28125 41.125 61.84375 
Q 37.25 66.40625 30.609375 66.40625 
Q 23.96875 66.40625 20.09375 61.84375 
Q 16.21875 57.28125 16.21875 49.421875 
Q 16.21875 41.5 20.09375 36.953125 
Q 23.96875 32.421875 30.609375 32.421875 
z
" id="DejaVuSans-57"/>
      </defs>
      <g transform="translate(463.623239 494.473162)rotate(-45)scale(0.13 -0.13)">
       <use xlink:href="#DejaVuSans-50"/>
       <use x="63.623047" xlink:href="#DejaVuSans-48"/>
       <use x="127.246094" xlink:href="#DejaVuSans-50"/>
       <use x="190.869141" xlink:href="#DejaVuSans-48"/>
       <use x="254.492188" xlink:href="#DejaVuSans-45"/>
       <use x="290.576172" xlink:href="#DejaVuSans-48"/>
       <use x="354.199219" xlink:href="#DejaVuSans-57"/>
      </g>
     </g>
    </g>
    <g id="xtick_9">
     <g id="line2d_9">
      <g>
       <use style="stroke:#000000;stroke-width:0.8;" x="530.023526" xlink:href="#mdd9c3e6f94" y="442.08"/>
      </g>
     </g>
     <g id="text_9">
      <!-- 2020-10 -->
      <defs>
       <path d="M 12.40625 8.296875 
L 28.515625 8.296875 
L 28.515625 63.921875 
L 10.984375 60.40625 
L 10.984375 69.390625 
L 28.421875 72.90625 
L 38.28125 72.90625 
L 38.28125 8.296875 
L 54.390625 8.296875 
L 54.390625 0 
L 12.40625 0 
z
" id="DejaVuSans-49"/>
      </defs>
      <g transform="translate(513.355859 494.473162)rotate(-45)scale(0.13 -0.13)">
       <use xlink:href="#DejaVuSans-50"/>
       <use x="63.623047" xlink:href="#DejaVuSans-48"/>
       <use x="127.246094" xlink:href="#DejaVuSans-50"/>
       <use x="190.869141" xlink:href="#DejaVuSans-48"/>
       <use x="254.492188" xlink:href="#DejaVuSans-45"/>
       <use x="290.576172" xlink:href="#DejaVuSans-49"/>
       <use x="354.199219" xlink:href="#DejaVuSans-48"/>
      </g>
     </g>
    </g>
    <g id="xtick_10">
     <g id="line2d_10">
      <g>
       <use style="stroke:#000000;stroke-width:0.8;" x="581.4139" xlink:href="#mdd9c3e6f94" y="442.08"/>
      </g>
     </g>
     <g id="text_10">
      <!-- 2020-11 -->
      <g transform="translate(564.746233 494.473162)rotate(-45)scale(0.13 -0.13)">
       <use xlink:href="#DejaVuSans-50"/>
       <use x="63.623047" xlink:href="#DejaVuSans-48"/>
       <use x="127.246094" xlink:href="#DejaVuSans-50"/>
       <use x="190.869141" xlink:href="#DejaVuSans-48"/>
       <use x="254.492188" xlink:href="#DejaVuSans-45"/>
       <use x="290.576172" xlink:href="#DejaVuSans-49"/>
       <use x="354.199219" xlink:href="#DejaVuSans-49"/>
      </g>
     </g>
    </g>
    <g id="xtick_11">
     <g id="line2d_11">
      <g>
       <use style="stroke:#000000;stroke-width:0.8;" x="631.146521" xlink:href="#mdd9c3e6f94" y="442.08"/>
      </g>
     </g>
     <g id="text_11">
      <!-- 2020-12 -->
      <g transform="translate(614.478854 494.473162)rotate(-45)scale(0.13 -0.13)">
       <use xlink:href="#DejaVuSans-50"/>
       <use x="63.623047" xlink:href="#DejaVuSans-48"/>
       <use x="127.246094" xlink:href="#DejaVuSans-50"/>
       <use x="190.869141" xlink:href="#DejaVuSans-48"/>
       <use x="254.492188" xlink:href="#DejaVuSans-45"/>
       <use x="290.576172" xlink:href="#DejaVuSans-49"/>
       <use x="354.199219" xlink:href="#DejaVuSans-50"/>
      </g>
     </g>
    </g>
    <g id="text_12">
     <!-- Target End Date -->
     <defs>
      <path d="M -0.296875 72.90625 
L 61.375 72.90625 
L 61.375 64.59375 
L 35.5 64.59375 
L 35.5 0 
L 25.59375 0 
L 25.59375 64.59375 
L -0.296875 64.59375 
z
" id="DejaVuSans-84"/>
      <path d="M 34.28125 27.484375 
Q 23.390625 27.484375 19.1875 25 
Q 14.984375 22.515625 14.984375 16.5 
Q 14.984375 11.71875 18.140625 8.90625 
Q 21.296875 6.109375 26.703125 6.109375 
Q 34.1875 6.109375 38.703125 11.40625 
Q 43.21875 16.703125 43.21875 25.484375 
L 43.21875 27.484375 
z
M 52.203125 31.203125 
L 52.203125 0 
L 43.21875 0 
L 43.21875 8.296875 
Q 40.140625 3.328125 35.546875 0.953125 
Q 30.953125 -1.421875 24.3125 -1.421875 
Q 15.921875 -1.421875 10.953125 3.296875 
Q 6 8.015625 6 15.921875 
Q 6 25.140625 12.171875 29.828125 
Q 18.359375 34.515625 30.609375 34.515625 
L 43.21875 34.515625 
L 43.21875 35.40625 
Q 43.21875 41.609375 39.140625 45 
Q 35.0625 48.390625 27.6875 48.390625 
Q 23 48.390625 18.546875 47.265625 
Q 14.109375 46.140625 10.015625 43.890625 
L 10.015625 52.203125 
Q 14.9375 54.109375 19.578125 55.046875 
Q 24.21875 56 28.609375 56 
Q 40.484375 56 46.34375 49.84375 
Q 52.203125 43.703125 52.203125 31.203125 
z
" id="DejaVuSans-97"/>
      <path d="M 41.109375 46.296875 
Q 39.59375 47.171875 37.8125 47.578125 
Q 36.03125 48 33.890625 48 
Q 26.265625 48 22.1875 43.046875 
Q 18.109375 38.09375 18.109375 28.8125 
L 18.109375 0 
L 9.078125 0 
L 9.078125 54.6875 
L 18.109375 54.6875 
L 18.109375 46.1875 
Q 20.953125 51.171875 25.484375 53.578125 
Q 30.03125 56 36.53125 56 
Q 37.453125 56 38.578125 55.875 
Q 39.703125 55.765625 41.0625 55.515625 
z
" id="DejaVuSans-114"/>
      <path d="M 45.40625 27.984375 
Q 45.40625 37.75 41.375 43.109375 
Q 37.359375 48.484375 30.078125 48.484375 
Q 22.859375 48.484375 18.828125 43.109375 
Q 14.796875 37.75 14.796875 27.984375 
Q 14.796875 18.265625 18.828125 12.890625 
Q 22.859375 7.515625 30.078125 7.515625 
Q 37.359375 7.515625 41.375 12.890625 
Q 45.40625 18.265625 45.40625 27.984375 
z
M 54.390625 6.78125 
Q 54.390625 -7.171875 48.1875 -13.984375 
Q 42 -20.796875 29.203125 -20.796875 
Q 24.46875 -20.796875 20.265625 -20.09375 
Q 16.0625 -19.390625 12.109375 -17.921875 
L 12.109375 -9.1875 
Q 16.0625 -11.328125 19.921875 -12.34375 
Q 23.78125 -13.375 27.78125 -13.375 
Q 36.625 -13.375 41.015625 -8.765625 
Q 45.40625 -4.15625 45.40625 5.171875 
L 45.40625 9.625 
Q 42.625 4.78125 38.28125 2.390625 
Q 33.9375 0 27.875 0 
Q 17.828125 0 11.671875 7.65625 
Q 5.515625 15.328125 5.515625 27.984375 
Q 5.515625 40.671875 11.671875 48.328125 
Q 17.828125 56 27.875 56 
Q 33.9375 56 38.28125 53.609375 
Q 42.625 51.21875 45.40625 46.390625 
L 45.40625 54.6875 
L 54.390625 54.6875 
z
" id="DejaVuSans-103"/>
      <path d="M 56.203125 29.59375 
L 56.203125 25.203125 
L 14.890625 25.203125 
Q 15.484375 15.921875 20.484375 11.0625 
Q 25.484375 6.203125 34.421875 6.203125 
Q 39.59375 6.203125 44.453125 7.46875 
Q 49.3125 8.734375 54.109375 11.28125 
L 54.109375 2.78125 
Q 49.265625 0.734375 44.1875 -0.34375 
Q 39.109375 -1.421875 33.890625 -1.421875 
Q 20.796875 -1.421875 13.15625 6.1875 
Q 5.515625 13.8125 5.515625 26.8125 
Q 5.515625 40.234375 12.765625 48.109375 
Q 20.015625 56 32.328125 56 
Q 43.359375 56 49.78125 48.890625 
Q 56.203125 41.796875 56.203125 29.59375 
z
M 47.21875 32.234375 
Q 47.125 39.59375 43.09375 43.984375 
Q 39.0625 48.390625 32.421875 48.390625 
Q 24.90625 48.390625 20.390625 44.140625 
Q 15.875 39.890625 15.1875 32.171875 
z
" id="DejaVuSans-101"/>
      <path d="M 18.3125 70.21875 
L 18.3125 54.6875 
L 36.8125 54.6875 
L 36.8125 47.703125 
L 18.3125 47.703125 
L 18.3125 18.015625 
Q 18.3125 11.328125 20.140625 9.421875 
Q 21.96875 7.515625 27.59375 7.515625 
L 36.8125 7.515625 
L 36.8125 0 
L 27.59375 0 
Q 17.1875 0 13.234375 3.875 
Q 9.28125 7.765625 9.28125 18.015625 
L 9.28125 47.703125 
L 2.6875 47.703125 
L 2.6875 54.6875 
L 9.28125 54.6875 
L 9.28125 70.21875 
z
" id="DejaVuSans-116"/>
      <path id="DejaVuSans-32"/>
      <path d="M 9.8125 72.90625 
L 55.90625 72.90625 
L 55.90625 64.59375 
L 19.671875 64.59375 
L 19.671875 43.015625 
L 54.390625 43.015625 
L 54.390625 34.71875 
L 19.671875 34.71875 
L 19.671875 8.296875 
L 56.78125 8.296875 
L 56.78125 0 
L 9.8125 0 
z
" id="DejaVuSans-69"/>
      <path d="M 54.890625 33.015625 
L 54.890625 0 
L 45.90625 0 
L 45.90625 32.71875 
Q 45.90625 40.484375 42.875 44.328125 
Q 39.84375 48.1875 33.796875 48.1875 
Q 26.515625 48.1875 22.3125 43.546875 
Q 18.109375 38.921875 18.109375 30.90625 
L 18.109375 0 
L 9.078125 0 
L 9.078125 54.6875 
L 18.109375 54.6875 
L 18.109375 46.1875 
Q 21.34375 51.125 25.703125 53.5625 
Q 30.078125 56 35.796875 56 
Q 45.21875 56 50.046875 50.171875 
Q 54.890625 44.34375 54.890625 33.015625 
z
" id="DejaVuSans-110"/>
      <path d="M 45.40625 46.390625 
L 45.40625 75.984375 
L 54.390625 75.984375 
L 54.390625 0 
L 45.40625 0 
L 45.40625 8.203125 
Q 42.578125 3.328125 38.25 0.953125 
Q 33.9375 -1.421875 27.875 -1.421875 
Q 17.96875 -1.421875 11.734375 6.484375 
Q 5.515625 14.40625 5.515625 27.296875 
Q 5.515625 40.1875 11.734375 48.09375 
Q 17.96875 56 27.875 56 
Q 33.9375 56 38.25 53.625 
Q 42.578125 51.265625 45.40625 46.390625 
z
M 14.796875 27.296875 
Q 14.796875 17.390625 18.875 11.75 
Q 22.953125 6.109375 30.078125 6.109375 
Q 37.203125 6.109375 41.296875 11.75 
Q 45.40625 17.390625 45.40625 27.296875 
Q 45.40625 37.203125 41.296875 42.84375 
Q 37.203125 48.484375 30.078125 48.484375 
Q 22.953125 48.484375 18.875 42.84375 
Q 14.796875 37.203125 14.796875 27.296875 
z
" id="DejaVuSans-100"/>
      <path d="M 19.671875 64.796875 
L 19.671875 8.109375 
L 31.59375 8.109375 
Q 46.6875 8.109375 53.6875 14.9375 
Q 60.6875 21.78125 60.6875 36.53125 
Q 60.6875 51.171875 53.6875 57.984375 
Q 46.6875 64.796875 31.59375 64.796875 
z
M 9.8125 72.90625 
L 30.078125 72.90625 
Q 51.265625 72.90625 61.171875 64.09375 
Q 71.09375 55.28125 71.09375 36.53125 
Q 71.09375 17.671875 61.125 8.828125 
Q 51.171875 0 30.078125 0 
L 9.8125 0 
z
" id="DejaVuSans-68"/>
     </defs>
     <g transform="translate(292.0625 514.062079)scale(0.18 -0.18)">
      <use xlink:href="#DejaVuSans-84"/>
      <use x="44.583984" xlink:href="#DejaVuSans-97"/>
      <use x="105.863281" xlink:href="#DejaVuSans-114"/>
      <use x="145.226562" xlink:href="#DejaVuSans-103"/>
      <use x="208.703125" xlink:href="#DejaVuSans-101"/>
      <use x="270.226562" xlink:href="#DejaVuSans-116"/>
      <use x="309.435547" xlink:href="#DejaVuSans-32"/>
      <use x="341.222656" xlink:href="#DejaVuSans-69"/>
      <use x="404.40625" xlink:href="#DejaVuSans-110"/>
      <use x="467.785156" xlink:href="#DejaVuSans-100"/>
      <use x="531.261719" xlink:href="#DejaVuSans-32"/>
      <use x="563.048828" xlink:href="#DejaVuSans-68"/>
      <use x="640.050781" xlink:href="#DejaVuSans-97"/>
      <use x="701.330078" xlink:href="#DejaVuSans-116"/>
      <use x="740.539062" xlink:href="#DejaVuSans-101"/>
     </g>
    </g>
   </g>
   <g id="matplotlib.axis_2">
    <g id="ytick_1">
     <g id="line2d_12">
      <defs>
       <path d="M 0 0 
L -3.5 0 
" id="m41aa21caf5" style="stroke:#000000;stroke-width:0.8;"/>
      </defs>
      <g>
       <use style="stroke:#000000;stroke-width:0.8;" x="85.248125" xlink:href="#m41aa21caf5" y="442.08"/>
      </g>
     </g>
     <g id="text_13">
      <!-- 0 -->
      <g transform="translate(69.976875 447.018984)scale(0.13 -0.13)">
       <use xlink:href="#DejaVuSans-48"/>
      </g>
     </g>
    </g>
    <g id="ytick_2">
     <g id="line2d_13">
      <g>
       <use style="stroke:#000000;stroke-width:0.8;" x="85.248125" xlink:href="#m41aa21caf5" y="381.803801"/>
      </g>
     </g>
     <g id="text_14">
      <!-- 50000 -->
      <g transform="translate(36.891875 386.742785)scale(0.13 -0.13)">
       <use xlink:href="#DejaVuSans-53"/>
       <use x="63.623047" xlink:href="#DejaVuSans-48"/>
       <use x="127.246094" xlink:href="#DejaVuSans-48"/>
       <use x="190.869141" xlink:href="#DejaVuSans-48"/>
       <use x="254.492188" xlink:href="#DejaVuSans-48"/>
      </g>
     </g>
    </g>
    <g id="ytick_3">
     <g id="line2d_14">
      <g>
       <use style="stroke:#000000;stroke-width:0.8;" x="85.248125" xlink:href="#m41aa21caf5" y="321.527601"/>
      </g>
     </g>
     <g id="text_15">
      <!-- 100000 -->
      <g transform="translate(28.620625 326.466586)scale(0.13 -0.13)">
       <use xlink:href="#DejaVuSans-49"/>
       <use x="63.623047" xlink:href="#DejaVuSans-48"/>
       <use x="127.246094" xlink:href="#DejaVuSans-48"/>
       <use x="190.869141" xlink:href="#DejaVuSans-48"/>
       <use x="254.492188" xlink:href="#DejaVuSans-48"/>
       <use x="318.115234" xlink:href="#DejaVuSans-48"/>
      </g>
     </g>
    </g>
    <g id="ytick_4">
     <g id="line2d_15">
      <g>
       <use style="stroke:#000000;stroke-width:0.8;" x="85.248125" xlink:href="#m41aa21caf5" y="261.251402"/>
      </g>
     </g>
     <g id="text_16">
      <!-- 150000 -->
      <g transform="translate(28.620625 266.190386)scale(0.13 -0.13)">
       <use xlink:href="#DejaVuSans-49"/>
       <use x="63.623047" xlink:href="#DejaVuSans-53"/>
       <use x="127.246094" xlink:href="#DejaVuSans-48"/>
       <use x="190.869141" xlink:href="#DejaVuSans-48"/>
       <use x="254.492188" xlink:href="#DejaVuSans-48"/>
       <use x="318.115234" xlink:href="#DejaVuSans-48"/>
      </g>
     </g>
    </g>
    <g id="ytick_5">
     <g id="line2d_16">
      <g>
       <use style="stroke:#000000;stroke-width:0.8;" x="85.248125" xlink:href="#m41aa21caf5" y="200.975202"/>
      </g>
     </g>
     <g id="text_17">
      <!-- 200000 -->
      <g transform="translate(28.620625 205.914187)scale(0.13 -0.13)">
       <use xlink:href="#DejaVuSans-50"/>
       <use x="63.623047" xlink:href="#DejaVuSans-48"/>
       <use x="127.246094" xlink:href="#DejaVuSans-48"/>
       <use x="190.869141" xlink:href="#DejaVuSans-48"/>
       <use x="254.492188" xlink:href="#DejaVuSans-48"/>
       <use x="318.115234" xlink:href="#DejaVuSans-48"/>
      </g>
     </g>
    </g>
    <g id="ytick_6">
     <g id="line2d_17">
      <g>
       <use style="stroke:#000000;stroke-width:0.8;" x="85.248125" xlink:href="#m41aa21caf5" y="140.699003"/>
      </g>
     </g>
     <g id="text_18">
      <!-- 250000 -->
      <g transform="translate(28.620625 145.637987)scale(0.13 -0.13)">
       <use xlink:href="#DejaVuSans-50"/>
       <use x="63.623047" xlink:href="#DejaVuSans-53"/>
       <use x="127.246094" xlink:href="#DejaVuSans-48"/>
       <use x="190.869141" xlink:href="#DejaVuSans-48"/>
       <use x="254.492188" xlink:href="#DejaVuSans-48"/>
       <use x="318.115234" xlink:href="#DejaVuSans-48"/>
      </g>
     </g>
    </g>
    <g id="ytick_7">
     <g id="line2d_18">
      <g>
       <use style="stroke:#000000;stroke-width:0.8;" x="85.248125" xlink:href="#m41aa21caf5" y="80.422804"/>
      </g>
     </g>
     <g id="text_19">
      <!-- 300000 -->
      <g transform="translate(28.620625 85.361788)scale(0.13 -0.13)">
       <use xlink:href="#DejaVuSans-51"/>
       <use x="63.623047" xlink:href="#DejaVuSans-48"/>
       <use x="127.246094" xlink:href="#DejaVuSans-48"/>
       <use x="190.869141" xlink:href="#DejaVuSans-48"/>
       <use x="254.492188" xlink:href="#DejaVuSans-48"/>
       <use x="318.115234" xlink:href="#DejaVuSans-48"/>
      </g>
     </g>
    </g>
    <g id="ytick_8">
     <g id="line2d_19">
      <g>
       <use style="stroke:#000000;stroke-width:0.8;" x="85.248125" xlink:href="#m41aa21caf5" y="20.146604"/>
      </g>
     </g>
     <g id="text_20">
      <!-- 350000 -->
      <g transform="translate(28.620625 25.085589)scale(0.13 -0.13)">
       <use xlink:href="#DejaVuSans-51"/>
       <use x="63.623047" xlink:href="#DejaVuSans-53"/>
       <use x="127.246094" xlink:href="#DejaVuSans-48"/>
       <use x="190.869141" xlink:href="#DejaVuSans-48"/>
       <use x="254.492188" xlink:href="#DejaVuSans-48"/>
       <use x="318.115234" xlink:href="#DejaVuSans-48"/>
      </g>
     </g>
    </g>
    <g id="text_21">
     <!-- US cumulative deaths -->
     <defs>
      <path d="M 8.6875 72.90625 
L 18.609375 72.90625 
L 18.609375 28.609375 
Q 18.609375 16.890625 22.84375 11.734375 
Q 27.09375 6.59375 36.625 6.59375 
Q 46.09375 6.59375 50.34375 11.734375 
Q 54.59375 16.890625 54.59375 28.609375 
L 54.59375 72.90625 
L 64.5 72.90625 
L 64.5 27.390625 
Q 64.5 13.140625 57.4375 5.859375 
Q 50.390625 -1.421875 36.625 -1.421875 
Q 22.796875 -1.421875 15.734375 5.859375 
Q 8.6875 13.140625 8.6875 27.390625 
z
" id="DejaVuSans-85"/>
      <path d="M 53.515625 70.515625 
L 53.515625 60.890625 
Q 47.90625 63.578125 42.921875 64.890625 
Q 37.9375 66.21875 33.296875 66.21875 
Q 25.25 66.21875 20.875 63.09375 
Q 16.5 59.96875 16.5 54.203125 
Q 16.5 49.359375 19.40625 46.890625 
Q 22.3125 44.4375 30.421875 42.921875 
L 36.375 41.703125 
Q 47.40625 39.59375 52.65625 34.296875 
Q 57.90625 29 57.90625 20.125 
Q 57.90625 9.515625 50.796875 4.046875 
Q 43.703125 -1.421875 29.984375 -1.421875 
Q 24.8125 -1.421875 18.96875 -0.25 
Q 13.140625 0.921875 6.890625 3.21875 
L 6.890625 13.375 
Q 12.890625 10.015625 18.65625 8.296875 
Q 24.421875 6.59375 29.984375 6.59375 
Q 38.421875 6.59375 43.015625 9.90625 
Q 47.609375 13.234375 47.609375 19.390625 
Q 47.609375 24.75 44.3125 27.78125 
Q 41.015625 30.8125 33.5 32.328125 
L 27.484375 33.5 
Q 16.453125 35.6875 11.515625 40.375 
Q 6.59375 45.0625 6.59375 53.421875 
Q 6.59375 63.09375 13.40625 68.65625 
Q 20.21875 74.21875 32.171875 74.21875 
Q 37.3125 74.21875 42.625 73.28125 
Q 47.953125 72.359375 53.515625 70.515625 
z
" id="DejaVuSans-83"/>
      <path d="M 48.78125 52.59375 
L 48.78125 44.1875 
Q 44.96875 46.296875 41.140625 47.34375 
Q 37.3125 48.390625 33.40625 48.390625 
Q 24.65625 48.390625 19.8125 42.84375 
Q 14.984375 37.3125 14.984375 27.296875 
Q 14.984375 17.28125 19.8125 11.734375 
Q 24.65625 6.203125 33.40625 6.203125 
Q 37.3125 6.203125 41.140625 7.25 
Q 44.96875 8.296875 48.78125 10.40625 
L 48.78125 2.09375 
Q 45.015625 0.34375 40.984375 -0.53125 
Q 36.96875 -1.421875 32.421875 -1.421875 
Q 20.0625 -1.421875 12.78125 6.34375 
Q 5.515625 14.109375 5.515625 27.296875 
Q 5.515625 40.671875 12.859375 48.328125 
Q 20.21875 56 33.015625 56 
Q 37.15625 56 41.109375 55.140625 
Q 45.0625 54.296875 48.78125 52.59375 
z
" id="DejaVuSans-99"/>
      <path d="M 8.5 21.578125 
L 8.5 54.6875 
L 17.484375 54.6875 
L 17.484375 21.921875 
Q 17.484375 14.15625 20.5 10.265625 
Q 23.53125 6.390625 29.59375 6.390625 
Q 36.859375 6.390625 41.078125 11.03125 
Q 45.3125 15.671875 45.3125 23.6875 
L 45.3125 54.6875 
L 54.296875 54.6875 
L 54.296875 0 
L 45.3125 0 
L 45.3125 8.40625 
Q 42.046875 3.421875 37.71875 1 
Q 33.40625 -1.421875 27.6875 -1.421875 
Q 18.265625 -1.421875 13.375 4.4375 
Q 8.5 10.296875 8.5 21.578125 
z
M 31.109375 56 
z
" id="DejaVuSans-117"/>
      <path d="M 52 44.1875 
Q 55.375 50.25 60.0625 53.125 
Q 64.75 56 71.09375 56 
Q 79.640625 56 84.28125 50.015625 
Q 88.921875 44.046875 88.921875 33.015625 
L 88.921875 0 
L 79.890625 0 
L 79.890625 32.71875 
Q 79.890625 40.578125 77.09375 44.375 
Q 74.3125 48.1875 68.609375 48.1875 
Q 61.625 48.1875 57.5625 43.546875 
Q 53.515625 38.921875 53.515625 30.90625 
L 53.515625 0 
L 44.484375 0 
L 44.484375 32.71875 
Q 44.484375 40.625 41.703125 44.40625 
Q 38.921875 48.1875 33.109375 48.1875 
Q 26.21875 48.1875 22.15625 43.53125 
Q 18.109375 38.875 18.109375 30.90625 
L 18.109375 0 
L 9.078125 0 
L 9.078125 54.6875 
L 18.109375 54.6875 
L 18.109375 46.1875 
Q 21.1875 51.21875 25.484375 53.609375 
Q 29.78125 56 35.6875 56 
Q 41.65625 56 45.828125 52.96875 
Q 50 49.953125 52 44.1875 
z
" id="DejaVuSans-109"/>
      <path d="M 9.421875 75.984375 
L 18.40625 75.984375 
L 18.40625 0 
L 9.421875 0 
z
" id="DejaVuSans-108"/>
      <path d="M 9.421875 54.6875 
L 18.40625 54.6875 
L 18.40625 0 
L 9.421875 0 
z
M 9.421875 75.984375 
L 18.40625 75.984375 
L 18.40625 64.59375 
L 9.421875 64.59375 
z
" id="DejaVuSans-105"/>
      <path d="M 2.984375 54.6875 
L 12.5 54.6875 
L 29.59375 8.796875 
L 46.6875 54.6875 
L 56.203125 54.6875 
L 35.6875 0 
L 23.484375 0 
z
" id="DejaVuSans-118"/>
      <path d="M 54.890625 33.015625 
L 54.890625 0 
L 45.90625 0 
L 45.90625 32.71875 
Q 45.90625 40.484375 42.875 44.328125 
Q 39.84375 48.1875 33.796875 48.1875 
Q 26.515625 48.1875 22.3125 43.546875 
Q 18.109375 38.921875 18.109375 30.90625 
L 18.109375 0 
L 9.078125 0 
L 9.078125 75.984375 
L 18.109375 75.984375 
L 18.109375 46.1875 
Q 21.34375 51.125 25.703125 53.5625 
Q 30.078125 56 35.796875 56 
Q 45.21875 56 50.046875 50.171875 
Q 54.890625 44.34375 54.890625 33.015625 
z
" id="DejaVuSans-104"/>
      <path d="M 44.28125 53.078125 
L 44.28125 44.578125 
Q 40.484375 46.53125 36.375 47.5 
Q 32.28125 48.484375 27.875 48.484375 
Q 21.1875 48.484375 17.84375 46.4375 
Q 14.5 44.390625 14.5 40.28125 
Q 14.5 37.15625 16.890625 35.375 
Q 19.28125 33.59375 26.515625 31.984375 
L 29.59375 31.296875 
Q 39.15625 29.25 43.1875 25.515625 
Q 47.21875 21.78125 47.21875 15.09375 
Q 47.21875 7.46875 41.1875 3.015625 
Q 35.15625 -1.421875 24.609375 -1.421875 
Q 20.21875 -1.421875 15.453125 -0.5625 
Q 10.6875 0.296875 5.421875 2 
L 5.421875 11.28125 
Q 10.40625 8.6875 15.234375 7.390625 
Q 20.0625 6.109375 24.8125 6.109375 
Q 31.15625 6.109375 34.5625 8.28125 
Q 37.984375 10.453125 37.984375 14.40625 
Q 37.984375 18.0625 35.515625 20.015625 
Q 33.0625 21.96875 24.703125 23.78125 
L 21.578125 24.515625 
Q 13.234375 26.265625 9.515625 29.90625 
Q 5.8125 33.546875 5.8125 39.890625 
Q 5.8125 47.609375 11.28125 51.796875 
Q 16.75 56 26.8125 56 
Q 31.78125 56 36.171875 55.265625 
Q 40.578125 54.546875 44.28125 53.078125 
z
" id="DejaVuSans-115"/>
     </defs>
     <g transform="translate(20.877188 323.379844)rotate(-90)scale(0.18 -0.18)">
      <use xlink:href="#DejaVuSans-85"/>
      <use x="73.193359" xlink:href="#DejaVuSans-83"/>
      <use x="136.669922" xlink:href="#DejaVuSans-32"/>
      <use x="168.457031" xlink:href="#DejaVuSans-99"/>
      <use x="223.4375" xlink:href="#DejaVuSans-117"/>
      <use x="286.816406" xlink:href="#DejaVuSans-109"/>
      <use x="384.228516" xlink:href="#DejaVuSans-117"/>
      <use x="447.607422" xlink:href="#DejaVuSans-108"/>
      <use x="475.390625" xlink:href="#DejaVuSans-97"/>
      <use x="536.669922" xlink:href="#DejaVuSans-116"/>
      <use x="575.878906" xlink:href="#DejaVuSans-105"/>
      <use x="603.662109" xlink:href="#DejaVuSans-118"/>
      <use x="662.841797" xlink:href="#DejaVuSans-101"/>
      <use x="724.365234" xlink:href="#DejaVuSans-32"/>
      <use x="756.152344" xlink:href="#DejaVuSans-100"/>
      <use x="819.628906" xlink:href="#DejaVuSans-101"/>
      <use x="881.152344" xlink:href="#DejaVuSans-97"/>
      <use x="942.431641" xlink:href="#DejaVuSans-116"/>
      <use x="981.640625" xlink:href="#DejaVuSans-104"/>
      <use x="1045.019531" xlink:href="#DejaVuSans-115"/>
     </g>
    </g>
   </g>
   <g id="line2d_20">
    <path clip-path="url(#pd277f36f0c)" d="M 208.419248 441.835279 
L 220.023526 438.99627 
L 231.627804 429.360516 
L 243.232082 416.416404 
L 254.83636 399.501523 
L 266.440638 374.150383 
L 278.044916 364.224339 
L 289.649195 349.01123 
L 301.253473 334.657521 
L 312.857751 324.463381 
L 324.462029 316.176227 
L 336.066307 309.18948 
L 347.670585 297.277031 
L 359.274863 296.260532 
L 370.879141 292.220912 
L 382.483419 285.593383 
L 394.087697 281.343733 
L 405.691975 274.623819 
L 417.296253 267.149248 
L 428.900531 258.887742 
L 440.504809 248.877919 
L 452.109088 238.525092 
L 463.713366 231.262273 
L 475.317644 222.875335 
L 486.921922 215.141835 
L 498.5262 208.558173 
L 510.130478 203.114214 
L 521.734756 196.383156 
L 533.339034 190.04188 
L 544.943312 184.182419 
L 556.54759 178.143435 
L 568.151868 171.931862 
L 579.756146 164.478283 
L 591.360424 157.038229 
L 602.964703 148.03883 
L 614.568981 135.951293 
" style="fill:none;stroke:#0010ff;stroke-linecap:square;stroke-width:1.5;"/>
   </g>
   <g id="line2d_21">
    <path clip-path="url(#pd277f36f0c)" d="M 254.83636 416.560263 
L 266.440638 380.074636 
L 278.044916 361.830379 
L 289.649195 349.666969 
L 301.253473 335.097772 
L 312.857751 323.793943 
L 324.462029 314.847851 
L 336.066307 308.483507 
L 347.670585 302.634392 
L 359.274863 289.470648 
L 370.879141 290.29539 
L 382.483419 286.113118 
L 394.087697 279.696226 
L 405.691975 275.215342 
L 417.296253 268.07405 
L 428.900531 259.562707 
L 440.504809 249.904966 
L 452.109088 239.870504 
L 463.713366 229.647611 
L 475.317644 223.446351 
L 486.921922 215.570913 
L 498.5262 208.521766 
L 510.130478 202.376781 
L 521.734756 197.373325 
L 533.339034 190.565211 
L 544.943312 184.066948 
L 556.54759 178.518398 
L 568.151868 172.019399 
L 579.756146 165.65813 
L 591.360424 157.129365 
L 602.964703 149.296295 
L 614.568981 138.841561 
" style="fill:none;stroke:#00a4ff;stroke-linecap:square;stroke-width:1.5;"/>
   </g>
   <g id="line2d_22">
    <path clip-path="url(#pd277f36f0c)" d="M 266.440638 408.868348 
L 278.044916 365.211497 
L 289.649195 342.891516 
L 301.253473 335.170906 
L 312.857751 325.754941 
L 324.462029 313.882795 
L 336.066307 306.494439 
L 347.670585 300.939688 
L 359.274863 296.314445 
L 370.879141 282.501744 
L 382.483419 283.915286 
L 394.087697 279.581221 
L 405.691975 273.543314 
L 417.296253 268.575028 
L 428.900531 261.408546 
L 440.504809 251.838327 
L 452.109088 240.51613 
L 463.713366 230.595796 
L 475.317644 220.518725 
L 486.921922 215.906325 
L 498.5262 208.471871 
L 510.130478 202.001077 
L 521.734756 196.170512 
L 533.339034 191.718218 
L 544.943312 184.668615 
L 556.54759 177.967137 
L 568.151868 172.835762 
L 579.756146 165.759329 
L 591.360424 159.169292 
L 602.964703 149.238661 
L 614.568981 140.871491 
" style="fill:none;stroke:#40ffb7;stroke-linecap:square;stroke-width:1.5;"/>
   </g>
   <g id="line2d_23">
    <path clip-path="url(#pd277f36f0c)" d="M 278.044916 401.177411 
L 289.649195 347.458062 
L 301.253473 316.931167 
L 312.857751 320.317709 
L 324.462029 315.28023 
L 336.066307 304.242799 
L 347.670585 298.674303 
L 359.274863 293.651409 
L 370.879141 290.289854 
L 382.483419 275.47259 
L 394.087697 277.194654 
L 405.691975 272.399339 
L 417.296253 266.989808 
L 428.900531 261.114102 
L 440.504809 254.536578 
L 452.109088 243.928179 
L 463.713366 230.408933 
L 475.317644 220.994812 
L 486.921922 211.165579 
L 498.5262 208.456532 
L 510.130478 201.609979 
L 521.734756 195.458296 
L 533.339034 189.937004 
L 544.943312 186.010708 
L 556.54759 178.473369 
L 568.151868 171.617756 
L 579.756146 167.335302 
L 591.360424 159.173219 
L 602.964703 152.512477 
L 614.568981 140.816792 
" style="fill:none;stroke:#b7ff40;stroke-linecap:square;stroke-width:1.5;"/>
   </g>
   <g id="line2d_24">
    <path clip-path="url(#pd277f36f0c)" d="M 301.253473 330.038377 
L 312.857751 315.861048 
L 324.462029 299.627684 
L 336.066307 302.846217 
L 347.670585 295.620204 
L 359.274863 291.401131 
L 370.879141 291.589139 
L 382.483419 291.702554 
L 394.087697 284.821016 
L 405.691975 277.952115 
L 417.296253 276.215593 
L 428.900531 261.006436 
L 440.504809 258.148119 
L 452.109088 248.023355 
L 463.713366 232.808543 
L 475.317644 223.786829 
L 486.921922 214.084543 
L 498.5262 205.181965 
L 510.130478 204.025505 
L 521.734756 197.069237 
L 533.339034 189.375476 
L 544.943312 186.149013 
L 556.54759 182.440419 
L 568.151868 172.776719 
L 579.756146 167.703473 
L 591.360424 161.315628 
L 602.964703 152.284092 
L 614.568981 145.876758 
" style="fill:none;stroke:#ffb900;stroke-linecap:square;stroke-width:1.5;"/>
   </g>
   <g id="line2d_25">
    <path clip-path="url(#pd277f36f0c)" d="M 312.857751 314.695393 
L 324.462029 302.556952 
L 336.066307 278.796951 
L 347.670585 273.458471 
L 359.274863 285.018433 
L 370.879141 285.799077 
L 382.483419 280.270201 
L 394.087697 288.192495 
L 405.691975 281.347197 
L 417.296253 274.916212 
L 428.900531 272.482524 
L 440.504809 262.643119 
L 452.109088 250.860799 
L 463.713366 243.027627 
L 475.317644 225.417903 
L 486.921922 217.370888 
L 498.5262 205.302043 
L 510.130478 201.185258 
L 521.734756 201.461074 
L 533.339034 192.400086 
L 544.943312 185.94302 
L 556.54759 180.938751 
L 568.151868 178.136337 
L 579.756146 171.31827 
L 591.360424 162.466765 
L 602.964703 158.797386 
L 614.568981 148.893404 
" style="fill:none;stroke:#ff3000;stroke-linecap:square;stroke-width:1.5;"/>
   </g>
   <g id="line2d_26">
    <path clip-path="url(#pd277f36f0c)" d="M 324.462029 341.32738 
L 336.066307 306.782269 
L 347.670585 306.911196 
L 359.274863 292.666279 
L 370.879141 287.980182 
L 382.483419 283.891878 
L 394.087697 264.148239 
L 405.691975 285.899515 
L 417.296253 280.780801 
L 428.900531 272.619733 
L 440.504809 267.639392 
L 452.109088 260.070872 
L 463.713366 242.615104 
L 475.317644 235.45685 
L 486.921922 218.092916 
L 498.5262 214.940696 
L 510.130478 206.370833 
L 521.734756 200.246213 
L 533.339034 198.981506 
L 544.943312 189.844228 
L 556.54759 181.863957 
L 568.151868 179.08155 
L 579.756146 175.103454 
L 591.360424 167.361544 
L 602.964703 156.749305 
L 614.568981 152.751504 
" style="fill:none;stroke:#800000;stroke-linecap:square;stroke-width:1.5;"/>
   </g>
   <g id="line2d_27">
    <path clip-path="url(#pd277f36f0c)" d="M 110.611761 442.08 
L 198.472724 441.995613 
L 205.10374 441.761742 
L 210.077002 441.388029 
L 213.39251 440.870859 
L 216.708018 439.981183 
L 218.365772 439.356721 
L 223.339034 437.04091 
L 226.654542 434.301959 
L 233.285558 427.061582 
L 234.943312 424.920572 
L 236.601066 421.829608 
L 243.232082 411.302973 
L 246.54759 406.781052 
L 251.520852 398.071141 
L 254.83636 393.175508 
L 256.494114 390.846436 
L 258.151868 388.218394 
L 263.12513 379.242062 
L 264.782884 376.63813 
L 266.440638 374.585123 
L 268.098392 372.976954 
L 269.756146 371.210861 
L 271.4139 368.509282 
L 274.729408 362.550377 
L 276.387162 360.287608 
L 278.044916 358.25389 
L 279.70267 356.924197 
L 281.360424 355.335316 
L 284.675932 349.738068 
L 286.333686 347.41864 
L 287.991441 345.306562 
L 289.649195 343.447644 
L 292.964703 341.154737 
L 296.280211 337.10056 
L 299.595719 332.955969 
L 301.253473 331.422542 
L 302.911227 330.512372 
L 304.568981 329.105525 
L 307.884489 325.43591 
L 312.857751 321.108079 
L 317.831013 318.893531 
L 319.488767 317.075601 
L 322.804275 314.257086 
L 324.462029 313.107016 
L 327.777537 311.339718 
L 332.750799 307.665281 
L 334.408553 306.573076 
L 336.066307 305.732826 
L 339.381815 304.602044 
L 344.355077 301.367624 
L 347.670585 299.447224 
L 350.986093 298.608179 
L 354.301601 296.737206 
L 357.617109 295.086844 
L 359.274863 294.355091 
L 362.590371 293.538951 
L 365.905879 291.613729 
L 370.879141 289.601709 
L 372.536895 289.266574 
L 374.194649 288.810886 
L 377.510157 287.195484 
L 380.825665 285.533066 
L 384.141173 284.860384 
L 385.798927 284.425189 
L 387.456681 282.970122 
L 389.114435 281.929755 
L 390.772189 280.726642 
L 392.429943 279.736907 
L 394.087697 278.901479 
L 397.403205 277.902099 
L 405.691975 272.312084 
L 409.007483 271.134287 
L 410.665237 269.807006 
L 412.322991 268.336266 
L 415.638499 265.657592 
L 417.296253 264.587087 
L 418.954007 264.004819 
L 420.611761 262.658248 
L 425.585023 257.814453 
L 427.242777 256.317192 
L 428.900531 254.980266 
L 430.558285 254.484796 
L 432.216039 253.835018 
L 437.189301 249.015333 
L 438.847055 247.5241 
L 440.504809 246.218518 
L 443.820318 244.962362 
L 445.478072 243.673657 
L 447.135826 241.858137 
L 448.79358 240.57546 
L 450.451334 238.956441 
L 452.109088 237.714752 
L 453.766842 237.021575 
L 455.424596 236.485117 
L 458.740104 233.274807 
L 463.713366 229.449679 
L 467.028874 228.365913 
L 470.344382 225.402735 
L 472.002136 224.071837 
L 475.317644 221.737942 
L 476.975398 221.361819 
L 478.633152 220.644532 
L 485.264168 215.640402 
L 486.921922 214.708532 
L 488.579676 214.213061 
L 490.23743 213.882748 
L 491.895184 213.343879 
L 493.552938 211.917744 
L 495.210692 210.824333 
L 496.868446 209.362033 
L 498.5262 208.506111 
L 501.841708 207.529636 
L 503.499462 205.976921 
L 506.81497 203.747908 
L 508.472724 202.624359 
L 510.130478 201.76241 
L 511.788232 201.470673 
L 513.445986 200.95712 
L 520.077002 196.157929 
L 521.734756 195.258608 
L 525.050264 194.531677 
L 531.68128 190.164063 
L 533.339034 189.343102 
L 534.996788 188.922374 
L 536.654542 188.365422 
L 538.312296 187.515527 
L 543.285558 184.062906 
L 544.943312 183.307043 
L 548.25882 182.39205 
L 549.916574 181.431248 
L 551.574328 180.249834 
L 556.54759 177.249285 
L 559.863098 176.172752 
L 561.520852 175.044381 
L 563.178606 173.697811 
L 566.494114 171.510991 
L 568.151868 170.375387 
L 569.809622 169.919699 
L 571.467376 169.312115 
L 579.756146 163.455679 
L 581.4139 162.963826 
L 583.071654 162.31887 
L 584.729408 160.423787 
L 588.044916 157.733057 
L 591.360424 155.149619 
L 593.018178 154.578201 
L 594.675932 153.739156 
L 597.991441 150.380566 
L 602.964703 146.014158 
L 604.622457 145.271556 
L 606.280211 144.357768 
L 609.595719 140.072131 
L 612.911227 135.379026 
L 614.568981 133.633427 
L 617.884489 131.451429 
L 617.884489 131.451429 
" style="fill:none;stroke:#000000;stroke-linecap:square;stroke-width:3;"/>
   </g>
   <g id="patch_3">
    <path d="M 85.248125 442.08 
L 85.248125 7.2 
" style="fill:none;stroke:#000000;stroke-linecap:square;stroke-linejoin:miter;stroke-width:0.8;"/>
   </g>
   <g id="patch_4">
    <path d="M 643.248125 442.08 
L 643.248125 7.2 
" style="fill:none;stroke:#000000;stroke-linecap:square;stroke-linejoin:miter;stroke-width:0.8;"/>
   </g>
   <g id="patch_5">
    <path d="M 85.248125 442.08 
L 643.248125 442.08 
" style="fill:none;stroke:#000000;stroke-linecap:square;stroke-linejoin:miter;stroke-width:0.8;"/>
   </g>
   <g id="patch_6">
    <path d="M 85.248125 7.2 
L 643.248125 7.2 
" style="fill:none;stroke:#000000;stroke-linecap:square;stroke-linejoin:miter;stroke-width:0.8;"/>
   </g>
   <g id="legend_1">
    <g id="patch_7">
     <path d="M 92.248125 141.946875 
L 199.97625 141.946875 
Q 201.97625 141.946875 201.97625 139.946875 
L 201.97625 14.2 
Q 201.97625 12.2 199.97625 12.2 
L 92.248125 12.2 
Q 90.248125 12.2 90.248125 14.2 
L 90.248125 139.946875 
Q 90.248125 141.946875 92.248125 141.946875 
z
" style="fill:#ffffff;opacity:0.8;stroke:#cccccc;stroke-linejoin:miter;"/>
    </g>
    <g id="line2d_28">
     <path d="M 94.248125 20.298438 
L 114.248125 20.298438 
" style="fill:none;stroke:#0010ff;stroke-linecap:square;stroke-width:1.5;"/>
    </g>
    <g id="line2d_29"/>
    <g id="text_22">
     <!-- 1 weeks-ahead -->
     <defs>
      <path d="M 4.203125 54.6875 
L 13.1875 54.6875 
L 24.421875 12.015625 
L 35.59375 54.6875 
L 46.1875 54.6875 
L 57.421875 12.015625 
L 68.609375 54.6875 
L 77.59375 54.6875 
L 63.28125 0 
L 52.6875 0 
L 40.921875 44.828125 
L 29.109375 0 
L 18.5 0 
z
" id="DejaVuSans-119"/>
      <path d="M 9.078125 75.984375 
L 18.109375 75.984375 
L 18.109375 31.109375 
L 44.921875 54.6875 
L 56.390625 54.6875 
L 27.390625 29.109375 
L 57.625 0 
L 45.90625 0 
L 18.109375 26.703125 
L 18.109375 0 
L 9.078125 0 
z
" id="DejaVuSans-107"/>
     </defs>
     <g transform="translate(122.248125 23.798438)scale(0.1 -0.1)">
      <use xlink:href="#DejaVuSans-49"/>
      <use x="63.623047" xlink:href="#DejaVuSans-32"/>
      <use x="95.410156" xlink:href="#DejaVuSans-119"/>
      <use x="177.197266" xlink:href="#DejaVuSans-101"/>
      <use x="238.720703" xlink:href="#DejaVuSans-101"/>
      <use x="300.244141" xlink:href="#DejaVuSans-107"/>
      <use x="358.154297" xlink:href="#DejaVuSans-115"/>
      <use x="410.253906" xlink:href="#DejaVuSans-45"/>
      <use x="446.337891" xlink:href="#DejaVuSans-97"/>
      <use x="507.617188" xlink:href="#DejaVuSans-104"/>
      <use x="570.996094" xlink:href="#DejaVuSans-101"/>
      <use x="632.519531" xlink:href="#DejaVuSans-97"/>
      <use x="693.798828" xlink:href="#DejaVuSans-100"/>
     </g>
    </g>
    <g id="line2d_30">
     <path d="M 94.248125 38.976563 
L 114.248125 38.976563 
" style="fill:none;stroke:#00a4ff;stroke-linecap:square;stroke-width:1.5;"/>
    </g>
    <g id="line2d_31"/>
    <g id="text_23">
     <!-- 2 weeks-ahead -->
     <g transform="translate(122.248125 42.476563)scale(0.1 -0.1)">
      <use xlink:href="#DejaVuSans-50"/>
      <use x="63.623047" xlink:href="#DejaVuSans-32"/>
      <use x="95.410156" xlink:href="#DejaVuSans-119"/>
      <use x="177.197266" xlink:href="#DejaVuSans-101"/>
      <use x="238.720703" xlink:href="#DejaVuSans-101"/>
      <use x="300.244141" xlink:href="#DejaVuSans-107"/>
      <use x="358.154297" xlink:href="#DejaVuSans-115"/>
      <use x="410.253906" xlink:href="#DejaVuSans-45"/>
      <use x="446.337891" xlink:href="#DejaVuSans-97"/>
      <use x="507.617188" xlink:href="#DejaVuSans-104"/>
      <use x="570.996094" xlink:href="#DejaVuSans-101"/>
      <use x="632.519531" xlink:href="#DejaVuSans-97"/>
      <use x="693.798828" xlink:href="#DejaVuSans-100"/>
     </g>
    </g>
    <g id="line2d_32">
     <path d="M 94.248125 57.654688 
L 114.248125 57.654688 
" style="fill:none;stroke:#40ffb7;stroke-linecap:square;stroke-width:1.5;"/>
    </g>
    <g id="line2d_33"/>
    <g id="text_24">
     <!-- 3 weeks-ahead -->
     <g transform="translate(122.248125 61.154688)scale(0.1 -0.1)">
      <use xlink:href="#DejaVuSans-51"/>
      <use x="63.623047" xlink:href="#DejaVuSans-32"/>
      <use x="95.410156" xlink:href="#DejaVuSans-119"/>
      <use x="177.197266" xlink:href="#DejaVuSans-101"/>
      <use x="238.720703" xlink:href="#DejaVuSans-101"/>
      <use x="300.244141" xlink:href="#DejaVuSans-107"/>
      <use x="358.154297" xlink:href="#DejaVuSans-115"/>
      <use x="410.253906" xlink:href="#DejaVuSans-45"/>
      <use x="446.337891" xlink:href="#DejaVuSans-97"/>
      <use x="507.617188" xlink:href="#DejaVuSans-104"/>
      <use x="570.996094" xlink:href="#DejaVuSans-101"/>
      <use x="632.519531" xlink:href="#DejaVuSans-97"/>
      <use x="693.798828" xlink:href="#DejaVuSans-100"/>
     </g>
    </g>
    <g id="line2d_34">
     <path d="M 94.248125 76.332813 
L 114.248125 76.332813 
" style="fill:none;stroke:#b7ff40;stroke-linecap:square;stroke-width:1.5;"/>
    </g>
    <g id="line2d_35"/>
    <g id="text_25">
     <!-- 4 weeks-ahead -->
     <g transform="translate(122.248125 79.832813)scale(0.1 -0.1)">
      <use xlink:href="#DejaVuSans-52"/>
      <use x="63.623047" xlink:href="#DejaVuSans-32"/>
      <use x="95.410156" xlink:href="#DejaVuSans-119"/>
      <use x="177.197266" xlink:href="#DejaVuSans-101"/>
      <use x="238.720703" xlink:href="#DejaVuSans-101"/>
      <use x="300.244141" xlink:href="#DejaVuSans-107"/>
      <use x="358.154297" xlink:href="#DejaVuSans-115"/>
      <use x="410.253906" xlink:href="#DejaVuSans-45"/>
      <use x="446.337891" xlink:href="#DejaVuSans-97"/>
      <use x="507.617188" xlink:href="#DejaVuSans-104"/>
      <use x="570.996094" xlink:href="#DejaVuSans-101"/>
      <use x="632.519531" xlink:href="#DejaVuSans-97"/>
      <use x="693.798828" xlink:href="#DejaVuSans-100"/>
     </g>
    </g>
    <g id="line2d_36">
     <path d="M 94.248125 95.010938 
L 114.248125 95.010938 
" style="fill:none;stroke:#ffb900;stroke-linecap:square;stroke-width:1.5;"/>
    </g>
    <g id="line2d_37"/>
    <g id="text_26">
     <!-- 5 weeks-ahead -->
     <g transform="translate(122.248125 98.510938)scale(0.1 -0.1)">
      <use xlink:href="#DejaVuSans-53"/>
      <use x="63.623047" xlink:href="#DejaVuSans-32"/>
      <use x="95.410156" xlink:href="#DejaVuSans-119"/>
      <use x="177.197266" xlink:href="#DejaVuSans-101"/>
      <use x="238.720703" xlink:href="#DejaVuSans-101"/>
      <use x="300.244141" xlink:href="#DejaVuSans-107"/>
      <use x="358.154297" xlink:href="#DejaVuSans-115"/>
      <use x="410.253906" xlink:href="#DejaVuSans-45"/>
      <use x="446.337891" xlink:href="#DejaVuSans-97"/>
      <use x="507.617188" xlink:href="#DejaVuSans-104"/>
      <use x="570.996094" xlink:href="#DejaVuSans-101"/>
      <use x="632.519531" xlink:href="#DejaVuSans-97"/>
      <use x="693.798828" xlink:href="#DejaVuSans-100"/>
     </g>
    </g>
    <g id="line2d_38">
     <path d="M 94.248125 113.689063 
L 114.248125 113.689063 
" style="fill:none;stroke:#ff3000;stroke-linecap:square;stroke-width:1.5;"/>
    </g>
    <g id="line2d_39"/>
    <g id="text_27">
     <!-- 6 weeks-ahead -->
     <g transform="translate(122.248125 117.189063)scale(0.1 -0.1)">
      <use xlink:href="#DejaVuSans-54"/>
      <use x="63.623047" xlink:href="#DejaVuSans-32"/>
      <use x="95.410156" xlink:href="#DejaVuSans-119"/>
      <use x="177.197266" xlink:href="#DejaVuSans-101"/>
      <use x="238.720703" xlink:href="#DejaVuSans-101"/>
      <use x="300.244141" xlink:href="#DejaVuSans-107"/>
      <use x="358.154297" xlink:href="#DejaVuSans-115"/>
      <use x="410.253906" xlink:href="#DejaVuSans-45"/>
      <use x="446.337891" xlink:href="#DejaVuSans-97"/>
      <use x="507.617188" xlink:href="#DejaVuSans-104"/>
      <use x="570.996094" xlink:href="#DejaVuSans-101"/>
      <use x="632.519531" xlink:href="#DejaVuSans-97"/>
      <use x="693.798828" xlink:href="#DejaVuSans-100"/>
     </g>
    </g>
    <g id="line2d_40">
     <path d="M 94.248125 132.367188 
L 114.248125 132.367188 
" style="fill:none;stroke:#800000;stroke-linecap:square;stroke-width:1.5;"/>
    </g>
    <g id="line2d_41"/>
    <g id="text_28">
     <!-- 7 weeks-ahead -->
     <g transform="translate(122.248125 135.867188)scale(0.1 -0.1)">
      <use xlink:href="#DejaVuSans-55"/>
      <use x="63.623047" xlink:href="#DejaVuSans-32"/>
      <use x="95.410156" xlink:href="#DejaVuSans-119"/>
      <use x="177.197266" xlink:href="#DejaVuSans-101"/>
      <use x="238.720703" xlink:href="#DejaVuSans-101"/>
      <use x="300.244141" xlink:href="#DejaVuSans-107"/>
      <use x="358.154297" xlink:href="#DejaVuSans-115"/>
      <use x="410.253906" xlink:href="#DejaVuSans-45"/>
      <use x="446.337891" xlink:href="#DejaVuSans-97"/>
      <use x="507.617188" xlink:href="#DejaVuSans-104"/>
      <use x="570.996094" xlink:href="#DejaVuSans-101"/>
      <use x="632.519531" xlink:href="#DejaVuSans-97"/>
      <use x="693.798828" xlink:href="#DejaVuSans-100"/>
     </g>
    </g>
   </g>
  </g>
 </g>
 <defs>
  <clipPath id="pd277f36f0c">
   <rect height="434.88" width="558" x="85.248125" y="7.2"/>
  </clipPath>
 </defs>
</svg>
