<?xml version="1.0" encoding="utf-8" standalone="no"?>
<!DOCTYPE svg PUBLIC "-//W3C//DTD SVG 1.1//EN"
  "http://www.w3.org/Graphics/SVG/1.1/DTD/svg11.dtd">
<!-- Created with matplotlib (https://matplotlib.org/) -->
<svg height="412.744628pt" version="1.1" viewBox="0 0 385.78125 412.744628" width="385.78125pt" xmlns="http://www.w3.org/2000/svg" xmlns:xlink="http://www.w3.org/1999/xlink">
 <defs>
  <style type="text/css">
*{stroke-linecap:butt;stroke-linejoin:round;}
  </style>
 </defs>
 <g id="figure_1">
  <g id="patch_1">
   <path d="M 0 412.744628 
L 385.78125 412.744628 
L 385.78125 0 
L 0 0 
z
" style="fill:#ffffff;"/>
  </g>
  <g id="axes_1">
   <g id="patch_2">
    <path d="M 43.78125 348.478125 
L 378.58125 348.478125 
L 378.58125 22.318125 
L 43.78125 22.318125 
z
" style="fill:#ffffff;"/>
   </g>
   <g id="PolyCollection_1">
    <defs>
     <path d="M 105.505827 -80.412393 
L 105.505827 -69.026177 
L 108.729043 -75.736124 
L 111.952258 -86.562295 
L 115.175474 -88.036973 
L 118.398689 -90.526087 
L 121.621905 -94.529078 
L 124.84512 -94.755531 
L 128.068336 -95.751231 
L 131.291551 -96.655295 
L 134.514767 -98.092634 
L 137.737982 -99.514409 
L 140.961198 -100.822212 
L 144.184413 -102.773941 
L 147.407629 -103.862556 
L 150.630844 -105.420134 
L 153.85406 -107.061128 
L 157.077275 -109.636674 
L 160.300491 -113.436873 
L 163.523706 -115.232903 
L 166.746922 -117.222676 
L 169.970137 -119.196837 
L 173.193353 -120.786672 
L 176.416568 -122.05655 
L 179.639784 -123.409985 
L 182.862999 -125.220736 
L 186.086215 -126.706821 
L 189.30943 -128.201191 
L 192.532646 -129.723654 
L 195.755861 -131.224742 
L 198.979077 -133.178615 
L 202.202292 -134.995193 
L 205.425508 -137.696038 
L 208.648724 -141.383232 
L 211.871939 -147.561208 
L 215.095155 -150.581374 
L 218.31837 -160.841327 
L 221.541586 -167.857291 
L 224.764801 -175.480943 
L 227.988017 -177.119716 
L 231.211232 -185.785729 
L 234.434448 -197.313105 
L 237.657663 -205.760105 
L 244.104094 -217.617196 
L 247.32731 -225.32308 
L 250.550525 -231.367704 
L 253.773741 -224.034232 
L 256.996956 -230.071702 
L 260.220172 -231.234046 
L 263.443387 -231.216746 
L 266.666603 -231.49475 
L 269.889818 -233.089449 
L 273.113034 -234.165914 
L 276.336249 -237.03558 
L 279.559465 -237.476436 
L 282.78268 -238.980905 
L 286.005896 -240.366915 
L 289.229111 -241.846536 
L 292.452327 -243.110768 
L 295.675542 -244.330631 
L 298.898758 -245.736145 
L 302.121973 -246.673867 
L 305.345189 -247.372197 
L 308.568404 -248.006403 
L 311.79162 -248.6629 
L 315.014835 -249.152067 
L 318.238051 -249.652532 
L 321.461267 -250.1875 
L 327.907698 -251.49225 
L 331.130913 -252.579592 
L 334.354129 -253.979854 
L 337.577344 -257.81452 
L 340.80056 -262.590365 
L 344.023775 -268.18589 
L 347.246991 -272.371625 
L 350.470206 -279.483127 
L 353.693422 -284.022422 
L 356.916637 -287.17129 
L 360.139853 -289.215922 
L 363.363068 -292.32219 
L 363.363068 -306.607305 
L 363.363068 -306.607305 
L 360.139853 -303.560104 
L 356.916637 -301.605932 
L 353.693422 -298.471473 
L 350.470206 -293.974459 
L 347.246991 -286.885394 
L 344.023775 -282.594355 
L 340.80056 -276.933543 
L 337.577344 -272.057987 
L 334.354129 -266.806783 
L 331.130913 -264.180025 
L 327.907698 -261.920236 
L 321.461267 -259.687928 
L 318.238051 -259.043128 
L 315.014835 -258.592552 
L 311.79162 -258.869217 
L 308.568404 -258.068139 
L 305.345189 -258.081173 
L 302.121973 -258.003564 
L 298.898758 -258.952513 
L 295.675542 -256.779489 
L 292.452327 -255.975532 
L 289.229111 -255.475697 
L 286.005896 -253.976865 
L 282.78268 -252.774317 
L 279.559465 -251.390601 
L 276.336249 -252.139106 
L 273.113034 -248.815785 
L 269.889818 -248.226351 
L 266.666603 -247.020441 
L 263.443387 -247.180356 
L 260.220172 -247.163236 
L 256.996956 -245.956682 
L 253.773741 -240.062583 
L 250.550525 -246.6996 
L 247.32731 -240.762754 
L 244.104094 -233.192789 
L 237.657663 -221.437049 
L 234.434448 -213.050392 
L 231.211232 -201.225947 
L 227.988017 -192.533029 
L 224.764801 -190.720942 
L 221.541586 -183.272047 
L 218.31837 -176.385654 
L 215.095155 -165.150209 
L 211.871939 -162.295036 
L 208.648724 -155.816205 
L 205.425508 -151.966644 
L 202.202292 -148.95561 
L 198.979077 -147.176169 
L 195.755861 -144.640448 
L 192.532646 -143.411742 
L 189.30943 -141.775149 
L 186.086215 -140.787156 
L 182.862999 -139.647047 
L 179.639784 -137.526503 
L 176.416568 -136.803016 
L 173.193353 -135.667892 
L 169.970137 -134.329035 
L 166.746922 -132.518235 
L 163.523706 -130.776706 
L 160.300491 -129.273023 
L 157.077275 -124.783384 
L 153.85406 -121.729037 
L 150.630844 -119.946611 
L 147.407629 -116.541939 
L 144.184413 -118.075824 
L 140.961198 -114.427013 
L 137.737982 -114.484204 
L 134.514767 -113.759853 
L 131.291551 -112.96806 
L 128.068336 -112.939382 
L 124.84512 -112.572533 
L 121.621905 -112.506039 
L 118.398689 -109.26244 
L 115.175474 -107.587443 
L 111.952258 -110.084449 
L 108.729043 -93.123996 
L 105.505827 -80.412393 
z
" id="m08e9c440d0" style="stroke:#000080;stroke-opacity:0.1;"/>
    </defs>
    <g clip-path="url(#p3cf4d2df9c)">
     <use style="fill:#000080;fill-opacity:0.1;stroke:#000080;stroke-opacity:0.1;" x="0" xlink:href="#m08e9c440d0" y="412.744628"/>
    </g>
   </g>
   <g id="matplotlib.axis_1">
    <g id="xtick_1">
     <g id="line2d_1">
      <defs>
       <path d="M 0 0 
L 0 3.5 
" id="m29d0fa7075" style="stroke:#000000;stroke-width:0.8;"/>
      </defs>
      <g>
       <use style="stroke:#000000;stroke-width:0.8;" x="49.329785" xlink:href="#m29d0fa7075" y="348.478125"/>
      </g>
     </g>
     <g id="text_1">
      <!-- 2020-01 -->
      <defs>
       <path d="M 19.1875 8.296875 
L 53.609375 8.296875 
L 53.609375 0 
L 7.328125 0 
L 7.328125 8.296875 
Q 12.9375 14.109375 22.625 23.890625 
Q 32.328125 33.6875 34.8125 36.53125 
Q 39.546875 41.84375 41.421875 45.53125 
Q 43.3125 49.21875 43.3125 52.78125 
Q 43.3125 58.59375 39.234375 62.25 
Q 35.15625 65.921875 28.609375 65.921875 
Q 23.96875 65.921875 18.8125 64.3125 
Q 13.671875 62.703125 7.8125 59.421875 
L 7.8125 69.390625 
Q 13.765625 71.78125 18.9375 73 
Q 24.125 74.21875 28.421875 74.21875 
Q 39.75 74.21875 46.484375 68.546875 
Q 53.21875 62.890625 53.21875 53.421875 
Q 53.21875 48.921875 51.53125 44.890625 
Q 49.859375 40.875 45.40625 35.40625 
Q 44.1875 33.984375 37.640625 27.21875 
Q 31.109375 20.453125 19.1875 8.296875 
z
" id="DejaVuSans-50"/>
       <path d="M 31.78125 66.40625 
Q 24.171875 66.40625 20.328125 58.90625 
Q 16.5 51.421875 16.5 36.375 
Q 16.5 21.390625 20.328125 13.890625 
Q 24.171875 6.390625 31.78125 6.390625 
Q 39.453125 6.390625 43.28125 13.890625 
Q 47.125 21.390625 47.125 36.375 
Q 47.125 51.421875 43.28125 58.90625 
Q 39.453125 66.40625 31.78125 66.40625 
z
M 31.78125 74.21875 
Q 44.046875 74.21875 50.515625 64.515625 
Q 56.984375 54.828125 56.984375 36.375 
Q 56.984375 17.96875 50.515625 8.265625 
Q 44.046875 -1.421875 31.78125 -1.421875 
Q 19.53125 -1.421875 13.0625 8.265625 
Q 6.59375 17.96875 6.59375 36.375 
Q 6.59375 54.828125 13.0625 64.515625 
Q 19.53125 74.21875 31.78125 74.21875 
z
" id="DejaVuSans-48"/>
       <path d="M 4.890625 31.390625 
L 31.203125 31.390625 
L 31.203125 23.390625 
L 4.890625 23.390625 
z
" id="DejaVuSans-45"/>
       <path d="M 12.40625 8.296875 
L 28.515625 8.296875 
L 28.515625 63.921875 
L 10.984375 60.40625 
L 10.984375 69.390625 
L 28.421875 72.90625 
L 38.28125 72.90625 
L 38.28125 8.296875 
L 54.390625 8.296875 
L 54.390625 0 
L 12.40625 0 
z
" id="DejaVuSans-49"/>
      </defs>
      <g transform="translate(36.508503 390.395942)rotate(-45)scale(0.1 -0.1)">
       <use xlink:href="#DejaVuSans-50"/>
       <use x="63.623047" xlink:href="#DejaVuSans-48"/>
       <use x="127.246094" xlink:href="#DejaVuSans-50"/>
       <use x="190.869141" xlink:href="#DejaVuSans-48"/>
       <use x="254.492188" xlink:href="#DejaVuSans-45"/>
       <use x="290.576172" xlink:href="#DejaVuSans-48"/>
       <use x="354.199219" xlink:href="#DejaVuSans-49"/>
      </g>
     </g>
    </g>
    <g id="xtick_2">
     <g id="line2d_2">
      <g>
       <use style="stroke:#000000;stroke-width:0.8;" x="91.231587" xlink:href="#m29d0fa7075" y="348.478125"/>
      </g>
     </g>
     <g id="text_2">
      <!-- 2020-04 -->
      <defs>
       <path d="M 37.796875 64.3125 
L 12.890625 25.390625 
L 37.796875 25.390625 
z
M 35.203125 72.90625 
L 47.609375 72.90625 
L 47.609375 25.390625 
L 58.015625 25.390625 
L 58.015625 17.1875 
L 47.609375 17.1875 
L 47.609375 0 
L 37.796875 0 
L 37.796875 17.1875 
L 4.890625 17.1875 
L 4.890625 26.703125 
z
" id="DejaVuSans-52"/>
      </defs>
      <g transform="translate(78.410305 390.395942)rotate(-45)scale(0.1 -0.1)">
       <use xlink:href="#DejaVuSans-50"/>
       <use x="63.623047" xlink:href="#DejaVuSans-48"/>
       <use x="127.246094" xlink:href="#DejaVuSans-50"/>
       <use x="190.869141" xlink:href="#DejaVuSans-48"/>
       <use x="254.492188" xlink:href="#DejaVuSans-45"/>
       <use x="290.576172" xlink:href="#DejaVuSans-48"/>
       <use x="354.199219" xlink:href="#DejaVuSans-52"/>
      </g>
     </g>
    </g>
    <g id="xtick_3">
     <g id="line2d_3">
      <g>
       <use style="stroke:#000000;stroke-width:0.8;" x="133.133389" xlink:href="#m29d0fa7075" y="348.478125"/>
      </g>
     </g>
     <g id="text_3">
      <!-- 2020-07 -->
      <defs>
       <path d="M 8.203125 72.90625 
L 55.078125 72.90625 
L 55.078125 68.703125 
L 28.609375 0 
L 18.3125 0 
L 43.21875 64.59375 
L 8.203125 64.59375 
z
" id="DejaVuSans-55"/>
      </defs>
      <g transform="translate(120.312106 390.395942)rotate(-45)scale(0.1 -0.1)">
       <use xlink:href="#DejaVuSans-50"/>
       <use x="63.623047" xlink:href="#DejaVuSans-48"/>
       <use x="127.246094" xlink:href="#DejaVuSans-50"/>
       <use x="190.869141" xlink:href="#DejaVuSans-48"/>
       <use x="254.492188" xlink:href="#DejaVuSans-45"/>
       <use x="290.576172" xlink:href="#DejaVuSans-48"/>
       <use x="354.199219" xlink:href="#DejaVuSans-55"/>
      </g>
     </g>
    </g>
    <g id="xtick_4">
     <g id="line2d_4">
      <g>
       <use style="stroke:#000000;stroke-width:0.8;" x="175.49565" xlink:href="#m29d0fa7075" y="348.478125"/>
      </g>
     </g>
     <g id="text_4">
      <!-- 2020-10 -->
      <g transform="translate(162.674367 390.395942)rotate(-45)scale(0.1 -0.1)">
       <use xlink:href="#DejaVuSans-50"/>
       <use x="63.623047" xlink:href="#DejaVuSans-48"/>
       <use x="127.246094" xlink:href="#DejaVuSans-50"/>
       <use x="190.869141" xlink:href="#DejaVuSans-48"/>
       <use x="254.492188" xlink:href="#DejaVuSans-45"/>
       <use x="290.576172" xlink:href="#DejaVuSans-49"/>
       <use x="354.199219" xlink:href="#DejaVuSans-48"/>
      </g>
     </g>
    </g>
    <g id="xtick_5">
     <g id="line2d_5">
      <g>
       <use style="stroke:#000000;stroke-width:0.8;" x="217.857911" xlink:href="#m29d0fa7075" y="348.478125"/>
      </g>
     </g>
     <g id="text_5">
      <!-- 2021-01 -->
      <g transform="translate(205.036628 390.395942)rotate(-45)scale(0.1 -0.1)">
       <use xlink:href="#DejaVuSans-50"/>
       <use x="63.623047" xlink:href="#DejaVuSans-48"/>
       <use x="127.246094" xlink:href="#DejaVuSans-50"/>
       <use x="190.869141" xlink:href="#DejaVuSans-49"/>
       <use x="254.492188" xlink:href="#DejaVuSans-45"/>
       <use x="290.576172" xlink:href="#DejaVuSans-48"/>
       <use x="354.199219" xlink:href="#DejaVuSans-49"/>
      </g>
     </g>
    </g>
    <g id="xtick_6">
     <g id="line2d_6">
      <g>
       <use style="stroke:#000000;stroke-width:0.8;" x="259.299253" xlink:href="#m29d0fa7075" y="348.478125"/>
      </g>
     </g>
     <g id="text_6">
      <!-- 2021-04 -->
      <g transform="translate(246.477971 390.395942)rotate(-45)scale(0.1 -0.1)">
       <use xlink:href="#DejaVuSans-50"/>
       <use x="63.623047" xlink:href="#DejaVuSans-48"/>
       <use x="127.246094" xlink:href="#DejaVuSans-50"/>
       <use x="190.869141" xlink:href="#DejaVuSans-49"/>
       <use x="254.492188" xlink:href="#DejaVuSans-45"/>
       <use x="290.576172" xlink:href="#DejaVuSans-48"/>
       <use x="354.199219" xlink:href="#DejaVuSans-52"/>
      </g>
     </g>
    </g>
    <g id="xtick_7">
     <g id="line2d_7">
      <g>
       <use style="stroke:#000000;stroke-width:0.8;" x="301.201055" xlink:href="#m29d0fa7075" y="348.478125"/>
      </g>
     </g>
     <g id="text_7">
      <!-- 2021-07 -->
      <g transform="translate(288.379772 390.395942)rotate(-45)scale(0.1 -0.1)">
       <use xlink:href="#DejaVuSans-50"/>
       <use x="63.623047" xlink:href="#DejaVuSans-48"/>
       <use x="127.246094" xlink:href="#DejaVuSans-50"/>
       <use x="190.869141" xlink:href="#DejaVuSans-49"/>
       <use x="254.492188" xlink:href="#DejaVuSans-45"/>
       <use x="290.576172" xlink:href="#DejaVuSans-48"/>
       <use x="354.199219" xlink:href="#DejaVuSans-55"/>
      </g>
     </g>
    </g>
    <g id="xtick_8">
     <g id="line2d_8">
      <g>
       <use style="stroke:#000000;stroke-width:0.8;" x="343.563316" xlink:href="#m29d0fa7075" y="348.478125"/>
      </g>
     </g>
     <g id="text_8">
      <!-- 2021-10 -->
      <g transform="translate(330.742033 390.395942)rotate(-45)scale(0.1 -0.1)">
       <use xlink:href="#DejaVuSans-50"/>
       <use x="63.623047" xlink:href="#DejaVuSans-48"/>
       <use x="127.246094" xlink:href="#DejaVuSans-50"/>
       <use x="190.869141" xlink:href="#DejaVuSans-49"/>
       <use x="254.492188" xlink:href="#DejaVuSans-45"/>
       <use x="290.576172" xlink:href="#DejaVuSans-49"/>
       <use x="354.199219" xlink:href="#DejaVuSans-48"/>
      </g>
     </g>
    </g>
    <g id="text_9">
     <!-- Date -->
     <defs>
      <path d="M 19.671875 64.796875 
L 19.671875 8.109375 
L 31.59375 8.109375 
Q 46.6875 8.109375 53.6875 14.9375 
Q 60.6875 21.78125 60.6875 36.53125 
Q 60.6875 51.171875 53.6875 57.984375 
Q 46.6875 64.796875 31.59375 64.796875 
z
M 9.8125 72.90625 
L 30.078125 72.90625 
Q 51.265625 72.90625 61.171875 64.09375 
Q 71.09375 55.28125 71.09375 36.53125 
Q 71.09375 17.671875 61.125 8.828125 
Q 51.171875 0 30.078125 0 
L 9.8125 0 
z
" id="DejaVuSans-68"/>
      <path d="M 34.28125 27.484375 
Q 23.390625 27.484375 19.1875 25 
Q 14.984375 22.515625 14.984375 16.5 
Q 14.984375 11.71875 18.140625 8.90625 
Q 21.296875 6.109375 26.703125 6.109375 
Q 34.1875 6.109375 38.703125 11.40625 
Q 43.21875 16.703125 43.21875 25.484375 
L 43.21875 27.484375 
z
M 52.203125 31.203125 
L 52.203125 0 
L 43.21875 0 
L 43.21875 8.296875 
Q 40.140625 3.328125 35.546875 0.953125 
Q 30.953125 -1.421875 24.3125 -1.421875 
Q 15.921875 -1.421875 10.953125 3.296875 
Q 6 8.015625 6 15.921875 
Q 6 25.140625 12.171875 29.828125 
Q 18.359375 34.515625 30.609375 34.515625 
L 43.21875 34.515625 
L 43.21875 35.40625 
Q 43.21875 41.609375 39.140625 45 
Q 35.0625 48.390625 27.6875 48.390625 
Q 23 48.390625 18.546875 47.265625 
Q 14.109375 46.140625 10.015625 43.890625 
L 10.015625 52.203125 
Q 14.9375 54.109375 19.578125 55.046875 
Q 24.21875 56 28.609375 56 
Q 40.484375 56 46.34375 49.84375 
Q 52.203125 43.703125 52.203125 31.203125 
z
" id="DejaVuSans-97"/>
      <path d="M 18.3125 70.21875 
L 18.3125 54.6875 
L 36.8125 54.6875 
L 36.8125 47.703125 
L 18.3125 47.703125 
L 18.3125 18.015625 
Q 18.3125 11.328125 20.140625 9.421875 
Q 21.96875 7.515625 27.59375 7.515625 
L 36.8125 7.515625 
L 36.8125 0 
L 27.59375 0 
Q 17.1875 0 13.234375 3.875 
Q 9.28125 7.765625 9.28125 18.015625 
L 9.28125 47.703125 
L 2.6875 47.703125 
L 2.6875 54.6875 
L 9.28125 54.6875 
L 9.28125 70.21875 
z
" id="DejaVuSans-116"/>
      <path d="M 56.203125 29.59375 
L 56.203125 25.203125 
L 14.890625 25.203125 
Q 15.484375 15.921875 20.484375 11.0625 
Q 25.484375 6.203125 34.421875 6.203125 
Q 39.59375 6.203125 44.453125 7.46875 
Q 49.3125 8.734375 54.109375 11.28125 
L 54.109375 2.78125 
Q 49.265625 0.734375 44.1875 -0.34375 
Q 39.109375 -1.421875 33.890625 -1.421875 
Q 20.796875 -1.421875 13.15625 6.1875 
Q 5.515625 13.8125 5.515625 26.8125 
Q 5.515625 40.234375 12.765625 48.109375 
Q 20.015625 56 32.328125 56 
Q 43.359375 56 49.78125 48.890625 
Q 56.203125 41.796875 56.203125 29.59375 
z
M 47.21875 32.234375 
Q 47.125 39.59375 43.09375 43.984375 
Q 39.0625 48.390625 32.421875 48.390625 
Q 24.90625 48.390625 20.390625 44.140625 
Q 15.875 39.890625 15.1875 32.171875 
z
" id="DejaVuSans-101"/>
     </defs>
     <g transform="translate(199.230469 403.46494)scale(0.1 -0.1)">
      <use xlink:href="#DejaVuSans-68"/>
      <use x="77.001953" xlink:href="#DejaVuSans-97"/>
      <use x="138.28125" xlink:href="#DejaVuSans-116"/>
      <use x="177.490234" xlink:href="#DejaVuSans-101"/>
     </g>
    </g>
   </g>
   <g id="matplotlib.axis_2">
    <g id="ytick_1">
     <g id="line2d_9">
      <defs>
       <path d="M 0 0 
L -3.5 0 
" id="mc57c07e653" style="stroke:#000000;stroke-width:0.8;"/>
      </defs>
      <g>
       <use style="stroke:#000000;stroke-width:0.8;" x="43.78125" xlink:href="#mc57c07e653" y="287.408817"/>
      </g>
     </g>
     <g id="text_10">
      <!-- 0.2 -->
      <defs>
       <path d="M 10.6875 12.40625 
L 21 12.40625 
L 21 0 
L 10.6875 0 
z
" id="DejaVuSans-46"/>
      </defs>
      <g transform="translate(20.878125 291.208036)scale(0.1 -0.1)">
       <use xlink:href="#DejaVuSans-48"/>
       <use x="63.623047" xlink:href="#DejaVuSans-46"/>
       <use x="95.410156" xlink:href="#DejaVuSans-50"/>
      </g>
     </g>
    </g>
    <g id="ytick_2">
     <g id="line2d_10">
      <g>
       <use style="stroke:#000000;stroke-width:0.8;" x="43.78125" xlink:href="#mc57c07e653" y="226.339326"/>
      </g>
     </g>
     <g id="text_11">
      <!-- 0.4 -->
      <g transform="translate(20.878125 230.138544)scale(0.1 -0.1)">
       <use xlink:href="#DejaVuSans-48"/>
       <use x="63.623047" xlink:href="#DejaVuSans-46"/>
       <use x="95.410156" xlink:href="#DejaVuSans-52"/>
      </g>
     </g>
    </g>
    <g id="ytick_3">
     <g id="line2d_11">
      <g>
       <use style="stroke:#000000;stroke-width:0.8;" x="43.78125" xlink:href="#mc57c07e653" y="165.269834"/>
      </g>
     </g>
     <g id="text_12">
      <!-- 0.6 -->
      <defs>
       <path d="M 33.015625 40.375 
Q 26.375 40.375 22.484375 35.828125 
Q 18.609375 31.296875 18.609375 23.390625 
Q 18.609375 15.53125 22.484375 10.953125 
Q 26.375 6.390625 33.015625 6.390625 
Q 39.65625 6.390625 43.53125 10.953125 
Q 47.40625 15.53125 47.40625 23.390625 
Q 47.40625 31.296875 43.53125 35.828125 
Q 39.65625 40.375 33.015625 40.375 
z
M 52.59375 71.296875 
L 52.59375 62.3125 
Q 48.875 64.0625 45.09375 64.984375 
Q 41.3125 65.921875 37.59375 65.921875 
Q 27.828125 65.921875 22.671875 59.328125 
Q 17.53125 52.734375 16.796875 39.40625 
Q 19.671875 43.65625 24.015625 45.921875 
Q 28.375 48.1875 33.59375 48.1875 
Q 44.578125 48.1875 50.953125 41.515625 
Q 57.328125 34.859375 57.328125 23.390625 
Q 57.328125 12.15625 50.6875 5.359375 
Q 44.046875 -1.421875 33.015625 -1.421875 
Q 20.359375 -1.421875 13.671875 8.265625 
Q 6.984375 17.96875 6.984375 36.375 
Q 6.984375 53.65625 15.1875 63.9375 
Q 23.390625 74.21875 37.203125 74.21875 
Q 40.921875 74.21875 44.703125 73.484375 
Q 48.484375 72.75 52.59375 71.296875 
z
" id="DejaVuSans-54"/>
      </defs>
      <g transform="translate(20.878125 169.069053)scale(0.1 -0.1)">
       <use xlink:href="#DejaVuSans-48"/>
       <use x="63.623047" xlink:href="#DejaVuSans-46"/>
       <use x="95.410156" xlink:href="#DejaVuSans-54"/>
      </g>
     </g>
    </g>
    <g id="ytick_4">
     <g id="line2d_12">
      <g>
       <use style="stroke:#000000;stroke-width:0.8;" x="43.78125" xlink:href="#mc57c07e653" y="104.200343"/>
      </g>
     </g>
     <g id="text_13">
      <!-- 0.8 -->
      <defs>
       <path d="M 31.78125 34.625 
Q 24.75 34.625 20.71875 30.859375 
Q 16.703125 27.09375 16.703125 20.515625 
Q 16.703125 13.921875 20.71875 10.15625 
Q 24.75 6.390625 31.78125 6.390625 
Q 38.8125 6.390625 42.859375 10.171875 
Q 46.921875 13.96875 46.921875 20.515625 
Q 46.921875 27.09375 42.890625 30.859375 
Q 38.875 34.625 31.78125 34.625 
z
M 21.921875 38.8125 
Q 15.578125 40.375 12.03125 44.71875 
Q 8.5 49.078125 8.5 55.328125 
Q 8.5 64.0625 14.71875 69.140625 
Q 20.953125 74.21875 31.78125 74.21875 
Q 42.671875 74.21875 48.875 69.140625 
Q 55.078125 64.0625 55.078125 55.328125 
Q 55.078125 49.078125 51.53125 44.71875 
Q 48 40.375 41.703125 38.8125 
Q 48.828125 37.15625 52.796875 32.3125 
Q 56.78125 27.484375 56.78125 20.515625 
Q 56.78125 9.90625 50.3125 4.234375 
Q 43.84375 -1.421875 31.78125 -1.421875 
Q 19.734375 -1.421875 13.25 4.234375 
Q 6.78125 9.90625 6.78125 20.515625 
Q 6.78125 27.484375 10.78125 32.3125 
Q 14.796875 37.15625 21.921875 38.8125 
z
M 18.3125 54.390625 
Q 18.3125 48.734375 21.84375 45.5625 
Q 25.390625 42.390625 31.78125 42.390625 
Q 38.140625 42.390625 41.71875 45.5625 
Q 45.3125 48.734375 45.3125 54.390625 
Q 45.3125 60.0625 41.71875 63.234375 
Q 38.140625 66.40625 31.78125 66.40625 
Q 25.390625 66.40625 21.84375 63.234375 
Q 18.3125 60.0625 18.3125 54.390625 
z
" id="DejaVuSans-56"/>
      </defs>
      <g transform="translate(20.878125 107.999562)scale(0.1 -0.1)">
       <use xlink:href="#DejaVuSans-48"/>
       <use x="63.623047" xlink:href="#DejaVuSans-46"/>
       <use x="95.410156" xlink:href="#DejaVuSans-56"/>
      </g>
     </g>
    </g>
    <g id="ytick_5">
     <g id="line2d_13">
      <g>
       <use style="stroke:#000000;stroke-width:0.8;" x="43.78125" xlink:href="#mc57c07e653" y="43.130852"/>
      </g>
     </g>
     <g id="text_14">
      <!-- 1.0 -->
      <g transform="translate(20.878125 46.930071)scale(0.1 -0.1)">
       <use xlink:href="#DejaVuSans-49"/>
       <use x="63.623047" xlink:href="#DejaVuSans-46"/>
       <use x="95.410156" xlink:href="#DejaVuSans-48"/>
      </g>
     </g>
    </g>
    <g id="text_15">
     <!-- US Cumulative Deaths -->
     <defs>
      <path d="M 8.6875 72.90625 
L 18.609375 72.90625 
L 18.609375 28.609375 
Q 18.609375 16.890625 22.84375 11.734375 
Q 27.09375 6.59375 36.625 6.59375 
Q 46.09375 6.59375 50.34375 11.734375 
Q 54.59375 16.890625 54.59375 28.609375 
L 54.59375 72.90625 
L 64.5 72.90625 
L 64.5 27.390625 
Q 64.5 13.140625 57.4375 5.859375 
Q 50.390625 -1.421875 36.625 -1.421875 
Q 22.796875 -1.421875 15.734375 5.859375 
Q 8.6875 13.140625 8.6875 27.390625 
z
" id="DejaVuSans-85"/>
      <path d="M 53.515625 70.515625 
L 53.515625 60.890625 
Q 47.90625 63.578125 42.921875 64.890625 
Q 37.9375 66.21875 33.296875 66.21875 
Q 25.25 66.21875 20.875 63.09375 
Q 16.5 59.96875 16.5 54.203125 
Q 16.5 49.359375 19.40625 46.890625 
Q 22.3125 44.4375 30.421875 42.921875 
L 36.375 41.703125 
Q 47.40625 39.59375 52.65625 34.296875 
Q 57.90625 29 57.90625 20.125 
Q 57.90625 9.515625 50.796875 4.046875 
Q 43.703125 -1.421875 29.984375 -1.421875 
Q 24.8125 -1.421875 18.96875 -0.25 
Q 13.140625 0.921875 6.890625 3.21875 
L 6.890625 13.375 
Q 12.890625 10.015625 18.65625 8.296875 
Q 24.421875 6.59375 29.984375 6.59375 
Q 38.421875 6.59375 43.015625 9.90625 
Q 47.609375 13.234375 47.609375 19.390625 
Q 47.609375 24.75 44.3125 27.78125 
Q 41.015625 30.8125 33.5 32.328125 
L 27.484375 33.5 
Q 16.453125 35.6875 11.515625 40.375 
Q 6.59375 45.0625 6.59375 53.421875 
Q 6.59375 63.09375 13.40625 68.65625 
Q 20.21875 74.21875 32.171875 74.21875 
Q 37.3125 74.21875 42.625 73.28125 
Q 47.953125 72.359375 53.515625 70.515625 
z
" id="DejaVuSans-83"/>
      <path id="DejaVuSans-32"/>
      <path d="M 64.40625 67.28125 
L 64.40625 56.890625 
Q 59.421875 61.53125 53.78125 63.8125 
Q 48.140625 66.109375 41.796875 66.109375 
Q 29.296875 66.109375 22.65625 58.46875 
Q 16.015625 50.828125 16.015625 36.375 
Q 16.015625 21.96875 22.65625 14.328125 
Q 29.296875 6.6875 41.796875 6.6875 
Q 48.140625 6.6875 53.78125 8.984375 
Q 59.421875 11.28125 64.40625 15.921875 
L 64.40625 5.609375 
Q 59.234375 2.09375 53.4375 0.328125 
Q 47.65625 -1.421875 41.21875 -1.421875 
Q 24.65625 -1.421875 15.125 8.703125 
Q 5.609375 18.84375 5.609375 36.375 
Q 5.609375 53.953125 15.125 64.078125 
Q 24.65625 74.21875 41.21875 74.21875 
Q 47.75 74.21875 53.53125 72.484375 
Q 59.328125 70.75 64.40625 67.28125 
z
" id="DejaVuSans-67"/>
      <path d="M 8.5 21.578125 
L 8.5 54.6875 
L 17.484375 54.6875 
L 17.484375 21.921875 
Q 17.484375 14.15625 20.5 10.265625 
Q 23.53125 6.390625 29.59375 6.390625 
Q 36.859375 6.390625 41.078125 11.03125 
Q 45.3125 15.671875 45.3125 23.6875 
L 45.3125 54.6875 
L 54.296875 54.6875 
L 54.296875 0 
L 45.3125 0 
L 45.3125 8.40625 
Q 42.046875 3.421875 37.71875 1 
Q 33.40625 -1.421875 27.6875 -1.421875 
Q 18.265625 -1.421875 13.375 4.4375 
Q 8.5 10.296875 8.5 21.578125 
z
M 31.109375 56 
z
" id="DejaVuSans-117"/>
      <path d="M 52 44.1875 
Q 55.375 50.25 60.0625 53.125 
Q 64.75 56 71.09375 56 
Q 79.640625 56 84.28125 50.015625 
Q 88.921875 44.046875 88.921875 33.015625 
L 88.921875 0 
L 79.890625 0 
L 79.890625 32.71875 
Q 79.890625 40.578125 77.09375 44.375 
Q 74.3125 48.1875 68.609375 48.1875 
Q 61.625 48.1875 57.5625 43.546875 
Q 53.515625 38.921875 53.515625 30.90625 
L 53.515625 0 
L 44.484375 0 
L 44.484375 32.71875 
Q 44.484375 40.625 41.703125 44.40625 
Q 38.921875 48.1875 33.109375 48.1875 
Q 26.21875 48.1875 22.15625 43.53125 
Q 18.109375 38.875 18.109375 30.90625 
L 18.109375 0 
L 9.078125 0 
L 9.078125 54.6875 
L 18.109375 54.6875 
L 18.109375 46.1875 
Q 21.1875 51.21875 25.484375 53.609375 
Q 29.78125 56 35.6875 56 
Q 41.65625 56 45.828125 52.96875 
Q 50 49.953125 52 44.1875 
z
" id="DejaVuSans-109"/>
      <path d="M 9.421875 75.984375 
L 18.40625 75.984375 
L 18.40625 0 
L 9.421875 0 
z
" id="DejaVuSans-108"/>
      <path d="M 9.421875 54.6875 
L 18.40625 54.6875 
L 18.40625 0 
L 9.421875 0 
z
M 9.421875 75.984375 
L 18.40625 75.984375 
L 18.40625 64.59375 
L 9.421875 64.59375 
z
" id="DejaVuSans-105"/>
      <path d="M 2.984375 54.6875 
L 12.5 54.6875 
L 29.59375 8.796875 
L 46.6875 54.6875 
L 56.203125 54.6875 
L 35.6875 0 
L 23.484375 0 
z
" id="DejaVuSans-118"/>
      <path d="M 54.890625 33.015625 
L 54.890625 0 
L 45.90625 0 
L 45.90625 32.71875 
Q 45.90625 40.484375 42.875 44.328125 
Q 39.84375 48.1875 33.796875 48.1875 
Q 26.515625 48.1875 22.3125 43.546875 
Q 18.109375 38.921875 18.109375 30.90625 
L 18.109375 0 
L 9.078125 0 
L 9.078125 75.984375 
L 18.109375 75.984375 
L 18.109375 46.1875 
Q 21.34375 51.125 25.703125 53.5625 
Q 30.078125 56 35.796875 56 
Q 45.21875 56 50.046875 50.171875 
Q 54.890625 44.34375 54.890625 33.015625 
z
" id="DejaVuSans-104"/>
      <path d="M 44.28125 53.078125 
L 44.28125 44.578125 
Q 40.484375 46.53125 36.375 47.5 
Q 32.28125 48.484375 27.875 48.484375 
Q 21.1875 48.484375 17.84375 46.4375 
Q 14.5 44.390625 14.5 40.28125 
Q 14.5 37.15625 16.890625 35.375 
Q 19.28125 33.59375 26.515625 31.984375 
L 29.59375 31.296875 
Q 39.15625 29.25 43.1875 25.515625 
Q 47.21875 21.78125 47.21875 15.09375 
Q 47.21875 7.46875 41.1875 3.015625 
Q 35.15625 -1.421875 24.609375 -1.421875 
Q 20.21875 -1.421875 15.453125 -0.5625 
Q 10.6875 0.296875 5.421875 2 
L 5.421875 11.28125 
Q 10.40625 8.6875 15.234375 7.390625 
Q 20.0625 6.109375 24.8125 6.109375 
Q 31.15625 6.109375 34.5625 8.28125 
Q 37.984375 10.453125 37.984375 14.40625 
Q 37.984375 18.0625 35.515625 20.015625 
Q 33.0625 21.96875 24.703125 23.78125 
L 21.578125 24.515625 
Q 13.234375 26.265625 9.515625 29.90625 
Q 5.8125 33.546875 5.8125 39.890625 
Q 5.8125 47.609375 11.28125 51.796875 
Q 16.75 56 26.8125 56 
Q 31.78125 56 36.171875 55.265625 
Q 40.578125 54.546875 44.28125 53.078125 
z
" id="DejaVuSans-115"/>
     </defs>
     <g transform="translate(14.798438 241.671562)rotate(-90)scale(0.1 -0.1)">
      <use xlink:href="#DejaVuSans-85"/>
      <use x="73.193359" xlink:href="#DejaVuSans-83"/>
      <use x="136.669922" xlink:href="#DejaVuSans-32"/>
      <use x="168.457031" xlink:href="#DejaVuSans-67"/>
      <use x="238.28125" xlink:href="#DejaVuSans-117"/>
      <use x="301.660156" xlink:href="#DejaVuSans-109"/>
      <use x="399.072266" xlink:href="#DejaVuSans-117"/>
      <use x="462.451172" xlink:href="#DejaVuSans-108"/>
      <use x="490.234375" xlink:href="#DejaVuSans-97"/>
      <use x="551.513672" xlink:href="#DejaVuSans-116"/>
      <use x="590.722656" xlink:href="#DejaVuSans-105"/>
      <use x="618.505859" xlink:href="#DejaVuSans-118"/>
      <use x="677.685547" xlink:href="#DejaVuSans-101"/>
      <use x="739.208984" xlink:href="#DejaVuSans-32"/>
      <use x="770.996094" xlink:href="#DejaVuSans-68"/>
      <use x="847.998047" xlink:href="#DejaVuSans-101"/>
      <use x="909.521484" xlink:href="#DejaVuSans-97"/>
      <use x="970.800781" xlink:href="#DejaVuSans-116"/>
      <use x="1010.009766" xlink:href="#DejaVuSans-104"/>
      <use x="1073.388672" xlink:href="#DejaVuSans-115"/>
     </g>
    </g>
    <g id="text_16">
     <!-- 1e6 -->
     <g transform="translate(43.78125 19.318125)scale(0.1 -0.1)">
      <use xlink:href="#DejaVuSans-49"/>
      <use x="63.623047" xlink:href="#DejaVuSans-101"/>
      <use x="125.146484" xlink:href="#DejaVuSans-54"/>
     </g>
    </g>
   </g>
   <g id="line2d_14">
    <path clip-path="url(#p3cf4d2df9c)" d="M 105.505827 338.118082 
L 108.729043 328.399245 
L 111.952258 314.440128 
L 115.175474 314.964081 
L 118.398689 312.805454 
L 121.621905 309.239608 
L 124.84512 309.217807 
L 128.068336 308.655554 
L 131.291551 308.619355 
L 134.514767 307.590827 
L 137.737982 306.738651 
L 140.961198 306.695036 
L 144.184413 303.043064 
L 147.407629 304.531666 
L 150.630844 301.107694 
L 153.85406 299.166283 
L 157.077275 296.004251 
L 160.300491 291.571998 
L 163.523706 290.010832 
L 166.746922 288.105446 
L 169.970137 286.23172 
L 173.193353 284.840805 
L 176.416568 283.794798 
L 179.639784 283.039808 
L 182.862999 280.836508 
L 186.086215 279.670987 
L 189.30943 278.566721 
L 192.532646 276.934565 
L 195.755861 275.513879 
L 198.979077 272.963923 
L 202.202292 271.174012 
L 205.425508 268.122425 
L 208.648724 264.228976 
L 211.871939 257.804938 
L 215.095155 254.905037 
L 218.31837 244.128868 
L 221.541586 237.230391 
L 224.764801 229.647071 
L 227.988017 227.892042 
L 231.211232 219.229663 
L 234.434448 207.596489 
L 237.657663 199.102697 
L 244.104094 187.332833 
L 247.32731 179.707586 
L 250.550525 173.696826 
L 253.773741 180.701807 
L 256.996956 174.747418 
L 260.220172 173.56629 
L 263.443387 173.623952 
L 266.666603 173.712744 
L 269.889818 172.463075 
L 273.113034 171.910945 
L 276.336249 168.554231 
L 279.559465 169.240569 
L 282.78268 167.763289 
L 286.005896 166.594005 
L 289.229111 165.106627 
L 292.452327 164.505487 
L 295.675542 163.64111 
L 298.898758 161.382391 
L 302.121973 162.322112 
L 305.345189 162.18903 
L 308.568404 162.177734 
L 311.79162 161.432272 
L 315.014835 161.612288 
L 318.238051 161.046387 
L 321.461267 160.379558 
L 327.907698 158.150405 
L 331.130913 155.814344 
L 334.354129 153.242219 
L 337.577344 148.024544 
L 340.80056 143.003093 
L 344.023775 137.324483 
L 347.246991 133.147074 
L 350.470206 126.00209 
L 353.693422 121.457869 
L 356.916637 118.355274 
L 360.139853 116.33465 
L 363.363068 113.271267 
" style="fill:none;stroke:#000080;stroke-linecap:square;stroke-width:1.5;"/>
   </g>
   <g id="line2d_15">
    <path clip-path="url(#p3cf4d2df9c)" d="M 58.999432 348.478003 
L 85.245615 348.394948 
L 87.547912 348.162884 
L 88.92929 347.774482 
L 90.771128 346.841951 
L 92.152506 345.557354 
L 93.533884 344.043747 
L 94.454802 342.60037 
L 96.29664 340.026596 
L 97.217559 338.666884 
L 98.138477 337.208544 
L 100.901233 333.174599 
L 101.822152 331.772138 
L 102.743071 330.813958 
L 103.20353 330.362044 
L 105.045368 327.695444 
L 105.966286 326.796501 
L 106.426746 326.38184 
L 107.808124 324.410211 
L 108.729043 323.422107 
L 109.649961 322.800725 
L 111.952258 320.368021 
L 112.873177 319.742059 
L 114.715014 318.111504 
L 115.635933 317.587833 
L 116.556852 317.205232 
L 117.47777 316.421406 
L 118.398689 315.789947 
L 119.319608 315.364903 
L 121.621905 313.98687 
L 122.542823 313.691294 
L 124.84512 312.423797 
L 125.766039 312.195397 
L 127.607876 311.322408 
L 128.528795 311.050649 
L 129.449714 310.709576 
L 130.831092 310.120561 
L 133.593848 309.148945 
L 134.514767 308.85001 
L 135.435685 308.638404 
L 136.817064 307.718087 
L 138.198442 307.094262 
L 138.658901 306.961436 
L 141.421657 305.405691 
L 141.882116 305.244162 
L 144.184413 303.573911 
L 144.644873 303.410856 
L 145.565791 302.701839 
L 146.947169 301.50732 
L 147.407629 301.165636 
L 148.328547 300.855403 
L 150.630844 298.955531 
L 151.551763 298.623008 
L 152.933141 297.508489 
L 153.85406 296.789701 
L 154.774979 296.460842 
L 157.077275 294.721278 
L 157.998194 294.435167 
L 159.840031 293.070875 
L 160.300491 292.770718 
L 161.22141 292.482776 
L 163.523706 290.973443 
L 164.905084 290.598476 
L 166.286462 289.625945 
L 167.207381 289.275101 
L 167.667841 289.145939 
L 168.588759 288.487304 
L 169.970137 287.712638 
L 170.891056 287.504085 
L 172.732894 286.306513 
L 173.193353 286.067426 
L 174.114272 285.868034 
L 176.416568 284.562063 
L 177.337487 284.302212 
L 178.258406 283.807549 
L 179.639784 283.009065 
L 181.021162 282.507685 
L 182.862999 281.406297 
L 183.783918 281.115301 
L 186.546674 279.48505 
L 187.007134 279.325659 
L 189.30943 277.785792 
L 190.230349 277.462124 
L 191.151268 276.632495 
L 192.532646 275.565 
L 193.453565 275.16133 
L 195.755861 273.135045 
L 196.67678 272.645878 
L 197.597699 271.531055 
L 198.979077 269.812254 
L 199.899996 269.160642 
L 201.281374 267.39207 
L 202.202292 266.503509 
L 203.123211 265.781973 
L 204.504589 263.232016 
L 205.425508 261.704668 
L 206.346427 260.800229 
L 207.267345 259.040206 
L 208.648724 256.322614 
L 209.569642 255.312524 
L 210.490561 253.26059 
L 211.41148 251.308809 
L 211.871939 250.467882 
L 212.792858 249.379013 
L 214.174236 246.447982 
L 215.555614 244.965215 
L 216.016073 244.392078 
L 217.397451 241.071119 
L 219.239289 238.564216 
L 220.620667 235.035621 
L 221.541586 232.762309 
L 222.462504 231.55924 
L 223.843882 227.834307 
L 224.764801 225.578094 
L 226.146179 223.75914 
L 227.527557 219.986267 
L 227.988017 218.900451 
L 228.908935 217.79265 
L 230.750773 213.041749 
L 231.211232 212.155936 
L 232.132151 211.015769 
L 234.434448 205.597378 
L 235.355366 204.703321 
L 237.657663 200.171049 
L 239.039041 199.013476 
L 240.880879 196.106263 
L 241.801797 195.36488 
L 242.262257 194.669909 
L 243.183175 192.93126 
L 244.104094 191.808803 
L 245.025013 191.06803 
L 245.485472 190.477794 
L 246.406391 189.093654 
L 247.32731 188.100053 
L 248.248228 187.667681 
L 249.629606 186.162318 
L 250.550525 185.420934 
L 251.471444 185.044746 
L 253.773741 183.229456 
L 255.155119 182.536928 
L 256.076038 181.653558 
L 256.996956 181.048359 
L 257.917875 180.711255 
L 260.220172 179.239175 
L 261.14109 179.007111 
L 261.60155 178.743291 
L 262.062009 177.95122 
L 262.982928 177.354876 
L 263.443387 177.133804 
L 264.364306 176.908763 
L 266.666603 175.599739 
L 267.587521 175.345384 
L 269.889818 174.060788 
L 270.810737 173.826586 
L 271.731656 173.316656 
L 273.113034 172.569776 
L 274.033953 172.32733 
L 275.87579 171.296477 
L 276.336249 171.102582 
L 277.257168 170.90777 
L 279.559465 169.854626 
L 280.480384 169.653708 
L 282.322221 168.803926 
L 284.624518 167.968495 
L 285.084977 167.554749 
L 286.005896 167.28299 
L 286.926815 167.195355 
L 289.229111 166.287252 
L 290.610489 166.042669 
L 292.452327 165.519609 
L 293.833705 165.330904 
L 296.136002 164.854867 
L 297.977839 164.441121 
L 298.898758 164.233485 
L 300.280136 164.062796 
L 302.582433 163.715921 
L 303.503351 163.583095 
L 305.345189 163.242938 
L 306.266108 163.136677 
L 308.568404 162.696366 
L 310.410242 162.385828 
L 314.093917 161.628566 
L 314.554376 161.361998 
L 315.935754 161.14001 
L 317.317132 160.645042 
L 317.777592 160.292671 
L 319.15897 160.027629 
L 321.461267 158.816621 
L 321.921726 158.76288 
L 323.303104 157.768974 
L 324.224023 156.773541 
L 325.144941 156.557966 
L 326.526319 155.245888 
L 327.447238 154.042514 
L 328.368157 153.770755 
L 329.749535 152.170429 
L 330.209994 151.268738 
L 330.670454 150.667814 
L 332.051832 150.186586 
L 332.97275 148.839393 
L 333.893669 147.094638 
L 334.354129 146.858299 
L 334.814588 146.762725 
L 336.195966 144.659797 
L 336.656425 143.6036 
L 337.116885 142.857026 
L 337.577344 142.577633 
L 338.037803 142.479006 
L 339.419182 140.172716 
L 340.3401 138.416968 
L 341.261019 138.030399 
L 342.642397 135.727773 
L 343.563316 134.222716 
L 344.484234 133.853245 
L 345.865613 131.849555 
L 346.786531 130.534424 
L 347.70745 130.289535 
L 348.167909 129.930447 
L 348.628369 129.213796 
L 349.088828 128.230272 
L 350.009747 127.025982 
L 350.930665 126.756665 
L 351.851584 125.557871 
L 352.312044 124.586561 
L 353.232962 123.41311 
L 354.153881 123.206085 
L 355.0748 122.281187 
L 356.456178 120.589257 
L 357.377097 120.435667 
L 358.298015 119.67749 
L 358.758475 119.089696 
L 359.218934 118.738546 
L 359.679393 118.101897 
L 360.600312 117.944032 
L 361.521231 117.131503 
L 361.98169 116.635008 
L 362.442149 116.402944 
L 362.902609 115.644766 
L 363.363068 115.506749 
L 363.363068 115.506749 
" style="fill:none;stroke:#000000;stroke-linecap:square;stroke-width:3;"/>
   </g>
   <g id="patch_3">
    <path d="M 43.78125 348.478125 
L 43.78125 22.318125 
" style="fill:none;stroke:#000000;stroke-linecap:square;stroke-linejoin:miter;stroke-width:0.8;"/>
   </g>
   <g id="patch_4">
    <path d="M 378.58125 348.478125 
L 378.58125 22.318125 
" style="fill:none;stroke:#000000;stroke-linecap:square;stroke-linejoin:miter;stroke-width:0.8;"/>
   </g>
   <g id="patch_5">
    <path d="M 43.78125 348.478125 
L 378.58125 348.478125 
" style="fill:none;stroke:#000000;stroke-linecap:square;stroke-linejoin:miter;stroke-width:0.8;"/>
   </g>
   <g id="patch_6">
    <path d="M 43.78125 22.318125 
L 378.58125 22.318125 
" style="fill:none;stroke:#000000;stroke-linecap:square;stroke-linejoin:miter;stroke-width:0.8;"/>
   </g>
   <g id="text_17">
    <!-- 4-week-ahead Forecasts -->
    <defs>
     <path d="M 4.203125 54.6875 
L 13.1875 54.6875 
L 24.421875 12.015625 
L 35.59375 54.6875 
L 46.1875 54.6875 
L 57.421875 12.015625 
L 68.609375 54.6875 
L 77.59375 54.6875 
L 63.28125 0 
L 52.6875 0 
L 40.921875 44.828125 
L 29.109375 0 
L 18.5 0 
z
" id="DejaVuSans-119"/>
     <path d="M 9.078125 75.984375 
L 18.109375 75.984375 
L 18.109375 31.109375 
L 44.921875 54.6875 
L 56.390625 54.6875 
L 27.390625 29.109375 
L 57.625 0 
L 45.90625 0 
L 18.109375 26.703125 
L 18.109375 0 
L 9.078125 0 
z
" id="DejaVuSans-107"/>
     <path d="M 45.40625 46.390625 
L 45.40625 75.984375 
L 54.390625 75.984375 
L 54.390625 0 
L 45.40625 0 
L 45.40625 8.203125 
Q 42.578125 3.328125 38.25 0.953125 
Q 33.9375 -1.421875 27.875 -1.421875 
Q 17.96875 -1.421875 11.734375 6.484375 
Q 5.515625 14.40625 5.515625 27.296875 
Q 5.515625 40.1875 11.734375 48.09375 
Q 17.96875 56 27.875 56 
Q 33.9375 56 38.25 53.625 
Q 42.578125 51.265625 45.40625 46.390625 
z
M 14.796875 27.296875 
Q 14.796875 17.390625 18.875 11.75 
Q 22.953125 6.109375 30.078125 6.109375 
Q 37.203125 6.109375 41.296875 11.75 
Q 45.40625 17.390625 45.40625 27.296875 
Q 45.40625 37.203125 41.296875 42.84375 
Q 37.203125 48.484375 30.078125 48.484375 
Q 22.953125 48.484375 18.875 42.84375 
Q 14.796875 37.203125 14.796875 27.296875 
z
" id="DejaVuSans-100"/>
     <path d="M 9.8125 72.90625 
L 51.703125 72.90625 
L 51.703125 64.59375 
L 19.671875 64.59375 
L 19.671875 43.109375 
L 48.578125 43.109375 
L 48.578125 34.8125 
L 19.671875 34.8125 
L 19.671875 0 
L 9.8125 0 
z
" id="DejaVuSans-70"/>
     <path d="M 30.609375 48.390625 
Q 23.390625 48.390625 19.1875 42.75 
Q 14.984375 37.109375 14.984375 27.296875 
Q 14.984375 17.484375 19.15625 11.84375 
Q 23.34375 6.203125 30.609375 6.203125 
Q 37.796875 6.203125 41.984375 11.859375 
Q 46.1875 17.53125 46.1875 27.296875 
Q 46.1875 37.015625 41.984375 42.703125 
Q 37.796875 48.390625 30.609375 48.390625 
z
M 30.609375 56 
Q 42.328125 56 49.015625 48.375 
Q 55.71875 40.765625 55.71875 27.296875 
Q 55.71875 13.875 49.015625 6.21875 
Q 42.328125 -1.421875 30.609375 -1.421875 
Q 18.84375 -1.421875 12.171875 6.21875 
Q 5.515625 13.875 5.515625 27.296875 
Q 5.515625 40.765625 12.171875 48.375 
Q 18.84375 56 30.609375 56 
z
" id="DejaVuSans-111"/>
     <path d="M 41.109375 46.296875 
Q 39.59375 47.171875 37.8125 47.578125 
Q 36.03125 48 33.890625 48 
Q 26.265625 48 22.1875 43.046875 
Q 18.109375 38.09375 18.109375 28.8125 
L 18.109375 0 
L 9.078125 0 
L 9.078125 54.6875 
L 18.109375 54.6875 
L 18.109375 46.1875 
Q 20.953125 51.171875 25.484375 53.578125 
Q 30.03125 56 36.53125 56 
Q 37.453125 56 38.578125 55.875 
Q 39.703125 55.765625 41.0625 55.515625 
z
" id="DejaVuSans-114"/>
     <path d="M 48.78125 52.59375 
L 48.78125 44.1875 
Q 44.96875 46.296875 41.140625 47.34375 
Q 37.3125 48.390625 33.40625 48.390625 
Q 24.65625 48.390625 19.8125 42.84375 
Q 14.984375 37.3125 14.984375 27.296875 
Q 14.984375 17.28125 19.8125 11.734375 
Q 24.65625 6.203125 33.40625 6.203125 
Q 37.3125 6.203125 41.140625 7.25 
Q 44.96875 8.296875 48.78125 10.40625 
L 48.78125 2.09375 
Q 45.015625 0.34375 40.984375 -0.53125 
Q 36.96875 -1.421875 32.421875 -1.421875 
Q 20.0625 -1.421875 12.78125 6.34375 
Q 5.515625 14.109375 5.515625 27.296875 
Q 5.515625 40.671875 12.859375 48.328125 
Q 20.21875 56 33.015625 56 
Q 37.15625 56 41.109375 55.140625 
Q 45.0625 54.296875 48.78125 52.59375 
z
" id="DejaVuSans-99"/>
    </defs>
    <g transform="translate(138.197812 16.318125)scale(0.12 -0.12)">
     <use xlink:href="#DejaVuSans-52"/>
     <use x="63.623047" xlink:href="#DejaVuSans-45"/>
     <use x="99.707031" xlink:href="#DejaVuSans-119"/>
     <use x="181.494141" xlink:href="#DejaVuSans-101"/>
     <use x="243.017578" xlink:href="#DejaVuSans-101"/>
     <use x="304.541016" xlink:href="#DejaVuSans-107"/>
     <use x="362.451172" xlink:href="#DejaVuSans-45"/>
     <use x="398.535156" xlink:href="#DejaVuSans-97"/>
     <use x="459.814453" xlink:href="#DejaVuSans-104"/>
     <use x="523.193359" xlink:href="#DejaVuSans-101"/>
     <use x="584.716797" xlink:href="#DejaVuSans-97"/>
     <use x="645.996094" xlink:href="#DejaVuSans-100"/>
     <use x="709.472656" xlink:href="#DejaVuSans-32"/>
     <use x="741.259766" xlink:href="#DejaVuSans-70"/>
     <use x="795.154297" xlink:href="#DejaVuSans-111"/>
     <use x="856.335938" xlink:href="#DejaVuSans-114"/>
     <use x="895.199219" xlink:href="#DejaVuSans-101"/>
     <use x="956.722656" xlink:href="#DejaVuSans-99"/>
     <use x="1011.703125" xlink:href="#DejaVuSans-97"/>
     <use x="1072.982422" xlink:href="#DejaVuSans-115"/>
     <use x="1125.082031" xlink:href="#DejaVuSans-116"/>
     <use x="1164.291016" xlink:href="#DejaVuSans-115"/>
    </g>
   </g>
   <g id="legend_1">
    <g id="patch_7">
     <path d="M 50.78125 44.99625 
L 179.229688 44.99625 
Q 181.229688 44.99625 181.229688 42.99625 
L 181.229688 29.318125 
Q 181.229688 27.318125 179.229688 27.318125 
L 50.78125 27.318125 
Q 48.78125 27.318125 48.78125 29.318125 
L 48.78125 42.99625 
Q 48.78125 44.99625 50.78125 44.99625 
z
" style="fill:#ffffff;opacity:0.8;stroke:#cccccc;stroke-linejoin:miter;"/>
    </g>
    <g id="line2d_16">
     <path d="M 52.78125 35.416562 
L 72.78125 35.416562 
" style="fill:none;stroke:#000080;stroke-linecap:square;stroke-width:1.5;"/>
    </g>
    <g id="line2d_17"/>
    <g id="text_18">
     <!-- COVIDhub:baseline -->
     <defs>
      <path d="M 39.40625 66.21875 
Q 28.65625 66.21875 22.328125 58.203125 
Q 16.015625 50.203125 16.015625 36.375 
Q 16.015625 22.609375 22.328125 14.59375 
Q 28.65625 6.59375 39.40625 6.59375 
Q 50.140625 6.59375 56.421875 14.59375 
Q 62.703125 22.609375 62.703125 36.375 
Q 62.703125 50.203125 56.421875 58.203125 
Q 50.140625 66.21875 39.40625 66.21875 
z
M 39.40625 74.21875 
Q 54.734375 74.21875 63.90625 63.9375 
Q 73.09375 53.65625 73.09375 36.375 
Q 73.09375 19.140625 63.90625 8.859375 
Q 54.734375 -1.421875 39.40625 -1.421875 
Q 24.03125 -1.421875 14.8125 8.828125 
Q 5.609375 19.09375 5.609375 36.375 
Q 5.609375 53.65625 14.8125 63.9375 
Q 24.03125 74.21875 39.40625 74.21875 
z
" id="DejaVuSans-79"/>
      <path d="M 28.609375 0 
L 0.78125 72.90625 
L 11.078125 72.90625 
L 34.1875 11.53125 
L 57.328125 72.90625 
L 67.578125 72.90625 
L 39.796875 0 
z
" id="DejaVuSans-86"/>
      <path d="M 9.8125 72.90625 
L 19.671875 72.90625 
L 19.671875 0 
L 9.8125 0 
z
" id="DejaVuSans-73"/>
      <path d="M 48.6875 27.296875 
Q 48.6875 37.203125 44.609375 42.84375 
Q 40.53125 48.484375 33.40625 48.484375 
Q 26.265625 48.484375 22.1875 42.84375 
Q 18.109375 37.203125 18.109375 27.296875 
Q 18.109375 17.390625 22.1875 11.75 
Q 26.265625 6.109375 33.40625 6.109375 
Q 40.53125 6.109375 44.609375 11.75 
Q 48.6875 17.390625 48.6875 27.296875 
z
M 18.109375 46.390625 
Q 20.953125 51.265625 25.265625 53.625 
Q 29.59375 56 35.59375 56 
Q 45.5625 56 51.78125 48.09375 
Q 58.015625 40.1875 58.015625 27.296875 
Q 58.015625 14.40625 51.78125 6.484375 
Q 45.5625 -1.421875 35.59375 -1.421875 
Q 29.59375 -1.421875 25.265625 0.953125 
Q 20.953125 3.328125 18.109375 8.203125 
L 18.109375 0 
L 9.078125 0 
L 9.078125 75.984375 
L 18.109375 75.984375 
z
" id="DejaVuSans-98"/>
      <path d="M 11.71875 12.40625 
L 22.015625 12.40625 
L 22.015625 0 
L 11.71875 0 
z
M 11.71875 51.703125 
L 22.015625 51.703125 
L 22.015625 39.3125 
L 11.71875 39.3125 
z
" id="DejaVuSans-58"/>
      <path d="M 54.890625 33.015625 
L 54.890625 0 
L 45.90625 0 
L 45.90625 32.71875 
Q 45.90625 40.484375 42.875 44.328125 
Q 39.84375 48.1875 33.796875 48.1875 
Q 26.515625 48.1875 22.3125 43.546875 
Q 18.109375 38.921875 18.109375 30.90625 
L 18.109375 0 
L 9.078125 0 
L 9.078125 54.6875 
L 18.109375 54.6875 
L 18.109375 46.1875 
Q 21.34375 51.125 25.703125 53.5625 
Q 30.078125 56 35.796875 56 
Q 45.21875 56 50.046875 50.171875 
Q 54.890625 44.34375 54.890625 33.015625 
z
" id="DejaVuSans-110"/>
     </defs>
     <g transform="translate(80.78125 38.916562)scale(0.1 -0.1)">
      <use xlink:href="#DejaVuSans-67"/>
      <use x="69.824219" xlink:href="#DejaVuSans-79"/>
      <use x="146.785156" xlink:href="#DejaVuSans-86"/>
      <use x="215.193359" xlink:href="#DejaVuSans-73"/>
      <use x="244.685547" xlink:href="#DejaVuSans-68"/>
      <use x="321.6875" xlink:href="#DejaVuSans-104"/>
      <use x="385.066406" xlink:href="#DejaVuSans-117"/>
      <use x="448.445312" xlink:href="#DejaVuSans-98"/>
      <use x="511.921875" xlink:href="#DejaVuSans-58"/>
      <use x="545.613281" xlink:href="#DejaVuSans-98"/>
      <use x="609.089844" xlink:href="#DejaVuSans-97"/>
      <use x="670.369141" xlink:href="#DejaVuSans-115"/>
      <use x="722.46875" xlink:href="#DejaVuSans-101"/>
      <use x="783.992188" xlink:href="#DejaVuSans-108"/>
      <use x="811.775391" xlink:href="#DejaVuSans-105"/>
      <use x="839.558594" xlink:href="#DejaVuSans-110"/>
      <use x="902.9375" xlink:href="#DejaVuSans-101"/>
     </g>
    </g>
   </g>
  </g>
 </g>
 <defs>
  <clipPath id="p3cf4d2df9c">
   <rect height="326.16" width="334.8" x="43.78125" y="22.318125"/>
  </clipPath>
 </defs>
</svg>
