<?xml version="1.0" encoding="utf-8" standalone="no"?>
<!DOCTYPE svg PUBLIC "-//W3C//DTD SVG 1.1//EN"
  "http://www.w3.org/Graphics/SVG/1.1/DTD/svg11.dtd">
<!-- Created with matplotlib (https://matplotlib.org/) -->
<svg height="525.005516pt" version="1.1" viewBox="0 0 650.448125 525.005516" width="650.448125pt" xmlns="http://www.w3.org/2000/svg" xmlns:xlink="http://www.w3.org/1999/xlink">
 <defs>
  <style type="text/css">
*{stroke-linecap:butt;stroke-linejoin:round;}
  </style>
 </defs>
 <g id="figure_1">
  <g id="patch_1">
   <path d="M 0 525.005516 
L 650.448125 525.005516 
L 650.448125 0 
L 0 0 
z
" style="fill:#ffffff;"/>
  </g>
  <g id="axes_1">
   <g id="patch_2">
    <path d="M 85.248125 442.08 
L 643.248125 442.08 
L 643.248125 7.2 
L 85.248125 7.2 
z
" style="fill:#ffffff;"/>
   </g>
   <g id="matplotlib.axis_1">
    <g id="xtick_1">
     <g id="line2d_1">
      <defs>
       <path d="M 0 0 
L 0 3.5 
" id="mc5d3b2f221" style="stroke:#000000;stroke-width:0.8;"/>
      </defs>
      <g>
       <use style="stroke:#000000;stroke-width:0.8;" x="126.563734" xlink:href="#mc5d3b2f221" y="442.08"/>
      </g>
     </g>
     <g id="text_1">
      <!-- 2020-02 -->
      <defs>
       <path d="M 19.1875 8.296875 
L 53.609375 8.296875 
L 53.609375 0 
L 7.328125 0 
L 7.328125 8.296875 
Q 12.9375 14.109375 22.625 23.890625 
Q 32.328125 33.6875 34.8125 36.53125 
Q 39.546875 41.84375 41.421875 45.53125 
Q 43.3125 49.21875 43.3125 52.78125 
Q 43.3125 58.59375 39.234375 62.25 
Q 35.15625 65.921875 28.609375 65.921875 
Q 23.96875 65.921875 18.8125 64.3125 
Q 13.671875 62.703125 7.8125 59.421875 
L 7.8125 69.390625 
Q 13.765625 71.78125 18.9375 73 
Q 24.125 74.21875 28.421875 74.21875 
Q 39.75 74.21875 46.484375 68.546875 
Q 53.21875 62.890625 53.21875 53.421875 
Q 53.21875 48.921875 51.53125 44.890625 
Q 49.859375 40.875 45.40625 35.40625 
Q 44.1875 33.984375 37.640625 27.21875 
Q 31.109375 20.453125 19.1875 8.296875 
z
" id="DejaVuSans-50"/>
       <path d="M 31.78125 66.40625 
Q 24.171875 66.40625 20.328125 58.90625 
Q 16.5 51.421875 16.5 36.375 
Q 16.5 21.390625 20.328125 13.890625 
Q 24.171875 6.390625 31.78125 6.390625 
Q 39.453125 6.390625 43.28125 13.890625 
Q 47.125 21.390625 47.125 36.375 
Q 47.125 51.421875 43.28125 58.90625 
Q 39.453125 66.40625 31.78125 66.40625 
z
M 31.78125 74.21875 
Q 44.046875 74.21875 50.515625 64.515625 
Q 56.984375 54.828125 56.984375 36.375 
Q 56.984375 17.96875 50.515625 8.265625 
Q 44.046875 -1.421875 31.78125 -1.421875 
Q 19.53125 -1.421875 13.0625 8.265625 
Q 6.59375 17.96875 6.59375 36.375 
Q 6.59375 54.828125 13.0625 64.515625 
Q 19.53125 74.21875 31.78125 74.21875 
z
" id="DejaVuSans-48"/>
       <path d="M 4.890625 31.390625 
L 31.203125 31.390625 
L 31.203125 23.390625 
L 4.890625 23.390625 
z
" id="DejaVuSans-45"/>
      </defs>
      <g transform="translate(109.896067 494.473162)rotate(-45)scale(0.13 -0.13)">
       <use xlink:href="#DejaVuSans-50"/>
       <use x="63.623047" xlink:href="#DejaVuSans-48"/>
       <use x="127.246094" xlink:href="#DejaVuSans-50"/>
       <use x="190.869141" xlink:href="#DejaVuSans-48"/>
       <use x="254.492188" xlink:href="#DejaVuSans-45"/>
       <use x="290.576172" xlink:href="#DejaVuSans-48"/>
       <use x="354.199219" xlink:href="#DejaVuSans-50"/>
      </g>
     </g>
    </g>
    <g id="xtick_2">
     <g id="line2d_2">
      <g>
       <use style="stroke:#000000;stroke-width:0.8;" x="172.824454" xlink:href="#mc5d3b2f221" y="442.08"/>
      </g>
     </g>
     <g id="text_2">
      <!-- 2020-03 -->
      <defs>
       <path d="M 40.578125 39.3125 
Q 47.65625 37.796875 51.625 33 
Q 55.609375 28.21875 55.609375 21.1875 
Q 55.609375 10.40625 48.1875 4.484375 
Q 40.765625 -1.421875 27.09375 -1.421875 
Q 22.515625 -1.421875 17.65625 -0.515625 
Q 12.796875 0.390625 7.625 2.203125 
L 7.625 11.71875 
Q 11.71875 9.328125 16.59375 8.109375 
Q 21.484375 6.890625 26.8125 6.890625 
Q 36.078125 6.890625 40.9375 10.546875 
Q 45.796875 14.203125 45.796875 21.1875 
Q 45.796875 27.640625 41.28125 31.265625 
Q 36.765625 34.90625 28.71875 34.90625 
L 20.21875 34.90625 
L 20.21875 43.015625 
L 29.109375 43.015625 
Q 36.375 43.015625 40.234375 45.921875 
Q 44.09375 48.828125 44.09375 54.296875 
Q 44.09375 59.90625 40.109375 62.90625 
Q 36.140625 65.921875 28.71875 65.921875 
Q 24.65625 65.921875 20.015625 65.03125 
Q 15.375 64.15625 9.8125 62.3125 
L 9.8125 71.09375 
Q 15.4375 72.65625 20.34375 73.4375 
Q 25.25 74.21875 29.59375 74.21875 
Q 40.828125 74.21875 47.359375 69.109375 
Q 53.90625 64.015625 53.90625 55.328125 
Q 53.90625 49.265625 50.4375 45.09375 
Q 46.96875 40.921875 40.578125 39.3125 
z
" id="DejaVuSans-51"/>
      </defs>
      <g transform="translate(156.156787 494.473162)rotate(-45)scale(0.13 -0.13)">
       <use xlink:href="#DejaVuSans-50"/>
       <use x="63.623047" xlink:href="#DejaVuSans-48"/>
       <use x="127.246094" xlink:href="#DejaVuSans-50"/>
       <use x="190.869141" xlink:href="#DejaVuSans-48"/>
       <use x="254.492188" xlink:href="#DejaVuSans-45"/>
       <use x="290.576172" xlink:href="#DejaVuSans-48"/>
       <use x="354.199219" xlink:href="#DejaVuSans-51"/>
      </g>
     </g>
    </g>
    <g id="xtick_3">
     <g id="line2d_3">
      <g>
       <use style="stroke:#000000;stroke-width:0.8;" x="222.275569" xlink:href="#mc5d3b2f221" y="442.08"/>
      </g>
     </g>
     <g id="text_3">
      <!-- 2020-04 -->
      <defs>
       <path d="M 37.796875 64.3125 
L 12.890625 25.390625 
L 37.796875 25.390625 
z
M 35.203125 72.90625 
L 47.609375 72.90625 
L 47.609375 25.390625 
L 58.015625 25.390625 
L 58.015625 17.1875 
L 47.609375 17.1875 
L 47.609375 0 
L 37.796875 0 
L 37.796875 17.1875 
L 4.890625 17.1875 
L 4.890625 26.703125 
z
" id="DejaVuSans-52"/>
      </defs>
      <g transform="translate(205.607902 494.473162)rotate(-45)scale(0.13 -0.13)">
       <use xlink:href="#DejaVuSans-50"/>
       <use x="63.623047" xlink:href="#DejaVuSans-48"/>
       <use x="127.246094" xlink:href="#DejaVuSans-50"/>
       <use x="190.869141" xlink:href="#DejaVuSans-48"/>
       <use x="254.492188" xlink:href="#DejaVuSans-45"/>
       <use x="290.576172" xlink:href="#DejaVuSans-48"/>
       <use x="354.199219" xlink:href="#DejaVuSans-52"/>
      </g>
     </g>
    </g>
    <g id="xtick_4">
     <g id="line2d_4">
      <g>
       <use style="stroke:#000000;stroke-width:0.8;" x="270.131487" xlink:href="#mc5d3b2f221" y="442.08"/>
      </g>
     </g>
     <g id="text_4">
      <!-- 2020-05 -->
      <defs>
       <path d="M 10.796875 72.90625 
L 49.515625 72.90625 
L 49.515625 64.59375 
L 19.828125 64.59375 
L 19.828125 46.734375 
Q 21.96875 47.46875 24.109375 47.828125 
Q 26.265625 48.1875 28.421875 48.1875 
Q 40.625 48.1875 47.75 41.5 
Q 54.890625 34.8125 54.890625 23.390625 
Q 54.890625 11.625 47.5625 5.09375 
Q 40.234375 -1.421875 26.90625 -1.421875 
Q 22.3125 -1.421875 17.546875 -0.640625 
Q 12.796875 0.140625 7.71875 1.703125 
L 7.71875 11.625 
Q 12.109375 9.234375 16.796875 8.0625 
Q 21.484375 6.890625 26.703125 6.890625 
Q 35.15625 6.890625 40.078125 11.328125 
Q 45.015625 15.765625 45.015625 23.390625 
Q 45.015625 31 40.078125 35.4375 
Q 35.15625 39.890625 26.703125 39.890625 
Q 22.75 39.890625 18.8125 39.015625 
Q 14.890625 38.140625 10.796875 36.28125 
z
" id="DejaVuSans-53"/>
      </defs>
      <g transform="translate(253.46382 494.473162)rotate(-45)scale(0.13 -0.13)">
       <use xlink:href="#DejaVuSans-50"/>
       <use x="63.623047" xlink:href="#DejaVuSans-48"/>
       <use x="127.246094" xlink:href="#DejaVuSans-50"/>
       <use x="190.869141" xlink:href="#DejaVuSans-48"/>
       <use x="254.492188" xlink:href="#DejaVuSans-45"/>
       <use x="290.576172" xlink:href="#DejaVuSans-48"/>
       <use x="354.199219" xlink:href="#DejaVuSans-53"/>
      </g>
     </g>
    </g>
    <g id="xtick_5">
     <g id="line2d_5">
      <g>
       <use style="stroke:#000000;stroke-width:0.8;" x="319.582602" xlink:href="#mc5d3b2f221" y="442.08"/>
      </g>
     </g>
     <g id="text_5">
      <!-- 2020-06 -->
      <defs>
       <path d="M 33.015625 40.375 
Q 26.375 40.375 22.484375 35.828125 
Q 18.609375 31.296875 18.609375 23.390625 
Q 18.609375 15.53125 22.484375 10.953125 
Q 26.375 6.390625 33.015625 6.390625 
Q 39.65625 6.390625 43.53125 10.953125 
Q 47.40625 15.53125 47.40625 23.390625 
Q 47.40625 31.296875 43.53125 35.828125 
Q 39.65625 40.375 33.015625 40.375 
z
M 52.59375 71.296875 
L 52.59375 62.3125 
Q 48.875 64.0625 45.09375 64.984375 
Q 41.3125 65.921875 37.59375 65.921875 
Q 27.828125 65.921875 22.671875 59.328125 
Q 17.53125 52.734375 16.796875 39.40625 
Q 19.671875 43.65625 24.015625 45.921875 
Q 28.375 48.1875 33.59375 48.1875 
Q 44.578125 48.1875 50.953125 41.515625 
Q 57.328125 34.859375 57.328125 23.390625 
Q 57.328125 12.15625 50.6875 5.359375 
Q 44.046875 -1.421875 33.015625 -1.421875 
Q 20.359375 -1.421875 13.671875 8.265625 
Q 6.984375 17.96875 6.984375 36.375 
Q 6.984375 53.65625 15.1875 63.9375 
Q 23.390625 74.21875 37.203125 74.21875 
Q 40.921875 74.21875 44.703125 73.484375 
Q 48.484375 72.75 52.59375 71.296875 
z
" id="DejaVuSans-54"/>
      </defs>
      <g transform="translate(302.914935 494.473162)rotate(-45)scale(0.13 -0.13)">
       <use xlink:href="#DejaVuSans-50"/>
       <use x="63.623047" xlink:href="#DejaVuSans-48"/>
       <use x="127.246094" xlink:href="#DejaVuSans-50"/>
       <use x="190.869141" xlink:href="#DejaVuSans-48"/>
       <use x="254.492188" xlink:href="#DejaVuSans-45"/>
       <use x="290.576172" xlink:href="#DejaVuSans-48"/>
       <use x="354.199219" xlink:href="#DejaVuSans-54"/>
      </g>
     </g>
    </g>
    <g id="xtick_6">
     <g id="line2d_6">
      <g>
       <use style="stroke:#000000;stroke-width:0.8;" x="367.43852" xlink:href="#mc5d3b2f221" y="442.08"/>
      </g>
     </g>
     <g id="text_6">
      <!-- 2020-07 -->
      <defs>
       <path d="M 8.203125 72.90625 
L 55.078125 72.90625 
L 55.078125 68.703125 
L 28.609375 0 
L 18.3125 0 
L 43.21875 64.59375 
L 8.203125 64.59375 
z
" id="DejaVuSans-55"/>
      </defs>
      <g transform="translate(350.770853 494.473162)rotate(-45)scale(0.13 -0.13)">
       <use xlink:href="#DejaVuSans-50"/>
       <use x="63.623047" xlink:href="#DejaVuSans-48"/>
       <use x="127.246094" xlink:href="#DejaVuSans-50"/>
       <use x="190.869141" xlink:href="#DejaVuSans-48"/>
       <use x="254.492188" xlink:href="#DejaVuSans-45"/>
       <use x="290.576172" xlink:href="#DejaVuSans-48"/>
       <use x="354.199219" xlink:href="#DejaVuSans-55"/>
      </g>
     </g>
    </g>
    <g id="xtick_7">
     <g id="line2d_7">
      <g>
       <use style="stroke:#000000;stroke-width:0.8;" x="416.889634" xlink:href="#mc5d3b2f221" y="442.08"/>
      </g>
     </g>
     <g id="text_7">
      <!-- 2020-08 -->
      <defs>
       <path d="M 31.78125 34.625 
Q 24.75 34.625 20.71875 30.859375 
Q 16.703125 27.09375 16.703125 20.515625 
Q 16.703125 13.921875 20.71875 10.15625 
Q 24.75 6.390625 31.78125 6.390625 
Q 38.8125 6.390625 42.859375 10.171875 
Q 46.921875 13.96875 46.921875 20.515625 
Q 46.921875 27.09375 42.890625 30.859375 
Q 38.875 34.625 31.78125 34.625 
z
M 21.921875 38.8125 
Q 15.578125 40.375 12.03125 44.71875 
Q 8.5 49.078125 8.5 55.328125 
Q 8.5 64.0625 14.71875 69.140625 
Q 20.953125 74.21875 31.78125 74.21875 
Q 42.671875 74.21875 48.875 69.140625 
Q 55.078125 64.0625 55.078125 55.328125 
Q 55.078125 49.078125 51.53125 44.71875 
Q 48 40.375 41.703125 38.8125 
Q 48.828125 37.15625 52.796875 32.3125 
Q 56.78125 27.484375 56.78125 20.515625 
Q 56.78125 9.90625 50.3125 4.234375 
Q 43.84375 -1.421875 31.78125 -1.421875 
Q 19.734375 -1.421875 13.25 4.234375 
Q 6.78125 9.90625 6.78125 20.515625 
Q 6.78125 27.484375 10.78125 32.3125 
Q 14.796875 37.15625 21.921875 38.8125 
z
M 18.3125 54.390625 
Q 18.3125 48.734375 21.84375 45.5625 
Q 25.390625 42.390625 31.78125 42.390625 
Q 38.140625 42.390625 41.71875 45.5625 
Q 45.3125 48.734375 45.3125 54.390625 
Q 45.3125 60.0625 41.71875 63.234375 
Q 38.140625 66.40625 31.78125 66.40625 
Q 25.390625 66.40625 21.84375 63.234375 
Q 18.3125 60.0625 18.3125 54.390625 
z
" id="DejaVuSans-56"/>
      </defs>
      <g transform="translate(400.221968 494.473162)rotate(-45)scale(0.13 -0.13)">
       <use xlink:href="#DejaVuSans-50"/>
       <use x="63.623047" xlink:href="#DejaVuSans-48"/>
       <use x="127.246094" xlink:href="#DejaVuSans-50"/>
       <use x="190.869141" xlink:href="#DejaVuSans-48"/>
       <use x="254.492188" xlink:href="#DejaVuSans-45"/>
       <use x="290.576172" xlink:href="#DejaVuSans-48"/>
       <use x="354.199219" xlink:href="#DejaVuSans-56"/>
      </g>
     </g>
    </g>
    <g id="xtick_8">
     <g id="line2d_8">
      <g>
       <use style="stroke:#000000;stroke-width:0.8;" x="466.340749" xlink:href="#mc5d3b2f221" y="442.08"/>
      </g>
     </g>
     <g id="text_8">
      <!-- 2020-09 -->
      <defs>
       <path d="M 10.984375 1.515625 
L 10.984375 10.5 
Q 14.703125 8.734375 18.5 7.8125 
Q 22.3125 6.890625 25.984375 6.890625 
Q 35.75 6.890625 40.890625 13.453125 
Q 46.046875 20.015625 46.78125 33.40625 
Q 43.953125 29.203125 39.59375 26.953125 
Q 35.25 24.703125 29.984375 24.703125 
Q 19.046875 24.703125 12.671875 31.3125 
Q 6.296875 37.9375 6.296875 49.421875 
Q 6.296875 60.640625 12.9375 67.421875 
Q 19.578125 74.21875 30.609375 74.21875 
Q 43.265625 74.21875 49.921875 64.515625 
Q 56.59375 54.828125 56.59375 36.375 
Q 56.59375 19.140625 48.40625 8.859375 
Q 40.234375 -1.421875 26.421875 -1.421875 
Q 22.703125 -1.421875 18.890625 -0.6875 
Q 15.09375 0.046875 10.984375 1.515625 
z
M 30.609375 32.421875 
Q 37.25 32.421875 41.125 36.953125 
Q 45.015625 41.5 45.015625 49.421875 
Q 45.015625 57.28125 41.125 61.84375 
Q 37.25 66.40625 30.609375 66.40625 
Q 23.96875 66.40625 20.09375 61.84375 
Q 16.21875 57.28125 16.21875 49.421875 
Q 16.21875 41.5 20.09375 36.953125 
Q 23.96875 32.421875 30.609375 32.421875 
z
" id="DejaVuSans-57"/>
      </defs>
      <g transform="translate(449.673082 494.473162)rotate(-45)scale(0.13 -0.13)">
       <use xlink:href="#DejaVuSans-50"/>
       <use x="63.623047" xlink:href="#DejaVuSans-48"/>
       <use x="127.246094" xlink:href="#DejaVuSans-50"/>
       <use x="190.869141" xlink:href="#DejaVuSans-48"/>
       <use x="254.492188" xlink:href="#DejaVuSans-45"/>
       <use x="290.576172" xlink:href="#DejaVuSans-48"/>
       <use x="354.199219" xlink:href="#DejaVuSans-57"/>
      </g>
     </g>
    </g>
    <g id="xtick_9">
     <g id="line2d_9">
      <g>
       <use style="stroke:#000000;stroke-width:0.8;" x="514.196667" xlink:href="#mc5d3b2f221" y="442.08"/>
      </g>
     </g>
     <g id="text_9">
      <!-- 2020-10 -->
      <defs>
       <path d="M 12.40625 8.296875 
L 28.515625 8.296875 
L 28.515625 63.921875 
L 10.984375 60.40625 
L 10.984375 69.390625 
L 28.421875 72.90625 
L 38.28125 72.90625 
L 38.28125 8.296875 
L 54.390625 8.296875 
L 54.390625 0 
L 12.40625 0 
z
" id="DejaVuSans-49"/>
      </defs>
      <g transform="translate(497.529 494.473162)rotate(-45)scale(0.13 -0.13)">
       <use xlink:href="#DejaVuSans-50"/>
       <use x="63.623047" xlink:href="#DejaVuSans-48"/>
       <use x="127.246094" xlink:href="#DejaVuSans-50"/>
       <use x="190.869141" xlink:href="#DejaVuSans-48"/>
       <use x="254.492188" xlink:href="#DejaVuSans-45"/>
       <use x="290.576172" xlink:href="#DejaVuSans-49"/>
       <use x="354.199219" xlink:href="#DejaVuSans-48"/>
      </g>
     </g>
    </g>
    <g id="xtick_10">
     <g id="line2d_10">
      <g>
       <use style="stroke:#000000;stroke-width:0.8;" x="563.647782" xlink:href="#mc5d3b2f221" y="442.08"/>
      </g>
     </g>
     <g id="text_10">
      <!-- 2020-11 -->
      <g transform="translate(546.980115 494.473162)rotate(-45)scale(0.13 -0.13)">
       <use xlink:href="#DejaVuSans-50"/>
       <use x="63.623047" xlink:href="#DejaVuSans-48"/>
       <use x="127.246094" xlink:href="#DejaVuSans-50"/>
       <use x="190.869141" xlink:href="#DejaVuSans-48"/>
       <use x="254.492188" xlink:href="#DejaVuSans-45"/>
       <use x="290.576172" xlink:href="#DejaVuSans-49"/>
       <use x="354.199219" xlink:href="#DejaVuSans-49"/>
      </g>
     </g>
    </g>
    <g id="xtick_11">
     <g id="line2d_11">
      <g>
       <use style="stroke:#000000;stroke-width:0.8;" x="611.5037" xlink:href="#mc5d3b2f221" y="442.08"/>
      </g>
     </g>
     <g id="text_11">
      <!-- 2020-12 -->
      <g transform="translate(594.836033 494.473162)rotate(-45)scale(0.13 -0.13)">
       <use xlink:href="#DejaVuSans-50"/>
       <use x="63.623047" xlink:href="#DejaVuSans-48"/>
       <use x="127.246094" xlink:href="#DejaVuSans-50"/>
       <use x="190.869141" xlink:href="#DejaVuSans-48"/>
       <use x="254.492188" xlink:href="#DejaVuSans-45"/>
       <use x="290.576172" xlink:href="#DejaVuSans-49"/>
       <use x="354.199219" xlink:href="#DejaVuSans-50"/>
      </g>
     </g>
    </g>
    <g id="text_12">
     <!-- Target End Date -->
     <defs>
      <path d="M -0.296875 72.90625 
L 61.375 72.90625 
L 61.375 64.59375 
L 35.5 64.59375 
L 35.5 0 
L 25.59375 0 
L 25.59375 64.59375 
L -0.296875 64.59375 
z
" id="DejaVuSans-84"/>
      <path d="M 34.28125 27.484375 
Q 23.390625 27.484375 19.1875 25 
Q 14.984375 22.515625 14.984375 16.5 
Q 14.984375 11.71875 18.140625 8.90625 
Q 21.296875 6.109375 26.703125 6.109375 
Q 34.1875 6.109375 38.703125 11.40625 
Q 43.21875 16.703125 43.21875 25.484375 
L 43.21875 27.484375 
z
M 52.203125 31.203125 
L 52.203125 0 
L 43.21875 0 
L 43.21875 8.296875 
Q 40.140625 3.328125 35.546875 0.953125 
Q 30.953125 -1.421875 24.3125 -1.421875 
Q 15.921875 -1.421875 10.953125 3.296875 
Q 6 8.015625 6 15.921875 
Q 6 25.140625 12.171875 29.828125 
Q 18.359375 34.515625 30.609375 34.515625 
L 43.21875 34.515625 
L 43.21875 35.40625 
Q 43.21875 41.609375 39.140625 45 
Q 35.0625 48.390625 27.6875 48.390625 
Q 23 48.390625 18.546875 47.265625 
Q 14.109375 46.140625 10.015625 43.890625 
L 10.015625 52.203125 
Q 14.9375 54.109375 19.578125 55.046875 
Q 24.21875 56 28.609375 56 
Q 40.484375 56 46.34375 49.84375 
Q 52.203125 43.703125 52.203125 31.203125 
z
" id="DejaVuSans-97"/>
      <path d="M 41.109375 46.296875 
Q 39.59375 47.171875 37.8125 47.578125 
Q 36.03125 48 33.890625 48 
Q 26.265625 48 22.1875 43.046875 
Q 18.109375 38.09375 18.109375 28.8125 
L 18.109375 0 
L 9.078125 0 
L 9.078125 54.6875 
L 18.109375 54.6875 
L 18.109375 46.1875 
Q 20.953125 51.171875 25.484375 53.578125 
Q 30.03125 56 36.53125 56 
Q 37.453125 56 38.578125 55.875 
Q 39.703125 55.765625 41.0625 55.515625 
z
" id="DejaVuSans-114"/>
      <path d="M 45.40625 27.984375 
Q 45.40625 37.75 41.375 43.109375 
Q 37.359375 48.484375 30.078125 48.484375 
Q 22.859375 48.484375 18.828125 43.109375 
Q 14.796875 37.75 14.796875 27.984375 
Q 14.796875 18.265625 18.828125 12.890625 
Q 22.859375 7.515625 30.078125 7.515625 
Q 37.359375 7.515625 41.375 12.890625 
Q 45.40625 18.265625 45.40625 27.984375 
z
M 54.390625 6.78125 
Q 54.390625 -7.171875 48.1875 -13.984375 
Q 42 -20.796875 29.203125 -20.796875 
Q 24.46875 -20.796875 20.265625 -20.09375 
Q 16.0625 -19.390625 12.109375 -17.921875 
L 12.109375 -9.1875 
Q 16.0625 -11.328125 19.921875 -12.34375 
Q 23.78125 -13.375 27.78125 -13.375 
Q 36.625 -13.375 41.015625 -8.765625 
Q 45.40625 -4.15625 45.40625 5.171875 
L 45.40625 9.625 
Q 42.625 4.78125 38.28125 2.390625 
Q 33.9375 0 27.875 0 
Q 17.828125 0 11.671875 7.65625 
Q 5.515625 15.328125 5.515625 27.984375 
Q 5.515625 40.671875 11.671875 48.328125 
Q 17.828125 56 27.875 56 
Q 33.9375 56 38.28125 53.609375 
Q 42.625 51.21875 45.40625 46.390625 
L 45.40625 54.6875 
L 54.390625 54.6875 
z
" id="DejaVuSans-103"/>
      <path d="M 56.203125 29.59375 
L 56.203125 25.203125 
L 14.890625 25.203125 
Q 15.484375 15.921875 20.484375 11.0625 
Q 25.484375 6.203125 34.421875 6.203125 
Q 39.59375 6.203125 44.453125 7.46875 
Q 49.3125 8.734375 54.109375 11.28125 
L 54.109375 2.78125 
Q 49.265625 0.734375 44.1875 -0.34375 
Q 39.109375 -1.421875 33.890625 -1.421875 
Q 20.796875 -1.421875 13.15625 6.1875 
Q 5.515625 13.8125 5.515625 26.8125 
Q 5.515625 40.234375 12.765625 48.109375 
Q 20.015625 56 32.328125 56 
Q 43.359375 56 49.78125 48.890625 
Q 56.203125 41.796875 56.203125 29.59375 
z
M 47.21875 32.234375 
Q 47.125 39.59375 43.09375 43.984375 
Q 39.0625 48.390625 32.421875 48.390625 
Q 24.90625 48.390625 20.390625 44.140625 
Q 15.875 39.890625 15.1875 32.171875 
z
" id="DejaVuSans-101"/>
      <path d="M 18.3125 70.21875 
L 18.3125 54.6875 
L 36.8125 54.6875 
L 36.8125 47.703125 
L 18.3125 47.703125 
L 18.3125 18.015625 
Q 18.3125 11.328125 20.140625 9.421875 
Q 21.96875 7.515625 27.59375 7.515625 
L 36.8125 7.515625 
L 36.8125 0 
L 27.59375 0 
Q 17.1875 0 13.234375 3.875 
Q 9.28125 7.765625 9.28125 18.015625 
L 9.28125 47.703125 
L 2.6875 47.703125 
L 2.6875 54.6875 
L 9.28125 54.6875 
L 9.28125 70.21875 
z
" id="DejaVuSans-116"/>
      <path id="DejaVuSans-32"/>
      <path d="M 9.8125 72.90625 
L 55.90625 72.90625 
L 55.90625 64.59375 
L 19.671875 64.59375 
L 19.671875 43.015625 
L 54.390625 43.015625 
L 54.390625 34.71875 
L 19.671875 34.71875 
L 19.671875 8.296875 
L 56.78125 8.296875 
L 56.78125 0 
L 9.8125 0 
z
" id="DejaVuSans-69"/>
      <path d="M 54.890625 33.015625 
L 54.890625 0 
L 45.90625 0 
L 45.90625 32.71875 
Q 45.90625 40.484375 42.875 44.328125 
Q 39.84375 48.1875 33.796875 48.1875 
Q 26.515625 48.1875 22.3125 43.546875 
Q 18.109375 38.921875 18.109375 30.90625 
L 18.109375 0 
L 9.078125 0 
L 9.078125 54.6875 
L 18.109375 54.6875 
L 18.109375 46.1875 
Q 21.34375 51.125 25.703125 53.5625 
Q 30.078125 56 35.796875 56 
Q 45.21875 56 50.046875 50.171875 
Q 54.890625 44.34375 54.890625 33.015625 
z
" id="DejaVuSans-110"/>
      <path d="M 45.40625 46.390625 
L 45.40625 75.984375 
L 54.390625 75.984375 
L 54.390625 0 
L 45.40625 0 
L 45.40625 8.203125 
Q 42.578125 3.328125 38.25 0.953125 
Q 33.9375 -1.421875 27.875 -1.421875 
Q 17.96875 -1.421875 11.734375 6.484375 
Q 5.515625 14.40625 5.515625 27.296875 
Q 5.515625 40.1875 11.734375 48.09375 
Q 17.96875 56 27.875 56 
Q 33.9375 56 38.25 53.625 
Q 42.578125 51.265625 45.40625 46.390625 
z
M 14.796875 27.296875 
Q 14.796875 17.390625 18.875 11.75 
Q 22.953125 6.109375 30.078125 6.109375 
Q 37.203125 6.109375 41.296875 11.75 
Q 45.40625 17.390625 45.40625 27.296875 
Q 45.40625 37.203125 41.296875 42.84375 
Q 37.203125 48.484375 30.078125 48.484375 
Q 22.953125 48.484375 18.875 42.84375 
Q 14.796875 37.203125 14.796875 27.296875 
z
" id="DejaVuSans-100"/>
      <path d="M 19.671875 64.796875 
L 19.671875 8.109375 
L 31.59375 8.109375 
Q 46.6875 8.109375 53.6875 14.9375 
Q 60.6875 21.78125 60.6875 36.53125 
Q 60.6875 51.171875 53.6875 57.984375 
Q 46.6875 64.796875 31.59375 64.796875 
z
M 9.8125 72.90625 
L 30.078125 72.90625 
Q 51.265625 72.90625 61.171875 64.09375 
Q 71.09375 55.28125 71.09375 36.53125 
Q 71.09375 17.671875 61.125 8.828125 
Q 51.171875 0 30.078125 0 
L 9.8125 0 
z
" id="DejaVuSans-68"/>
     </defs>
     <g transform="translate(292.0625 514.062079)scale(0.18 -0.18)">
      <use xlink:href="#DejaVuSans-84"/>
      <use x="44.583984" xlink:href="#DejaVuSans-97"/>
      <use x="105.863281" xlink:href="#DejaVuSans-114"/>
      <use x="145.226562" xlink:href="#DejaVuSans-103"/>
      <use x="208.703125" xlink:href="#DejaVuSans-101"/>
      <use x="270.226562" xlink:href="#DejaVuSans-116"/>
      <use x="309.435547" xlink:href="#DejaVuSans-32"/>
      <use x="341.222656" xlink:href="#DejaVuSans-69"/>
      <use x="404.40625" xlink:href="#DejaVuSans-110"/>
      <use x="467.785156" xlink:href="#DejaVuSans-100"/>
      <use x="531.261719" xlink:href="#DejaVuSans-32"/>
      <use x="563.048828" xlink:href="#DejaVuSans-68"/>
      <use x="640.050781" xlink:href="#DejaVuSans-97"/>
      <use x="701.330078" xlink:href="#DejaVuSans-116"/>
      <use x="740.539062" xlink:href="#DejaVuSans-101"/>
     </g>
    </g>
   </g>
   <g id="matplotlib.axis_2">
    <g id="ytick_1">
     <g id="line2d_12">
      <defs>
       <path d="M 0 0 
L -3.5 0 
" id="m36d81103f5" style="stroke:#000000;stroke-width:0.8;"/>
      </defs>
      <g>
       <use style="stroke:#000000;stroke-width:0.8;" x="85.248125" xlink:href="#m36d81103f5" y="442.08"/>
      </g>
     </g>
     <g id="text_13">
      <!-- 0 -->
      <g transform="translate(69.976875 447.018984)scale(0.13 -0.13)">
       <use xlink:href="#DejaVuSans-48"/>
      </g>
     </g>
    </g>
    <g id="ytick_2">
     <g id="line2d_13">
      <g>
       <use style="stroke:#000000;stroke-width:0.8;" x="85.248125" xlink:href="#m36d81103f5" y="371.780367"/>
      </g>
     </g>
     <g id="text_14">
      <!-- 50000 -->
      <g transform="translate(36.891875 376.719351)scale(0.13 -0.13)">
       <use xlink:href="#DejaVuSans-53"/>
       <use x="63.623047" xlink:href="#DejaVuSans-48"/>
       <use x="127.246094" xlink:href="#DejaVuSans-48"/>
       <use x="190.869141" xlink:href="#DejaVuSans-48"/>
       <use x="254.492188" xlink:href="#DejaVuSans-48"/>
      </g>
     </g>
    </g>
    <g id="ytick_3">
     <g id="line2d_14">
      <g>
       <use style="stroke:#000000;stroke-width:0.8;" x="85.248125" xlink:href="#m36d81103f5" y="301.480733"/>
      </g>
     </g>
     <g id="text_15">
      <!-- 100000 -->
      <g transform="translate(28.620625 306.419718)scale(0.13 -0.13)">
       <use xlink:href="#DejaVuSans-49"/>
       <use x="63.623047" xlink:href="#DejaVuSans-48"/>
       <use x="127.246094" xlink:href="#DejaVuSans-48"/>
       <use x="190.869141" xlink:href="#DejaVuSans-48"/>
       <use x="254.492188" xlink:href="#DejaVuSans-48"/>
       <use x="318.115234" xlink:href="#DejaVuSans-48"/>
      </g>
     </g>
    </g>
    <g id="ytick_4">
     <g id="line2d_15">
      <g>
       <use style="stroke:#000000;stroke-width:0.8;" x="85.248125" xlink:href="#m36d81103f5" y="231.1811"/>
      </g>
     </g>
     <g id="text_16">
      <!-- 150000 -->
      <g transform="translate(28.620625 236.120084)scale(0.13 -0.13)">
       <use xlink:href="#DejaVuSans-49"/>
       <use x="63.623047" xlink:href="#DejaVuSans-53"/>
       <use x="127.246094" xlink:href="#DejaVuSans-48"/>
       <use x="190.869141" xlink:href="#DejaVuSans-48"/>
       <use x="254.492188" xlink:href="#DejaVuSans-48"/>
       <use x="318.115234" xlink:href="#DejaVuSans-48"/>
      </g>
     </g>
    </g>
    <g id="ytick_5">
     <g id="line2d_16">
      <g>
       <use style="stroke:#000000;stroke-width:0.8;" x="85.248125" xlink:href="#m36d81103f5" y="160.881466"/>
      </g>
     </g>
     <g id="text_17">
      <!-- 200000 -->
      <g transform="translate(28.620625 165.820451)scale(0.13 -0.13)">
       <use xlink:href="#DejaVuSans-50"/>
       <use x="63.623047" xlink:href="#DejaVuSans-48"/>
       <use x="127.246094" xlink:href="#DejaVuSans-48"/>
       <use x="190.869141" xlink:href="#DejaVuSans-48"/>
       <use x="254.492188" xlink:href="#DejaVuSans-48"/>
       <use x="318.115234" xlink:href="#DejaVuSans-48"/>
      </g>
     </g>
    </g>
    <g id="ytick_6">
     <g id="line2d_17">
      <g>
       <use style="stroke:#000000;stroke-width:0.8;" x="85.248125" xlink:href="#m36d81103f5" y="90.581833"/>
      </g>
     </g>
     <g id="text_18">
      <!-- 250000 -->
      <g transform="translate(28.620625 95.520817)scale(0.13 -0.13)">
       <use xlink:href="#DejaVuSans-50"/>
       <use x="63.623047" xlink:href="#DejaVuSans-53"/>
       <use x="127.246094" xlink:href="#DejaVuSans-48"/>
       <use x="190.869141" xlink:href="#DejaVuSans-48"/>
       <use x="254.492188" xlink:href="#DejaVuSans-48"/>
       <use x="318.115234" xlink:href="#DejaVuSans-48"/>
      </g>
     </g>
    </g>
    <g id="ytick_7">
     <g id="line2d_18">
      <g>
       <use style="stroke:#000000;stroke-width:0.8;" x="85.248125" xlink:href="#m36d81103f5" y="20.282199"/>
      </g>
     </g>
     <g id="text_19">
      <!-- 300000 -->
      <g transform="translate(28.620625 25.221184)scale(0.13 -0.13)">
       <use xlink:href="#DejaVuSans-51"/>
       <use x="63.623047" xlink:href="#DejaVuSans-48"/>
       <use x="127.246094" xlink:href="#DejaVuSans-48"/>
       <use x="190.869141" xlink:href="#DejaVuSans-48"/>
       <use x="254.492188" xlink:href="#DejaVuSans-48"/>
       <use x="318.115234" xlink:href="#DejaVuSans-48"/>
      </g>
     </g>
    </g>
    <g id="text_20">
     <!-- US cumulative deaths -->
     <defs>
      <path d="M 8.6875 72.90625 
L 18.609375 72.90625 
L 18.609375 28.609375 
Q 18.609375 16.890625 22.84375 11.734375 
Q 27.09375 6.59375 36.625 6.59375 
Q 46.09375 6.59375 50.34375 11.734375 
Q 54.59375 16.890625 54.59375 28.609375 
L 54.59375 72.90625 
L 64.5 72.90625 
L 64.5 27.390625 
Q 64.5 13.140625 57.4375 5.859375 
Q 50.390625 -1.421875 36.625 -1.421875 
Q 22.796875 -1.421875 15.734375 5.859375 
Q 8.6875 13.140625 8.6875 27.390625 
z
" id="DejaVuSans-85"/>
      <path d="M 53.515625 70.515625 
L 53.515625 60.890625 
Q 47.90625 63.578125 42.921875 64.890625 
Q 37.9375 66.21875 33.296875 66.21875 
Q 25.25 66.21875 20.875 63.09375 
Q 16.5 59.96875 16.5 54.203125 
Q 16.5 49.359375 19.40625 46.890625 
Q 22.3125 44.4375 30.421875 42.921875 
L 36.375 41.703125 
Q 47.40625 39.59375 52.65625 34.296875 
Q 57.90625 29 57.90625 20.125 
Q 57.90625 9.515625 50.796875 4.046875 
Q 43.703125 -1.421875 29.984375 -1.421875 
Q 24.8125 -1.421875 18.96875 -0.25 
Q 13.140625 0.921875 6.890625 3.21875 
L 6.890625 13.375 
Q 12.890625 10.015625 18.65625 8.296875 
Q 24.421875 6.59375 29.984375 6.59375 
Q 38.421875 6.59375 43.015625 9.90625 
Q 47.609375 13.234375 47.609375 19.390625 
Q 47.609375 24.75 44.3125 27.78125 
Q 41.015625 30.8125 33.5 32.328125 
L 27.484375 33.5 
Q 16.453125 35.6875 11.515625 40.375 
Q 6.59375 45.0625 6.59375 53.421875 
Q 6.59375 63.09375 13.40625 68.65625 
Q 20.21875 74.21875 32.171875 74.21875 
Q 37.3125 74.21875 42.625 73.28125 
Q 47.953125 72.359375 53.515625 70.515625 
z
" id="DejaVuSans-83"/>
      <path d="M 48.78125 52.59375 
L 48.78125 44.1875 
Q 44.96875 46.296875 41.140625 47.34375 
Q 37.3125 48.390625 33.40625 48.390625 
Q 24.65625 48.390625 19.8125 42.84375 
Q 14.984375 37.3125 14.984375 27.296875 
Q 14.984375 17.28125 19.8125 11.734375 
Q 24.65625 6.203125 33.40625 6.203125 
Q 37.3125 6.203125 41.140625 7.25 
Q 44.96875 8.296875 48.78125 10.40625 
L 48.78125 2.09375 
Q 45.015625 0.34375 40.984375 -0.53125 
Q 36.96875 -1.421875 32.421875 -1.421875 
Q 20.0625 -1.421875 12.78125 6.34375 
Q 5.515625 14.109375 5.515625 27.296875 
Q 5.515625 40.671875 12.859375 48.328125 
Q 20.21875 56 33.015625 56 
Q 37.15625 56 41.109375 55.140625 
Q 45.0625 54.296875 48.78125 52.59375 
z
" id="DejaVuSans-99"/>
      <path d="M 8.5 21.578125 
L 8.5 54.6875 
L 17.484375 54.6875 
L 17.484375 21.921875 
Q 17.484375 14.15625 20.5 10.265625 
Q 23.53125 6.390625 29.59375 6.390625 
Q 36.859375 6.390625 41.078125 11.03125 
Q 45.3125 15.671875 45.3125 23.6875 
L 45.3125 54.6875 
L 54.296875 54.6875 
L 54.296875 0 
L 45.3125 0 
L 45.3125 8.40625 
Q 42.046875 3.421875 37.71875 1 
Q 33.40625 -1.421875 27.6875 -1.421875 
Q 18.265625 -1.421875 13.375 4.4375 
Q 8.5 10.296875 8.5 21.578125 
z
M 31.109375 56 
z
" id="DejaVuSans-117"/>
      <path d="M 52 44.1875 
Q 55.375 50.25 60.0625 53.125 
Q 64.75 56 71.09375 56 
Q 79.640625 56 84.28125 50.015625 
Q 88.921875 44.046875 88.921875 33.015625 
L 88.921875 0 
L 79.890625 0 
L 79.890625 32.71875 
Q 79.890625 40.578125 77.09375 44.375 
Q 74.3125 48.1875 68.609375 48.1875 
Q 61.625 48.1875 57.5625 43.546875 
Q 53.515625 38.921875 53.515625 30.90625 
L 53.515625 0 
L 44.484375 0 
L 44.484375 32.71875 
Q 44.484375 40.625 41.703125 44.40625 
Q 38.921875 48.1875 33.109375 48.1875 
Q 26.21875 48.1875 22.15625 43.53125 
Q 18.109375 38.875 18.109375 30.90625 
L 18.109375 0 
L 9.078125 0 
L 9.078125 54.6875 
L 18.109375 54.6875 
L 18.109375 46.1875 
Q 21.1875 51.21875 25.484375 53.609375 
Q 29.78125 56 35.6875 56 
Q 41.65625 56 45.828125 52.96875 
Q 50 49.953125 52 44.1875 
z
" id="DejaVuSans-109"/>
      <path d="M 9.421875 75.984375 
L 18.40625 75.984375 
L 18.40625 0 
L 9.421875 0 
z
" id="DejaVuSans-108"/>
      <path d="M 9.421875 54.6875 
L 18.40625 54.6875 
L 18.40625 0 
L 9.421875 0 
z
M 9.421875 75.984375 
L 18.40625 75.984375 
L 18.40625 64.59375 
L 9.421875 64.59375 
z
" id="DejaVuSans-105"/>
      <path d="M 2.984375 54.6875 
L 12.5 54.6875 
L 29.59375 8.796875 
L 46.6875 54.6875 
L 56.203125 54.6875 
L 35.6875 0 
L 23.484375 0 
z
" id="DejaVuSans-118"/>
      <path d="M 54.890625 33.015625 
L 54.890625 0 
L 45.90625 0 
L 45.90625 32.71875 
Q 45.90625 40.484375 42.875 44.328125 
Q 39.84375 48.1875 33.796875 48.1875 
Q 26.515625 48.1875 22.3125 43.546875 
Q 18.109375 38.921875 18.109375 30.90625 
L 18.109375 0 
L 9.078125 0 
L 9.078125 75.984375 
L 18.109375 75.984375 
L 18.109375 46.1875 
Q 21.34375 51.125 25.703125 53.5625 
Q 30.078125 56 35.796875 56 
Q 45.21875 56 50.046875 50.171875 
Q 54.890625 44.34375 54.890625 33.015625 
z
" id="DejaVuSans-104"/>
      <path d="M 44.28125 53.078125 
L 44.28125 44.578125 
Q 40.484375 46.53125 36.375 47.5 
Q 32.28125 48.484375 27.875 48.484375 
Q 21.1875 48.484375 17.84375 46.4375 
Q 14.5 44.390625 14.5 40.28125 
Q 14.5 37.15625 16.890625 35.375 
Q 19.28125 33.59375 26.515625 31.984375 
L 29.59375 31.296875 
Q 39.15625 29.25 43.1875 25.515625 
Q 47.21875 21.78125 47.21875 15.09375 
Q 47.21875 7.46875 41.1875 3.015625 
Q 35.15625 -1.421875 24.609375 -1.421875 
Q 20.21875 -1.421875 15.453125 -0.5625 
Q 10.6875 0.296875 5.421875 2 
L 5.421875 11.28125 
Q 10.40625 8.6875 15.234375 7.390625 
Q 20.0625 6.109375 24.8125 6.109375 
Q 31.15625 6.109375 34.5625 8.28125 
Q 37.984375 10.453125 37.984375 14.40625 
Q 37.984375 18.0625 35.515625 20.015625 
Q 33.0625 21.96875 24.703125 23.78125 
L 21.578125 24.515625 
Q 13.234375 26.265625 9.515625 29.90625 
Q 5.8125 33.546875 5.8125 39.890625 
Q 5.8125 47.609375 11.28125 51.796875 
Q 16.75 56 26.8125 56 
Q 31.78125 56 36.171875 55.265625 
Q 40.578125 54.546875 44.28125 53.078125 
z
" id="DejaVuSans-115"/>
     </defs>
     <g transform="translate(20.877188 323.379844)rotate(-90)scale(0.18 -0.18)">
      <use xlink:href="#DejaVuSans-85"/>
      <use x="73.193359" xlink:href="#DejaVuSans-83"/>
      <use x="136.669922" xlink:href="#DejaVuSans-32"/>
      <use x="168.457031" xlink:href="#DejaVuSans-99"/>
      <use x="223.4375" xlink:href="#DejaVuSans-117"/>
      <use x="286.816406" xlink:href="#DejaVuSans-109"/>
      <use x="384.228516" xlink:href="#DejaVuSans-117"/>
      <use x="447.607422" xlink:href="#DejaVuSans-108"/>
      <use x="475.390625" xlink:href="#DejaVuSans-97"/>
      <use x="536.669922" xlink:href="#DejaVuSans-116"/>
      <use x="575.878906" xlink:href="#DejaVuSans-105"/>
      <use x="603.662109" xlink:href="#DejaVuSans-118"/>
      <use x="662.841797" xlink:href="#DejaVuSans-101"/>
      <use x="724.365234" xlink:href="#DejaVuSans-32"/>
      <use x="756.152344" xlink:href="#DejaVuSans-100"/>
      <use x="819.628906" xlink:href="#DejaVuSans-101"/>
      <use x="881.152344" xlink:href="#DejaVuSans-97"/>
      <use x="942.431641" xlink:href="#DejaVuSans-116"/>
      <use x="981.640625" xlink:href="#DejaVuSans-104"/>
      <use x="1045.019531" xlink:href="#DejaVuSans-115"/>
     </g>
    </g>
   </g>
   <g id="line2d_19">
    <path clip-path="url(#p54b0258c35)" d="M 204.728399 441.794583 
L 215.89478 438.483471 
L 227.061161 427.245371 
L 238.227542 412.148759 
L 249.393923 392.421074 
L 260.560303 362.854249 
L 271.726684 351.277586 
L 282.893065 333.534662 
L 294.059446 316.79405 
L 305.225827 304.904709 
L 316.392207 295.239469 
L 327.558588 287.090884 
L 338.724969 273.197494 
L 349.89135 272.011959 
L 361.05773 267.300583 
L 372.224111 259.570951 
L 383.390492 254.61462 
L 394.556873 246.77724 
L 405.723254 238.059709 
L 416.889634 228.424383 
L 428.056015 216.750008 
L 439.222396 204.675592 
L 450.388777 196.205026 
L 461.555158 186.42341 
L 472.721538 177.403893 
L 483.887919 169.725422 
L 495.0543 163.376177 
L 506.220681 155.525801 
L 517.387062 148.130022 
L 528.553442 141.296181 
L 539.719823 134.252964 
L 550.886204 127.008459 
L 562.052585 118.315411 
L 573.218965 109.638137 
L 584.385346 99.142213 
L 595.551727 85.044618 
L 606.718108 67.277577 
L 617.884489 47.021814 
" style="fill:none;stroke:#0010ff;stroke-linecap:square;stroke-width:1.5;"/>
   </g>
   <g id="line2d_20">
    <path clip-path="url(#p54b0258c35)" d="M 249.393923 412.316541 
L 260.560303 369.763656 
L 271.726684 348.48553 
L 282.893065 334.299446 
L 294.059446 317.307512 
L 305.225827 304.123949 
L 316.392207 293.690195 
L 327.558588 286.267514 
L 338.724969 279.445739 
L 349.89135 264.092974 
L 361.05773 265.054864 
L 372.224111 260.177114 
L 383.390492 252.693146 
L 394.556873 247.467128 
L 405.723254 239.138298 
L 416.889634 229.211589 
L 428.056015 217.947845 
L 439.222396 206.244736 
L 450.388777 194.321859 
L 461.555158 187.089382 
L 472.721538 177.904322 
L 483.887919 169.682961 
L 495.0543 162.516116 
L 506.220681 156.680627 
L 517.387062 148.74038 
L 528.553442 141.161509 
L 539.719823 134.690281 
L 550.886204 127.110551 
L 562.052585 119.691456 
L 573.218965 109.744428 
L 584.385346 100.608784 
L 595.551727 88.415513 
L 606.718108 71.228509 
L 617.884489 49.277299 
" style="fill:none;stroke:#00a4ff;stroke-linecap:square;stroke-width:1.5;"/>
   </g>
   <g id="line2d_21">
    <path clip-path="url(#p54b0258c35)" d="M 260.560303 403.345524 
L 271.726684 352.4289 
L 282.893065 326.397291 
L 294.059446 317.392807 
L 305.225827 306.411045 
L 316.392207 292.564659 
L 327.558588 283.94768 
L 338.724969 277.46922 
L 349.89135 272.074838 
L 361.05773 255.965198 
L 372.224111 257.6138 
L 383.390492 252.559016 
L 394.556873 245.517056 
L 405.723254 239.722584 
L 416.889634 231.364376 
L 428.056015 220.202709 
L 439.222396 206.997723 
L 450.388777 195.42772 
L 461.555158 183.674915 
L 472.721538 178.295511 
L 483.887919 169.624769 
L 495.0543 162.077935 
L 506.220681 155.277796 
L 517.387062 150.085121 
L 528.553442 141.863228 
L 539.719823 134.047349 
L 550.886204 128.06267 
L 562.052585 119.809484 
L 573.218965 112.123579 
L 584.385346 100.541565 
L 595.551727 90.783004 
L 606.718108 76.128195 
L 617.884489 55.387949 
" style="fill:none;stroke:#40ffb7;stroke-linecap:square;stroke-width:1.5;"/>
   </g>
   <g id="line2d_22">
    <path clip-path="url(#p54b0258c35)" d="M 271.726684 394.375648 
L 282.893065 331.723215 
L 294.059446 296.11995 
L 305.225827 300.069645 
L 316.392207 294.194476 
L 327.558588 281.321611 
L 338.724969 274.82712 
L 349.89135 268.96896 
L 361.05773 265.048407 
L 372.224111 247.767153 
L 383.390492 249.775583 
L 394.556873 244.182847 
L 405.723254 237.873756 
L 416.889634 230.766953 
L 428.056015 223.201844 
L 439.222396 210.960615 
L 450.388777 195.073179 
L 461.555158 184.292504 
L 472.721538 173.047219 
L 483.887919 169.637655 
L 495.0543 161.65271 
L 506.220681 154.452243 
L 517.387062 148.00836 
L 528.553442 143.407145 
L 539.719823 134.64024 
L 550.886204 126.668044 
L 562.052585 121.605522 
L 573.218965 112.090231 
L 584.385346 104.343526 
L 595.551727 90.699748 
L 606.718108 80.356178 
L 617.884489 62.569906 
" style="fill:none;stroke:#b7ff40;stroke-linecap:square;stroke-width:1.5;"/>
   </g>
   <g id="line2d_23">
    <path clip-path="url(#p54b0258c35)" d="M 294.059446 311.40678 
L 305.225827 294.871879 
L 316.392207 275.93904 
L 327.558588 279.692788 
L 338.724969 271.265149 
L 349.89135 266.34448 
L 361.05773 266.563752 
L 372.224111 266.696027 
L 383.390492 258.670146 
L 394.556873 250.659004 
L 405.723254 248.633712 
L 416.889634 230.895399 
L 428.056015 227.561767 
L 439.222396 215.753338 
L 450.388777 198.008429 
L 461.555158 187.486477 
L 472.721538 176.170782 
L 483.887919 165.787778 
L 495.0543 164.439008 
L 506.220681 156.325971 
L 517.387062 147.352801 
L 528.553442 143.589804 
L 539.719823 139.264502 
L 550.886204 127.993808 
L 562.052585 122.076923 
L 573.218965 114.626832 
L 584.385346 104.093426 
L 595.551727 96.620606 
L 606.718108 79.032477 
L 617.884489 67.671058 
" style="fill:none;stroke:#ffb900;stroke-linecap:square;stroke-width:1.5;"/>
   </g>
   <g id="line2d_24">
    <path clip-path="url(#p54b0258c35)" d="M 305.225827 293.512385 
L 316.392207 279.355421 
L 327.558588 251.644329 
L 338.724969 245.418104 
L 349.89135 258.900392 
L 361.05773 259.81085 
L 372.224111 253.362568 
L 383.390492 262.602274 
L 394.556873 254.61866 
L 405.723254 247.118255 
L 416.889634 244.279865 
L 428.056015 232.804248 
L 439.222396 219.062625 
L 450.388777 209.926861 
L 461.555158 189.388786 
L 472.721538 180.003619 
L 483.887919 165.927825 
L 495.0543 161.126452 
L 506.220681 161.448134 
L 517.387062 150.880379 
L 528.553442 143.349556 
L 539.719823 137.513119 
L 550.886204 134.244687 
L 562.052585 126.292831 
L 573.218965 115.969394 
L 584.385346 111.689827 
L 595.551727 100.138895 
L 606.718108 94.884892 
L 617.884489 71.859233 
" style="fill:none;stroke:#ff3000;stroke-linecap:square;stroke-width:1.5;"/>
   </g>
   <g id="line2d_25">
    <path clip-path="url(#p54b0258c35)" d="M 316.392207 324.573052 
L 327.558588 284.283374 
L 338.724969 284.43374 
L 349.89135 267.820012 
L 361.05773 262.354655 
L 372.224111 257.5865 
L 383.390492 234.559657 
L 394.556873 259.92799 
L 405.723254 253.958076 
L 416.889634 244.439891 
L 428.056015 238.63136 
L 439.222396 229.804257 
L 450.388777 209.44574 
L 461.555158 201.097128 
L 472.721538 180.845714 
L 483.887919 177.169306 
L 495.0543 167.174346 
L 506.220681 160.031252 
L 517.387062 158.556234 
L 528.553442 147.899502 
L 539.719823 138.592178 
L 550.886204 135.34708 
L 562.052585 130.70746 
L 573.218965 121.678134 
L 584.385346 109.301168 
L 595.551727 104.638565 
L 606.718108 90.618304 
L 617.884489 86.444483 
" style="fill:none;stroke:#800000;stroke-linecap:square;stroke-width:1.5;"/>
   </g>
   <g id="line2d_26">
    <path clip-path="url(#p54b0258c35)" d="M 110.611761 442.08 
L 195.157216 441.981581 
L 199.942808 441.811455 
L 204.728399 441.427619 
L 207.918794 441.008634 
L 209.513991 440.669789 
L 211.109188 440.211436 
L 212.704386 439.632167 
L 214.299583 438.903863 
L 219.085175 436.202951 
L 222.275569 433.008535 
L 228.656358 424.565549 
L 230.251556 422.068506 
L 231.846753 418.455105 
L 238.227542 406.189225 
L 241.417936 400.912535 
L 246.203528 390.752832 
L 249.393923 385.041689 
L 250.98912 382.326718 
L 252.584317 379.261654 
L 257.369909 368.792632 
L 258.965106 365.755688 
L 260.560303 363.361282 
L 262.155501 361.485688 
L 263.750698 359.425909 
L 265.345895 356.275079 
L 268.53629 349.325258 
L 270.131487 346.686209 
L 271.726684 344.3143 
L 273.321881 342.76349 
L 274.917079 340.910392 
L 278.107473 334.382368 
L 279.70267 331.677238 
L 281.297868 329.213939 
L 282.893065 327.045898 
L 284.488262 325.780504 
L 286.083459 324.3717 
L 289.273854 319.643346 
L 292.464248 314.809544 
L 294.059446 313.021121 
L 295.654643 311.959596 
L 297.24984 310.318803 
L 300.440235 306.038961 
L 305.225827 300.991448 
L 310.011418 298.408639 
L 311.606616 296.288402 
L 314.79701 293.001191 
L 316.392207 291.659874 
L 319.582602 289.598689 
L 324.368194 285.313223 
L 325.963391 284.039394 
L 327.558588 283.059417 
L 330.748983 281.740596 
L 333.939377 279.169035 
L 337.129772 276.815404 
L 338.724969 275.728571 
L 341.915363 274.750001 
L 345.105758 272.5679 
L 348.296152 270.64169 
L 349.89135 269.789658 
L 351.486547 269.377703 
L 353.081744 268.837801 
L 356.272139 266.591025 
L 361.05773 264.245829 
L 362.652928 263.854963 
L 364.248125 263.323498 
L 367.43852 261.439468 
L 370.628914 259.500604 
L 373.819309 258.71606 
L 375.414506 258.208497 
L 377.009703 256.511464 
L 378.6049 255.298092 
L 380.200098 253.894911 
L 381.795295 252.740591 
L 383.390492 251.766238 
L 384.985689 251.118076 
L 386.580887 250.60067 
L 394.556873 244.081082 
L 397.747267 242.707428 
L 399.342465 241.15943 
L 400.937662 239.444119 
L 404.128056 236.320003 
L 405.723254 235.071481 
L 407.318451 234.392387 
L 408.913648 232.819081 
L 413.69924 227.172615 
L 415.294437 225.426372 
L 416.889634 223.867126 
L 418.484832 223.289263 
L 420.080029 222.531433 
L 424.865621 216.910274 
L 426.460818 215.169655 
L 428.056015 213.648371 
L 431.24641 212.181921 
L 432.841607 210.680321 
L 434.436804 208.562896 
L 436.032002 207.066919 
L 437.627199 205.178671 
L 439.222396 203.730499 
L 440.817593 202.922053 
L 442.412791 202.29498 
L 445.603185 198.552228 
L 450.388777 194.089607 
L 453.579171 192.827026 
L 456.769566 189.371096 
L 458.364763 187.817474 
L 459.95996 186.452255 
L 461.555158 185.274033 
L 463.150355 184.658208 
L 464.745552 183.821643 
L 471.126341 177.981149 
L 472.721538 176.895723 
L 474.316736 176.319266 
L 475.911933 175.931212 
L 477.50713 175.305545 
L 479.102327 173.643662 
L 480.697525 172.36702 
L 482.292722 170.662957 
L 483.887919 169.66189 
L 487.078314 168.525848 
L 488.673511 166.71493 
L 490.268708 165.325809 
L 495.0543 161.79255 
L 496.649497 161.453705 
L 498.244694 160.860376 
L 503.030286 156.583347 
L 504.625483 155.26312 
L 506.220681 154.210031 
L 509.411075 153.356593 
L 515.791864 148.257058 
L 517.387062 147.300983 
L 518.982259 146.810292 
L 520.577456 146.162129 
L 522.172653 145.176528 
L 526.958245 141.156795 
L 528.553442 140.275238 
L 530.14864 139.679097 
L 531.743837 139.208089 
L 533.339034 138.087513 
L 534.934231 136.680114 
L 539.719823 133.210125 
L 542.910218 131.951761 
L 544.505415 130.637158 
L 546.100612 129.013236 
L 547.695809 127.819549 
L 550.886204 125.163629 
L 552.481401 124.632163 
L 554.076598 123.943227 
L 562.052585 117.117132 
L 563.647782 116.543487 
L 565.242979 115.795499 
L 566.838176 113.586685 
L 570.028571 110.437261 
L 571.623768 108.7571 
L 573.218965 107.338453 
L 574.814163 106.673419 
L 576.40936 105.707502 
L 579.599755 101.779158 
L 584.385346 96.678217 
L 585.980544 95.795254 
L 587.575741 94.757631 
L 589.170938 92.375879 
L 593.95653 84.230964 
L 595.551727 82.220394 
L 598.742122 79.640398 
L 601.932516 73.39779 
L 603.527713 71.662795 
L 605.122911 69.691594 
L 606.718108 68.019868 
L 608.313305 66.858519 
L 609.908502 65.210695 
L 611.5037 61.559332 
L 616.289291 49.903653 
L 617.884489 46.734545 
L 617.884489 46.734545 
" style="fill:none;stroke:#000000;stroke-linecap:square;stroke-width:3;"/>
   </g>
   <g id="patch_3">
    <path d="M 85.248125 442.08 
L 85.248125 7.2 
" style="fill:none;stroke:#000000;stroke-linecap:square;stroke-linejoin:miter;stroke-width:0.8;"/>
   </g>
   <g id="patch_4">
    <path d="M 643.248125 442.08 
L 643.248125 7.2 
" style="fill:none;stroke:#000000;stroke-linecap:square;stroke-linejoin:miter;stroke-width:0.8;"/>
   </g>
   <g id="patch_5">
    <path d="M 85.248125 442.08 
L 643.248125 442.08 
" style="fill:none;stroke:#000000;stroke-linecap:square;stroke-linejoin:miter;stroke-width:0.8;"/>
   </g>
   <g id="patch_6">
    <path d="M 85.248125 7.2 
L 643.248125 7.2 
" style="fill:none;stroke:#000000;stroke-linecap:square;stroke-linejoin:miter;stroke-width:0.8;"/>
   </g>
   <g id="legend_1">
    <g id="patch_7">
     <path d="M 92.248125 141.946875 
L 199.97625 141.946875 
Q 201.97625 141.946875 201.97625 139.946875 
L 201.97625 14.2 
Q 201.97625 12.2 199.97625 12.2 
L 92.248125 12.2 
Q 90.248125 12.2 90.248125 14.2 
L 90.248125 139.946875 
Q 90.248125 141.946875 92.248125 141.946875 
z
" style="fill:#ffffff;opacity:0.8;stroke:#cccccc;stroke-linejoin:miter;"/>
    </g>
    <g id="line2d_27">
     <path d="M 94.248125 20.298437 
L 114.248125 20.298437 
" style="fill:none;stroke:#0010ff;stroke-linecap:square;stroke-width:1.5;"/>
    </g>
    <g id="line2d_28"/>
    <g id="text_21">
     <!-- 1 weeks-ahead -->
     <defs>
      <path d="M 4.203125 54.6875 
L 13.1875 54.6875 
L 24.421875 12.015625 
L 35.59375 54.6875 
L 46.1875 54.6875 
L 57.421875 12.015625 
L 68.609375 54.6875 
L 77.59375 54.6875 
L 63.28125 0 
L 52.6875 0 
L 40.921875 44.828125 
L 29.109375 0 
L 18.5 0 
z
" id="DejaVuSans-119"/>
      <path d="M 9.078125 75.984375 
L 18.109375 75.984375 
L 18.109375 31.109375 
L 44.921875 54.6875 
L 56.390625 54.6875 
L 27.390625 29.109375 
L 57.625 0 
L 45.90625 0 
L 18.109375 26.703125 
L 18.109375 0 
L 9.078125 0 
z
" id="DejaVuSans-107"/>
     </defs>
     <g transform="translate(122.248125 23.798437)scale(0.1 -0.1)">
      <use xlink:href="#DejaVuSans-49"/>
      <use x="63.623047" xlink:href="#DejaVuSans-32"/>
      <use x="95.410156" xlink:href="#DejaVuSans-119"/>
      <use x="177.197266" xlink:href="#DejaVuSans-101"/>
      <use x="238.720703" xlink:href="#DejaVuSans-101"/>
      <use x="300.244141" xlink:href="#DejaVuSans-107"/>
      <use x="358.154297" xlink:href="#DejaVuSans-115"/>
      <use x="410.253906" xlink:href="#DejaVuSans-45"/>
      <use x="446.337891" xlink:href="#DejaVuSans-97"/>
      <use x="507.617188" xlink:href="#DejaVuSans-104"/>
      <use x="570.996094" xlink:href="#DejaVuSans-101"/>
      <use x="632.519531" xlink:href="#DejaVuSans-97"/>
      <use x="693.798828" xlink:href="#DejaVuSans-100"/>
     </g>
    </g>
    <g id="line2d_29">
     <path d="M 94.248125 38.976562 
L 114.248125 38.976562 
" style="fill:none;stroke:#00a4ff;stroke-linecap:square;stroke-width:1.5;"/>
    </g>
    <g id="line2d_30"/>
    <g id="text_22">
     <!-- 2 weeks-ahead -->
     <g transform="translate(122.248125 42.476562)scale(0.1 -0.1)">
      <use xlink:href="#DejaVuSans-50"/>
      <use x="63.623047" xlink:href="#DejaVuSans-32"/>
      <use x="95.410156" xlink:href="#DejaVuSans-119"/>
      <use x="177.197266" xlink:href="#DejaVuSans-101"/>
      <use x="238.720703" xlink:href="#DejaVuSans-101"/>
      <use x="300.244141" xlink:href="#DejaVuSans-107"/>
      <use x="358.154297" xlink:href="#DejaVuSans-115"/>
      <use x="410.253906" xlink:href="#DejaVuSans-45"/>
      <use x="446.337891" xlink:href="#DejaVuSans-97"/>
      <use x="507.617188" xlink:href="#DejaVuSans-104"/>
      <use x="570.996094" xlink:href="#DejaVuSans-101"/>
      <use x="632.519531" xlink:href="#DejaVuSans-97"/>
      <use x="693.798828" xlink:href="#DejaVuSans-100"/>
     </g>
    </g>
    <g id="line2d_31">
     <path d="M 94.248125 57.654687 
L 114.248125 57.654687 
" style="fill:none;stroke:#40ffb7;stroke-linecap:square;stroke-width:1.5;"/>
    </g>
    <g id="line2d_32"/>
    <g id="text_23">
     <!-- 3 weeks-ahead -->
     <g transform="translate(122.248125 61.154687)scale(0.1 -0.1)">
      <use xlink:href="#DejaVuSans-51"/>
      <use x="63.623047" xlink:href="#DejaVuSans-32"/>
      <use x="95.410156" xlink:href="#DejaVuSans-119"/>
      <use x="177.197266" xlink:href="#DejaVuSans-101"/>
      <use x="238.720703" xlink:href="#DejaVuSans-101"/>
      <use x="300.244141" xlink:href="#DejaVuSans-107"/>
      <use x="358.154297" xlink:href="#DejaVuSans-115"/>
      <use x="410.253906" xlink:href="#DejaVuSans-45"/>
      <use x="446.337891" xlink:href="#DejaVuSans-97"/>
      <use x="507.617188" xlink:href="#DejaVuSans-104"/>
      <use x="570.996094" xlink:href="#DejaVuSans-101"/>
      <use x="632.519531" xlink:href="#DejaVuSans-97"/>
      <use x="693.798828" xlink:href="#DejaVuSans-100"/>
     </g>
    </g>
    <g id="line2d_33">
     <path d="M 94.248125 76.332812 
L 114.248125 76.332812 
" style="fill:none;stroke:#b7ff40;stroke-linecap:square;stroke-width:1.5;"/>
    </g>
    <g id="line2d_34"/>
    <g id="text_24">
     <!-- 4 weeks-ahead -->
     <g transform="translate(122.248125 79.832812)scale(0.1 -0.1)">
      <use xlink:href="#DejaVuSans-52"/>
      <use x="63.623047" xlink:href="#DejaVuSans-32"/>
      <use x="95.410156" xlink:href="#DejaVuSans-119"/>
      <use x="177.197266" xlink:href="#DejaVuSans-101"/>
      <use x="238.720703" xlink:href="#DejaVuSans-101"/>
      <use x="300.244141" xlink:href="#DejaVuSans-107"/>
      <use x="358.154297" xlink:href="#DejaVuSans-115"/>
      <use x="410.253906" xlink:href="#DejaVuSans-45"/>
      <use x="446.337891" xlink:href="#DejaVuSans-97"/>
      <use x="507.617188" xlink:href="#DejaVuSans-104"/>
      <use x="570.996094" xlink:href="#DejaVuSans-101"/>
      <use x="632.519531" xlink:href="#DejaVuSans-97"/>
      <use x="693.798828" xlink:href="#DejaVuSans-100"/>
     </g>
    </g>
    <g id="line2d_35">
     <path d="M 94.248125 95.010937 
L 114.248125 95.010937 
" style="fill:none;stroke:#ffb900;stroke-linecap:square;stroke-width:1.5;"/>
    </g>
    <g id="line2d_36"/>
    <g id="text_25">
     <!-- 5 weeks-ahead -->
     <g transform="translate(122.248125 98.510937)scale(0.1 -0.1)">
      <use xlink:href="#DejaVuSans-53"/>
      <use x="63.623047" xlink:href="#DejaVuSans-32"/>
      <use x="95.410156" xlink:href="#DejaVuSans-119"/>
      <use x="177.197266" xlink:href="#DejaVuSans-101"/>
      <use x="238.720703" xlink:href="#DejaVuSans-101"/>
      <use x="300.244141" xlink:href="#DejaVuSans-107"/>
      <use x="358.154297" xlink:href="#DejaVuSans-115"/>
      <use x="410.253906" xlink:href="#DejaVuSans-45"/>
      <use x="446.337891" xlink:href="#DejaVuSans-97"/>
      <use x="507.617188" xlink:href="#DejaVuSans-104"/>
      <use x="570.996094" xlink:href="#DejaVuSans-101"/>
      <use x="632.519531" xlink:href="#DejaVuSans-97"/>
      <use x="693.798828" xlink:href="#DejaVuSans-100"/>
     </g>
    </g>
    <g id="line2d_37">
     <path d="M 94.248125 113.689062 
L 114.248125 113.689062 
" style="fill:none;stroke:#ff3000;stroke-linecap:square;stroke-width:1.5;"/>
    </g>
    <g id="line2d_38"/>
    <g id="text_26">
     <!-- 6 weeks-ahead -->
     <g transform="translate(122.248125 117.189062)scale(0.1 -0.1)">
      <use xlink:href="#DejaVuSans-54"/>
      <use x="63.623047" xlink:href="#DejaVuSans-32"/>
      <use x="95.410156" xlink:href="#DejaVuSans-119"/>
      <use x="177.197266" xlink:href="#DejaVuSans-101"/>
      <use x="238.720703" xlink:href="#DejaVuSans-101"/>
      <use x="300.244141" xlink:href="#DejaVuSans-107"/>
      <use x="358.154297" xlink:href="#DejaVuSans-115"/>
      <use x="410.253906" xlink:href="#DejaVuSans-45"/>
      <use x="446.337891" xlink:href="#DejaVuSans-97"/>
      <use x="507.617188" xlink:href="#DejaVuSans-104"/>
      <use x="570.996094" xlink:href="#DejaVuSans-101"/>
      <use x="632.519531" xlink:href="#DejaVuSans-97"/>
      <use x="693.798828" xlink:href="#DejaVuSans-100"/>
     </g>
    </g>
    <g id="line2d_39">
     <path d="M 94.248125 132.367187 
L 114.248125 132.367187 
" style="fill:none;stroke:#800000;stroke-linecap:square;stroke-width:1.5;"/>
    </g>
    <g id="line2d_40"/>
    <g id="text_27">
     <!-- 7 weeks-ahead -->
     <g transform="translate(122.248125 135.867187)scale(0.1 -0.1)">
      <use xlink:href="#DejaVuSans-55"/>
      <use x="63.623047" xlink:href="#DejaVuSans-32"/>
      <use x="95.410156" xlink:href="#DejaVuSans-119"/>
      <use x="177.197266" xlink:href="#DejaVuSans-101"/>
      <use x="238.720703" xlink:href="#DejaVuSans-101"/>
      <use x="300.244141" xlink:href="#DejaVuSans-107"/>
      <use x="358.154297" xlink:href="#DejaVuSans-115"/>
      <use x="410.253906" xlink:href="#DejaVuSans-45"/>
      <use x="446.337891" xlink:href="#DejaVuSans-97"/>
      <use x="507.617188" xlink:href="#DejaVuSans-104"/>
      <use x="570.996094" xlink:href="#DejaVuSans-101"/>
      <use x="632.519531" xlink:href="#DejaVuSans-97"/>
      <use x="693.798828" xlink:href="#DejaVuSans-100"/>
     </g>
    </g>
   </g>
  </g>
 </g>
 <defs>
  <clipPath id="p54b0258c35">
   <rect height="434.88" width="558" x="85.248125" y="7.2"/>
  </clipPath>
 </defs>
</svg>
