<?xml version="1.0" encoding="utf-8" standalone="no"?>
<!DOCTYPE svg PUBLIC "-//W3C//DTD SVG 1.1//EN"
  "http://www.w3.org/Graphics/SVG/1.1/DTD/svg11.dtd">
<!-- Created with matplotlib (https://matplotlib.org/) -->
<svg height="286.906876pt" version="1.1" viewBox="0 0 288.72271 286.906876" width="288.72271pt" xmlns="http://www.w3.org/2000/svg" xmlns:xlink="http://www.w3.org/1999/xlink">
 <defs>
  <style type="text/css">
*{stroke-linecap:butt;stroke-linejoin:round;}
  </style>
 </defs>
 <g id="figure_1">
  <g id="patch_1">
   <path d="M 0 286.906876 
L 288.72271 286.906876 
L 288.72271 0 
L 0 0 
z
" style="fill:#ffffff;"/>
  </g>
  <g id="axes_1">
   <g id="patch_2">
    <path d="M 48.982813 222.640373 
L 269.416358 222.640373 
L 269.416358 22.318125 
L 48.982813 22.318125 
z
" style="fill:#ffffff;"/>
   </g>
   <g id="matplotlib.axis_1">
    <g id="xtick_1">
     <g id="line2d_1">
      <defs>
       <path d="M 0 0 
L 0 3.5 
" id="ma9f46ce843" style="stroke:#000000;stroke-width:0.8;"/>
      </defs>
      <g>
       <use style="stroke:#000000;stroke-width:0.8;" x="48.982812" xlink:href="#ma9f46ce843" y="222.640373"/>
      </g>
     </g>
     <g id="text_1">
      <!-- 2020-04 -->
      <defs>
       <path d="M 19.1875 8.296875 
L 53.609375 8.296875 
L 53.609375 0 
L 7.328125 0 
L 7.328125 8.296875 
Q 12.9375 14.109375 22.625 23.890625 
Q 32.328125 33.6875 34.8125 36.53125 
Q 39.546875 41.84375 41.421875 45.53125 
Q 43.3125 49.21875 43.3125 52.78125 
Q 43.3125 58.59375 39.234375 62.25 
Q 35.15625 65.921875 28.609375 65.921875 
Q 23.96875 65.921875 18.8125 64.3125 
Q 13.671875 62.703125 7.8125 59.421875 
L 7.8125 69.390625 
Q 13.765625 71.78125 18.9375 73 
Q 24.125 74.21875 28.421875 74.21875 
Q 39.75 74.21875 46.484375 68.546875 
Q 53.21875 62.890625 53.21875 53.421875 
Q 53.21875 48.921875 51.53125 44.890625 
Q 49.859375 40.875 45.40625 35.40625 
Q 44.1875 33.984375 37.640625 27.21875 
Q 31.109375 20.453125 19.1875 8.296875 
z
" id="DejaVuSans-50"/>
       <path d="M 31.78125 66.40625 
Q 24.171875 66.40625 20.328125 58.90625 
Q 16.5 51.421875 16.5 36.375 
Q 16.5 21.390625 20.328125 13.890625 
Q 24.171875 6.390625 31.78125 6.390625 
Q 39.453125 6.390625 43.28125 13.890625 
Q 47.125 21.390625 47.125 36.375 
Q 47.125 51.421875 43.28125 58.90625 
Q 39.453125 66.40625 31.78125 66.40625 
z
M 31.78125 74.21875 
Q 44.046875 74.21875 50.515625 64.515625 
Q 56.984375 54.828125 56.984375 36.375 
Q 56.984375 17.96875 50.515625 8.265625 
Q 44.046875 -1.421875 31.78125 -1.421875 
Q 19.53125 -1.421875 13.0625 8.265625 
Q 6.59375 17.96875 6.59375 36.375 
Q 6.59375 54.828125 13.0625 64.515625 
Q 19.53125 74.21875 31.78125 74.21875 
z
" id="DejaVuSans-48"/>
       <path d="M 4.890625 31.390625 
L 31.203125 31.390625 
L 31.203125 23.390625 
L 4.890625 23.390625 
z
" id="DejaVuSans-45"/>
       <path d="M 37.796875 64.3125 
L 12.890625 25.390625 
L 37.796875 25.390625 
z
M 35.203125 72.90625 
L 47.609375 72.90625 
L 47.609375 25.390625 
L 58.015625 25.390625 
L 58.015625 17.1875 
L 47.609375 17.1875 
L 47.609375 0 
L 37.796875 0 
L 37.796875 17.1875 
L 4.890625 17.1875 
L 4.890625 26.703125 
z
" id="DejaVuSans-52"/>
      </defs>
      <g transform="translate(17.967341 264.55819)rotate(-45)scale(0.1 -0.1)">
       <use xlink:href="#DejaVuSans-50"/>
       <use x="63.623047" xlink:href="#DejaVuSans-48"/>
       <use x="127.246094" xlink:href="#DejaVuSans-50"/>
       <use x="190.869141" xlink:href="#DejaVuSans-48"/>
       <use x="254.492188" xlink:href="#DejaVuSans-45"/>
       <use x="290.576172" xlink:href="#DejaVuSans-48"/>
       <use x="354.199219" xlink:href="#DejaVuSans-52"/>
      </g>
     </g>
    </g>
    <g id="xtick_2">
     <g id="line2d_2">
      <g>
       <use style="stroke:#000000;stroke-width:0.8;" x="61.050342" xlink:href="#ma9f46ce843" y="222.640373"/>
      </g>
     </g>
     <g id="text_2">
      <!-- 2020-05 -->
      <defs>
       <path d="M 10.796875 72.90625 
L 49.515625 72.90625 
L 49.515625 64.59375 
L 19.828125 64.59375 
L 19.828125 46.734375 
Q 21.96875 47.46875 24.109375 47.828125 
Q 26.265625 48.1875 28.421875 48.1875 
Q 40.625 48.1875 47.75 41.5 
Q 54.890625 34.8125 54.890625 23.390625 
Q 54.890625 11.625 47.5625 5.09375 
Q 40.234375 -1.421875 26.90625 -1.421875 
Q 22.3125 -1.421875 17.546875 -0.640625 
Q 12.796875 0.140625 7.71875 1.703125 
L 7.71875 11.625 
Q 12.109375 9.234375 16.796875 8.0625 
Q 21.484375 6.890625 26.703125 6.890625 
Q 35.15625 6.890625 40.078125 11.328125 
Q 45.015625 15.765625 45.015625 23.390625 
Q 45.015625 31 40.078125 35.4375 
Q 35.15625 39.890625 26.703125 39.890625 
Q 22.75 39.890625 18.8125 39.015625 
Q 14.890625 38.140625 10.796875 36.28125 
z
" id="DejaVuSans-53"/>
      </defs>
      <g transform="translate(30.034871 264.55819)rotate(-45)scale(0.1 -0.1)">
       <use xlink:href="#DejaVuSans-50"/>
       <use x="63.623047" xlink:href="#DejaVuSans-48"/>
       <use x="127.246094" xlink:href="#DejaVuSans-50"/>
       <use x="190.869141" xlink:href="#DejaVuSans-48"/>
       <use x="254.492188" xlink:href="#DejaVuSans-45"/>
       <use x="290.576172" xlink:href="#DejaVuSans-48"/>
       <use x="354.199219" xlink:href="#DejaVuSans-53"/>
      </g>
     </g>
    </g>
    <g id="xtick_3">
     <g id="line2d_3">
      <g>
       <use style="stroke:#000000;stroke-width:0.8;" x="73.520123" xlink:href="#ma9f46ce843" y="222.640373"/>
      </g>
     </g>
     <g id="text_3">
      <!-- 2020-06 -->
      <defs>
       <path d="M 33.015625 40.375 
Q 26.375 40.375 22.484375 35.828125 
Q 18.609375 31.296875 18.609375 23.390625 
Q 18.609375 15.53125 22.484375 10.953125 
Q 26.375 6.390625 33.015625 6.390625 
Q 39.65625 6.390625 43.53125 10.953125 
Q 47.40625 15.53125 47.40625 23.390625 
Q 47.40625 31.296875 43.53125 35.828125 
Q 39.65625 40.375 33.015625 40.375 
z
M 52.59375 71.296875 
L 52.59375 62.3125 
Q 48.875 64.0625 45.09375 64.984375 
Q 41.3125 65.921875 37.59375 65.921875 
Q 27.828125 65.921875 22.671875 59.328125 
Q 17.53125 52.734375 16.796875 39.40625 
Q 19.671875 43.65625 24.015625 45.921875 
Q 28.375 48.1875 33.59375 48.1875 
Q 44.578125 48.1875 50.953125 41.515625 
Q 57.328125 34.859375 57.328125 23.390625 
Q 57.328125 12.15625 50.6875 5.359375 
Q 44.046875 -1.421875 33.015625 -1.421875 
Q 20.359375 -1.421875 13.671875 8.265625 
Q 6.984375 17.96875 6.984375 36.375 
Q 6.984375 53.65625 15.1875 63.9375 
Q 23.390625 74.21875 37.203125 74.21875 
Q 40.921875 74.21875 44.703125 73.484375 
Q 48.484375 72.75 52.59375 71.296875 
z
" id="DejaVuSans-54"/>
      </defs>
      <g transform="translate(42.504652 264.55819)rotate(-45)scale(0.1 -0.1)">
       <use xlink:href="#DejaVuSans-50"/>
       <use x="63.623047" xlink:href="#DejaVuSans-48"/>
       <use x="127.246094" xlink:href="#DejaVuSans-50"/>
       <use x="190.869141" xlink:href="#DejaVuSans-48"/>
       <use x="254.492188" xlink:href="#DejaVuSans-45"/>
       <use x="290.576172" xlink:href="#DejaVuSans-48"/>
       <use x="354.199219" xlink:href="#DejaVuSans-54"/>
      </g>
     </g>
    </g>
    <g id="xtick_4">
     <g id="line2d_4">
      <g>
       <use style="stroke:#000000;stroke-width:0.8;" x="85.587653" xlink:href="#ma9f46ce843" y="222.640373"/>
      </g>
     </g>
     <g id="text_4">
      <!-- 2020-07 -->
      <defs>
       <path d="M 8.203125 72.90625 
L 55.078125 72.90625 
L 55.078125 68.703125 
L 28.609375 0 
L 18.3125 0 
L 43.21875 64.59375 
L 8.203125 64.59375 
z
" id="DejaVuSans-55"/>
      </defs>
      <g transform="translate(54.572182 264.55819)rotate(-45)scale(0.1 -0.1)">
       <use xlink:href="#DejaVuSans-50"/>
       <use x="63.623047" xlink:href="#DejaVuSans-48"/>
       <use x="127.246094" xlink:href="#DejaVuSans-50"/>
       <use x="190.869141" xlink:href="#DejaVuSans-48"/>
       <use x="254.492188" xlink:href="#DejaVuSans-45"/>
       <use x="290.576172" xlink:href="#DejaVuSans-48"/>
       <use x="354.199219" xlink:href="#DejaVuSans-55"/>
      </g>
     </g>
    </g>
    <g id="xtick_5">
     <g id="line2d_5">
      <g>
       <use style="stroke:#000000;stroke-width:0.8;" x="98.057434" xlink:href="#ma9f46ce843" y="222.640373"/>
      </g>
     </g>
     <g id="text_5">
      <!-- 2020-08 -->
      <defs>
       <path d="M 31.78125 34.625 
Q 24.75 34.625 20.71875 30.859375 
Q 16.703125 27.09375 16.703125 20.515625 
Q 16.703125 13.921875 20.71875 10.15625 
Q 24.75 6.390625 31.78125 6.390625 
Q 38.8125 6.390625 42.859375 10.171875 
Q 46.921875 13.96875 46.921875 20.515625 
Q 46.921875 27.09375 42.890625 30.859375 
Q 38.875 34.625 31.78125 34.625 
z
M 21.921875 38.8125 
Q 15.578125 40.375 12.03125 44.71875 
Q 8.5 49.078125 8.5 55.328125 
Q 8.5 64.0625 14.71875 69.140625 
Q 20.953125 74.21875 31.78125 74.21875 
Q 42.671875 74.21875 48.875 69.140625 
Q 55.078125 64.0625 55.078125 55.328125 
Q 55.078125 49.078125 51.53125 44.71875 
Q 48 40.375 41.703125 38.8125 
Q 48.828125 37.15625 52.796875 32.3125 
Q 56.78125 27.484375 56.78125 20.515625 
Q 56.78125 9.90625 50.3125 4.234375 
Q 43.84375 -1.421875 31.78125 -1.421875 
Q 19.734375 -1.421875 13.25 4.234375 
Q 6.78125 9.90625 6.78125 20.515625 
Q 6.78125 27.484375 10.78125 32.3125 
Q 14.796875 37.15625 21.921875 38.8125 
z
M 18.3125 54.390625 
Q 18.3125 48.734375 21.84375 45.5625 
Q 25.390625 42.390625 31.78125 42.390625 
Q 38.140625 42.390625 41.71875 45.5625 
Q 45.3125 48.734375 45.3125 54.390625 
Q 45.3125 60.0625 41.71875 63.234375 
Q 38.140625 66.40625 31.78125 66.40625 
Q 25.390625 66.40625 21.84375 63.234375 
Q 18.3125 60.0625 18.3125 54.390625 
z
" id="DejaVuSans-56"/>
      </defs>
      <g transform="translate(67.041963 264.55819)rotate(-45)scale(0.1 -0.1)">
       <use xlink:href="#DejaVuSans-50"/>
       <use x="63.623047" xlink:href="#DejaVuSans-48"/>
       <use x="127.246094" xlink:href="#DejaVuSans-50"/>
       <use x="190.869141" xlink:href="#DejaVuSans-48"/>
       <use x="254.492188" xlink:href="#DejaVuSans-45"/>
       <use x="290.576172" xlink:href="#DejaVuSans-48"/>
       <use x="354.199219" xlink:href="#DejaVuSans-56"/>
      </g>
     </g>
    </g>
    <g id="xtick_6">
     <g id="line2d_6">
      <g>
       <use style="stroke:#000000;stroke-width:0.8;" x="110.527215" xlink:href="#ma9f46ce843" y="222.640373"/>
      </g>
     </g>
     <g id="text_6">
      <!-- 2020-09 -->
      <defs>
       <path d="M 10.984375 1.515625 
L 10.984375 10.5 
Q 14.703125 8.734375 18.5 7.8125 
Q 22.3125 6.890625 25.984375 6.890625 
Q 35.75 6.890625 40.890625 13.453125 
Q 46.046875 20.015625 46.78125 33.40625 
Q 43.953125 29.203125 39.59375 26.953125 
Q 35.25 24.703125 29.984375 24.703125 
Q 19.046875 24.703125 12.671875 31.3125 
Q 6.296875 37.9375 6.296875 49.421875 
Q 6.296875 60.640625 12.9375 67.421875 
Q 19.578125 74.21875 30.609375 74.21875 
Q 43.265625 74.21875 49.921875 64.515625 
Q 56.59375 54.828125 56.59375 36.375 
Q 56.59375 19.140625 48.40625 8.859375 
Q 40.234375 -1.421875 26.421875 -1.421875 
Q 22.703125 -1.421875 18.890625 -0.6875 
Q 15.09375 0.046875 10.984375 1.515625 
z
M 30.609375 32.421875 
Q 37.25 32.421875 41.125 36.953125 
Q 45.015625 41.5 45.015625 49.421875 
Q 45.015625 57.28125 41.125 61.84375 
Q 37.25 66.40625 30.609375 66.40625 
Q 23.96875 66.40625 20.09375 61.84375 
Q 16.21875 57.28125 16.21875 49.421875 
Q 16.21875 41.5 20.09375 36.953125 
Q 23.96875 32.421875 30.609375 32.421875 
z
" id="DejaVuSans-57"/>
      </defs>
      <g transform="translate(79.511744 264.55819)rotate(-45)scale(0.1 -0.1)">
       <use xlink:href="#DejaVuSans-50"/>
       <use x="63.623047" xlink:href="#DejaVuSans-48"/>
       <use x="127.246094" xlink:href="#DejaVuSans-50"/>
       <use x="190.869141" xlink:href="#DejaVuSans-48"/>
       <use x="254.492188" xlink:href="#DejaVuSans-45"/>
       <use x="290.576172" xlink:href="#DejaVuSans-48"/>
       <use x="354.199219" xlink:href="#DejaVuSans-57"/>
      </g>
     </g>
    </g>
    <g id="xtick_7">
     <g id="line2d_7">
      <g>
       <use style="stroke:#000000;stroke-width:0.8;" x="122.594745" xlink:href="#ma9f46ce843" y="222.640373"/>
      </g>
     </g>
     <g id="text_7">
      <!-- 2020-10 -->
      <defs>
       <path d="M 12.40625 8.296875 
L 28.515625 8.296875 
L 28.515625 63.921875 
L 10.984375 60.40625 
L 10.984375 69.390625 
L 28.421875 72.90625 
L 38.28125 72.90625 
L 38.28125 8.296875 
L 54.390625 8.296875 
L 54.390625 0 
L 12.40625 0 
z
" id="DejaVuSans-49"/>
      </defs>
      <g transform="translate(91.579273 264.55819)rotate(-45)scale(0.1 -0.1)">
       <use xlink:href="#DejaVuSans-50"/>
       <use x="63.623047" xlink:href="#DejaVuSans-48"/>
       <use x="127.246094" xlink:href="#DejaVuSans-50"/>
       <use x="190.869141" xlink:href="#DejaVuSans-48"/>
       <use x="254.492188" xlink:href="#DejaVuSans-45"/>
       <use x="290.576172" xlink:href="#DejaVuSans-49"/>
       <use x="354.199219" xlink:href="#DejaVuSans-48"/>
      </g>
     </g>
    </g>
    <g id="xtick_8">
     <g id="line2d_8">
      <g>
       <use style="stroke:#000000;stroke-width:0.8;" x="135.064525" xlink:href="#ma9f46ce843" y="222.640373"/>
      </g>
     </g>
     <g id="text_8">
      <!-- 2020-11 -->
      <g transform="translate(104.049054 264.55819)rotate(-45)scale(0.1 -0.1)">
       <use xlink:href="#DejaVuSans-50"/>
       <use x="63.623047" xlink:href="#DejaVuSans-48"/>
       <use x="127.246094" xlink:href="#DejaVuSans-50"/>
       <use x="190.869141" xlink:href="#DejaVuSans-48"/>
       <use x="254.492188" xlink:href="#DejaVuSans-45"/>
       <use x="290.576172" xlink:href="#DejaVuSans-49"/>
       <use x="354.199219" xlink:href="#DejaVuSans-49"/>
      </g>
     </g>
    </g>
    <g id="xtick_9">
     <g id="line2d_9">
      <g>
       <use style="stroke:#000000;stroke-width:0.8;" x="147.132055" xlink:href="#ma9f46ce843" y="222.640373"/>
      </g>
     </g>
     <g id="text_9">
      <!-- 2020-12 -->
      <g transform="translate(116.116584 264.55819)rotate(-45)scale(0.1 -0.1)">
       <use xlink:href="#DejaVuSans-50"/>
       <use x="63.623047" xlink:href="#DejaVuSans-48"/>
       <use x="127.246094" xlink:href="#DejaVuSans-50"/>
       <use x="190.869141" xlink:href="#DejaVuSans-48"/>
       <use x="254.492188" xlink:href="#DejaVuSans-45"/>
       <use x="290.576172" xlink:href="#DejaVuSans-49"/>
       <use x="354.199219" xlink:href="#DejaVuSans-50"/>
      </g>
     </g>
    </g>
    <g id="xtick_10">
     <g id="line2d_10">
      <g>
       <use style="stroke:#000000;stroke-width:0.8;" x="159.601836" xlink:href="#ma9f46ce843" y="222.640373"/>
      </g>
     </g>
     <g id="text_10">
      <!-- 2021-01 -->
      <g transform="translate(128.586365 264.55819)rotate(-45)scale(0.1 -0.1)">
       <use xlink:href="#DejaVuSans-50"/>
       <use x="63.623047" xlink:href="#DejaVuSans-48"/>
       <use x="127.246094" xlink:href="#DejaVuSans-50"/>
       <use x="190.869141" xlink:href="#DejaVuSans-49"/>
       <use x="254.492188" xlink:href="#DejaVuSans-45"/>
       <use x="290.576172" xlink:href="#DejaVuSans-48"/>
       <use x="354.199219" xlink:href="#DejaVuSans-49"/>
      </g>
     </g>
    </g>
    <g id="xtick_11">
     <g id="line2d_11">
      <g>
       <use style="stroke:#000000;stroke-width:0.8;" x="172.071617" xlink:href="#ma9f46ce843" y="222.640373"/>
      </g>
     </g>
     <g id="text_11">
      <!-- 2021-02 -->
      <g transform="translate(141.056146 264.55819)rotate(-45)scale(0.1 -0.1)">
       <use xlink:href="#DejaVuSans-50"/>
       <use x="63.623047" xlink:href="#DejaVuSans-48"/>
       <use x="127.246094" xlink:href="#DejaVuSans-50"/>
       <use x="190.869141" xlink:href="#DejaVuSans-49"/>
       <use x="254.492188" xlink:href="#DejaVuSans-45"/>
       <use x="290.576172" xlink:href="#DejaVuSans-48"/>
       <use x="354.199219" xlink:href="#DejaVuSans-50"/>
      </g>
     </g>
    </g>
    <g id="xtick_12">
     <g id="line2d_12">
      <g>
       <use style="stroke:#000000;stroke-width:0.8;" x="183.334645" xlink:href="#ma9f46ce843" y="222.640373"/>
      </g>
     </g>
     <g id="text_12">
      <!-- 2021-03 -->
      <defs>
       <path d="M 40.578125 39.3125 
Q 47.65625 37.796875 51.625 33 
Q 55.609375 28.21875 55.609375 21.1875 
Q 55.609375 10.40625 48.1875 4.484375 
Q 40.765625 -1.421875 27.09375 -1.421875 
Q 22.515625 -1.421875 17.65625 -0.515625 
Q 12.796875 0.390625 7.625 2.203125 
L 7.625 11.71875 
Q 11.71875 9.328125 16.59375 8.109375 
Q 21.484375 6.890625 26.8125 6.890625 
Q 36.078125 6.890625 40.9375 10.546875 
Q 45.796875 14.203125 45.796875 21.1875 
Q 45.796875 27.640625 41.28125 31.265625 
Q 36.765625 34.90625 28.71875 34.90625 
L 20.21875 34.90625 
L 20.21875 43.015625 
L 29.109375 43.015625 
Q 36.375 43.015625 40.234375 45.921875 
Q 44.09375 48.828125 44.09375 54.296875 
Q 44.09375 59.90625 40.109375 62.90625 
Q 36.140625 65.921875 28.71875 65.921875 
Q 24.65625 65.921875 20.015625 65.03125 
Q 15.375 64.15625 9.8125 62.3125 
L 9.8125 71.09375 
Q 15.4375 72.65625 20.34375 73.4375 
Q 25.25 74.21875 29.59375 74.21875 
Q 40.828125 74.21875 47.359375 69.109375 
Q 53.90625 64.015625 53.90625 55.328125 
Q 53.90625 49.265625 50.4375 45.09375 
Q 46.96875 40.921875 40.578125 39.3125 
z
" id="DejaVuSans-51"/>
      </defs>
      <g transform="translate(152.319174 264.55819)rotate(-45)scale(0.1 -0.1)">
       <use xlink:href="#DejaVuSans-50"/>
       <use x="63.623047" xlink:href="#DejaVuSans-48"/>
       <use x="127.246094" xlink:href="#DejaVuSans-50"/>
       <use x="190.869141" xlink:href="#DejaVuSans-49"/>
       <use x="254.492188" xlink:href="#DejaVuSans-45"/>
       <use x="290.576172" xlink:href="#DejaVuSans-48"/>
       <use x="354.199219" xlink:href="#DejaVuSans-51"/>
      </g>
     </g>
    </g>
    <g id="xtick_13">
     <g id="line2d_13">
      <g>
       <use style="stroke:#000000;stroke-width:0.8;" x="195.804426" xlink:href="#ma9f46ce843" y="222.640373"/>
      </g>
     </g>
     <g id="text_13">
      <!-- 2021-04 -->
      <g transform="translate(164.788954 264.55819)rotate(-45)scale(0.1 -0.1)">
       <use xlink:href="#DejaVuSans-50"/>
       <use x="63.623047" xlink:href="#DejaVuSans-48"/>
       <use x="127.246094" xlink:href="#DejaVuSans-50"/>
       <use x="190.869141" xlink:href="#DejaVuSans-49"/>
       <use x="254.492188" xlink:href="#DejaVuSans-45"/>
       <use x="290.576172" xlink:href="#DejaVuSans-48"/>
       <use x="354.199219" xlink:href="#DejaVuSans-52"/>
      </g>
     </g>
    </g>
    <g id="xtick_14">
     <g id="line2d_14">
      <g>
       <use style="stroke:#000000;stroke-width:0.8;" x="207.871956" xlink:href="#ma9f46ce843" y="222.640373"/>
      </g>
     </g>
     <g id="text_14">
      <!-- 2021-05 -->
      <g transform="translate(176.856484 264.55819)rotate(-45)scale(0.1 -0.1)">
       <use xlink:href="#DejaVuSans-50"/>
       <use x="63.623047" xlink:href="#DejaVuSans-48"/>
       <use x="127.246094" xlink:href="#DejaVuSans-50"/>
       <use x="190.869141" xlink:href="#DejaVuSans-49"/>
       <use x="254.492188" xlink:href="#DejaVuSans-45"/>
       <use x="290.576172" xlink:href="#DejaVuSans-48"/>
       <use x="354.199219" xlink:href="#DejaVuSans-53"/>
      </g>
     </g>
    </g>
    <g id="xtick_15">
     <g id="line2d_15">
      <g>
       <use style="stroke:#000000;stroke-width:0.8;" x="220.341736" xlink:href="#ma9f46ce843" y="222.640373"/>
      </g>
     </g>
     <g id="text_15">
      <!-- 2021-06 -->
      <g transform="translate(189.326265 264.55819)rotate(-45)scale(0.1 -0.1)">
       <use xlink:href="#DejaVuSans-50"/>
       <use x="63.623047" xlink:href="#DejaVuSans-48"/>
       <use x="127.246094" xlink:href="#DejaVuSans-50"/>
       <use x="190.869141" xlink:href="#DejaVuSans-49"/>
       <use x="254.492188" xlink:href="#DejaVuSans-45"/>
       <use x="290.576172" xlink:href="#DejaVuSans-48"/>
       <use x="354.199219" xlink:href="#DejaVuSans-54"/>
      </g>
     </g>
    </g>
    <g id="xtick_16">
     <g id="line2d_16">
      <g>
       <use style="stroke:#000000;stroke-width:0.8;" x="232.409266" xlink:href="#ma9f46ce843" y="222.640373"/>
      </g>
     </g>
     <g id="text_16">
      <!-- 2021-07 -->
      <g transform="translate(201.393795 264.55819)rotate(-45)scale(0.1 -0.1)">
       <use xlink:href="#DejaVuSans-50"/>
       <use x="63.623047" xlink:href="#DejaVuSans-48"/>
       <use x="127.246094" xlink:href="#DejaVuSans-50"/>
       <use x="190.869141" xlink:href="#DejaVuSans-49"/>
       <use x="254.492188" xlink:href="#DejaVuSans-45"/>
       <use x="290.576172" xlink:href="#DejaVuSans-48"/>
       <use x="354.199219" xlink:href="#DejaVuSans-55"/>
      </g>
     </g>
    </g>
    <g id="xtick_17">
     <g id="line2d_17">
      <g>
       <use style="stroke:#000000;stroke-width:0.8;" x="244.879047" xlink:href="#ma9f46ce843" y="222.640373"/>
      </g>
     </g>
     <g id="text_17">
      <!-- 2021-08 -->
      <g transform="translate(213.863576 264.55819)rotate(-45)scale(0.1 -0.1)">
       <use xlink:href="#DejaVuSans-50"/>
       <use x="63.623047" xlink:href="#DejaVuSans-48"/>
       <use x="127.246094" xlink:href="#DejaVuSans-50"/>
       <use x="190.869141" xlink:href="#DejaVuSans-49"/>
       <use x="254.492188" xlink:href="#DejaVuSans-45"/>
       <use x="290.576172" xlink:href="#DejaVuSans-48"/>
       <use x="354.199219" xlink:href="#DejaVuSans-56"/>
      </g>
     </g>
    </g>
    <g id="xtick_18">
     <g id="line2d_18">
      <g>
       <use style="stroke:#000000;stroke-width:0.8;" x="257.348828" xlink:href="#ma9f46ce843" y="222.640373"/>
      </g>
     </g>
     <g id="text_18">
      <!-- 2021-09 -->
      <g transform="translate(226.333357 264.55819)rotate(-45)scale(0.1 -0.1)">
       <use xlink:href="#DejaVuSans-50"/>
       <use x="63.623047" xlink:href="#DejaVuSans-48"/>
       <use x="127.246094" xlink:href="#DejaVuSans-50"/>
       <use x="190.869141" xlink:href="#DejaVuSans-49"/>
       <use x="254.492188" xlink:href="#DejaVuSans-45"/>
       <use x="290.576172" xlink:href="#DejaVuSans-48"/>
       <use x="354.199219" xlink:href="#DejaVuSans-57"/>
      </g>
     </g>
    </g>
    <g id="xtick_19">
     <g id="line2d_19">
      <g>
       <use style="stroke:#000000;stroke-width:0.8;" x="269.416358" xlink:href="#ma9f46ce843" y="222.640373"/>
      </g>
     </g>
     <g id="text_19">
      <!-- 2021-10 -->
      <g transform="translate(238.400887 264.55819)rotate(-45)scale(0.1 -0.1)">
       <use xlink:href="#DejaVuSans-50"/>
       <use x="63.623047" xlink:href="#DejaVuSans-48"/>
       <use x="127.246094" xlink:href="#DejaVuSans-50"/>
       <use x="190.869141" xlink:href="#DejaVuSans-49"/>
       <use x="254.492188" xlink:href="#DejaVuSans-45"/>
       <use x="290.576172" xlink:href="#DejaVuSans-49"/>
       <use x="354.199219" xlink:href="#DejaVuSans-48"/>
      </g>
     </g>
    </g>
    <g id="text_20">
     <!-- Target End Date -->
     <defs>
      <path d="M -0.296875 72.90625 
L 61.375 72.90625 
L 61.375 64.59375 
L 35.5 64.59375 
L 35.5 0 
L 25.59375 0 
L 25.59375 64.59375 
L -0.296875 64.59375 
z
" id="DejaVuSans-84"/>
      <path d="M 34.28125 27.484375 
Q 23.390625 27.484375 19.1875 25 
Q 14.984375 22.515625 14.984375 16.5 
Q 14.984375 11.71875 18.140625 8.90625 
Q 21.296875 6.109375 26.703125 6.109375 
Q 34.1875 6.109375 38.703125 11.40625 
Q 43.21875 16.703125 43.21875 25.484375 
L 43.21875 27.484375 
z
M 52.203125 31.203125 
L 52.203125 0 
L 43.21875 0 
L 43.21875 8.296875 
Q 40.140625 3.328125 35.546875 0.953125 
Q 30.953125 -1.421875 24.3125 -1.421875 
Q 15.921875 -1.421875 10.953125 3.296875 
Q 6 8.015625 6 15.921875 
Q 6 25.140625 12.171875 29.828125 
Q 18.359375 34.515625 30.609375 34.515625 
L 43.21875 34.515625 
L 43.21875 35.40625 
Q 43.21875 41.609375 39.140625 45 
Q 35.0625 48.390625 27.6875 48.390625 
Q 23 48.390625 18.546875 47.265625 
Q 14.109375 46.140625 10.015625 43.890625 
L 10.015625 52.203125 
Q 14.9375 54.109375 19.578125 55.046875 
Q 24.21875 56 28.609375 56 
Q 40.484375 56 46.34375 49.84375 
Q 52.203125 43.703125 52.203125 31.203125 
z
" id="DejaVuSans-97"/>
      <path d="M 41.109375 46.296875 
Q 39.59375 47.171875 37.8125 47.578125 
Q 36.03125 48 33.890625 48 
Q 26.265625 48 22.1875 43.046875 
Q 18.109375 38.09375 18.109375 28.8125 
L 18.109375 0 
L 9.078125 0 
L 9.078125 54.6875 
L 18.109375 54.6875 
L 18.109375 46.1875 
Q 20.953125 51.171875 25.484375 53.578125 
Q 30.03125 56 36.53125 56 
Q 37.453125 56 38.578125 55.875 
Q 39.703125 55.765625 41.0625 55.515625 
z
" id="DejaVuSans-114"/>
      <path d="M 45.40625 27.984375 
Q 45.40625 37.75 41.375 43.109375 
Q 37.359375 48.484375 30.078125 48.484375 
Q 22.859375 48.484375 18.828125 43.109375 
Q 14.796875 37.75 14.796875 27.984375 
Q 14.796875 18.265625 18.828125 12.890625 
Q 22.859375 7.515625 30.078125 7.515625 
Q 37.359375 7.515625 41.375 12.890625 
Q 45.40625 18.265625 45.40625 27.984375 
z
M 54.390625 6.78125 
Q 54.390625 -7.171875 48.1875 -13.984375 
Q 42 -20.796875 29.203125 -20.796875 
Q 24.46875 -20.796875 20.265625 -20.09375 
Q 16.0625 -19.390625 12.109375 -17.921875 
L 12.109375 -9.1875 
Q 16.0625 -11.328125 19.921875 -12.34375 
Q 23.78125 -13.375 27.78125 -13.375 
Q 36.625 -13.375 41.015625 -8.765625 
Q 45.40625 -4.15625 45.40625 5.171875 
L 45.40625 9.625 
Q 42.625 4.78125 38.28125 2.390625 
Q 33.9375 0 27.875 0 
Q 17.828125 0 11.671875 7.65625 
Q 5.515625 15.328125 5.515625 27.984375 
Q 5.515625 40.671875 11.671875 48.328125 
Q 17.828125 56 27.875 56 
Q 33.9375 56 38.28125 53.609375 
Q 42.625 51.21875 45.40625 46.390625 
L 45.40625 54.6875 
L 54.390625 54.6875 
z
" id="DejaVuSans-103"/>
      <path d="M 56.203125 29.59375 
L 56.203125 25.203125 
L 14.890625 25.203125 
Q 15.484375 15.921875 20.484375 11.0625 
Q 25.484375 6.203125 34.421875 6.203125 
Q 39.59375 6.203125 44.453125 7.46875 
Q 49.3125 8.734375 54.109375 11.28125 
L 54.109375 2.78125 
Q 49.265625 0.734375 44.1875 -0.34375 
Q 39.109375 -1.421875 33.890625 -1.421875 
Q 20.796875 -1.421875 13.15625 6.1875 
Q 5.515625 13.8125 5.515625 26.8125 
Q 5.515625 40.234375 12.765625 48.109375 
Q 20.015625 56 32.328125 56 
Q 43.359375 56 49.78125 48.890625 
Q 56.203125 41.796875 56.203125 29.59375 
z
M 47.21875 32.234375 
Q 47.125 39.59375 43.09375 43.984375 
Q 39.0625 48.390625 32.421875 48.390625 
Q 24.90625 48.390625 20.390625 44.140625 
Q 15.875 39.890625 15.1875 32.171875 
z
" id="DejaVuSans-101"/>
      <path d="M 18.3125 70.21875 
L 18.3125 54.6875 
L 36.8125 54.6875 
L 36.8125 47.703125 
L 18.3125 47.703125 
L 18.3125 18.015625 
Q 18.3125 11.328125 20.140625 9.421875 
Q 21.96875 7.515625 27.59375 7.515625 
L 36.8125 7.515625 
L 36.8125 0 
L 27.59375 0 
Q 17.1875 0 13.234375 3.875 
Q 9.28125 7.765625 9.28125 18.015625 
L 9.28125 47.703125 
L 2.6875 47.703125 
L 2.6875 54.6875 
L 9.28125 54.6875 
L 9.28125 70.21875 
z
" id="DejaVuSans-116"/>
      <path id="DejaVuSans-32"/>
      <path d="M 9.8125 72.90625 
L 55.90625 72.90625 
L 55.90625 64.59375 
L 19.671875 64.59375 
L 19.671875 43.015625 
L 54.390625 43.015625 
L 54.390625 34.71875 
L 19.671875 34.71875 
L 19.671875 8.296875 
L 56.78125 8.296875 
L 56.78125 0 
L 9.8125 0 
z
" id="DejaVuSans-69"/>
      <path d="M 54.890625 33.015625 
L 54.890625 0 
L 45.90625 0 
L 45.90625 32.71875 
Q 45.90625 40.484375 42.875 44.328125 
Q 39.84375 48.1875 33.796875 48.1875 
Q 26.515625 48.1875 22.3125 43.546875 
Q 18.109375 38.921875 18.109375 30.90625 
L 18.109375 0 
L 9.078125 0 
L 9.078125 54.6875 
L 18.109375 54.6875 
L 18.109375 46.1875 
Q 21.34375 51.125 25.703125 53.5625 
Q 30.078125 56 35.796875 56 
Q 45.21875 56 50.046875 50.171875 
Q 54.890625 44.34375 54.890625 33.015625 
z
" id="DejaVuSans-110"/>
      <path d="M 45.40625 46.390625 
L 45.40625 75.984375 
L 54.390625 75.984375 
L 54.390625 0 
L 45.40625 0 
L 45.40625 8.203125 
Q 42.578125 3.328125 38.25 0.953125 
Q 33.9375 -1.421875 27.875 -1.421875 
Q 17.96875 -1.421875 11.734375 6.484375 
Q 5.515625 14.40625 5.515625 27.296875 
Q 5.515625 40.1875 11.734375 48.09375 
Q 17.96875 56 27.875 56 
Q 33.9375 56 38.25 53.625 
Q 42.578125 51.265625 45.40625 46.390625 
z
M 14.796875 27.296875 
Q 14.796875 17.390625 18.875 11.75 
Q 22.953125 6.109375 30.078125 6.109375 
Q 37.203125 6.109375 41.296875 11.75 
Q 45.40625 17.390625 45.40625 27.296875 
Q 45.40625 37.203125 41.296875 42.84375 
Q 37.203125 48.484375 30.078125 48.484375 
Q 22.953125 48.484375 18.875 42.84375 
Q 14.796875 37.203125 14.796875 27.296875 
z
" id="DejaVuSans-100"/>
      <path d="M 19.671875 64.796875 
L 19.671875 8.109375 
L 31.59375 8.109375 
Q 46.6875 8.109375 53.6875 14.9375 
Q 60.6875 21.78125 60.6875 36.53125 
Q 60.6875 51.171875 53.6875 57.984375 
Q 46.6875 64.796875 31.59375 64.796875 
z
M 9.8125 72.90625 
L 30.078125 72.90625 
Q 51.265625 72.90625 61.171875 64.09375 
Q 71.09375 55.28125 71.09375 36.53125 
Q 71.09375 17.671875 61.125 8.828125 
Q 51.171875 0 30.078125 0 
L 9.8125 0 
z
" id="DejaVuSans-68"/>
     </defs>
     <g transform="translate(119.09646 277.627188)scale(0.1 -0.1)">
      <use xlink:href="#DejaVuSans-84"/>
      <use x="44.583984" xlink:href="#DejaVuSans-97"/>
      <use x="105.863281" xlink:href="#DejaVuSans-114"/>
      <use x="145.226562" xlink:href="#DejaVuSans-103"/>
      <use x="208.703125" xlink:href="#DejaVuSans-101"/>
      <use x="270.226562" xlink:href="#DejaVuSans-116"/>
      <use x="309.435547" xlink:href="#DejaVuSans-32"/>
      <use x="341.222656" xlink:href="#DejaVuSans-69"/>
      <use x="404.40625" xlink:href="#DejaVuSans-110"/>
      <use x="467.785156" xlink:href="#DejaVuSans-100"/>
      <use x="531.261719" xlink:href="#DejaVuSans-32"/>
      <use x="563.048828" xlink:href="#DejaVuSans-68"/>
      <use x="640.050781" xlink:href="#DejaVuSans-97"/>
      <use x="701.330078" xlink:href="#DejaVuSans-116"/>
      <use x="740.539062" xlink:href="#DejaVuSans-101"/>
     </g>
    </g>
   </g>
   <g id="matplotlib.axis_2">
    <g id="ytick_1">
     <g id="line2d_20">
      <defs>
       <path d="M 0 0 
L -3.5 0 
" id="m2be6afc1d2" style="stroke:#000000;stroke-width:0.8;"/>
      </defs>
      <g>
       <use style="stroke:#000000;stroke-width:0.8;" x="48.982813" xlink:href="#m2be6afc1d2" y="208.582566"/>
      </g>
     </g>
     <g id="text_21">
      <!-- −16 -->
      <defs>
       <path d="M 10.59375 35.5 
L 73.1875 35.5 
L 73.1875 27.203125 
L 10.59375 27.203125 
z
" id="DejaVuSans-8722"/>
      </defs>
      <g transform="translate(20.878125 212.381784)scale(0.1 -0.1)">
       <use xlink:href="#DejaVuSans-8722"/>
       <use x="83.789062" xlink:href="#DejaVuSans-49"/>
       <use x="147.412109" xlink:href="#DejaVuSans-54"/>
      </g>
     </g>
    </g>
    <g id="ytick_2">
     <g id="line2d_21">
      <g>
       <use style="stroke:#000000;stroke-width:0.8;" x="48.982813" xlink:href="#m2be6afc1d2" y="168.979818"/>
      </g>
     </g>
     <g id="text_22">
      <!-- −14 -->
      <g transform="translate(20.878125 172.779037)scale(0.1 -0.1)">
       <use xlink:href="#DejaVuSans-8722"/>
       <use x="83.789062" xlink:href="#DejaVuSans-49"/>
       <use x="147.412109" xlink:href="#DejaVuSans-52"/>
      </g>
     </g>
    </g>
    <g id="ytick_3">
     <g id="line2d_22">
      <g>
       <use style="stroke:#000000;stroke-width:0.8;" x="48.982813" xlink:href="#m2be6afc1d2" y="129.377071"/>
      </g>
     </g>
     <g id="text_23">
      <!-- −12 -->
      <g transform="translate(20.878125 133.17629)scale(0.1 -0.1)">
       <use xlink:href="#DejaVuSans-8722"/>
       <use x="83.789062" xlink:href="#DejaVuSans-49"/>
       <use x="147.412109" xlink:href="#DejaVuSans-50"/>
      </g>
     </g>
    </g>
    <g id="ytick_4">
     <g id="line2d_23">
      <g>
       <use style="stroke:#000000;stroke-width:0.8;" x="48.982813" xlink:href="#m2be6afc1d2" y="89.774324"/>
      </g>
     </g>
     <g id="text_24">
      <!-- −10 -->
      <g transform="translate(20.878125 93.573543)scale(0.1 -0.1)">
       <use xlink:href="#DejaVuSans-8722"/>
       <use x="83.789062" xlink:href="#DejaVuSans-49"/>
       <use x="147.412109" xlink:href="#DejaVuSans-48"/>
      </g>
     </g>
    </g>
    <g id="ytick_5">
     <g id="line2d_24">
      <g>
       <use style="stroke:#000000;stroke-width:0.8;" x="48.982813" xlink:href="#m2be6afc1d2" y="50.171577"/>
      </g>
     </g>
     <g id="text_25">
      <!-- −8 -->
      <g transform="translate(27.240625 53.970796)scale(0.1 -0.1)">
       <use xlink:href="#DejaVuSans-8722"/>
       <use x="83.789062" xlink:href="#DejaVuSans-56"/>
      </g>
     </g>
    </g>
    <g id="text_26">
     <!-- Score for weekly incidental cases -->
     <defs>
      <path d="M 53.515625 70.515625 
L 53.515625 60.890625 
Q 47.90625 63.578125 42.921875 64.890625 
Q 37.9375 66.21875 33.296875 66.21875 
Q 25.25 66.21875 20.875 63.09375 
Q 16.5 59.96875 16.5 54.203125 
Q 16.5 49.359375 19.40625 46.890625 
Q 22.3125 44.4375 30.421875 42.921875 
L 36.375 41.703125 
Q 47.40625 39.59375 52.65625 34.296875 
Q 57.90625 29 57.90625 20.125 
Q 57.90625 9.515625 50.796875 4.046875 
Q 43.703125 -1.421875 29.984375 -1.421875 
Q 24.8125 -1.421875 18.96875 -0.25 
Q 13.140625 0.921875 6.890625 3.21875 
L 6.890625 13.375 
Q 12.890625 10.015625 18.65625 8.296875 
Q 24.421875 6.59375 29.984375 6.59375 
Q 38.421875 6.59375 43.015625 9.90625 
Q 47.609375 13.234375 47.609375 19.390625 
Q 47.609375 24.75 44.3125 27.78125 
Q 41.015625 30.8125 33.5 32.328125 
L 27.484375 33.5 
Q 16.453125 35.6875 11.515625 40.375 
Q 6.59375 45.0625 6.59375 53.421875 
Q 6.59375 63.09375 13.40625 68.65625 
Q 20.21875 74.21875 32.171875 74.21875 
Q 37.3125 74.21875 42.625 73.28125 
Q 47.953125 72.359375 53.515625 70.515625 
z
" id="DejaVuSans-83"/>
      <path d="M 48.78125 52.59375 
L 48.78125 44.1875 
Q 44.96875 46.296875 41.140625 47.34375 
Q 37.3125 48.390625 33.40625 48.390625 
Q 24.65625 48.390625 19.8125 42.84375 
Q 14.984375 37.3125 14.984375 27.296875 
Q 14.984375 17.28125 19.8125 11.734375 
Q 24.65625 6.203125 33.40625 6.203125 
Q 37.3125 6.203125 41.140625 7.25 
Q 44.96875 8.296875 48.78125 10.40625 
L 48.78125 2.09375 
Q 45.015625 0.34375 40.984375 -0.53125 
Q 36.96875 -1.421875 32.421875 -1.421875 
Q 20.0625 -1.421875 12.78125 6.34375 
Q 5.515625 14.109375 5.515625 27.296875 
Q 5.515625 40.671875 12.859375 48.328125 
Q 20.21875 56 33.015625 56 
Q 37.15625 56 41.109375 55.140625 
Q 45.0625 54.296875 48.78125 52.59375 
z
" id="DejaVuSans-99"/>
      <path d="M 30.609375 48.390625 
Q 23.390625 48.390625 19.1875 42.75 
Q 14.984375 37.109375 14.984375 27.296875 
Q 14.984375 17.484375 19.15625 11.84375 
Q 23.34375 6.203125 30.609375 6.203125 
Q 37.796875 6.203125 41.984375 11.859375 
Q 46.1875 17.53125 46.1875 27.296875 
Q 46.1875 37.015625 41.984375 42.703125 
Q 37.796875 48.390625 30.609375 48.390625 
z
M 30.609375 56 
Q 42.328125 56 49.015625 48.375 
Q 55.71875 40.765625 55.71875 27.296875 
Q 55.71875 13.875 49.015625 6.21875 
Q 42.328125 -1.421875 30.609375 -1.421875 
Q 18.84375 -1.421875 12.171875 6.21875 
Q 5.515625 13.875 5.515625 27.296875 
Q 5.515625 40.765625 12.171875 48.375 
Q 18.84375 56 30.609375 56 
z
" id="DejaVuSans-111"/>
      <path d="M 37.109375 75.984375 
L 37.109375 68.5 
L 28.515625 68.5 
Q 23.6875 68.5 21.796875 66.546875 
Q 19.921875 64.59375 19.921875 59.515625 
L 19.921875 54.6875 
L 34.71875 54.6875 
L 34.71875 47.703125 
L 19.921875 47.703125 
L 19.921875 0 
L 10.890625 0 
L 10.890625 47.703125 
L 2.296875 47.703125 
L 2.296875 54.6875 
L 10.890625 54.6875 
L 10.890625 58.5 
Q 10.890625 67.625 15.140625 71.796875 
Q 19.390625 75.984375 28.609375 75.984375 
z
" id="DejaVuSans-102"/>
      <path d="M 4.203125 54.6875 
L 13.1875 54.6875 
L 24.421875 12.015625 
L 35.59375 54.6875 
L 46.1875 54.6875 
L 57.421875 12.015625 
L 68.609375 54.6875 
L 77.59375 54.6875 
L 63.28125 0 
L 52.6875 0 
L 40.921875 44.828125 
L 29.109375 0 
L 18.5 0 
z
" id="DejaVuSans-119"/>
      <path d="M 9.078125 75.984375 
L 18.109375 75.984375 
L 18.109375 31.109375 
L 44.921875 54.6875 
L 56.390625 54.6875 
L 27.390625 29.109375 
L 57.625 0 
L 45.90625 0 
L 18.109375 26.703125 
L 18.109375 0 
L 9.078125 0 
z
" id="DejaVuSans-107"/>
      <path d="M 9.421875 75.984375 
L 18.40625 75.984375 
L 18.40625 0 
L 9.421875 0 
z
" id="DejaVuSans-108"/>
      <path d="M 32.171875 -5.078125 
Q 28.375 -14.84375 24.75 -17.8125 
Q 21.140625 -20.796875 15.09375 -20.796875 
L 7.90625 -20.796875 
L 7.90625 -13.28125 
L 13.1875 -13.28125 
Q 16.890625 -13.28125 18.9375 -11.515625 
Q 21 -9.765625 23.484375 -3.21875 
L 25.09375 0.875 
L 2.984375 54.6875 
L 12.5 54.6875 
L 29.59375 11.921875 
L 46.6875 54.6875 
L 56.203125 54.6875 
z
" id="DejaVuSans-121"/>
      <path d="M 9.421875 54.6875 
L 18.40625 54.6875 
L 18.40625 0 
L 9.421875 0 
z
M 9.421875 75.984375 
L 18.40625 75.984375 
L 18.40625 64.59375 
L 9.421875 64.59375 
z
" id="DejaVuSans-105"/>
      <path d="M 44.28125 53.078125 
L 44.28125 44.578125 
Q 40.484375 46.53125 36.375 47.5 
Q 32.28125 48.484375 27.875 48.484375 
Q 21.1875 48.484375 17.84375 46.4375 
Q 14.5 44.390625 14.5 40.28125 
Q 14.5 37.15625 16.890625 35.375 
Q 19.28125 33.59375 26.515625 31.984375 
L 29.59375 31.296875 
Q 39.15625 29.25 43.1875 25.515625 
Q 47.21875 21.78125 47.21875 15.09375 
Q 47.21875 7.46875 41.1875 3.015625 
Q 35.15625 -1.421875 24.609375 -1.421875 
Q 20.21875 -1.421875 15.453125 -0.5625 
Q 10.6875 0.296875 5.421875 2 
L 5.421875 11.28125 
Q 10.40625 8.6875 15.234375 7.390625 
Q 20.0625 6.109375 24.8125 6.109375 
Q 31.15625 6.109375 34.5625 8.28125 
Q 37.984375 10.453125 37.984375 14.40625 
Q 37.984375 18.0625 35.515625 20.015625 
Q 33.0625 21.96875 24.703125 23.78125 
L 21.578125 24.515625 
Q 13.234375 26.265625 9.515625 29.90625 
Q 5.8125 33.546875 5.8125 39.890625 
Q 5.8125 47.609375 11.28125 51.796875 
Q 16.75 56 26.8125 56 
Q 31.78125 56 36.171875 55.265625 
Q 40.578125 54.546875 44.28125 53.078125 
z
" id="DejaVuSans-115"/>
     </defs>
     <g transform="translate(14.798438 205.826905)rotate(-90)scale(0.1 -0.1)">
      <use xlink:href="#DejaVuSans-83"/>
      <use x="63.476562" xlink:href="#DejaVuSans-99"/>
      <use x="118.457031" xlink:href="#DejaVuSans-111"/>
      <use x="179.638672" xlink:href="#DejaVuSans-114"/>
      <use x="218.501953" xlink:href="#DejaVuSans-101"/>
      <use x="280.025391" xlink:href="#DejaVuSans-32"/>
      <use x="311.8125" xlink:href="#DejaVuSans-102"/>
      <use x="347.017578" xlink:href="#DejaVuSans-111"/>
      <use x="408.199219" xlink:href="#DejaVuSans-114"/>
      <use x="449.3125" xlink:href="#DejaVuSans-32"/>
      <use x="481.099609" xlink:href="#DejaVuSans-119"/>
      <use x="562.886719" xlink:href="#DejaVuSans-101"/>
      <use x="624.410156" xlink:href="#DejaVuSans-101"/>
      <use x="685.933594" xlink:href="#DejaVuSans-107"/>
      <use x="743.84375" xlink:href="#DejaVuSans-108"/>
      <use x="771.626953" xlink:href="#DejaVuSans-121"/>
      <use x="830.806641" xlink:href="#DejaVuSans-32"/>
      <use x="862.59375" xlink:href="#DejaVuSans-105"/>
      <use x="890.376953" xlink:href="#DejaVuSans-110"/>
      <use x="953.755859" xlink:href="#DejaVuSans-99"/>
      <use x="1008.736328" xlink:href="#DejaVuSans-105"/>
      <use x="1036.519531" xlink:href="#DejaVuSans-100"/>
      <use x="1099.996094" xlink:href="#DejaVuSans-101"/>
      <use x="1161.519531" xlink:href="#DejaVuSans-110"/>
      <use x="1224.898438" xlink:href="#DejaVuSans-116"/>
      <use x="1264.107422" xlink:href="#DejaVuSans-97"/>
      <use x="1325.386719" xlink:href="#DejaVuSans-108"/>
      <use x="1353.169922" xlink:href="#DejaVuSans-32"/>
      <use x="1384.957031" xlink:href="#DejaVuSans-99"/>
      <use x="1439.9375" xlink:href="#DejaVuSans-97"/>
      <use x="1501.216797" xlink:href="#DejaVuSans-115"/>
      <use x="1553.316406" xlink:href="#DejaVuSans-101"/>
      <use x="1614.839844" xlink:href="#DejaVuSans-115"/>
     </g>
    </g>
   </g>
   <g id="line2d_25">
    <path clip-path="url(#pb4105c7663)" d="M 98.057434 90.208232 
L 100.873191 100.208346 
L 103.688948 81.094935 
L 106.504705 106.336826 
L 109.320462 96.6626 
L 112.136219 68.806474 
L 114.951976 31.423682 
L 117.767733 65.15582 
L 120.58349 94.076962 
L 123.399247 36.912108 
L 145.925302 70.197807 
L 148.741059 143.201239 
L 151.556816 93.913112 
L 154.372573 114.009519 
L 157.18833 120.310276 
L 160.004087 98.03026 
L 162.819844 86.431242 
L 165.635601 97.593535 
L 168.451358 131.491102 
L 171.267115 112.060165 
L 174.082872 160.387437 
L 182.530143 163.01065 
L 185.3459 64.752467 
L 188.161657 89.64973 
L 190.977414 113.853114 
L 193.793171 112.221129 
L 196.608928 103.469732 
L 199.424685 105.225657 
L 202.240442 133.356472 
L 205.056199 129.839932 
L 207.871956 131.17983 
L 210.687712 112.178426 
L 213.503469 114.432606 
L 216.319226 91.319442 
L 219.134983 92.581946 
L 221.95074 102.962914 
L 224.766497 86.077793 
L 227.582254 69.82218 
L 230.398011 72.254733 
L 233.213768 84.333813 
L 238.845282 122.190544 
L 247.292553 132.838146 
L 250.10831 103.427275 
L 252.924067 152.182646 
L 255.739824 164.360576 
L 258.555581 146.932554 
L 261.371338 128.861723 
" style="fill:none;stroke:#000080;stroke-linecap:square;stroke-width:1.5;"/>
    <defs>
     <path d="M 0 3 
C 0.795609 3 1.55874 2.683901 2.12132 2.12132 
C 2.683901 1.55874 3 0.795609 3 0 
C 3 -0.795609 2.683901 -1.55874 2.12132 -2.12132 
C 1.55874 -2.683901 0.795609 -3 0 -3 
C -0.795609 -3 -1.55874 -2.683901 -2.12132 -2.12132 
C -2.683901 -1.55874 -3 -0.795609 -3 0 
C -3 0.795609 -2.683901 1.55874 -2.12132 2.12132 
C -1.55874 2.683901 -0.795609 3 0 3 
z
" id="me8ecc55c50" style="stroke:#000080;"/>
    </defs>
    <g clip-path="url(#pb4105c7663)">
     <use style="fill:#000080;stroke:#000080;" x="98.057434" xlink:href="#me8ecc55c50" y="90.208232"/>
     <use style="fill:#000080;stroke:#000080;" x="100.873191" xlink:href="#me8ecc55c50" y="100.208346"/>
     <use style="fill:#000080;stroke:#000080;" x="103.688948" xlink:href="#me8ecc55c50" y="81.094935"/>
     <use style="fill:#000080;stroke:#000080;" x="106.504705" xlink:href="#me8ecc55c50" y="106.336826"/>
     <use style="fill:#000080;stroke:#000080;" x="109.320462" xlink:href="#me8ecc55c50" y="96.6626"/>
     <use style="fill:#000080;stroke:#000080;" x="112.136219" xlink:href="#me8ecc55c50" y="68.806474"/>
     <use style="fill:#000080;stroke:#000080;" x="114.951976" xlink:href="#me8ecc55c50" y="31.423682"/>
     <use style="fill:#000080;stroke:#000080;" x="117.767733" xlink:href="#me8ecc55c50" y="65.15582"/>
     <use style="fill:#000080;stroke:#000080;" x="120.58349" xlink:href="#me8ecc55c50" y="94.076962"/>
     <use style="fill:#000080;stroke:#000080;" x="123.399247" xlink:href="#me8ecc55c50" y="36.912108"/>
     <use style="fill:#000080;stroke:#000080;" x="145.925302" xlink:href="#me8ecc55c50" y="70.197807"/>
     <use style="fill:#000080;stroke:#000080;" x="148.741059" xlink:href="#me8ecc55c50" y="143.201239"/>
     <use style="fill:#000080;stroke:#000080;" x="151.556816" xlink:href="#me8ecc55c50" y="93.913112"/>
     <use style="fill:#000080;stroke:#000080;" x="154.372573" xlink:href="#me8ecc55c50" y="114.009519"/>
     <use style="fill:#000080;stroke:#000080;" x="157.18833" xlink:href="#me8ecc55c50" y="120.310276"/>
     <use style="fill:#000080;stroke:#000080;" x="160.004087" xlink:href="#me8ecc55c50" y="98.03026"/>
     <use style="fill:#000080;stroke:#000080;" x="162.819844" xlink:href="#me8ecc55c50" y="86.431242"/>
     <use style="fill:#000080;stroke:#000080;" x="165.635601" xlink:href="#me8ecc55c50" y="97.593535"/>
     <use style="fill:#000080;stroke:#000080;" x="168.451358" xlink:href="#me8ecc55c50" y="131.491102"/>
     <use style="fill:#000080;stroke:#000080;" x="171.267115" xlink:href="#me8ecc55c50" y="112.060165"/>
     <use style="fill:#000080;stroke:#000080;" x="174.082872" xlink:href="#me8ecc55c50" y="160.387437"/>
     <use style="fill:#000080;stroke:#000080;" x="182.530143" xlink:href="#me8ecc55c50" y="163.01065"/>
     <use style="fill:#000080;stroke:#000080;" x="185.3459" xlink:href="#me8ecc55c50" y="64.752467"/>
     <use style="fill:#000080;stroke:#000080;" x="188.161657" xlink:href="#me8ecc55c50" y="89.64973"/>
     <use style="fill:#000080;stroke:#000080;" x="190.977414" xlink:href="#me8ecc55c50" y="113.853114"/>
     <use style="fill:#000080;stroke:#000080;" x="193.793171" xlink:href="#me8ecc55c50" y="112.221129"/>
     <use style="fill:#000080;stroke:#000080;" x="196.608928" xlink:href="#me8ecc55c50" y="103.469732"/>
     <use style="fill:#000080;stroke:#000080;" x="199.424685" xlink:href="#me8ecc55c50" y="105.225657"/>
     <use style="fill:#000080;stroke:#000080;" x="202.240442" xlink:href="#me8ecc55c50" y="133.356472"/>
     <use style="fill:#000080;stroke:#000080;" x="205.056199" xlink:href="#me8ecc55c50" y="129.839932"/>
     <use style="fill:#000080;stroke:#000080;" x="207.871956" xlink:href="#me8ecc55c50" y="131.17983"/>
     <use style="fill:#000080;stroke:#000080;" x="210.687712" xlink:href="#me8ecc55c50" y="112.178426"/>
     <use style="fill:#000080;stroke:#000080;" x="213.503469" xlink:href="#me8ecc55c50" y="114.432606"/>
     <use style="fill:#000080;stroke:#000080;" x="216.319226" xlink:href="#me8ecc55c50" y="91.319442"/>
     <use style="fill:#000080;stroke:#000080;" x="219.134983" xlink:href="#me8ecc55c50" y="92.581946"/>
     <use style="fill:#000080;stroke:#000080;" x="221.95074" xlink:href="#me8ecc55c50" y="102.962914"/>
     <use style="fill:#000080;stroke:#000080;" x="224.766497" xlink:href="#me8ecc55c50" y="86.077793"/>
     <use style="fill:#000080;stroke:#000080;" x="227.582254" xlink:href="#me8ecc55c50" y="69.82218"/>
     <use style="fill:#000080;stroke:#000080;" x="230.398011" xlink:href="#me8ecc55c50" y="72.254733"/>
     <use style="fill:#000080;stroke:#000080;" x="233.213768" xlink:href="#me8ecc55c50" y="84.333813"/>
     <use style="fill:#000080;stroke:#000080;" x="238.845282" xlink:href="#me8ecc55c50" y="122.190544"/>
     <use style="fill:#000080;stroke:#000080;" x="247.292553" xlink:href="#me8ecc55c50" y="132.838146"/>
     <use style="fill:#000080;stroke:#000080;" x="250.10831" xlink:href="#me8ecc55c50" y="103.427275"/>
     <use style="fill:#000080;stroke:#000080;" x="252.924067" xlink:href="#me8ecc55c50" y="152.182646"/>
     <use style="fill:#000080;stroke:#000080;" x="255.739824" xlink:href="#me8ecc55c50" y="164.360576"/>
     <use style="fill:#000080;stroke:#000080;" x="258.555581" xlink:href="#me8ecc55c50" y="146.932554"/>
     <use style="fill:#000080;stroke:#000080;" x="261.371338" xlink:href="#me8ecc55c50" y="128.861723"/>
    </g>
   </g>
   <g id="line2d_26">
    <path clip-path="url(#pb4105c7663)" d="M 98.057434 77.008652 
L 100.873191 59.616994 
L 103.688948 98.398331 
L 109.320462 99.762166 
L 112.136219 116.381484 
L 114.951976 102.756187 
L 117.767733 95.545461 
L 120.58349 100.747697 
L 123.399247 107.581438 
L 126.215004 98.505253 
L 129.03076 121.95679 
L 131.846517 92.314552 
L 134.662274 112.216672 
L 137.478031 140.670107 
L 140.293788 153.153469 
L 143.109545 158.577345 
L 145.925302 133.208726 
L 148.741059 102.470487 
L 151.556816 101.200056 
L 154.372573 116.869034 
L 157.18833 111.333093 
L 160.004087 109.684028 
L 162.819844 104.77134 
L 165.635601 112.933422 
L 168.451358 112.265124 
L 171.267115 90.459357 
L 174.082872 174.942039 
L 176.898629 207.781086 
L 179.714386 78.293536 
L 182.530143 96.648148 
L 185.3459 88.623752 
L 188.161657 82.191994 
L 190.977414 114.366292 
L 193.793171 106.544415 
L 196.608928 109.342018 
L 199.424685 139.709768 
L 202.240442 106.268271 
L 205.056199 87.628574 
L 207.871956 104.496283 
L 210.687712 104.528339 
L 213.503469 127.71101 
L 216.319226 89.980557 
L 219.134983 92.622499 
L 221.95074 77.559461 
L 224.766497 65.00431 
L 227.582254 57.324816 
L 230.398011 65.661222 
L 233.213768 101.470215 
L 236.029525 119.387037 
L 250.10831 131.819204 
L 252.924067 126.286156 
L 255.739824 119.641749 
L 258.555581 111.304675 
L 261.371338 134.078311 
" style="fill:none;stroke:#00d4ff;stroke-linecap:square;stroke-width:1.5;"/>
    <defs>
     <path d="M 0 3 
C 0.795609 3 1.55874 2.683901 2.12132 2.12132 
C 2.683901 1.55874 3 0.795609 3 0 
C 3 -0.795609 2.683901 -1.55874 2.12132 -2.12132 
C 1.55874 -2.683901 0.795609 -3 0 -3 
C -0.795609 -3 -1.55874 -2.683901 -2.12132 -2.12132 
C -2.683901 -1.55874 -3 -0.795609 -3 0 
C -3 0.795609 -2.683901 1.55874 -2.12132 2.12132 
C -1.55874 2.683901 -0.795609 3 0 3 
z
" id="ma8e69da70f" style="stroke:#00d4ff;"/>
    </defs>
    <g clip-path="url(#pb4105c7663)">
     <use style="fill:#00d4ff;stroke:#00d4ff;" x="98.057434" xlink:href="#ma8e69da70f" y="77.008652"/>
     <use style="fill:#00d4ff;stroke:#00d4ff;" x="100.873191" xlink:href="#ma8e69da70f" y="59.616994"/>
     <use style="fill:#00d4ff;stroke:#00d4ff;" x="103.688948" xlink:href="#ma8e69da70f" y="98.398331"/>
     <use style="fill:#00d4ff;stroke:#00d4ff;" x="109.320462" xlink:href="#ma8e69da70f" y="99.762166"/>
     <use style="fill:#00d4ff;stroke:#00d4ff;" x="112.136219" xlink:href="#ma8e69da70f" y="116.381484"/>
     <use style="fill:#00d4ff;stroke:#00d4ff;" x="114.951976" xlink:href="#ma8e69da70f" y="102.756187"/>
     <use style="fill:#00d4ff;stroke:#00d4ff;" x="117.767733" xlink:href="#ma8e69da70f" y="95.545461"/>
     <use style="fill:#00d4ff;stroke:#00d4ff;" x="120.58349" xlink:href="#ma8e69da70f" y="100.747697"/>
     <use style="fill:#00d4ff;stroke:#00d4ff;" x="123.399247" xlink:href="#ma8e69da70f" y="107.581438"/>
     <use style="fill:#00d4ff;stroke:#00d4ff;" x="126.215004" xlink:href="#ma8e69da70f" y="98.505253"/>
     <use style="fill:#00d4ff;stroke:#00d4ff;" x="129.03076" xlink:href="#ma8e69da70f" y="121.95679"/>
     <use style="fill:#00d4ff;stroke:#00d4ff;" x="131.846517" xlink:href="#ma8e69da70f" y="92.314552"/>
     <use style="fill:#00d4ff;stroke:#00d4ff;" x="134.662274" xlink:href="#ma8e69da70f" y="112.216672"/>
     <use style="fill:#00d4ff;stroke:#00d4ff;" x="137.478031" xlink:href="#ma8e69da70f" y="140.670107"/>
     <use style="fill:#00d4ff;stroke:#00d4ff;" x="140.293788" xlink:href="#ma8e69da70f" y="153.153469"/>
     <use style="fill:#00d4ff;stroke:#00d4ff;" x="143.109545" xlink:href="#ma8e69da70f" y="158.577345"/>
     <use style="fill:#00d4ff;stroke:#00d4ff;" x="145.925302" xlink:href="#ma8e69da70f" y="133.208726"/>
     <use style="fill:#00d4ff;stroke:#00d4ff;" x="148.741059" xlink:href="#ma8e69da70f" y="102.470487"/>
     <use style="fill:#00d4ff;stroke:#00d4ff;" x="151.556816" xlink:href="#ma8e69da70f" y="101.200056"/>
     <use style="fill:#00d4ff;stroke:#00d4ff;" x="154.372573" xlink:href="#ma8e69da70f" y="116.869034"/>
     <use style="fill:#00d4ff;stroke:#00d4ff;" x="157.18833" xlink:href="#ma8e69da70f" y="111.333093"/>
     <use style="fill:#00d4ff;stroke:#00d4ff;" x="160.004087" xlink:href="#ma8e69da70f" y="109.684028"/>
     <use style="fill:#00d4ff;stroke:#00d4ff;" x="162.819844" xlink:href="#ma8e69da70f" y="104.77134"/>
     <use style="fill:#00d4ff;stroke:#00d4ff;" x="165.635601" xlink:href="#ma8e69da70f" y="112.933422"/>
     <use style="fill:#00d4ff;stroke:#00d4ff;" x="168.451358" xlink:href="#ma8e69da70f" y="112.265124"/>
     <use style="fill:#00d4ff;stroke:#00d4ff;" x="171.267115" xlink:href="#ma8e69da70f" y="90.459357"/>
     <use style="fill:#00d4ff;stroke:#00d4ff;" x="174.082872" xlink:href="#ma8e69da70f" y="174.942039"/>
     <use style="fill:#00d4ff;stroke:#00d4ff;" x="176.898629" xlink:href="#ma8e69da70f" y="207.781086"/>
     <use style="fill:#00d4ff;stroke:#00d4ff;" x="179.714386" xlink:href="#ma8e69da70f" y="78.293536"/>
     <use style="fill:#00d4ff;stroke:#00d4ff;" x="182.530143" xlink:href="#ma8e69da70f" y="96.648148"/>
     <use style="fill:#00d4ff;stroke:#00d4ff;" x="185.3459" xlink:href="#ma8e69da70f" y="88.623752"/>
     <use style="fill:#00d4ff;stroke:#00d4ff;" x="188.161657" xlink:href="#ma8e69da70f" y="82.191994"/>
     <use style="fill:#00d4ff;stroke:#00d4ff;" x="190.977414" xlink:href="#ma8e69da70f" y="114.366292"/>
     <use style="fill:#00d4ff;stroke:#00d4ff;" x="193.793171" xlink:href="#ma8e69da70f" y="106.544415"/>
     <use style="fill:#00d4ff;stroke:#00d4ff;" x="196.608928" xlink:href="#ma8e69da70f" y="109.342018"/>
     <use style="fill:#00d4ff;stroke:#00d4ff;" x="199.424685" xlink:href="#ma8e69da70f" y="139.709768"/>
     <use style="fill:#00d4ff;stroke:#00d4ff;" x="202.240442" xlink:href="#ma8e69da70f" y="106.268271"/>
     <use style="fill:#00d4ff;stroke:#00d4ff;" x="205.056199" xlink:href="#ma8e69da70f" y="87.628574"/>
     <use style="fill:#00d4ff;stroke:#00d4ff;" x="207.871956" xlink:href="#ma8e69da70f" y="104.496283"/>
     <use style="fill:#00d4ff;stroke:#00d4ff;" x="210.687712" xlink:href="#ma8e69da70f" y="104.528339"/>
     <use style="fill:#00d4ff;stroke:#00d4ff;" x="213.503469" xlink:href="#ma8e69da70f" y="127.71101"/>
     <use style="fill:#00d4ff;stroke:#00d4ff;" x="216.319226" xlink:href="#ma8e69da70f" y="89.980557"/>
     <use style="fill:#00d4ff;stroke:#00d4ff;" x="219.134983" xlink:href="#ma8e69da70f" y="92.622499"/>
     <use style="fill:#00d4ff;stroke:#00d4ff;" x="221.95074" xlink:href="#ma8e69da70f" y="77.559461"/>
     <use style="fill:#00d4ff;stroke:#00d4ff;" x="224.766497" xlink:href="#ma8e69da70f" y="65.00431"/>
     <use style="fill:#00d4ff;stroke:#00d4ff;" x="227.582254" xlink:href="#ma8e69da70f" y="57.324816"/>
     <use style="fill:#00d4ff;stroke:#00d4ff;" x="230.398011" xlink:href="#ma8e69da70f" y="65.661222"/>
     <use style="fill:#00d4ff;stroke:#00d4ff;" x="233.213768" xlink:href="#ma8e69da70f" y="101.470215"/>
     <use style="fill:#00d4ff;stroke:#00d4ff;" x="236.029525" xlink:href="#ma8e69da70f" y="119.387037"/>
     <use style="fill:#00d4ff;stroke:#00d4ff;" x="250.10831" xlink:href="#ma8e69da70f" y="131.819204"/>
     <use style="fill:#00d4ff;stroke:#00d4ff;" x="252.924067" xlink:href="#ma8e69da70f" y="126.286156"/>
     <use style="fill:#00d4ff;stroke:#00d4ff;" x="255.739824" xlink:href="#ma8e69da70f" y="119.641749"/>
     <use style="fill:#00d4ff;stroke:#00d4ff;" x="258.555581" xlink:href="#ma8e69da70f" y="111.304675"/>
     <use style="fill:#00d4ff;stroke:#00d4ff;" x="261.371338" xlink:href="#ma8e69da70f" y="134.078311"/>
    </g>
   </g>
   <g id="line2d_27">
    <path clip-path="url(#pb4105c7663)" d="M 61.452593 65.885275 
L 64.26835 84.882968 
L 67.084107 93.347184 
L 69.899864 98.571286 
L 72.715621 95.000235 
L 75.531378 80.81692 
L 78.347135 61.643296 
L 81.162892 69.777778 
L 95.241677 119.469867 
L 98.057434 102.689595 
L 100.873191 89.490761 
L 103.688948 104.719525 
L 106.504705 100.830353 
L 109.320462 97.975531 
L 112.136219 88.603945 
L 114.951976 92.799046 
L 117.767733 70.675945 
L 120.58349 67.55361 
L 123.399247 61.104604 
L 126.215004 108.814387 
L 129.03076 129.200163 
L 131.846517 103.089644 
L 134.662274 115.845646 
L 137.478031 151.054324 
L 140.293788 160.783376 
L 143.109545 157.425371 
L 145.925302 110.076062 
L 148.741059 130.050932 
L 151.556816 116.03323 
L 154.372573 136.64527 
L 157.18833 107.076681 
L 160.004087 117.370694 
L 162.819844 114.283393 
L 165.635601 96.792257 
L 168.451358 98.104715 
L 171.267115 121.646068 
L 176.898629 197.720323 
L 179.714386 164.702972 
L 182.530143 117.793827 
L 185.3459 96.356675 
L 188.161657 119.658245 
L 190.977414 116.25365 
L 193.793171 109.779357 
L 196.608928 114.419596 
L 199.424685 118.12188 
L 202.240442 122.344434 
L 205.056199 100.995512 
L 207.871956 104.217227 
L 210.687712 124.465047 
L 213.503469 143.803165 
L 216.319226 128.791252 
L 219.134983 114.999821 
L 221.95074 110.407588 
L 224.766497 83.503069 
L 227.582254 97.409061 
L 230.398011 87.521579 
L 233.213768 102.443385 
L 236.029525 116.34545 
L 238.845282 123.642857 
L 241.661039 144.784139 
L 247.292553 160.322979 
L 250.10831 113.86037 
L 252.924067 144.909304 
L 255.739824 128.534975 
L 258.555581 131.329951 
L 261.371338 145.238492 
" style="fill:none;stroke:#ffe600;stroke-linecap:square;stroke-width:1.5;"/>
    <defs>
     <path d="M 0 3 
C 0.795609 3 1.55874 2.683901 2.12132 2.12132 
C 2.683901 1.55874 3 0.795609 3 0 
C 3 -0.795609 2.683901 -1.55874 2.12132 -2.12132 
C 1.55874 -2.683901 0.795609 -3 0 -3 
C -0.795609 -3 -1.55874 -2.683901 -2.12132 -2.12132 
C -2.683901 -1.55874 -3 -0.795609 -3 0 
C -3 0.795609 -2.683901 1.55874 -2.12132 2.12132 
C -1.55874 2.683901 -0.795609 3 0 3 
z
" id="meac4b95986" style="stroke:#ffe600;"/>
    </defs>
    <g clip-path="url(#pb4105c7663)">
     <use style="fill:#ffe600;stroke:#ffe600;" x="61.452593" xlink:href="#meac4b95986" y="65.885275"/>
     <use style="fill:#ffe600;stroke:#ffe600;" x="64.26835" xlink:href="#meac4b95986" y="84.882968"/>
     <use style="fill:#ffe600;stroke:#ffe600;" x="67.084107" xlink:href="#meac4b95986" y="93.347184"/>
     <use style="fill:#ffe600;stroke:#ffe600;" x="69.899864" xlink:href="#meac4b95986" y="98.571286"/>
     <use style="fill:#ffe600;stroke:#ffe600;" x="72.715621" xlink:href="#meac4b95986" y="95.000235"/>
     <use style="fill:#ffe600;stroke:#ffe600;" x="75.531378" xlink:href="#meac4b95986" y="80.81692"/>
     <use style="fill:#ffe600;stroke:#ffe600;" x="78.347135" xlink:href="#meac4b95986" y="61.643296"/>
     <use style="fill:#ffe600;stroke:#ffe600;" x="81.162892" xlink:href="#meac4b95986" y="69.777778"/>
     <use style="fill:#ffe600;stroke:#ffe600;" x="95.241677" xlink:href="#meac4b95986" y="119.469867"/>
     <use style="fill:#ffe600;stroke:#ffe600;" x="98.057434" xlink:href="#meac4b95986" y="102.689595"/>
     <use style="fill:#ffe600;stroke:#ffe600;" x="100.873191" xlink:href="#meac4b95986" y="89.490761"/>
     <use style="fill:#ffe600;stroke:#ffe600;" x="103.688948" xlink:href="#meac4b95986" y="104.719525"/>
     <use style="fill:#ffe600;stroke:#ffe600;" x="106.504705" xlink:href="#meac4b95986" y="100.830353"/>
     <use style="fill:#ffe600;stroke:#ffe600;" x="109.320462" xlink:href="#meac4b95986" y="97.975531"/>
     <use style="fill:#ffe600;stroke:#ffe600;" x="112.136219" xlink:href="#meac4b95986" y="88.603945"/>
     <use style="fill:#ffe600;stroke:#ffe600;" x="114.951976" xlink:href="#meac4b95986" y="92.799046"/>
     <use style="fill:#ffe600;stroke:#ffe600;" x="117.767733" xlink:href="#meac4b95986" y="70.675945"/>
     <use style="fill:#ffe600;stroke:#ffe600;" x="120.58349" xlink:href="#meac4b95986" y="67.55361"/>
     <use style="fill:#ffe600;stroke:#ffe600;" x="123.399247" xlink:href="#meac4b95986" y="61.104604"/>
     <use style="fill:#ffe600;stroke:#ffe600;" x="126.215004" xlink:href="#meac4b95986" y="108.814387"/>
     <use style="fill:#ffe600;stroke:#ffe600;" x="129.03076" xlink:href="#meac4b95986" y="129.200163"/>
     <use style="fill:#ffe600;stroke:#ffe600;" x="131.846517" xlink:href="#meac4b95986" y="103.089644"/>
     <use style="fill:#ffe600;stroke:#ffe600;" x="134.662274" xlink:href="#meac4b95986" y="115.845646"/>
     <use style="fill:#ffe600;stroke:#ffe600;" x="137.478031" xlink:href="#meac4b95986" y="151.054324"/>
     <use style="fill:#ffe600;stroke:#ffe600;" x="140.293788" xlink:href="#meac4b95986" y="160.783376"/>
     <use style="fill:#ffe600;stroke:#ffe600;" x="143.109545" xlink:href="#meac4b95986" y="157.425371"/>
     <use style="fill:#ffe600;stroke:#ffe600;" x="145.925302" xlink:href="#meac4b95986" y="110.076062"/>
     <use style="fill:#ffe600;stroke:#ffe600;" x="148.741059" xlink:href="#meac4b95986" y="130.050932"/>
     <use style="fill:#ffe600;stroke:#ffe600;" x="151.556816" xlink:href="#meac4b95986" y="116.03323"/>
     <use style="fill:#ffe600;stroke:#ffe600;" x="154.372573" xlink:href="#meac4b95986" y="136.64527"/>
     <use style="fill:#ffe600;stroke:#ffe600;" x="157.18833" xlink:href="#meac4b95986" y="107.076681"/>
     <use style="fill:#ffe600;stroke:#ffe600;" x="160.004087" xlink:href="#meac4b95986" y="117.370694"/>
     <use style="fill:#ffe600;stroke:#ffe600;" x="162.819844" xlink:href="#meac4b95986" y="114.283393"/>
     <use style="fill:#ffe600;stroke:#ffe600;" x="165.635601" xlink:href="#meac4b95986" y="96.792257"/>
     <use style="fill:#ffe600;stroke:#ffe600;" x="168.451358" xlink:href="#meac4b95986" y="98.104715"/>
     <use style="fill:#ffe600;stroke:#ffe600;" x="171.267115" xlink:href="#meac4b95986" y="121.646068"/>
     <use style="fill:#ffe600;stroke:#ffe600;" x="176.898629" xlink:href="#meac4b95986" y="197.720323"/>
     <use style="fill:#ffe600;stroke:#ffe600;" x="179.714386" xlink:href="#meac4b95986" y="164.702972"/>
     <use style="fill:#ffe600;stroke:#ffe600;" x="182.530143" xlink:href="#meac4b95986" y="117.793827"/>
     <use style="fill:#ffe600;stroke:#ffe600;" x="185.3459" xlink:href="#meac4b95986" y="96.356675"/>
     <use style="fill:#ffe600;stroke:#ffe600;" x="188.161657" xlink:href="#meac4b95986" y="119.658245"/>
     <use style="fill:#ffe600;stroke:#ffe600;" x="190.977414" xlink:href="#meac4b95986" y="116.25365"/>
     <use style="fill:#ffe600;stroke:#ffe600;" x="193.793171" xlink:href="#meac4b95986" y="109.779357"/>
     <use style="fill:#ffe600;stroke:#ffe600;" x="196.608928" xlink:href="#meac4b95986" y="114.419596"/>
     <use style="fill:#ffe600;stroke:#ffe600;" x="199.424685" xlink:href="#meac4b95986" y="118.12188"/>
     <use style="fill:#ffe600;stroke:#ffe600;" x="202.240442" xlink:href="#meac4b95986" y="122.344434"/>
     <use style="fill:#ffe600;stroke:#ffe600;" x="205.056199" xlink:href="#meac4b95986" y="100.995512"/>
     <use style="fill:#ffe600;stroke:#ffe600;" x="207.871956" xlink:href="#meac4b95986" y="104.217227"/>
     <use style="fill:#ffe600;stroke:#ffe600;" x="210.687712" xlink:href="#meac4b95986" y="124.465047"/>
     <use style="fill:#ffe600;stroke:#ffe600;" x="213.503469" xlink:href="#meac4b95986" y="143.803165"/>
     <use style="fill:#ffe600;stroke:#ffe600;" x="216.319226" xlink:href="#meac4b95986" y="128.791252"/>
     <use style="fill:#ffe600;stroke:#ffe600;" x="219.134983" xlink:href="#meac4b95986" y="114.999821"/>
     <use style="fill:#ffe600;stroke:#ffe600;" x="221.95074" xlink:href="#meac4b95986" y="110.407588"/>
     <use style="fill:#ffe600;stroke:#ffe600;" x="224.766497" xlink:href="#meac4b95986" y="83.503069"/>
     <use style="fill:#ffe600;stroke:#ffe600;" x="227.582254" xlink:href="#meac4b95986" y="97.409061"/>
     <use style="fill:#ffe600;stroke:#ffe600;" x="230.398011" xlink:href="#meac4b95986" y="87.521579"/>
     <use style="fill:#ffe600;stroke:#ffe600;" x="233.213768" xlink:href="#meac4b95986" y="102.443385"/>
     <use style="fill:#ffe600;stroke:#ffe600;" x="236.029525" xlink:href="#meac4b95986" y="116.34545"/>
     <use style="fill:#ffe600;stroke:#ffe600;" x="238.845282" xlink:href="#meac4b95986" y="123.642857"/>
     <use style="fill:#ffe600;stroke:#ffe600;" x="241.661039" xlink:href="#meac4b95986" y="144.784139"/>
     <use style="fill:#ffe600;stroke:#ffe600;" x="247.292553" xlink:href="#meac4b95986" y="160.322979"/>
     <use style="fill:#ffe600;stroke:#ffe600;" x="250.10831" xlink:href="#meac4b95986" y="113.86037"/>
     <use style="fill:#ffe600;stroke:#ffe600;" x="252.924067" xlink:href="#meac4b95986" y="144.909304"/>
     <use style="fill:#ffe600;stroke:#ffe600;" x="255.739824" xlink:href="#meac4b95986" y="128.534975"/>
     <use style="fill:#ffe600;stroke:#ffe600;" x="258.555581" xlink:href="#meac4b95986" y="131.329951"/>
     <use style="fill:#ffe600;stroke:#ffe600;" x="261.371338" xlink:href="#meac4b95986" y="145.238492"/>
    </g>
   </g>
   <g id="line2d_28">
    <path clip-path="url(#pb4105c7663)" d="M 100.873191 108.07478 
L 103.688948 132.454855 
L 106.504705 149.14179 
L 109.320462 110.268817 
L 112.136219 78.511544 
L 114.951976 45.835381 
L 117.767733 115.697948 
L 120.58349 82.247571 
L 123.399247 77.710794 
L 126.215004 130.058131 
L 129.03076 84.279185 
L 131.846517 137.520729 
L 134.662274 196.362753 
L 145.925302 160.779949 
L 148.741059 129.425106 
L 151.556816 110.393894 
L 154.372573 101.448622 
L 157.18833 126.597713 
L 160.004087 106.710828 
L 162.819844 103.231788 
L 165.635601 96.89282 
L 168.451358 101.92341 
L 171.267115 128.722101 
L 174.082872 190.565703 
L 176.898629 213.534816 
L 179.714386 186.07117 
L 182.530143 138.169145 
L 185.3459 98.317844 
L 188.161657 95.377458 
L 190.977414 107.115575 
L 193.793171 101.660746 
L 196.608928 102.822658 
L 199.424685 119.179593 
L 202.240442 109.70571 
L 205.056199 100.741334 
L 207.871956 94.330387 
L 210.687712 146.955267 
L 213.503469 127.509717 
L 216.319226 131.676362 
L 219.134983 105.635411 
L 221.95074 109.275583 
L 224.766497 94.685526 
L 227.582254 81.787671 
L 230.398011 47.832949 
L 233.213768 89.878597 
L 236.029525 112.540988 
L 252.924067 148.166234 
L 255.739824 98.607495 
L 258.555581 127.2772 
L 261.371338 118.571592 
" style="fill:none;stroke:#800000;stroke-linecap:square;stroke-width:1.5;"/>
    <defs>
     <path d="M 0 3 
C 0.795609 3 1.55874 2.683901 2.12132 2.12132 
C 2.683901 1.55874 3 0.795609 3 0 
C 3 -0.795609 2.683901 -1.55874 2.12132 -2.12132 
C 1.55874 -2.683901 0.795609 -3 0 -3 
C -0.795609 -3 -1.55874 -2.683901 -2.12132 -2.12132 
C -2.683901 -1.55874 -3 -0.795609 -3 0 
C -3 0.795609 -2.683901 1.55874 -2.12132 2.12132 
C -1.55874 2.683901 -0.795609 3 0 3 
z
" id="m2cb6d13c08" style="stroke:#800000;"/>
    </defs>
    <g clip-path="url(#pb4105c7663)">
     <use style="fill:#800000;stroke:#800000;" x="100.873191" xlink:href="#m2cb6d13c08" y="108.07478"/>
     <use style="fill:#800000;stroke:#800000;" x="103.688948" xlink:href="#m2cb6d13c08" y="132.454855"/>
     <use style="fill:#800000;stroke:#800000;" x="106.504705" xlink:href="#m2cb6d13c08" y="149.14179"/>
     <use style="fill:#800000;stroke:#800000;" x="109.320462" xlink:href="#m2cb6d13c08" y="110.268817"/>
     <use style="fill:#800000;stroke:#800000;" x="112.136219" xlink:href="#m2cb6d13c08" y="78.511544"/>
     <use style="fill:#800000;stroke:#800000;" x="114.951976" xlink:href="#m2cb6d13c08" y="45.835381"/>
     <use style="fill:#800000;stroke:#800000;" x="117.767733" xlink:href="#m2cb6d13c08" y="115.697948"/>
     <use style="fill:#800000;stroke:#800000;" x="120.58349" xlink:href="#m2cb6d13c08" y="82.247571"/>
     <use style="fill:#800000;stroke:#800000;" x="123.399247" xlink:href="#m2cb6d13c08" y="77.710794"/>
     <use style="fill:#800000;stroke:#800000;" x="126.215004" xlink:href="#m2cb6d13c08" y="130.058131"/>
     <use style="fill:#800000;stroke:#800000;" x="129.03076" xlink:href="#m2cb6d13c08" y="84.279185"/>
     <use style="fill:#800000;stroke:#800000;" x="131.846517" xlink:href="#m2cb6d13c08" y="137.520729"/>
     <use style="fill:#800000;stroke:#800000;" x="134.662274" xlink:href="#m2cb6d13c08" y="196.362753"/>
     <use style="fill:#800000;stroke:#800000;" x="145.925302" xlink:href="#m2cb6d13c08" y="160.779949"/>
     <use style="fill:#800000;stroke:#800000;" x="148.741059" xlink:href="#m2cb6d13c08" y="129.425106"/>
     <use style="fill:#800000;stroke:#800000;" x="151.556816" xlink:href="#m2cb6d13c08" y="110.393894"/>
     <use style="fill:#800000;stroke:#800000;" x="154.372573" xlink:href="#m2cb6d13c08" y="101.448622"/>
     <use style="fill:#800000;stroke:#800000;" x="157.18833" xlink:href="#m2cb6d13c08" y="126.597713"/>
     <use style="fill:#800000;stroke:#800000;" x="160.004087" xlink:href="#m2cb6d13c08" y="106.710828"/>
     <use style="fill:#800000;stroke:#800000;" x="162.819844" xlink:href="#m2cb6d13c08" y="103.231788"/>
     <use style="fill:#800000;stroke:#800000;" x="165.635601" xlink:href="#m2cb6d13c08" y="96.89282"/>
     <use style="fill:#800000;stroke:#800000;" x="168.451358" xlink:href="#m2cb6d13c08" y="101.92341"/>
     <use style="fill:#800000;stroke:#800000;" x="171.267115" xlink:href="#m2cb6d13c08" y="128.722101"/>
     <use style="fill:#800000;stroke:#800000;" x="174.082872" xlink:href="#m2cb6d13c08" y="190.565703"/>
     <use style="fill:#800000;stroke:#800000;" x="176.898629" xlink:href="#m2cb6d13c08" y="213.534816"/>
     <use style="fill:#800000;stroke:#800000;" x="179.714386" xlink:href="#m2cb6d13c08" y="186.07117"/>
     <use style="fill:#800000;stroke:#800000;" x="182.530143" xlink:href="#m2cb6d13c08" y="138.169145"/>
     <use style="fill:#800000;stroke:#800000;" x="185.3459" xlink:href="#m2cb6d13c08" y="98.317844"/>
     <use style="fill:#800000;stroke:#800000;" x="188.161657" xlink:href="#m2cb6d13c08" y="95.377458"/>
     <use style="fill:#800000;stroke:#800000;" x="190.977414" xlink:href="#m2cb6d13c08" y="107.115575"/>
     <use style="fill:#800000;stroke:#800000;" x="193.793171" xlink:href="#m2cb6d13c08" y="101.660746"/>
     <use style="fill:#800000;stroke:#800000;" x="196.608928" xlink:href="#m2cb6d13c08" y="102.822658"/>
     <use style="fill:#800000;stroke:#800000;" x="199.424685" xlink:href="#m2cb6d13c08" y="119.179593"/>
     <use style="fill:#800000;stroke:#800000;" x="202.240442" xlink:href="#m2cb6d13c08" y="109.70571"/>
     <use style="fill:#800000;stroke:#800000;" x="205.056199" xlink:href="#m2cb6d13c08" y="100.741334"/>
     <use style="fill:#800000;stroke:#800000;" x="207.871956" xlink:href="#m2cb6d13c08" y="94.330387"/>
     <use style="fill:#800000;stroke:#800000;" x="210.687712" xlink:href="#m2cb6d13c08" y="146.955267"/>
     <use style="fill:#800000;stroke:#800000;" x="213.503469" xlink:href="#m2cb6d13c08" y="127.509717"/>
     <use style="fill:#800000;stroke:#800000;" x="216.319226" xlink:href="#m2cb6d13c08" y="131.676362"/>
     <use style="fill:#800000;stroke:#800000;" x="219.134983" xlink:href="#m2cb6d13c08" y="105.635411"/>
     <use style="fill:#800000;stroke:#800000;" x="221.95074" xlink:href="#m2cb6d13c08" y="109.275583"/>
     <use style="fill:#800000;stroke:#800000;" x="224.766497" xlink:href="#m2cb6d13c08" y="94.685526"/>
     <use style="fill:#800000;stroke:#800000;" x="227.582254" xlink:href="#m2cb6d13c08" y="81.787671"/>
     <use style="fill:#800000;stroke:#800000;" x="230.398011" xlink:href="#m2cb6d13c08" y="47.832949"/>
     <use style="fill:#800000;stroke:#800000;" x="233.213768" xlink:href="#m2cb6d13c08" y="89.878597"/>
     <use style="fill:#800000;stroke:#800000;" x="236.029525" xlink:href="#m2cb6d13c08" y="112.540988"/>
     <use style="fill:#800000;stroke:#800000;" x="252.924067" xlink:href="#m2cb6d13c08" y="148.166234"/>
     <use style="fill:#800000;stroke:#800000;" x="255.739824" xlink:href="#m2cb6d13c08" y="98.607495"/>
     <use style="fill:#800000;stroke:#800000;" x="258.555581" xlink:href="#m2cb6d13c08" y="127.2772"/>
     <use style="fill:#800000;stroke:#800000;" x="261.371338" xlink:href="#m2cb6d13c08" y="118.571592"/>
    </g>
   </g>
   <g id="patch_3">
    <path d="M 48.982813 222.640373 
L 48.982813 22.318125 
" style="fill:none;stroke:#000000;stroke-linecap:square;stroke-linejoin:miter;stroke-width:0.8;"/>
   </g>
   <g id="patch_4">
    <path d="M 269.416358 222.640373 
L 269.416358 22.318125 
" style="fill:none;stroke:#000000;stroke-linecap:square;stroke-linejoin:miter;stroke-width:0.8;"/>
   </g>
   <g id="patch_5">
    <path d="M 48.982812 222.640373 
L 269.416358 222.640373 
" style="fill:none;stroke:#000000;stroke-linecap:square;stroke-linejoin:miter;stroke-width:0.8;"/>
   </g>
   <g id="patch_6">
    <path d="M 48.982812 22.318125 
L 269.416358 22.318125 
" style="fill:none;stroke:#000000;stroke-linecap:square;stroke-linejoin:miter;stroke-width:0.8;"/>
   </g>
   <g id="text_27">
    <!-- Model-averaged 4-week-ahead forecasts -->
    <defs>
     <path d="M 9.8125 72.90625 
L 24.515625 72.90625 
L 43.109375 23.296875 
L 61.8125 72.90625 
L 76.515625 72.90625 
L 76.515625 0 
L 66.890625 0 
L 66.890625 64.015625 
L 48.09375 14.015625 
L 38.1875 14.015625 
L 19.390625 64.015625 
L 19.390625 0 
L 9.8125 0 
z
" id="DejaVuSans-77"/>
     <path d="M 2.984375 54.6875 
L 12.5 54.6875 
L 29.59375 8.796875 
L 46.6875 54.6875 
L 56.203125 54.6875 
L 35.6875 0 
L 23.484375 0 
z
" id="DejaVuSans-118"/>
     <path d="M 54.890625 33.015625 
L 54.890625 0 
L 45.90625 0 
L 45.90625 32.71875 
Q 45.90625 40.484375 42.875 44.328125 
Q 39.84375 48.1875 33.796875 48.1875 
Q 26.515625 48.1875 22.3125 43.546875 
Q 18.109375 38.921875 18.109375 30.90625 
L 18.109375 0 
L 9.078125 0 
L 9.078125 75.984375 
L 18.109375 75.984375 
L 18.109375 46.1875 
Q 21.34375 51.125 25.703125 53.5625 
Q 30.078125 56 35.796875 56 
Q 45.21875 56 50.046875 50.171875 
Q 54.890625 44.34375 54.890625 33.015625 
z
" id="DejaVuSans-104"/>
    </defs>
    <g transform="translate(36.87646 16.318125)scale(0.12 -0.12)">
     <use xlink:href="#DejaVuSans-77"/>
     <use x="86.279297" xlink:href="#DejaVuSans-111"/>
     <use x="147.460938" xlink:href="#DejaVuSans-100"/>
     <use x="210.9375" xlink:href="#DejaVuSans-101"/>
     <use x="272.460938" xlink:href="#DejaVuSans-108"/>
     <use x="300.244141" xlink:href="#DejaVuSans-45"/>
     <use x="336.328125" xlink:href="#DejaVuSans-97"/>
     <use x="397.607422" xlink:href="#DejaVuSans-118"/>
     <use x="456.787109" xlink:href="#DejaVuSans-101"/>
     <use x="518.310547" xlink:href="#DejaVuSans-114"/>
     <use x="559.423828" xlink:href="#DejaVuSans-97"/>
     <use x="620.703125" xlink:href="#DejaVuSans-103"/>
     <use x="684.179688" xlink:href="#DejaVuSans-101"/>
     <use x="745.703125" xlink:href="#DejaVuSans-100"/>
     <use x="809.179688" xlink:href="#DejaVuSans-32"/>
     <use x="840.966797" xlink:href="#DejaVuSans-52"/>
     <use x="904.589844" xlink:href="#DejaVuSans-45"/>
     <use x="940.673828" xlink:href="#DejaVuSans-119"/>
     <use x="1022.460938" xlink:href="#DejaVuSans-101"/>
     <use x="1083.984375" xlink:href="#DejaVuSans-101"/>
     <use x="1145.507812" xlink:href="#DejaVuSans-107"/>
     <use x="1203.417969" xlink:href="#DejaVuSans-45"/>
     <use x="1239.501953" xlink:href="#DejaVuSans-97"/>
     <use x="1300.78125" xlink:href="#DejaVuSans-104"/>
     <use x="1364.160156" xlink:href="#DejaVuSans-101"/>
     <use x="1425.683594" xlink:href="#DejaVuSans-97"/>
     <use x="1486.962891" xlink:href="#DejaVuSans-100"/>
     <use x="1550.439453" xlink:href="#DejaVuSans-32"/>
     <use x="1582.226562" xlink:href="#DejaVuSans-102"/>
     <use x="1617.431641" xlink:href="#DejaVuSans-111"/>
     <use x="1678.613281" xlink:href="#DejaVuSans-114"/>
     <use x="1717.476562" xlink:href="#DejaVuSans-101"/>
     <use x="1779" xlink:href="#DejaVuSans-99"/>
     <use x="1833.980469" xlink:href="#DejaVuSans-97"/>
     <use x="1895.259766" xlink:href="#DejaVuSans-115"/>
     <use x="1947.359375" xlink:href="#DejaVuSans-116"/>
     <use x="1986.568359" xlink:href="#DejaVuSans-115"/>
    </g>
   </g>
   <g id="legend_1">
    <g id="patch_7">
     <path d="M 55.982813 217.640373 
L 167.139063 217.640373 
Q 169.139063 217.640373 169.139063 215.640373 
L 169.139063 145.927873 
Q 169.139063 143.927873 167.139063 143.927873 
L 55.982813 143.927873 
Q 53.982813 143.927873 53.982813 145.927873 
L 53.982813 215.640373 
Q 53.982813 217.640373 55.982813 217.640373 
z
" style="fill:#ffffff;opacity:0.8;stroke:#cccccc;stroke-linejoin:miter;"/>
    </g>
    <g id="line2d_29">
     <path d="M 57.982813 152.02631 
L 77.982813 152.02631 
" style="fill:none;stroke:#000080;stroke-linecap:square;stroke-width:1.5;"/>
    </g>
    <g id="line2d_30">
     <g>
      <use style="fill:#000080;stroke:#000080;" x="67.982813" xlink:href="#me8ecc55c50" y="152.02631"/>
     </g>
    </g>
    <g id="text_28">
     <!-- compartmental -->
     <defs>
      <path d="M 52 44.1875 
Q 55.375 50.25 60.0625 53.125 
Q 64.75 56 71.09375 56 
Q 79.640625 56 84.28125 50.015625 
Q 88.921875 44.046875 88.921875 33.015625 
L 88.921875 0 
L 79.890625 0 
L 79.890625 32.71875 
Q 79.890625 40.578125 77.09375 44.375 
Q 74.3125 48.1875 68.609375 48.1875 
Q 61.625 48.1875 57.5625 43.546875 
Q 53.515625 38.921875 53.515625 30.90625 
L 53.515625 0 
L 44.484375 0 
L 44.484375 32.71875 
Q 44.484375 40.625 41.703125 44.40625 
Q 38.921875 48.1875 33.109375 48.1875 
Q 26.21875 48.1875 22.15625 43.53125 
Q 18.109375 38.875 18.109375 30.90625 
L 18.109375 0 
L 9.078125 0 
L 9.078125 54.6875 
L 18.109375 54.6875 
L 18.109375 46.1875 
Q 21.1875 51.21875 25.484375 53.609375 
Q 29.78125 56 35.6875 56 
Q 41.65625 56 45.828125 52.96875 
Q 50 49.953125 52 44.1875 
z
" id="DejaVuSans-109"/>
      <path d="M 18.109375 8.203125 
L 18.109375 -20.796875 
L 9.078125 -20.796875 
L 9.078125 54.6875 
L 18.109375 54.6875 
L 18.109375 46.390625 
Q 20.953125 51.265625 25.265625 53.625 
Q 29.59375 56 35.59375 56 
Q 45.5625 56 51.78125 48.09375 
Q 58.015625 40.1875 58.015625 27.296875 
Q 58.015625 14.40625 51.78125 6.484375 
Q 45.5625 -1.421875 35.59375 -1.421875 
Q 29.59375 -1.421875 25.265625 0.953125 
Q 20.953125 3.328125 18.109375 8.203125 
z
M 48.6875 27.296875 
Q 48.6875 37.203125 44.609375 42.84375 
Q 40.53125 48.484375 33.40625 48.484375 
Q 26.265625 48.484375 22.1875 42.84375 
Q 18.109375 37.203125 18.109375 27.296875 
Q 18.109375 17.390625 22.1875 11.75 
Q 26.265625 6.109375 33.40625 6.109375 
Q 40.53125 6.109375 44.609375 11.75 
Q 48.6875 17.390625 48.6875 27.296875 
z
" id="DejaVuSans-112"/>
     </defs>
     <g transform="translate(85.982813 155.52631)scale(0.1 -0.1)">
      <use xlink:href="#DejaVuSans-99"/>
      <use x="54.980469" xlink:href="#DejaVuSans-111"/>
      <use x="116.162109" xlink:href="#DejaVuSans-109"/>
      <use x="213.574219" xlink:href="#DejaVuSans-112"/>
      <use x="277.050781" xlink:href="#DejaVuSans-97"/>
      <use x="338.330078" xlink:href="#DejaVuSans-114"/>
      <use x="379.443359" xlink:href="#DejaVuSans-116"/>
      <use x="418.652344" xlink:href="#DejaVuSans-109"/>
      <use x="516.064453" xlink:href="#DejaVuSans-101"/>
      <use x="577.587891" xlink:href="#DejaVuSans-110"/>
      <use x="640.966797" xlink:href="#DejaVuSans-116"/>
      <use x="680.175781" xlink:href="#DejaVuSans-97"/>
      <use x="741.455078" xlink:href="#DejaVuSans-108"/>
     </g>
    </g>
    <g id="line2d_31">
     <path d="M 57.982813 170.704435 
L 77.982813 170.704435 
" style="fill:none;stroke:#00d4ff;stroke-linecap:square;stroke-width:1.5;"/>
    </g>
    <g id="line2d_32">
     <g>
      <use style="fill:#00d4ff;stroke:#00d4ff;" x="67.982813" xlink:href="#ma8e69da70f" y="170.704435"/>
     </g>
    </g>
    <g id="text_29">
     <!-- metapopulation -->
     <defs>
      <path d="M 8.5 21.578125 
L 8.5 54.6875 
L 17.484375 54.6875 
L 17.484375 21.921875 
Q 17.484375 14.15625 20.5 10.265625 
Q 23.53125 6.390625 29.59375 6.390625 
Q 36.859375 6.390625 41.078125 11.03125 
Q 45.3125 15.671875 45.3125 23.6875 
L 45.3125 54.6875 
L 54.296875 54.6875 
L 54.296875 0 
L 45.3125 0 
L 45.3125 8.40625 
Q 42.046875 3.421875 37.71875 1 
Q 33.40625 -1.421875 27.6875 -1.421875 
Q 18.265625 -1.421875 13.375 4.4375 
Q 8.5 10.296875 8.5 21.578125 
z
M 31.109375 56 
z
" id="DejaVuSans-117"/>
     </defs>
     <g transform="translate(85.982813 174.204435)scale(0.1 -0.1)">
      <use xlink:href="#DejaVuSans-109"/>
      <use x="97.412109" xlink:href="#DejaVuSans-101"/>
      <use x="158.935547" xlink:href="#DejaVuSans-116"/>
      <use x="198.144531" xlink:href="#DejaVuSans-97"/>
      <use x="259.423828" xlink:href="#DejaVuSans-112"/>
      <use x="322.900391" xlink:href="#DejaVuSans-111"/>
      <use x="384.082031" xlink:href="#DejaVuSans-112"/>
      <use x="447.558594" xlink:href="#DejaVuSans-117"/>
      <use x="510.9375" xlink:href="#DejaVuSans-108"/>
      <use x="538.720703" xlink:href="#DejaVuSans-97"/>
      <use x="600" xlink:href="#DejaVuSans-116"/>
      <use x="639.208984" xlink:href="#DejaVuSans-105"/>
      <use x="666.992188" xlink:href="#DejaVuSans-111"/>
      <use x="728.173828" xlink:href="#DejaVuSans-110"/>
     </g>
    </g>
    <g id="line2d_33">
     <path d="M 57.982813 189.38256 
L 77.982813 189.38256 
" style="fill:none;stroke:#ffe600;stroke-linecap:square;stroke-width:1.5;"/>
    </g>
    <g id="line2d_34">
     <g>
      <use style="fill:#ffe600;stroke:#ffe600;" x="67.982813" xlink:href="#meac4b95986" y="189.38256"/>
     </g>
    </g>
    <g id="text_30">
     <!-- stat&amp;prob -->
     <defs>
      <path d="M 24.3125 39.203125 
Q 19.875 35.25 17.796875 31.3125 
Q 15.71875 27.390625 15.71875 23.09375 
Q 15.71875 15.96875 20.890625 11.234375 
Q 26.078125 6.5 33.890625 6.5 
Q 38.53125 6.5 42.578125 8.03125 
Q 46.625 9.578125 50.203125 12.703125 
z
M 31.203125 44.671875 
L 56 19.28125 
Q 58.890625 23.640625 60.5 28.59375 
Q 62.109375 33.546875 62.40625 39.109375 
L 71.484375 39.109375 
Q 70.90625 32.671875 68.359375 26.359375 
Q 65.828125 20.0625 61.28125 13.921875 
L 74.90625 0 
L 62.59375 0 
L 55.609375 7.171875 
Q 50.53125 2.828125 44.96875 0.703125 
Q 39.40625 -1.421875 33.015625 -1.421875 
Q 21.234375 -1.421875 13.765625 5.296875 
Q 6.296875 12.015625 6.296875 22.515625 
Q 6.296875 28.765625 9.5625 34.25 
Q 12.84375 39.75 19.390625 44.578125 
Q 17.046875 47.65625 15.8125 50.703125 
Q 14.59375 53.765625 14.59375 56.6875 
Q 14.59375 64.59375 20.015625 69.40625 
Q 25.4375 74.21875 34.421875 74.21875 
Q 38.484375 74.21875 42.5 73.34375 
Q 46.53125 72.46875 50.6875 70.703125 
L 50.6875 61.8125 
Q 46.4375 64.109375 42.578125 65.296875 
Q 38.71875 66.5 35.40625 66.5 
Q 30.28125 66.5 27.078125 63.78125 
Q 23.875 61.078125 23.875 56.78125 
Q 23.875 54.296875 25.3125 51.78125 
Q 26.765625 49.265625 31.203125 44.671875 
z
" id="DejaVuSans-38"/>
      <path d="M 48.6875 27.296875 
Q 48.6875 37.203125 44.609375 42.84375 
Q 40.53125 48.484375 33.40625 48.484375 
Q 26.265625 48.484375 22.1875 42.84375 
Q 18.109375 37.203125 18.109375 27.296875 
Q 18.109375 17.390625 22.1875 11.75 
Q 26.265625 6.109375 33.40625 6.109375 
Q 40.53125 6.109375 44.609375 11.75 
Q 48.6875 17.390625 48.6875 27.296875 
z
M 18.109375 46.390625 
Q 20.953125 51.265625 25.265625 53.625 
Q 29.59375 56 35.59375 56 
Q 45.5625 56 51.78125 48.09375 
Q 58.015625 40.1875 58.015625 27.296875 
Q 58.015625 14.40625 51.78125 6.484375 
Q 45.5625 -1.421875 35.59375 -1.421875 
Q 29.59375 -1.421875 25.265625 0.953125 
Q 20.953125 3.328125 18.109375 8.203125 
L 18.109375 0 
L 9.078125 0 
L 9.078125 75.984375 
L 18.109375 75.984375 
z
" id="DejaVuSans-98"/>
     </defs>
     <g transform="translate(85.982813 192.88256)scale(0.1 -0.1)">
      <use xlink:href="#DejaVuSans-115"/>
      <use x="52.099609" xlink:href="#DejaVuSans-116"/>
      <use x="91.308594" xlink:href="#DejaVuSans-97"/>
      <use x="152.587891" xlink:href="#DejaVuSans-116"/>
      <use x="191.796875" xlink:href="#DejaVuSans-38"/>
      <use x="269.775391" xlink:href="#DejaVuSans-112"/>
      <use x="333.251953" xlink:href="#DejaVuSans-114"/>
      <use x="372.115234" xlink:href="#DejaVuSans-111"/>
      <use x="433.296875" xlink:href="#DejaVuSans-98"/>
     </g>
    </g>
    <g id="line2d_35">
     <path d="M 57.982813 208.060685 
L 77.982813 208.060685 
" style="fill:none;stroke:#800000;stroke-linecap:square;stroke-width:1.5;"/>
    </g>
    <g id="line2d_36">
     <g>
      <use style="fill:#800000;stroke:#800000;" x="67.982813" xlink:href="#m2cb6d13c08" y="208.060685"/>
     </g>
    </g>
    <g id="text_31">
     <!-- ensemble -->
     <g transform="translate(85.982813 211.560685)scale(0.1 -0.1)">
      <use xlink:href="#DejaVuSans-101"/>
      <use x="61.523438" xlink:href="#DejaVuSans-110"/>
      <use x="124.902344" xlink:href="#DejaVuSans-115"/>
      <use x="177.001953" xlink:href="#DejaVuSans-101"/>
      <use x="238.525391" xlink:href="#DejaVuSans-109"/>
      <use x="335.9375" xlink:href="#DejaVuSans-98"/>
      <use x="399.414062" xlink:href="#DejaVuSans-108"/>
      <use x="427.197266" xlink:href="#DejaVuSans-101"/>
     </g>
    </g>
   </g>
  </g>
 </g>
 <defs>
  <clipPath id="pb4105c7663">
   <rect height="200.322248" width="220.433545" x="48.982813" y="22.318125"/>
  </clipPath>
 </defs>
</svg>
