<?xml version="1.0" encoding="utf-8" standalone="no"?>
<!DOCTYPE svg PUBLIC "-//W3C//DTD SVG 1.1//EN"
  "http://www.w3.org/Graphics/SVG/1.1/DTD/svg11.dtd">
<!-- Created with matplotlib (https://matplotlib.org/) -->
<svg height="286.906876pt" version="1.1" viewBox="0 0 288.72271 286.906876" width="288.72271pt" xmlns="http://www.w3.org/2000/svg" xmlns:xlink="http://www.w3.org/1999/xlink">
 <defs>
  <style type="text/css">
*{stroke-linecap:butt;stroke-linejoin:round;}
  </style>
 </defs>
 <g id="figure_1">
  <g id="patch_1">
   <path d="M 0 286.906876 
L 288.72271 286.906876 
L 288.72271 0 
L 0 0 
z
" style="fill:#ffffff;"/>
  </g>
  <g id="axes_1">
   <g id="patch_2">
    <path d="M 48.982813 222.640373 
L 269.416358 222.640373 
L 269.416358 22.318125 
L 48.982813 22.318125 
z
" style="fill:#ffffff;"/>
   </g>
   <g id="matplotlib.axis_1">
    <g id="xtick_1">
     <g id="line2d_1">
      <defs>
       <path d="M 0 0 
L 0 3.5 
" id="mbb689eb166" style="stroke:#000000;stroke-width:0.8;"/>
      </defs>
      <g>
       <use style="stroke:#000000;stroke-width:0.8;" x="48.982812" xlink:href="#mbb689eb166" y="222.640373"/>
      </g>
     </g>
     <g id="text_1">
      <!-- 2020-04 -->
      <defs>
       <path d="M 19.1875 8.296875 
L 53.609375 8.296875 
L 53.609375 0 
L 7.328125 0 
L 7.328125 8.296875 
Q 12.9375 14.109375 22.625 23.890625 
Q 32.328125 33.6875 34.8125 36.53125 
Q 39.546875 41.84375 41.421875 45.53125 
Q 43.3125 49.21875 43.3125 52.78125 
Q 43.3125 58.59375 39.234375 62.25 
Q 35.15625 65.921875 28.609375 65.921875 
Q 23.96875 65.921875 18.8125 64.3125 
Q 13.671875 62.703125 7.8125 59.421875 
L 7.8125 69.390625 
Q 13.765625 71.78125 18.9375 73 
Q 24.125 74.21875 28.421875 74.21875 
Q 39.75 74.21875 46.484375 68.546875 
Q 53.21875 62.890625 53.21875 53.421875 
Q 53.21875 48.921875 51.53125 44.890625 
Q 49.859375 40.875 45.40625 35.40625 
Q 44.1875 33.984375 37.640625 27.21875 
Q 31.109375 20.453125 19.1875 8.296875 
z
" id="DejaVuSans-50"/>
       <path d="M 31.78125 66.40625 
Q 24.171875 66.40625 20.328125 58.90625 
Q 16.5 51.421875 16.5 36.375 
Q 16.5 21.390625 20.328125 13.890625 
Q 24.171875 6.390625 31.78125 6.390625 
Q 39.453125 6.390625 43.28125 13.890625 
Q 47.125 21.390625 47.125 36.375 
Q 47.125 51.421875 43.28125 58.90625 
Q 39.453125 66.40625 31.78125 66.40625 
z
M 31.78125 74.21875 
Q 44.046875 74.21875 50.515625 64.515625 
Q 56.984375 54.828125 56.984375 36.375 
Q 56.984375 17.96875 50.515625 8.265625 
Q 44.046875 -1.421875 31.78125 -1.421875 
Q 19.53125 -1.421875 13.0625 8.265625 
Q 6.59375 17.96875 6.59375 36.375 
Q 6.59375 54.828125 13.0625 64.515625 
Q 19.53125 74.21875 31.78125 74.21875 
z
" id="DejaVuSans-48"/>
       <path d="M 4.890625 31.390625 
L 31.203125 31.390625 
L 31.203125 23.390625 
L 4.890625 23.390625 
z
" id="DejaVuSans-45"/>
       <path d="M 37.796875 64.3125 
L 12.890625 25.390625 
L 37.796875 25.390625 
z
M 35.203125 72.90625 
L 47.609375 72.90625 
L 47.609375 25.390625 
L 58.015625 25.390625 
L 58.015625 17.1875 
L 47.609375 17.1875 
L 47.609375 0 
L 37.796875 0 
L 37.796875 17.1875 
L 4.890625 17.1875 
L 4.890625 26.703125 
z
" id="DejaVuSans-52"/>
      </defs>
      <g transform="translate(17.967341 264.55819)rotate(-45)scale(0.1 -0.1)">
       <use xlink:href="#DejaVuSans-50"/>
       <use x="63.623047" xlink:href="#DejaVuSans-48"/>
       <use x="127.246094" xlink:href="#DejaVuSans-50"/>
       <use x="190.869141" xlink:href="#DejaVuSans-48"/>
       <use x="254.492188" xlink:href="#DejaVuSans-45"/>
       <use x="290.576172" xlink:href="#DejaVuSans-48"/>
       <use x="354.199219" xlink:href="#DejaVuSans-52"/>
      </g>
     </g>
    </g>
    <g id="xtick_2">
     <g id="line2d_2">
      <g>
       <use style="stroke:#000000;stroke-width:0.8;" x="62.561881" xlink:href="#mbb689eb166" y="222.640373"/>
      </g>
     </g>
     <g id="text_2">
      <!-- 2020-05 -->
      <defs>
       <path d="M 10.796875 72.90625 
L 49.515625 72.90625 
L 49.515625 64.59375 
L 19.828125 64.59375 
L 19.828125 46.734375 
Q 21.96875 47.46875 24.109375 47.828125 
Q 26.265625 48.1875 28.421875 48.1875 
Q 40.625 48.1875 47.75 41.5 
Q 54.890625 34.8125 54.890625 23.390625 
Q 54.890625 11.625 47.5625 5.09375 
Q 40.234375 -1.421875 26.90625 -1.421875 
Q 22.3125 -1.421875 17.546875 -0.640625 
Q 12.796875 0.140625 7.71875 1.703125 
L 7.71875 11.625 
Q 12.109375 9.234375 16.796875 8.0625 
Q 21.484375 6.890625 26.703125 6.890625 
Q 35.15625 6.890625 40.078125 11.328125 
Q 45.015625 15.765625 45.015625 23.390625 
Q 45.015625 31 40.078125 35.4375 
Q 35.15625 39.890625 26.703125 39.890625 
Q 22.75 39.890625 18.8125 39.015625 
Q 14.890625 38.140625 10.796875 36.28125 
z
" id="DejaVuSans-53"/>
      </defs>
      <g transform="translate(31.54641 264.55819)rotate(-45)scale(0.1 -0.1)">
       <use xlink:href="#DejaVuSans-50"/>
       <use x="63.623047" xlink:href="#DejaVuSans-48"/>
       <use x="127.246094" xlink:href="#DejaVuSans-50"/>
       <use x="190.869141" xlink:href="#DejaVuSans-48"/>
       <use x="254.492188" xlink:href="#DejaVuSans-45"/>
       <use x="290.576172" xlink:href="#DejaVuSans-48"/>
       <use x="354.199219" xlink:href="#DejaVuSans-53"/>
      </g>
     </g>
    </g>
    <g id="xtick_3">
     <g id="line2d_3">
      <g>
       <use style="stroke:#000000;stroke-width:0.8;" x="76.593585" xlink:href="#mbb689eb166" y="222.640373"/>
      </g>
     </g>
     <g id="text_3">
      <!-- 2020-06 -->
      <defs>
       <path d="M 33.015625 40.375 
Q 26.375 40.375 22.484375 35.828125 
Q 18.609375 31.296875 18.609375 23.390625 
Q 18.609375 15.53125 22.484375 10.953125 
Q 26.375 6.390625 33.015625 6.390625 
Q 39.65625 6.390625 43.53125 10.953125 
Q 47.40625 15.53125 47.40625 23.390625 
Q 47.40625 31.296875 43.53125 35.828125 
Q 39.65625 40.375 33.015625 40.375 
z
M 52.59375 71.296875 
L 52.59375 62.3125 
Q 48.875 64.0625 45.09375 64.984375 
Q 41.3125 65.921875 37.59375 65.921875 
Q 27.828125 65.921875 22.671875 59.328125 
Q 17.53125 52.734375 16.796875 39.40625 
Q 19.671875 43.65625 24.015625 45.921875 
Q 28.375 48.1875 33.59375 48.1875 
Q 44.578125 48.1875 50.953125 41.515625 
Q 57.328125 34.859375 57.328125 23.390625 
Q 57.328125 12.15625 50.6875 5.359375 
Q 44.046875 -1.421875 33.015625 -1.421875 
Q 20.359375 -1.421875 13.671875 8.265625 
Q 6.984375 17.96875 6.984375 36.375 
Q 6.984375 53.65625 15.1875 63.9375 
Q 23.390625 74.21875 37.203125 74.21875 
Q 40.921875 74.21875 44.703125 73.484375 
Q 48.484375 72.75 52.59375 71.296875 
z
" id="DejaVuSans-54"/>
      </defs>
      <g transform="translate(45.578114 264.55819)rotate(-45)scale(0.1 -0.1)">
       <use xlink:href="#DejaVuSans-50"/>
       <use x="63.623047" xlink:href="#DejaVuSans-48"/>
       <use x="127.246094" xlink:href="#DejaVuSans-50"/>
       <use x="190.869141" xlink:href="#DejaVuSans-48"/>
       <use x="254.492188" xlink:href="#DejaVuSans-45"/>
       <use x="290.576172" xlink:href="#DejaVuSans-48"/>
       <use x="354.199219" xlink:href="#DejaVuSans-54"/>
      </g>
     </g>
    </g>
    <g id="xtick_4">
     <g id="line2d_4">
      <g>
       <use style="stroke:#000000;stroke-width:0.8;" x="90.172654" xlink:href="#mbb689eb166" y="222.640373"/>
      </g>
     </g>
     <g id="text_4">
      <!-- 2020-07 -->
      <defs>
       <path d="M 8.203125 72.90625 
L 55.078125 72.90625 
L 55.078125 68.703125 
L 28.609375 0 
L 18.3125 0 
L 43.21875 64.59375 
L 8.203125 64.59375 
z
" id="DejaVuSans-55"/>
      </defs>
      <g transform="translate(59.157182 264.55819)rotate(-45)scale(0.1 -0.1)">
       <use xlink:href="#DejaVuSans-50"/>
       <use x="63.623047" xlink:href="#DejaVuSans-48"/>
       <use x="127.246094" xlink:href="#DejaVuSans-50"/>
       <use x="190.869141" xlink:href="#DejaVuSans-48"/>
       <use x="254.492188" xlink:href="#DejaVuSans-45"/>
       <use x="290.576172" xlink:href="#DejaVuSans-48"/>
       <use x="354.199219" xlink:href="#DejaVuSans-55"/>
      </g>
     </g>
    </g>
    <g id="xtick_5">
     <g id="line2d_5">
      <g>
       <use style="stroke:#000000;stroke-width:0.8;" x="104.204358" xlink:href="#mbb689eb166" y="222.640373"/>
      </g>
     </g>
     <g id="text_5">
      <!-- 2020-08 -->
      <defs>
       <path d="M 31.78125 34.625 
Q 24.75 34.625 20.71875 30.859375 
Q 16.703125 27.09375 16.703125 20.515625 
Q 16.703125 13.921875 20.71875 10.15625 
Q 24.75 6.390625 31.78125 6.390625 
Q 38.8125 6.390625 42.859375 10.171875 
Q 46.921875 13.96875 46.921875 20.515625 
Q 46.921875 27.09375 42.890625 30.859375 
Q 38.875 34.625 31.78125 34.625 
z
M 21.921875 38.8125 
Q 15.578125 40.375 12.03125 44.71875 
Q 8.5 49.078125 8.5 55.328125 
Q 8.5 64.0625 14.71875 69.140625 
Q 20.953125 74.21875 31.78125 74.21875 
Q 42.671875 74.21875 48.875 69.140625 
Q 55.078125 64.0625 55.078125 55.328125 
Q 55.078125 49.078125 51.53125 44.71875 
Q 48 40.375 41.703125 38.8125 
Q 48.828125 37.15625 52.796875 32.3125 
Q 56.78125 27.484375 56.78125 20.515625 
Q 56.78125 9.90625 50.3125 4.234375 
Q 43.84375 -1.421875 31.78125 -1.421875 
Q 19.734375 -1.421875 13.25 4.234375 
Q 6.78125 9.90625 6.78125 20.515625 
Q 6.78125 27.484375 10.78125 32.3125 
Q 14.796875 37.15625 21.921875 38.8125 
z
M 18.3125 54.390625 
Q 18.3125 48.734375 21.84375 45.5625 
Q 25.390625 42.390625 31.78125 42.390625 
Q 38.140625 42.390625 41.71875 45.5625 
Q 45.3125 48.734375 45.3125 54.390625 
Q 45.3125 60.0625 41.71875 63.234375 
Q 38.140625 66.40625 31.78125 66.40625 
Q 25.390625 66.40625 21.84375 63.234375 
Q 18.3125 60.0625 18.3125 54.390625 
z
" id="DejaVuSans-56"/>
      </defs>
      <g transform="translate(73.188887 264.55819)rotate(-45)scale(0.1 -0.1)">
       <use xlink:href="#DejaVuSans-50"/>
       <use x="63.623047" xlink:href="#DejaVuSans-48"/>
       <use x="127.246094" xlink:href="#DejaVuSans-50"/>
       <use x="190.869141" xlink:href="#DejaVuSans-48"/>
       <use x="254.492188" xlink:href="#DejaVuSans-45"/>
       <use x="290.576172" xlink:href="#DejaVuSans-48"/>
       <use x="354.199219" xlink:href="#DejaVuSans-56"/>
      </g>
     </g>
    </g>
    <g id="xtick_6">
     <g id="line2d_6">
      <g>
       <use style="stroke:#000000;stroke-width:0.8;" x="118.236062" xlink:href="#mbb689eb166" y="222.640373"/>
      </g>
     </g>
     <g id="text_6">
      <!-- 2020-09 -->
      <defs>
       <path d="M 10.984375 1.515625 
L 10.984375 10.5 
Q 14.703125 8.734375 18.5 7.8125 
Q 22.3125 6.890625 25.984375 6.890625 
Q 35.75 6.890625 40.890625 13.453125 
Q 46.046875 20.015625 46.78125 33.40625 
Q 43.953125 29.203125 39.59375 26.953125 
Q 35.25 24.703125 29.984375 24.703125 
Q 19.046875 24.703125 12.671875 31.3125 
Q 6.296875 37.9375 6.296875 49.421875 
Q 6.296875 60.640625 12.9375 67.421875 
Q 19.578125 74.21875 30.609375 74.21875 
Q 43.265625 74.21875 49.921875 64.515625 
Q 56.59375 54.828125 56.59375 36.375 
Q 56.59375 19.140625 48.40625 8.859375 
Q 40.234375 -1.421875 26.421875 -1.421875 
Q 22.703125 -1.421875 18.890625 -0.6875 
Q 15.09375 0.046875 10.984375 1.515625 
z
M 30.609375 32.421875 
Q 37.25 32.421875 41.125 36.953125 
Q 45.015625 41.5 45.015625 49.421875 
Q 45.015625 57.28125 41.125 61.84375 
Q 37.25 66.40625 30.609375 66.40625 
Q 23.96875 66.40625 20.09375 61.84375 
Q 16.21875 57.28125 16.21875 49.421875 
Q 16.21875 41.5 20.09375 36.953125 
Q 23.96875 32.421875 30.609375 32.421875 
z
" id="DejaVuSans-57"/>
      </defs>
      <g transform="translate(87.220591 264.55819)rotate(-45)scale(0.1 -0.1)">
       <use xlink:href="#DejaVuSans-50"/>
       <use x="63.623047" xlink:href="#DejaVuSans-48"/>
       <use x="127.246094" xlink:href="#DejaVuSans-50"/>
       <use x="190.869141" xlink:href="#DejaVuSans-48"/>
       <use x="254.492188" xlink:href="#DejaVuSans-45"/>
       <use x="290.576172" xlink:href="#DejaVuSans-48"/>
       <use x="354.199219" xlink:href="#DejaVuSans-57"/>
      </g>
     </g>
    </g>
    <g id="xtick_7">
     <g id="line2d_7">
      <g>
       <use style="stroke:#000000;stroke-width:0.8;" x="131.81513" xlink:href="#mbb689eb166" y="222.640373"/>
      </g>
     </g>
     <g id="text_7">
      <!-- 2020-10 -->
      <defs>
       <path d="M 12.40625 8.296875 
L 28.515625 8.296875 
L 28.515625 63.921875 
L 10.984375 60.40625 
L 10.984375 69.390625 
L 28.421875 72.90625 
L 38.28125 72.90625 
L 38.28125 8.296875 
L 54.390625 8.296875 
L 54.390625 0 
L 12.40625 0 
z
" id="DejaVuSans-49"/>
      </defs>
      <g transform="translate(100.799659 264.55819)rotate(-45)scale(0.1 -0.1)">
       <use xlink:href="#DejaVuSans-50"/>
       <use x="63.623047" xlink:href="#DejaVuSans-48"/>
       <use x="127.246094" xlink:href="#DejaVuSans-50"/>
       <use x="190.869141" xlink:href="#DejaVuSans-48"/>
       <use x="254.492188" xlink:href="#DejaVuSans-45"/>
       <use x="290.576172" xlink:href="#DejaVuSans-49"/>
       <use x="354.199219" xlink:href="#DejaVuSans-48"/>
      </g>
     </g>
    </g>
    <g id="xtick_8">
     <g id="line2d_8">
      <g>
       <use style="stroke:#000000;stroke-width:0.8;" x="145.846834" xlink:href="#mbb689eb166" y="222.640373"/>
      </g>
     </g>
     <g id="text_8">
      <!-- 2020-11 -->
      <g transform="translate(114.831363 264.55819)rotate(-45)scale(0.1 -0.1)">
       <use xlink:href="#DejaVuSans-50"/>
       <use x="63.623047" xlink:href="#DejaVuSans-48"/>
       <use x="127.246094" xlink:href="#DejaVuSans-50"/>
       <use x="190.869141" xlink:href="#DejaVuSans-48"/>
       <use x="254.492188" xlink:href="#DejaVuSans-45"/>
       <use x="290.576172" xlink:href="#DejaVuSans-49"/>
       <use x="354.199219" xlink:href="#DejaVuSans-49"/>
      </g>
     </g>
    </g>
    <g id="xtick_9">
     <g id="line2d_9">
      <g>
       <use style="stroke:#000000;stroke-width:0.8;" x="159.425903" xlink:href="#mbb689eb166" y="222.640373"/>
      </g>
     </g>
     <g id="text_9">
      <!-- 2020-12 -->
      <g transform="translate(128.410432 264.55819)rotate(-45)scale(0.1 -0.1)">
       <use xlink:href="#DejaVuSans-50"/>
       <use x="63.623047" xlink:href="#DejaVuSans-48"/>
       <use x="127.246094" xlink:href="#DejaVuSans-50"/>
       <use x="190.869141" xlink:href="#DejaVuSans-48"/>
       <use x="254.492188" xlink:href="#DejaVuSans-45"/>
       <use x="290.576172" xlink:href="#DejaVuSans-49"/>
       <use x="354.199219" xlink:href="#DejaVuSans-50"/>
      </g>
     </g>
    </g>
    <g id="xtick_10">
     <g id="line2d_10">
      <g>
       <use style="stroke:#000000;stroke-width:0.8;" x="173.457607" xlink:href="#mbb689eb166" y="222.640373"/>
      </g>
     </g>
     <g id="text_10">
      <!-- 2021-01 -->
      <g transform="translate(142.442136 264.55819)rotate(-45)scale(0.1 -0.1)">
       <use xlink:href="#DejaVuSans-50"/>
       <use x="63.623047" xlink:href="#DejaVuSans-48"/>
       <use x="127.246094" xlink:href="#DejaVuSans-50"/>
       <use x="190.869141" xlink:href="#DejaVuSans-49"/>
       <use x="254.492188" xlink:href="#DejaVuSans-45"/>
       <use x="290.576172" xlink:href="#DejaVuSans-48"/>
       <use x="354.199219" xlink:href="#DejaVuSans-49"/>
      </g>
     </g>
    </g>
    <g id="xtick_11">
     <g id="line2d_11">
      <g>
       <use style="stroke:#000000;stroke-width:0.8;" x="187.489311" xlink:href="#mbb689eb166" y="222.640373"/>
      </g>
     </g>
     <g id="text_11">
      <!-- 2021-02 -->
      <g transform="translate(156.47384 264.55819)rotate(-45)scale(0.1 -0.1)">
       <use xlink:href="#DejaVuSans-50"/>
       <use x="63.623047" xlink:href="#DejaVuSans-48"/>
       <use x="127.246094" xlink:href="#DejaVuSans-50"/>
       <use x="190.869141" xlink:href="#DejaVuSans-49"/>
       <use x="254.492188" xlink:href="#DejaVuSans-45"/>
       <use x="290.576172" xlink:href="#DejaVuSans-48"/>
       <use x="354.199219" xlink:href="#DejaVuSans-50"/>
      </g>
     </g>
    </g>
    <g id="xtick_12">
     <g id="line2d_12">
      <g>
       <use style="stroke:#000000;stroke-width:0.8;" x="200.163108" xlink:href="#mbb689eb166" y="222.640373"/>
      </g>
     </g>
     <g id="text_12">
      <!-- 2021-03 -->
      <defs>
       <path d="M 40.578125 39.3125 
Q 47.65625 37.796875 51.625 33 
Q 55.609375 28.21875 55.609375 21.1875 
Q 55.609375 10.40625 48.1875 4.484375 
Q 40.765625 -1.421875 27.09375 -1.421875 
Q 22.515625 -1.421875 17.65625 -0.515625 
Q 12.796875 0.390625 7.625 2.203125 
L 7.625 11.71875 
Q 11.71875 9.328125 16.59375 8.109375 
Q 21.484375 6.890625 26.8125 6.890625 
Q 36.078125 6.890625 40.9375 10.546875 
Q 45.796875 14.203125 45.796875 21.1875 
Q 45.796875 27.640625 41.28125 31.265625 
Q 36.765625 34.90625 28.71875 34.90625 
L 20.21875 34.90625 
L 20.21875 43.015625 
L 29.109375 43.015625 
Q 36.375 43.015625 40.234375 45.921875 
Q 44.09375 48.828125 44.09375 54.296875 
Q 44.09375 59.90625 40.109375 62.90625 
Q 36.140625 65.921875 28.71875 65.921875 
Q 24.65625 65.921875 20.015625 65.03125 
Q 15.375 64.15625 9.8125 62.3125 
L 9.8125 71.09375 
Q 15.4375 72.65625 20.34375 73.4375 
Q 25.25 74.21875 29.59375 74.21875 
Q 40.828125 74.21875 47.359375 69.109375 
Q 53.90625 64.015625 53.90625 55.328125 
Q 53.90625 49.265625 50.4375 45.09375 
Q 46.96875 40.921875 40.578125 39.3125 
z
" id="DejaVuSans-51"/>
      </defs>
      <g transform="translate(169.147637 264.55819)rotate(-45)scale(0.1 -0.1)">
       <use xlink:href="#DejaVuSans-50"/>
       <use x="63.623047" xlink:href="#DejaVuSans-48"/>
       <use x="127.246094" xlink:href="#DejaVuSans-50"/>
       <use x="190.869141" xlink:href="#DejaVuSans-49"/>
       <use x="254.492188" xlink:href="#DejaVuSans-45"/>
       <use x="290.576172" xlink:href="#DejaVuSans-48"/>
       <use x="354.199219" xlink:href="#DejaVuSans-51"/>
      </g>
     </g>
    </g>
    <g id="xtick_13">
     <g id="line2d_13">
      <g>
       <use style="stroke:#000000;stroke-width:0.8;" x="214.194813" xlink:href="#mbb689eb166" y="222.640373"/>
      </g>
     </g>
     <g id="text_13">
      <!-- 2021-04 -->
      <g transform="translate(183.179341 264.55819)rotate(-45)scale(0.1 -0.1)">
       <use xlink:href="#DejaVuSans-50"/>
       <use x="63.623047" xlink:href="#DejaVuSans-48"/>
       <use x="127.246094" xlink:href="#DejaVuSans-50"/>
       <use x="190.869141" xlink:href="#DejaVuSans-49"/>
       <use x="254.492188" xlink:href="#DejaVuSans-45"/>
       <use x="290.576172" xlink:href="#DejaVuSans-48"/>
       <use x="354.199219" xlink:href="#DejaVuSans-52"/>
      </g>
     </g>
    </g>
    <g id="xtick_14">
     <g id="line2d_14">
      <g>
       <use style="stroke:#000000;stroke-width:0.8;" x="227.773881" xlink:href="#mbb689eb166" y="222.640373"/>
      </g>
     </g>
     <g id="text_14">
      <!-- 2021-05 -->
      <g transform="translate(196.75841 264.55819)rotate(-45)scale(0.1 -0.1)">
       <use xlink:href="#DejaVuSans-50"/>
       <use x="63.623047" xlink:href="#DejaVuSans-48"/>
       <use x="127.246094" xlink:href="#DejaVuSans-50"/>
       <use x="190.869141" xlink:href="#DejaVuSans-49"/>
       <use x="254.492188" xlink:href="#DejaVuSans-45"/>
       <use x="290.576172" xlink:href="#DejaVuSans-48"/>
       <use x="354.199219" xlink:href="#DejaVuSans-53"/>
      </g>
     </g>
    </g>
    <g id="xtick_15">
     <g id="line2d_15">
      <g>
       <use style="stroke:#000000;stroke-width:0.8;" x="241.805585" xlink:href="#mbb689eb166" y="222.640373"/>
      </g>
     </g>
     <g id="text_15">
      <!-- 2021-06 -->
      <g transform="translate(210.790114 264.55819)rotate(-45)scale(0.1 -0.1)">
       <use xlink:href="#DejaVuSans-50"/>
       <use x="63.623047" xlink:href="#DejaVuSans-48"/>
       <use x="127.246094" xlink:href="#DejaVuSans-50"/>
       <use x="190.869141" xlink:href="#DejaVuSans-49"/>
       <use x="254.492188" xlink:href="#DejaVuSans-45"/>
       <use x="290.576172" xlink:href="#DejaVuSans-48"/>
       <use x="354.199219" xlink:href="#DejaVuSans-54"/>
      </g>
     </g>
    </g>
    <g id="xtick_16">
     <g id="line2d_16">
      <g>
       <use style="stroke:#000000;stroke-width:0.8;" x="255.384654" xlink:href="#mbb689eb166" y="222.640373"/>
      </g>
     </g>
     <g id="text_16">
      <!-- 2021-07 -->
      <g transform="translate(224.369182 264.55819)rotate(-45)scale(0.1 -0.1)">
       <use xlink:href="#DejaVuSans-50"/>
       <use x="63.623047" xlink:href="#DejaVuSans-48"/>
       <use x="127.246094" xlink:href="#DejaVuSans-50"/>
       <use x="190.869141" xlink:href="#DejaVuSans-49"/>
       <use x="254.492188" xlink:href="#DejaVuSans-45"/>
       <use x="290.576172" xlink:href="#DejaVuSans-48"/>
       <use x="354.199219" xlink:href="#DejaVuSans-55"/>
      </g>
     </g>
    </g>
    <g id="xtick_17">
     <g id="line2d_17">
      <g>
       <use style="stroke:#000000;stroke-width:0.8;" x="269.416358" xlink:href="#mbb689eb166" y="222.640373"/>
      </g>
     </g>
     <g id="text_17">
      <!-- 2021-08 -->
      <g transform="translate(238.400887 264.55819)rotate(-45)scale(0.1 -0.1)">
       <use xlink:href="#DejaVuSans-50"/>
       <use x="63.623047" xlink:href="#DejaVuSans-48"/>
       <use x="127.246094" xlink:href="#DejaVuSans-50"/>
       <use x="190.869141" xlink:href="#DejaVuSans-49"/>
       <use x="254.492188" xlink:href="#DejaVuSans-45"/>
       <use x="290.576172" xlink:href="#DejaVuSans-48"/>
       <use x="354.199219" xlink:href="#DejaVuSans-56"/>
      </g>
     </g>
    </g>
    <g id="text_18">
     <!-- Target End Date -->
     <defs>
      <path d="M -0.296875 72.90625 
L 61.375 72.90625 
L 61.375 64.59375 
L 35.5 64.59375 
L 35.5 0 
L 25.59375 0 
L 25.59375 64.59375 
L -0.296875 64.59375 
z
" id="DejaVuSans-84"/>
      <path d="M 34.28125 27.484375 
Q 23.390625 27.484375 19.1875 25 
Q 14.984375 22.515625 14.984375 16.5 
Q 14.984375 11.71875 18.140625 8.90625 
Q 21.296875 6.109375 26.703125 6.109375 
Q 34.1875 6.109375 38.703125 11.40625 
Q 43.21875 16.703125 43.21875 25.484375 
L 43.21875 27.484375 
z
M 52.203125 31.203125 
L 52.203125 0 
L 43.21875 0 
L 43.21875 8.296875 
Q 40.140625 3.328125 35.546875 0.953125 
Q 30.953125 -1.421875 24.3125 -1.421875 
Q 15.921875 -1.421875 10.953125 3.296875 
Q 6 8.015625 6 15.921875 
Q 6 25.140625 12.171875 29.828125 
Q 18.359375 34.515625 30.609375 34.515625 
L 43.21875 34.515625 
L 43.21875 35.40625 
Q 43.21875 41.609375 39.140625 45 
Q 35.0625 48.390625 27.6875 48.390625 
Q 23 48.390625 18.546875 47.265625 
Q 14.109375 46.140625 10.015625 43.890625 
L 10.015625 52.203125 
Q 14.9375 54.109375 19.578125 55.046875 
Q 24.21875 56 28.609375 56 
Q 40.484375 56 46.34375 49.84375 
Q 52.203125 43.703125 52.203125 31.203125 
z
" id="DejaVuSans-97"/>
      <path d="M 41.109375 46.296875 
Q 39.59375 47.171875 37.8125 47.578125 
Q 36.03125 48 33.890625 48 
Q 26.265625 48 22.1875 43.046875 
Q 18.109375 38.09375 18.109375 28.8125 
L 18.109375 0 
L 9.078125 0 
L 9.078125 54.6875 
L 18.109375 54.6875 
L 18.109375 46.1875 
Q 20.953125 51.171875 25.484375 53.578125 
Q 30.03125 56 36.53125 56 
Q 37.453125 56 38.578125 55.875 
Q 39.703125 55.765625 41.0625 55.515625 
z
" id="DejaVuSans-114"/>
      <path d="M 45.40625 27.984375 
Q 45.40625 37.75 41.375 43.109375 
Q 37.359375 48.484375 30.078125 48.484375 
Q 22.859375 48.484375 18.828125 43.109375 
Q 14.796875 37.75 14.796875 27.984375 
Q 14.796875 18.265625 18.828125 12.890625 
Q 22.859375 7.515625 30.078125 7.515625 
Q 37.359375 7.515625 41.375 12.890625 
Q 45.40625 18.265625 45.40625 27.984375 
z
M 54.390625 6.78125 
Q 54.390625 -7.171875 48.1875 -13.984375 
Q 42 -20.796875 29.203125 -20.796875 
Q 24.46875 -20.796875 20.265625 -20.09375 
Q 16.0625 -19.390625 12.109375 -17.921875 
L 12.109375 -9.1875 
Q 16.0625 -11.328125 19.921875 -12.34375 
Q 23.78125 -13.375 27.78125 -13.375 
Q 36.625 -13.375 41.015625 -8.765625 
Q 45.40625 -4.15625 45.40625 5.171875 
L 45.40625 9.625 
Q 42.625 4.78125 38.28125 2.390625 
Q 33.9375 0 27.875 0 
Q 17.828125 0 11.671875 7.65625 
Q 5.515625 15.328125 5.515625 27.984375 
Q 5.515625 40.671875 11.671875 48.328125 
Q 17.828125 56 27.875 56 
Q 33.9375 56 38.28125 53.609375 
Q 42.625 51.21875 45.40625 46.390625 
L 45.40625 54.6875 
L 54.390625 54.6875 
z
" id="DejaVuSans-103"/>
      <path d="M 56.203125 29.59375 
L 56.203125 25.203125 
L 14.890625 25.203125 
Q 15.484375 15.921875 20.484375 11.0625 
Q 25.484375 6.203125 34.421875 6.203125 
Q 39.59375 6.203125 44.453125 7.46875 
Q 49.3125 8.734375 54.109375 11.28125 
L 54.109375 2.78125 
Q 49.265625 0.734375 44.1875 -0.34375 
Q 39.109375 -1.421875 33.890625 -1.421875 
Q 20.796875 -1.421875 13.15625 6.1875 
Q 5.515625 13.8125 5.515625 26.8125 
Q 5.515625 40.234375 12.765625 48.109375 
Q 20.015625 56 32.328125 56 
Q 43.359375 56 49.78125 48.890625 
Q 56.203125 41.796875 56.203125 29.59375 
z
M 47.21875 32.234375 
Q 47.125 39.59375 43.09375 43.984375 
Q 39.0625 48.390625 32.421875 48.390625 
Q 24.90625 48.390625 20.390625 44.140625 
Q 15.875 39.890625 15.1875 32.171875 
z
" id="DejaVuSans-101"/>
      <path d="M 18.3125 70.21875 
L 18.3125 54.6875 
L 36.8125 54.6875 
L 36.8125 47.703125 
L 18.3125 47.703125 
L 18.3125 18.015625 
Q 18.3125 11.328125 20.140625 9.421875 
Q 21.96875 7.515625 27.59375 7.515625 
L 36.8125 7.515625 
L 36.8125 0 
L 27.59375 0 
Q 17.1875 0 13.234375 3.875 
Q 9.28125 7.765625 9.28125 18.015625 
L 9.28125 47.703125 
L 2.6875 47.703125 
L 2.6875 54.6875 
L 9.28125 54.6875 
L 9.28125 70.21875 
z
" id="DejaVuSans-116"/>
      <path id="DejaVuSans-32"/>
      <path d="M 9.8125 72.90625 
L 55.90625 72.90625 
L 55.90625 64.59375 
L 19.671875 64.59375 
L 19.671875 43.015625 
L 54.390625 43.015625 
L 54.390625 34.71875 
L 19.671875 34.71875 
L 19.671875 8.296875 
L 56.78125 8.296875 
L 56.78125 0 
L 9.8125 0 
z
" id="DejaVuSans-69"/>
      <path d="M 54.890625 33.015625 
L 54.890625 0 
L 45.90625 0 
L 45.90625 32.71875 
Q 45.90625 40.484375 42.875 44.328125 
Q 39.84375 48.1875 33.796875 48.1875 
Q 26.515625 48.1875 22.3125 43.546875 
Q 18.109375 38.921875 18.109375 30.90625 
L 18.109375 0 
L 9.078125 0 
L 9.078125 54.6875 
L 18.109375 54.6875 
L 18.109375 46.1875 
Q 21.34375 51.125 25.703125 53.5625 
Q 30.078125 56 35.796875 56 
Q 45.21875 56 50.046875 50.171875 
Q 54.890625 44.34375 54.890625 33.015625 
z
" id="DejaVuSans-110"/>
      <path d="M 45.40625 46.390625 
L 45.40625 75.984375 
L 54.390625 75.984375 
L 54.390625 0 
L 45.40625 0 
L 45.40625 8.203125 
Q 42.578125 3.328125 38.25 0.953125 
Q 33.9375 -1.421875 27.875 -1.421875 
Q 17.96875 -1.421875 11.734375 6.484375 
Q 5.515625 14.40625 5.515625 27.296875 
Q 5.515625 40.1875 11.734375 48.09375 
Q 17.96875 56 27.875 56 
Q 33.9375 56 38.25 53.625 
Q 42.578125 51.265625 45.40625 46.390625 
z
M 14.796875 27.296875 
Q 14.796875 17.390625 18.875 11.75 
Q 22.953125 6.109375 30.078125 6.109375 
Q 37.203125 6.109375 41.296875 11.75 
Q 45.40625 17.390625 45.40625 27.296875 
Q 45.40625 37.203125 41.296875 42.84375 
Q 37.203125 48.484375 30.078125 48.484375 
Q 22.953125 48.484375 18.875 42.84375 
Q 14.796875 37.203125 14.796875 27.296875 
z
" id="DejaVuSans-100"/>
      <path d="M 19.671875 64.796875 
L 19.671875 8.109375 
L 31.59375 8.109375 
Q 46.6875 8.109375 53.6875 14.9375 
Q 60.6875 21.78125 60.6875 36.53125 
Q 60.6875 51.171875 53.6875 57.984375 
Q 46.6875 64.796875 31.59375 64.796875 
z
M 9.8125 72.90625 
L 30.078125 72.90625 
Q 51.265625 72.90625 61.171875 64.09375 
Q 71.09375 55.28125 71.09375 36.53125 
Q 71.09375 17.671875 61.125 8.828125 
Q 51.171875 0 30.078125 0 
L 9.8125 0 
z
" id="DejaVuSans-68"/>
     </defs>
     <g transform="translate(119.09646 277.627188)scale(0.1 -0.1)">
      <use xlink:href="#DejaVuSans-84"/>
      <use x="44.583984" xlink:href="#DejaVuSans-97"/>
      <use x="105.863281" xlink:href="#DejaVuSans-114"/>
      <use x="145.226562" xlink:href="#DejaVuSans-103"/>
      <use x="208.703125" xlink:href="#DejaVuSans-101"/>
      <use x="270.226562" xlink:href="#DejaVuSans-116"/>
      <use x="309.435547" xlink:href="#DejaVuSans-32"/>
      <use x="341.222656" xlink:href="#DejaVuSans-69"/>
      <use x="404.40625" xlink:href="#DejaVuSans-110"/>
      <use x="467.785156" xlink:href="#DejaVuSans-100"/>
      <use x="531.261719" xlink:href="#DejaVuSans-32"/>
      <use x="563.048828" xlink:href="#DejaVuSans-68"/>
      <use x="640.050781" xlink:href="#DejaVuSans-97"/>
      <use x="701.330078" xlink:href="#DejaVuSans-116"/>
      <use x="740.539062" xlink:href="#DejaVuSans-101"/>
     </g>
    </g>
   </g>
   <g id="matplotlib.axis_2">
    <g id="ytick_1">
     <g id="line2d_18">
      <defs>
       <path d="M 0 0 
L -3.5 0 
" id="m6eb865b51c" style="stroke:#000000;stroke-width:0.8;"/>
      </defs>
      <g>
       <use style="stroke:#000000;stroke-width:0.8;" x="48.982813" xlink:href="#m6eb865b51c" y="208.587635"/>
      </g>
     </g>
     <g id="text_19">
      <!-- −16 -->
      <defs>
       <path d="M 10.59375 35.5 
L 73.1875 35.5 
L 73.1875 27.203125 
L 10.59375 27.203125 
z
" id="DejaVuSans-8722"/>
      </defs>
      <g transform="translate(20.878125 212.386854)scale(0.1 -0.1)">
       <use xlink:href="#DejaVuSans-8722"/>
       <use x="83.789062" xlink:href="#DejaVuSans-49"/>
       <use x="147.412109" xlink:href="#DejaVuSans-54"/>
      </g>
     </g>
    </g>
    <g id="ytick_2">
     <g id="line2d_19">
      <g>
       <use style="stroke:#000000;stroke-width:0.8;" x="48.982813" xlink:href="#m6eb865b51c" y="168.983755"/>
      </g>
     </g>
     <g id="text_20">
      <!-- −14 -->
      <g transform="translate(20.878125 172.782974)scale(0.1 -0.1)">
       <use xlink:href="#DejaVuSans-8722"/>
       <use x="83.789062" xlink:href="#DejaVuSans-49"/>
       <use x="147.412109" xlink:href="#DejaVuSans-52"/>
      </g>
     </g>
    </g>
    <g id="ytick_3">
     <g id="line2d_20">
      <g>
       <use style="stroke:#000000;stroke-width:0.8;" x="48.982813" xlink:href="#m6eb865b51c" y="129.379874"/>
      </g>
     </g>
     <g id="text_21">
      <!-- −12 -->
      <g transform="translate(20.878125 133.179093)scale(0.1 -0.1)">
       <use xlink:href="#DejaVuSans-8722"/>
       <use x="83.789062" xlink:href="#DejaVuSans-49"/>
       <use x="147.412109" xlink:href="#DejaVuSans-50"/>
      </g>
     </g>
    </g>
    <g id="ytick_4">
     <g id="line2d_21">
      <g>
       <use style="stroke:#000000;stroke-width:0.8;" x="48.982813" xlink:href="#m6eb865b51c" y="89.775994"/>
      </g>
     </g>
     <g id="text_22">
      <!-- −10 -->
      <g transform="translate(20.878125 93.575213)scale(0.1 -0.1)">
       <use xlink:href="#DejaVuSans-8722"/>
       <use x="83.789062" xlink:href="#DejaVuSans-49"/>
       <use x="147.412109" xlink:href="#DejaVuSans-48"/>
      </g>
     </g>
    </g>
    <g id="ytick_5">
     <g id="line2d_22">
      <g>
       <use style="stroke:#000000;stroke-width:0.8;" x="48.982813" xlink:href="#m6eb865b51c" y="50.172114"/>
      </g>
     </g>
     <g id="text_23">
      <!-- −8 -->
      <g transform="translate(27.240625 53.971332)scale(0.1 -0.1)">
       <use xlink:href="#DejaVuSans-8722"/>
       <use x="83.789062" xlink:href="#DejaVuSans-56"/>
      </g>
     </g>
    </g>
    <g id="text_24">
     <!-- Score for weekly incidental cases -->
     <defs>
      <path d="M 53.515625 70.515625 
L 53.515625 60.890625 
Q 47.90625 63.578125 42.921875 64.890625 
Q 37.9375 66.21875 33.296875 66.21875 
Q 25.25 66.21875 20.875 63.09375 
Q 16.5 59.96875 16.5 54.203125 
Q 16.5 49.359375 19.40625 46.890625 
Q 22.3125 44.4375 30.421875 42.921875 
L 36.375 41.703125 
Q 47.40625 39.59375 52.65625 34.296875 
Q 57.90625 29 57.90625 20.125 
Q 57.90625 9.515625 50.796875 4.046875 
Q 43.703125 -1.421875 29.984375 -1.421875 
Q 24.8125 -1.421875 18.96875 -0.25 
Q 13.140625 0.921875 6.890625 3.21875 
L 6.890625 13.375 
Q 12.890625 10.015625 18.65625 8.296875 
Q 24.421875 6.59375 29.984375 6.59375 
Q 38.421875 6.59375 43.015625 9.90625 
Q 47.609375 13.234375 47.609375 19.390625 
Q 47.609375 24.75 44.3125 27.78125 
Q 41.015625 30.8125 33.5 32.328125 
L 27.484375 33.5 
Q 16.453125 35.6875 11.515625 40.375 
Q 6.59375 45.0625 6.59375 53.421875 
Q 6.59375 63.09375 13.40625 68.65625 
Q 20.21875 74.21875 32.171875 74.21875 
Q 37.3125 74.21875 42.625 73.28125 
Q 47.953125 72.359375 53.515625 70.515625 
z
" id="DejaVuSans-83"/>
      <path d="M 48.78125 52.59375 
L 48.78125 44.1875 
Q 44.96875 46.296875 41.140625 47.34375 
Q 37.3125 48.390625 33.40625 48.390625 
Q 24.65625 48.390625 19.8125 42.84375 
Q 14.984375 37.3125 14.984375 27.296875 
Q 14.984375 17.28125 19.8125 11.734375 
Q 24.65625 6.203125 33.40625 6.203125 
Q 37.3125 6.203125 41.140625 7.25 
Q 44.96875 8.296875 48.78125 10.40625 
L 48.78125 2.09375 
Q 45.015625 0.34375 40.984375 -0.53125 
Q 36.96875 -1.421875 32.421875 -1.421875 
Q 20.0625 -1.421875 12.78125 6.34375 
Q 5.515625 14.109375 5.515625 27.296875 
Q 5.515625 40.671875 12.859375 48.328125 
Q 20.21875 56 33.015625 56 
Q 37.15625 56 41.109375 55.140625 
Q 45.0625 54.296875 48.78125 52.59375 
z
" id="DejaVuSans-99"/>
      <path d="M 30.609375 48.390625 
Q 23.390625 48.390625 19.1875 42.75 
Q 14.984375 37.109375 14.984375 27.296875 
Q 14.984375 17.484375 19.15625 11.84375 
Q 23.34375 6.203125 30.609375 6.203125 
Q 37.796875 6.203125 41.984375 11.859375 
Q 46.1875 17.53125 46.1875 27.296875 
Q 46.1875 37.015625 41.984375 42.703125 
Q 37.796875 48.390625 30.609375 48.390625 
z
M 30.609375 56 
Q 42.328125 56 49.015625 48.375 
Q 55.71875 40.765625 55.71875 27.296875 
Q 55.71875 13.875 49.015625 6.21875 
Q 42.328125 -1.421875 30.609375 -1.421875 
Q 18.84375 -1.421875 12.171875 6.21875 
Q 5.515625 13.875 5.515625 27.296875 
Q 5.515625 40.765625 12.171875 48.375 
Q 18.84375 56 30.609375 56 
z
" id="DejaVuSans-111"/>
      <path d="M 37.109375 75.984375 
L 37.109375 68.5 
L 28.515625 68.5 
Q 23.6875 68.5 21.796875 66.546875 
Q 19.921875 64.59375 19.921875 59.515625 
L 19.921875 54.6875 
L 34.71875 54.6875 
L 34.71875 47.703125 
L 19.921875 47.703125 
L 19.921875 0 
L 10.890625 0 
L 10.890625 47.703125 
L 2.296875 47.703125 
L 2.296875 54.6875 
L 10.890625 54.6875 
L 10.890625 58.5 
Q 10.890625 67.625 15.140625 71.796875 
Q 19.390625 75.984375 28.609375 75.984375 
z
" id="DejaVuSans-102"/>
      <path d="M 4.203125 54.6875 
L 13.1875 54.6875 
L 24.421875 12.015625 
L 35.59375 54.6875 
L 46.1875 54.6875 
L 57.421875 12.015625 
L 68.609375 54.6875 
L 77.59375 54.6875 
L 63.28125 0 
L 52.6875 0 
L 40.921875 44.828125 
L 29.109375 0 
L 18.5 0 
z
" id="DejaVuSans-119"/>
      <path d="M 9.078125 75.984375 
L 18.109375 75.984375 
L 18.109375 31.109375 
L 44.921875 54.6875 
L 56.390625 54.6875 
L 27.390625 29.109375 
L 57.625 0 
L 45.90625 0 
L 18.109375 26.703125 
L 18.109375 0 
L 9.078125 0 
z
" id="DejaVuSans-107"/>
      <path d="M 9.421875 75.984375 
L 18.40625 75.984375 
L 18.40625 0 
L 9.421875 0 
z
" id="DejaVuSans-108"/>
      <path d="M 32.171875 -5.078125 
Q 28.375 -14.84375 24.75 -17.8125 
Q 21.140625 -20.796875 15.09375 -20.796875 
L 7.90625 -20.796875 
L 7.90625 -13.28125 
L 13.1875 -13.28125 
Q 16.890625 -13.28125 18.9375 -11.515625 
Q 21 -9.765625 23.484375 -3.21875 
L 25.09375 0.875 
L 2.984375 54.6875 
L 12.5 54.6875 
L 29.59375 11.921875 
L 46.6875 54.6875 
L 56.203125 54.6875 
z
" id="DejaVuSans-121"/>
      <path d="M 9.421875 54.6875 
L 18.40625 54.6875 
L 18.40625 0 
L 9.421875 0 
z
M 9.421875 75.984375 
L 18.40625 75.984375 
L 18.40625 64.59375 
L 9.421875 64.59375 
z
" id="DejaVuSans-105"/>
      <path d="M 44.28125 53.078125 
L 44.28125 44.578125 
Q 40.484375 46.53125 36.375 47.5 
Q 32.28125 48.484375 27.875 48.484375 
Q 21.1875 48.484375 17.84375 46.4375 
Q 14.5 44.390625 14.5 40.28125 
Q 14.5 37.15625 16.890625 35.375 
Q 19.28125 33.59375 26.515625 31.984375 
L 29.59375 31.296875 
Q 39.15625 29.25 43.1875 25.515625 
Q 47.21875 21.78125 47.21875 15.09375 
Q 47.21875 7.46875 41.1875 3.015625 
Q 35.15625 -1.421875 24.609375 -1.421875 
Q 20.21875 -1.421875 15.453125 -0.5625 
Q 10.6875 0.296875 5.421875 2 
L 5.421875 11.28125 
Q 10.40625 8.6875 15.234375 7.390625 
Q 20.0625 6.109375 24.8125 6.109375 
Q 31.15625 6.109375 34.5625 8.28125 
Q 37.984375 10.453125 37.984375 14.40625 
Q 37.984375 18.0625 35.515625 20.015625 
Q 33.0625 21.96875 24.703125 23.78125 
L 21.578125 24.515625 
Q 13.234375 26.265625 9.515625 29.90625 
Q 5.8125 33.546875 5.8125 39.890625 
Q 5.8125 47.609375 11.28125 51.796875 
Q 16.75 56 26.8125 56 
Q 31.78125 56 36.171875 55.265625 
Q 40.578125 54.546875 44.28125 53.078125 
z
" id="DejaVuSans-115"/>
     </defs>
     <g transform="translate(14.798438 205.826905)rotate(-90)scale(0.1 -0.1)">
      <use xlink:href="#DejaVuSans-83"/>
      <use x="63.476562" xlink:href="#DejaVuSans-99"/>
      <use x="118.457031" xlink:href="#DejaVuSans-111"/>
      <use x="179.638672" xlink:href="#DejaVuSans-114"/>
      <use x="218.501953" xlink:href="#DejaVuSans-101"/>
      <use x="280.025391" xlink:href="#DejaVuSans-32"/>
      <use x="311.8125" xlink:href="#DejaVuSans-102"/>
      <use x="347.017578" xlink:href="#DejaVuSans-111"/>
      <use x="408.199219" xlink:href="#DejaVuSans-114"/>
      <use x="449.3125" xlink:href="#DejaVuSans-32"/>
      <use x="481.099609" xlink:href="#DejaVuSans-119"/>
      <use x="562.886719" xlink:href="#DejaVuSans-101"/>
      <use x="624.410156" xlink:href="#DejaVuSans-101"/>
      <use x="685.933594" xlink:href="#DejaVuSans-107"/>
      <use x="743.84375" xlink:href="#DejaVuSans-108"/>
      <use x="771.626953" xlink:href="#DejaVuSans-121"/>
      <use x="830.806641" xlink:href="#DejaVuSans-32"/>
      <use x="862.59375" xlink:href="#DejaVuSans-105"/>
      <use x="890.376953" xlink:href="#DejaVuSans-110"/>
      <use x="953.755859" xlink:href="#DejaVuSans-99"/>
      <use x="1008.736328" xlink:href="#DejaVuSans-105"/>
      <use x="1036.519531" xlink:href="#DejaVuSans-100"/>
      <use x="1099.996094" xlink:href="#DejaVuSans-101"/>
      <use x="1161.519531" xlink:href="#DejaVuSans-110"/>
      <use x="1224.898438" xlink:href="#DejaVuSans-116"/>
      <use x="1264.107422" xlink:href="#DejaVuSans-97"/>
      <use x="1325.386719" xlink:href="#DejaVuSans-108"/>
      <use x="1353.169922" xlink:href="#DejaVuSans-32"/>
      <use x="1384.957031" xlink:href="#DejaVuSans-99"/>
      <use x="1439.9375" xlink:href="#DejaVuSans-97"/>
      <use x="1501.216797" xlink:href="#DejaVuSans-115"/>
      <use x="1553.316406" xlink:href="#DejaVuSans-101"/>
      <use x="1614.839844" xlink:href="#DejaVuSans-115"/>
     </g>
    </g>
   </g>
   <g id="line2d_23">
    <path clip-path="url(#p067fc88456)" d="M 104.204358 90.209914 
L 107.372807 100.21033 
L 110.541256 81.096612 
L 113.709706 106.338969 
L 116.878155 96.663441 
L 120.046604 68.807441 
L 123.215054 31.423682 
L 126.383503 65.159565 
L 129.551952 94.069966 
L 132.720402 36.911588 
L 158.067996 70.198916 
L 161.236445 143.204438 
L 164.404895 93.9149 
L 167.573344 114.012562 
L 170.741793 120.311171 
L 173.910243 98.032166 
L 177.078692 86.432816 
L 180.247141 97.592666 
L 183.415591 131.490869 
L 186.58404 112.06236 
L 189.752489 160.390817 
L 199.257837 163.014901 
L 202.426286 64.754557 
L 205.594736 89.6554 
L 208.763185 113.809331 
L 211.931634 112.211225 
L 215.100084 103.47178 
L 218.268533 105.233325 
L 221.436982 133.359389 
L 224.605432 129.842215 
L 227.773881 131.182528 
L 230.94233 112.180202 
L 234.11078 114.434981 
L 237.279229 91.321156 
L 240.447678 92.583696 
L 243.616128 102.933554 
L 246.784577 71.190128 
L 249.953026 69.820607 
L 253.121476 72.249143 
L 256.289925 84.324802 
L 262.626823 122.193141 
" style="fill:none;stroke:#000080;stroke-linecap:square;stroke-width:1.5;"/>
    <defs>
     <path d="M 0 3 
C 0.795609 3 1.55874 2.683901 2.12132 2.12132 
C 2.683901 1.55874 3 0.795609 3 0 
C 3 -0.795609 2.683901 -1.55874 2.12132 -2.12132 
C 1.55874 -2.683901 0.795609 -3 0 -3 
C -0.795609 -3 -1.55874 -2.683901 -2.12132 -2.12132 
C -2.683901 -1.55874 -3 -0.795609 -3 0 
C -3 0.795609 -2.683901 1.55874 -2.12132 2.12132 
C -1.55874 2.683901 -0.795609 3 0 3 
z
" id="m53549a21ec" style="stroke:#000080;"/>
    </defs>
    <g clip-path="url(#p067fc88456)">
     <use style="fill:#000080;stroke:#000080;" x="104.204358" xlink:href="#m53549a21ec" y="90.209914"/>
     <use style="fill:#000080;stroke:#000080;" x="107.372807" xlink:href="#m53549a21ec" y="100.21033"/>
     <use style="fill:#000080;stroke:#000080;" x="110.541256" xlink:href="#m53549a21ec" y="81.096612"/>
     <use style="fill:#000080;stroke:#000080;" x="113.709706" xlink:href="#m53549a21ec" y="106.338969"/>
     <use style="fill:#000080;stroke:#000080;" x="116.878155" xlink:href="#m53549a21ec" y="96.663441"/>
     <use style="fill:#000080;stroke:#000080;" x="120.046604" xlink:href="#m53549a21ec" y="68.807441"/>
     <use style="fill:#000080;stroke:#000080;" x="123.215054" xlink:href="#m53549a21ec" y="31.423682"/>
     <use style="fill:#000080;stroke:#000080;" x="126.383503" xlink:href="#m53549a21ec" y="65.159565"/>
     <use style="fill:#000080;stroke:#000080;" x="129.551952" xlink:href="#m53549a21ec" y="94.069966"/>
     <use style="fill:#000080;stroke:#000080;" x="132.720402" xlink:href="#m53549a21ec" y="36.911588"/>
     <use style="fill:#000080;stroke:#000080;" x="158.067996" xlink:href="#m53549a21ec" y="70.198916"/>
     <use style="fill:#000080;stroke:#000080;" x="161.236445" xlink:href="#m53549a21ec" y="143.204438"/>
     <use style="fill:#000080;stroke:#000080;" x="164.404895" xlink:href="#m53549a21ec" y="93.9149"/>
     <use style="fill:#000080;stroke:#000080;" x="167.573344" xlink:href="#m53549a21ec" y="114.012562"/>
     <use style="fill:#000080;stroke:#000080;" x="170.741793" xlink:href="#m53549a21ec" y="120.311171"/>
     <use style="fill:#000080;stroke:#000080;" x="173.910243" xlink:href="#m53549a21ec" y="98.032166"/>
     <use style="fill:#000080;stroke:#000080;" x="177.078692" xlink:href="#m53549a21ec" y="86.432816"/>
     <use style="fill:#000080;stroke:#000080;" x="180.247141" xlink:href="#m53549a21ec" y="97.592666"/>
     <use style="fill:#000080;stroke:#000080;" x="183.415591" xlink:href="#m53549a21ec" y="131.490869"/>
     <use style="fill:#000080;stroke:#000080;" x="186.58404" xlink:href="#m53549a21ec" y="112.06236"/>
     <use style="fill:#000080;stroke:#000080;" x="189.752489" xlink:href="#m53549a21ec" y="160.390817"/>
     <use style="fill:#000080;stroke:#000080;" x="199.257837" xlink:href="#m53549a21ec" y="163.014901"/>
     <use style="fill:#000080;stroke:#000080;" x="202.426286" xlink:href="#m53549a21ec" y="64.754557"/>
     <use style="fill:#000080;stroke:#000080;" x="205.594736" xlink:href="#m53549a21ec" y="89.6554"/>
     <use style="fill:#000080;stroke:#000080;" x="208.763185" xlink:href="#m53549a21ec" y="113.809331"/>
     <use style="fill:#000080;stroke:#000080;" x="211.931634" xlink:href="#m53549a21ec" y="112.211225"/>
     <use style="fill:#000080;stroke:#000080;" x="215.100084" xlink:href="#m53549a21ec" y="103.47178"/>
     <use style="fill:#000080;stroke:#000080;" x="218.268533" xlink:href="#m53549a21ec" y="105.233325"/>
     <use style="fill:#000080;stroke:#000080;" x="221.436982" xlink:href="#m53549a21ec" y="133.359389"/>
     <use style="fill:#000080;stroke:#000080;" x="224.605432" xlink:href="#m53549a21ec" y="129.842215"/>
     <use style="fill:#000080;stroke:#000080;" x="227.773881" xlink:href="#m53549a21ec" y="131.182528"/>
     <use style="fill:#000080;stroke:#000080;" x="230.94233" xlink:href="#m53549a21ec" y="112.180202"/>
     <use style="fill:#000080;stroke:#000080;" x="234.11078" xlink:href="#m53549a21ec" y="114.434981"/>
     <use style="fill:#000080;stroke:#000080;" x="237.279229" xlink:href="#m53549a21ec" y="91.321156"/>
     <use style="fill:#000080;stroke:#000080;" x="240.447678" xlink:href="#m53549a21ec" y="92.583696"/>
     <use style="fill:#000080;stroke:#000080;" x="243.616128" xlink:href="#m53549a21ec" y="102.933554"/>
     <use style="fill:#000080;stroke:#000080;" x="246.784577" xlink:href="#m53549a21ec" y="71.190128"/>
     <use style="fill:#000080;stroke:#000080;" x="249.953026" xlink:href="#m53549a21ec" y="69.820607"/>
     <use style="fill:#000080;stroke:#000080;" x="253.121476" xlink:href="#m53549a21ec" y="72.249143"/>
     <use style="fill:#000080;stroke:#000080;" x="256.289925" xlink:href="#m53549a21ec" y="84.324802"/>
     <use style="fill:#000080;stroke:#000080;" x="262.626823" xlink:href="#m53549a21ec" y="122.193141"/>
    </g>
   </g>
   <g id="line2d_24">
    <path clip-path="url(#p067fc88456)" d="M 104.204358 77.009956 
L 107.372807 59.618295 
L 110.541256 98.401175 
L 116.878155 99.76408 
L 120.046604 116.384084 
L 123.215054 102.758229 
L 126.383503 95.547534 
L 129.551952 100.750238 
L 132.720402 107.584022 
L 135.888851 98.507097 
L 139.0573 121.958454 
L 142.225749 92.316516 
L 145.394199 112.218984 
L 148.562648 140.673233 
L 151.731097 153.156952 
L 154.899547 158.580983 
L 158.067996 133.211638 
L 161.236445 102.47252 
L 164.404895 101.202053 
L 167.573344 116.870558 
L 170.741793 111.33615 
L 173.910243 109.686267 
L 177.078692 104.773439 
L 180.247141 112.926695 
L 183.415591 112.283843 
L 186.58404 90.458891 
L 189.752489 174.944329 
L 192.920939 207.774913 
L 196.089388 78.295994 
L 199.257837 96.650579 
L 202.426286 88.624953 
L 205.594736 82.193149 
L 208.763185 114.305598 
L 211.931634 106.543778 
L 215.100084 109.338457 
L 218.268533 139.716231 
L 221.436982 106.270413 
L 224.605432 87.63141 
L 227.773881 104.498497 
L 230.94233 104.5263 
L 234.11078 127.713766 
L 237.279229 89.982232 
L 240.447678 92.624251 
L 243.616128 77.591523 
L 246.784577 64.886019 
L 249.953026 57.328854 
L 253.121476 65.674079 
L 256.289925 101.497499 
L 259.458374 119.384645 
" style="fill:none;stroke:#00d4ff;stroke-linecap:square;stroke-width:1.5;"/>
    <defs>
     <path d="M 0 3 
C 0.795609 3 1.55874 2.683901 2.12132 2.12132 
C 2.683901 1.55874 3 0.795609 3 0 
C 3 -0.795609 2.683901 -1.55874 2.12132 -2.12132 
C 1.55874 -2.683901 0.795609 -3 0 -3 
C -0.795609 -3 -1.55874 -2.683901 -2.12132 -2.12132 
C -2.683901 -1.55874 -3 -0.795609 -3 0 
C -3 0.795609 -2.683901 1.55874 -2.12132 2.12132 
C -1.55874 2.683901 -0.795609 3 0 3 
z
" id="m7114ebb9a8" style="stroke:#00d4ff;"/>
    </defs>
    <g clip-path="url(#p067fc88456)">
     <use style="fill:#00d4ff;stroke:#00d4ff;" x="104.204358" xlink:href="#m7114ebb9a8" y="77.009956"/>
     <use style="fill:#00d4ff;stroke:#00d4ff;" x="107.372807" xlink:href="#m7114ebb9a8" y="59.618295"/>
     <use style="fill:#00d4ff;stroke:#00d4ff;" x="110.541256" xlink:href="#m7114ebb9a8" y="98.401175"/>
     <use style="fill:#00d4ff;stroke:#00d4ff;" x="116.878155" xlink:href="#m7114ebb9a8" y="99.76408"/>
     <use style="fill:#00d4ff;stroke:#00d4ff;" x="120.046604" xlink:href="#m7114ebb9a8" y="116.384084"/>
     <use style="fill:#00d4ff;stroke:#00d4ff;" x="123.215054" xlink:href="#m7114ebb9a8" y="102.758229"/>
     <use style="fill:#00d4ff;stroke:#00d4ff;" x="126.383503" xlink:href="#m7114ebb9a8" y="95.547534"/>
     <use style="fill:#00d4ff;stroke:#00d4ff;" x="129.551952" xlink:href="#m7114ebb9a8" y="100.750238"/>
     <use style="fill:#00d4ff;stroke:#00d4ff;" x="132.720402" xlink:href="#m7114ebb9a8" y="107.584022"/>
     <use style="fill:#00d4ff;stroke:#00d4ff;" x="135.888851" xlink:href="#m7114ebb9a8" y="98.507097"/>
     <use style="fill:#00d4ff;stroke:#00d4ff;" x="139.0573" xlink:href="#m7114ebb9a8" y="121.958454"/>
     <use style="fill:#00d4ff;stroke:#00d4ff;" x="142.225749" xlink:href="#m7114ebb9a8" y="92.316516"/>
     <use style="fill:#00d4ff;stroke:#00d4ff;" x="145.394199" xlink:href="#m7114ebb9a8" y="112.218984"/>
     <use style="fill:#00d4ff;stroke:#00d4ff;" x="148.562648" xlink:href="#m7114ebb9a8" y="140.673233"/>
     <use style="fill:#00d4ff;stroke:#00d4ff;" x="151.731097" xlink:href="#m7114ebb9a8" y="153.156952"/>
     <use style="fill:#00d4ff;stroke:#00d4ff;" x="154.899547" xlink:href="#m7114ebb9a8" y="158.580983"/>
     <use style="fill:#00d4ff;stroke:#00d4ff;" x="158.067996" xlink:href="#m7114ebb9a8" y="133.211638"/>
     <use style="fill:#00d4ff;stroke:#00d4ff;" x="161.236445" xlink:href="#m7114ebb9a8" y="102.47252"/>
     <use style="fill:#00d4ff;stroke:#00d4ff;" x="164.404895" xlink:href="#m7114ebb9a8" y="101.202053"/>
     <use style="fill:#00d4ff;stroke:#00d4ff;" x="167.573344" xlink:href="#m7114ebb9a8" y="116.870558"/>
     <use style="fill:#00d4ff;stroke:#00d4ff;" x="170.741793" xlink:href="#m7114ebb9a8" y="111.33615"/>
     <use style="fill:#00d4ff;stroke:#00d4ff;" x="173.910243" xlink:href="#m7114ebb9a8" y="109.686267"/>
     <use style="fill:#00d4ff;stroke:#00d4ff;" x="177.078692" xlink:href="#m7114ebb9a8" y="104.773439"/>
     <use style="fill:#00d4ff;stroke:#00d4ff;" x="180.247141" xlink:href="#m7114ebb9a8" y="112.926695"/>
     <use style="fill:#00d4ff;stroke:#00d4ff;" x="183.415591" xlink:href="#m7114ebb9a8" y="112.283843"/>
     <use style="fill:#00d4ff;stroke:#00d4ff;" x="186.58404" xlink:href="#m7114ebb9a8" y="90.458891"/>
     <use style="fill:#00d4ff;stroke:#00d4ff;" x="189.752489" xlink:href="#m7114ebb9a8" y="174.944329"/>
     <use style="fill:#00d4ff;stroke:#00d4ff;" x="192.920939" xlink:href="#m7114ebb9a8" y="207.774913"/>
     <use style="fill:#00d4ff;stroke:#00d4ff;" x="196.089388" xlink:href="#m7114ebb9a8" y="78.295994"/>
     <use style="fill:#00d4ff;stroke:#00d4ff;" x="199.257837" xlink:href="#m7114ebb9a8" y="96.650579"/>
     <use style="fill:#00d4ff;stroke:#00d4ff;" x="202.426286" xlink:href="#m7114ebb9a8" y="88.624953"/>
     <use style="fill:#00d4ff;stroke:#00d4ff;" x="205.594736" xlink:href="#m7114ebb9a8" y="82.193149"/>
     <use style="fill:#00d4ff;stroke:#00d4ff;" x="208.763185" xlink:href="#m7114ebb9a8" y="114.305598"/>
     <use style="fill:#00d4ff;stroke:#00d4ff;" x="211.931634" xlink:href="#m7114ebb9a8" y="106.543778"/>
     <use style="fill:#00d4ff;stroke:#00d4ff;" x="215.100084" xlink:href="#m7114ebb9a8" y="109.338457"/>
     <use style="fill:#00d4ff;stroke:#00d4ff;" x="218.268533" xlink:href="#m7114ebb9a8" y="139.716231"/>
     <use style="fill:#00d4ff;stroke:#00d4ff;" x="221.436982" xlink:href="#m7114ebb9a8" y="106.270413"/>
     <use style="fill:#00d4ff;stroke:#00d4ff;" x="224.605432" xlink:href="#m7114ebb9a8" y="87.63141"/>
     <use style="fill:#00d4ff;stroke:#00d4ff;" x="227.773881" xlink:href="#m7114ebb9a8" y="104.498497"/>
     <use style="fill:#00d4ff;stroke:#00d4ff;" x="230.94233" xlink:href="#m7114ebb9a8" y="104.5263"/>
     <use style="fill:#00d4ff;stroke:#00d4ff;" x="234.11078" xlink:href="#m7114ebb9a8" y="127.713766"/>
     <use style="fill:#00d4ff;stroke:#00d4ff;" x="237.279229" xlink:href="#m7114ebb9a8" y="89.982232"/>
     <use style="fill:#00d4ff;stroke:#00d4ff;" x="240.447678" xlink:href="#m7114ebb9a8" y="92.624251"/>
     <use style="fill:#00d4ff;stroke:#00d4ff;" x="243.616128" xlink:href="#m7114ebb9a8" y="77.591523"/>
     <use style="fill:#00d4ff;stroke:#00d4ff;" x="246.784577" xlink:href="#m7114ebb9a8" y="64.886019"/>
     <use style="fill:#00d4ff;stroke:#00d4ff;" x="249.953026" xlink:href="#m7114ebb9a8" y="57.328854"/>
     <use style="fill:#00d4ff;stroke:#00d4ff;" x="253.121476" xlink:href="#m7114ebb9a8" y="65.674079"/>
     <use style="fill:#00d4ff;stroke:#00d4ff;" x="256.289925" xlink:href="#m7114ebb9a8" y="101.497499"/>
     <use style="fill:#00d4ff;stroke:#00d4ff;" x="259.458374" xlink:href="#m7114ebb9a8" y="119.384645"/>
    </g>
   </g>
   <g id="line2d_25">
    <path clip-path="url(#p067fc88456)" d="M 63.014517 65.886261 
L 66.182966 84.884064 
L 69.351415 93.348242 
L 72.519865 98.57474 
L 75.688314 95.002055 
L 78.856763 80.818333 
L 82.025213 61.644161 
L 85.193662 69.778875 
L 101.035908 119.472798 
L 104.204358 102.691634 
L 107.372807 89.493118 
L 110.541256 104.721798 
L 113.709706 100.832339 
L 116.878155 97.977317 
L 120.046604 88.606253 
L 123.215054 92.800802 
L 126.383503 70.676444 
L 129.551952 67.555078 
L 132.720402 61.105422 
L 135.888851 108.818191 
L 139.0573 129.204286 
L 142.225749 103.092821 
L 145.394199 115.848062 
L 148.562648 151.057747 
L 151.731097 160.787078 
L 154.899547 157.428977 
L 158.067996 110.078312 
L 161.236445 130.053755 
L 164.404895 116.035651 
L 167.573344 136.651108 
L 170.741793 107.079383 
L 173.910243 117.373154 
L 177.078692 114.285764 
L 180.247141 96.786828 
L 183.415591 98.099149 
L 186.58404 121.649214 
L 192.920939 197.711627 
L 196.089388 164.706508 
L 199.257837 117.796569 
L 202.426286 96.357136 
L 205.594736 119.659303 
L 208.763185 116.271186 
L 211.931634 109.795384 
L 215.100084 114.422263 
L 218.268533 118.125321 
L 221.436982 122.347035 
L 224.605432 100.997799 
L 227.773881 104.218871 
L 230.94233 124.463353 
L 234.11078 143.806381 
L 237.279229 128.794039 
L 240.447678 115.002212 
L 243.616128 110.494681 
L 246.784577 83.46013 
L 249.953026 97.418274 
L 253.121476 87.522664 
L 256.289925 102.436621 
L 259.458374 116.348852 
L 262.626823 123.645496 
" style="fill:none;stroke:#ffe600;stroke-linecap:square;stroke-width:1.5;"/>
    <defs>
     <path d="M 0 3 
C 0.795609 3 1.55874 2.683901 2.12132 2.12132 
C 2.683901 1.55874 3 0.795609 3 0 
C 3 -0.795609 2.683901 -1.55874 2.12132 -2.12132 
C 1.55874 -2.683901 0.795609 -3 0 -3 
C -0.795609 -3 -1.55874 -2.683901 -2.12132 -2.12132 
C -2.683901 -1.55874 -3 -0.795609 -3 0 
C -3 0.795609 -2.683901 1.55874 -2.12132 2.12132 
C -1.55874 2.683901 -0.795609 3 0 3 
z
" id="m5b4505cd57" style="stroke:#ffe600;"/>
    </defs>
    <g clip-path="url(#p067fc88456)">
     <use style="fill:#ffe600;stroke:#ffe600;" x="63.014517" xlink:href="#m5b4505cd57" y="65.886261"/>
     <use style="fill:#ffe600;stroke:#ffe600;" x="66.182966" xlink:href="#m5b4505cd57" y="84.884064"/>
     <use style="fill:#ffe600;stroke:#ffe600;" x="69.351415" xlink:href="#m5b4505cd57" y="93.348242"/>
     <use style="fill:#ffe600;stroke:#ffe600;" x="72.519865" xlink:href="#m5b4505cd57" y="98.57474"/>
     <use style="fill:#ffe600;stroke:#ffe600;" x="75.688314" xlink:href="#m5b4505cd57" y="95.002055"/>
     <use style="fill:#ffe600;stroke:#ffe600;" x="78.856763" xlink:href="#m5b4505cd57" y="80.818333"/>
     <use style="fill:#ffe600;stroke:#ffe600;" x="82.025213" xlink:href="#m5b4505cd57" y="61.644161"/>
     <use style="fill:#ffe600;stroke:#ffe600;" x="85.193662" xlink:href="#m5b4505cd57" y="69.778875"/>
     <use style="fill:#ffe600;stroke:#ffe600;" x="101.035908" xlink:href="#m5b4505cd57" y="119.472798"/>
     <use style="fill:#ffe600;stroke:#ffe600;" x="104.204358" xlink:href="#m5b4505cd57" y="102.691634"/>
     <use style="fill:#ffe600;stroke:#ffe600;" x="107.372807" xlink:href="#m5b4505cd57" y="89.493118"/>
     <use style="fill:#ffe600;stroke:#ffe600;" x="110.541256" xlink:href="#m5b4505cd57" y="104.721798"/>
     <use style="fill:#ffe600;stroke:#ffe600;" x="113.709706" xlink:href="#m5b4505cd57" y="100.832339"/>
     <use style="fill:#ffe600;stroke:#ffe600;" x="116.878155" xlink:href="#m5b4505cd57" y="97.977317"/>
     <use style="fill:#ffe600;stroke:#ffe600;" x="120.046604" xlink:href="#m5b4505cd57" y="88.606253"/>
     <use style="fill:#ffe600;stroke:#ffe600;" x="123.215054" xlink:href="#m5b4505cd57" y="92.800802"/>
     <use style="fill:#ffe600;stroke:#ffe600;" x="126.383503" xlink:href="#m5b4505cd57" y="70.676444"/>
     <use style="fill:#ffe600;stroke:#ffe600;" x="129.551952" xlink:href="#m5b4505cd57" y="67.555078"/>
     <use style="fill:#ffe600;stroke:#ffe600;" x="132.720402" xlink:href="#m5b4505cd57" y="61.105422"/>
     <use style="fill:#ffe600;stroke:#ffe600;" x="135.888851" xlink:href="#m5b4505cd57" y="108.818191"/>
     <use style="fill:#ffe600;stroke:#ffe600;" x="139.0573" xlink:href="#m5b4505cd57" y="129.204286"/>
     <use style="fill:#ffe600;stroke:#ffe600;" x="142.225749" xlink:href="#m5b4505cd57" y="103.092821"/>
     <use style="fill:#ffe600;stroke:#ffe600;" x="145.394199" xlink:href="#m5b4505cd57" y="115.848062"/>
     <use style="fill:#ffe600;stroke:#ffe600;" x="148.562648" xlink:href="#m5b4505cd57" y="151.057747"/>
     <use style="fill:#ffe600;stroke:#ffe600;" x="151.731097" xlink:href="#m5b4505cd57" y="160.787078"/>
     <use style="fill:#ffe600;stroke:#ffe600;" x="154.899547" xlink:href="#m5b4505cd57" y="157.428977"/>
     <use style="fill:#ffe600;stroke:#ffe600;" x="158.067996" xlink:href="#m5b4505cd57" y="110.078312"/>
     <use style="fill:#ffe600;stroke:#ffe600;" x="161.236445" xlink:href="#m5b4505cd57" y="130.053755"/>
     <use style="fill:#ffe600;stroke:#ffe600;" x="164.404895" xlink:href="#m5b4505cd57" y="116.035651"/>
     <use style="fill:#ffe600;stroke:#ffe600;" x="167.573344" xlink:href="#m5b4505cd57" y="136.651108"/>
     <use style="fill:#ffe600;stroke:#ffe600;" x="170.741793" xlink:href="#m5b4505cd57" y="107.079383"/>
     <use style="fill:#ffe600;stroke:#ffe600;" x="173.910243" xlink:href="#m5b4505cd57" y="117.373154"/>
     <use style="fill:#ffe600;stroke:#ffe600;" x="177.078692" xlink:href="#m5b4505cd57" y="114.285764"/>
     <use style="fill:#ffe600;stroke:#ffe600;" x="180.247141" xlink:href="#m5b4505cd57" y="96.786828"/>
     <use style="fill:#ffe600;stroke:#ffe600;" x="183.415591" xlink:href="#m5b4505cd57" y="98.099149"/>
     <use style="fill:#ffe600;stroke:#ffe600;" x="186.58404" xlink:href="#m5b4505cd57" y="121.649214"/>
     <use style="fill:#ffe600;stroke:#ffe600;" x="192.920939" xlink:href="#m5b4505cd57" y="197.711627"/>
     <use style="fill:#ffe600;stroke:#ffe600;" x="196.089388" xlink:href="#m5b4505cd57" y="164.706508"/>
     <use style="fill:#ffe600;stroke:#ffe600;" x="199.257837" xlink:href="#m5b4505cd57" y="117.796569"/>
     <use style="fill:#ffe600;stroke:#ffe600;" x="202.426286" xlink:href="#m5b4505cd57" y="96.357136"/>
     <use style="fill:#ffe600;stroke:#ffe600;" x="205.594736" xlink:href="#m5b4505cd57" y="119.659303"/>
     <use style="fill:#ffe600;stroke:#ffe600;" x="208.763185" xlink:href="#m5b4505cd57" y="116.271186"/>
     <use style="fill:#ffe600;stroke:#ffe600;" x="211.931634" xlink:href="#m5b4505cd57" y="109.795384"/>
     <use style="fill:#ffe600;stroke:#ffe600;" x="215.100084" xlink:href="#m5b4505cd57" y="114.422263"/>
     <use style="fill:#ffe600;stroke:#ffe600;" x="218.268533" xlink:href="#m5b4505cd57" y="118.125321"/>
     <use style="fill:#ffe600;stroke:#ffe600;" x="221.436982" xlink:href="#m5b4505cd57" y="122.347035"/>
     <use style="fill:#ffe600;stroke:#ffe600;" x="224.605432" xlink:href="#m5b4505cd57" y="100.997799"/>
     <use style="fill:#ffe600;stroke:#ffe600;" x="227.773881" xlink:href="#m5b4505cd57" y="104.218871"/>
     <use style="fill:#ffe600;stroke:#ffe600;" x="230.94233" xlink:href="#m5b4505cd57" y="124.463353"/>
     <use style="fill:#ffe600;stroke:#ffe600;" x="234.11078" xlink:href="#m5b4505cd57" y="143.806381"/>
     <use style="fill:#ffe600;stroke:#ffe600;" x="237.279229" xlink:href="#m5b4505cd57" y="128.794039"/>
     <use style="fill:#ffe600;stroke:#ffe600;" x="240.447678" xlink:href="#m5b4505cd57" y="115.002212"/>
     <use style="fill:#ffe600;stroke:#ffe600;" x="243.616128" xlink:href="#m5b4505cd57" y="110.494681"/>
     <use style="fill:#ffe600;stroke:#ffe600;" x="246.784577" xlink:href="#m5b4505cd57" y="83.46013"/>
     <use style="fill:#ffe600;stroke:#ffe600;" x="249.953026" xlink:href="#m5b4505cd57" y="97.418274"/>
     <use style="fill:#ffe600;stroke:#ffe600;" x="253.121476" xlink:href="#m5b4505cd57" y="87.522664"/>
     <use style="fill:#ffe600;stroke:#ffe600;" x="256.289925" xlink:href="#m5b4505cd57" y="102.436621"/>
     <use style="fill:#ffe600;stroke:#ffe600;" x="259.458374" xlink:href="#m5b4505cd57" y="116.348852"/>
     <use style="fill:#ffe600;stroke:#ffe600;" x="262.626823" xlink:href="#m5b4505cd57" y="123.645496"/>
    </g>
   </g>
   <g id="line2d_26">
    <path clip-path="url(#p067fc88456)" d="M 107.372807 108.077063 
L 110.541256 132.458049 
L 113.709706 149.145158 
L 116.878155 110.266663 
L 120.046604 78.513017 
L 123.215054 45.835793 
L 126.383503 115.702718 
L 129.551952 82.247482 
L 132.720402 77.711338 
L 135.888851 130.06177 
L 139.0573 84.282523 
L 142.225749 137.522555 
L 145.394199 196.367473 
L 158.067996 160.783651 
L 161.236445 129.42791 
L 164.404895 110.396154 
L 167.573344 101.452213 
L 170.741793 126.600575 
L 173.910243 106.712982 
L 177.078692 103.233843 
L 180.247141 96.888549 
L 183.415591 101.933354 
L 186.58404 128.72933 
L 189.752489 190.569338 
L 192.920939 213.534816 
L 196.089388 186.075208 
L 199.257837 138.173739 
L 202.426286 98.316242 
L 205.594736 95.38192 
L 208.763185 107.106996 
L 211.931634 101.670033 
L 215.100084 102.821142 
L 218.268533 119.192294 
L 221.436982 109.70795 
L 224.605432 100.743506 
L 227.773881 94.332257 
L 230.94233 146.950842 
L 234.11078 127.512466 
L 237.279229 131.67923 
L 240.447678 105.637535 
L 243.616128 109.316492 
L 246.784577 94.676675 
L 249.953026 81.784932 
L 253.121476 47.827808 
L 256.289925 89.866255 
L 259.458374 112.535831 
" style="fill:none;stroke:#800000;stroke-linecap:square;stroke-width:1.5;"/>
    <defs>
     <path d="M 0 3 
C 0.795609 3 1.55874 2.683901 2.12132 2.12132 
C 2.683901 1.55874 3 0.795609 3 0 
C 3 -0.795609 2.683901 -1.55874 2.12132 -2.12132 
C 1.55874 -2.683901 0.795609 -3 0 -3 
C -0.795609 -3 -1.55874 -2.683901 -2.12132 -2.12132 
C -2.683901 -1.55874 -3 -0.795609 -3 0 
C -3 0.795609 -2.683901 1.55874 -2.12132 2.12132 
C -1.55874 2.683901 -0.795609 3 0 3 
z
" id="ma79cb7822c" style="stroke:#800000;"/>
    </defs>
    <g clip-path="url(#p067fc88456)">
     <use style="fill:#800000;stroke:#800000;" x="107.372807" xlink:href="#ma79cb7822c" y="108.077063"/>
     <use style="fill:#800000;stroke:#800000;" x="110.541256" xlink:href="#ma79cb7822c" y="132.458049"/>
     <use style="fill:#800000;stroke:#800000;" x="113.709706" xlink:href="#ma79cb7822c" y="149.145158"/>
     <use style="fill:#800000;stroke:#800000;" x="116.878155" xlink:href="#ma79cb7822c" y="110.266663"/>
     <use style="fill:#800000;stroke:#800000;" x="120.046604" xlink:href="#ma79cb7822c" y="78.513017"/>
     <use style="fill:#800000;stroke:#800000;" x="123.215054" xlink:href="#ma79cb7822c" y="45.835793"/>
     <use style="fill:#800000;stroke:#800000;" x="126.383503" xlink:href="#ma79cb7822c" y="115.702718"/>
     <use style="fill:#800000;stroke:#800000;" x="129.551952" xlink:href="#ma79cb7822c" y="82.247482"/>
     <use style="fill:#800000;stroke:#800000;" x="132.720402" xlink:href="#ma79cb7822c" y="77.711338"/>
     <use style="fill:#800000;stroke:#800000;" x="135.888851" xlink:href="#ma79cb7822c" y="130.06177"/>
     <use style="fill:#800000;stroke:#800000;" x="139.0573" xlink:href="#ma79cb7822c" y="84.282523"/>
     <use style="fill:#800000;stroke:#800000;" x="142.225749" xlink:href="#ma79cb7822c" y="137.522555"/>
     <use style="fill:#800000;stroke:#800000;" x="145.394199" xlink:href="#ma79cb7822c" y="196.367473"/>
     <use style="fill:#800000;stroke:#800000;" x="158.067996" xlink:href="#ma79cb7822c" y="160.783651"/>
     <use style="fill:#800000;stroke:#800000;" x="161.236445" xlink:href="#ma79cb7822c" y="129.42791"/>
     <use style="fill:#800000;stroke:#800000;" x="164.404895" xlink:href="#ma79cb7822c" y="110.396154"/>
     <use style="fill:#800000;stroke:#800000;" x="167.573344" xlink:href="#ma79cb7822c" y="101.452213"/>
     <use style="fill:#800000;stroke:#800000;" x="170.741793" xlink:href="#ma79cb7822c" y="126.600575"/>
     <use style="fill:#800000;stroke:#800000;" x="173.910243" xlink:href="#ma79cb7822c" y="106.712982"/>
     <use style="fill:#800000;stroke:#800000;" x="177.078692" xlink:href="#ma79cb7822c" y="103.233843"/>
     <use style="fill:#800000;stroke:#800000;" x="180.247141" xlink:href="#ma79cb7822c" y="96.888549"/>
     <use style="fill:#800000;stroke:#800000;" x="183.415591" xlink:href="#ma79cb7822c" y="101.933354"/>
     <use style="fill:#800000;stroke:#800000;" x="186.58404" xlink:href="#ma79cb7822c" y="128.72933"/>
     <use style="fill:#800000;stroke:#800000;" x="189.752489" xlink:href="#ma79cb7822c" y="190.569338"/>
     <use style="fill:#800000;stroke:#800000;" x="192.920939" xlink:href="#ma79cb7822c" y="213.534816"/>
     <use style="fill:#800000;stroke:#800000;" x="196.089388" xlink:href="#ma79cb7822c" y="186.075208"/>
     <use style="fill:#800000;stroke:#800000;" x="199.257837" xlink:href="#ma79cb7822c" y="138.173739"/>
     <use style="fill:#800000;stroke:#800000;" x="202.426286" xlink:href="#ma79cb7822c" y="98.316242"/>
     <use style="fill:#800000;stroke:#800000;" x="205.594736" xlink:href="#ma79cb7822c" y="95.38192"/>
     <use style="fill:#800000;stroke:#800000;" x="208.763185" xlink:href="#ma79cb7822c" y="107.106996"/>
     <use style="fill:#800000;stroke:#800000;" x="211.931634" xlink:href="#ma79cb7822c" y="101.670033"/>
     <use style="fill:#800000;stroke:#800000;" x="215.100084" xlink:href="#ma79cb7822c" y="102.821142"/>
     <use style="fill:#800000;stroke:#800000;" x="218.268533" xlink:href="#ma79cb7822c" y="119.192294"/>
     <use style="fill:#800000;stroke:#800000;" x="221.436982" xlink:href="#ma79cb7822c" y="109.70795"/>
     <use style="fill:#800000;stroke:#800000;" x="224.605432" xlink:href="#ma79cb7822c" y="100.743506"/>
     <use style="fill:#800000;stroke:#800000;" x="227.773881" xlink:href="#ma79cb7822c" y="94.332257"/>
     <use style="fill:#800000;stroke:#800000;" x="230.94233" xlink:href="#ma79cb7822c" y="146.950842"/>
     <use style="fill:#800000;stroke:#800000;" x="234.11078" xlink:href="#ma79cb7822c" y="127.512466"/>
     <use style="fill:#800000;stroke:#800000;" x="237.279229" xlink:href="#ma79cb7822c" y="131.67923"/>
     <use style="fill:#800000;stroke:#800000;" x="240.447678" xlink:href="#ma79cb7822c" y="105.637535"/>
     <use style="fill:#800000;stroke:#800000;" x="243.616128" xlink:href="#ma79cb7822c" y="109.316492"/>
     <use style="fill:#800000;stroke:#800000;" x="246.784577" xlink:href="#ma79cb7822c" y="94.676675"/>
     <use style="fill:#800000;stroke:#800000;" x="249.953026" xlink:href="#ma79cb7822c" y="81.784932"/>
     <use style="fill:#800000;stroke:#800000;" x="253.121476" xlink:href="#ma79cb7822c" y="47.827808"/>
     <use style="fill:#800000;stroke:#800000;" x="256.289925" xlink:href="#ma79cb7822c" y="89.866255"/>
     <use style="fill:#800000;stroke:#800000;" x="259.458374" xlink:href="#ma79cb7822c" y="112.535831"/>
    </g>
   </g>
   <g id="patch_3">
    <path d="M 48.982813 222.640373 
L 48.982813 22.318125 
" style="fill:none;stroke:#000000;stroke-linecap:square;stroke-linejoin:miter;stroke-width:0.8;"/>
   </g>
   <g id="patch_4">
    <path d="M 269.416358 222.640373 
L 269.416358 22.318125 
" style="fill:none;stroke:#000000;stroke-linecap:square;stroke-linejoin:miter;stroke-width:0.8;"/>
   </g>
   <g id="patch_5">
    <path d="M 48.982812 222.640373 
L 269.416358 222.640373 
" style="fill:none;stroke:#000000;stroke-linecap:square;stroke-linejoin:miter;stroke-width:0.8;"/>
   </g>
   <g id="patch_6">
    <path d="M 48.982812 22.318125 
L 269.416358 22.318125 
" style="fill:none;stroke:#000000;stroke-linecap:square;stroke-linejoin:miter;stroke-width:0.8;"/>
   </g>
   <g id="text_25">
    <!-- Model-averaged 4-week-ahead forecasts -->
    <defs>
     <path d="M 9.8125 72.90625 
L 24.515625 72.90625 
L 43.109375 23.296875 
L 61.8125 72.90625 
L 76.515625 72.90625 
L 76.515625 0 
L 66.890625 0 
L 66.890625 64.015625 
L 48.09375 14.015625 
L 38.1875 14.015625 
L 19.390625 64.015625 
L 19.390625 0 
L 9.8125 0 
z
" id="DejaVuSans-77"/>
     <path d="M 2.984375 54.6875 
L 12.5 54.6875 
L 29.59375 8.796875 
L 46.6875 54.6875 
L 56.203125 54.6875 
L 35.6875 0 
L 23.484375 0 
z
" id="DejaVuSans-118"/>
     <path d="M 54.890625 33.015625 
L 54.890625 0 
L 45.90625 0 
L 45.90625 32.71875 
Q 45.90625 40.484375 42.875 44.328125 
Q 39.84375 48.1875 33.796875 48.1875 
Q 26.515625 48.1875 22.3125 43.546875 
Q 18.109375 38.921875 18.109375 30.90625 
L 18.109375 0 
L 9.078125 0 
L 9.078125 75.984375 
L 18.109375 75.984375 
L 18.109375 46.1875 
Q 21.34375 51.125 25.703125 53.5625 
Q 30.078125 56 35.796875 56 
Q 45.21875 56 50.046875 50.171875 
Q 54.890625 44.34375 54.890625 33.015625 
z
" id="DejaVuSans-104"/>
    </defs>
    <g transform="translate(36.87646 16.318125)scale(0.12 -0.12)">
     <use xlink:href="#DejaVuSans-77"/>
     <use x="86.279297" xlink:href="#DejaVuSans-111"/>
     <use x="147.460938" xlink:href="#DejaVuSans-100"/>
     <use x="210.9375" xlink:href="#DejaVuSans-101"/>
     <use x="272.460938" xlink:href="#DejaVuSans-108"/>
     <use x="300.244141" xlink:href="#DejaVuSans-45"/>
     <use x="336.328125" xlink:href="#DejaVuSans-97"/>
     <use x="397.607422" xlink:href="#DejaVuSans-118"/>
     <use x="456.787109" xlink:href="#DejaVuSans-101"/>
     <use x="518.310547" xlink:href="#DejaVuSans-114"/>
     <use x="559.423828" xlink:href="#DejaVuSans-97"/>
     <use x="620.703125" xlink:href="#DejaVuSans-103"/>
     <use x="684.179688" xlink:href="#DejaVuSans-101"/>
     <use x="745.703125" xlink:href="#DejaVuSans-100"/>
     <use x="809.179688" xlink:href="#DejaVuSans-32"/>
     <use x="840.966797" xlink:href="#DejaVuSans-52"/>
     <use x="904.589844" xlink:href="#DejaVuSans-45"/>
     <use x="940.673828" xlink:href="#DejaVuSans-119"/>
     <use x="1022.460938" xlink:href="#DejaVuSans-101"/>
     <use x="1083.984375" xlink:href="#DejaVuSans-101"/>
     <use x="1145.507812" xlink:href="#DejaVuSans-107"/>
     <use x="1203.417969" xlink:href="#DejaVuSans-45"/>
     <use x="1239.501953" xlink:href="#DejaVuSans-97"/>
     <use x="1300.78125" xlink:href="#DejaVuSans-104"/>
     <use x="1364.160156" xlink:href="#DejaVuSans-101"/>
     <use x="1425.683594" xlink:href="#DejaVuSans-97"/>
     <use x="1486.962891" xlink:href="#DejaVuSans-100"/>
     <use x="1550.439453" xlink:href="#DejaVuSans-32"/>
     <use x="1582.226562" xlink:href="#DejaVuSans-102"/>
     <use x="1617.431641" xlink:href="#DejaVuSans-111"/>
     <use x="1678.613281" xlink:href="#DejaVuSans-114"/>
     <use x="1717.476562" xlink:href="#DejaVuSans-101"/>
     <use x="1779" xlink:href="#DejaVuSans-99"/>
     <use x="1833.980469" xlink:href="#DejaVuSans-97"/>
     <use x="1895.259766" xlink:href="#DejaVuSans-115"/>
     <use x="1947.359375" xlink:href="#DejaVuSans-116"/>
     <use x="1986.568359" xlink:href="#DejaVuSans-115"/>
    </g>
   </g>
   <g id="legend_1">
    <g id="patch_7">
     <path d="M 55.982813 217.640373 
L 167.139063 217.640373 
Q 169.139063 217.640373 169.139063 215.640373 
L 169.139063 145.927873 
Q 169.139063 143.927873 167.139063 143.927873 
L 55.982813 143.927873 
Q 53.982813 143.927873 53.982813 145.927873 
L 53.982813 215.640373 
Q 53.982813 217.640373 55.982813 217.640373 
z
" style="fill:#ffffff;opacity:0.8;stroke:#cccccc;stroke-linejoin:miter;"/>
    </g>
    <g id="line2d_27">
     <path d="M 57.982813 152.02631 
L 77.982813 152.02631 
" style="fill:none;stroke:#000080;stroke-linecap:square;stroke-width:1.5;"/>
    </g>
    <g id="line2d_28">
     <g>
      <use style="fill:#000080;stroke:#000080;" x="67.982813" xlink:href="#m53549a21ec" y="152.02631"/>
     </g>
    </g>
    <g id="text_26">
     <!-- compartmental -->
     <defs>
      <path d="M 52 44.1875 
Q 55.375 50.25 60.0625 53.125 
Q 64.75 56 71.09375 56 
Q 79.640625 56 84.28125 50.015625 
Q 88.921875 44.046875 88.921875 33.015625 
L 88.921875 0 
L 79.890625 0 
L 79.890625 32.71875 
Q 79.890625 40.578125 77.09375 44.375 
Q 74.3125 48.1875 68.609375 48.1875 
Q 61.625 48.1875 57.5625 43.546875 
Q 53.515625 38.921875 53.515625 30.90625 
L 53.515625 0 
L 44.484375 0 
L 44.484375 32.71875 
Q 44.484375 40.625 41.703125 44.40625 
Q 38.921875 48.1875 33.109375 48.1875 
Q 26.21875 48.1875 22.15625 43.53125 
Q 18.109375 38.875 18.109375 30.90625 
L 18.109375 0 
L 9.078125 0 
L 9.078125 54.6875 
L 18.109375 54.6875 
L 18.109375 46.1875 
Q 21.1875 51.21875 25.484375 53.609375 
Q 29.78125 56 35.6875 56 
Q 41.65625 56 45.828125 52.96875 
Q 50 49.953125 52 44.1875 
z
" id="DejaVuSans-109"/>
      <path d="M 18.109375 8.203125 
L 18.109375 -20.796875 
L 9.078125 -20.796875 
L 9.078125 54.6875 
L 18.109375 54.6875 
L 18.109375 46.390625 
Q 20.953125 51.265625 25.265625 53.625 
Q 29.59375 56 35.59375 56 
Q 45.5625 56 51.78125 48.09375 
Q 58.015625 40.1875 58.015625 27.296875 
Q 58.015625 14.40625 51.78125 6.484375 
Q 45.5625 -1.421875 35.59375 -1.421875 
Q 29.59375 -1.421875 25.265625 0.953125 
Q 20.953125 3.328125 18.109375 8.203125 
z
M 48.6875 27.296875 
Q 48.6875 37.203125 44.609375 42.84375 
Q 40.53125 48.484375 33.40625 48.484375 
Q 26.265625 48.484375 22.1875 42.84375 
Q 18.109375 37.203125 18.109375 27.296875 
Q 18.109375 17.390625 22.1875 11.75 
Q 26.265625 6.109375 33.40625 6.109375 
Q 40.53125 6.109375 44.609375 11.75 
Q 48.6875 17.390625 48.6875 27.296875 
z
" id="DejaVuSans-112"/>
     </defs>
     <g transform="translate(85.982813 155.52631)scale(0.1 -0.1)">
      <use xlink:href="#DejaVuSans-99"/>
      <use x="54.980469" xlink:href="#DejaVuSans-111"/>
      <use x="116.162109" xlink:href="#DejaVuSans-109"/>
      <use x="213.574219" xlink:href="#DejaVuSans-112"/>
      <use x="277.050781" xlink:href="#DejaVuSans-97"/>
      <use x="338.330078" xlink:href="#DejaVuSans-114"/>
      <use x="379.443359" xlink:href="#DejaVuSans-116"/>
      <use x="418.652344" xlink:href="#DejaVuSans-109"/>
      <use x="516.064453" xlink:href="#DejaVuSans-101"/>
      <use x="577.587891" xlink:href="#DejaVuSans-110"/>
      <use x="640.966797" xlink:href="#DejaVuSans-116"/>
      <use x="680.175781" xlink:href="#DejaVuSans-97"/>
      <use x="741.455078" xlink:href="#DejaVuSans-108"/>
     </g>
    </g>
    <g id="line2d_29">
     <path d="M 57.982813 170.704435 
L 77.982813 170.704435 
" style="fill:none;stroke:#00d4ff;stroke-linecap:square;stroke-width:1.5;"/>
    </g>
    <g id="line2d_30">
     <g>
      <use style="fill:#00d4ff;stroke:#00d4ff;" x="67.982813" xlink:href="#m7114ebb9a8" y="170.704435"/>
     </g>
    </g>
    <g id="text_27">
     <!-- metapopulation -->
     <defs>
      <path d="M 8.5 21.578125 
L 8.5 54.6875 
L 17.484375 54.6875 
L 17.484375 21.921875 
Q 17.484375 14.15625 20.5 10.265625 
Q 23.53125 6.390625 29.59375 6.390625 
Q 36.859375 6.390625 41.078125 11.03125 
Q 45.3125 15.671875 45.3125 23.6875 
L 45.3125 54.6875 
L 54.296875 54.6875 
L 54.296875 0 
L 45.3125 0 
L 45.3125 8.40625 
Q 42.046875 3.421875 37.71875 1 
Q 33.40625 -1.421875 27.6875 -1.421875 
Q 18.265625 -1.421875 13.375 4.4375 
Q 8.5 10.296875 8.5 21.578125 
z
M 31.109375 56 
z
" id="DejaVuSans-117"/>
     </defs>
     <g transform="translate(85.982813 174.204435)scale(0.1 -0.1)">
      <use xlink:href="#DejaVuSans-109"/>
      <use x="97.412109" xlink:href="#DejaVuSans-101"/>
      <use x="158.935547" xlink:href="#DejaVuSans-116"/>
      <use x="198.144531" xlink:href="#DejaVuSans-97"/>
      <use x="259.423828" xlink:href="#DejaVuSans-112"/>
      <use x="322.900391" xlink:href="#DejaVuSans-111"/>
      <use x="384.082031" xlink:href="#DejaVuSans-112"/>
      <use x="447.558594" xlink:href="#DejaVuSans-117"/>
      <use x="510.9375" xlink:href="#DejaVuSans-108"/>
      <use x="538.720703" xlink:href="#DejaVuSans-97"/>
      <use x="600" xlink:href="#DejaVuSans-116"/>
      <use x="639.208984" xlink:href="#DejaVuSans-105"/>
      <use x="666.992188" xlink:href="#DejaVuSans-111"/>
      <use x="728.173828" xlink:href="#DejaVuSans-110"/>
     </g>
    </g>
    <g id="line2d_31">
     <path d="M 57.982813 189.38256 
L 77.982813 189.38256 
" style="fill:none;stroke:#ffe600;stroke-linecap:square;stroke-width:1.5;"/>
    </g>
    <g id="line2d_32">
     <g>
      <use style="fill:#ffe600;stroke:#ffe600;" x="67.982813" xlink:href="#m5b4505cd57" y="189.38256"/>
     </g>
    </g>
    <g id="text_28">
     <!-- stat&amp;prob -->
     <defs>
      <path d="M 24.3125 39.203125 
Q 19.875 35.25 17.796875 31.3125 
Q 15.71875 27.390625 15.71875 23.09375 
Q 15.71875 15.96875 20.890625 11.234375 
Q 26.078125 6.5 33.890625 6.5 
Q 38.53125 6.5 42.578125 8.03125 
Q 46.625 9.578125 50.203125 12.703125 
z
M 31.203125 44.671875 
L 56 19.28125 
Q 58.890625 23.640625 60.5 28.59375 
Q 62.109375 33.546875 62.40625 39.109375 
L 71.484375 39.109375 
Q 70.90625 32.671875 68.359375 26.359375 
Q 65.828125 20.0625 61.28125 13.921875 
L 74.90625 0 
L 62.59375 0 
L 55.609375 7.171875 
Q 50.53125 2.828125 44.96875 0.703125 
Q 39.40625 -1.421875 33.015625 -1.421875 
Q 21.234375 -1.421875 13.765625 5.296875 
Q 6.296875 12.015625 6.296875 22.515625 
Q 6.296875 28.765625 9.5625 34.25 
Q 12.84375 39.75 19.390625 44.578125 
Q 17.046875 47.65625 15.8125 50.703125 
Q 14.59375 53.765625 14.59375 56.6875 
Q 14.59375 64.59375 20.015625 69.40625 
Q 25.4375 74.21875 34.421875 74.21875 
Q 38.484375 74.21875 42.5 73.34375 
Q 46.53125 72.46875 50.6875 70.703125 
L 50.6875 61.8125 
Q 46.4375 64.109375 42.578125 65.296875 
Q 38.71875 66.5 35.40625 66.5 
Q 30.28125 66.5 27.078125 63.78125 
Q 23.875 61.078125 23.875 56.78125 
Q 23.875 54.296875 25.3125 51.78125 
Q 26.765625 49.265625 31.203125 44.671875 
z
" id="DejaVuSans-38"/>
      <path d="M 48.6875 27.296875 
Q 48.6875 37.203125 44.609375 42.84375 
Q 40.53125 48.484375 33.40625 48.484375 
Q 26.265625 48.484375 22.1875 42.84375 
Q 18.109375 37.203125 18.109375 27.296875 
Q 18.109375 17.390625 22.1875 11.75 
Q 26.265625 6.109375 33.40625 6.109375 
Q 40.53125 6.109375 44.609375 11.75 
Q 48.6875 17.390625 48.6875 27.296875 
z
M 18.109375 46.390625 
Q 20.953125 51.265625 25.265625 53.625 
Q 29.59375 56 35.59375 56 
Q 45.5625 56 51.78125 48.09375 
Q 58.015625 40.1875 58.015625 27.296875 
Q 58.015625 14.40625 51.78125 6.484375 
Q 45.5625 -1.421875 35.59375 -1.421875 
Q 29.59375 -1.421875 25.265625 0.953125 
Q 20.953125 3.328125 18.109375 8.203125 
L 18.109375 0 
L 9.078125 0 
L 9.078125 75.984375 
L 18.109375 75.984375 
z
" id="DejaVuSans-98"/>
     </defs>
     <g transform="translate(85.982813 192.88256)scale(0.1 -0.1)">
      <use xlink:href="#DejaVuSans-115"/>
      <use x="52.099609" xlink:href="#DejaVuSans-116"/>
      <use x="91.308594" xlink:href="#DejaVuSans-97"/>
      <use x="152.587891" xlink:href="#DejaVuSans-116"/>
      <use x="191.796875" xlink:href="#DejaVuSans-38"/>
      <use x="269.775391" xlink:href="#DejaVuSans-112"/>
      <use x="333.251953" xlink:href="#DejaVuSans-114"/>
      <use x="372.115234" xlink:href="#DejaVuSans-111"/>
      <use x="433.296875" xlink:href="#DejaVuSans-98"/>
     </g>
    </g>
    <g id="line2d_33">
     <path d="M 57.982813 208.060685 
L 77.982813 208.060685 
" style="fill:none;stroke:#800000;stroke-linecap:square;stroke-width:1.5;"/>
    </g>
    <g id="line2d_34">
     <g>
      <use style="fill:#800000;stroke:#800000;" x="67.982813" xlink:href="#ma79cb7822c" y="208.060685"/>
     </g>
    </g>
    <g id="text_29">
     <!-- ensemble -->
     <g transform="translate(85.982813 211.560685)scale(0.1 -0.1)">
      <use xlink:href="#DejaVuSans-101"/>
      <use x="61.523438" xlink:href="#DejaVuSans-110"/>
      <use x="124.902344" xlink:href="#DejaVuSans-115"/>
      <use x="177.001953" xlink:href="#DejaVuSans-101"/>
      <use x="238.525391" xlink:href="#DejaVuSans-109"/>
      <use x="335.9375" xlink:href="#DejaVuSans-98"/>
      <use x="399.414062" xlink:href="#DejaVuSans-108"/>
      <use x="427.197266" xlink:href="#DejaVuSans-101"/>
     </g>
    </g>
   </g>
  </g>
 </g>
 <defs>
  <clipPath id="p067fc88456">
   <rect height="200.322248" width="220.433545" x="48.982813" y="22.318125"/>
  </clipPath>
 </defs>
</svg>
