<?xml version="1.0" encoding="utf-8" standalone="no"?>
<!DOCTYPE svg PUBLIC "-//W3C//DTD SVG 1.1//EN"
  "http://www.w3.org/Graphics/SVG/1.1/DTD/svg11.dtd">
<!-- Created with matplotlib (https://matplotlib.org/) -->
<svg height="376.664358pt" version="1.1" viewBox="0 0 908.085562 376.664358" width="908.085562pt" xmlns="http://www.w3.org/2000/svg" xmlns:xlink="http://www.w3.org/1999/xlink">
 <defs>
  <style type="text/css">
*{stroke-linecap:butt;stroke-linejoin:round;}
  </style>
 </defs>
 <g id="figure_1">
  <g id="patch_1">
   <path d="M 0 376.664358 
L 908.085562 376.664358 
L 908.085562 0 
L 0 0 
z
" style="fill:#ffffff;"/>
  </g>
  <g id="axes_1">
   <g id="patch_2">
    <path d="M 48.982813 316.078125 
L 718.582813 316.078125 
L 718.582813 22.318125 
L 48.982813 22.318125 
z
" style="fill:#ffffff;"/>
   </g>
   <g id="matplotlib.axis_1">
    <g id="xtick_1">
     <g id="line2d_1">
      <defs>
       <path d="M 0 0 
L 0 3.5 
" id="m383f18fadf" style="stroke:#000000;stroke-width:0.8;"/>
      </defs>
      <g>
       <use style="stroke:#000000;stroke-width:0.8;" x="48.982813" xlink:href="#m383f18fadf" y="316.078125"/>
      </g>
     </g>
     <g id="text_1">
      <!-- Apr 25 -->
      <defs>
       <path d="M 34.1875 63.1875 
L 20.796875 26.90625 
L 47.609375 26.90625 
z
M 28.609375 72.90625 
L 39.796875 72.90625 
L 67.578125 0 
L 57.328125 0 
L 50.6875 18.703125 
L 17.828125 18.703125 
L 11.1875 0 
L 0.78125 0 
z
" id="DejaVuSans-65"/>
       <path d="M 18.109375 8.203125 
L 18.109375 -20.796875 
L 9.078125 -20.796875 
L 9.078125 54.6875 
L 18.109375 54.6875 
L 18.109375 46.390625 
Q 20.953125 51.265625 25.265625 53.625 
Q 29.59375 56 35.59375 56 
Q 45.5625 56 51.78125 48.09375 
Q 58.015625 40.1875 58.015625 27.296875 
Q 58.015625 14.40625 51.78125 6.484375 
Q 45.5625 -1.421875 35.59375 -1.421875 
Q 29.59375 -1.421875 25.265625 0.953125 
Q 20.953125 3.328125 18.109375 8.203125 
z
M 48.6875 27.296875 
Q 48.6875 37.203125 44.609375 42.84375 
Q 40.53125 48.484375 33.40625 48.484375 
Q 26.265625 48.484375 22.1875 42.84375 
Q 18.109375 37.203125 18.109375 27.296875 
Q 18.109375 17.390625 22.1875 11.75 
Q 26.265625 6.109375 33.40625 6.109375 
Q 40.53125 6.109375 44.609375 11.75 
Q 48.6875 17.390625 48.6875 27.296875 
z
" id="DejaVuSans-112"/>
       <path d="M 41.109375 46.296875 
Q 39.59375 47.171875 37.8125 47.578125 
Q 36.03125 48 33.890625 48 
Q 26.265625 48 22.1875 43.046875 
Q 18.109375 38.09375 18.109375 28.8125 
L 18.109375 0 
L 9.078125 0 
L 9.078125 54.6875 
L 18.109375 54.6875 
L 18.109375 46.1875 
Q 20.953125 51.171875 25.484375 53.578125 
Q 30.03125 56 36.53125 56 
Q 37.453125 56 38.578125 55.875 
Q 39.703125 55.765625 41.0625 55.515625 
z
" id="DejaVuSans-114"/>
       <path id="DejaVuSans-32"/>
       <path d="M 19.1875 8.296875 
L 53.609375 8.296875 
L 53.609375 0 
L 7.328125 0 
L 7.328125 8.296875 
Q 12.9375 14.109375 22.625 23.890625 
Q 32.328125 33.6875 34.8125 36.53125 
Q 39.546875 41.84375 41.421875 45.53125 
Q 43.3125 49.21875 43.3125 52.78125 
Q 43.3125 58.59375 39.234375 62.25 
Q 35.15625 65.921875 28.609375 65.921875 
Q 23.96875 65.921875 18.8125 64.3125 
Q 13.671875 62.703125 7.8125 59.421875 
L 7.8125 69.390625 
Q 13.765625 71.78125 18.9375 73 
Q 24.125 74.21875 28.421875 74.21875 
Q 39.75 74.21875 46.484375 68.546875 
Q 53.21875 62.890625 53.21875 53.421875 
Q 53.21875 48.921875 51.53125 44.890625 
Q 49.859375 40.875 45.40625 35.40625 
Q 44.1875 33.984375 37.640625 27.21875 
Q 31.109375 20.453125 19.1875 8.296875 
z
" id="DejaVuSans-50"/>
       <path d="M 10.796875 72.90625 
L 49.515625 72.90625 
L 49.515625 64.59375 
L 19.828125 64.59375 
L 19.828125 46.734375 
Q 21.96875 47.46875 24.109375 47.828125 
Q 26.265625 48.1875 28.421875 48.1875 
Q 40.625 48.1875 47.75 41.5 
Q 54.890625 34.8125 54.890625 23.390625 
Q 54.890625 11.625 47.5625 5.09375 
Q 40.234375 -1.421875 26.90625 -1.421875 
Q 22.3125 -1.421875 17.546875 -0.640625 
Q 12.796875 0.140625 7.71875 1.703125 
L 7.71875 11.625 
Q 12.109375 9.234375 16.796875 8.0625 
Q 21.484375 6.890625 26.703125 6.890625 
Q 35.15625 6.890625 40.078125 11.328125 
Q 45.015625 15.765625 45.015625 23.390625 
Q 45.015625 31 40.078125 35.4375 
Q 35.15625 39.890625 26.703125 39.890625 
Q 22.75 39.890625 18.8125 39.015625 
Q 14.890625 38.140625 10.796875 36.28125 
z
" id="DejaVuSans-53"/>
      </defs>
      <g transform="translate(24.034097 351.929187)rotate(-45)scale(0.1 -0.1)">
       <use xlink:href="#DejaVuSans-65"/>
       <use x="68.408203" xlink:href="#DejaVuSans-112"/>
       <use x="131.884766" xlink:href="#DejaVuSans-114"/>
       <use x="172.998047" xlink:href="#DejaVuSans-32"/>
       <use x="204.785156" xlink:href="#DejaVuSans-50"/>
       <use x="268.408203" xlink:href="#DejaVuSans-53"/>
      </g>
     </g>
    </g>
    <g id="xtick_2">
     <g id="line2d_2">
      <g>
       <use style="stroke:#000000;stroke-width:0.8;" x="109.85554" xlink:href="#m383f18fadf" y="316.078125"/>
      </g>
     </g>
     <g id="text_2">
      <!-- May 23 -->
      <defs>
       <path d="M 9.8125 72.90625 
L 24.515625 72.90625 
L 43.109375 23.296875 
L 61.8125 72.90625 
L 76.515625 72.90625 
L 76.515625 0 
L 66.890625 0 
L 66.890625 64.015625 
L 48.09375 14.015625 
L 38.1875 14.015625 
L 19.390625 64.015625 
L 19.390625 0 
L 9.8125 0 
z
" id="DejaVuSans-77"/>
       <path d="M 34.28125 27.484375 
Q 23.390625 27.484375 19.1875 25 
Q 14.984375 22.515625 14.984375 16.5 
Q 14.984375 11.71875 18.140625 8.90625 
Q 21.296875 6.109375 26.703125 6.109375 
Q 34.1875 6.109375 38.703125 11.40625 
Q 43.21875 16.703125 43.21875 25.484375 
L 43.21875 27.484375 
z
M 52.203125 31.203125 
L 52.203125 0 
L 43.21875 0 
L 43.21875 8.296875 
Q 40.140625 3.328125 35.546875 0.953125 
Q 30.953125 -1.421875 24.3125 -1.421875 
Q 15.921875 -1.421875 10.953125 3.296875 
Q 6 8.015625 6 15.921875 
Q 6 25.140625 12.171875 29.828125 
Q 18.359375 34.515625 30.609375 34.515625 
L 43.21875 34.515625 
L 43.21875 35.40625 
Q 43.21875 41.609375 39.140625 45 
Q 35.0625 48.390625 27.6875 48.390625 
Q 23 48.390625 18.546875 47.265625 
Q 14.109375 46.140625 10.015625 43.890625 
L 10.015625 52.203125 
Q 14.9375 54.109375 19.578125 55.046875 
Q 24.21875 56 28.609375 56 
Q 40.484375 56 46.34375 49.84375 
Q 52.203125 43.703125 52.203125 31.203125 
z
" id="DejaVuSans-97"/>
       <path d="M 32.171875 -5.078125 
Q 28.375 -14.84375 24.75 -17.8125 
Q 21.140625 -20.796875 15.09375 -20.796875 
L 7.90625 -20.796875 
L 7.90625 -13.28125 
L 13.1875 -13.28125 
Q 16.890625 -13.28125 18.9375 -11.515625 
Q 21 -9.765625 23.484375 -3.21875 
L 25.09375 0.875 
L 2.984375 54.6875 
L 12.5 54.6875 
L 29.59375 11.921875 
L 46.6875 54.6875 
L 56.203125 54.6875 
z
" id="DejaVuSans-121"/>
       <path d="M 40.578125 39.3125 
Q 47.65625 37.796875 51.625 33 
Q 55.609375 28.21875 55.609375 21.1875 
Q 55.609375 10.40625 48.1875 4.484375 
Q 40.765625 -1.421875 27.09375 -1.421875 
Q 22.515625 -1.421875 17.65625 -0.515625 
Q 12.796875 0.390625 7.625 2.203125 
L 7.625 11.71875 
Q 11.71875 9.328125 16.59375 8.109375 
Q 21.484375 6.890625 26.8125 6.890625 
Q 36.078125 6.890625 40.9375 10.546875 
Q 45.796875 14.203125 45.796875 21.1875 
Q 45.796875 27.640625 41.28125 31.265625 
Q 36.765625 34.90625 28.71875 34.90625 
L 20.21875 34.90625 
L 20.21875 43.015625 
L 29.109375 43.015625 
Q 36.375 43.015625 40.234375 45.921875 
Q 44.09375 48.828125 44.09375 54.296875 
Q 44.09375 59.90625 40.109375 62.90625 
Q 36.140625 65.921875 28.71875 65.921875 
Q 24.65625 65.921875 20.015625 65.03125 
Q 15.375 64.15625 9.8125 62.3125 
L 9.8125 71.09375 
Q 15.4375 72.65625 20.34375 73.4375 
Q 25.25 74.21875 29.59375 74.21875 
Q 40.828125 74.21875 47.359375 69.109375 
Q 53.90625 64.015625 53.90625 55.328125 
Q 53.90625 49.265625 50.4375 45.09375 
Q 46.96875 40.921875 40.578125 39.3125 
z
" id="DejaVuSans-51"/>
      </defs>
      <g transform="translate(82.520338 354.315672)rotate(-45)scale(0.1 -0.1)">
       <use xlink:href="#DejaVuSans-77"/>
       <use x="86.279297" xlink:href="#DejaVuSans-97"/>
       <use x="147.558594" xlink:href="#DejaVuSans-121"/>
       <use x="206.738281" xlink:href="#DejaVuSans-32"/>
       <use x="238.525391" xlink:href="#DejaVuSans-50"/>
       <use x="302.148438" xlink:href="#DejaVuSans-51"/>
      </g>
     </g>
    </g>
    <g id="xtick_3">
     <g id="line2d_3">
      <g>
       <use style="stroke:#000000;stroke-width:0.8;" x="170.728267" xlink:href="#m383f18fadf" y="316.078125"/>
      </g>
     </g>
     <g id="text_3">
      <!-- Jun 20 -->
      <defs>
       <path d="M 9.8125 72.90625 
L 19.671875 72.90625 
L 19.671875 5.078125 
Q 19.671875 -8.109375 14.671875 -14.0625 
Q 9.671875 -20.015625 -1.421875 -20.015625 
L -5.171875 -20.015625 
L -5.171875 -11.71875 
L -2.09375 -11.71875 
Q 4.4375 -11.71875 7.125 -8.046875 
Q 9.8125 -4.390625 9.8125 5.078125 
z
" id="DejaVuSans-74"/>
       <path d="M 8.5 21.578125 
L 8.5 54.6875 
L 17.484375 54.6875 
L 17.484375 21.921875 
Q 17.484375 14.15625 20.5 10.265625 
Q 23.53125 6.390625 29.59375 6.390625 
Q 36.859375 6.390625 41.078125 11.03125 
Q 45.3125 15.671875 45.3125 23.6875 
L 45.3125 54.6875 
L 54.296875 54.6875 
L 54.296875 0 
L 45.3125 0 
L 45.3125 8.40625 
Q 42.046875 3.421875 37.71875 1 
Q 33.40625 -1.421875 27.6875 -1.421875 
Q 18.265625 -1.421875 13.375 4.4375 
Q 8.5 10.296875 8.5 21.578125 
z
M 31.109375 56 
z
" id="DejaVuSans-117"/>
       <path d="M 54.890625 33.015625 
L 54.890625 0 
L 45.90625 0 
L 45.90625 32.71875 
Q 45.90625 40.484375 42.875 44.328125 
Q 39.84375 48.1875 33.796875 48.1875 
Q 26.515625 48.1875 22.3125 43.546875 
Q 18.109375 38.921875 18.109375 30.90625 
L 18.109375 0 
L 9.078125 0 
L 9.078125 54.6875 
L 18.109375 54.6875 
L 18.109375 46.1875 
Q 21.34375 51.125 25.703125 53.5625 
Q 30.078125 56 35.796875 56 
Q 45.21875 56 50.046875 50.171875 
Q 54.890625 44.34375 54.890625 33.015625 
z
" id="DejaVuSans-110"/>
       <path d="M 31.78125 66.40625 
Q 24.171875 66.40625 20.328125 58.90625 
Q 16.5 51.421875 16.5 36.375 
Q 16.5 21.390625 20.328125 13.890625 
Q 24.171875 6.390625 31.78125 6.390625 
Q 39.453125 6.390625 43.28125 13.890625 
Q 47.125 21.390625 47.125 36.375 
Q 47.125 51.421875 43.28125 58.90625 
Q 39.453125 66.40625 31.78125 66.40625 
z
M 31.78125 74.21875 
Q 44.046875 74.21875 50.515625 64.515625 
Q 56.984375 54.828125 56.984375 36.375 
Q 56.984375 17.96875 50.515625 8.265625 
Q 44.046875 -1.421875 31.78125 -1.421875 
Q 19.53125 -1.421875 13.0625 8.265625 
Q 6.59375 17.96875 6.59375 36.375 
Q 6.59375 54.828125 13.0625 64.515625 
Q 19.53125 74.21875 31.78125 74.21875 
z
" id="DejaVuSans-48"/>
      </defs>
      <g transform="translate(146.963955 350.744783)rotate(-45)scale(0.1 -0.1)">
       <use xlink:href="#DejaVuSans-74"/>
       <use x="29.492188" xlink:href="#DejaVuSans-117"/>
       <use x="92.871094" xlink:href="#DejaVuSans-110"/>
       <use x="156.25" xlink:href="#DejaVuSans-32"/>
       <use x="188.037109" xlink:href="#DejaVuSans-50"/>
       <use x="251.660156" xlink:href="#DejaVuSans-48"/>
      </g>
     </g>
    </g>
    <g id="xtick_4">
     <g id="line2d_4">
      <g>
       <use style="stroke:#000000;stroke-width:0.8;" x="231.600994" xlink:href="#m383f18fadf" y="316.078125"/>
      </g>
     </g>
     <g id="text_4">
      <!-- Jul 18 -->
      <defs>
       <path d="M 9.421875 75.984375 
L 18.40625 75.984375 
L 18.40625 0 
L 9.421875 0 
z
" id="DejaVuSans-108"/>
       <path d="M 12.40625 8.296875 
L 28.515625 8.296875 
L 28.515625 63.921875 
L 10.984375 60.40625 
L 10.984375 69.390625 
L 28.421875 72.90625 
L 38.28125 72.90625 
L 38.28125 8.296875 
L 54.390625 8.296875 
L 54.390625 0 
L 12.40625 0 
z
" id="DejaVuSans-49"/>
       <path d="M 31.78125 34.625 
Q 24.75 34.625 20.71875 30.859375 
Q 16.703125 27.09375 16.703125 20.515625 
Q 16.703125 13.921875 20.71875 10.15625 
Q 24.75 6.390625 31.78125 6.390625 
Q 38.8125 6.390625 42.859375 10.171875 
Q 46.921875 13.96875 46.921875 20.515625 
Q 46.921875 27.09375 42.890625 30.859375 
Q 38.875 34.625 31.78125 34.625 
z
M 21.921875 38.8125 
Q 15.578125 40.375 12.03125 44.71875 
Q 8.5 49.078125 8.5 55.328125 
Q 8.5 64.0625 14.71875 69.140625 
Q 20.953125 74.21875 31.78125 74.21875 
Q 42.671875 74.21875 48.875 69.140625 
Q 55.078125 64.0625 55.078125 55.328125 
Q 55.078125 49.078125 51.53125 44.71875 
Q 48 40.375 41.703125 38.8125 
Q 48.828125 37.15625 52.796875 32.3125 
Q 56.78125 27.484375 56.78125 20.515625 
Q 56.78125 9.90625 50.3125 4.234375 
Q 43.84375 -1.421875 31.78125 -1.421875 
Q 19.734375 -1.421875 13.25 4.234375 
Q 6.78125 9.90625 6.78125 20.515625 
Q 6.78125 27.484375 10.78125 32.3125 
Q 14.796875 37.15625 21.921875 38.8125 
z
M 18.3125 54.390625 
Q 18.3125 48.734375 21.84375 45.5625 
Q 25.390625 42.390625 31.78125 42.390625 
Q 38.140625 42.390625 41.71875 45.5625 
Q 45.3125 48.734375 45.3125 54.390625 
Q 45.3125 60.0625 41.71875 63.234375 
Q 38.140625 66.40625 31.78125 66.40625 
Q 25.390625 66.40625 21.84375 63.234375 
Q 18.3125 60.0625 18.3125 54.390625 
z
" id="DejaVuSans-56"/>
      </defs>
      <g transform="translate(210.35354 348.227924)rotate(-45)scale(0.1 -0.1)">
       <use xlink:href="#DejaVuSans-74"/>
       <use x="29.492188" xlink:href="#DejaVuSans-117"/>
       <use x="92.871094" xlink:href="#DejaVuSans-108"/>
       <use x="120.654297" xlink:href="#DejaVuSans-32"/>
       <use x="152.441406" xlink:href="#DejaVuSans-49"/>
       <use x="216.064453" xlink:href="#DejaVuSans-56"/>
      </g>
     </g>
    </g>
    <g id="xtick_5">
     <g id="line2d_5">
      <g>
       <use style="stroke:#000000;stroke-width:0.8;" x="292.473722" xlink:href="#m383f18fadf" y="316.078125"/>
      </g>
     </g>
     <g id="text_5">
      <!-- Aug 15 -->
      <defs>
       <path d="M 45.40625 27.984375 
Q 45.40625 37.75 41.375 43.109375 
Q 37.359375 48.484375 30.078125 48.484375 
Q 22.859375 48.484375 18.828125 43.109375 
Q 14.796875 37.75 14.796875 27.984375 
Q 14.796875 18.265625 18.828125 12.890625 
Q 22.859375 7.515625 30.078125 7.515625 
Q 37.359375 7.515625 41.375 12.890625 
Q 45.40625 18.265625 45.40625 27.984375 
z
M 54.390625 6.78125 
Q 54.390625 -7.171875 48.1875 -13.984375 
Q 42 -20.796875 29.203125 -20.796875 
Q 24.46875 -20.796875 20.265625 -20.09375 
Q 16.0625 -19.390625 12.109375 -17.921875 
L 12.109375 -9.1875 
Q 16.0625 -11.328125 19.921875 -12.34375 
Q 23.78125 -13.375 27.78125 -13.375 
Q 36.625 -13.375 41.015625 -8.765625 
Q 45.40625 -4.15625 45.40625 5.171875 
L 45.40625 9.625 
Q 42.625 4.78125 38.28125 2.390625 
Q 33.9375 0 27.875 0 
Q 17.828125 0 11.671875 7.65625 
Q 5.515625 15.328125 5.515625 27.984375 
Q 5.515625 40.671875 11.671875 48.328125 
Q 17.828125 56 27.875 56 
Q 33.9375 56 38.28125 53.609375 
Q 42.625 51.21875 45.40625 46.390625 
L 45.40625 54.6875 
L 54.390625 54.6875 
z
" id="DejaVuSans-103"/>
      </defs>
      <g transform="translate(265.950588 353.503604)rotate(-45)scale(0.1 -0.1)">
       <use xlink:href="#DejaVuSans-65"/>
       <use x="68.408203" xlink:href="#DejaVuSans-117"/>
       <use x="131.787109" xlink:href="#DejaVuSans-103"/>
       <use x="195.263672" xlink:href="#DejaVuSans-32"/>
       <use x="227.050781" xlink:href="#DejaVuSans-49"/>
       <use x="290.673828" xlink:href="#DejaVuSans-53"/>
      </g>
     </g>
    </g>
    <g id="xtick_6">
     <g id="line2d_6">
      <g>
       <use style="stroke:#000000;stroke-width:0.8;" x="353.346449" xlink:href="#m383f18fadf" y="316.078125"/>
      </g>
     </g>
     <g id="text_6">
      <!-- Sep 12 -->
      <defs>
       <path d="M 53.515625 70.515625 
L 53.515625 60.890625 
Q 47.90625 63.578125 42.921875 64.890625 
Q 37.9375 66.21875 33.296875 66.21875 
Q 25.25 66.21875 20.875 63.09375 
Q 16.5 59.96875 16.5 54.203125 
Q 16.5 49.359375 19.40625 46.890625 
Q 22.3125 44.4375 30.421875 42.921875 
L 36.375 41.703125 
Q 47.40625 39.59375 52.65625 34.296875 
Q 57.90625 29 57.90625 20.125 
Q 57.90625 9.515625 50.796875 4.046875 
Q 43.703125 -1.421875 29.984375 -1.421875 
Q 24.8125 -1.421875 18.96875 -0.25 
Q 13.140625 0.921875 6.890625 3.21875 
L 6.890625 13.375 
Q 12.890625 10.015625 18.65625 8.296875 
Q 24.421875 6.59375 29.984375 6.59375 
Q 38.421875 6.59375 43.015625 9.90625 
Q 47.609375 13.234375 47.609375 19.390625 
Q 47.609375 24.75 44.3125 27.78125 
Q 41.015625 30.8125 33.5 32.328125 
L 27.484375 33.5 
Q 16.453125 35.6875 11.515625 40.375 
Q 6.59375 45.0625 6.59375 53.421875 
Q 6.59375 63.09375 13.40625 68.65625 
Q 20.21875 74.21875 32.171875 74.21875 
Q 37.3125 74.21875 42.625 73.28125 
Q 47.953125 72.359375 53.515625 70.515625 
z
" id="DejaVuSans-83"/>
       <path d="M 56.203125 29.59375 
L 56.203125 25.203125 
L 14.890625 25.203125 
Q 15.484375 15.921875 20.484375 11.0625 
Q 25.484375 6.203125 34.421875 6.203125 
Q 39.59375 6.203125 44.453125 7.46875 
Q 49.3125 8.734375 54.109375 11.28125 
L 54.109375 2.78125 
Q 49.265625 0.734375 44.1875 -0.34375 
Q 39.109375 -1.421875 33.890625 -1.421875 
Q 20.796875 -1.421875 13.15625 6.1875 
Q 5.515625 13.8125 5.515625 26.8125 
Q 5.515625 40.234375 12.765625 48.109375 
Q 20.015625 56 32.328125 56 
Q 43.359375 56 49.78125 48.890625 
Q 56.203125 41.796875 56.203125 29.59375 
z
M 47.21875 32.234375 
Q 47.125 39.59375 43.09375 43.984375 
Q 39.0625 48.390625 32.421875 48.390625 
Q 24.90625 48.390625 20.390625 44.140625 
Q 15.875 39.890625 15.1875 32.171875 
z
" id="DejaVuSans-101"/>
      </defs>
      <g transform="translate(327.301717 353.025202)rotate(-45)scale(0.1 -0.1)">
       <use xlink:href="#DejaVuSans-83"/>
       <use x="63.476562" xlink:href="#DejaVuSans-101"/>
       <use x="125" xlink:href="#DejaVuSans-112"/>
       <use x="188.476562" xlink:href="#DejaVuSans-32"/>
       <use x="220.263672" xlink:href="#DejaVuSans-49"/>
       <use x="283.886719" xlink:href="#DejaVuSans-50"/>
      </g>
     </g>
    </g>
    <g id="xtick_7">
     <g id="line2d_7">
      <g>
       <use style="stroke:#000000;stroke-width:0.8;" x="414.219176" xlink:href="#m383f18fadf" y="316.078125"/>
      </g>
     </g>
     <g id="text_7">
      <!-- Oct 10 -->
      <defs>
       <path d="M 39.40625 66.21875 
Q 28.65625 66.21875 22.328125 58.203125 
Q 16.015625 50.203125 16.015625 36.375 
Q 16.015625 22.609375 22.328125 14.59375 
Q 28.65625 6.59375 39.40625 6.59375 
Q 50.140625 6.59375 56.421875 14.59375 
Q 62.703125 22.609375 62.703125 36.375 
Q 62.703125 50.203125 56.421875 58.203125 
Q 50.140625 66.21875 39.40625 66.21875 
z
M 39.40625 74.21875 
Q 54.734375 74.21875 63.90625 63.9375 
Q 73.09375 53.65625 73.09375 36.375 
Q 73.09375 19.140625 63.90625 8.859375 
Q 54.734375 -1.421875 39.40625 -1.421875 
Q 24.03125 -1.421875 14.8125 8.828125 
Q 5.609375 19.09375 5.609375 36.375 
Q 5.609375 53.65625 14.8125 63.9375 
Q 24.03125 74.21875 39.40625 74.21875 
z
" id="DejaVuSans-79"/>
       <path d="M 48.78125 52.59375 
L 48.78125 44.1875 
Q 44.96875 46.296875 41.140625 47.34375 
Q 37.3125 48.390625 33.40625 48.390625 
Q 24.65625 48.390625 19.8125 42.84375 
Q 14.984375 37.3125 14.984375 27.296875 
Q 14.984375 17.28125 19.8125 11.734375 
Q 24.65625 6.203125 33.40625 6.203125 
Q 37.3125 6.203125 41.140625 7.25 
Q 44.96875 8.296875 48.78125 10.40625 
L 48.78125 2.09375 
Q 45.015625 0.34375 40.984375 -0.53125 
Q 36.96875 -1.421875 32.421875 -1.421875 
Q 20.0625 -1.421875 12.78125 6.34375 
Q 5.515625 14.109375 5.515625 27.296875 
Q 5.515625 40.671875 12.859375 48.328125 
Q 20.21875 56 33.015625 56 
Q 37.15625 56 41.109375 55.140625 
Q 45.0625 54.296875 48.78125 52.59375 
z
" id="DejaVuSans-99"/>
       <path d="M 18.3125 70.21875 
L 18.3125 54.6875 
L 36.8125 54.6875 
L 36.8125 47.703125 
L 18.3125 47.703125 
L 18.3125 18.015625 
Q 18.3125 11.328125 20.140625 9.421875 
Q 21.96875 7.515625 27.59375 7.515625 
L 36.8125 7.515625 
L 36.8125 0 
L 27.59375 0 
Q 17.1875 0 13.234375 3.875 
Q 9.28125 7.765625 9.28125 18.015625 
L 9.28125 47.703125 
L 2.6875 47.703125 
L 2.6875 54.6875 
L 9.28125 54.6875 
L 9.28125 70.21875 
z
" id="DejaVuSans-116"/>
      </defs>
      <g transform="translate(389.277089 351.922557)rotate(-45)scale(0.1 -0.1)">
       <use xlink:href="#DejaVuSans-79"/>
       <use x="78.710938" xlink:href="#DejaVuSans-99"/>
       <use x="133.691406" xlink:href="#DejaVuSans-116"/>
       <use x="172.900391" xlink:href="#DejaVuSans-32"/>
       <use x="204.6875" xlink:href="#DejaVuSans-49"/>
       <use x="268.310547" xlink:href="#DejaVuSans-48"/>
      </g>
     </g>
    </g>
    <g id="xtick_8">
     <g id="line2d_8">
      <g>
       <use style="stroke:#000000;stroke-width:0.8;" x="475.091903" xlink:href="#m383f18fadf" y="316.078125"/>
      </g>
     </g>
     <g id="text_8">
      <!-- Nov 07 -->
      <defs>
       <path d="M 9.8125 72.90625 
L 23.09375 72.90625 
L 55.421875 11.921875 
L 55.421875 72.90625 
L 64.984375 72.90625 
L 64.984375 0 
L 51.703125 0 
L 19.390625 60.984375 
L 19.390625 0 
L 9.8125 0 
z
" id="DejaVuSans-78"/>
       <path d="M 30.609375 48.390625 
Q 23.390625 48.390625 19.1875 42.75 
Q 14.984375 37.109375 14.984375 27.296875 
Q 14.984375 17.484375 19.15625 11.84375 
Q 23.34375 6.203125 30.609375 6.203125 
Q 37.796875 6.203125 41.984375 11.859375 
Q 46.1875 17.53125 46.1875 27.296875 
Q 46.1875 37.015625 41.984375 42.703125 
Q 37.796875 48.390625 30.609375 48.390625 
z
M 30.609375 56 
Q 42.328125 56 49.015625 48.375 
Q 55.71875 40.765625 55.71875 27.296875 
Q 55.71875 13.875 49.015625 6.21875 
Q 42.328125 -1.421875 30.609375 -1.421875 
Q 18.84375 -1.421875 12.171875 6.21875 
Q 5.515625 13.875 5.515625 27.296875 
Q 5.515625 40.765625 12.171875 48.375 
Q 18.84375 56 30.609375 56 
z
" id="DejaVuSans-111"/>
       <path d="M 2.984375 54.6875 
L 12.5 54.6875 
L 29.59375 8.796875 
L 46.6875 54.6875 
L 56.203125 54.6875 
L 35.6875 0 
L 23.484375 0 
z
" id="DejaVuSans-118"/>
       <path d="M 8.203125 72.90625 
L 55.078125 72.90625 
L 55.078125 68.703125 
L 28.609375 0 
L 18.3125 0 
L 43.21875 64.59375 
L 8.203125 64.59375 
z
" id="DejaVuSans-55"/>
      </defs>
      <g transform="translate(448.574294 353.49808)rotate(-45)scale(0.1 -0.1)">
       <use xlink:href="#DejaVuSans-78"/>
       <use x="74.804688" xlink:href="#DejaVuSans-111"/>
       <use x="135.986328" xlink:href="#DejaVuSans-118"/>
       <use x="195.166016" xlink:href="#DejaVuSans-32"/>
       <use x="226.953125" xlink:href="#DejaVuSans-48"/>
       <use x="290.576172" xlink:href="#DejaVuSans-55"/>
      </g>
     </g>
    </g>
    <g id="xtick_9">
     <g id="line2d_9">
      <g>
       <use style="stroke:#000000;stroke-width:0.8;" x="535.964631" xlink:href="#m383f18fadf" y="316.078125"/>
      </g>
     </g>
     <g id="text_9">
      <!-- Dec 05 -->
      <defs>
       <path d="M 19.671875 64.796875 
L 19.671875 8.109375 
L 31.59375 8.109375 
Q 46.6875 8.109375 53.6875 14.9375 
Q 60.6875 21.78125 60.6875 36.53125 
Q 60.6875 51.171875 53.6875 57.984375 
Q 46.6875 64.796875 31.59375 64.796875 
z
M 9.8125 72.90625 
L 30.078125 72.90625 
Q 51.265625 72.90625 61.171875 64.09375 
Q 71.09375 55.28125 71.09375 36.53125 
Q 71.09375 17.671875 61.125 8.828125 
Q 51.171875 0 30.078125 0 
L 9.8125 0 
z
" id="DejaVuSans-68"/>
      </defs>
      <g transform="translate(509.565241 353.37986)rotate(-45)scale(0.1 -0.1)">
       <use xlink:href="#DejaVuSans-68"/>
       <use x="77.001953" xlink:href="#DejaVuSans-101"/>
       <use x="138.525391" xlink:href="#DejaVuSans-99"/>
       <use x="193.505859" xlink:href="#DejaVuSans-32"/>
       <use x="225.292969" xlink:href="#DejaVuSans-48"/>
       <use x="288.916016" xlink:href="#DejaVuSans-53"/>
      </g>
     </g>
    </g>
    <g id="xtick_10">
     <g id="line2d_10">
      <g>
       <use style="stroke:#000000;stroke-width:0.8;" x="596.837358" xlink:href="#m383f18fadf" y="316.078125"/>
      </g>
     </g>
     <g id="text_10">
      <!-- Jan 02 -->
      <g transform="translate(573.221096 350.596732)rotate(-45)scale(0.1 -0.1)">
       <use xlink:href="#DejaVuSans-74"/>
       <use x="29.492188" xlink:href="#DejaVuSans-97"/>
       <use x="90.771484" xlink:href="#DejaVuSans-110"/>
       <use x="154.150391" xlink:href="#DejaVuSans-32"/>
       <use x="185.9375" xlink:href="#DejaVuSans-48"/>
       <use x="249.560547" xlink:href="#DejaVuSans-50"/>
      </g>
     </g>
    </g>
    <g id="xtick_11">
     <g id="line2d_11">
      <g>
       <use style="stroke:#000000;stroke-width:0.8;" x="657.710085" xlink:href="#m383f18fadf" y="316.078125"/>
      </g>
     </g>
     <g id="text_11">
      <!-- Jan 30 -->
      <g transform="translate(634.093824 350.596732)rotate(-45)scale(0.1 -0.1)">
       <use xlink:href="#DejaVuSans-74"/>
       <use x="29.492188" xlink:href="#DejaVuSans-97"/>
       <use x="90.771484" xlink:href="#DejaVuSans-110"/>
       <use x="154.150391" xlink:href="#DejaVuSans-32"/>
       <use x="185.9375" xlink:href="#DejaVuSans-51"/>
       <use x="249.560547" xlink:href="#DejaVuSans-48"/>
      </g>
     </g>
    </g>
    <g id="xtick_12">
     <g id="line2d_12">
      <g>
       <use style="stroke:#000000;stroke-width:0.8;" x="718.582813" xlink:href="#m383f18fadf" y="316.078125"/>
      </g>
     </g>
     <g id="text_12">
      <!-- Feb 27 -->
      <defs>
       <path d="M 9.8125 72.90625 
L 51.703125 72.90625 
L 51.703125 64.59375 
L 19.671875 64.59375 
L 19.671875 43.109375 
L 48.578125 43.109375 
L 48.578125 34.8125 
L 19.671875 34.8125 
L 19.671875 0 
L 9.8125 0 
z
" id="DejaVuSans-70"/>
       <path d="M 48.6875 27.296875 
Q 48.6875 37.203125 44.609375 42.84375 
Q 40.53125 48.484375 33.40625 48.484375 
Q 26.265625 48.484375 22.1875 42.84375 
Q 18.109375 37.203125 18.109375 27.296875 
Q 18.109375 17.390625 22.1875 11.75 
Q 26.265625 6.109375 33.40625 6.109375 
Q 40.53125 6.109375 44.609375 11.75 
Q 48.6875 17.390625 48.6875 27.296875 
z
M 18.109375 46.390625 
Q 20.953125 51.265625 25.265625 53.625 
Q 29.59375 56 35.59375 56 
Q 45.5625 56 51.78125 48.09375 
Q 58.015625 40.1875 58.015625 27.296875 
Q 58.015625 14.40625 51.78125 6.484375 
Q 45.5625 -1.421875 35.59375 -1.421875 
Q 29.59375 -1.421875 25.265625 0.953125 
Q 20.953125 3.328125 18.109375 8.203125 
L 18.109375 0 
L 9.078125 0 
L 9.078125 75.984375 
L 18.109375 75.984375 
z
" id="DejaVuSans-98"/>
      </defs>
      <g transform="translate(693.349044 352.214239)rotate(-45)scale(0.1 -0.1)">
       <use xlink:href="#DejaVuSans-70"/>
       <use x="52.019531" xlink:href="#DejaVuSans-101"/>
       <use x="113.542969" xlink:href="#DejaVuSans-98"/>
       <use x="177.019531" xlink:href="#DejaVuSans-32"/>
       <use x="208.806641" xlink:href="#DejaVuSans-50"/>
       <use x="272.429688" xlink:href="#DejaVuSans-55"/>
      </g>
     </g>
    </g>
    <g id="text_13">
     <!-- Target End Date -->
     <defs>
      <path d="M -0.296875 72.90625 
L 61.375 72.90625 
L 61.375 64.59375 
L 35.5 64.59375 
L 35.5 0 
L 25.59375 0 
L 25.59375 64.59375 
L -0.296875 64.59375 
z
" id="DejaVuSans-84"/>
      <path d="M 9.8125 72.90625 
L 55.90625 72.90625 
L 55.90625 64.59375 
L 19.671875 64.59375 
L 19.671875 43.015625 
L 54.390625 43.015625 
L 54.390625 34.71875 
L 19.671875 34.71875 
L 19.671875 8.296875 
L 56.78125 8.296875 
L 56.78125 0 
L 9.8125 0 
z
" id="DejaVuSans-69"/>
      <path d="M 45.40625 46.390625 
L 45.40625 75.984375 
L 54.390625 75.984375 
L 54.390625 0 
L 45.40625 0 
L 45.40625 8.203125 
Q 42.578125 3.328125 38.25 0.953125 
Q 33.9375 -1.421875 27.875 -1.421875 
Q 17.96875 -1.421875 11.734375 6.484375 
Q 5.515625 14.40625 5.515625 27.296875 
Q 5.515625 40.1875 11.734375 48.09375 
Q 17.96875 56 27.875 56 
Q 33.9375 56 38.25 53.625 
Q 42.578125 51.265625 45.40625 46.390625 
z
M 14.796875 27.296875 
Q 14.796875 17.390625 18.875 11.75 
Q 22.953125 6.109375 30.078125 6.109375 
Q 37.203125 6.109375 41.296875 11.75 
Q 45.40625 17.390625 45.40625 27.296875 
Q 45.40625 37.203125 41.296875 42.84375 
Q 37.203125 48.484375 30.078125 48.484375 
Q 22.953125 48.484375 18.875 42.84375 
Q 14.796875 37.203125 14.796875 27.296875 
z
" id="DejaVuSans-100"/>
     </defs>
     <g transform="translate(343.679688 367.384671)scale(0.1 -0.1)">
      <use xlink:href="#DejaVuSans-84"/>
      <use x="44.583984" xlink:href="#DejaVuSans-97"/>
      <use x="105.863281" xlink:href="#DejaVuSans-114"/>
      <use x="145.226562" xlink:href="#DejaVuSans-103"/>
      <use x="208.703125" xlink:href="#DejaVuSans-101"/>
      <use x="270.226562" xlink:href="#DejaVuSans-116"/>
      <use x="309.435547" xlink:href="#DejaVuSans-32"/>
      <use x="341.222656" xlink:href="#DejaVuSans-69"/>
      <use x="404.40625" xlink:href="#DejaVuSans-110"/>
      <use x="467.785156" xlink:href="#DejaVuSans-100"/>
      <use x="531.261719" xlink:href="#DejaVuSans-32"/>
      <use x="563.048828" xlink:href="#DejaVuSans-68"/>
      <use x="640.050781" xlink:href="#DejaVuSans-97"/>
      <use x="701.330078" xlink:href="#DejaVuSans-116"/>
      <use x="740.539062" xlink:href="#DejaVuSans-101"/>
     </g>
    </g>
   </g>
   <g id="matplotlib.axis_2">
    <g id="ytick_1">
     <g id="line2d_13">
      <defs>
       <path d="M 0 0 
L -3.5 0 
" id="m0a9203e3b3" style="stroke:#000000;stroke-width:0.8;"/>
      </defs>
      <g>
       <use style="stroke:#000000;stroke-width:0.8;" x="48.982813" xlink:href="#m0a9203e3b3" y="293.474598"/>
      </g>
     </g>
     <g id="text_14">
      <!-- −18 -->
      <defs>
       <path d="M 10.59375 35.5 
L 73.1875 35.5 
L 73.1875 27.203125 
L 10.59375 27.203125 
z
" id="DejaVuSans-8722"/>
      </defs>
      <g transform="translate(20.878125 297.273816)scale(0.1 -0.1)">
       <use xlink:href="#DejaVuSans-8722"/>
       <use x="83.789062" xlink:href="#DejaVuSans-49"/>
       <use x="147.412109" xlink:href="#DejaVuSans-56"/>
      </g>
     </g>
    </g>
    <g id="ytick_2">
     <g id="line2d_14">
      <g>
       <use style="stroke:#000000;stroke-width:0.8;" x="48.982813" xlink:href="#m0a9203e3b3" y="257.395555"/>
      </g>
     </g>
     <g id="text_15">
      <!-- −16 -->
      <defs>
       <path d="M 33.015625 40.375 
Q 26.375 40.375 22.484375 35.828125 
Q 18.609375 31.296875 18.609375 23.390625 
Q 18.609375 15.53125 22.484375 10.953125 
Q 26.375 6.390625 33.015625 6.390625 
Q 39.65625 6.390625 43.53125 10.953125 
Q 47.40625 15.53125 47.40625 23.390625 
Q 47.40625 31.296875 43.53125 35.828125 
Q 39.65625 40.375 33.015625 40.375 
z
M 52.59375 71.296875 
L 52.59375 62.3125 
Q 48.875 64.0625 45.09375 64.984375 
Q 41.3125 65.921875 37.59375 65.921875 
Q 27.828125 65.921875 22.671875 59.328125 
Q 17.53125 52.734375 16.796875 39.40625 
Q 19.671875 43.65625 24.015625 45.921875 
Q 28.375 48.1875 33.59375 48.1875 
Q 44.578125 48.1875 50.953125 41.515625 
Q 57.328125 34.859375 57.328125 23.390625 
Q 57.328125 12.15625 50.6875 5.359375 
Q 44.046875 -1.421875 33.015625 -1.421875 
Q 20.359375 -1.421875 13.671875 8.265625 
Q 6.984375 17.96875 6.984375 36.375 
Q 6.984375 53.65625 15.1875 63.9375 
Q 23.390625 74.21875 37.203125 74.21875 
Q 40.921875 74.21875 44.703125 73.484375 
Q 48.484375 72.75 52.59375 71.296875 
z
" id="DejaVuSans-54"/>
      </defs>
      <g transform="translate(20.878125 261.194774)scale(0.1 -0.1)">
       <use xlink:href="#DejaVuSans-8722"/>
       <use x="83.789062" xlink:href="#DejaVuSans-49"/>
       <use x="147.412109" xlink:href="#DejaVuSans-54"/>
      </g>
     </g>
    </g>
    <g id="ytick_3">
     <g id="line2d_15">
      <g>
       <use style="stroke:#000000;stroke-width:0.8;" x="48.982813" xlink:href="#m0a9203e3b3" y="221.316513"/>
      </g>
     </g>
     <g id="text_16">
      <!-- −14 -->
      <defs>
       <path d="M 37.796875 64.3125 
L 12.890625 25.390625 
L 37.796875 25.390625 
z
M 35.203125 72.90625 
L 47.609375 72.90625 
L 47.609375 25.390625 
L 58.015625 25.390625 
L 58.015625 17.1875 
L 47.609375 17.1875 
L 47.609375 0 
L 37.796875 0 
L 37.796875 17.1875 
L 4.890625 17.1875 
L 4.890625 26.703125 
z
" id="DejaVuSans-52"/>
      </defs>
      <g transform="translate(20.878125 225.115732)scale(0.1 -0.1)">
       <use xlink:href="#DejaVuSans-8722"/>
       <use x="83.789062" xlink:href="#DejaVuSans-49"/>
       <use x="147.412109" xlink:href="#DejaVuSans-52"/>
      </g>
     </g>
    </g>
    <g id="ytick_4">
     <g id="line2d_16">
      <g>
       <use style="stroke:#000000;stroke-width:0.8;" x="48.982813" xlink:href="#m0a9203e3b3" y="185.23747"/>
      </g>
     </g>
     <g id="text_17">
      <!-- −12 -->
      <g transform="translate(20.878125 189.036689)scale(0.1 -0.1)">
       <use xlink:href="#DejaVuSans-8722"/>
       <use x="83.789062" xlink:href="#DejaVuSans-49"/>
       <use x="147.412109" xlink:href="#DejaVuSans-50"/>
      </g>
     </g>
    </g>
    <g id="ytick_5">
     <g id="line2d_17">
      <g>
       <use style="stroke:#000000;stroke-width:0.8;" x="48.982813" xlink:href="#m0a9203e3b3" y="149.158428"/>
      </g>
     </g>
     <g id="text_18">
      <!-- −10 -->
      <g transform="translate(20.878125 152.957647)scale(0.1 -0.1)">
       <use xlink:href="#DejaVuSans-8722"/>
       <use x="83.789062" xlink:href="#DejaVuSans-49"/>
       <use x="147.412109" xlink:href="#DejaVuSans-48"/>
      </g>
     </g>
    </g>
    <g id="ytick_6">
     <g id="line2d_18">
      <g>
       <use style="stroke:#000000;stroke-width:0.8;" x="48.982813" xlink:href="#m0a9203e3b3" y="113.079386"/>
      </g>
     </g>
     <g id="text_19">
      <!-- −8 -->
      <g transform="translate(27.240625 116.878604)scale(0.1 -0.1)">
       <use xlink:href="#DejaVuSans-8722"/>
       <use x="83.789062" xlink:href="#DejaVuSans-56"/>
      </g>
     </g>
    </g>
    <g id="ytick_7">
     <g id="line2d_19">
      <g>
       <use style="stroke:#000000;stroke-width:0.8;" x="48.982813" xlink:href="#m0a9203e3b3" y="77.000343"/>
      </g>
     </g>
     <g id="text_20">
      <!-- −6 -->
      <g transform="translate(27.240625 80.799562)scale(0.1 -0.1)">
       <use xlink:href="#DejaVuSans-8722"/>
       <use x="83.789062" xlink:href="#DejaVuSans-54"/>
      </g>
     </g>
    </g>
    <g id="ytick_8">
     <g id="line2d_20">
      <g>
       <use style="stroke:#000000;stroke-width:0.8;" x="48.982813" xlink:href="#m0a9203e3b3" y="40.921301"/>
      </g>
     </g>
     <g id="text_21">
      <!-- −4 -->
      <g transform="translate(27.240625 44.72052)scale(0.1 -0.1)">
       <use xlink:href="#DejaVuSans-8722"/>
       <use x="83.789062" xlink:href="#DejaVuSans-52"/>
      </g>
     </g>
    </g>
    <g id="text_22">
     <!-- Score for weekly incidental cases -->
     <defs>
      <path d="M 37.109375 75.984375 
L 37.109375 68.5 
L 28.515625 68.5 
Q 23.6875 68.5 21.796875 66.546875 
Q 19.921875 64.59375 19.921875 59.515625 
L 19.921875 54.6875 
L 34.71875 54.6875 
L 34.71875 47.703125 
L 19.921875 47.703125 
L 19.921875 0 
L 10.890625 0 
L 10.890625 47.703125 
L 2.296875 47.703125 
L 2.296875 54.6875 
L 10.890625 54.6875 
L 10.890625 58.5 
Q 10.890625 67.625 15.140625 71.796875 
Q 19.390625 75.984375 28.609375 75.984375 
z
" id="DejaVuSans-102"/>
      <path d="M 4.203125 54.6875 
L 13.1875 54.6875 
L 24.421875 12.015625 
L 35.59375 54.6875 
L 46.1875 54.6875 
L 57.421875 12.015625 
L 68.609375 54.6875 
L 77.59375 54.6875 
L 63.28125 0 
L 52.6875 0 
L 40.921875 44.828125 
L 29.109375 0 
L 18.5 0 
z
" id="DejaVuSans-119"/>
      <path d="M 9.078125 75.984375 
L 18.109375 75.984375 
L 18.109375 31.109375 
L 44.921875 54.6875 
L 56.390625 54.6875 
L 27.390625 29.109375 
L 57.625 0 
L 45.90625 0 
L 18.109375 26.703125 
L 18.109375 0 
L 9.078125 0 
z
" id="DejaVuSans-107"/>
      <path d="M 9.421875 54.6875 
L 18.40625 54.6875 
L 18.40625 0 
L 9.421875 0 
z
M 9.421875 75.984375 
L 18.40625 75.984375 
L 18.40625 64.59375 
L 9.421875 64.59375 
z
" id="DejaVuSans-105"/>
      <path d="M 44.28125 53.078125 
L 44.28125 44.578125 
Q 40.484375 46.53125 36.375 47.5 
Q 32.28125 48.484375 27.875 48.484375 
Q 21.1875 48.484375 17.84375 46.4375 
Q 14.5 44.390625 14.5 40.28125 
Q 14.5 37.15625 16.890625 35.375 
Q 19.28125 33.59375 26.515625 31.984375 
L 29.59375 31.296875 
Q 39.15625 29.25 43.1875 25.515625 
Q 47.21875 21.78125 47.21875 15.09375 
Q 47.21875 7.46875 41.1875 3.015625 
Q 35.15625 -1.421875 24.609375 -1.421875 
Q 20.21875 -1.421875 15.453125 -0.5625 
Q 10.6875 0.296875 5.421875 2 
L 5.421875 11.28125 
Q 10.40625 8.6875 15.234375 7.390625 
Q 20.0625 6.109375 24.8125 6.109375 
Q 31.15625 6.109375 34.5625 8.28125 
Q 37.984375 10.453125 37.984375 14.40625 
Q 37.984375 18.0625 35.515625 20.015625 
Q 33.0625 21.96875 24.703125 23.78125 
L 21.578125 24.515625 
Q 13.234375 26.265625 9.515625 29.90625 
Q 5.8125 33.546875 5.8125 39.890625 
Q 5.8125 47.609375 11.28125 51.796875 
Q 16.75 56 26.8125 56 
Q 31.78125 56 36.171875 55.265625 
Q 40.578125 54.546875 44.28125 53.078125 
z
" id="DejaVuSans-115"/>
     </defs>
     <g transform="translate(14.798437 252.545781)rotate(-90)scale(0.1 -0.1)">
      <use xlink:href="#DejaVuSans-83"/>
      <use x="63.476562" xlink:href="#DejaVuSans-99"/>
      <use x="118.457031" xlink:href="#DejaVuSans-111"/>
      <use x="179.638672" xlink:href="#DejaVuSans-114"/>
      <use x="218.501953" xlink:href="#DejaVuSans-101"/>
      <use x="280.025391" xlink:href="#DejaVuSans-32"/>
      <use x="311.8125" xlink:href="#DejaVuSans-102"/>
      <use x="347.017578" xlink:href="#DejaVuSans-111"/>
      <use x="408.199219" xlink:href="#DejaVuSans-114"/>
      <use x="449.3125" xlink:href="#DejaVuSans-32"/>
      <use x="481.099609" xlink:href="#DejaVuSans-119"/>
      <use x="562.886719" xlink:href="#DejaVuSans-101"/>
      <use x="624.410156" xlink:href="#DejaVuSans-101"/>
      <use x="685.933594" xlink:href="#DejaVuSans-107"/>
      <use x="743.84375" xlink:href="#DejaVuSans-108"/>
      <use x="771.626953" xlink:href="#DejaVuSans-121"/>
      <use x="830.806641" xlink:href="#DejaVuSans-32"/>
      <use x="862.59375" xlink:href="#DejaVuSans-105"/>
      <use x="890.376953" xlink:href="#DejaVuSans-110"/>
      <use x="953.755859" xlink:href="#DejaVuSans-99"/>
      <use x="1008.736328" xlink:href="#DejaVuSans-105"/>
      <use x="1036.519531" xlink:href="#DejaVuSans-100"/>
      <use x="1099.996094" xlink:href="#DejaVuSans-101"/>
      <use x="1161.519531" xlink:href="#DejaVuSans-110"/>
      <use x="1224.898438" xlink:href="#DejaVuSans-116"/>
      <use x="1264.107422" xlink:href="#DejaVuSans-97"/>
      <use x="1325.386719" xlink:href="#DejaVuSans-108"/>
      <use x="1353.169922" xlink:href="#DejaVuSans-32"/>
      <use x="1384.957031" xlink:href="#DejaVuSans-99"/>
      <use x="1439.9375" xlink:href="#DejaVuSans-97"/>
      <use x="1501.216797" xlink:href="#DejaVuSans-115"/>
      <use x="1553.316406" xlink:href="#DejaVuSans-101"/>
      <use x="1614.839844" xlink:href="#DejaVuSans-115"/>
     </g>
    </g>
   </g>
   <g id="line2d_21">
    <path clip-path="url(#pc4ddcd6daf)" d="M 262.037358 154.482423 
L 277.25554 148.959676 
L 292.473722 96.860021 
L 307.691903 124.757906 
L 322.910085 144.715102 
L 353.346449 93.334248 
L 399.000994 110.486841 
L 414.219176 166.100434 
L 429.437358 208.960424 
L 444.65554 136.433112 
L 459.873722 143.458248 
L 596.837358 210.322442 
L 642.491903 157.142338 
L 657.710085 124.757306 
" style="fill:none;stroke:#000080;stroke-linecap:square;stroke-width:1.5;"/>
    <defs>
     <path d="M 0 3 
C 0.795609 3 1.55874 2.683901 2.12132 2.12132 
C 2.683901 1.55874 3 0.795609 3 0 
C 3 -0.795609 2.683901 -1.55874 2.12132 -2.12132 
C 1.55874 -2.683901 0.795609 -3 0 -3 
C -0.795609 -3 -1.55874 -2.683901 -2.12132 -2.12132 
C -2.683901 -1.55874 -3 -0.795609 -3 0 
C -3 0.795609 -2.683901 1.55874 -2.12132 2.12132 
C -1.55874 2.683901 -0.795609 3 0 3 
z
" id="m5a90312bb4" style="stroke:#000080;"/>
    </defs>
    <g clip-path="url(#pc4ddcd6daf)">
     <use style="fill:#000080;stroke:#000080;" x="262.037358" xlink:href="#m5a90312bb4" y="154.482423"/>
     <use style="fill:#000080;stroke:#000080;" x="277.25554" xlink:href="#m5a90312bb4" y="148.959676"/>
     <use style="fill:#000080;stroke:#000080;" x="292.473722" xlink:href="#m5a90312bb4" y="96.860021"/>
     <use style="fill:#000080;stroke:#000080;" x="307.691903" xlink:href="#m5a90312bb4" y="124.757906"/>
     <use style="fill:#000080;stroke:#000080;" x="322.910085" xlink:href="#m5a90312bb4" y="144.715102"/>
     <use style="fill:#000080;stroke:#000080;" x="353.346449" xlink:href="#m5a90312bb4" y="93.334248"/>
     <use style="fill:#000080;stroke:#000080;" x="399.000994" xlink:href="#m5a90312bb4" y="110.486841"/>
     <use style="fill:#000080;stroke:#000080;" x="414.219176" xlink:href="#m5a90312bb4" y="166.100434"/>
     <use style="fill:#000080;stroke:#000080;" x="429.437358" xlink:href="#m5a90312bb4" y="208.960424"/>
     <use style="fill:#000080;stroke:#000080;" x="444.65554" xlink:href="#m5a90312bb4" y="136.433112"/>
     <use style="fill:#000080;stroke:#000080;" x="459.873722" xlink:href="#m5a90312bb4" y="143.458248"/>
     <use style="fill:#000080;stroke:#000080;" x="596.837358" xlink:href="#m5a90312bb4" y="210.322442"/>
     <use style="fill:#000080;stroke:#000080;" x="642.491903" xlink:href="#m5a90312bb4" y="157.142338"/>
     <use style="fill:#000080;stroke:#000080;" x="657.710085" xlink:href="#m5a90312bb4" y="124.757306"/>
    </g>
   </g>
   <g id="line2d_22">
    <path clip-path="url(#pc4ddcd6daf)" d="M 64.200994 127.38793 
L 79.419176 144.72679 
L 94.637358 152.367909 
L 109.85554 157.178953 
L 125.073722 153.932617 
L 140.291903 140.953687 
L 155.510085 123.529906 
L 170.728267 130.899129 
L 262.037358 167.307431 
L 277.25554 123.902234 
L 292.473722 162.131353 
L 338.128267 153.058347 
L 353.346449 179.194538 
L 368.564631 131.825169 
L 383.782813 128.966368 
L 399.000994 128.575461 
L 414.219176 162.177475 
L 429.437358 162.351872 
L 581.619176 164.510242 
L 596.837358 138.036427 
L 612.05554 166.077098 
L 627.273722 118.183755 
L 642.491903 140.379532 
" style="fill:none;stroke:#0000ad;stroke-linecap:square;stroke-width:1.5;"/>
    <defs>
     <path d="M 0 3 
C 0.795609 3 1.55874 2.683901 2.12132 2.12132 
C 2.683901 1.55874 3 0.795609 3 0 
C 3 -0.795609 2.683901 -1.55874 2.12132 -2.12132 
C 1.55874 -2.683901 0.795609 -3 0 -3 
C -0.795609 -3 -1.55874 -2.683901 -2.12132 -2.12132 
C -2.683901 -1.55874 -3 -0.795609 -3 0 
C -3 0.795609 -2.683901 1.55874 -2.12132 2.12132 
C -1.55874 2.683901 -0.795609 3 0 3 
z
" id="m513073b9cc" style="stroke:#0000ad;"/>
    </defs>
    <g clip-path="url(#pc4ddcd6daf)">
     <use style="fill:#0000ad;stroke:#0000ad;" x="64.200994" xlink:href="#m513073b9cc" y="127.38793"/>
     <use style="fill:#0000ad;stroke:#0000ad;" x="79.419176" xlink:href="#m513073b9cc" y="144.72679"/>
     <use style="fill:#0000ad;stroke:#0000ad;" x="94.637358" xlink:href="#m513073b9cc" y="152.367909"/>
     <use style="fill:#0000ad;stroke:#0000ad;" x="109.85554" xlink:href="#m513073b9cc" y="157.178953"/>
     <use style="fill:#0000ad;stroke:#0000ad;" x="125.073722" xlink:href="#m513073b9cc" y="153.932617"/>
     <use style="fill:#0000ad;stroke:#0000ad;" x="140.291903" xlink:href="#m513073b9cc" y="140.953687"/>
     <use style="fill:#0000ad;stroke:#0000ad;" x="155.510085" xlink:href="#m513073b9cc" y="123.529906"/>
     <use style="fill:#0000ad;stroke:#0000ad;" x="170.728267" xlink:href="#m513073b9cc" y="130.899129"/>
     <use style="fill:#0000ad;stroke:#0000ad;" x="262.037358" xlink:href="#m513073b9cc" y="167.307431"/>
     <use style="fill:#0000ad;stroke:#0000ad;" x="277.25554" xlink:href="#m513073b9cc" y="123.902234"/>
     <use style="fill:#0000ad;stroke:#0000ad;" x="292.473722" xlink:href="#m513073b9cc" y="162.131353"/>
     <use style="fill:#0000ad;stroke:#0000ad;" x="338.128267" xlink:href="#m513073b9cc" y="153.058347"/>
     <use style="fill:#0000ad;stroke:#0000ad;" x="353.346449" xlink:href="#m513073b9cc" y="179.194538"/>
     <use style="fill:#0000ad;stroke:#0000ad;" x="368.564631" xlink:href="#m513073b9cc" y="131.825169"/>
     <use style="fill:#0000ad;stroke:#0000ad;" x="383.782813" xlink:href="#m513073b9cc" y="128.966368"/>
     <use style="fill:#0000ad;stroke:#0000ad;" x="399.000994" xlink:href="#m513073b9cc" y="128.575461"/>
     <use style="fill:#0000ad;stroke:#0000ad;" x="414.219176" xlink:href="#m513073b9cc" y="162.177475"/>
     <use style="fill:#0000ad;stroke:#0000ad;" x="429.437358" xlink:href="#m513073b9cc" y="162.351872"/>
     <use style="fill:#0000ad;stroke:#0000ad;" x="581.619176" xlink:href="#m513073b9cc" y="164.510242"/>
     <use style="fill:#0000ad;stroke:#0000ad;" x="596.837358" xlink:href="#m513073b9cc" y="138.036427"/>
     <use style="fill:#0000ad;stroke:#0000ad;" x="612.05554" xlink:href="#m513073b9cc" y="166.077098"/>
     <use style="fill:#0000ad;stroke:#0000ad;" x="627.273722" xlink:href="#m513073b9cc" y="118.183755"/>
     <use style="fill:#0000ad;stroke:#0000ad;" x="642.491903" xlink:href="#m513073b9cc" y="140.379532"/>
    </g>
   </g>
   <g id="line2d_23">
    <path clip-path="url(#pc4ddcd6daf)" d="M 307.691903 169.516818 
L 322.910085 156.638099 
L 338.128267 138.60824 
L 353.346449 155.134371 
L 368.564631 158.222538 
L 383.782813 157.607031 
L 399.000994 150.00338 
L 429.437358 190.798196 
L 444.65554 192.768297 
L 459.873722 201.785398 
L 475.091903 204.986049 
L 490.310085 213.715781 
L 505.528267 210.73479 
L 520.746449 176.866334 
L 535.964631 179.071718 
L 551.182813 187.572386 
L 566.400994 209.794883 
L 581.619176 184.732595 
L 596.837358 188.465945 
L 612.05554 198.643471 
L 627.273722 206.129869 
L 642.491903 244.394038 
L 657.710085 179.726515 
L 703.364631 205.607611 
" style="fill:none;stroke:#0000da;stroke-linecap:square;stroke-width:1.5;"/>
    <defs>
     <path d="M 0 3 
C 0.795609 3 1.55874 2.683901 2.12132 2.12132 
C 2.683901 1.55874 3 0.795609 3 0 
C 3 -0.795609 2.683901 -1.55874 2.12132 -2.12132 
C 1.55874 -2.683901 0.795609 -3 0 -3 
C -0.795609 -3 -1.55874 -2.683901 -2.12132 -2.12132 
C -2.683901 -1.55874 -3 -0.795609 -3 0 
C -3 0.795609 -2.683901 1.55874 -2.12132 2.12132 
C -1.55874 2.683901 -0.795609 3 0 3 
z
" id="m68af78c9f0" style="stroke:#0000da;"/>
    </defs>
    <g clip-path="url(#pc4ddcd6daf)">
     <use style="fill:#0000da;stroke:#0000da;" x="307.691903" xlink:href="#m68af78c9f0" y="169.516818"/>
     <use style="fill:#0000da;stroke:#0000da;" x="322.910085" xlink:href="#m68af78c9f0" y="156.638099"/>
     <use style="fill:#0000da;stroke:#0000da;" x="338.128267" xlink:href="#m68af78c9f0" y="138.60824"/>
     <use style="fill:#0000da;stroke:#0000da;" x="353.346449" xlink:href="#m68af78c9f0" y="155.134371"/>
     <use style="fill:#0000da;stroke:#0000da;" x="368.564631" xlink:href="#m68af78c9f0" y="158.222538"/>
     <use style="fill:#0000da;stroke:#0000da;" x="383.782813" xlink:href="#m68af78c9f0" y="157.607031"/>
     <use style="fill:#0000da;stroke:#0000da;" x="399.000994" xlink:href="#m68af78c9f0" y="150.00338"/>
     <use style="fill:#0000da;stroke:#0000da;" x="429.437358" xlink:href="#m68af78c9f0" y="190.798196"/>
     <use style="fill:#0000da;stroke:#0000da;" x="444.65554" xlink:href="#m68af78c9f0" y="192.768297"/>
     <use style="fill:#0000da;stroke:#0000da;" x="459.873722" xlink:href="#m68af78c9f0" y="201.785398"/>
     <use style="fill:#0000da;stroke:#0000da;" x="475.091903" xlink:href="#m68af78c9f0" y="204.986049"/>
     <use style="fill:#0000da;stroke:#0000da;" x="490.310085" xlink:href="#m68af78c9f0" y="213.715781"/>
     <use style="fill:#0000da;stroke:#0000da;" x="505.528267" xlink:href="#m68af78c9f0" y="210.73479"/>
     <use style="fill:#0000da;stroke:#0000da;" x="520.746449" xlink:href="#m68af78c9f0" y="176.866334"/>
     <use style="fill:#0000da;stroke:#0000da;" x="535.964631" xlink:href="#m68af78c9f0" y="179.071718"/>
     <use style="fill:#0000da;stroke:#0000da;" x="551.182813" xlink:href="#m68af78c9f0" y="187.572386"/>
     <use style="fill:#0000da;stroke:#0000da;" x="566.400994" xlink:href="#m68af78c9f0" y="209.794883"/>
     <use style="fill:#0000da;stroke:#0000da;" x="581.619176" xlink:href="#m68af78c9f0" y="184.732595"/>
     <use style="fill:#0000da;stroke:#0000da;" x="596.837358" xlink:href="#m68af78c9f0" y="188.465945"/>
     <use style="fill:#0000da;stroke:#0000da;" x="612.05554" xlink:href="#m68af78c9f0" y="198.643471"/>
     <use style="fill:#0000da;stroke:#0000da;" x="627.273722" xlink:href="#m68af78c9f0" y="206.129869"/>
     <use style="fill:#0000da;stroke:#0000da;" x="642.491903" xlink:href="#m68af78c9f0" y="244.394038"/>
     <use style="fill:#0000da;stroke:#0000da;" x="657.710085" xlink:href="#m68af78c9f0" y="179.726515"/>
     <use style="fill:#0000da;stroke:#0000da;" x="703.364631" xlink:href="#m68af78c9f0" y="205.607611"/>
    </g>
   </g>
   <g id="line2d_24">
    <path clip-path="url(#pc4ddcd6daf)" d="M 292.473722 277.077309 
" style="fill:none;stroke:#004cff;stroke-linecap:square;stroke-width:1.5;"/>
    <defs>
     <path d="M 0 3 
C 0.795609 3 1.55874 2.683901 2.12132 2.12132 
C 2.683901 1.55874 3 0.795609 3 0 
C 3 -0.795609 2.683901 -1.55874 2.12132 -2.12132 
C 1.55874 -2.683901 0.795609 -3 0 -3 
C -0.795609 -3 -1.55874 -2.683901 -2.12132 -2.12132 
C -2.683901 -1.55874 -3 -0.795609 -3 0 
C -3 0.795609 -2.683901 1.55874 -2.12132 2.12132 
C -1.55874 2.683901 -0.795609 3 0 3 
z
" id="mcbe4965809" style="stroke:#004cff;"/>
    </defs>
    <g clip-path="url(#pc4ddcd6daf)">
     <use style="fill:#004cff;stroke:#004cff;" x="292.473722" xlink:href="#mcbe4965809" y="277.077309"/>
    </g>
   </g>
   <g id="line2d_25">
    <path clip-path="url(#pc4ddcd6daf)" d="M 262.037358 116.363242 
L 353.346449 111.200093 
L 368.564631 112.537595 
L 383.782813 107.915816 
L 399.000994 102.512994 
L 581.619176 108.657616 
L 596.837358 136.397218 
L 627.273722 122.380749 
L 642.491903 116.95377 
L 657.710085 112.389118 
" style="fill:none;stroke:#0074ff;stroke-linecap:square;stroke-width:1.5;"/>
    <defs>
     <path d="M 0 3 
C 0.795609 3 1.55874 2.683901 2.12132 2.12132 
C 2.683901 1.55874 3 0.795609 3 0 
C 3 -0.795609 2.683901 -1.55874 2.12132 -2.12132 
C 1.55874 -2.683901 0.795609 -3 0 -3 
C -0.795609 -3 -1.55874 -2.683901 -2.12132 -2.12132 
C -2.683901 -1.55874 -3 -0.795609 -3 0 
C -3 0.795609 -2.683901 1.55874 -2.12132 2.12132 
C -1.55874 2.683901 -0.795609 3 0 3 
z
" id="mc9ef0dbef9" style="stroke:#0074ff;"/>
    </defs>
    <g clip-path="url(#pc4ddcd6daf)">
     <use style="fill:#0074ff;stroke:#0074ff;" x="262.037358" xlink:href="#mc9ef0dbef9" y="116.363242"/>
     <use style="fill:#0074ff;stroke:#0074ff;" x="353.346449" xlink:href="#mc9ef0dbef9" y="111.200093"/>
     <use style="fill:#0074ff;stroke:#0074ff;" x="368.564631" xlink:href="#mc9ef0dbef9" y="112.537595"/>
     <use style="fill:#0074ff;stroke:#0074ff;" x="383.782813" xlink:href="#mc9ef0dbef9" y="107.915816"/>
     <use style="fill:#0074ff;stroke:#0074ff;" x="399.000994" xlink:href="#mc9ef0dbef9" y="102.512994"/>
     <use style="fill:#0074ff;stroke:#0074ff;" x="581.619176" xlink:href="#mc9ef0dbef9" y="108.657616"/>
     <use style="fill:#0074ff;stroke:#0074ff;" x="596.837358" xlink:href="#mc9ef0dbef9" y="136.397218"/>
     <use style="fill:#0074ff;stroke:#0074ff;" x="627.273722" xlink:href="#mc9ef0dbef9" y="122.380749"/>
     <use style="fill:#0074ff;stroke:#0074ff;" x="642.491903" xlink:href="#mc9ef0dbef9" y="116.95377"/>
     <use style="fill:#0074ff;stroke:#0074ff;" x="657.710085" xlink:href="#mc9ef0dbef9" y="112.389118"/>
    </g>
   </g>
   <g id="line2d_26">
    <path clip-path="url(#pc4ddcd6daf)" d="M 246.819176 176.195109 
L 262.037358 173.802226 
L 277.25554 163.612283 
L 292.473722 163.485885 
L 307.691903 159.192453 
L 322.910085 156.741134 
L 338.128267 158.093891 
L 353.346449 151.886752 
L 368.564631 162.06611 
L 383.782813 185.186762 
L 399.000994 199.630435 
L 414.219176 217.074375 
L 520.746449 158.503063 
L 535.964631 185.843086 
L 551.182813 186.041648 
L 566.400994 161.532024 
L 581.619176 164.768558 
L 596.837358 174.532916 
L 612.05554 155.380553 
L 627.273722 168.613159 
L 657.710085 166.038688 
L 703.364631 169.746644 
" style="fill:none;stroke:#009cff;stroke-linecap:square;stroke-width:1.5;"/>
    <defs>
     <path d="M 0 3 
C 0.795609 3 1.55874 2.683901 2.12132 2.12132 
C 2.683901 1.55874 3 0.795609 3 0 
C 3 -0.795609 2.683901 -1.55874 2.12132 -2.12132 
C 1.55874 -2.683901 0.795609 -3 0 -3 
C -0.795609 -3 -1.55874 -2.683901 -2.12132 -2.12132 
C -2.683901 -1.55874 -3 -0.795609 -3 0 
C -3 0.795609 -2.683901 1.55874 -2.12132 2.12132 
C -1.55874 2.683901 -0.795609 3 0 3 
z
" id="md52bd74e11" style="stroke:#009cff;"/>
    </defs>
    <g clip-path="url(#pc4ddcd6daf)">
     <use style="fill:#009cff;stroke:#009cff;" x="246.819176" xlink:href="#md52bd74e11" y="176.195109"/>
     <use style="fill:#009cff;stroke:#009cff;" x="262.037358" xlink:href="#md52bd74e11" y="173.802226"/>
     <use style="fill:#009cff;stroke:#009cff;" x="277.25554" xlink:href="#md52bd74e11" y="163.612283"/>
     <use style="fill:#009cff;stroke:#009cff;" x="292.473722" xlink:href="#md52bd74e11" y="163.485885"/>
     <use style="fill:#009cff;stroke:#009cff;" x="307.691903" xlink:href="#md52bd74e11" y="159.192453"/>
     <use style="fill:#009cff;stroke:#009cff;" x="322.910085" xlink:href="#md52bd74e11" y="156.741134"/>
     <use style="fill:#009cff;stroke:#009cff;" x="338.128267" xlink:href="#md52bd74e11" y="158.093891"/>
     <use style="fill:#009cff;stroke:#009cff;" x="353.346449" xlink:href="#md52bd74e11" y="151.886752"/>
     <use style="fill:#009cff;stroke:#009cff;" x="368.564631" xlink:href="#md52bd74e11" y="162.06611"/>
     <use style="fill:#009cff;stroke:#009cff;" x="383.782813" xlink:href="#md52bd74e11" y="185.186762"/>
     <use style="fill:#009cff;stroke:#009cff;" x="399.000994" xlink:href="#md52bd74e11" y="199.630435"/>
     <use style="fill:#009cff;stroke:#009cff;" x="414.219176" xlink:href="#md52bd74e11" y="217.074375"/>
     <use style="fill:#009cff;stroke:#009cff;" x="520.746449" xlink:href="#md52bd74e11" y="158.503063"/>
     <use style="fill:#009cff;stroke:#009cff;" x="535.964631" xlink:href="#md52bd74e11" y="185.843086"/>
     <use style="fill:#009cff;stroke:#009cff;" x="551.182813" xlink:href="#md52bd74e11" y="186.041648"/>
     <use style="fill:#009cff;stroke:#009cff;" x="566.400994" xlink:href="#md52bd74e11" y="161.532024"/>
     <use style="fill:#009cff;stroke:#009cff;" x="581.619176" xlink:href="#md52bd74e11" y="164.768558"/>
     <use style="fill:#009cff;stroke:#009cff;" x="596.837358" xlink:href="#md52bd74e11" y="174.532916"/>
     <use style="fill:#009cff;stroke:#009cff;" x="612.05554" xlink:href="#md52bd74e11" y="155.380553"/>
     <use style="fill:#009cff;stroke:#009cff;" x="627.273722" xlink:href="#md52bd74e11" y="168.613159"/>
     <use style="fill:#009cff;stroke:#009cff;" x="657.710085" xlink:href="#md52bd74e11" y="166.038688"/>
     <use style="fill:#009cff;stroke:#009cff;" x="703.364631" xlink:href="#md52bd74e11" y="169.746644"/>
    </g>
   </g>
   <g id="line2d_27">
    <path clip-path="url(#pc4ddcd6daf)" d="M 596.837358 102.316676 
L 612.05554 158.748928 
L 627.273722 147.093498 
" style="fill:none;stroke:#00c4ff;stroke-linecap:square;stroke-width:1.5;"/>
    <defs>
     <path d="M 0 3 
C 0.795609 3 1.55874 2.683901 2.12132 2.12132 
C 2.683901 1.55874 3 0.795609 3 0 
C 3 -0.795609 2.683901 -1.55874 2.12132 -2.12132 
C 1.55874 -2.683901 0.795609 -3 0 -3 
C -0.795609 -3 -1.55874 -2.683901 -2.12132 -2.12132 
C -2.683901 -1.55874 -3 -0.795609 -3 0 
C -3 0.795609 -2.683901 1.55874 -2.12132 2.12132 
C -1.55874 2.683901 -0.795609 3 0 3 
z
" id="m2f0ff292cf" style="stroke:#00c4ff;"/>
    </defs>
    <g clip-path="url(#pc4ddcd6daf)">
     <use style="fill:#00c4ff;stroke:#00c4ff;" x="596.837358" xlink:href="#m2f0ff292cf" y="102.316676"/>
     <use style="fill:#00c4ff;stroke:#00c4ff;" x="612.05554" xlink:href="#m2f0ff292cf" y="158.748928"/>
     <use style="fill:#00c4ff;stroke:#00c4ff;" x="627.273722" xlink:href="#m2f0ff292cf" y="147.093498"/>
    </g>
   </g>
   <g id="line2d_28">
    <path clip-path="url(#pc4ddcd6daf)" d="M 688.146449 251.914973 
L 703.364631 210.693144 
" style="fill:none;stroke:#09f0ee;stroke-linecap:square;stroke-width:1.5;"/>
    <defs>
     <path d="M 0 3 
C 0.795609 3 1.55874 2.683901 2.12132 2.12132 
C 2.683901 1.55874 3 0.795609 3 0 
C 3 -0.795609 2.683901 -1.55874 2.12132 -2.12132 
C 1.55874 -2.683901 0.795609 -3 0 -3 
C -0.795609 -3 -1.55874 -2.683901 -2.12132 -2.12132 
C -2.683901 -1.55874 -3 -0.795609 -3 0 
C -3 0.795609 -2.683901 1.55874 -2.12132 2.12132 
C -1.55874 2.683901 -0.795609 3 0 3 
z
" id="m573c65fc75" style="stroke:#09f0ee;"/>
    </defs>
    <g clip-path="url(#pc4ddcd6daf)">
     <use style="fill:#09f0ee;stroke:#09f0ee;" x="688.146449" xlink:href="#m573c65fc75" y="251.914973"/>
     <use style="fill:#09f0ee;stroke:#09f0ee;" x="703.364631" xlink:href="#m573c65fc75" y="210.693144"/>
    </g>
   </g>
   <g id="line2d_29">
    <path clip-path="url(#pc4ddcd6daf)" d="M 338.128267 143.703639 
L 368.564631 116.522186 
L 383.782813 115.045909 
L 399.000994 117.478679 
L 429.437358 178.992931 
L 444.65554 161.409911 
L 581.619176 156.780814 
L 596.837358 146.555582 
L 642.491903 162.127011 
L 657.710085 186.925309 
L 703.364631 230.216631 
" style="fill:none;stroke:#6aff8d;stroke-linecap:square;stroke-width:1.5;"/>
    <defs>
     <path d="M 0 3 
C 0.795609 3 1.55874 2.683901 2.12132 2.12132 
C 2.683901 1.55874 3 0.795609 3 0 
C 3 -0.795609 2.683901 -1.55874 2.12132 -2.12132 
C 1.55874 -2.683901 0.795609 -3 0 -3 
C -0.795609 -3 -1.55874 -2.683901 -2.12132 -2.12132 
C -2.683901 -1.55874 -3 -0.795609 -3 0 
C -3 0.795609 -2.683901 1.55874 -2.12132 2.12132 
C -1.55874 2.683901 -0.795609 3 0 3 
z
" id="m601cf0cff6" style="stroke:#6aff8d;"/>
    </defs>
    <g clip-path="url(#pc4ddcd6daf)">
     <use style="fill:#6aff8d;stroke:#6aff8d;" x="338.128267" xlink:href="#m601cf0cff6" y="143.703639"/>
     <use style="fill:#6aff8d;stroke:#6aff8d;" x="368.564631" xlink:href="#m601cf0cff6" y="116.522186"/>
     <use style="fill:#6aff8d;stroke:#6aff8d;" x="383.782813" xlink:href="#m601cf0cff6" y="115.045909"/>
     <use style="fill:#6aff8d;stroke:#6aff8d;" x="399.000994" xlink:href="#m601cf0cff6" y="117.478679"/>
     <use style="fill:#6aff8d;stroke:#6aff8d;" x="429.437358" xlink:href="#m601cf0cff6" y="178.992931"/>
     <use style="fill:#6aff8d;stroke:#6aff8d;" x="444.65554" xlink:href="#m601cf0cff6" y="161.409911"/>
     <use style="fill:#6aff8d;stroke:#6aff8d;" x="581.619176" xlink:href="#m601cf0cff6" y="156.780814"/>
     <use style="fill:#6aff8d;stroke:#6aff8d;" x="596.837358" xlink:href="#m601cf0cff6" y="146.555582"/>
     <use style="fill:#6aff8d;stroke:#6aff8d;" x="642.491903" xlink:href="#m601cf0cff6" y="162.127011"/>
     <use style="fill:#6aff8d;stroke:#6aff8d;" x="657.710085" xlink:href="#m601cf0cff6" y="186.925309"/>
     <use style="fill:#6aff8d;stroke:#6aff8d;" x="703.364631" xlink:href="#m601cf0cff6" y="230.216631"/>
    </g>
   </g>
   <g id="line2d_30">
    <path clip-path="url(#pc4ddcd6daf)" d="M 551.182813 145.483049 
L 566.400994 184.140703 
L 581.619176 228.511927 
L 596.837358 195.306809 
L 612.05554 197.972704 
" style="fill:none;stroke:#ceff29;stroke-linecap:square;stroke-width:1.5;"/>
    <defs>
     <path d="M 0 3 
C 0.795609 3 1.55874 2.683901 2.12132 2.12132 
C 2.683901 1.55874 3 0.795609 3 0 
C 3 -0.795609 2.683901 -1.55874 2.12132 -2.12132 
C 1.55874 -2.683901 0.795609 -3 0 -3 
C -0.795609 -3 -1.55874 -2.683901 -2.12132 -2.12132 
C -2.683901 -1.55874 -3 -0.795609 -3 0 
C -3 0.795609 -2.683901 1.55874 -2.12132 2.12132 
C -1.55874 2.683901 -0.795609 3 0 3 
z
" id="m9283fa116b" style="stroke:#ceff29;"/>
    </defs>
    <g clip-path="url(#pc4ddcd6daf)">
     <use style="fill:#ceff29;stroke:#ceff29;" x="551.182813" xlink:href="#m9283fa116b" y="145.483049"/>
     <use style="fill:#ceff29;stroke:#ceff29;" x="566.400994" xlink:href="#m9283fa116b" y="184.140703"/>
     <use style="fill:#ceff29;stroke:#ceff29;" x="581.619176" xlink:href="#m9283fa116b" y="228.511927"/>
     <use style="fill:#ceff29;stroke:#ceff29;" x="596.837358" xlink:href="#m9283fa116b" y="195.306809"/>
     <use style="fill:#ceff29;stroke:#ceff29;" x="612.05554" xlink:href="#m9283fa116b" y="197.972704"/>
    </g>
   </g>
   <g id="line2d_31">
    <path clip-path="url(#pc4ddcd6daf)" d="M 535.964631 298.038604 
L 551.182813 161.185029 
L 566.400994 201.812711 
L 581.619176 164.642772 
L 596.837358 150.35406 
L 642.491903 136.325091 
" style="fill:none;stroke:#eeff09;stroke-linecap:square;stroke-width:1.5;"/>
    <defs>
     <path d="M 0 3 
C 0.795609 3 1.55874 2.683901 2.12132 2.12132 
C 2.683901 1.55874 3 0.795609 3 0 
C 3 -0.795609 2.683901 -1.55874 2.12132 -2.12132 
C 1.55874 -2.683901 0.795609 -3 0 -3 
C -0.795609 -3 -1.55874 -2.683901 -2.12132 -2.12132 
C -2.683901 -1.55874 -3 -0.795609 -3 0 
C -3 0.795609 -2.683901 1.55874 -2.12132 2.12132 
C -1.55874 2.683901 -0.795609 3 0 3 
z
" id="mb64582764a" style="stroke:#eeff09;"/>
    </defs>
    <g clip-path="url(#pc4ddcd6daf)">
     <use style="fill:#eeff09;stroke:#eeff09;" x="535.964631" xlink:href="#mb64582764a" y="298.038604"/>
     <use style="fill:#eeff09;stroke:#eeff09;" x="551.182813" xlink:href="#mb64582764a" y="161.185029"/>
     <use style="fill:#eeff09;stroke:#eeff09;" x="566.400994" xlink:href="#mb64582764a" y="201.812711"/>
     <use style="fill:#eeff09;stroke:#eeff09;" x="581.619176" xlink:href="#mb64582764a" y="164.642772"/>
     <use style="fill:#eeff09;stroke:#eeff09;" x="596.837358" xlink:href="#mb64582764a" y="150.35406"/>
     <use style="fill:#eeff09;stroke:#eeff09;" x="642.491903" xlink:href="#mb64582764a" y="136.325091"/>
    </g>
   </g>
   <g id="line2d_32">
    <path clip-path="url(#pc4ddcd6daf)" d="M 596.837358 180.451403 
L 612.05554 171.936511 
L 627.273722 163.163189 
L 642.491903 161.361147 
L 657.710085 178.294837 
L 703.364631 147.151528 
" style="fill:none;stroke:#ffb200;stroke-linecap:square;stroke-width:1.5;"/>
    <defs>
     <path d="M 0 3 
C 0.795609 3 1.55874 2.683901 2.12132 2.12132 
C 2.683901 1.55874 3 0.795609 3 0 
C 3 -0.795609 2.683901 -1.55874 2.12132 -2.12132 
C 1.55874 -2.683901 0.795609 -3 0 -3 
C -0.795609 -3 -1.55874 -2.683901 -2.12132 -2.12132 
C -2.683901 -1.55874 -3 -0.795609 -3 0 
C -3 0.795609 -2.683901 1.55874 -2.12132 2.12132 
C -1.55874 2.683901 -0.795609 3 0 3 
z
" id="m46725ef975" style="stroke:#ffb200;"/>
    </defs>
    <g clip-path="url(#pc4ddcd6daf)">
     <use style="fill:#ffb200;stroke:#ffb200;" x="596.837358" xlink:href="#m46725ef975" y="180.451403"/>
     <use style="fill:#ffb200;stroke:#ffb200;" x="612.05554" xlink:href="#m46725ef975" y="171.936511"/>
     <use style="fill:#ffb200;stroke:#ffb200;" x="627.273722" xlink:href="#m46725ef975" y="163.163189"/>
     <use style="fill:#ffb200;stroke:#ffb200;" x="642.491903" xlink:href="#m46725ef975" y="161.361147"/>
     <use style="fill:#ffb200;stroke:#ffb200;" x="657.710085" xlink:href="#m46725ef975" y="178.294837"/>
     <use style="fill:#ffb200;stroke:#ffb200;" x="703.364631" xlink:href="#m46725ef975" y="147.151528"/>
    </g>
   </g>
   <g id="line2d_33">
    <path clip-path="url(#pc4ddcd6daf)" d="M 596.837358 247.707533 
L 612.05554 215.467275 
L 627.273722 183.822594 
L 642.491903 182.477673 
L 657.710085 191.200687 
" style="fill:none;stroke:#ff6800;stroke-linecap:square;stroke-width:1.5;"/>
    <defs>
     <path d="M 0 3 
C 0.795609 3 1.55874 2.683901 2.12132 2.12132 
C 2.683901 1.55874 3 0.795609 3 0 
C 3 -0.795609 2.683901 -1.55874 2.12132 -2.12132 
C 1.55874 -2.683901 0.795609 -3 0 -3 
C -0.795609 -3 -1.55874 -2.683901 -2.12132 -2.12132 
C -2.683901 -1.55874 -3 -0.795609 -3 0 
C -3 0.795609 -2.683901 1.55874 -2.12132 2.12132 
C -1.55874 2.683901 -0.795609 3 0 3 
z
" id="m3f7475c8aa" style="stroke:#ff6800;"/>
    </defs>
    <g clip-path="url(#pc4ddcd6daf)">
     <use style="fill:#ff6800;stroke:#ff6800;" x="596.837358" xlink:href="#m3f7475c8aa" y="247.707533"/>
     <use style="fill:#ff6800;stroke:#ff6800;" x="612.05554" xlink:href="#m3f7475c8aa" y="215.467275"/>
     <use style="fill:#ff6800;stroke:#ff6800;" x="627.273722" xlink:href="#m3f7475c8aa" y="183.822594"/>
     <use style="fill:#ff6800;stroke:#ff6800;" x="642.491903" xlink:href="#m3f7475c8aa" y="182.477673"/>
     <use style="fill:#ff6800;stroke:#ff6800;" x="657.710085" xlink:href="#m3f7475c8aa" y="191.200687"/>
    </g>
   </g>
   <g id="line2d_34">
    <path clip-path="url(#pc4ddcd6daf)" d="M 627.273722 77.699995 
L 642.491903 89.761236 
" style="fill:none;stroke:#ff1a00;stroke-linecap:square;stroke-width:1.5;"/>
    <defs>
     <path d="M 0 3 
C 0.795609 3 1.55874 2.683901 2.12132 2.12132 
C 2.683901 1.55874 3 0.795609 3 0 
C 3 -0.795609 2.683901 -1.55874 2.12132 -2.12132 
C 1.55874 -2.683901 0.795609 -3 0 -3 
C -0.795609 -3 -1.55874 -2.683901 -2.12132 -2.12132 
C -2.683901 -1.55874 -3 -0.795609 -3 0 
C -3 0.795609 -2.683901 1.55874 -2.12132 2.12132 
C -1.55874 2.683901 -0.795609 3 0 3 
z
" id="me1c9714f42" style="stroke:#ff1a00;"/>
    </defs>
    <g clip-path="url(#pc4ddcd6daf)">
     <use style="fill:#ff1a00;stroke:#ff1a00;" x="627.273722" xlink:href="#me1c9714f42" y="77.699995"/>
     <use style="fill:#ff1a00;stroke:#ff1a00;" x="642.491903" xlink:href="#me1c9714f42" y="89.761236"/>
    </g>
   </g>
   <g id="line2d_35">
    <path clip-path="url(#pc4ddcd6daf)" d="M 703.364631 214.891362 
" style="fill:none;stroke:#800000;stroke-linecap:square;stroke-width:1.5;"/>
    <defs>
     <path d="M 0 3 
C 0.795609 3 1.55874 2.683901 2.12132 2.12132 
C 2.683901 1.55874 3 0.795609 3 0 
C 3 -0.795609 2.683901 -1.55874 2.12132 -2.12132 
C 1.55874 -2.683901 0.795609 -3 0 -3 
C -0.795609 -3 -1.55874 -2.683901 -2.12132 -2.12132 
C -2.683901 -1.55874 -3 -0.795609 -3 0 
C -3 0.795609 -2.683901 1.55874 -2.12132 2.12132 
C -1.55874 2.683901 -0.795609 3 0 3 
z
" id="mcf9b6b2227" style="stroke:#800000;"/>
    </defs>
    <g clip-path="url(#pc4ddcd6daf)">
     <use style="fill:#800000;stroke:#800000;" x="703.364631" xlink:href="#mcf9b6b2227" y="214.891362"/>
    </g>
   </g>
   <g id="patch_3">
    <path d="M 48.982813 316.078125 
L 48.982813 22.318125 
" style="fill:none;stroke:#000000;stroke-linecap:square;stroke-linejoin:miter;stroke-width:0.8;"/>
   </g>
   <g id="patch_4">
    <path d="M 718.582813 316.078125 
L 718.582813 22.318125 
" style="fill:none;stroke:#000000;stroke-linecap:square;stroke-linejoin:miter;stroke-width:0.8;"/>
   </g>
   <g id="patch_5">
    <path d="M 48.982813 316.078125 
L 718.582813 316.078125 
" style="fill:none;stroke:#000000;stroke-linecap:square;stroke-linejoin:miter;stroke-width:0.8;"/>
   </g>
   <g id="patch_6">
    <path d="M 48.982813 22.318125 
L 718.582813 22.318125 
" style="fill:none;stroke:#000000;stroke-linecap:square;stroke-linejoin:miter;stroke-width:0.8;"/>
   </g>
   <g id="text_23">
    <!-- stat&amp;prob models -->
    <defs>
     <path d="M 24.3125 39.203125 
Q 19.875 35.25 17.796875 31.3125 
Q 15.71875 27.390625 15.71875 23.09375 
Q 15.71875 15.96875 20.890625 11.234375 
Q 26.078125 6.5 33.890625 6.5 
Q 38.53125 6.5 42.578125 8.03125 
Q 46.625 9.578125 50.203125 12.703125 
z
M 31.203125 44.671875 
L 56 19.28125 
Q 58.890625 23.640625 60.5 28.59375 
Q 62.109375 33.546875 62.40625 39.109375 
L 71.484375 39.109375 
Q 70.90625 32.671875 68.359375 26.359375 
Q 65.828125 20.0625 61.28125 13.921875 
L 74.90625 0 
L 62.59375 0 
L 55.609375 7.171875 
Q 50.53125 2.828125 44.96875 0.703125 
Q 39.40625 -1.421875 33.015625 -1.421875 
Q 21.234375 -1.421875 13.765625 5.296875 
Q 6.296875 12.015625 6.296875 22.515625 
Q 6.296875 28.765625 9.5625 34.25 
Q 12.84375 39.75 19.390625 44.578125 
Q 17.046875 47.65625 15.8125 50.703125 
Q 14.59375 53.765625 14.59375 56.6875 
Q 14.59375 64.59375 20.015625 69.40625 
Q 25.4375 74.21875 34.421875 74.21875 
Q 38.484375 74.21875 42.5 73.34375 
Q 46.53125 72.46875 50.6875 70.703125 
L 50.6875 61.8125 
Q 46.4375 64.109375 42.578125 65.296875 
Q 38.71875 66.5 35.40625 66.5 
Q 30.28125 66.5 27.078125 63.78125 
Q 23.875 61.078125 23.875 56.78125 
Q 23.875 54.296875 25.3125 51.78125 
Q 26.765625 49.265625 31.203125 44.671875 
z
" id="DejaVuSans-38"/>
     <path d="M 52 44.1875 
Q 55.375 50.25 60.0625 53.125 
Q 64.75 56 71.09375 56 
Q 79.640625 56 84.28125 50.015625 
Q 88.921875 44.046875 88.921875 33.015625 
L 88.921875 0 
L 79.890625 0 
L 79.890625 32.71875 
Q 79.890625 40.578125 77.09375 44.375 
Q 74.3125 48.1875 68.609375 48.1875 
Q 61.625 48.1875 57.5625 43.546875 
Q 53.515625 38.921875 53.515625 30.90625 
L 53.515625 0 
L 44.484375 0 
L 44.484375 32.71875 
Q 44.484375 40.625 41.703125 44.40625 
Q 38.921875 48.1875 33.109375 48.1875 
Q 26.21875 48.1875 22.15625 43.53125 
Q 18.109375 38.875 18.109375 30.90625 
L 18.109375 0 
L 9.078125 0 
L 9.078125 54.6875 
L 18.109375 54.6875 
L 18.109375 46.1875 
Q 21.1875 51.21875 25.484375 53.609375 
Q 29.78125 56 35.6875 56 
Q 41.65625 56 45.828125 52.96875 
Q 50 49.953125 52 44.1875 
z
" id="DejaVuSans-109"/>
    </defs>
    <g transform="translate(330.26 16.318125)scale(0.12 -0.12)">
     <use xlink:href="#DejaVuSans-115"/>
     <use x="52.099609" xlink:href="#DejaVuSans-116"/>
     <use x="91.308594" xlink:href="#DejaVuSans-97"/>
     <use x="152.587891" xlink:href="#DejaVuSans-116"/>
     <use x="191.796875" xlink:href="#DejaVuSans-38"/>
     <use x="269.775391" xlink:href="#DejaVuSans-112"/>
     <use x="333.251953" xlink:href="#DejaVuSans-114"/>
     <use x="372.115234" xlink:href="#DejaVuSans-111"/>
     <use x="433.296875" xlink:href="#DejaVuSans-98"/>
     <use x="496.773438" xlink:href="#DejaVuSans-32"/>
     <use x="528.560547" xlink:href="#DejaVuSans-109"/>
     <use x="625.972656" xlink:href="#DejaVuSans-111"/>
     <use x="687.154297" xlink:href="#DejaVuSans-100"/>
     <use x="750.630859" xlink:href="#DejaVuSans-101"/>
     <use x="812.154297" xlink:href="#DejaVuSans-108"/>
     <use x="839.9375" xlink:href="#DejaVuSans-115"/>
    </g>
   </g>
   <g id="legend_1">
    <g id="patch_7">
     <path d="M 747.366813 316.078125 
L 898.885563 316.078125 
Q 900.885563 316.078125 900.885563 314.078125 
L 900.885563 37.79375 
Q 900.885563 35.79375 898.885563 35.79375 
L 747.366813 35.79375 
Q 745.366813 35.79375 745.366813 37.79375 
L 745.366813 314.078125 
Q 745.366813 316.078125 747.366813 316.078125 
z
" style="fill:#ffffff;opacity:0.8;stroke:#cccccc;stroke-linejoin:miter;"/>
    </g>
    <g id="line2d_36">
     <path d="M 749.366813 43.892187 
L 769.366813 43.892187 
" style="fill:none;stroke:#000080;stroke-linecap:square;stroke-width:1.5;"/>
    </g>
    <g id="line2d_37">
     <g>
      <use style="fill:#000080;stroke:#000080;" x="759.366813" xlink:href="#m5a90312bb4" y="43.892187"/>
     </g>
    </g>
    <g id="text_24">
     <!-- Columbia_UNC:SurvCon -->
     <defs>
      <path d="M 64.40625 67.28125 
L 64.40625 56.890625 
Q 59.421875 61.53125 53.78125 63.8125 
Q 48.140625 66.109375 41.796875 66.109375 
Q 29.296875 66.109375 22.65625 58.46875 
Q 16.015625 50.828125 16.015625 36.375 
Q 16.015625 21.96875 22.65625 14.328125 
Q 29.296875 6.6875 41.796875 6.6875 
Q 48.140625 6.6875 53.78125 8.984375 
Q 59.421875 11.28125 64.40625 15.921875 
L 64.40625 5.609375 
Q 59.234375 2.09375 53.4375 0.328125 
Q 47.65625 -1.421875 41.21875 -1.421875 
Q 24.65625 -1.421875 15.125 8.703125 
Q 5.609375 18.84375 5.609375 36.375 
Q 5.609375 53.953125 15.125 64.078125 
Q 24.65625 74.21875 41.21875 74.21875 
Q 47.75 74.21875 53.53125 72.484375 
Q 59.328125 70.75 64.40625 67.28125 
z
" id="DejaVuSans-67"/>
      <path d="M 50.984375 -16.609375 
L 50.984375 -23.578125 
L -0.984375 -23.578125 
L -0.984375 -16.609375 
z
" id="DejaVuSans-95"/>
      <path d="M 8.6875 72.90625 
L 18.609375 72.90625 
L 18.609375 28.609375 
Q 18.609375 16.890625 22.84375 11.734375 
Q 27.09375 6.59375 36.625 6.59375 
Q 46.09375 6.59375 50.34375 11.734375 
Q 54.59375 16.890625 54.59375 28.609375 
L 54.59375 72.90625 
L 64.5 72.90625 
L 64.5 27.390625 
Q 64.5 13.140625 57.4375 5.859375 
Q 50.390625 -1.421875 36.625 -1.421875 
Q 22.796875 -1.421875 15.734375 5.859375 
Q 8.6875 13.140625 8.6875 27.390625 
z
" id="DejaVuSans-85"/>
      <path d="M 11.71875 12.40625 
L 22.015625 12.40625 
L 22.015625 0 
L 11.71875 0 
z
M 11.71875 51.703125 
L 22.015625 51.703125 
L 22.015625 39.3125 
L 11.71875 39.3125 
z
" id="DejaVuSans-58"/>
     </defs>
     <g transform="translate(777.366813 47.392187)scale(0.1 -0.1)">
      <use xlink:href="#DejaVuSans-67"/>
      <use x="69.824219" xlink:href="#DejaVuSans-111"/>
      <use x="131.005859" xlink:href="#DejaVuSans-108"/>
      <use x="158.789062" xlink:href="#DejaVuSans-117"/>
      <use x="222.167969" xlink:href="#DejaVuSans-109"/>
      <use x="319.580078" xlink:href="#DejaVuSans-98"/>
      <use x="383.056641" xlink:href="#DejaVuSans-105"/>
      <use x="410.839844" xlink:href="#DejaVuSans-97"/>
      <use x="472.119141" xlink:href="#DejaVuSans-95"/>
      <use x="522.119141" xlink:href="#DejaVuSans-85"/>
      <use x="595.3125" xlink:href="#DejaVuSans-78"/>
      <use x="670.117188" xlink:href="#DejaVuSans-67"/>
      <use x="739.941406" xlink:href="#DejaVuSans-58"/>
      <use x="773.632812" xlink:href="#DejaVuSans-83"/>
      <use x="837.109375" xlink:href="#DejaVuSans-117"/>
      <use x="900.488281" xlink:href="#DejaVuSans-114"/>
      <use x="941.601562" xlink:href="#DejaVuSans-118"/>
      <use x="1000.78125" xlink:href="#DejaVuSans-67"/>
      <use x="1070.605469" xlink:href="#DejaVuSans-111"/>
      <use x="1131.787109" xlink:href="#DejaVuSans-110"/>
     </g>
    </g>
    <g id="line2d_38">
     <path d="M 749.366813 62.848437 
L 769.366813 62.848437 
" style="fill:none;stroke:#0000ad;stroke-linecap:square;stroke-width:1.5;"/>
    </g>
    <g id="line2d_39">
     <g>
      <use style="fill:#0000ad;stroke:#0000ad;" x="759.366813" xlink:href="#m513073b9cc" y="62.848437"/>
     </g>
    </g>
    <g id="text_25">
     <!-- COVIDhub:baseline -->
     <defs>
      <path d="M 28.609375 0 
L 0.78125 72.90625 
L 11.078125 72.90625 
L 34.1875 11.53125 
L 57.328125 72.90625 
L 67.578125 72.90625 
L 39.796875 0 
z
" id="DejaVuSans-86"/>
      <path d="M 9.8125 72.90625 
L 19.671875 72.90625 
L 19.671875 0 
L 9.8125 0 
z
" id="DejaVuSans-73"/>
      <path d="M 54.890625 33.015625 
L 54.890625 0 
L 45.90625 0 
L 45.90625 32.71875 
Q 45.90625 40.484375 42.875 44.328125 
Q 39.84375 48.1875 33.796875 48.1875 
Q 26.515625 48.1875 22.3125 43.546875 
Q 18.109375 38.921875 18.109375 30.90625 
L 18.109375 0 
L 9.078125 0 
L 9.078125 75.984375 
L 18.109375 75.984375 
L 18.109375 46.1875 
Q 21.34375 51.125 25.703125 53.5625 
Q 30.078125 56 35.796875 56 
Q 45.21875 56 50.046875 50.171875 
Q 54.890625 44.34375 54.890625 33.015625 
z
" id="DejaVuSans-104"/>
     </defs>
     <g transform="translate(777.366813 66.348437)scale(0.1 -0.1)">
      <use xlink:href="#DejaVuSans-67"/>
      <use x="69.824219" xlink:href="#DejaVuSans-79"/>
      <use x="146.785156" xlink:href="#DejaVuSans-86"/>
      <use x="215.193359" xlink:href="#DejaVuSans-73"/>
      <use x="244.685547" xlink:href="#DejaVuSans-68"/>
      <use x="321.6875" xlink:href="#DejaVuSans-104"/>
      <use x="385.066406" xlink:href="#DejaVuSans-117"/>
      <use x="448.445312" xlink:href="#DejaVuSans-98"/>
      <use x="511.921875" xlink:href="#DejaVuSans-58"/>
      <use x="545.613281" xlink:href="#DejaVuSans-98"/>
      <use x="609.089844" xlink:href="#DejaVuSans-97"/>
      <use x="670.369141" xlink:href="#DejaVuSans-115"/>
      <use x="722.46875" xlink:href="#DejaVuSans-101"/>
      <use x="783.992188" xlink:href="#DejaVuSans-108"/>
      <use x="811.775391" xlink:href="#DejaVuSans-105"/>
      <use x="839.558594" xlink:href="#DejaVuSans-110"/>
      <use x="902.9375" xlink:href="#DejaVuSans-101"/>
     </g>
    </g>
    <g id="line2d_40">
     <path d="M 749.366813 81.526562 
L 769.366813 81.526562 
" style="fill:none;stroke:#0000da;stroke-linecap:square;stroke-width:1.5;"/>
    </g>
    <g id="line2d_41">
     <g>
      <use style="fill:#0000da;stroke:#0000da;" x="759.366813" xlink:href="#m68af78c9f0" y="81.526562"/>
     </g>
    </g>
    <g id="text_26">
     <!-- DDS:NBDS -->
     <defs>
      <path d="M 19.671875 34.8125 
L 19.671875 8.109375 
L 35.5 8.109375 
Q 43.453125 8.109375 47.28125 11.40625 
Q 51.125 14.703125 51.125 21.484375 
Q 51.125 28.328125 47.28125 31.5625 
Q 43.453125 34.8125 35.5 34.8125 
z
M 19.671875 64.796875 
L 19.671875 42.828125 
L 34.28125 42.828125 
Q 41.5 42.828125 45.03125 45.53125 
Q 48.578125 48.25 48.578125 53.8125 
Q 48.578125 59.328125 45.03125 62.0625 
Q 41.5 64.796875 34.28125 64.796875 
z
M 9.8125 72.90625 
L 35.015625 72.90625 
Q 46.296875 72.90625 52.390625 68.21875 
Q 58.5 63.53125 58.5 54.890625 
Q 58.5 48.1875 55.375 44.234375 
Q 52.25 40.28125 46.1875 39.3125 
Q 53.46875 37.75 57.5 32.78125 
Q 61.53125 27.828125 61.53125 20.40625 
Q 61.53125 10.640625 54.890625 5.3125 
Q 48.25 0 35.984375 0 
L 9.8125 0 
z
" id="DejaVuSans-66"/>
     </defs>
     <g transform="translate(777.366813 85.026562)scale(0.1 -0.1)">
      <use xlink:href="#DejaVuSans-68"/>
      <use x="77.001953" xlink:href="#DejaVuSans-68"/>
      <use x="154.003906" xlink:href="#DejaVuSans-83"/>
      <use x="217.480469" xlink:href="#DejaVuSans-58"/>
      <use x="251.171875" xlink:href="#DejaVuSans-78"/>
      <use x="325.976562" xlink:href="#DejaVuSans-66"/>
      <use x="394.580078" xlink:href="#DejaVuSans-68"/>
      <use x="471.582031" xlink:href="#DejaVuSans-83"/>
     </g>
    </g>
    <g id="line2d_42">
     <path d="M 749.366813 100.204687 
L 769.366813 100.204687 
" style="fill:none;stroke:#004cff;stroke-linecap:square;stroke-width:1.5;"/>
    </g>
    <g id="line2d_43">
     <g>
      <use style="fill:#004cff;stroke:#004cff;" x="759.366813" xlink:href="#mcbe4965809" y="100.204687"/>
     </g>
    </g>
    <g id="text_27">
     <!-- IHME:CurveFit -->
     <defs>
      <path d="M 9.8125 72.90625 
L 19.671875 72.90625 
L 19.671875 43.015625 
L 55.515625 43.015625 
L 55.515625 72.90625 
L 65.375 72.90625 
L 65.375 0 
L 55.515625 0 
L 55.515625 34.71875 
L 19.671875 34.71875 
L 19.671875 0 
L 9.8125 0 
z
" id="DejaVuSans-72"/>
     </defs>
     <g transform="translate(777.366813 103.704687)scale(0.1 -0.1)">
      <use xlink:href="#DejaVuSans-73"/>
      <use x="29.492188" xlink:href="#DejaVuSans-72"/>
      <use x="104.6875" xlink:href="#DejaVuSans-77"/>
      <use x="190.966797" xlink:href="#DejaVuSans-69"/>
      <use x="254.150391" xlink:href="#DejaVuSans-58"/>
      <use x="287.841797" xlink:href="#DejaVuSans-67"/>
      <use x="357.666016" xlink:href="#DejaVuSans-117"/>
      <use x="421.044922" xlink:href="#DejaVuSans-114"/>
      <use x="462.158203" xlink:href="#DejaVuSans-118"/>
      <use x="521.337891" xlink:href="#DejaVuSans-101"/>
      <use x="582.861328" xlink:href="#DejaVuSans-70"/>
      <use x="633.130859" xlink:href="#DejaVuSans-105"/>
      <use x="660.914062" xlink:href="#DejaVuSans-116"/>
     </g>
    </g>
    <g id="line2d_44">
     <path d="M 749.366813 118.882812 
L 769.366813 118.882812 
" style="fill:none;stroke:#0074ff;stroke-linecap:square;stroke-width:1.5;"/>
    </g>
    <g id="line2d_45">
     <g>
      <use style="fill:#0074ff;stroke:#0074ff;" x="759.366813" xlink:href="#mc9ef0dbef9" y="118.882812"/>
     </g>
    </g>
    <g id="text_28">
     <!-- IowaStateLW:STEM -->
     <defs>
      <path d="M 9.8125 72.90625 
L 19.671875 72.90625 
L 19.671875 8.296875 
L 55.171875 8.296875 
L 55.171875 0 
L 9.8125 0 
z
" id="DejaVuSans-76"/>
      <path d="M 3.328125 72.90625 
L 13.28125 72.90625 
L 28.609375 11.28125 
L 43.890625 72.90625 
L 54.984375 72.90625 
L 70.3125 11.28125 
L 85.59375 72.90625 
L 95.609375 72.90625 
L 77.296875 0 
L 64.890625 0 
L 49.515625 63.28125 
L 33.984375 0 
L 21.578125 0 
z
" id="DejaVuSans-87"/>
     </defs>
     <g transform="translate(777.366813 122.382812)scale(0.1 -0.1)">
      <use xlink:href="#DejaVuSans-73"/>
      <use x="29.492188" xlink:href="#DejaVuSans-111"/>
      <use x="90.673828" xlink:href="#DejaVuSans-119"/>
      <use x="172.460938" xlink:href="#DejaVuSans-97"/>
      <use x="233.740234" xlink:href="#DejaVuSans-83"/>
      <use x="297.216797" xlink:href="#DejaVuSans-116"/>
      <use x="336.425781" xlink:href="#DejaVuSans-97"/>
      <use x="397.705078" xlink:href="#DejaVuSans-116"/>
      <use x="436.914062" xlink:href="#DejaVuSans-101"/>
      <use x="498.4375" xlink:href="#DejaVuSans-76"/>
      <use x="545.025391" xlink:href="#DejaVuSans-87"/>
      <use x="638.027344" xlink:href="#DejaVuSans-58"/>
      <use x="671.71875" xlink:href="#DejaVuSans-83"/>
      <use x="735.195312" xlink:href="#DejaVuSans-84"/>
      <use x="796.279297" xlink:href="#DejaVuSans-69"/>
      <use x="859.462891" xlink:href="#DejaVuSans-77"/>
     </g>
    </g>
    <g id="line2d_46">
     <path d="M 749.366813 137.560937 
L 769.366813 137.560937 
" style="fill:none;stroke:#009cff;stroke-linecap:square;stroke-width:1.5;"/>
    </g>
    <g id="line2d_47">
     <g>
      <use style="fill:#009cff;stroke:#009cff;" x="759.366813" xlink:href="#md52bd74e11" y="137.560937"/>
     </g>
    </g>
    <g id="text_29">
     <!-- LANL:GrowthRate -->
     <defs>
      <path d="M 59.515625 10.40625 
L 59.515625 29.984375 
L 43.40625 29.984375 
L 43.40625 38.09375 
L 69.28125 38.09375 
L 69.28125 6.78125 
Q 63.578125 2.734375 56.6875 0.65625 
Q 49.8125 -1.421875 42 -1.421875 
Q 24.90625 -1.421875 15.25 8.5625 
Q 5.609375 18.5625 5.609375 36.375 
Q 5.609375 54.25 15.25 64.234375 
Q 24.90625 74.21875 42 74.21875 
Q 49.125 74.21875 55.546875 72.453125 
Q 61.96875 70.703125 67.390625 67.28125 
L 67.390625 56.78125 
Q 61.921875 61.421875 55.765625 63.765625 
Q 49.609375 66.109375 42.828125 66.109375 
Q 29.4375 66.109375 22.71875 58.640625 
Q 16.015625 51.171875 16.015625 36.375 
Q 16.015625 21.625 22.71875 14.15625 
Q 29.4375 6.6875 42.828125 6.6875 
Q 48.046875 6.6875 52.140625 7.59375 
Q 56.25 8.5 59.515625 10.40625 
z
" id="DejaVuSans-71"/>
      <path d="M 44.390625 34.1875 
Q 47.5625 33.109375 50.5625 29.59375 
Q 53.5625 26.078125 56.59375 19.921875 
L 66.609375 0 
L 56 0 
L 46.6875 18.703125 
Q 43.0625 26.03125 39.671875 28.421875 
Q 36.28125 30.8125 30.421875 30.8125 
L 19.671875 30.8125 
L 19.671875 0 
L 9.8125 0 
L 9.8125 72.90625 
L 32.078125 72.90625 
Q 44.578125 72.90625 50.734375 67.671875 
Q 56.890625 62.453125 56.890625 51.90625 
Q 56.890625 45.015625 53.6875 40.46875 
Q 50.484375 35.9375 44.390625 34.1875 
z
M 19.671875 64.796875 
L 19.671875 38.921875 
L 32.078125 38.921875 
Q 39.203125 38.921875 42.84375 42.21875 
Q 46.484375 45.515625 46.484375 51.90625 
Q 46.484375 58.296875 42.84375 61.546875 
Q 39.203125 64.796875 32.078125 64.796875 
z
" id="DejaVuSans-82"/>
     </defs>
     <g transform="translate(777.366813 141.060937)scale(0.1 -0.1)">
      <use xlink:href="#DejaVuSans-76"/>
      <use x="57.962891" xlink:href="#DejaVuSans-65"/>
      <use x="126.371094" xlink:href="#DejaVuSans-78"/>
      <use x="201.175781" xlink:href="#DejaVuSans-76"/>
      <use x="256.888672" xlink:href="#DejaVuSans-58"/>
      <use x="290.580078" xlink:href="#DejaVuSans-71"/>
      <use x="368.070312" xlink:href="#DejaVuSans-114"/>
      <use x="406.933594" xlink:href="#DejaVuSans-111"/>
      <use x="468.115234" xlink:href="#DejaVuSans-119"/>
      <use x="549.902344" xlink:href="#DejaVuSans-116"/>
      <use x="589.111328" xlink:href="#DejaVuSans-104"/>
      <use x="652.490234" xlink:href="#DejaVuSans-82"/>
      <use x="719.722656" xlink:href="#DejaVuSans-97"/>
      <use x="781.001953" xlink:href="#DejaVuSans-116"/>
      <use x="820.210938" xlink:href="#DejaVuSans-101"/>
     </g>
    </g>
    <g id="line2d_48">
     <path d="M 749.366813 156.239062 
L 769.366813 156.239062 
" style="fill:none;stroke:#00c4ff;stroke-linecap:square;stroke-width:1.5;"/>
    </g>
    <g id="line2d_49">
     <g>
      <use style="fill:#00c4ff;stroke:#00c4ff;" x="759.366813" xlink:href="#m2f0ff292cf" y="156.239062"/>
     </g>
    </g>
    <g id="text_30">
     <!-- QJHong:Encounter -->
     <defs>
      <path d="M 39.40625 66.21875 
Q 28.65625 66.21875 22.328125 58.203125 
Q 16.015625 50.203125 16.015625 36.375 
Q 16.015625 22.609375 22.328125 14.59375 
Q 28.65625 6.59375 39.40625 6.59375 
Q 50.140625 6.59375 56.421875 14.59375 
Q 62.703125 22.609375 62.703125 36.375 
Q 62.703125 50.203125 56.421875 58.203125 
Q 50.140625 66.21875 39.40625 66.21875 
z
M 53.21875 1.3125 
L 66.21875 -12.890625 
L 54.296875 -12.890625 
L 43.5 -1.21875 
Q 41.890625 -1.3125 41.03125 -1.359375 
Q 40.1875 -1.421875 39.40625 -1.421875 
Q 24.03125 -1.421875 14.8125 8.859375 
Q 5.609375 19.140625 5.609375 36.375 
Q 5.609375 53.65625 14.8125 63.9375 
Q 24.03125 74.21875 39.40625 74.21875 
Q 54.734375 74.21875 63.90625 63.9375 
Q 73.09375 53.65625 73.09375 36.375 
Q 73.09375 23.6875 67.984375 14.640625 
Q 62.890625 5.609375 53.21875 1.3125 
z
" id="DejaVuSans-81"/>
     </defs>
     <g transform="translate(777.366813 159.739062)scale(0.1 -0.1)">
      <use xlink:href="#DejaVuSans-81"/>
      <use x="78.710938" xlink:href="#DejaVuSans-74"/>
      <use x="108.203125" xlink:href="#DejaVuSans-72"/>
      <use x="183.398438" xlink:href="#DejaVuSans-111"/>
      <use x="244.580078" xlink:href="#DejaVuSans-110"/>
      <use x="307.958984" xlink:href="#DejaVuSans-103"/>
      <use x="371.435547" xlink:href="#DejaVuSans-58"/>
      <use x="405.126953" xlink:href="#DejaVuSans-69"/>
      <use x="468.310547" xlink:href="#DejaVuSans-110"/>
      <use x="531.689453" xlink:href="#DejaVuSans-99"/>
      <use x="586.669922" xlink:href="#DejaVuSans-111"/>
      <use x="647.851562" xlink:href="#DejaVuSans-117"/>
      <use x="711.230469" xlink:href="#DejaVuSans-110"/>
      <use x="774.609375" xlink:href="#DejaVuSans-116"/>
      <use x="813.818359" xlink:href="#DejaVuSans-101"/>
      <use x="875.341797" xlink:href="#DejaVuSans-114"/>
     </g>
    </g>
    <g id="line2d_50">
     <path d="M 749.366813 174.917187 
L 769.366813 174.917187 
" style="fill:none;stroke:#09f0ee;stroke-linecap:square;stroke-width:1.5;"/>
    </g>
    <g id="line2d_51">
     <g>
      <use style="fill:#09f0ee;stroke:#09f0ee;" x="759.366813" xlink:href="#m573c65fc75" y="174.917187"/>
     </g>
    </g>
    <g id="text_31">
     <!-- RobertWalraven:ESG -->
     <g transform="translate(777.366813 178.417187)scale(0.1 -0.1)">
      <use xlink:href="#DejaVuSans-82"/>
      <use x="64.982422" xlink:href="#DejaVuSans-111"/>
      <use x="126.164062" xlink:href="#DejaVuSans-98"/>
      <use x="189.640625" xlink:href="#DejaVuSans-101"/>
      <use x="251.164062" xlink:href="#DejaVuSans-114"/>
      <use x="292.277344" xlink:href="#DejaVuSans-116"/>
      <use x="331.486328" xlink:href="#DejaVuSans-87"/>
      <use x="423.988281" xlink:href="#DejaVuSans-97"/>
      <use x="485.267578" xlink:href="#DejaVuSans-108"/>
      <use x="513.050781" xlink:href="#DejaVuSans-114"/>
      <use x="554.164062" xlink:href="#DejaVuSans-97"/>
      <use x="615.443359" xlink:href="#DejaVuSans-118"/>
      <use x="674.623047" xlink:href="#DejaVuSans-101"/>
      <use x="736.146484" xlink:href="#DejaVuSans-110"/>
      <use x="799.525391" xlink:href="#DejaVuSans-58"/>
      <use x="833.216797" xlink:href="#DejaVuSans-69"/>
      <use x="896.400391" xlink:href="#DejaVuSans-83"/>
      <use x="959.876953" xlink:href="#DejaVuSans-71"/>
     </g>
    </g>
    <g id="line2d_52">
     <path d="M 749.366813 193.595312 
L 769.366813 193.595312 
" style="fill:none;stroke:#6aff8d;stroke-linecap:square;stroke-width:1.5;"/>
    </g>
    <g id="line2d_53">
     <g>
      <use style="fill:#6aff8d;stroke:#6aff8d;" x="759.366813" xlink:href="#m601cf0cff6" y="193.595312"/>
     </g>
    </g>
    <g id="text_32">
     <!-- CEID:Walk -->
     <g transform="translate(777.366813 197.095312)scale(0.1 -0.1)">
      <use xlink:href="#DejaVuSans-67"/>
      <use x="69.824219" xlink:href="#DejaVuSans-69"/>
      <use x="133.007812" xlink:href="#DejaVuSans-73"/>
      <use x="162.5" xlink:href="#DejaVuSans-68"/>
      <use x="239.501953" xlink:href="#DejaVuSans-58"/>
      <use x="273.193359" xlink:href="#DejaVuSans-87"/>
      <use x="365.695312" xlink:href="#DejaVuSans-97"/>
      <use x="426.974609" xlink:href="#DejaVuSans-108"/>
      <use x="454.757812" xlink:href="#DejaVuSans-107"/>
     </g>
    </g>
    <g id="line2d_54">
     <path d="M 749.366813 212.273437 
L 769.366813 212.273437 
" style="fill:none;stroke:#ceff29;stroke-linecap:square;stroke-width:1.5;"/>
    </g>
    <g id="line2d_55">
     <g>
      <use style="fill:#ceff29;stroke:#ceff29;" x="759.366813" xlink:href="#m9283fa116b" y="212.273437"/>
     </g>
    </g>
    <g id="text_33">
     <!-- JCB:PRM -->
     <defs>
      <path d="M 19.671875 64.796875 
L 19.671875 37.40625 
L 32.078125 37.40625 
Q 38.96875 37.40625 42.71875 40.96875 
Q 46.484375 44.53125 46.484375 51.125 
Q 46.484375 57.671875 42.71875 61.234375 
Q 38.96875 64.796875 32.078125 64.796875 
z
M 9.8125 72.90625 
L 32.078125 72.90625 
Q 44.34375 72.90625 50.609375 67.359375 
Q 56.890625 61.8125 56.890625 51.125 
Q 56.890625 40.328125 50.609375 34.8125 
Q 44.34375 29.296875 32.078125 29.296875 
L 19.671875 29.296875 
L 19.671875 0 
L 9.8125 0 
z
" id="DejaVuSans-80"/>
     </defs>
     <g transform="translate(777.366813 215.773437)scale(0.1 -0.1)">
      <use xlink:href="#DejaVuSans-74"/>
      <use x="29.492188" xlink:href="#DejaVuSans-67"/>
      <use x="99.316406" xlink:href="#DejaVuSans-66"/>
      <use x="167.919922" xlink:href="#DejaVuSans-58"/>
      <use x="201.611328" xlink:href="#DejaVuSans-80"/>
      <use x="261.914062" xlink:href="#DejaVuSans-82"/>
      <use x="331.396484" xlink:href="#DejaVuSans-77"/>
     </g>
    </g>
    <g id="line2d_56">
     <path d="M 749.366813 230.951562 
L 769.366813 230.951562 
" style="fill:none;stroke:#eeff09;stroke-linecap:square;stroke-width:1.5;"/>
    </g>
    <g id="line2d_57">
     <g>
      <use style="fill:#eeff09;stroke:#eeff09;" x="759.366813" xlink:href="#mb64582764a" y="230.951562"/>
     </g>
    </g>
    <g id="text_34">
     <!-- JHU_CSSE:DECOM -->
     <g transform="translate(777.366813 234.451562)scale(0.1 -0.1)">
      <use xlink:href="#DejaVuSans-74"/>
      <use x="29.492188" xlink:href="#DejaVuSans-72"/>
      <use x="104.6875" xlink:href="#DejaVuSans-85"/>
      <use x="177.880859" xlink:href="#DejaVuSans-95"/>
      <use x="227.880859" xlink:href="#DejaVuSans-67"/>
      <use x="297.705078" xlink:href="#DejaVuSans-83"/>
      <use x="361.181641" xlink:href="#DejaVuSans-83"/>
      <use x="424.658203" xlink:href="#DejaVuSans-69"/>
      <use x="487.841797" xlink:href="#DejaVuSans-58"/>
      <use x="521.533203" xlink:href="#DejaVuSans-68"/>
      <use x="598.535156" xlink:href="#DejaVuSans-69"/>
      <use x="661.71875" xlink:href="#DejaVuSans-67"/>
      <use x="731.542969" xlink:href="#DejaVuSans-79"/>
      <use x="810.253906" xlink:href="#DejaVuSans-77"/>
     </g>
    </g>
    <g id="line2d_58">
     <path d="M 749.366813 249.907812 
L 769.366813 249.907812 
" style="fill:none;stroke:#ffb200;stroke-linecap:square;stroke-width:1.5;"/>
    </g>
    <g id="line2d_59">
     <g>
      <use style="fill:#ffb200;stroke:#ffb200;" x="759.366813" xlink:href="#m46725ef975" y="249.907812"/>
     </g>
    </g>
    <g id="text_35">
     <!-- IEM_MED:CovidProject -->
     <defs>
      <path d="M 9.421875 54.6875 
L 18.40625 54.6875 
L 18.40625 -0.984375 
Q 18.40625 -11.421875 14.421875 -16.109375 
Q 10.453125 -20.796875 1.609375 -20.796875 
L -1.8125 -20.796875 
L -1.8125 -13.1875 
L 0.59375 -13.1875 
Q 5.71875 -13.1875 7.5625 -10.8125 
Q 9.421875 -8.453125 9.421875 -0.984375 
z
M 9.421875 75.984375 
L 18.40625 75.984375 
L 18.40625 64.59375 
L 9.421875 64.59375 
z
" id="DejaVuSans-106"/>
     </defs>
     <g transform="translate(777.366813 253.407812)scale(0.1 -0.1)">
      <use xlink:href="#DejaVuSans-73"/>
      <use x="29.492188" xlink:href="#DejaVuSans-69"/>
      <use x="92.675781" xlink:href="#DejaVuSans-77"/>
      <use x="178.955078" xlink:href="#DejaVuSans-95"/>
      <use x="228.955078" xlink:href="#DejaVuSans-77"/>
      <use x="315.234375" xlink:href="#DejaVuSans-69"/>
      <use x="378.417969" xlink:href="#DejaVuSans-68"/>
      <use x="455.419922" xlink:href="#DejaVuSans-58"/>
      <use x="489.111328" xlink:href="#DejaVuSans-67"/>
      <use x="558.935547" xlink:href="#DejaVuSans-111"/>
      <use x="620.117188" xlink:href="#DejaVuSans-118"/>
      <use x="679.296875" xlink:href="#DejaVuSans-105"/>
      <use x="707.080078" xlink:href="#DejaVuSans-100"/>
      <use x="770.556641" xlink:href="#DejaVuSans-80"/>
      <use x="829.109375" xlink:href="#DejaVuSans-114"/>
      <use x="867.972656" xlink:href="#DejaVuSans-111"/>
      <use x="929.154297" xlink:href="#DejaVuSans-106"/>
      <use x="956.9375" xlink:href="#DejaVuSans-101"/>
      <use x="1018.460938" xlink:href="#DejaVuSans-99"/>
      <use x="1073.441406" xlink:href="#DejaVuSans-116"/>
     </g>
    </g>
    <g id="line2d_60">
     <path d="M 749.366813 268.864062 
L 769.366813 268.864062 
" style="fill:none;stroke:#ff6800;stroke-linecap:square;stroke-width:1.5;"/>
    </g>
    <g id="line2d_61">
     <g>
      <use style="fill:#ff6800;stroke:#ff6800;" x="759.366813" xlink:href="#m3f7475c8aa" y="268.864062"/>
     </g>
    </g>
    <g id="text_36">
     <!-- OneQuietNight:ML -->
     <g transform="translate(777.366813 272.364062)scale(0.1 -0.1)">
      <use xlink:href="#DejaVuSans-79"/>
      <use x="78.710938" xlink:href="#DejaVuSans-110"/>
      <use x="142.089844" xlink:href="#DejaVuSans-101"/>
      <use x="203.613281" xlink:href="#DejaVuSans-81"/>
      <use x="282.324219" xlink:href="#DejaVuSans-117"/>
      <use x="345.703125" xlink:href="#DejaVuSans-105"/>
      <use x="373.486328" xlink:href="#DejaVuSans-101"/>
      <use x="435.009766" xlink:href="#DejaVuSans-116"/>
      <use x="474.21875" xlink:href="#DejaVuSans-78"/>
      <use x="549.023438" xlink:href="#DejaVuSans-105"/>
      <use x="576.806641" xlink:href="#DejaVuSans-103"/>
      <use x="640.283203" xlink:href="#DejaVuSans-104"/>
      <use x="703.662109" xlink:href="#DejaVuSans-116"/>
      <use x="742.871094" xlink:href="#DejaVuSans-58"/>
      <use x="776.5625" xlink:href="#DejaVuSans-77"/>
      <use x="862.841797" xlink:href="#DejaVuSans-76"/>
     </g>
    </g>
    <g id="line2d_62">
     <path d="M 749.366813 287.542187 
L 769.366813 287.542187 
" style="fill:none;stroke:#ff1a00;stroke-linecap:square;stroke-width:1.5;"/>
    </g>
    <g id="line2d_63">
     <g>
      <use style="fill:#ff1a00;stroke:#ff1a00;" x="759.366813" xlink:href="#me1c9714f42" y="287.542187"/>
     </g>
    </g>
    <g id="text_37">
     <!-- Microsoft:DeepSTIA -->
     <g transform="translate(777.366813 291.042187)scale(0.1 -0.1)">
      <use xlink:href="#DejaVuSans-77"/>
      <use x="86.279297" xlink:href="#DejaVuSans-105"/>
      <use x="114.0625" xlink:href="#DejaVuSans-99"/>
      <use x="169.042969" xlink:href="#DejaVuSans-114"/>
      <use x="207.90625" xlink:href="#DejaVuSans-111"/>
      <use x="269.087891" xlink:href="#DejaVuSans-115"/>
      <use x="321.1875" xlink:href="#DejaVuSans-111"/>
      <use x="382.369141" xlink:href="#DejaVuSans-102"/>
      <use x="415.824219" xlink:href="#DejaVuSans-116"/>
      <use x="455.033203" xlink:href="#DejaVuSans-58"/>
      <use x="488.724609" xlink:href="#DejaVuSans-68"/>
      <use x="565.726562" xlink:href="#DejaVuSans-101"/>
      <use x="627.25" xlink:href="#DejaVuSans-101"/>
      <use x="688.773438" xlink:href="#DejaVuSans-112"/>
      <use x="752.25" xlink:href="#DejaVuSans-83"/>
      <use x="815.726562" xlink:href="#DejaVuSans-84"/>
      <use x="876.810547" xlink:href="#DejaVuSans-73"/>
      <use x="906.302734" xlink:href="#DejaVuSans-65"/>
     </g>
    </g>
    <g id="line2d_64">
     <path d="M 749.366813 306.220312 
L 769.366813 306.220312 
" style="fill:none;stroke:#800000;stroke-linecap:square;stroke-width:1.5;"/>
    </g>
    <g id="line2d_65">
     <g>
      <use style="fill:#800000;stroke:#800000;" x="759.366813" xlink:href="#mcf9b6b2227" y="306.220312"/>
     </g>
    </g>
    <g id="text_38">
     <!-- MIT_ISOLAT:Mixtures -->
     <defs>
      <path d="M 54.890625 54.6875 
L 35.109375 28.078125 
L 55.90625 0 
L 45.3125 0 
L 29.390625 21.484375 
L 13.484375 0 
L 2.875 0 
L 24.125 28.609375 
L 4.6875 54.6875 
L 15.28125 54.6875 
L 29.78125 35.203125 
L 44.28125 54.6875 
z
" id="DejaVuSans-120"/>
     </defs>
     <g transform="translate(777.366813 309.720312)scale(0.1 -0.1)">
      <use xlink:href="#DejaVuSans-77"/>
      <use x="86.279297" xlink:href="#DejaVuSans-73"/>
      <use x="115.771484" xlink:href="#DejaVuSans-84"/>
      <use x="176.855469" xlink:href="#DejaVuSans-95"/>
      <use x="226.855469" xlink:href="#DejaVuSans-73"/>
      <use x="256.347656" xlink:href="#DejaVuSans-83"/>
      <use x="319.824219" xlink:href="#DejaVuSans-79"/>
      <use x="398.535156" xlink:href="#DejaVuSans-76"/>
      <use x="456.498047" xlink:href="#DejaVuSans-65"/>
      <use x="517.15625" xlink:href="#DejaVuSans-84"/>
      <use x="567.240234" xlink:href="#DejaVuSans-58"/>
      <use x="600.931641" xlink:href="#DejaVuSans-77"/>
      <use x="687.210938" xlink:href="#DejaVuSans-105"/>
      <use x="714.994141" xlink:href="#DejaVuSans-120"/>
      <use x="774.173828" xlink:href="#DejaVuSans-116"/>
      <use x="813.382812" xlink:href="#DejaVuSans-117"/>
      <use x="876.761719" xlink:href="#DejaVuSans-114"/>
      <use x="915.625" xlink:href="#DejaVuSans-101"/>
      <use x="977.148438" xlink:href="#DejaVuSans-115"/>
     </g>
    </g>
   </g>
  </g>
 </g>
 <defs>
  <clipPath id="pc4ddcd6daf">
   <rect height="293.76" width="669.6" x="48.982813" y="22.318125"/>
  </clipPath>
 </defs>
</svg>
