<?xml version="1.0" encoding="utf-8" standalone="no"?>
<!DOCTYPE svg PUBLIC "-//W3C//DTD SVG 1.1//EN"
  "http://www.w3.org/Graphics/SVG/1.1/DTD/svg11.dtd">
<!-- Created with matplotlib (https://matplotlib.org/) -->
<svg height="409.064358pt" version="1.1" viewBox="0 0 881.044937 409.064358" width="881.044937pt" xmlns="http://www.w3.org/2000/svg" xmlns:xlink="http://www.w3.org/1999/xlink">
 <defs>
  <style type="text/css">
*{stroke-linecap:butt;stroke-linejoin:round;}
  </style>
 </defs>
 <g id="figure_1">
  <g id="patch_1">
   <path d="M 0 409.064358 
L 881.044937 409.064358 
L 881.044937 0 
L 0 0 
z
" style="fill:#ffffff;"/>
  </g>
  <g id="axes_1">
   <g id="patch_2">
    <path d="M 48.982813 348.478125 
L 718.582813 348.478125 
L 718.582813 22.318125 
L 48.982813 22.318125 
z
" style="fill:#ffffff;"/>
   </g>
   <g id="matplotlib.axis_1">
    <g id="xtick_1">
     <g id="line2d_1">
      <defs>
       <path d="M 0 0 
L 0 3.5 
" id="m9d947fcd0a" style="stroke:#000000;stroke-width:0.8;"/>
      </defs>
      <g>
       <use style="stroke:#000000;stroke-width:0.8;" x="48.982813" xlink:href="#m9d947fcd0a" y="348.478125"/>
      </g>
     </g>
     <g id="text_1">
      <!-- Apr 25 -->
      <defs>
       <path d="M 34.1875 63.1875 
L 20.796875 26.90625 
L 47.609375 26.90625 
z
M 28.609375 72.90625 
L 39.796875 72.90625 
L 67.578125 0 
L 57.328125 0 
L 50.6875 18.703125 
L 17.828125 18.703125 
L 11.1875 0 
L 0.78125 0 
z
" id="DejaVuSans-65"/>
       <path d="M 18.109375 8.203125 
L 18.109375 -20.796875 
L 9.078125 -20.796875 
L 9.078125 54.6875 
L 18.109375 54.6875 
L 18.109375 46.390625 
Q 20.953125 51.265625 25.265625 53.625 
Q 29.59375 56 35.59375 56 
Q 45.5625 56 51.78125 48.09375 
Q 58.015625 40.1875 58.015625 27.296875 
Q 58.015625 14.40625 51.78125 6.484375 
Q 45.5625 -1.421875 35.59375 -1.421875 
Q 29.59375 -1.421875 25.265625 0.953125 
Q 20.953125 3.328125 18.109375 8.203125 
z
M 48.6875 27.296875 
Q 48.6875 37.203125 44.609375 42.84375 
Q 40.53125 48.484375 33.40625 48.484375 
Q 26.265625 48.484375 22.1875 42.84375 
Q 18.109375 37.203125 18.109375 27.296875 
Q 18.109375 17.390625 22.1875 11.75 
Q 26.265625 6.109375 33.40625 6.109375 
Q 40.53125 6.109375 44.609375 11.75 
Q 48.6875 17.390625 48.6875 27.296875 
z
" id="DejaVuSans-112"/>
       <path d="M 41.109375 46.296875 
Q 39.59375 47.171875 37.8125 47.578125 
Q 36.03125 48 33.890625 48 
Q 26.265625 48 22.1875 43.046875 
Q 18.109375 38.09375 18.109375 28.8125 
L 18.109375 0 
L 9.078125 0 
L 9.078125 54.6875 
L 18.109375 54.6875 
L 18.109375 46.1875 
Q 20.953125 51.171875 25.484375 53.578125 
Q 30.03125 56 36.53125 56 
Q 37.453125 56 38.578125 55.875 
Q 39.703125 55.765625 41.0625 55.515625 
z
" id="DejaVuSans-114"/>
       <path id="DejaVuSans-32"/>
       <path d="M 19.1875 8.296875 
L 53.609375 8.296875 
L 53.609375 0 
L 7.328125 0 
L 7.328125 8.296875 
Q 12.9375 14.109375 22.625 23.890625 
Q 32.328125 33.6875 34.8125 36.53125 
Q 39.546875 41.84375 41.421875 45.53125 
Q 43.3125 49.21875 43.3125 52.78125 
Q 43.3125 58.59375 39.234375 62.25 
Q 35.15625 65.921875 28.609375 65.921875 
Q 23.96875 65.921875 18.8125 64.3125 
Q 13.671875 62.703125 7.8125 59.421875 
L 7.8125 69.390625 
Q 13.765625 71.78125 18.9375 73 
Q 24.125 74.21875 28.421875 74.21875 
Q 39.75 74.21875 46.484375 68.546875 
Q 53.21875 62.890625 53.21875 53.421875 
Q 53.21875 48.921875 51.53125 44.890625 
Q 49.859375 40.875 45.40625 35.40625 
Q 44.1875 33.984375 37.640625 27.21875 
Q 31.109375 20.453125 19.1875 8.296875 
z
" id="DejaVuSans-50"/>
       <path d="M 10.796875 72.90625 
L 49.515625 72.90625 
L 49.515625 64.59375 
L 19.828125 64.59375 
L 19.828125 46.734375 
Q 21.96875 47.46875 24.109375 47.828125 
Q 26.265625 48.1875 28.421875 48.1875 
Q 40.625 48.1875 47.75 41.5 
Q 54.890625 34.8125 54.890625 23.390625 
Q 54.890625 11.625 47.5625 5.09375 
Q 40.234375 -1.421875 26.90625 -1.421875 
Q 22.3125 -1.421875 17.546875 -0.640625 
Q 12.796875 0.140625 7.71875 1.703125 
L 7.71875 11.625 
Q 12.109375 9.234375 16.796875 8.0625 
Q 21.484375 6.890625 26.703125 6.890625 
Q 35.15625 6.890625 40.078125 11.328125 
Q 45.015625 15.765625 45.015625 23.390625 
Q 45.015625 31 40.078125 35.4375 
Q 35.15625 39.890625 26.703125 39.890625 
Q 22.75 39.890625 18.8125 39.015625 
Q 14.890625 38.140625 10.796875 36.28125 
z
" id="DejaVuSans-53"/>
      </defs>
      <g transform="translate(39.194908 384.329187)rotate(-45)scale(0.1 -0.1)">
       <use xlink:href="#DejaVuSans-65"/>
       <use x="68.408203" xlink:href="#DejaVuSans-112"/>
       <use x="131.884766" xlink:href="#DejaVuSans-114"/>
       <use x="172.998047" xlink:href="#DejaVuSans-32"/>
       <use x="204.785156" xlink:href="#DejaVuSans-50"/>
       <use x="268.408203" xlink:href="#DejaVuSans-53"/>
      </g>
     </g>
    </g>
    <g id="xtick_2">
     <g id="line2d_2">
      <g>
       <use style="stroke:#000000;stroke-width:0.8;" x="115.942813" xlink:href="#m9d947fcd0a" y="348.478125"/>
      </g>
     </g>
     <g id="text_2">
      <!-- May 23 -->
      <defs>
       <path d="M 9.8125 72.90625 
L 24.515625 72.90625 
L 43.109375 23.296875 
L 61.8125 72.90625 
L 76.515625 72.90625 
L 76.515625 0 
L 66.890625 0 
L 66.890625 64.015625 
L 48.09375 14.015625 
L 38.1875 14.015625 
L 19.390625 64.015625 
L 19.390625 0 
L 9.8125 0 
z
" id="DejaVuSans-77"/>
       <path d="M 34.28125 27.484375 
Q 23.390625 27.484375 19.1875 25 
Q 14.984375 22.515625 14.984375 16.5 
Q 14.984375 11.71875 18.140625 8.90625 
Q 21.296875 6.109375 26.703125 6.109375 
Q 34.1875 6.109375 38.703125 11.40625 
Q 43.21875 16.703125 43.21875 25.484375 
L 43.21875 27.484375 
z
M 52.203125 31.203125 
L 52.203125 0 
L 43.21875 0 
L 43.21875 8.296875 
Q 40.140625 3.328125 35.546875 0.953125 
Q 30.953125 -1.421875 24.3125 -1.421875 
Q 15.921875 -1.421875 10.953125 3.296875 
Q 6 8.015625 6 15.921875 
Q 6 25.140625 12.171875 29.828125 
Q 18.359375 34.515625 30.609375 34.515625 
L 43.21875 34.515625 
L 43.21875 35.40625 
Q 43.21875 41.609375 39.140625 45 
Q 35.0625 48.390625 27.6875 48.390625 
Q 23 48.390625 18.546875 47.265625 
Q 14.109375 46.140625 10.015625 43.890625 
L 10.015625 52.203125 
Q 14.9375 54.109375 19.578125 55.046875 
Q 24.21875 56 28.609375 56 
Q 40.484375 56 46.34375 49.84375 
Q 52.203125 43.703125 52.203125 31.203125 
z
" id="DejaVuSans-97"/>
       <path d="M 32.171875 -5.078125 
Q 28.375 -14.84375 24.75 -17.8125 
Q 21.140625 -20.796875 15.09375 -20.796875 
L 7.90625 -20.796875 
L 7.90625 -13.28125 
L 13.1875 -13.28125 
Q 16.890625 -13.28125 18.9375 -11.515625 
Q 21 -9.765625 23.484375 -3.21875 
L 25.09375 0.875 
L 2.984375 54.6875 
L 12.5 54.6875 
L 29.59375 11.921875 
L 46.6875 54.6875 
L 56.203125 54.6875 
z
" id="DejaVuSans-121"/>
       <path d="M 40.578125 39.3125 
Q 47.65625 37.796875 51.625 33 
Q 55.609375 28.21875 55.609375 21.1875 
Q 55.609375 10.40625 48.1875 4.484375 
Q 40.765625 -1.421875 27.09375 -1.421875 
Q 22.515625 -1.421875 17.65625 -0.515625 
Q 12.796875 0.390625 7.625 2.203125 
L 7.625 11.71875 
Q 11.71875 9.328125 16.59375 8.109375 
Q 21.484375 6.890625 26.8125 6.890625 
Q 36.078125 6.890625 40.9375 10.546875 
Q 45.796875 14.203125 45.796875 21.1875 
Q 45.796875 27.640625 41.28125 31.265625 
Q 36.765625 34.90625 28.71875 34.90625 
L 20.21875 34.90625 
L 20.21875 43.015625 
L 29.109375 43.015625 
Q 36.375 43.015625 40.234375 45.921875 
Q 44.09375 48.828125 44.09375 54.296875 
Q 44.09375 59.90625 40.109375 62.90625 
Q 36.140625 65.921875 28.71875 65.921875 
Q 24.65625 65.921875 20.015625 65.03125 
Q 15.375 64.15625 9.8125 62.3125 
L 9.8125 71.09375 
Q 15.4375 72.65625 20.34375 73.4375 
Q 25.25 74.21875 29.59375 74.21875 
Q 40.828125 74.21875 47.359375 69.109375 
Q 53.90625 64.015625 53.90625 55.328125 
Q 53.90625 49.265625 50.4375 45.09375 
Q 46.96875 40.921875 40.578125 39.3125 
z
" id="DejaVuSans-51"/>
      </defs>
      <g transform="translate(104.961665 386.715672)rotate(-45)scale(0.1 -0.1)">
       <use xlink:href="#DejaVuSans-77"/>
       <use x="86.279297" xlink:href="#DejaVuSans-97"/>
       <use x="147.558594" xlink:href="#DejaVuSans-121"/>
       <use x="206.738281" xlink:href="#DejaVuSans-32"/>
       <use x="238.525391" xlink:href="#DejaVuSans-50"/>
       <use x="302.148438" xlink:href="#DejaVuSans-51"/>
      </g>
     </g>
    </g>
    <g id="xtick_3">
     <g id="line2d_3">
      <g>
       <use style="stroke:#000000;stroke-width:0.8;" x="182.902813" xlink:href="#m9d947fcd0a" y="348.478125"/>
      </g>
     </g>
     <g id="text_3">
      <!-- Jun 20 -->
      <defs>
       <path d="M 9.8125 72.90625 
L 19.671875 72.90625 
L 19.671875 5.078125 
Q 19.671875 -8.109375 14.671875 -14.0625 
Q 9.671875 -20.015625 -1.421875 -20.015625 
L -5.171875 -20.015625 
L -5.171875 -11.71875 
L -2.09375 -11.71875 
Q 4.4375 -11.71875 7.125 -8.046875 
Q 9.8125 -4.390625 9.8125 5.078125 
z
" id="DejaVuSans-74"/>
       <path d="M 8.5 21.578125 
L 8.5 54.6875 
L 17.484375 54.6875 
L 17.484375 21.921875 
Q 17.484375 14.15625 20.5 10.265625 
Q 23.53125 6.390625 29.59375 6.390625 
Q 36.859375 6.390625 41.078125 11.03125 
Q 45.3125 15.671875 45.3125 23.6875 
L 45.3125 54.6875 
L 54.296875 54.6875 
L 54.296875 0 
L 45.3125 0 
L 45.3125 8.40625 
Q 42.046875 3.421875 37.71875 1 
Q 33.40625 -1.421875 27.6875 -1.421875 
Q 18.265625 -1.421875 13.375 4.4375 
Q 8.5 10.296875 8.5 21.578125 
z
M 31.109375 56 
z
" id="DejaVuSans-117"/>
       <path d="M 54.890625 33.015625 
L 54.890625 0 
L 45.90625 0 
L 45.90625 32.71875 
Q 45.90625 40.484375 42.875 44.328125 
Q 39.84375 48.1875 33.796875 48.1875 
Q 26.515625 48.1875 22.3125 43.546875 
Q 18.109375 38.921875 18.109375 30.90625 
L 18.109375 0 
L 9.078125 0 
L 9.078125 54.6875 
L 18.109375 54.6875 
L 18.109375 46.1875 
Q 21.34375 51.125 25.703125 53.5625 
Q 30.078125 56 35.796875 56 
Q 45.21875 56 50.046875 50.171875 
Q 54.890625 44.34375 54.890625 33.015625 
z
" id="DejaVuSans-110"/>
       <path d="M 31.78125 66.40625 
Q 24.171875 66.40625 20.328125 58.90625 
Q 16.5 51.421875 16.5 36.375 
Q 16.5 21.390625 20.328125 13.890625 
Q 24.171875 6.390625 31.78125 6.390625 
Q 39.453125 6.390625 43.28125 13.890625 
Q 47.125 21.390625 47.125 36.375 
Q 47.125 51.421875 43.28125 58.90625 
Q 39.453125 66.40625 31.78125 66.40625 
z
M 31.78125 74.21875 
Q 44.046875 74.21875 50.515625 64.515625 
Q 56.984375 54.828125 56.984375 36.375 
Q 56.984375 17.96875 50.515625 8.265625 
Q 44.046875 -1.421875 31.78125 -1.421875 
Q 19.53125 -1.421875 13.0625 8.265625 
Q 6.59375 17.96875 6.59375 36.375 
Q 6.59375 54.828125 13.0625 64.515625 
Q 19.53125 74.21875 31.78125 74.21875 
z
" id="DejaVuSans-48"/>
      </defs>
      <g transform="translate(173.70711 383.144783)rotate(-45)scale(0.1 -0.1)">
       <use xlink:href="#DejaVuSans-74"/>
       <use x="29.492188" xlink:href="#DejaVuSans-117"/>
       <use x="92.871094" xlink:href="#DejaVuSans-110"/>
       <use x="156.25" xlink:href="#DejaVuSans-32"/>
       <use x="188.037109" xlink:href="#DejaVuSans-50"/>
       <use x="251.660156" xlink:href="#DejaVuSans-48"/>
      </g>
     </g>
    </g>
    <g id="xtick_4">
     <g id="line2d_4">
      <g>
       <use style="stroke:#000000;stroke-width:0.8;" x="249.862813" xlink:href="#m9d947fcd0a" y="348.478125"/>
      </g>
     </g>
     <g id="text_4">
      <!-- Jul 18 -->
      <defs>
       <path d="M 9.421875 75.984375 
L 18.40625 75.984375 
L 18.40625 0 
L 9.421875 0 
z
" id="DejaVuSans-108"/>
       <path d="M 12.40625 8.296875 
L 28.515625 8.296875 
L 28.515625 63.921875 
L 10.984375 60.40625 
L 10.984375 69.390625 
L 28.421875 72.90625 
L 38.28125 72.90625 
L 38.28125 8.296875 
L 54.390625 8.296875 
L 54.390625 0 
L 12.40625 0 
z
" id="DejaVuSans-49"/>
       <path d="M 31.78125 34.625 
Q 24.75 34.625 20.71875 30.859375 
Q 16.703125 27.09375 16.703125 20.515625 
Q 16.703125 13.921875 20.71875 10.15625 
Q 24.75 6.390625 31.78125 6.390625 
Q 38.8125 6.390625 42.859375 10.171875 
Q 46.921875 13.96875 46.921875 20.515625 
Q 46.921875 27.09375 42.890625 30.859375 
Q 38.875 34.625 31.78125 34.625 
z
M 21.921875 38.8125 
Q 15.578125 40.375 12.03125 44.71875 
Q 8.5 49.078125 8.5 55.328125 
Q 8.5 64.0625 14.71875 69.140625 
Q 20.953125 74.21875 31.78125 74.21875 
Q 42.671875 74.21875 48.875 69.140625 
Q 55.078125 64.0625 55.078125 55.328125 
Q 55.078125 49.078125 51.53125 44.71875 
Q 48 40.375 41.703125 38.8125 
Q 48.828125 37.15625 52.796875 32.3125 
Q 56.78125 27.484375 56.78125 20.515625 
Q 56.78125 9.90625 50.3125 4.234375 
Q 43.84375 -1.421875 31.78125 -1.421875 
Q 19.734375 -1.421875 13.25 4.234375 
Q 6.78125 9.90625 6.78125 20.515625 
Q 6.78125 27.484375 10.78125 32.3125 
Q 14.796875 37.15625 21.921875 38.8125 
z
M 18.3125 54.390625 
Q 18.3125 48.734375 21.84375 45.5625 
Q 25.390625 42.390625 31.78125 42.390625 
Q 38.140625 42.390625 41.71875 45.5625 
Q 45.3125 48.734375 45.3125 54.390625 
Q 45.3125 60.0625 41.71875 63.234375 
Q 38.140625 66.40625 31.78125 66.40625 
Q 25.390625 66.40625 21.84375 63.234375 
Q 18.3125 60.0625 18.3125 54.390625 
z
" id="DejaVuSans-56"/>
      </defs>
      <g transform="translate(241.925539 380.627924)rotate(-45)scale(0.1 -0.1)">
       <use xlink:href="#DejaVuSans-74"/>
       <use x="29.492188" xlink:href="#DejaVuSans-117"/>
       <use x="92.871094" xlink:href="#DejaVuSans-108"/>
       <use x="120.654297" xlink:href="#DejaVuSans-32"/>
       <use x="152.441406" xlink:href="#DejaVuSans-49"/>
       <use x="216.064453" xlink:href="#DejaVuSans-56"/>
      </g>
     </g>
    </g>
    <g id="xtick_5">
     <g id="line2d_5">
      <g>
       <use style="stroke:#000000;stroke-width:0.8;" x="316.822813" xlink:href="#m9d947fcd0a" y="348.478125"/>
      </g>
     </g>
     <g id="text_5">
      <!-- Aug 15 -->
      <defs>
       <path d="M 45.40625 27.984375 
Q 45.40625 37.75 41.375 43.109375 
Q 37.359375 48.484375 30.078125 48.484375 
Q 22.859375 48.484375 18.828125 43.109375 
Q 14.796875 37.75 14.796875 27.984375 
Q 14.796875 18.265625 18.828125 12.890625 
Q 22.859375 7.515625 30.078125 7.515625 
Q 37.359375 7.515625 41.375 12.890625 
Q 45.40625 18.265625 45.40625 27.984375 
z
M 54.390625 6.78125 
Q 54.390625 -7.171875 48.1875 -13.984375 
Q 42 -20.796875 29.203125 -20.796875 
Q 24.46875 -20.796875 20.265625 -20.09375 
Q 16.0625 -19.390625 12.109375 -17.921875 
L 12.109375 -9.1875 
Q 16.0625 -11.328125 19.921875 -12.34375 
Q 23.78125 -13.375 27.78125 -13.375 
Q 36.625 -13.375 41.015625 -8.765625 
Q 45.40625 -4.15625 45.40625 5.171875 
L 45.40625 9.625 
Q 42.625 4.78125 38.28125 2.390625 
Q 33.9375 0 27.875 0 
Q 17.828125 0 11.671875 7.65625 
Q 5.515625 15.328125 5.515625 27.984375 
Q 5.515625 40.671875 11.671875 48.328125 
Q 17.828125 56 27.875 56 
Q 33.9375 56 38.28125 53.609375 
Q 42.625 51.21875 45.40625 46.390625 
L 45.40625 54.6875 
L 54.390625 54.6875 
z
" id="DejaVuSans-103"/>
      </defs>
      <g transform="translate(306.247699 385.903604)rotate(-45)scale(0.1 -0.1)">
       <use xlink:href="#DejaVuSans-65"/>
       <use x="68.408203" xlink:href="#DejaVuSans-117"/>
       <use x="131.787109" xlink:href="#DejaVuSans-103"/>
       <use x="195.263672" xlink:href="#DejaVuSans-32"/>
       <use x="227.050781" xlink:href="#DejaVuSans-49"/>
       <use x="290.673828" xlink:href="#DejaVuSans-53"/>
      </g>
     </g>
    </g>
    <g id="xtick_6">
     <g id="line2d_6">
      <g>
       <use style="stroke:#000000;stroke-width:0.8;" x="383.782813" xlink:href="#m9d947fcd0a" y="348.478125"/>
      </g>
     </g>
     <g id="text_6">
      <!-- Sep 12 -->
      <defs>
       <path d="M 53.515625 70.515625 
L 53.515625 60.890625 
Q 47.90625 63.578125 42.921875 64.890625 
Q 37.9375 66.21875 33.296875 66.21875 
Q 25.25 66.21875 20.875 63.09375 
Q 16.5 59.96875 16.5 54.203125 
Q 16.5 49.359375 19.40625 46.890625 
Q 22.3125 44.4375 30.421875 42.921875 
L 36.375 41.703125 
Q 47.40625 39.59375 52.65625 34.296875 
Q 57.90625 29 57.90625 20.125 
Q 57.90625 9.515625 50.796875 4.046875 
Q 43.703125 -1.421875 29.984375 -1.421875 
Q 24.8125 -1.421875 18.96875 -0.25 
Q 13.140625 0.921875 6.890625 3.21875 
L 6.890625 13.375 
Q 12.890625 10.015625 18.65625 8.296875 
Q 24.421875 6.59375 29.984375 6.59375 
Q 38.421875 6.59375 43.015625 9.90625 
Q 47.609375 13.234375 47.609375 19.390625 
Q 47.609375 24.75 44.3125 27.78125 
Q 41.015625 30.8125 33.5 32.328125 
L 27.484375 33.5 
Q 16.453125 35.6875 11.515625 40.375 
Q 6.59375 45.0625 6.59375 53.421875 
Q 6.59375 63.09375 13.40625 68.65625 
Q 20.21875 74.21875 32.171875 74.21875 
Q 37.3125 74.21875 42.625 73.28125 
Q 47.953125 72.359375 53.515625 70.515625 
z
" id="DejaVuSans-83"/>
       <path d="M 56.203125 29.59375 
L 56.203125 25.203125 
L 14.890625 25.203125 
Q 15.484375 15.921875 20.484375 11.0625 
Q 25.484375 6.203125 34.421875 6.203125 
Q 39.59375 6.203125 44.453125 7.46875 
Q 49.3125 8.734375 54.109375 11.28125 
L 54.109375 2.78125 
Q 49.265625 0.734375 44.1875 -0.34375 
Q 39.109375 -1.421875 33.890625 -1.421875 
Q 20.796875 -1.421875 13.15625 6.1875 
Q 5.515625 13.8125 5.515625 26.8125 
Q 5.515625 40.234375 12.765625 48.109375 
Q 20.015625 56 32.328125 56 
Q 43.359375 56 49.78125 48.890625 
Q 56.203125 41.796875 56.203125 29.59375 
z
M 47.21875 32.234375 
Q 47.125 39.59375 43.09375 43.984375 
Q 39.0625 48.390625 32.421875 48.390625 
Q 24.90625 48.390625 20.390625 44.140625 
Q 15.875 39.890625 15.1875 32.171875 
z
" id="DejaVuSans-101"/>
      </defs>
      <g transform="translate(373.4469 385.425202)rotate(-45)scale(0.1 -0.1)">
       <use xlink:href="#DejaVuSans-83"/>
       <use x="63.476562" xlink:href="#DejaVuSans-101"/>
       <use x="125" xlink:href="#DejaVuSans-112"/>
       <use x="188.476562" xlink:href="#DejaVuSans-32"/>
       <use x="220.263672" xlink:href="#DejaVuSans-49"/>
       <use x="283.886719" xlink:href="#DejaVuSans-50"/>
      </g>
     </g>
    </g>
    <g id="xtick_7">
     <g id="line2d_7">
      <g>
       <use style="stroke:#000000;stroke-width:0.8;" x="450.742813" xlink:href="#m9d947fcd0a" y="348.478125"/>
      </g>
     </g>
     <g id="text_7">
      <!-- Oct 10 -->
      <defs>
       <path d="M 39.40625 66.21875 
Q 28.65625 66.21875 22.328125 58.203125 
Q 16.015625 50.203125 16.015625 36.375 
Q 16.015625 22.609375 22.328125 14.59375 
Q 28.65625 6.59375 39.40625 6.59375 
Q 50.140625 6.59375 56.421875 14.59375 
Q 62.703125 22.609375 62.703125 36.375 
Q 62.703125 50.203125 56.421875 58.203125 
Q 50.140625 66.21875 39.40625 66.21875 
z
M 39.40625 74.21875 
Q 54.734375 74.21875 63.90625 63.9375 
Q 73.09375 53.65625 73.09375 36.375 
Q 73.09375 19.140625 63.90625 8.859375 
Q 54.734375 -1.421875 39.40625 -1.421875 
Q 24.03125 -1.421875 14.8125 8.828125 
Q 5.609375 19.09375 5.609375 36.375 
Q 5.609375 53.65625 14.8125 63.9375 
Q 24.03125 74.21875 39.40625 74.21875 
z
" id="DejaVuSans-79"/>
       <path d="M 48.78125 52.59375 
L 48.78125 44.1875 
Q 44.96875 46.296875 41.140625 47.34375 
Q 37.3125 48.390625 33.40625 48.390625 
Q 24.65625 48.390625 19.8125 42.84375 
Q 14.984375 37.3125 14.984375 27.296875 
Q 14.984375 17.28125 19.8125 11.734375 
Q 24.65625 6.203125 33.40625 6.203125 
Q 37.3125 6.203125 41.140625 7.25 
Q 44.96875 8.296875 48.78125 10.40625 
L 48.78125 2.09375 
Q 45.015625 0.34375 40.984375 -0.53125 
Q 36.96875 -1.421875 32.421875 -1.421875 
Q 20.0625 -1.421875 12.78125 6.34375 
Q 5.515625 14.109375 5.515625 27.296875 
Q 5.515625 40.671875 12.859375 48.328125 
Q 20.21875 56 33.015625 56 
Q 37.15625 56 41.109375 55.140625 
Q 45.0625 54.296875 48.78125 52.59375 
z
" id="DejaVuSans-99"/>
       <path d="M 18.3125 70.21875 
L 18.3125 54.6875 
L 36.8125 54.6875 
L 36.8125 47.703125 
L 18.3125 47.703125 
L 18.3125 18.015625 
Q 18.3125 11.328125 20.140625 9.421875 
Q 21.96875 7.515625 27.59375 7.515625 
L 36.8125 7.515625 
L 36.8125 0 
L 27.59375 0 
Q 17.1875 0 13.234375 3.875 
Q 9.28125 7.765625 9.28125 18.015625 
L 9.28125 47.703125 
L 2.6875 47.703125 
L 2.6875 54.6875 
L 9.28125 54.6875 
L 9.28125 70.21875 
z
" id="DejaVuSans-116"/>
      </defs>
      <g transform="translate(440.958222 384.322557)rotate(-45)scale(0.1 -0.1)">
       <use xlink:href="#DejaVuSans-79"/>
       <use x="78.710938" xlink:href="#DejaVuSans-99"/>
       <use x="133.691406" xlink:href="#DejaVuSans-116"/>
       <use x="172.900391" xlink:href="#DejaVuSans-32"/>
       <use x="204.6875" xlink:href="#DejaVuSans-49"/>
       <use x="268.310547" xlink:href="#DejaVuSans-48"/>
      </g>
     </g>
    </g>
    <g id="xtick_8">
     <g id="line2d_8">
      <g>
       <use style="stroke:#000000;stroke-width:0.8;" x="517.702813" xlink:href="#m9d947fcd0a" y="348.478125"/>
      </g>
     </g>
     <g id="text_8">
      <!-- Nov 07 -->
      <defs>
       <path d="M 9.8125 72.90625 
L 23.09375 72.90625 
L 55.421875 11.921875 
L 55.421875 72.90625 
L 64.984375 72.90625 
L 64.984375 0 
L 51.703125 0 
L 19.390625 60.984375 
L 19.390625 0 
L 9.8125 0 
z
" id="DejaVuSans-78"/>
       <path d="M 30.609375 48.390625 
Q 23.390625 48.390625 19.1875 42.75 
Q 14.984375 37.109375 14.984375 27.296875 
Q 14.984375 17.484375 19.15625 11.84375 
Q 23.34375 6.203125 30.609375 6.203125 
Q 37.796875 6.203125 41.984375 11.859375 
Q 46.1875 17.53125 46.1875 27.296875 
Q 46.1875 37.015625 41.984375 42.703125 
Q 37.796875 48.390625 30.609375 48.390625 
z
M 30.609375 56 
Q 42.328125 56 49.015625 48.375 
Q 55.71875 40.765625 55.71875 27.296875 
Q 55.71875 13.875 49.015625 6.21875 
Q 42.328125 -1.421875 30.609375 -1.421875 
Q 18.84375 -1.421875 12.171875 6.21875 
Q 5.515625 13.875 5.515625 27.296875 
Q 5.515625 40.765625 12.171875 48.375 
Q 18.84375 56 30.609375 56 
z
" id="DejaVuSans-111"/>
       <path d="M 2.984375 54.6875 
L 12.5 54.6875 
L 29.59375 8.796875 
L 46.6875 54.6875 
L 56.203125 54.6875 
L 35.6875 0 
L 23.484375 0 
z
" id="DejaVuSans-118"/>
       <path d="M 8.203125 72.90625 
L 55.078125 72.90625 
L 55.078125 68.703125 
L 28.609375 0 
L 18.3125 0 
L 43.21875 64.59375 
L 8.203125 64.59375 
z
" id="DejaVuSans-55"/>
      </defs>
      <g transform="translate(507.130461 385.89808)rotate(-45)scale(0.1 -0.1)">
       <use xlink:href="#DejaVuSans-78"/>
       <use x="74.804688" xlink:href="#DejaVuSans-111"/>
       <use x="135.986328" xlink:href="#DejaVuSans-118"/>
       <use x="195.166016" xlink:href="#DejaVuSans-32"/>
       <use x="226.953125" xlink:href="#DejaVuSans-48"/>
       <use x="290.576172" xlink:href="#DejaVuSans-55"/>
      </g>
     </g>
    </g>
    <g id="xtick_9">
     <g id="line2d_9">
      <g>
       <use style="stroke:#000000;stroke-width:0.8;" x="584.662813" xlink:href="#m9d947fcd0a" y="348.478125"/>
      </g>
     </g>
     <g id="text_9">
      <!-- Dec 05 -->
      <defs>
       <path d="M 19.671875 64.796875 
L 19.671875 8.109375 
L 31.59375 8.109375 
Q 46.6875 8.109375 53.6875 14.9375 
Q 60.6875 21.78125 60.6875 36.53125 
Q 60.6875 51.171875 53.6875 57.984375 
Q 46.6875 64.796875 31.59375 64.796875 
z
M 9.8125 72.90625 
L 30.078125 72.90625 
Q 51.265625 72.90625 61.171875 64.09375 
Q 71.09375 55.28125 71.09375 36.53125 
Q 71.09375 17.671875 61.125 8.828125 
Q 51.171875 0 30.078125 0 
L 9.8125 0 
z
" id="DejaVuSans-68"/>
      </defs>
      <g transform="translate(574.149571 385.77986)rotate(-45)scale(0.1 -0.1)">
       <use xlink:href="#DejaVuSans-68"/>
       <use x="77.001953" xlink:href="#DejaVuSans-101"/>
       <use x="138.525391" xlink:href="#DejaVuSans-99"/>
       <use x="193.505859" xlink:href="#DejaVuSans-32"/>
       <use x="225.292969" xlink:href="#DejaVuSans-48"/>
       <use x="288.916016" xlink:href="#DejaVuSans-53"/>
      </g>
     </g>
    </g>
    <g id="xtick_10">
     <g id="line2d_10">
      <g>
       <use style="stroke:#000000;stroke-width:0.8;" x="651.622813" xlink:href="#m9d947fcd0a" y="348.478125"/>
      </g>
     </g>
     <g id="text_10">
      <!-- Jan 02 -->
      <g transform="translate(642.501135 382.996732)rotate(-45)scale(0.1 -0.1)">
       <use xlink:href="#DejaVuSans-74"/>
       <use x="29.492188" xlink:href="#DejaVuSans-97"/>
       <use x="90.771484" xlink:href="#DejaVuSans-110"/>
       <use x="154.150391" xlink:href="#DejaVuSans-32"/>
       <use x="185.9375" xlink:href="#DejaVuSans-48"/>
       <use x="249.560547" xlink:href="#DejaVuSans-50"/>
      </g>
     </g>
    </g>
    <g id="xtick_11">
     <g id="line2d_11">
      <g>
       <use style="stroke:#000000;stroke-width:0.8;" x="718.582813" xlink:href="#m9d947fcd0a" y="348.478125"/>
      </g>
     </g>
     <g id="text_11">
      <!-- Jan 30 -->
      <g transform="translate(709.461135 382.996732)rotate(-45)scale(0.1 -0.1)">
       <use xlink:href="#DejaVuSans-74"/>
       <use x="29.492188" xlink:href="#DejaVuSans-97"/>
       <use x="90.771484" xlink:href="#DejaVuSans-110"/>
       <use x="154.150391" xlink:href="#DejaVuSans-32"/>
       <use x="185.9375" xlink:href="#DejaVuSans-51"/>
       <use x="249.560547" xlink:href="#DejaVuSans-48"/>
      </g>
     </g>
    </g>
    <g id="xtick_12">
     <g id="line2d_12">
      <defs>
       <path d="M 0 0 
L 0 2 
" id="m3ff72361ce" style="stroke:#000000;stroke-width:0.6;"/>
      </defs>
      <g>
       <use style="stroke:#000000;stroke-width:0.6;" x="82.462813" xlink:href="#m3ff72361ce" y="348.478125"/>
      </g>
     </g>
    </g>
    <g id="xtick_13">
     <g id="line2d_13">
      <g>
       <use style="stroke:#000000;stroke-width:0.6;" x="99.202813" xlink:href="#m3ff72361ce" y="348.478125"/>
      </g>
     </g>
    </g>
    <g id="xtick_14">
     <g id="line2d_14">
      <g>
       <use style="stroke:#000000;stroke-width:0.6;" x="132.682813" xlink:href="#m3ff72361ce" y="348.478125"/>
      </g>
     </g>
    </g>
    <g id="xtick_15">
     <g id="line2d_15">
      <g>
       <use style="stroke:#000000;stroke-width:0.6;" x="166.162813" xlink:href="#m3ff72361ce" y="348.478125"/>
      </g>
     </g>
    </g>
    <g id="xtick_16">
     <g id="line2d_16">
      <g>
       <use style="stroke:#000000;stroke-width:0.6;" x="199.642813" xlink:href="#m3ff72361ce" y="348.478125"/>
      </g>
     </g>
    </g>
    <g id="xtick_17">
     <g id="line2d_17">
      <g>
       <use style="stroke:#000000;stroke-width:0.6;" x="233.122813" xlink:href="#m3ff72361ce" y="348.478125"/>
      </g>
     </g>
    </g>
    <g id="xtick_18">
     <g id="line2d_18">
      <g>
       <use style="stroke:#000000;stroke-width:0.6;" x="266.602813" xlink:href="#m3ff72361ce" y="348.478125"/>
      </g>
     </g>
    </g>
    <g id="xtick_19">
     <g id="line2d_19">
      <g>
       <use style="stroke:#000000;stroke-width:0.6;" x="300.082813" xlink:href="#m3ff72361ce" y="348.478125"/>
      </g>
     </g>
    </g>
    <g id="xtick_20">
     <g id="line2d_20">
      <g>
       <use style="stroke:#000000;stroke-width:0.6;" x="333.562813" xlink:href="#m3ff72361ce" y="348.478125"/>
      </g>
     </g>
    </g>
    <g id="xtick_21">
     <g id="line2d_21">
      <g>
       <use style="stroke:#000000;stroke-width:0.6;" x="350.302813" xlink:href="#m3ff72361ce" y="348.478125"/>
      </g>
     </g>
    </g>
    <g id="xtick_22">
     <g id="line2d_22">
      <g>
       <use style="stroke:#000000;stroke-width:0.6;" x="400.522813" xlink:href="#m3ff72361ce" y="348.478125"/>
      </g>
     </g>
    </g>
    <g id="xtick_23">
     <g id="line2d_23">
      <g>
       <use style="stroke:#000000;stroke-width:0.6;" x="417.262813" xlink:href="#m3ff72361ce" y="348.478125"/>
      </g>
     </g>
    </g>
    <g id="xtick_24">
     <g id="line2d_24">
      <g>
       <use style="stroke:#000000;stroke-width:0.6;" x="467.482813" xlink:href="#m3ff72361ce" y="348.478125"/>
      </g>
     </g>
    </g>
    <g id="xtick_25">
     <g id="line2d_25">
      <g>
       <use style="stroke:#000000;stroke-width:0.6;" x="484.222813" xlink:href="#m3ff72361ce" y="348.478125"/>
      </g>
     </g>
    </g>
    <g id="xtick_26">
     <g id="line2d_26">
      <g>
       <use style="stroke:#000000;stroke-width:0.6;" x="500.962813" xlink:href="#m3ff72361ce" y="348.478125"/>
      </g>
     </g>
    </g>
    <g id="xtick_27">
     <g id="line2d_27">
      <g>
       <use style="stroke:#000000;stroke-width:0.6;" x="534.442813" xlink:href="#m3ff72361ce" y="348.478125"/>
      </g>
     </g>
    </g>
    <g id="xtick_28">
     <g id="line2d_28">
      <g>
       <use style="stroke:#000000;stroke-width:0.6;" x="551.182813" xlink:href="#m3ff72361ce" y="348.478125"/>
      </g>
     </g>
    </g>
    <g id="xtick_29">
     <g id="line2d_29">
      <g>
       <use style="stroke:#000000;stroke-width:0.6;" x="567.922813" xlink:href="#m3ff72361ce" y="348.478125"/>
      </g>
     </g>
    </g>
    <g id="xtick_30">
     <g id="line2d_30">
      <g>
       <use style="stroke:#000000;stroke-width:0.6;" x="601.402813" xlink:href="#m3ff72361ce" y="348.478125"/>
      </g>
     </g>
    </g>
    <g id="xtick_31">
     <g id="line2d_31">
      <g>
       <use style="stroke:#000000;stroke-width:0.6;" x="618.142813" xlink:href="#m3ff72361ce" y="348.478125"/>
      </g>
     </g>
    </g>
    <g id="xtick_32">
     <g id="line2d_32">
      <g>
       <use style="stroke:#000000;stroke-width:0.6;" x="634.882813" xlink:href="#m3ff72361ce" y="348.478125"/>
      </g>
     </g>
    </g>
    <g id="xtick_33">
     <g id="line2d_33">
      <g>
       <use style="stroke:#000000;stroke-width:0.6;" x="668.362813" xlink:href="#m3ff72361ce" y="348.478125"/>
      </g>
     </g>
    </g>
    <g id="xtick_34">
     <g id="line2d_34">
      <g>
       <use style="stroke:#000000;stroke-width:0.6;" x="685.102813" xlink:href="#m3ff72361ce" y="348.478125"/>
      </g>
     </g>
    </g>
    <g id="xtick_35">
     <g id="line2d_35">
      <g>
       <use style="stroke:#000000;stroke-width:0.6;" x="701.842813" xlink:href="#m3ff72361ce" y="348.478125"/>
      </g>
     </g>
    </g>
    <g id="text_12">
     <!-- Target End Date -->
     <defs>
      <path d="M -0.296875 72.90625 
L 61.375 72.90625 
L 61.375 64.59375 
L 35.5 64.59375 
L 35.5 0 
L 25.59375 0 
L 25.59375 64.59375 
L -0.296875 64.59375 
z
" id="DejaVuSans-84"/>
      <path d="M 9.8125 72.90625 
L 55.90625 72.90625 
L 55.90625 64.59375 
L 19.671875 64.59375 
L 19.671875 43.015625 
L 54.390625 43.015625 
L 54.390625 34.71875 
L 19.671875 34.71875 
L 19.671875 8.296875 
L 56.78125 8.296875 
L 56.78125 0 
L 9.8125 0 
z
" id="DejaVuSans-69"/>
      <path d="M 45.40625 46.390625 
L 45.40625 75.984375 
L 54.390625 75.984375 
L 54.390625 0 
L 45.40625 0 
L 45.40625 8.203125 
Q 42.578125 3.328125 38.25 0.953125 
Q 33.9375 -1.421875 27.875 -1.421875 
Q 17.96875 -1.421875 11.734375 6.484375 
Q 5.515625 14.40625 5.515625 27.296875 
Q 5.515625 40.1875 11.734375 48.09375 
Q 17.96875 56 27.875 56 
Q 33.9375 56 38.25 53.625 
Q 42.578125 51.265625 45.40625 46.390625 
z
M 14.796875 27.296875 
Q 14.796875 17.390625 18.875 11.75 
Q 22.953125 6.109375 30.078125 6.109375 
Q 37.203125 6.109375 41.296875 11.75 
Q 45.40625 17.390625 45.40625 27.296875 
Q 45.40625 37.203125 41.296875 42.84375 
Q 37.203125 48.484375 30.078125 48.484375 
Q 22.953125 48.484375 18.875 42.84375 
Q 14.796875 37.203125 14.796875 27.296875 
z
" id="DejaVuSans-100"/>
     </defs>
     <g transform="translate(343.679688 399.784671)scale(0.1 -0.1)">
      <use xlink:href="#DejaVuSans-84"/>
      <use x="44.583984" xlink:href="#DejaVuSans-97"/>
      <use x="105.863281" xlink:href="#DejaVuSans-114"/>
      <use x="145.226562" xlink:href="#DejaVuSans-103"/>
      <use x="208.703125" xlink:href="#DejaVuSans-101"/>
      <use x="270.226562" xlink:href="#DejaVuSans-116"/>
      <use x="309.435547" xlink:href="#DejaVuSans-32"/>
      <use x="341.222656" xlink:href="#DejaVuSans-69"/>
      <use x="404.40625" xlink:href="#DejaVuSans-110"/>
      <use x="467.785156" xlink:href="#DejaVuSans-100"/>
      <use x="531.261719" xlink:href="#DejaVuSans-32"/>
      <use x="563.048828" xlink:href="#DejaVuSans-68"/>
      <use x="640.050781" xlink:href="#DejaVuSans-97"/>
      <use x="701.330078" xlink:href="#DejaVuSans-116"/>
      <use x="740.539062" xlink:href="#DejaVuSans-101"/>
     </g>
    </g>
   </g>
   <g id="matplotlib.axis_2">
    <g id="ytick_1">
     <g id="line2d_36">
      <defs>
       <path d="M 0 0 
L -3.5 0 
" id="m517bcbeac5" style="stroke:#000000;stroke-width:0.8;"/>
      </defs>
      <g>
       <use style="stroke:#000000;stroke-width:0.8;" x="48.982813" xlink:href="#m517bcbeac5" y="347.345124"/>
      </g>
     </g>
     <g id="text_13">
      <!-- −18 -->
      <defs>
       <path d="M 10.59375 35.5 
L 73.1875 35.5 
L 73.1875 27.203125 
L 10.59375 27.203125 
z
" id="DejaVuSans-8722"/>
      </defs>
      <g transform="translate(20.878125 351.144343)scale(0.1 -0.1)">
       <use xlink:href="#DejaVuSans-8722"/>
       <use x="83.789062" xlink:href="#DejaVuSans-49"/>
       <use x="147.412109" xlink:href="#DejaVuSans-56"/>
      </g>
     </g>
    </g>
    <g id="ytick_2">
     <g id="line2d_37">
      <g>
       <use style="stroke:#000000;stroke-width:0.8;" x="48.982813" xlink:href="#m517bcbeac5" y="305.340853"/>
      </g>
     </g>
     <g id="text_14">
      <!-- −16 -->
      <defs>
       <path d="M 33.015625 40.375 
Q 26.375 40.375 22.484375 35.828125 
Q 18.609375 31.296875 18.609375 23.390625 
Q 18.609375 15.53125 22.484375 10.953125 
Q 26.375 6.390625 33.015625 6.390625 
Q 39.65625 6.390625 43.53125 10.953125 
Q 47.40625 15.53125 47.40625 23.390625 
Q 47.40625 31.296875 43.53125 35.828125 
Q 39.65625 40.375 33.015625 40.375 
z
M 52.59375 71.296875 
L 52.59375 62.3125 
Q 48.875 64.0625 45.09375 64.984375 
Q 41.3125 65.921875 37.59375 65.921875 
Q 27.828125 65.921875 22.671875 59.328125 
Q 17.53125 52.734375 16.796875 39.40625 
Q 19.671875 43.65625 24.015625 45.921875 
Q 28.375 48.1875 33.59375 48.1875 
Q 44.578125 48.1875 50.953125 41.515625 
Q 57.328125 34.859375 57.328125 23.390625 
Q 57.328125 12.15625 50.6875 5.359375 
Q 44.046875 -1.421875 33.015625 -1.421875 
Q 20.359375 -1.421875 13.671875 8.265625 
Q 6.984375 17.96875 6.984375 36.375 
Q 6.984375 53.65625 15.1875 63.9375 
Q 23.390625 74.21875 37.203125 74.21875 
Q 40.921875 74.21875 44.703125 73.484375 
Q 48.484375 72.75 52.59375 71.296875 
z
" id="DejaVuSans-54"/>
      </defs>
      <g transform="translate(20.878125 309.140072)scale(0.1 -0.1)">
       <use xlink:href="#DejaVuSans-8722"/>
       <use x="83.789062" xlink:href="#DejaVuSans-49"/>
       <use x="147.412109" xlink:href="#DejaVuSans-54"/>
      </g>
     </g>
    </g>
    <g id="ytick_3">
     <g id="line2d_38">
      <g>
       <use style="stroke:#000000;stroke-width:0.8;" x="48.982813" xlink:href="#m517bcbeac5" y="263.336583"/>
      </g>
     </g>
     <g id="text_15">
      <!-- −14 -->
      <defs>
       <path d="M 37.796875 64.3125 
L 12.890625 25.390625 
L 37.796875 25.390625 
z
M 35.203125 72.90625 
L 47.609375 72.90625 
L 47.609375 25.390625 
L 58.015625 25.390625 
L 58.015625 17.1875 
L 47.609375 17.1875 
L 47.609375 0 
L 37.796875 0 
L 37.796875 17.1875 
L 4.890625 17.1875 
L 4.890625 26.703125 
z
" id="DejaVuSans-52"/>
      </defs>
      <g transform="translate(20.878125 267.135801)scale(0.1 -0.1)">
       <use xlink:href="#DejaVuSans-8722"/>
       <use x="83.789062" xlink:href="#DejaVuSans-49"/>
       <use x="147.412109" xlink:href="#DejaVuSans-52"/>
      </g>
     </g>
    </g>
    <g id="ytick_4">
     <g id="line2d_39">
      <g>
       <use style="stroke:#000000;stroke-width:0.8;" x="48.982813" xlink:href="#m517bcbeac5" y="221.332312"/>
      </g>
     </g>
     <g id="text_16">
      <!-- −12 -->
      <g transform="translate(20.878125 225.131531)scale(0.1 -0.1)">
       <use xlink:href="#DejaVuSans-8722"/>
       <use x="83.789062" xlink:href="#DejaVuSans-49"/>
       <use x="147.412109" xlink:href="#DejaVuSans-50"/>
      </g>
     </g>
    </g>
    <g id="ytick_5">
     <g id="line2d_40">
      <g>
       <use style="stroke:#000000;stroke-width:0.8;" x="48.982813" xlink:href="#m517bcbeac5" y="179.328042"/>
      </g>
     </g>
     <g id="text_17">
      <!-- −10 -->
      <g transform="translate(20.878125 183.12726)scale(0.1 -0.1)">
       <use xlink:href="#DejaVuSans-8722"/>
       <use x="83.789062" xlink:href="#DejaVuSans-49"/>
       <use x="147.412109" xlink:href="#DejaVuSans-48"/>
      </g>
     </g>
    </g>
    <g id="ytick_6">
     <g id="line2d_41">
      <g>
       <use style="stroke:#000000;stroke-width:0.8;" x="48.982813" xlink:href="#m517bcbeac5" y="137.323771"/>
      </g>
     </g>
     <g id="text_18">
      <!-- −8 -->
      <g transform="translate(27.240625 141.12299)scale(0.1 -0.1)">
       <use xlink:href="#DejaVuSans-8722"/>
       <use x="83.789062" xlink:href="#DejaVuSans-56"/>
      </g>
     </g>
    </g>
    <g id="ytick_7">
     <g id="line2d_42">
      <g>
       <use style="stroke:#000000;stroke-width:0.8;" x="48.982813" xlink:href="#m517bcbeac5" y="95.3195"/>
      </g>
     </g>
     <g id="text_19">
      <!-- −6 -->
      <g transform="translate(27.240625 99.118719)scale(0.1 -0.1)">
       <use xlink:href="#DejaVuSans-8722"/>
       <use x="83.789062" xlink:href="#DejaVuSans-54"/>
      </g>
     </g>
    </g>
    <g id="ytick_8">
     <g id="line2d_43">
      <g>
       <use style="stroke:#000000;stroke-width:0.8;" x="48.982813" xlink:href="#m517bcbeac5" y="53.31523"/>
      </g>
     </g>
     <g id="text_20">
      <!-- −4 -->
      <g transform="translate(27.240625 57.114449)scale(0.1 -0.1)">
       <use xlink:href="#DejaVuSans-8722"/>
       <use x="83.789062" xlink:href="#DejaVuSans-52"/>
      </g>
     </g>
    </g>
    <g id="text_21">
     <!-- Score for weekly incidental cases -->
     <defs>
      <path d="M 37.109375 75.984375 
L 37.109375 68.5 
L 28.515625 68.5 
Q 23.6875 68.5 21.796875 66.546875 
Q 19.921875 64.59375 19.921875 59.515625 
L 19.921875 54.6875 
L 34.71875 54.6875 
L 34.71875 47.703125 
L 19.921875 47.703125 
L 19.921875 0 
L 10.890625 0 
L 10.890625 47.703125 
L 2.296875 47.703125 
L 2.296875 54.6875 
L 10.890625 54.6875 
L 10.890625 58.5 
Q 10.890625 67.625 15.140625 71.796875 
Q 19.390625 75.984375 28.609375 75.984375 
z
" id="DejaVuSans-102"/>
      <path d="M 4.203125 54.6875 
L 13.1875 54.6875 
L 24.421875 12.015625 
L 35.59375 54.6875 
L 46.1875 54.6875 
L 57.421875 12.015625 
L 68.609375 54.6875 
L 77.59375 54.6875 
L 63.28125 0 
L 52.6875 0 
L 40.921875 44.828125 
L 29.109375 0 
L 18.5 0 
z
" id="DejaVuSans-119"/>
      <path d="M 9.078125 75.984375 
L 18.109375 75.984375 
L 18.109375 31.109375 
L 44.921875 54.6875 
L 56.390625 54.6875 
L 27.390625 29.109375 
L 57.625 0 
L 45.90625 0 
L 18.109375 26.703125 
L 18.109375 0 
L 9.078125 0 
z
" id="DejaVuSans-107"/>
      <path d="M 9.421875 54.6875 
L 18.40625 54.6875 
L 18.40625 0 
L 9.421875 0 
z
M 9.421875 75.984375 
L 18.40625 75.984375 
L 18.40625 64.59375 
L 9.421875 64.59375 
z
" id="DejaVuSans-105"/>
      <path d="M 44.28125 53.078125 
L 44.28125 44.578125 
Q 40.484375 46.53125 36.375 47.5 
Q 32.28125 48.484375 27.875 48.484375 
Q 21.1875 48.484375 17.84375 46.4375 
Q 14.5 44.390625 14.5 40.28125 
Q 14.5 37.15625 16.890625 35.375 
Q 19.28125 33.59375 26.515625 31.984375 
L 29.59375 31.296875 
Q 39.15625 29.25 43.1875 25.515625 
Q 47.21875 21.78125 47.21875 15.09375 
Q 47.21875 7.46875 41.1875 3.015625 
Q 35.15625 -1.421875 24.609375 -1.421875 
Q 20.21875 -1.421875 15.453125 -0.5625 
Q 10.6875 0.296875 5.421875 2 
L 5.421875 11.28125 
Q 10.40625 8.6875 15.234375 7.390625 
Q 20.0625 6.109375 24.8125 6.109375 
Q 31.15625 6.109375 34.5625 8.28125 
Q 37.984375 10.453125 37.984375 14.40625 
Q 37.984375 18.0625 35.515625 20.015625 
Q 33.0625 21.96875 24.703125 23.78125 
L 21.578125 24.515625 
Q 13.234375 26.265625 9.515625 29.90625 
Q 5.8125 33.546875 5.8125 39.890625 
Q 5.8125 47.609375 11.28125 51.796875 
Q 16.75 56 26.8125 56 
Q 31.78125 56 36.171875 55.265625 
Q 40.578125 54.546875 44.28125 53.078125 
z
" id="DejaVuSans-115"/>
     </defs>
     <g transform="translate(14.798437 268.745781)rotate(-90)scale(0.1 -0.1)">
      <use xlink:href="#DejaVuSans-83"/>
      <use x="63.476562" xlink:href="#DejaVuSans-99"/>
      <use x="118.457031" xlink:href="#DejaVuSans-111"/>
      <use x="179.638672" xlink:href="#DejaVuSans-114"/>
      <use x="218.501953" xlink:href="#DejaVuSans-101"/>
      <use x="280.025391" xlink:href="#DejaVuSans-32"/>
      <use x="311.8125" xlink:href="#DejaVuSans-102"/>
      <use x="347.017578" xlink:href="#DejaVuSans-111"/>
      <use x="408.199219" xlink:href="#DejaVuSans-114"/>
      <use x="449.3125" xlink:href="#DejaVuSans-32"/>
      <use x="481.099609" xlink:href="#DejaVuSans-119"/>
      <use x="562.886719" xlink:href="#DejaVuSans-101"/>
      <use x="624.410156" xlink:href="#DejaVuSans-101"/>
      <use x="685.933594" xlink:href="#DejaVuSans-107"/>
      <use x="743.84375" xlink:href="#DejaVuSans-108"/>
      <use x="771.626953" xlink:href="#DejaVuSans-121"/>
      <use x="830.806641" xlink:href="#DejaVuSans-32"/>
      <use x="862.59375" xlink:href="#DejaVuSans-105"/>
      <use x="890.376953" xlink:href="#DejaVuSans-110"/>
      <use x="953.755859" xlink:href="#DejaVuSans-99"/>
      <use x="1008.736328" xlink:href="#DejaVuSans-105"/>
      <use x="1036.519531" xlink:href="#DejaVuSans-100"/>
      <use x="1099.996094" xlink:href="#DejaVuSans-101"/>
      <use x="1161.519531" xlink:href="#DejaVuSans-110"/>
      <use x="1224.898438" xlink:href="#DejaVuSans-116"/>
      <use x="1264.107422" xlink:href="#DejaVuSans-97"/>
      <use x="1325.386719" xlink:href="#DejaVuSans-108"/>
      <use x="1353.169922" xlink:href="#DejaVuSans-32"/>
      <use x="1384.957031" xlink:href="#DejaVuSans-99"/>
      <use x="1439.9375" xlink:href="#DejaVuSans-97"/>
      <use x="1501.216797" xlink:href="#DejaVuSans-115"/>
      <use x="1553.316406" xlink:href="#DejaVuSans-101"/>
      <use x="1614.839844" xlink:href="#DejaVuSans-115"/>
     </g>
    </g>
   </g>
   <g id="line2d_44">
    <path clip-path="url(#p4220b65b5d)" d="M 350.302813 191.584362 
L 367.042813 207.618002 
L 383.782813 193.925564 
L 400.522813 190.108099 
L 417.262813 197.843176 
L 434.002813 222.203383 
L 450.742813 203.638857 
L 467.482813 212.241427 
L 484.222813 190.497538 
L 500.962813 201.637227 
L 517.702813 220.387103 
L 534.442813 255.940175 
L 551.182813 227.728404 
L 567.922813 219.306051 
L 584.662813 193.273932 
L 601.402813 192.03619 
L 618.142813 215.590296 
L 634.882813 213.479088 
L 651.622813 204.476787 
L 668.362813 199.393673 
L 685.102813 214.634057 
L 701.842813 221.645255 
" style="fill:none;stroke:#000080;stroke-linecap:square;stroke-width:1.5;"/>
    <defs>
     <path d="M 0 3 
C 0.795609 3 1.55874 2.683901 2.12132 2.12132 
C 2.683901 1.55874 3 0.795609 3 0 
C 3 -0.795609 2.683901 -1.55874 2.12132 -2.12132 
C 1.55874 -2.683901 0.795609 -3 0 -3 
C -0.795609 -3 -1.55874 -2.683901 -2.12132 -2.12132 
C -2.683901 -1.55874 -3 -0.795609 -3 0 
C -3 0.795609 -2.683901 1.55874 -2.12132 2.12132 
C -1.55874 2.683901 -0.795609 3 0 3 
z
" id="m05e38a50b2" style="stroke:#000080;"/>
    </defs>
    <g clip-path="url(#p4220b65b5d)">
     <use style="fill:#000080;stroke:#000080;" x="350.302813" xlink:href="#m05e38a50b2" y="191.584362"/>
     <use style="fill:#000080;stroke:#000080;" x="367.042813" xlink:href="#m05e38a50b2" y="207.618002"/>
     <use style="fill:#000080;stroke:#000080;" x="383.782813" xlink:href="#m05e38a50b2" y="193.925564"/>
     <use style="fill:#000080;stroke:#000080;" x="400.522813" xlink:href="#m05e38a50b2" y="190.108099"/>
     <use style="fill:#000080;stroke:#000080;" x="417.262813" xlink:href="#m05e38a50b2" y="197.843176"/>
     <use style="fill:#000080;stroke:#000080;" x="434.002813" xlink:href="#m05e38a50b2" y="222.203383"/>
     <use style="fill:#000080;stroke:#000080;" x="450.742813" xlink:href="#m05e38a50b2" y="203.638857"/>
     <use style="fill:#000080;stroke:#000080;" x="467.482813" xlink:href="#m05e38a50b2" y="212.241427"/>
     <use style="fill:#000080;stroke:#000080;" x="484.222813" xlink:href="#m05e38a50b2" y="190.497538"/>
     <use style="fill:#000080;stroke:#000080;" x="500.962813" xlink:href="#m05e38a50b2" y="201.637227"/>
     <use style="fill:#000080;stroke:#000080;" x="517.702813" xlink:href="#m05e38a50b2" y="220.387103"/>
     <use style="fill:#000080;stroke:#000080;" x="534.442813" xlink:href="#m05e38a50b2" y="255.940175"/>
     <use style="fill:#000080;stroke:#000080;" x="551.182813" xlink:href="#m05e38a50b2" y="227.728404"/>
     <use style="fill:#000080;stroke:#000080;" x="567.922813" xlink:href="#m05e38a50b2" y="219.306051"/>
     <use style="fill:#000080;stroke:#000080;" x="584.662813" xlink:href="#m05e38a50b2" y="193.273932"/>
     <use style="fill:#000080;stroke:#000080;" x="601.402813" xlink:href="#m05e38a50b2" y="192.03619"/>
     <use style="fill:#000080;stroke:#000080;" x="618.142813" xlink:href="#m05e38a50b2" y="215.590296"/>
     <use style="fill:#000080;stroke:#000080;" x="634.882813" xlink:href="#m05e38a50b2" y="213.479088"/>
     <use style="fill:#000080;stroke:#000080;" x="651.622813" xlink:href="#m05e38a50b2" y="204.476787"/>
     <use style="fill:#000080;stroke:#000080;" x="668.362813" xlink:href="#m05e38a50b2" y="199.393673"/>
     <use style="fill:#000080;stroke:#000080;" x="685.102813" xlink:href="#m05e38a50b2" y="214.634057"/>
     <use style="fill:#000080;stroke:#000080;" x="701.842813" xlink:href="#m05e38a50b2" y="221.645255"/>
    </g>
   </g>
   <g id="line2d_45">
    <path clip-path="url(#p4220b65b5d)" d="M 350.302813 189.90608 
L 367.042813 207.747889 
L 383.782813 193.111935 
L 400.522813 194.440931 
L 417.262813 203.427207 
L 434.002813 233.201098 
L 450.742813 221.737816 
L 467.482813 220.611549 
L 484.222813 202.426655 
L 500.962813 195.286261 
L 517.702813 215.994818 
L 534.442813 236.337381 
L 551.182813 222.354379 
L 567.922813 208.622756 
L 584.662813 195.272285 
L 601.402813 191.354493 
L 618.142813 207.687612 
L 634.882813 203.334564 
L 651.622813 212.771808 
L 668.362813 195.489712 
L 685.102813 214.371581 
L 701.842813 217.438974 
" style="fill:none;stroke:#0000ff;stroke-linecap:square;stroke-width:1.5;"/>
    <defs>
     <path d="M 0 3 
C 0.795609 3 1.55874 2.683901 2.12132 2.12132 
C 2.683901 1.55874 3 0.795609 3 0 
C 3 -0.795609 2.683901 -1.55874 2.12132 -2.12132 
C 1.55874 -2.683901 0.795609 -3 0 -3 
C -0.795609 -3 -1.55874 -2.683901 -2.12132 -2.12132 
C -2.683901 -1.55874 -3 -0.795609 -3 0 
C -3 0.795609 -2.683901 1.55874 -2.12132 2.12132 
C -1.55874 2.683901 -0.795609 3 0 3 
z
" id="mf09c4d3ca9" style="stroke:#0000ff;"/>
    </defs>
    <g clip-path="url(#p4220b65b5d)">
     <use style="fill:#0000ff;stroke:#0000ff;" x="350.302813" xlink:href="#mf09c4d3ca9" y="189.90608"/>
     <use style="fill:#0000ff;stroke:#0000ff;" x="367.042813" xlink:href="#mf09c4d3ca9" y="207.747889"/>
     <use style="fill:#0000ff;stroke:#0000ff;" x="383.782813" xlink:href="#mf09c4d3ca9" y="193.111935"/>
     <use style="fill:#0000ff;stroke:#0000ff;" x="400.522813" xlink:href="#mf09c4d3ca9" y="194.440931"/>
     <use style="fill:#0000ff;stroke:#0000ff;" x="417.262813" xlink:href="#mf09c4d3ca9" y="203.427207"/>
     <use style="fill:#0000ff;stroke:#0000ff;" x="434.002813" xlink:href="#mf09c4d3ca9" y="233.201098"/>
     <use style="fill:#0000ff;stroke:#0000ff;" x="450.742813" xlink:href="#mf09c4d3ca9" y="221.737816"/>
     <use style="fill:#0000ff;stroke:#0000ff;" x="467.482813" xlink:href="#mf09c4d3ca9" y="220.611549"/>
     <use style="fill:#0000ff;stroke:#0000ff;" x="484.222813" xlink:href="#mf09c4d3ca9" y="202.426655"/>
     <use style="fill:#0000ff;stroke:#0000ff;" x="500.962813" xlink:href="#mf09c4d3ca9" y="195.286261"/>
     <use style="fill:#0000ff;stroke:#0000ff;" x="517.702813" xlink:href="#mf09c4d3ca9" y="215.994818"/>
     <use style="fill:#0000ff;stroke:#0000ff;" x="534.442813" xlink:href="#mf09c4d3ca9" y="236.337381"/>
     <use style="fill:#0000ff;stroke:#0000ff;" x="551.182813" xlink:href="#mf09c4d3ca9" y="222.354379"/>
     <use style="fill:#0000ff;stroke:#0000ff;" x="567.922813" xlink:href="#mf09c4d3ca9" y="208.622756"/>
     <use style="fill:#0000ff;stroke:#0000ff;" x="584.662813" xlink:href="#mf09c4d3ca9" y="195.272285"/>
     <use style="fill:#0000ff;stroke:#0000ff;" x="601.402813" xlink:href="#mf09c4d3ca9" y="191.354493"/>
     <use style="fill:#0000ff;stroke:#0000ff;" x="618.142813" xlink:href="#mf09c4d3ca9" y="207.687612"/>
     <use style="fill:#0000ff;stroke:#0000ff;" x="634.882813" xlink:href="#mf09c4d3ca9" y="203.334564"/>
     <use style="fill:#0000ff;stroke:#0000ff;" x="651.622813" xlink:href="#mf09c4d3ca9" y="212.771808"/>
     <use style="fill:#0000ff;stroke:#0000ff;" x="668.362813" xlink:href="#mf09c4d3ca9" y="195.489712"/>
     <use style="fill:#0000ff;stroke:#0000ff;" x="685.102813" xlink:href="#mf09c4d3ca9" y="214.371581"/>
     <use style="fill:#0000ff;stroke:#0000ff;" x="701.842813" xlink:href="#mf09c4d3ca9" y="217.438974"/>
    </g>
   </g>
   <g id="line2d_46">
    <path clip-path="url(#p4220b65b5d)" d="M 350.302813 186.582286 
L 367.042813 187.284832 
L 383.782813 178.950283 
L 400.522813 191.710295 
L 417.262813 182.210741 
L 434.002813 183.223629 
L 450.742813 177.068821 
L 467.482813 177.782011 
L 484.222813 181.492997 
L 500.962813 231.388482 
L 517.702813 252.260034 
L 551.182813 269.157487 
L 567.922813 255.320448 
L 584.662813 179.634715 
L 601.402813 188.125275 
L 618.142813 207.132074 
L 634.882813 200.992427 
L 651.622813 197.872317 
L 668.362813 188.615463 
L 685.102813 205.717941 
L 701.842813 206.3163 
" style="fill:none;stroke:#0060ff;stroke-linecap:square;stroke-width:1.5;"/>
    <defs>
     <path d="M 0 3 
C 0.795609 3 1.55874 2.683901 2.12132 2.12132 
C 2.683901 1.55874 3 0.795609 3 0 
C 3 -0.795609 2.683901 -1.55874 2.12132 -2.12132 
C 1.55874 -2.683901 0.795609 -3 0 -3 
C -0.795609 -3 -1.55874 -2.683901 -2.12132 -2.12132 
C -2.683901 -1.55874 -3 -0.795609 -3 0 
C -3 0.795609 -2.683901 1.55874 -2.12132 2.12132 
C -1.55874 2.683901 -0.795609 3 0 3 
z
" id="m4eb817476d" style="stroke:#0060ff;"/>
    </defs>
    <g clip-path="url(#p4220b65b5d)">
     <use style="fill:#0060ff;stroke:#0060ff;" x="350.302813" xlink:href="#m4eb817476d" y="186.582286"/>
     <use style="fill:#0060ff;stroke:#0060ff;" x="367.042813" xlink:href="#m4eb817476d" y="187.284832"/>
     <use style="fill:#0060ff;stroke:#0060ff;" x="383.782813" xlink:href="#m4eb817476d" y="178.950283"/>
     <use style="fill:#0060ff;stroke:#0060ff;" x="400.522813" xlink:href="#m4eb817476d" y="191.710295"/>
     <use style="fill:#0060ff;stroke:#0060ff;" x="417.262813" xlink:href="#m4eb817476d" y="182.210741"/>
     <use style="fill:#0060ff;stroke:#0060ff;" x="434.002813" xlink:href="#m4eb817476d" y="183.223629"/>
     <use style="fill:#0060ff;stroke:#0060ff;" x="450.742813" xlink:href="#m4eb817476d" y="177.068821"/>
     <use style="fill:#0060ff;stroke:#0060ff;" x="467.482813" xlink:href="#m4eb817476d" y="177.782011"/>
     <use style="fill:#0060ff;stroke:#0060ff;" x="484.222813" xlink:href="#m4eb817476d" y="181.492997"/>
     <use style="fill:#0060ff;stroke:#0060ff;" x="500.962813" xlink:href="#m4eb817476d" y="231.388482"/>
     <use style="fill:#0060ff;stroke:#0060ff;" x="517.702813" xlink:href="#m4eb817476d" y="252.260034"/>
     <use style="fill:#0060ff;stroke:#0060ff;" x="551.182813" xlink:href="#m4eb817476d" y="269.157487"/>
     <use style="fill:#0060ff;stroke:#0060ff;" x="567.922813" xlink:href="#m4eb817476d" y="255.320448"/>
     <use style="fill:#0060ff;stroke:#0060ff;" x="584.662813" xlink:href="#m4eb817476d" y="179.634715"/>
     <use style="fill:#0060ff;stroke:#0060ff;" x="601.402813" xlink:href="#m4eb817476d" y="188.125275"/>
     <use style="fill:#0060ff;stroke:#0060ff;" x="618.142813" xlink:href="#m4eb817476d" y="207.132074"/>
     <use style="fill:#0060ff;stroke:#0060ff;" x="634.882813" xlink:href="#m4eb817476d" y="200.992427"/>
     <use style="fill:#0060ff;stroke:#0060ff;" x="651.622813" xlink:href="#m4eb817476d" y="197.872317"/>
     <use style="fill:#0060ff;stroke:#0060ff;" x="668.362813" xlink:href="#m4eb817476d" y="188.615463"/>
     <use style="fill:#0060ff;stroke:#0060ff;" x="685.102813" xlink:href="#m4eb817476d" y="205.717941"/>
     <use style="fill:#0060ff;stroke:#0060ff;" x="701.842813" xlink:href="#m4eb817476d" y="206.3163"/>
    </g>
   </g>
   <g id="line2d_47">
    <path clip-path="url(#p4220b65b5d)" d="M 350.302813 184.647311 
L 367.042813 202.022124 
L 383.782813 185.665722 
L 400.522813 180.696982 
L 417.262813 191.10276 
L 434.002813 198.534393 
L 450.742813 188.62673 
L 467.482813 215.218517 
L 484.222813 182.058722 
L 500.962813 202.717548 
L 517.702813 233.091498 
L 551.182813 251.094067 
L 567.922813 224.243761 
L 584.662813 192.578229 
L 601.402813 190.325076 
L 618.142813 201.911936 
L 634.882813 200.429372 
L 651.622813 231.754966 
L 668.362813 194.089245 
L 685.102813 203.806981 
L 701.842813 203.04436 
" style="fill:none;stroke:#00d4ff;stroke-linecap:square;stroke-width:1.5;"/>
    <defs>
     <path d="M 0 3 
C 0.795609 3 1.55874 2.683901 2.12132 2.12132 
C 2.683901 1.55874 3 0.795609 3 0 
C 3 -0.795609 2.683901 -1.55874 2.12132 -2.12132 
C 1.55874 -2.683901 0.795609 -3 0 -3 
C -0.795609 -3 -1.55874 -2.683901 -2.12132 -2.12132 
C -2.683901 -1.55874 -3 -0.795609 -3 0 
C -3 0.795609 -2.683901 1.55874 -2.12132 2.12132 
C -1.55874 2.683901 -0.795609 3 0 3 
z
" id="ma6c8125c00" style="stroke:#00d4ff;"/>
    </defs>
    <g clip-path="url(#p4220b65b5d)">
     <use style="fill:#00d4ff;stroke:#00d4ff;" x="350.302813" xlink:href="#ma6c8125c00" y="184.647311"/>
     <use style="fill:#00d4ff;stroke:#00d4ff;" x="367.042813" xlink:href="#ma6c8125c00" y="202.022124"/>
     <use style="fill:#00d4ff;stroke:#00d4ff;" x="383.782813" xlink:href="#ma6c8125c00" y="185.665722"/>
     <use style="fill:#00d4ff;stroke:#00d4ff;" x="400.522813" xlink:href="#ma6c8125c00" y="180.696982"/>
     <use style="fill:#00d4ff;stroke:#00d4ff;" x="417.262813" xlink:href="#ma6c8125c00" y="191.10276"/>
     <use style="fill:#00d4ff;stroke:#00d4ff;" x="434.002813" xlink:href="#ma6c8125c00" y="198.534393"/>
     <use style="fill:#00d4ff;stroke:#00d4ff;" x="450.742813" xlink:href="#ma6c8125c00" y="188.62673"/>
     <use style="fill:#00d4ff;stroke:#00d4ff;" x="467.482813" xlink:href="#ma6c8125c00" y="215.218517"/>
     <use style="fill:#00d4ff;stroke:#00d4ff;" x="484.222813" xlink:href="#ma6c8125c00" y="182.058722"/>
     <use style="fill:#00d4ff;stroke:#00d4ff;" x="500.962813" xlink:href="#ma6c8125c00" y="202.717548"/>
     <use style="fill:#00d4ff;stroke:#00d4ff;" x="517.702813" xlink:href="#ma6c8125c00" y="233.091498"/>
     <use style="fill:#00d4ff;stroke:#00d4ff;" x="551.182813" xlink:href="#ma6c8125c00" y="251.094067"/>
     <use style="fill:#00d4ff;stroke:#00d4ff;" x="567.922813" xlink:href="#ma6c8125c00" y="224.243761"/>
     <use style="fill:#00d4ff;stroke:#00d4ff;" x="584.662813" xlink:href="#ma6c8125c00" y="192.578229"/>
     <use style="fill:#00d4ff;stroke:#00d4ff;" x="601.402813" xlink:href="#ma6c8125c00" y="190.325076"/>
     <use style="fill:#00d4ff;stroke:#00d4ff;" x="618.142813" xlink:href="#ma6c8125c00" y="201.911936"/>
     <use style="fill:#00d4ff;stroke:#00d4ff;" x="634.882813" xlink:href="#ma6c8125c00" y="200.429372"/>
     <use style="fill:#00d4ff;stroke:#00d4ff;" x="651.622813" xlink:href="#ma6c8125c00" y="231.754966"/>
     <use style="fill:#00d4ff;stroke:#00d4ff;" x="668.362813" xlink:href="#ma6c8125c00" y="194.089245"/>
     <use style="fill:#00d4ff;stroke:#00d4ff;" x="685.102813" xlink:href="#ma6c8125c00" y="203.806981"/>
     <use style="fill:#00d4ff;stroke:#00d4ff;" x="701.842813" xlink:href="#ma6c8125c00" y="203.04436"/>
    </g>
   </g>
   <g id="line2d_48">
    <path clip-path="url(#p4220b65b5d)" d="M 350.302813 189.90608 
L 367.042813 207.747889 
L 383.782813 193.111935 
L 400.522813 180.696982 
L 417.262813 191.10276 
L 434.002813 198.534393 
L 450.742813 188.62673 
L 467.482813 215.218517 
L 484.222813 182.058722 
L 500.962813 202.717548 
L 517.702813 233.091498 
L 551.182813 251.094067 
L 567.922813 224.243761 
L 584.662813 179.634715 
L 601.402813 190.325076 
L 618.142813 207.132074 
L 634.882813 200.992427 
L 651.622813 197.872317 
L 668.362813 188.615463 
L 685.102813 203.806981 
L 701.842813 203.04436 
" style="fill:none;stroke:#4dffaa;stroke-linecap:square;stroke-width:1.5;"/>
    <defs>
     <path d="M 0 3 
C 0.795609 3 1.55874 2.683901 2.12132 2.12132 
C 2.683901 1.55874 3 0.795609 3 0 
C 3 -0.795609 2.683901 -1.55874 2.12132 -2.12132 
C 1.55874 -2.683901 0.795609 -3 0 -3 
C -0.795609 -3 -1.55874 -2.683901 -2.12132 -2.12132 
C -2.683901 -1.55874 -3 -0.795609 -3 0 
C -3 0.795609 -2.683901 1.55874 -2.12132 2.12132 
C -1.55874 2.683901 -0.795609 3 0 3 
z
" id="mebe2602ece" style="stroke:#4dffaa;"/>
    </defs>
    <g clip-path="url(#p4220b65b5d)">
     <use style="fill:#4dffaa;stroke:#4dffaa;" x="350.302813" xlink:href="#mebe2602ece" y="189.90608"/>
     <use style="fill:#4dffaa;stroke:#4dffaa;" x="367.042813" xlink:href="#mebe2602ece" y="207.747889"/>
     <use style="fill:#4dffaa;stroke:#4dffaa;" x="383.782813" xlink:href="#mebe2602ece" y="193.111935"/>
     <use style="fill:#4dffaa;stroke:#4dffaa;" x="400.522813" xlink:href="#mebe2602ece" y="180.696982"/>
     <use style="fill:#4dffaa;stroke:#4dffaa;" x="417.262813" xlink:href="#mebe2602ece" y="191.10276"/>
     <use style="fill:#4dffaa;stroke:#4dffaa;" x="434.002813" xlink:href="#mebe2602ece" y="198.534393"/>
     <use style="fill:#4dffaa;stroke:#4dffaa;" x="450.742813" xlink:href="#mebe2602ece" y="188.62673"/>
     <use style="fill:#4dffaa;stroke:#4dffaa;" x="467.482813" xlink:href="#mebe2602ece" y="215.218517"/>
     <use style="fill:#4dffaa;stroke:#4dffaa;" x="484.222813" xlink:href="#mebe2602ece" y="182.058722"/>
     <use style="fill:#4dffaa;stroke:#4dffaa;" x="500.962813" xlink:href="#mebe2602ece" y="202.717548"/>
     <use style="fill:#4dffaa;stroke:#4dffaa;" x="517.702813" xlink:href="#mebe2602ece" y="233.091498"/>
     <use style="fill:#4dffaa;stroke:#4dffaa;" x="551.182813" xlink:href="#mebe2602ece" y="251.094067"/>
     <use style="fill:#4dffaa;stroke:#4dffaa;" x="567.922813" xlink:href="#mebe2602ece" y="224.243761"/>
     <use style="fill:#4dffaa;stroke:#4dffaa;" x="584.662813" xlink:href="#mebe2602ece" y="179.634715"/>
     <use style="fill:#4dffaa;stroke:#4dffaa;" x="601.402813" xlink:href="#mebe2602ece" y="190.325076"/>
     <use style="fill:#4dffaa;stroke:#4dffaa;" x="618.142813" xlink:href="#mebe2602ece" y="207.132074"/>
     <use style="fill:#4dffaa;stroke:#4dffaa;" x="634.882813" xlink:href="#mebe2602ece" y="200.992427"/>
     <use style="fill:#4dffaa;stroke:#4dffaa;" x="651.622813" xlink:href="#mebe2602ece" y="197.872317"/>
     <use style="fill:#4dffaa;stroke:#4dffaa;" x="668.362813" xlink:href="#mebe2602ece" y="188.615463"/>
     <use style="fill:#4dffaa;stroke:#4dffaa;" x="685.102813" xlink:href="#mebe2602ece" y="203.806981"/>
     <use style="fill:#4dffaa;stroke:#4dffaa;" x="701.842813" xlink:href="#mebe2602ece" y="203.04436"/>
    </g>
   </g>
   <g id="line2d_49">
    <path clip-path="url(#p4220b65b5d)" d="M 283.342813 165.778472 
L 300.082813 147.367188 
L 316.822813 186.681035 
L 400.522813 135.278771 
L 417.262813 217.771973 
L 618.142813 247.120472 
L 634.882813 174.338889 
L 651.622813 200.547938 
L 668.362813 224.894665 
L 685.102813 202.572262 
L 701.842813 165.751088 
" style="fill:none;stroke:#aaff4d;stroke-linecap:square;stroke-width:1.5;"/>
    <defs>
     <path d="M 0 3 
C 0.795609 3 1.55874 2.683901 2.12132 2.12132 
C 2.683901 1.55874 3 0.795609 3 0 
C 3 -0.795609 2.683901 -1.55874 2.12132 -2.12132 
C 1.55874 -2.683901 0.795609 -3 0 -3 
C -0.795609 -3 -1.55874 -2.683901 -2.12132 -2.12132 
C -2.683901 -1.55874 -3 -0.795609 -3 0 
C -3 0.795609 -2.683901 1.55874 -2.12132 2.12132 
C -1.55874 2.683901 -0.795609 3 0 3 
z
" id="mcfbb0d9847" style="stroke:#aaff4d;"/>
    </defs>
    <g clip-path="url(#p4220b65b5d)">
     <use style="fill:#aaff4d;stroke:#aaff4d;" x="283.342813" xlink:href="#mcfbb0d9847" y="165.778472"/>
     <use style="fill:#aaff4d;stroke:#aaff4d;" x="300.082813" xlink:href="#mcfbb0d9847" y="147.367188"/>
     <use style="fill:#aaff4d;stroke:#aaff4d;" x="316.822813" xlink:href="#mcfbb0d9847" y="186.681035"/>
     <use style="fill:#aaff4d;stroke:#aaff4d;" x="400.522813" xlink:href="#mcfbb0d9847" y="135.278771"/>
     <use style="fill:#aaff4d;stroke:#aaff4d;" x="417.262813" xlink:href="#mcfbb0d9847" y="217.771973"/>
     <use style="fill:#aaff4d;stroke:#aaff4d;" x="618.142813" xlink:href="#mcfbb0d9847" y="247.120472"/>
     <use style="fill:#aaff4d;stroke:#aaff4d;" x="634.882813" xlink:href="#mcfbb0d9847" y="174.338889"/>
     <use style="fill:#aaff4d;stroke:#aaff4d;" x="651.622813" xlink:href="#mcfbb0d9847" y="200.547938"/>
     <use style="fill:#aaff4d;stroke:#aaff4d;" x="668.362813" xlink:href="#mcfbb0d9847" y="224.894665"/>
     <use style="fill:#aaff4d;stroke:#aaff4d;" x="685.102813" xlink:href="#mcfbb0d9847" y="202.572262"/>
     <use style="fill:#aaff4d;stroke:#aaff4d;" x="701.842813" xlink:href="#mcfbb0d9847" y="165.751088"/>
    </g>
   </g>
   <g id="line2d_50">
    <path clip-path="url(#p4220b65b5d)" d="M 417.262813 167.967077 
L 434.002813 177.830954 
L 467.482813 176.495579 
L 584.662813 265.498859 
L 618.142813 260.089043 
L 634.882813 205.10563 
L 651.622813 182.154187 
L 668.362813 212.957449 
L 685.102813 201.639342 
L 701.842813 181.674898 
" style="fill:none;stroke:#ff7a00;stroke-linecap:square;stroke-width:1.5;"/>
    <defs>
     <path d="M 0 3 
C 0.795609 3 1.55874 2.683901 2.12132 2.12132 
C 2.683901 1.55874 3 0.795609 3 0 
C 3 -0.795609 2.683901 -1.55874 2.12132 -2.12132 
C 1.55874 -2.683901 0.795609 -3 0 -3 
C -0.795609 -3 -1.55874 -2.683901 -2.12132 -2.12132 
C -2.683901 -1.55874 -3 -0.795609 -3 0 
C -3 0.795609 -2.683901 1.55874 -2.12132 2.12132 
C -1.55874 2.683901 -0.795609 3 0 3 
z
" id="maba7b55651" style="stroke:#ff7a00;"/>
    </defs>
    <g clip-path="url(#p4220b65b5d)">
     <use style="fill:#ff7a00;stroke:#ff7a00;" x="417.262813" xlink:href="#maba7b55651" y="167.967077"/>
     <use style="fill:#ff7a00;stroke:#ff7a00;" x="434.002813" xlink:href="#maba7b55651" y="177.830954"/>
     <use style="fill:#ff7a00;stroke:#ff7a00;" x="467.482813" xlink:href="#maba7b55651" y="176.495579"/>
     <use style="fill:#ff7a00;stroke:#ff7a00;" x="584.662813" xlink:href="#maba7b55651" y="265.498859"/>
     <use style="fill:#ff7a00;stroke:#ff7a00;" x="618.142813" xlink:href="#maba7b55651" y="260.089043"/>
     <use style="fill:#ff7a00;stroke:#ff7a00;" x="634.882813" xlink:href="#maba7b55651" y="205.10563"/>
     <use style="fill:#ff7a00;stroke:#ff7a00;" x="651.622813" xlink:href="#maba7b55651" y="182.154187"/>
     <use style="fill:#ff7a00;stroke:#ff7a00;" x="668.362813" xlink:href="#maba7b55651" y="212.957449"/>
     <use style="fill:#ff7a00;stroke:#ff7a00;" x="685.102813" xlink:href="#maba7b55651" y="201.639342"/>
     <use style="fill:#ff7a00;stroke:#ff7a00;" x="701.842813" xlink:href="#maba7b55651" y="181.674898"/>
    </g>
   </g>
   <g id="line2d_51">
    <path clip-path="url(#p4220b65b5d)" d="M 601.402813 240.415745 
L 618.142813 197.035834 
L 634.882813 219.408317 
L 651.622813 191.0857 
L 668.362813 196.044741 
L 685.102813 166.871433 
L 701.842813 202.456709 
" style="fill:none;stroke:#ff1300;stroke-linecap:square;stroke-width:1.5;"/>
    <defs>
     <path d="M 0 3 
C 0.795609 3 1.55874 2.683901 2.12132 2.12132 
C 2.683901 1.55874 3 0.795609 3 0 
C 3 -0.795609 2.683901 -1.55874 2.12132 -2.12132 
C 1.55874 -2.683901 0.795609 -3 0 -3 
C -0.795609 -3 -1.55874 -2.683901 -2.12132 -2.12132 
C -2.683901 -1.55874 -3 -0.795609 -3 0 
C -3 0.795609 -2.683901 1.55874 -2.12132 2.12132 
C -1.55874 2.683901 -0.795609 3 0 3 
z
" id="m16ce5eedec" style="stroke:#ff1300;"/>
    </defs>
    <g clip-path="url(#p4220b65b5d)">
     <use style="fill:#ff1300;stroke:#ff1300;" x="601.402813" xlink:href="#m16ce5eedec" y="240.415745"/>
     <use style="fill:#ff1300;stroke:#ff1300;" x="618.142813" xlink:href="#m16ce5eedec" y="197.035834"/>
     <use style="fill:#ff1300;stroke:#ff1300;" x="634.882813" xlink:href="#m16ce5eedec" y="219.408317"/>
     <use style="fill:#ff1300;stroke:#ff1300;" x="651.622813" xlink:href="#m16ce5eedec" y="191.0857"/>
     <use style="fill:#ff1300;stroke:#ff1300;" x="668.362813" xlink:href="#m16ce5eedec" y="196.044741"/>
     <use style="fill:#ff1300;stroke:#ff1300;" x="685.102813" xlink:href="#m16ce5eedec" y="166.871433"/>
     <use style="fill:#ff1300;stroke:#ff1300;" x="701.842813" xlink:href="#m16ce5eedec" y="202.456709"/>
    </g>
   </g>
   <g id="line2d_52">
    <path clip-path="url(#p4220b65b5d)" d="M 584.662813 233.112561 
" style="fill:none;stroke:#800000;stroke-linecap:square;stroke-width:1.5;"/>
    <defs>
     <path d="M 0 3 
C 0.795609 3 1.55874 2.683901 2.12132 2.12132 
C 2.683901 1.55874 3 0.795609 3 0 
C 3 -0.795609 2.683901 -1.55874 2.12132 -2.12132 
C 1.55874 -2.683901 0.795609 -3 0 -3 
C -0.795609 -3 -1.55874 -2.683901 -2.12132 -2.12132 
C -2.683901 -1.55874 -3 -0.795609 -3 0 
C -3 0.795609 -2.683901 1.55874 -2.12132 2.12132 
C -1.55874 2.683901 -0.795609 3 0 3 
z
" id="m06177af2bd" style="stroke:#800000;"/>
    </defs>
    <g clip-path="url(#p4220b65b5d)">
     <use style="fill:#800000;stroke:#800000;" x="584.662813" xlink:href="#m06177af2bd" y="233.112561"/>
    </g>
   </g>
   <g id="patch_3">
    <path d="M 48.982813 348.478125 
L 48.982813 22.318125 
" style="fill:none;stroke:#000000;stroke-linecap:square;stroke-linejoin:miter;stroke-width:0.8;"/>
   </g>
   <g id="patch_4">
    <path d="M 718.582813 348.478125 
L 718.582813 22.318125 
" style="fill:none;stroke:#000000;stroke-linecap:square;stroke-linejoin:miter;stroke-width:0.8;"/>
   </g>
   <g id="patch_5">
    <path d="M 48.982813 348.478125 
L 718.582813 348.478125 
" style="fill:none;stroke:#000000;stroke-linecap:square;stroke-linejoin:miter;stroke-width:0.8;"/>
   </g>
   <g id="patch_6">
    <path d="M 48.982813 22.318125 
L 718.582813 22.318125 
" style="fill:none;stroke:#000000;stroke-linecap:square;stroke-linejoin:miter;stroke-width:0.8;"/>
   </g>
   <g id="text_22">
    <!-- metapopulation models -->
    <defs>
     <path d="M 52 44.1875 
Q 55.375 50.25 60.0625 53.125 
Q 64.75 56 71.09375 56 
Q 79.640625 56 84.28125 50.015625 
Q 88.921875 44.046875 88.921875 33.015625 
L 88.921875 0 
L 79.890625 0 
L 79.890625 32.71875 
Q 79.890625 40.578125 77.09375 44.375 
Q 74.3125 48.1875 68.609375 48.1875 
Q 61.625 48.1875 57.5625 43.546875 
Q 53.515625 38.921875 53.515625 30.90625 
L 53.515625 0 
L 44.484375 0 
L 44.484375 32.71875 
Q 44.484375 40.625 41.703125 44.40625 
Q 38.921875 48.1875 33.109375 48.1875 
Q 26.21875 48.1875 22.15625 43.53125 
Q 18.109375 38.875 18.109375 30.90625 
L 18.109375 0 
L 9.078125 0 
L 9.078125 54.6875 
L 18.109375 54.6875 
L 18.109375 46.1875 
Q 21.1875 51.21875 25.484375 53.609375 
Q 29.78125 56 35.6875 56 
Q 41.65625 56 45.828125 52.96875 
Q 50 49.953125 52 44.1875 
z
" id="DejaVuSans-109"/>
    </defs>
    <g transform="translate(312.573125 16.318125)scale(0.12 -0.12)">
     <use xlink:href="#DejaVuSans-109"/>
     <use x="97.412109" xlink:href="#DejaVuSans-101"/>
     <use x="158.935547" xlink:href="#DejaVuSans-116"/>
     <use x="198.144531" xlink:href="#DejaVuSans-97"/>
     <use x="259.423828" xlink:href="#DejaVuSans-112"/>
     <use x="322.900391" xlink:href="#DejaVuSans-111"/>
     <use x="384.082031" xlink:href="#DejaVuSans-112"/>
     <use x="447.558594" xlink:href="#DejaVuSans-117"/>
     <use x="510.9375" xlink:href="#DejaVuSans-108"/>
     <use x="538.720703" xlink:href="#DejaVuSans-97"/>
     <use x="600" xlink:href="#DejaVuSans-116"/>
     <use x="639.208984" xlink:href="#DejaVuSans-105"/>
     <use x="666.992188" xlink:href="#DejaVuSans-111"/>
     <use x="728.173828" xlink:href="#DejaVuSans-110"/>
     <use x="791.552734" xlink:href="#DejaVuSans-32"/>
     <use x="823.339844" xlink:href="#DejaVuSans-109"/>
     <use x="920.751953" xlink:href="#DejaVuSans-111"/>
     <use x="981.933594" xlink:href="#DejaVuSans-100"/>
     <use x="1045.410156" xlink:href="#DejaVuSans-101"/>
     <use x="1106.933594" xlink:href="#DejaVuSans-108"/>
     <use x="1134.716797" xlink:href="#DejaVuSans-115"/>
    </g>
   </g>
   <g id="legend_1">
    <g id="patch_7">
     <path d="M 747.366813 348.478125 
L 871.844938 348.478125 
Q 873.844938 348.478125 873.844938 346.478125 
L 873.844938 181.70625 
Q 873.844938 179.70625 871.844938 179.70625 
L 747.366813 179.70625 
Q 745.366813 179.70625 745.366813 181.70625 
L 745.366813 346.478125 
Q 745.366813 348.478125 747.366813 348.478125 
z
" style="fill:#ffffff;opacity:0.8;stroke:#cccccc;stroke-linejoin:miter;"/>
    </g>
    <g id="line2d_53">
     <path d="M 749.366813 187.804687 
L 769.366813 187.804687 
" style="fill:none;stroke:#000080;stroke-linecap:square;stroke-width:1.5;"/>
    </g>
    <g id="line2d_54">
     <g>
      <use style="fill:#000080;stroke:#000080;" x="759.366813" xlink:href="#m05e38a50b2" y="187.804687"/>
     </g>
    </g>
    <g id="text_23">
     <!-- CU:nochange -->
     <defs>
      <path d="M 64.40625 67.28125 
L 64.40625 56.890625 
Q 59.421875 61.53125 53.78125 63.8125 
Q 48.140625 66.109375 41.796875 66.109375 
Q 29.296875 66.109375 22.65625 58.46875 
Q 16.015625 50.828125 16.015625 36.375 
Q 16.015625 21.96875 22.65625 14.328125 
Q 29.296875 6.6875 41.796875 6.6875 
Q 48.140625 6.6875 53.78125 8.984375 
Q 59.421875 11.28125 64.40625 15.921875 
L 64.40625 5.609375 
Q 59.234375 2.09375 53.4375 0.328125 
Q 47.65625 -1.421875 41.21875 -1.421875 
Q 24.65625 -1.421875 15.125 8.703125 
Q 5.609375 18.84375 5.609375 36.375 
Q 5.609375 53.953125 15.125 64.078125 
Q 24.65625 74.21875 41.21875 74.21875 
Q 47.75 74.21875 53.53125 72.484375 
Q 59.328125 70.75 64.40625 67.28125 
z
" id="DejaVuSans-67"/>
      <path d="M 8.6875 72.90625 
L 18.609375 72.90625 
L 18.609375 28.609375 
Q 18.609375 16.890625 22.84375 11.734375 
Q 27.09375 6.59375 36.625 6.59375 
Q 46.09375 6.59375 50.34375 11.734375 
Q 54.59375 16.890625 54.59375 28.609375 
L 54.59375 72.90625 
L 64.5 72.90625 
L 64.5 27.390625 
Q 64.5 13.140625 57.4375 5.859375 
Q 50.390625 -1.421875 36.625 -1.421875 
Q 22.796875 -1.421875 15.734375 5.859375 
Q 8.6875 13.140625 8.6875 27.390625 
z
" id="DejaVuSans-85"/>
      <path d="M 11.71875 12.40625 
L 22.015625 12.40625 
L 22.015625 0 
L 11.71875 0 
z
M 11.71875 51.703125 
L 22.015625 51.703125 
L 22.015625 39.3125 
L 11.71875 39.3125 
z
" id="DejaVuSans-58"/>
      <path d="M 54.890625 33.015625 
L 54.890625 0 
L 45.90625 0 
L 45.90625 32.71875 
Q 45.90625 40.484375 42.875 44.328125 
Q 39.84375 48.1875 33.796875 48.1875 
Q 26.515625 48.1875 22.3125 43.546875 
Q 18.109375 38.921875 18.109375 30.90625 
L 18.109375 0 
L 9.078125 0 
L 9.078125 75.984375 
L 18.109375 75.984375 
L 18.109375 46.1875 
Q 21.34375 51.125 25.703125 53.5625 
Q 30.078125 56 35.796875 56 
Q 45.21875 56 50.046875 50.171875 
Q 54.890625 44.34375 54.890625 33.015625 
z
" id="DejaVuSans-104"/>
     </defs>
     <g transform="translate(777.366813 191.304687)scale(0.1 -0.1)">
      <use xlink:href="#DejaVuSans-67"/>
      <use x="69.824219" xlink:href="#DejaVuSans-85"/>
      <use x="143.017578" xlink:href="#DejaVuSans-58"/>
      <use x="176.708984" xlink:href="#DejaVuSans-110"/>
      <use x="240.087891" xlink:href="#DejaVuSans-111"/>
      <use x="301.269531" xlink:href="#DejaVuSans-99"/>
      <use x="356.25" xlink:href="#DejaVuSans-104"/>
      <use x="419.628906" xlink:href="#DejaVuSans-97"/>
      <use x="480.908203" xlink:href="#DejaVuSans-110"/>
      <use x="544.287109" xlink:href="#DejaVuSans-103"/>
      <use x="607.763672" xlink:href="#DejaVuSans-101"/>
     </g>
    </g>
    <g id="line2d_55">
     <path d="M 749.366813 206.482812 
L 769.366813 206.482812 
" style="fill:none;stroke:#0000ff;stroke-linecap:square;stroke-width:1.5;"/>
    </g>
    <g id="line2d_56">
     <g>
      <use style="fill:#0000ff;stroke:#0000ff;" x="759.366813" xlink:href="#mf09c4d3ca9" y="206.482812"/>
     </g>
    </g>
    <g id="text_24">
     <!-- CU:scenario_high -->
     <defs>
      <path d="M 50.984375 -16.609375 
L 50.984375 -23.578125 
L -0.984375 -23.578125 
L -0.984375 -16.609375 
z
" id="DejaVuSans-95"/>
     </defs>
     <g transform="translate(777.366813 209.982812)scale(0.1 -0.1)">
      <use xlink:href="#DejaVuSans-67"/>
      <use x="69.824219" xlink:href="#DejaVuSans-85"/>
      <use x="143.017578" xlink:href="#DejaVuSans-58"/>
      <use x="176.708984" xlink:href="#DejaVuSans-115"/>
      <use x="228.808594" xlink:href="#DejaVuSans-99"/>
      <use x="283.789062" xlink:href="#DejaVuSans-101"/>
      <use x="345.3125" xlink:href="#DejaVuSans-110"/>
      <use x="408.691406" xlink:href="#DejaVuSans-97"/>
      <use x="469.970703" xlink:href="#DejaVuSans-114"/>
      <use x="511.083984" xlink:href="#DejaVuSans-105"/>
      <use x="538.867188" xlink:href="#DejaVuSans-111"/>
      <use x="600.048828" xlink:href="#DejaVuSans-95"/>
      <use x="650.048828" xlink:href="#DejaVuSans-104"/>
      <use x="713.427734" xlink:href="#DejaVuSans-105"/>
      <use x="741.210938" xlink:href="#DejaVuSans-103"/>
      <use x="804.6875" xlink:href="#DejaVuSans-104"/>
     </g>
    </g>
    <g id="line2d_57">
     <path d="M 749.366813 225.439062 
L 769.366813 225.439062 
" style="fill:none;stroke:#0060ff;stroke-linecap:square;stroke-width:1.5;"/>
    </g>
    <g id="line2d_58">
     <g>
      <use style="fill:#0060ff;stroke:#0060ff;" x="759.366813" xlink:href="#m4eb817476d" y="225.439062"/>
     </g>
    </g>
    <g id="text_25">
     <!-- CU:scenario_low -->
     <g transform="translate(777.366813 228.939062)scale(0.1 -0.1)">
      <use xlink:href="#DejaVuSans-67"/>
      <use x="69.824219" xlink:href="#DejaVuSans-85"/>
      <use x="143.017578" xlink:href="#DejaVuSans-58"/>
      <use x="176.708984" xlink:href="#DejaVuSans-115"/>
      <use x="228.808594" xlink:href="#DejaVuSans-99"/>
      <use x="283.789062" xlink:href="#DejaVuSans-101"/>
      <use x="345.3125" xlink:href="#DejaVuSans-110"/>
      <use x="408.691406" xlink:href="#DejaVuSans-97"/>
      <use x="469.970703" xlink:href="#DejaVuSans-114"/>
      <use x="511.083984" xlink:href="#DejaVuSans-105"/>
      <use x="538.867188" xlink:href="#DejaVuSans-111"/>
      <use x="600.048828" xlink:href="#DejaVuSans-95"/>
      <use x="650.048828" xlink:href="#DejaVuSans-108"/>
      <use x="677.832031" xlink:href="#DejaVuSans-111"/>
      <use x="739.013672" xlink:href="#DejaVuSans-119"/>
     </g>
    </g>
    <g id="line2d_59">
     <path d="M 749.366813 244.395312 
L 769.366813 244.395312 
" style="fill:none;stroke:#00d4ff;stroke-linecap:square;stroke-width:1.5;"/>
    </g>
    <g id="line2d_60">
     <g>
      <use style="fill:#00d4ff;stroke:#00d4ff;" x="759.366813" xlink:href="#ma6c8125c00" y="244.395312"/>
     </g>
    </g>
    <g id="text_26">
     <!-- CU:scenario_mid -->
     <g transform="translate(777.366813 247.895312)scale(0.1 -0.1)">
      <use xlink:href="#DejaVuSans-67"/>
      <use x="69.824219" xlink:href="#DejaVuSans-85"/>
      <use x="143.017578" xlink:href="#DejaVuSans-58"/>
      <use x="176.708984" xlink:href="#DejaVuSans-115"/>
      <use x="228.808594" xlink:href="#DejaVuSans-99"/>
      <use x="283.789062" xlink:href="#DejaVuSans-101"/>
      <use x="345.3125" xlink:href="#DejaVuSans-110"/>
      <use x="408.691406" xlink:href="#DejaVuSans-97"/>
      <use x="469.970703" xlink:href="#DejaVuSans-114"/>
      <use x="511.083984" xlink:href="#DejaVuSans-105"/>
      <use x="538.867188" xlink:href="#DejaVuSans-111"/>
      <use x="600.048828" xlink:href="#DejaVuSans-95"/>
      <use x="650.048828" xlink:href="#DejaVuSans-109"/>
      <use x="747.460938" xlink:href="#DejaVuSans-105"/>
      <use x="775.244141" xlink:href="#DejaVuSans-100"/>
     </g>
    </g>
    <g id="line2d_61">
     <path d="M 749.366813 263.351562 
L 769.366813 263.351562 
" style="fill:none;stroke:#4dffaa;stroke-linecap:square;stroke-width:1.5;"/>
    </g>
    <g id="line2d_62">
     <g>
      <use style="fill:#4dffaa;stroke:#4dffaa;" x="759.366813" xlink:href="#mebe2602ece" y="263.351562"/>
     </g>
    </g>
    <g id="text_27">
     <!-- CU:select -->
     <g transform="translate(777.366813 266.851562)scale(0.1 -0.1)">
      <use xlink:href="#DejaVuSans-67"/>
      <use x="69.824219" xlink:href="#DejaVuSans-85"/>
      <use x="143.017578" xlink:href="#DejaVuSans-58"/>
      <use x="176.708984" xlink:href="#DejaVuSans-115"/>
      <use x="228.808594" xlink:href="#DejaVuSans-101"/>
      <use x="290.332031" xlink:href="#DejaVuSans-108"/>
      <use x="318.115234" xlink:href="#DejaVuSans-101"/>
      <use x="379.638672" xlink:href="#DejaVuSans-99"/>
      <use x="434.619141" xlink:href="#DejaVuSans-116"/>
     </g>
    </g>
    <g id="line2d_63">
     <path d="M 749.366813 282.029687 
L 769.366813 282.029687 
" style="fill:none;stroke:#aaff4d;stroke-linecap:square;stroke-width:1.5;"/>
    </g>
    <g id="line2d_64">
     <g>
      <use style="fill:#aaff4d;stroke:#aaff4d;" x="759.366813" xlink:href="#mcfbb0d9847" y="282.029687"/>
     </g>
    </g>
    <g id="text_28">
     <!-- JHU_IDD:CovidSP -->
     <defs>
      <path d="M 9.8125 72.90625 
L 19.671875 72.90625 
L 19.671875 43.015625 
L 55.515625 43.015625 
L 55.515625 72.90625 
L 65.375 72.90625 
L 65.375 0 
L 55.515625 0 
L 55.515625 34.71875 
L 19.671875 34.71875 
L 19.671875 0 
L 9.8125 0 
z
" id="DejaVuSans-72"/>
      <path d="M 9.8125 72.90625 
L 19.671875 72.90625 
L 19.671875 0 
L 9.8125 0 
z
" id="DejaVuSans-73"/>
      <path d="M 19.671875 64.796875 
L 19.671875 37.40625 
L 32.078125 37.40625 
Q 38.96875 37.40625 42.71875 40.96875 
Q 46.484375 44.53125 46.484375 51.125 
Q 46.484375 57.671875 42.71875 61.234375 
Q 38.96875 64.796875 32.078125 64.796875 
z
M 9.8125 72.90625 
L 32.078125 72.90625 
Q 44.34375 72.90625 50.609375 67.359375 
Q 56.890625 61.8125 56.890625 51.125 
Q 56.890625 40.328125 50.609375 34.8125 
Q 44.34375 29.296875 32.078125 29.296875 
L 19.671875 29.296875 
L 19.671875 0 
L 9.8125 0 
z
" id="DejaVuSans-80"/>
     </defs>
     <g transform="translate(777.366813 285.529687)scale(0.1 -0.1)">
      <use xlink:href="#DejaVuSans-74"/>
      <use x="29.492188" xlink:href="#DejaVuSans-72"/>
      <use x="104.6875" xlink:href="#DejaVuSans-85"/>
      <use x="177.880859" xlink:href="#DejaVuSans-95"/>
      <use x="227.880859" xlink:href="#DejaVuSans-73"/>
      <use x="257.373047" xlink:href="#DejaVuSans-68"/>
      <use x="334.375" xlink:href="#DejaVuSans-68"/>
      <use x="411.376953" xlink:href="#DejaVuSans-58"/>
      <use x="445.068359" xlink:href="#DejaVuSans-67"/>
      <use x="514.892578" xlink:href="#DejaVuSans-111"/>
      <use x="576.074219" xlink:href="#DejaVuSans-118"/>
      <use x="635.253906" xlink:href="#DejaVuSans-105"/>
      <use x="663.037109" xlink:href="#DejaVuSans-100"/>
      <use x="726.513672" xlink:href="#DejaVuSans-83"/>
      <use x="789.990234" xlink:href="#DejaVuSans-80"/>
     </g>
    </g>
    <g id="line2d_65">
     <path d="M 749.366813 300.985937 
L 769.366813 300.985937 
" style="fill:none;stroke:#ff7a00;stroke-linecap:square;stroke-width:1.5;"/>
    </g>
    <g id="line2d_66">
     <g>
      <use style="fill:#ff7a00;stroke:#ff7a00;" x="759.366813" xlink:href="#maba7b55651" y="300.985937"/>
     </g>
    </g>
    <g id="text_29">
     <!-- JHUAPL:Bucky -->
     <defs>
      <path d="M 9.8125 72.90625 
L 19.671875 72.90625 
L 19.671875 8.296875 
L 55.171875 8.296875 
L 55.171875 0 
L 9.8125 0 
z
" id="DejaVuSans-76"/>
      <path d="M 19.671875 34.8125 
L 19.671875 8.109375 
L 35.5 8.109375 
Q 43.453125 8.109375 47.28125 11.40625 
Q 51.125 14.703125 51.125 21.484375 
Q 51.125 28.328125 47.28125 31.5625 
Q 43.453125 34.8125 35.5 34.8125 
z
M 19.671875 64.796875 
L 19.671875 42.828125 
L 34.28125 42.828125 
Q 41.5 42.828125 45.03125 45.53125 
Q 48.578125 48.25 48.578125 53.8125 
Q 48.578125 59.328125 45.03125 62.0625 
Q 41.5 64.796875 34.28125 64.796875 
z
M 9.8125 72.90625 
L 35.015625 72.90625 
Q 46.296875 72.90625 52.390625 68.21875 
Q 58.5 63.53125 58.5 54.890625 
Q 58.5 48.1875 55.375 44.234375 
Q 52.25 40.28125 46.1875 39.3125 
Q 53.46875 37.75 57.5 32.78125 
Q 61.53125 27.828125 61.53125 20.40625 
Q 61.53125 10.640625 54.890625 5.3125 
Q 48.25 0 35.984375 0 
L 9.8125 0 
z
" id="DejaVuSans-66"/>
     </defs>
     <g transform="translate(777.366813 304.485937)scale(0.1 -0.1)">
      <use xlink:href="#DejaVuSans-74"/>
      <use x="29.492188" xlink:href="#DejaVuSans-72"/>
      <use x="104.6875" xlink:href="#DejaVuSans-85"/>
      <use x="177.880859" xlink:href="#DejaVuSans-65"/>
      <use x="246.289062" xlink:href="#DejaVuSans-80"/>
      <use x="306.591797" xlink:href="#DejaVuSans-76"/>
      <use x="362.304688" xlink:href="#DejaVuSans-58"/>
      <use x="395.996094" xlink:href="#DejaVuSans-66"/>
      <use x="464.599609" xlink:href="#DejaVuSans-117"/>
      <use x="527.978516" xlink:href="#DejaVuSans-99"/>
      <use x="582.958984" xlink:href="#DejaVuSans-107"/>
      <use x="637.244141" xlink:href="#DejaVuSans-121"/>
     </g>
    </g>
    <g id="line2d_67">
     <path d="M 749.366813 319.664062 
L 769.366813 319.664062 
" style="fill:none;stroke:#ff1300;stroke-linecap:square;stroke-width:1.5;"/>
    </g>
    <g id="line2d_68">
     <g>
      <use style="fill:#ff1300;stroke:#ff1300;" x="759.366813" xlink:href="#m16ce5eedec" y="319.664062"/>
     </g>
    </g>
    <g id="text_30">
     <!-- USC:SI_kJalpha -->
     <g transform="translate(777.366813 323.164062)scale(0.1 -0.1)">
      <use xlink:href="#DejaVuSans-85"/>
      <use x="73.193359" xlink:href="#DejaVuSans-83"/>
      <use x="136.669922" xlink:href="#DejaVuSans-67"/>
      <use x="206.494141" xlink:href="#DejaVuSans-58"/>
      <use x="240.185547" xlink:href="#DejaVuSans-83"/>
      <use x="303.662109" xlink:href="#DejaVuSans-73"/>
      <use x="333.154297" xlink:href="#DejaVuSans-95"/>
      <use x="383.154297" xlink:href="#DejaVuSans-107"/>
      <use x="441.064453" xlink:href="#DejaVuSans-74"/>
      <use x="470.556641" xlink:href="#DejaVuSans-97"/>
      <use x="531.835938" xlink:href="#DejaVuSans-108"/>
      <use x="559.619141" xlink:href="#DejaVuSans-112"/>
      <use x="623.095703" xlink:href="#DejaVuSans-104"/>
      <use x="686.474609" xlink:href="#DejaVuSans-97"/>
     </g>
    </g>
    <g id="line2d_69">
     <path d="M 749.366813 338.620312 
L 769.366813 338.620312 
" style="fill:none;stroke:#800000;stroke-linecap:square;stroke-width:1.5;"/>
    </g>
    <g id="line2d_70">
     <g>
      <use style="fill:#800000;stroke:#800000;" x="759.366813" xlink:href="#m06177af2bd" y="338.620312"/>
     </g>
    </g>
    <g id="text_31">
     <!-- USC:SI_kJalpha_RF -->
     <defs>
      <path d="M 44.390625 34.1875 
Q 47.5625 33.109375 50.5625 29.59375 
Q 53.5625 26.078125 56.59375 19.921875 
L 66.609375 0 
L 56 0 
L 46.6875 18.703125 
Q 43.0625 26.03125 39.671875 28.421875 
Q 36.28125 30.8125 30.421875 30.8125 
L 19.671875 30.8125 
L 19.671875 0 
L 9.8125 0 
L 9.8125 72.90625 
L 32.078125 72.90625 
Q 44.578125 72.90625 50.734375 67.671875 
Q 56.890625 62.453125 56.890625 51.90625 
Q 56.890625 45.015625 53.6875 40.46875 
Q 50.484375 35.9375 44.390625 34.1875 
z
M 19.671875 64.796875 
L 19.671875 38.921875 
L 32.078125 38.921875 
Q 39.203125 38.921875 42.84375 42.21875 
Q 46.484375 45.515625 46.484375 51.90625 
Q 46.484375 58.296875 42.84375 61.546875 
Q 39.203125 64.796875 32.078125 64.796875 
z
" id="DejaVuSans-82"/>
      <path d="M 9.8125 72.90625 
L 51.703125 72.90625 
L 51.703125 64.59375 
L 19.671875 64.59375 
L 19.671875 43.109375 
L 48.578125 43.109375 
L 48.578125 34.8125 
L 19.671875 34.8125 
L 19.671875 0 
L 9.8125 0 
z
" id="DejaVuSans-70"/>
     </defs>
     <g transform="translate(777.366813 342.120312)scale(0.1 -0.1)">
      <use xlink:href="#DejaVuSans-85"/>
      <use x="73.193359" xlink:href="#DejaVuSans-83"/>
      <use x="136.669922" xlink:href="#DejaVuSans-67"/>
      <use x="206.494141" xlink:href="#DejaVuSans-58"/>
      <use x="240.185547" xlink:href="#DejaVuSans-83"/>
      <use x="303.662109" xlink:href="#DejaVuSans-73"/>
      <use x="333.154297" xlink:href="#DejaVuSans-95"/>
      <use x="383.154297" xlink:href="#DejaVuSans-107"/>
      <use x="441.064453" xlink:href="#DejaVuSans-74"/>
      <use x="470.556641" xlink:href="#DejaVuSans-97"/>
      <use x="531.835938" xlink:href="#DejaVuSans-108"/>
      <use x="559.619141" xlink:href="#DejaVuSans-112"/>
      <use x="623.095703" xlink:href="#DejaVuSans-104"/>
      <use x="686.474609" xlink:href="#DejaVuSans-97"/>
      <use x="747.753906" xlink:href="#DejaVuSans-95"/>
      <use x="797.753906" xlink:href="#DejaVuSans-82"/>
      <use x="867.236328" xlink:href="#DejaVuSans-70"/>
     </g>
    </g>
   </g>
  </g>
 </g>
 <defs>
  <clipPath id="p4220b65b5d">
   <rect height="326.16" width="669.6" x="48.982813" y="22.318125"/>
  </clipPath>
 </defs>
</svg>
