<?xml version="1.0" encoding="utf-8" standalone="no"?>
<!DOCTYPE svg PUBLIC "-//W3C//DTD SVG 1.1//EN"
  "http://www.w3.org/Graphics/SVG/1.1/DTD/svg11.dtd">
<!-- Created with matplotlib (https://matplotlib.org/) -->
<svg height="409.064358pt" version="1.1" viewBox="0 0 881.044937 409.064358" width="881.044937pt" xmlns="http://www.w3.org/2000/svg" xmlns:xlink="http://www.w3.org/1999/xlink">
 <defs>
  <style type="text/css">
*{stroke-linecap:butt;stroke-linejoin:round;}
  </style>
 </defs>
 <g id="figure_1">
  <g id="patch_1">
   <path d="M 0 409.064358 
L 881.044937 409.064358 
L 881.044937 0 
L 0 0 
z
" style="fill:#ffffff;"/>
  </g>
  <g id="axes_1">
   <g id="patch_2">
    <path d="M 48.982813 348.478125 
L 718.582813 348.478125 
L 718.582813 22.318125 
L 48.982813 22.318125 
z
" style="fill:#ffffff;"/>
   </g>
   <g id="matplotlib.axis_1">
    <g id="xtick_1">
     <g id="line2d_1">
      <defs>
       <path d="M 0 0 
L 0 3.5 
" id="m0955184fe6" style="stroke:#000000;stroke-width:0.8;"/>
      </defs>
      <g>
       <use style="stroke:#000000;stroke-width:0.8;" x="48.982812" xlink:href="#m0955184fe6" y="348.478125"/>
      </g>
     </g>
     <g id="text_1">
      <!-- Apr 25 -->
      <defs>
       <path d="M 34.1875 63.1875 
L 20.796875 26.90625 
L 47.609375 26.90625 
z
M 28.609375 72.90625 
L 39.796875 72.90625 
L 67.578125 0 
L 57.328125 0 
L 50.6875 18.703125 
L 17.828125 18.703125 
L 11.1875 0 
L 0.78125 0 
z
" id="DejaVuSans-65"/>
       <path d="M 18.109375 8.203125 
L 18.109375 -20.796875 
L 9.078125 -20.796875 
L 9.078125 54.6875 
L 18.109375 54.6875 
L 18.109375 46.390625 
Q 20.953125 51.265625 25.265625 53.625 
Q 29.59375 56 35.59375 56 
Q 45.5625 56 51.78125 48.09375 
Q 58.015625 40.1875 58.015625 27.296875 
Q 58.015625 14.40625 51.78125 6.484375 
Q 45.5625 -1.421875 35.59375 -1.421875 
Q 29.59375 -1.421875 25.265625 0.953125 
Q 20.953125 3.328125 18.109375 8.203125 
z
M 48.6875 27.296875 
Q 48.6875 37.203125 44.609375 42.84375 
Q 40.53125 48.484375 33.40625 48.484375 
Q 26.265625 48.484375 22.1875 42.84375 
Q 18.109375 37.203125 18.109375 27.296875 
Q 18.109375 17.390625 22.1875 11.75 
Q 26.265625 6.109375 33.40625 6.109375 
Q 40.53125 6.109375 44.609375 11.75 
Q 48.6875 17.390625 48.6875 27.296875 
z
" id="DejaVuSans-112"/>
       <path d="M 41.109375 46.296875 
Q 39.59375 47.171875 37.8125 47.578125 
Q 36.03125 48 33.890625 48 
Q 26.265625 48 22.1875 43.046875 
Q 18.109375 38.09375 18.109375 28.8125 
L 18.109375 0 
L 9.078125 0 
L 9.078125 54.6875 
L 18.109375 54.6875 
L 18.109375 46.1875 
Q 20.953125 51.171875 25.484375 53.578125 
Q 30.03125 56 36.53125 56 
Q 37.453125 56 38.578125 55.875 
Q 39.703125 55.765625 41.0625 55.515625 
z
" id="DejaVuSans-114"/>
       <path id="DejaVuSans-32"/>
       <path d="M 19.1875 8.296875 
L 53.609375 8.296875 
L 53.609375 0 
L 7.328125 0 
L 7.328125 8.296875 
Q 12.9375 14.109375 22.625 23.890625 
Q 32.328125 33.6875 34.8125 36.53125 
Q 39.546875 41.84375 41.421875 45.53125 
Q 43.3125 49.21875 43.3125 52.78125 
Q 43.3125 58.59375 39.234375 62.25 
Q 35.15625 65.921875 28.609375 65.921875 
Q 23.96875 65.921875 18.8125 64.3125 
Q 13.671875 62.703125 7.8125 59.421875 
L 7.8125 69.390625 
Q 13.765625 71.78125 18.9375 73 
Q 24.125 74.21875 28.421875 74.21875 
Q 39.75 74.21875 46.484375 68.546875 
Q 53.21875 62.890625 53.21875 53.421875 
Q 53.21875 48.921875 51.53125 44.890625 
Q 49.859375 40.875 45.40625 35.40625 
Q 44.1875 33.984375 37.640625 27.21875 
Q 31.109375 20.453125 19.1875 8.296875 
z
" id="DejaVuSans-50"/>
       <path d="M 10.796875 72.90625 
L 49.515625 72.90625 
L 49.515625 64.59375 
L 19.828125 64.59375 
L 19.828125 46.734375 
Q 21.96875 47.46875 24.109375 47.828125 
Q 26.265625 48.1875 28.421875 48.1875 
Q 40.625 48.1875 47.75 41.5 
Q 54.890625 34.8125 54.890625 23.390625 
Q 54.890625 11.625 47.5625 5.09375 
Q 40.234375 -1.421875 26.90625 -1.421875 
Q 22.3125 -1.421875 17.546875 -0.640625 
Q 12.796875 0.140625 7.71875 1.703125 
L 7.71875 11.625 
Q 12.109375 9.234375 16.796875 8.0625 
Q 21.484375 6.890625 26.703125 6.890625 
Q 35.15625 6.890625 40.078125 11.328125 
Q 45.015625 15.765625 45.015625 23.390625 
Q 45.015625 31 40.078125 35.4375 
Q 35.15625 39.890625 26.703125 39.890625 
Q 22.75 39.890625 18.8125 39.015625 
Q 14.890625 38.140625 10.796875 36.28125 
z
" id="DejaVuSans-53"/>
      </defs>
      <g transform="translate(39.194908 384.329187)rotate(-45)scale(0.1 -0.1)">
       <use xlink:href="#DejaVuSans-65"/>
       <use x="68.408203" xlink:href="#DejaVuSans-112"/>
       <use x="131.884766" xlink:href="#DejaVuSans-114"/>
       <use x="172.998047" xlink:href="#DejaVuSans-32"/>
       <use x="204.785156" xlink:href="#DejaVuSans-50"/>
       <use x="268.408203" xlink:href="#DejaVuSans-53"/>
      </g>
     </g>
    </g>
    <g id="xtick_2">
     <g id="line2d_2">
      <g>
       <use style="stroke:#000000;stroke-width:0.8;" x="123.382812" xlink:href="#m0955184fe6" y="348.478125"/>
      </g>
     </g>
     <g id="text_2">
      <!-- May 23 -->
      <defs>
       <path d="M 9.8125 72.90625 
L 24.515625 72.90625 
L 43.109375 23.296875 
L 61.8125 72.90625 
L 76.515625 72.90625 
L 76.515625 0 
L 66.890625 0 
L 66.890625 64.015625 
L 48.09375 14.015625 
L 38.1875 14.015625 
L 19.390625 64.015625 
L 19.390625 0 
L 9.8125 0 
z
" id="DejaVuSans-77"/>
       <path d="M 34.28125 27.484375 
Q 23.390625 27.484375 19.1875 25 
Q 14.984375 22.515625 14.984375 16.5 
Q 14.984375 11.71875 18.140625 8.90625 
Q 21.296875 6.109375 26.703125 6.109375 
Q 34.1875 6.109375 38.703125 11.40625 
Q 43.21875 16.703125 43.21875 25.484375 
L 43.21875 27.484375 
z
M 52.203125 31.203125 
L 52.203125 0 
L 43.21875 0 
L 43.21875 8.296875 
Q 40.140625 3.328125 35.546875 0.953125 
Q 30.953125 -1.421875 24.3125 -1.421875 
Q 15.921875 -1.421875 10.953125 3.296875 
Q 6 8.015625 6 15.921875 
Q 6 25.140625 12.171875 29.828125 
Q 18.359375 34.515625 30.609375 34.515625 
L 43.21875 34.515625 
L 43.21875 35.40625 
Q 43.21875 41.609375 39.140625 45 
Q 35.0625 48.390625 27.6875 48.390625 
Q 23 48.390625 18.546875 47.265625 
Q 14.109375 46.140625 10.015625 43.890625 
L 10.015625 52.203125 
Q 14.9375 54.109375 19.578125 55.046875 
Q 24.21875 56 28.609375 56 
Q 40.484375 56 46.34375 49.84375 
Q 52.203125 43.703125 52.203125 31.203125 
z
" id="DejaVuSans-97"/>
       <path d="M 32.171875 -5.078125 
Q 28.375 -14.84375 24.75 -17.8125 
Q 21.140625 -20.796875 15.09375 -20.796875 
L 7.90625 -20.796875 
L 7.90625 -13.28125 
L 13.1875 -13.28125 
Q 16.890625 -13.28125 18.9375 -11.515625 
Q 21 -9.765625 23.484375 -3.21875 
L 25.09375 0.875 
L 2.984375 54.6875 
L 12.5 54.6875 
L 29.59375 11.921875 
L 46.6875 54.6875 
L 56.203125 54.6875 
z
" id="DejaVuSans-121"/>
       <path d="M 40.578125 39.3125 
Q 47.65625 37.796875 51.625 33 
Q 55.609375 28.21875 55.609375 21.1875 
Q 55.609375 10.40625 48.1875 4.484375 
Q 40.765625 -1.421875 27.09375 -1.421875 
Q 22.515625 -1.421875 17.65625 -0.515625 
Q 12.796875 0.390625 7.625 2.203125 
L 7.625 11.71875 
Q 11.71875 9.328125 16.59375 8.109375 
Q 21.484375 6.890625 26.8125 6.890625 
Q 36.078125 6.890625 40.9375 10.546875 
Q 45.796875 14.203125 45.796875 21.1875 
Q 45.796875 27.640625 41.28125 31.265625 
Q 36.765625 34.90625 28.71875 34.90625 
L 20.21875 34.90625 
L 20.21875 43.015625 
L 29.109375 43.015625 
Q 36.375 43.015625 40.234375 45.921875 
Q 44.09375 48.828125 44.09375 54.296875 
Q 44.09375 59.90625 40.109375 62.90625 
Q 36.140625 65.921875 28.71875 65.921875 
Q 24.65625 65.921875 20.015625 65.03125 
Q 15.375 64.15625 9.8125 62.3125 
L 9.8125 71.09375 
Q 15.4375 72.65625 20.34375 73.4375 
Q 25.25 74.21875 29.59375 74.21875 
Q 40.828125 74.21875 47.359375 69.109375 
Q 53.90625 64.015625 53.90625 55.328125 
Q 53.90625 49.265625 50.4375 45.09375 
Q 46.96875 40.921875 40.578125 39.3125 
z
" id="DejaVuSans-51"/>
      </defs>
      <g transform="translate(112.401665 386.715672)rotate(-45)scale(0.1 -0.1)">
       <use xlink:href="#DejaVuSans-77"/>
       <use x="86.279297" xlink:href="#DejaVuSans-97"/>
       <use x="147.558594" xlink:href="#DejaVuSans-121"/>
       <use x="206.738281" xlink:href="#DejaVuSans-32"/>
       <use x="238.525391" xlink:href="#DejaVuSans-50"/>
       <use x="302.148438" xlink:href="#DejaVuSans-51"/>
      </g>
     </g>
    </g>
    <g id="xtick_3">
     <g id="line2d_3">
      <g>
       <use style="stroke:#000000;stroke-width:0.8;" x="197.782813" xlink:href="#m0955184fe6" y="348.478125"/>
      </g>
     </g>
     <g id="text_3">
      <!-- Jun 20 -->
      <defs>
       <path d="M 9.8125 72.90625 
L 19.671875 72.90625 
L 19.671875 5.078125 
Q 19.671875 -8.109375 14.671875 -14.0625 
Q 9.671875 -20.015625 -1.421875 -20.015625 
L -5.171875 -20.015625 
L -5.171875 -11.71875 
L -2.09375 -11.71875 
Q 4.4375 -11.71875 7.125 -8.046875 
Q 9.8125 -4.390625 9.8125 5.078125 
z
" id="DejaVuSans-74"/>
       <path d="M 8.5 21.578125 
L 8.5 54.6875 
L 17.484375 54.6875 
L 17.484375 21.921875 
Q 17.484375 14.15625 20.5 10.265625 
Q 23.53125 6.390625 29.59375 6.390625 
Q 36.859375 6.390625 41.078125 11.03125 
Q 45.3125 15.671875 45.3125 23.6875 
L 45.3125 54.6875 
L 54.296875 54.6875 
L 54.296875 0 
L 45.3125 0 
L 45.3125 8.40625 
Q 42.046875 3.421875 37.71875 1 
Q 33.40625 -1.421875 27.6875 -1.421875 
Q 18.265625 -1.421875 13.375 4.4375 
Q 8.5 10.296875 8.5 21.578125 
z
M 31.109375 56 
z
" id="DejaVuSans-117"/>
       <path d="M 54.890625 33.015625 
L 54.890625 0 
L 45.90625 0 
L 45.90625 32.71875 
Q 45.90625 40.484375 42.875 44.328125 
Q 39.84375 48.1875 33.796875 48.1875 
Q 26.515625 48.1875 22.3125 43.546875 
Q 18.109375 38.921875 18.109375 30.90625 
L 18.109375 0 
L 9.078125 0 
L 9.078125 54.6875 
L 18.109375 54.6875 
L 18.109375 46.1875 
Q 21.34375 51.125 25.703125 53.5625 
Q 30.078125 56 35.796875 56 
Q 45.21875 56 50.046875 50.171875 
Q 54.890625 44.34375 54.890625 33.015625 
z
" id="DejaVuSans-110"/>
       <path d="M 31.78125 66.40625 
Q 24.171875 66.40625 20.328125 58.90625 
Q 16.5 51.421875 16.5 36.375 
Q 16.5 21.390625 20.328125 13.890625 
Q 24.171875 6.390625 31.78125 6.390625 
Q 39.453125 6.390625 43.28125 13.890625 
Q 47.125 21.390625 47.125 36.375 
Q 47.125 51.421875 43.28125 58.90625 
Q 39.453125 66.40625 31.78125 66.40625 
z
M 31.78125 74.21875 
Q 44.046875 74.21875 50.515625 64.515625 
Q 56.984375 54.828125 56.984375 36.375 
Q 56.984375 17.96875 50.515625 8.265625 
Q 44.046875 -1.421875 31.78125 -1.421875 
Q 19.53125 -1.421875 13.0625 8.265625 
Q 6.59375 17.96875 6.59375 36.375 
Q 6.59375 54.828125 13.0625 64.515625 
Q 19.53125 74.21875 31.78125 74.21875 
z
" id="DejaVuSans-48"/>
      </defs>
      <g transform="translate(188.58711 383.144783)rotate(-45)scale(0.1 -0.1)">
       <use xlink:href="#DejaVuSans-74"/>
       <use x="29.492188" xlink:href="#DejaVuSans-117"/>
       <use x="92.871094" xlink:href="#DejaVuSans-110"/>
       <use x="156.25" xlink:href="#DejaVuSans-32"/>
       <use x="188.037109" xlink:href="#DejaVuSans-50"/>
       <use x="251.660156" xlink:href="#DejaVuSans-48"/>
      </g>
     </g>
    </g>
    <g id="xtick_4">
     <g id="line2d_4">
      <g>
       <use style="stroke:#000000;stroke-width:0.8;" x="272.182813" xlink:href="#m0955184fe6" y="348.478125"/>
      </g>
     </g>
     <g id="text_4">
      <!-- Jul 18 -->
      <defs>
       <path d="M 9.421875 75.984375 
L 18.40625 75.984375 
L 18.40625 0 
L 9.421875 0 
z
" id="DejaVuSans-108"/>
       <path d="M 12.40625 8.296875 
L 28.515625 8.296875 
L 28.515625 63.921875 
L 10.984375 60.40625 
L 10.984375 69.390625 
L 28.421875 72.90625 
L 38.28125 72.90625 
L 38.28125 8.296875 
L 54.390625 8.296875 
L 54.390625 0 
L 12.40625 0 
z
" id="DejaVuSans-49"/>
       <path d="M 31.78125 34.625 
Q 24.75 34.625 20.71875 30.859375 
Q 16.703125 27.09375 16.703125 20.515625 
Q 16.703125 13.921875 20.71875 10.15625 
Q 24.75 6.390625 31.78125 6.390625 
Q 38.8125 6.390625 42.859375 10.171875 
Q 46.921875 13.96875 46.921875 20.515625 
Q 46.921875 27.09375 42.890625 30.859375 
Q 38.875 34.625 31.78125 34.625 
z
M 21.921875 38.8125 
Q 15.578125 40.375 12.03125 44.71875 
Q 8.5 49.078125 8.5 55.328125 
Q 8.5 64.0625 14.71875 69.140625 
Q 20.953125 74.21875 31.78125 74.21875 
Q 42.671875 74.21875 48.875 69.140625 
Q 55.078125 64.0625 55.078125 55.328125 
Q 55.078125 49.078125 51.53125 44.71875 
Q 48 40.375 41.703125 38.8125 
Q 48.828125 37.15625 52.796875 32.3125 
Q 56.78125 27.484375 56.78125 20.515625 
Q 56.78125 9.90625 50.3125 4.234375 
Q 43.84375 -1.421875 31.78125 -1.421875 
Q 19.734375 -1.421875 13.25 4.234375 
Q 6.78125 9.90625 6.78125 20.515625 
Q 6.78125 27.484375 10.78125 32.3125 
Q 14.796875 37.15625 21.921875 38.8125 
z
M 18.3125 54.390625 
Q 18.3125 48.734375 21.84375 45.5625 
Q 25.390625 42.390625 31.78125 42.390625 
Q 38.140625 42.390625 41.71875 45.5625 
Q 45.3125 48.734375 45.3125 54.390625 
Q 45.3125 60.0625 41.71875 63.234375 
Q 38.140625 66.40625 31.78125 66.40625 
Q 25.390625 66.40625 21.84375 63.234375 
Q 18.3125 60.0625 18.3125 54.390625 
z
" id="DejaVuSans-56"/>
      </defs>
      <g transform="translate(264.245539 380.627924)rotate(-45)scale(0.1 -0.1)">
       <use xlink:href="#DejaVuSans-74"/>
       <use x="29.492188" xlink:href="#DejaVuSans-117"/>
       <use x="92.871094" xlink:href="#DejaVuSans-108"/>
       <use x="120.654297" xlink:href="#DejaVuSans-32"/>
       <use x="152.441406" xlink:href="#DejaVuSans-49"/>
       <use x="216.064453" xlink:href="#DejaVuSans-56"/>
      </g>
     </g>
    </g>
    <g id="xtick_5">
     <g id="line2d_5">
      <g>
       <use style="stroke:#000000;stroke-width:0.8;" x="346.582812" xlink:href="#m0955184fe6" y="348.478125"/>
      </g>
     </g>
     <g id="text_5">
      <!-- Aug 15 -->
      <defs>
       <path d="M 45.40625 27.984375 
Q 45.40625 37.75 41.375 43.109375 
Q 37.359375 48.484375 30.078125 48.484375 
Q 22.859375 48.484375 18.828125 43.109375 
Q 14.796875 37.75 14.796875 27.984375 
Q 14.796875 18.265625 18.828125 12.890625 
Q 22.859375 7.515625 30.078125 7.515625 
Q 37.359375 7.515625 41.375 12.890625 
Q 45.40625 18.265625 45.40625 27.984375 
z
M 54.390625 6.78125 
Q 54.390625 -7.171875 48.1875 -13.984375 
Q 42 -20.796875 29.203125 -20.796875 
Q 24.46875 -20.796875 20.265625 -20.09375 
Q 16.0625 -19.390625 12.109375 -17.921875 
L 12.109375 -9.1875 
Q 16.0625 -11.328125 19.921875 -12.34375 
Q 23.78125 -13.375 27.78125 -13.375 
Q 36.625 -13.375 41.015625 -8.765625 
Q 45.40625 -4.15625 45.40625 5.171875 
L 45.40625 9.625 
Q 42.625 4.78125 38.28125 2.390625 
Q 33.9375 0 27.875 0 
Q 17.828125 0 11.671875 7.65625 
Q 5.515625 15.328125 5.515625 27.984375 
Q 5.515625 40.671875 11.671875 48.328125 
Q 17.828125 56 27.875 56 
Q 33.9375 56 38.28125 53.609375 
Q 42.625 51.21875 45.40625 46.390625 
L 45.40625 54.6875 
L 54.390625 54.6875 
z
" id="DejaVuSans-103"/>
      </defs>
      <g transform="translate(336.007699 385.903604)rotate(-45)scale(0.1 -0.1)">
       <use xlink:href="#DejaVuSans-65"/>
       <use x="68.408203" xlink:href="#DejaVuSans-117"/>
       <use x="131.787109" xlink:href="#DejaVuSans-103"/>
       <use x="195.263672" xlink:href="#DejaVuSans-32"/>
       <use x="227.050781" xlink:href="#DejaVuSans-49"/>
       <use x="290.673828" xlink:href="#DejaVuSans-53"/>
      </g>
     </g>
    </g>
    <g id="xtick_6">
     <g id="line2d_6">
      <g>
       <use style="stroke:#000000;stroke-width:0.8;" x="420.982812" xlink:href="#m0955184fe6" y="348.478125"/>
      </g>
     </g>
     <g id="text_6">
      <!-- Sep 12 -->
      <defs>
       <path d="M 53.515625 70.515625 
L 53.515625 60.890625 
Q 47.90625 63.578125 42.921875 64.890625 
Q 37.9375 66.21875 33.296875 66.21875 
Q 25.25 66.21875 20.875 63.09375 
Q 16.5 59.96875 16.5 54.203125 
Q 16.5 49.359375 19.40625 46.890625 
Q 22.3125 44.4375 30.421875 42.921875 
L 36.375 41.703125 
Q 47.40625 39.59375 52.65625 34.296875 
Q 57.90625 29 57.90625 20.125 
Q 57.90625 9.515625 50.796875 4.046875 
Q 43.703125 -1.421875 29.984375 -1.421875 
Q 24.8125 -1.421875 18.96875 -0.25 
Q 13.140625 0.921875 6.890625 3.21875 
L 6.890625 13.375 
Q 12.890625 10.015625 18.65625 8.296875 
Q 24.421875 6.59375 29.984375 6.59375 
Q 38.421875 6.59375 43.015625 9.90625 
Q 47.609375 13.234375 47.609375 19.390625 
Q 47.609375 24.75 44.3125 27.78125 
Q 41.015625 30.8125 33.5 32.328125 
L 27.484375 33.5 
Q 16.453125 35.6875 11.515625 40.375 
Q 6.59375 45.0625 6.59375 53.421875 
Q 6.59375 63.09375 13.40625 68.65625 
Q 20.21875 74.21875 32.171875 74.21875 
Q 37.3125 74.21875 42.625 73.28125 
Q 47.953125 72.359375 53.515625 70.515625 
z
" id="DejaVuSans-83"/>
       <path d="M 56.203125 29.59375 
L 56.203125 25.203125 
L 14.890625 25.203125 
Q 15.484375 15.921875 20.484375 11.0625 
Q 25.484375 6.203125 34.421875 6.203125 
Q 39.59375 6.203125 44.453125 7.46875 
Q 49.3125 8.734375 54.109375 11.28125 
L 54.109375 2.78125 
Q 49.265625 0.734375 44.1875 -0.34375 
Q 39.109375 -1.421875 33.890625 -1.421875 
Q 20.796875 -1.421875 13.15625 6.1875 
Q 5.515625 13.8125 5.515625 26.8125 
Q 5.515625 40.234375 12.765625 48.109375 
Q 20.015625 56 32.328125 56 
Q 43.359375 56 49.78125 48.890625 
Q 56.203125 41.796875 56.203125 29.59375 
z
M 47.21875 32.234375 
Q 47.125 39.59375 43.09375 43.984375 
Q 39.0625 48.390625 32.421875 48.390625 
Q 24.90625 48.390625 20.390625 44.140625 
Q 15.875 39.890625 15.1875 32.171875 
z
" id="DejaVuSans-101"/>
      </defs>
      <g transform="translate(410.6469 385.425202)rotate(-45)scale(0.1 -0.1)">
       <use xlink:href="#DejaVuSans-83"/>
       <use x="63.476562" xlink:href="#DejaVuSans-101"/>
       <use x="125" xlink:href="#DejaVuSans-112"/>
       <use x="188.476562" xlink:href="#DejaVuSans-32"/>
       <use x="220.263672" xlink:href="#DejaVuSans-49"/>
       <use x="283.886719" xlink:href="#DejaVuSans-50"/>
      </g>
     </g>
    </g>
    <g id="xtick_7">
     <g id="line2d_7">
      <g>
       <use style="stroke:#000000;stroke-width:0.8;" x="495.382812" xlink:href="#m0955184fe6" y="348.478125"/>
      </g>
     </g>
     <g id="text_7">
      <!-- Oct 10 -->
      <defs>
       <path d="M 39.40625 66.21875 
Q 28.65625 66.21875 22.328125 58.203125 
Q 16.015625 50.203125 16.015625 36.375 
Q 16.015625 22.609375 22.328125 14.59375 
Q 28.65625 6.59375 39.40625 6.59375 
Q 50.140625 6.59375 56.421875 14.59375 
Q 62.703125 22.609375 62.703125 36.375 
Q 62.703125 50.203125 56.421875 58.203125 
Q 50.140625 66.21875 39.40625 66.21875 
z
M 39.40625 74.21875 
Q 54.734375 74.21875 63.90625 63.9375 
Q 73.09375 53.65625 73.09375 36.375 
Q 73.09375 19.140625 63.90625 8.859375 
Q 54.734375 -1.421875 39.40625 -1.421875 
Q 24.03125 -1.421875 14.8125 8.828125 
Q 5.609375 19.09375 5.609375 36.375 
Q 5.609375 53.65625 14.8125 63.9375 
Q 24.03125 74.21875 39.40625 74.21875 
z
" id="DejaVuSans-79"/>
       <path d="M 48.78125 52.59375 
L 48.78125 44.1875 
Q 44.96875 46.296875 41.140625 47.34375 
Q 37.3125 48.390625 33.40625 48.390625 
Q 24.65625 48.390625 19.8125 42.84375 
Q 14.984375 37.3125 14.984375 27.296875 
Q 14.984375 17.28125 19.8125 11.734375 
Q 24.65625 6.203125 33.40625 6.203125 
Q 37.3125 6.203125 41.140625 7.25 
Q 44.96875 8.296875 48.78125 10.40625 
L 48.78125 2.09375 
Q 45.015625 0.34375 40.984375 -0.53125 
Q 36.96875 -1.421875 32.421875 -1.421875 
Q 20.0625 -1.421875 12.78125 6.34375 
Q 5.515625 14.109375 5.515625 27.296875 
Q 5.515625 40.671875 12.859375 48.328125 
Q 20.21875 56 33.015625 56 
Q 37.15625 56 41.109375 55.140625 
Q 45.0625 54.296875 48.78125 52.59375 
z
" id="DejaVuSans-99"/>
       <path d="M 18.3125 70.21875 
L 18.3125 54.6875 
L 36.8125 54.6875 
L 36.8125 47.703125 
L 18.3125 47.703125 
L 18.3125 18.015625 
Q 18.3125 11.328125 20.140625 9.421875 
Q 21.96875 7.515625 27.59375 7.515625 
L 36.8125 7.515625 
L 36.8125 0 
L 27.59375 0 
Q 17.1875 0 13.234375 3.875 
Q 9.28125 7.765625 9.28125 18.015625 
L 9.28125 47.703125 
L 2.6875 47.703125 
L 2.6875 54.6875 
L 9.28125 54.6875 
L 9.28125 70.21875 
z
" id="DejaVuSans-116"/>
      </defs>
      <g transform="translate(485.598222 384.322557)rotate(-45)scale(0.1 -0.1)">
       <use xlink:href="#DejaVuSans-79"/>
       <use x="78.710938" xlink:href="#DejaVuSans-99"/>
       <use x="133.691406" xlink:href="#DejaVuSans-116"/>
       <use x="172.900391" xlink:href="#DejaVuSans-32"/>
       <use x="204.6875" xlink:href="#DejaVuSans-49"/>
       <use x="268.310547" xlink:href="#DejaVuSans-48"/>
      </g>
     </g>
    </g>
    <g id="xtick_8">
     <g id="line2d_8">
      <g>
       <use style="stroke:#000000;stroke-width:0.8;" x="569.782813" xlink:href="#m0955184fe6" y="348.478125"/>
      </g>
     </g>
     <g id="text_8">
      <!-- Nov 07 -->
      <defs>
       <path d="M 9.8125 72.90625 
L 23.09375 72.90625 
L 55.421875 11.921875 
L 55.421875 72.90625 
L 64.984375 72.90625 
L 64.984375 0 
L 51.703125 0 
L 19.390625 60.984375 
L 19.390625 0 
L 9.8125 0 
z
" id="DejaVuSans-78"/>
       <path d="M 30.609375 48.390625 
Q 23.390625 48.390625 19.1875 42.75 
Q 14.984375 37.109375 14.984375 27.296875 
Q 14.984375 17.484375 19.15625 11.84375 
Q 23.34375 6.203125 30.609375 6.203125 
Q 37.796875 6.203125 41.984375 11.859375 
Q 46.1875 17.53125 46.1875 27.296875 
Q 46.1875 37.015625 41.984375 42.703125 
Q 37.796875 48.390625 30.609375 48.390625 
z
M 30.609375 56 
Q 42.328125 56 49.015625 48.375 
Q 55.71875 40.765625 55.71875 27.296875 
Q 55.71875 13.875 49.015625 6.21875 
Q 42.328125 -1.421875 30.609375 -1.421875 
Q 18.84375 -1.421875 12.171875 6.21875 
Q 5.515625 13.875 5.515625 27.296875 
Q 5.515625 40.765625 12.171875 48.375 
Q 18.84375 56 30.609375 56 
z
" id="DejaVuSans-111"/>
       <path d="M 2.984375 54.6875 
L 12.5 54.6875 
L 29.59375 8.796875 
L 46.6875 54.6875 
L 56.203125 54.6875 
L 35.6875 0 
L 23.484375 0 
z
" id="DejaVuSans-118"/>
       <path d="M 8.203125 72.90625 
L 55.078125 72.90625 
L 55.078125 68.703125 
L 28.609375 0 
L 18.3125 0 
L 43.21875 64.59375 
L 8.203125 64.59375 
z
" id="DejaVuSans-55"/>
      </defs>
      <g transform="translate(559.210461 385.89808)rotate(-45)scale(0.1 -0.1)">
       <use xlink:href="#DejaVuSans-78"/>
       <use x="74.804688" xlink:href="#DejaVuSans-111"/>
       <use x="135.986328" xlink:href="#DejaVuSans-118"/>
       <use x="195.166016" xlink:href="#DejaVuSans-32"/>
       <use x="226.953125" xlink:href="#DejaVuSans-48"/>
       <use x="290.576172" xlink:href="#DejaVuSans-55"/>
      </g>
     </g>
    </g>
    <g id="xtick_9">
     <g id="line2d_9">
      <g>
       <use style="stroke:#000000;stroke-width:0.8;" x="644.182813" xlink:href="#m0955184fe6" y="348.478125"/>
      </g>
     </g>
     <g id="text_9">
      <!-- Dec 05 -->
      <defs>
       <path d="M 19.671875 64.796875 
L 19.671875 8.109375 
L 31.59375 8.109375 
Q 46.6875 8.109375 53.6875 14.9375 
Q 60.6875 21.78125 60.6875 36.53125 
Q 60.6875 51.171875 53.6875 57.984375 
Q 46.6875 64.796875 31.59375 64.796875 
z
M 9.8125 72.90625 
L 30.078125 72.90625 
Q 51.265625 72.90625 61.171875 64.09375 
Q 71.09375 55.28125 71.09375 36.53125 
Q 71.09375 17.671875 61.125 8.828125 
Q 51.171875 0 30.078125 0 
L 9.8125 0 
z
" id="DejaVuSans-68"/>
      </defs>
      <g transform="translate(633.669571 385.77986)rotate(-45)scale(0.1 -0.1)">
       <use xlink:href="#DejaVuSans-68"/>
       <use x="77.001953" xlink:href="#DejaVuSans-101"/>
       <use x="138.525391" xlink:href="#DejaVuSans-99"/>
       <use x="193.505859" xlink:href="#DejaVuSans-32"/>
       <use x="225.292969" xlink:href="#DejaVuSans-48"/>
       <use x="288.916016" xlink:href="#DejaVuSans-53"/>
      </g>
     </g>
    </g>
    <g id="xtick_10">
     <g id="line2d_10">
      <g>
       <use style="stroke:#000000;stroke-width:0.8;" x="718.582812" xlink:href="#m0955184fe6" y="348.478125"/>
      </g>
     </g>
     <g id="text_10">
      <!-- Jan 02 -->
      <g transform="translate(709.461135 382.996732)rotate(-45)scale(0.1 -0.1)">
       <use xlink:href="#DejaVuSans-74"/>
       <use x="29.492188" xlink:href="#DejaVuSans-97"/>
       <use x="90.771484" xlink:href="#DejaVuSans-110"/>
       <use x="154.150391" xlink:href="#DejaVuSans-32"/>
       <use x="185.9375" xlink:href="#DejaVuSans-48"/>
       <use x="249.560547" xlink:href="#DejaVuSans-50"/>
      </g>
     </g>
    </g>
    <g id="xtick_11">
     <g id="line2d_11">
      <defs>
       <path d="M 0 0 
L 0 2 
" id="m2ca3930a76" style="stroke:#000000;stroke-width:0.6;"/>
      </defs>
      <g>
       <use style="stroke:#000000;stroke-width:0.6;" x="86.182813" xlink:href="#m2ca3930a76" y="348.478125"/>
      </g>
     </g>
    </g>
    <g id="xtick_12">
     <g id="line2d_12">
      <g>
       <use style="stroke:#000000;stroke-width:0.6;" x="104.782813" xlink:href="#m2ca3930a76" y="348.478125"/>
      </g>
     </g>
    </g>
    <g id="xtick_13">
     <g id="line2d_13">
      <g>
       <use style="stroke:#000000;stroke-width:0.6;" x="141.982812" xlink:href="#m2ca3930a76" y="348.478125"/>
      </g>
     </g>
    </g>
    <g id="xtick_14">
     <g id="line2d_14">
      <g>
       <use style="stroke:#000000;stroke-width:0.6;" x="179.182813" xlink:href="#m2ca3930a76" y="348.478125"/>
      </g>
     </g>
    </g>
    <g id="xtick_15">
     <g id="line2d_15">
      <g>
       <use style="stroke:#000000;stroke-width:0.6;" x="216.382812" xlink:href="#m2ca3930a76" y="348.478125"/>
      </g>
     </g>
    </g>
    <g id="xtick_16">
     <g id="line2d_16">
      <g>
       <use style="stroke:#000000;stroke-width:0.6;" x="253.582812" xlink:href="#m2ca3930a76" y="348.478125"/>
      </g>
     </g>
    </g>
    <g id="xtick_17">
     <g id="line2d_17">
      <g>
       <use style="stroke:#000000;stroke-width:0.6;" x="290.782813" xlink:href="#m2ca3930a76" y="348.478125"/>
      </g>
     </g>
    </g>
    <g id="xtick_18">
     <g id="line2d_18">
      <g>
       <use style="stroke:#000000;stroke-width:0.6;" x="327.982812" xlink:href="#m2ca3930a76" y="348.478125"/>
      </g>
     </g>
    </g>
    <g id="xtick_19">
     <g id="line2d_19">
      <g>
       <use style="stroke:#000000;stroke-width:0.6;" x="365.182813" xlink:href="#m2ca3930a76" y="348.478125"/>
      </g>
     </g>
    </g>
    <g id="xtick_20">
     <g id="line2d_20">
      <g>
       <use style="stroke:#000000;stroke-width:0.6;" x="383.782813" xlink:href="#m2ca3930a76" y="348.478125"/>
      </g>
     </g>
    </g>
    <g id="xtick_21">
     <g id="line2d_21">
      <g>
       <use style="stroke:#000000;stroke-width:0.6;" x="439.582812" xlink:href="#m2ca3930a76" y="348.478125"/>
      </g>
     </g>
    </g>
    <g id="xtick_22">
     <g id="line2d_22">
      <g>
       <use style="stroke:#000000;stroke-width:0.6;" x="458.182813" xlink:href="#m2ca3930a76" y="348.478125"/>
      </g>
     </g>
    </g>
    <g id="xtick_23">
     <g id="line2d_23">
      <g>
       <use style="stroke:#000000;stroke-width:0.6;" x="513.982812" xlink:href="#m2ca3930a76" y="348.478125"/>
      </g>
     </g>
    </g>
    <g id="xtick_24">
     <g id="line2d_24">
      <g>
       <use style="stroke:#000000;stroke-width:0.6;" x="532.582812" xlink:href="#m2ca3930a76" y="348.478125"/>
      </g>
     </g>
    </g>
    <g id="xtick_25">
     <g id="line2d_25">
      <g>
       <use style="stroke:#000000;stroke-width:0.6;" x="551.182813" xlink:href="#m2ca3930a76" y="348.478125"/>
      </g>
     </g>
    </g>
    <g id="xtick_26">
     <g id="line2d_26">
      <g>
       <use style="stroke:#000000;stroke-width:0.6;" x="588.382812" xlink:href="#m2ca3930a76" y="348.478125"/>
      </g>
     </g>
    </g>
    <g id="xtick_27">
     <g id="line2d_27">
      <g>
       <use style="stroke:#000000;stroke-width:0.6;" x="606.982812" xlink:href="#m2ca3930a76" y="348.478125"/>
      </g>
     </g>
    </g>
    <g id="xtick_28">
     <g id="line2d_28">
      <g>
       <use style="stroke:#000000;stroke-width:0.6;" x="625.582812" xlink:href="#m2ca3930a76" y="348.478125"/>
      </g>
     </g>
    </g>
    <g id="xtick_29">
     <g id="line2d_29">
      <g>
       <use style="stroke:#000000;stroke-width:0.6;" x="662.782813" xlink:href="#m2ca3930a76" y="348.478125"/>
      </g>
     </g>
    </g>
    <g id="xtick_30">
     <g id="line2d_30">
      <g>
       <use style="stroke:#000000;stroke-width:0.6;" x="681.382812" xlink:href="#m2ca3930a76" y="348.478125"/>
      </g>
     </g>
    </g>
    <g id="xtick_31">
     <g id="line2d_31">
      <g>
       <use style="stroke:#000000;stroke-width:0.6;" x="699.982812" xlink:href="#m2ca3930a76" y="348.478125"/>
      </g>
     </g>
    </g>
    <g id="text_11">
     <!-- Target End Date -->
     <defs>
      <path d="M -0.296875 72.90625 
L 61.375 72.90625 
L 61.375 64.59375 
L 35.5 64.59375 
L 35.5 0 
L 25.59375 0 
L 25.59375 64.59375 
L -0.296875 64.59375 
z
" id="DejaVuSans-84"/>
      <path d="M 9.8125 72.90625 
L 55.90625 72.90625 
L 55.90625 64.59375 
L 19.671875 64.59375 
L 19.671875 43.015625 
L 54.390625 43.015625 
L 54.390625 34.71875 
L 19.671875 34.71875 
L 19.671875 8.296875 
L 56.78125 8.296875 
L 56.78125 0 
L 9.8125 0 
z
" id="DejaVuSans-69"/>
      <path d="M 45.40625 46.390625 
L 45.40625 75.984375 
L 54.390625 75.984375 
L 54.390625 0 
L 45.40625 0 
L 45.40625 8.203125 
Q 42.578125 3.328125 38.25 0.953125 
Q 33.9375 -1.421875 27.875 -1.421875 
Q 17.96875 -1.421875 11.734375 6.484375 
Q 5.515625 14.40625 5.515625 27.296875 
Q 5.515625 40.1875 11.734375 48.09375 
Q 17.96875 56 27.875 56 
Q 33.9375 56 38.25 53.625 
Q 42.578125 51.265625 45.40625 46.390625 
z
M 14.796875 27.296875 
Q 14.796875 17.390625 18.875 11.75 
Q 22.953125 6.109375 30.078125 6.109375 
Q 37.203125 6.109375 41.296875 11.75 
Q 45.40625 17.390625 45.40625 27.296875 
Q 45.40625 37.203125 41.296875 42.84375 
Q 37.203125 48.484375 30.078125 48.484375 
Q 22.953125 48.484375 18.875 42.84375 
Q 14.796875 37.203125 14.796875 27.296875 
z
" id="DejaVuSans-100"/>
     </defs>
     <g transform="translate(343.679688 399.784671)scale(0.1 -0.1)">
      <use xlink:href="#DejaVuSans-84"/>
      <use x="44.583984" xlink:href="#DejaVuSans-97"/>
      <use x="105.863281" xlink:href="#DejaVuSans-114"/>
      <use x="145.226562" xlink:href="#DejaVuSans-103"/>
      <use x="208.703125" xlink:href="#DejaVuSans-101"/>
      <use x="270.226562" xlink:href="#DejaVuSans-116"/>
      <use x="309.435547" xlink:href="#DejaVuSans-32"/>
      <use x="341.222656" xlink:href="#DejaVuSans-69"/>
      <use x="404.40625" xlink:href="#DejaVuSans-110"/>
      <use x="467.785156" xlink:href="#DejaVuSans-100"/>
      <use x="531.261719" xlink:href="#DejaVuSans-32"/>
      <use x="563.048828" xlink:href="#DejaVuSans-68"/>
      <use x="640.050781" xlink:href="#DejaVuSans-97"/>
      <use x="701.330078" xlink:href="#DejaVuSans-116"/>
      <use x="740.539062" xlink:href="#DejaVuSans-101"/>
     </g>
    </g>
   </g>
   <g id="matplotlib.axis_2">
    <g id="ytick_1">
     <g id="line2d_32">
      <defs>
       <path d="M 0 0 
L -3.5 0 
" id="m4c92b903c3" style="stroke:#000000;stroke-width:0.8;"/>
      </defs>
      <g>
       <use style="stroke:#000000;stroke-width:0.8;" x="48.982813" xlink:href="#m4c92b903c3" y="300.699588"/>
      </g>
     </g>
     <g id="text_12">
      <!-- −25 -->
      <defs>
       <path d="M 10.59375 35.5 
L 73.1875 35.5 
L 73.1875 27.203125 
L 10.59375 27.203125 
z
" id="DejaVuSans-8722"/>
      </defs>
      <g transform="translate(20.878125 304.498807)scale(0.1 -0.1)">
       <use xlink:href="#DejaVuSans-8722"/>
       <use x="83.789062" xlink:href="#DejaVuSans-50"/>
       <use x="147.412109" xlink:href="#DejaVuSans-53"/>
      </g>
     </g>
    </g>
    <g id="ytick_2">
     <g id="line2d_33">
      <g>
       <use style="stroke:#000000;stroke-width:0.8;" x="48.982813" xlink:href="#m4c92b903c3" y="231.539177"/>
      </g>
     </g>
     <g id="text_13">
      <!-- −20 -->
      <g transform="translate(20.878125 235.338396)scale(0.1 -0.1)">
       <use xlink:href="#DejaVuSans-8722"/>
       <use x="83.789062" xlink:href="#DejaVuSans-50"/>
       <use x="147.412109" xlink:href="#DejaVuSans-48"/>
      </g>
     </g>
    </g>
    <g id="ytick_3">
     <g id="line2d_34">
      <g>
       <use style="stroke:#000000;stroke-width:0.8;" x="48.982813" xlink:href="#m4c92b903c3" y="162.378766"/>
      </g>
     </g>
     <g id="text_14">
      <!-- −15 -->
      <g transform="translate(20.878125 166.177985)scale(0.1 -0.1)">
       <use xlink:href="#DejaVuSans-8722"/>
       <use x="83.789062" xlink:href="#DejaVuSans-49"/>
       <use x="147.412109" xlink:href="#DejaVuSans-53"/>
      </g>
     </g>
    </g>
    <g id="ytick_4">
     <g id="line2d_35">
      <g>
       <use style="stroke:#000000;stroke-width:0.8;" x="48.982813" xlink:href="#m4c92b903c3" y="93.218355"/>
      </g>
     </g>
     <g id="text_15">
      <!-- −10 -->
      <g transform="translate(20.878125 97.017574)scale(0.1 -0.1)">
       <use xlink:href="#DejaVuSans-8722"/>
       <use x="83.789062" xlink:href="#DejaVuSans-49"/>
       <use x="147.412109" xlink:href="#DejaVuSans-48"/>
      </g>
     </g>
    </g>
    <g id="ytick_5">
     <g id="line2d_36">
      <g>
       <use style="stroke:#000000;stroke-width:0.8;" x="48.982813" xlink:href="#m4c92b903c3" y="24.057944"/>
      </g>
     </g>
     <g id="text_16">
      <!-- −5 -->
      <g transform="translate(27.240625 27.857163)scale(0.1 -0.1)">
       <use xlink:href="#DejaVuSans-8722"/>
       <use x="83.789062" xlink:href="#DejaVuSans-53"/>
      </g>
     </g>
    </g>
    <g id="text_17">
     <!-- Score for weekly incidental cases -->
     <defs>
      <path d="M 37.109375 75.984375 
L 37.109375 68.5 
L 28.515625 68.5 
Q 23.6875 68.5 21.796875 66.546875 
Q 19.921875 64.59375 19.921875 59.515625 
L 19.921875 54.6875 
L 34.71875 54.6875 
L 34.71875 47.703125 
L 19.921875 47.703125 
L 19.921875 0 
L 10.890625 0 
L 10.890625 47.703125 
L 2.296875 47.703125 
L 2.296875 54.6875 
L 10.890625 54.6875 
L 10.890625 58.5 
Q 10.890625 67.625 15.140625 71.796875 
Q 19.390625 75.984375 28.609375 75.984375 
z
" id="DejaVuSans-102"/>
      <path d="M 4.203125 54.6875 
L 13.1875 54.6875 
L 24.421875 12.015625 
L 35.59375 54.6875 
L 46.1875 54.6875 
L 57.421875 12.015625 
L 68.609375 54.6875 
L 77.59375 54.6875 
L 63.28125 0 
L 52.6875 0 
L 40.921875 44.828125 
L 29.109375 0 
L 18.5 0 
z
" id="DejaVuSans-119"/>
      <path d="M 9.078125 75.984375 
L 18.109375 75.984375 
L 18.109375 31.109375 
L 44.921875 54.6875 
L 56.390625 54.6875 
L 27.390625 29.109375 
L 57.625 0 
L 45.90625 0 
L 18.109375 26.703125 
L 18.109375 0 
L 9.078125 0 
z
" id="DejaVuSans-107"/>
      <path d="M 9.421875 54.6875 
L 18.40625 54.6875 
L 18.40625 0 
L 9.421875 0 
z
M 9.421875 75.984375 
L 18.40625 75.984375 
L 18.40625 64.59375 
L 9.421875 64.59375 
z
" id="DejaVuSans-105"/>
      <path d="M 44.28125 53.078125 
L 44.28125 44.578125 
Q 40.484375 46.53125 36.375 47.5 
Q 32.28125 48.484375 27.875 48.484375 
Q 21.1875 48.484375 17.84375 46.4375 
Q 14.5 44.390625 14.5 40.28125 
Q 14.5 37.15625 16.890625 35.375 
Q 19.28125 33.59375 26.515625 31.984375 
L 29.59375 31.296875 
Q 39.15625 29.25 43.1875 25.515625 
Q 47.21875 21.78125 47.21875 15.09375 
Q 47.21875 7.46875 41.1875 3.015625 
Q 35.15625 -1.421875 24.609375 -1.421875 
Q 20.21875 -1.421875 15.453125 -0.5625 
Q 10.6875 0.296875 5.421875 2 
L 5.421875 11.28125 
Q 10.40625 8.6875 15.234375 7.390625 
Q 20.0625 6.109375 24.8125 6.109375 
Q 31.15625 6.109375 34.5625 8.28125 
Q 37.984375 10.453125 37.984375 14.40625 
Q 37.984375 18.0625 35.515625 20.015625 
Q 33.0625 21.96875 24.703125 23.78125 
L 21.578125 24.515625 
Q 13.234375 26.265625 9.515625 29.90625 
Q 5.8125 33.546875 5.8125 39.890625 
Q 5.8125 47.609375 11.28125 51.796875 
Q 16.75 56 26.8125 56 
Q 31.78125 56 36.171875 55.265625 
Q 40.578125 54.546875 44.28125 53.078125 
z
" id="DejaVuSans-115"/>
     </defs>
     <g transform="translate(14.798437 268.745781)rotate(-90)scale(0.1 -0.1)">
      <use xlink:href="#DejaVuSans-83"/>
      <use x="63.476562" xlink:href="#DejaVuSans-99"/>
      <use x="118.457031" xlink:href="#DejaVuSans-111"/>
      <use x="179.638672" xlink:href="#DejaVuSans-114"/>
      <use x="218.501953" xlink:href="#DejaVuSans-101"/>
      <use x="280.025391" xlink:href="#DejaVuSans-32"/>
      <use x="311.8125" xlink:href="#DejaVuSans-102"/>
      <use x="347.017578" xlink:href="#DejaVuSans-111"/>
      <use x="408.199219" xlink:href="#DejaVuSans-114"/>
      <use x="449.3125" xlink:href="#DejaVuSans-32"/>
      <use x="481.099609" xlink:href="#DejaVuSans-119"/>
      <use x="562.886719" xlink:href="#DejaVuSans-101"/>
      <use x="624.410156" xlink:href="#DejaVuSans-101"/>
      <use x="685.933594" xlink:href="#DejaVuSans-107"/>
      <use x="743.84375" xlink:href="#DejaVuSans-108"/>
      <use x="771.626953" xlink:href="#DejaVuSans-121"/>
      <use x="830.806641" xlink:href="#DejaVuSans-32"/>
      <use x="862.59375" xlink:href="#DejaVuSans-105"/>
      <use x="890.376953" xlink:href="#DejaVuSans-110"/>
      <use x="953.755859" xlink:href="#DejaVuSans-99"/>
      <use x="1008.736328" xlink:href="#DejaVuSans-105"/>
      <use x="1036.519531" xlink:href="#DejaVuSans-100"/>
      <use x="1099.996094" xlink:href="#DejaVuSans-101"/>
      <use x="1161.519531" xlink:href="#DejaVuSans-110"/>
      <use x="1224.898438" xlink:href="#DejaVuSans-116"/>
      <use x="1264.107422" xlink:href="#DejaVuSans-97"/>
      <use x="1325.386719" xlink:href="#DejaVuSans-108"/>
      <use x="1353.169922" xlink:href="#DejaVuSans-32"/>
      <use x="1384.957031" xlink:href="#DejaVuSans-99"/>
      <use x="1439.9375" xlink:href="#DejaVuSans-97"/>
      <use x="1501.216797" xlink:href="#DejaVuSans-115"/>
      <use x="1553.316406" xlink:href="#DejaVuSans-101"/>
      <use x="1614.839844" xlink:href="#DejaVuSans-115"/>
     </g>
    </g>
   </g>
   <g id="line2d_37">
    <path clip-path="url(#p7505f67fc4)" d="M 383.782813 101.189161 
L 402.382812 111.879282 
L 420.982812 102.845391 
L 439.582812 100.303637 
L 458.182813 105.438232 
L 476.782813 121.438406 
L 495.382812 109.623462 
L 513.982812 115.02411 
L 532.582812 100.593624 
L 551.182813 107.62019 
L 569.782813 120.100562 
L 588.382812 143.546543 
L 606.982812 124.732429 
L 625.582812 119.469732 
L 644.182813 102.487021 
L 662.782813 101.378194 
L 681.382812 116.93107 
" style="fill:none;stroke:#000080;stroke-linecap:square;stroke-width:1.5;"/>
    <defs>
     <path d="M 0 3 
C 0.795609 3 1.55874 2.683901 2.12132 2.12132 
C 2.683901 1.55874 3 0.795609 3 0 
C 3 -0.795609 2.683901 -1.55874 2.12132 -2.12132 
C 1.55874 -2.683901 0.795609 -3 0 -3 
C -0.795609 -3 -1.55874 -2.683901 -2.12132 -2.12132 
C -2.683901 -1.55874 -3 -0.795609 -3 0 
C -3 0.795609 -2.683901 1.55874 -2.12132 2.12132 
C -1.55874 2.683901 -0.795609 3 0 3 
z
" id="mb623d1cb38" style="stroke:#000080;"/>
    </defs>
    <g clip-path="url(#p7505f67fc4)">
     <use style="fill:#000080;stroke:#000080;" x="383.782813" xlink:href="#mb623d1cb38" y="101.189161"/>
     <use style="fill:#000080;stroke:#000080;" x="402.382812" xlink:href="#mb623d1cb38" y="111.879282"/>
     <use style="fill:#000080;stroke:#000080;" x="420.982812" xlink:href="#mb623d1cb38" y="102.845391"/>
     <use style="fill:#000080;stroke:#000080;" x="439.582812" xlink:href="#mb623d1cb38" y="100.303637"/>
     <use style="fill:#000080;stroke:#000080;" x="458.182813" xlink:href="#mb623d1cb38" y="105.438232"/>
     <use style="fill:#000080;stroke:#000080;" x="476.782813" xlink:href="#mb623d1cb38" y="121.438406"/>
     <use style="fill:#000080;stroke:#000080;" x="495.382812" xlink:href="#mb623d1cb38" y="109.623462"/>
     <use style="fill:#000080;stroke:#000080;" x="513.982812" xlink:href="#mb623d1cb38" y="115.02411"/>
     <use style="fill:#000080;stroke:#000080;" x="532.582812" xlink:href="#mb623d1cb38" y="100.593624"/>
     <use style="fill:#000080;stroke:#000080;" x="551.182813" xlink:href="#mb623d1cb38" y="107.62019"/>
     <use style="fill:#000080;stroke:#000080;" x="569.782813" xlink:href="#mb623d1cb38" y="120.100562"/>
     <use style="fill:#000080;stroke:#000080;" x="588.382812" xlink:href="#mb623d1cb38" y="143.546543"/>
     <use style="fill:#000080;stroke:#000080;" x="606.982812" xlink:href="#mb623d1cb38" y="124.732429"/>
     <use style="fill:#000080;stroke:#000080;" x="625.582812" xlink:href="#mb623d1cb38" y="119.469732"/>
     <use style="fill:#000080;stroke:#000080;" x="644.182813" xlink:href="#mb623d1cb38" y="102.487021"/>
     <use style="fill:#000080;stroke:#000080;" x="662.782813" xlink:href="#mb623d1cb38" y="101.378194"/>
     <use style="fill:#000080;stroke:#000080;" x="681.382812" xlink:href="#mb623d1cb38" y="116.93107"/>
    </g>
   </g>
   <g id="line2d_38">
    <path clip-path="url(#p7505f67fc4)" d="M 383.782813 100.179903 
L 402.382812 111.980242 
L 420.982812 102.377417 
L 439.582812 103.201915 
L 458.182813 109.243654 
L 476.782813 128.692805 
L 495.382812 121.296134 
L 513.982812 120.584208 
L 532.582812 108.52761 
L 551.182813 103.607444 
L 569.782813 117.312667 
L 588.382812 129.575153 
L 606.982812 121.364446 
L 625.582812 112.058284 
L 644.182813 103.501485 
L 662.782813 101.197192 
L 681.382812 111.842034 
" style="fill:none;stroke:#0000ff;stroke-linecap:square;stroke-width:1.5;"/>
    <defs>
     <path d="M 0 3 
C 0.795609 3 1.55874 2.683901 2.12132 2.12132 
C 2.683901 1.55874 3 0.795609 3 0 
C 3 -0.795609 2.683901 -1.55874 2.12132 -2.12132 
C 1.55874 -2.683901 0.795609 -3 0 -3 
C -0.795609 -3 -1.55874 -2.683901 -2.12132 -2.12132 
C -2.683901 -1.55874 -3 -0.795609 -3 0 
C -3 0.795609 -2.683901 1.55874 -2.12132 2.12132 
C -1.55874 2.683901 -0.795609 3 0 3 
z
" id="m69c4a45f65" style="stroke:#0000ff;"/>
    </defs>
    <g clip-path="url(#p7505f67fc4)">
     <use style="fill:#0000ff;stroke:#0000ff;" x="383.782813" xlink:href="#m69c4a45f65" y="100.179903"/>
     <use style="fill:#0000ff;stroke:#0000ff;" x="402.382812" xlink:href="#m69c4a45f65" y="111.980242"/>
     <use style="fill:#0000ff;stroke:#0000ff;" x="420.982812" xlink:href="#m69c4a45f65" y="102.377417"/>
     <use style="fill:#0000ff;stroke:#0000ff;" x="439.582812" xlink:href="#m69c4a45f65" y="103.201915"/>
     <use style="fill:#0000ff;stroke:#0000ff;" x="458.182813" xlink:href="#m69c4a45f65" y="109.243654"/>
     <use style="fill:#0000ff;stroke:#0000ff;" x="476.782813" xlink:href="#m69c4a45f65" y="128.692805"/>
     <use style="fill:#0000ff;stroke:#0000ff;" x="495.382812" xlink:href="#m69c4a45f65" y="121.296134"/>
     <use style="fill:#0000ff;stroke:#0000ff;" x="513.982812" xlink:href="#m69c4a45f65" y="120.584208"/>
     <use style="fill:#0000ff;stroke:#0000ff;" x="532.582812" xlink:href="#m69c4a45f65" y="108.52761"/>
     <use style="fill:#0000ff;stroke:#0000ff;" x="551.182813" xlink:href="#m69c4a45f65" y="103.607444"/>
     <use style="fill:#0000ff;stroke:#0000ff;" x="569.782813" xlink:href="#m69c4a45f65" y="117.312667"/>
     <use style="fill:#0000ff;stroke:#0000ff;" x="588.382812" xlink:href="#m69c4a45f65" y="129.575153"/>
     <use style="fill:#0000ff;stroke:#0000ff;" x="606.982812" xlink:href="#m69c4a45f65" y="121.364446"/>
     <use style="fill:#0000ff;stroke:#0000ff;" x="625.582812" xlink:href="#m69c4a45f65" y="112.058284"/>
     <use style="fill:#0000ff;stroke:#0000ff;" x="644.182813" xlink:href="#m69c4a45f65" y="103.501485"/>
     <use style="fill:#0000ff;stroke:#0000ff;" x="662.782813" xlink:href="#m69c4a45f65" y="101.197192"/>
     <use style="fill:#0000ff;stroke:#0000ff;" x="681.382812" xlink:href="#m69c4a45f65" y="111.842034"/>
    </g>
   </g>
   <g id="line2d_39">
    <path clip-path="url(#p7505f67fc4)" d="M 383.782813 98.588202 
L 402.382812 98.484523 
L 420.982812 92.929202 
L 439.582812 101.236609 
L 458.182813 94.714477 
L 476.782813 95.781939 
L 495.382812 91.790189 
L 513.982812 92.260741 
L 532.582812 94.668538 
L 551.182813 126.137603 
L 569.782813 140.955474 
L 588.382812 334.646043 
L 606.982812 151.579355 
L 625.582812 142.897782 
L 644.182813 93.026015 
L 662.782813 98.091752 
L 681.382812 111.398219 
" style="fill:none;stroke:#0060ff;stroke-linecap:square;stroke-width:1.5;"/>
    <defs>
     <path d="M 0 3 
C 0.795609 3 1.55874 2.683901 2.12132 2.12132 
C 2.683901 1.55874 3 0.795609 3 0 
C 3 -0.795609 2.683901 -1.55874 2.12132 -2.12132 
C 1.55874 -2.683901 0.795609 -3 0 -3 
C -0.795609 -3 -1.55874 -2.683901 -2.12132 -2.12132 
C -2.683901 -1.55874 -3 -0.795609 -3 0 
C -3 0.795609 -2.683901 1.55874 -2.12132 2.12132 
C -1.55874 2.683901 -0.795609 3 0 3 
z
" id="m87d34cb485" style="stroke:#0060ff;"/>
    </defs>
    <g clip-path="url(#p7505f67fc4)">
     <use style="fill:#0060ff;stroke:#0060ff;" x="383.782813" xlink:href="#m87d34cb485" y="98.588202"/>
     <use style="fill:#0060ff;stroke:#0060ff;" x="402.382812" xlink:href="#m87d34cb485" y="98.484523"/>
     <use style="fill:#0060ff;stroke:#0060ff;" x="420.982812" xlink:href="#m87d34cb485" y="92.929202"/>
     <use style="fill:#0060ff;stroke:#0060ff;" x="439.582812" xlink:href="#m87d34cb485" y="101.236609"/>
     <use style="fill:#0060ff;stroke:#0060ff;" x="458.182813" xlink:href="#m87d34cb485" y="94.714477"/>
     <use style="fill:#0060ff;stroke:#0060ff;" x="476.782813" xlink:href="#m87d34cb485" y="95.781939"/>
     <use style="fill:#0060ff;stroke:#0060ff;" x="495.382812" xlink:href="#m87d34cb485" y="91.790189"/>
     <use style="fill:#0060ff;stroke:#0060ff;" x="513.982812" xlink:href="#m87d34cb485" y="92.260741"/>
     <use style="fill:#0060ff;stroke:#0060ff;" x="532.582812" xlink:href="#m87d34cb485" y="94.668538"/>
     <use style="fill:#0060ff;stroke:#0060ff;" x="551.182813" xlink:href="#m87d34cb485" y="126.137603"/>
     <use style="fill:#0060ff;stroke:#0060ff;" x="569.782813" xlink:href="#m87d34cb485" y="140.955474"/>
     <use style="fill:#0060ff;stroke:#0060ff;" x="588.382812" xlink:href="#m87d34cb485" y="334.646043"/>
     <use style="fill:#0060ff;stroke:#0060ff;" x="606.982812" xlink:href="#m87d34cb485" y="151.579355"/>
     <use style="fill:#0060ff;stroke:#0060ff;" x="625.582812" xlink:href="#m87d34cb485" y="142.897782"/>
     <use style="fill:#0060ff;stroke:#0060ff;" x="644.182813" xlink:href="#m87d34cb485" y="93.026015"/>
     <use style="fill:#0060ff;stroke:#0060ff;" x="662.782813" xlink:href="#m87d34cb485" y="98.091752"/>
     <use style="fill:#0060ff;stroke:#0060ff;" x="681.382812" xlink:href="#m87d34cb485" y="111.398219"/>
    </g>
   </g>
   <g id="line2d_40">
    <path clip-path="url(#p7505f67fc4)" d="M 383.782813 96.751859 
L 402.382812 108.184695 
L 420.982812 97.46075 
L 439.582812 94.098852 
L 458.182813 101.120361 
L 476.782813 105.855866 
L 495.382812 99.386328 
L 513.982812 117.042859 
L 532.582812 95.096914 
L 551.182813 108.08839 
L 569.782813 128.429891 
L 588.382812 260.212099 
L 606.982812 139.594869 
L 625.582812 121.2197 
L 644.182813 101.975766 
L 662.782813 100.013013 
L 681.382812 108.060224 
" style="fill:none;stroke:#00d4ff;stroke-linecap:square;stroke-width:1.5;"/>
    <defs>
     <path d="M 0 3 
C 0.795609 3 1.55874 2.683901 2.12132 2.12132 
C 2.683901 1.55874 3 0.795609 3 0 
C 3 -0.795609 2.683901 -1.55874 2.12132 -2.12132 
C 1.55874 -2.683901 0.795609 -3 0 -3 
C -0.795609 -3 -1.55874 -2.683901 -2.12132 -2.12132 
C -2.683901 -1.55874 -3 -0.795609 -3 0 
C -3 0.795609 -2.683901 1.55874 -2.12132 2.12132 
C -1.55874 2.683901 -0.795609 3 0 3 
z
" id="mbd57b60487" style="stroke:#00d4ff;"/>
    </defs>
    <g clip-path="url(#p7505f67fc4)">
     <use style="fill:#00d4ff;stroke:#00d4ff;" x="383.782813" xlink:href="#mbd57b60487" y="96.751859"/>
     <use style="fill:#00d4ff;stroke:#00d4ff;" x="402.382812" xlink:href="#mbd57b60487" y="108.184695"/>
     <use style="fill:#00d4ff;stroke:#00d4ff;" x="420.982812" xlink:href="#mbd57b60487" y="97.46075"/>
     <use style="fill:#00d4ff;stroke:#00d4ff;" x="439.582812" xlink:href="#mbd57b60487" y="94.098852"/>
     <use style="fill:#00d4ff;stroke:#00d4ff;" x="458.182813" xlink:href="#mbd57b60487" y="101.120361"/>
     <use style="fill:#00d4ff;stroke:#00d4ff;" x="476.782813" xlink:href="#mbd57b60487" y="105.855866"/>
     <use style="fill:#00d4ff;stroke:#00d4ff;" x="495.382812" xlink:href="#mbd57b60487" y="99.386328"/>
     <use style="fill:#00d4ff;stroke:#00d4ff;" x="513.982812" xlink:href="#mbd57b60487" y="117.042859"/>
     <use style="fill:#00d4ff;stroke:#00d4ff;" x="532.582812" xlink:href="#mbd57b60487" y="95.096914"/>
     <use style="fill:#00d4ff;stroke:#00d4ff;" x="551.182813" xlink:href="#mbd57b60487" y="108.08839"/>
     <use style="fill:#00d4ff;stroke:#00d4ff;" x="569.782813" xlink:href="#mbd57b60487" y="128.429891"/>
     <use style="fill:#00d4ff;stroke:#00d4ff;" x="588.382812" xlink:href="#mbd57b60487" y="260.212099"/>
     <use style="fill:#00d4ff;stroke:#00d4ff;" x="606.982812" xlink:href="#mbd57b60487" y="139.594869"/>
     <use style="fill:#00d4ff;stroke:#00d4ff;" x="625.582812" xlink:href="#mbd57b60487" y="121.2197"/>
     <use style="fill:#00d4ff;stroke:#00d4ff;" x="644.182813" xlink:href="#mbd57b60487" y="101.975766"/>
     <use style="fill:#00d4ff;stroke:#00d4ff;" x="662.782813" xlink:href="#mbd57b60487" y="100.013013"/>
     <use style="fill:#00d4ff;stroke:#00d4ff;" x="681.382812" xlink:href="#mbd57b60487" y="108.060224"/>
    </g>
   </g>
   <g id="line2d_41">
    <path clip-path="url(#p7505f67fc4)" d="M 383.782813 100.179903 
L 402.382812 111.980242 
L 420.982812 102.377417 
L 439.582812 94.098852 
L 458.182813 101.120361 
L 476.782813 105.855866 
L 495.382812 99.386328 
L 513.982812 117.042859 
L 532.582812 95.096914 
L 551.182813 108.08839 
L 569.782813 128.429891 
L 588.382812 260.212099 
L 606.982812 139.594869 
L 625.582812 121.2197 
L 644.182813 93.026015 
L 662.782813 100.013013 
L 681.382812 111.398219 
" style="fill:none;stroke:#4dffaa;stroke-linecap:square;stroke-width:1.5;"/>
    <defs>
     <path d="M 0 3 
C 0.795609 3 1.55874 2.683901 2.12132 2.12132 
C 2.683901 1.55874 3 0.795609 3 0 
C 3 -0.795609 2.683901 -1.55874 2.12132 -2.12132 
C 1.55874 -2.683901 0.795609 -3 0 -3 
C -0.795609 -3 -1.55874 -2.683901 -2.12132 -2.12132 
C -2.683901 -1.55874 -3 -0.795609 -3 0 
C -3 0.795609 -2.683901 1.55874 -2.12132 2.12132 
C -1.55874 2.683901 -0.795609 3 0 3 
z
" id="m8e9aa2da74" style="stroke:#4dffaa;"/>
    </defs>
    <g clip-path="url(#p7505f67fc4)">
     <use style="fill:#4dffaa;stroke:#4dffaa;" x="383.782813" xlink:href="#m8e9aa2da74" y="100.179903"/>
     <use style="fill:#4dffaa;stroke:#4dffaa;" x="402.382812" xlink:href="#m8e9aa2da74" y="111.980242"/>
     <use style="fill:#4dffaa;stroke:#4dffaa;" x="420.982812" xlink:href="#m8e9aa2da74" y="102.377417"/>
     <use style="fill:#4dffaa;stroke:#4dffaa;" x="439.582812" xlink:href="#m8e9aa2da74" y="94.098852"/>
     <use style="fill:#4dffaa;stroke:#4dffaa;" x="458.182813" xlink:href="#m8e9aa2da74" y="101.120361"/>
     <use style="fill:#4dffaa;stroke:#4dffaa;" x="476.782813" xlink:href="#m8e9aa2da74" y="105.855866"/>
     <use style="fill:#4dffaa;stroke:#4dffaa;" x="495.382812" xlink:href="#m8e9aa2da74" y="99.386328"/>
     <use style="fill:#4dffaa;stroke:#4dffaa;" x="513.982812" xlink:href="#m8e9aa2da74" y="117.042859"/>
     <use style="fill:#4dffaa;stroke:#4dffaa;" x="532.582812" xlink:href="#m8e9aa2da74" y="95.096914"/>
     <use style="fill:#4dffaa;stroke:#4dffaa;" x="551.182813" xlink:href="#m8e9aa2da74" y="108.08839"/>
     <use style="fill:#4dffaa;stroke:#4dffaa;" x="569.782813" xlink:href="#m8e9aa2da74" y="128.429891"/>
     <use style="fill:#4dffaa;stroke:#4dffaa;" x="588.382812" xlink:href="#m8e9aa2da74" y="260.212099"/>
     <use style="fill:#4dffaa;stroke:#4dffaa;" x="606.982812" xlink:href="#m8e9aa2da74" y="139.594869"/>
     <use style="fill:#4dffaa;stroke:#4dffaa;" x="625.582812" xlink:href="#m8e9aa2da74" y="121.2197"/>
     <use style="fill:#4dffaa;stroke:#4dffaa;" x="644.182813" xlink:href="#m8e9aa2da74" y="93.026015"/>
     <use style="fill:#4dffaa;stroke:#4dffaa;" x="662.782813" xlink:href="#m8e9aa2da74" y="100.013013"/>
     <use style="fill:#4dffaa;stroke:#4dffaa;" x="681.382812" xlink:href="#m8e9aa2da74" y="111.398219"/>
    </g>
   </g>
   <g id="line2d_42">
    <path clip-path="url(#p7505f67fc4)" d="M 309.382812 84.101918 
L 327.982812 73.010795 
L 346.582812 98.539868 
L 439.582812 64.313501 
L 458.182813 108.627832 
L 662.782813 158.941165 
L 681.382812 136.725481 
" style="fill:none;stroke:#aaff4d;stroke-linecap:square;stroke-width:1.5;"/>
    <defs>
     <path d="M 0 3 
C 0.795609 3 1.55874 2.683901 2.12132 2.12132 
C 2.683901 1.55874 3 0.795609 3 0 
C 3 -0.795609 2.683901 -1.55874 2.12132 -2.12132 
C 1.55874 -2.683901 0.795609 -3 0 -3 
C -0.795609 -3 -1.55874 -2.683901 -2.12132 -2.12132 
C -2.683901 -1.55874 -3 -0.795609 -3 0 
C -3 0.795609 -2.683901 1.55874 -2.12132 2.12132 
C -1.55874 2.683901 -0.795609 3 0 3 
z
" id="m50968635dd" style="stroke:#aaff4d;"/>
    </defs>
    <g clip-path="url(#p7505f67fc4)">
     <use style="fill:#aaff4d;stroke:#aaff4d;" x="309.382812" xlink:href="#m50968635dd" y="84.101918"/>
     <use style="fill:#aaff4d;stroke:#aaff4d;" x="327.982812" xlink:href="#m50968635dd" y="73.010795"/>
     <use style="fill:#aaff4d;stroke:#aaff4d;" x="346.582812" xlink:href="#m50968635dd" y="98.539868"/>
     <use style="fill:#aaff4d;stroke:#aaff4d;" x="439.582812" xlink:href="#m50968635dd" y="64.313501"/>
     <use style="fill:#aaff4d;stroke:#aaff4d;" x="458.182813" xlink:href="#m50968635dd" y="108.627832"/>
     <use style="fill:#aaff4d;stroke:#aaff4d;" x="662.782813" xlink:href="#m50968635dd" y="158.941165"/>
     <use style="fill:#aaff4d;stroke:#aaff4d;" x="681.382812" xlink:href="#m50968635dd" y="136.725481"/>
    </g>
   </g>
   <g id="line2d_43">
    <path clip-path="url(#p7505f67fc4)" d="M 458.182813 84.872551 
L 476.782813 92.225052 
L 513.982812 90.966979 
L 644.182813 144.594491 
L 681.382812 146.492345 
" style="fill:none;stroke:#ff7a00;stroke-linecap:square;stroke-width:1.5;"/>
    <defs>
     <path d="M 0 3 
C 0.795609 3 1.55874 2.683901 2.12132 2.12132 
C 2.683901 1.55874 3 0.795609 3 0 
C 3 -0.795609 2.683901 -1.55874 2.12132 -2.12132 
C 1.55874 -2.683901 0.795609 -3 0 -3 
C -0.795609 -3 -1.55874 -2.683901 -2.12132 -2.12132 
C -2.683901 -1.55874 -3 -0.795609 -3 0 
C -3 0.795609 -2.683901 1.55874 -2.12132 2.12132 
C -1.55874 2.683901 -0.795609 3 0 3 
z
" id="m5c9d159a4d" style="stroke:#ff7a00;"/>
    </defs>
    <g clip-path="url(#p7505f67fc4)">
     <use style="fill:#ff7a00;stroke:#ff7a00;" x="458.182813" xlink:href="#m5c9d159a4d" y="84.872551"/>
     <use style="fill:#ff7a00;stroke:#ff7a00;" x="476.782813" xlink:href="#m5c9d159a4d" y="92.225052"/>
     <use style="fill:#ff7a00;stroke:#ff7a00;" x="513.982812" xlink:href="#m5c9d159a4d" y="90.966979"/>
     <use style="fill:#ff7a00;stroke:#ff7a00;" x="644.182813" xlink:href="#m5c9d159a4d" y="144.594491"/>
     <use style="fill:#ff7a00;stroke:#ff7a00;" x="681.382812" xlink:href="#m5c9d159a4d" y="146.492345"/>
    </g>
   </g>
   <g id="line2d_44">
    <path clip-path="url(#p7505f67fc4)" d="M 662.782813 133.162303 
L 681.382812 104.924416 
" style="fill:none;stroke:#ff1300;stroke-linecap:square;stroke-width:1.5;"/>
    <defs>
     <path d="M 0 3 
C 0.795609 3 1.55874 2.683901 2.12132 2.12132 
C 2.683901 1.55874 3 0.795609 3 0 
C 3 -0.795609 2.683901 -1.55874 2.12132 -2.12132 
C 1.55874 -2.683901 0.795609 -3 0 -3 
C -0.795609 -3 -1.55874 -2.683901 -2.12132 -2.12132 
C -2.683901 -1.55874 -3 -0.795609 -3 0 
C -3 0.795609 -2.683901 1.55874 -2.12132 2.12132 
C -1.55874 2.683901 -0.795609 3 0 3 
z
" id="mfe0b0c2c6c" style="stroke:#ff1300;"/>
    </defs>
    <g clip-path="url(#p7505f67fc4)">
     <use style="fill:#ff1300;stroke:#ff1300;" x="662.782813" xlink:href="#mfe0b0c2c6c" y="133.162303"/>
     <use style="fill:#ff1300;stroke:#ff1300;" x="681.382812" xlink:href="#mfe0b0c2c6c" y="104.924416"/>
    </g>
   </g>
   <g id="line2d_45">
    <path clip-path="url(#p7505f67fc4)" d="M 644.182813 128.131707 
" style="fill:none;stroke:#800000;stroke-linecap:square;stroke-width:1.5;"/>
    <defs>
     <path d="M 0 3 
C 0.795609 3 1.55874 2.683901 2.12132 2.12132 
C 2.683901 1.55874 3 0.795609 3 0 
C 3 -0.795609 2.683901 -1.55874 2.12132 -2.12132 
C 1.55874 -2.683901 0.795609 -3 0 -3 
C -0.795609 -3 -1.55874 -2.683901 -2.12132 -2.12132 
C -2.683901 -1.55874 -3 -0.795609 -3 0 
C -3 0.795609 -2.683901 1.55874 -2.12132 2.12132 
C -1.55874 2.683901 -0.795609 3 0 3 
z
" id="m89962f531e" style="stroke:#800000;"/>
    </defs>
    <g clip-path="url(#p7505f67fc4)">
     <use style="fill:#800000;stroke:#800000;" x="644.182813" xlink:href="#m89962f531e" y="128.131707"/>
    </g>
   </g>
   <g id="patch_3">
    <path d="M 48.982813 348.478125 
L 48.982813 22.318125 
" style="fill:none;stroke:#000000;stroke-linecap:square;stroke-linejoin:miter;stroke-width:0.8;"/>
   </g>
   <g id="patch_4">
    <path d="M 718.582813 348.478125 
L 718.582813 22.318125 
" style="fill:none;stroke:#000000;stroke-linecap:square;stroke-linejoin:miter;stroke-width:0.8;"/>
   </g>
   <g id="patch_5">
    <path d="M 48.982812 348.478125 
L 718.582812 348.478125 
" style="fill:none;stroke:#000000;stroke-linecap:square;stroke-linejoin:miter;stroke-width:0.8;"/>
   </g>
   <g id="patch_6">
    <path d="M 48.982812 22.318125 
L 718.582812 22.318125 
" style="fill:none;stroke:#000000;stroke-linecap:square;stroke-linejoin:miter;stroke-width:0.8;"/>
   </g>
   <g id="text_18">
    <!-- metapopulation models -->
    <defs>
     <path d="M 52 44.1875 
Q 55.375 50.25 60.0625 53.125 
Q 64.75 56 71.09375 56 
Q 79.640625 56 84.28125 50.015625 
Q 88.921875 44.046875 88.921875 33.015625 
L 88.921875 0 
L 79.890625 0 
L 79.890625 32.71875 
Q 79.890625 40.578125 77.09375 44.375 
Q 74.3125 48.1875 68.609375 48.1875 
Q 61.625 48.1875 57.5625 43.546875 
Q 53.515625 38.921875 53.515625 30.90625 
L 53.515625 0 
L 44.484375 0 
L 44.484375 32.71875 
Q 44.484375 40.625 41.703125 44.40625 
Q 38.921875 48.1875 33.109375 48.1875 
Q 26.21875 48.1875 22.15625 43.53125 
Q 18.109375 38.875 18.109375 30.90625 
L 18.109375 0 
L 9.078125 0 
L 9.078125 54.6875 
L 18.109375 54.6875 
L 18.109375 46.1875 
Q 21.1875 51.21875 25.484375 53.609375 
Q 29.78125 56 35.6875 56 
Q 41.65625 56 45.828125 52.96875 
Q 50 49.953125 52 44.1875 
z
" id="DejaVuSans-109"/>
    </defs>
    <g transform="translate(312.573125 16.318125)scale(0.12 -0.12)">
     <use xlink:href="#DejaVuSans-109"/>
     <use x="97.412109" xlink:href="#DejaVuSans-101"/>
     <use x="158.935547" xlink:href="#DejaVuSans-116"/>
     <use x="198.144531" xlink:href="#DejaVuSans-97"/>
     <use x="259.423828" xlink:href="#DejaVuSans-112"/>
     <use x="322.900391" xlink:href="#DejaVuSans-111"/>
     <use x="384.082031" xlink:href="#DejaVuSans-112"/>
     <use x="447.558594" xlink:href="#DejaVuSans-117"/>
     <use x="510.9375" xlink:href="#DejaVuSans-108"/>
     <use x="538.720703" xlink:href="#DejaVuSans-97"/>
     <use x="600" xlink:href="#DejaVuSans-116"/>
     <use x="639.208984" xlink:href="#DejaVuSans-105"/>
     <use x="666.992188" xlink:href="#DejaVuSans-111"/>
     <use x="728.173828" xlink:href="#DejaVuSans-110"/>
     <use x="791.552734" xlink:href="#DejaVuSans-32"/>
     <use x="823.339844" xlink:href="#DejaVuSans-109"/>
     <use x="920.751953" xlink:href="#DejaVuSans-111"/>
     <use x="981.933594" xlink:href="#DejaVuSans-100"/>
     <use x="1045.410156" xlink:href="#DejaVuSans-101"/>
     <use x="1106.933594" xlink:href="#DejaVuSans-108"/>
     <use x="1134.716797" xlink:href="#DejaVuSans-115"/>
    </g>
   </g>
   <g id="legend_1">
    <g id="patch_7">
     <path d="M 747.366813 348.478125 
L 871.844938 348.478125 
Q 873.844938 348.478125 873.844938 346.478125 
L 873.844938 181.70625 
Q 873.844938 179.70625 871.844938 179.70625 
L 747.366813 179.70625 
Q 745.366813 179.70625 745.366813 181.70625 
L 745.366813 346.478125 
Q 745.366813 348.478125 747.366813 348.478125 
z
" style="fill:#ffffff;opacity:0.8;stroke:#cccccc;stroke-linejoin:miter;"/>
    </g>
    <g id="line2d_46">
     <path d="M 749.366813 187.804687 
L 769.366813 187.804687 
" style="fill:none;stroke:#000080;stroke-linecap:square;stroke-width:1.5;"/>
    </g>
    <g id="line2d_47">
     <g>
      <use style="fill:#000080;stroke:#000080;" x="759.366813" xlink:href="#mb623d1cb38" y="187.804687"/>
     </g>
    </g>
    <g id="text_19">
     <!-- CU:nochange -->
     <defs>
      <path d="M 64.40625 67.28125 
L 64.40625 56.890625 
Q 59.421875 61.53125 53.78125 63.8125 
Q 48.140625 66.109375 41.796875 66.109375 
Q 29.296875 66.109375 22.65625 58.46875 
Q 16.015625 50.828125 16.015625 36.375 
Q 16.015625 21.96875 22.65625 14.328125 
Q 29.296875 6.6875 41.796875 6.6875 
Q 48.140625 6.6875 53.78125 8.984375 
Q 59.421875 11.28125 64.40625 15.921875 
L 64.40625 5.609375 
Q 59.234375 2.09375 53.4375 0.328125 
Q 47.65625 -1.421875 41.21875 -1.421875 
Q 24.65625 -1.421875 15.125 8.703125 
Q 5.609375 18.84375 5.609375 36.375 
Q 5.609375 53.953125 15.125 64.078125 
Q 24.65625 74.21875 41.21875 74.21875 
Q 47.75 74.21875 53.53125 72.484375 
Q 59.328125 70.75 64.40625 67.28125 
z
" id="DejaVuSans-67"/>
      <path d="M 8.6875 72.90625 
L 18.609375 72.90625 
L 18.609375 28.609375 
Q 18.609375 16.890625 22.84375 11.734375 
Q 27.09375 6.59375 36.625 6.59375 
Q 46.09375 6.59375 50.34375 11.734375 
Q 54.59375 16.890625 54.59375 28.609375 
L 54.59375 72.90625 
L 64.5 72.90625 
L 64.5 27.390625 
Q 64.5 13.140625 57.4375 5.859375 
Q 50.390625 -1.421875 36.625 -1.421875 
Q 22.796875 -1.421875 15.734375 5.859375 
Q 8.6875 13.140625 8.6875 27.390625 
z
" id="DejaVuSans-85"/>
      <path d="M 11.71875 12.40625 
L 22.015625 12.40625 
L 22.015625 0 
L 11.71875 0 
z
M 11.71875 51.703125 
L 22.015625 51.703125 
L 22.015625 39.3125 
L 11.71875 39.3125 
z
" id="DejaVuSans-58"/>
      <path d="M 54.890625 33.015625 
L 54.890625 0 
L 45.90625 0 
L 45.90625 32.71875 
Q 45.90625 40.484375 42.875 44.328125 
Q 39.84375 48.1875 33.796875 48.1875 
Q 26.515625 48.1875 22.3125 43.546875 
Q 18.109375 38.921875 18.109375 30.90625 
L 18.109375 0 
L 9.078125 0 
L 9.078125 75.984375 
L 18.109375 75.984375 
L 18.109375 46.1875 
Q 21.34375 51.125 25.703125 53.5625 
Q 30.078125 56 35.796875 56 
Q 45.21875 56 50.046875 50.171875 
Q 54.890625 44.34375 54.890625 33.015625 
z
" id="DejaVuSans-104"/>
     </defs>
     <g transform="translate(777.366813 191.304687)scale(0.1 -0.1)">
      <use xlink:href="#DejaVuSans-67"/>
      <use x="69.824219" xlink:href="#DejaVuSans-85"/>
      <use x="143.017578" xlink:href="#DejaVuSans-58"/>
      <use x="176.708984" xlink:href="#DejaVuSans-110"/>
      <use x="240.087891" xlink:href="#DejaVuSans-111"/>
      <use x="301.269531" xlink:href="#DejaVuSans-99"/>
      <use x="356.25" xlink:href="#DejaVuSans-104"/>
      <use x="419.628906" xlink:href="#DejaVuSans-97"/>
      <use x="480.908203" xlink:href="#DejaVuSans-110"/>
      <use x="544.287109" xlink:href="#DejaVuSans-103"/>
      <use x="607.763672" xlink:href="#DejaVuSans-101"/>
     </g>
    </g>
    <g id="line2d_48">
     <path d="M 749.366813 206.482812 
L 769.366813 206.482812 
" style="fill:none;stroke:#0000ff;stroke-linecap:square;stroke-width:1.5;"/>
    </g>
    <g id="line2d_49">
     <g>
      <use style="fill:#0000ff;stroke:#0000ff;" x="759.366813" xlink:href="#m69c4a45f65" y="206.482812"/>
     </g>
    </g>
    <g id="text_20">
     <!-- CU:scenario_high -->
     <defs>
      <path d="M 50.984375 -16.609375 
L 50.984375 -23.578125 
L -0.984375 -23.578125 
L -0.984375 -16.609375 
z
" id="DejaVuSans-95"/>
     </defs>
     <g transform="translate(777.366813 209.982812)scale(0.1 -0.1)">
      <use xlink:href="#DejaVuSans-67"/>
      <use x="69.824219" xlink:href="#DejaVuSans-85"/>
      <use x="143.017578" xlink:href="#DejaVuSans-58"/>
      <use x="176.708984" xlink:href="#DejaVuSans-115"/>
      <use x="228.808594" xlink:href="#DejaVuSans-99"/>
      <use x="283.789062" xlink:href="#DejaVuSans-101"/>
      <use x="345.3125" xlink:href="#DejaVuSans-110"/>
      <use x="408.691406" xlink:href="#DejaVuSans-97"/>
      <use x="469.970703" xlink:href="#DejaVuSans-114"/>
      <use x="511.083984" xlink:href="#DejaVuSans-105"/>
      <use x="538.867188" xlink:href="#DejaVuSans-111"/>
      <use x="600.048828" xlink:href="#DejaVuSans-95"/>
      <use x="650.048828" xlink:href="#DejaVuSans-104"/>
      <use x="713.427734" xlink:href="#DejaVuSans-105"/>
      <use x="741.210938" xlink:href="#DejaVuSans-103"/>
      <use x="804.6875" xlink:href="#DejaVuSans-104"/>
     </g>
    </g>
    <g id="line2d_50">
     <path d="M 749.366813 225.439062 
L 769.366813 225.439062 
" style="fill:none;stroke:#0060ff;stroke-linecap:square;stroke-width:1.5;"/>
    </g>
    <g id="line2d_51">
     <g>
      <use style="fill:#0060ff;stroke:#0060ff;" x="759.366813" xlink:href="#m87d34cb485" y="225.439062"/>
     </g>
    </g>
    <g id="text_21">
     <!-- CU:scenario_low -->
     <g transform="translate(777.366813 228.939062)scale(0.1 -0.1)">
      <use xlink:href="#DejaVuSans-67"/>
      <use x="69.824219" xlink:href="#DejaVuSans-85"/>
      <use x="143.017578" xlink:href="#DejaVuSans-58"/>
      <use x="176.708984" xlink:href="#DejaVuSans-115"/>
      <use x="228.808594" xlink:href="#DejaVuSans-99"/>
      <use x="283.789062" xlink:href="#DejaVuSans-101"/>
      <use x="345.3125" xlink:href="#DejaVuSans-110"/>
      <use x="408.691406" xlink:href="#DejaVuSans-97"/>
      <use x="469.970703" xlink:href="#DejaVuSans-114"/>
      <use x="511.083984" xlink:href="#DejaVuSans-105"/>
      <use x="538.867188" xlink:href="#DejaVuSans-111"/>
      <use x="600.048828" xlink:href="#DejaVuSans-95"/>
      <use x="650.048828" xlink:href="#DejaVuSans-108"/>
      <use x="677.832031" xlink:href="#DejaVuSans-111"/>
      <use x="739.013672" xlink:href="#DejaVuSans-119"/>
     </g>
    </g>
    <g id="line2d_52">
     <path d="M 749.366813 244.395312 
L 769.366813 244.395312 
" style="fill:none;stroke:#00d4ff;stroke-linecap:square;stroke-width:1.5;"/>
    </g>
    <g id="line2d_53">
     <g>
      <use style="fill:#00d4ff;stroke:#00d4ff;" x="759.366813" xlink:href="#mbd57b60487" y="244.395312"/>
     </g>
    </g>
    <g id="text_22">
     <!-- CU:scenario_mid -->
     <g transform="translate(777.366813 247.895312)scale(0.1 -0.1)">
      <use xlink:href="#DejaVuSans-67"/>
      <use x="69.824219" xlink:href="#DejaVuSans-85"/>
      <use x="143.017578" xlink:href="#DejaVuSans-58"/>
      <use x="176.708984" xlink:href="#DejaVuSans-115"/>
      <use x="228.808594" xlink:href="#DejaVuSans-99"/>
      <use x="283.789062" xlink:href="#DejaVuSans-101"/>
      <use x="345.3125" xlink:href="#DejaVuSans-110"/>
      <use x="408.691406" xlink:href="#DejaVuSans-97"/>
      <use x="469.970703" xlink:href="#DejaVuSans-114"/>
      <use x="511.083984" xlink:href="#DejaVuSans-105"/>
      <use x="538.867188" xlink:href="#DejaVuSans-111"/>
      <use x="600.048828" xlink:href="#DejaVuSans-95"/>
      <use x="650.048828" xlink:href="#DejaVuSans-109"/>
      <use x="747.460938" xlink:href="#DejaVuSans-105"/>
      <use x="775.244141" xlink:href="#DejaVuSans-100"/>
     </g>
    </g>
    <g id="line2d_54">
     <path d="M 749.366813 263.351562 
L 769.366813 263.351562 
" style="fill:none;stroke:#4dffaa;stroke-linecap:square;stroke-width:1.5;"/>
    </g>
    <g id="line2d_55">
     <g>
      <use style="fill:#4dffaa;stroke:#4dffaa;" x="759.366813" xlink:href="#m8e9aa2da74" y="263.351562"/>
     </g>
    </g>
    <g id="text_23">
     <!-- CU:select -->
     <g transform="translate(777.366813 266.851562)scale(0.1 -0.1)">
      <use xlink:href="#DejaVuSans-67"/>
      <use x="69.824219" xlink:href="#DejaVuSans-85"/>
      <use x="143.017578" xlink:href="#DejaVuSans-58"/>
      <use x="176.708984" xlink:href="#DejaVuSans-115"/>
      <use x="228.808594" xlink:href="#DejaVuSans-101"/>
      <use x="290.332031" xlink:href="#DejaVuSans-108"/>
      <use x="318.115234" xlink:href="#DejaVuSans-101"/>
      <use x="379.638672" xlink:href="#DejaVuSans-99"/>
      <use x="434.619141" xlink:href="#DejaVuSans-116"/>
     </g>
    </g>
    <g id="line2d_56">
     <path d="M 749.366813 282.029687 
L 769.366813 282.029687 
" style="fill:none;stroke:#aaff4d;stroke-linecap:square;stroke-width:1.5;"/>
    </g>
    <g id="line2d_57">
     <g>
      <use style="fill:#aaff4d;stroke:#aaff4d;" x="759.366813" xlink:href="#m50968635dd" y="282.029687"/>
     </g>
    </g>
    <g id="text_24">
     <!-- JHU_IDD:CovidSP -->
     <defs>
      <path d="M 9.8125 72.90625 
L 19.671875 72.90625 
L 19.671875 43.015625 
L 55.515625 43.015625 
L 55.515625 72.90625 
L 65.375 72.90625 
L 65.375 0 
L 55.515625 0 
L 55.515625 34.71875 
L 19.671875 34.71875 
L 19.671875 0 
L 9.8125 0 
z
" id="DejaVuSans-72"/>
      <path d="M 9.8125 72.90625 
L 19.671875 72.90625 
L 19.671875 0 
L 9.8125 0 
z
" id="DejaVuSans-73"/>
      <path d="M 19.671875 64.796875 
L 19.671875 37.40625 
L 32.078125 37.40625 
Q 38.96875 37.40625 42.71875 40.96875 
Q 46.484375 44.53125 46.484375 51.125 
Q 46.484375 57.671875 42.71875 61.234375 
Q 38.96875 64.796875 32.078125 64.796875 
z
M 9.8125 72.90625 
L 32.078125 72.90625 
Q 44.34375 72.90625 50.609375 67.359375 
Q 56.890625 61.8125 56.890625 51.125 
Q 56.890625 40.328125 50.609375 34.8125 
Q 44.34375 29.296875 32.078125 29.296875 
L 19.671875 29.296875 
L 19.671875 0 
L 9.8125 0 
z
" id="DejaVuSans-80"/>
     </defs>
     <g transform="translate(777.366813 285.529687)scale(0.1 -0.1)">
      <use xlink:href="#DejaVuSans-74"/>
      <use x="29.492188" xlink:href="#DejaVuSans-72"/>
      <use x="104.6875" xlink:href="#DejaVuSans-85"/>
      <use x="177.880859" xlink:href="#DejaVuSans-95"/>
      <use x="227.880859" xlink:href="#DejaVuSans-73"/>
      <use x="257.373047" xlink:href="#DejaVuSans-68"/>
      <use x="334.375" xlink:href="#DejaVuSans-68"/>
      <use x="411.376953" xlink:href="#DejaVuSans-58"/>
      <use x="445.068359" xlink:href="#DejaVuSans-67"/>
      <use x="514.892578" xlink:href="#DejaVuSans-111"/>
      <use x="576.074219" xlink:href="#DejaVuSans-118"/>
      <use x="635.253906" xlink:href="#DejaVuSans-105"/>
      <use x="663.037109" xlink:href="#DejaVuSans-100"/>
      <use x="726.513672" xlink:href="#DejaVuSans-83"/>
      <use x="789.990234" xlink:href="#DejaVuSans-80"/>
     </g>
    </g>
    <g id="line2d_58">
     <path d="M 749.366813 300.985937 
L 769.366813 300.985937 
" style="fill:none;stroke:#ff7a00;stroke-linecap:square;stroke-width:1.5;"/>
    </g>
    <g id="line2d_59">
     <g>
      <use style="fill:#ff7a00;stroke:#ff7a00;" x="759.366813" xlink:href="#m5c9d159a4d" y="300.985937"/>
     </g>
    </g>
    <g id="text_25">
     <!-- JHUAPL:Bucky -->
     <defs>
      <path d="M 9.8125 72.90625 
L 19.671875 72.90625 
L 19.671875 8.296875 
L 55.171875 8.296875 
L 55.171875 0 
L 9.8125 0 
z
" id="DejaVuSans-76"/>
      <path d="M 19.671875 34.8125 
L 19.671875 8.109375 
L 35.5 8.109375 
Q 43.453125 8.109375 47.28125 11.40625 
Q 51.125 14.703125 51.125 21.484375 
Q 51.125 28.328125 47.28125 31.5625 
Q 43.453125 34.8125 35.5 34.8125 
z
M 19.671875 64.796875 
L 19.671875 42.828125 
L 34.28125 42.828125 
Q 41.5 42.828125 45.03125 45.53125 
Q 48.578125 48.25 48.578125 53.8125 
Q 48.578125 59.328125 45.03125 62.0625 
Q 41.5 64.796875 34.28125 64.796875 
z
M 9.8125 72.90625 
L 35.015625 72.90625 
Q 46.296875 72.90625 52.390625 68.21875 
Q 58.5 63.53125 58.5 54.890625 
Q 58.5 48.1875 55.375 44.234375 
Q 52.25 40.28125 46.1875 39.3125 
Q 53.46875 37.75 57.5 32.78125 
Q 61.53125 27.828125 61.53125 20.40625 
Q 61.53125 10.640625 54.890625 5.3125 
Q 48.25 0 35.984375 0 
L 9.8125 0 
z
" id="DejaVuSans-66"/>
     </defs>
     <g transform="translate(777.366813 304.485937)scale(0.1 -0.1)">
      <use xlink:href="#DejaVuSans-74"/>
      <use x="29.492188" xlink:href="#DejaVuSans-72"/>
      <use x="104.6875" xlink:href="#DejaVuSans-85"/>
      <use x="177.880859" xlink:href="#DejaVuSans-65"/>
      <use x="246.289062" xlink:href="#DejaVuSans-80"/>
      <use x="306.591797" xlink:href="#DejaVuSans-76"/>
      <use x="362.304688" xlink:href="#DejaVuSans-58"/>
      <use x="395.996094" xlink:href="#DejaVuSans-66"/>
      <use x="464.599609" xlink:href="#DejaVuSans-117"/>
      <use x="527.978516" xlink:href="#DejaVuSans-99"/>
      <use x="582.958984" xlink:href="#DejaVuSans-107"/>
      <use x="637.244141" xlink:href="#DejaVuSans-121"/>
     </g>
    </g>
    <g id="line2d_60">
     <path d="M 749.366813 319.664062 
L 769.366813 319.664062 
" style="fill:none;stroke:#ff1300;stroke-linecap:square;stroke-width:1.5;"/>
    </g>
    <g id="line2d_61">
     <g>
      <use style="fill:#ff1300;stroke:#ff1300;" x="759.366813" xlink:href="#mfe0b0c2c6c" y="319.664062"/>
     </g>
    </g>
    <g id="text_26">
     <!-- USC:SI_kJalpha -->
     <g transform="translate(777.366813 323.164062)scale(0.1 -0.1)">
      <use xlink:href="#DejaVuSans-85"/>
      <use x="73.193359" xlink:href="#DejaVuSans-83"/>
      <use x="136.669922" xlink:href="#DejaVuSans-67"/>
      <use x="206.494141" xlink:href="#DejaVuSans-58"/>
      <use x="240.185547" xlink:href="#DejaVuSans-83"/>
      <use x="303.662109" xlink:href="#DejaVuSans-73"/>
      <use x="333.154297" xlink:href="#DejaVuSans-95"/>
      <use x="383.154297" xlink:href="#DejaVuSans-107"/>
      <use x="441.064453" xlink:href="#DejaVuSans-74"/>
      <use x="470.556641" xlink:href="#DejaVuSans-97"/>
      <use x="531.835938" xlink:href="#DejaVuSans-108"/>
      <use x="559.619141" xlink:href="#DejaVuSans-112"/>
      <use x="623.095703" xlink:href="#DejaVuSans-104"/>
      <use x="686.474609" xlink:href="#DejaVuSans-97"/>
     </g>
    </g>
    <g id="line2d_62">
     <path d="M 749.366813 338.620312 
L 769.366813 338.620312 
" style="fill:none;stroke:#800000;stroke-linecap:square;stroke-width:1.5;"/>
    </g>
    <g id="line2d_63">
     <g>
      <use style="fill:#800000;stroke:#800000;" x="759.366813" xlink:href="#m89962f531e" y="338.620312"/>
     </g>
    </g>
    <g id="text_27">
     <!-- USC:SI_kJalpha_RF -->
     <defs>
      <path d="M 44.390625 34.1875 
Q 47.5625 33.109375 50.5625 29.59375 
Q 53.5625 26.078125 56.59375 19.921875 
L 66.609375 0 
L 56 0 
L 46.6875 18.703125 
Q 43.0625 26.03125 39.671875 28.421875 
Q 36.28125 30.8125 30.421875 30.8125 
L 19.671875 30.8125 
L 19.671875 0 
L 9.8125 0 
L 9.8125 72.90625 
L 32.078125 72.90625 
Q 44.578125 72.90625 50.734375 67.671875 
Q 56.890625 62.453125 56.890625 51.90625 
Q 56.890625 45.015625 53.6875 40.46875 
Q 50.484375 35.9375 44.390625 34.1875 
z
M 19.671875 64.796875 
L 19.671875 38.921875 
L 32.078125 38.921875 
Q 39.203125 38.921875 42.84375 42.21875 
Q 46.484375 45.515625 46.484375 51.90625 
Q 46.484375 58.296875 42.84375 61.546875 
Q 39.203125 64.796875 32.078125 64.796875 
z
" id="DejaVuSans-82"/>
      <path d="M 9.8125 72.90625 
L 51.703125 72.90625 
L 51.703125 64.59375 
L 19.671875 64.59375 
L 19.671875 43.109375 
L 48.578125 43.109375 
L 48.578125 34.8125 
L 19.671875 34.8125 
L 19.671875 0 
L 9.8125 0 
z
" id="DejaVuSans-70"/>
     </defs>
     <g transform="translate(777.366813 342.120312)scale(0.1 -0.1)">
      <use xlink:href="#DejaVuSans-85"/>
      <use x="73.193359" xlink:href="#DejaVuSans-83"/>
      <use x="136.669922" xlink:href="#DejaVuSans-67"/>
      <use x="206.494141" xlink:href="#DejaVuSans-58"/>
      <use x="240.185547" xlink:href="#DejaVuSans-83"/>
      <use x="303.662109" xlink:href="#DejaVuSans-73"/>
      <use x="333.154297" xlink:href="#DejaVuSans-95"/>
      <use x="383.154297" xlink:href="#DejaVuSans-107"/>
      <use x="441.064453" xlink:href="#DejaVuSans-74"/>
      <use x="470.556641" xlink:href="#DejaVuSans-97"/>
      <use x="531.835938" xlink:href="#DejaVuSans-108"/>
      <use x="559.619141" xlink:href="#DejaVuSans-112"/>
      <use x="623.095703" xlink:href="#DejaVuSans-104"/>
      <use x="686.474609" xlink:href="#DejaVuSans-97"/>
      <use x="747.753906" xlink:href="#DejaVuSans-95"/>
      <use x="797.753906" xlink:href="#DejaVuSans-82"/>
      <use x="867.236328" xlink:href="#DejaVuSans-70"/>
     </g>
    </g>
   </g>
  </g>
 </g>
 <defs>
  <clipPath id="p7505f67fc4">
   <rect height="326.16" width="669.6" x="48.982813" y="22.318125"/>
  </clipPath>
 </defs>
</svg>
