<?xml version="1.0" encoding="utf-8" standalone="no"?>
<!DOCTYPE svg PUBLIC "-//W3C//DTD SVG 1.1//EN"
  "http://www.w3.org/Graphics/SVG/1.1/DTD/svg11.dtd">
<!-- Created with matplotlib (https://matplotlib.org/) -->
<svg height="376.664358pt" version="1.1" viewBox="0 0 901.543375 376.664358" width="901.543375pt" xmlns="http://www.w3.org/2000/svg" xmlns:xlink="http://www.w3.org/1999/xlink">
 <defs>
  <style type="text/css">
*{stroke-linecap:butt;stroke-linejoin:round;}
  </style>
 </defs>
 <g id="figure_1">
  <g id="patch_1">
   <path d="M 0 376.664358 
L 901.543375 376.664358 
L 901.543375 0 
L 0 0 
z
" style="fill:#ffffff;"/>
  </g>
  <g id="axes_1">
   <g id="patch_2">
    <path d="M 58.523438 316.078125 
L 728.123438 316.078125 
L 728.123438 22.318125 
L 58.523438 22.318125 
z
" style="fill:#ffffff;"/>
   </g>
   <g id="matplotlib.axis_1">
    <g id="xtick_1">
     <g id="line2d_1">
      <defs>
       <path d="M 0 0 
L 0 3.5 
" id="mb367162a65" style="stroke:#000000;stroke-width:0.8;"/>
      </defs>
      <g>
       <use style="stroke:#000000;stroke-width:0.8;" x="58.523438" xlink:href="#mb367162a65" y="316.078125"/>
      </g>
     </g>
     <g id="text_1">
      <!-- Apr 25 -->
      <defs>
       <path d="M 34.1875 63.1875 
L 20.796875 26.90625 
L 47.609375 26.90625 
z
M 28.609375 72.90625 
L 39.796875 72.90625 
L 67.578125 0 
L 57.328125 0 
L 50.6875 18.703125 
L 17.828125 18.703125 
L 11.1875 0 
L 0.78125 0 
z
" id="DejaVuSans-65"/>
       <path d="M 18.109375 8.203125 
L 18.109375 -20.796875 
L 9.078125 -20.796875 
L 9.078125 54.6875 
L 18.109375 54.6875 
L 18.109375 46.390625 
Q 20.953125 51.265625 25.265625 53.625 
Q 29.59375 56 35.59375 56 
Q 45.5625 56 51.78125 48.09375 
Q 58.015625 40.1875 58.015625 27.296875 
Q 58.015625 14.40625 51.78125 6.484375 
Q 45.5625 -1.421875 35.59375 -1.421875 
Q 29.59375 -1.421875 25.265625 0.953125 
Q 20.953125 3.328125 18.109375 8.203125 
z
M 48.6875 27.296875 
Q 48.6875 37.203125 44.609375 42.84375 
Q 40.53125 48.484375 33.40625 48.484375 
Q 26.265625 48.484375 22.1875 42.84375 
Q 18.109375 37.203125 18.109375 27.296875 
Q 18.109375 17.390625 22.1875 11.75 
Q 26.265625 6.109375 33.40625 6.109375 
Q 40.53125 6.109375 44.609375 11.75 
Q 48.6875 17.390625 48.6875 27.296875 
z
" id="DejaVuSans-112"/>
       <path d="M 41.109375 46.296875 
Q 39.59375 47.171875 37.8125 47.578125 
Q 36.03125 48 33.890625 48 
Q 26.265625 48 22.1875 43.046875 
Q 18.109375 38.09375 18.109375 28.8125 
L 18.109375 0 
L 9.078125 0 
L 9.078125 54.6875 
L 18.109375 54.6875 
L 18.109375 46.1875 
Q 20.953125 51.171875 25.484375 53.578125 
Q 30.03125 56 36.53125 56 
Q 37.453125 56 38.578125 55.875 
Q 39.703125 55.765625 41.0625 55.515625 
z
" id="DejaVuSans-114"/>
       <path id="DejaVuSans-32"/>
       <path d="M 19.1875 8.296875 
L 53.609375 8.296875 
L 53.609375 0 
L 7.328125 0 
L 7.328125 8.296875 
Q 12.9375 14.109375 22.625 23.890625 
Q 32.328125 33.6875 34.8125 36.53125 
Q 39.546875 41.84375 41.421875 45.53125 
Q 43.3125 49.21875 43.3125 52.78125 
Q 43.3125 58.59375 39.234375 62.25 
Q 35.15625 65.921875 28.609375 65.921875 
Q 23.96875 65.921875 18.8125 64.3125 
Q 13.671875 62.703125 7.8125 59.421875 
L 7.8125 69.390625 
Q 13.765625 71.78125 18.9375 73 
Q 24.125 74.21875 28.421875 74.21875 
Q 39.75 74.21875 46.484375 68.546875 
Q 53.21875 62.890625 53.21875 53.421875 
Q 53.21875 48.921875 51.53125 44.890625 
Q 49.859375 40.875 45.40625 35.40625 
Q 44.1875 33.984375 37.640625 27.21875 
Q 31.109375 20.453125 19.1875 8.296875 
z
" id="DejaVuSans-50"/>
       <path d="M 10.796875 72.90625 
L 49.515625 72.90625 
L 49.515625 64.59375 
L 19.828125 64.59375 
L 19.828125 46.734375 
Q 21.96875 47.46875 24.109375 47.828125 
Q 26.265625 48.1875 28.421875 48.1875 
Q 40.625 48.1875 47.75 41.5 
Q 54.890625 34.8125 54.890625 23.390625 
Q 54.890625 11.625 47.5625 5.09375 
Q 40.234375 -1.421875 26.90625 -1.421875 
Q 22.3125 -1.421875 17.546875 -0.640625 
Q 12.796875 0.140625 7.71875 1.703125 
L 7.71875 11.625 
Q 12.109375 9.234375 16.796875 8.0625 
Q 21.484375 6.890625 26.703125 6.890625 
Q 35.15625 6.890625 40.078125 11.328125 
Q 45.015625 15.765625 45.015625 23.390625 
Q 45.015625 31 40.078125 35.4375 
Q 35.15625 39.890625 26.703125 39.890625 
Q 22.75 39.890625 18.8125 39.015625 
Q 14.890625 38.140625 10.796875 36.28125 
z
" id="DejaVuSans-53"/>
      </defs>
      <g transform="translate(33.574722 351.929187)rotate(-45)scale(0.1 -0.1)">
       <use xlink:href="#DejaVuSans-65"/>
       <use x="68.408203" xlink:href="#DejaVuSans-112"/>
       <use x="131.884766" xlink:href="#DejaVuSans-114"/>
       <use x="172.998047" xlink:href="#DejaVuSans-32"/>
       <use x="204.785156" xlink:href="#DejaVuSans-50"/>
       <use x="268.408203" xlink:href="#DejaVuSans-53"/>
      </g>
     </g>
    </g>
    <g id="xtick_2">
     <g id="line2d_2">
      <g>
       <use style="stroke:#000000;stroke-width:0.8;" x="114.323437" xlink:href="#mb367162a65" y="316.078125"/>
      </g>
     </g>
     <g id="text_2">
      <!-- May 23 -->
      <defs>
       <path d="M 9.8125 72.90625 
L 24.515625 72.90625 
L 43.109375 23.296875 
L 61.8125 72.90625 
L 76.515625 72.90625 
L 76.515625 0 
L 66.890625 0 
L 66.890625 64.015625 
L 48.09375 14.015625 
L 38.1875 14.015625 
L 19.390625 64.015625 
L 19.390625 0 
L 9.8125 0 
z
" id="DejaVuSans-77"/>
       <path d="M 34.28125 27.484375 
Q 23.390625 27.484375 19.1875 25 
Q 14.984375 22.515625 14.984375 16.5 
Q 14.984375 11.71875 18.140625 8.90625 
Q 21.296875 6.109375 26.703125 6.109375 
Q 34.1875 6.109375 38.703125 11.40625 
Q 43.21875 16.703125 43.21875 25.484375 
L 43.21875 27.484375 
z
M 52.203125 31.203125 
L 52.203125 0 
L 43.21875 0 
L 43.21875 8.296875 
Q 40.140625 3.328125 35.546875 0.953125 
Q 30.953125 -1.421875 24.3125 -1.421875 
Q 15.921875 -1.421875 10.953125 3.296875 
Q 6 8.015625 6 15.921875 
Q 6 25.140625 12.171875 29.828125 
Q 18.359375 34.515625 30.609375 34.515625 
L 43.21875 34.515625 
L 43.21875 35.40625 
Q 43.21875 41.609375 39.140625 45 
Q 35.0625 48.390625 27.6875 48.390625 
Q 23 48.390625 18.546875 47.265625 
Q 14.109375 46.140625 10.015625 43.890625 
L 10.015625 52.203125 
Q 14.9375 54.109375 19.578125 55.046875 
Q 24.21875 56 28.609375 56 
Q 40.484375 56 46.34375 49.84375 
Q 52.203125 43.703125 52.203125 31.203125 
z
" id="DejaVuSans-97"/>
       <path d="M 32.171875 -5.078125 
Q 28.375 -14.84375 24.75 -17.8125 
Q 21.140625 -20.796875 15.09375 -20.796875 
L 7.90625 -20.796875 
L 7.90625 -13.28125 
L 13.1875 -13.28125 
Q 16.890625 -13.28125 18.9375 -11.515625 
Q 21 -9.765625 23.484375 -3.21875 
L 25.09375 0.875 
L 2.984375 54.6875 
L 12.5 54.6875 
L 29.59375 11.921875 
L 46.6875 54.6875 
L 56.203125 54.6875 
z
" id="DejaVuSans-121"/>
       <path d="M 40.578125 39.3125 
Q 47.65625 37.796875 51.625 33 
Q 55.609375 28.21875 55.609375 21.1875 
Q 55.609375 10.40625 48.1875 4.484375 
Q 40.765625 -1.421875 27.09375 -1.421875 
Q 22.515625 -1.421875 17.65625 -0.515625 
Q 12.796875 0.390625 7.625 2.203125 
L 7.625 11.71875 
Q 11.71875 9.328125 16.59375 8.109375 
Q 21.484375 6.890625 26.8125 6.890625 
Q 36.078125 6.890625 40.9375 10.546875 
Q 45.796875 14.203125 45.796875 21.1875 
Q 45.796875 27.640625 41.28125 31.265625 
Q 36.765625 34.90625 28.71875 34.90625 
L 20.21875 34.90625 
L 20.21875 43.015625 
L 29.109375 43.015625 
Q 36.375 43.015625 40.234375 45.921875 
Q 44.09375 48.828125 44.09375 54.296875 
Q 44.09375 59.90625 40.109375 62.90625 
Q 36.140625 65.921875 28.71875 65.921875 
Q 24.65625 65.921875 20.015625 65.03125 
Q 15.375 64.15625 9.8125 62.3125 
L 9.8125 71.09375 
Q 15.4375 72.65625 20.34375 73.4375 
Q 25.25 74.21875 29.59375 74.21875 
Q 40.828125 74.21875 47.359375 69.109375 
Q 53.90625 64.015625 53.90625 55.328125 
Q 53.90625 49.265625 50.4375 45.09375 
Q 46.96875 40.921875 40.578125 39.3125 
z
" id="DejaVuSans-51"/>
      </defs>
      <g transform="translate(86.988236 354.315672)rotate(-45)scale(0.1 -0.1)">
       <use xlink:href="#DejaVuSans-77"/>
       <use x="86.279297" xlink:href="#DejaVuSans-97"/>
       <use x="147.558594" xlink:href="#DejaVuSans-121"/>
       <use x="206.738281" xlink:href="#DejaVuSans-32"/>
       <use x="238.525391" xlink:href="#DejaVuSans-50"/>
       <use x="302.148438" xlink:href="#DejaVuSans-51"/>
      </g>
     </g>
    </g>
    <g id="xtick_3">
     <g id="line2d_3">
      <g>
       <use style="stroke:#000000;stroke-width:0.8;" x="170.123437" xlink:href="#mb367162a65" y="316.078125"/>
      </g>
     </g>
     <g id="text_3">
      <!-- Jun 20 -->
      <defs>
       <path d="M 9.8125 72.90625 
L 19.671875 72.90625 
L 19.671875 5.078125 
Q 19.671875 -8.109375 14.671875 -14.0625 
Q 9.671875 -20.015625 -1.421875 -20.015625 
L -5.171875 -20.015625 
L -5.171875 -11.71875 
L -2.09375 -11.71875 
Q 4.4375 -11.71875 7.125 -8.046875 
Q 9.8125 -4.390625 9.8125 5.078125 
z
" id="DejaVuSans-74"/>
       <path d="M 8.5 21.578125 
L 8.5 54.6875 
L 17.484375 54.6875 
L 17.484375 21.921875 
Q 17.484375 14.15625 20.5 10.265625 
Q 23.53125 6.390625 29.59375 6.390625 
Q 36.859375 6.390625 41.078125 11.03125 
Q 45.3125 15.671875 45.3125 23.6875 
L 45.3125 54.6875 
L 54.296875 54.6875 
L 54.296875 0 
L 45.3125 0 
L 45.3125 8.40625 
Q 42.046875 3.421875 37.71875 1 
Q 33.40625 -1.421875 27.6875 -1.421875 
Q 18.265625 -1.421875 13.375 4.4375 
Q 8.5 10.296875 8.5 21.578125 
z
M 31.109375 56 
z
" id="DejaVuSans-117"/>
       <path d="M 54.890625 33.015625 
L 54.890625 0 
L 45.90625 0 
L 45.90625 32.71875 
Q 45.90625 40.484375 42.875 44.328125 
Q 39.84375 48.1875 33.796875 48.1875 
Q 26.515625 48.1875 22.3125 43.546875 
Q 18.109375 38.921875 18.109375 30.90625 
L 18.109375 0 
L 9.078125 0 
L 9.078125 54.6875 
L 18.109375 54.6875 
L 18.109375 46.1875 
Q 21.34375 51.125 25.703125 53.5625 
Q 30.078125 56 35.796875 56 
Q 45.21875 56 50.046875 50.171875 
Q 54.890625 44.34375 54.890625 33.015625 
z
" id="DejaVuSans-110"/>
       <path d="M 31.78125 66.40625 
Q 24.171875 66.40625 20.328125 58.90625 
Q 16.5 51.421875 16.5 36.375 
Q 16.5 21.390625 20.328125 13.890625 
Q 24.171875 6.390625 31.78125 6.390625 
Q 39.453125 6.390625 43.28125 13.890625 
Q 47.125 21.390625 47.125 36.375 
Q 47.125 51.421875 43.28125 58.90625 
Q 39.453125 66.40625 31.78125 66.40625 
z
M 31.78125 74.21875 
Q 44.046875 74.21875 50.515625 64.515625 
Q 56.984375 54.828125 56.984375 36.375 
Q 56.984375 17.96875 50.515625 8.265625 
Q 44.046875 -1.421875 31.78125 -1.421875 
Q 19.53125 -1.421875 13.0625 8.265625 
Q 6.59375 17.96875 6.59375 36.375 
Q 6.59375 54.828125 13.0625 64.515625 
Q 19.53125 74.21875 31.78125 74.21875 
z
" id="DejaVuSans-48"/>
      </defs>
      <g transform="translate(146.359125 350.744783)rotate(-45)scale(0.1 -0.1)">
       <use xlink:href="#DejaVuSans-74"/>
       <use x="29.492188" xlink:href="#DejaVuSans-117"/>
       <use x="92.871094" xlink:href="#DejaVuSans-110"/>
       <use x="156.25" xlink:href="#DejaVuSans-32"/>
       <use x="188.037109" xlink:href="#DejaVuSans-50"/>
       <use x="251.660156" xlink:href="#DejaVuSans-48"/>
      </g>
     </g>
    </g>
    <g id="xtick_4">
     <g id="line2d_4">
      <g>
       <use style="stroke:#000000;stroke-width:0.8;" x="225.923437" xlink:href="#mb367162a65" y="316.078125"/>
      </g>
     </g>
     <g id="text_4">
      <!-- Jul 18 -->
      <defs>
       <path d="M 9.421875 75.984375 
L 18.40625 75.984375 
L 18.40625 0 
L 9.421875 0 
z
" id="DejaVuSans-108"/>
       <path d="M 12.40625 8.296875 
L 28.515625 8.296875 
L 28.515625 63.921875 
L 10.984375 60.40625 
L 10.984375 69.390625 
L 28.421875 72.90625 
L 38.28125 72.90625 
L 38.28125 8.296875 
L 54.390625 8.296875 
L 54.390625 0 
L 12.40625 0 
z
" id="DejaVuSans-49"/>
       <path d="M 31.78125 34.625 
Q 24.75 34.625 20.71875 30.859375 
Q 16.703125 27.09375 16.703125 20.515625 
Q 16.703125 13.921875 20.71875 10.15625 
Q 24.75 6.390625 31.78125 6.390625 
Q 38.8125 6.390625 42.859375 10.171875 
Q 46.921875 13.96875 46.921875 20.515625 
Q 46.921875 27.09375 42.890625 30.859375 
Q 38.875 34.625 31.78125 34.625 
z
M 21.921875 38.8125 
Q 15.578125 40.375 12.03125 44.71875 
Q 8.5 49.078125 8.5 55.328125 
Q 8.5 64.0625 14.71875 69.140625 
Q 20.953125 74.21875 31.78125 74.21875 
Q 42.671875 74.21875 48.875 69.140625 
Q 55.078125 64.0625 55.078125 55.328125 
Q 55.078125 49.078125 51.53125 44.71875 
Q 48 40.375 41.703125 38.8125 
Q 48.828125 37.15625 52.796875 32.3125 
Q 56.78125 27.484375 56.78125 20.515625 
Q 56.78125 9.90625 50.3125 4.234375 
Q 43.84375 -1.421875 31.78125 -1.421875 
Q 19.734375 -1.421875 13.25 4.234375 
Q 6.78125 9.90625 6.78125 20.515625 
Q 6.78125 27.484375 10.78125 32.3125 
Q 14.796875 37.15625 21.921875 38.8125 
z
M 18.3125 54.390625 
Q 18.3125 48.734375 21.84375 45.5625 
Q 25.390625 42.390625 31.78125 42.390625 
Q 38.140625 42.390625 41.71875 45.5625 
Q 45.3125 48.734375 45.3125 54.390625 
Q 45.3125 60.0625 41.71875 63.234375 
Q 38.140625 66.40625 31.78125 66.40625 
Q 25.390625 66.40625 21.84375 63.234375 
Q 18.3125 60.0625 18.3125 54.390625 
z
" id="DejaVuSans-56"/>
      </defs>
      <g transform="translate(204.675984 348.227924)rotate(-45)scale(0.1 -0.1)">
       <use xlink:href="#DejaVuSans-74"/>
       <use x="29.492188" xlink:href="#DejaVuSans-117"/>
       <use x="92.871094" xlink:href="#DejaVuSans-108"/>
       <use x="120.654297" xlink:href="#DejaVuSans-32"/>
       <use x="152.441406" xlink:href="#DejaVuSans-49"/>
       <use x="216.064453" xlink:href="#DejaVuSans-56"/>
      </g>
     </g>
    </g>
    <g id="xtick_5">
     <g id="line2d_5">
      <g>
       <use style="stroke:#000000;stroke-width:0.8;" x="281.723437" xlink:href="#mb367162a65" y="316.078125"/>
      </g>
     </g>
     <g id="text_5">
      <!-- Aug 15 -->
      <defs>
       <path d="M 45.40625 27.984375 
Q 45.40625 37.75 41.375 43.109375 
Q 37.359375 48.484375 30.078125 48.484375 
Q 22.859375 48.484375 18.828125 43.109375 
Q 14.796875 37.75 14.796875 27.984375 
Q 14.796875 18.265625 18.828125 12.890625 
Q 22.859375 7.515625 30.078125 7.515625 
Q 37.359375 7.515625 41.375 12.890625 
Q 45.40625 18.265625 45.40625 27.984375 
z
M 54.390625 6.78125 
Q 54.390625 -7.171875 48.1875 -13.984375 
Q 42 -20.796875 29.203125 -20.796875 
Q 24.46875 -20.796875 20.265625 -20.09375 
Q 16.0625 -19.390625 12.109375 -17.921875 
L 12.109375 -9.1875 
Q 16.0625 -11.328125 19.921875 -12.34375 
Q 23.78125 -13.375 27.78125 -13.375 
Q 36.625 -13.375 41.015625 -8.765625 
Q 45.40625 -4.15625 45.40625 5.171875 
L 45.40625 9.625 
Q 42.625 4.78125 38.28125 2.390625 
Q 33.9375 0 27.875 0 
Q 17.828125 0 11.671875 7.65625 
Q 5.515625 15.328125 5.515625 27.984375 
Q 5.515625 40.671875 11.671875 48.328125 
Q 17.828125 56 27.875 56 
Q 33.9375 56 38.28125 53.609375 
Q 42.625 51.21875 45.40625 46.390625 
L 45.40625 54.6875 
L 54.390625 54.6875 
z
" id="DejaVuSans-103"/>
      </defs>
      <g transform="translate(255.200304 353.503604)rotate(-45)scale(0.1 -0.1)">
       <use xlink:href="#DejaVuSans-65"/>
       <use x="68.408203" xlink:href="#DejaVuSans-117"/>
       <use x="131.787109" xlink:href="#DejaVuSans-103"/>
       <use x="195.263672" xlink:href="#DejaVuSans-32"/>
       <use x="227.050781" xlink:href="#DejaVuSans-49"/>
       <use x="290.673828" xlink:href="#DejaVuSans-53"/>
      </g>
     </g>
    </g>
    <g id="xtick_6">
     <g id="line2d_6">
      <g>
       <use style="stroke:#000000;stroke-width:0.8;" x="337.523438" xlink:href="#mb367162a65" y="316.078125"/>
      </g>
     </g>
     <g id="text_6">
      <!-- Sep 12 -->
      <defs>
       <path d="M 53.515625 70.515625 
L 53.515625 60.890625 
Q 47.90625 63.578125 42.921875 64.890625 
Q 37.9375 66.21875 33.296875 66.21875 
Q 25.25 66.21875 20.875 63.09375 
Q 16.5 59.96875 16.5 54.203125 
Q 16.5 49.359375 19.40625 46.890625 
Q 22.3125 44.4375 30.421875 42.921875 
L 36.375 41.703125 
Q 47.40625 39.59375 52.65625 34.296875 
Q 57.90625 29 57.90625 20.125 
Q 57.90625 9.515625 50.796875 4.046875 
Q 43.703125 -1.421875 29.984375 -1.421875 
Q 24.8125 -1.421875 18.96875 -0.25 
Q 13.140625 0.921875 6.890625 3.21875 
L 6.890625 13.375 
Q 12.890625 10.015625 18.65625 8.296875 
Q 24.421875 6.59375 29.984375 6.59375 
Q 38.421875 6.59375 43.015625 9.90625 
Q 47.609375 13.234375 47.609375 19.390625 
Q 47.609375 24.75 44.3125 27.78125 
Q 41.015625 30.8125 33.5 32.328125 
L 27.484375 33.5 
Q 16.453125 35.6875 11.515625 40.375 
Q 6.59375 45.0625 6.59375 53.421875 
Q 6.59375 63.09375 13.40625 68.65625 
Q 20.21875 74.21875 32.171875 74.21875 
Q 37.3125 74.21875 42.625 73.28125 
Q 47.953125 72.359375 53.515625 70.515625 
z
" id="DejaVuSans-83"/>
       <path d="M 56.203125 29.59375 
L 56.203125 25.203125 
L 14.890625 25.203125 
Q 15.484375 15.921875 20.484375 11.0625 
Q 25.484375 6.203125 34.421875 6.203125 
Q 39.59375 6.203125 44.453125 7.46875 
Q 49.3125 8.734375 54.109375 11.28125 
L 54.109375 2.78125 
Q 49.265625 0.734375 44.1875 -0.34375 
Q 39.109375 -1.421875 33.890625 -1.421875 
Q 20.796875 -1.421875 13.15625 6.1875 
Q 5.515625 13.8125 5.515625 26.8125 
Q 5.515625 40.234375 12.765625 48.109375 
Q 20.015625 56 32.328125 56 
Q 43.359375 56 49.78125 48.890625 
Q 56.203125 41.796875 56.203125 29.59375 
z
M 47.21875 32.234375 
Q 47.125 39.59375 43.09375 43.984375 
Q 39.0625 48.390625 32.421875 48.390625 
Q 24.90625 48.390625 20.390625 44.140625 
Q 15.875 39.890625 15.1875 32.171875 
z
" id="DejaVuSans-101"/>
      </defs>
      <g transform="translate(311.478706 353.025202)rotate(-45)scale(0.1 -0.1)">
       <use xlink:href="#DejaVuSans-83"/>
       <use x="63.476562" xlink:href="#DejaVuSans-101"/>
       <use x="125" xlink:href="#DejaVuSans-112"/>
       <use x="188.476562" xlink:href="#DejaVuSans-32"/>
       <use x="220.263672" xlink:href="#DejaVuSans-49"/>
       <use x="283.886719" xlink:href="#DejaVuSans-50"/>
      </g>
     </g>
    </g>
    <g id="xtick_7">
     <g id="line2d_7">
      <g>
       <use style="stroke:#000000;stroke-width:0.8;" x="393.323437" xlink:href="#mb367162a65" y="316.078125"/>
      </g>
     </g>
     <g id="text_7">
      <!-- Oct 10 -->
      <defs>
       <path d="M 39.40625 66.21875 
Q 28.65625 66.21875 22.328125 58.203125 
Q 16.015625 50.203125 16.015625 36.375 
Q 16.015625 22.609375 22.328125 14.59375 
Q 28.65625 6.59375 39.40625 6.59375 
Q 50.140625 6.59375 56.421875 14.59375 
Q 62.703125 22.609375 62.703125 36.375 
Q 62.703125 50.203125 56.421875 58.203125 
Q 50.140625 66.21875 39.40625 66.21875 
z
M 39.40625 74.21875 
Q 54.734375 74.21875 63.90625 63.9375 
Q 73.09375 53.65625 73.09375 36.375 
Q 73.09375 19.140625 63.90625 8.859375 
Q 54.734375 -1.421875 39.40625 -1.421875 
Q 24.03125 -1.421875 14.8125 8.828125 
Q 5.609375 19.09375 5.609375 36.375 
Q 5.609375 53.65625 14.8125 63.9375 
Q 24.03125 74.21875 39.40625 74.21875 
z
" id="DejaVuSans-79"/>
       <path d="M 48.78125 52.59375 
L 48.78125 44.1875 
Q 44.96875 46.296875 41.140625 47.34375 
Q 37.3125 48.390625 33.40625 48.390625 
Q 24.65625 48.390625 19.8125 42.84375 
Q 14.984375 37.3125 14.984375 27.296875 
Q 14.984375 17.28125 19.8125 11.734375 
Q 24.65625 6.203125 33.40625 6.203125 
Q 37.3125 6.203125 41.140625 7.25 
Q 44.96875 8.296875 48.78125 10.40625 
L 48.78125 2.09375 
Q 45.015625 0.34375 40.984375 -0.53125 
Q 36.96875 -1.421875 32.421875 -1.421875 
Q 20.0625 -1.421875 12.78125 6.34375 
Q 5.515625 14.109375 5.515625 27.296875 
Q 5.515625 40.671875 12.859375 48.328125 
Q 20.21875 56 33.015625 56 
Q 37.15625 56 41.109375 55.140625 
Q 45.0625 54.296875 48.78125 52.59375 
z
" id="DejaVuSans-99"/>
       <path d="M 18.3125 70.21875 
L 18.3125 54.6875 
L 36.8125 54.6875 
L 36.8125 47.703125 
L 18.3125 47.703125 
L 18.3125 18.015625 
Q 18.3125 11.328125 20.140625 9.421875 
Q 21.96875 7.515625 27.59375 7.515625 
L 36.8125 7.515625 
L 36.8125 0 
L 27.59375 0 
Q 17.1875 0 13.234375 3.875 
Q 9.28125 7.765625 9.28125 18.015625 
L 9.28125 47.703125 
L 2.6875 47.703125 
L 2.6875 54.6875 
L 9.28125 54.6875 
L 9.28125 70.21875 
z
" id="DejaVuSans-116"/>
      </defs>
      <g transform="translate(368.381351 351.922557)rotate(-45)scale(0.1 -0.1)">
       <use xlink:href="#DejaVuSans-79"/>
       <use x="78.710938" xlink:href="#DejaVuSans-99"/>
       <use x="133.691406" xlink:href="#DejaVuSans-116"/>
       <use x="172.900391" xlink:href="#DejaVuSans-32"/>
       <use x="204.6875" xlink:href="#DejaVuSans-49"/>
       <use x="268.310547" xlink:href="#DejaVuSans-48"/>
      </g>
     </g>
    </g>
    <g id="xtick_8">
     <g id="line2d_8">
      <g>
       <use style="stroke:#000000;stroke-width:0.8;" x="449.123437" xlink:href="#mb367162a65" y="316.078125"/>
      </g>
     </g>
     <g id="text_8">
      <!-- Nov 07 -->
      <defs>
       <path d="M 9.8125 72.90625 
L 23.09375 72.90625 
L 55.421875 11.921875 
L 55.421875 72.90625 
L 64.984375 72.90625 
L 64.984375 0 
L 51.703125 0 
L 19.390625 60.984375 
L 19.390625 0 
L 9.8125 0 
z
" id="DejaVuSans-78"/>
       <path d="M 30.609375 48.390625 
Q 23.390625 48.390625 19.1875 42.75 
Q 14.984375 37.109375 14.984375 27.296875 
Q 14.984375 17.484375 19.15625 11.84375 
Q 23.34375 6.203125 30.609375 6.203125 
Q 37.796875 6.203125 41.984375 11.859375 
Q 46.1875 17.53125 46.1875 27.296875 
Q 46.1875 37.015625 41.984375 42.703125 
Q 37.796875 48.390625 30.609375 48.390625 
z
M 30.609375 56 
Q 42.328125 56 49.015625 48.375 
Q 55.71875 40.765625 55.71875 27.296875 
Q 55.71875 13.875 49.015625 6.21875 
Q 42.328125 -1.421875 30.609375 -1.421875 
Q 18.84375 -1.421875 12.171875 6.21875 
Q 5.515625 13.875 5.515625 27.296875 
Q 5.515625 40.765625 12.171875 48.375 
Q 18.84375 56 30.609375 56 
z
" id="DejaVuSans-111"/>
       <path d="M 2.984375 54.6875 
L 12.5 54.6875 
L 29.59375 8.796875 
L 46.6875 54.6875 
L 56.203125 54.6875 
L 35.6875 0 
L 23.484375 0 
z
" id="DejaVuSans-118"/>
       <path d="M 8.203125 72.90625 
L 55.078125 72.90625 
L 55.078125 68.703125 
L 28.609375 0 
L 18.3125 0 
L 43.21875 64.59375 
L 8.203125 64.59375 
z
" id="DejaVuSans-55"/>
      </defs>
      <g transform="translate(422.605828 353.49808)rotate(-45)scale(0.1 -0.1)">
       <use xlink:href="#DejaVuSans-78"/>
       <use x="74.804688" xlink:href="#DejaVuSans-111"/>
       <use x="135.986328" xlink:href="#DejaVuSans-118"/>
       <use x="195.166016" xlink:href="#DejaVuSans-32"/>
       <use x="226.953125" xlink:href="#DejaVuSans-48"/>
       <use x="290.576172" xlink:href="#DejaVuSans-55"/>
      </g>
     </g>
    </g>
    <g id="xtick_9">
     <g id="line2d_9">
      <g>
       <use style="stroke:#000000;stroke-width:0.8;" x="504.923437" xlink:href="#mb367162a65" y="316.078125"/>
      </g>
     </g>
     <g id="text_9">
      <!-- Dec 05 -->
      <defs>
       <path d="M 19.671875 64.796875 
L 19.671875 8.109375 
L 31.59375 8.109375 
Q 46.6875 8.109375 53.6875 14.9375 
Q 60.6875 21.78125 60.6875 36.53125 
Q 60.6875 51.171875 53.6875 57.984375 
Q 46.6875 64.796875 31.59375 64.796875 
z
M 9.8125 72.90625 
L 30.078125 72.90625 
Q 51.265625 72.90625 61.171875 64.09375 
Q 71.09375 55.28125 71.09375 36.53125 
Q 71.09375 17.671875 61.125 8.828125 
Q 51.171875 0 30.078125 0 
L 9.8125 0 
z
" id="DejaVuSans-68"/>
      </defs>
      <g transform="translate(478.524048 353.37986)rotate(-45)scale(0.1 -0.1)">
       <use xlink:href="#DejaVuSans-68"/>
       <use x="77.001953" xlink:href="#DejaVuSans-101"/>
       <use x="138.525391" xlink:href="#DejaVuSans-99"/>
       <use x="193.505859" xlink:href="#DejaVuSans-32"/>
       <use x="225.292969" xlink:href="#DejaVuSans-48"/>
       <use x="288.916016" xlink:href="#DejaVuSans-53"/>
      </g>
     </g>
    </g>
    <g id="xtick_10">
     <g id="line2d_10">
      <g>
       <use style="stroke:#000000;stroke-width:0.8;" x="560.723437" xlink:href="#mb367162a65" y="316.078125"/>
      </g>
     </g>
     <g id="text_10">
      <!-- Jan 02 -->
      <g transform="translate(537.107176 350.596732)rotate(-45)scale(0.1 -0.1)">
       <use xlink:href="#DejaVuSans-74"/>
       <use x="29.492188" xlink:href="#DejaVuSans-97"/>
       <use x="90.771484" xlink:href="#DejaVuSans-110"/>
       <use x="154.150391" xlink:href="#DejaVuSans-32"/>
       <use x="185.9375" xlink:href="#DejaVuSans-48"/>
       <use x="249.560547" xlink:href="#DejaVuSans-50"/>
      </g>
     </g>
    </g>
    <g id="xtick_11">
     <g id="line2d_11">
      <g>
       <use style="stroke:#000000;stroke-width:0.8;" x="616.523438" xlink:href="#mb367162a65" y="316.078125"/>
      </g>
     </g>
     <g id="text_11">
      <!-- Jan 30 -->
      <g transform="translate(592.907176 350.596732)rotate(-45)scale(0.1 -0.1)">
       <use xlink:href="#DejaVuSans-74"/>
       <use x="29.492188" xlink:href="#DejaVuSans-97"/>
       <use x="90.771484" xlink:href="#DejaVuSans-110"/>
       <use x="154.150391" xlink:href="#DejaVuSans-32"/>
       <use x="185.9375" xlink:href="#DejaVuSans-51"/>
       <use x="249.560547" xlink:href="#DejaVuSans-48"/>
      </g>
     </g>
    </g>
    <g id="xtick_12">
     <g id="line2d_12">
      <g>
       <use style="stroke:#000000;stroke-width:0.8;" x="672.323437" xlink:href="#mb367162a65" y="316.078125"/>
      </g>
     </g>
     <g id="text_12">
      <!-- Feb 27 -->
      <defs>
       <path d="M 9.8125 72.90625 
L 51.703125 72.90625 
L 51.703125 64.59375 
L 19.671875 64.59375 
L 19.671875 43.109375 
L 48.578125 43.109375 
L 48.578125 34.8125 
L 19.671875 34.8125 
L 19.671875 0 
L 9.8125 0 
z
" id="DejaVuSans-70"/>
       <path d="M 48.6875 27.296875 
Q 48.6875 37.203125 44.609375 42.84375 
Q 40.53125 48.484375 33.40625 48.484375 
Q 26.265625 48.484375 22.1875 42.84375 
Q 18.109375 37.203125 18.109375 27.296875 
Q 18.109375 17.390625 22.1875 11.75 
Q 26.265625 6.109375 33.40625 6.109375 
Q 40.53125 6.109375 44.609375 11.75 
Q 48.6875 17.390625 48.6875 27.296875 
z
M 18.109375 46.390625 
Q 20.953125 51.265625 25.265625 53.625 
Q 29.59375 56 35.59375 56 
Q 45.5625 56 51.78125 48.09375 
Q 58.015625 40.1875 58.015625 27.296875 
Q 58.015625 14.40625 51.78125 6.484375 
Q 45.5625 -1.421875 35.59375 -1.421875 
Q 29.59375 -1.421875 25.265625 0.953125 
Q 20.953125 3.328125 18.109375 8.203125 
L 18.109375 0 
L 9.078125 0 
L 9.078125 75.984375 
L 18.109375 75.984375 
z
" id="DejaVuSans-98"/>
      </defs>
      <g transform="translate(647.089669 352.214239)rotate(-45)scale(0.1 -0.1)">
       <use xlink:href="#DejaVuSans-70"/>
       <use x="52.019531" xlink:href="#DejaVuSans-101"/>
       <use x="113.542969" xlink:href="#DejaVuSans-98"/>
       <use x="177.019531" xlink:href="#DejaVuSans-32"/>
       <use x="208.806641" xlink:href="#DejaVuSans-50"/>
       <use x="272.429688" xlink:href="#DejaVuSans-55"/>
      </g>
     </g>
    </g>
    <g id="xtick_13">
     <g id="line2d_13">
      <g>
       <use style="stroke:#000000;stroke-width:0.8;" x="728.123437" xlink:href="#mb367162a65" y="316.078125"/>
      </g>
     </g>
     <g id="text_13">
      <!-- Mar 27 -->
      <g transform="translate(702.066553 353.037355)rotate(-45)scale(0.1 -0.1)">
       <use xlink:href="#DejaVuSans-77"/>
       <use x="86.279297" xlink:href="#DejaVuSans-97"/>
       <use x="147.558594" xlink:href="#DejaVuSans-114"/>
       <use x="188.671875" xlink:href="#DejaVuSans-32"/>
       <use x="220.458984" xlink:href="#DejaVuSans-50"/>
       <use x="284.082031" xlink:href="#DejaVuSans-55"/>
      </g>
     </g>
    </g>
    <g id="text_14">
     <!-- Target End Date -->
     <defs>
      <path d="M -0.296875 72.90625 
L 61.375 72.90625 
L 61.375 64.59375 
L 35.5 64.59375 
L 35.5 0 
L 25.59375 0 
L 25.59375 64.59375 
L -0.296875 64.59375 
z
" id="DejaVuSans-84"/>
      <path d="M 9.8125 72.90625 
L 55.90625 72.90625 
L 55.90625 64.59375 
L 19.671875 64.59375 
L 19.671875 43.015625 
L 54.390625 43.015625 
L 54.390625 34.71875 
L 19.671875 34.71875 
L 19.671875 8.296875 
L 56.78125 8.296875 
L 56.78125 0 
L 9.8125 0 
z
" id="DejaVuSans-69"/>
      <path d="M 45.40625 46.390625 
L 45.40625 75.984375 
L 54.390625 75.984375 
L 54.390625 0 
L 45.40625 0 
L 45.40625 8.203125 
Q 42.578125 3.328125 38.25 0.953125 
Q 33.9375 -1.421875 27.875 -1.421875 
Q 17.96875 -1.421875 11.734375 6.484375 
Q 5.515625 14.40625 5.515625 27.296875 
Q 5.515625 40.1875 11.734375 48.09375 
Q 17.96875 56 27.875 56 
Q 33.9375 56 38.25 53.625 
Q 42.578125 51.265625 45.40625 46.390625 
z
M 14.796875 27.296875 
Q 14.796875 17.390625 18.875 11.75 
Q 22.953125 6.109375 30.078125 6.109375 
Q 37.203125 6.109375 41.296875 11.75 
Q 45.40625 17.390625 45.40625 27.296875 
Q 45.40625 37.203125 41.296875 42.84375 
Q 37.203125 48.484375 30.078125 48.484375 
Q 22.953125 48.484375 18.875 42.84375 
Q 14.796875 37.203125 14.796875 27.296875 
z
" id="DejaVuSans-100"/>
     </defs>
     <g transform="translate(353.220312 367.384671)scale(0.1 -0.1)">
      <use xlink:href="#DejaVuSans-84"/>
      <use x="44.583984" xlink:href="#DejaVuSans-97"/>
      <use x="105.863281" xlink:href="#DejaVuSans-114"/>
      <use x="145.226562" xlink:href="#DejaVuSans-103"/>
      <use x="208.703125" xlink:href="#DejaVuSans-101"/>
      <use x="270.226562" xlink:href="#DejaVuSans-116"/>
      <use x="309.435547" xlink:href="#DejaVuSans-32"/>
      <use x="341.222656" xlink:href="#DejaVuSans-69"/>
      <use x="404.40625" xlink:href="#DejaVuSans-110"/>
      <use x="467.785156" xlink:href="#DejaVuSans-100"/>
      <use x="531.261719" xlink:href="#DejaVuSans-32"/>
      <use x="563.048828" xlink:href="#DejaVuSans-68"/>
      <use x="640.050781" xlink:href="#DejaVuSans-97"/>
      <use x="701.330078" xlink:href="#DejaVuSans-116"/>
      <use x="740.539062" xlink:href="#DejaVuSans-101"/>
     </g>
    </g>
   </g>
   <g id="matplotlib.axis_2">
    <g id="ytick_1">
     <g id="line2d_14">
      <defs>
       <path d="M 0 0 
L -3.5 0 
" id="m5389fad9c6" style="stroke:#000000;stroke-width:0.8;"/>
      </defs>
      <g>
       <use style="stroke:#000000;stroke-width:0.8;" x="58.523438" xlink:href="#m5389fad9c6" y="290.276507"/>
      </g>
     </g>
     <g id="text_15">
      <!-- −20.0 -->
      <defs>
       <path d="M 10.59375 35.5 
L 73.1875 35.5 
L 73.1875 27.203125 
L 10.59375 27.203125 
z
" id="DejaVuSans-8722"/>
       <path d="M 10.6875 12.40625 
L 21 12.40625 
L 21 0 
L 10.6875 0 
z
" id="DejaVuSans-46"/>
      </defs>
      <g transform="translate(20.878125 294.075726)scale(0.1 -0.1)">
       <use xlink:href="#DejaVuSans-8722"/>
       <use x="83.789062" xlink:href="#DejaVuSans-50"/>
       <use x="147.412109" xlink:href="#DejaVuSans-48"/>
       <use x="211.035156" xlink:href="#DejaVuSans-46"/>
       <use x="242.822266" xlink:href="#DejaVuSans-48"/>
      </g>
     </g>
    </g>
    <g id="ytick_2">
     <g id="line2d_15">
      <g>
       <use style="stroke:#000000;stroke-width:0.8;" x="58.523438" xlink:href="#m5389fad9c6" y="253.045004"/>
      </g>
     </g>
     <g id="text_16">
      <!-- −17.5 -->
      <g transform="translate(20.878125 256.844223)scale(0.1 -0.1)">
       <use xlink:href="#DejaVuSans-8722"/>
       <use x="83.789062" xlink:href="#DejaVuSans-49"/>
       <use x="147.412109" xlink:href="#DejaVuSans-55"/>
       <use x="211.035156" xlink:href="#DejaVuSans-46"/>
       <use x="242.822266" xlink:href="#DejaVuSans-53"/>
      </g>
     </g>
    </g>
    <g id="ytick_3">
     <g id="line2d_16">
      <g>
       <use style="stroke:#000000;stroke-width:0.8;" x="58.523438" xlink:href="#m5389fad9c6" y="215.813502"/>
      </g>
     </g>
     <g id="text_17">
      <!-- −15.0 -->
      <g transform="translate(20.878125 219.61272)scale(0.1 -0.1)">
       <use xlink:href="#DejaVuSans-8722"/>
       <use x="83.789062" xlink:href="#DejaVuSans-49"/>
       <use x="147.412109" xlink:href="#DejaVuSans-53"/>
       <use x="211.035156" xlink:href="#DejaVuSans-46"/>
       <use x="242.822266" xlink:href="#DejaVuSans-48"/>
      </g>
     </g>
    </g>
    <g id="ytick_4">
     <g id="line2d_17">
      <g>
       <use style="stroke:#000000;stroke-width:0.8;" x="58.523438" xlink:href="#m5389fad9c6" y="178.581999"/>
      </g>
     </g>
     <g id="text_18">
      <!-- −12.5 -->
      <g transform="translate(20.878125 182.381218)scale(0.1 -0.1)">
       <use xlink:href="#DejaVuSans-8722"/>
       <use x="83.789062" xlink:href="#DejaVuSans-49"/>
       <use x="147.412109" xlink:href="#DejaVuSans-50"/>
       <use x="211.035156" xlink:href="#DejaVuSans-46"/>
       <use x="242.822266" xlink:href="#DejaVuSans-53"/>
      </g>
     </g>
    </g>
    <g id="ytick_5">
     <g id="line2d_18">
      <g>
       <use style="stroke:#000000;stroke-width:0.8;" x="58.523438" xlink:href="#m5389fad9c6" y="141.350496"/>
      </g>
     </g>
     <g id="text_19">
      <!-- −10.0 -->
      <g transform="translate(20.878125 145.149715)scale(0.1 -0.1)">
       <use xlink:href="#DejaVuSans-8722"/>
       <use x="83.789062" xlink:href="#DejaVuSans-49"/>
       <use x="147.412109" xlink:href="#DejaVuSans-48"/>
       <use x="211.035156" xlink:href="#DejaVuSans-46"/>
       <use x="242.822266" xlink:href="#DejaVuSans-48"/>
      </g>
     </g>
    </g>
    <g id="ytick_6">
     <g id="line2d_19">
      <g>
       <use style="stroke:#000000;stroke-width:0.8;" x="58.523438" xlink:href="#m5389fad9c6" y="104.118994"/>
      </g>
     </g>
     <g id="text_20">
      <!-- −7.5 -->
      <g transform="translate(27.240625 107.918212)scale(0.1 -0.1)">
       <use xlink:href="#DejaVuSans-8722"/>
       <use x="83.789062" xlink:href="#DejaVuSans-55"/>
       <use x="147.412109" xlink:href="#DejaVuSans-46"/>
       <use x="179.199219" xlink:href="#DejaVuSans-53"/>
      </g>
     </g>
    </g>
    <g id="ytick_7">
     <g id="line2d_20">
      <g>
       <use style="stroke:#000000;stroke-width:0.8;" x="58.523438" xlink:href="#m5389fad9c6" y="66.887491"/>
      </g>
     </g>
     <g id="text_21">
      <!-- −5.0 -->
      <g transform="translate(27.240625 70.68671)scale(0.1 -0.1)">
       <use xlink:href="#DejaVuSans-8722"/>
       <use x="83.789062" xlink:href="#DejaVuSans-53"/>
       <use x="147.412109" xlink:href="#DejaVuSans-46"/>
       <use x="179.199219" xlink:href="#DejaVuSans-48"/>
      </g>
     </g>
    </g>
    <g id="ytick_8">
     <g id="line2d_21">
      <g>
       <use style="stroke:#000000;stroke-width:0.8;" x="58.523438" xlink:href="#m5389fad9c6" y="29.655988"/>
      </g>
     </g>
     <g id="text_22">
      <!-- −2.5 -->
      <g transform="translate(27.240625 33.455207)scale(0.1 -0.1)">
       <use xlink:href="#DejaVuSans-8722"/>
       <use x="83.789062" xlink:href="#DejaVuSans-50"/>
       <use x="147.412109" xlink:href="#DejaVuSans-46"/>
       <use x="179.199219" xlink:href="#DejaVuSans-53"/>
      </g>
     </g>
    </g>
    <g id="text_23">
     <!-- Score for weekly incidental cases -->
     <defs>
      <path d="M 37.109375 75.984375 
L 37.109375 68.5 
L 28.515625 68.5 
Q 23.6875 68.5 21.796875 66.546875 
Q 19.921875 64.59375 19.921875 59.515625 
L 19.921875 54.6875 
L 34.71875 54.6875 
L 34.71875 47.703125 
L 19.921875 47.703125 
L 19.921875 0 
L 10.890625 0 
L 10.890625 47.703125 
L 2.296875 47.703125 
L 2.296875 54.6875 
L 10.890625 54.6875 
L 10.890625 58.5 
Q 10.890625 67.625 15.140625 71.796875 
Q 19.390625 75.984375 28.609375 75.984375 
z
" id="DejaVuSans-102"/>
      <path d="M 4.203125 54.6875 
L 13.1875 54.6875 
L 24.421875 12.015625 
L 35.59375 54.6875 
L 46.1875 54.6875 
L 57.421875 12.015625 
L 68.609375 54.6875 
L 77.59375 54.6875 
L 63.28125 0 
L 52.6875 0 
L 40.921875 44.828125 
L 29.109375 0 
L 18.5 0 
z
" id="DejaVuSans-119"/>
      <path d="M 9.078125 75.984375 
L 18.109375 75.984375 
L 18.109375 31.109375 
L 44.921875 54.6875 
L 56.390625 54.6875 
L 27.390625 29.109375 
L 57.625 0 
L 45.90625 0 
L 18.109375 26.703125 
L 18.109375 0 
L 9.078125 0 
z
" id="DejaVuSans-107"/>
      <path d="M 9.421875 54.6875 
L 18.40625 54.6875 
L 18.40625 0 
L 9.421875 0 
z
M 9.421875 75.984375 
L 18.40625 75.984375 
L 18.40625 64.59375 
L 9.421875 64.59375 
z
" id="DejaVuSans-105"/>
      <path d="M 44.28125 53.078125 
L 44.28125 44.578125 
Q 40.484375 46.53125 36.375 47.5 
Q 32.28125 48.484375 27.875 48.484375 
Q 21.1875 48.484375 17.84375 46.4375 
Q 14.5 44.390625 14.5 40.28125 
Q 14.5 37.15625 16.890625 35.375 
Q 19.28125 33.59375 26.515625 31.984375 
L 29.59375 31.296875 
Q 39.15625 29.25 43.1875 25.515625 
Q 47.21875 21.78125 47.21875 15.09375 
Q 47.21875 7.46875 41.1875 3.015625 
Q 35.15625 -1.421875 24.609375 -1.421875 
Q 20.21875 -1.421875 15.453125 -0.5625 
Q 10.6875 0.296875 5.421875 2 
L 5.421875 11.28125 
Q 10.40625 8.6875 15.234375 7.390625 
Q 20.0625 6.109375 24.8125 6.109375 
Q 31.15625 6.109375 34.5625 8.28125 
Q 37.984375 10.453125 37.984375 14.40625 
Q 37.984375 18.0625 35.515625 20.015625 
Q 33.0625 21.96875 24.703125 23.78125 
L 21.578125 24.515625 
Q 13.234375 26.265625 9.515625 29.90625 
Q 5.8125 33.546875 5.8125 39.890625 
Q 5.8125 47.609375 11.28125 51.796875 
Q 16.75 56 26.8125 56 
Q 31.78125 56 36.171875 55.265625 
Q 40.578125 54.546875 44.28125 53.078125 
z
" id="DejaVuSans-115"/>
     </defs>
     <g transform="translate(14.798438 252.545781)rotate(-90)scale(0.1 -0.1)">
      <use xlink:href="#DejaVuSans-83"/>
      <use x="63.476562" xlink:href="#DejaVuSans-99"/>
      <use x="118.457031" xlink:href="#DejaVuSans-111"/>
      <use x="179.638672" xlink:href="#DejaVuSans-114"/>
      <use x="218.501953" xlink:href="#DejaVuSans-101"/>
      <use x="280.025391" xlink:href="#DejaVuSans-32"/>
      <use x="311.8125" xlink:href="#DejaVuSans-102"/>
      <use x="347.017578" xlink:href="#DejaVuSans-111"/>
      <use x="408.199219" xlink:href="#DejaVuSans-114"/>
      <use x="449.3125" xlink:href="#DejaVuSans-32"/>
      <use x="481.099609" xlink:href="#DejaVuSans-119"/>
      <use x="562.886719" xlink:href="#DejaVuSans-101"/>
      <use x="624.410156" xlink:href="#DejaVuSans-101"/>
      <use x="685.933594" xlink:href="#DejaVuSans-107"/>
      <use x="743.84375" xlink:href="#DejaVuSans-108"/>
      <use x="771.626953" xlink:href="#DejaVuSans-121"/>
      <use x="830.806641" xlink:href="#DejaVuSans-32"/>
      <use x="862.59375" xlink:href="#DejaVuSans-105"/>
      <use x="890.376953" xlink:href="#DejaVuSans-110"/>
      <use x="953.755859" xlink:href="#DejaVuSans-99"/>
      <use x="1008.736328" xlink:href="#DejaVuSans-105"/>
      <use x="1036.519531" xlink:href="#DejaVuSans-100"/>
      <use x="1099.996094" xlink:href="#DejaVuSans-101"/>
      <use x="1161.519531" xlink:href="#DejaVuSans-110"/>
      <use x="1224.898438" xlink:href="#DejaVuSans-116"/>
      <use x="1264.107422" xlink:href="#DejaVuSans-97"/>
      <use x="1325.386719" xlink:href="#DejaVuSans-108"/>
      <use x="1353.169922" xlink:href="#DejaVuSans-32"/>
      <use x="1384.957031" xlink:href="#DejaVuSans-99"/>
      <use x="1439.9375" xlink:href="#DejaVuSans-97"/>
      <use x="1501.216797" xlink:href="#DejaVuSans-115"/>
      <use x="1553.316406" xlink:href="#DejaVuSans-101"/>
      <use x="1614.839844" xlink:href="#DejaVuSans-115"/>
     </g>
    </g>
   </g>
   <g id="line2d_22">
    <path clip-path="url(#pca97ff476c)" d="M 281.723437 139.930775 
L 295.673437 174.051725 
L 309.623437 175.729531 
L 323.573437 137.884692 
L 337.523438 88.055744 
L 351.473437 149.917544 
L 365.423437 131.507679 
L 379.373437 131.561037 
L 504.923437 175.527143 
L 518.873437 148.105231 
L 532.823437 146.318865 
L 546.773438 153.192956 
L 560.723437 143.854058 
L 574.673437 142.819234 
L 588.623437 132.49952 
L 602.573437 144.636835 
L 616.523438 155.403619 
L 672.323437 177.971612 
L 686.273438 143.905046 
L 700.223437 145.55433 
L 714.173437 154.3591 
L 728.123437 150.233706 
" style="fill:none;stroke:#0000e8;stroke-linecap:square;stroke-width:1.5;"/>
    <defs>
     <path d="M 0 3 
C 0.795609 3 1.55874 2.683901 2.12132 2.12132 
C 2.683901 1.55874 3 0.795609 3 0 
C 3 -0.795609 2.683901 -1.55874 2.12132 -2.12132 
C 1.55874 -2.683901 0.795609 -3 0 -3 
C -0.795609 -3 -1.55874 -2.683901 -2.12132 -2.12132 
C -2.683901 -1.55874 -3 -0.795609 -3 0 
C -3 0.795609 -2.683901 1.55874 -2.12132 2.12132 
C -1.55874 2.683901 -0.795609 3 0 3 
z
" id="m238a4a7dc9" style="stroke:#0000e8;"/>
    </defs>
    <g clip-path="url(#pca97ff476c)">
     <use style="fill:#0000e8;stroke:#0000e8;" x="281.723437" xlink:href="#m238a4a7dc9" y="139.930775"/>
     <use style="fill:#0000e8;stroke:#0000e8;" x="295.673437" xlink:href="#m238a4a7dc9" y="174.051725"/>
     <use style="fill:#0000e8;stroke:#0000e8;" x="309.623437" xlink:href="#m238a4a7dc9" y="175.729531"/>
     <use style="fill:#0000e8;stroke:#0000e8;" x="323.573437" xlink:href="#m238a4a7dc9" y="137.884692"/>
     <use style="fill:#0000e8;stroke:#0000e8;" x="337.523438" xlink:href="#m238a4a7dc9" y="88.055744"/>
     <use style="fill:#0000e8;stroke:#0000e8;" x="351.473437" xlink:href="#m238a4a7dc9" y="149.917544"/>
     <use style="fill:#0000e8;stroke:#0000e8;" x="365.423437" xlink:href="#m238a4a7dc9" y="131.507679"/>
     <use style="fill:#0000e8;stroke:#0000e8;" x="379.373437" xlink:href="#m238a4a7dc9" y="131.561037"/>
     <use style="fill:#0000e8;stroke:#0000e8;" x="504.923437" xlink:href="#m238a4a7dc9" y="175.527143"/>
     <use style="fill:#0000e8;stroke:#0000e8;" x="518.873437" xlink:href="#m238a4a7dc9" y="148.105231"/>
     <use style="fill:#0000e8;stroke:#0000e8;" x="532.823437" xlink:href="#m238a4a7dc9" y="146.318865"/>
     <use style="fill:#0000e8;stroke:#0000e8;" x="546.773438" xlink:href="#m238a4a7dc9" y="153.192956"/>
     <use style="fill:#0000e8;stroke:#0000e8;" x="560.723437" xlink:href="#m238a4a7dc9" y="143.854058"/>
     <use style="fill:#0000e8;stroke:#0000e8;" x="574.673437" xlink:href="#m238a4a7dc9" y="142.819234"/>
     <use style="fill:#0000e8;stroke:#0000e8;" x="588.623437" xlink:href="#m238a4a7dc9" y="132.49952"/>
     <use style="fill:#0000e8;stroke:#0000e8;" x="602.573437" xlink:href="#m238a4a7dc9" y="144.636835"/>
     <use style="fill:#0000e8;stroke:#0000e8;" x="616.523438" xlink:href="#m238a4a7dc9" y="155.403619"/>
     <use style="fill:#0000e8;stroke:#0000e8;" x="672.323437" xlink:href="#m238a4a7dc9" y="177.971612"/>
     <use style="fill:#0000e8;stroke:#0000e8;" x="686.273438" xlink:href="#m238a4a7dc9" y="143.905046"/>
     <use style="fill:#0000e8;stroke:#0000e8;" x="700.223437" xlink:href="#m238a4a7dc9" y="145.55433"/>
     <use style="fill:#0000e8;stroke:#0000e8;" x="714.173437" xlink:href="#m238a4a7dc9" y="154.3591"/>
     <use style="fill:#0000e8;stroke:#0000e8;" x="728.123437" xlink:href="#m238a4a7dc9" y="150.233706"/>
    </g>
   </g>
   <g id="line2d_23">
    <path clip-path="url(#pca97ff476c)" d="M 267.773438 155.11345 
L 281.723437 206.98025 
L 295.673437 198.143174 
L 309.623437 137.399951 
L 323.573437 127.898322 
L 337.523438 128.324788 
L 351.473437 171.706133 
L 365.423437 139.897649 
L 379.373437 132.965809 
L 393.323437 171.657447 
L 407.273438 137.21109 
L 421.223437 177.261903 
L 435.173437 221.3996 
L 490.973437 194.752733 
L 504.923437 166.749577 
L 518.873437 156.850767 
L 532.823437 153.941508 
L 546.773438 169.042229 
L 560.723437 157.782163 
L 574.673437 160.097352 
L 588.623437 146.689142 
L 602.573437 156.322195 
L 616.523438 170.71242 
L 630.473437 223.203712 
L 644.423437 238.588858 
L 686.273438 151.75234 
L 700.223437 140.892126 
L 714.173437 148.605801 
L 728.123437 136.624145 
" style="fill:none;stroke:#56ffa0;stroke-linecap:square;stroke-width:1.5;"/>
    <defs>
     <path d="M 0 3 
C 0.795609 3 1.55874 2.683901 2.12132 2.12132 
C 2.683901 1.55874 3 0.795609 3 0 
C 3 -0.795609 2.683901 -1.55874 2.12132 -2.12132 
C 1.55874 -2.683901 0.795609 -3 0 -3 
C -0.795609 -3 -1.55874 -2.683901 -2.12132 -2.12132 
C -2.683901 -1.55874 -3 -0.795609 -3 0 
C -3 0.795609 -2.683901 1.55874 -2.12132 2.12132 
C -1.55874 2.683901 -0.795609 3 0 3 
z
" id="m3088ca7486" style="stroke:#56ffa0;"/>
    </defs>
    <g clip-path="url(#pca97ff476c)">
     <use style="fill:#56ffa0;stroke:#56ffa0;" x="267.773438" xlink:href="#m3088ca7486" y="155.11345"/>
     <use style="fill:#56ffa0;stroke:#56ffa0;" x="281.723437" xlink:href="#m3088ca7486" y="206.98025"/>
     <use style="fill:#56ffa0;stroke:#56ffa0;" x="295.673437" xlink:href="#m3088ca7486" y="198.143174"/>
     <use style="fill:#56ffa0;stroke:#56ffa0;" x="309.623437" xlink:href="#m3088ca7486" y="137.399951"/>
     <use style="fill:#56ffa0;stroke:#56ffa0;" x="323.573437" xlink:href="#m3088ca7486" y="127.898322"/>
     <use style="fill:#56ffa0;stroke:#56ffa0;" x="337.523438" xlink:href="#m3088ca7486" y="128.324788"/>
     <use style="fill:#56ffa0;stroke:#56ffa0;" x="351.473437" xlink:href="#m3088ca7486" y="171.706133"/>
     <use style="fill:#56ffa0;stroke:#56ffa0;" x="365.423437" xlink:href="#m3088ca7486" y="139.897649"/>
     <use style="fill:#56ffa0;stroke:#56ffa0;" x="379.373437" xlink:href="#m3088ca7486" y="132.965809"/>
     <use style="fill:#56ffa0;stroke:#56ffa0;" x="393.323437" xlink:href="#m3088ca7486" y="171.657447"/>
     <use style="fill:#56ffa0;stroke:#56ffa0;" x="407.273438" xlink:href="#m3088ca7486" y="137.21109"/>
     <use style="fill:#56ffa0;stroke:#56ffa0;" x="421.223437" xlink:href="#m3088ca7486" y="177.261903"/>
     <use style="fill:#56ffa0;stroke:#56ffa0;" x="435.173437" xlink:href="#m3088ca7486" y="221.3996"/>
     <use style="fill:#56ffa0;stroke:#56ffa0;" x="490.973437" xlink:href="#m3088ca7486" y="194.752733"/>
     <use style="fill:#56ffa0;stroke:#56ffa0;" x="504.923437" xlink:href="#m3088ca7486" y="166.749577"/>
     <use style="fill:#56ffa0;stroke:#56ffa0;" x="518.873437" xlink:href="#m3088ca7486" y="156.850767"/>
     <use style="fill:#56ffa0;stroke:#56ffa0;" x="532.823437" xlink:href="#m3088ca7486" y="153.941508"/>
     <use style="fill:#56ffa0;stroke:#56ffa0;" x="546.773438" xlink:href="#m3088ca7486" y="169.042229"/>
     <use style="fill:#56ffa0;stroke:#56ffa0;" x="560.723437" xlink:href="#m3088ca7486" y="157.782163"/>
     <use style="fill:#56ffa0;stroke:#56ffa0;" x="574.673437" xlink:href="#m3088ca7486" y="160.097352"/>
     <use style="fill:#56ffa0;stroke:#56ffa0;" x="588.623437" xlink:href="#m3088ca7486" y="146.689142"/>
     <use style="fill:#56ffa0;stroke:#56ffa0;" x="602.573437" xlink:href="#m3088ca7486" y="156.322195"/>
     <use style="fill:#56ffa0;stroke:#56ffa0;" x="616.523438" xlink:href="#m3088ca7486" y="170.71242"/>
     <use style="fill:#56ffa0;stroke:#56ffa0;" x="630.473437" xlink:href="#m3088ca7486" y="223.203712"/>
     <use style="fill:#56ffa0;stroke:#56ffa0;" x="644.423437" xlink:href="#m3088ca7486" y="238.588858"/>
     <use style="fill:#56ffa0;stroke:#56ffa0;" x="686.273438" xlink:href="#m3088ca7486" y="151.75234"/>
     <use style="fill:#56ffa0;stroke:#56ffa0;" x="700.223437" xlink:href="#m3088ca7486" y="140.892126"/>
     <use style="fill:#56ffa0;stroke:#56ffa0;" x="714.173437" xlink:href="#m3088ca7486" y="148.605801"/>
     <use style="fill:#56ffa0;stroke:#56ffa0;" x="728.123437" xlink:href="#m3088ca7486" y="136.624145"/>
    </g>
   </g>
   <g id="line2d_24">
    <path clip-path="url(#pca97ff476c)" d="M 532.823437 101.119153 
L 560.723437 150.665561 
L 574.673437 72.775161 
L 602.573437 102.910467 
" style="fill:none;stroke:#ffab00;stroke-linecap:square;stroke-width:1.5;"/>
    <defs>
     <path d="M 0 3 
C 0.795609 3 1.55874 2.683901 2.12132 2.12132 
C 2.683901 1.55874 3 0.795609 3 0 
C 3 -0.795609 2.683901 -1.55874 2.12132 -2.12132 
C 1.55874 -2.683901 0.795609 -3 0 -3 
C -0.795609 -3 -1.55874 -2.683901 -2.12132 -2.12132 
C -2.683901 -1.55874 -3 -0.795609 -3 0 
C -3 0.795609 -2.683901 1.55874 -2.12132 2.12132 
C -1.55874 2.683901 -0.795609 3 0 3 
z
" id="m83f842e195" style="stroke:#ffab00;"/>
    </defs>
    <g clip-path="url(#pca97ff476c)">
     <use style="fill:#ffab00;stroke:#ffab00;" x="532.823437" xlink:href="#m83f842e195" y="101.119153"/>
     <use style="fill:#ffab00;stroke:#ffab00;" x="560.723437" xlink:href="#m83f842e195" y="150.665561"/>
     <use style="fill:#ffab00;stroke:#ffab00;" x="574.673437" xlink:href="#m83f842e195" y="72.775161"/>
     <use style="fill:#ffab00;stroke:#ffab00;" x="602.573437" xlink:href="#m83f842e195" y="102.910467"/>
    </g>
   </g>
   <g id="line2d_25">
    <path clip-path="url(#pca97ff476c)" d="M 518.873437 167.449904 
L 532.823437 164.049406 
L 546.773438 171.718546 
L 560.723437 177.480783 
L 574.673437 182.566679 
L 588.623437 188.639942 
L 602.573437 185.878226 
L 616.523438 195.880625 
L 630.473437 211.178951 
L 644.423437 230.341244 
L 658.373437 213.791943 
L 700.223437 176.383695 
L 714.173437 170.417013 
L 728.123437 159.396257 
" style="fill:none;stroke:#ff5500;stroke-linecap:square;stroke-width:1.5;"/>
    <defs>
     <path d="M 0 3 
C 0.795609 3 1.55874 2.683901 2.12132 2.12132 
C 2.683901 1.55874 3 0.795609 3 0 
C 3 -0.795609 2.683901 -1.55874 2.12132 -2.12132 
C 1.55874 -2.683901 0.795609 -3 0 -3 
C -0.795609 -3 -1.55874 -2.683901 -2.12132 -2.12132 
C -2.683901 -1.55874 -3 -0.795609 -3 0 
C -3 0.795609 -2.683901 1.55874 -2.12132 2.12132 
C -1.55874 2.683901 -0.795609 3 0 3 
z
" id="m1dcfeaf242" style="stroke:#ff5500;"/>
    </defs>
    <g clip-path="url(#pca97ff476c)">
     <use style="fill:#ff5500;stroke:#ff5500;" x="518.873437" xlink:href="#m1dcfeaf242" y="167.449904"/>
     <use style="fill:#ff5500;stroke:#ff5500;" x="532.823437" xlink:href="#m1dcfeaf242" y="164.049406"/>
     <use style="fill:#ff5500;stroke:#ff5500;" x="546.773438" xlink:href="#m1dcfeaf242" y="171.718546"/>
     <use style="fill:#ff5500;stroke:#ff5500;" x="560.723437" xlink:href="#m1dcfeaf242" y="177.480783"/>
     <use style="fill:#ff5500;stroke:#ff5500;" x="574.673437" xlink:href="#m1dcfeaf242" y="182.566679"/>
     <use style="fill:#ff5500;stroke:#ff5500;" x="588.623437" xlink:href="#m1dcfeaf242" y="188.639942"/>
     <use style="fill:#ff5500;stroke:#ff5500;" x="602.573437" xlink:href="#m1dcfeaf242" y="185.878226"/>
     <use style="fill:#ff5500;stroke:#ff5500;" x="616.523438" xlink:href="#m1dcfeaf242" y="195.880625"/>
     <use style="fill:#ff5500;stroke:#ff5500;" x="630.473437" xlink:href="#m1dcfeaf242" y="211.178951"/>
     <use style="fill:#ff5500;stroke:#ff5500;" x="644.423437" xlink:href="#m1dcfeaf242" y="230.341244"/>
     <use style="fill:#ff5500;stroke:#ff5500;" x="658.373437" xlink:href="#m1dcfeaf242" y="213.791943"/>
     <use style="fill:#ff5500;stroke:#ff5500;" x="700.223437" xlink:href="#m1dcfeaf242" y="176.383695"/>
     <use style="fill:#ff5500;stroke:#ff5500;" x="714.173437" xlink:href="#m1dcfeaf242" y="170.417013"/>
     <use style="fill:#ff5500;stroke:#ff5500;" x="728.123437" xlink:href="#m1dcfeaf242" y="159.396257"/>
    </g>
   </g>
   <g id="patch_3">
    <path d="M 58.523438 316.078125 
L 58.523438 22.318125 
" style="fill:none;stroke:#000000;stroke-linecap:square;stroke-linejoin:miter;stroke-width:0.8;"/>
   </g>
   <g id="patch_4">
    <path d="M 728.123438 316.078125 
L 728.123438 22.318125 
" style="fill:none;stroke:#000000;stroke-linecap:square;stroke-linejoin:miter;stroke-width:0.8;"/>
   </g>
   <g id="patch_5">
    <path d="M 58.523438 316.078125 
L 728.123437 316.078125 
" style="fill:none;stroke:#000000;stroke-linecap:square;stroke-linejoin:miter;stroke-width:0.8;"/>
   </g>
   <g id="patch_6">
    <path d="M 58.523438 22.318125 
L 728.123437 22.318125 
" style="fill:none;stroke:#000000;stroke-linecap:square;stroke-linejoin:miter;stroke-width:0.8;"/>
   </g>
   <g id="text_24">
    <!-- ensemble models -->
    <defs>
     <path d="M 52 44.1875 
Q 55.375 50.25 60.0625 53.125 
Q 64.75 56 71.09375 56 
Q 79.640625 56 84.28125 50.015625 
Q 88.921875 44.046875 88.921875 33.015625 
L 88.921875 0 
L 79.890625 0 
L 79.890625 32.71875 
Q 79.890625 40.578125 77.09375 44.375 
Q 74.3125 48.1875 68.609375 48.1875 
Q 61.625 48.1875 57.5625 43.546875 
Q 53.515625 38.921875 53.515625 30.90625 
L 53.515625 0 
L 44.484375 0 
L 44.484375 32.71875 
Q 44.484375 40.625 41.703125 44.40625 
Q 38.921875 48.1875 33.109375 48.1875 
Q 26.21875 48.1875 22.15625 43.53125 
Q 18.109375 38.875 18.109375 30.90625 
L 18.109375 0 
L 9.078125 0 
L 9.078125 54.6875 
L 18.109375 54.6875 
L 18.109375 46.1875 
Q 21.1875 51.21875 25.484375 53.609375 
Q 29.78125 56 35.6875 56 
Q 41.65625 56 45.828125 52.96875 
Q 50 49.953125 52 44.1875 
z
" id="DejaVuSans-109"/>
    </defs>
    <g transform="translate(340.283437 16.318125)scale(0.12 -0.12)">
     <use xlink:href="#DejaVuSans-101"/>
     <use x="61.523438" xlink:href="#DejaVuSans-110"/>
     <use x="124.902344" xlink:href="#DejaVuSans-115"/>
     <use x="177.001953" xlink:href="#DejaVuSans-101"/>
     <use x="238.525391" xlink:href="#DejaVuSans-109"/>
     <use x="335.9375" xlink:href="#DejaVuSans-98"/>
     <use x="399.414062" xlink:href="#DejaVuSans-108"/>
     <use x="427.197266" xlink:href="#DejaVuSans-101"/>
     <use x="488.720703" xlink:href="#DejaVuSans-32"/>
     <use x="520.507812" xlink:href="#DejaVuSans-109"/>
     <use x="617.919922" xlink:href="#DejaVuSans-111"/>
     <use x="679.101562" xlink:href="#DejaVuSans-100"/>
     <use x="742.578125" xlink:href="#DejaVuSans-101"/>
     <use x="804.101562" xlink:href="#DejaVuSans-108"/>
     <use x="831.884766" xlink:href="#DejaVuSans-115"/>
    </g>
   </g>
   <g id="legend_1">
    <g id="patch_7">
     <path d="M 756.907438 316.078125 
L 892.343375 316.078125 
Q 894.343375 316.078125 894.343375 314.078125 
L 894.343375 244.365625 
Q 894.343375 242.365625 892.343375 242.365625 
L 756.907438 242.365625 
Q 754.907438 242.365625 754.907438 244.365625 
L 754.907438 314.078125 
Q 754.907438 316.078125 756.907438 316.078125 
z
" style="fill:#ffffff;opacity:0.8;stroke:#cccccc;stroke-linejoin:miter;"/>
    </g>
    <g id="line2d_26">
     <path d="M 758.907438 250.464062 
L 778.907438 250.464062 
" style="fill:none;stroke:#0000e8;stroke-linecap:square;stroke-width:1.5;"/>
    </g>
    <g id="line2d_27">
     <g>
      <use style="fill:#0000e8;stroke:#0000e8;" x="768.907438" xlink:href="#m238a4a7dc9" y="250.464062"/>
     </g>
    </g>
    <g id="text_25">
     <!-- COVIDhub:ensemble -->
     <defs>
      <path d="M 64.40625 67.28125 
L 64.40625 56.890625 
Q 59.421875 61.53125 53.78125 63.8125 
Q 48.140625 66.109375 41.796875 66.109375 
Q 29.296875 66.109375 22.65625 58.46875 
Q 16.015625 50.828125 16.015625 36.375 
Q 16.015625 21.96875 22.65625 14.328125 
Q 29.296875 6.6875 41.796875 6.6875 
Q 48.140625 6.6875 53.78125 8.984375 
Q 59.421875 11.28125 64.40625 15.921875 
L 64.40625 5.609375 
Q 59.234375 2.09375 53.4375 0.328125 
Q 47.65625 -1.421875 41.21875 -1.421875 
Q 24.65625 -1.421875 15.125 8.703125 
Q 5.609375 18.84375 5.609375 36.375 
Q 5.609375 53.953125 15.125 64.078125 
Q 24.65625 74.21875 41.21875 74.21875 
Q 47.75 74.21875 53.53125 72.484375 
Q 59.328125 70.75 64.40625 67.28125 
z
" id="DejaVuSans-67"/>
      <path d="M 28.609375 0 
L 0.78125 72.90625 
L 11.078125 72.90625 
L 34.1875 11.53125 
L 57.328125 72.90625 
L 67.578125 72.90625 
L 39.796875 0 
z
" id="DejaVuSans-86"/>
      <path d="M 9.8125 72.90625 
L 19.671875 72.90625 
L 19.671875 0 
L 9.8125 0 
z
" id="DejaVuSans-73"/>
      <path d="M 54.890625 33.015625 
L 54.890625 0 
L 45.90625 0 
L 45.90625 32.71875 
Q 45.90625 40.484375 42.875 44.328125 
Q 39.84375 48.1875 33.796875 48.1875 
Q 26.515625 48.1875 22.3125 43.546875 
Q 18.109375 38.921875 18.109375 30.90625 
L 18.109375 0 
L 9.078125 0 
L 9.078125 75.984375 
L 18.109375 75.984375 
L 18.109375 46.1875 
Q 21.34375 51.125 25.703125 53.5625 
Q 30.078125 56 35.796875 56 
Q 45.21875 56 50.046875 50.171875 
Q 54.890625 44.34375 54.890625 33.015625 
z
" id="DejaVuSans-104"/>
      <path d="M 11.71875 12.40625 
L 22.015625 12.40625 
L 22.015625 0 
L 11.71875 0 
z
M 11.71875 51.703125 
L 22.015625 51.703125 
L 22.015625 39.3125 
L 11.71875 39.3125 
z
" id="DejaVuSans-58"/>
     </defs>
     <g transform="translate(786.907438 253.964062)scale(0.1 -0.1)">
      <use xlink:href="#DejaVuSans-67"/>
      <use x="69.824219" xlink:href="#DejaVuSans-79"/>
      <use x="146.785156" xlink:href="#DejaVuSans-86"/>
      <use x="215.193359" xlink:href="#DejaVuSans-73"/>
      <use x="244.685547" xlink:href="#DejaVuSans-68"/>
      <use x="321.6875" xlink:href="#DejaVuSans-104"/>
      <use x="385.066406" xlink:href="#DejaVuSans-117"/>
      <use x="448.445312" xlink:href="#DejaVuSans-98"/>
      <use x="511.921875" xlink:href="#DejaVuSans-58"/>
      <use x="545.613281" xlink:href="#DejaVuSans-101"/>
      <use x="607.136719" xlink:href="#DejaVuSans-110"/>
      <use x="670.515625" xlink:href="#DejaVuSans-115"/>
      <use x="722.615234" xlink:href="#DejaVuSans-101"/>
      <use x="784.138672" xlink:href="#DejaVuSans-109"/>
      <use x="881.550781" xlink:href="#DejaVuSans-98"/>
      <use x="945.027344" xlink:href="#DejaVuSans-108"/>
      <use x="972.810547" xlink:href="#DejaVuSans-101"/>
     </g>
    </g>
    <g id="line2d_28">
     <path d="M 758.907438 269.142187 
L 778.907438 269.142187 
" style="fill:none;stroke:#56ffa0;stroke-linecap:square;stroke-width:1.5;"/>
    </g>
    <g id="line2d_29">
     <g>
      <use style="fill:#56ffa0;stroke:#56ffa0;" x="768.907438" xlink:href="#m3088ca7486" y="269.142187"/>
     </g>
    </g>
    <g id="text_26">
     <!-- LNQ:ens1 -->
     <defs>
      <path d="M 9.8125 72.90625 
L 19.671875 72.90625 
L 19.671875 8.296875 
L 55.171875 8.296875 
L 55.171875 0 
L 9.8125 0 
z
" id="DejaVuSans-76"/>
      <path d="M 39.40625 66.21875 
Q 28.65625 66.21875 22.328125 58.203125 
Q 16.015625 50.203125 16.015625 36.375 
Q 16.015625 22.609375 22.328125 14.59375 
Q 28.65625 6.59375 39.40625 6.59375 
Q 50.140625 6.59375 56.421875 14.59375 
Q 62.703125 22.609375 62.703125 36.375 
Q 62.703125 50.203125 56.421875 58.203125 
Q 50.140625 66.21875 39.40625 66.21875 
z
M 53.21875 1.3125 
L 66.21875 -12.890625 
L 54.296875 -12.890625 
L 43.5 -1.21875 
Q 41.890625 -1.3125 41.03125 -1.359375 
Q 40.1875 -1.421875 39.40625 -1.421875 
Q 24.03125 -1.421875 14.8125 8.859375 
Q 5.609375 19.140625 5.609375 36.375 
Q 5.609375 53.65625 14.8125 63.9375 
Q 24.03125 74.21875 39.40625 74.21875 
Q 54.734375 74.21875 63.90625 63.9375 
Q 73.09375 53.65625 73.09375 36.375 
Q 73.09375 23.6875 67.984375 14.640625 
Q 62.890625 5.609375 53.21875 1.3125 
z
" id="DejaVuSans-81"/>
     </defs>
     <g transform="translate(786.907438 272.642187)scale(0.1 -0.1)">
      <use xlink:href="#DejaVuSans-76"/>
      <use x="55.712891" xlink:href="#DejaVuSans-78"/>
      <use x="130.517578" xlink:href="#DejaVuSans-81"/>
      <use x="209.228516" xlink:href="#DejaVuSans-58"/>
      <use x="242.919922" xlink:href="#DejaVuSans-101"/>
      <use x="304.443359" xlink:href="#DejaVuSans-110"/>
      <use x="367.822266" xlink:href="#DejaVuSans-115"/>
      <use x="419.921875" xlink:href="#DejaVuSans-49"/>
     </g>
    </g>
    <g id="line2d_30">
     <path d="M 758.907438 287.820312 
L 778.907438 287.820312 
" style="fill:none;stroke:#ffab00;stroke-linecap:square;stroke-width:1.5;"/>
    </g>
    <g id="line2d_31">
     <g>
      <use style="fill:#ffab00;stroke:#ffab00;" x="768.907438" xlink:href="#m83f842e195" y="287.820312"/>
     </g>
    </g>
    <g id="text_27">
     <!-- UCF:AEM -->
     <defs>
      <path d="M 8.6875 72.90625 
L 18.609375 72.90625 
L 18.609375 28.609375 
Q 18.609375 16.890625 22.84375 11.734375 
Q 27.09375 6.59375 36.625 6.59375 
Q 46.09375 6.59375 50.34375 11.734375 
Q 54.59375 16.890625 54.59375 28.609375 
L 54.59375 72.90625 
L 64.5 72.90625 
L 64.5 27.390625 
Q 64.5 13.140625 57.4375 5.859375 
Q 50.390625 -1.421875 36.625 -1.421875 
Q 22.796875 -1.421875 15.734375 5.859375 
Q 8.6875 13.140625 8.6875 27.390625 
z
" id="DejaVuSans-85"/>
     </defs>
     <g transform="translate(786.907438 291.320312)scale(0.1 -0.1)">
      <use xlink:href="#DejaVuSans-85"/>
      <use x="73.193359" xlink:href="#DejaVuSans-67"/>
      <use x="143.017578" xlink:href="#DejaVuSans-70"/>
      <use x="192.787109" xlink:href="#DejaVuSans-58"/>
      <use x="226.478516" xlink:href="#DejaVuSans-65"/>
      <use x="294.886719" xlink:href="#DejaVuSans-69"/>
      <use x="358.070312" xlink:href="#DejaVuSans-77"/>
     </g>
    </g>
    <g id="line2d_32">
     <path d="M 758.907438 306.498437 
L 778.907438 306.498437 
" style="fill:none;stroke:#ff5500;stroke-linecap:square;stroke-width:1.5;"/>
    </g>
    <g id="line2d_33">
     <g>
      <use style="fill:#ff5500;stroke:#ff5500;" x="768.907438" xlink:href="#m1dcfeaf242" y="306.498437"/>
     </g>
    </g>
    <g id="text_28">
     <!-- UVA:Ensemble -->
     <g transform="translate(786.907438 309.998437)scale(0.1 -0.1)">
      <use xlink:href="#DejaVuSans-85"/>
      <use x="73.193359" xlink:href="#DejaVuSans-86"/>
      <use x="135.226562" xlink:href="#DejaVuSans-65"/>
      <use x="201.884766" xlink:href="#DejaVuSans-58"/>
      <use x="235.576172" xlink:href="#DejaVuSans-69"/>
      <use x="298.759766" xlink:href="#DejaVuSans-110"/>
      <use x="362.138672" xlink:href="#DejaVuSans-115"/>
      <use x="414.238281" xlink:href="#DejaVuSans-101"/>
      <use x="475.761719" xlink:href="#DejaVuSans-109"/>
      <use x="573.173828" xlink:href="#DejaVuSans-98"/>
      <use x="636.650391" xlink:href="#DejaVuSans-108"/>
      <use x="664.433594" xlink:href="#DejaVuSans-101"/>
     </g>
    </g>
   </g>
  </g>
 </g>
 <defs>
  <clipPath id="pca97ff476c">
   <rect height="293.76" width="669.6" x="58.523438" y="22.318125"/>
  </clipPath>
 </defs>
</svg>
