<?xml version="1.0" encoding="utf-8" standalone="no"?>
<!DOCTYPE svg PUBLIC "-//W3C//DTD SVG 1.1//EN"
  "http://www.w3.org/Graphics/SVG/1.1/DTD/svg11.dtd">
<!-- Created with matplotlib (https://matplotlib.org/) -->
<svg height="376.664358pt" version="1.1" viewBox="0 0 908.085562 376.664358" width="908.085562pt" xmlns="http://www.w3.org/2000/svg" xmlns:xlink="http://www.w3.org/1999/xlink">
 <defs>
  <style type="text/css">
*{stroke-linecap:butt;stroke-linejoin:round;}
  </style>
 </defs>
 <g id="figure_1">
  <g id="patch_1">
   <path d="M 0 376.664358 
L 908.085562 376.664358 
L 908.085562 0 
L 0 0 
z
" style="fill:#ffffff;"/>
  </g>
  <g id="axes_1">
   <g id="patch_2">
    <path d="M 48.982813 316.078125 
L 718.582813 316.078125 
L 718.582813 22.318125 
L 48.982813 22.318125 
z
" style="fill:#ffffff;"/>
   </g>
   <g id="matplotlib.axis_1">
    <g id="xtick_1">
     <g id="line2d_1">
      <defs>
       <path d="M 0 0 
L 0 3.5 
" id="m2f00ca2d0b" style="stroke:#000000;stroke-width:0.8;"/>
      </defs>
      <g>
       <use style="stroke:#000000;stroke-width:0.8;" x="48.982813" xlink:href="#m2f00ca2d0b" y="316.078125"/>
      </g>
     </g>
     <g id="text_1">
      <!-- Apr 25 -->
      <defs>
       <path d="M 34.1875 63.1875 
L 20.796875 26.90625 
L 47.609375 26.90625 
z
M 28.609375 72.90625 
L 39.796875 72.90625 
L 67.578125 0 
L 57.328125 0 
L 50.6875 18.703125 
L 17.828125 18.703125 
L 11.1875 0 
L 0.78125 0 
z
" id="DejaVuSans-65"/>
       <path d="M 18.109375 8.203125 
L 18.109375 -20.796875 
L 9.078125 -20.796875 
L 9.078125 54.6875 
L 18.109375 54.6875 
L 18.109375 46.390625 
Q 20.953125 51.265625 25.265625 53.625 
Q 29.59375 56 35.59375 56 
Q 45.5625 56 51.78125 48.09375 
Q 58.015625 40.1875 58.015625 27.296875 
Q 58.015625 14.40625 51.78125 6.484375 
Q 45.5625 -1.421875 35.59375 -1.421875 
Q 29.59375 -1.421875 25.265625 0.953125 
Q 20.953125 3.328125 18.109375 8.203125 
z
M 48.6875 27.296875 
Q 48.6875 37.203125 44.609375 42.84375 
Q 40.53125 48.484375 33.40625 48.484375 
Q 26.265625 48.484375 22.1875 42.84375 
Q 18.109375 37.203125 18.109375 27.296875 
Q 18.109375 17.390625 22.1875 11.75 
Q 26.265625 6.109375 33.40625 6.109375 
Q 40.53125 6.109375 44.609375 11.75 
Q 48.6875 17.390625 48.6875 27.296875 
z
" id="DejaVuSans-112"/>
       <path d="M 41.109375 46.296875 
Q 39.59375 47.171875 37.8125 47.578125 
Q 36.03125 48 33.890625 48 
Q 26.265625 48 22.1875 43.046875 
Q 18.109375 38.09375 18.109375 28.8125 
L 18.109375 0 
L 9.078125 0 
L 9.078125 54.6875 
L 18.109375 54.6875 
L 18.109375 46.1875 
Q 20.953125 51.171875 25.484375 53.578125 
Q 30.03125 56 36.53125 56 
Q 37.453125 56 38.578125 55.875 
Q 39.703125 55.765625 41.0625 55.515625 
z
" id="DejaVuSans-114"/>
       <path id="DejaVuSans-32"/>
       <path d="M 19.1875 8.296875 
L 53.609375 8.296875 
L 53.609375 0 
L 7.328125 0 
L 7.328125 8.296875 
Q 12.9375 14.109375 22.625 23.890625 
Q 32.328125 33.6875 34.8125 36.53125 
Q 39.546875 41.84375 41.421875 45.53125 
Q 43.3125 49.21875 43.3125 52.78125 
Q 43.3125 58.59375 39.234375 62.25 
Q 35.15625 65.921875 28.609375 65.921875 
Q 23.96875 65.921875 18.8125 64.3125 
Q 13.671875 62.703125 7.8125 59.421875 
L 7.8125 69.390625 
Q 13.765625 71.78125 18.9375 73 
Q 24.125 74.21875 28.421875 74.21875 
Q 39.75 74.21875 46.484375 68.546875 
Q 53.21875 62.890625 53.21875 53.421875 
Q 53.21875 48.921875 51.53125 44.890625 
Q 49.859375 40.875 45.40625 35.40625 
Q 44.1875 33.984375 37.640625 27.21875 
Q 31.109375 20.453125 19.1875 8.296875 
z
" id="DejaVuSans-50"/>
       <path d="M 10.796875 72.90625 
L 49.515625 72.90625 
L 49.515625 64.59375 
L 19.828125 64.59375 
L 19.828125 46.734375 
Q 21.96875 47.46875 24.109375 47.828125 
Q 26.265625 48.1875 28.421875 48.1875 
Q 40.625 48.1875 47.75 41.5 
Q 54.890625 34.8125 54.890625 23.390625 
Q 54.890625 11.625 47.5625 5.09375 
Q 40.234375 -1.421875 26.90625 -1.421875 
Q 22.3125 -1.421875 17.546875 -0.640625 
Q 12.796875 0.140625 7.71875 1.703125 
L 7.71875 11.625 
Q 12.109375 9.234375 16.796875 8.0625 
Q 21.484375 6.890625 26.703125 6.890625 
Q 35.15625 6.890625 40.078125 11.328125 
Q 45.015625 15.765625 45.015625 23.390625 
Q 45.015625 31 40.078125 35.4375 
Q 35.15625 39.890625 26.703125 39.890625 
Q 22.75 39.890625 18.8125 39.015625 
Q 14.890625 38.140625 10.796875 36.28125 
z
" id="DejaVuSans-53"/>
      </defs>
      <g transform="translate(24.034097 351.929187)rotate(-45)scale(0.1 -0.1)">
       <use xlink:href="#DejaVuSans-65"/>
       <use x="68.408203" xlink:href="#DejaVuSans-112"/>
       <use x="131.884766" xlink:href="#DejaVuSans-114"/>
       <use x="172.998047" xlink:href="#DejaVuSans-32"/>
       <use x="204.785156" xlink:href="#DejaVuSans-50"/>
       <use x="268.408203" xlink:href="#DejaVuSans-53"/>
      </g>
     </g>
    </g>
    <g id="xtick_2">
     <g id="line2d_2">
      <g>
       <use style="stroke:#000000;stroke-width:0.8;" x="115.942813" xlink:href="#m2f00ca2d0b" y="316.078125"/>
      </g>
     </g>
     <g id="text_2">
      <!-- May 23 -->
      <defs>
       <path d="M 9.8125 72.90625 
L 24.515625 72.90625 
L 43.109375 23.296875 
L 61.8125 72.90625 
L 76.515625 72.90625 
L 76.515625 0 
L 66.890625 0 
L 66.890625 64.015625 
L 48.09375 14.015625 
L 38.1875 14.015625 
L 19.390625 64.015625 
L 19.390625 0 
L 9.8125 0 
z
" id="DejaVuSans-77"/>
       <path d="M 34.28125 27.484375 
Q 23.390625 27.484375 19.1875 25 
Q 14.984375 22.515625 14.984375 16.5 
Q 14.984375 11.71875 18.140625 8.90625 
Q 21.296875 6.109375 26.703125 6.109375 
Q 34.1875 6.109375 38.703125 11.40625 
Q 43.21875 16.703125 43.21875 25.484375 
L 43.21875 27.484375 
z
M 52.203125 31.203125 
L 52.203125 0 
L 43.21875 0 
L 43.21875 8.296875 
Q 40.140625 3.328125 35.546875 0.953125 
Q 30.953125 -1.421875 24.3125 -1.421875 
Q 15.921875 -1.421875 10.953125 3.296875 
Q 6 8.015625 6 15.921875 
Q 6 25.140625 12.171875 29.828125 
Q 18.359375 34.515625 30.609375 34.515625 
L 43.21875 34.515625 
L 43.21875 35.40625 
Q 43.21875 41.609375 39.140625 45 
Q 35.0625 48.390625 27.6875 48.390625 
Q 23 48.390625 18.546875 47.265625 
Q 14.109375 46.140625 10.015625 43.890625 
L 10.015625 52.203125 
Q 14.9375 54.109375 19.578125 55.046875 
Q 24.21875 56 28.609375 56 
Q 40.484375 56 46.34375 49.84375 
Q 52.203125 43.703125 52.203125 31.203125 
z
" id="DejaVuSans-97"/>
       <path d="M 32.171875 -5.078125 
Q 28.375 -14.84375 24.75 -17.8125 
Q 21.140625 -20.796875 15.09375 -20.796875 
L 7.90625 -20.796875 
L 7.90625 -13.28125 
L 13.1875 -13.28125 
Q 16.890625 -13.28125 18.9375 -11.515625 
Q 21 -9.765625 23.484375 -3.21875 
L 25.09375 0.875 
L 2.984375 54.6875 
L 12.5 54.6875 
L 29.59375 11.921875 
L 46.6875 54.6875 
L 56.203125 54.6875 
z
" id="DejaVuSans-121"/>
       <path d="M 40.578125 39.3125 
Q 47.65625 37.796875 51.625 33 
Q 55.609375 28.21875 55.609375 21.1875 
Q 55.609375 10.40625 48.1875 4.484375 
Q 40.765625 -1.421875 27.09375 -1.421875 
Q 22.515625 -1.421875 17.65625 -0.515625 
Q 12.796875 0.390625 7.625 2.203125 
L 7.625 11.71875 
Q 11.71875 9.328125 16.59375 8.109375 
Q 21.484375 6.890625 26.8125 6.890625 
Q 36.078125 6.890625 40.9375 10.546875 
Q 45.796875 14.203125 45.796875 21.1875 
Q 45.796875 27.640625 41.28125 31.265625 
Q 36.765625 34.90625 28.71875 34.90625 
L 20.21875 34.90625 
L 20.21875 43.015625 
L 29.109375 43.015625 
Q 36.375 43.015625 40.234375 45.921875 
Q 44.09375 48.828125 44.09375 54.296875 
Q 44.09375 59.90625 40.109375 62.90625 
Q 36.140625 65.921875 28.71875 65.921875 
Q 24.65625 65.921875 20.015625 65.03125 
Q 15.375 64.15625 9.8125 62.3125 
L 9.8125 71.09375 
Q 15.4375 72.65625 20.34375 73.4375 
Q 25.25 74.21875 29.59375 74.21875 
Q 40.828125 74.21875 47.359375 69.109375 
Q 53.90625 64.015625 53.90625 55.328125 
Q 53.90625 49.265625 50.4375 45.09375 
Q 46.96875 40.921875 40.578125 39.3125 
z
" id="DejaVuSans-51"/>
      </defs>
      <g transform="translate(88.607611 354.315672)rotate(-45)scale(0.1 -0.1)">
       <use xlink:href="#DejaVuSans-77"/>
       <use x="86.279297" xlink:href="#DejaVuSans-97"/>
       <use x="147.558594" xlink:href="#DejaVuSans-121"/>
       <use x="206.738281" xlink:href="#DejaVuSans-32"/>
       <use x="238.525391" xlink:href="#DejaVuSans-50"/>
       <use x="302.148438" xlink:href="#DejaVuSans-51"/>
      </g>
     </g>
    </g>
    <g id="xtick_3">
     <g id="line2d_3">
      <g>
       <use style="stroke:#000000;stroke-width:0.8;" x="182.902813" xlink:href="#m2f00ca2d0b" y="316.078125"/>
      </g>
     </g>
     <g id="text_3">
      <!-- Jun 20 -->
      <defs>
       <path d="M 9.8125 72.90625 
L 19.671875 72.90625 
L 19.671875 5.078125 
Q 19.671875 -8.109375 14.671875 -14.0625 
Q 9.671875 -20.015625 -1.421875 -20.015625 
L -5.171875 -20.015625 
L -5.171875 -11.71875 
L -2.09375 -11.71875 
Q 4.4375 -11.71875 7.125 -8.046875 
Q 9.8125 -4.390625 9.8125 5.078125 
z
" id="DejaVuSans-74"/>
       <path d="M 8.5 21.578125 
L 8.5 54.6875 
L 17.484375 54.6875 
L 17.484375 21.921875 
Q 17.484375 14.15625 20.5 10.265625 
Q 23.53125 6.390625 29.59375 6.390625 
Q 36.859375 6.390625 41.078125 11.03125 
Q 45.3125 15.671875 45.3125 23.6875 
L 45.3125 54.6875 
L 54.296875 54.6875 
L 54.296875 0 
L 45.3125 0 
L 45.3125 8.40625 
Q 42.046875 3.421875 37.71875 1 
Q 33.40625 -1.421875 27.6875 -1.421875 
Q 18.265625 -1.421875 13.375 4.4375 
Q 8.5 10.296875 8.5 21.578125 
z
M 31.109375 56 
z
" id="DejaVuSans-117"/>
       <path d="M 54.890625 33.015625 
L 54.890625 0 
L 45.90625 0 
L 45.90625 32.71875 
Q 45.90625 40.484375 42.875 44.328125 
Q 39.84375 48.1875 33.796875 48.1875 
Q 26.515625 48.1875 22.3125 43.546875 
Q 18.109375 38.921875 18.109375 30.90625 
L 18.109375 0 
L 9.078125 0 
L 9.078125 54.6875 
L 18.109375 54.6875 
L 18.109375 46.1875 
Q 21.34375 51.125 25.703125 53.5625 
Q 30.078125 56 35.796875 56 
Q 45.21875 56 50.046875 50.171875 
Q 54.890625 44.34375 54.890625 33.015625 
z
" id="DejaVuSans-110"/>
       <path d="M 31.78125 66.40625 
Q 24.171875 66.40625 20.328125 58.90625 
Q 16.5 51.421875 16.5 36.375 
Q 16.5 21.390625 20.328125 13.890625 
Q 24.171875 6.390625 31.78125 6.390625 
Q 39.453125 6.390625 43.28125 13.890625 
Q 47.125 21.390625 47.125 36.375 
Q 47.125 51.421875 43.28125 58.90625 
Q 39.453125 66.40625 31.78125 66.40625 
z
M 31.78125 74.21875 
Q 44.046875 74.21875 50.515625 64.515625 
Q 56.984375 54.828125 56.984375 36.375 
Q 56.984375 17.96875 50.515625 8.265625 
Q 44.046875 -1.421875 31.78125 -1.421875 
Q 19.53125 -1.421875 13.0625 8.265625 
Q 6.59375 17.96875 6.59375 36.375 
Q 6.59375 54.828125 13.0625 64.515625 
Q 19.53125 74.21875 31.78125 74.21875 
z
" id="DejaVuSans-48"/>
      </defs>
      <g transform="translate(159.1385 350.744783)rotate(-45)scale(0.1 -0.1)">
       <use xlink:href="#DejaVuSans-74"/>
       <use x="29.492188" xlink:href="#DejaVuSans-117"/>
       <use x="92.871094" xlink:href="#DejaVuSans-110"/>
       <use x="156.25" xlink:href="#DejaVuSans-32"/>
       <use x="188.037109" xlink:href="#DejaVuSans-50"/>
       <use x="251.660156" xlink:href="#DejaVuSans-48"/>
      </g>
     </g>
    </g>
    <g id="xtick_4">
     <g id="line2d_4">
      <g>
       <use style="stroke:#000000;stroke-width:0.8;" x="249.862813" xlink:href="#m2f00ca2d0b" y="316.078125"/>
      </g>
     </g>
     <g id="text_4">
      <!-- Jul 18 -->
      <defs>
       <path d="M 9.421875 75.984375 
L 18.40625 75.984375 
L 18.40625 0 
L 9.421875 0 
z
" id="DejaVuSans-108"/>
       <path d="M 12.40625 8.296875 
L 28.515625 8.296875 
L 28.515625 63.921875 
L 10.984375 60.40625 
L 10.984375 69.390625 
L 28.421875 72.90625 
L 38.28125 72.90625 
L 38.28125 8.296875 
L 54.390625 8.296875 
L 54.390625 0 
L 12.40625 0 
z
" id="DejaVuSans-49"/>
       <path d="M 31.78125 34.625 
Q 24.75 34.625 20.71875 30.859375 
Q 16.703125 27.09375 16.703125 20.515625 
Q 16.703125 13.921875 20.71875 10.15625 
Q 24.75 6.390625 31.78125 6.390625 
Q 38.8125 6.390625 42.859375 10.171875 
Q 46.921875 13.96875 46.921875 20.515625 
Q 46.921875 27.09375 42.890625 30.859375 
Q 38.875 34.625 31.78125 34.625 
z
M 21.921875 38.8125 
Q 15.578125 40.375 12.03125 44.71875 
Q 8.5 49.078125 8.5 55.328125 
Q 8.5 64.0625 14.71875 69.140625 
Q 20.953125 74.21875 31.78125 74.21875 
Q 42.671875 74.21875 48.875 69.140625 
Q 55.078125 64.0625 55.078125 55.328125 
Q 55.078125 49.078125 51.53125 44.71875 
Q 48 40.375 41.703125 38.8125 
Q 48.828125 37.15625 52.796875 32.3125 
Q 56.78125 27.484375 56.78125 20.515625 
Q 56.78125 9.90625 50.3125 4.234375 
Q 43.84375 -1.421875 31.78125 -1.421875 
Q 19.734375 -1.421875 13.25 4.234375 
Q 6.78125 9.90625 6.78125 20.515625 
Q 6.78125 27.484375 10.78125 32.3125 
Q 14.796875 37.15625 21.921875 38.8125 
z
M 18.3125 54.390625 
Q 18.3125 48.734375 21.84375 45.5625 
Q 25.390625 42.390625 31.78125 42.390625 
Q 38.140625 42.390625 41.71875 45.5625 
Q 45.3125 48.734375 45.3125 54.390625 
Q 45.3125 60.0625 41.71875 63.234375 
Q 38.140625 66.40625 31.78125 66.40625 
Q 25.390625 66.40625 21.84375 63.234375 
Q 18.3125 60.0625 18.3125 54.390625 
z
" id="DejaVuSans-56"/>
      </defs>
      <g transform="translate(228.615359 348.227924)rotate(-45)scale(0.1 -0.1)">
       <use xlink:href="#DejaVuSans-74"/>
       <use x="29.492188" xlink:href="#DejaVuSans-117"/>
       <use x="92.871094" xlink:href="#DejaVuSans-108"/>
       <use x="120.654297" xlink:href="#DejaVuSans-32"/>
       <use x="152.441406" xlink:href="#DejaVuSans-49"/>
       <use x="216.064453" xlink:href="#DejaVuSans-56"/>
      </g>
     </g>
    </g>
    <g id="xtick_5">
     <g id="line2d_5">
      <g>
       <use style="stroke:#000000;stroke-width:0.8;" x="316.822813" xlink:href="#m2f00ca2d0b" y="316.078125"/>
      </g>
     </g>
     <g id="text_5">
      <!-- Aug 15 -->
      <defs>
       <path d="M 45.40625 27.984375 
Q 45.40625 37.75 41.375 43.109375 
Q 37.359375 48.484375 30.078125 48.484375 
Q 22.859375 48.484375 18.828125 43.109375 
Q 14.796875 37.75 14.796875 27.984375 
Q 14.796875 18.265625 18.828125 12.890625 
Q 22.859375 7.515625 30.078125 7.515625 
Q 37.359375 7.515625 41.375 12.890625 
Q 45.40625 18.265625 45.40625 27.984375 
z
M 54.390625 6.78125 
Q 54.390625 -7.171875 48.1875 -13.984375 
Q 42 -20.796875 29.203125 -20.796875 
Q 24.46875 -20.796875 20.265625 -20.09375 
Q 16.0625 -19.390625 12.109375 -17.921875 
L 12.109375 -9.1875 
Q 16.0625 -11.328125 19.921875 -12.34375 
Q 23.78125 -13.375 27.78125 -13.375 
Q 36.625 -13.375 41.015625 -8.765625 
Q 45.40625 -4.15625 45.40625 5.171875 
L 45.40625 9.625 
Q 42.625 4.78125 38.28125 2.390625 
Q 33.9375 0 27.875 0 
Q 17.828125 0 11.671875 7.65625 
Q 5.515625 15.328125 5.515625 27.984375 
Q 5.515625 40.671875 11.671875 48.328125 
Q 17.828125 56 27.875 56 
Q 33.9375 56 38.28125 53.609375 
Q 42.625 51.21875 45.40625 46.390625 
L 45.40625 54.6875 
L 54.390625 54.6875 
z
" id="DejaVuSans-103"/>
      </defs>
      <g transform="translate(290.299679 353.503604)rotate(-45)scale(0.1 -0.1)">
       <use xlink:href="#DejaVuSans-65"/>
       <use x="68.408203" xlink:href="#DejaVuSans-117"/>
       <use x="131.787109" xlink:href="#DejaVuSans-103"/>
       <use x="195.263672" xlink:href="#DejaVuSans-32"/>
       <use x="227.050781" xlink:href="#DejaVuSans-49"/>
       <use x="290.673828" xlink:href="#DejaVuSans-53"/>
      </g>
     </g>
    </g>
    <g id="xtick_6">
     <g id="line2d_6">
      <g>
       <use style="stroke:#000000;stroke-width:0.8;" x="383.782813" xlink:href="#m2f00ca2d0b" y="316.078125"/>
      </g>
     </g>
     <g id="text_6">
      <!-- Sep 12 -->
      <defs>
       <path d="M 53.515625 70.515625 
L 53.515625 60.890625 
Q 47.90625 63.578125 42.921875 64.890625 
Q 37.9375 66.21875 33.296875 66.21875 
Q 25.25 66.21875 20.875 63.09375 
Q 16.5 59.96875 16.5 54.203125 
Q 16.5 49.359375 19.40625 46.890625 
Q 22.3125 44.4375 30.421875 42.921875 
L 36.375 41.703125 
Q 47.40625 39.59375 52.65625 34.296875 
Q 57.90625 29 57.90625 20.125 
Q 57.90625 9.515625 50.796875 4.046875 
Q 43.703125 -1.421875 29.984375 -1.421875 
Q 24.8125 -1.421875 18.96875 -0.25 
Q 13.140625 0.921875 6.890625 3.21875 
L 6.890625 13.375 
Q 12.890625 10.015625 18.65625 8.296875 
Q 24.421875 6.59375 29.984375 6.59375 
Q 38.421875 6.59375 43.015625 9.90625 
Q 47.609375 13.234375 47.609375 19.390625 
Q 47.609375 24.75 44.3125 27.78125 
Q 41.015625 30.8125 33.5 32.328125 
L 27.484375 33.5 
Q 16.453125 35.6875 11.515625 40.375 
Q 6.59375 45.0625 6.59375 53.421875 
Q 6.59375 63.09375 13.40625 68.65625 
Q 20.21875 74.21875 32.171875 74.21875 
Q 37.3125 74.21875 42.625 73.28125 
Q 47.953125 72.359375 53.515625 70.515625 
z
" id="DejaVuSans-83"/>
       <path d="M 56.203125 29.59375 
L 56.203125 25.203125 
L 14.890625 25.203125 
Q 15.484375 15.921875 20.484375 11.0625 
Q 25.484375 6.203125 34.421875 6.203125 
Q 39.59375 6.203125 44.453125 7.46875 
Q 49.3125 8.734375 54.109375 11.28125 
L 54.109375 2.78125 
Q 49.265625 0.734375 44.1875 -0.34375 
Q 39.109375 -1.421875 33.890625 -1.421875 
Q 20.796875 -1.421875 13.15625 6.1875 
Q 5.515625 13.8125 5.515625 26.8125 
Q 5.515625 40.234375 12.765625 48.109375 
Q 20.015625 56 32.328125 56 
Q 43.359375 56 49.78125 48.890625 
Q 56.203125 41.796875 56.203125 29.59375 
z
M 47.21875 32.234375 
Q 47.125 39.59375 43.09375 43.984375 
Q 39.0625 48.390625 32.421875 48.390625 
Q 24.90625 48.390625 20.390625 44.140625 
Q 15.875 39.890625 15.1875 32.171875 
z
" id="DejaVuSans-101"/>
      </defs>
      <g transform="translate(357.738081 353.025202)rotate(-45)scale(0.1 -0.1)">
       <use xlink:href="#DejaVuSans-83"/>
       <use x="63.476562" xlink:href="#DejaVuSans-101"/>
       <use x="125" xlink:href="#DejaVuSans-112"/>
       <use x="188.476562" xlink:href="#DejaVuSans-32"/>
       <use x="220.263672" xlink:href="#DejaVuSans-49"/>
       <use x="283.886719" xlink:href="#DejaVuSans-50"/>
      </g>
     </g>
    </g>
    <g id="xtick_7">
     <g id="line2d_7">
      <g>
       <use style="stroke:#000000;stroke-width:0.8;" x="450.742813" xlink:href="#m2f00ca2d0b" y="316.078125"/>
      </g>
     </g>
     <g id="text_7">
      <!-- Oct 10 -->
      <defs>
       <path d="M 39.40625 66.21875 
Q 28.65625 66.21875 22.328125 58.203125 
Q 16.015625 50.203125 16.015625 36.375 
Q 16.015625 22.609375 22.328125 14.59375 
Q 28.65625 6.59375 39.40625 6.59375 
Q 50.140625 6.59375 56.421875 14.59375 
Q 62.703125 22.609375 62.703125 36.375 
Q 62.703125 50.203125 56.421875 58.203125 
Q 50.140625 66.21875 39.40625 66.21875 
z
M 39.40625 74.21875 
Q 54.734375 74.21875 63.90625 63.9375 
Q 73.09375 53.65625 73.09375 36.375 
Q 73.09375 19.140625 63.90625 8.859375 
Q 54.734375 -1.421875 39.40625 -1.421875 
Q 24.03125 -1.421875 14.8125 8.828125 
Q 5.609375 19.09375 5.609375 36.375 
Q 5.609375 53.65625 14.8125 63.9375 
Q 24.03125 74.21875 39.40625 74.21875 
z
" id="DejaVuSans-79"/>
       <path d="M 48.78125 52.59375 
L 48.78125 44.1875 
Q 44.96875 46.296875 41.140625 47.34375 
Q 37.3125 48.390625 33.40625 48.390625 
Q 24.65625 48.390625 19.8125 42.84375 
Q 14.984375 37.3125 14.984375 27.296875 
Q 14.984375 17.28125 19.8125 11.734375 
Q 24.65625 6.203125 33.40625 6.203125 
Q 37.3125 6.203125 41.140625 7.25 
Q 44.96875 8.296875 48.78125 10.40625 
L 48.78125 2.09375 
Q 45.015625 0.34375 40.984375 -0.53125 
Q 36.96875 -1.421875 32.421875 -1.421875 
Q 20.0625 -1.421875 12.78125 6.34375 
Q 5.515625 14.109375 5.515625 27.296875 
Q 5.515625 40.671875 12.859375 48.328125 
Q 20.21875 56 33.015625 56 
Q 37.15625 56 41.109375 55.140625 
Q 45.0625 54.296875 48.78125 52.59375 
z
" id="DejaVuSans-99"/>
       <path d="M 18.3125 70.21875 
L 18.3125 54.6875 
L 36.8125 54.6875 
L 36.8125 47.703125 
L 18.3125 47.703125 
L 18.3125 18.015625 
Q 18.3125 11.328125 20.140625 9.421875 
Q 21.96875 7.515625 27.59375 7.515625 
L 36.8125 7.515625 
L 36.8125 0 
L 27.59375 0 
Q 17.1875 0 13.234375 3.875 
Q 9.28125 7.765625 9.28125 18.015625 
L 9.28125 47.703125 
L 2.6875 47.703125 
L 2.6875 54.6875 
L 9.28125 54.6875 
L 9.28125 70.21875 
z
" id="DejaVuSans-116"/>
      </defs>
      <g transform="translate(425.800726 351.922557)rotate(-45)scale(0.1 -0.1)">
       <use xlink:href="#DejaVuSans-79"/>
       <use x="78.710938" xlink:href="#DejaVuSans-99"/>
       <use x="133.691406" xlink:href="#DejaVuSans-116"/>
       <use x="172.900391" xlink:href="#DejaVuSans-32"/>
       <use x="204.6875" xlink:href="#DejaVuSans-49"/>
       <use x="268.310547" xlink:href="#DejaVuSans-48"/>
      </g>
     </g>
    </g>
    <g id="xtick_8">
     <g id="line2d_8">
      <g>
       <use style="stroke:#000000;stroke-width:0.8;" x="517.702813" xlink:href="#m2f00ca2d0b" y="316.078125"/>
      </g>
     </g>
     <g id="text_8">
      <!-- Nov 07 -->
      <defs>
       <path d="M 9.8125 72.90625 
L 23.09375 72.90625 
L 55.421875 11.921875 
L 55.421875 72.90625 
L 64.984375 72.90625 
L 64.984375 0 
L 51.703125 0 
L 19.390625 60.984375 
L 19.390625 0 
L 9.8125 0 
z
" id="DejaVuSans-78"/>
       <path d="M 30.609375 48.390625 
Q 23.390625 48.390625 19.1875 42.75 
Q 14.984375 37.109375 14.984375 27.296875 
Q 14.984375 17.484375 19.15625 11.84375 
Q 23.34375 6.203125 30.609375 6.203125 
Q 37.796875 6.203125 41.984375 11.859375 
Q 46.1875 17.53125 46.1875 27.296875 
Q 46.1875 37.015625 41.984375 42.703125 
Q 37.796875 48.390625 30.609375 48.390625 
z
M 30.609375 56 
Q 42.328125 56 49.015625 48.375 
Q 55.71875 40.765625 55.71875 27.296875 
Q 55.71875 13.875 49.015625 6.21875 
Q 42.328125 -1.421875 30.609375 -1.421875 
Q 18.84375 -1.421875 12.171875 6.21875 
Q 5.515625 13.875 5.515625 27.296875 
Q 5.515625 40.765625 12.171875 48.375 
Q 18.84375 56 30.609375 56 
z
" id="DejaVuSans-111"/>
       <path d="M 2.984375 54.6875 
L 12.5 54.6875 
L 29.59375 8.796875 
L 46.6875 54.6875 
L 56.203125 54.6875 
L 35.6875 0 
L 23.484375 0 
z
" id="DejaVuSans-118"/>
       <path d="M 8.203125 72.90625 
L 55.078125 72.90625 
L 55.078125 68.703125 
L 28.609375 0 
L 18.3125 0 
L 43.21875 64.59375 
L 8.203125 64.59375 
z
" id="DejaVuSans-55"/>
      </defs>
      <g transform="translate(491.185203 353.49808)rotate(-45)scale(0.1 -0.1)">
       <use xlink:href="#DejaVuSans-78"/>
       <use x="74.804688" xlink:href="#DejaVuSans-111"/>
       <use x="135.986328" xlink:href="#DejaVuSans-118"/>
       <use x="195.166016" xlink:href="#DejaVuSans-32"/>
       <use x="226.953125" xlink:href="#DejaVuSans-48"/>
       <use x="290.576172" xlink:href="#DejaVuSans-55"/>
      </g>
     </g>
    </g>
    <g id="xtick_9">
     <g id="line2d_9">
      <g>
       <use style="stroke:#000000;stroke-width:0.8;" x="584.662813" xlink:href="#m2f00ca2d0b" y="316.078125"/>
      </g>
     </g>
     <g id="text_9">
      <!-- Dec 05 -->
      <defs>
       <path d="M 19.671875 64.796875 
L 19.671875 8.109375 
L 31.59375 8.109375 
Q 46.6875 8.109375 53.6875 14.9375 
Q 60.6875 21.78125 60.6875 36.53125 
Q 60.6875 51.171875 53.6875 57.984375 
Q 46.6875 64.796875 31.59375 64.796875 
z
M 9.8125 72.90625 
L 30.078125 72.90625 
Q 51.265625 72.90625 61.171875 64.09375 
Q 71.09375 55.28125 71.09375 36.53125 
Q 71.09375 17.671875 61.125 8.828125 
Q 51.171875 0 30.078125 0 
L 9.8125 0 
z
" id="DejaVuSans-68"/>
      </defs>
      <g transform="translate(558.263423 353.37986)rotate(-45)scale(0.1 -0.1)">
       <use xlink:href="#DejaVuSans-68"/>
       <use x="77.001953" xlink:href="#DejaVuSans-101"/>
       <use x="138.525391" xlink:href="#DejaVuSans-99"/>
       <use x="193.505859" xlink:href="#DejaVuSans-32"/>
       <use x="225.292969" xlink:href="#DejaVuSans-48"/>
       <use x="288.916016" xlink:href="#DejaVuSans-53"/>
      </g>
     </g>
    </g>
    <g id="xtick_10">
     <g id="line2d_10">
      <g>
       <use style="stroke:#000000;stroke-width:0.8;" x="651.622813" xlink:href="#m2f00ca2d0b" y="316.078125"/>
      </g>
     </g>
     <g id="text_10">
      <!-- Jan 02 -->
      <g transform="translate(628.006551 350.596732)rotate(-45)scale(0.1 -0.1)">
       <use xlink:href="#DejaVuSans-74"/>
       <use x="29.492188" xlink:href="#DejaVuSans-97"/>
       <use x="90.771484" xlink:href="#DejaVuSans-110"/>
       <use x="154.150391" xlink:href="#DejaVuSans-32"/>
       <use x="185.9375" xlink:href="#DejaVuSans-48"/>
       <use x="249.560547" xlink:href="#DejaVuSans-50"/>
      </g>
     </g>
    </g>
    <g id="xtick_11">
     <g id="line2d_11">
      <g>
       <use style="stroke:#000000;stroke-width:0.8;" x="718.582813" xlink:href="#m2f00ca2d0b" y="316.078125"/>
      </g>
     </g>
     <g id="text_11">
      <!-- Jan 30 -->
      <g transform="translate(694.966551 350.596732)rotate(-45)scale(0.1 -0.1)">
       <use xlink:href="#DejaVuSans-74"/>
       <use x="29.492188" xlink:href="#DejaVuSans-97"/>
       <use x="90.771484" xlink:href="#DejaVuSans-110"/>
       <use x="154.150391" xlink:href="#DejaVuSans-32"/>
       <use x="185.9375" xlink:href="#DejaVuSans-51"/>
       <use x="249.560547" xlink:href="#DejaVuSans-48"/>
      </g>
     </g>
    </g>
    <g id="text_12">
     <!-- Target End Date -->
     <defs>
      <path d="M -0.296875 72.90625 
L 61.375 72.90625 
L 61.375 64.59375 
L 35.5 64.59375 
L 35.5 0 
L 25.59375 0 
L 25.59375 64.59375 
L -0.296875 64.59375 
z
" id="DejaVuSans-84"/>
      <path d="M 9.8125 72.90625 
L 55.90625 72.90625 
L 55.90625 64.59375 
L 19.671875 64.59375 
L 19.671875 43.015625 
L 54.390625 43.015625 
L 54.390625 34.71875 
L 19.671875 34.71875 
L 19.671875 8.296875 
L 56.78125 8.296875 
L 56.78125 0 
L 9.8125 0 
z
" id="DejaVuSans-69"/>
      <path d="M 45.40625 46.390625 
L 45.40625 75.984375 
L 54.390625 75.984375 
L 54.390625 0 
L 45.40625 0 
L 45.40625 8.203125 
Q 42.578125 3.328125 38.25 0.953125 
Q 33.9375 -1.421875 27.875 -1.421875 
Q 17.96875 -1.421875 11.734375 6.484375 
Q 5.515625 14.40625 5.515625 27.296875 
Q 5.515625 40.1875 11.734375 48.09375 
Q 17.96875 56 27.875 56 
Q 33.9375 56 38.25 53.625 
Q 42.578125 51.265625 45.40625 46.390625 
z
M 14.796875 27.296875 
Q 14.796875 17.390625 18.875 11.75 
Q 22.953125 6.109375 30.078125 6.109375 
Q 37.203125 6.109375 41.296875 11.75 
Q 45.40625 17.390625 45.40625 27.296875 
Q 45.40625 37.203125 41.296875 42.84375 
Q 37.203125 48.484375 30.078125 48.484375 
Q 22.953125 48.484375 18.875 42.84375 
Q 14.796875 37.203125 14.796875 27.296875 
z
" id="DejaVuSans-100"/>
     </defs>
     <g transform="translate(343.679688 367.384671)scale(0.1 -0.1)">
      <use xlink:href="#DejaVuSans-84"/>
      <use x="44.583984" xlink:href="#DejaVuSans-97"/>
      <use x="105.863281" xlink:href="#DejaVuSans-114"/>
      <use x="145.226562" xlink:href="#DejaVuSans-103"/>
      <use x="208.703125" xlink:href="#DejaVuSans-101"/>
      <use x="270.226562" xlink:href="#DejaVuSans-116"/>
      <use x="309.435547" xlink:href="#DejaVuSans-32"/>
      <use x="341.222656" xlink:href="#DejaVuSans-69"/>
      <use x="404.40625" xlink:href="#DejaVuSans-110"/>
      <use x="467.785156" xlink:href="#DejaVuSans-100"/>
      <use x="531.261719" xlink:href="#DejaVuSans-32"/>
      <use x="563.048828" xlink:href="#DejaVuSans-68"/>
      <use x="640.050781" xlink:href="#DejaVuSans-97"/>
      <use x="701.330078" xlink:href="#DejaVuSans-116"/>
      <use x="740.539062" xlink:href="#DejaVuSans-101"/>
     </g>
    </g>
   </g>
   <g id="matplotlib.axis_2">
    <g id="ytick_1">
     <g id="line2d_12">
      <defs>
       <path d="M 0 0 
L -3.5 0 
" id="m4a1c4ddb74" style="stroke:#000000;stroke-width:0.8;"/>
      </defs>
      <g>
       <use style="stroke:#000000;stroke-width:0.8;" x="48.982813" xlink:href="#m4a1c4ddb74" y="314.873749"/>
      </g>
     </g>
     <g id="text_13">
      <!-- −18 -->
      <defs>
       <path d="M 10.59375 35.5 
L 73.1875 35.5 
L 73.1875 27.203125 
L 10.59375 27.203125 
z
" id="DejaVuSans-8722"/>
      </defs>
      <g transform="translate(20.878125 318.672967)scale(0.1 -0.1)">
       <use xlink:href="#DejaVuSans-8722"/>
       <use x="83.789062" xlink:href="#DejaVuSans-49"/>
       <use x="147.412109" xlink:href="#DejaVuSans-56"/>
      </g>
     </g>
    </g>
    <g id="ytick_2">
     <g id="line2d_13">
      <g>
       <use style="stroke:#000000;stroke-width:0.8;" x="48.982813" xlink:href="#m4a1c4ddb74" y="274.20508"/>
      </g>
     </g>
     <g id="text_14">
      <!-- −16 -->
      <defs>
       <path d="M 33.015625 40.375 
Q 26.375 40.375 22.484375 35.828125 
Q 18.609375 31.296875 18.609375 23.390625 
Q 18.609375 15.53125 22.484375 10.953125 
Q 26.375 6.390625 33.015625 6.390625 
Q 39.65625 6.390625 43.53125 10.953125 
Q 47.40625 15.53125 47.40625 23.390625 
Q 47.40625 31.296875 43.53125 35.828125 
Q 39.65625 40.375 33.015625 40.375 
z
M 52.59375 71.296875 
L 52.59375 62.3125 
Q 48.875 64.0625 45.09375 64.984375 
Q 41.3125 65.921875 37.59375 65.921875 
Q 27.828125 65.921875 22.671875 59.328125 
Q 17.53125 52.734375 16.796875 39.40625 
Q 19.671875 43.65625 24.015625 45.921875 
Q 28.375 48.1875 33.59375 48.1875 
Q 44.578125 48.1875 50.953125 41.515625 
Q 57.328125 34.859375 57.328125 23.390625 
Q 57.328125 12.15625 50.6875 5.359375 
Q 44.046875 -1.421875 33.015625 -1.421875 
Q 20.359375 -1.421875 13.671875 8.265625 
Q 6.984375 17.96875 6.984375 36.375 
Q 6.984375 53.65625 15.1875 63.9375 
Q 23.390625 74.21875 37.203125 74.21875 
Q 40.921875 74.21875 44.703125 73.484375 
Q 48.484375 72.75 52.59375 71.296875 
z
" id="DejaVuSans-54"/>
      </defs>
      <g transform="translate(20.878125 278.004299)scale(0.1 -0.1)">
       <use xlink:href="#DejaVuSans-8722"/>
       <use x="83.789062" xlink:href="#DejaVuSans-49"/>
       <use x="147.412109" xlink:href="#DejaVuSans-54"/>
      </g>
     </g>
    </g>
    <g id="ytick_3">
     <g id="line2d_14">
      <g>
       <use style="stroke:#000000;stroke-width:0.8;" x="48.982813" xlink:href="#m4a1c4ddb74" y="233.536412"/>
      </g>
     </g>
     <g id="text_15">
      <!-- −14 -->
      <defs>
       <path d="M 37.796875 64.3125 
L 12.890625 25.390625 
L 37.796875 25.390625 
z
M 35.203125 72.90625 
L 47.609375 72.90625 
L 47.609375 25.390625 
L 58.015625 25.390625 
L 58.015625 17.1875 
L 47.609375 17.1875 
L 47.609375 0 
L 37.796875 0 
L 37.796875 17.1875 
L 4.890625 17.1875 
L 4.890625 26.703125 
z
" id="DejaVuSans-52"/>
      </defs>
      <g transform="translate(20.878125 237.33563)scale(0.1 -0.1)">
       <use xlink:href="#DejaVuSans-8722"/>
       <use x="83.789062" xlink:href="#DejaVuSans-49"/>
       <use x="147.412109" xlink:href="#DejaVuSans-52"/>
      </g>
     </g>
    </g>
    <g id="ytick_4">
     <g id="line2d_15">
      <g>
       <use style="stroke:#000000;stroke-width:0.8;" x="48.982813" xlink:href="#m4a1c4ddb74" y="192.867743"/>
      </g>
     </g>
     <g id="text_16">
      <!-- −12 -->
      <g transform="translate(20.878125 196.666962)scale(0.1 -0.1)">
       <use xlink:href="#DejaVuSans-8722"/>
       <use x="83.789062" xlink:href="#DejaVuSans-49"/>
       <use x="147.412109" xlink:href="#DejaVuSans-50"/>
      </g>
     </g>
    </g>
    <g id="ytick_5">
     <g id="line2d_16">
      <g>
       <use style="stroke:#000000;stroke-width:0.8;" x="48.982813" xlink:href="#m4a1c4ddb74" y="152.199075"/>
      </g>
     </g>
     <g id="text_17">
      <!-- −10 -->
      <g transform="translate(20.878125 155.998294)scale(0.1 -0.1)">
       <use xlink:href="#DejaVuSans-8722"/>
       <use x="83.789062" xlink:href="#DejaVuSans-49"/>
       <use x="147.412109" xlink:href="#DejaVuSans-48"/>
      </g>
     </g>
    </g>
    <g id="ytick_6">
     <g id="line2d_17">
      <g>
       <use style="stroke:#000000;stroke-width:0.8;" x="48.982813" xlink:href="#m4a1c4ddb74" y="111.530406"/>
      </g>
     </g>
     <g id="text_18">
      <!-- −8 -->
      <g transform="translate(27.240625 115.329625)scale(0.1 -0.1)">
       <use xlink:href="#DejaVuSans-8722"/>
       <use x="83.789062" xlink:href="#DejaVuSans-56"/>
      </g>
     </g>
    </g>
    <g id="ytick_7">
     <g id="line2d_18">
      <g>
       <use style="stroke:#000000;stroke-width:0.8;" x="48.982813" xlink:href="#m4a1c4ddb74" y="70.861738"/>
      </g>
     </g>
     <g id="text_19">
      <!-- −6 -->
      <g transform="translate(27.240625 74.660957)scale(0.1 -0.1)">
       <use xlink:href="#DejaVuSans-8722"/>
       <use x="83.789062" xlink:href="#DejaVuSans-54"/>
      </g>
     </g>
    </g>
    <g id="ytick_8">
     <g id="line2d_19">
      <g>
       <use style="stroke:#000000;stroke-width:0.8;" x="48.982813" xlink:href="#m4a1c4ddb74" y="30.193069"/>
      </g>
     </g>
     <g id="text_20">
      <!-- −4 -->
      <g transform="translate(27.240625 33.992288)scale(0.1 -0.1)">
       <use xlink:href="#DejaVuSans-8722"/>
       <use x="83.789062" xlink:href="#DejaVuSans-52"/>
      </g>
     </g>
    </g>
    <g id="text_21">
     <!-- Score for weekly incidental cases -->
     <defs>
      <path d="M 37.109375 75.984375 
L 37.109375 68.5 
L 28.515625 68.5 
Q 23.6875 68.5 21.796875 66.546875 
Q 19.921875 64.59375 19.921875 59.515625 
L 19.921875 54.6875 
L 34.71875 54.6875 
L 34.71875 47.703125 
L 19.921875 47.703125 
L 19.921875 0 
L 10.890625 0 
L 10.890625 47.703125 
L 2.296875 47.703125 
L 2.296875 54.6875 
L 10.890625 54.6875 
L 10.890625 58.5 
Q 10.890625 67.625 15.140625 71.796875 
Q 19.390625 75.984375 28.609375 75.984375 
z
" id="DejaVuSans-102"/>
      <path d="M 4.203125 54.6875 
L 13.1875 54.6875 
L 24.421875 12.015625 
L 35.59375 54.6875 
L 46.1875 54.6875 
L 57.421875 12.015625 
L 68.609375 54.6875 
L 77.59375 54.6875 
L 63.28125 0 
L 52.6875 0 
L 40.921875 44.828125 
L 29.109375 0 
L 18.5 0 
z
" id="DejaVuSans-119"/>
      <path d="M 9.078125 75.984375 
L 18.109375 75.984375 
L 18.109375 31.109375 
L 44.921875 54.6875 
L 56.390625 54.6875 
L 27.390625 29.109375 
L 57.625 0 
L 45.90625 0 
L 18.109375 26.703125 
L 18.109375 0 
L 9.078125 0 
z
" id="DejaVuSans-107"/>
      <path d="M 9.421875 54.6875 
L 18.40625 54.6875 
L 18.40625 0 
L 9.421875 0 
z
M 9.421875 75.984375 
L 18.40625 75.984375 
L 18.40625 64.59375 
L 9.421875 64.59375 
z
" id="DejaVuSans-105"/>
      <path d="M 44.28125 53.078125 
L 44.28125 44.578125 
Q 40.484375 46.53125 36.375 47.5 
Q 32.28125 48.484375 27.875 48.484375 
Q 21.1875 48.484375 17.84375 46.4375 
Q 14.5 44.390625 14.5 40.28125 
Q 14.5 37.15625 16.890625 35.375 
Q 19.28125 33.59375 26.515625 31.984375 
L 29.59375 31.296875 
Q 39.15625 29.25 43.1875 25.515625 
Q 47.21875 21.78125 47.21875 15.09375 
Q 47.21875 7.46875 41.1875 3.015625 
Q 35.15625 -1.421875 24.609375 -1.421875 
Q 20.21875 -1.421875 15.453125 -0.5625 
Q 10.6875 0.296875 5.421875 2 
L 5.421875 11.28125 
Q 10.40625 8.6875 15.234375 7.390625 
Q 20.0625 6.109375 24.8125 6.109375 
Q 31.15625 6.109375 34.5625 8.28125 
Q 37.984375 10.453125 37.984375 14.40625 
Q 37.984375 18.0625 35.515625 20.015625 
Q 33.0625 21.96875 24.703125 23.78125 
L 21.578125 24.515625 
Q 13.234375 26.265625 9.515625 29.90625 
Q 5.8125 33.546875 5.8125 39.890625 
Q 5.8125 47.609375 11.28125 51.796875 
Q 16.75 56 26.8125 56 
Q 31.78125 56 36.171875 55.265625 
Q 40.578125 54.546875 44.28125 53.078125 
z
" id="DejaVuSans-115"/>
     </defs>
     <g transform="translate(14.798437 252.545781)rotate(-90)scale(0.1 -0.1)">
      <use xlink:href="#DejaVuSans-83"/>
      <use x="63.476562" xlink:href="#DejaVuSans-99"/>
      <use x="118.457031" xlink:href="#DejaVuSans-111"/>
      <use x="179.638672" xlink:href="#DejaVuSans-114"/>
      <use x="218.501953" xlink:href="#DejaVuSans-101"/>
      <use x="280.025391" xlink:href="#DejaVuSans-32"/>
      <use x="311.8125" xlink:href="#DejaVuSans-102"/>
      <use x="347.017578" xlink:href="#DejaVuSans-111"/>
      <use x="408.199219" xlink:href="#DejaVuSans-114"/>
      <use x="449.3125" xlink:href="#DejaVuSans-32"/>
      <use x="481.099609" xlink:href="#DejaVuSans-119"/>
      <use x="562.886719" xlink:href="#DejaVuSans-101"/>
      <use x="624.410156" xlink:href="#DejaVuSans-101"/>
      <use x="685.933594" xlink:href="#DejaVuSans-107"/>
      <use x="743.84375" xlink:href="#DejaVuSans-108"/>
      <use x="771.626953" xlink:href="#DejaVuSans-121"/>
      <use x="830.806641" xlink:href="#DejaVuSans-32"/>
      <use x="862.59375" xlink:href="#DejaVuSans-105"/>
      <use x="890.376953" xlink:href="#DejaVuSans-110"/>
      <use x="953.755859" xlink:href="#DejaVuSans-99"/>
      <use x="1008.736328" xlink:href="#DejaVuSans-105"/>
      <use x="1036.519531" xlink:href="#DejaVuSans-100"/>
      <use x="1099.996094" xlink:href="#DejaVuSans-101"/>
      <use x="1161.519531" xlink:href="#DejaVuSans-110"/>
      <use x="1224.898438" xlink:href="#DejaVuSans-116"/>
      <use x="1264.107422" xlink:href="#DejaVuSans-97"/>
      <use x="1325.386719" xlink:href="#DejaVuSans-108"/>
      <use x="1353.169922" xlink:href="#DejaVuSans-32"/>
      <use x="1384.957031" xlink:href="#DejaVuSans-99"/>
      <use x="1439.9375" xlink:href="#DejaVuSans-97"/>
      <use x="1501.216797" xlink:href="#DejaVuSans-115"/>
      <use x="1553.316406" xlink:href="#DejaVuSans-101"/>
      <use x="1614.839844" xlink:href="#DejaVuSans-115"/>
     </g>
    </g>
   </g>
   <g id="line2d_20">
    <path clip-path="url(#pc311ef45b1)" d="M 283.342813 158.277057 
L 300.082813 152.127235 
L 316.822813 91.439932 
L 333.562813 123.65213 
L 350.302813 147.994011 
L 383.782813 89.328832 
L 434.002813 108.804758 
L 450.742813 170.499959 
L 467.482813 214.573189 
L 484.222813 137.008 
L 500.962813 145.185035 
L 651.622813 221.366241 
" style="fill:none;stroke:#000080;stroke-linecap:square;stroke-width:1.5;"/>
    <defs>
     <path d="M 0 3 
C 0.795609 3 1.55874 2.683901 2.12132 2.12132 
C 2.683901 1.55874 3 0.795609 3 0 
C 3 -0.795609 2.683901 -1.55874 2.12132 -2.12132 
C 1.55874 -2.683901 0.795609 -3 0 -3 
C -0.795609 -3 -1.55874 -2.683901 -2.12132 -2.12132 
C -2.683901 -1.55874 -3 -0.795609 -3 0 
C -3 0.795609 -2.683901 1.55874 -2.12132 2.12132 
C -1.55874 2.683901 -0.795609 3 0 3 
z
" id="mc312f07c95" style="stroke:#000080;"/>
    </defs>
    <g clip-path="url(#pc311ef45b1)">
     <use style="fill:#000080;stroke:#000080;" x="283.342813" xlink:href="#mc312f07c95" y="158.277057"/>
     <use style="fill:#000080;stroke:#000080;" x="300.082813" xlink:href="#mc312f07c95" y="152.127235"/>
     <use style="fill:#000080;stroke:#000080;" x="316.822813" xlink:href="#mc312f07c95" y="91.439932"/>
     <use style="fill:#000080;stroke:#000080;" x="333.562813" xlink:href="#mc312f07c95" y="123.65213"/>
     <use style="fill:#000080;stroke:#000080;" x="350.302813" xlink:href="#mc312f07c95" y="147.994011"/>
     <use style="fill:#000080;stroke:#000080;" x="383.782813" xlink:href="#mc312f07c95" y="89.328832"/>
     <use style="fill:#000080;stroke:#000080;" x="434.002813" xlink:href="#mc312f07c95" y="108.804758"/>
     <use style="fill:#000080;stroke:#000080;" x="450.742813" xlink:href="#mc312f07c95" y="170.499959"/>
     <use style="fill:#000080;stroke:#000080;" x="467.482813" xlink:href="#mc312f07c95" y="214.573189"/>
     <use style="fill:#000080;stroke:#000080;" x="484.222813" xlink:href="#mc312f07c95" y="137.008"/>
     <use style="fill:#000080;stroke:#000080;" x="500.962813" xlink:href="#mc312f07c95" y="145.185035"/>
     <use style="fill:#000080;stroke:#000080;" x="651.622813" xlink:href="#mc312f07c95" y="221.366241"/>
    </g>
   </g>
   <g id="line2d_21">
    <path clip-path="url(#pc311ef45b1)" d="M 65.722813 127.745095 
L 82.462813 147.262628 
L 99.202813 155.906197 
L 115.942813 161.381566 
L 132.682813 157.782362 
L 149.422813 143.489745 
L 166.162813 123.410403 
L 182.902813 127.822095 
L 199.642813 191.513205 
L 283.342813 172.477927 
L 300.082813 123.790552 
L 316.822813 166.208043 
L 367.042813 156.951526 
L 383.782813 186.242475 
L 400.522813 132.765987 
L 417.262813 129.548557 
L 434.002813 129.040216 
L 450.742813 166.735961 
L 467.482813 166.456752 
L 634.882813 169.228607 
L 651.622813 137.977852 
L 668.362813 169.138373 
" style="fill:none;stroke:#0000b2;stroke-linecap:square;stroke-width:1.5;"/>
    <defs>
     <path d="M 0 3 
C 0.795609 3 1.55874 2.683901 2.12132 2.12132 
C 2.683901 1.55874 3 0.795609 3 0 
C 3 -0.795609 2.683901 -1.55874 2.12132 -2.12132 
C 1.55874 -2.683901 0.795609 -3 0 -3 
C -0.795609 -3 -1.55874 -2.683901 -2.12132 -2.12132 
C -2.683901 -1.55874 -3 -0.795609 -3 0 
C -3 0.795609 -2.683901 1.55874 -2.12132 2.12132 
C -1.55874 2.683901 -0.795609 3 0 3 
z
" id="m3688ddc33f" style="stroke:#0000b2;"/>
    </defs>
    <g clip-path="url(#pc311ef45b1)">
     <use style="fill:#0000b2;stroke:#0000b2;" x="65.722813" xlink:href="#m3688ddc33f" y="127.745095"/>
     <use style="fill:#0000b2;stroke:#0000b2;" x="82.462813" xlink:href="#m3688ddc33f" y="147.262628"/>
     <use style="fill:#0000b2;stroke:#0000b2;" x="99.202813" xlink:href="#m3688ddc33f" y="155.906197"/>
     <use style="fill:#0000b2;stroke:#0000b2;" x="115.942813" xlink:href="#m3688ddc33f" y="161.381566"/>
     <use style="fill:#0000b2;stroke:#0000b2;" x="132.682813" xlink:href="#m3688ddc33f" y="157.782362"/>
     <use style="fill:#0000b2;stroke:#0000b2;" x="149.422813" xlink:href="#m3688ddc33f" y="143.489745"/>
     <use style="fill:#0000b2;stroke:#0000b2;" x="166.162813" xlink:href="#m3688ddc33f" y="123.410403"/>
     <use style="fill:#0000b2;stroke:#0000b2;" x="182.902813" xlink:href="#m3688ddc33f" y="127.822095"/>
     <use style="fill:#0000b2;stroke:#0000b2;" x="199.642813" xlink:href="#m3688ddc33f" y="191.513205"/>
     <use style="fill:#0000b2;stroke:#0000b2;" x="283.342813" xlink:href="#m3688ddc33f" y="172.477927"/>
     <use style="fill:#0000b2;stroke:#0000b2;" x="300.082813" xlink:href="#m3688ddc33f" y="123.790552"/>
     <use style="fill:#0000b2;stroke:#0000b2;" x="316.822813" xlink:href="#m3688ddc33f" y="166.208043"/>
     <use style="fill:#0000b2;stroke:#0000b2;" x="367.042813" xlink:href="#m3688ddc33f" y="156.951526"/>
     <use style="fill:#0000b2;stroke:#0000b2;" x="383.782813" xlink:href="#m3688ddc33f" y="186.242475"/>
     <use style="fill:#0000b2;stroke:#0000b2;" x="400.522813" xlink:href="#m3688ddc33f" y="132.765987"/>
     <use style="fill:#0000b2;stroke:#0000b2;" x="417.262813" xlink:href="#m3688ddc33f" y="129.548557"/>
     <use style="fill:#0000b2;stroke:#0000b2;" x="434.002813" xlink:href="#m3688ddc33f" y="129.040216"/>
     <use style="fill:#0000b2;stroke:#0000b2;" x="450.742813" xlink:href="#m3688ddc33f" y="166.735961"/>
     <use style="fill:#0000b2;stroke:#0000b2;" x="467.482813" xlink:href="#m3688ddc33f" y="166.456752"/>
     <use style="fill:#0000b2;stroke:#0000b2;" x="634.882813" xlink:href="#m3688ddc33f" y="169.228607"/>
     <use style="fill:#0000b2;stroke:#0000b2;" x="651.622813" xlink:href="#m3688ddc33f" y="137.977852"/>
     <use style="fill:#0000b2;stroke:#0000b2;" x="668.362813" xlink:href="#m3688ddc33f" y="169.138373"/>
    </g>
   </g>
   <g id="line2d_22">
    <path clip-path="url(#pc311ef45b1)" d="M 333.562813 175.515822 
L 350.302813 160.585855 
L 367.042813 140.208893 
L 383.782813 158.955514 
L 400.522813 162.195201 
L 417.262813 161.494173 
L 434.002813 153.019868 
L 467.482813 199.20842 
L 484.222813 201.172695 
L 500.962813 210.838037 
L 517.702813 215.142321 
L 534.442813 224.443759 
L 551.182813 221.424828 
L 567.922813 183.477406 
L 584.662813 186.510296 
L 601.402813 195.716571 
L 618.142813 220.836893 
L 634.882813 192.305913 
L 651.622813 196.525864 
L 668.362813 207.337909 
" style="fill:none;stroke:#0000e8;stroke-linecap:square;stroke-width:1.5;"/>
    <defs>
     <path d="M 0 3 
C 0.795609 3 1.55874 2.683901 2.12132 2.12132 
C 2.683901 1.55874 3 0.795609 3 0 
C 3 -0.795609 2.683901 -1.55874 2.12132 -2.12132 
C 1.55874 -2.683901 0.795609 -3 0 -3 
C -0.795609 -3 -1.55874 -2.683901 -2.12132 -2.12132 
C -2.683901 -1.55874 -3 -0.795609 -3 0 
C -3 0.795609 -2.683901 1.55874 -2.12132 2.12132 
C -1.55874 2.683901 -0.795609 3 0 3 
z
" id="md3ee567f8d" style="stroke:#0000e8;"/>
    </defs>
    <g clip-path="url(#pc311ef45b1)">
     <use style="fill:#0000e8;stroke:#0000e8;" x="333.562813" xlink:href="#md3ee567f8d" y="175.515822"/>
     <use style="fill:#0000e8;stroke:#0000e8;" x="350.302813" xlink:href="#md3ee567f8d" y="160.585855"/>
     <use style="fill:#0000e8;stroke:#0000e8;" x="367.042813" xlink:href="#md3ee567f8d" y="140.208893"/>
     <use style="fill:#0000e8;stroke:#0000e8;" x="383.782813" xlink:href="#md3ee567f8d" y="158.955514"/>
     <use style="fill:#0000e8;stroke:#0000e8;" x="400.522813" xlink:href="#md3ee567f8d" y="162.195201"/>
     <use style="fill:#0000e8;stroke:#0000e8;" x="417.262813" xlink:href="#md3ee567f8d" y="161.494173"/>
     <use style="fill:#0000e8;stroke:#0000e8;" x="434.002813" xlink:href="#md3ee567f8d" y="153.019868"/>
     <use style="fill:#0000e8;stroke:#0000e8;" x="467.482813" xlink:href="#md3ee567f8d" y="199.20842"/>
     <use style="fill:#0000e8;stroke:#0000e8;" x="484.222813" xlink:href="#md3ee567f8d" y="201.172695"/>
     <use style="fill:#0000e8;stroke:#0000e8;" x="500.962813" xlink:href="#md3ee567f8d" y="210.838037"/>
     <use style="fill:#0000e8;stroke:#0000e8;" x="517.702813" xlink:href="#md3ee567f8d" y="215.142321"/>
     <use style="fill:#0000e8;stroke:#0000e8;" x="534.442813" xlink:href="#md3ee567f8d" y="224.443759"/>
     <use style="fill:#0000e8;stroke:#0000e8;" x="551.182813" xlink:href="#md3ee567f8d" y="221.424828"/>
     <use style="fill:#0000e8;stroke:#0000e8;" x="567.922813" xlink:href="#md3ee567f8d" y="183.477406"/>
     <use style="fill:#0000e8;stroke:#0000e8;" x="584.662813" xlink:href="#md3ee567f8d" y="186.510296"/>
     <use style="fill:#0000e8;stroke:#0000e8;" x="601.402813" xlink:href="#md3ee567f8d" y="195.716571"/>
     <use style="fill:#0000e8;stroke:#0000e8;" x="618.142813" xlink:href="#md3ee567f8d" y="220.836893"/>
     <use style="fill:#0000e8;stroke:#0000e8;" x="634.882813" xlink:href="#md3ee567f8d" y="192.305913"/>
     <use style="fill:#0000e8;stroke:#0000e8;" x="651.622813" xlink:href="#md3ee567f8d" y="196.525864"/>
     <use style="fill:#0000e8;stroke:#0000e8;" x="668.362813" xlink:href="#md3ee567f8d" y="207.337909"/>
    </g>
   </g>
   <g id="line2d_23">
    <path clip-path="url(#pc311ef45b1)" d="M 316.822813 295.743791 
" style="fill:none;stroke:#0068ff;stroke-linecap:square;stroke-width:1.5;"/>
    <defs>
     <path d="M 0 3 
C 0.795609 3 1.55874 2.683901 2.12132 2.12132 
C 2.683901 1.55874 3 0.795609 3 0 
C 3 -0.795609 2.683901 -1.55874 2.12132 -2.12132 
C 1.55874 -2.683901 0.795609 -3 0 -3 
C -0.795609 -3 -1.55874 -2.683901 -2.12132 -2.12132 
C -2.683901 -1.55874 -3 -0.795609 -3 0 
C -3 0.795609 -2.683901 1.55874 -2.12132 2.12132 
C -1.55874 2.683901 -0.795609 3 0 3 
z
" id="m69310da950" style="stroke:#0068ff;"/>
    </defs>
    <g clip-path="url(#pc311ef45b1)">
     <use style="fill:#0068ff;stroke:#0068ff;" x="316.822813" xlink:href="#m69310da950" y="295.743791"/>
    </g>
   </g>
   <g id="line2d_24">
    <path clip-path="url(#pc311ef45b1)" d="M 283.342813 115.172471 
L 383.782813 109.277444 
L 400.522813 110.716588 
L 417.262813 105.297499 
L 434.002813 99.431612 
L 634.882813 107.002352 
L 651.622813 138.775819 
" style="fill:none;stroke:#0094ff;stroke-linecap:square;stroke-width:1.5;"/>
    <defs>
     <path d="M 0 3 
C 0.795609 3 1.55874 2.683901 2.12132 2.12132 
C 2.683901 1.55874 3 0.795609 3 0 
C 3 -0.795609 2.683901 -1.55874 2.12132 -2.12132 
C 1.55874 -2.683901 0.795609 -3 0 -3 
C -0.795609 -3 -1.55874 -2.683901 -2.12132 -2.12132 
C -2.683901 -1.55874 -3 -0.795609 -3 0 
C -3 0.795609 -2.683901 1.55874 -2.12132 2.12132 
C -1.55874 2.683901 -0.795609 3 0 3 
z
" id="m951f143fea" style="stroke:#0094ff;"/>
    </defs>
    <g clip-path="url(#pc311ef45b1)">
     <use style="fill:#0094ff;stroke:#0094ff;" x="283.342813" xlink:href="#m951f143fea" y="115.172471"/>
     <use style="fill:#0094ff;stroke:#0094ff;" x="383.782813" xlink:href="#m951f143fea" y="109.277444"/>
     <use style="fill:#0094ff;stroke:#0094ff;" x="400.522813" xlink:href="#m951f143fea" y="110.716588"/>
     <use style="fill:#0094ff;stroke:#0094ff;" x="417.262813" xlink:href="#m951f143fea" y="105.297499"/>
     <use style="fill:#0094ff;stroke:#0094ff;" x="434.002813" xlink:href="#m951f143fea" y="99.431612"/>
     <use style="fill:#0094ff;stroke:#0094ff;" x="634.882813" xlink:href="#m951f143fea" y="107.002352"/>
     <use style="fill:#0094ff;stroke:#0094ff;" x="651.622813" xlink:href="#m951f143fea" y="138.775819"/>
    </g>
   </g>
   <g id="line2d_25">
    <path clip-path="url(#pc311ef45b1)" d="M 266.602813 182.904274 
L 283.342813 179.96587 
L 300.082813 168.483273 
L 316.822813 168.330208 
L 333.562813 163.612801 
L 350.302813 160.840648 
L 367.042813 162.250445 
L 383.782813 155.251455 
L 400.522813 166.607351 
L 417.262813 192.752798 
L 434.002813 208.403413 
L 450.742813 226.884365 
L 567.922813 162.888168 
L 584.662813 193.513064 
L 601.402813 193.605461 
L 618.142813 166.013098 
L 634.882813 169.737676 
L 651.622813 181.160188 
L 668.362813 159.159724 
" style="fill:none;stroke:#00c4ff;stroke-linecap:square;stroke-width:1.5;"/>
    <defs>
     <path d="M 0 3 
C 0.795609 3 1.55874 2.683901 2.12132 2.12132 
C 2.683901 1.55874 3 0.795609 3 0 
C 3 -0.795609 2.683901 -1.55874 2.12132 -2.12132 
C 1.55874 -2.683901 0.795609 -3 0 -3 
C -0.795609 -3 -1.55874 -2.683901 -2.12132 -2.12132 
C -2.683901 -1.55874 -3 -0.795609 -3 0 
C -3 0.795609 -2.683901 1.55874 -2.12132 2.12132 
C -1.55874 2.683901 -0.795609 3 0 3 
z
" id="m4ac97606e4" style="stroke:#00c4ff;"/>
    </defs>
    <g clip-path="url(#pc311ef45b1)">
     <use style="fill:#00c4ff;stroke:#00c4ff;" x="266.602813" xlink:href="#m4ac97606e4" y="182.904274"/>
     <use style="fill:#00c4ff;stroke:#00c4ff;" x="283.342813" xlink:href="#m4ac97606e4" y="179.96587"/>
     <use style="fill:#00c4ff;stroke:#00c4ff;" x="300.082813" xlink:href="#m4ac97606e4" y="168.483273"/>
     <use style="fill:#00c4ff;stroke:#00c4ff;" x="316.822813" xlink:href="#m4ac97606e4" y="168.330208"/>
     <use style="fill:#00c4ff;stroke:#00c4ff;" x="333.562813" xlink:href="#m4ac97606e4" y="163.612801"/>
     <use style="fill:#00c4ff;stroke:#00c4ff;" x="350.302813" xlink:href="#m4ac97606e4" y="160.840648"/>
     <use style="fill:#00c4ff;stroke:#00c4ff;" x="367.042813" xlink:href="#m4ac97606e4" y="162.250445"/>
     <use style="fill:#00c4ff;stroke:#00c4ff;" x="383.782813" xlink:href="#m4ac97606e4" y="155.251455"/>
     <use style="fill:#00c4ff;stroke:#00c4ff;" x="400.522813" xlink:href="#m4ac97606e4" y="166.607351"/>
     <use style="fill:#00c4ff;stroke:#00c4ff;" x="417.262813" xlink:href="#m4ac97606e4" y="192.752798"/>
     <use style="fill:#00c4ff;stroke:#00c4ff;" x="434.002813" xlink:href="#m4ac97606e4" y="208.403413"/>
     <use style="fill:#00c4ff;stroke:#00c4ff;" x="450.742813" xlink:href="#m4ac97606e4" y="226.884365"/>
     <use style="fill:#00c4ff;stroke:#00c4ff;" x="567.922813" xlink:href="#m4ac97606e4" y="162.888168"/>
     <use style="fill:#00c4ff;stroke:#00c4ff;" x="584.662813" xlink:href="#m4ac97606e4" y="193.513064"/>
     <use style="fill:#00c4ff;stroke:#00c4ff;" x="601.402813" xlink:href="#m4ac97606e4" y="193.605461"/>
     <use style="fill:#00c4ff;stroke:#00c4ff;" x="618.142813" xlink:href="#m4ac97606e4" y="166.013098"/>
     <use style="fill:#00c4ff;stroke:#00c4ff;" x="634.882813" xlink:href="#m4ac97606e4" y="169.737676"/>
     <use style="fill:#00c4ff;stroke:#00c4ff;" x="651.622813" xlink:href="#m4ac97606e4" y="181.160188"/>
     <use style="fill:#00c4ff;stroke:#00c4ff;" x="668.362813" xlink:href="#m4ac97606e4" y="159.159724"/>
    </g>
   </g>
   <g id="line2d_26">
    <path clip-path="url(#pc311ef45b1)" d="M 651.622813 89.888602 
L 668.362813 159.387736 
" style="fill:none;stroke:#0cf4eb;stroke-linecap:square;stroke-width:1.5;"/>
    <defs>
     <path d="M 0 3 
C 0.795609 3 1.55874 2.683901 2.12132 2.12132 
C 2.683901 1.55874 3 0.795609 3 0 
C 3 -0.795609 2.683901 -1.55874 2.12132 -2.12132 
C 1.55874 -2.683901 0.795609 -3 0 -3 
C -0.795609 -3 -1.55874 -2.683901 -2.12132 -2.12132 
C -2.683901 -1.55874 -3 -0.795609 -3 0 
C -3 0.795609 -2.683901 1.55874 -2.12132 2.12132 
C -1.55874 2.683901 -0.795609 3 0 3 
z
" id="m0dbd28474e" style="stroke:#0cf4eb;"/>
    </defs>
    <g clip-path="url(#pc311ef45b1)">
     <use style="fill:#0cf4eb;stroke:#0cf4eb;" x="651.622813" xlink:href="#m0dbd28474e" y="89.888602"/>
     <use style="fill:#0cf4eb;stroke:#0cf4eb;" x="668.362813" xlink:href="#m0dbd28474e" y="159.387736"/>
    </g>
   </g>
   <g id="line2d_27">
    <path clip-path="url(#pc311ef45b1)" d="M 367.042813 146.041758 
L 400.522813 116.367661 
L 417.262813 113.832705 
L 434.002813 116.430608 
L 467.482813 184.694808 
L 484.222813 166.421225 
L 634.882813 160.769665 
L 651.622813 148.696797 
" style="fill:none;stroke:#a0ff56;stroke-linecap:square;stroke-width:1.5;"/>
    <defs>
     <path d="M 0 3 
C 0.795609 3 1.55874 2.683901 2.12132 2.12132 
C 2.683901 1.55874 3 0.795609 3 0 
C 3 -0.795609 2.683901 -1.55874 2.12132 -2.12132 
C 1.55874 -2.683901 0.795609 -3 0 -3 
C -0.795609 -3 -1.55874 -2.683901 -2.12132 -2.12132 
C -2.683901 -1.55874 -3 -0.795609 -3 0 
C -3 0.795609 -2.683901 1.55874 -2.12132 2.12132 
C -1.55874 2.683901 -0.795609 3 0 3 
z
" id="m9d65fe4194" style="stroke:#a0ff56;"/>
    </defs>
    <g clip-path="url(#pc311ef45b1)">
     <use style="fill:#a0ff56;stroke:#a0ff56;" x="367.042813" xlink:href="#m9d65fe4194" y="146.041758"/>
     <use style="fill:#a0ff56;stroke:#a0ff56;" x="400.522813" xlink:href="#m9d65fe4194" y="116.367661"/>
     <use style="fill:#a0ff56;stroke:#a0ff56;" x="417.262813" xlink:href="#m9d65fe4194" y="113.832705"/>
     <use style="fill:#a0ff56;stroke:#a0ff56;" x="434.002813" xlink:href="#m9d65fe4194" y="116.430608"/>
     <use style="fill:#a0ff56;stroke:#a0ff56;" x="467.482813" xlink:href="#m9d65fe4194" y="184.694808"/>
     <use style="fill:#a0ff56;stroke:#a0ff56;" x="484.222813" xlink:href="#m9d65fe4194" y="166.421225"/>
     <use style="fill:#a0ff56;stroke:#a0ff56;" x="634.882813" xlink:href="#m9d65fe4194" y="160.769665"/>
     <use style="fill:#a0ff56;stroke:#a0ff56;" x="651.622813" xlink:href="#m9d65fe4194" y="148.696797"/>
    </g>
   </g>
   <g id="line2d_28">
    <path clip-path="url(#pc311ef45b1)" d="M 601.402813 148.581428 
L 618.142813 193.010687 
L 634.882813 242.293184 
L 651.622813 205.118383 
L 668.362813 207.956751 
" style="fill:none;stroke:#ffd700;stroke-linecap:square;stroke-width:1.5;"/>
    <defs>
     <path d="M 0 3 
C 0.795609 3 1.55874 2.683901 2.12132 2.12132 
C 2.683901 1.55874 3 0.795609 3 0 
C 3 -0.795609 2.683901 -1.55874 2.12132 -2.12132 
C 1.55874 -2.683901 0.795609 -3 0 -3 
C -0.795609 -3 -1.55874 -2.683901 -2.12132 -2.12132 
C -2.683901 -1.55874 -3 -0.795609 -3 0 
C -3 0.795609 -2.683901 1.55874 -2.12132 2.12132 
C -1.55874 2.683901 -0.795609 3 0 3 
z
" id="m284d904880" style="stroke:#ffd700;"/>
    </defs>
    <g clip-path="url(#pc311ef45b1)">
     <use style="fill:#ffd700;stroke:#ffd700;" x="601.402813" xlink:href="#m284d904880" y="148.581428"/>
     <use style="fill:#ffd700;stroke:#ffd700;" x="618.142813" xlink:href="#m284d904880" y="193.010687"/>
     <use style="fill:#ffd700;stroke:#ffd700;" x="634.882813" xlink:href="#m284d904880" y="242.293184"/>
     <use style="fill:#ffd700;stroke:#ffd700;" x="651.622813" xlink:href="#m284d904880" y="205.118383"/>
     <use style="fill:#ffd700;stroke:#ffd700;" x="668.362813" xlink:href="#m284d904880" y="207.956751"/>
    </g>
   </g>
   <g id="line2d_29">
    <path clip-path="url(#pc311ef45b1)" d="M 584.662813 270.392698 
L 601.402813 168.239853 
L 618.142813 213.004514 
L 634.882813 170.014791 
L 651.622813 149.16885 
" style="fill:none;stroke:#ffab00;stroke-linecap:square;stroke-width:1.5;"/>
    <defs>
     <path d="M 0 3 
C 0.795609 3 1.55874 2.683901 2.12132 2.12132 
C 2.683901 1.55874 3 0.795609 3 0 
C 3 -0.795609 2.683901 -1.55874 2.12132 -2.12132 
C 1.55874 -2.683901 0.795609 -3 0 -3 
C -0.795609 -3 -1.55874 -2.683901 -2.12132 -2.12132 
C -2.683901 -1.55874 -3 -0.795609 -3 0 
C -3 0.795609 -2.683901 1.55874 -2.12132 2.12132 
C -1.55874 2.683901 -0.795609 3 0 3 
z
" id="mf0e426875d" style="stroke:#ffab00;"/>
    </defs>
    <g clip-path="url(#pc311ef45b1)">
     <use style="fill:#ffab00;stroke:#ffab00;" x="584.662813" xlink:href="#mf0e426875d" y="270.392698"/>
     <use style="fill:#ffab00;stroke:#ffab00;" x="601.402813" xlink:href="#mf0e426875d" y="168.239853"/>
     <use style="fill:#ffab00;stroke:#ffab00;" x="618.142813" xlink:href="#mf0e426875d" y="213.004514"/>
     <use style="fill:#ffab00;stroke:#ffab00;" x="634.882813" xlink:href="#mf0e426875d" y="170.014791"/>
     <use style="fill:#ffab00;stroke:#ffab00;" x="651.622813" xlink:href="#mf0e426875d" y="149.16885"/>
    </g>
   </g>
   <g id="line2d_30">
    <path clip-path="url(#pc311ef45b1)" d="M 651.622813 187.761009 
L 668.362813 178.440788 
" style="fill:none;stroke:#ff5500;stroke-linecap:square;stroke-width:1.5;"/>
    <defs>
     <path d="M 0 3 
C 0.795609 3 1.55874 2.683901 2.12132 2.12132 
C 2.683901 1.55874 3 0.795609 3 0 
C 3 -0.795609 2.683901 -1.55874 2.12132 -2.12132 
C 1.55874 -2.683901 0.795609 -3 0 -3 
C -0.795609 -3 -1.55874 -2.683901 -2.12132 -2.12132 
C -2.683901 -1.55874 -3 -0.795609 -3 0 
C -3 0.795609 -2.683901 1.55874 -2.12132 2.12132 
C -1.55874 2.683901 -0.795609 3 0 3 
z
" id="m569b779e92" style="stroke:#ff5500;"/>
    </defs>
    <g clip-path="url(#pc311ef45b1)">
     <use style="fill:#ff5500;stroke:#ff5500;" x="651.622813" xlink:href="#m569b779e92" y="187.761009"/>
     <use style="fill:#ff5500;stroke:#ff5500;" x="668.362813" xlink:href="#m569b779e92" y="178.440788"/>
    </g>
   </g>
   <g id="line2d_31">
    <path clip-path="url(#pc311ef45b1)" d="M 651.622813 266.93373 
L 668.362813 227.358881 
" style="fill:none;stroke:#e80000;stroke-linecap:square;stroke-width:1.5;"/>
    <defs>
     <path d="M 0 3 
C 0.795609 3 1.55874 2.683901 2.12132 2.12132 
C 2.683901 1.55874 3 0.795609 3 0 
C 3 -0.795609 2.683901 -1.55874 2.12132 -2.12132 
C 1.55874 -2.683901 0.795609 -3 0 -3 
C -0.795609 -3 -1.55874 -2.683901 -2.12132 -2.12132 
C -2.683901 -1.55874 -3 -0.795609 -3 0 
C -3 0.795609 -2.683901 1.55874 -2.12132 2.12132 
C -1.55874 2.683901 -0.795609 3 0 3 
z
" id="mebf0e24bd8" style="stroke:#e80000;"/>
    </defs>
    <g clip-path="url(#pc311ef45b1)">
     <use style="fill:#e80000;stroke:#e80000;" x="651.622813" xlink:href="#mebf0e24bd8" y="266.93373"/>
     <use style="fill:#e80000;stroke:#e80000;" x="668.362813" xlink:href="#mebf0e24bd8" y="227.358881"/>
    </g>
   </g>
   <g id="patch_3">
    <path d="M 48.982813 316.078125 
L 48.982813 22.318125 
" style="fill:none;stroke:#000000;stroke-linecap:square;stroke-linejoin:miter;stroke-width:0.8;"/>
   </g>
   <g id="patch_4">
    <path d="M 718.582813 316.078125 
L 718.582813 22.318125 
" style="fill:none;stroke:#000000;stroke-linecap:square;stroke-linejoin:miter;stroke-width:0.8;"/>
   </g>
   <g id="patch_5">
    <path d="M 48.982813 316.078125 
L 718.582813 316.078125 
" style="fill:none;stroke:#000000;stroke-linecap:square;stroke-linejoin:miter;stroke-width:0.8;"/>
   </g>
   <g id="patch_6">
    <path d="M 48.982813 22.318125 
L 718.582813 22.318125 
" style="fill:none;stroke:#000000;stroke-linecap:square;stroke-linejoin:miter;stroke-width:0.8;"/>
   </g>
   <g id="text_22">
    <!-- stat&amp;prob models -->
    <defs>
     <path d="M 24.3125 39.203125 
Q 19.875 35.25 17.796875 31.3125 
Q 15.71875 27.390625 15.71875 23.09375 
Q 15.71875 15.96875 20.890625 11.234375 
Q 26.078125 6.5 33.890625 6.5 
Q 38.53125 6.5 42.578125 8.03125 
Q 46.625 9.578125 50.203125 12.703125 
z
M 31.203125 44.671875 
L 56 19.28125 
Q 58.890625 23.640625 60.5 28.59375 
Q 62.109375 33.546875 62.40625 39.109375 
L 71.484375 39.109375 
Q 70.90625 32.671875 68.359375 26.359375 
Q 65.828125 20.0625 61.28125 13.921875 
L 74.90625 0 
L 62.59375 0 
L 55.609375 7.171875 
Q 50.53125 2.828125 44.96875 0.703125 
Q 39.40625 -1.421875 33.015625 -1.421875 
Q 21.234375 -1.421875 13.765625 5.296875 
Q 6.296875 12.015625 6.296875 22.515625 
Q 6.296875 28.765625 9.5625 34.25 
Q 12.84375 39.75 19.390625 44.578125 
Q 17.046875 47.65625 15.8125 50.703125 
Q 14.59375 53.765625 14.59375 56.6875 
Q 14.59375 64.59375 20.015625 69.40625 
Q 25.4375 74.21875 34.421875 74.21875 
Q 38.484375 74.21875 42.5 73.34375 
Q 46.53125 72.46875 50.6875 70.703125 
L 50.6875 61.8125 
Q 46.4375 64.109375 42.578125 65.296875 
Q 38.71875 66.5 35.40625 66.5 
Q 30.28125 66.5 27.078125 63.78125 
Q 23.875 61.078125 23.875 56.78125 
Q 23.875 54.296875 25.3125 51.78125 
Q 26.765625 49.265625 31.203125 44.671875 
z
" id="DejaVuSans-38"/>
     <path d="M 48.6875 27.296875 
Q 48.6875 37.203125 44.609375 42.84375 
Q 40.53125 48.484375 33.40625 48.484375 
Q 26.265625 48.484375 22.1875 42.84375 
Q 18.109375 37.203125 18.109375 27.296875 
Q 18.109375 17.390625 22.1875 11.75 
Q 26.265625 6.109375 33.40625 6.109375 
Q 40.53125 6.109375 44.609375 11.75 
Q 48.6875 17.390625 48.6875 27.296875 
z
M 18.109375 46.390625 
Q 20.953125 51.265625 25.265625 53.625 
Q 29.59375 56 35.59375 56 
Q 45.5625 56 51.78125 48.09375 
Q 58.015625 40.1875 58.015625 27.296875 
Q 58.015625 14.40625 51.78125 6.484375 
Q 45.5625 -1.421875 35.59375 -1.421875 
Q 29.59375 -1.421875 25.265625 0.953125 
Q 20.953125 3.328125 18.109375 8.203125 
L 18.109375 0 
L 9.078125 0 
L 9.078125 75.984375 
L 18.109375 75.984375 
z
" id="DejaVuSans-98"/>
     <path d="M 52 44.1875 
Q 55.375 50.25 60.0625 53.125 
Q 64.75 56 71.09375 56 
Q 79.640625 56 84.28125 50.015625 
Q 88.921875 44.046875 88.921875 33.015625 
L 88.921875 0 
L 79.890625 0 
L 79.890625 32.71875 
Q 79.890625 40.578125 77.09375 44.375 
Q 74.3125 48.1875 68.609375 48.1875 
Q 61.625 48.1875 57.5625 43.546875 
Q 53.515625 38.921875 53.515625 30.90625 
L 53.515625 0 
L 44.484375 0 
L 44.484375 32.71875 
Q 44.484375 40.625 41.703125 44.40625 
Q 38.921875 48.1875 33.109375 48.1875 
Q 26.21875 48.1875 22.15625 43.53125 
Q 18.109375 38.875 18.109375 30.90625 
L 18.109375 0 
L 9.078125 0 
L 9.078125 54.6875 
L 18.109375 54.6875 
L 18.109375 46.1875 
Q 21.1875 51.21875 25.484375 53.609375 
Q 29.78125 56 35.6875 56 
Q 41.65625 56 45.828125 52.96875 
Q 50 49.953125 52 44.1875 
z
" id="DejaVuSans-109"/>
    </defs>
    <g transform="translate(330.26 16.318125)scale(0.12 -0.12)">
     <use xlink:href="#DejaVuSans-115"/>
     <use x="52.099609" xlink:href="#DejaVuSans-116"/>
     <use x="91.308594" xlink:href="#DejaVuSans-97"/>
     <use x="152.587891" xlink:href="#DejaVuSans-116"/>
     <use x="191.796875" xlink:href="#DejaVuSans-38"/>
     <use x="269.775391" xlink:href="#DejaVuSans-112"/>
     <use x="333.251953" xlink:href="#DejaVuSans-114"/>
     <use x="372.115234" xlink:href="#DejaVuSans-111"/>
     <use x="433.296875" xlink:href="#DejaVuSans-98"/>
     <use x="496.773438" xlink:href="#DejaVuSans-32"/>
     <use x="528.560547" xlink:href="#DejaVuSans-109"/>
     <use x="625.972656" xlink:href="#DejaVuSans-111"/>
     <use x="687.154297" xlink:href="#DejaVuSans-100"/>
     <use x="750.630859" xlink:href="#DejaVuSans-101"/>
     <use x="812.154297" xlink:href="#DejaVuSans-108"/>
     <use x="839.9375" xlink:href="#DejaVuSans-115"/>
    </g>
   </g>
   <g id="legend_1">
    <g id="patch_7">
     <path d="M 747.366813 316.078125 
L 898.885563 316.078125 
Q 900.885563 316.078125 900.885563 314.078125 
L 900.885563 94.10625 
Q 900.885563 92.10625 898.885563 92.10625 
L 747.366813 92.10625 
Q 745.366813 92.10625 745.366813 94.10625 
L 745.366813 314.078125 
Q 745.366813 316.078125 747.366813 316.078125 
z
" style="fill:#ffffff;opacity:0.8;stroke:#cccccc;stroke-linejoin:miter;"/>
    </g>
    <g id="line2d_32">
     <path d="M 749.366813 100.204687 
L 769.366813 100.204687 
" style="fill:none;stroke:#000080;stroke-linecap:square;stroke-width:1.5;"/>
    </g>
    <g id="line2d_33">
     <g>
      <use style="fill:#000080;stroke:#000080;" x="759.366813" xlink:href="#mc312f07c95" y="100.204687"/>
     </g>
    </g>
    <g id="text_23">
     <!-- Columbia_UNC:SurvCon -->
     <defs>
      <path d="M 64.40625 67.28125 
L 64.40625 56.890625 
Q 59.421875 61.53125 53.78125 63.8125 
Q 48.140625 66.109375 41.796875 66.109375 
Q 29.296875 66.109375 22.65625 58.46875 
Q 16.015625 50.828125 16.015625 36.375 
Q 16.015625 21.96875 22.65625 14.328125 
Q 29.296875 6.6875 41.796875 6.6875 
Q 48.140625 6.6875 53.78125 8.984375 
Q 59.421875 11.28125 64.40625 15.921875 
L 64.40625 5.609375 
Q 59.234375 2.09375 53.4375 0.328125 
Q 47.65625 -1.421875 41.21875 -1.421875 
Q 24.65625 -1.421875 15.125 8.703125 
Q 5.609375 18.84375 5.609375 36.375 
Q 5.609375 53.953125 15.125 64.078125 
Q 24.65625 74.21875 41.21875 74.21875 
Q 47.75 74.21875 53.53125 72.484375 
Q 59.328125 70.75 64.40625 67.28125 
z
" id="DejaVuSans-67"/>
      <path d="M 50.984375 -16.609375 
L 50.984375 -23.578125 
L -0.984375 -23.578125 
L -0.984375 -16.609375 
z
" id="DejaVuSans-95"/>
      <path d="M 8.6875 72.90625 
L 18.609375 72.90625 
L 18.609375 28.609375 
Q 18.609375 16.890625 22.84375 11.734375 
Q 27.09375 6.59375 36.625 6.59375 
Q 46.09375 6.59375 50.34375 11.734375 
Q 54.59375 16.890625 54.59375 28.609375 
L 54.59375 72.90625 
L 64.5 72.90625 
L 64.5 27.390625 
Q 64.5 13.140625 57.4375 5.859375 
Q 50.390625 -1.421875 36.625 -1.421875 
Q 22.796875 -1.421875 15.734375 5.859375 
Q 8.6875 13.140625 8.6875 27.390625 
z
" id="DejaVuSans-85"/>
      <path d="M 11.71875 12.40625 
L 22.015625 12.40625 
L 22.015625 0 
L 11.71875 0 
z
M 11.71875 51.703125 
L 22.015625 51.703125 
L 22.015625 39.3125 
L 11.71875 39.3125 
z
" id="DejaVuSans-58"/>
     </defs>
     <g transform="translate(777.366813 103.704687)scale(0.1 -0.1)">
      <use xlink:href="#DejaVuSans-67"/>
      <use x="69.824219" xlink:href="#DejaVuSans-111"/>
      <use x="131.005859" xlink:href="#DejaVuSans-108"/>
      <use x="158.789062" xlink:href="#DejaVuSans-117"/>
      <use x="222.167969" xlink:href="#DejaVuSans-109"/>
      <use x="319.580078" xlink:href="#DejaVuSans-98"/>
      <use x="383.056641" xlink:href="#DejaVuSans-105"/>
      <use x="410.839844" xlink:href="#DejaVuSans-97"/>
      <use x="472.119141" xlink:href="#DejaVuSans-95"/>
      <use x="522.119141" xlink:href="#DejaVuSans-85"/>
      <use x="595.3125" xlink:href="#DejaVuSans-78"/>
      <use x="670.117188" xlink:href="#DejaVuSans-67"/>
      <use x="739.941406" xlink:href="#DejaVuSans-58"/>
      <use x="773.632812" xlink:href="#DejaVuSans-83"/>
      <use x="837.109375" xlink:href="#DejaVuSans-117"/>
      <use x="900.488281" xlink:href="#DejaVuSans-114"/>
      <use x="941.601562" xlink:href="#DejaVuSans-118"/>
      <use x="1000.78125" xlink:href="#DejaVuSans-67"/>
      <use x="1070.605469" xlink:href="#DejaVuSans-111"/>
      <use x="1131.787109" xlink:href="#DejaVuSans-110"/>
     </g>
    </g>
    <g id="line2d_34">
     <path d="M 749.366813 119.160937 
L 769.366813 119.160937 
" style="fill:none;stroke:#0000b2;stroke-linecap:square;stroke-width:1.5;"/>
    </g>
    <g id="line2d_35">
     <g>
      <use style="fill:#0000b2;stroke:#0000b2;" x="759.366813" xlink:href="#m3688ddc33f" y="119.160937"/>
     </g>
    </g>
    <g id="text_24">
     <!-- COVIDhub:baseline -->
     <defs>
      <path d="M 28.609375 0 
L 0.78125 72.90625 
L 11.078125 72.90625 
L 34.1875 11.53125 
L 57.328125 72.90625 
L 67.578125 72.90625 
L 39.796875 0 
z
" id="DejaVuSans-86"/>
      <path d="M 9.8125 72.90625 
L 19.671875 72.90625 
L 19.671875 0 
L 9.8125 0 
z
" id="DejaVuSans-73"/>
      <path d="M 54.890625 33.015625 
L 54.890625 0 
L 45.90625 0 
L 45.90625 32.71875 
Q 45.90625 40.484375 42.875 44.328125 
Q 39.84375 48.1875 33.796875 48.1875 
Q 26.515625 48.1875 22.3125 43.546875 
Q 18.109375 38.921875 18.109375 30.90625 
L 18.109375 0 
L 9.078125 0 
L 9.078125 75.984375 
L 18.109375 75.984375 
L 18.109375 46.1875 
Q 21.34375 51.125 25.703125 53.5625 
Q 30.078125 56 35.796875 56 
Q 45.21875 56 50.046875 50.171875 
Q 54.890625 44.34375 54.890625 33.015625 
z
" id="DejaVuSans-104"/>
     </defs>
     <g transform="translate(777.366813 122.660937)scale(0.1 -0.1)">
      <use xlink:href="#DejaVuSans-67"/>
      <use x="69.824219" xlink:href="#DejaVuSans-79"/>
      <use x="146.785156" xlink:href="#DejaVuSans-86"/>
      <use x="215.193359" xlink:href="#DejaVuSans-73"/>
      <use x="244.685547" xlink:href="#DejaVuSans-68"/>
      <use x="321.6875" xlink:href="#DejaVuSans-104"/>
      <use x="385.066406" xlink:href="#DejaVuSans-117"/>
      <use x="448.445312" xlink:href="#DejaVuSans-98"/>
      <use x="511.921875" xlink:href="#DejaVuSans-58"/>
      <use x="545.613281" xlink:href="#DejaVuSans-98"/>
      <use x="609.089844" xlink:href="#DejaVuSans-97"/>
      <use x="670.369141" xlink:href="#DejaVuSans-115"/>
      <use x="722.46875" xlink:href="#DejaVuSans-101"/>
      <use x="783.992188" xlink:href="#DejaVuSans-108"/>
      <use x="811.775391" xlink:href="#DejaVuSans-105"/>
      <use x="839.558594" xlink:href="#DejaVuSans-110"/>
      <use x="902.9375" xlink:href="#DejaVuSans-101"/>
     </g>
    </g>
    <g id="line2d_36">
     <path d="M 749.366813 137.839062 
L 769.366813 137.839062 
" style="fill:none;stroke:#0000e8;stroke-linecap:square;stroke-width:1.5;"/>
    </g>
    <g id="line2d_37">
     <g>
      <use style="fill:#0000e8;stroke:#0000e8;" x="759.366813" xlink:href="#md3ee567f8d" y="137.839062"/>
     </g>
    </g>
    <g id="text_25">
     <!-- DDS:NBDS -->
     <defs>
      <path d="M 19.671875 34.8125 
L 19.671875 8.109375 
L 35.5 8.109375 
Q 43.453125 8.109375 47.28125 11.40625 
Q 51.125 14.703125 51.125 21.484375 
Q 51.125 28.328125 47.28125 31.5625 
Q 43.453125 34.8125 35.5 34.8125 
z
M 19.671875 64.796875 
L 19.671875 42.828125 
L 34.28125 42.828125 
Q 41.5 42.828125 45.03125 45.53125 
Q 48.578125 48.25 48.578125 53.8125 
Q 48.578125 59.328125 45.03125 62.0625 
Q 41.5 64.796875 34.28125 64.796875 
z
M 9.8125 72.90625 
L 35.015625 72.90625 
Q 46.296875 72.90625 52.390625 68.21875 
Q 58.5 63.53125 58.5 54.890625 
Q 58.5 48.1875 55.375 44.234375 
Q 52.25 40.28125 46.1875 39.3125 
Q 53.46875 37.75 57.5 32.78125 
Q 61.53125 27.828125 61.53125 20.40625 
Q 61.53125 10.640625 54.890625 5.3125 
Q 48.25 0 35.984375 0 
L 9.8125 0 
z
" id="DejaVuSans-66"/>
     </defs>
     <g transform="translate(777.366813 141.339062)scale(0.1 -0.1)">
      <use xlink:href="#DejaVuSans-68"/>
      <use x="77.001953" xlink:href="#DejaVuSans-68"/>
      <use x="154.003906" xlink:href="#DejaVuSans-83"/>
      <use x="217.480469" xlink:href="#DejaVuSans-58"/>
      <use x="251.171875" xlink:href="#DejaVuSans-78"/>
      <use x="325.976562" xlink:href="#DejaVuSans-66"/>
      <use x="394.580078" xlink:href="#DejaVuSans-68"/>
      <use x="471.582031" xlink:href="#DejaVuSans-83"/>
     </g>
    </g>
    <g id="line2d_38">
     <path d="M 749.366813 156.517187 
L 769.366813 156.517187 
" style="fill:none;stroke:#0068ff;stroke-linecap:square;stroke-width:1.5;"/>
    </g>
    <g id="line2d_39">
     <g>
      <use style="fill:#0068ff;stroke:#0068ff;" x="759.366813" xlink:href="#m69310da950" y="156.517187"/>
     </g>
    </g>
    <g id="text_26">
     <!-- IHME:CurveFit -->
     <defs>
      <path d="M 9.8125 72.90625 
L 19.671875 72.90625 
L 19.671875 43.015625 
L 55.515625 43.015625 
L 55.515625 72.90625 
L 65.375 72.90625 
L 65.375 0 
L 55.515625 0 
L 55.515625 34.71875 
L 19.671875 34.71875 
L 19.671875 0 
L 9.8125 0 
z
" id="DejaVuSans-72"/>
      <path d="M 9.8125 72.90625 
L 51.703125 72.90625 
L 51.703125 64.59375 
L 19.671875 64.59375 
L 19.671875 43.109375 
L 48.578125 43.109375 
L 48.578125 34.8125 
L 19.671875 34.8125 
L 19.671875 0 
L 9.8125 0 
z
" id="DejaVuSans-70"/>
     </defs>
     <g transform="translate(777.366813 160.017187)scale(0.1 -0.1)">
      <use xlink:href="#DejaVuSans-73"/>
      <use x="29.492188" xlink:href="#DejaVuSans-72"/>
      <use x="104.6875" xlink:href="#DejaVuSans-77"/>
      <use x="190.966797" xlink:href="#DejaVuSans-69"/>
      <use x="254.150391" xlink:href="#DejaVuSans-58"/>
      <use x="287.841797" xlink:href="#DejaVuSans-67"/>
      <use x="357.666016" xlink:href="#DejaVuSans-117"/>
      <use x="421.044922" xlink:href="#DejaVuSans-114"/>
      <use x="462.158203" xlink:href="#DejaVuSans-118"/>
      <use x="521.337891" xlink:href="#DejaVuSans-101"/>
      <use x="582.861328" xlink:href="#DejaVuSans-70"/>
      <use x="633.130859" xlink:href="#DejaVuSans-105"/>
      <use x="660.914062" xlink:href="#DejaVuSans-116"/>
     </g>
    </g>
    <g id="line2d_40">
     <path d="M 749.366813 175.195312 
L 769.366813 175.195312 
" style="fill:none;stroke:#0094ff;stroke-linecap:square;stroke-width:1.5;"/>
    </g>
    <g id="line2d_41">
     <g>
      <use style="fill:#0094ff;stroke:#0094ff;" x="759.366813" xlink:href="#m951f143fea" y="175.195312"/>
     </g>
    </g>
    <g id="text_27">
     <!-- IowaStateLW:STEM -->
     <defs>
      <path d="M 9.8125 72.90625 
L 19.671875 72.90625 
L 19.671875 8.296875 
L 55.171875 8.296875 
L 55.171875 0 
L 9.8125 0 
z
" id="DejaVuSans-76"/>
      <path d="M 3.328125 72.90625 
L 13.28125 72.90625 
L 28.609375 11.28125 
L 43.890625 72.90625 
L 54.984375 72.90625 
L 70.3125 11.28125 
L 85.59375 72.90625 
L 95.609375 72.90625 
L 77.296875 0 
L 64.890625 0 
L 49.515625 63.28125 
L 33.984375 0 
L 21.578125 0 
z
" id="DejaVuSans-87"/>
     </defs>
     <g transform="translate(777.366813 178.695312)scale(0.1 -0.1)">
      <use xlink:href="#DejaVuSans-73"/>
      <use x="29.492188" xlink:href="#DejaVuSans-111"/>
      <use x="90.673828" xlink:href="#DejaVuSans-119"/>
      <use x="172.460938" xlink:href="#DejaVuSans-97"/>
      <use x="233.740234" xlink:href="#DejaVuSans-83"/>
      <use x="297.216797" xlink:href="#DejaVuSans-116"/>
      <use x="336.425781" xlink:href="#DejaVuSans-97"/>
      <use x="397.705078" xlink:href="#DejaVuSans-116"/>
      <use x="436.914062" xlink:href="#DejaVuSans-101"/>
      <use x="498.4375" xlink:href="#DejaVuSans-76"/>
      <use x="545.025391" xlink:href="#DejaVuSans-87"/>
      <use x="638.027344" xlink:href="#DejaVuSans-58"/>
      <use x="671.71875" xlink:href="#DejaVuSans-83"/>
      <use x="735.195312" xlink:href="#DejaVuSans-84"/>
      <use x="796.279297" xlink:href="#DejaVuSans-69"/>
      <use x="859.462891" xlink:href="#DejaVuSans-77"/>
     </g>
    </g>
    <g id="line2d_42">
     <path d="M 749.366813 193.873437 
L 769.366813 193.873437 
" style="fill:none;stroke:#00c4ff;stroke-linecap:square;stroke-width:1.5;"/>
    </g>
    <g id="line2d_43">
     <g>
      <use style="fill:#00c4ff;stroke:#00c4ff;" x="759.366813" xlink:href="#m4ac97606e4" y="193.873437"/>
     </g>
    </g>
    <g id="text_28">
     <!-- LANL:GrowthRate -->
     <defs>
      <path d="M 59.515625 10.40625 
L 59.515625 29.984375 
L 43.40625 29.984375 
L 43.40625 38.09375 
L 69.28125 38.09375 
L 69.28125 6.78125 
Q 63.578125 2.734375 56.6875 0.65625 
Q 49.8125 -1.421875 42 -1.421875 
Q 24.90625 -1.421875 15.25 8.5625 
Q 5.609375 18.5625 5.609375 36.375 
Q 5.609375 54.25 15.25 64.234375 
Q 24.90625 74.21875 42 74.21875 
Q 49.125 74.21875 55.546875 72.453125 
Q 61.96875 70.703125 67.390625 67.28125 
L 67.390625 56.78125 
Q 61.921875 61.421875 55.765625 63.765625 
Q 49.609375 66.109375 42.828125 66.109375 
Q 29.4375 66.109375 22.71875 58.640625 
Q 16.015625 51.171875 16.015625 36.375 
Q 16.015625 21.625 22.71875 14.15625 
Q 29.4375 6.6875 42.828125 6.6875 
Q 48.046875 6.6875 52.140625 7.59375 
Q 56.25 8.5 59.515625 10.40625 
z
" id="DejaVuSans-71"/>
      <path d="M 44.390625 34.1875 
Q 47.5625 33.109375 50.5625 29.59375 
Q 53.5625 26.078125 56.59375 19.921875 
L 66.609375 0 
L 56 0 
L 46.6875 18.703125 
Q 43.0625 26.03125 39.671875 28.421875 
Q 36.28125 30.8125 30.421875 30.8125 
L 19.671875 30.8125 
L 19.671875 0 
L 9.8125 0 
L 9.8125 72.90625 
L 32.078125 72.90625 
Q 44.578125 72.90625 50.734375 67.671875 
Q 56.890625 62.453125 56.890625 51.90625 
Q 56.890625 45.015625 53.6875 40.46875 
Q 50.484375 35.9375 44.390625 34.1875 
z
M 19.671875 64.796875 
L 19.671875 38.921875 
L 32.078125 38.921875 
Q 39.203125 38.921875 42.84375 42.21875 
Q 46.484375 45.515625 46.484375 51.90625 
Q 46.484375 58.296875 42.84375 61.546875 
Q 39.203125 64.796875 32.078125 64.796875 
z
" id="DejaVuSans-82"/>
     </defs>
     <g transform="translate(777.366813 197.373437)scale(0.1 -0.1)">
      <use xlink:href="#DejaVuSans-76"/>
      <use x="57.962891" xlink:href="#DejaVuSans-65"/>
      <use x="126.371094" xlink:href="#DejaVuSans-78"/>
      <use x="201.175781" xlink:href="#DejaVuSans-76"/>
      <use x="256.888672" xlink:href="#DejaVuSans-58"/>
      <use x="290.580078" xlink:href="#DejaVuSans-71"/>
      <use x="368.070312" xlink:href="#DejaVuSans-114"/>
      <use x="406.933594" xlink:href="#DejaVuSans-111"/>
      <use x="468.115234" xlink:href="#DejaVuSans-119"/>
      <use x="549.902344" xlink:href="#DejaVuSans-116"/>
      <use x="589.111328" xlink:href="#DejaVuSans-104"/>
      <use x="652.490234" xlink:href="#DejaVuSans-82"/>
      <use x="719.722656" xlink:href="#DejaVuSans-97"/>
      <use x="781.001953" xlink:href="#DejaVuSans-116"/>
      <use x="820.210938" xlink:href="#DejaVuSans-101"/>
     </g>
    </g>
    <g id="line2d_44">
     <path d="M 749.366813 212.551562 
L 769.366813 212.551562 
" style="fill:none;stroke:#0cf4eb;stroke-linecap:square;stroke-width:1.5;"/>
    </g>
    <g id="line2d_45">
     <g>
      <use style="fill:#0cf4eb;stroke:#0cf4eb;" x="759.366813" xlink:href="#m0dbd28474e" y="212.551562"/>
     </g>
    </g>
    <g id="text_29">
     <!-- QJHong:Encounter -->
     <defs>
      <path d="M 39.40625 66.21875 
Q 28.65625 66.21875 22.328125 58.203125 
Q 16.015625 50.203125 16.015625 36.375 
Q 16.015625 22.609375 22.328125 14.59375 
Q 28.65625 6.59375 39.40625 6.59375 
Q 50.140625 6.59375 56.421875 14.59375 
Q 62.703125 22.609375 62.703125 36.375 
Q 62.703125 50.203125 56.421875 58.203125 
Q 50.140625 66.21875 39.40625 66.21875 
z
M 53.21875 1.3125 
L 66.21875 -12.890625 
L 54.296875 -12.890625 
L 43.5 -1.21875 
Q 41.890625 -1.3125 41.03125 -1.359375 
Q 40.1875 -1.421875 39.40625 -1.421875 
Q 24.03125 -1.421875 14.8125 8.859375 
Q 5.609375 19.140625 5.609375 36.375 
Q 5.609375 53.65625 14.8125 63.9375 
Q 24.03125 74.21875 39.40625 74.21875 
Q 54.734375 74.21875 63.90625 63.9375 
Q 73.09375 53.65625 73.09375 36.375 
Q 73.09375 23.6875 67.984375 14.640625 
Q 62.890625 5.609375 53.21875 1.3125 
z
" id="DejaVuSans-81"/>
     </defs>
     <g transform="translate(777.366813 216.051562)scale(0.1 -0.1)">
      <use xlink:href="#DejaVuSans-81"/>
      <use x="78.710938" xlink:href="#DejaVuSans-74"/>
      <use x="108.203125" xlink:href="#DejaVuSans-72"/>
      <use x="183.398438" xlink:href="#DejaVuSans-111"/>
      <use x="244.580078" xlink:href="#DejaVuSans-110"/>
      <use x="307.958984" xlink:href="#DejaVuSans-103"/>
      <use x="371.435547" xlink:href="#DejaVuSans-58"/>
      <use x="405.126953" xlink:href="#DejaVuSans-69"/>
      <use x="468.310547" xlink:href="#DejaVuSans-110"/>
      <use x="531.689453" xlink:href="#DejaVuSans-99"/>
      <use x="586.669922" xlink:href="#DejaVuSans-111"/>
      <use x="647.851562" xlink:href="#DejaVuSans-117"/>
      <use x="711.230469" xlink:href="#DejaVuSans-110"/>
      <use x="774.609375" xlink:href="#DejaVuSans-116"/>
      <use x="813.818359" xlink:href="#DejaVuSans-101"/>
      <use x="875.341797" xlink:href="#DejaVuSans-114"/>
     </g>
    </g>
    <g id="line2d_46">
     <path d="M 749.366813 231.229687 
L 769.366813 231.229687 
" style="fill:none;stroke:#a0ff56;stroke-linecap:square;stroke-width:1.5;"/>
    </g>
    <g id="line2d_47">
     <g>
      <use style="fill:#a0ff56;stroke:#a0ff56;" x="759.366813" xlink:href="#m9d65fe4194" y="231.229687"/>
     </g>
    </g>
    <g id="text_30">
     <!-- CEID:Walk -->
     <g transform="translate(777.366813 234.729687)scale(0.1 -0.1)">
      <use xlink:href="#DejaVuSans-67"/>
      <use x="69.824219" xlink:href="#DejaVuSans-69"/>
      <use x="133.007812" xlink:href="#DejaVuSans-73"/>
      <use x="162.5" xlink:href="#DejaVuSans-68"/>
      <use x="239.501953" xlink:href="#DejaVuSans-58"/>
      <use x="273.193359" xlink:href="#DejaVuSans-87"/>
      <use x="365.695312" xlink:href="#DejaVuSans-97"/>
      <use x="426.974609" xlink:href="#DejaVuSans-108"/>
      <use x="454.757812" xlink:href="#DejaVuSans-107"/>
     </g>
    </g>
    <g id="line2d_48">
     <path d="M 749.366813 249.907812 
L 769.366813 249.907812 
" style="fill:none;stroke:#ffd700;stroke-linecap:square;stroke-width:1.5;"/>
    </g>
    <g id="line2d_49">
     <g>
      <use style="fill:#ffd700;stroke:#ffd700;" x="759.366813" xlink:href="#m284d904880" y="249.907812"/>
     </g>
    </g>
    <g id="text_31">
     <!-- JCB:PRM -->
     <defs>
      <path d="M 19.671875 64.796875 
L 19.671875 37.40625 
L 32.078125 37.40625 
Q 38.96875 37.40625 42.71875 40.96875 
Q 46.484375 44.53125 46.484375 51.125 
Q 46.484375 57.671875 42.71875 61.234375 
Q 38.96875 64.796875 32.078125 64.796875 
z
M 9.8125 72.90625 
L 32.078125 72.90625 
Q 44.34375 72.90625 50.609375 67.359375 
Q 56.890625 61.8125 56.890625 51.125 
Q 56.890625 40.328125 50.609375 34.8125 
Q 44.34375 29.296875 32.078125 29.296875 
L 19.671875 29.296875 
L 19.671875 0 
L 9.8125 0 
z
" id="DejaVuSans-80"/>
     </defs>
     <g transform="translate(777.366813 253.407812)scale(0.1 -0.1)">
      <use xlink:href="#DejaVuSans-74"/>
      <use x="29.492188" xlink:href="#DejaVuSans-67"/>
      <use x="99.316406" xlink:href="#DejaVuSans-66"/>
      <use x="167.919922" xlink:href="#DejaVuSans-58"/>
      <use x="201.611328" xlink:href="#DejaVuSans-80"/>
      <use x="261.914062" xlink:href="#DejaVuSans-82"/>
      <use x="331.396484" xlink:href="#DejaVuSans-77"/>
     </g>
    </g>
    <g id="line2d_50">
     <path d="M 749.366813 268.585937 
L 769.366813 268.585937 
" style="fill:none;stroke:#ffab00;stroke-linecap:square;stroke-width:1.5;"/>
    </g>
    <g id="line2d_51">
     <g>
      <use style="fill:#ffab00;stroke:#ffab00;" x="759.366813" xlink:href="#mf0e426875d" y="268.585937"/>
     </g>
    </g>
    <g id="text_32">
     <!-- JHU_CSSE:DECOM -->
     <g transform="translate(777.366813 272.085937)scale(0.1 -0.1)">
      <use xlink:href="#DejaVuSans-74"/>
      <use x="29.492188" xlink:href="#DejaVuSans-72"/>
      <use x="104.6875" xlink:href="#DejaVuSans-85"/>
      <use x="177.880859" xlink:href="#DejaVuSans-95"/>
      <use x="227.880859" xlink:href="#DejaVuSans-67"/>
      <use x="297.705078" xlink:href="#DejaVuSans-83"/>
      <use x="361.181641" xlink:href="#DejaVuSans-83"/>
      <use x="424.658203" xlink:href="#DejaVuSans-69"/>
      <use x="487.841797" xlink:href="#DejaVuSans-58"/>
      <use x="521.533203" xlink:href="#DejaVuSans-68"/>
      <use x="598.535156" xlink:href="#DejaVuSans-69"/>
      <use x="661.71875" xlink:href="#DejaVuSans-67"/>
      <use x="731.542969" xlink:href="#DejaVuSans-79"/>
      <use x="810.253906" xlink:href="#DejaVuSans-77"/>
     </g>
    </g>
    <g id="line2d_52">
     <path d="M 749.366813 287.542187 
L 769.366813 287.542187 
" style="fill:none;stroke:#ff5500;stroke-linecap:square;stroke-width:1.5;"/>
    </g>
    <g id="line2d_53">
     <g>
      <use style="fill:#ff5500;stroke:#ff5500;" x="759.366813" xlink:href="#m569b779e92" y="287.542187"/>
     </g>
    </g>
    <g id="text_33">
     <!-- IEM_MED:CovidProject -->
     <defs>
      <path d="M 9.421875 54.6875 
L 18.40625 54.6875 
L 18.40625 -0.984375 
Q 18.40625 -11.421875 14.421875 -16.109375 
Q 10.453125 -20.796875 1.609375 -20.796875 
L -1.8125 -20.796875 
L -1.8125 -13.1875 
L 0.59375 -13.1875 
Q 5.71875 -13.1875 7.5625 -10.8125 
Q 9.421875 -8.453125 9.421875 -0.984375 
z
M 9.421875 75.984375 
L 18.40625 75.984375 
L 18.40625 64.59375 
L 9.421875 64.59375 
z
" id="DejaVuSans-106"/>
     </defs>
     <g transform="translate(777.366813 291.042187)scale(0.1 -0.1)">
      <use xlink:href="#DejaVuSans-73"/>
      <use x="29.492188" xlink:href="#DejaVuSans-69"/>
      <use x="92.675781" xlink:href="#DejaVuSans-77"/>
      <use x="178.955078" xlink:href="#DejaVuSans-95"/>
      <use x="228.955078" xlink:href="#DejaVuSans-77"/>
      <use x="315.234375" xlink:href="#DejaVuSans-69"/>
      <use x="378.417969" xlink:href="#DejaVuSans-68"/>
      <use x="455.419922" xlink:href="#DejaVuSans-58"/>
      <use x="489.111328" xlink:href="#DejaVuSans-67"/>
      <use x="558.935547" xlink:href="#DejaVuSans-111"/>
      <use x="620.117188" xlink:href="#DejaVuSans-118"/>
      <use x="679.296875" xlink:href="#DejaVuSans-105"/>
      <use x="707.080078" xlink:href="#DejaVuSans-100"/>
      <use x="770.556641" xlink:href="#DejaVuSans-80"/>
      <use x="829.109375" xlink:href="#DejaVuSans-114"/>
      <use x="867.972656" xlink:href="#DejaVuSans-111"/>
      <use x="929.154297" xlink:href="#DejaVuSans-106"/>
      <use x="956.9375" xlink:href="#DejaVuSans-101"/>
      <use x="1018.460938" xlink:href="#DejaVuSans-99"/>
      <use x="1073.441406" xlink:href="#DejaVuSans-116"/>
     </g>
    </g>
    <g id="line2d_54">
     <path d="M 749.366813 306.498437 
L 769.366813 306.498437 
" style="fill:none;stroke:#e80000;stroke-linecap:square;stroke-width:1.5;"/>
    </g>
    <g id="line2d_55">
     <g>
      <use style="fill:#e80000;stroke:#e80000;" x="759.366813" xlink:href="#mebf0e24bd8" y="306.498437"/>
     </g>
    </g>
    <g id="text_34">
     <!-- OneQuietNight:ML -->
     <g transform="translate(777.366813 309.998437)scale(0.1 -0.1)">
      <use xlink:href="#DejaVuSans-79"/>
      <use x="78.710938" xlink:href="#DejaVuSans-110"/>
      <use x="142.089844" xlink:href="#DejaVuSans-101"/>
      <use x="203.613281" xlink:href="#DejaVuSans-81"/>
      <use x="282.324219" xlink:href="#DejaVuSans-117"/>
      <use x="345.703125" xlink:href="#DejaVuSans-105"/>
      <use x="373.486328" xlink:href="#DejaVuSans-101"/>
      <use x="435.009766" xlink:href="#DejaVuSans-116"/>
      <use x="474.21875" xlink:href="#DejaVuSans-78"/>
      <use x="549.023438" xlink:href="#DejaVuSans-105"/>
      <use x="576.806641" xlink:href="#DejaVuSans-103"/>
      <use x="640.283203" xlink:href="#DejaVuSans-104"/>
      <use x="703.662109" xlink:href="#DejaVuSans-116"/>
      <use x="742.871094" xlink:href="#DejaVuSans-58"/>
      <use x="776.5625" xlink:href="#DejaVuSans-77"/>
      <use x="862.841797" xlink:href="#DejaVuSans-76"/>
     </g>
    </g>
   </g>
  </g>
 </g>
 <defs>
  <clipPath id="pc311ef45b1">
   <rect height="293.76" width="669.6" x="48.982813" y="22.318125"/>
  </clipPath>
 </defs>
</svg>
