<?xml version="1.0" encoding="utf-8" standalone="no"?>
<!DOCTYPE svg PUBLIC "-//W3C//DTD SVG 1.1//EN"
  "http://www.w3.org/Graphics/SVG/1.1/DTD/svg11.dtd">
<!-- Created with matplotlib (https://matplotlib.org/) -->
<svg height="376.664358pt" version="1.1" viewBox="0 0 903.288687 376.664358" width="903.288687pt" xmlns="http://www.w3.org/2000/svg" xmlns:xlink="http://www.w3.org/1999/xlink">
 <defs>
  <style type="text/css">
*{stroke-linecap:butt;stroke-linejoin:round;}
  </style>
 </defs>
 <g id="figure_1">
  <g id="patch_1">
   <path d="M 0 376.664358 
L 903.288687 376.664358 
L 903.288687 0 
L 0 0 
z
" style="fill:#ffffff;"/>
  </g>
  <g id="axes_1">
   <g id="patch_2">
    <path d="M 58.523438 316.078125 
L 728.123438 316.078125 
L 728.123438 22.318125 
L 58.523438 22.318125 
z
" style="fill:#ffffff;"/>
   </g>
   <g id="matplotlib.axis_1">
    <g id="xtick_1">
     <g id="line2d_1">
      <defs>
       <path d="M 0 0 
L 0 3.5 
" id="me36ce44698" style="stroke:#000000;stroke-width:0.8;"/>
      </defs>
      <g>
       <use style="stroke:#000000;stroke-width:0.8;" x="58.523438" xlink:href="#me36ce44698" y="316.078125"/>
      </g>
     </g>
     <g id="text_1">
      <!-- Apr 25 -->
      <defs>
       <path d="M 34.1875 63.1875 
L 20.796875 26.90625 
L 47.609375 26.90625 
z
M 28.609375 72.90625 
L 39.796875 72.90625 
L 67.578125 0 
L 57.328125 0 
L 50.6875 18.703125 
L 17.828125 18.703125 
L 11.1875 0 
L 0.78125 0 
z
" id="DejaVuSans-65"/>
       <path d="M 18.109375 8.203125 
L 18.109375 -20.796875 
L 9.078125 -20.796875 
L 9.078125 54.6875 
L 18.109375 54.6875 
L 18.109375 46.390625 
Q 20.953125 51.265625 25.265625 53.625 
Q 29.59375 56 35.59375 56 
Q 45.5625 56 51.78125 48.09375 
Q 58.015625 40.1875 58.015625 27.296875 
Q 58.015625 14.40625 51.78125 6.484375 
Q 45.5625 -1.421875 35.59375 -1.421875 
Q 29.59375 -1.421875 25.265625 0.953125 
Q 20.953125 3.328125 18.109375 8.203125 
z
M 48.6875 27.296875 
Q 48.6875 37.203125 44.609375 42.84375 
Q 40.53125 48.484375 33.40625 48.484375 
Q 26.265625 48.484375 22.1875 42.84375 
Q 18.109375 37.203125 18.109375 27.296875 
Q 18.109375 17.390625 22.1875 11.75 
Q 26.265625 6.109375 33.40625 6.109375 
Q 40.53125 6.109375 44.609375 11.75 
Q 48.6875 17.390625 48.6875 27.296875 
z
" id="DejaVuSans-112"/>
       <path d="M 41.109375 46.296875 
Q 39.59375 47.171875 37.8125 47.578125 
Q 36.03125 48 33.890625 48 
Q 26.265625 48 22.1875 43.046875 
Q 18.109375 38.09375 18.109375 28.8125 
L 18.109375 0 
L 9.078125 0 
L 9.078125 54.6875 
L 18.109375 54.6875 
L 18.109375 46.1875 
Q 20.953125 51.171875 25.484375 53.578125 
Q 30.03125 56 36.53125 56 
Q 37.453125 56 38.578125 55.875 
Q 39.703125 55.765625 41.0625 55.515625 
z
" id="DejaVuSans-114"/>
       <path id="DejaVuSans-32"/>
       <path d="M 19.1875 8.296875 
L 53.609375 8.296875 
L 53.609375 0 
L 7.328125 0 
L 7.328125 8.296875 
Q 12.9375 14.109375 22.625 23.890625 
Q 32.328125 33.6875 34.8125 36.53125 
Q 39.546875 41.84375 41.421875 45.53125 
Q 43.3125 49.21875 43.3125 52.78125 
Q 43.3125 58.59375 39.234375 62.25 
Q 35.15625 65.921875 28.609375 65.921875 
Q 23.96875 65.921875 18.8125 64.3125 
Q 13.671875 62.703125 7.8125 59.421875 
L 7.8125 69.390625 
Q 13.765625 71.78125 18.9375 73 
Q 24.125 74.21875 28.421875 74.21875 
Q 39.75 74.21875 46.484375 68.546875 
Q 53.21875 62.890625 53.21875 53.421875 
Q 53.21875 48.921875 51.53125 44.890625 
Q 49.859375 40.875 45.40625 35.40625 
Q 44.1875 33.984375 37.640625 27.21875 
Q 31.109375 20.453125 19.1875 8.296875 
z
" id="DejaVuSans-50"/>
       <path d="M 10.796875 72.90625 
L 49.515625 72.90625 
L 49.515625 64.59375 
L 19.828125 64.59375 
L 19.828125 46.734375 
Q 21.96875 47.46875 24.109375 47.828125 
Q 26.265625 48.1875 28.421875 48.1875 
Q 40.625 48.1875 47.75 41.5 
Q 54.890625 34.8125 54.890625 23.390625 
Q 54.890625 11.625 47.5625 5.09375 
Q 40.234375 -1.421875 26.90625 -1.421875 
Q 22.3125 -1.421875 17.546875 -0.640625 
Q 12.796875 0.140625 7.71875 1.703125 
L 7.71875 11.625 
Q 12.109375 9.234375 16.796875 8.0625 
Q 21.484375 6.890625 26.703125 6.890625 
Q 35.15625 6.890625 40.078125 11.328125 
Q 45.015625 15.765625 45.015625 23.390625 
Q 45.015625 31 40.078125 35.4375 
Q 35.15625 39.890625 26.703125 39.890625 
Q 22.75 39.890625 18.8125 39.015625 
Q 14.890625 38.140625 10.796875 36.28125 
z
" id="DejaVuSans-53"/>
      </defs>
      <g transform="translate(33.574722 351.929187)rotate(-45)scale(0.1 -0.1)">
       <use xlink:href="#DejaVuSans-65"/>
       <use x="68.408203" xlink:href="#DejaVuSans-112"/>
       <use x="131.884766" xlink:href="#DejaVuSans-114"/>
       <use x="172.998047" xlink:href="#DejaVuSans-32"/>
       <use x="204.785156" xlink:href="#DejaVuSans-50"/>
       <use x="268.408203" xlink:href="#DejaVuSans-53"/>
      </g>
     </g>
    </g>
    <g id="xtick_2">
     <g id="line2d_2">
      <g>
       <use style="stroke:#000000;stroke-width:0.8;" x="106.352009" xlink:href="#me36ce44698" y="316.078125"/>
      </g>
     </g>
     <g id="text_2">
      <!-- May 23 -->
      <defs>
       <path d="M 9.8125 72.90625 
L 24.515625 72.90625 
L 43.109375 23.296875 
L 61.8125 72.90625 
L 76.515625 72.90625 
L 76.515625 0 
L 66.890625 0 
L 66.890625 64.015625 
L 48.09375 14.015625 
L 38.1875 14.015625 
L 19.390625 64.015625 
L 19.390625 0 
L 9.8125 0 
z
" id="DejaVuSans-77"/>
       <path d="M 34.28125 27.484375 
Q 23.390625 27.484375 19.1875 25 
Q 14.984375 22.515625 14.984375 16.5 
Q 14.984375 11.71875 18.140625 8.90625 
Q 21.296875 6.109375 26.703125 6.109375 
Q 34.1875 6.109375 38.703125 11.40625 
Q 43.21875 16.703125 43.21875 25.484375 
L 43.21875 27.484375 
z
M 52.203125 31.203125 
L 52.203125 0 
L 43.21875 0 
L 43.21875 8.296875 
Q 40.140625 3.328125 35.546875 0.953125 
Q 30.953125 -1.421875 24.3125 -1.421875 
Q 15.921875 -1.421875 10.953125 3.296875 
Q 6 8.015625 6 15.921875 
Q 6 25.140625 12.171875 29.828125 
Q 18.359375 34.515625 30.609375 34.515625 
L 43.21875 34.515625 
L 43.21875 35.40625 
Q 43.21875 41.609375 39.140625 45 
Q 35.0625 48.390625 27.6875 48.390625 
Q 23 48.390625 18.546875 47.265625 
Q 14.109375 46.140625 10.015625 43.890625 
L 10.015625 52.203125 
Q 14.9375 54.109375 19.578125 55.046875 
Q 24.21875 56 28.609375 56 
Q 40.484375 56 46.34375 49.84375 
Q 52.203125 43.703125 52.203125 31.203125 
z
" id="DejaVuSans-97"/>
       <path d="M 32.171875 -5.078125 
Q 28.375 -14.84375 24.75 -17.8125 
Q 21.140625 -20.796875 15.09375 -20.796875 
L 7.90625 -20.796875 
L 7.90625 -13.28125 
L 13.1875 -13.28125 
Q 16.890625 -13.28125 18.9375 -11.515625 
Q 21 -9.765625 23.484375 -3.21875 
L 25.09375 0.875 
L 2.984375 54.6875 
L 12.5 54.6875 
L 29.59375 11.921875 
L 46.6875 54.6875 
L 56.203125 54.6875 
z
" id="DejaVuSans-121"/>
       <path d="M 40.578125 39.3125 
Q 47.65625 37.796875 51.625 33 
Q 55.609375 28.21875 55.609375 21.1875 
Q 55.609375 10.40625 48.1875 4.484375 
Q 40.765625 -1.421875 27.09375 -1.421875 
Q 22.515625 -1.421875 17.65625 -0.515625 
Q 12.796875 0.390625 7.625 2.203125 
L 7.625 11.71875 
Q 11.71875 9.328125 16.59375 8.109375 
Q 21.484375 6.890625 26.8125 6.890625 
Q 36.078125 6.890625 40.9375 10.546875 
Q 45.796875 14.203125 45.796875 21.1875 
Q 45.796875 27.640625 41.28125 31.265625 
Q 36.765625 34.90625 28.71875 34.90625 
L 20.21875 34.90625 
L 20.21875 43.015625 
L 29.109375 43.015625 
Q 36.375 43.015625 40.234375 45.921875 
Q 44.09375 48.828125 44.09375 54.296875 
Q 44.09375 59.90625 40.109375 62.90625 
Q 36.140625 65.921875 28.71875 65.921875 
Q 24.65625 65.921875 20.015625 65.03125 
Q 15.375 64.15625 9.8125 62.3125 
L 9.8125 71.09375 
Q 15.4375 72.65625 20.34375 73.4375 
Q 25.25 74.21875 29.59375 74.21875 
Q 40.828125 74.21875 47.359375 69.109375 
Q 53.90625 64.015625 53.90625 55.328125 
Q 53.90625 49.265625 50.4375 45.09375 
Q 46.96875 40.921875 40.578125 39.3125 
z
" id="DejaVuSans-51"/>
      </defs>
      <g transform="translate(79.016808 354.315672)rotate(-45)scale(0.1 -0.1)">
       <use xlink:href="#DejaVuSans-77"/>
       <use x="86.279297" xlink:href="#DejaVuSans-97"/>
       <use x="147.558594" xlink:href="#DejaVuSans-121"/>
       <use x="206.738281" xlink:href="#DejaVuSans-32"/>
       <use x="238.525391" xlink:href="#DejaVuSans-50"/>
       <use x="302.148438" xlink:href="#DejaVuSans-51"/>
      </g>
     </g>
    </g>
    <g id="xtick_3">
     <g id="line2d_3">
      <g>
       <use style="stroke:#000000;stroke-width:0.8;" x="154.18058" xlink:href="#me36ce44698" y="316.078125"/>
      </g>
     </g>
     <g id="text_3">
      <!-- Jun 20 -->
      <defs>
       <path d="M 9.8125 72.90625 
L 19.671875 72.90625 
L 19.671875 5.078125 
Q 19.671875 -8.109375 14.671875 -14.0625 
Q 9.671875 -20.015625 -1.421875 -20.015625 
L -5.171875 -20.015625 
L -5.171875 -11.71875 
L -2.09375 -11.71875 
Q 4.4375 -11.71875 7.125 -8.046875 
Q 9.8125 -4.390625 9.8125 5.078125 
z
" id="DejaVuSans-74"/>
       <path d="M 8.5 21.578125 
L 8.5 54.6875 
L 17.484375 54.6875 
L 17.484375 21.921875 
Q 17.484375 14.15625 20.5 10.265625 
Q 23.53125 6.390625 29.59375 6.390625 
Q 36.859375 6.390625 41.078125 11.03125 
Q 45.3125 15.671875 45.3125 23.6875 
L 45.3125 54.6875 
L 54.296875 54.6875 
L 54.296875 0 
L 45.3125 0 
L 45.3125 8.40625 
Q 42.046875 3.421875 37.71875 1 
Q 33.40625 -1.421875 27.6875 -1.421875 
Q 18.265625 -1.421875 13.375 4.4375 
Q 8.5 10.296875 8.5 21.578125 
z
M 31.109375 56 
z
" id="DejaVuSans-117"/>
       <path d="M 54.890625 33.015625 
L 54.890625 0 
L 45.90625 0 
L 45.90625 32.71875 
Q 45.90625 40.484375 42.875 44.328125 
Q 39.84375 48.1875 33.796875 48.1875 
Q 26.515625 48.1875 22.3125 43.546875 
Q 18.109375 38.921875 18.109375 30.90625 
L 18.109375 0 
L 9.078125 0 
L 9.078125 54.6875 
L 18.109375 54.6875 
L 18.109375 46.1875 
Q 21.34375 51.125 25.703125 53.5625 
Q 30.078125 56 35.796875 56 
Q 45.21875 56 50.046875 50.171875 
Q 54.890625 44.34375 54.890625 33.015625 
z
" id="DejaVuSans-110"/>
       <path d="M 31.78125 66.40625 
Q 24.171875 66.40625 20.328125 58.90625 
Q 16.5 51.421875 16.5 36.375 
Q 16.5 21.390625 20.328125 13.890625 
Q 24.171875 6.390625 31.78125 6.390625 
Q 39.453125 6.390625 43.28125 13.890625 
Q 47.125 21.390625 47.125 36.375 
Q 47.125 51.421875 43.28125 58.90625 
Q 39.453125 66.40625 31.78125 66.40625 
z
M 31.78125 74.21875 
Q 44.046875 74.21875 50.515625 64.515625 
Q 56.984375 54.828125 56.984375 36.375 
Q 56.984375 17.96875 50.515625 8.265625 
Q 44.046875 -1.421875 31.78125 -1.421875 
Q 19.53125 -1.421875 13.0625 8.265625 
Q 6.59375 17.96875 6.59375 36.375 
Q 6.59375 54.828125 13.0625 64.515625 
Q 19.53125 74.21875 31.78125 74.21875 
z
" id="DejaVuSans-48"/>
      </defs>
      <g transform="translate(130.416268 350.744783)rotate(-45)scale(0.1 -0.1)">
       <use xlink:href="#DejaVuSans-74"/>
       <use x="29.492188" xlink:href="#DejaVuSans-117"/>
       <use x="92.871094" xlink:href="#DejaVuSans-110"/>
       <use x="156.25" xlink:href="#DejaVuSans-32"/>
       <use x="188.037109" xlink:href="#DejaVuSans-50"/>
       <use x="251.660156" xlink:href="#DejaVuSans-48"/>
      </g>
     </g>
    </g>
    <g id="xtick_4">
     <g id="line2d_4">
      <g>
       <use style="stroke:#000000;stroke-width:0.8;" x="202.009152" xlink:href="#me36ce44698" y="316.078125"/>
      </g>
     </g>
     <g id="text_4">
      <!-- Jul 18 -->
      <defs>
       <path d="M 9.421875 75.984375 
L 18.40625 75.984375 
L 18.40625 0 
L 9.421875 0 
z
" id="DejaVuSans-108"/>
       <path d="M 12.40625 8.296875 
L 28.515625 8.296875 
L 28.515625 63.921875 
L 10.984375 60.40625 
L 10.984375 69.390625 
L 28.421875 72.90625 
L 38.28125 72.90625 
L 38.28125 8.296875 
L 54.390625 8.296875 
L 54.390625 0 
L 12.40625 0 
z
" id="DejaVuSans-49"/>
       <path d="M 31.78125 34.625 
Q 24.75 34.625 20.71875 30.859375 
Q 16.703125 27.09375 16.703125 20.515625 
Q 16.703125 13.921875 20.71875 10.15625 
Q 24.75 6.390625 31.78125 6.390625 
Q 38.8125 6.390625 42.859375 10.171875 
Q 46.921875 13.96875 46.921875 20.515625 
Q 46.921875 27.09375 42.890625 30.859375 
Q 38.875 34.625 31.78125 34.625 
z
M 21.921875 38.8125 
Q 15.578125 40.375 12.03125 44.71875 
Q 8.5 49.078125 8.5 55.328125 
Q 8.5 64.0625 14.71875 69.140625 
Q 20.953125 74.21875 31.78125 74.21875 
Q 42.671875 74.21875 48.875 69.140625 
Q 55.078125 64.0625 55.078125 55.328125 
Q 55.078125 49.078125 51.53125 44.71875 
Q 48 40.375 41.703125 38.8125 
Q 48.828125 37.15625 52.796875 32.3125 
Q 56.78125 27.484375 56.78125 20.515625 
Q 56.78125 9.90625 50.3125 4.234375 
Q 43.84375 -1.421875 31.78125 -1.421875 
Q 19.734375 -1.421875 13.25 4.234375 
Q 6.78125 9.90625 6.78125 20.515625 
Q 6.78125 27.484375 10.78125 32.3125 
Q 14.796875 37.15625 21.921875 38.8125 
z
M 18.3125 54.390625 
Q 18.3125 48.734375 21.84375 45.5625 
Q 25.390625 42.390625 31.78125 42.390625 
Q 38.140625 42.390625 41.71875 45.5625 
Q 45.3125 48.734375 45.3125 54.390625 
Q 45.3125 60.0625 41.71875 63.234375 
Q 38.140625 66.40625 31.78125 66.40625 
Q 25.390625 66.40625 21.84375 63.234375 
Q 18.3125 60.0625 18.3125 54.390625 
z
" id="DejaVuSans-56"/>
      </defs>
      <g transform="translate(180.761698 348.227924)rotate(-45)scale(0.1 -0.1)">
       <use xlink:href="#DejaVuSans-74"/>
       <use x="29.492188" xlink:href="#DejaVuSans-117"/>
       <use x="92.871094" xlink:href="#DejaVuSans-108"/>
       <use x="120.654297" xlink:href="#DejaVuSans-32"/>
       <use x="152.441406" xlink:href="#DejaVuSans-49"/>
       <use x="216.064453" xlink:href="#DejaVuSans-56"/>
      </g>
     </g>
    </g>
    <g id="xtick_5">
     <g id="line2d_5">
      <g>
       <use style="stroke:#000000;stroke-width:0.8;" x="249.837723" xlink:href="#me36ce44698" y="316.078125"/>
      </g>
     </g>
     <g id="text_5">
      <!-- Aug 15 -->
      <defs>
       <path d="M 45.40625 27.984375 
Q 45.40625 37.75 41.375 43.109375 
Q 37.359375 48.484375 30.078125 48.484375 
Q 22.859375 48.484375 18.828125 43.109375 
Q 14.796875 37.75 14.796875 27.984375 
Q 14.796875 18.265625 18.828125 12.890625 
Q 22.859375 7.515625 30.078125 7.515625 
Q 37.359375 7.515625 41.375 12.890625 
Q 45.40625 18.265625 45.40625 27.984375 
z
M 54.390625 6.78125 
Q 54.390625 -7.171875 48.1875 -13.984375 
Q 42 -20.796875 29.203125 -20.796875 
Q 24.46875 -20.796875 20.265625 -20.09375 
Q 16.0625 -19.390625 12.109375 -17.921875 
L 12.109375 -9.1875 
Q 16.0625 -11.328125 19.921875 -12.34375 
Q 23.78125 -13.375 27.78125 -13.375 
Q 36.625 -13.375 41.015625 -8.765625 
Q 45.40625 -4.15625 45.40625 5.171875 
L 45.40625 9.625 
Q 42.625 4.78125 38.28125 2.390625 
Q 33.9375 0 27.875 0 
Q 17.828125 0 11.671875 7.65625 
Q 5.515625 15.328125 5.515625 27.984375 
Q 5.515625 40.671875 11.671875 48.328125 
Q 17.828125 56 27.875 56 
Q 33.9375 56 38.28125 53.609375 
Q 42.625 51.21875 45.40625 46.390625 
L 45.40625 54.6875 
L 54.390625 54.6875 
z
" id="DejaVuSans-103"/>
      </defs>
      <g transform="translate(223.31459 353.503604)rotate(-45)scale(0.1 -0.1)">
       <use xlink:href="#DejaVuSans-65"/>
       <use x="68.408203" xlink:href="#DejaVuSans-117"/>
       <use x="131.787109" xlink:href="#DejaVuSans-103"/>
       <use x="195.263672" xlink:href="#DejaVuSans-32"/>
       <use x="227.050781" xlink:href="#DejaVuSans-49"/>
       <use x="290.673828" xlink:href="#DejaVuSans-53"/>
      </g>
     </g>
    </g>
    <g id="xtick_6">
     <g id="line2d_6">
      <g>
       <use style="stroke:#000000;stroke-width:0.8;" x="297.666295" xlink:href="#me36ce44698" y="316.078125"/>
      </g>
     </g>
     <g id="text_6">
      <!-- Sep 12 -->
      <defs>
       <path d="M 53.515625 70.515625 
L 53.515625 60.890625 
Q 47.90625 63.578125 42.921875 64.890625 
Q 37.9375 66.21875 33.296875 66.21875 
Q 25.25 66.21875 20.875 63.09375 
Q 16.5 59.96875 16.5 54.203125 
Q 16.5 49.359375 19.40625 46.890625 
Q 22.3125 44.4375 30.421875 42.921875 
L 36.375 41.703125 
Q 47.40625 39.59375 52.65625 34.296875 
Q 57.90625 29 57.90625 20.125 
Q 57.90625 9.515625 50.796875 4.046875 
Q 43.703125 -1.421875 29.984375 -1.421875 
Q 24.8125 -1.421875 18.96875 -0.25 
Q 13.140625 0.921875 6.890625 3.21875 
L 6.890625 13.375 
Q 12.890625 10.015625 18.65625 8.296875 
Q 24.421875 6.59375 29.984375 6.59375 
Q 38.421875 6.59375 43.015625 9.90625 
Q 47.609375 13.234375 47.609375 19.390625 
Q 47.609375 24.75 44.3125 27.78125 
Q 41.015625 30.8125 33.5 32.328125 
L 27.484375 33.5 
Q 16.453125 35.6875 11.515625 40.375 
Q 6.59375 45.0625 6.59375 53.421875 
Q 6.59375 63.09375 13.40625 68.65625 
Q 20.21875 74.21875 32.171875 74.21875 
Q 37.3125 74.21875 42.625 73.28125 
Q 47.953125 72.359375 53.515625 70.515625 
z
" id="DejaVuSans-83"/>
       <path d="M 56.203125 29.59375 
L 56.203125 25.203125 
L 14.890625 25.203125 
Q 15.484375 15.921875 20.484375 11.0625 
Q 25.484375 6.203125 34.421875 6.203125 
Q 39.59375 6.203125 44.453125 7.46875 
Q 49.3125 8.734375 54.109375 11.28125 
L 54.109375 2.78125 
Q 49.265625 0.734375 44.1875 -0.34375 
Q 39.109375 -1.421875 33.890625 -1.421875 
Q 20.796875 -1.421875 13.15625 6.1875 
Q 5.515625 13.8125 5.515625 26.8125 
Q 5.515625 40.234375 12.765625 48.109375 
Q 20.015625 56 32.328125 56 
Q 43.359375 56 49.78125 48.890625 
Q 56.203125 41.796875 56.203125 29.59375 
z
M 47.21875 32.234375 
Q 47.125 39.59375 43.09375 43.984375 
Q 39.0625 48.390625 32.421875 48.390625 
Q 24.90625 48.390625 20.390625 44.140625 
Q 15.875 39.890625 15.1875 32.171875 
z
" id="DejaVuSans-101"/>
      </defs>
      <g transform="translate(271.621563 353.025202)rotate(-45)scale(0.1 -0.1)">
       <use xlink:href="#DejaVuSans-83"/>
       <use x="63.476562" xlink:href="#DejaVuSans-101"/>
       <use x="125" xlink:href="#DejaVuSans-112"/>
       <use x="188.476562" xlink:href="#DejaVuSans-32"/>
       <use x="220.263672" xlink:href="#DejaVuSans-49"/>
       <use x="283.886719" xlink:href="#DejaVuSans-50"/>
      </g>
     </g>
    </g>
    <g id="xtick_7">
     <g id="line2d_7">
      <g>
       <use style="stroke:#000000;stroke-width:0.8;" x="345.494866" xlink:href="#me36ce44698" y="316.078125"/>
      </g>
     </g>
     <g id="text_7">
      <!-- Oct 10 -->
      <defs>
       <path d="M 39.40625 66.21875 
Q 28.65625 66.21875 22.328125 58.203125 
Q 16.015625 50.203125 16.015625 36.375 
Q 16.015625 22.609375 22.328125 14.59375 
Q 28.65625 6.59375 39.40625 6.59375 
Q 50.140625 6.59375 56.421875 14.59375 
Q 62.703125 22.609375 62.703125 36.375 
Q 62.703125 50.203125 56.421875 58.203125 
Q 50.140625 66.21875 39.40625 66.21875 
z
M 39.40625 74.21875 
Q 54.734375 74.21875 63.90625 63.9375 
Q 73.09375 53.65625 73.09375 36.375 
Q 73.09375 19.140625 63.90625 8.859375 
Q 54.734375 -1.421875 39.40625 -1.421875 
Q 24.03125 -1.421875 14.8125 8.828125 
Q 5.609375 19.09375 5.609375 36.375 
Q 5.609375 53.65625 14.8125 63.9375 
Q 24.03125 74.21875 39.40625 74.21875 
z
" id="DejaVuSans-79"/>
       <path d="M 48.78125 52.59375 
L 48.78125 44.1875 
Q 44.96875 46.296875 41.140625 47.34375 
Q 37.3125 48.390625 33.40625 48.390625 
Q 24.65625 48.390625 19.8125 42.84375 
Q 14.984375 37.3125 14.984375 27.296875 
Q 14.984375 17.28125 19.8125 11.734375 
Q 24.65625 6.203125 33.40625 6.203125 
Q 37.3125 6.203125 41.140625 7.25 
Q 44.96875 8.296875 48.78125 10.40625 
L 48.78125 2.09375 
Q 45.015625 0.34375 40.984375 -0.53125 
Q 36.96875 -1.421875 32.421875 -1.421875 
Q 20.0625 -1.421875 12.78125 6.34375 
Q 5.515625 14.109375 5.515625 27.296875 
Q 5.515625 40.671875 12.859375 48.328125 
Q 20.21875 56 33.015625 56 
Q 37.15625 56 41.109375 55.140625 
Q 45.0625 54.296875 48.78125 52.59375 
z
" id="DejaVuSans-99"/>
       <path d="M 18.3125 70.21875 
L 18.3125 54.6875 
L 36.8125 54.6875 
L 36.8125 47.703125 
L 18.3125 47.703125 
L 18.3125 18.015625 
Q 18.3125 11.328125 20.140625 9.421875 
Q 21.96875 7.515625 27.59375 7.515625 
L 36.8125 7.515625 
L 36.8125 0 
L 27.59375 0 
Q 17.1875 0 13.234375 3.875 
Q 9.28125 7.765625 9.28125 18.015625 
L 9.28125 47.703125 
L 2.6875 47.703125 
L 2.6875 54.6875 
L 9.28125 54.6875 
L 9.28125 70.21875 
z
" id="DejaVuSans-116"/>
      </defs>
      <g transform="translate(320.552779 351.922557)rotate(-45)scale(0.1 -0.1)">
       <use xlink:href="#DejaVuSans-79"/>
       <use x="78.710938" xlink:href="#DejaVuSans-99"/>
       <use x="133.691406" xlink:href="#DejaVuSans-116"/>
       <use x="172.900391" xlink:href="#DejaVuSans-32"/>
       <use x="204.6875" xlink:href="#DejaVuSans-49"/>
       <use x="268.310547" xlink:href="#DejaVuSans-48"/>
      </g>
     </g>
    </g>
    <g id="xtick_8">
     <g id="line2d_8">
      <g>
       <use style="stroke:#000000;stroke-width:0.8;" x="393.323438" xlink:href="#me36ce44698" y="316.078125"/>
      </g>
     </g>
     <g id="text_8">
      <!-- Nov 07 -->
      <defs>
       <path d="M 9.8125 72.90625 
L 23.09375 72.90625 
L 55.421875 11.921875 
L 55.421875 72.90625 
L 64.984375 72.90625 
L 64.984375 0 
L 51.703125 0 
L 19.390625 60.984375 
L 19.390625 0 
L 9.8125 0 
z
" id="DejaVuSans-78"/>
       <path d="M 30.609375 48.390625 
Q 23.390625 48.390625 19.1875 42.75 
Q 14.984375 37.109375 14.984375 27.296875 
Q 14.984375 17.484375 19.15625 11.84375 
Q 23.34375 6.203125 30.609375 6.203125 
Q 37.796875 6.203125 41.984375 11.859375 
Q 46.1875 17.53125 46.1875 27.296875 
Q 46.1875 37.015625 41.984375 42.703125 
Q 37.796875 48.390625 30.609375 48.390625 
z
M 30.609375 56 
Q 42.328125 56 49.015625 48.375 
Q 55.71875 40.765625 55.71875 27.296875 
Q 55.71875 13.875 49.015625 6.21875 
Q 42.328125 -1.421875 30.609375 -1.421875 
Q 18.84375 -1.421875 12.171875 6.21875 
Q 5.515625 13.875 5.515625 27.296875 
Q 5.515625 40.765625 12.171875 48.375 
Q 18.84375 56 30.609375 56 
z
" id="DejaVuSans-111"/>
       <path d="M 2.984375 54.6875 
L 12.5 54.6875 
L 29.59375 8.796875 
L 46.6875 54.6875 
L 56.203125 54.6875 
L 35.6875 0 
L 23.484375 0 
z
" id="DejaVuSans-118"/>
       <path d="M 8.203125 72.90625 
L 55.078125 72.90625 
L 55.078125 68.703125 
L 28.609375 0 
L 18.3125 0 
L 43.21875 64.59375 
L 8.203125 64.59375 
z
" id="DejaVuSans-55"/>
      </defs>
      <g transform="translate(366.805828 353.49808)rotate(-45)scale(0.1 -0.1)">
       <use xlink:href="#DejaVuSans-78"/>
       <use x="74.804688" xlink:href="#DejaVuSans-111"/>
       <use x="135.986328" xlink:href="#DejaVuSans-118"/>
       <use x="195.166016" xlink:href="#DejaVuSans-32"/>
       <use x="226.953125" xlink:href="#DejaVuSans-48"/>
       <use x="290.576172" xlink:href="#DejaVuSans-55"/>
      </g>
     </g>
    </g>
    <g id="xtick_9">
     <g id="line2d_9">
      <g>
       <use style="stroke:#000000;stroke-width:0.8;" x="441.152009" xlink:href="#me36ce44698" y="316.078125"/>
      </g>
     </g>
     <g id="text_9">
      <!-- Dec 05 -->
      <defs>
       <path d="M 19.671875 64.796875 
L 19.671875 8.109375 
L 31.59375 8.109375 
Q 46.6875 8.109375 53.6875 14.9375 
Q 60.6875 21.78125 60.6875 36.53125 
Q 60.6875 51.171875 53.6875 57.984375 
Q 46.6875 64.796875 31.59375 64.796875 
z
M 9.8125 72.90625 
L 30.078125 72.90625 
Q 51.265625 72.90625 61.171875 64.09375 
Q 71.09375 55.28125 71.09375 36.53125 
Q 71.09375 17.671875 61.125 8.828125 
Q 51.171875 0 30.078125 0 
L 9.8125 0 
z
" id="DejaVuSans-68"/>
      </defs>
      <g transform="translate(414.752619 353.37986)rotate(-45)scale(0.1 -0.1)">
       <use xlink:href="#DejaVuSans-68"/>
       <use x="77.001953" xlink:href="#DejaVuSans-101"/>
       <use x="138.525391" xlink:href="#DejaVuSans-99"/>
       <use x="193.505859" xlink:href="#DejaVuSans-32"/>
       <use x="225.292969" xlink:href="#DejaVuSans-48"/>
       <use x="288.916016" xlink:href="#DejaVuSans-53"/>
      </g>
     </g>
    </g>
    <g id="xtick_10">
     <g id="line2d_10">
      <g>
       <use style="stroke:#000000;stroke-width:0.8;" x="488.98058" xlink:href="#me36ce44698" y="316.078125"/>
      </g>
     </g>
     <g id="text_10">
      <!-- Jan 02 -->
      <g transform="translate(465.364319 350.596732)rotate(-45)scale(0.1 -0.1)">
       <use xlink:href="#DejaVuSans-74"/>
       <use x="29.492188" xlink:href="#DejaVuSans-97"/>
       <use x="90.771484" xlink:href="#DejaVuSans-110"/>
       <use x="154.150391" xlink:href="#DejaVuSans-32"/>
       <use x="185.9375" xlink:href="#DejaVuSans-48"/>
       <use x="249.560547" xlink:href="#DejaVuSans-50"/>
      </g>
     </g>
    </g>
    <g id="xtick_11">
     <g id="line2d_11">
      <g>
       <use style="stroke:#000000;stroke-width:0.8;" x="536.809152" xlink:href="#me36ce44698" y="316.078125"/>
      </g>
     </g>
     <g id="text_11">
      <!-- Jan 30 -->
      <g transform="translate(513.19289 350.596732)rotate(-45)scale(0.1 -0.1)">
       <use xlink:href="#DejaVuSans-74"/>
       <use x="29.492188" xlink:href="#DejaVuSans-97"/>
       <use x="90.771484" xlink:href="#DejaVuSans-110"/>
       <use x="154.150391" xlink:href="#DejaVuSans-32"/>
       <use x="185.9375" xlink:href="#DejaVuSans-51"/>
       <use x="249.560547" xlink:href="#DejaVuSans-48"/>
      </g>
     </g>
    </g>
    <g id="xtick_12">
     <g id="line2d_12">
      <g>
       <use style="stroke:#000000;stroke-width:0.8;" x="584.637723" xlink:href="#me36ce44698" y="316.078125"/>
      </g>
     </g>
     <g id="text_12">
      <!-- Feb 27 -->
      <defs>
       <path d="M 9.8125 72.90625 
L 51.703125 72.90625 
L 51.703125 64.59375 
L 19.671875 64.59375 
L 19.671875 43.109375 
L 48.578125 43.109375 
L 48.578125 34.8125 
L 19.671875 34.8125 
L 19.671875 0 
L 9.8125 0 
z
" id="DejaVuSans-70"/>
       <path d="M 48.6875 27.296875 
Q 48.6875 37.203125 44.609375 42.84375 
Q 40.53125 48.484375 33.40625 48.484375 
Q 26.265625 48.484375 22.1875 42.84375 
Q 18.109375 37.203125 18.109375 27.296875 
Q 18.109375 17.390625 22.1875 11.75 
Q 26.265625 6.109375 33.40625 6.109375 
Q 40.53125 6.109375 44.609375 11.75 
Q 48.6875 17.390625 48.6875 27.296875 
z
M 18.109375 46.390625 
Q 20.953125 51.265625 25.265625 53.625 
Q 29.59375 56 35.59375 56 
Q 45.5625 56 51.78125 48.09375 
Q 58.015625 40.1875 58.015625 27.296875 
Q 58.015625 14.40625 51.78125 6.484375 
Q 45.5625 -1.421875 35.59375 -1.421875 
Q 29.59375 -1.421875 25.265625 0.953125 
Q 20.953125 3.328125 18.109375 8.203125 
L 18.109375 0 
L 9.078125 0 
L 9.078125 75.984375 
L 18.109375 75.984375 
z
" id="DejaVuSans-98"/>
      </defs>
      <g transform="translate(559.403955 352.214239)rotate(-45)scale(0.1 -0.1)">
       <use xlink:href="#DejaVuSans-70"/>
       <use x="52.019531" xlink:href="#DejaVuSans-101"/>
       <use x="113.542969" xlink:href="#DejaVuSans-98"/>
       <use x="177.019531" xlink:href="#DejaVuSans-32"/>
       <use x="208.806641" xlink:href="#DejaVuSans-50"/>
       <use x="272.429688" xlink:href="#DejaVuSans-55"/>
      </g>
     </g>
    </g>
    <g id="xtick_13">
     <g id="line2d_13">
      <g>
       <use style="stroke:#000000;stroke-width:0.8;" x="632.466295" xlink:href="#me36ce44698" y="316.078125"/>
      </g>
     </g>
     <g id="text_13">
      <!-- Mar 27 -->
      <g transform="translate(606.40941 353.037355)rotate(-45)scale(0.1 -0.1)">
       <use xlink:href="#DejaVuSans-77"/>
       <use x="86.279297" xlink:href="#DejaVuSans-97"/>
       <use x="147.558594" xlink:href="#DejaVuSans-114"/>
       <use x="188.671875" xlink:href="#DejaVuSans-32"/>
       <use x="220.458984" xlink:href="#DejaVuSans-50"/>
       <use x="284.082031" xlink:href="#DejaVuSans-55"/>
      </g>
     </g>
    </g>
    <g id="xtick_14">
     <g id="line2d_14">
      <g>
       <use style="stroke:#000000;stroke-width:0.8;" x="680.294866" xlink:href="#me36ce44698" y="316.078125"/>
      </g>
     </g>
     <g id="text_14">
      <!-- Apr 24 -->
      <defs>
       <path d="M 37.796875 64.3125 
L 12.890625 25.390625 
L 37.796875 25.390625 
z
M 35.203125 72.90625 
L 47.609375 72.90625 
L 47.609375 25.390625 
L 58.015625 25.390625 
L 58.015625 17.1875 
L 47.609375 17.1875 
L 47.609375 0 
L 37.796875 0 
L 37.796875 17.1875 
L 4.890625 17.1875 
L 4.890625 26.703125 
z
" id="DejaVuSans-52"/>
      </defs>
      <g transform="translate(655.34615 351.929187)rotate(-45)scale(0.1 -0.1)">
       <use xlink:href="#DejaVuSans-65"/>
       <use x="68.408203" xlink:href="#DejaVuSans-112"/>
       <use x="131.884766" xlink:href="#DejaVuSans-114"/>
       <use x="172.998047" xlink:href="#DejaVuSans-32"/>
       <use x="204.785156" xlink:href="#DejaVuSans-50"/>
       <use x="268.408203" xlink:href="#DejaVuSans-52"/>
      </g>
     </g>
    </g>
    <g id="xtick_15">
     <g id="line2d_15">
      <g>
       <use style="stroke:#000000;stroke-width:0.8;" x="728.123438" xlink:href="#me36ce44698" y="316.078125"/>
      </g>
     </g>
     <g id="text_15">
      <!-- May 22 -->
      <g transform="translate(700.788236 354.315672)rotate(-45)scale(0.1 -0.1)">
       <use xlink:href="#DejaVuSans-77"/>
       <use x="86.279297" xlink:href="#DejaVuSans-97"/>
       <use x="147.558594" xlink:href="#DejaVuSans-121"/>
       <use x="206.738281" xlink:href="#DejaVuSans-32"/>
       <use x="238.525391" xlink:href="#DejaVuSans-50"/>
       <use x="302.148438" xlink:href="#DejaVuSans-50"/>
      </g>
     </g>
    </g>
    <g id="text_16">
     <!-- Target End Date -->
     <defs>
      <path d="M -0.296875 72.90625 
L 61.375 72.90625 
L 61.375 64.59375 
L 35.5 64.59375 
L 35.5 0 
L 25.59375 0 
L 25.59375 64.59375 
L -0.296875 64.59375 
z
" id="DejaVuSans-84"/>
      <path d="M 9.8125 72.90625 
L 55.90625 72.90625 
L 55.90625 64.59375 
L 19.671875 64.59375 
L 19.671875 43.015625 
L 54.390625 43.015625 
L 54.390625 34.71875 
L 19.671875 34.71875 
L 19.671875 8.296875 
L 56.78125 8.296875 
L 56.78125 0 
L 9.8125 0 
z
" id="DejaVuSans-69"/>
      <path d="M 45.40625 46.390625 
L 45.40625 75.984375 
L 54.390625 75.984375 
L 54.390625 0 
L 45.40625 0 
L 45.40625 8.203125 
Q 42.578125 3.328125 38.25 0.953125 
Q 33.9375 -1.421875 27.875 -1.421875 
Q 17.96875 -1.421875 11.734375 6.484375 
Q 5.515625 14.40625 5.515625 27.296875 
Q 5.515625 40.1875 11.734375 48.09375 
Q 17.96875 56 27.875 56 
Q 33.9375 56 38.25 53.625 
Q 42.578125 51.265625 45.40625 46.390625 
z
M 14.796875 27.296875 
Q 14.796875 17.390625 18.875 11.75 
Q 22.953125 6.109375 30.078125 6.109375 
Q 37.203125 6.109375 41.296875 11.75 
Q 45.40625 17.390625 45.40625 27.296875 
Q 45.40625 37.203125 41.296875 42.84375 
Q 37.203125 48.484375 30.078125 48.484375 
Q 22.953125 48.484375 18.875 42.84375 
Q 14.796875 37.203125 14.796875 27.296875 
z
" id="DejaVuSans-100"/>
     </defs>
     <g transform="translate(353.220312 367.384671)scale(0.1 -0.1)">
      <use xlink:href="#DejaVuSans-84"/>
      <use x="44.583984" xlink:href="#DejaVuSans-97"/>
      <use x="105.863281" xlink:href="#DejaVuSans-114"/>
      <use x="145.226562" xlink:href="#DejaVuSans-103"/>
      <use x="208.703125" xlink:href="#DejaVuSans-101"/>
      <use x="270.226562" xlink:href="#DejaVuSans-116"/>
      <use x="309.435547" xlink:href="#DejaVuSans-32"/>
      <use x="341.222656" xlink:href="#DejaVuSans-69"/>
      <use x="404.40625" xlink:href="#DejaVuSans-110"/>
      <use x="467.785156" xlink:href="#DejaVuSans-100"/>
      <use x="531.261719" xlink:href="#DejaVuSans-32"/>
      <use x="563.048828" xlink:href="#DejaVuSans-68"/>
      <use x="640.050781" xlink:href="#DejaVuSans-97"/>
      <use x="701.330078" xlink:href="#DejaVuSans-116"/>
      <use x="740.539062" xlink:href="#DejaVuSans-101"/>
     </g>
    </g>
   </g>
   <g id="matplotlib.axis_2">
    <g id="ytick_1">
     <g id="line2d_16">
      <defs>
       <path d="M 0 0 
L -3.5 0 
" id="m0ab14299ea" style="stroke:#000000;stroke-width:0.8;"/>
      </defs>
      <g>
       <use style="stroke:#000000;stroke-width:0.8;" x="58.523438" xlink:href="#m0ab14299ea" y="290.723341"/>
      </g>
     </g>
     <g id="text_17">
      <!-- −20.0 -->
      <defs>
       <path d="M 10.59375 35.5 
L 73.1875 35.5 
L 73.1875 27.203125 
L 10.59375 27.203125 
z
" id="DejaVuSans-8722"/>
       <path d="M 10.6875 12.40625 
L 21 12.40625 
L 21 0 
L 10.6875 0 
z
" id="DejaVuSans-46"/>
      </defs>
      <g transform="translate(20.878125 294.52256)scale(0.1 -0.1)">
       <use xlink:href="#DejaVuSans-8722"/>
       <use x="83.789062" xlink:href="#DejaVuSans-50"/>
       <use x="147.412109" xlink:href="#DejaVuSans-48"/>
       <use x="211.035156" xlink:href="#DejaVuSans-46"/>
       <use x="242.822266" xlink:href="#DejaVuSans-48"/>
      </g>
     </g>
    </g>
    <g id="ytick_2">
     <g id="line2d_17">
      <g>
       <use style="stroke:#000000;stroke-width:0.8;" x="58.523438" xlink:href="#m0ab14299ea" y="254.193364"/>
      </g>
     </g>
     <g id="text_18">
      <!-- −17.5 -->
      <g transform="translate(20.878125 257.992583)scale(0.1 -0.1)">
       <use xlink:href="#DejaVuSans-8722"/>
       <use x="83.789062" xlink:href="#DejaVuSans-49"/>
       <use x="147.412109" xlink:href="#DejaVuSans-55"/>
       <use x="211.035156" xlink:href="#DejaVuSans-46"/>
       <use x="242.822266" xlink:href="#DejaVuSans-53"/>
      </g>
     </g>
    </g>
    <g id="ytick_3">
     <g id="line2d_18">
      <g>
       <use style="stroke:#000000;stroke-width:0.8;" x="58.523438" xlink:href="#m0ab14299ea" y="217.663387"/>
      </g>
     </g>
     <g id="text_19">
      <!-- −15.0 -->
      <g transform="translate(20.878125 221.462606)scale(0.1 -0.1)">
       <use xlink:href="#DejaVuSans-8722"/>
       <use x="83.789062" xlink:href="#DejaVuSans-49"/>
       <use x="147.412109" xlink:href="#DejaVuSans-53"/>
       <use x="211.035156" xlink:href="#DejaVuSans-46"/>
       <use x="242.822266" xlink:href="#DejaVuSans-48"/>
      </g>
     </g>
    </g>
    <g id="ytick_4">
     <g id="line2d_19">
      <g>
       <use style="stroke:#000000;stroke-width:0.8;" x="58.523438" xlink:href="#m0ab14299ea" y="181.13341"/>
      </g>
     </g>
     <g id="text_20">
      <!-- −12.5 -->
      <g transform="translate(20.878125 184.932629)scale(0.1 -0.1)">
       <use xlink:href="#DejaVuSans-8722"/>
       <use x="83.789062" xlink:href="#DejaVuSans-49"/>
       <use x="147.412109" xlink:href="#DejaVuSans-50"/>
       <use x="211.035156" xlink:href="#DejaVuSans-46"/>
       <use x="242.822266" xlink:href="#DejaVuSans-53"/>
      </g>
     </g>
    </g>
    <g id="ytick_5">
     <g id="line2d_20">
      <g>
       <use style="stroke:#000000;stroke-width:0.8;" x="58.523438" xlink:href="#m0ab14299ea" y="144.603434"/>
      </g>
     </g>
     <g id="text_21">
      <!-- −10.0 -->
      <g transform="translate(20.878125 148.402652)scale(0.1 -0.1)">
       <use xlink:href="#DejaVuSans-8722"/>
       <use x="83.789062" xlink:href="#DejaVuSans-49"/>
       <use x="147.412109" xlink:href="#DejaVuSans-48"/>
       <use x="211.035156" xlink:href="#DejaVuSans-46"/>
       <use x="242.822266" xlink:href="#DejaVuSans-48"/>
      </g>
     </g>
    </g>
    <g id="ytick_6">
     <g id="line2d_21">
      <g>
       <use style="stroke:#000000;stroke-width:0.8;" x="58.523438" xlink:href="#m0ab14299ea" y="108.073457"/>
      </g>
     </g>
     <g id="text_22">
      <!-- −7.5 -->
      <g transform="translate(27.240625 111.872675)scale(0.1 -0.1)">
       <use xlink:href="#DejaVuSans-8722"/>
       <use x="83.789062" xlink:href="#DejaVuSans-55"/>
       <use x="147.412109" xlink:href="#DejaVuSans-46"/>
       <use x="179.199219" xlink:href="#DejaVuSans-53"/>
      </g>
     </g>
    </g>
    <g id="ytick_7">
     <g id="line2d_22">
      <g>
       <use style="stroke:#000000;stroke-width:0.8;" x="58.523438" xlink:href="#m0ab14299ea" y="71.54348"/>
      </g>
     </g>
     <g id="text_23">
      <!-- −5.0 -->
      <g transform="translate(27.240625 75.342698)scale(0.1 -0.1)">
       <use xlink:href="#DejaVuSans-8722"/>
       <use x="83.789062" xlink:href="#DejaVuSans-53"/>
       <use x="147.412109" xlink:href="#DejaVuSans-46"/>
       <use x="179.199219" xlink:href="#DejaVuSans-48"/>
      </g>
     </g>
    </g>
    <g id="ytick_8">
     <g id="line2d_23">
      <g>
       <use style="stroke:#000000;stroke-width:0.8;" x="58.523438" xlink:href="#m0ab14299ea" y="35.013503"/>
      </g>
     </g>
     <g id="text_24">
      <!-- −2.5 -->
      <g transform="translate(27.240625 38.812721)scale(0.1 -0.1)">
       <use xlink:href="#DejaVuSans-8722"/>
       <use x="83.789062" xlink:href="#DejaVuSans-50"/>
       <use x="147.412109" xlink:href="#DejaVuSans-46"/>
       <use x="179.199219" xlink:href="#DejaVuSans-53"/>
      </g>
     </g>
    </g>
    <g id="text_25">
     <!-- Score for weekly incidental cases -->
     <defs>
      <path d="M 37.109375 75.984375 
L 37.109375 68.5 
L 28.515625 68.5 
Q 23.6875 68.5 21.796875 66.546875 
Q 19.921875 64.59375 19.921875 59.515625 
L 19.921875 54.6875 
L 34.71875 54.6875 
L 34.71875 47.703125 
L 19.921875 47.703125 
L 19.921875 0 
L 10.890625 0 
L 10.890625 47.703125 
L 2.296875 47.703125 
L 2.296875 54.6875 
L 10.890625 54.6875 
L 10.890625 58.5 
Q 10.890625 67.625 15.140625 71.796875 
Q 19.390625 75.984375 28.609375 75.984375 
z
" id="DejaVuSans-102"/>
      <path d="M 4.203125 54.6875 
L 13.1875 54.6875 
L 24.421875 12.015625 
L 35.59375 54.6875 
L 46.1875 54.6875 
L 57.421875 12.015625 
L 68.609375 54.6875 
L 77.59375 54.6875 
L 63.28125 0 
L 52.6875 0 
L 40.921875 44.828125 
L 29.109375 0 
L 18.5 0 
z
" id="DejaVuSans-119"/>
      <path d="M 9.078125 75.984375 
L 18.109375 75.984375 
L 18.109375 31.109375 
L 44.921875 54.6875 
L 56.390625 54.6875 
L 27.390625 29.109375 
L 57.625 0 
L 45.90625 0 
L 18.109375 26.703125 
L 18.109375 0 
L 9.078125 0 
z
" id="DejaVuSans-107"/>
      <path d="M 9.421875 54.6875 
L 18.40625 54.6875 
L 18.40625 0 
L 9.421875 0 
z
M 9.421875 75.984375 
L 18.40625 75.984375 
L 18.40625 64.59375 
L 9.421875 64.59375 
z
" id="DejaVuSans-105"/>
      <path d="M 44.28125 53.078125 
L 44.28125 44.578125 
Q 40.484375 46.53125 36.375 47.5 
Q 32.28125 48.484375 27.875 48.484375 
Q 21.1875 48.484375 17.84375 46.4375 
Q 14.5 44.390625 14.5 40.28125 
Q 14.5 37.15625 16.890625 35.375 
Q 19.28125 33.59375 26.515625 31.984375 
L 29.59375 31.296875 
Q 39.15625 29.25 43.1875 25.515625 
Q 47.21875 21.78125 47.21875 15.09375 
Q 47.21875 7.46875 41.1875 3.015625 
Q 35.15625 -1.421875 24.609375 -1.421875 
Q 20.21875 -1.421875 15.453125 -0.5625 
Q 10.6875 0.296875 5.421875 2 
L 5.421875 11.28125 
Q 10.40625 8.6875 15.234375 7.390625 
Q 20.0625 6.109375 24.8125 6.109375 
Q 31.15625 6.109375 34.5625 8.28125 
Q 37.984375 10.453125 37.984375 14.40625 
Q 37.984375 18.0625 35.515625 20.015625 
Q 33.0625 21.96875 24.703125 23.78125 
L 21.578125 24.515625 
Q 13.234375 26.265625 9.515625 29.90625 
Q 5.8125 33.546875 5.8125 39.890625 
Q 5.8125 47.609375 11.28125 51.796875 
Q 16.75 56 26.8125 56 
Q 31.78125 56 36.171875 55.265625 
Q 40.578125 54.546875 44.28125 53.078125 
z
" id="DejaVuSans-115"/>
     </defs>
     <g transform="translate(14.798438 252.545781)rotate(-90)scale(0.1 -0.1)">
      <use xlink:href="#DejaVuSans-83"/>
      <use x="63.476562" xlink:href="#DejaVuSans-99"/>
      <use x="118.457031" xlink:href="#DejaVuSans-111"/>
      <use x="179.638672" xlink:href="#DejaVuSans-114"/>
      <use x="218.501953" xlink:href="#DejaVuSans-101"/>
      <use x="280.025391" xlink:href="#DejaVuSans-32"/>
      <use x="311.8125" xlink:href="#DejaVuSans-102"/>
      <use x="347.017578" xlink:href="#DejaVuSans-111"/>
      <use x="408.199219" xlink:href="#DejaVuSans-114"/>
      <use x="449.3125" xlink:href="#DejaVuSans-32"/>
      <use x="481.099609" xlink:href="#DejaVuSans-119"/>
      <use x="562.886719" xlink:href="#DejaVuSans-101"/>
      <use x="624.410156" xlink:href="#DejaVuSans-101"/>
      <use x="685.933594" xlink:href="#DejaVuSans-107"/>
      <use x="743.84375" xlink:href="#DejaVuSans-108"/>
      <use x="771.626953" xlink:href="#DejaVuSans-121"/>
      <use x="830.806641" xlink:href="#DejaVuSans-32"/>
      <use x="862.59375" xlink:href="#DejaVuSans-105"/>
      <use x="890.376953" xlink:href="#DejaVuSans-110"/>
      <use x="953.755859" xlink:href="#DejaVuSans-99"/>
      <use x="1008.736328" xlink:href="#DejaVuSans-105"/>
      <use x="1036.519531" xlink:href="#DejaVuSans-100"/>
      <use x="1099.996094" xlink:href="#DejaVuSans-101"/>
      <use x="1161.519531" xlink:href="#DejaVuSans-110"/>
      <use x="1224.898438" xlink:href="#DejaVuSans-116"/>
      <use x="1264.107422" xlink:href="#DejaVuSans-97"/>
      <use x="1325.386719" xlink:href="#DejaVuSans-108"/>
      <use x="1353.169922" xlink:href="#DejaVuSans-32"/>
      <use x="1384.957031" xlink:href="#DejaVuSans-99"/>
      <use x="1439.9375" xlink:href="#DejaVuSans-97"/>
      <use x="1501.216797" xlink:href="#DejaVuSans-115"/>
      <use x="1553.316406" xlink:href="#DejaVuSans-101"/>
      <use x="1614.839844" xlink:href="#DejaVuSans-115"/>
     </g>
    </g>
   </g>
   <g id="line2d_24">
    <path clip-path="url(#p6aa5fce664)" d="M 273.752009 153.181319 
L 285.709152 164.24807 
L 297.666295 154.75633 
L 309.623438 152.12901 
L 321.58058 157.472908 
L 333.537723 174.101991 
L 345.494866 161.238094 
L 357.452009 167.348004 
L 369.409152 152.369323 
L 381.366295 160.274578 
L 393.323438 173.282396 
L 405.28058 197.957446 
L 417.237723 178.60467 
L 429.194866 172.459358 
L 441.152009 154.151912 
L 453.109152 153.810697 
L 465.066295 170.667224 
L 477.023438 168.387195 
L 488.98058 161.912133 
L 500.937723 159.731804 
L 512.894866 169.188279 
L 524.852009 174.082507 
L 608.552009 142.387963 
L 620.509152 181.824827 
L 632.466295 159.599135 
L 644.423438 160.174039 
L 656.38058 188.628043 
L 668.337723 155.528865 
L 680.294866 141.647612 
L 692.252009 155.477012 
L 704.209152 158.402522 
L 716.166295 159.635562 
L 728.123438 137.092203 
" style="fill:none;stroke:#000080;stroke-linecap:square;stroke-width:1.5;"/>
    <defs>
     <path d="M 0 3 
C 0.795609 3 1.55874 2.683901 2.12132 2.12132 
C 2.683901 1.55874 3 0.795609 3 0 
C 3 -0.795609 2.683901 -1.55874 2.12132 -2.12132 
C 1.55874 -2.683901 0.795609 -3 0 -3 
C -0.795609 -3 -1.55874 -2.683901 -2.12132 -2.12132 
C -2.683901 -1.55874 -3 -0.795609 -3 0 
C -3 0.795609 -2.683901 1.55874 -2.12132 2.12132 
C -1.55874 2.683901 -0.795609 3 0 3 
z
" id="m7237b6058a" style="stroke:#000080;"/>
    </defs>
    <g clip-path="url(#p6aa5fce664)">
     <use style="fill:#000080;stroke:#000080;" x="273.752009" xlink:href="#m7237b6058a" y="153.181319"/>
     <use style="fill:#000080;stroke:#000080;" x="285.709152" xlink:href="#m7237b6058a" y="164.24807"/>
     <use style="fill:#000080;stroke:#000080;" x="297.666295" xlink:href="#m7237b6058a" y="154.75633"/>
     <use style="fill:#000080;stroke:#000080;" x="309.623438" xlink:href="#m7237b6058a" y="152.12901"/>
     <use style="fill:#000080;stroke:#000080;" x="321.58058" xlink:href="#m7237b6058a" y="157.472908"/>
     <use style="fill:#000080;stroke:#000080;" x="333.537723" xlink:href="#m7237b6058a" y="174.101991"/>
     <use style="fill:#000080;stroke:#000080;" x="345.494866" xlink:href="#m7237b6058a" y="161.238094"/>
     <use style="fill:#000080;stroke:#000080;" x="357.452009" xlink:href="#m7237b6058a" y="167.348004"/>
     <use style="fill:#000080;stroke:#000080;" x="369.409152" xlink:href="#m7237b6058a" y="152.369323"/>
     <use style="fill:#000080;stroke:#000080;" x="381.366295" xlink:href="#m7237b6058a" y="160.274578"/>
     <use style="fill:#000080;stroke:#000080;" x="393.323438" xlink:href="#m7237b6058a" y="173.282396"/>
     <use style="fill:#000080;stroke:#000080;" x="405.28058" xlink:href="#m7237b6058a" y="197.957446"/>
     <use style="fill:#000080;stroke:#000080;" x="417.237723" xlink:href="#m7237b6058a" y="178.60467"/>
     <use style="fill:#000080;stroke:#000080;" x="429.194866" xlink:href="#m7237b6058a" y="172.459358"/>
     <use style="fill:#000080;stroke:#000080;" x="441.152009" xlink:href="#m7237b6058a" y="154.151912"/>
     <use style="fill:#000080;stroke:#000080;" x="453.109152" xlink:href="#m7237b6058a" y="153.810697"/>
     <use style="fill:#000080;stroke:#000080;" x="465.066295" xlink:href="#m7237b6058a" y="170.667224"/>
     <use style="fill:#000080;stroke:#000080;" x="477.023438" xlink:href="#m7237b6058a" y="168.387195"/>
     <use style="fill:#000080;stroke:#000080;" x="488.98058" xlink:href="#m7237b6058a" y="161.912133"/>
     <use style="fill:#000080;stroke:#000080;" x="500.937723" xlink:href="#m7237b6058a" y="159.731804"/>
     <use style="fill:#000080;stroke:#000080;" x="512.894866" xlink:href="#m7237b6058a" y="169.188279"/>
     <use style="fill:#000080;stroke:#000080;" x="524.852009" xlink:href="#m7237b6058a" y="174.082507"/>
     <use style="fill:#000080;stroke:#000080;" x="608.552009" xlink:href="#m7237b6058a" y="142.387963"/>
     <use style="fill:#000080;stroke:#000080;" x="620.509152" xlink:href="#m7237b6058a" y="181.824827"/>
     <use style="fill:#000080;stroke:#000080;" x="632.466295" xlink:href="#m7237b6058a" y="159.599135"/>
     <use style="fill:#000080;stroke:#000080;" x="644.423438" xlink:href="#m7237b6058a" y="160.174039"/>
     <use style="fill:#000080;stroke:#000080;" x="656.38058" xlink:href="#m7237b6058a" y="188.628043"/>
     <use style="fill:#000080;stroke:#000080;" x="668.337723" xlink:href="#m7237b6058a" y="155.528865"/>
     <use style="fill:#000080;stroke:#000080;" x="680.294866" xlink:href="#m7237b6058a" y="141.647612"/>
     <use style="fill:#000080;stroke:#000080;" x="692.252009" xlink:href="#m7237b6058a" y="155.477012"/>
     <use style="fill:#000080;stroke:#000080;" x="704.209152" xlink:href="#m7237b6058a" y="158.402522"/>
     <use style="fill:#000080;stroke:#000080;" x="716.166295" xlink:href="#m7237b6058a" y="159.635562"/>
     <use style="fill:#000080;stroke:#000080;" x="728.123438" xlink:href="#m7237b6058a" y="137.092203"/>
    </g>
   </g>
   <g id="line2d_25">
    <path clip-path="url(#p6aa5fce664)" d="M 273.752009 151.973637 
L 285.709152 164.318314 
L 297.666295 154.172679 
L 309.623438 155.071634 
L 321.58058 161.26914 
L 333.537723 181.962548 
L 345.494866 174.004826 
L 357.452009 173.113245 
L 369.409152 160.642885 
L 381.366295 155.770252 
L 393.323438 170.154446 
L 405.28058 184.751213 
L 417.237723 174.711125 
L 429.194866 165.207176 
L 441.152009 155.406489 
L 453.109152 152.927296 
L 465.066295 164.600362 
L 477.023438 161.314876 
L 488.98058 167.182956 
L 500.937723 156.180232 
L 512.894866 168.990702 
L 524.852009 171.136123 
L 608.552009 139.466889 
L 620.509152 173.701454 
L 632.466295 163.321174 
L 644.423438 160.50394 
L 656.38058 188.30634 
L 668.337723 157.902533 
L 680.294866 138.704251 
L 692.252009 147.780227 
L 704.209152 169.039774 
L 716.166295 175.511691 
L 728.123438 148.374392 
" style="fill:none;stroke:#0000ff;stroke-linecap:square;stroke-width:1.5;"/>
    <defs>
     <path d="M 0 3 
C 0.795609 3 1.55874 2.683901 2.12132 2.12132 
C 2.683901 1.55874 3 0.795609 3 0 
C 3 -0.795609 2.683901 -1.55874 2.12132 -2.12132 
C 1.55874 -2.683901 0.795609 -3 0 -3 
C -0.795609 -3 -1.55874 -2.683901 -2.12132 -2.12132 
C -2.683901 -1.55874 -3 -0.795609 -3 0 
C -3 0.795609 -2.683901 1.55874 -2.12132 2.12132 
C -1.55874 2.683901 -0.795609 3 0 3 
z
" id="m2411453a93" style="stroke:#0000ff;"/>
    </defs>
    <g clip-path="url(#p6aa5fce664)">
     <use style="fill:#0000ff;stroke:#0000ff;" x="273.752009" xlink:href="#m2411453a93" y="151.973637"/>
     <use style="fill:#0000ff;stroke:#0000ff;" x="285.709152" xlink:href="#m2411453a93" y="164.318314"/>
     <use style="fill:#0000ff;stroke:#0000ff;" x="297.666295" xlink:href="#m2411453a93" y="154.172679"/>
     <use style="fill:#0000ff;stroke:#0000ff;" x="309.623438" xlink:href="#m2411453a93" y="155.071634"/>
     <use style="fill:#0000ff;stroke:#0000ff;" x="321.58058" xlink:href="#m2411453a93" y="161.26914"/>
     <use style="fill:#0000ff;stroke:#0000ff;" x="333.537723" xlink:href="#m2411453a93" y="181.962548"/>
     <use style="fill:#0000ff;stroke:#0000ff;" x="345.494866" xlink:href="#m2411453a93" y="174.004826"/>
     <use style="fill:#0000ff;stroke:#0000ff;" x="357.452009" xlink:href="#m2411453a93" y="173.113245"/>
     <use style="fill:#0000ff;stroke:#0000ff;" x="369.409152" xlink:href="#m2411453a93" y="160.642885"/>
     <use style="fill:#0000ff;stroke:#0000ff;" x="381.366295" xlink:href="#m2411453a93" y="155.770252"/>
     <use style="fill:#0000ff;stroke:#0000ff;" x="393.323438" xlink:href="#m2411453a93" y="170.154446"/>
     <use style="fill:#0000ff;stroke:#0000ff;" x="405.28058" xlink:href="#m2411453a93" y="184.751213"/>
     <use style="fill:#0000ff;stroke:#0000ff;" x="417.237723" xlink:href="#m2411453a93" y="174.711125"/>
     <use style="fill:#0000ff;stroke:#0000ff;" x="429.194866" xlink:href="#m2411453a93" y="165.207176"/>
     <use style="fill:#0000ff;stroke:#0000ff;" x="441.152009" xlink:href="#m2411453a93" y="155.406489"/>
     <use style="fill:#0000ff;stroke:#0000ff;" x="453.109152" xlink:href="#m2411453a93" y="152.927296"/>
     <use style="fill:#0000ff;stroke:#0000ff;" x="465.066295" xlink:href="#m2411453a93" y="164.600362"/>
     <use style="fill:#0000ff;stroke:#0000ff;" x="477.023438" xlink:href="#m2411453a93" y="161.314876"/>
     <use style="fill:#0000ff;stroke:#0000ff;" x="488.98058" xlink:href="#m2411453a93" y="167.182956"/>
     <use style="fill:#0000ff;stroke:#0000ff;" x="500.937723" xlink:href="#m2411453a93" y="156.180232"/>
     <use style="fill:#0000ff;stroke:#0000ff;" x="512.894866" xlink:href="#m2411453a93" y="168.990702"/>
     <use style="fill:#0000ff;stroke:#0000ff;" x="524.852009" xlink:href="#m2411453a93" y="171.136123"/>
     <use style="fill:#0000ff;stroke:#0000ff;" x="608.552009" xlink:href="#m2411453a93" y="139.466889"/>
     <use style="fill:#0000ff;stroke:#0000ff;" x="620.509152" xlink:href="#m2411453a93" y="173.701454"/>
     <use style="fill:#0000ff;stroke:#0000ff;" x="632.466295" xlink:href="#m2411453a93" y="163.321174"/>
     <use style="fill:#0000ff;stroke:#0000ff;" x="644.423438" xlink:href="#m2411453a93" y="160.50394"/>
     <use style="fill:#0000ff;stroke:#0000ff;" x="656.38058" xlink:href="#m2411453a93" y="188.30634"/>
     <use style="fill:#0000ff;stroke:#0000ff;" x="668.337723" xlink:href="#m2411453a93" y="157.902533"/>
     <use style="fill:#0000ff;stroke:#0000ff;" x="680.294866" xlink:href="#m2411453a93" y="138.704251"/>
     <use style="fill:#0000ff;stroke:#0000ff;" x="692.252009" xlink:href="#m2411453a93" y="147.780227"/>
     <use style="fill:#0000ff;stroke:#0000ff;" x="704.209152" xlink:href="#m2411453a93" y="169.039774"/>
     <use style="fill:#0000ff;stroke:#0000ff;" x="716.166295" xlink:href="#m2411453a93" y="175.511691"/>
     <use style="fill:#0000ff;stroke:#0000ff;" x="728.123438" xlink:href="#m2411453a93" y="148.374392"/>
    </g>
   </g>
   <g id="line2d_26">
    <path clip-path="url(#p6aa5fce664)" d="M 273.752009 149.381413 
L 285.709152 150.105863 
L 297.666295 144.351319 
L 309.623438 153.440828 
L 321.58058 146.901553 
L 333.537723 147.275951 
L 345.494866 142.991957 
L 357.452009 143.462864 
L 369.409152 146.104822 
L 381.366295 181.546242 
L 393.323438 195.55482 
L 417.237723 207.833465 
L 429.194866 197.653708 
L 441.152009 145.887494 
L 453.109152 152.26955 
L 465.066295 164.60231 
L 477.023438 159.683447 
L 488.98058 156.703967 
L 500.937723 152.95782 
L 512.894866 163.006923 
L 524.852009 163.469632 
L 608.552009 129.98405 
L 620.509152 162.690051 
L 632.466295 147.812435 
L 644.423438 157.808601 
L 668.337723 184.668607 
L 680.294866 122.74543 
L 692.252009 152.427076 
L 704.209152 149.357599 
L 716.166295 152.463698 
L 728.123438 133.158862 
" style="fill:none;stroke:#0060ff;stroke-linecap:square;stroke-width:1.5;"/>
    <defs>
     <path d="M 0 3 
C 0.795609 3 1.55874 2.683901 2.12132 2.12132 
C 2.683901 1.55874 3 0.795609 3 0 
C 3 -0.795609 2.683901 -1.55874 2.12132 -2.12132 
C 1.55874 -2.683901 0.795609 -3 0 -3 
C -0.795609 -3 -1.55874 -2.683901 -2.12132 -2.12132 
C -2.683901 -1.55874 -3 -0.795609 -3 0 
C -3 0.795609 -2.683901 1.55874 -2.12132 2.12132 
C -1.55874 2.683901 -0.795609 3 0 3 
z
" id="m0a30cdc7ce" style="stroke:#0060ff;"/>
    </defs>
    <g clip-path="url(#p6aa5fce664)">
     <use style="fill:#0060ff;stroke:#0060ff;" x="273.752009" xlink:href="#m0a30cdc7ce" y="149.381413"/>
     <use style="fill:#0060ff;stroke:#0060ff;" x="285.709152" xlink:href="#m0a30cdc7ce" y="150.105863"/>
     <use style="fill:#0060ff;stroke:#0060ff;" x="297.666295" xlink:href="#m0a30cdc7ce" y="144.351319"/>
     <use style="fill:#0060ff;stroke:#0060ff;" x="309.623438" xlink:href="#m0a30cdc7ce" y="153.440828"/>
     <use style="fill:#0060ff;stroke:#0060ff;" x="321.58058" xlink:href="#m0a30cdc7ce" y="146.901553"/>
     <use style="fill:#0060ff;stroke:#0060ff;" x="333.537723" xlink:href="#m0a30cdc7ce" y="147.275951"/>
     <use style="fill:#0060ff;stroke:#0060ff;" x="345.494866" xlink:href="#m0a30cdc7ce" y="142.991957"/>
     <use style="fill:#0060ff;stroke:#0060ff;" x="357.452009" xlink:href="#m0a30cdc7ce" y="143.462864"/>
     <use style="fill:#0060ff;stroke:#0060ff;" x="369.409152" xlink:href="#m0a30cdc7ce" y="146.104822"/>
     <use style="fill:#0060ff;stroke:#0060ff;" x="381.366295" xlink:href="#m0a30cdc7ce" y="181.546242"/>
     <use style="fill:#0060ff;stroke:#0060ff;" x="393.323438" xlink:href="#m0a30cdc7ce" y="195.55482"/>
     <use style="fill:#0060ff;stroke:#0060ff;" x="417.237723" xlink:href="#m0a30cdc7ce" y="207.833465"/>
     <use style="fill:#0060ff;stroke:#0060ff;" x="429.194866" xlink:href="#m0a30cdc7ce" y="197.653708"/>
     <use style="fill:#0060ff;stroke:#0060ff;" x="441.152009" xlink:href="#m0a30cdc7ce" y="145.887494"/>
     <use style="fill:#0060ff;stroke:#0060ff;" x="453.109152" xlink:href="#m0a30cdc7ce" y="152.26955"/>
     <use style="fill:#0060ff;stroke:#0060ff;" x="465.066295" xlink:href="#m0a30cdc7ce" y="164.60231"/>
     <use style="fill:#0060ff;stroke:#0060ff;" x="477.023438" xlink:href="#m0a30cdc7ce" y="159.683447"/>
     <use style="fill:#0060ff;stroke:#0060ff;" x="488.98058" xlink:href="#m0a30cdc7ce" y="156.703967"/>
     <use style="fill:#0060ff;stroke:#0060ff;" x="500.937723" xlink:href="#m0a30cdc7ce" y="152.95782"/>
     <use style="fill:#0060ff;stroke:#0060ff;" x="512.894866" xlink:href="#m0a30cdc7ce" y="163.006923"/>
     <use style="fill:#0060ff;stroke:#0060ff;" x="524.852009" xlink:href="#m0a30cdc7ce" y="163.469632"/>
     <use style="fill:#0060ff;stroke:#0060ff;" x="608.552009" xlink:href="#m0a30cdc7ce" y="129.98405"/>
     <use style="fill:#0060ff;stroke:#0060ff;" x="620.509152" xlink:href="#m0a30cdc7ce" y="162.690051"/>
     <use style="fill:#0060ff;stroke:#0060ff;" x="632.466295" xlink:href="#m0a30cdc7ce" y="147.812435"/>
     <use style="fill:#0060ff;stroke:#0060ff;" x="644.423438" xlink:href="#m0a30cdc7ce" y="157.808601"/>
     <use style="fill:#0060ff;stroke:#0060ff;" x="668.337723" xlink:href="#m0a30cdc7ce" y="184.668607"/>
     <use style="fill:#0060ff;stroke:#0060ff;" x="680.294866" xlink:href="#m0a30cdc7ce" y="122.74543"/>
     <use style="fill:#0060ff;stroke:#0060ff;" x="692.252009" xlink:href="#m0a30cdc7ce" y="152.427076"/>
     <use style="fill:#0060ff;stroke:#0060ff;" x="704.209152" xlink:href="#m0a30cdc7ce" y="149.357599"/>
     <use style="fill:#0060ff;stroke:#0060ff;" x="716.166295" xlink:href="#m0a30cdc7ce" y="152.463698"/>
     <use style="fill:#0060ff;stroke:#0060ff;" x="728.123438" xlink:href="#m0a30cdc7ce" y="133.158862"/>
    </g>
   </g>
   <g id="line2d_27">
    <path clip-path="url(#p6aa5fce664)" d="M 273.752009 148.29363 
L 285.709152 160.366595 
L 297.666295 148.99532 
L 309.623438 145.592281 
L 321.58058 152.699349 
L 333.537723 157.745598 
L 345.494866 151.046756 
L 357.452009 169.34872 
L 369.409152 146.478841 
L 381.366295 161.156987 
L 393.323438 182.156661 
L 417.237723 195.361127 
L 429.194866 176.648371 
L 441.152009 153.795242 
L 453.109152 153.027344 
L 465.066295 160.477136 
L 477.023438 159.288527 
L 488.98058 179.191487 
L 500.937723 154.801476 
L 512.894866 161.678034 
L 524.852009 161.204108 
L 608.552009 138.549801 
L 620.509152 162.632504 
L 632.466295 156.98274 
L 644.423438 150.047909 
L 656.38058 181.436191 
L 668.337723 150.209158 
L 680.294866 144.411486 
L 692.252009 175.019133 
L 704.209152 152.569303 
L 716.166295 172.540306 
L 728.123438 146.57102 
" style="fill:none;stroke:#00d4ff;stroke-linecap:square;stroke-width:1.5;"/>
    <defs>
     <path d="M 0 3 
C 0.795609 3 1.55874 2.683901 2.12132 2.12132 
C 2.683901 1.55874 3 0.795609 3 0 
C 3 -0.795609 2.683901 -1.55874 2.12132 -2.12132 
C 1.55874 -2.683901 0.795609 -3 0 -3 
C -0.795609 -3 -1.55874 -2.683901 -2.12132 -2.12132 
C -2.683901 -1.55874 -3 -0.795609 -3 0 
C -3 0.795609 -2.683901 1.55874 -2.12132 2.12132 
C -1.55874 2.683901 -0.795609 3 0 3 
z
" id="m14683bc7a4" style="stroke:#00d4ff;"/>
    </defs>
    <g clip-path="url(#p6aa5fce664)">
     <use style="fill:#00d4ff;stroke:#00d4ff;" x="273.752009" xlink:href="#m14683bc7a4" y="148.29363"/>
     <use style="fill:#00d4ff;stroke:#00d4ff;" x="285.709152" xlink:href="#m14683bc7a4" y="160.366595"/>
     <use style="fill:#00d4ff;stroke:#00d4ff;" x="297.666295" xlink:href="#m14683bc7a4" y="148.99532"/>
     <use style="fill:#00d4ff;stroke:#00d4ff;" x="309.623438" xlink:href="#m14683bc7a4" y="145.592281"/>
     <use style="fill:#00d4ff;stroke:#00d4ff;" x="321.58058" xlink:href="#m14683bc7a4" y="152.699349"/>
     <use style="fill:#00d4ff;stroke:#00d4ff;" x="333.537723" xlink:href="#m14683bc7a4" y="157.745598"/>
     <use style="fill:#00d4ff;stroke:#00d4ff;" x="345.494866" xlink:href="#m14683bc7a4" y="151.046756"/>
     <use style="fill:#00d4ff;stroke:#00d4ff;" x="357.452009" xlink:href="#m14683bc7a4" y="169.34872"/>
     <use style="fill:#00d4ff;stroke:#00d4ff;" x="369.409152" xlink:href="#m14683bc7a4" y="146.478841"/>
     <use style="fill:#00d4ff;stroke:#00d4ff;" x="381.366295" xlink:href="#m14683bc7a4" y="161.156987"/>
     <use style="fill:#00d4ff;stroke:#00d4ff;" x="393.323438" xlink:href="#m14683bc7a4" y="182.156661"/>
     <use style="fill:#00d4ff;stroke:#00d4ff;" x="417.237723" xlink:href="#m14683bc7a4" y="195.361127"/>
     <use style="fill:#00d4ff;stroke:#00d4ff;" x="429.194866" xlink:href="#m14683bc7a4" y="176.648371"/>
     <use style="fill:#00d4ff;stroke:#00d4ff;" x="441.152009" xlink:href="#m14683bc7a4" y="153.795242"/>
     <use style="fill:#00d4ff;stroke:#00d4ff;" x="453.109152" xlink:href="#m14683bc7a4" y="153.027344"/>
     <use style="fill:#00d4ff;stroke:#00d4ff;" x="465.066295" xlink:href="#m14683bc7a4" y="160.477136"/>
     <use style="fill:#00d4ff;stroke:#00d4ff;" x="477.023438" xlink:href="#m14683bc7a4" y="159.288527"/>
     <use style="fill:#00d4ff;stroke:#00d4ff;" x="488.98058" xlink:href="#m14683bc7a4" y="179.191487"/>
     <use style="fill:#00d4ff;stroke:#00d4ff;" x="500.937723" xlink:href="#m14683bc7a4" y="154.801476"/>
     <use style="fill:#00d4ff;stroke:#00d4ff;" x="512.894866" xlink:href="#m14683bc7a4" y="161.678034"/>
     <use style="fill:#00d4ff;stroke:#00d4ff;" x="524.852009" xlink:href="#m14683bc7a4" y="161.204108"/>
     <use style="fill:#00d4ff;stroke:#00d4ff;" x="608.552009" xlink:href="#m14683bc7a4" y="138.549801"/>
     <use style="fill:#00d4ff;stroke:#00d4ff;" x="620.509152" xlink:href="#m14683bc7a4" y="162.632504"/>
     <use style="fill:#00d4ff;stroke:#00d4ff;" x="632.466295" xlink:href="#m14683bc7a4" y="156.98274"/>
     <use style="fill:#00d4ff;stroke:#00d4ff;" x="644.423438" xlink:href="#m14683bc7a4" y="150.047909"/>
     <use style="fill:#00d4ff;stroke:#00d4ff;" x="656.38058" xlink:href="#m14683bc7a4" y="181.436191"/>
     <use style="fill:#00d4ff;stroke:#00d4ff;" x="668.337723" xlink:href="#m14683bc7a4" y="150.209158"/>
     <use style="fill:#00d4ff;stroke:#00d4ff;" x="680.294866" xlink:href="#m14683bc7a4" y="144.411486"/>
     <use style="fill:#00d4ff;stroke:#00d4ff;" x="692.252009" xlink:href="#m14683bc7a4" y="175.019133"/>
     <use style="fill:#00d4ff;stroke:#00d4ff;" x="704.209152" xlink:href="#m14683bc7a4" y="152.569303"/>
     <use style="fill:#00d4ff;stroke:#00d4ff;" x="716.166295" xlink:href="#m14683bc7a4" y="172.540306"/>
     <use style="fill:#00d4ff;stroke:#00d4ff;" x="728.123438" xlink:href="#m14683bc7a4" y="146.57102"/>
    </g>
   </g>
   <g id="line2d_28">
    <path clip-path="url(#p6aa5fce664)" d="M 273.752009 151.973637 
L 285.709152 164.318314 
L 297.666295 154.172679 
L 309.623438 145.592281 
L 321.58058 152.699349 
L 333.537723 157.745598 
L 345.494866 151.046756 
L 357.452009 169.34872 
L 369.409152 146.478841 
L 381.366295 161.156987 
L 393.323438 182.156661 
L 417.237723 195.361127 
L 429.194866 176.648371 
L 441.152009 145.887494 
L 453.109152 153.027344 
L 465.066295 164.60231 
L 477.023438 159.683447 
L 488.98058 156.703967 
L 500.937723 152.95782 
L 512.894866 161.678034 
L 524.852009 161.204108 
L 608.552009 138.549801 
L 620.509152 162.632504 
L 632.466295 156.98274 
L 644.423438 150.047909 
L 656.38058 181.436191 
L 668.337723 184.668607 
L 680.294866 122.74543 
L 692.252009 152.427076 
L 704.209152 152.569303 
L 716.166295 172.540306 
L 728.123438 146.57102 
" style="fill:none;stroke:#4dffaa;stroke-linecap:square;stroke-width:1.5;"/>
    <defs>
     <path d="M 0 3 
C 0.795609 3 1.55874 2.683901 2.12132 2.12132 
C 2.683901 1.55874 3 0.795609 3 0 
C 3 -0.795609 2.683901 -1.55874 2.12132 -2.12132 
C 1.55874 -2.683901 0.795609 -3 0 -3 
C -0.795609 -3 -1.55874 -2.683901 -2.12132 -2.12132 
C -2.683901 -1.55874 -3 -0.795609 -3 0 
C -3 0.795609 -2.683901 1.55874 -2.12132 2.12132 
C -1.55874 2.683901 -0.795609 3 0 3 
z
" id="m91771fd9a8" style="stroke:#4dffaa;"/>
    </defs>
    <g clip-path="url(#p6aa5fce664)">
     <use style="fill:#4dffaa;stroke:#4dffaa;" x="273.752009" xlink:href="#m91771fd9a8" y="151.973637"/>
     <use style="fill:#4dffaa;stroke:#4dffaa;" x="285.709152" xlink:href="#m91771fd9a8" y="164.318314"/>
     <use style="fill:#4dffaa;stroke:#4dffaa;" x="297.666295" xlink:href="#m91771fd9a8" y="154.172679"/>
     <use style="fill:#4dffaa;stroke:#4dffaa;" x="309.623438" xlink:href="#m91771fd9a8" y="145.592281"/>
     <use style="fill:#4dffaa;stroke:#4dffaa;" x="321.58058" xlink:href="#m91771fd9a8" y="152.699349"/>
     <use style="fill:#4dffaa;stroke:#4dffaa;" x="333.537723" xlink:href="#m91771fd9a8" y="157.745598"/>
     <use style="fill:#4dffaa;stroke:#4dffaa;" x="345.494866" xlink:href="#m91771fd9a8" y="151.046756"/>
     <use style="fill:#4dffaa;stroke:#4dffaa;" x="357.452009" xlink:href="#m91771fd9a8" y="169.34872"/>
     <use style="fill:#4dffaa;stroke:#4dffaa;" x="369.409152" xlink:href="#m91771fd9a8" y="146.478841"/>
     <use style="fill:#4dffaa;stroke:#4dffaa;" x="381.366295" xlink:href="#m91771fd9a8" y="161.156987"/>
     <use style="fill:#4dffaa;stroke:#4dffaa;" x="393.323438" xlink:href="#m91771fd9a8" y="182.156661"/>
     <use style="fill:#4dffaa;stroke:#4dffaa;" x="417.237723" xlink:href="#m91771fd9a8" y="195.361127"/>
     <use style="fill:#4dffaa;stroke:#4dffaa;" x="429.194866" xlink:href="#m91771fd9a8" y="176.648371"/>
     <use style="fill:#4dffaa;stroke:#4dffaa;" x="441.152009" xlink:href="#m91771fd9a8" y="145.887494"/>
     <use style="fill:#4dffaa;stroke:#4dffaa;" x="453.109152" xlink:href="#m91771fd9a8" y="153.027344"/>
     <use style="fill:#4dffaa;stroke:#4dffaa;" x="465.066295" xlink:href="#m91771fd9a8" y="164.60231"/>
     <use style="fill:#4dffaa;stroke:#4dffaa;" x="477.023438" xlink:href="#m91771fd9a8" y="159.683447"/>
     <use style="fill:#4dffaa;stroke:#4dffaa;" x="488.98058" xlink:href="#m91771fd9a8" y="156.703967"/>
     <use style="fill:#4dffaa;stroke:#4dffaa;" x="500.937723" xlink:href="#m91771fd9a8" y="152.95782"/>
     <use style="fill:#4dffaa;stroke:#4dffaa;" x="512.894866" xlink:href="#m91771fd9a8" y="161.678034"/>
     <use style="fill:#4dffaa;stroke:#4dffaa;" x="524.852009" xlink:href="#m91771fd9a8" y="161.204108"/>
     <use style="fill:#4dffaa;stroke:#4dffaa;" x="608.552009" xlink:href="#m91771fd9a8" y="138.549801"/>
     <use style="fill:#4dffaa;stroke:#4dffaa;" x="620.509152" xlink:href="#m91771fd9a8" y="162.632504"/>
     <use style="fill:#4dffaa;stroke:#4dffaa;" x="632.466295" xlink:href="#m91771fd9a8" y="156.98274"/>
     <use style="fill:#4dffaa;stroke:#4dffaa;" x="644.423438" xlink:href="#m91771fd9a8" y="150.047909"/>
     <use style="fill:#4dffaa;stroke:#4dffaa;" x="656.38058" xlink:href="#m91771fd9a8" y="181.436191"/>
     <use style="fill:#4dffaa;stroke:#4dffaa;" x="668.337723" xlink:href="#m91771fd9a8" y="184.668607"/>
     <use style="fill:#4dffaa;stroke:#4dffaa;" x="680.294866" xlink:href="#m91771fd9a8" y="122.74543"/>
     <use style="fill:#4dffaa;stroke:#4dffaa;" x="692.252009" xlink:href="#m91771fd9a8" y="152.427076"/>
     <use style="fill:#4dffaa;stroke:#4dffaa;" x="704.209152" xlink:href="#m91771fd9a8" y="152.569303"/>
     <use style="fill:#4dffaa;stroke:#4dffaa;" x="716.166295" xlink:href="#m91771fd9a8" y="172.540306"/>
     <use style="fill:#4dffaa;stroke:#4dffaa;" x="728.123438" xlink:href="#m91771fd9a8" y="146.57102"/>
    </g>
   </g>
   <g id="line2d_29">
    <path clip-path="url(#p6aa5fce664)" d="M 225.923438 135.194535 
L 237.88058 122.346206 
L 249.837723 150.98034 
L 309.623438 113.772787 
L 321.58058 181.701676 
L 465.066295 198.139932 
L 477.023438 141.15984 
L 488.98058 162.720938 
L 500.937723 177.062637 
L 512.894866 160.801633 
L 524.852009 135.209754 
L 536.809152 131.64483 
L 620.509152 146.959579 
L 692.252009 170.26415 
L 728.123438 156.272859 
" style="fill:none;stroke:#aaff4d;stroke-linecap:square;stroke-width:1.5;"/>
    <defs>
     <path d="M 0 3 
C 0.795609 3 1.55874 2.683901 2.12132 2.12132 
C 2.683901 1.55874 3 0.795609 3 0 
C 3 -0.795609 2.683901 -1.55874 2.12132 -2.12132 
C 1.55874 -2.683901 0.795609 -3 0 -3 
C -0.795609 -3 -1.55874 -2.683901 -2.12132 -2.12132 
C -2.683901 -1.55874 -3 -0.795609 -3 0 
C -3 0.795609 -2.683901 1.55874 -2.12132 2.12132 
C -1.55874 2.683901 -0.795609 3 0 3 
z
" id="mc3ced62ab4" style="stroke:#aaff4d;"/>
    </defs>
    <g clip-path="url(#p6aa5fce664)">
     <use style="fill:#aaff4d;stroke:#aaff4d;" x="225.923438" xlink:href="#mc3ced62ab4" y="135.194535"/>
     <use style="fill:#aaff4d;stroke:#aaff4d;" x="237.88058" xlink:href="#mc3ced62ab4" y="122.346206"/>
     <use style="fill:#aaff4d;stroke:#aaff4d;" x="249.837723" xlink:href="#mc3ced62ab4" y="150.98034"/>
     <use style="fill:#aaff4d;stroke:#aaff4d;" x="309.623438" xlink:href="#mc3ced62ab4" y="113.772787"/>
     <use style="fill:#aaff4d;stroke:#aaff4d;" x="321.58058" xlink:href="#mc3ced62ab4" y="181.701676"/>
     <use style="fill:#aaff4d;stroke:#aaff4d;" x="465.066295" xlink:href="#mc3ced62ab4" y="198.139932"/>
     <use style="fill:#aaff4d;stroke:#aaff4d;" x="477.023438" xlink:href="#mc3ced62ab4" y="141.15984"/>
     <use style="fill:#aaff4d;stroke:#aaff4d;" x="488.98058" xlink:href="#mc3ced62ab4" y="162.720938"/>
     <use style="fill:#aaff4d;stroke:#aaff4d;" x="500.937723" xlink:href="#mc3ced62ab4" y="177.062637"/>
     <use style="fill:#aaff4d;stroke:#aaff4d;" x="512.894866" xlink:href="#mc3ced62ab4" y="160.801633"/>
     <use style="fill:#aaff4d;stroke:#aaff4d;" x="524.852009" xlink:href="#mc3ced62ab4" y="135.209754"/>
     <use style="fill:#aaff4d;stroke:#aaff4d;" x="536.809152" xlink:href="#mc3ced62ab4" y="131.64483"/>
     <use style="fill:#aaff4d;stroke:#aaff4d;" x="620.509152" xlink:href="#mc3ced62ab4" y="146.959579"/>
     <use style="fill:#aaff4d;stroke:#aaff4d;" x="692.252009" xlink:href="#mc3ced62ab4" y="170.26415"/>
     <use style="fill:#aaff4d;stroke:#aaff4d;" x="728.123438" xlink:href="#mc3ced62ab4" y="156.272859"/>
    </g>
   </g>
   <g id="line2d_30">
    <path clip-path="url(#p6aa5fce664)" d="M 596.594866 158.928434 
L 608.552009 164.365499 
L 620.509152 150.249189 
L 632.466295 174.398148 
L 644.423438 172.366348 
L 656.38058 165.312563 
L 668.337723 163.780055 
L 680.294866 178.479588 
L 692.252009 175.097581 
L 704.209152 188.824685 
" style="fill:none;stroke:#ffe600;stroke-linecap:square;stroke-width:1.5;"/>
    <defs>
     <path d="M 0 3 
C 0.795609 3 1.55874 2.683901 2.12132 2.12132 
C 2.683901 1.55874 3 0.795609 3 0 
C 3 -0.795609 2.683901 -1.55874 2.12132 -2.12132 
C 1.55874 -2.683901 0.795609 -3 0 -3 
C -0.795609 -3 -1.55874 -2.683901 -2.12132 -2.12132 
C -2.683901 -1.55874 -3 -0.795609 -3 0 
C -3 0.795609 -2.683901 1.55874 -2.12132 2.12132 
C -1.55874 2.683901 -0.795609 3 0 3 
z
" id="m0b8ac98540" style="stroke:#ffe600;"/>
    </defs>
    <g clip-path="url(#p6aa5fce664)">
     <use style="fill:#ffe600;stroke:#ffe600;" x="596.594866" xlink:href="#m0b8ac98540" y="158.928434"/>
     <use style="fill:#ffe600;stroke:#ffe600;" x="608.552009" xlink:href="#m0b8ac98540" y="164.365499"/>
     <use style="fill:#ffe600;stroke:#ffe600;" x="620.509152" xlink:href="#m0b8ac98540" y="150.249189"/>
     <use style="fill:#ffe600;stroke:#ffe600;" x="632.466295" xlink:href="#m0b8ac98540" y="174.398148"/>
     <use style="fill:#ffe600;stroke:#ffe600;" x="644.423438" xlink:href="#m0b8ac98540" y="172.366348"/>
     <use style="fill:#ffe600;stroke:#ffe600;" x="656.38058" xlink:href="#m0b8ac98540" y="165.312563"/>
     <use style="fill:#ffe600;stroke:#ffe600;" x="668.337723" xlink:href="#m0b8ac98540" y="163.780055"/>
     <use style="fill:#ffe600;stroke:#ffe600;" x="680.294866" xlink:href="#m0b8ac98540" y="178.479588"/>
     <use style="fill:#ffe600;stroke:#ffe600;" x="692.252009" xlink:href="#m0b8ac98540" y="175.097581"/>
     <use style="fill:#ffe600;stroke:#ffe600;" x="704.209152" xlink:href="#m0b8ac98540" y="188.824685"/>
    </g>
   </g>
   <g id="line2d_31">
    <path clip-path="url(#p6aa5fce664)" d="M 321.58058 137.266686 
L 333.537723 143.42628 
L 357.452009 143.150517 
L 465.066295 200.397391 
L 477.023438 162.525398 
L 488.98058 146.387528 
L 500.937723 167.042437 
L 512.894866 160.098635 
L 524.852009 146.263796 
L 572.68058 136.101449 
L 584.637723 149.685817 
L 596.594866 143.754103 
L 608.552009 142.664932 
L 632.466295 153.42024 
L 644.423438 172.037931 
L 668.337723 136.505592 
L 680.294866 150.39795 
L 692.252009 166.641833 
L 704.209152 191.631741 
L 716.166295 183.398838 
L 728.123438 142.58213 
" style="fill:none;stroke:#ff7a00;stroke-linecap:square;stroke-width:1.5;"/>
    <defs>
     <path d="M 0 3 
C 0.795609 3 1.55874 2.683901 2.12132 2.12132 
C 2.683901 1.55874 3 0.795609 3 0 
C 3 -0.795609 2.683901 -1.55874 2.12132 -2.12132 
C 1.55874 -2.683901 0.795609 -3 0 -3 
C -0.795609 -3 -1.55874 -2.683901 -2.12132 -2.12132 
C -2.683901 -1.55874 -3 -0.795609 -3 0 
C -3 0.795609 -2.683901 1.55874 -2.12132 2.12132 
C -1.55874 2.683901 -0.795609 3 0 3 
z
" id="me26988e587" style="stroke:#ff7a00;"/>
    </defs>
    <g clip-path="url(#p6aa5fce664)">
     <use style="fill:#ff7a00;stroke:#ff7a00;" x="321.58058" xlink:href="#me26988e587" y="137.266686"/>
     <use style="fill:#ff7a00;stroke:#ff7a00;" x="333.537723" xlink:href="#me26988e587" y="143.42628"/>
     <use style="fill:#ff7a00;stroke:#ff7a00;" x="357.452009" xlink:href="#me26988e587" y="143.150517"/>
     <use style="fill:#ff7a00;stroke:#ff7a00;" x="465.066295" xlink:href="#me26988e587" y="200.397391"/>
     <use style="fill:#ff7a00;stroke:#ff7a00;" x="477.023438" xlink:href="#me26988e587" y="162.525398"/>
     <use style="fill:#ff7a00;stroke:#ff7a00;" x="488.98058" xlink:href="#me26988e587" y="146.387528"/>
     <use style="fill:#ff7a00;stroke:#ff7a00;" x="500.937723" xlink:href="#me26988e587" y="167.042437"/>
     <use style="fill:#ff7a00;stroke:#ff7a00;" x="512.894866" xlink:href="#me26988e587" y="160.098635"/>
     <use style="fill:#ff7a00;stroke:#ff7a00;" x="524.852009" xlink:href="#me26988e587" y="146.263796"/>
     <use style="fill:#ff7a00;stroke:#ff7a00;" x="572.68058" xlink:href="#me26988e587" y="136.101449"/>
     <use style="fill:#ff7a00;stroke:#ff7a00;" x="584.637723" xlink:href="#me26988e587" y="149.685817"/>
     <use style="fill:#ff7a00;stroke:#ff7a00;" x="596.594866" xlink:href="#me26988e587" y="143.754103"/>
     <use style="fill:#ff7a00;stroke:#ff7a00;" x="608.552009" xlink:href="#me26988e587" y="142.664932"/>
     <use style="fill:#ff7a00;stroke:#ff7a00;" x="632.466295" xlink:href="#me26988e587" y="153.42024"/>
     <use style="fill:#ff7a00;stroke:#ff7a00;" x="644.423438" xlink:href="#me26988e587" y="172.037931"/>
     <use style="fill:#ff7a00;stroke:#ff7a00;" x="668.337723" xlink:href="#me26988e587" y="136.505592"/>
     <use style="fill:#ff7a00;stroke:#ff7a00;" x="680.294866" xlink:href="#me26988e587" y="150.39795"/>
     <use style="fill:#ff7a00;stroke:#ff7a00;" x="692.252009" xlink:href="#me26988e587" y="166.641833"/>
     <use style="fill:#ff7a00;stroke:#ff7a00;" x="704.209152" xlink:href="#me26988e587" y="191.631741"/>
     <use style="fill:#ff7a00;stroke:#ff7a00;" x="716.166295" xlink:href="#me26988e587" y="183.398838"/>
     <use style="fill:#ff7a00;stroke:#ff7a00;" x="728.123438" xlink:href="#me26988e587" y="142.58213"/>
    </g>
   </g>
   <g id="line2d_32">
    <path clip-path="url(#p6aa5fce664)" d="M 453.109152 187.552024 
L 465.066295 156.723572 
L 477.023438 172.494027 
L 488.98058 151.732978 
L 500.937723 155.176895 
L 512.894866 135.90974 
L 524.852009 160.684654 
L 536.809152 158.524448 
L 548.766295 207.492922 
L 560.723437 231.704897 
L 596.594866 130.16502 
L 608.552009 125.447463 
L 632.466295 156.135956 
L 644.423438 143.560239 
L 656.38058 152.051303 
L 668.337723 147.036547 
L 680.294866 157.823286 
L 692.252009 124.509559 
L 704.209152 151.918746 
L 728.123438 127.339868 
" style="fill:none;stroke:#ff1300;stroke-linecap:square;stroke-width:1.5;"/>
    <defs>
     <path d="M 0 3 
C 0.795609 3 1.55874 2.683901 2.12132 2.12132 
C 2.683901 1.55874 3 0.795609 3 0 
C 3 -0.795609 2.683901 -1.55874 2.12132 -2.12132 
C 1.55874 -2.683901 0.795609 -3 0 -3 
C -0.795609 -3 -1.55874 -2.683901 -2.12132 -2.12132 
C -2.683901 -1.55874 -3 -0.795609 -3 0 
C -3 0.795609 -2.683901 1.55874 -2.12132 2.12132 
C -1.55874 2.683901 -0.795609 3 0 3 
z
" id="md77a27aefa" style="stroke:#ff1300;"/>
    </defs>
    <g clip-path="url(#p6aa5fce664)">
     <use style="fill:#ff1300;stroke:#ff1300;" x="453.109152" xlink:href="#md77a27aefa" y="187.552024"/>
     <use style="fill:#ff1300;stroke:#ff1300;" x="465.066295" xlink:href="#md77a27aefa" y="156.723572"/>
     <use style="fill:#ff1300;stroke:#ff1300;" x="477.023438" xlink:href="#md77a27aefa" y="172.494027"/>
     <use style="fill:#ff1300;stroke:#ff1300;" x="488.98058" xlink:href="#md77a27aefa" y="151.732978"/>
     <use style="fill:#ff1300;stroke:#ff1300;" x="500.937723" xlink:href="#md77a27aefa" y="155.176895"/>
     <use style="fill:#ff1300;stroke:#ff1300;" x="512.894866" xlink:href="#md77a27aefa" y="135.90974"/>
     <use style="fill:#ff1300;stroke:#ff1300;" x="524.852009" xlink:href="#md77a27aefa" y="160.684654"/>
     <use style="fill:#ff1300;stroke:#ff1300;" x="536.809152" xlink:href="#md77a27aefa" y="158.524448"/>
     <use style="fill:#ff1300;stroke:#ff1300;" x="548.766295" xlink:href="#md77a27aefa" y="207.492922"/>
     <use style="fill:#ff1300;stroke:#ff1300;" x="560.723437" xlink:href="#md77a27aefa" y="231.704897"/>
     <use style="fill:#ff1300;stroke:#ff1300;" x="596.594866" xlink:href="#md77a27aefa" y="130.16502"/>
     <use style="fill:#ff1300;stroke:#ff1300;" x="608.552009" xlink:href="#md77a27aefa" y="125.447463"/>
     <use style="fill:#ff1300;stroke:#ff1300;" x="632.466295" xlink:href="#md77a27aefa" y="156.135956"/>
     <use style="fill:#ff1300;stroke:#ff1300;" x="644.423438" xlink:href="#md77a27aefa" y="143.560239"/>
     <use style="fill:#ff1300;stroke:#ff1300;" x="656.38058" xlink:href="#md77a27aefa" y="152.051303"/>
     <use style="fill:#ff1300;stroke:#ff1300;" x="668.337723" xlink:href="#md77a27aefa" y="147.036547"/>
     <use style="fill:#ff1300;stroke:#ff1300;" x="680.294866" xlink:href="#md77a27aefa" y="157.823286"/>
     <use style="fill:#ff1300;stroke:#ff1300;" x="692.252009" xlink:href="#md77a27aefa" y="124.509559"/>
     <use style="fill:#ff1300;stroke:#ff1300;" x="704.209152" xlink:href="#md77a27aefa" y="151.918746"/>
     <use style="fill:#ff1300;stroke:#ff1300;" x="728.123438" xlink:href="#md77a27aefa" y="127.339868"/>
    </g>
   </g>
   <g id="line2d_33">
    <path clip-path="url(#p6aa5fce664)" d="M 441.152009 183.23029 
" style="fill:none;stroke:#800000;stroke-linecap:square;stroke-width:1.5;"/>
    <defs>
     <path d="M 0 3 
C 0.795609 3 1.55874 2.683901 2.12132 2.12132 
C 2.683901 1.55874 3 0.795609 3 0 
C 3 -0.795609 2.683901 -1.55874 2.12132 -2.12132 
C 1.55874 -2.683901 0.795609 -3 0 -3 
C -0.795609 -3 -1.55874 -2.683901 -2.12132 -2.12132 
C -2.683901 -1.55874 -3 -0.795609 -3 0 
C -3 0.795609 -2.683901 1.55874 -2.12132 2.12132 
C -1.55874 2.683901 -0.795609 3 0 3 
z
" id="m5333b8b2fd" style="stroke:#800000;"/>
    </defs>
    <g clip-path="url(#p6aa5fce664)">
     <use style="fill:#800000;stroke:#800000;" x="441.152009" xlink:href="#m5333b8b2fd" y="183.23029"/>
    </g>
   </g>
   <g id="patch_3">
    <path d="M 58.523438 316.078125 
L 58.523438 22.318125 
" style="fill:none;stroke:#000000;stroke-linecap:square;stroke-linejoin:miter;stroke-width:0.8;"/>
   </g>
   <g id="patch_4">
    <path d="M 728.123438 316.078125 
L 728.123438 22.318125 
" style="fill:none;stroke:#000000;stroke-linecap:square;stroke-linejoin:miter;stroke-width:0.8;"/>
   </g>
   <g id="patch_5">
    <path d="M 58.523438 316.078125 
L 728.123438 316.078125 
" style="fill:none;stroke:#000000;stroke-linecap:square;stroke-linejoin:miter;stroke-width:0.8;"/>
   </g>
   <g id="patch_6">
    <path d="M 58.523438 22.318125 
L 728.123438 22.318125 
" style="fill:none;stroke:#000000;stroke-linecap:square;stroke-linejoin:miter;stroke-width:0.8;"/>
   </g>
   <g id="text_26">
    <!-- metapopulation models -->
    <defs>
     <path d="M 52 44.1875 
Q 55.375 50.25 60.0625 53.125 
Q 64.75 56 71.09375 56 
Q 79.640625 56 84.28125 50.015625 
Q 88.921875 44.046875 88.921875 33.015625 
L 88.921875 0 
L 79.890625 0 
L 79.890625 32.71875 
Q 79.890625 40.578125 77.09375 44.375 
Q 74.3125 48.1875 68.609375 48.1875 
Q 61.625 48.1875 57.5625 43.546875 
Q 53.515625 38.921875 53.515625 30.90625 
L 53.515625 0 
L 44.484375 0 
L 44.484375 32.71875 
Q 44.484375 40.625 41.703125 44.40625 
Q 38.921875 48.1875 33.109375 48.1875 
Q 26.21875 48.1875 22.15625 43.53125 
Q 18.109375 38.875 18.109375 30.90625 
L 18.109375 0 
L 9.078125 0 
L 9.078125 54.6875 
L 18.109375 54.6875 
L 18.109375 46.1875 
Q 21.1875 51.21875 25.484375 53.609375 
Q 29.78125 56 35.6875 56 
Q 41.65625 56 45.828125 52.96875 
Q 50 49.953125 52 44.1875 
z
" id="DejaVuSans-109"/>
    </defs>
    <g transform="translate(322.11375 16.318125)scale(0.12 -0.12)">
     <use xlink:href="#DejaVuSans-109"/>
     <use x="97.412109" xlink:href="#DejaVuSans-101"/>
     <use x="158.935547" xlink:href="#DejaVuSans-116"/>
     <use x="198.144531" xlink:href="#DejaVuSans-97"/>
     <use x="259.423828" xlink:href="#DejaVuSans-112"/>
     <use x="322.900391" xlink:href="#DejaVuSans-111"/>
     <use x="384.082031" xlink:href="#DejaVuSans-112"/>
     <use x="447.558594" xlink:href="#DejaVuSans-117"/>
     <use x="510.9375" xlink:href="#DejaVuSans-108"/>
     <use x="538.720703" xlink:href="#DejaVuSans-97"/>
     <use x="600" xlink:href="#DejaVuSans-116"/>
     <use x="639.208984" xlink:href="#DejaVuSans-105"/>
     <use x="666.992188" xlink:href="#DejaVuSans-111"/>
     <use x="728.173828" xlink:href="#DejaVuSans-110"/>
     <use x="791.552734" xlink:href="#DejaVuSans-32"/>
     <use x="823.339844" xlink:href="#DejaVuSans-109"/>
     <use x="920.751953" xlink:href="#DejaVuSans-111"/>
     <use x="981.933594" xlink:href="#DejaVuSans-100"/>
     <use x="1045.410156" xlink:href="#DejaVuSans-101"/>
     <use x="1106.933594" xlink:href="#DejaVuSans-108"/>
     <use x="1134.716797" xlink:href="#DejaVuSans-115"/>
    </g>
   </g>
   <g id="legend_1">
    <g id="patch_7">
     <path d="M 756.907438 316.078125 
L 894.088687 316.078125 
Q 896.088687 316.078125 896.088687 314.078125 
L 896.088687 130.35 
Q 896.088687 128.35 894.088687 128.35 
L 756.907438 128.35 
Q 754.907438 128.35 754.907438 130.35 
L 754.907438 314.078125 
Q 754.907438 316.078125 756.907438 316.078125 
z
" style="fill:#ffffff;opacity:0.8;stroke:#cccccc;stroke-linejoin:miter;"/>
    </g>
    <g id="line2d_34">
     <path d="M 758.907438 136.448437 
L 778.907438 136.448437 
" style="fill:none;stroke:#000080;stroke-linecap:square;stroke-width:1.5;"/>
    </g>
    <g id="line2d_35">
     <g>
      <use style="fill:#000080;stroke:#000080;" x="768.907438" xlink:href="#m7237b6058a" y="136.448437"/>
     </g>
    </g>
    <g id="text_27">
     <!-- CU:nochange -->
     <defs>
      <path d="M 64.40625 67.28125 
L 64.40625 56.890625 
Q 59.421875 61.53125 53.78125 63.8125 
Q 48.140625 66.109375 41.796875 66.109375 
Q 29.296875 66.109375 22.65625 58.46875 
Q 16.015625 50.828125 16.015625 36.375 
Q 16.015625 21.96875 22.65625 14.328125 
Q 29.296875 6.6875 41.796875 6.6875 
Q 48.140625 6.6875 53.78125 8.984375 
Q 59.421875 11.28125 64.40625 15.921875 
L 64.40625 5.609375 
Q 59.234375 2.09375 53.4375 0.328125 
Q 47.65625 -1.421875 41.21875 -1.421875 
Q 24.65625 -1.421875 15.125 8.703125 
Q 5.609375 18.84375 5.609375 36.375 
Q 5.609375 53.953125 15.125 64.078125 
Q 24.65625 74.21875 41.21875 74.21875 
Q 47.75 74.21875 53.53125 72.484375 
Q 59.328125 70.75 64.40625 67.28125 
z
" id="DejaVuSans-67"/>
      <path d="M 8.6875 72.90625 
L 18.609375 72.90625 
L 18.609375 28.609375 
Q 18.609375 16.890625 22.84375 11.734375 
Q 27.09375 6.59375 36.625 6.59375 
Q 46.09375 6.59375 50.34375 11.734375 
Q 54.59375 16.890625 54.59375 28.609375 
L 54.59375 72.90625 
L 64.5 72.90625 
L 64.5 27.390625 
Q 64.5 13.140625 57.4375 5.859375 
Q 50.390625 -1.421875 36.625 -1.421875 
Q 22.796875 -1.421875 15.734375 5.859375 
Q 8.6875 13.140625 8.6875 27.390625 
z
" id="DejaVuSans-85"/>
      <path d="M 11.71875 12.40625 
L 22.015625 12.40625 
L 22.015625 0 
L 11.71875 0 
z
M 11.71875 51.703125 
L 22.015625 51.703125 
L 22.015625 39.3125 
L 11.71875 39.3125 
z
" id="DejaVuSans-58"/>
      <path d="M 54.890625 33.015625 
L 54.890625 0 
L 45.90625 0 
L 45.90625 32.71875 
Q 45.90625 40.484375 42.875 44.328125 
Q 39.84375 48.1875 33.796875 48.1875 
Q 26.515625 48.1875 22.3125 43.546875 
Q 18.109375 38.921875 18.109375 30.90625 
L 18.109375 0 
L 9.078125 0 
L 9.078125 75.984375 
L 18.109375 75.984375 
L 18.109375 46.1875 
Q 21.34375 51.125 25.703125 53.5625 
Q 30.078125 56 35.796875 56 
Q 45.21875 56 50.046875 50.171875 
Q 54.890625 44.34375 54.890625 33.015625 
z
" id="DejaVuSans-104"/>
     </defs>
     <g transform="translate(786.907438 139.948437)scale(0.1 -0.1)">
      <use xlink:href="#DejaVuSans-67"/>
      <use x="69.824219" xlink:href="#DejaVuSans-85"/>
      <use x="143.017578" xlink:href="#DejaVuSans-58"/>
      <use x="176.708984" xlink:href="#DejaVuSans-110"/>
      <use x="240.087891" xlink:href="#DejaVuSans-111"/>
      <use x="301.269531" xlink:href="#DejaVuSans-99"/>
      <use x="356.25" xlink:href="#DejaVuSans-104"/>
      <use x="419.628906" xlink:href="#DejaVuSans-97"/>
      <use x="480.908203" xlink:href="#DejaVuSans-110"/>
      <use x="544.287109" xlink:href="#DejaVuSans-103"/>
      <use x="607.763672" xlink:href="#DejaVuSans-101"/>
     </g>
    </g>
    <g id="line2d_36">
     <path d="M 758.907438 155.126562 
L 778.907438 155.126562 
" style="fill:none;stroke:#0000ff;stroke-linecap:square;stroke-width:1.5;"/>
    </g>
    <g id="line2d_37">
     <g>
      <use style="fill:#0000ff;stroke:#0000ff;" x="768.907438" xlink:href="#m2411453a93" y="155.126562"/>
     </g>
    </g>
    <g id="text_28">
     <!-- CU:scenario_high -->
     <defs>
      <path d="M 50.984375 -16.609375 
L 50.984375 -23.578125 
L -0.984375 -23.578125 
L -0.984375 -16.609375 
z
" id="DejaVuSans-95"/>
     </defs>
     <g transform="translate(786.907438 158.626562)scale(0.1 -0.1)">
      <use xlink:href="#DejaVuSans-67"/>
      <use x="69.824219" xlink:href="#DejaVuSans-85"/>
      <use x="143.017578" xlink:href="#DejaVuSans-58"/>
      <use x="176.708984" xlink:href="#DejaVuSans-115"/>
      <use x="228.808594" xlink:href="#DejaVuSans-99"/>
      <use x="283.789062" xlink:href="#DejaVuSans-101"/>
      <use x="345.3125" xlink:href="#DejaVuSans-110"/>
      <use x="408.691406" xlink:href="#DejaVuSans-97"/>
      <use x="469.970703" xlink:href="#DejaVuSans-114"/>
      <use x="511.083984" xlink:href="#DejaVuSans-105"/>
      <use x="538.867188" xlink:href="#DejaVuSans-111"/>
      <use x="600.048828" xlink:href="#DejaVuSans-95"/>
      <use x="650.048828" xlink:href="#DejaVuSans-104"/>
      <use x="713.427734" xlink:href="#DejaVuSans-105"/>
      <use x="741.210938" xlink:href="#DejaVuSans-103"/>
      <use x="804.6875" xlink:href="#DejaVuSans-104"/>
     </g>
    </g>
    <g id="line2d_38">
     <path d="M 758.907438 174.082812 
L 778.907438 174.082812 
" style="fill:none;stroke:#0060ff;stroke-linecap:square;stroke-width:1.5;"/>
    </g>
    <g id="line2d_39">
     <g>
      <use style="fill:#0060ff;stroke:#0060ff;" x="768.907438" xlink:href="#m0a30cdc7ce" y="174.082812"/>
     </g>
    </g>
    <g id="text_29">
     <!-- CU:scenario_low -->
     <g transform="translate(786.907438 177.582812)scale(0.1 -0.1)">
      <use xlink:href="#DejaVuSans-67"/>
      <use x="69.824219" xlink:href="#DejaVuSans-85"/>
      <use x="143.017578" xlink:href="#DejaVuSans-58"/>
      <use x="176.708984" xlink:href="#DejaVuSans-115"/>
      <use x="228.808594" xlink:href="#DejaVuSans-99"/>
      <use x="283.789062" xlink:href="#DejaVuSans-101"/>
      <use x="345.3125" xlink:href="#DejaVuSans-110"/>
      <use x="408.691406" xlink:href="#DejaVuSans-97"/>
      <use x="469.970703" xlink:href="#DejaVuSans-114"/>
      <use x="511.083984" xlink:href="#DejaVuSans-105"/>
      <use x="538.867188" xlink:href="#DejaVuSans-111"/>
      <use x="600.048828" xlink:href="#DejaVuSans-95"/>
      <use x="650.048828" xlink:href="#DejaVuSans-108"/>
      <use x="677.832031" xlink:href="#DejaVuSans-111"/>
      <use x="739.013672" xlink:href="#DejaVuSans-119"/>
     </g>
    </g>
    <g id="line2d_40">
     <path d="M 758.907438 193.039062 
L 778.907438 193.039062 
" style="fill:none;stroke:#00d4ff;stroke-linecap:square;stroke-width:1.5;"/>
    </g>
    <g id="line2d_41">
     <g>
      <use style="fill:#00d4ff;stroke:#00d4ff;" x="768.907438" xlink:href="#m14683bc7a4" y="193.039062"/>
     </g>
    </g>
    <g id="text_30">
     <!-- CU:scenario_mid -->
     <g transform="translate(786.907438 196.539062)scale(0.1 -0.1)">
      <use xlink:href="#DejaVuSans-67"/>
      <use x="69.824219" xlink:href="#DejaVuSans-85"/>
      <use x="143.017578" xlink:href="#DejaVuSans-58"/>
      <use x="176.708984" xlink:href="#DejaVuSans-115"/>
      <use x="228.808594" xlink:href="#DejaVuSans-99"/>
      <use x="283.789062" xlink:href="#DejaVuSans-101"/>
      <use x="345.3125" xlink:href="#DejaVuSans-110"/>
      <use x="408.691406" xlink:href="#DejaVuSans-97"/>
      <use x="469.970703" xlink:href="#DejaVuSans-114"/>
      <use x="511.083984" xlink:href="#DejaVuSans-105"/>
      <use x="538.867188" xlink:href="#DejaVuSans-111"/>
      <use x="600.048828" xlink:href="#DejaVuSans-95"/>
      <use x="650.048828" xlink:href="#DejaVuSans-109"/>
      <use x="747.460938" xlink:href="#DejaVuSans-105"/>
      <use x="775.244141" xlink:href="#DejaVuSans-100"/>
     </g>
    </g>
    <g id="line2d_42">
     <path d="M 758.907438 211.995312 
L 778.907438 211.995312 
" style="fill:none;stroke:#4dffaa;stroke-linecap:square;stroke-width:1.5;"/>
    </g>
    <g id="line2d_43">
     <g>
      <use style="fill:#4dffaa;stroke:#4dffaa;" x="768.907438" xlink:href="#m91771fd9a8" y="211.995312"/>
     </g>
    </g>
    <g id="text_31">
     <!-- CU:select -->
     <g transform="translate(786.907438 215.495312)scale(0.1 -0.1)">
      <use xlink:href="#DejaVuSans-67"/>
      <use x="69.824219" xlink:href="#DejaVuSans-85"/>
      <use x="143.017578" xlink:href="#DejaVuSans-58"/>
      <use x="176.708984" xlink:href="#DejaVuSans-115"/>
      <use x="228.808594" xlink:href="#DejaVuSans-101"/>
      <use x="290.332031" xlink:href="#DejaVuSans-108"/>
      <use x="318.115234" xlink:href="#DejaVuSans-101"/>
      <use x="379.638672" xlink:href="#DejaVuSans-99"/>
      <use x="434.619141" xlink:href="#DejaVuSans-116"/>
     </g>
    </g>
    <g id="line2d_44">
     <path d="M 758.907438 230.673437 
L 778.907438 230.673437 
" style="fill:none;stroke:#aaff4d;stroke-linecap:square;stroke-width:1.5;"/>
    </g>
    <g id="line2d_45">
     <g>
      <use style="fill:#aaff4d;stroke:#aaff4d;" x="768.907438" xlink:href="#mc3ced62ab4" y="230.673437"/>
     </g>
    </g>
    <g id="text_32">
     <!-- JHU_IDD:CovidSP -->
     <defs>
      <path d="M 9.8125 72.90625 
L 19.671875 72.90625 
L 19.671875 43.015625 
L 55.515625 43.015625 
L 55.515625 72.90625 
L 65.375 72.90625 
L 65.375 0 
L 55.515625 0 
L 55.515625 34.71875 
L 19.671875 34.71875 
L 19.671875 0 
L 9.8125 0 
z
" id="DejaVuSans-72"/>
      <path d="M 9.8125 72.90625 
L 19.671875 72.90625 
L 19.671875 0 
L 9.8125 0 
z
" id="DejaVuSans-73"/>
      <path d="M 19.671875 64.796875 
L 19.671875 37.40625 
L 32.078125 37.40625 
Q 38.96875 37.40625 42.71875 40.96875 
Q 46.484375 44.53125 46.484375 51.125 
Q 46.484375 57.671875 42.71875 61.234375 
Q 38.96875 64.796875 32.078125 64.796875 
z
M 9.8125 72.90625 
L 32.078125 72.90625 
Q 44.34375 72.90625 50.609375 67.359375 
Q 56.890625 61.8125 56.890625 51.125 
Q 56.890625 40.328125 50.609375 34.8125 
Q 44.34375 29.296875 32.078125 29.296875 
L 19.671875 29.296875 
L 19.671875 0 
L 9.8125 0 
z
" id="DejaVuSans-80"/>
     </defs>
     <g transform="translate(786.907438 234.173437)scale(0.1 -0.1)">
      <use xlink:href="#DejaVuSans-74"/>
      <use x="29.492188" xlink:href="#DejaVuSans-72"/>
      <use x="104.6875" xlink:href="#DejaVuSans-85"/>
      <use x="177.880859" xlink:href="#DejaVuSans-95"/>
      <use x="227.880859" xlink:href="#DejaVuSans-73"/>
      <use x="257.373047" xlink:href="#DejaVuSans-68"/>
      <use x="334.375" xlink:href="#DejaVuSans-68"/>
      <use x="411.376953" xlink:href="#DejaVuSans-58"/>
      <use x="445.068359" xlink:href="#DejaVuSans-67"/>
      <use x="514.892578" xlink:href="#DejaVuSans-111"/>
      <use x="576.074219" xlink:href="#DejaVuSans-118"/>
      <use x="635.253906" xlink:href="#DejaVuSans-105"/>
      <use x="663.037109" xlink:href="#DejaVuSans-100"/>
      <use x="726.513672" xlink:href="#DejaVuSans-83"/>
      <use x="789.990234" xlink:href="#DejaVuSans-80"/>
     </g>
    </g>
    <g id="line2d_46">
     <path d="M 758.907438 249.629687 
L 778.907438 249.629687 
" style="fill:none;stroke:#ffe600;stroke-linecap:square;stroke-width:1.5;"/>
    </g>
    <g id="line2d_47">
     <g>
      <use style="fill:#ffe600;stroke:#ffe600;" x="768.907438" xlink:href="#m0b8ac98540" y="249.629687"/>
     </g>
    </g>
    <g id="text_33">
     <!-- MOBS:GLEAM_COVID -->
     <defs>
      <path d="M 19.671875 34.8125 
L 19.671875 8.109375 
L 35.5 8.109375 
Q 43.453125 8.109375 47.28125 11.40625 
Q 51.125 14.703125 51.125 21.484375 
Q 51.125 28.328125 47.28125 31.5625 
Q 43.453125 34.8125 35.5 34.8125 
z
M 19.671875 64.796875 
L 19.671875 42.828125 
L 34.28125 42.828125 
Q 41.5 42.828125 45.03125 45.53125 
Q 48.578125 48.25 48.578125 53.8125 
Q 48.578125 59.328125 45.03125 62.0625 
Q 41.5 64.796875 34.28125 64.796875 
z
M 9.8125 72.90625 
L 35.015625 72.90625 
Q 46.296875 72.90625 52.390625 68.21875 
Q 58.5 63.53125 58.5 54.890625 
Q 58.5 48.1875 55.375 44.234375 
Q 52.25 40.28125 46.1875 39.3125 
Q 53.46875 37.75 57.5 32.78125 
Q 61.53125 27.828125 61.53125 20.40625 
Q 61.53125 10.640625 54.890625 5.3125 
Q 48.25 0 35.984375 0 
L 9.8125 0 
z
" id="DejaVuSans-66"/>
      <path d="M 59.515625 10.40625 
L 59.515625 29.984375 
L 43.40625 29.984375 
L 43.40625 38.09375 
L 69.28125 38.09375 
L 69.28125 6.78125 
Q 63.578125 2.734375 56.6875 0.65625 
Q 49.8125 -1.421875 42 -1.421875 
Q 24.90625 -1.421875 15.25 8.5625 
Q 5.609375 18.5625 5.609375 36.375 
Q 5.609375 54.25 15.25 64.234375 
Q 24.90625 74.21875 42 74.21875 
Q 49.125 74.21875 55.546875 72.453125 
Q 61.96875 70.703125 67.390625 67.28125 
L 67.390625 56.78125 
Q 61.921875 61.421875 55.765625 63.765625 
Q 49.609375 66.109375 42.828125 66.109375 
Q 29.4375 66.109375 22.71875 58.640625 
Q 16.015625 51.171875 16.015625 36.375 
Q 16.015625 21.625 22.71875 14.15625 
Q 29.4375 6.6875 42.828125 6.6875 
Q 48.046875 6.6875 52.140625 7.59375 
Q 56.25 8.5 59.515625 10.40625 
z
" id="DejaVuSans-71"/>
      <path d="M 9.8125 72.90625 
L 19.671875 72.90625 
L 19.671875 8.296875 
L 55.171875 8.296875 
L 55.171875 0 
L 9.8125 0 
z
" id="DejaVuSans-76"/>
      <path d="M 28.609375 0 
L 0.78125 72.90625 
L 11.078125 72.90625 
L 34.1875 11.53125 
L 57.328125 72.90625 
L 67.578125 72.90625 
L 39.796875 0 
z
" id="DejaVuSans-86"/>
     </defs>
     <g transform="translate(786.907438 253.129687)scale(0.1 -0.1)">
      <use xlink:href="#DejaVuSans-77"/>
      <use x="86.279297" xlink:href="#DejaVuSans-79"/>
      <use x="164.990234" xlink:href="#DejaVuSans-66"/>
      <use x="231.84375" xlink:href="#DejaVuSans-83"/>
      <use x="295.320312" xlink:href="#DejaVuSans-58"/>
      <use x="329.011719" xlink:href="#DejaVuSans-71"/>
      <use x="406.501953" xlink:href="#DejaVuSans-76"/>
      <use x="462.214844" xlink:href="#DejaVuSans-69"/>
      <use x="525.398438" xlink:href="#DejaVuSans-65"/>
      <use x="593.806641" xlink:href="#DejaVuSans-77"/>
      <use x="680.085938" xlink:href="#DejaVuSans-95"/>
      <use x="730.085938" xlink:href="#DejaVuSans-67"/>
      <use x="799.910156" xlink:href="#DejaVuSans-79"/>
      <use x="876.871094" xlink:href="#DejaVuSans-86"/>
      <use x="945.279297" xlink:href="#DejaVuSans-73"/>
      <use x="974.771484" xlink:href="#DejaVuSans-68"/>
     </g>
    </g>
    <g id="line2d_48">
     <path d="M 758.907438 268.585937 
L 778.907438 268.585937 
" style="fill:none;stroke:#ff7a00;stroke-linecap:square;stroke-width:1.5;"/>
    </g>
    <g id="line2d_49">
     <g>
      <use style="fill:#ff7a00;stroke:#ff7a00;" x="768.907438" xlink:href="#me26988e587" y="268.585937"/>
     </g>
    </g>
    <g id="text_34">
     <!-- JHUAPL:Bucky -->
     <g transform="translate(786.907438 272.085937)scale(0.1 -0.1)">
      <use xlink:href="#DejaVuSans-74"/>
      <use x="29.492188" xlink:href="#DejaVuSans-72"/>
      <use x="104.6875" xlink:href="#DejaVuSans-85"/>
      <use x="177.880859" xlink:href="#DejaVuSans-65"/>
      <use x="246.289062" xlink:href="#DejaVuSans-80"/>
      <use x="306.591797" xlink:href="#DejaVuSans-76"/>
      <use x="362.304688" xlink:href="#DejaVuSans-58"/>
      <use x="395.996094" xlink:href="#DejaVuSans-66"/>
      <use x="464.599609" xlink:href="#DejaVuSans-117"/>
      <use x="527.978516" xlink:href="#DejaVuSans-99"/>
      <use x="582.958984" xlink:href="#DejaVuSans-107"/>
      <use x="637.244141" xlink:href="#DejaVuSans-121"/>
     </g>
    </g>
    <g id="line2d_50">
     <path d="M 758.907438 287.264062 
L 778.907438 287.264062 
" style="fill:none;stroke:#ff1300;stroke-linecap:square;stroke-width:1.5;"/>
    </g>
    <g id="line2d_51">
     <g>
      <use style="fill:#ff1300;stroke:#ff1300;" x="768.907438" xlink:href="#md77a27aefa" y="287.264062"/>
     </g>
    </g>
    <g id="text_35">
     <!-- USC:SI_kJalpha -->
     <g transform="translate(786.907438 290.764062)scale(0.1 -0.1)">
      <use xlink:href="#DejaVuSans-85"/>
      <use x="73.193359" xlink:href="#DejaVuSans-83"/>
      <use x="136.669922" xlink:href="#DejaVuSans-67"/>
      <use x="206.494141" xlink:href="#DejaVuSans-58"/>
      <use x="240.185547" xlink:href="#DejaVuSans-83"/>
      <use x="303.662109" xlink:href="#DejaVuSans-73"/>
      <use x="333.154297" xlink:href="#DejaVuSans-95"/>
      <use x="383.154297" xlink:href="#DejaVuSans-107"/>
      <use x="441.064453" xlink:href="#DejaVuSans-74"/>
      <use x="470.556641" xlink:href="#DejaVuSans-97"/>
      <use x="531.835938" xlink:href="#DejaVuSans-108"/>
      <use x="559.619141" xlink:href="#DejaVuSans-112"/>
      <use x="623.095703" xlink:href="#DejaVuSans-104"/>
      <use x="686.474609" xlink:href="#DejaVuSans-97"/>
     </g>
    </g>
    <g id="line2d_52">
     <path d="M 758.907438 306.220312 
L 778.907438 306.220312 
" style="fill:none;stroke:#800000;stroke-linecap:square;stroke-width:1.5;"/>
    </g>
    <g id="line2d_53">
     <g>
      <use style="fill:#800000;stroke:#800000;" x="768.907438" xlink:href="#m5333b8b2fd" y="306.220312"/>
     </g>
    </g>
    <g id="text_36">
     <!-- USC:SI_kJalpha_RF -->
     <defs>
      <path d="M 44.390625 34.1875 
Q 47.5625 33.109375 50.5625 29.59375 
Q 53.5625 26.078125 56.59375 19.921875 
L 66.609375 0 
L 56 0 
L 46.6875 18.703125 
Q 43.0625 26.03125 39.671875 28.421875 
Q 36.28125 30.8125 30.421875 30.8125 
L 19.671875 30.8125 
L 19.671875 0 
L 9.8125 0 
L 9.8125 72.90625 
L 32.078125 72.90625 
Q 44.578125 72.90625 50.734375 67.671875 
Q 56.890625 62.453125 56.890625 51.90625 
Q 56.890625 45.015625 53.6875 40.46875 
Q 50.484375 35.9375 44.390625 34.1875 
z
M 19.671875 64.796875 
L 19.671875 38.921875 
L 32.078125 38.921875 
Q 39.203125 38.921875 42.84375 42.21875 
Q 46.484375 45.515625 46.484375 51.90625 
Q 46.484375 58.296875 42.84375 61.546875 
Q 39.203125 64.796875 32.078125 64.796875 
z
" id="DejaVuSans-82"/>
     </defs>
     <g transform="translate(786.907438 309.720312)scale(0.1 -0.1)">
      <use xlink:href="#DejaVuSans-85"/>
      <use x="73.193359" xlink:href="#DejaVuSans-83"/>
      <use x="136.669922" xlink:href="#DejaVuSans-67"/>
      <use x="206.494141" xlink:href="#DejaVuSans-58"/>
      <use x="240.185547" xlink:href="#DejaVuSans-83"/>
      <use x="303.662109" xlink:href="#DejaVuSans-73"/>
      <use x="333.154297" xlink:href="#DejaVuSans-95"/>
      <use x="383.154297" xlink:href="#DejaVuSans-107"/>
      <use x="441.064453" xlink:href="#DejaVuSans-74"/>
      <use x="470.556641" xlink:href="#DejaVuSans-97"/>
      <use x="531.835938" xlink:href="#DejaVuSans-108"/>
      <use x="559.619141" xlink:href="#DejaVuSans-112"/>
      <use x="623.095703" xlink:href="#DejaVuSans-104"/>
      <use x="686.474609" xlink:href="#DejaVuSans-97"/>
      <use x="747.753906" xlink:href="#DejaVuSans-95"/>
      <use x="797.753906" xlink:href="#DejaVuSans-82"/>
      <use x="867.236328" xlink:href="#DejaVuSans-70"/>
     </g>
    </g>
   </g>
  </g>
 </g>
 <defs>
  <clipPath id="p6aa5fce664">
   <rect height="293.76" width="669.6" x="58.523438" y="22.318125"/>
  </clipPath>
 </defs>
</svg>
