<?xml version="1.0" encoding="utf-8" standalone="no"?>
<!DOCTYPE svg PUBLIC "-//W3C//DTD SVG 1.1//EN"
  "http://www.w3.org/Graphics/SVG/1.1/DTD/svg11.dtd">
<!-- Created with matplotlib (https://matplotlib.org/) -->
<svg height="286.906876pt" version="1.1" viewBox="0 0 288.72271 286.906876" width="288.72271pt" xmlns="http://www.w3.org/2000/svg" xmlns:xlink="http://www.w3.org/1999/xlink">
 <defs>
  <style type="text/css">
*{stroke-linecap:butt;stroke-linejoin:round;}
  </style>
 </defs>
 <g id="figure_1">
  <g id="patch_1">
   <path d="M 0 286.906876 
L 288.72271 286.906876 
L 288.72271 0 
L 0 0 
z
" style="fill:#ffffff;"/>
  </g>
  <g id="axes_1">
   <g id="patch_2">
    <path d="M 48.982813 222.640373 
L 269.416358 222.640373 
L 269.416358 22.318125 
L 48.982813 22.318125 
z
" style="fill:#ffffff;"/>
   </g>
   <g id="matplotlib.axis_1">
    <g id="xtick_1">
     <g id="line2d_1">
      <defs>
       <path d="M 0 0 
L 0 3.5 
" id="m0ba6deea75" style="stroke:#000000;stroke-width:0.8;"/>
      </defs>
      <g>
       <use style="stroke:#000000;stroke-width:0.8;" x="48.982812" xlink:href="#m0ba6deea75" y="222.640373"/>
      </g>
     </g>
     <g id="text_1">
      <!-- 2020-04 -->
      <defs>
       <path d="M 19.1875 8.296875 
L 53.609375 8.296875 
L 53.609375 0 
L 7.328125 0 
L 7.328125 8.296875 
Q 12.9375 14.109375 22.625 23.890625 
Q 32.328125 33.6875 34.8125 36.53125 
Q 39.546875 41.84375 41.421875 45.53125 
Q 43.3125 49.21875 43.3125 52.78125 
Q 43.3125 58.59375 39.234375 62.25 
Q 35.15625 65.921875 28.609375 65.921875 
Q 23.96875 65.921875 18.8125 64.3125 
Q 13.671875 62.703125 7.8125 59.421875 
L 7.8125 69.390625 
Q 13.765625 71.78125 18.9375 73 
Q 24.125 74.21875 28.421875 74.21875 
Q 39.75 74.21875 46.484375 68.546875 
Q 53.21875 62.890625 53.21875 53.421875 
Q 53.21875 48.921875 51.53125 44.890625 
Q 49.859375 40.875 45.40625 35.40625 
Q 44.1875 33.984375 37.640625 27.21875 
Q 31.109375 20.453125 19.1875 8.296875 
z
" id="DejaVuSans-50"/>
       <path d="M 31.78125 66.40625 
Q 24.171875 66.40625 20.328125 58.90625 
Q 16.5 51.421875 16.5 36.375 
Q 16.5 21.390625 20.328125 13.890625 
Q 24.171875 6.390625 31.78125 6.390625 
Q 39.453125 6.390625 43.28125 13.890625 
Q 47.125 21.390625 47.125 36.375 
Q 47.125 51.421875 43.28125 58.90625 
Q 39.453125 66.40625 31.78125 66.40625 
z
M 31.78125 74.21875 
Q 44.046875 74.21875 50.515625 64.515625 
Q 56.984375 54.828125 56.984375 36.375 
Q 56.984375 17.96875 50.515625 8.265625 
Q 44.046875 -1.421875 31.78125 -1.421875 
Q 19.53125 -1.421875 13.0625 8.265625 
Q 6.59375 17.96875 6.59375 36.375 
Q 6.59375 54.828125 13.0625 64.515625 
Q 19.53125 74.21875 31.78125 74.21875 
z
" id="DejaVuSans-48"/>
       <path d="M 4.890625 31.390625 
L 31.203125 31.390625 
L 31.203125 23.390625 
L 4.890625 23.390625 
z
" id="DejaVuSans-45"/>
       <path d="M 37.796875 64.3125 
L 12.890625 25.390625 
L 37.796875 25.390625 
z
M 35.203125 72.90625 
L 47.609375 72.90625 
L 47.609375 25.390625 
L 58.015625 25.390625 
L 58.015625 17.1875 
L 47.609375 17.1875 
L 47.609375 0 
L 37.796875 0 
L 37.796875 17.1875 
L 4.890625 17.1875 
L 4.890625 26.703125 
z
" id="DejaVuSans-52"/>
      </defs>
      <g transform="translate(17.967341 264.55819)rotate(-45)scale(0.1 -0.1)">
       <use xlink:href="#DejaVuSans-50"/>
       <use x="63.623047" xlink:href="#DejaVuSans-48"/>
       <use x="127.246094" xlink:href="#DejaVuSans-50"/>
       <use x="190.869141" xlink:href="#DejaVuSans-48"/>
       <use x="254.492188" xlink:href="#DejaVuSans-45"/>
       <use x="290.576172" xlink:href="#DejaVuSans-48"/>
       <use x="354.199219" xlink:href="#DejaVuSans-52"/>
      </g>
     </g>
    </g>
    <g id="xtick_2">
     <g id="line2d_2">
      <g>
       <use style="stroke:#000000;stroke-width:0.8;" x="64.506302" xlink:href="#m0ba6deea75" y="222.640373"/>
      </g>
     </g>
     <g id="text_2">
      <!-- 2020-05 -->
      <defs>
       <path d="M 10.796875 72.90625 
L 49.515625 72.90625 
L 49.515625 64.59375 
L 19.828125 64.59375 
L 19.828125 46.734375 
Q 21.96875 47.46875 24.109375 47.828125 
Q 26.265625 48.1875 28.421875 48.1875 
Q 40.625 48.1875 47.75 41.5 
Q 54.890625 34.8125 54.890625 23.390625 
Q 54.890625 11.625 47.5625 5.09375 
Q 40.234375 -1.421875 26.90625 -1.421875 
Q 22.3125 -1.421875 17.546875 -0.640625 
Q 12.796875 0.140625 7.71875 1.703125 
L 7.71875 11.625 
Q 12.109375 9.234375 16.796875 8.0625 
Q 21.484375 6.890625 26.703125 6.890625 
Q 35.15625 6.890625 40.078125 11.328125 
Q 45.015625 15.765625 45.015625 23.390625 
Q 45.015625 31 40.078125 35.4375 
Q 35.15625 39.890625 26.703125 39.890625 
Q 22.75 39.890625 18.8125 39.015625 
Q 14.890625 38.140625 10.796875 36.28125 
z
" id="DejaVuSans-53"/>
      </defs>
      <g transform="translate(33.49083 264.55819)rotate(-45)scale(0.1 -0.1)">
       <use xlink:href="#DejaVuSans-50"/>
       <use x="63.623047" xlink:href="#DejaVuSans-48"/>
       <use x="127.246094" xlink:href="#DejaVuSans-50"/>
       <use x="190.869141" xlink:href="#DejaVuSans-48"/>
       <use x="254.492188" xlink:href="#DejaVuSans-45"/>
       <use x="290.576172" xlink:href="#DejaVuSans-48"/>
       <use x="354.199219" xlink:href="#DejaVuSans-53"/>
      </g>
     </g>
    </g>
    <g id="xtick_3">
     <g id="line2d_3">
      <g>
       <use style="stroke:#000000;stroke-width:0.8;" x="80.54724" xlink:href="#m0ba6deea75" y="222.640373"/>
      </g>
     </g>
     <g id="text_3">
      <!-- 2020-06 -->
      <defs>
       <path d="M 33.015625 40.375 
Q 26.375 40.375 22.484375 35.828125 
Q 18.609375 31.296875 18.609375 23.390625 
Q 18.609375 15.53125 22.484375 10.953125 
Q 26.375 6.390625 33.015625 6.390625 
Q 39.65625 6.390625 43.53125 10.953125 
Q 47.40625 15.53125 47.40625 23.390625 
Q 47.40625 31.296875 43.53125 35.828125 
Q 39.65625 40.375 33.015625 40.375 
z
M 52.59375 71.296875 
L 52.59375 62.3125 
Q 48.875 64.0625 45.09375 64.984375 
Q 41.3125 65.921875 37.59375 65.921875 
Q 27.828125 65.921875 22.671875 59.328125 
Q 17.53125 52.734375 16.796875 39.40625 
Q 19.671875 43.65625 24.015625 45.921875 
Q 28.375 48.1875 33.59375 48.1875 
Q 44.578125 48.1875 50.953125 41.515625 
Q 57.328125 34.859375 57.328125 23.390625 
Q 57.328125 12.15625 50.6875 5.359375 
Q 44.046875 -1.421875 33.015625 -1.421875 
Q 20.359375 -1.421875 13.671875 8.265625 
Q 6.984375 17.96875 6.984375 36.375 
Q 6.984375 53.65625 15.1875 63.9375 
Q 23.390625 74.21875 37.203125 74.21875 
Q 40.921875 74.21875 44.703125 73.484375 
Q 48.484375 72.75 52.59375 71.296875 
z
" id="DejaVuSans-54"/>
      </defs>
      <g transform="translate(49.531769 264.55819)rotate(-45)scale(0.1 -0.1)">
       <use xlink:href="#DejaVuSans-50"/>
       <use x="63.623047" xlink:href="#DejaVuSans-48"/>
       <use x="127.246094" xlink:href="#DejaVuSans-50"/>
       <use x="190.869141" xlink:href="#DejaVuSans-48"/>
       <use x="254.492188" xlink:href="#DejaVuSans-45"/>
       <use x="290.576172" xlink:href="#DejaVuSans-48"/>
       <use x="354.199219" xlink:href="#DejaVuSans-54"/>
      </g>
     </g>
    </g>
    <g id="xtick_4">
     <g id="line2d_4">
      <g>
       <use style="stroke:#000000;stroke-width:0.8;" x="96.070729" xlink:href="#m0ba6deea75" y="222.640373"/>
      </g>
     </g>
     <g id="text_4">
      <!-- 2020-07 -->
      <defs>
       <path d="M 8.203125 72.90625 
L 55.078125 72.90625 
L 55.078125 68.703125 
L 28.609375 0 
L 18.3125 0 
L 43.21875 64.59375 
L 8.203125 64.59375 
z
" id="DejaVuSans-55"/>
      </defs>
      <g transform="translate(65.055258 264.55819)rotate(-45)scale(0.1 -0.1)">
       <use xlink:href="#DejaVuSans-50"/>
       <use x="63.623047" xlink:href="#DejaVuSans-48"/>
       <use x="127.246094" xlink:href="#DejaVuSans-50"/>
       <use x="190.869141" xlink:href="#DejaVuSans-48"/>
       <use x="254.492188" xlink:href="#DejaVuSans-45"/>
       <use x="290.576172" xlink:href="#DejaVuSans-48"/>
       <use x="354.199219" xlink:href="#DejaVuSans-55"/>
      </g>
     </g>
    </g>
    <g id="xtick_5">
     <g id="line2d_5">
      <g>
       <use style="stroke:#000000;stroke-width:0.8;" x="112.111668" xlink:href="#m0ba6deea75" y="222.640373"/>
      </g>
     </g>
     <g id="text_5">
      <!-- 2020-08 -->
      <defs>
       <path d="M 31.78125 34.625 
Q 24.75 34.625 20.71875 30.859375 
Q 16.703125 27.09375 16.703125 20.515625 
Q 16.703125 13.921875 20.71875 10.15625 
Q 24.75 6.390625 31.78125 6.390625 
Q 38.8125 6.390625 42.859375 10.171875 
Q 46.921875 13.96875 46.921875 20.515625 
Q 46.921875 27.09375 42.890625 30.859375 
Q 38.875 34.625 31.78125 34.625 
z
M 21.921875 38.8125 
Q 15.578125 40.375 12.03125 44.71875 
Q 8.5 49.078125 8.5 55.328125 
Q 8.5 64.0625 14.71875 69.140625 
Q 20.953125 74.21875 31.78125 74.21875 
Q 42.671875 74.21875 48.875 69.140625 
Q 55.078125 64.0625 55.078125 55.328125 
Q 55.078125 49.078125 51.53125 44.71875 
Q 48 40.375 41.703125 38.8125 
Q 48.828125 37.15625 52.796875 32.3125 
Q 56.78125 27.484375 56.78125 20.515625 
Q 56.78125 9.90625 50.3125 4.234375 
Q 43.84375 -1.421875 31.78125 -1.421875 
Q 19.734375 -1.421875 13.25 4.234375 
Q 6.78125 9.90625 6.78125 20.515625 
Q 6.78125 27.484375 10.78125 32.3125 
Q 14.796875 37.15625 21.921875 38.8125 
z
M 18.3125 54.390625 
Q 18.3125 48.734375 21.84375 45.5625 
Q 25.390625 42.390625 31.78125 42.390625 
Q 38.140625 42.390625 41.71875 45.5625 
Q 45.3125 48.734375 45.3125 54.390625 
Q 45.3125 60.0625 41.71875 63.234375 
Q 38.140625 66.40625 31.78125 66.40625 
Q 25.390625 66.40625 21.84375 63.234375 
Q 18.3125 60.0625 18.3125 54.390625 
z
" id="DejaVuSans-56"/>
      </defs>
      <g transform="translate(81.096197 264.55819)rotate(-45)scale(0.1 -0.1)">
       <use xlink:href="#DejaVuSans-50"/>
       <use x="63.623047" xlink:href="#DejaVuSans-48"/>
       <use x="127.246094" xlink:href="#DejaVuSans-50"/>
       <use x="190.869141" xlink:href="#DejaVuSans-48"/>
       <use x="254.492188" xlink:href="#DejaVuSans-45"/>
       <use x="290.576172" xlink:href="#DejaVuSans-48"/>
       <use x="354.199219" xlink:href="#DejaVuSans-56"/>
      </g>
     </g>
    </g>
    <g id="xtick_6">
     <g id="line2d_6">
      <g>
       <use style="stroke:#000000;stroke-width:0.8;" x="128.152607" xlink:href="#m0ba6deea75" y="222.640373"/>
      </g>
     </g>
     <g id="text_6">
      <!-- 2020-09 -->
      <defs>
       <path d="M 10.984375 1.515625 
L 10.984375 10.5 
Q 14.703125 8.734375 18.5 7.8125 
Q 22.3125 6.890625 25.984375 6.890625 
Q 35.75 6.890625 40.890625 13.453125 
Q 46.046875 20.015625 46.78125 33.40625 
Q 43.953125 29.203125 39.59375 26.953125 
Q 35.25 24.703125 29.984375 24.703125 
Q 19.046875 24.703125 12.671875 31.3125 
Q 6.296875 37.9375 6.296875 49.421875 
Q 6.296875 60.640625 12.9375 67.421875 
Q 19.578125 74.21875 30.609375 74.21875 
Q 43.265625 74.21875 49.921875 64.515625 
Q 56.59375 54.828125 56.59375 36.375 
Q 56.59375 19.140625 48.40625 8.859375 
Q 40.234375 -1.421875 26.421875 -1.421875 
Q 22.703125 -1.421875 18.890625 -0.6875 
Q 15.09375 0.046875 10.984375 1.515625 
z
M 30.609375 32.421875 
Q 37.25 32.421875 41.125 36.953125 
Q 45.015625 41.5 45.015625 49.421875 
Q 45.015625 57.28125 41.125 61.84375 
Q 37.25 66.40625 30.609375 66.40625 
Q 23.96875 66.40625 20.09375 61.84375 
Q 16.21875 57.28125 16.21875 49.421875 
Q 16.21875 41.5 20.09375 36.953125 
Q 23.96875 32.421875 30.609375 32.421875 
z
" id="DejaVuSans-57"/>
      </defs>
      <g transform="translate(97.137136 264.55819)rotate(-45)scale(0.1 -0.1)">
       <use xlink:href="#DejaVuSans-50"/>
       <use x="63.623047" xlink:href="#DejaVuSans-48"/>
       <use x="127.246094" xlink:href="#DejaVuSans-50"/>
       <use x="190.869141" xlink:href="#DejaVuSans-48"/>
       <use x="254.492188" xlink:href="#DejaVuSans-45"/>
       <use x="290.576172" xlink:href="#DejaVuSans-48"/>
       <use x="354.199219" xlink:href="#DejaVuSans-57"/>
      </g>
     </g>
    </g>
    <g id="xtick_7">
     <g id="line2d_7">
      <g>
       <use style="stroke:#000000;stroke-width:0.8;" x="143.676096" xlink:href="#m0ba6deea75" y="222.640373"/>
      </g>
     </g>
     <g id="text_7">
      <!-- 2020-10 -->
      <defs>
       <path d="M 12.40625 8.296875 
L 28.515625 8.296875 
L 28.515625 63.921875 
L 10.984375 60.40625 
L 10.984375 69.390625 
L 28.421875 72.90625 
L 38.28125 72.90625 
L 38.28125 8.296875 
L 54.390625 8.296875 
L 54.390625 0 
L 12.40625 0 
z
" id="DejaVuSans-49"/>
      </defs>
      <g transform="translate(112.660625 264.55819)rotate(-45)scale(0.1 -0.1)">
       <use xlink:href="#DejaVuSans-50"/>
       <use x="63.623047" xlink:href="#DejaVuSans-48"/>
       <use x="127.246094" xlink:href="#DejaVuSans-50"/>
       <use x="190.869141" xlink:href="#DejaVuSans-48"/>
       <use x="254.492188" xlink:href="#DejaVuSans-45"/>
       <use x="290.576172" xlink:href="#DejaVuSans-49"/>
       <use x="354.199219" xlink:href="#DejaVuSans-48"/>
      </g>
     </g>
    </g>
    <g id="xtick_8">
     <g id="line2d_8">
      <g>
       <use style="stroke:#000000;stroke-width:0.8;" x="159.717035" xlink:href="#m0ba6deea75" y="222.640373"/>
      </g>
     </g>
     <g id="text_8">
      <!-- 2020-11 -->
      <g transform="translate(128.701564 264.55819)rotate(-45)scale(0.1 -0.1)">
       <use xlink:href="#DejaVuSans-50"/>
       <use x="63.623047" xlink:href="#DejaVuSans-48"/>
       <use x="127.246094" xlink:href="#DejaVuSans-50"/>
       <use x="190.869141" xlink:href="#DejaVuSans-48"/>
       <use x="254.492188" xlink:href="#DejaVuSans-45"/>
       <use x="290.576172" xlink:href="#DejaVuSans-49"/>
       <use x="354.199219" xlink:href="#DejaVuSans-49"/>
      </g>
     </g>
    </g>
    <g id="xtick_9">
     <g id="line2d_9">
      <g>
       <use style="stroke:#000000;stroke-width:0.8;" x="175.240524" xlink:href="#m0ba6deea75" y="222.640373"/>
      </g>
     </g>
     <g id="text_9">
      <!-- 2020-12 -->
      <g transform="translate(144.225053 264.55819)rotate(-45)scale(0.1 -0.1)">
       <use xlink:href="#DejaVuSans-50"/>
       <use x="63.623047" xlink:href="#DejaVuSans-48"/>
       <use x="127.246094" xlink:href="#DejaVuSans-50"/>
       <use x="190.869141" xlink:href="#DejaVuSans-48"/>
       <use x="254.492188" xlink:href="#DejaVuSans-45"/>
       <use x="290.576172" xlink:href="#DejaVuSans-49"/>
       <use x="354.199219" xlink:href="#DejaVuSans-50"/>
      </g>
     </g>
    </g>
    <g id="xtick_10">
     <g id="line2d_10">
      <g>
       <use style="stroke:#000000;stroke-width:0.8;" x="191.281463" xlink:href="#m0ba6deea75" y="222.640373"/>
      </g>
     </g>
     <g id="text_10">
      <!-- 2021-01 -->
      <g transform="translate(160.265991 264.55819)rotate(-45)scale(0.1 -0.1)">
       <use xlink:href="#DejaVuSans-50"/>
       <use x="63.623047" xlink:href="#DejaVuSans-48"/>
       <use x="127.246094" xlink:href="#DejaVuSans-50"/>
       <use x="190.869141" xlink:href="#DejaVuSans-49"/>
       <use x="254.492188" xlink:href="#DejaVuSans-45"/>
       <use x="290.576172" xlink:href="#DejaVuSans-48"/>
       <use x="354.199219" xlink:href="#DejaVuSans-49"/>
      </g>
     </g>
    </g>
    <g id="xtick_11">
     <g id="line2d_11">
      <g>
       <use style="stroke:#000000;stroke-width:0.8;" x="207.322401" xlink:href="#m0ba6deea75" y="222.640373"/>
      </g>
     </g>
     <g id="text_11">
      <!-- 2021-02 -->
      <g transform="translate(176.30693 264.55819)rotate(-45)scale(0.1 -0.1)">
       <use xlink:href="#DejaVuSans-50"/>
       <use x="63.623047" xlink:href="#DejaVuSans-48"/>
       <use x="127.246094" xlink:href="#DejaVuSans-50"/>
       <use x="190.869141" xlink:href="#DejaVuSans-49"/>
       <use x="254.492188" xlink:href="#DejaVuSans-45"/>
       <use x="290.576172" xlink:href="#DejaVuSans-48"/>
       <use x="354.199219" xlink:href="#DejaVuSans-50"/>
      </g>
     </g>
    </g>
    <g id="xtick_12">
     <g id="line2d_12">
      <g>
       <use style="stroke:#000000;stroke-width:0.8;" x="221.810991" xlink:href="#m0ba6deea75" y="222.640373"/>
      </g>
     </g>
     <g id="text_12">
      <!-- 2021-03 -->
      <defs>
       <path d="M 40.578125 39.3125 
Q 47.65625 37.796875 51.625 33 
Q 55.609375 28.21875 55.609375 21.1875 
Q 55.609375 10.40625 48.1875 4.484375 
Q 40.765625 -1.421875 27.09375 -1.421875 
Q 22.515625 -1.421875 17.65625 -0.515625 
Q 12.796875 0.390625 7.625 2.203125 
L 7.625 11.71875 
Q 11.71875 9.328125 16.59375 8.109375 
Q 21.484375 6.890625 26.8125 6.890625 
Q 36.078125 6.890625 40.9375 10.546875 
Q 45.796875 14.203125 45.796875 21.1875 
Q 45.796875 27.640625 41.28125 31.265625 
Q 36.765625 34.90625 28.71875 34.90625 
L 20.21875 34.90625 
L 20.21875 43.015625 
L 29.109375 43.015625 
Q 36.375 43.015625 40.234375 45.921875 
Q 44.09375 48.828125 44.09375 54.296875 
Q 44.09375 59.90625 40.109375 62.90625 
Q 36.140625 65.921875 28.71875 65.921875 
Q 24.65625 65.921875 20.015625 65.03125 
Q 15.375 64.15625 9.8125 62.3125 
L 9.8125 71.09375 
Q 15.4375 72.65625 20.34375 73.4375 
Q 25.25 74.21875 29.59375 74.21875 
Q 40.828125 74.21875 47.359375 69.109375 
Q 53.90625 64.015625 53.90625 55.328125 
Q 53.90625 49.265625 50.4375 45.09375 
Q 46.96875 40.921875 40.578125 39.3125 
z
" id="DejaVuSans-51"/>
      </defs>
      <g transform="translate(190.79552 264.55819)rotate(-45)scale(0.1 -0.1)">
       <use xlink:href="#DejaVuSans-50"/>
       <use x="63.623047" xlink:href="#DejaVuSans-48"/>
       <use x="127.246094" xlink:href="#DejaVuSans-50"/>
       <use x="190.869141" xlink:href="#DejaVuSans-49"/>
       <use x="254.492188" xlink:href="#DejaVuSans-45"/>
       <use x="290.576172" xlink:href="#DejaVuSans-48"/>
       <use x="354.199219" xlink:href="#DejaVuSans-51"/>
      </g>
     </g>
    </g>
    <g id="xtick_13">
     <g id="line2d_13">
      <g>
       <use style="stroke:#000000;stroke-width:0.8;" x="237.85193" xlink:href="#m0ba6deea75" y="222.640373"/>
      </g>
     </g>
     <g id="text_13">
      <!-- 2021-04 -->
      <g transform="translate(206.836459 264.55819)rotate(-45)scale(0.1 -0.1)">
       <use xlink:href="#DejaVuSans-50"/>
       <use x="63.623047" xlink:href="#DejaVuSans-48"/>
       <use x="127.246094" xlink:href="#DejaVuSans-50"/>
       <use x="190.869141" xlink:href="#DejaVuSans-49"/>
       <use x="254.492188" xlink:href="#DejaVuSans-45"/>
       <use x="290.576172" xlink:href="#DejaVuSans-48"/>
       <use x="354.199219" xlink:href="#DejaVuSans-52"/>
      </g>
     </g>
    </g>
    <g id="xtick_14">
     <g id="line2d_14">
      <g>
       <use style="stroke:#000000;stroke-width:0.8;" x="253.375419" xlink:href="#m0ba6deea75" y="222.640373"/>
      </g>
     </g>
     <g id="text_14">
      <!-- 2021-05 -->
      <g transform="translate(222.359948 264.55819)rotate(-45)scale(0.1 -0.1)">
       <use xlink:href="#DejaVuSans-50"/>
       <use x="63.623047" xlink:href="#DejaVuSans-48"/>
       <use x="127.246094" xlink:href="#DejaVuSans-50"/>
       <use x="190.869141" xlink:href="#DejaVuSans-49"/>
       <use x="254.492188" xlink:href="#DejaVuSans-45"/>
       <use x="290.576172" xlink:href="#DejaVuSans-48"/>
       <use x="354.199219" xlink:href="#DejaVuSans-53"/>
      </g>
     </g>
    </g>
    <g id="xtick_15">
     <g id="line2d_15">
      <g>
       <use style="stroke:#000000;stroke-width:0.8;" x="269.416358" xlink:href="#m0ba6deea75" y="222.640373"/>
      </g>
     </g>
     <g id="text_15">
      <!-- 2021-06 -->
      <g transform="translate(238.400887 264.55819)rotate(-45)scale(0.1 -0.1)">
       <use xlink:href="#DejaVuSans-50"/>
       <use x="63.623047" xlink:href="#DejaVuSans-48"/>
       <use x="127.246094" xlink:href="#DejaVuSans-50"/>
       <use x="190.869141" xlink:href="#DejaVuSans-49"/>
       <use x="254.492188" xlink:href="#DejaVuSans-45"/>
       <use x="290.576172" xlink:href="#DejaVuSans-48"/>
       <use x="354.199219" xlink:href="#DejaVuSans-54"/>
      </g>
     </g>
    </g>
    <g id="text_16">
     <!-- Target End Date -->
     <defs>
      <path d="M -0.296875 72.90625 
L 61.375 72.90625 
L 61.375 64.59375 
L 35.5 64.59375 
L 35.5 0 
L 25.59375 0 
L 25.59375 64.59375 
L -0.296875 64.59375 
z
" id="DejaVuSans-84"/>
      <path d="M 34.28125 27.484375 
Q 23.390625 27.484375 19.1875 25 
Q 14.984375 22.515625 14.984375 16.5 
Q 14.984375 11.71875 18.140625 8.90625 
Q 21.296875 6.109375 26.703125 6.109375 
Q 34.1875 6.109375 38.703125 11.40625 
Q 43.21875 16.703125 43.21875 25.484375 
L 43.21875 27.484375 
z
M 52.203125 31.203125 
L 52.203125 0 
L 43.21875 0 
L 43.21875 8.296875 
Q 40.140625 3.328125 35.546875 0.953125 
Q 30.953125 -1.421875 24.3125 -1.421875 
Q 15.921875 -1.421875 10.953125 3.296875 
Q 6 8.015625 6 15.921875 
Q 6 25.140625 12.171875 29.828125 
Q 18.359375 34.515625 30.609375 34.515625 
L 43.21875 34.515625 
L 43.21875 35.40625 
Q 43.21875 41.609375 39.140625 45 
Q 35.0625 48.390625 27.6875 48.390625 
Q 23 48.390625 18.546875 47.265625 
Q 14.109375 46.140625 10.015625 43.890625 
L 10.015625 52.203125 
Q 14.9375 54.109375 19.578125 55.046875 
Q 24.21875 56 28.609375 56 
Q 40.484375 56 46.34375 49.84375 
Q 52.203125 43.703125 52.203125 31.203125 
z
" id="DejaVuSans-97"/>
      <path d="M 41.109375 46.296875 
Q 39.59375 47.171875 37.8125 47.578125 
Q 36.03125 48 33.890625 48 
Q 26.265625 48 22.1875 43.046875 
Q 18.109375 38.09375 18.109375 28.8125 
L 18.109375 0 
L 9.078125 0 
L 9.078125 54.6875 
L 18.109375 54.6875 
L 18.109375 46.1875 
Q 20.953125 51.171875 25.484375 53.578125 
Q 30.03125 56 36.53125 56 
Q 37.453125 56 38.578125 55.875 
Q 39.703125 55.765625 41.0625 55.515625 
z
" id="DejaVuSans-114"/>
      <path d="M 45.40625 27.984375 
Q 45.40625 37.75 41.375 43.109375 
Q 37.359375 48.484375 30.078125 48.484375 
Q 22.859375 48.484375 18.828125 43.109375 
Q 14.796875 37.75 14.796875 27.984375 
Q 14.796875 18.265625 18.828125 12.890625 
Q 22.859375 7.515625 30.078125 7.515625 
Q 37.359375 7.515625 41.375 12.890625 
Q 45.40625 18.265625 45.40625 27.984375 
z
M 54.390625 6.78125 
Q 54.390625 -7.171875 48.1875 -13.984375 
Q 42 -20.796875 29.203125 -20.796875 
Q 24.46875 -20.796875 20.265625 -20.09375 
Q 16.0625 -19.390625 12.109375 -17.921875 
L 12.109375 -9.1875 
Q 16.0625 -11.328125 19.921875 -12.34375 
Q 23.78125 -13.375 27.78125 -13.375 
Q 36.625 -13.375 41.015625 -8.765625 
Q 45.40625 -4.15625 45.40625 5.171875 
L 45.40625 9.625 
Q 42.625 4.78125 38.28125 2.390625 
Q 33.9375 0 27.875 0 
Q 17.828125 0 11.671875 7.65625 
Q 5.515625 15.328125 5.515625 27.984375 
Q 5.515625 40.671875 11.671875 48.328125 
Q 17.828125 56 27.875 56 
Q 33.9375 56 38.28125 53.609375 
Q 42.625 51.21875 45.40625 46.390625 
L 45.40625 54.6875 
L 54.390625 54.6875 
z
" id="DejaVuSans-103"/>
      <path d="M 56.203125 29.59375 
L 56.203125 25.203125 
L 14.890625 25.203125 
Q 15.484375 15.921875 20.484375 11.0625 
Q 25.484375 6.203125 34.421875 6.203125 
Q 39.59375 6.203125 44.453125 7.46875 
Q 49.3125 8.734375 54.109375 11.28125 
L 54.109375 2.78125 
Q 49.265625 0.734375 44.1875 -0.34375 
Q 39.109375 -1.421875 33.890625 -1.421875 
Q 20.796875 -1.421875 13.15625 6.1875 
Q 5.515625 13.8125 5.515625 26.8125 
Q 5.515625 40.234375 12.765625 48.109375 
Q 20.015625 56 32.328125 56 
Q 43.359375 56 49.78125 48.890625 
Q 56.203125 41.796875 56.203125 29.59375 
z
M 47.21875 32.234375 
Q 47.125 39.59375 43.09375 43.984375 
Q 39.0625 48.390625 32.421875 48.390625 
Q 24.90625 48.390625 20.390625 44.140625 
Q 15.875 39.890625 15.1875 32.171875 
z
" id="DejaVuSans-101"/>
      <path d="M 18.3125 70.21875 
L 18.3125 54.6875 
L 36.8125 54.6875 
L 36.8125 47.703125 
L 18.3125 47.703125 
L 18.3125 18.015625 
Q 18.3125 11.328125 20.140625 9.421875 
Q 21.96875 7.515625 27.59375 7.515625 
L 36.8125 7.515625 
L 36.8125 0 
L 27.59375 0 
Q 17.1875 0 13.234375 3.875 
Q 9.28125 7.765625 9.28125 18.015625 
L 9.28125 47.703125 
L 2.6875 47.703125 
L 2.6875 54.6875 
L 9.28125 54.6875 
L 9.28125 70.21875 
z
" id="DejaVuSans-116"/>
      <path id="DejaVuSans-32"/>
      <path d="M 9.8125 72.90625 
L 55.90625 72.90625 
L 55.90625 64.59375 
L 19.671875 64.59375 
L 19.671875 43.015625 
L 54.390625 43.015625 
L 54.390625 34.71875 
L 19.671875 34.71875 
L 19.671875 8.296875 
L 56.78125 8.296875 
L 56.78125 0 
L 9.8125 0 
z
" id="DejaVuSans-69"/>
      <path d="M 54.890625 33.015625 
L 54.890625 0 
L 45.90625 0 
L 45.90625 32.71875 
Q 45.90625 40.484375 42.875 44.328125 
Q 39.84375 48.1875 33.796875 48.1875 
Q 26.515625 48.1875 22.3125 43.546875 
Q 18.109375 38.921875 18.109375 30.90625 
L 18.109375 0 
L 9.078125 0 
L 9.078125 54.6875 
L 18.109375 54.6875 
L 18.109375 46.1875 
Q 21.34375 51.125 25.703125 53.5625 
Q 30.078125 56 35.796875 56 
Q 45.21875 56 50.046875 50.171875 
Q 54.890625 44.34375 54.890625 33.015625 
z
" id="DejaVuSans-110"/>
      <path d="M 45.40625 46.390625 
L 45.40625 75.984375 
L 54.390625 75.984375 
L 54.390625 0 
L 45.40625 0 
L 45.40625 8.203125 
Q 42.578125 3.328125 38.25 0.953125 
Q 33.9375 -1.421875 27.875 -1.421875 
Q 17.96875 -1.421875 11.734375 6.484375 
Q 5.515625 14.40625 5.515625 27.296875 
Q 5.515625 40.1875 11.734375 48.09375 
Q 17.96875 56 27.875 56 
Q 33.9375 56 38.25 53.625 
Q 42.578125 51.265625 45.40625 46.390625 
z
M 14.796875 27.296875 
Q 14.796875 17.390625 18.875 11.75 
Q 22.953125 6.109375 30.078125 6.109375 
Q 37.203125 6.109375 41.296875 11.75 
Q 45.40625 17.390625 45.40625 27.296875 
Q 45.40625 37.203125 41.296875 42.84375 
Q 37.203125 48.484375 30.078125 48.484375 
Q 22.953125 48.484375 18.875 42.84375 
Q 14.796875 37.203125 14.796875 27.296875 
z
" id="DejaVuSans-100"/>
      <path d="M 19.671875 64.796875 
L 19.671875 8.109375 
L 31.59375 8.109375 
Q 46.6875 8.109375 53.6875 14.9375 
Q 60.6875 21.78125 60.6875 36.53125 
Q 60.6875 51.171875 53.6875 57.984375 
Q 46.6875 64.796875 31.59375 64.796875 
z
M 9.8125 72.90625 
L 30.078125 72.90625 
Q 51.265625 72.90625 61.171875 64.09375 
Q 71.09375 55.28125 71.09375 36.53125 
Q 71.09375 17.671875 61.125 8.828125 
Q 51.171875 0 30.078125 0 
L 9.8125 0 
z
" id="DejaVuSans-68"/>
     </defs>
     <g transform="translate(119.09646 277.627188)scale(0.1 -0.1)">
      <use xlink:href="#DejaVuSans-84"/>
      <use x="44.583984" xlink:href="#DejaVuSans-97"/>
      <use x="105.863281" xlink:href="#DejaVuSans-114"/>
      <use x="145.226562" xlink:href="#DejaVuSans-103"/>
      <use x="208.703125" xlink:href="#DejaVuSans-101"/>
      <use x="270.226562" xlink:href="#DejaVuSans-116"/>
      <use x="309.435547" xlink:href="#DejaVuSans-32"/>
      <use x="341.222656" xlink:href="#DejaVuSans-69"/>
      <use x="404.40625" xlink:href="#DejaVuSans-110"/>
      <use x="467.785156" xlink:href="#DejaVuSans-100"/>
      <use x="531.261719" xlink:href="#DejaVuSans-32"/>
      <use x="563.048828" xlink:href="#DejaVuSans-68"/>
      <use x="640.050781" xlink:href="#DejaVuSans-97"/>
      <use x="701.330078" xlink:href="#DejaVuSans-116"/>
      <use x="740.539062" xlink:href="#DejaVuSans-101"/>
     </g>
    </g>
   </g>
   <g id="matplotlib.axis_2">
    <g id="ytick_1">
     <g id="line2d_16">
      <defs>
       <path d="M 0 0 
L -3.5 0 
" id="m92f5a556b9" style="stroke:#000000;stroke-width:0.8;"/>
      </defs>
      <g>
       <use style="stroke:#000000;stroke-width:0.8;" x="48.982813" xlink:href="#m92f5a556b9" y="208.568471"/>
      </g>
     </g>
     <g id="text_17">
      <!-- −16 -->
      <defs>
       <path d="M 10.59375 35.5 
L 73.1875 35.5 
L 73.1875 27.203125 
L 10.59375 27.203125 
z
" id="DejaVuSans-8722"/>
      </defs>
      <g transform="translate(20.878125 212.367689)scale(0.1 -0.1)">
       <use xlink:href="#DejaVuSans-8722"/>
       <use x="83.789062" xlink:href="#DejaVuSans-49"/>
       <use x="147.412109" xlink:href="#DejaVuSans-54"/>
      </g>
     </g>
    </g>
    <g id="ytick_2">
     <g id="line2d_17">
      <g>
       <use style="stroke:#000000;stroke-width:0.8;" x="48.982813" xlink:href="#m92f5a556b9" y="168.95845"/>
      </g>
     </g>
     <g id="text_18">
      <!-- −14 -->
      <g transform="translate(20.878125 172.757668)scale(0.1 -0.1)">
       <use xlink:href="#DejaVuSans-8722"/>
       <use x="83.789062" xlink:href="#DejaVuSans-49"/>
       <use x="147.412109" xlink:href="#DejaVuSans-52"/>
      </g>
     </g>
    </g>
    <g id="ytick_3">
     <g id="line2d_18">
      <g>
       <use style="stroke:#000000;stroke-width:0.8;" x="48.982813" xlink:href="#m92f5a556b9" y="129.348429"/>
      </g>
     </g>
     <g id="text_19">
      <!-- −12 -->
      <g transform="translate(20.878125 133.147647)scale(0.1 -0.1)">
       <use xlink:href="#DejaVuSans-8722"/>
       <use x="83.789062" xlink:href="#DejaVuSans-49"/>
       <use x="147.412109" xlink:href="#DejaVuSans-50"/>
      </g>
     </g>
    </g>
    <g id="ytick_4">
     <g id="line2d_19">
      <g>
       <use style="stroke:#000000;stroke-width:0.8;" x="48.982813" xlink:href="#m92f5a556b9" y="89.738408"/>
      </g>
     </g>
     <g id="text_20">
      <!-- −10 -->
      <g transform="translate(20.878125 93.537626)scale(0.1 -0.1)">
       <use xlink:href="#DejaVuSans-8722"/>
       <use x="83.789062" xlink:href="#DejaVuSans-49"/>
       <use x="147.412109" xlink:href="#DejaVuSans-48"/>
      </g>
     </g>
    </g>
    <g id="ytick_5">
     <g id="line2d_20">
      <g>
       <use style="stroke:#000000;stroke-width:0.8;" x="48.982813" xlink:href="#m92f5a556b9" y="50.128387"/>
      </g>
     </g>
     <g id="text_21">
      <!-- −8 -->
      <g transform="translate(27.240625 53.927605)scale(0.1 -0.1)">
       <use xlink:href="#DejaVuSans-8722"/>
       <use x="83.789062" xlink:href="#DejaVuSans-56"/>
      </g>
     </g>
    </g>
    <g id="text_22">
     <!-- Score for weekly incidental cases -->
     <defs>
      <path d="M 53.515625 70.515625 
L 53.515625 60.890625 
Q 47.90625 63.578125 42.921875 64.890625 
Q 37.9375 66.21875 33.296875 66.21875 
Q 25.25 66.21875 20.875 63.09375 
Q 16.5 59.96875 16.5 54.203125 
Q 16.5 49.359375 19.40625 46.890625 
Q 22.3125 44.4375 30.421875 42.921875 
L 36.375 41.703125 
Q 47.40625 39.59375 52.65625 34.296875 
Q 57.90625 29 57.90625 20.125 
Q 57.90625 9.515625 50.796875 4.046875 
Q 43.703125 -1.421875 29.984375 -1.421875 
Q 24.8125 -1.421875 18.96875 -0.25 
Q 13.140625 0.921875 6.890625 3.21875 
L 6.890625 13.375 
Q 12.890625 10.015625 18.65625 8.296875 
Q 24.421875 6.59375 29.984375 6.59375 
Q 38.421875 6.59375 43.015625 9.90625 
Q 47.609375 13.234375 47.609375 19.390625 
Q 47.609375 24.75 44.3125 27.78125 
Q 41.015625 30.8125 33.5 32.328125 
L 27.484375 33.5 
Q 16.453125 35.6875 11.515625 40.375 
Q 6.59375 45.0625 6.59375 53.421875 
Q 6.59375 63.09375 13.40625 68.65625 
Q 20.21875 74.21875 32.171875 74.21875 
Q 37.3125 74.21875 42.625 73.28125 
Q 47.953125 72.359375 53.515625 70.515625 
z
" id="DejaVuSans-83"/>
      <path d="M 48.78125 52.59375 
L 48.78125 44.1875 
Q 44.96875 46.296875 41.140625 47.34375 
Q 37.3125 48.390625 33.40625 48.390625 
Q 24.65625 48.390625 19.8125 42.84375 
Q 14.984375 37.3125 14.984375 27.296875 
Q 14.984375 17.28125 19.8125 11.734375 
Q 24.65625 6.203125 33.40625 6.203125 
Q 37.3125 6.203125 41.140625 7.25 
Q 44.96875 8.296875 48.78125 10.40625 
L 48.78125 2.09375 
Q 45.015625 0.34375 40.984375 -0.53125 
Q 36.96875 -1.421875 32.421875 -1.421875 
Q 20.0625 -1.421875 12.78125 6.34375 
Q 5.515625 14.109375 5.515625 27.296875 
Q 5.515625 40.671875 12.859375 48.328125 
Q 20.21875 56 33.015625 56 
Q 37.15625 56 41.109375 55.140625 
Q 45.0625 54.296875 48.78125 52.59375 
z
" id="DejaVuSans-99"/>
      <path d="M 30.609375 48.390625 
Q 23.390625 48.390625 19.1875 42.75 
Q 14.984375 37.109375 14.984375 27.296875 
Q 14.984375 17.484375 19.15625 11.84375 
Q 23.34375 6.203125 30.609375 6.203125 
Q 37.796875 6.203125 41.984375 11.859375 
Q 46.1875 17.53125 46.1875 27.296875 
Q 46.1875 37.015625 41.984375 42.703125 
Q 37.796875 48.390625 30.609375 48.390625 
z
M 30.609375 56 
Q 42.328125 56 49.015625 48.375 
Q 55.71875 40.765625 55.71875 27.296875 
Q 55.71875 13.875 49.015625 6.21875 
Q 42.328125 -1.421875 30.609375 -1.421875 
Q 18.84375 -1.421875 12.171875 6.21875 
Q 5.515625 13.875 5.515625 27.296875 
Q 5.515625 40.765625 12.171875 48.375 
Q 18.84375 56 30.609375 56 
z
" id="DejaVuSans-111"/>
      <path d="M 37.109375 75.984375 
L 37.109375 68.5 
L 28.515625 68.5 
Q 23.6875 68.5 21.796875 66.546875 
Q 19.921875 64.59375 19.921875 59.515625 
L 19.921875 54.6875 
L 34.71875 54.6875 
L 34.71875 47.703125 
L 19.921875 47.703125 
L 19.921875 0 
L 10.890625 0 
L 10.890625 47.703125 
L 2.296875 47.703125 
L 2.296875 54.6875 
L 10.890625 54.6875 
L 10.890625 58.5 
Q 10.890625 67.625 15.140625 71.796875 
Q 19.390625 75.984375 28.609375 75.984375 
z
" id="DejaVuSans-102"/>
      <path d="M 4.203125 54.6875 
L 13.1875 54.6875 
L 24.421875 12.015625 
L 35.59375 54.6875 
L 46.1875 54.6875 
L 57.421875 12.015625 
L 68.609375 54.6875 
L 77.59375 54.6875 
L 63.28125 0 
L 52.6875 0 
L 40.921875 44.828125 
L 29.109375 0 
L 18.5 0 
z
" id="DejaVuSans-119"/>
      <path d="M 9.078125 75.984375 
L 18.109375 75.984375 
L 18.109375 31.109375 
L 44.921875 54.6875 
L 56.390625 54.6875 
L 27.390625 29.109375 
L 57.625 0 
L 45.90625 0 
L 18.109375 26.703125 
L 18.109375 0 
L 9.078125 0 
z
" id="DejaVuSans-107"/>
      <path d="M 9.421875 75.984375 
L 18.40625 75.984375 
L 18.40625 0 
L 9.421875 0 
z
" id="DejaVuSans-108"/>
      <path d="M 32.171875 -5.078125 
Q 28.375 -14.84375 24.75 -17.8125 
Q 21.140625 -20.796875 15.09375 -20.796875 
L 7.90625 -20.796875 
L 7.90625 -13.28125 
L 13.1875 -13.28125 
Q 16.890625 -13.28125 18.9375 -11.515625 
Q 21 -9.765625 23.484375 -3.21875 
L 25.09375 0.875 
L 2.984375 54.6875 
L 12.5 54.6875 
L 29.59375 11.921875 
L 46.6875 54.6875 
L 56.203125 54.6875 
z
" id="DejaVuSans-121"/>
      <path d="M 9.421875 54.6875 
L 18.40625 54.6875 
L 18.40625 0 
L 9.421875 0 
z
M 9.421875 75.984375 
L 18.40625 75.984375 
L 18.40625 64.59375 
L 9.421875 64.59375 
z
" id="DejaVuSans-105"/>
      <path d="M 44.28125 53.078125 
L 44.28125 44.578125 
Q 40.484375 46.53125 36.375 47.5 
Q 32.28125 48.484375 27.875 48.484375 
Q 21.1875 48.484375 17.84375 46.4375 
Q 14.5 44.390625 14.5 40.28125 
Q 14.5 37.15625 16.890625 35.375 
Q 19.28125 33.59375 26.515625 31.984375 
L 29.59375 31.296875 
Q 39.15625 29.25 43.1875 25.515625 
Q 47.21875 21.78125 47.21875 15.09375 
Q 47.21875 7.46875 41.1875 3.015625 
Q 35.15625 -1.421875 24.609375 -1.421875 
Q 20.21875 -1.421875 15.453125 -0.5625 
Q 10.6875 0.296875 5.421875 2 
L 5.421875 11.28125 
Q 10.40625 8.6875 15.234375 7.390625 
Q 20.0625 6.109375 24.8125 6.109375 
Q 31.15625 6.109375 34.5625 8.28125 
Q 37.984375 10.453125 37.984375 14.40625 
Q 37.984375 18.0625 35.515625 20.015625 
Q 33.0625 21.96875 24.703125 23.78125 
L 21.578125 24.515625 
Q 13.234375 26.265625 9.515625 29.90625 
Q 5.8125 33.546875 5.8125 39.890625 
Q 5.8125 47.609375 11.28125 51.796875 
Q 16.75 56 26.8125 56 
Q 31.78125 56 36.171875 55.265625 
Q 40.578125 54.546875 44.28125 53.078125 
z
" id="DejaVuSans-115"/>
     </defs>
     <g transform="translate(14.798438 205.826905)rotate(-90)scale(0.1 -0.1)">
      <use xlink:href="#DejaVuSans-83"/>
      <use x="63.476562" xlink:href="#DejaVuSans-99"/>
      <use x="118.457031" xlink:href="#DejaVuSans-111"/>
      <use x="179.638672" xlink:href="#DejaVuSans-114"/>
      <use x="218.501953" xlink:href="#DejaVuSans-101"/>
      <use x="280.025391" xlink:href="#DejaVuSans-32"/>
      <use x="311.8125" xlink:href="#DejaVuSans-102"/>
      <use x="347.017578" xlink:href="#DejaVuSans-111"/>
      <use x="408.199219" xlink:href="#DejaVuSans-114"/>
      <use x="449.3125" xlink:href="#DejaVuSans-32"/>
      <use x="481.099609" xlink:href="#DejaVuSans-119"/>
      <use x="562.886719" xlink:href="#DejaVuSans-101"/>
      <use x="624.410156" xlink:href="#DejaVuSans-101"/>
      <use x="685.933594" xlink:href="#DejaVuSans-107"/>
      <use x="743.84375" xlink:href="#DejaVuSans-108"/>
      <use x="771.626953" xlink:href="#DejaVuSans-121"/>
      <use x="830.806641" xlink:href="#DejaVuSans-32"/>
      <use x="862.59375" xlink:href="#DejaVuSans-105"/>
      <use x="890.376953" xlink:href="#DejaVuSans-110"/>
      <use x="953.755859" xlink:href="#DejaVuSans-99"/>
      <use x="1008.736328" xlink:href="#DejaVuSans-105"/>
      <use x="1036.519531" xlink:href="#DejaVuSans-100"/>
      <use x="1099.996094" xlink:href="#DejaVuSans-101"/>
      <use x="1161.519531" xlink:href="#DejaVuSans-110"/>
      <use x="1224.898438" xlink:href="#DejaVuSans-116"/>
      <use x="1264.107422" xlink:href="#DejaVuSans-97"/>
      <use x="1325.386719" xlink:href="#DejaVuSans-108"/>
      <use x="1353.169922" xlink:href="#DejaVuSans-32"/>
      <use x="1384.957031" xlink:href="#DejaVuSans-99"/>
      <use x="1439.9375" xlink:href="#DejaVuSans-97"/>
      <use x="1501.216797" xlink:href="#DejaVuSans-115"/>
      <use x="1553.316406" xlink:href="#DejaVuSans-101"/>
      <use x="1614.839844" xlink:href="#DejaVuSans-115"/>
     </g>
    </g>
   </g>
   <g id="line2d_21">
    <path clip-path="url(#p8f2532840f)" d="M 112.111668 90.193268 
L 115.733816 100.174206 
L 119.355963 81.062296 
L 122.978111 106.299009 
L 126.600258 96.624358 
L 130.222405 68.758136 
L 133.844553 31.423682 
L 137.4667 65.092049 
L 141.088848 94.077023 
L 144.710995 36.862424 
L 173.688175 70.159621 
L 177.310322 143.09482 
L 180.93247 93.881811 
L 184.554617 113.974101 
L 188.176765 120.318043 
L 191.798912 98.007138 
L 195.42106 86.378646 
L 199.043207 97.552808 
L 202.665355 131.461803 
L 206.287502 112.026635 
L 209.90965 160.374174 
L 220.776092 162.999841 
L 224.398239 64.712982 
L 228.020387 89.611504 
L 231.642534 113.704725 
L 235.264682 112.214189 
L 238.886829 103.436177 
L 242.508977 105.15683 
L 246.131124 133.299759 
L 249.753272 129.805802 
L 253.375419 131.134589 
" style="fill:none;stroke:#000080;stroke-linecap:square;stroke-width:1.5;"/>
    <defs>
     <path d="M 0 3 
C 0.795609 3 1.55874 2.683901 2.12132 2.12132 
C 2.683901 1.55874 3 0.795609 3 0 
C 3 -0.795609 2.683901 -1.55874 2.12132 -2.12132 
C 1.55874 -2.683901 0.795609 -3 0 -3 
C -0.795609 -3 -1.55874 -2.683901 -2.12132 -2.12132 
C -2.683901 -1.55874 -3 -0.795609 -3 0 
C -3 0.795609 -2.683901 1.55874 -2.12132 2.12132 
C -1.55874 2.683901 -0.795609 3 0 3 
z
" id="m0b51e31e36" style="stroke:#000080;"/>
    </defs>
    <g clip-path="url(#p8f2532840f)">
     <use style="fill:#000080;stroke:#000080;" x="112.111668" xlink:href="#m0b51e31e36" y="90.193268"/>
     <use style="fill:#000080;stroke:#000080;" x="115.733816" xlink:href="#m0b51e31e36" y="100.174206"/>
     <use style="fill:#000080;stroke:#000080;" x="119.355963" xlink:href="#m0b51e31e36" y="81.062296"/>
     <use style="fill:#000080;stroke:#000080;" x="122.978111" xlink:href="#m0b51e31e36" y="106.299009"/>
     <use style="fill:#000080;stroke:#000080;" x="126.600258" xlink:href="#m0b51e31e36" y="96.624358"/>
     <use style="fill:#000080;stroke:#000080;" x="130.222405" xlink:href="#m0b51e31e36" y="68.758136"/>
     <use style="fill:#000080;stroke:#000080;" x="133.844553" xlink:href="#m0b51e31e36" y="31.423682"/>
     <use style="fill:#000080;stroke:#000080;" x="137.4667" xlink:href="#m0b51e31e36" y="65.092049"/>
     <use style="fill:#000080;stroke:#000080;" x="141.088848" xlink:href="#m0b51e31e36" y="94.077023"/>
     <use style="fill:#000080;stroke:#000080;" x="144.710995" xlink:href="#m0b51e31e36" y="36.862424"/>
     <use style="fill:#000080;stroke:#000080;" x="173.688175" xlink:href="#m0b51e31e36" y="70.159621"/>
     <use style="fill:#000080;stroke:#000080;" x="177.310322" xlink:href="#m0b51e31e36" y="143.09482"/>
     <use style="fill:#000080;stroke:#000080;" x="180.93247" xlink:href="#m0b51e31e36" y="93.881811"/>
     <use style="fill:#000080;stroke:#000080;" x="184.554617" xlink:href="#m0b51e31e36" y="113.974101"/>
     <use style="fill:#000080;stroke:#000080;" x="188.176765" xlink:href="#m0b51e31e36" y="120.318043"/>
     <use style="fill:#000080;stroke:#000080;" x="191.798912" xlink:href="#m0b51e31e36" y="98.007138"/>
     <use style="fill:#000080;stroke:#000080;" x="195.42106" xlink:href="#m0b51e31e36" y="86.378646"/>
     <use style="fill:#000080;stroke:#000080;" x="199.043207" xlink:href="#m0b51e31e36" y="97.552808"/>
     <use style="fill:#000080;stroke:#000080;" x="202.665355" xlink:href="#m0b51e31e36" y="131.461803"/>
     <use style="fill:#000080;stroke:#000080;" x="206.287502" xlink:href="#m0b51e31e36" y="112.026635"/>
     <use style="fill:#000080;stroke:#000080;" x="209.90965" xlink:href="#m0b51e31e36" y="160.374174"/>
     <use style="fill:#000080;stroke:#000080;" x="220.776092" xlink:href="#m0b51e31e36" y="162.999841"/>
     <use style="fill:#000080;stroke:#000080;" x="224.398239" xlink:href="#m0b51e31e36" y="64.712982"/>
     <use style="fill:#000080;stroke:#000080;" x="228.020387" xlink:href="#m0b51e31e36" y="89.611504"/>
     <use style="fill:#000080;stroke:#000080;" x="231.642534" xlink:href="#m0b51e31e36" y="113.704725"/>
     <use style="fill:#000080;stroke:#000080;" x="235.264682" xlink:href="#m0b51e31e36" y="112.214189"/>
     <use style="fill:#000080;stroke:#000080;" x="238.886829" xlink:href="#m0b51e31e36" y="103.436177"/>
     <use style="fill:#000080;stroke:#000080;" x="242.508977" xlink:href="#m0b51e31e36" y="105.15683"/>
     <use style="fill:#000080;stroke:#000080;" x="246.131124" xlink:href="#m0b51e31e36" y="133.299759"/>
     <use style="fill:#000080;stroke:#000080;" x="249.753272" xlink:href="#m0b51e31e36" y="129.805802"/>
     <use style="fill:#000080;stroke:#000080;" x="253.375419" xlink:href="#m0b51e31e36" y="131.134589"/>
    </g>
   </g>
   <g id="line2d_22">
    <path clip-path="url(#p8f2532840f)" d="M 112.111668 76.985639 
L 115.733816 59.571086 
L 119.355963 98.38163 
L 126.600258 99.727939 
L 130.222405 116.364637 
L 133.844553 102.708509 
L 137.4667 95.508609 
L 141.088848 100.711566 
L 144.710995 107.551223 
L 148.333143 98.471651 
L 151.95529 121.922151 
L 155.577438 92.280324 
L 159.199585 112.175001 
L 162.821733 140.637842 
L 166.44388 153.10431 
L 170.066027 158.535102 
L 173.688175 133.171936 
L 177.310322 102.438648 
L 180.93247 101.156128 
L 184.554617 116.844773 
L 188.176765 111.283388 
L 191.798912 109.668962 
L 195.42106 104.749576 
L 199.043207 112.881225 
L 202.665355 112.238869 
L 206.287502 90.39063 
L 209.90965 174.978469 
L 213.531797 207.795243 
L 217.153944 78.214865 
L 220.776092 96.627041 
L 224.398239 88.58723 
L 228.020387 82.154856 
L 231.642534 114.174908 
L 235.264682 106.51725 
L 238.886829 109.239668 
L 242.508977 139.66132 
L 246.131124 106.155304 
L 249.753272 87.605174 
L 253.375419 104.476394 
" style="fill:none;stroke:#00d4ff;stroke-linecap:square;stroke-width:1.5;"/>
    <defs>
     <path d="M 0 3 
C 0.795609 3 1.55874 2.683901 2.12132 2.12132 
C 2.683901 1.55874 3 0.795609 3 0 
C 3 -0.795609 2.683901 -1.55874 2.12132 -2.12132 
C 1.55874 -2.683901 0.795609 -3 0 -3 
C -0.795609 -3 -1.55874 -2.683901 -2.12132 -2.12132 
C -2.683901 -1.55874 -3 -0.795609 -3 0 
C -3 0.795609 -2.683901 1.55874 -2.12132 2.12132 
C -1.55874 2.683901 -0.795609 3 0 3 
z
" id="mdda810050d" style="stroke:#00d4ff;"/>
    </defs>
    <g clip-path="url(#p8f2532840f)">
     <use style="fill:#00d4ff;stroke:#00d4ff;" x="112.111668" xlink:href="#mdda810050d" y="76.985639"/>
     <use style="fill:#00d4ff;stroke:#00d4ff;" x="115.733816" xlink:href="#mdda810050d" y="59.571086"/>
     <use style="fill:#00d4ff;stroke:#00d4ff;" x="119.355963" xlink:href="#mdda810050d" y="98.38163"/>
     <use style="fill:#00d4ff;stroke:#00d4ff;" x="126.600258" xlink:href="#mdda810050d" y="99.727939"/>
     <use style="fill:#00d4ff;stroke:#00d4ff;" x="130.222405" xlink:href="#mdda810050d" y="116.364637"/>
     <use style="fill:#00d4ff;stroke:#00d4ff;" x="133.844553" xlink:href="#mdda810050d" y="102.708509"/>
     <use style="fill:#00d4ff;stroke:#00d4ff;" x="137.4667" xlink:href="#mdda810050d" y="95.508609"/>
     <use style="fill:#00d4ff;stroke:#00d4ff;" x="141.088848" xlink:href="#mdda810050d" y="100.711566"/>
     <use style="fill:#00d4ff;stroke:#00d4ff;" x="144.710995" xlink:href="#mdda810050d" y="107.551223"/>
     <use style="fill:#00d4ff;stroke:#00d4ff;" x="148.333143" xlink:href="#mdda810050d" y="98.471651"/>
     <use style="fill:#00d4ff;stroke:#00d4ff;" x="151.95529" xlink:href="#mdda810050d" y="121.922151"/>
     <use style="fill:#00d4ff;stroke:#00d4ff;" x="155.577438" xlink:href="#mdda810050d" y="92.280324"/>
     <use style="fill:#00d4ff;stroke:#00d4ff;" x="159.199585" xlink:href="#mdda810050d" y="112.175001"/>
     <use style="fill:#00d4ff;stroke:#00d4ff;" x="162.821733" xlink:href="#mdda810050d" y="140.637842"/>
     <use style="fill:#00d4ff;stroke:#00d4ff;" x="166.44388" xlink:href="#mdda810050d" y="153.10431"/>
     <use style="fill:#00d4ff;stroke:#00d4ff;" x="170.066027" xlink:href="#mdda810050d" y="158.535102"/>
     <use style="fill:#00d4ff;stroke:#00d4ff;" x="173.688175" xlink:href="#mdda810050d" y="133.171936"/>
     <use style="fill:#00d4ff;stroke:#00d4ff;" x="177.310322" xlink:href="#mdda810050d" y="102.438648"/>
     <use style="fill:#00d4ff;stroke:#00d4ff;" x="180.93247" xlink:href="#mdda810050d" y="101.156128"/>
     <use style="fill:#00d4ff;stroke:#00d4ff;" x="184.554617" xlink:href="#mdda810050d" y="116.844773"/>
     <use style="fill:#00d4ff;stroke:#00d4ff;" x="188.176765" xlink:href="#mdda810050d" y="111.283388"/>
     <use style="fill:#00d4ff;stroke:#00d4ff;" x="191.798912" xlink:href="#mdda810050d" y="109.668962"/>
     <use style="fill:#00d4ff;stroke:#00d4ff;" x="195.42106" xlink:href="#mdda810050d" y="104.749576"/>
     <use style="fill:#00d4ff;stroke:#00d4ff;" x="199.043207" xlink:href="#mdda810050d" y="112.881225"/>
     <use style="fill:#00d4ff;stroke:#00d4ff;" x="202.665355" xlink:href="#mdda810050d" y="112.238869"/>
     <use style="fill:#00d4ff;stroke:#00d4ff;" x="206.287502" xlink:href="#mdda810050d" y="90.39063"/>
     <use style="fill:#00d4ff;stroke:#00d4ff;" x="209.90965" xlink:href="#mdda810050d" y="174.978469"/>
     <use style="fill:#00d4ff;stroke:#00d4ff;" x="213.531797" xlink:href="#mdda810050d" y="207.795243"/>
     <use style="fill:#00d4ff;stroke:#00d4ff;" x="217.153944" xlink:href="#mdda810050d" y="78.214865"/>
     <use style="fill:#00d4ff;stroke:#00d4ff;" x="220.776092" xlink:href="#mdda810050d" y="96.627041"/>
     <use style="fill:#00d4ff;stroke:#00d4ff;" x="224.398239" xlink:href="#mdda810050d" y="88.58723"/>
     <use style="fill:#00d4ff;stroke:#00d4ff;" x="228.020387" xlink:href="#mdda810050d" y="82.154856"/>
     <use style="fill:#00d4ff;stroke:#00d4ff;" x="231.642534" xlink:href="#mdda810050d" y="114.174908"/>
     <use style="fill:#00d4ff;stroke:#00d4ff;" x="235.264682" xlink:href="#mdda810050d" y="106.51725"/>
     <use style="fill:#00d4ff;stroke:#00d4ff;" x="238.886829" xlink:href="#mdda810050d" y="109.239668"/>
     <use style="fill:#00d4ff;stroke:#00d4ff;" x="242.508977" xlink:href="#mdda810050d" y="139.66132"/>
     <use style="fill:#00d4ff;stroke:#00d4ff;" x="246.131124" xlink:href="#mdda810050d" y="106.155304"/>
     <use style="fill:#00d4ff;stroke:#00d4ff;" x="249.753272" xlink:href="#mdda810050d" y="87.605174"/>
     <use style="fill:#00d4ff;stroke:#00d4ff;" x="253.375419" xlink:href="#mdda810050d" y="104.476394"/>
    </g>
   </g>
   <g id="line2d_23">
    <path clip-path="url(#p8f2532840f)" d="M 65.023751 65.837277 
L 68.645899 84.87262 
L 72.268046 93.26128 
L 75.890194 98.543884 
L 79.512341 94.978218 
L 83.134489 80.728127 
L 86.756636 61.601321 
L 90.378783 69.719323 
L 108.489521 119.441462 
L 112.111668 102.664578 
L 115.733816 89.44853 
L 119.355963 104.689699 
L 122.978111 100.797437 
L 126.600258 97.940706 
L 130.222405 88.624462 
L 133.844553 92.772471 
L 137.4667 70.641774 
L 141.088848 67.511882 
L 144.710995 61.063233 
L 148.333143 108.766881 
L 151.95529 129.178115 
L 155.577438 103.062372 
L 159.199585 115.804499 
L 162.821733 151.029626 
L 166.44388 160.745635 
L 170.066027 157.399815 
L 173.688175 110.044243 
L 177.310322 130.021888 
L 180.93247 116.011591 
L 184.554617 136.601519 
L 188.176765 107.031577 
L 191.798912 117.349941 
L 195.42106 114.272334 
L 199.043207 96.741098 
L 202.665355 98.067806 
L 206.287502 121.624722 
L 213.531797 197.738294 
L 217.153944 164.690982 
L 220.776092 117.769546 
L 224.398239 96.320703 
L 228.020387 119.628656 
L 231.642534 116.26103 
L 235.264682 109.719277 
L 238.886829 114.353461 
L 242.508977 118.084984 
L 246.131124 122.250648 
L 249.753272 100.964788 
L 253.375419 104.136761 
" style="fill:none;stroke:#ffe600;stroke-linecap:square;stroke-width:1.5;"/>
    <defs>
     <path d="M 0 3 
C 0.795609 3 1.55874 2.683901 2.12132 2.12132 
C 2.683901 1.55874 3 0.795609 3 0 
C 3 -0.795609 2.683901 -1.55874 2.12132 -2.12132 
C 1.55874 -2.683901 0.795609 -3 0 -3 
C -0.795609 -3 -1.55874 -2.683901 -2.12132 -2.12132 
C -2.683901 -1.55874 -3 -0.795609 -3 0 
C -3 0.795609 -2.683901 1.55874 -2.12132 2.12132 
C -1.55874 2.683901 -0.795609 3 0 3 
z
" id="m5323dbb6b0" style="stroke:#ffe600;"/>
    </defs>
    <g clip-path="url(#p8f2532840f)">
     <use style="fill:#ffe600;stroke:#ffe600;" x="65.023751" xlink:href="#m5323dbb6b0" y="65.837277"/>
     <use style="fill:#ffe600;stroke:#ffe600;" x="68.645899" xlink:href="#m5323dbb6b0" y="84.87262"/>
     <use style="fill:#ffe600;stroke:#ffe600;" x="72.268046" xlink:href="#m5323dbb6b0" y="93.26128"/>
     <use style="fill:#ffe600;stroke:#ffe600;" x="75.890194" xlink:href="#m5323dbb6b0" y="98.543884"/>
     <use style="fill:#ffe600;stroke:#ffe600;" x="79.512341" xlink:href="#m5323dbb6b0" y="94.978218"/>
     <use style="fill:#ffe600;stroke:#ffe600;" x="83.134489" xlink:href="#m5323dbb6b0" y="80.728127"/>
     <use style="fill:#ffe600;stroke:#ffe600;" x="86.756636" xlink:href="#m5323dbb6b0" y="61.601321"/>
     <use style="fill:#ffe600;stroke:#ffe600;" x="90.378783" xlink:href="#m5323dbb6b0" y="69.719323"/>
     <use style="fill:#ffe600;stroke:#ffe600;" x="108.489521" xlink:href="#m5323dbb6b0" y="119.441462"/>
     <use style="fill:#ffe600;stroke:#ffe600;" x="112.111668" xlink:href="#m5323dbb6b0" y="102.664578"/>
     <use style="fill:#ffe600;stroke:#ffe600;" x="115.733816" xlink:href="#m5323dbb6b0" y="89.44853"/>
     <use style="fill:#ffe600;stroke:#ffe600;" x="119.355963" xlink:href="#m5323dbb6b0" y="104.689699"/>
     <use style="fill:#ffe600;stroke:#ffe600;" x="122.978111" xlink:href="#m5323dbb6b0" y="100.797437"/>
     <use style="fill:#ffe600;stroke:#ffe600;" x="126.600258" xlink:href="#m5323dbb6b0" y="97.940706"/>
     <use style="fill:#ffe600;stroke:#ffe600;" x="130.222405" xlink:href="#m5323dbb6b0" y="88.624462"/>
     <use style="fill:#ffe600;stroke:#ffe600;" x="133.844553" xlink:href="#m5323dbb6b0" y="92.772471"/>
     <use style="fill:#ffe600;stroke:#ffe600;" x="137.4667" xlink:href="#m5323dbb6b0" y="70.641774"/>
     <use style="fill:#ffe600;stroke:#ffe600;" x="141.088848" xlink:href="#m5323dbb6b0" y="67.511882"/>
     <use style="fill:#ffe600;stroke:#ffe600;" x="144.710995" xlink:href="#m5323dbb6b0" y="61.063233"/>
     <use style="fill:#ffe600;stroke:#ffe600;" x="148.333143" xlink:href="#m5323dbb6b0" y="108.766881"/>
     <use style="fill:#ffe600;stroke:#ffe600;" x="151.95529" xlink:href="#m5323dbb6b0" y="129.178115"/>
     <use style="fill:#ffe600;stroke:#ffe600;" x="155.577438" xlink:href="#m5323dbb6b0" y="103.062372"/>
     <use style="fill:#ffe600;stroke:#ffe600;" x="159.199585" xlink:href="#m5323dbb6b0" y="115.804499"/>
     <use style="fill:#ffe600;stroke:#ffe600;" x="162.821733" xlink:href="#m5323dbb6b0" y="151.029626"/>
     <use style="fill:#ffe600;stroke:#ffe600;" x="166.44388" xlink:href="#m5323dbb6b0" y="160.745635"/>
     <use style="fill:#ffe600;stroke:#ffe600;" x="170.066027" xlink:href="#m5323dbb6b0" y="157.399815"/>
     <use style="fill:#ffe600;stroke:#ffe600;" x="173.688175" xlink:href="#m5323dbb6b0" y="110.044243"/>
     <use style="fill:#ffe600;stroke:#ffe600;" x="177.310322" xlink:href="#m5323dbb6b0" y="130.021888"/>
     <use style="fill:#ffe600;stroke:#ffe600;" x="180.93247" xlink:href="#m5323dbb6b0" y="116.011591"/>
     <use style="fill:#ffe600;stroke:#ffe600;" x="184.554617" xlink:href="#m5323dbb6b0" y="136.601519"/>
     <use style="fill:#ffe600;stroke:#ffe600;" x="188.176765" xlink:href="#m5323dbb6b0" y="107.031577"/>
     <use style="fill:#ffe600;stroke:#ffe600;" x="191.798912" xlink:href="#m5323dbb6b0" y="117.349941"/>
     <use style="fill:#ffe600;stroke:#ffe600;" x="195.42106" xlink:href="#m5323dbb6b0" y="114.272334"/>
     <use style="fill:#ffe600;stroke:#ffe600;" x="199.043207" xlink:href="#m5323dbb6b0" y="96.741098"/>
     <use style="fill:#ffe600;stroke:#ffe600;" x="202.665355" xlink:href="#m5323dbb6b0" y="98.067806"/>
     <use style="fill:#ffe600;stroke:#ffe600;" x="206.287502" xlink:href="#m5323dbb6b0" y="121.624722"/>
     <use style="fill:#ffe600;stroke:#ffe600;" x="213.531797" xlink:href="#m5323dbb6b0" y="197.738294"/>
     <use style="fill:#ffe600;stroke:#ffe600;" x="217.153944" xlink:href="#m5323dbb6b0" y="164.690982"/>
     <use style="fill:#ffe600;stroke:#ffe600;" x="220.776092" xlink:href="#m5323dbb6b0" y="117.769546"/>
     <use style="fill:#ffe600;stroke:#ffe600;" x="224.398239" xlink:href="#m5323dbb6b0" y="96.320703"/>
     <use style="fill:#ffe600;stroke:#ffe600;" x="228.020387" xlink:href="#m5323dbb6b0" y="119.628656"/>
     <use style="fill:#ffe600;stroke:#ffe600;" x="231.642534" xlink:href="#m5323dbb6b0" y="116.26103"/>
     <use style="fill:#ffe600;stroke:#ffe600;" x="235.264682" xlink:href="#m5323dbb6b0" y="109.719277"/>
     <use style="fill:#ffe600;stroke:#ffe600;" x="238.886829" xlink:href="#m5323dbb6b0" y="114.353461"/>
     <use style="fill:#ffe600;stroke:#ffe600;" x="242.508977" xlink:href="#m5323dbb6b0" y="118.084984"/>
     <use style="fill:#ffe600;stroke:#ffe600;" x="246.131124" xlink:href="#m5323dbb6b0" y="122.250648"/>
     <use style="fill:#ffe600;stroke:#ffe600;" x="249.753272" xlink:href="#m5323dbb6b0" y="100.964788"/>
     <use style="fill:#ffe600;stroke:#ffe600;" x="253.375419" xlink:href="#m5323dbb6b0" y="104.136761"/>
    </g>
   </g>
   <g id="line2d_24">
    <path clip-path="url(#p8f2532840f)" d="M 115.733816 108.041419 
L 119.355963 132.432537 
L 122.978111 149.111538 
L 126.600258 110.221229 
L 130.222405 78.484264 
L 133.844553 45.736251 
L 137.4667 115.646985 
L 141.088848 82.216454 
L 144.710995 77.667977 
L 148.333143 130.021855 
L 151.95529 84.251392 
L 155.577438 137.486928 
L 159.199585 196.26492 
L 173.688175 160.755902 
L 177.310322 129.352338 
L 180.93247 110.358436 
L 184.554617 101.40562 
L 188.176765 126.565386 
L 191.798912 106.780409 
L 195.42106 103.18961 
L 199.043207 96.844294 
L 202.665355 101.892396 
L 206.287502 128.762057 
L 209.90965 190.576934 
L 213.531797 213.534816 
L 217.153944 186.06706 
L 220.776092 138.179098 
L 224.398239 98.280315 
L 228.020387 95.341066 
L 231.642534 107.055539 
L 235.264682 101.612298 
L 238.886829 102.746071 
L 242.508977 119.083447 
L 246.131124 109.638476 
L 249.753272 100.709432 
L 253.375419 94.302857 
" style="fill:none;stroke:#800000;stroke-linecap:square;stroke-width:1.5;"/>
    <defs>
     <path d="M 0 3 
C 0.795609 3 1.55874 2.683901 2.12132 2.12132 
C 2.683901 1.55874 3 0.795609 3 0 
C 3 -0.795609 2.683901 -1.55874 2.12132 -2.12132 
C 1.55874 -2.683901 0.795609 -3 0 -3 
C -0.795609 -3 -1.55874 -2.683901 -2.12132 -2.12132 
C -2.683901 -1.55874 -3 -0.795609 -3 0 
C -3 0.795609 -2.683901 1.55874 -2.12132 2.12132 
C -1.55874 2.683901 -0.795609 3 0 3 
z
" id="m557ef4ebf3" style="stroke:#800000;"/>
    </defs>
    <g clip-path="url(#p8f2532840f)">
     <use style="fill:#800000;stroke:#800000;" x="115.733816" xlink:href="#m557ef4ebf3" y="108.041419"/>
     <use style="fill:#800000;stroke:#800000;" x="119.355963" xlink:href="#m557ef4ebf3" y="132.432537"/>
     <use style="fill:#800000;stroke:#800000;" x="122.978111" xlink:href="#m557ef4ebf3" y="149.111538"/>
     <use style="fill:#800000;stroke:#800000;" x="126.600258" xlink:href="#m557ef4ebf3" y="110.221229"/>
     <use style="fill:#800000;stroke:#800000;" x="130.222405" xlink:href="#m557ef4ebf3" y="78.484264"/>
     <use style="fill:#800000;stroke:#800000;" x="133.844553" xlink:href="#m557ef4ebf3" y="45.736251"/>
     <use style="fill:#800000;stroke:#800000;" x="137.4667" xlink:href="#m557ef4ebf3" y="115.646985"/>
     <use style="fill:#800000;stroke:#800000;" x="141.088848" xlink:href="#m557ef4ebf3" y="82.216454"/>
     <use style="fill:#800000;stroke:#800000;" x="144.710995" xlink:href="#m557ef4ebf3" y="77.667977"/>
     <use style="fill:#800000;stroke:#800000;" x="148.333143" xlink:href="#m557ef4ebf3" y="130.021855"/>
     <use style="fill:#800000;stroke:#800000;" x="151.95529" xlink:href="#m557ef4ebf3" y="84.251392"/>
     <use style="fill:#800000;stroke:#800000;" x="155.577438" xlink:href="#m557ef4ebf3" y="137.486928"/>
     <use style="fill:#800000;stroke:#800000;" x="159.199585" xlink:href="#m557ef4ebf3" y="196.26492"/>
     <use style="fill:#800000;stroke:#800000;" x="173.688175" xlink:href="#m557ef4ebf3" y="160.755902"/>
     <use style="fill:#800000;stroke:#800000;" x="177.310322" xlink:href="#m557ef4ebf3" y="129.352338"/>
     <use style="fill:#800000;stroke:#800000;" x="180.93247" xlink:href="#m557ef4ebf3" y="110.358436"/>
     <use style="fill:#800000;stroke:#800000;" x="184.554617" xlink:href="#m557ef4ebf3" y="101.40562"/>
     <use style="fill:#800000;stroke:#800000;" x="188.176765" xlink:href="#m557ef4ebf3" y="126.565386"/>
     <use style="fill:#800000;stroke:#800000;" x="191.798912" xlink:href="#m557ef4ebf3" y="106.780409"/>
     <use style="fill:#800000;stroke:#800000;" x="195.42106" xlink:href="#m557ef4ebf3" y="103.18961"/>
     <use style="fill:#800000;stroke:#800000;" x="199.043207" xlink:href="#m557ef4ebf3" y="96.844294"/>
     <use style="fill:#800000;stroke:#800000;" x="202.665355" xlink:href="#m557ef4ebf3" y="101.892396"/>
     <use style="fill:#800000;stroke:#800000;" x="206.287502" xlink:href="#m557ef4ebf3" y="128.762057"/>
     <use style="fill:#800000;stroke:#800000;" x="209.90965" xlink:href="#m557ef4ebf3" y="190.576934"/>
     <use style="fill:#800000;stroke:#800000;" x="213.531797" xlink:href="#m557ef4ebf3" y="213.534816"/>
     <use style="fill:#800000;stroke:#800000;" x="217.153944" xlink:href="#m557ef4ebf3" y="186.06706"/>
     <use style="fill:#800000;stroke:#800000;" x="220.776092" xlink:href="#m557ef4ebf3" y="138.179098"/>
     <use style="fill:#800000;stroke:#800000;" x="224.398239" xlink:href="#m557ef4ebf3" y="98.280315"/>
     <use style="fill:#800000;stroke:#800000;" x="228.020387" xlink:href="#m557ef4ebf3" y="95.341066"/>
     <use style="fill:#800000;stroke:#800000;" x="231.642534" xlink:href="#m557ef4ebf3" y="107.055539"/>
     <use style="fill:#800000;stroke:#800000;" x="235.264682" xlink:href="#m557ef4ebf3" y="101.612298"/>
     <use style="fill:#800000;stroke:#800000;" x="238.886829" xlink:href="#m557ef4ebf3" y="102.746071"/>
     <use style="fill:#800000;stroke:#800000;" x="242.508977" xlink:href="#m557ef4ebf3" y="119.083447"/>
     <use style="fill:#800000;stroke:#800000;" x="246.131124" xlink:href="#m557ef4ebf3" y="109.638476"/>
     <use style="fill:#800000;stroke:#800000;" x="249.753272" xlink:href="#m557ef4ebf3" y="100.709432"/>
     <use style="fill:#800000;stroke:#800000;" x="253.375419" xlink:href="#m557ef4ebf3" y="94.302857"/>
    </g>
   </g>
   <g id="patch_3">
    <path d="M 48.982813 222.640373 
L 48.982813 22.318125 
" style="fill:none;stroke:#000000;stroke-linecap:square;stroke-linejoin:miter;stroke-width:0.8;"/>
   </g>
   <g id="patch_4">
    <path d="M 269.416358 222.640373 
L 269.416358 22.318125 
" style="fill:none;stroke:#000000;stroke-linecap:square;stroke-linejoin:miter;stroke-width:0.8;"/>
   </g>
   <g id="patch_5">
    <path d="M 48.982812 222.640373 
L 269.416358 222.640373 
" style="fill:none;stroke:#000000;stroke-linecap:square;stroke-linejoin:miter;stroke-width:0.8;"/>
   </g>
   <g id="patch_6">
    <path d="M 48.982812 22.318125 
L 269.416358 22.318125 
" style="fill:none;stroke:#000000;stroke-linecap:square;stroke-linejoin:miter;stroke-width:0.8;"/>
   </g>
   <g id="text_23">
    <!-- Model-averaged 4-week-ahead forecasts -->
    <defs>
     <path d="M 9.8125 72.90625 
L 24.515625 72.90625 
L 43.109375 23.296875 
L 61.8125 72.90625 
L 76.515625 72.90625 
L 76.515625 0 
L 66.890625 0 
L 66.890625 64.015625 
L 48.09375 14.015625 
L 38.1875 14.015625 
L 19.390625 64.015625 
L 19.390625 0 
L 9.8125 0 
z
" id="DejaVuSans-77"/>
     <path d="M 2.984375 54.6875 
L 12.5 54.6875 
L 29.59375 8.796875 
L 46.6875 54.6875 
L 56.203125 54.6875 
L 35.6875 0 
L 23.484375 0 
z
" id="DejaVuSans-118"/>
     <path d="M 54.890625 33.015625 
L 54.890625 0 
L 45.90625 0 
L 45.90625 32.71875 
Q 45.90625 40.484375 42.875 44.328125 
Q 39.84375 48.1875 33.796875 48.1875 
Q 26.515625 48.1875 22.3125 43.546875 
Q 18.109375 38.921875 18.109375 30.90625 
L 18.109375 0 
L 9.078125 0 
L 9.078125 75.984375 
L 18.109375 75.984375 
L 18.109375 46.1875 
Q 21.34375 51.125 25.703125 53.5625 
Q 30.078125 56 35.796875 56 
Q 45.21875 56 50.046875 50.171875 
Q 54.890625 44.34375 54.890625 33.015625 
z
" id="DejaVuSans-104"/>
    </defs>
    <g transform="translate(36.87646 16.318125)scale(0.12 -0.12)">
     <use xlink:href="#DejaVuSans-77"/>
     <use x="86.279297" xlink:href="#DejaVuSans-111"/>
     <use x="147.460938" xlink:href="#DejaVuSans-100"/>
     <use x="210.9375" xlink:href="#DejaVuSans-101"/>
     <use x="272.460938" xlink:href="#DejaVuSans-108"/>
     <use x="300.244141" xlink:href="#DejaVuSans-45"/>
     <use x="336.328125" xlink:href="#DejaVuSans-97"/>
     <use x="397.607422" xlink:href="#DejaVuSans-118"/>
     <use x="456.787109" xlink:href="#DejaVuSans-101"/>
     <use x="518.310547" xlink:href="#DejaVuSans-114"/>
     <use x="559.423828" xlink:href="#DejaVuSans-97"/>
     <use x="620.703125" xlink:href="#DejaVuSans-103"/>
     <use x="684.179688" xlink:href="#DejaVuSans-101"/>
     <use x="745.703125" xlink:href="#DejaVuSans-100"/>
     <use x="809.179688" xlink:href="#DejaVuSans-32"/>
     <use x="840.966797" xlink:href="#DejaVuSans-52"/>
     <use x="904.589844" xlink:href="#DejaVuSans-45"/>
     <use x="940.673828" xlink:href="#DejaVuSans-119"/>
     <use x="1022.460938" xlink:href="#DejaVuSans-101"/>
     <use x="1083.984375" xlink:href="#DejaVuSans-101"/>
     <use x="1145.507812" xlink:href="#DejaVuSans-107"/>
     <use x="1203.417969" xlink:href="#DejaVuSans-45"/>
     <use x="1239.501953" xlink:href="#DejaVuSans-97"/>
     <use x="1300.78125" xlink:href="#DejaVuSans-104"/>
     <use x="1364.160156" xlink:href="#DejaVuSans-101"/>
     <use x="1425.683594" xlink:href="#DejaVuSans-97"/>
     <use x="1486.962891" xlink:href="#DejaVuSans-100"/>
     <use x="1550.439453" xlink:href="#DejaVuSans-32"/>
     <use x="1582.226562" xlink:href="#DejaVuSans-102"/>
     <use x="1617.431641" xlink:href="#DejaVuSans-111"/>
     <use x="1678.613281" xlink:href="#DejaVuSans-114"/>
     <use x="1717.476562" xlink:href="#DejaVuSans-101"/>
     <use x="1779" xlink:href="#DejaVuSans-99"/>
     <use x="1833.980469" xlink:href="#DejaVuSans-97"/>
     <use x="1895.259766" xlink:href="#DejaVuSans-115"/>
     <use x="1947.359375" xlink:href="#DejaVuSans-116"/>
     <use x="1986.568359" xlink:href="#DejaVuSans-115"/>
    </g>
   </g>
   <g id="legend_1">
    <g id="patch_7">
     <path d="M 55.982813 217.640373 
L 167.139063 217.640373 
Q 169.139063 217.640373 169.139063 215.640373 
L 169.139063 145.927873 
Q 169.139063 143.927873 167.139063 143.927873 
L 55.982813 143.927873 
Q 53.982813 143.927873 53.982813 145.927873 
L 53.982813 215.640373 
Q 53.982813 217.640373 55.982813 217.640373 
z
" style="fill:#ffffff;opacity:0.8;stroke:#cccccc;stroke-linejoin:miter;"/>
    </g>
    <g id="line2d_25">
     <path d="M 57.982813 152.02631 
L 77.982813 152.02631 
" style="fill:none;stroke:#000080;stroke-linecap:square;stroke-width:1.5;"/>
    </g>
    <g id="line2d_26">
     <g>
      <use style="fill:#000080;stroke:#000080;" x="67.982813" xlink:href="#m0b51e31e36" y="152.02631"/>
     </g>
    </g>
    <g id="text_24">
     <!-- compartmental -->
     <defs>
      <path d="M 52 44.1875 
Q 55.375 50.25 60.0625 53.125 
Q 64.75 56 71.09375 56 
Q 79.640625 56 84.28125 50.015625 
Q 88.921875 44.046875 88.921875 33.015625 
L 88.921875 0 
L 79.890625 0 
L 79.890625 32.71875 
Q 79.890625 40.578125 77.09375 44.375 
Q 74.3125 48.1875 68.609375 48.1875 
Q 61.625 48.1875 57.5625 43.546875 
Q 53.515625 38.921875 53.515625 30.90625 
L 53.515625 0 
L 44.484375 0 
L 44.484375 32.71875 
Q 44.484375 40.625 41.703125 44.40625 
Q 38.921875 48.1875 33.109375 48.1875 
Q 26.21875 48.1875 22.15625 43.53125 
Q 18.109375 38.875 18.109375 30.90625 
L 18.109375 0 
L 9.078125 0 
L 9.078125 54.6875 
L 18.109375 54.6875 
L 18.109375 46.1875 
Q 21.1875 51.21875 25.484375 53.609375 
Q 29.78125 56 35.6875 56 
Q 41.65625 56 45.828125 52.96875 
Q 50 49.953125 52 44.1875 
z
" id="DejaVuSans-109"/>
      <path d="M 18.109375 8.203125 
L 18.109375 -20.796875 
L 9.078125 -20.796875 
L 9.078125 54.6875 
L 18.109375 54.6875 
L 18.109375 46.390625 
Q 20.953125 51.265625 25.265625 53.625 
Q 29.59375 56 35.59375 56 
Q 45.5625 56 51.78125 48.09375 
Q 58.015625 40.1875 58.015625 27.296875 
Q 58.015625 14.40625 51.78125 6.484375 
Q 45.5625 -1.421875 35.59375 -1.421875 
Q 29.59375 -1.421875 25.265625 0.953125 
Q 20.953125 3.328125 18.109375 8.203125 
z
M 48.6875 27.296875 
Q 48.6875 37.203125 44.609375 42.84375 
Q 40.53125 48.484375 33.40625 48.484375 
Q 26.265625 48.484375 22.1875 42.84375 
Q 18.109375 37.203125 18.109375 27.296875 
Q 18.109375 17.390625 22.1875 11.75 
Q 26.265625 6.109375 33.40625 6.109375 
Q 40.53125 6.109375 44.609375 11.75 
Q 48.6875 17.390625 48.6875 27.296875 
z
" id="DejaVuSans-112"/>
     </defs>
     <g transform="translate(85.982813 155.52631)scale(0.1 -0.1)">
      <use xlink:href="#DejaVuSans-99"/>
      <use x="54.980469" xlink:href="#DejaVuSans-111"/>
      <use x="116.162109" xlink:href="#DejaVuSans-109"/>
      <use x="213.574219" xlink:href="#DejaVuSans-112"/>
      <use x="277.050781" xlink:href="#DejaVuSans-97"/>
      <use x="338.330078" xlink:href="#DejaVuSans-114"/>
      <use x="379.443359" xlink:href="#DejaVuSans-116"/>
      <use x="418.652344" xlink:href="#DejaVuSans-109"/>
      <use x="516.064453" xlink:href="#DejaVuSans-101"/>
      <use x="577.587891" xlink:href="#DejaVuSans-110"/>
      <use x="640.966797" xlink:href="#DejaVuSans-116"/>
      <use x="680.175781" xlink:href="#DejaVuSans-97"/>
      <use x="741.455078" xlink:href="#DejaVuSans-108"/>
     </g>
    </g>
    <g id="line2d_27">
     <path d="M 57.982813 170.704435 
L 77.982813 170.704435 
" style="fill:none;stroke:#00d4ff;stroke-linecap:square;stroke-width:1.5;"/>
    </g>
    <g id="line2d_28">
     <g>
      <use style="fill:#00d4ff;stroke:#00d4ff;" x="67.982813" xlink:href="#mdda810050d" y="170.704435"/>
     </g>
    </g>
    <g id="text_25">
     <!-- metapopulation -->
     <defs>
      <path d="M 8.5 21.578125 
L 8.5 54.6875 
L 17.484375 54.6875 
L 17.484375 21.921875 
Q 17.484375 14.15625 20.5 10.265625 
Q 23.53125 6.390625 29.59375 6.390625 
Q 36.859375 6.390625 41.078125 11.03125 
Q 45.3125 15.671875 45.3125 23.6875 
L 45.3125 54.6875 
L 54.296875 54.6875 
L 54.296875 0 
L 45.3125 0 
L 45.3125 8.40625 
Q 42.046875 3.421875 37.71875 1 
Q 33.40625 -1.421875 27.6875 -1.421875 
Q 18.265625 -1.421875 13.375 4.4375 
Q 8.5 10.296875 8.5 21.578125 
z
M 31.109375 56 
z
" id="DejaVuSans-117"/>
     </defs>
     <g transform="translate(85.982813 174.204435)scale(0.1 -0.1)">
      <use xlink:href="#DejaVuSans-109"/>
      <use x="97.412109" xlink:href="#DejaVuSans-101"/>
      <use x="158.935547" xlink:href="#DejaVuSans-116"/>
      <use x="198.144531" xlink:href="#DejaVuSans-97"/>
      <use x="259.423828" xlink:href="#DejaVuSans-112"/>
      <use x="322.900391" xlink:href="#DejaVuSans-111"/>
      <use x="384.082031" xlink:href="#DejaVuSans-112"/>
      <use x="447.558594" xlink:href="#DejaVuSans-117"/>
      <use x="510.9375" xlink:href="#DejaVuSans-108"/>
      <use x="538.720703" xlink:href="#DejaVuSans-97"/>
      <use x="600" xlink:href="#DejaVuSans-116"/>
      <use x="639.208984" xlink:href="#DejaVuSans-105"/>
      <use x="666.992188" xlink:href="#DejaVuSans-111"/>
      <use x="728.173828" xlink:href="#DejaVuSans-110"/>
     </g>
    </g>
    <g id="line2d_29">
     <path d="M 57.982813 189.38256 
L 77.982813 189.38256 
" style="fill:none;stroke:#ffe600;stroke-linecap:square;stroke-width:1.5;"/>
    </g>
    <g id="line2d_30">
     <g>
      <use style="fill:#ffe600;stroke:#ffe600;" x="67.982813" xlink:href="#m5323dbb6b0" y="189.38256"/>
     </g>
    </g>
    <g id="text_26">
     <!-- stat&amp;prob -->
     <defs>
      <path d="M 24.3125 39.203125 
Q 19.875 35.25 17.796875 31.3125 
Q 15.71875 27.390625 15.71875 23.09375 
Q 15.71875 15.96875 20.890625 11.234375 
Q 26.078125 6.5 33.890625 6.5 
Q 38.53125 6.5 42.578125 8.03125 
Q 46.625 9.578125 50.203125 12.703125 
z
M 31.203125 44.671875 
L 56 19.28125 
Q 58.890625 23.640625 60.5 28.59375 
Q 62.109375 33.546875 62.40625 39.109375 
L 71.484375 39.109375 
Q 70.90625 32.671875 68.359375 26.359375 
Q 65.828125 20.0625 61.28125 13.921875 
L 74.90625 0 
L 62.59375 0 
L 55.609375 7.171875 
Q 50.53125 2.828125 44.96875 0.703125 
Q 39.40625 -1.421875 33.015625 -1.421875 
Q 21.234375 -1.421875 13.765625 5.296875 
Q 6.296875 12.015625 6.296875 22.515625 
Q 6.296875 28.765625 9.5625 34.25 
Q 12.84375 39.75 19.390625 44.578125 
Q 17.046875 47.65625 15.8125 50.703125 
Q 14.59375 53.765625 14.59375 56.6875 
Q 14.59375 64.59375 20.015625 69.40625 
Q 25.4375 74.21875 34.421875 74.21875 
Q 38.484375 74.21875 42.5 73.34375 
Q 46.53125 72.46875 50.6875 70.703125 
L 50.6875 61.8125 
Q 46.4375 64.109375 42.578125 65.296875 
Q 38.71875 66.5 35.40625 66.5 
Q 30.28125 66.5 27.078125 63.78125 
Q 23.875 61.078125 23.875 56.78125 
Q 23.875 54.296875 25.3125 51.78125 
Q 26.765625 49.265625 31.203125 44.671875 
z
" id="DejaVuSans-38"/>
      <path d="M 48.6875 27.296875 
Q 48.6875 37.203125 44.609375 42.84375 
Q 40.53125 48.484375 33.40625 48.484375 
Q 26.265625 48.484375 22.1875 42.84375 
Q 18.109375 37.203125 18.109375 27.296875 
Q 18.109375 17.390625 22.1875 11.75 
Q 26.265625 6.109375 33.40625 6.109375 
Q 40.53125 6.109375 44.609375 11.75 
Q 48.6875 17.390625 48.6875 27.296875 
z
M 18.109375 46.390625 
Q 20.953125 51.265625 25.265625 53.625 
Q 29.59375 56 35.59375 56 
Q 45.5625 56 51.78125 48.09375 
Q 58.015625 40.1875 58.015625 27.296875 
Q 58.015625 14.40625 51.78125 6.484375 
Q 45.5625 -1.421875 35.59375 -1.421875 
Q 29.59375 -1.421875 25.265625 0.953125 
Q 20.953125 3.328125 18.109375 8.203125 
L 18.109375 0 
L 9.078125 0 
L 9.078125 75.984375 
L 18.109375 75.984375 
z
" id="DejaVuSans-98"/>
     </defs>
     <g transform="translate(85.982813 192.88256)scale(0.1 -0.1)">
      <use xlink:href="#DejaVuSans-115"/>
      <use x="52.099609" xlink:href="#DejaVuSans-116"/>
      <use x="91.308594" xlink:href="#DejaVuSans-97"/>
      <use x="152.587891" xlink:href="#DejaVuSans-116"/>
      <use x="191.796875" xlink:href="#DejaVuSans-38"/>
      <use x="269.775391" xlink:href="#DejaVuSans-112"/>
      <use x="333.251953" xlink:href="#DejaVuSans-114"/>
      <use x="372.115234" xlink:href="#DejaVuSans-111"/>
      <use x="433.296875" xlink:href="#DejaVuSans-98"/>
     </g>
    </g>
    <g id="line2d_31">
     <path d="M 57.982813 208.060685 
L 77.982813 208.060685 
" style="fill:none;stroke:#800000;stroke-linecap:square;stroke-width:1.5;"/>
    </g>
    <g id="line2d_32">
     <g>
      <use style="fill:#800000;stroke:#800000;" x="67.982813" xlink:href="#m557ef4ebf3" y="208.060685"/>
     </g>
    </g>
    <g id="text_27">
     <!-- ensemble -->
     <g transform="translate(85.982813 211.560685)scale(0.1 -0.1)">
      <use xlink:href="#DejaVuSans-101"/>
      <use x="61.523438" xlink:href="#DejaVuSans-110"/>
      <use x="124.902344" xlink:href="#DejaVuSans-115"/>
      <use x="177.001953" xlink:href="#DejaVuSans-101"/>
      <use x="238.525391" xlink:href="#DejaVuSans-109"/>
      <use x="335.9375" xlink:href="#DejaVuSans-98"/>
      <use x="399.414062" xlink:href="#DejaVuSans-108"/>
      <use x="427.197266" xlink:href="#DejaVuSans-101"/>
     </g>
    </g>
   </g>
  </g>
 </g>
 <defs>
  <clipPath id="p8f2532840f">
   <rect height="200.322248" width="220.433545" x="48.982813" y="22.318125"/>
  </clipPath>
 </defs>
</svg>
